<svg width="211" height="210" viewBox="0 0 211 210" fill="none"
  xmlns="http://www.w3.org/2000/svg">
  <path d="M121.614 104.633C121.499 106.943 121.664 109.539 121.174 111.77C120.833 113.326 120.217 114.806 119.73 116.315C119.218 115.82 113.94 110.333 112.04 108.29C110.503 106.645 109.068 104.894 107.634 103.16C107.616 103.142 107.615 103.126 107.597 103.108C105.381 100.224 103.039 97.4697 100.593 94.7873C98.9242 92.8106 97.2545 90.817 95.586 88.8402C94.1846 86.7132 93.2198 84.4584 92.6278 81.6211C92.4316 80.6921 91.051 81.0225 91.2383 81.9428C91.4827 83.0914 91.7811 84.1664 92.1434 85.1933C91.2075 84.5074 90.1616 83.9353 89.1426 83.3892C89.1337 83.3805 89.1247 83.3718 89.1067 83.3544C89.0192 83.3012 88.9328 83.2647 88.8374 83.2195C88.3324 82.9508 87.1137 82.3057 86.9958 82.3017C84.6089 81.139 82.0154 79.9021 80.1942 78.1549C77.9791 76.0422 77.3872 72.4502 76.5336 69.7214C76.2454 68.7976 74.8559 69.1193 75.1441 70.0431C75.9798 72.7545 76.5987 75.9953 78.4837 78.3232C77.5568 78.0234 76.6141 77.7398 75.6781 77.4313C73.6437 75.6349 71.8943 73.5799 70.6277 71.206C69.4766 69.0539 68.8519 66.7353 67.6514 64.5983C67.1746 63.7437 65.9522 64.4316 66.4279 65.2694C67.7541 67.6538 68.4236 70.2674 69.8238 72.6292C70.6092 73.9555 71.5383 75.1693 72.5627 76.3025C70.3676 75.3726 68.2871 74.1449 66.0628 73.2811C62.0351 71.6937 58.1419 70.4882 54.4162 68.5169C52.3806 66.7037 51.3688 64.1204 50.4231 61.6484C50.3816 61.5296 50.3098 61.4601 50.2301 61.3987C50.0495 61.208 49.7498 61.1224 49.5377 61.3416C49.3569 61.5283 49.4063 61.7647 49.5353 61.9368C50.1871 63.6526 50.8871 65.4624 51.9249 67.0488C51.4592 66.7395 50.9845 66.4215 50.5256 66.0873C49.4741 65.3053 48.6275 66.9703 49.679 67.7522C52.5944 69.9139 55.6199 71.3331 58.7588 72.5633C58.2841 72.7484 57.8284 72.9677 57.3121 73.034C56.3974 73.1706 56.8696 74.5869 57.7765 74.4584C58.6171 74.3444 59.2883 73.8306 60.12 73.708C60.5858 73.64 61.0718 73.623 61.5678 73.6314C62.6609 74.0291 63.7798 74.4361 64.8998 74.8598C67.4753 75.8277 69.8477 77.2751 72.4008 78.2841C73.7979 78.8347 75.2142 79.2937 76.6294 79.7358C76.5789 79.7341 76.5284 79.7324 76.4869 79.7394C74.4364 79.8458 72.5373 80.4604 70.6472 81.0837C69.784 81.3646 70.2484 82.789 71.1115 82.5081C73.0679 81.8703 75.0635 81.1919 77.2049 81.1892C78.7503 81.1914 80.3395 81.4718 81.9017 81.7261C84.3718 82.6234 86.7318 83.76 89.0076 85.1454C90.1814 85.9986 92.4111 87.9525 92.4381 87.9786C94.745 90.7149 97.061 93.4599 99.3601 96.2044C99.4421 96.2994 99.6889 96.6012 99.9986 96.9639C99.0423 97.6106 98.4214 98.7549 98.5884 100.002C98.7263 100.937 100.183 100.995 100.053 100.051C99.9387 99.2173 100.347 98.5437 100.993 98.1464C101.594 98.8544 102.124 99.4928 102.124 99.4928L104.696 102.548C104.841 102.721 104.978 102.885 105.124 103.058C104.337 103.224 104.451 104.544 105.346 104.499C105.656 104.484 105.956 104.444 106.255 104.404C107.625 106.06 108.995 107.717 110.436 109.3C112.421 111.489 116.836 116.108 116.925 116.195C117.841 117.081 125.34 124.891 128.312 127.784C130.158 129.775 131.973 131.799 133.756 133.855C136.166 136.628 138.495 139.449 140.778 142.319C140.089 142.061 139.37 141.868 138.591 141.775C137.651 141.651 137.748 143.113 138.689 143.237C140.4 143.463 141.817 144.173 143.043 145.188C144.645 147.179 146.303 149.239 147.573 151.412C147.593 151.463 147.952 152.314 148.066 152.393C148.396 153.058 148.709 153.723 149.02 154.354C151.391 159.18 153.63 164.052 155.771 168.972C155.821 169.082 155.877 169.168 155.958 169.246C156.046 169.442 156.135 169.638 156.216 169.842C156.723 171.025 158.576 170.601 158.069 169.419C155.612 163.675 153.024 157.978 150.296 152.335C150.208 152.139 148.732 149.532 148.719 149.33C148.947 149.094 149.186 148.901 149.495 148.744C149.836 148.571 149.913 148.096 149.706 147.754C149.48 147.394 149.027 147.269 148.686 147.442C148.645 147.466 148.597 147.498 148.557 147.522C148.656 146.863 148.738 146.203 148.464 145.498C148.126 144.589 146.737 144.911 147.074 145.82C147.279 146.363 147.217 146.948 147.12 147.515C146.216 146.293 145.263 145.104 144.344 143.916C141.761 140.566 139.082 137.281 136.33 134.051C132.997 130.148 129.535 126.341 125.971 122.64C126.365 122.628 126.765 122.449 127.157 122.546C128.089 122.787 128.365 121.388 127.434 121.147C126.708 120.963 126.098 121.269 125.377 121.152C124.986 121.089 124.575 120.974 124.179 120.827C123.106 119.725 122.018 118.64 120.922 117.563C121.499 115.512 122.461 113.566 122.705 111.428C122.953 109.231 122.945 106.958 123.058 104.74C123.105 103.811 121.649 103.77 121.593 104.691L121.614 104.633Z" fill="#363A28"/>
  <path d="M50.9325 66.6546C51.25 67.1349 50.9121 67.7355 50.3655 67.7253C49.5148 67.688 48.7942 67.9653 48.086 68.3018C47.9558 68.3645 47.8256 68.4271 47.6954 68.4898C47.3003 68.7363 46.9108 68.941 46.5191 69.1122C41.2684 71.3569 36.5343 66.0981 32.1545 62.629C31.6574 62.2264 31.9493 61.5656 32.4017 61.4216C36.9563 59.9498 43.119 60.176 47.5101 63.1844C47.9847 63.5024 48.428 63.8528 48.8477 64.2276C49.6163 64.9245 50.3165 65.7281 50.9157 66.654L50.9325 66.6546Z" fill="#778757"/>
  <path d="M50.9324 66.6545C51.2499 67.1348 50.912 67.7354 50.3654 67.7252C49.3553 67.6909 48.5326 68.0738 47.7031 68.4816C47.308 68.7281 46.9185 68.9329 46.5268 69.104C46.2552 69.0612 45.9914 69.0103 45.7345 68.9345C42.8648 68.0908 40.0572 65.7818 37.4919 64.2106C36.7916 63.7843 37.0611 62.9131 37.7626 62.8531C40.9882 62.6105 44.3552 62.4734 47.5256 63.1681C48.8453 64.0682 50.0135 65.2147 50.9234 66.6458L50.9324 66.6545Z" fill="#616D47"/>
  <path d="M50.9322 66.6545C51.2497 67.1349 50.9118 67.7354 50.3652 67.7253C49.5145 67.688 48.7939 67.9653 48.0857 68.3018C46.3238 67.4454 44.6876 66.3333 42.8494 65.7174C42.1626 65.4929 42.027 64.4653 42.7554 64.3056C44.7678 63.8793 46.8172 63.8819 48.8642 64.2282C49.6329 64.9251 50.3331 65.7286 50.9322 66.6545Z" fill="#4A5136"/>
  <path d="M47.9941 49.5172C48.0715 49.6707 48.1657 49.8249 48.26 49.979C48.6796 50.6053 49.2429 51.1192 49.7591 51.6817C50.0576 52.0021 50.3403 52.3387 50.5759 52.724C51.0763 53.5543 51.2232 54.4984 51.3173 55.4071C51.5335 57.519 51.56 59.6831 50.6921 61.5318C50.6551 61.606 50.627 61.6889 50.59 61.7631C50.3598 62.2164 49.6056 62.2411 49.3195 61.7283C49.195 61.4977 49.0783 61.2589 48.9706 61.0289C48.8842 60.9924 48.7966 60.9391 48.708 60.8691C48.5285 60.6953 48.3489 60.5215 48.1783 60.3564C45.2407 57.2297 45.4401 53.0358 46.7247 49.4992C46.9021 49.0105 47.7529 49.0478 47.9952 49.534L47.9941 49.5172Z" fill="#778757"/>
  <path d="M48.2604 49.979C48.9235 50.9825 49.9526 51.6799 50.5842 52.7159C51.0846 53.5462 51.2315 54.4903 51.3256 55.399C51.5474 57.5949 51.5717 59.8512 50.5983 61.755C50.3681 62.2083 49.6139 62.233 49.3278 61.7202C49.2033 61.4896 49.0866 61.2509 48.9789 61.0208C48.8925 60.9843 48.8049 60.9311 48.7163 60.861C48.5367 60.6872 48.3572 60.5134 48.1866 60.3483C46.7484 57.2893 47.3046 53.5351 48.0572 50.3326C48.0898 50.1912 48.1661 50.0764 48.2772 49.9796L48.2604 49.979Z" fill="#616D47"/>
  <path d="M49.7584 51.6649C50.0569 51.9853 50.3396 52.3219 50.5752 52.7072C51.0756 53.5375 51.2225 54.4816 51.3166 55.3903C51.5328 57.5022 51.5593 59.6663 50.6914 61.515C49.2171 59.4274 48.1502 57.0267 48.7185 55.0924C48.7613 53.9703 49.0926 52.8916 49.7752 51.917C49.7696 51.833 49.755 51.7403 49.7494 51.6562L49.7584 51.6649Z" fill="#4A5136"/>
  <path d="M57.7596 74.5837C57.7596 74.5837 57.699 74.6822 57.6597 74.7228C56.8728 75.6435 55.9479 76.2577 54.9254 76.6674C54.6604 76.8512 54.4034 77.0269 54.1374 77.194C53.7737 77.408 53.4011 77.6133 53.0015 77.7926C52.2102 78.143 51.3527 78.3822 50.4335 78.4515C47.4828 78.6615 44.5685 77.1454 41.5718 77.1694C40.959 77.1737 40.5316 76.3039 40.9671 75.9079C41.1568 75.7299 41.3645 75.5692 41.5643 75.4167C43.0831 74.0094 44.5502 72.9609 46.3763 72.3857C48.4976 71.5774 50.7401 71.2009 52.9948 71.5123C53.0879 71.5238 53.1901 71.5441 53.2832 71.5556C54.786 71.7995 56.2842 72.3535 57.7576 73.2924C58.2839 73.6289 58.2849 74.4003 57.7518 74.5918L57.7596 74.5837Z" fill="#778757"/>
  <path d="M57.7599 74.5837C57.7599 74.5837 57.6993 74.6822 57.66 74.7228C56.8731 75.6435 55.9482 76.2577 54.9257 76.6674C54.3162 77.0994 53.6786 77.4886 53.0018 77.7926C50.5024 77.5903 47.8326 76.7197 45.4309 76.2189C44.9023 76.1003 44.623 75.3111 45.0215 74.9892C47.3911 72.9904 50.2622 71.7129 53.3004 71.5562C54.8031 71.8001 56.3013 72.3541 57.7747 73.293C58.3011 73.6295 58.302 74.4009 57.7689 74.5924L57.7599 74.5837Z" fill="#616D47"/>
  <path d="M57.7649 73.2843C56.3005 72.3541 54.7933 71.7914 53.2905 71.5475C53.1974 71.536 53.0953 71.5157 53.0021 71.5042C51.4532 72.2061 50.0007 73.2216 48.5763 74.0284C48.5337 74.0186 48.4921 74.0256 48.4495 74.0157C47.6302 73.946 47.5177 75.2837 48.3516 75.4462C48.42 75.4653 48.4784 75.4589 48.5379 75.4693C48.5379 75.4693 48.5637 75.4785 48.5715 75.4704C48.9195 75.5242 49.2404 75.5519 49.5682 75.5546C49.6613 75.5662 49.7455 75.569 49.8465 75.5725C49.9419 75.6176 50.0451 75.6547 50.1708 75.6505C50.2382 75.6528 50.3145 75.6638 50.3897 75.658C51.6084 76.1773 52.8732 76.7569 54.1447 77.1858C54.4197 77.0275 54.6767 76.8518 54.9327 76.6592C55.5545 76.4121 56.1539 76.0803 56.6882 75.654C56.8532 75.6093 56.971 75.4876 57.062 75.3397C57.2674 75.1455 57.4717 74.9344 57.667 74.7147C57.7063 74.6741 57.7366 74.6248 57.7669 74.5756C58.3079 74.3759 58.3069 73.6045 57.7728 73.2761L57.7649 73.2843Z" fill="#4A5136"/>
  <path d="M66.5749 52.9742C66.723 53.1805 66.8554 53.403 66.9788 53.6168C67.4399 54.362 67.809 55.1123 68.1209 55.8859C69.4009 59.0904 69.3655 62.4682 67.9227 65.5215C67.7172 65.9673 67.1527 65.9397 66.7802 65.642C66.4962 65.4143 66.2123 65.1867 65.9284 64.959C65.4526 64.75 64.9914 64.508 64.538 64.2578C63.6055 63.7482 62.7268 63.1649 61.902 62.5081C59.6599 60.7465 57.8062 58.5119 56.5565 55.887C54.4664 51.4895 55.4326 46.1981 52.3626 42.2201C51.7926 41.4796 52.8444 40.8782 53.4492 41.385C57.9367 45.0842 63.2346 48.0899 66.5681 52.9992L66.5749 52.9742Z" fill="#62664A"/>
  <path d="M66.9785 53.6168C69.3245 57.4445 69.7188 61.7257 67.9224 65.5215C67.7169 65.9673 67.1524 65.9397 66.7798 65.642C66.4959 65.4144 66.212 65.1867 65.9281 64.9591C64.4905 64.3065 63.1338 63.4806 61.9017 62.5081C59.1629 58.0801 57.7835 52.4994 55.9235 47.9001C55.6319 47.1775 56.5769 46.7401 57.1055 47.236C59.3542 49.3499 62.2844 50.2208 64.7824 51.9156C65.5477 52.4363 66.2828 53.0063 66.9875 53.6255L66.9785 53.6168Z" fill="#484C36"/>
  <path d="M68.1206 55.8859C69.4006 59.0904 69.3652 62.4682 67.9224 65.5215C67.7169 65.9673 67.1524 65.9397 66.7799 65.6419C66.4959 65.4143 66.212 65.1867 65.9281 64.959C65.4523 64.75 64.9911 64.5079 64.5377 64.2577C62.8166 61.1137 61.6658 57.5782 60.9256 54.6604C60.8224 54.246 61.0627 53.6924 61.5801 53.7687C63.8617 54.1062 66.1208 54.7363 68.1386 55.9033L68.1206 55.8859Z" fill="#363A28"/>
  <path d="M71.1992 81.4296C71.5718 81.8531 71.1799 82.5273 70.6625 82.5768C69.4437 82.6863 68.3829 83.4049 67.3761 84.1756C67.0404 84.4325 66.7138 84.6981 66.3939 84.9387C66.074 85.1794 65.753 85.4033 65.4465 85.5941C64.1793 86.3643 62.7931 86.988 61.2588 87.1538C60.8705 87.2496 60.4732 87.3367 60.0646 87.3816C56.1476 87.8354 51.4702 85.6976 47.6444 84.6201C46.8655 84.4008 46.9185 83.43 47.5504 83.2083C52.0995 81.6525 56.8596 79.8606 61.763 79.5913C62.4241 79.5551 63.0953 79.5443 63.7608 79.5753C65.9325 79.6491 68.1265 80.0591 70.3374 80.9727C70.3374 80.9727 70.3463 80.9814 70.3553 80.9901C70.5539 81.0723 70.7526 81.1545 70.9344 81.2361C71.0556 81.2906 71.1442 81.3606 71.2082 81.4383L71.1992 81.4296Z" fill="#778757"/>
  <path d="M70.6622 82.5768C69.0337 82.7143 67.6967 83.9517 66.3935 84.9388C64.8649 85.0629 63.3385 85.0949 61.8111 84.9843C59.6045 85.2698 56.4362 85.4891 54.5801 84.1013C54.5038 84.0903 54.4275 84.0793 54.359 84.0602C53.4589 83.9122 53.696 82.6794 54.4491 82.6379C57.2583 82.4483 59.3585 80.6918 61.7717 79.6C64.784 79.4341 67.8513 79.8402 70.9509 81.2367C71.7297 81.5818 71.2974 82.5313 70.6801 82.5942L70.6622 82.5768Z" fill="#616D47"/>
  <path d="M71.1993 81.4296C71.5718 81.8531 71.18 82.5273 70.6626 82.5768C69.4438 82.6863 68.383 83.4049 67.3762 84.1756C66.5198 84.18 65.6725 84.1931 64.8262 84.2231C63.2157 84.2522 60.0461 85.0835 58.7736 83.6317C58.547 83.3808 58.4404 83.0418 58.5976 82.7537C58.9917 81.9873 59.6101 81.9412 60.3823 81.5566C61.4138 81.0299 62.2871 80.2715 63.3288 79.7702C63.4668 79.6995 63.6139 79.6374 63.753 79.5834C65.9247 79.6572 68.1188 80.0672 70.3296 80.9808C70.3296 80.9808 70.3386 80.9895 70.3476 80.9982C70.6427 81.1423 70.9221 81.3028 71.2004 81.4464L71.1993 81.4296Z" fill="#4A5136"/>
  <path d="M78.071 47.7808C78.7809 50.6222 79.5076 53.4641 80.2085 56.2968C80.6796 58.1993 81.2325 60.1969 80.8797 62.0882C80.8247 62.3965 80.7517 62.6875 80.663 62.9947C80.4597 63.7257 80.1891 64.4543 79.8758 65.1731C79.4413 66.2148 78.9371 67.2206 78.5206 68.1539C78.0962 69.0953 77.1734 70.372 75.8884 69.9929C75.7346 69.9542 75.5955 69.8824 75.4462 69.7851C75.2476 69.8286 75.0254 69.7708 74.8324 69.521C74.6226 69.2708 74.4206 69.0124 74.2433 68.7464C74.2074 68.7116 74.1883 68.6775 74.1603 68.6346C74.0952 68.5401 74.0301 68.4457 73.965 68.3513C73.7889 68.1021 73.6206 67.8449 73.477 67.58C72.9014 66.6298 72.4571 65.6337 72.1128 64.6242C71.4879 63.186 71.1111 61.6891 71.1854 60.1573C71.3579 56.3146 73.877 52.778 75.863 49.5588C76.1718 48.8985 76.4547 48.229 76.7108 47.5333C76.9331 46.9624 77.9117 47.1549 78.0609 47.7553L78.071 47.7808Z" fill="#778757"/>
  <path d="M77.6617 52.4791C77.2334 56.137 80.5527 59.3186 80.6721 63.0035C80.4688 63.7344 80.1982 64.463 79.8849 65.1819C79.4504 66.2235 78.9463 67.2293 78.5297 68.1626C78.1053 69.1041 77.1825 70.3807 75.8975 70.0016C75.7438 69.9629 75.6046 69.8911 75.4554 69.7938C75.2567 69.8373 75.0345 69.7795 74.8415 69.5298C74.6317 69.2795 74.4297 69.0211 74.2524 68.7551C74.2165 68.7204 74.1975 68.6862 74.1694 68.6433C74.1043 68.5489 74.0393 68.4544 73.9742 68.36C73.798 68.1108 73.6297 67.8536 73.4861 67.5888C73.3987 67.0324 73.3191 66.4679 73.2227 65.9029C72.9256 64.0901 72.5264 62.2571 72.5986 60.4401C72.717 57.0483 74.3045 54.1509 76.4026 51.732C76.8864 51.1783 77.7438 51.8195 77.6786 52.4796L77.6617 52.4791Z" fill="#616D47"/>
  <path d="M77.185 57.3009C77.5046 58.9467 78.1216 60.2673 78.9193 61.7785C79.3512 62.5897 79.7024 63.3228 79.8291 64.2158C79.8672 64.5357 79.8884 64.8551 79.876 65.1733C79.4415 66.215 78.9374 67.2208 78.5208 68.1541C78.0964 69.0955 77.1736 70.3721 75.8886 69.9931C75.7349 69.9543 75.5957 69.8825 75.4465 69.7852C75.2478 69.8287 75.0256 69.7709 74.8326 69.5212C74.6228 69.2709 74.4208 69.0125 74.2435 68.7465C74.2435 68.7465 74.2503 68.7216 74.2491 68.7048C74.2222 68.6787 74.1953 68.6527 74.1683 68.6266C74.0875 68.5484 74.0225 68.4539 73.9731 68.3433C73.9316 68.2245 73.9058 68.0894 73.9384 67.948C74.1923 66.59 74.3811 65.2632 74.1255 63.8208C74.0033 63.1207 73.7823 62.4508 73.8195 61.7477C73.8826 60.0478 75.0602 58.4361 75.8495 57.0459C76.1201 56.5688 77.0696 56.5759 77.2075 57.2597L77.185 57.3009Z" fill="#4A5136"/>
  <path d="M95.5816 55.9892C95.1907 57.6864 93.9066 58.7076 93.674 60.5108C93.4795 62.005 93.6206 63.6196 93.7135 65.1404C93.916 68.3083 94.2959 71.4906 94.0765 74.6274C93.9898 75.9743 93.6877 77.2385 93.4562 78.5554C93.2989 79.4724 93.5961 81.0336 93.1088 81.9142C93.0717 81.9884 93.0257 82.054 92.9797 82.1195C92.9247 82.1763 92.8697 82.2331 92.8147 82.2899C92.6631 82.4106 92.5004 82.4889 92.3264 82.5249C92.0121 82.7238 91.5408 82.7078 91.2524 82.2872C91.2165 82.2524 91.2053 82.2101 91.1694 82.1753L91.1514 82.158C91.0347 82.045 90.9494 81.8996 90.872 81.746C90.6297 81.3856 90.3873 81.0252 90.1607 80.6486C87.7159 76.7253 85.5328 71.6875 86.354 67.4979C86.8617 64.9076 88.5793 62.5763 89.8873 60.3988C91.1199 58.353 92.2539 56.2115 94.4931 55.1557C95.0139 54.9051 95.7602 55.3916 95.6164 56.0072L95.5816 55.9892Z" fill="#778757"/>
  <path d="M93.5185 59.1807C92.014 62.693 93.1793 66.9501 93.0899 70.7788C93.0106 74.5073 92.5307 78.1467 93.0844 81.9218C93.0474 81.996 93.0014 82.0615 92.9553 82.127C92.9003 82.1838 92.8453 82.2407 92.7903 82.2975C92.6388 82.4181 92.476 82.4964 92.3021 82.5324C91.9878 82.7314 91.5164 82.7153 91.2281 82.2947C91.1921 82.2599 91.1809 82.2176 91.145 82.1829L91.1271 82.1655C91.0104 82.0525 90.9251 81.9071 90.8477 81.7535C90.6053 81.3931 90.363 81.0328 90.1363 80.6561C86.9021 72.9498 87.6522 64.7919 92.2022 58.4568C92.2022 58.4568 92.2101 58.4487 92.2179 58.4406C92.2572 58.4 92.2954 58.3426 92.3257 58.2933C92.8185 57.6225 93.8284 58.5372 93.5376 59.2149L93.5185 59.1807Z" fill="#616D47"/>
  <path d="M91.5801 67.2731C91.5801 67.2731 91.5981 67.2904 91.616 67.3078C91.6822 67.4191 91.7159 67.546 91.7069 67.6631C91.7445 70.4983 91.7574 73.3412 91.7951 76.1764C91.8182 78.2902 92.3678 80.2373 92.7894 82.2807C92.6379 82.4013 92.4751 82.4796 92.3012 82.5156C91.9869 82.7146 91.5155 82.6986 91.2271 82.2779C91.1912 82.2432 91.18 82.2008 91.1441 82.1661L91.1262 82.1487C91.0824 81.9963 91.0308 81.852 90.996 81.7083C90.3466 79.9003 89.9799 78.0516 89.8052 76.1843C89.7121 75.5439 89.6438 74.8959 89.5844 74.2567C89.4243 72.3563 88.7505 68.292 90.386 66.9977C90.7923 66.6677 91.3456 66.9046 91.5801 67.2731Z" fill="#4A5136"/>
  <path d="M108.713 73.9677C109.891 75.1396 110.935 76.4328 111.732 77.9271C113.468 81.1807 114.439 85.9259 113.368 89.2601C112.22 92.8348 109.324 95.6291 105.822 96.8935C104.83 97.2539 103.408 97.8428 102.378 97.0029C102.112 96.7926 101.927 96.5348 101.809 96.2792C101.753 96.1935 101.705 96.0996 101.664 95.9976C101.619 95.9542 101.581 95.8858 101.56 95.818C101.542 95.8006 101.531 95.7583 101.527 95.7079C101.527 95.7079 101.527 95.7079 101.518 95.6992C101.501 95.6818 101.507 95.6569 101.489 95.6395C101.349 95.2994 101.258 94.9441 101.24 94.5494C101.225 94.4399 101.236 94.3564 101.256 94.2817C101.251 94.1976 101.254 94.1223 101.248 94.0383C101.234 93.4425 101.329 92.8588 101.442 92.2757C102.243 84.7651 105.485 76.6919 100.574 69.5323C100.146 68.914 100.877 68.1591 101.509 68.5663C103.413 69.7965 105.388 71.0793 107.175 72.5571C107.717 73.0031 108.235 73.4735 108.73 73.9682L108.713 73.9677Z" fill="#778757"/>
  <path d="M108.713 73.9676C109.891 75.1396 110.934 76.4327 111.731 77.9271C113.468 81.1807 114.439 85.9258 113.367 89.2601C112.22 92.8348 109.324 95.6291 105.822 96.8935C104.829 97.2539 103.407 97.8428 102.377 97.0029C102.111 96.7926 101.926 96.5348 101.808 96.2792C101.752 96.1935 101.704 96.0996 101.664 95.9976C101.619 95.9542 101.581 95.8858 101.559 95.818C101.541 95.8006 101.53 95.7583 101.527 95.7079C101.527 95.7079 101.527 95.7079 101.518 95.6992C101.5 95.6818 101.507 95.6569 101.489 95.6395C101.502 95.5896 101.516 95.5398 101.546 95.4905C103.594 91.5607 105.56 87.41 105.397 82.6923C105.255 78.797 105.454 75.735 107.166 72.5652C107.708 73.0112 108.227 73.4816 108.722 73.9763L108.713 73.9676Z" fill="#616D47"/>
  <path d="M108.714 73.9676C109.892 75.1396 110.935 76.4328 111.732 77.9271C113.469 81.1807 114.44 85.9259 113.368 89.2601C112.221 92.8348 109.325 95.6291 105.823 96.8935C104.831 97.2539 103.408 97.8428 102.378 97.0029C102.112 96.7926 101.927 96.5348 101.809 96.2792C101.753 96.1935 101.705 96.0996 101.665 95.9976C101.62 95.9542 101.582 95.8858 101.56 95.818C101.652 95.8127 101.753 95.8162 101.848 95.8445C102.01 95.892 102.172 95.9226 102.326 95.9614C102.365 95.9208 102.396 95.8883 102.436 95.8477C104.384 94.4634 106.382 93.064 107.923 91.2214C109.922 88.8327 110.506 86.5049 109.411 83.3067C108.308 80.1166 108.026 77.013 108.712 73.9508L108.714 73.9676Z" fill="#4A5136"/>
  <path d="M105.929 103.286C106.109 103.46 106.238 103.758 106.16 103.982C105.63 105.607 103.107 106.184 101.154 106.495C100.681 106.571 100.24 106.631 99.8569 106.685C98.1532 106.954 96.4102 107.012 94.6639 106.894C93.4664 106.82 92.2711 106.654 91.0961 106.413C83.6262 104.842 78.2346 98.4126 70.5715 97.8503C69.6433 97.7852 69.5381 96.3311 70.4831 96.3968C70.8714 96.4268 71.2609 96.4735 71.6413 96.5116C71.7794 96.4408 71.9455 96.413 72.1509 96.4702C75.3381 97.417 78.4776 95.3773 81.5169 94.9859C84.2645 94.6265 87.1263 94.8495 89.8826 95.6307C92.0564 96.2412 94.0057 97.2633 95.9135 98.4181C96.6564 98.8542 97.3757 99.3147 98.1119 99.7757C98.2084 99.8377 98.3217 99.9002 98.4182 99.9622C99.7413 100.787 101.089 101.604 102.549 102.09C103.717 102.482 105 102.324 105.902 103.26L105.929 103.286Z" fill="#62664A"/>
  <path d="M105.929 103.286C106.109 103.46 106.238 103.758 106.16 103.982C105.63 105.607 103.107 106.184 101.154 106.494C100.681 106.571 100.24 106.631 99.857 106.685C98.1532 106.954 96.4102 107.012 94.6639 106.894C94.5607 106.857 94.4653 106.812 94.3699 106.767C92.1961 105.779 90.6421 103.756 88.6502 102.473C86.2622 100.916 83.5778 99.9525 80.9607 98.9915C80.0573 98.6674 80.3157 97.3765 81.246 97.601C84.9574 98.4733 88.5084 98.5773 92.1437 98.0552C93.6993 97.8314 94.8014 97.9862 95.9315 98.4355C96.6744 98.8716 97.3937 99.332 98.1299 99.793C98.2264 99.855 98.3397 99.9175 98.4362 99.9795C99.7593 100.804 101.107 101.621 102.567 102.107C103.735 102.499 105.018 102.341 105.92 103.277L105.929 103.286Z" fill="#484C36"/>
  <path d="M105.929 103.286C106.109 103.46 106.238 103.758 106.16 103.982C105.63 105.607 103.107 106.184 101.154 106.495C101.154 106.495 101.145 106.486 101.136 106.477C99.6839 106.361 98.2586 106.145 96.9153 105.395C95.214 104.44 93.6992 103.005 92.1663 101.804C91.732 101.462 91.905 100.655 92.4134 100.597C93.4965 100.466 95.8984 100.086 98.427 99.9709C99.75 100.796 101.098 101.613 102.558 102.098C103.726 102.49 105.009 102.333 105.911 103.269L105.929 103.286Z" fill="#363A28"/>
  <path d="M120.307 53.4757C127.058 62.0394 135.322 72.5076 134.703 83.5123C134.705 83.5459 134.691 83.579 134.693 83.6126C134.557 85.9808 134.053 88.2611 133.292 90.4487C132.389 93.0341 131.116 95.481 129.652 97.7119C128.088 100.082 126.269 102.267 124.187 104.184C123.666 104.669 123.062 105.185 122.41 105.23C122.368 105.237 122.317 105.235 122.267 105.233C121.93 105.222 121.601 105.077 121.259 104.73C121.143 104.617 121.084 104.497 121.043 104.379C119.187 102.739 117.945 100.609 117.159 98.2767C117.044 97.929 116.936 97.5732 116.838 97.2261C116.838 97.2261 116.82 97.2087 116.835 97.1924C115.518 92.2846 116.007 86.6416 116.941 82.5146C117.956 78.0717 119.384 73.7937 119.919 69.2172C120.235 66.5197 120.371 63.7742 120.449 61.035C120.527 58.6732 120.538 56.3091 119.092 54.1555C118.533 53.3147 119.728 52.7265 120.316 53.4844L120.307 53.4757Z" fill="#778757"/>
  <path d="M123.864 65.8968C125.313 67.6146 126.337 69.6114 127.826 71.2886C129.188 72.8273 130.611 74.2675 131.758 75.9918C133.336 78.368 134.356 80.9432 134.701 83.6045C134.565 85.9727 134.061 88.253 133.3 90.4406C132.397 93.0259 131.124 95.4729 129.66 97.7038C128.096 100.074 126.277 102.259 124.195 104.175C123.673 104.661 123.07 105.177 122.417 105.222C122.376 105.229 122.325 105.227 122.275 105.225C121.938 105.214 121.609 105.069 121.267 104.722C121.15 104.609 121.092 104.489 121.051 104.37C119.195 102.731 117.953 100.601 117.167 98.2686C117.157 98.3688 117.147 98.4691 117.137 98.5694C117.032 98.1214 116.934 97.6653 116.853 97.2098C116.853 97.2098 116.835 97.1924 116.851 97.1762C116.312 94.2484 116.258 91.3036 117.01 88.4616C117.916 85.0463 119.325 81.7404 120.63 78.5063C121.394 76.6038 122.059 74.8741 122.076 72.7198C122.094 70.7249 121.942 68.6906 121.859 66.6923C121.82 65.7267 123.124 65.008 123.88 65.8973L123.864 65.8968Z" fill="#616D47"/>
  <path d="M127.461 75.9045C132.121 79.5509 133.582 85.0841 133.292 90.4488C132.389 93.0341 131.116 95.4811 129.652 97.7119C128.088 100.082 126.269 102.267 124.188 104.184C123.666 104.669 123.062 105.185 122.41 105.23C122.368 105.237 122.318 105.235 122.267 105.233C121.93 105.222 121.602 105.077 121.259 104.73C121.143 104.617 121.084 104.497 121.043 104.379C119.187 102.739 117.945 100.609 117.16 98.2767C117.189 98.0849 117.21 97.9011 117.239 97.7093C117.247 94.9175 118.072 92.3044 119.058 89.7051C120.129 86.874 121.244 84.0695 122.351 81.2731C122.531 80.6923 123.933 77.034 124.161 76.547C124.214 76.4566 124.609 75.5812 124.745 75.2253C125.039 74.4723 126.076 74.5327 126.655 75.0303C126.976 75.3095 127.231 75.6033 127.462 75.9213L127.461 75.9045Z" fill="#4A5136"/>
  <path d="M99.4002 98.8385C100.271 99.6814 100.153 100.432 100.055 101.485C99.8359 103.616 99.8501 105.595 100.019 107.756C100.043 108.109 100.074 108.453 100.089 108.798C100.105 109.176 100.121 109.537 100.129 109.906C100.188 112.557 99.8495 115.044 98.3418 117.249C96.1605 120.436 92.7023 121.853 89.3384 123.55C86.5099 124.963 84.4981 128.173 81.0267 128.256C80.5654 128.266 80.1525 127.74 80.2502 127.316C80.5591 126.027 81.3157 125.533 82.1509 124.58C83.2768 123.327 83.7776 121.768 84.1539 120.104C84.7223 117.54 84.954 114.84 86.1598 112.517C87.3297 110.284 89.1706 108.67 91.1103 107.151C91.8208 106.597 92.5482 106.043 93.2497 105.48C95.259 103.871 97.1168 102.132 98.1531 99.6597C98.1745 99.476 99.013 98.4481 99.3991 98.8217L99.4002 98.8385Z" fill="#778757"/>
  <path d="M99.4004 98.8386C100.271 99.6815 100.153 100.432 100.055 101.485C99.8361 103.616 99.8503 105.595 100.019 107.756C100.043 108.109 100.074 108.453 100.089 108.798C100.106 109.176 100.121 109.537 100.129 109.906C99.2598 112.618 97.2897 114.689 95.0043 116.314C92.8479 118.613 90.3313 120.548 87.6172 122.167C86.4701 122.849 85.1292 121.126 86.025 120.201C87.8166 118.35 87.8598 115.216 88.674 112.812C89.3331 110.855 90.173 108.964 91.1273 107.152C91.8378 106.597 92.5652 106.043 93.2668 105.48C95.276 103.872 97.1338 102.132 98.1702 99.6604C98.1915 99.4766 99.0301 98.4487 99.4161 98.8223L99.4004 98.8386Z" fill="#616D47"/>
  <path d="M99.4 98.8386C100.271 99.6815 100.153 100.432 100.055 101.485C99.8357 103.616 99.8499 105.595 100.019 107.756C100.042 108.109 100.074 108.453 100.088 108.798C99.243 109.851 98.0229 110.698 97.0934 111.622C95.944 112.774 94.9885 114.569 93.4654 115.28C91.3081 116.305 90.1177 114.445 90.3941 112.417C90.6672 110.465 91.7898 108.91 92.5836 107.21C92.8486 106.648 93.0541 106.077 93.2495 105.48C95.2588 103.871 97.1165 102.132 98.1529 99.6598C98.1743 99.476 99.0128 98.4481 99.3988 98.8217L99.4 98.8386Z" fill="#4A5136"/>
  <path d="M103.852 122.928C104.222 123.821 103.827 124.57 103.252 125.146C102.024 126.379 100.523 127.301 99.3332 128.602C97.9951 130.074 96.8522 131.703 95.9282 133.466C95.2658 134.743 94.9142 136.777 93.7311 137.676C91.8936 139.089 87.7984 137.877 85.6313 137.242C85.5202 137.213 85.408 137.167 85.2969 137.138C84.7571 136.977 84.224 136.791 83.6977 136.581C81.3791 135.689 79.1796 134.44 77.1799 132.913C70.604 127.868 66.5103 119.361 58.3885 116.578C56.8589 116.057 57.3251 113.725 58.8547 114.247C60.0151 114.647 63.6154 115.616 64.0766 115.606C70.7915 115.549 77.2846 113.422 84.1271 114.778C86.5355 115.254 88.9024 116.115 91.2333 117.066C92.709 117.661 94.1791 118.298 95.6291 118.884C96.1038 119.076 96.5785 119.268 97.0532 119.46C98.4773 120.037 99.9014 120.614 101.317 121.182C102.24 121.557 103.439 121.899 103.877 122.937L103.852 122.928Z" fill="#62664A"/>
  <path d="M103.852 122.928C104.222 123.821 103.827 124.57 103.252 125.146C102.024 126.379 100.523 127.3 99.3333 128.602C97.9952 130.074 96.8524 131.703 95.9284 133.466C95.266 134.743 94.9143 136.777 93.7312 137.676C91.8937 139.089 87.7986 137.877 85.6315 137.242C85.5204 137.213 85.4082 137.167 85.2971 137.138C84.7572 136.977 84.2242 136.791 83.6978 136.581C82.3277 135.679 81.0765 134.546 79.997 133.218C78.0559 130.805 76.7175 127.984 74.6955 125.618C72.7644 123.355 70.0778 121.981 68.1231 119.743C67.451 118.982 67.6937 117.582 68.8519 117.697C74.5756 118.269 79.8037 116.946 85.3851 116.641C86.3974 116.583 87.3659 116.75 88.3939 116.927C89.3883 117.104 90.3019 117.076 91.2244 117.057C92.7002 117.652 94.1703 118.289 95.6202 118.875C96.0949 119.067 96.5697 119.259 97.0444 119.452C98.4685 120.028 99.8926 120.605 101.308 121.173C102.231 121.548 103.43 121.891 103.869 122.928L103.852 122.928Z" fill="#484C36"/>
  <path d="M138.608 141.272C132.667 139.326 129.507 134.381 124.647 130.762C120.423 127.616 115.579 125.615 110.79 123.7C110.6 123.627 101.762 120.811 98.9703 120.247C98.3227 119.981 89.8794 120.315 86.83 120.681C83.4147 121.101 79.9917 120.272 76.6213 120.611C75.829 120.693 75.6043 121.733 75.9903 122.358C78.6281 126.657 81.1379 131.052 83.9373 135.256C84.367 135.907 84.7967 136.559 85.2972 137.138C85.4173 137.176 85.5205 137.213 85.6316 137.242C85.8718 137.317 86.1456 137.393 86.4195 137.47C86.5261 137.557 86.6562 137.62 86.819 137.668C91.9803 139.126 97.1292 140.651 102.258 142.251C106.881 143.691 111.49 145.432 116.175 146.555C119.888 147.444 123.634 147.706 127.07 146.456C129.193 145.681 131.145 144.473 133.43 144.107C135.358 143.803 137.207 143.941 138.953 143.053C139.709 142.668 139.397 141.517 138.599 141.264L138.608 141.272Z" fill="#363A28"/>
  <path d="M119.868 119.028C120.299 120.577 119.26 122.764 118.813 124.124C118.318 125.642 117.753 127.123 117.129 128.594C116.672 129.677 116.191 130.784 115.685 131.882C113.453 136.829 110.754 141.827 107.082 145.71C106.181 146.677 105.198 147.566 104.161 148.386C98.843 152.515 91.729 156.163 84.6941 156.838C84.4438 156.863 84.2194 156.772 84.0578 156.615C84.0578 156.615 84.05 156.623 84.0331 156.623C83.4046 156.643 83.0097 155.758 83.4284 155.361C87.0138 151.945 88.9282 147.399 91.1119 142.987C93.1991 138.765 95.734 134.835 98.1983 130.852C98.9482 129.628 99.6959 128.371 100.48 127.148C101.704 125.236 103.051 123.395 104.786 121.945C105.382 121.437 106.015 120.981 106.667 120.559C108.93 119.101 111.517 118.099 114.224 117.512C115.946 117.134 119.155 116.514 119.851 119.028L119.868 119.028Z" fill="#9EB274"/>
  <path d="M119.869 119.028C120.299 120.577 119.261 122.764 118.814 124.124C118.319 125.641 117.754 127.123 117.13 128.594C116.673 129.677 116.192 130.784 115.686 131.882C113.454 136.829 110.755 141.827 107.083 145.71C104.775 146.746 102.196 147.363 99.592 147.736C98.8557 147.904 98.1172 148.038 97.3899 148.089C96.3933 148.256 95.373 148.322 94.3091 148.235C93.7435 148.191 93.4933 147.713 93.5674 147.313C93.5315 147.152 93.5383 147.002 93.6034 146.845C95.4438 142.069 97.2932 137.303 98.7969 132.39C99.3348 130.631 99.8379 128.854 100.497 127.149C101.722 125.237 103.069 123.396 104.803 121.946C105.399 121.438 106.032 120.981 106.685 120.559C108.947 119.102 111.535 118.1 114.242 117.512C115.963 117.135 119.172 116.515 119.869 119.028Z" fill="#A9BA7B"/>
  <path d="M119.869 119.028C120.299 120.577 119.261 122.764 118.814 124.124C118.319 125.642 117.754 127.123 117.129 128.594C116.672 129.677 116.192 130.784 115.685 131.882C115.223 132.504 114.726 133.107 114.218 133.686C113.181 134.883 112.045 136.236 110.7 137.104C109.709 137.733 108.686 137.623 107.613 137.905C106.292 138.246 104.022 141.615 102.371 139.152C101.728 138.2 102.287 137.011 102.592 136.158C103.244 134.352 104.001 132.6 104.679 130.804C105.925 127.576 106.95 124.165 106.66 120.567C108.923 119.109 111.51 118.107 114.217 117.52C115.939 117.142 119.147 116.522 119.844 119.036L119.869 119.028Z" fill="#B9D388"/>
  <path d="M122.129 122.568C122.731 124.676 123.31 126.809 123.771 128.937C124.627 132.849 125.062 136.729 124.783 140.61C124.772 140.819 124.75 141.003 124.739 141.212C124.719 141.412 124.663 141.578 124.589 141.727C124.545 142.706 124.441 143.675 124.263 144.65C123.786 147.208 122.941 149.644 122.05 152.037C121.886 152.476 121.587 153.145 121.18 153.978C120.436 155.538 119.35 157.647 118.277 159.69C116.638 162.82 111.833 170.497 110.289 172.415C106.56 177.076 103.561 181.736 102.355 187.833C102.292 188.149 102.147 188.371 101.973 188.532C101.99 188.659 102.014 188.777 102.031 188.903C102.333 190.783 99.4103 190.659 99.111 188.812C97.9709 181.781 96.2439 174.511 96.1195 167.473C96.0195 162.061 96.7188 155.536 99.8262 151.248C101.304 149.219 103.335 147.695 105.215 146.04C105.906 145.435 106.577 144.795 107.196 144.12C109.324 141.778 111.088 139.13 112.475 136.259C112.961 135.236 113.404 134.186 113.787 133.126C114.489 131.179 115.034 129.16 115.383 127.076C115.876 124.141 116.159 121.208 117.757 118.714C118.168 118.073 118.948 117.807 119.715 118.235C121.391 119.181 121.657 120.9 122.13 122.585L122.129 122.568Z" fill="#778757"/>
  <path d="M122.128 122.568C122.73 124.676 123.309 126.809 123.77 128.937C124.626 132.849 125.061 136.729 124.782 140.61C124.771 140.819 124.749 141.003 124.738 141.212C124.718 141.412 124.662 141.578 124.588 141.727C124.544 142.706 124.44 143.675 124.262 144.65C123.785 147.208 122.94 149.644 122.049 152.037C121.885 152.476 121.586 153.145 121.179 153.978C119.851 155.476 118.073 156.522 116.31 157.787C113.135 160.06 110.496 163.056 108.599 166.471C107.502 168.413 106.641 170.488 106.039 172.673C105.714 173.852 105.633 175.535 104.549 176.278C101.722 178.228 100.442 173.874 100.021 171.848C99.2989 168.444 99.3781 164.967 99.7951 161.644C100.264 157.837 101.363 154.168 102.943 150.776C103.677 149.191 104.524 147.652 105.231 146.041C105.922 145.435 106.593 144.796 107.211 144.121C109.34 141.779 111.103 139.13 112.491 136.26C112.977 135.236 113.42 134.187 113.803 133.126C114.504 131.18 115.05 129.161 115.399 127.077C115.892 124.142 116.175 121.209 117.773 118.714C118.184 118.074 118.964 117.807 119.731 118.236C121.407 119.181 121.672 120.901 122.146 122.585L122.128 122.568Z" fill="#616D47"/>
  <path d="M122.127 122.568C122.73 124.676 123.308 126.809 123.769 128.937C124.626 132.849 125.061 136.729 124.782 140.61C124.24 141.941 123.518 143.208 122.618 144.443C119.001 149.402 113.657 152.641 109.43 157.008C108.605 157.86 106.929 157.166 106.861 155.89C106.629 151.027 108.785 147.076 110.895 143.064C112.616 139.777 113.468 136.561 113.784 133.109C114.486 131.163 115.032 129.144 115.38 127.059C115.873 124.125 116.157 121.191 117.754 118.697C118.165 118.057 118.945 117.79 119.713 118.218C121.388 119.164 121.654 120.883 122.127 122.568Z" fill="#4A5136"/>
  <path d="M183.524 93.6314C183.204 93.4948 182.886 93.3749 182.558 93.2464C180.631 92.812 177.826 94.8296 176.483 95.6057C175.966 95.9067 175.458 96.2164 174.958 96.5348C173.46 97.49 172.018 98.5478 170.649 99.6751C167.185 102.517 164.109 105.766 161.149 109.112C158.619 111.977 156.196 114.947 153.343 117.5C153.034 117.783 152.716 118.057 152.382 118.331C149.221 121.434 146.004 124.453 141.465 125.657C139.897 126.45 138.184 126.962 136.177 126.844C134.996 126.77 133.75 126.585 132.551 126.242C130.394 125.632 128.406 124.525 127.235 122.716C127.011 122.373 126.827 122.006 126.666 121.615C124.128 117.806 126.403 112.744 128.014 109.319C128.699 107.875 129.457 106.391 130.292 104.936C130.699 104.229 131.114 103.53 131.555 102.841C133.248 100.14 135.195 97.5898 137.348 95.4914C142.356 90.6056 150.585 87.1877 158.451 87.7737C160.611 87.6626 162.796 87.6865 164.949 87.7262C171.003 87.8481 177.149 88.1995 183.041 90.4121C183.519 90.5289 183.993 90.7043 184.456 90.98C185.899 91.8423 185.156 94.2989 183.541 93.632L183.524 93.6314Z" fill="#62664A"/>
  <path d="M174.959 96.535C173.461 97.4902 172.019 98.548 170.65 99.6753C167.186 102.517 164.11 105.767 161.15 109.112C158.62 111.978 156.197 114.947 153.344 117.5C153.035 117.783 152.717 118.057 152.383 118.331C149.222 121.435 146.005 124.453 141.466 125.657C139.898 126.45 138.185 126.962 136.178 126.844C134.997 126.77 133.751 126.585 132.552 126.243C131.249 125.72 130.029 125.058 128.934 124.25C128.28 123.758 127.716 123.244 127.236 122.716C127.012 122.373 126.828 122.007 126.667 121.616C124.129 117.806 126.404 112.744 128.015 109.319C128.7 107.875 129.458 106.392 130.293 104.936C130.7 104.229 131.115 103.53 131.556 102.841C133.309 101.534 135.254 100.476 137.359 99.6842C141.251 98.215 145.51 97.7309 149.647 97.0498C157.106 95.8109 165.528 92.6258 173.367 95.3238C174.071 95.5657 174.621 96.0037 174.967 96.5269L174.959 96.535Z" fill="#484C36"/>
  <path d="M160.035 104.874C158.441 109.448 156.188 113.698 153.334 117.508C153.026 117.791 152.708 118.065 152.374 118.339C149.213 121.443 145.995 124.461 141.457 125.665C139.888 126.458 138.176 126.97 136.169 126.852C134.988 126.778 133.741 126.593 132.543 126.251C130.386 125.641 128.397 124.533 127.227 122.725C127.003 122.382 126.819 122.015 126.658 121.624C124.12 117.815 126.395 112.752 128.006 109.327C128.691 107.883 129.449 106.4 130.284 104.944C138.692 101.683 148.185 100.966 157.436 100.786C159.668 100.744 160.619 103.175 160.034 104.857L160.035 104.874Z" fill="#363A28"/>
  <path d="M152.975 68.714C153.498 71.8928 155.858 74.4297 157.865 76.9378C159.688 79.2217 161.192 81.6205 162.391 84.2437C163.284 86.1773 164.116 88.2096 164.867 90.2725C166.292 94.1527 167.426 98.1907 168.061 102.044C168.794 106.496 168.55 110.772 167.691 114.91C166.507 120.588 164.163 125.992 161.617 131.138C161.619 131.297 157.04 139.35 154.921 141.45C153.595 143.232 151.924 144.743 149.845 145.939C149.684 146.034 149.526 146.071 149.376 146.082C149.209 146.219 149.02 146.288 148.828 146.307C148.132 146.702 146.965 146.327 146.901 145.244C146.46 137.221 146.017 129.182 145.271 121.133C144.935 117.474 144.532 113.83 144.045 110.166C143.666 107.378 143.246 104.596 142.758 101.813C141.639 95.4781 141.033 90.0327 143.455 84.2793C145.724 78.8813 149.351 74.2002 150.545 68.296C150.822 66.8968 152.743 67.373 152.965 68.6885L152.975 68.714Z" fill="#778757"/>
  <path d="M155.547 78.7037C155.98 80.4121 157.342 81.5735 158.449 82.9275C159.665 84.4194 160.586 86.0186 161.431 87.7326C162.236 89.3615 163.011 91.0228 163.726 92.6905C164.54 94.5627 165.296 96.4582 165.977 98.3595C168.006 103.987 168.206 109.386 167.7 114.902C166.516 120.58 164.171 125.984 161.625 131.13C161.627 131.289 157.049 139.342 154.929 141.441C153.604 143.224 151.932 144.735 149.853 145.931C149.692 146.026 149.535 146.063 149.384 146.074C149.217 146.211 149.028 146.28 148.837 146.299C148.141 146.694 146.973 146.319 146.91 145.235C146.468 137.213 146.025 129.174 145.279 121.125C144.943 117.466 144.541 113.822 144.053 110.158C144.077 109.127 144.119 108.114 144.194 107.102C144.583 101.85 145.998 96.8672 147.303 91.8724C147.939 89.4373 148.557 86.9849 149.012 84.4849C149.425 82.2435 149.433 79.829 150.578 77.8556C151.617 76.0631 154.928 76.2175 155.545 78.67L155.547 78.7037Z" fill="#616D47"/>
  <path d="M164.876 90.2812C166.301 94.1614 167.435 98.1994 168.07 102.053C168.803 106.505 168.559 110.781 167.7 114.919C166.516 120.597 164.172 126.001 161.626 131.146C161.628 131.306 157.049 139.359 154.93 141.458C153.604 143.241 151.933 144.752 149.854 145.948C149.693 146.043 149.535 146.079 149.385 146.091C149.218 146.228 149.029 146.297 148.837 146.315C148.141 146.711 146.974 146.336 146.91 145.252C146.469 137.23 146.026 129.191 145.28 121.141C146.095 117.748 147.886 114.749 150.392 112.159C152.679 109.797 154.611 107.406 156.444 104.668C157.637 102.897 158.864 101.27 160.339 99.8364C161.465 97.4515 162.591 95.0666 163.708 92.673C164.061 91.9136 164.422 91.1629 164.775 90.4035C164.796 90.3456 164.818 90.3044 164.849 90.2551L164.876 90.2812Z" fill="#4A5136"/>
  <path d="M165.384 143.574C166.086 146.424 165.881 149.276 162.623 149.786C158.799 150.377 155.411 147.553 151.772 147.899C151.772 147.899 151.755 147.899 151.739 147.898C151.605 147.91 151.471 147.923 151.347 147.943C150.69 148.047 150.024 148.251 149.343 148.63C149.108 148.748 148.883 148.656 148.737 148.484C148.668 148.448 148.614 148.396 148.567 148.319C148.234 147.854 148.379 147.13 148.531 146.649C148.56 146.583 148.581 146.508 148.619 146.451C148.642 146.426 148.657 146.393 148.672 146.36C148.695 146.336 148.71 146.303 148.733 146.278C148.749 146.262 148.757 146.254 148.773 146.238C149.277 145.232 150.057 144.336 151.004 143.681C151.157 143.577 151.302 143.481 151.463 143.386C151.819 143.18 152.185 143 152.571 142.87C152.842 142.771 153.113 142.688 153.395 142.63C153.395 142.63 153.403 142.622 153.42 142.623C153.527 142.601 153.626 142.571 153.735 142.566C153.943 142.531 154.151 142.513 154.369 142.504C154.57 142.494 154.763 142.492 154.949 142.515C154.991 142.508 155.034 142.518 155.084 142.52C155.988 142.592 156.856 142.899 157.687 143.388C160.291 144.919 162.239 146.804 164.457 143.4C164.654 143.088 165.242 143.091 165.357 143.548L165.384 143.574Z" fill="#778757"/>
  <path d="M163.76 146.814C163.099 147.354 160.083 148.601 158.285 148.339C155.902 147.998 153.822 147.525 151.756 147.899C151.756 147.899 151.739 147.898 151.722 147.898C151.588 147.91 151.455 147.922 151.33 147.943C150.674 148.046 150.007 148.25 149.327 148.629C149.091 148.747 148.866 148.656 148.721 148.483C148.651 148.447 148.597 148.395 148.55 148.318C148.217 147.854 148.362 147.129 148.514 146.648C148.544 146.582 148.564 146.507 148.602 146.45C148.626 146.426 148.64 146.393 148.655 146.36C148.678 146.335 148.702 146.311 148.726 146.286C148.726 146.286 148.749 146.262 148.765 146.246C149.269 145.24 150.049 144.344 150.996 143.689C151.149 143.585 151.294 143.489 151.456 143.394C151.811 143.188 152.177 143.008 152.563 142.879C152.834 142.779 153.105 142.696 153.387 142.638C153.387 142.638 153.395 142.63 153.412 142.631C153.52 142.609 153.618 142.579 153.727 142.574C153.935 142.54 154.144 142.521 154.361 142.512C154.562 142.502 154.755 142.5 154.942 142.523L155.067 142.519C155.397 142.807 155.735 143.087 156.09 143.367C156.762 143.751 157.406 144.217 158.05 144.683C158.191 144.789 158.683 145.107 158.787 145.161C159.231 145.386 159.672 145.577 160.143 145.719C161.104 146.02 161.869 146.037 161.995 146.033C162.399 146.047 162.801 146.027 163.216 145.957C163.639 145.879 164.124 146.474 163.75 146.789L163.76 146.814Z" fill="#616D47"/>
  <path d="M159.614 147.361C157.866 147.209 155.838 146.771 154.135 147.057C153.197 147.218 152.227 147.537 151.339 147.952C150.683 148.055 150.016 148.259 149.336 148.638C149.1 148.756 148.875 148.664 148.73 148.492C148.66 148.456 148.606 148.404 148.559 148.327C148.226 147.863 148.371 147.138 148.523 146.657C148.553 146.591 148.573 146.516 148.611 146.459C148.635 146.434 148.649 146.401 148.664 146.368C148.687 146.344 148.702 146.311 148.726 146.286C148.741 146.27 148.749 146.262 148.765 146.246C149.269 145.24 150.049 144.344 150.996 143.689C151.149 143.585 151.294 143.489 151.456 143.394C151.811 143.188 152.177 143.008 152.563 142.879C154.965 142.625 157.406 145.726 159.668 146.407C160.208 146.568 160.172 147.413 159.614 147.361Z" fill="#4A5136"/>
</svg>
