<svg width="151" height="312" viewBox="0 0 151 312" fill="none"
  xmlns="http://www.w3.org/2000/svg">
  <g clip-path="url(#clip0_121_24)">
    <path d="M144.816 129.66H114.273C113.877 133.193 113.849 136.783 113.821 140.344C113.764 151.142 113.962 161.883 114.047 172.681C114.103 180.659 115.093 188.579 115.206 196.528C115.828 203.252 116.309 210.004 116.677 216.756C116.988 222.169 116.875 227.725 117.61 233.138C117.752 234.278 117.95 235.417 118.176 236.529C118.232 236.813 118.317 237.127 118.515 237.326C118.741 237.583 119.109 237.668 119.42 237.725C121.994 238.209 124.624 238.266 127.226 238.238C129.092 238.238 130.987 238.152 132.853 237.839C135.54 237.412 138.142 236.5 140.517 235.132C141.422 234.62 142.61 233.936 143.176 232.996C143.77 232.027 143.572 230.602 143.628 229.463C143.741 226.699 143.854 223.907 143.968 221.144C144.166 215.588 144.335 210.032 144.42 204.477C144.59 195.759 144.42 187.069 144.533 178.351C144.646 170.089 146.343 162.026 146.343 153.735C146.343 148.236 145.778 142.738 145.495 137.267C145.353 134.561 145.664 131.797 144.816 129.66Z" fill="#63848F"/>
    <path d="M138.34 303.88C138.453 304.364 138.623 304.849 138.764 305.333C139.103 306.387 139.301 307.726 138.057 308.382C137.774 308.524 137.463 308.581 137.152 308.638C134.692 309.037 132.146 308.724 129.658 308.41C128.611 308.268 127.395 308.239 126.462 307.812C126.292 307.755 126.151 307.669 126.038 307.527C125.84 307.271 125.896 306.929 126.038 306.672C126.179 306.416 126.434 306.188 126.66 305.988C128.583 304.08 128.838 301.686 128.555 299.151C128.357 297.384 128.159 295.618 127.989 293.823C127.226 286.444 126.632 279.036 126.179 271.629C126.066 269.691 125.981 267.669 126.773 265.931C127.508 264.335 128.922 263.196 130.421 262.455C133.023 261.173 137.944 260.888 138.736 264.706C139.245 267.099 139.188 269.549 139.16 271.999C139.273 275.418 139.047 278.894 138.962 282.341C138.877 286.045 138.764 289.749 138.566 293.453C138.481 295.304 138.368 297.156 138.255 298.98C138.17 300.091 138.057 301.174 138.085 302.285C138.085 302.854 138.198 303.396 138.312 303.937L138.34 303.88Z" fill="#FCD9BA"/>
    <path d="M114.103 311.259C114.725 311.601 115.743 311.687 116.45 311.801C118.119 312.057 119.788 312.028 121.456 311.971L127.734 311.772C128.328 311.772 129.148 311.886 129.714 311.715C130.365 311.516 130.987 311.259 131.637 311.003C131.835 310.917 132.061 310.86 132.259 310.775C132.768 310.632 133.956 310.262 134.324 310.775C134.437 310.946 134.493 311.117 134.55 311.316C134.55 311.402 134.578 311.459 134.607 311.544L140.093 311.373C140.093 311.373 140.093 311.202 140.093 311.117C140.093 310.661 140.15 310.291 139.867 309.892C139.838 309.835 139.782 309.778 139.754 309.721C139.754 309.664 139.754 309.578 139.754 309.521C139.754 309.493 139.754 309.436 139.754 309.407C139.81 309.094 139.782 308.781 139.754 308.467C139.725 307.498 139.612 306.558 139.329 305.618C139.188 305.162 139.075 304.649 138.792 304.279C138.283 303.652 137.944 303.994 137.378 304.308C136.162 304.963 134.776 305.305 133.391 305.276C132.005 305.276 130.647 304.906 129.46 304.222C129.064 303.994 128.668 303.282 128.215 303.31C127.65 303.339 127.169 304.165 126.801 304.507C125.981 305.219 125.104 305.846 124.199 306.416C122.333 307.584 120.297 308.467 118.176 309.037C117.525 309.208 116.875 309.35 116.224 309.493C115.63 309.635 114.81 309.692 114.273 310.006C114.075 310.12 113.905 310.291 113.792 310.433C113.651 310.661 113.651 310.946 114.018 311.145L114.103 311.259Z" fill="#553A12"/>
    <path d="M113.877 310.575C114.245 310.575 114.612 310.661 115.008 310.718C115.97 310.86 116.931 310.946 117.893 311.003C119.788 311.117 121.711 311.088 123.634 311.06C123.775 311.06 123.888 311.06 124.03 311.06C125.359 311.06 126.688 311.003 127.989 310.889C129.318 310.775 130.563 310.461 131.864 310.177C132.344 310.063 132.797 309.977 133.278 309.92C132.995 309.464 132.542 309.094 132.033 308.923C131.326 308.695 130.506 308.781 129.771 308.809C128.979 308.809 128.187 308.866 127.423 309.037C127.056 309.122 126.688 309.208 126.292 309.236C126.009 309.265 125.614 309.322 125.359 309.122C125.218 309.008 125.104 308.866 125.02 308.695C124.906 308.524 124.793 308.353 124.68 308.182C124.454 307.84 124.256 307.47 124.086 307.1C124.03 307.014 124.284 306.957 124.341 307.043C124.511 307.384 124.68 307.698 124.878 308.04C125.048 308.325 125.246 308.638 125.444 308.923C125.585 309.094 125.783 309.122 126.009 309.094C126.236 309.094 126.434 309.065 126.66 309.008C127.028 308.951 127.395 308.866 127.763 308.809C128.526 308.695 129.29 308.667 130.054 308.638C130.761 308.638 131.496 308.581 132.175 308.809C132.74 309.008 133.193 309.379 133.504 309.863C135.568 309.55 137.689 309.464 139.754 309.578C139.754 309.635 139.754 309.721 139.754 309.778C139.754 309.835 139.81 309.892 139.867 309.949C140.15 310.347 140.093 310.718 140.093 311.174C140.093 311.259 140.093 311.345 140.093 311.43L134.607 311.601C134.607 311.601 134.578 311.459 134.55 311.373C134.494 311.174 134.437 310.974 134.324 310.832C133.956 310.319 132.768 310.689 132.259 310.832C132.033 310.889 131.835 310.974 131.637 311.06C130.987 311.288 130.336 311.573 129.714 311.772C129.149 311.943 128.328 311.801 127.735 311.829L121.456 312.028C119.788 312.085 118.119 312.114 116.451 311.857C115.744 311.744 114.754 311.658 114.103 311.316C113.736 311.117 113.736 310.86 113.877 310.604V310.575Z" fill="#412409"/>
    <path d="M126.716 304.507C126.716 304.507 126.801 304.421 126.829 304.421C126.943 304.393 127.084 304.393 127.197 304.45C127.48 304.678 127.763 304.906 128.045 305.162C128.074 305.191 128.102 305.219 128.074 305.276C128.074 305.305 127.989 305.362 127.961 305.362C127.904 305.362 127.819 305.39 127.763 305.362C127.706 305.362 127.65 305.362 127.593 305.305C127.338 305.048 127.056 304.82 126.745 304.592C126.716 304.592 126.688 304.535 126.716 304.478V304.507Z" fill="#3C3C71"/>
    <path d="M125.698 305.276C125.698 305.276 125.783 305.191 125.811 305.191C125.924 305.162 126.066 305.162 126.179 305.219C126.434 305.447 126.688 305.704 126.886 305.96C126.886 305.988 126.886 306.045 126.886 306.074C126.858 306.102 126.773 306.131 126.745 306.131C126.631 306.131 126.49 306.131 126.434 306.045C126.434 306.045 126.377 305.988 126.377 305.96C126.207 305.732 126.009 305.533 125.783 305.362C125.755 305.362 125.727 305.305 125.755 305.248L125.698 305.276Z" fill="#3C3C71"/>
    <path d="M117.468 225.788C117.977 222.54 119.363 219.463 122.813 218.75C123.973 218.522 125.161 218.551 126.32 218.636C127.876 218.722 129.431 218.864 130.902 219.377C132.485 219.947 133.786 219.918 135.483 220.175C137.293 220.431 139.046 220.944 140.715 221.685C141.479 222.027 142.214 222.397 142.836 222.995C144.561 224.648 143.911 226.984 143.826 229.092C143.769 230.346 143.741 231.571 143.685 232.825C143.6 235.303 143.487 237.782 143.373 240.261C143.289 242.483 143.175 244.705 143.091 246.899C143.091 247.127 143.091 247.355 143.091 247.583C143.034 248.808 143.006 250.005 142.949 251.23C142.78 256.016 142.61 260.831 142.44 265.617C142.44 265.845 142.44 266.073 142.44 266.301C142.27 271.885 142.101 277.469 141.959 283.054C141.959 283.281 141.959 283.509 141.959 283.737C141.818 289.35 141.677 294.963 141.535 300.575C141.535 300.803 141.535 301.031 141.535 301.259C141.479 303.168 141.45 305.048 141.394 306.957C141.394 307.897 138.82 307.584 136.812 307.271C136.473 307.214 136.134 307.157 135.823 307.1C135.342 307.014 134.918 306.957 134.691 306.929C132.542 306.729 130.393 306.587 128.243 306.473C127.904 306.473 127.593 306.444 127.254 306.416C126.971 306.416 122.87 306.33 122.898 306.416C122.757 304.478 122.672 302.427 123.407 300.575C124.03 298.98 124.567 297.698 124.482 295.874C124.312 292.598 122.502 289.72 121.145 286.843C119.137 282.512 119.618 277.014 119.589 272.37C119.533 258.409 117.751 244.534 117.327 230.602C117.27 229.149 117.327 227.468 117.553 225.816L117.468 225.788Z" fill="#63848F"/>
    <path d="M116.988 129.66H91.7048C90.8563 130.686 90.3473 132.025 90.0928 133.336C89.7534 135.216 89.8665 137.154 89.7817 139.062C89.5554 144.248 87.8586 149.205 86.8688 154.219C85.8507 159.462 84.8892 164.732 83.9559 169.975C82.5419 177.81 82.0328 185.787 80.6754 193.622C79.7421 198.921 78.9785 204.249 78.3281 209.605C77.6776 215.104 76.8858 220.716 76.6878 226.243C76.6312 228.152 76.6312 230.09 77.0837 231.942C77.4231 233.366 78.1584 235.617 79.5724 236.329C79.5724 236.329 79.6007 236.329 79.629 236.329C81.043 237.013 83.2489 236.557 84.776 236.842C86.6143 237.184 88.4808 237.469 90.3756 237.526C93.0905 237.611 95.8337 237.184 98.4072 236.301C99.8778 235.788 101.462 235.246 101.942 233.622C102.451 231.885 102.621 229.805 103.13 227.981C103.13 226.357 104.176 224.221 104.629 222.625C105.195 220.631 105.788 218.608 106.298 216.585C106.637 215.275 106.552 214.163 106.665 212.853C106.835 210.887 107.514 208.836 107.91 206.898C111.049 191.855 113.792 176.727 115.941 161.541C117.299 152.054 118.911 142.367 117.751 132.737C117.61 131.683 117.44 130.544 117.016 129.575L116.988 129.66Z" fill="#63848F"/>
    <path d="M97.6155 303.88C97.7286 304.364 97.8983 304.849 98.0397 305.333C98.3791 306.387 98.577 307.726 97.3327 308.382C97.0499 308.524 96.7388 308.581 96.4277 308.638C93.9107 309.037 91.3372 308.724 88.8202 308.41C87.7738 308.268 86.5295 308.239 85.568 307.812C85.3983 307.755 85.2569 307.669 85.1438 307.527C84.9458 307.271 85.0024 306.929 85.1438 306.672C85.2852 306.416 85.5397 306.188 85.7659 305.988C87.7456 304.08 88.0001 301.686 87.689 299.151C87.491 297.384 87.2931 295.618 87.0951 293.823C86.3315 286.444 85.7094 279.036 85.2569 271.629C85.1438 269.691 85.0589 267.669 85.8508 265.931C86.5861 264.335 88.0284 263.196 89.5555 262.455C92.2139 261.173 97.1913 260.888 98.0114 264.706C98.5205 267.099 98.4922 269.549 98.4356 271.999C98.5487 275.418 98.3225 278.894 98.2377 282.341C98.1528 286.045 98.0397 289.749 97.8417 293.453C97.7569 295.304 97.6438 297.156 97.5024 298.98C97.4175 300.091 97.3044 301.174 97.3327 302.285C97.3327 302.854 97.4458 303.396 97.5872 303.937L97.6155 303.88Z" fill="#FCD9BA"/>
    <path d="M73.0115 311.259C73.6337 311.601 74.68 311.687 75.3871 311.801C77.0556 312.057 78.7807 312.028 80.4776 311.971L86.8407 311.772C87.4346 311.772 88.283 311.886 88.8486 311.715C89.4991 311.516 90.1495 311.259 90.8282 311.003C91.0545 310.917 91.2524 310.86 91.4787 310.775C91.9877 310.632 93.2038 310.262 93.5714 310.775C93.6846 310.946 93.7411 311.117 93.7977 311.316C93.7977 311.402 93.826 311.459 93.8542 311.544L99.4255 311.373C99.4255 311.373 99.4255 311.202 99.4255 311.117C99.4255 310.661 99.4821 310.291 99.1993 309.892C99.171 309.835 99.1144 309.778 99.0862 309.721C99.0862 309.664 99.0862 309.578 99.0862 309.521C99.0862 309.493 99.0862 309.436 99.0862 309.407C99.1427 309.094 99.1144 308.781 99.0862 308.467C99.0579 307.498 98.9447 306.558 98.6619 305.618C98.5205 305.162 98.4074 304.649 98.1246 304.279C97.6156 303.652 97.2762 303.994 96.6823 304.308C95.4662 304.963 94.0522 305.305 92.6382 305.276C91.2524 305.276 89.8384 304.906 88.6506 304.222C88.2547 303.994 87.8588 303.282 87.378 303.31C86.7841 303.339 86.3316 304.165 85.9357 304.507C85.1156 305.219 84.2106 305.846 83.3056 306.416C81.4108 307.584 79.3463 308.467 77.197 309.037C76.5466 309.208 75.8678 309.35 75.2174 309.493C74.6235 309.635 73.7751 309.692 73.2377 310.006C73.0398 310.12 72.8701 310.291 72.757 310.433C72.6156 310.661 72.6156 310.946 72.9832 311.145L73.0115 311.259Z" fill="#553A12"/>
    <path d="M72.7853 310.575C73.1529 310.575 73.5206 310.661 73.9165 310.718C74.878 310.86 75.8679 310.946 76.8577 311.003C78.809 311.117 80.7321 311.088 82.6835 311.06C82.8249 311.06 82.938 311.06 83.0794 311.06C84.4086 311.06 85.7661 311.003 87.0952 310.889C88.4527 310.775 89.6971 310.461 91.0262 310.177C91.507 310.063 91.9878 309.977 92.4685 309.92C92.1857 309.464 91.7333 309.094 91.1959 308.923C90.4606 308.695 89.6688 308.781 88.9052 308.809C88.1133 308.809 87.2932 308.866 86.5296 309.037C86.162 309.122 85.7661 309.208 85.3701 309.236C85.0873 309.265 84.6914 309.322 84.4086 309.122C84.2672 309.008 84.1541 308.866 84.0692 308.695C83.9561 308.524 83.843 308.353 83.7299 308.182C83.5036 307.84 83.3057 307.47 83.136 307.1C83.0794 307.014 83.3622 306.957 83.3905 307.043C83.5602 307.384 83.7299 307.698 83.9278 308.04C84.0975 308.325 84.2955 308.638 84.5217 308.923C84.6631 309.094 84.8894 309.122 85.1156 309.094C85.3419 309.094 85.5681 309.065 85.7661 309.008C86.1337 308.951 86.5296 308.866 86.8973 308.809C87.6609 308.695 88.4527 308.667 89.2446 308.638C89.9516 308.638 90.7152 308.581 91.3939 308.809C91.9595 309.008 92.4403 309.379 92.7231 309.863C94.8158 309.55 96.9934 309.464 99.0862 309.578C99.0862 309.635 99.0862 309.721 99.0862 309.778C99.0862 309.835 99.1428 309.892 99.1993 309.949C99.4821 310.347 99.4256 310.718 99.4256 311.174C99.4256 311.259 99.4256 311.345 99.4256 311.43L93.8543 311.601C93.8543 311.601 93.826 311.459 93.7977 311.373C93.7412 311.174 93.6846 310.974 93.5715 310.832C93.1756 310.319 91.9878 310.689 91.4787 310.832C91.2525 310.889 91.0545 310.974 90.8283 311.06C90.1495 311.288 89.5274 311.573 88.8486 311.772C88.283 311.943 87.4346 311.801 86.8407 311.829L80.4776 312.028C78.7808 312.085 77.0839 312.114 75.3871 311.857C74.6801 311.744 73.662 311.658 73.0115 311.316C72.6439 311.117 72.6439 310.86 72.7853 310.604V310.575Z" fill="#412409"/>
    <path d="M85.7944 304.507C85.7944 304.507 85.8793 304.421 85.9076 304.421C86.0207 304.393 86.1621 304.393 86.2752 304.45C86.5863 304.678 86.8691 304.906 87.1236 305.162C87.1519 305.191 87.1802 305.219 87.1519 305.276C87.1519 305.305 87.0671 305.362 87.0388 305.362C86.9822 305.362 86.8974 305.39 86.8408 305.362C86.7843 305.362 86.7277 305.362 86.6711 305.305C86.3883 305.048 86.1055 304.82 85.8227 304.592C85.7944 304.592 85.7661 304.535 85.7944 304.478V304.507Z" fill="#3C3C71"/>
    <path d="M84.7764 305.276C84.7764 305.276 84.8612 305.191 84.8895 305.191C85.0026 305.162 85.1723 305.162 85.2571 305.219C85.5117 305.447 85.7662 305.704 85.9924 305.96C85.9924 305.988 85.9924 306.045 85.9924 306.074C85.9642 306.102 85.8793 306.131 85.8227 306.131C85.7096 306.131 85.5682 306.131 85.4834 306.045C85.4834 306.045 85.4268 305.988 85.4268 305.96C85.2289 305.732 85.0309 305.533 84.8329 305.362C84.8046 305.362 84.7764 305.305 84.8046 305.248L84.7764 305.276Z" fill="#3C3C71"/>
    <path d="M79.6859 279.036C78.9506 265.19 78.0739 251.372 77.3104 237.554C77.1407 234.677 76.6034 231.714 76.6599 228.865C76.7165 225.189 78.0457 219.605 82.1463 218.779C83.3058 218.551 84.4936 218.579 85.6531 218.665C87.9156 218.807 90.0932 219.035 92.0162 220.289C93.8545 221.486 96.2018 221.571 98.238 222.34C99.5954 222.853 102.763 223.85 103.272 225.332C103.611 226.329 103.187 228.067 103.159 229.121C103.102 230.375 103.074 231.6 103.017 232.853C102.933 235.332 102.819 237.811 102.706 240.289C102.621 242.512 102.508 244.734 102.423 246.928C102.423 247.156 102.423 247.383 102.423 247.611C102.367 248.836 102.339 250.033 102.282 251.258C102.112 256.045 101.943 260.859 101.773 265.646C101.773 265.874 101.773 266.102 101.773 266.33C101.603 271.914 101.434 277.498 101.292 283.082C101.292 283.31 101.292 283.538 101.292 283.766C101.151 289.379 101.009 294.991 100.868 300.604C100.868 300.832 100.868 301.06 100.868 301.288C100.811 303.196 100.783 305.077 100.727 306.986C100.727 307.926 98.1531 307.612 96.1452 307.299C95.8058 307.242 95.4665 307.185 95.1554 307.128C94.6746 307.043 94.2504 306.986 94.0242 306.957C91.8748 306.758 89.7255 306.615 87.5762 306.501C87.2368 306.501 86.9257 306.473 86.5864 306.444C86.3036 306.444 82.2029 306.359 82.2312 306.444C82.0615 303.966 81.9484 301.259 83.4755 299.293C84.0129 298.609 84.6916 298.068 85.0875 297.327C85.8228 295.903 85.342 294.136 84.4936 292.769C81.6656 288.182 80.0819 284.621 79.7991 279.093L79.6859 279.036Z" fill="#63848F"/>
    <path d="M122.078 169.718C121.824 176.812 121.541 183.878 121.286 190.972C121.032 198.009 120.749 205.075 120.494 212.112C120.353 216.101 120.212 220.061 120.042 224.05C120.042 224.249 120.579 224.249 120.579 224.05C120.834 216.956 121.117 209.89 121.371 202.796C121.626 195.759 121.909 188.693 122.163 181.656C122.304 177.667 122.446 173.707 122.616 169.718C122.616 169.519 122.078 169.519 122.078 169.718Z" fill="#364B52"/>
    <path d="M87.0102 181.713C86.3314 184.163 85.7093 186.613 85.1154 189.063C84.5215 191.542 83.9841 194.049 83.4751 196.556C82.966 199.035 82.5135 201.542 82.0893 204.049C81.6651 206.557 81.2975 209.064 80.9581 211.599C80.6188 214.106 80.3359 216.642 80.0814 219.178C80.0531 219.491 80.0249 219.833 79.9966 220.146C79.9966 220.346 80.5339 220.346 80.5339 220.146C80.7602 217.639 81.043 215.104 81.3823 212.596C81.6934 210.089 82.0611 207.554 82.4853 205.046C82.8812 202.539 83.3337 200.061 83.8427 197.582C84.3235 195.103 84.8608 192.596 85.4547 190.117C86.0203 187.639 86.6425 185.189 87.3212 182.738C87.4061 182.425 87.4909 182.112 87.5758 181.798C87.6323 181.57 87.095 181.542 87.0384 181.713H87.0102Z" fill="#364B52"/>
    <path d="M82.9662 268.381C82.2026 261.401 81.5804 254.421 81.1562 247.44C80.9017 243.48 80.7037 239.52 80.5906 235.56C80.5906 235.36 80.025 235.36 80.0533 235.56C80.3078 242.597 80.7037 249.634 81.2976 256.671C81.8915 263.652 82.6551 270.632 83.5601 277.583C84.0974 281.515 84.663 285.447 85.2852 289.35C85.3135 289.549 85.8508 289.549 85.8225 289.35C84.6913 282.398 83.758 275.418 82.9662 268.409V268.381Z" fill="#364B52"/>
    <path d="M124.058 270.461C123.407 264.563 122.898 258.666 122.474 252.768C122.248 249.463 122.05 246.13 121.88 242.825C121.88 242.625 121.315 242.625 121.343 242.825C121.626 248.779 122.022 254.705 122.559 260.632C123.068 266.529 123.718 272.427 124.454 278.296C124.878 281.601 125.33 284.877 125.811 288.153C125.839 288.353 126.377 288.353 126.348 288.153C125.472 282.256 124.708 276.358 124.058 270.461Z" fill="#364B52"/>
    <path d="M114.923 146.641C114.923 143.564 114.838 140.487 114.725 137.381C114.669 135.643 114.584 133.906 114.499 132.168C114.499 131.968 113.933 131.968 113.962 132.168C114.131 135.273 114.245 138.35 114.329 141.456C114.414 144.533 114.443 147.61 114.414 150.715C114.414 152.282 114.414 153.849 114.358 155.387C113.594 154.761 112.661 154.333 111.812 153.792C111.303 153.479 110.823 153.137 110.427 152.681C109.946 152.14 109.72 151.456 109.607 150.743C109.493 149.946 109.522 149.12 109.522 148.293C109.522 147.382 109.522 146.498 109.522 145.587C109.522 143.792 109.522 141.997 109.522 140.23C109.522 138.208 109.522 136.185 109.522 134.133C109.522 133.934 108.984 133.934 108.984 134.133C108.984 137.752 108.984 141.399 108.984 145.017C108.984 145.929 108.984 146.84 108.984 147.752C108.984 148.607 108.984 149.461 109.041 150.316C109.097 151.057 109.267 151.826 109.691 152.453C110.031 152.937 110.483 153.336 110.964 153.678C112.095 154.476 113.453 154.96 114.386 155.986C114.471 156.1 114.895 156.1 114.895 155.9C114.952 152.795 114.98 149.718 114.952 146.612L114.923 146.641Z" fill="#364B52"/>
    <path d="M112.35 168.379C111.218 166.271 109.861 164.305 108.277 162.539C107.825 162.026 107.344 161.541 106.863 161.057C106.722 160.915 106.213 161.029 106.382 161.2C108.051 162.852 109.55 164.704 110.794 166.727C111.162 167.297 111.473 167.866 111.812 168.465C111.897 168.636 112.434 168.579 112.35 168.379Z" fill="#364B52"/>
    <path d="M147.474 53.2488C147.474 53.2488 147.389 53.1064 147.333 53.0209C145.749 50.8272 143.684 49.3172 141.563 47.6932C139.188 45.8413 135.992 43.9039 133.164 42.8498C129.572 41.5392 126.631 39.374 122.672 38.9751C120.24 38.7472 117.779 39.0606 115.347 39.3739C110.653 39.9723 106.184 40.9124 101.829 42.7643C97.5871 44.5592 93.543 47.7787 90.0079 50.7132C88.5373 51.9383 87.1233 53.2204 86.1335 54.8728C83.6448 58.9754 84.4366 64.1892 85.1719 68.9471C88.3394 89.0615 89.2443 109.461 89.7534 129.803C89.8099 131.826 90.121 134.247 91.931 135.045C92.5249 135.302 93.2036 135.33 93.8541 135.359C100.132 135.615 106.382 135.9 112.661 136.156C117.779 136.384 122.926 136.584 128.045 136.441C130.93 136.356 133.814 136.128 136.699 135.871C139.131 135.644 142.638 135.928 144.787 134.618C144.929 134.532 145.07 134.447 145.155 134.304C145.268 134.134 145.325 133.906 145.381 133.706C145.805 131.569 145.438 129.461 145.551 127.296C145.664 124.789 145.579 122.281 145.438 119.803C145.183 115.472 145.579 111.056 145.834 106.697C146.399 97.4947 147.276 88.3207 148.492 79.2037C149.312 73.0213 150.274 66.7534 149.623 60.5139C149.34 57.9213 148.945 55.3571 147.474 53.1919V53.2488Z" fill="#DFEDE5"/>
    <path d="M111.558 62.9641C111.501 62.7077 111.388 62.5083 111.19 62.3658C110.936 62.1949 110.568 62.1664 110.313 62.3089C110.115 62.3943 110.002 62.5938 109.946 62.7932C109.946 62.8787 109.917 62.9641 109.889 63.0496C109.889 63.1636 109.861 63.249 109.861 63.363C109.861 63.6194 109.974 63.8474 110.2 63.9613C110.426 64.1038 110.738 64.1038 110.992 64.0468C111.473 63.9043 111.699 63.42 111.586 62.9357L111.558 62.9641Z" fill="#244753"/>
    <path d="M111.558 78.0926C111.501 77.8362 111.388 77.6368 111.19 77.4943C110.936 77.3234 110.568 77.2949 110.313 77.4373C110.115 77.5228 110.002 77.7222 109.946 77.9217C109.946 78.0072 109.917 78.0926 109.889 78.1781C109.889 78.2921 109.861 78.3775 109.861 78.4915C109.861 78.7479 109.974 78.9758 110.2 79.0898C110.426 79.2322 110.738 79.2322 110.992 79.1753C111.473 79.0328 111.699 78.5485 111.586 78.0641L111.558 78.0926Z" fill="#244753"/>
    <path d="M111.558 93.1926C111.501 92.9362 111.388 92.7367 111.19 92.5943C110.936 92.4234 110.568 92.3949 110.313 92.5373C110.115 92.6228 110.002 92.8222 109.946 93.0217C109.946 93.1071 109.917 93.1926 109.889 93.2781C109.889 93.392 109.861 93.4775 109.861 93.5915C109.861 93.8479 109.974 94.0758 110.2 94.1898C110.426 94.3322 110.738 94.3322 110.992 94.2752C111.473 94.1328 111.699 93.6484 111.586 93.1641L111.558 93.1926Z" fill="#244753"/>
    <path d="M112.519 108.321C112.463 108.065 112.349 107.865 112.151 107.723C111.897 107.552 111.529 107.523 111.275 107.666C111.077 107.751 110.964 107.951 110.907 108.15C110.907 108.236 110.879 108.321 110.851 108.407C110.851 108.521 110.822 108.606 110.822 108.72C110.822 108.976 110.935 109.204 111.162 109.318C111.388 109.461 111.699 109.461 111.953 109.404C112.434 109.261 112.661 108.777 112.547 108.293L112.519 108.321Z" fill="#244753"/>
    <path d="M112.519 123.45C112.463 123.193 112.349 122.994 112.151 122.851C111.897 122.68 111.529 122.652 111.275 122.794C111.077 122.88 110.964 123.079 110.907 123.279C110.907 123.364 110.879 123.45 110.851 123.535C110.851 123.649 110.822 123.734 110.822 123.848C110.822 124.105 110.935 124.333 111.162 124.447C111.388 124.589 111.699 124.589 111.953 124.532C112.434 124.39 112.661 123.905 112.547 123.421L112.519 123.45Z" fill="#244753"/>
    <path d="M124.821 39.9438C124.821 40.1147 124.736 40.2287 124.652 40.3711C122.757 43.2202 119.816 45.1575 117.468 47.6647C114.923 50.3998 113.085 53.7902 110.144 56.0694C109.578 54.417 108.673 52.8215 108.136 51.169C107.57 49.4881 107.118 47.7217 106.609 46.0123C106.1 44.3883 105.619 42.7643 105.11 41.1404C105.11 41.1404 105.11 41.0834 105.11 41.0549C104.686 39.7158 104.29 38.3768 103.865 37.0092C103.781 36.7243 103.696 36.4679 103.611 36.183C103.752 35.5847 103.95 35.0149 104.148 34.4451C104.403 33.7613 104.77 33.106 105.223 32.5077C105.788 31.9664 106.411 31.5106 107.061 31.0832C107.344 30.8838 107.627 30.6843 107.881 30.4849C108.023 30.3709 108.192 30.257 108.362 30.1715C109.719 29.2883 110.879 29.0889 111.897 27.8353C112.943 26.5532 115.178 25.841 116.62 26.9521C117.157 27.3794 117.525 27.9493 117.864 28.5191C118.26 29.1743 118.684 29.8296 119.08 30.4849C119.787 31.6245 120.494 32.7642 121.201 33.9038C122.361 35.7557 123.492 37.6075 124.652 39.4594C124.736 39.6019 124.821 39.7443 124.821 39.8868V39.9438Z" fill="#FCD9BA"/>
    <path d="M115.8 34.844C115.432 36.354 114.329 37.9779 113.368 39.146C111.784 40.9979 109.691 41.7387 107.316 41.5962C106.552 41.5392 105.732 41.4253 105.081 41.0549C104.657 39.7158 104.261 38.3768 103.837 37.0092C103.752 36.7243 103.667 36.4679 103.583 36.183C103.724 35.5847 103.922 35.0149 104.12 34.4451C104.374 33.7613 104.742 33.106 105.195 32.5077C105.308 32.3653 105.421 32.2513 105.534 32.1089C105.958 31.653 106.495 31.3681 107.033 31.0547C107.485 30.7983 107.966 30.5419 108.334 30.2C109.21 29.4023 110.54 29.3738 111.727 29.4023C112.802 29.4308 113.933 29.4877 114.81 30.143C115.206 30.4279 115.489 30.8553 115.687 31.2826C115.828 31.596 115.913 31.9379 115.969 32.2798C116.083 33.106 115.969 33.9608 115.771 34.787L115.8 34.844Z" fill="#E6C1A0"/>
    <path d="M117.638 16.6385C117.299 15.0715 116.733 13.6185 116.309 12.08C115.602 9.45886 113.424 6.86623 111.36 5.15679C111.162 4.98585 110.964 4.8434 110.766 4.70094C109.21 3.6183 107.202 2.82057 105.279 2.76359C103.017 2.70661 100.585 3.90321 98.6617 4.95736C97.1063 5.78358 95.5791 6.75226 94.3348 7.97736C93.3732 8.94604 92.5531 10.3706 92.4117 11.7381C92.2703 12.9632 91.9875 14.3592 92.2986 15.5274C92.6379 16.8379 92.8359 18.234 93.1753 19.5445C93.854 22.3366 94.7873 25.0432 95.7205 27.7498C96.3993 29.7441 97.1063 31.767 98.0961 33.6188C99.1142 35.5562 100.557 37.4366 102.282 38.8041C103.922 40.1147 106.863 40.3141 108.871 40.0577C111.558 39.7158 113.82 37.2941 115.149 35.0719C117.327 31.3966 118.656 26.8096 118.599 22.5645C118.599 21.7098 118.317 21.026 118.175 20.1998C117.977 19.1172 117.921 17.9775 117.723 16.8949C117.723 16.8094 117.695 16.724 117.666 16.61L117.638 16.6385Z" fill="#FCD9BA"/>
    <path d="M113.622 17.2653C113.113 16.4106 112.576 15.8692 111.643 15.1285C110.313 14.0743 108.73 13.0487 107.089 13.3906C106.495 13.5045 105.958 13.8179 105.393 13.9889C103.583 14.5587 101.999 13.59 100.443 12.8208C98.9163 12.08 97.672 10.7694 97.0215 9.17397C96.9932 9.0885 96.9367 9.00303 96.8518 8.97454C96.7953 8.97454 96.7104 9.00303 96.6539 9.06001C95.862 9.80076 95.8055 11.0259 95.8055 12.1085C95.8055 13.1911 95.8055 14.3877 95.155 15.2425C94.5611 15.9832 94.1086 16.3251 93.9672 17.3508C93.8258 18.5189 93.8541 19.8864 92.9774 20.6557C92.2421 21.2825 91.1392 21.2255 90.1776 21.1115C89.8383 21.083 89.4989 21.026 89.1878 20.8551C88.4525 20.4277 88.5374 19.7155 88.2828 19.0602C87.9435 18.177 87.3496 17.5787 87.3213 16.553C87.3213 15.8408 87.5475 15.157 87.7455 14.4732C88.0566 13.1911 88.1414 11.8806 88.5373 10.5985C88.9333 9.31642 89.6403 8.68963 90.517 7.77793C91.224 7.06567 91.3654 6.04001 91.8462 5.18529C92.5249 3.9602 94.448 2.79209 95.7772 2.56416C96.6256 2.42171 97.474 2.42171 98.2941 2.1368C99.1991 1.79492 99.9627 1.08265 100.811 0.655294C103.102 -0.512818 105.817 0.256426 108.39 0.398879C109.578 0.45586 110.794 0.398879 111.982 0.512841C113.453 0.655294 114.923 1.13963 116.111 1.99435C117.327 2.84907 118.232 4.15963 118.543 5.61265C118.656 6.23944 118.684 6.86623 118.854 7.46454C119.08 8.20529 119.561 8.80359 119.985 9.45887C120.777 10.6555 121.739 12.1655 121.795 13.6185C121.852 15.2994 121.626 16.9519 121.173 18.5758C120.862 19.7725 120.494 20.9691 120.07 22.1372C119.929 22.593 119.703 23.1058 119.222 23.1913C118.373 23.3908 117.723 22.2226 117.186 21.7668C116.818 21.4534 116.365 21.254 115.998 20.9406C115.008 20.1428 114.471 18.9747 113.962 17.8351C113.848 17.6072 113.764 17.4077 113.65 17.2368L113.622 17.2653Z" fill="#553A12"/>
    <path d="M115.828 19.0602C117.921 16.4391 120.098 19.5445 120.212 21.7953C120.296 23.1913 119.929 24.5874 119.505 25.9549C119.165 27.123 118.43 28.7755 116.903 28.4336C116.309 28.2911 115.941 27.7783 115.687 27.2655C114.669 25.3566 114.414 22.707 115.008 20.5987C115.178 20.0574 115.432 19.516 115.8 19.0602H115.828Z" fill="#FCD9BA"/>
    <path d="M97.3324 20.4277C96.5688 20.7411 95.8618 21.2255 95.3245 21.9377C95.0982 22.2511 94.8154 22.6215 94.6457 22.9634C94.3629 23.4762 94.7871 23.3053 95.0134 23.1343C95.381 22.8779 95.6921 22.536 96.0881 22.3081C96.484 22.0802 96.9082 21.8808 97.3324 21.7383C98.2091 21.4249 99.1423 21.2825 100.076 21.3109C100.16 21.3109 100.5 21.254 100.415 21.0545C100.132 20.3992 99.8211 20.2853 99.2555 20.1998C98.7181 20.1143 98.1525 20.1998 97.6435 20.3423C97.5304 20.3708 97.4455 20.3992 97.3607 20.4562L97.3324 20.4277Z" fill="#553A12"/>
    <path d="M107.202 17.7781C108.079 17.6072 109.012 17.6357 109.917 17.9206C110.313 18.0345 110.766 18.2055 111.133 18.4049C111.671 18.6613 111.19 18.7753 110.879 18.7468C110.37 18.7468 109.917 18.6328 109.408 18.6613C108.899 18.6613 108.419 18.7468 107.938 18.8607C106.948 19.0887 105.986 19.4875 105.138 20.0289C105.081 20.0858 104.714 20.1998 104.685 20.0289C104.601 19.3166 104.799 19.0317 105.308 18.6613C105.788 18.2909 106.326 18.0345 106.891 17.8921C107.004 17.8636 107.118 17.8351 107.231 17.8066L107.202 17.7781Z" fill="#553A12"/>
    <path d="M99.5668 24.9862C99.4254 24.4734 99.1708 23.8751 98.6052 23.8181C98.3224 23.7896 98.0396 23.9036 97.8699 24.1315C97.8134 24.1885 97.7851 24.274 97.7568 24.3309C97.7285 24.3879 97.7003 24.4449 97.672 24.4734C97.5306 24.8153 97.5306 25.2142 97.672 25.5845C97.7285 25.8979 97.8417 26.1543 98.1245 26.3538C98.379 26.5247 98.7466 26.5817 99.0012 26.4108C99.0577 26.3823 99.1143 26.3253 99.1708 26.2683C99.3405 26.1543 99.4819 26.0119 99.5668 25.8125C99.6799 25.556 99.6516 25.2711 99.5668 25.0147V24.9862Z" fill="#553A12"/>
    <path d="M109.267 22.1372C109.125 21.5959 108.871 20.9691 108.277 20.9121C107.994 20.8836 107.683 20.9975 107.513 21.2255C107.457 21.2825 107.429 21.3679 107.4 21.4534C107.372 21.5104 107.344 21.5674 107.316 21.6243C107.174 21.9947 107.174 22.3936 107.316 22.764C107.372 23.0774 107.485 23.3623 107.768 23.5617C108.023 23.7326 108.418 23.7896 108.673 23.6187C108.73 23.5617 108.786 23.5047 108.843 23.4477C109.012 23.3338 109.182 23.1628 109.239 22.9919C109.352 22.7355 109.323 22.4221 109.239 22.1657L109.267 22.1372Z" fill="#553A12"/>
    <path d="M102.536 28.576C102.536 28.0632 102.593 27.5789 102.593 27.066C102.593 26.0119 102.451 24.9577 102.225 23.9321C101.999 22.9349 101.688 21.9093 100.952 21.197C100.811 21.0545 101.292 20.8836 101.433 20.9976C102.055 21.6244 102.367 22.4791 102.621 23.3338C102.904 24.3025 103.045 25.3281 103.102 26.3253C103.102 26.7811 103.102 27.2655 103.102 27.7213C103.102 28.1487 102.989 28.6045 103.102 29.0034C103.243 29.5732 103.696 29.6017 104.176 29.6302C104.686 29.6872 105.195 29.7157 105.704 29.7726C106.043 29.7726 105.704 30.086 105.506 30.086C104.968 30.0576 104.431 30.0006 103.894 29.9436C103.526 29.9151 103.074 29.8866 102.791 29.6017C102.536 29.3453 102.508 28.9464 102.508 28.576H102.536Z" fill="#E6C1A0"/>
    <path d="M108.758 31.0832C108.56 31.0262 108.362 30.9977 108.305 31.0262C107.683 31.1972 107.174 31.653 106.608 31.9664C105.817 32.4223 104.912 32.5932 104.007 32.5362C103.752 32.5362 103.441 32.4792 103.271 32.7072C102.819 33.3055 104.148 33.9323 104.572 34.0747C105.421 34.3596 106.411 34.3026 107.202 33.9323C107.796 33.6474 108.305 33.1915 108.645 32.6502C108.843 32.3653 108.956 32.0234 109.069 31.71C109.21 31.3111 109.154 31.2541 108.73 31.1402L108.758 31.0832Z" fill="#E9B8A2"/>
    <path d="M105.619 12.4504C104.572 12.3934 103.526 12.251 102.621 11.6527C101.773 11.1113 101.151 10.2566 100.557 9.4304C100.472 9.31644 100.33 9.31644 100.217 9.31644C100.161 9.31644 99.9628 9.40191 100.019 9.51587C100.67 10.3991 101.349 11.3108 102.282 11.8806C103.272 12.5074 104.459 12.6498 105.619 12.7353C105.704 12.7353 105.902 12.7068 105.902 12.5929C105.902 12.4789 105.704 12.4504 105.619 12.4504Z" fill="#412409"/>
    <path d="M108.391 10.513C108.391 10.513 108.108 10.4276 108.023 10.4561C106.835 10.8834 105.449 10.7125 104.431 9.94322C104.318 9.85775 104.177 9.85775 104.064 9.88624C103.979 9.88624 103.866 10.0002 103.979 10.0857C105.223 10.9974 106.892 11.2253 108.334 10.7125C108.419 10.684 108.504 10.5985 108.419 10.513H108.391Z" fill="#412409"/>
    <path d="M116.366 5.21379C115.772 4.41605 114.952 3.58983 113.877 3.76077C113.792 3.76077 113.651 3.84624 113.679 3.9602C113.736 4.07417 113.933 4.07417 114.018 4.07417C114.443 4.01718 114.81 4.2736 115.121 4.53001C115.461 4.81492 115.743 5.1853 115.998 5.55567C116.535 6.29643 116.96 7.12265 116.96 8.06284C116.96 8.26228 117.497 8.26228 117.497 8.06284C117.497 7.00869 116.988 6.0685 116.337 5.24228L116.366 5.21379Z" fill="#412409"/>
    <path d="M118.741 44.6447C118.034 45.4424 117.242 46.1547 116.451 46.867C115.63 47.5792 114.726 48.263 113.962 49.0322C113.085 49.887 112.718 51.1975 112.237 52.2802C111.671 53.5907 111.077 54.9013 110.512 56.2404C111.473 56.2404 112.293 55.5851 112.944 54.8728C113.679 54.1036 114.301 53.2773 114.867 52.3941C115.291 51.6819 116.055 51.1121 116.931 51.4539C117.695 51.7673 117.978 52.7075 118.572 53.2773C118.657 53.3628 118.77 53.4483 118.883 53.4768C119.081 53.5053 119.25 53.3913 119.392 53.2773C120.184 52.679 120.891 51.9953 121.569 51.3115C124.143 48.7189 126.462 45.8983 128.555 42.9068C128.894 42.394 129.545 41.6817 129.629 41.0549C129.714 40.4851 128.979 40.0862 128.526 39.8013C127.508 39.1175 126.462 38.4053 125.444 37.7215C125.161 37.5221 124.85 37.3226 124.539 37.2372C124.086 37.1232 123.804 37.4081 123.521 37.75C122.474 39.089 121.4 40.4566 120.523 41.9096C120.184 42.5079 119.844 43.1347 119.477 43.7045C119.25 44.0464 118.996 44.3883 118.713 44.6732L118.741 44.6447Z" fill="#DFEDE5"/>
    <path d="M129.29 41.3683C127.961 43.0777 126.603 44.7587 125.274 46.4681C124.624 47.2943 123.945 48.149 123.294 48.9753C122.644 49.8015 121.993 50.6562 121.286 51.397C120.608 52.1377 119.844 52.7645 119.024 53.3343C118.345 52.5936 117.61 51.8243 116.846 51.169C116.45 50.8556 116.026 50.5707 115.546 50.3713C115.008 50.1434 114.443 49.9724 113.905 49.773C113.792 49.7445 113.622 49.7445 113.538 49.83C113.453 49.9155 113.538 50.0009 113.622 50.0294C114.131 50.2004 114.669 50.3713 115.178 50.5992C115.659 50.7987 116.055 51.0836 116.45 51.4255C117.271 52.1092 118.006 52.907 118.713 53.6762C118.769 53.7332 118.911 53.7617 119.052 53.7332C119.109 53.7332 119.194 53.7332 119.222 53.7047C120.014 53.1634 120.777 52.5651 121.456 51.8813C122.191 51.1405 122.814 50.3428 123.464 49.5166C124.793 47.8072 126.151 46.1262 127.48 44.4168C128.243 43.4481 129.007 42.4794 129.771 41.5392C129.94 41.3398 129.431 41.2258 129.29 41.3968V41.3683Z" fill="#63848F"/>
    <path d="M109.126 51.5394C109.126 51.7104 109.126 51.8813 109.183 52.0807C109.409 53.6762 109.861 55.2717 110.483 56.7532C110.031 56.7532 109.663 56.3828 109.381 56.0124C108.306 54.6164 107.882 52.85 107.401 51.1406C107.344 50.9126 107.26 50.6562 107.062 50.5138C106.552 50.1719 105.223 51.9098 104.884 52.2802C104.149 53.0494 103.357 53.8472 102.31 54.189C101.971 54.303 101.236 49.2317 101.179 48.7473C100.896 46.753 100.812 44.7302 100.868 42.7073C100.868 42.5934 100.868 42.4509 100.925 42.337C100.981 42.2515 101.066 42.166 101.123 42.109C101.971 41.4253 102.819 40.8555 103.866 40.5706C104.149 40.4851 104.46 40.4566 104.686 40.5706C104.94 40.713 105.054 41.0264 105.138 41.3113C105.563 42.6504 106.043 43.9894 106.609 45.2715C107.062 46.3256 107.514 47.3513 108.306 48.2345C109.211 49.2317 109.041 50.3713 109.098 51.5394H109.126Z" fill="#DFEDE5"/>
    <path d="M108.476 49.4596C108.476 49.4596 108.221 49.3456 108.136 49.3456C106.948 49.4881 106.1 50.4853 105.308 51.2545C104.403 52.1092 103.526 52.9639 102.621 53.7902C102.084 51.1975 101.519 48.5764 101.405 45.9268C101.377 45.1575 101.377 44.3598 101.405 43.5906C101.405 43.3911 100.868 43.3911 100.868 43.5906C100.698 46.3256 101.123 49.0322 101.632 51.7104C101.773 52.4796 101.943 53.2488 102.112 54.0181C102.112 54.1036 102.226 54.1321 102.31 54.1605C102.31 54.2175 102.395 54.246 102.452 54.2745C102.565 54.303 102.735 54.303 102.819 54.2175L105.619 51.5679C106.043 51.169 106.468 50.7417 106.92 50.3713C107.316 50.0294 107.769 49.716 108.278 49.659C108.362 49.659 108.504 49.5736 108.476 49.4596Z" fill="#63848F"/>
    <path d="M0.5 178.436C4.51584 180.317 8.9276 181.086 13.3111 181.684C16.224 182.055 16.6482 182.14 17.0158 179.177C17.3269 176.556 17.44 173.906 17.5532 171.285C17.8643 164.675 18.1753 158.066 18.4864 151.427C18.9106 142.111 19.3631 132.794 19.2783 123.478C19.2217 115.928 18.7409 108.122 15.2907 101.426C14.2161 99.3181 12.9434 99.432 12.3778 101.284C11.6991 103.506 11.586 106.441 11.0769 108.805C9.91742 114.418 8.81448 120.031 7.79638 125.643C5.78846 136.726 4.09163 147.894 2.6776 159.063C1.85747 165.502 1.15045 171.969 0.528281 178.436H0.5Z" fill="#67762E"/>
    <path d="M15.0362 73.5626C10.9072 89.6882 9.69115 106.982 8.67305 123.62C7.57011 141.228 7.37214 159.006 8.47509 176.613C13.5939 177.525 18.4581 178.75 23.8031 179.234C30.4491 179.832 37.1233 180.288 43.7692 180.573C41.6199 145.786 40.7432 110.914 41.1674 76.0413C41.2522 68.8617 41.5633 59.5452 36.5294 53.7617C30.647 47.0094 23.4355 56.4968 20.2115 61.4541C17.8077 65.1579 16.1391 69.289 15.0362 73.5626Z" fill="#67762E"/>
    <path d="M63.0282 39.6588C64.6685 38.5477 66.1673 37.2371 67.4965 35.7556C68.1187 35.0719 68.5995 34.2171 69.2499 33.5334C70.0418 32.7071 70.8053 31.8809 71.5124 30.9692C72.1062 30.2 72.4739 29.3738 73.0961 28.6045C73.492 28.1202 73.8879 27.6643 74.199 27.123C74.9343 25.8124 74.9626 24.217 74.9343 22.707C74.9343 20.9975 74.8495 19.2881 74.4252 17.6356C73.5486 14.0173 69.7307 10.8264 66.5633 9.25942C65.9128 8.91754 65.2058 8.63263 64.4988 8.46169C63.0565 8.1198 61.5293 8.23376 60.0587 8.34773C55.1379 8.74659 49.9626 10.9689 47.9264 15.8123C46.8234 18.4334 46.682 21.3679 47.1911 24.1885C47.7001 26.9805 48.8031 29.6302 50.104 32.1373C50.2171 32.3368 50.3019 32.5362 50.3302 32.7641C50.3302 33.0205 50.2454 33.2485 50.1323 33.4764C48.6617 36.6958 46.7386 39.8013 46.4275 43.3341C46.3427 44.2743 46.3709 45.243 46.8234 46.0692C47.078 46.5536 47.4739 46.9239 47.8981 47.2658C48.5768 47.8071 49.3404 48.263 50.1888 48.3769C53.8936 48.9468 52.5361 43.562 55.5904 43.0492C58.2488 42.5934 60.8223 41.2258 63.0565 39.6588H63.0282Z" fill="#B36332"/>
    <path d="M81.2128 139.062C81.9481 141.427 82.1461 143.991 82.3158 146.413C82.74 152.367 82.9379 158.322 82.9097 164.277C82.9097 169.889 81.8633 175.416 80.93 180.943C78.8656 192.938 76.4617 204.847 73.7185 216.699C73.266 218.665 72.7852 220.659 71.7106 222.369C69.5613 225.702 65.0081 227.212 61.3033 225.816C60.2852 225.417 59.2671 224.79 58.7864 223.793C58.447 223.081 58.3904 222.226 58.3622 221.429C58.1359 213.936 58.6167 206.414 58.5884 198.921C58.5884 185.046 56.8916 171.228 54.8271 157.524C53.8373 151.028 51.5465 144.447 52.5364 137.809C53.0171 134.532 54.516 131.284 57.2027 129.347C59.3237 127.837 61.9538 127.296 64.5273 127.096C66.4504 126.925 68.4583 126.954 70.2965 127.609C72.1631 128.264 73.7468 129.518 75.2174 130.857C77.2253 132.709 79.4029 134.846 80.5624 137.353C80.8169 137.894 81.0149 138.436 81.1846 139.005L81.2128 139.062Z" fill="#FCD9BA"/>
    <path d="M75.0758 215.246C75.3021 216.87 75.2738 218.551 75.2738 220.175C75.1324 237.298 73.379 254.364 70.5792 271.23C69.5328 277.469 68.3451 283.709 66.9876 289.891C66.8745 290.404 66.7613 290.917 66.4503 291.316C65.7432 292.228 63.6505 291.43 62.6041 291.43C60.9073 291.401 59.3801 292.256 59.2104 289.948C58.3337 276.187 57.3156 262.483 56.3541 248.751C55.7602 240.346 55.0249 231.97 56.0147 223.565C56.8349 216.699 59.5498 207.896 67.9208 207.383C70.6641 207.212 73.1527 209.406 74.2274 211.97C74.6799 213.024 74.9344 214.135 75.0758 215.246Z" fill="#FCD9BA"/>
    <path d="M69.9008 308.239C69.6463 308.895 68.911 309.407 68.4019 309.835C67.7232 310.461 67.0162 311.06 66.3092 311.658C66.1395 311.801 65.9698 311.943 65.7436 311.971C65.5739 311.971 65.4042 311.971 65.2345 311.915C63.7074 311.487 62.2085 311.06 60.6814 310.632C58.6169 310.063 57.5139 309.065 57.6271 306.843C57.6553 306.359 57.6836 305.875 57.7119 305.362C57.8816 302.655 58.0513 299.92 58.2209 297.213C58.4189 294.421 58.6169 291.601 59.4087 288.923C60.1157 286.472 61.5581 285.931 63.9053 285.447C64.2447 285.39 64.5841 285.304 64.9234 285.361C65.2628 285.418 65.5739 285.589 65.8284 285.789C66.9031 286.615 67.2424 287.925 67.0162 289.208C66.7334 290.888 66.9596 292.683 67.2424 294.364C67.3273 294.849 67.4121 295.305 67.5252 295.789C68.1757 298.894 69.1938 301.943 69.7877 305.077C69.7877 305.105 69.7877 305.162 69.7877 305.191C69.9574 306.102 70.1836 307.299 69.8443 308.182L69.9008 308.239Z" fill="#FCD9BA"/>
    <path d="M69.9008 308.239C69.6463 308.895 68.911 309.407 68.4019 309.835C67.7232 310.461 67.0162 311.06 66.3092 311.658C66.1395 311.801 65.9698 311.943 65.7436 311.971C65.5739 311.971 65.4042 311.971 65.2345 311.915C63.7074 311.487 62.2085 311.06 60.6814 310.632C58.6169 310.063 57.5139 309.065 57.6271 306.843C57.6553 306.359 57.6836 305.875 57.7119 305.362C58.6734 305.419 59.7198 305.789 60.3137 305.96C61.5863 306.33 62.8872 306.587 64.1881 306.644C64.8669 306.644 65.5456 306.615 66.1961 306.473C67.4687 306.216 68.6282 305.647 69.816 305.191C69.9857 306.102 70.2119 307.299 69.8725 308.182L69.9008 308.239Z" fill="#B14B4D"/>
    <path d="M67.3557 288.353C67.695 288.353 67.9778 288.438 68.1758 288.666C68.5717 289.151 68.3172 290.205 68.0344 290.661C67.4122 291.658 65.574 291.487 64.5559 291.487C63.0287 291.487 61.5299 291.344 60.031 291.059C59.324 290.917 58.7867 291.059 58.5321 290.319C58.3342 289.806 58.4756 289.065 58.5321 288.524C58.5887 287.441 60.9642 288.239 61.6713 288.324C63.1701 288.467 64.6973 288.495 66.2244 288.438C66.5355 288.438 66.988 288.324 67.3839 288.353H67.3557Z" fill="#B14B4D"/>
    <path d="M46.6821 297.185C46.5124 298.382 46.1448 299.521 45.4661 300.518C44.5328 301.886 43.8824 303.538 43.1471 305.048C43.345 304.649 42.9774 303.453 42.9491 302.997C42.8925 302.285 42.8643 301.572 42.8643 300.832C42.8643 299.379 42.9491 297.897 43.1471 296.473C43.4582 294.336 43.6561 291.8 45.6358 290.518C45.7206 290.461 45.8054 290.404 45.9186 290.433C46.06 290.433 46.1165 290.575 46.1731 290.718C46.9932 292.484 46.9649 294.507 46.7953 296.444C46.7953 296.701 46.7387 296.957 46.7104 297.213L46.6821 297.185Z" fill="#FFF4E4"/>
    <path d="M55.6471 138.72C55.2795 136.527 54.8553 134.304 53.7523 132.396C49.4254 124.988 36.5578 125.074 32.2591 132.339C29.1765 137.524 29.8553 144.333 29.7987 150.516C29.6007 167.467 32.853 183.308 37.0951 199.633C38.8768 206.556 40.6867 213.48 42.4684 220.403C42.9209 222.198 43.4582 224.078 44.844 225.303C46.258 226.557 48.2376 226.813 50.1041 226.87C53.215 226.956 56.5521 226.471 58.8711 224.392C61.7557 221.799 62.3213 217.525 62.5193 213.651C63.6505 188.75 59.9175 163.251 55.6754 138.749L55.6471 138.72Z" fill="#FCD9BA"/>
    <path d="M41.3656 227.013C40.8848 228.665 40.4323 230.318 40.0647 231.999C38.6506 238.523 38.1133 245.218 37.6608 251.856C37.0669 260.29 36.5296 268.751 36.8972 277.185C37.0669 281.116 37.9436 285.19 37.8871 289.094C37.8305 291.943 37.6325 295.105 40.7434 296.444C43.0058 297.413 44.6744 295.96 45.1552 293.795C46.4844 287.641 47.8135 281.458 49.1427 275.304C51.3486 265.048 53.5545 254.791 56.2694 244.677C57.5986 239.691 59.4934 234.791 60.7377 229.805C61.1902 227.924 61.2751 226.016 61.7558 224.107C62.378 221.656 62.9719 219.178 62.9719 216.642C62.9719 214.648 62.3497 212.34 60.5115 211.599C57.4855 210.346 56.2129 207.525 52.197 208.18C49.2841 208.665 46.2581 211.229 45.438 214.135C44.2219 218.466 42.6665 222.682 41.3939 226.984L41.3656 227.013Z" fill="#FCD9BA"/>
    <path d="M31.8068 307.1C31.9482 307.783 32.5986 308.41 33.0228 308.923C33.6167 309.635 34.1823 310.348 34.7762 311.088C34.9176 311.259 35.059 311.43 35.2853 311.487C35.4549 311.544 35.6246 311.516 35.7943 311.487C37.3497 311.316 38.9335 311.145 40.4889 311.003C42.6099 310.775 43.8825 310.006 44.1088 307.783C44.1654 307.299 44.2219 306.815 44.2785 306.33C44.5613 303.624 44.8441 300.917 45.1269 298.211C45.4097 295.447 45.6642 292.626 45.3249 289.834C45.0138 287.299 43.6846 286.529 41.4504 285.675C41.1393 285.561 40.8 285.418 40.4606 285.418C40.1212 285.418 39.7819 285.532 39.4991 285.675C38.3113 286.302 37.7457 287.555 37.7457 288.837C37.7457 290.547 37.2366 292.285 36.671 293.88C36.5013 294.336 36.3316 294.792 36.162 295.219C35.0025 298.182 33.5036 301.003 32.4006 303.994V304.108C32.033 304.991 31.6088 306.131 31.8068 307.043V307.1Z" fill="#FCD9BA"/>
    <path d="M31.8068 307.1C31.9482 307.783 32.5987 308.41 33.0229 308.923C33.6168 309.635 34.1824 310.348 34.7763 311.088C34.9177 311.259 35.0591 311.43 35.2853 311.487C35.455 311.544 35.6247 311.516 35.7944 311.487C37.3498 311.316 38.9335 311.145 40.4889 311.003C42.61 310.775 43.8826 310.006 44.1088 307.783C44.1654 307.299 44.222 306.815 44.2785 306.33C43.317 306.245 42.2423 306.416 41.6202 306.501C40.3193 306.644 38.9618 306.701 37.6892 306.501C37.0104 306.416 36.36 306.245 35.7378 305.988C34.55 305.533 33.4754 304.763 32.3724 304.108C32.0613 304.991 31.6371 306.131 31.8068 307.043V307.1Z" fill="#B14B4D"/>
    <path d="M37.9718 287.128C37.6607 287.071 37.3213 287.128 37.0951 287.299C36.6143 287.698 36.6992 288.809 36.9254 289.293C37.3779 290.376 39.2161 290.518 40.2342 290.718C41.7331 290.974 43.2602 291.088 44.7591 291.059C45.4944 291.059 46.0034 291.23 46.3711 290.575C46.6539 290.091 46.6256 289.35 46.6822 288.809C46.7953 287.755 44.3349 288.125 43.6279 288.068C42.1007 287.954 40.6019 287.726 39.1313 287.413C38.8202 287.356 38.396 287.185 38.0001 287.128H37.9718Z" fill="#B14B4D"/>
    <path d="M62.5761 200.545C62.2084 195.246 61.8125 189.975 61.4448 184.676C61.0206 178.75 60.5964 172.824 60.1722 166.926C60.1722 166.727 59.6066 166.727 59.6349 166.926C60.3985 177.439 61.162 187.952 61.9256 198.494C62.2933 203.764 62.6609 209.035 62.2933 214.334C61.9256 219.463 61.0489 224.562 60.0591 229.605C58.9279 235.36 57.5987 241.059 56.0715 246.7C56.015 246.928 56.5523 246.956 56.6089 246.785C57.9663 241.799 59.1541 236.785 60.2005 231.742C61.2469 226.642 62.2084 221.514 62.6892 216.329C63.1982 211.058 63.0003 205.816 62.6326 200.545H62.5761Z" fill="#E6C1A0"/>
    <path d="M74.2557 114.532C67.7512 115.472 61.1618 115.957 54.6007 116.014C51.8858 116.014 49.3123 116.099 46.6256 116.384C44.7308 116.583 41.931 117.039 40.4039 115.444C36.5295 111.455 35.0306 105.472 33.7014 99.8024C31.5804 90.6284 29.431 81.483 27.31 72.309C26.3767 68.3488 25.4718 64.2747 25.9808 60.229C26.5181 55.9554 28.724 52.6505 32.3439 51.1405C36.1053 49.5735 40.1494 49.773 43.9107 48.32C45.5792 47.6647 47.1064 46.6105 48.8315 46.0407C50.8677 45.3854 53.017 45.4139 55.1098 45.4424C56.5804 45.4424 58.051 45.4994 59.465 45.8413C61.1901 46.2686 62.8021 47.1234 64.4706 47.8071C66.4786 48.6334 68.5713 49.1747 70.6924 49.4311C74.0577 49.83 77.8756 49.659 80.3077 52.2232C82.8813 54.9013 82.2874 59.3458 82.0894 62.9071C81.6086 70.5996 81.6652 78.3775 80.9865 86.1269C80.2795 94.2752 79.2614 102.395 77.9887 110.458C77.7908 111.768 77.4797 113.25 76.4333 113.934C75.9525 114.247 75.3586 114.361 74.793 114.447C74.6516 114.447 74.482 114.504 74.3405 114.504L74.2557 114.532Z" fill="#FCD9BA"/>
    <path d="M67.1573 38.1488C67.1573 38.3768 67.1007 38.5762 67.0725 38.7756C67.0442 39.0036 67.0159 39.2315 66.9876 39.4594C66.7897 40.8554 66.4786 42.2515 66.1675 43.619C66.1109 43.8754 66.0544 44.1319 65.9978 44.3883C65.715 45.6704 65.4605 46.9239 65.2908 48.206C65.0645 49.773 65.008 51.34 65.1777 52.9354C65.1777 53.1064 65.2059 53.2773 65.1211 53.4198C64.6969 54.1605 61.4729 53.6762 60.7093 53.5337C58.6449 53.1634 56.5804 52.736 54.5442 52.2802C53.2716 51.9953 51.9989 51.7103 50.7263 51.4254C50.0193 51.2545 47.9265 51.112 47.672 50.4568C47.3892 49.7445 48.2942 47.5507 48.4639 46.7815C48.7467 45.4994 49.0295 44.1888 49.3123 42.9068C49.8779 40.3141 50.4718 37.7215 51.0374 35.1288C51.5464 32.8211 52.9039 33.7043 54.5725 33.8753L62.7738 34.8439C64.9797 35.1004 67.4118 35.0719 67.129 38.1204L67.1573 38.1488Z" fill="#FCD9BA"/>
    <path d="M67.0725 38.7756C67.0442 39.0036 67.0159 39.2315 66.9876 39.4594C66.7896 40.8554 66.4786 42.2515 66.1675 43.619C64.7817 45.186 62.5758 46.2402 60.7376 46.4396C57.9378 46.7245 55.1946 45.1575 53.6958 42.7928C53.2998 42.166 52.8756 41.2828 52.5928 40.3996C52.3666 39.6588 52.2817 38.8896 52.4231 38.2628C52.7059 36.9807 54.2048 36.6388 55.2795 36.2685C56.8066 35.7271 58.56 35.7556 60.1437 36.012C61.9537 36.297 63.6788 36.8953 65.4039 37.4936C65.8564 37.6645 66.3372 37.807 66.6765 38.1488C66.8462 38.3198 66.9876 38.5477 67.1007 38.7756H67.0725Z" fill="#E6C1A0"/>
    <path d="M50.6133 34.3596C51.3203 37.1232 52.5363 39.8013 54.4311 41.9666C56.3542 44.1318 60.2852 45.7273 63.1415 44.5022C65.1495 43.619 66.7615 42.4794 68.0906 40.656C68.5431 40.0292 68.9391 39.3454 69.335 38.6617C71.2863 35.2428 72.3044 31.8809 73.1246 28.0347C73.8033 24.7868 73.5205 22.1086 71.7388 19.2881C70.2682 16.9519 68.5148 14.5587 65.9979 13.4475C64.8384 12.9347 63.5658 12.7638 62.3214 12.6498C61.1336 12.5358 59.9176 12.5073 58.7863 12.7922C57.7117 13.0771 56.7219 13.6185 55.7886 14.2168C54.2615 15.2139 52.8757 16.4675 51.8576 17.9775C50.2739 20.3707 50.2173 23.0488 49.9345 25.7839C49.6234 28.6615 49.9062 31.539 50.6133 34.3596Z" fill="#FCD9BA"/>
    <path d="M68.3453 17.7496C69.0241 18.2339 69.6179 18.7753 70.0422 19.3736C70.6926 20.2568 71.2582 21.197 71.5976 22.2226C72.4177 24.7298 72.1915 27.7213 72.248 30.3139C72.4743 30.3994 72.7005 30.143 72.8136 29.9151C74.7084 25.8979 74.6802 20.9405 72.8136 16.8949C72.3612 15.9262 71.7955 15.6413 70.9754 15.0715C70.0987 14.4447 69.2503 13.8464 68.317 13.3051C67.1293 12.6213 65.9132 11.909 64.6123 11.5102C63.3679 11.1398 62.0388 11.0543 60.7379 10.9688C59.4652 10.8834 58.1643 10.8264 56.9765 11.2538C55.3928 11.8521 54.3182 13.2196 53.3849 14.5871C52.9607 15.2424 52.3668 15.5843 51.9143 16.2111C51.575 16.6955 51.4053 17.2653 51.1225 17.7781C50.8397 18.3194 50.3872 18.7183 50.0478 19.2311C48.5207 21.4534 47.5591 24.046 47.2763 26.7241C47.2198 27.4079 46.9087 28.4905 47.2763 29.1173C48.0965 30.3424 48.6338 28.2341 48.9166 27.7498C50.0761 25.7839 51.8578 24.2739 53.3849 22.6215C55.0535 20.7981 56.6372 18.8322 58.0795 16.8094C58.2209 16.61 58.3623 16.439 58.5603 16.3251C58.7299 16.2396 58.9279 16.2396 59.1259 16.2396C60.7379 16.2396 62.3498 16.2396 63.9618 16.2396C65.3476 16.2396 66.9596 16.8664 68.2605 17.7781L68.3453 17.7496Z" fill="#B36332"/>
    <path d="M50.6416 26.4392C50.6416 26.4392 50.4154 26.2113 50.3023 26.1258C49.8215 25.7839 49.2276 25.5845 48.6337 25.6985C47.7287 25.8694 47.1066 26.7526 46.9086 27.6643C46.4844 29.6871 47.4176 32.1088 48.8599 33.5049C49.3973 34.0462 50.1891 34.502 50.8961 34.1886C51.4052 33.9607 51.6597 33.4194 51.7728 32.8781C52.1405 31.1971 52.0839 29.1173 51.3769 27.5218C51.2072 27.123 50.9527 26.7526 50.6699 26.4392H50.6416Z" fill="#FCD9BA"/>
    <path d="M63.8205 28.3481C63.8205 28.3481 63.7922 28.3481 63.7639 28.3481C63.3114 28.3481 63.3114 29.5162 63.3114 29.8011C63.3114 30.4279 63.3397 31.0547 63.4811 31.653C63.6508 32.4222 63.9901 33.1345 64.1598 33.9038C64.3861 34.8439 63.1983 35.2713 62.463 35.4138C62.0671 35.4992 62.3499 35.7841 62.6327 35.7272C63.3114 35.5847 64.1881 35.2998 64.6123 34.7015C64.8103 34.3881 64.782 34.0462 64.6972 33.7043C64.5558 33.277 64.3861 32.8496 64.2729 32.4223C64.075 31.7955 63.9336 31.1402 63.9053 30.4564C63.9053 30.1145 63.9053 29.7726 63.9053 29.4307C63.9336 29.1458 64.1033 28.7185 63.9619 28.4621C63.9336 28.4051 63.8487 28.3481 63.7922 28.3196L63.8205 28.3481Z" fill="#E6C1A0"/>
    <path d="M71.1449 28.6045C71.1449 28.6045 71.1732 28.6615 71.2015 28.69C71.2298 28.7185 71.3429 28.9179 71.3995 28.8609C71.456 28.8324 71.456 28.747 71.456 28.69C71.4277 28.3196 71.2581 28.0062 71.0884 27.7213C70.6924 27.066 70.24 26.5532 69.6178 26.1828C68.8542 25.727 68.0341 25.4705 67.1857 25.2711C66.7332 25.1571 65.7151 24.9292 65.7999 25.8124C65.7999 26.0973 66.111 26.2683 66.3655 26.3538C66.6766 26.4677 67.016 26.5247 67.3553 26.5532C67.8361 26.5817 68.3169 26.5532 68.7694 26.6671C69.2501 26.7811 69.6743 27.0375 70.042 27.3224C70.3531 27.5788 70.6076 27.8638 70.8621 28.1771C70.9753 28.3196 71.0601 28.4621 71.1732 28.6045H71.1449Z" fill="#B36332"/>
    <path d="M54.1201 26.1828C54.3464 25.499 55.5907 24.9292 56.2129 24.6728C57.5421 24.103 59.0692 23.9606 60.455 24.3594C60.9923 24.5019 61.5013 25.1572 60.8226 25.556C60.6246 25.67 60.3984 25.6985 60.1722 25.6985C59.6348 25.6985 59.0975 25.6985 58.5884 25.556C57.8814 25.4136 57.1461 25.1572 56.4391 25.2711C55.9866 25.3566 55.5907 25.556 55.2231 25.7555C54.9403 25.8979 54.4595 26.2683 54.1484 26.1828H54.1201Z" fill="#B36332"/>
    <path d="M59.4085 27.5504C59.2388 27.3224 58.9277 27.3224 58.7015 27.4079C58.4752 27.4364 58.2773 27.5789 58.1641 27.7498C57.9662 28.0062 57.8813 28.3196 57.8813 28.633C57.8813 28.9179 57.9379 29.2028 58.0793 29.4592C58.249 29.7441 58.5884 29.8296 58.8994 29.7726C58.8994 29.7726 58.8994 29.7726 58.956 29.7726C59.0126 29.7726 59.0408 29.7441 59.0974 29.7156C59.1257 29.7156 59.154 29.7156 59.1822 29.6872C59.2388 29.6587 59.2954 29.6302 59.3519 29.5732C59.6065 29.3453 59.6913 28.9749 59.7196 28.633C59.7196 28.4336 59.7196 28.2341 59.6347 28.0347C59.6065 27.8638 59.5216 27.6928 59.4368 27.5789L59.4085 27.5504Z" fill="#1A8B93"/>
    <path d="M68.9107 29.0034C68.7693 28.7754 68.4582 28.7185 68.2037 28.8039C67.9774 28.8039 67.7795 28.9179 67.6098 29.0603C67.3835 29.2883 67.2704 29.6017 67.2421 29.8866C67.2139 30.1715 67.2421 30.4564 67.3553 30.7413C67.4967 31.0547 67.8077 31.1686 68.1188 31.1402C68.1188 31.1402 68.1471 31.1402 68.1754 31.1402C68.232 31.1402 68.2602 31.1402 68.3168 31.1117C68.3451 31.1117 68.3734 31.1117 68.4016 31.0832C68.4582 31.0832 68.543 31.0262 68.5996 30.9977C68.8824 30.7983 69.0238 30.4279 69.0804 30.1145C69.0804 29.9151 69.0804 29.7156 69.0804 29.5162C69.0804 29.3453 69.0238 29.1743 68.939 29.0319L68.9107 29.0034Z" fill="#1A8B93"/>
    <path d="M63.8485 37.2656C63.6506 37.2371 63.396 37.2656 63.1415 37.3511C62.5193 37.5505 61.8123 37.5505 61.2184 37.2941C60.7942 37.1232 60.4266 36.8383 60.0024 36.7243C59.2388 36.5249 58.5883 37.0377 59.0408 37.807C59.9458 39.3454 62.7456 39.6303 63.9616 38.4053C64.5555 37.807 64.3576 37.3796 63.8768 37.2941L63.8485 37.2656Z" fill="#E9B8A2"/>
    <path d="M43.8257 164.277C45.8902 164.989 47.9547 165.701 50.0191 166.413C51.9139 167.069 53.4411 167.097 55.4207 167.154C59.7759 167.297 64.1028 167.012 68.458 167.012C72.1911 167.012 75.9241 167.126 79.6571 167.012C80.958 166.983 82.2872 166.926 83.6447 167.012C83.5599 166.499 83.5033 166.014 83.475 165.673C83.1922 160.516 82.9377 155.359 82.6549 150.202C82.0327 138.208 80.1379 126.213 79.2612 114.19C78.9218 109.774 78.6673 105.358 77.7341 101.027C77.2533 98.7197 73.2092 99.8879 71.3992 99.9164C68.5146 99.9733 65.6583 100.059 62.7737 100.173C59.7476 100.287 56.7216 100.401 53.7239 100.8C52.6775 100.942 51.6311 101.113 50.5847 101.312C47.8698 101.882 45.2114 102.737 42.5531 103.62C41.6198 103.934 40.6583 104.247 39.8664 104.788C37.2363 106.64 36.1334 110.543 34.6345 113.25C32.7114 116.726 31.3823 120.487 30.3359 124.304C26.4614 138.635 25.9241 153.849 28.7804 168.436C31.6368 168.094 33.9558 168.322 36.2465 166.242C37.1798 165.388 37.9716 164.277 39.1594 163.821C40.6017 163.251 42.1854 163.764 43.656 164.248C43.7126 164.248 43.7409 164.276 43.7974 164.305L43.8257 164.277Z" fill="#FFF4E4"/>
    <path d="M74.8493 66.6679C70.4376 66.5254 66.1106 65.7277 61.812 64.8445C57.5416 63.9613 53.1582 63.0496 49.1423 61.3401C45.7487 59.9156 42.6661 57.9213 39.8097 55.5851C38.0563 54.1605 36.105 52.3941 35.1152 50.2573C34.1819 50.4852 33.2487 50.7417 32.3154 51.1405C28.6955 52.6505 26.4896 55.9839 25.9523 60.229C25.4432 64.2747 26.3765 68.3488 27.2815 72.309C29.4025 81.483 31.5518 90.6284 33.6729 99.8024C35.002 105.472 36.4726 111.455 40.3754 115.444C41.9025 117.011 44.7023 116.555 46.5971 116.384C49.2837 116.099 51.8573 116.042 54.5722 116.014C61.1333 115.957 67.7226 115.472 74.2272 114.532C74.3686 114.532 74.5383 114.475 74.6797 114.475C75.2453 114.39 75.8392 114.304 76.3199 113.962C77.3663 113.278 77.6774 111.797 77.8754 110.486C79.1763 102.424 80.1661 94.3037 80.8731 86.1554C81.4387 79.7165 81.4953 73.2492 81.7781 66.8388C79.4591 66.7533 77.1401 66.7534 74.8211 66.6679H74.8493Z" fill="#FFF4E4"/>
    <path d="M56.4955 116.355C63.2545 115.415 70.0135 114.504 76.8009 113.563C78.3563 113.335 77.7624 111.54 77.7907 110.372C77.8473 108.634 78.2149 107.438 76.1787 107.409C64.612 107.295 53.0735 106.612 41.5633 105.358C39.2443 105.102 36.8405 104.845 34.6063 105.444C32.7398 105.928 31.1561 107.153 30.336 108.919C29.2047 111.256 27.819 115.586 30.7319 117.239C31.7783 117.837 32.9943 117.951 34.1821 118.008C41.5068 118.407 48.8314 117.41 56.0995 116.412C56.2409 116.412 56.3823 116.384 56.5237 116.355H56.4955Z" fill="#FCD9BA"/>
    <path d="M34.7759 52.9354C34.5214 52.2801 34.0406 51.4254 33.3053 51.169C32.5417 50.9126 31.4388 51.3969 30.7035 51.6818C28.0169 52.679 25.8958 55.0152 24.6515 57.5509C23.4637 59.9441 22.9264 62.6222 22.8132 65.3003C22.7284 67.0667 22.8132 68.8047 22.8698 70.5711C23.294 81.255 23.7182 91.8535 24.7929 102.509C25.1605 106.213 25.5564 109.974 27.027 113.392C27.5644 114.646 28.2997 115.928 29.3743 116.783C30.5338 117.694 32.4003 117.58 33.8144 117.609C34.6911 117.609 35.5678 117.637 36.3879 117.353C37.604 116.897 38.4807 115.814 38.9331 114.589C39.5553 112.937 39.2442 111.256 39.0746 109.518C38.9049 107.694 38.7069 105.842 38.5089 104.019C38.0847 100.401 37.5757 96.8109 37.0666 93.2211C36.4162 88.5486 35.7657 83.8477 35.1153 79.1752C34.6628 75.8703 34.182 72.5369 34.3234 69.175C34.5214 63.6479 37.0101 58.4056 34.8042 52.9354H34.7759Z" fill="#FCD9BA"/>
    <path d="M72.8696 20.0573C72.5585 18.7752 72.0494 17.4932 71.3707 16.3535C71.0596 15.8407 70.6637 15.3279 70.1829 14.9575C69.7022 14.5871 69.1648 14.3307 68.5992 14.1598C67.3832 13.7894 66.1105 13.7894 64.8662 13.8749C63.2542 13.9888 61.6422 14.2452 60.0868 14.7011C60.0019 14.7011 59.9171 14.8151 60.0019 14.9005C60.0868 14.986 60.2565 14.986 60.3696 14.9575C61.6988 14.5871 63.0562 14.3307 64.4137 14.2168C65.6015 14.1028 66.8458 14.0743 68.0053 14.3307C68.5427 14.4447 69.08 14.6726 69.5325 14.986C70.0132 15.3279 70.4092 15.7837 70.7485 16.2681C71.4273 17.3222 71.908 18.5188 72.2474 19.7154C72.6433 21.14 72.813 22.593 72.7565 24.0745C72.7565 24.2739 73.2938 24.2739 73.2938 24.0745C73.3504 22.7069 73.1807 21.3679 72.8696 20.0573Z" fill="#98491F"/>
    <path d="M63.4805 11.0543C62.0947 10.7694 60.6241 11.0828 59.4929 11.9375C59.3798 12.023 59.4929 12.1085 59.5777 12.137C59.6909 12.1939 59.8606 12.137 59.9454 12.08C60.9069 11.3392 62.1513 11.0828 63.3391 11.3392C63.4239 11.3392 63.6219 11.3392 63.6784 11.2253C63.735 11.1113 63.5653 11.0543 63.4805 11.0258V11.0543Z" fill="#98491F"/>
    <path d="M54.6288 16.9804C53.7804 18.8322 52.5361 20.4277 50.9524 21.6813C50.8393 21.7668 50.9524 21.8522 51.0372 21.8807C51.1503 21.9092 51.32 21.8807 51.4049 21.8237C52.9886 20.5417 54.2895 18.8892 55.1379 17.0373C55.2227 16.8379 54.6854 16.7809 54.6006 16.9519L54.6288 16.9804Z" fill="#98491F"/>
    <path d="M68.1752 162.197C64.8381 161.798 61.501 161.37 58.1922 160.801C54.8833 160.231 51.6311 159.49 48.4354 158.464C46.6537 157.866 44.9003 157.182 43.2318 156.385C43.1186 156.328 42.949 156.328 42.8358 156.385C42.751 156.442 42.7227 156.556 42.8358 156.584C45.8901 158.037 49.0858 159.091 52.3664 159.917C55.6752 160.744 59.0123 161.285 62.3777 161.769C64.2725 162.026 66.139 162.254 68.0338 162.51C68.1469 162.51 68.3166 162.51 68.3732 162.396C68.4297 162.282 68.26 162.225 68.1752 162.197Z" fill="#C3B8A8"/>
    <path d="M60.9071 153.877C58.7012 153.593 56.4953 153.194 54.346 152.595C53.7238 152.424 53.1017 152.254 52.5078 152.054C52.3946 152.026 52.225 152.026 52.1401 152.111C52.0553 152.197 52.1401 152.282 52.225 152.311C54.4026 152.994 56.6084 153.507 58.8709 153.877C59.4931 153.991 60.1435 154.077 60.7657 154.162C60.8788 154.162 61.0485 154.162 61.1051 154.048C61.1616 153.934 60.9919 153.877 60.9071 153.849V153.877Z" fill="#C3B8A8"/>
    <path d="M69.6174 125.729C67.1287 125.814 64.64 125.757 62.1513 125.529C59.6626 125.301 57.2022 124.903 54.7701 124.361C53.3844 124.048 52.0269 123.678 50.6977 123.279C50.5846 123.25 50.4149 123.25 50.3301 123.336C50.2452 123.421 50.3301 123.507 50.4149 123.535C52.8187 124.276 55.2792 124.846 57.7678 125.273C60.2565 125.7 62.7735 125.957 65.2905 126.042C66.7328 126.099 68.1468 126.099 69.5891 126.042C69.674 126.042 69.8719 126.014 69.8719 125.9C69.8719 125.786 69.674 125.757 69.5891 125.757L69.6174 125.729Z" fill="#C3B8A8"/>
    <path d="M36.7555 155.359C36.7555 155.359 36.5009 155.274 36.3878 155.302C34.1536 155.872 32.0043 156.698 29.9398 157.724C29.8267 157.781 29.855 157.895 29.9398 157.923C30.053 157.98 30.2227 157.98 30.3358 157.923C32.3437 156.897 34.4647 156.1 36.6706 155.53C36.7555 155.53 36.8403 155.416 36.7555 155.331V155.359Z" fill="#C3B8A8"/>
    <path d="M30.1096 97.5801C30.6469 97.4947 32.4003 97.5231 32.5417 96.8679C32.7963 95.7852 30.251 95.7282 29.6571 95.6998C29.1198 95.6998 28.1865 95.4433 28.2997 94.7026C28.3845 94.1898 29.0349 94.0473 29.544 93.9903C30.1945 93.9333 30.8732 93.9048 31.5236 93.9048C31.9478 93.9048 32.4003 93.9048 32.8245 93.9618C33.984 94.1043 35.0021 94.7026 36.0202 95.2724C36.8121 95.7282 37.6322 96.0701 38.3958 96.526C39.3856 97.0958 40.0926 97.865 40.9128 98.6343C40.9976 98.7197 41.1107 98.8052 41.2239 98.8907C41.4784 99.1186 41.7612 99.3465 41.9026 99.603C42.4399 100.486 42.3268 102.025 42.1854 102.993C42.1006 103.62 41.9309 104.247 41.5915 104.788C40.9411 105.814 39.725 106.498 38.4524 106.868C37.6888 107.096 36.8969 107.181 36.1051 107.267C35.3132 107.352 34.4648 107.495 33.6447 107.495C32.1458 107.495 30.6469 108.036 29.1198 108.122C27.6775 108.207 26.2069 108.065 24.906 107.438C24.708 107.352 24.4818 107.21 24.3687 107.011C24.2555 106.811 24.2838 106.526 24.4252 106.355C24.8494 105.814 26.0938 106.213 26.6594 106.27C27.4512 106.355 28.2714 106.355 29.0632 106.27C29.4026 106.241 29.742 106.184 30.053 106.042C30.3924 105.899 30.5621 105.814 30.4773 105.444C30.449 105.301 29.0067 105.643 28.8653 105.671C28.1582 105.785 27.4512 105.814 26.7159 105.785C25.104 105.728 22.7849 105.529 21.7386 104.133C21.2861 103.506 21.5406 102.879 22.3607 102.879C22.7284 102.879 22.9829 102.993 23.294 103.107C23.6616 103.25 24.1141 103.278 24.5101 103.335C25.3019 103.449 26.0938 103.506 26.8856 103.506C27.5078 103.506 28.13 103.449 28.7521 103.364C28.9501 103.364 30.3076 103.25 30.0248 102.822C29.9116 102.651 29.4874 102.822 29.346 102.822C28.8653 102.822 28.3845 102.822 27.9037 102.822C26.9422 102.822 26.0089 102.765 25.0474 102.68C23.6899 102.566 22.3325 102.338 21.1447 101.683C20.9184 101.54 20.6639 101.398 20.4942 101.17C20.3245 100.942 20.2397 100.657 20.2963 100.401C20.3811 100.03 20.777 99.7739 21.1447 99.7169C21.5406 99.6599 21.9082 99.7739 22.2759 99.8879C23.492 100.258 24.6515 100.543 25.9241 100.657C26.9139 100.771 27.9603 100.771 28.9501 100.543C29.1198 100.515 30.0813 100.344 29.7985 99.9733C29.742 99.9164 29.6006 99.9164 29.5157 99.9164C28.6673 99.7454 27.7623 99.9164 26.9139 99.8594C25.8675 99.7739 24.8494 99.6315 23.803 99.432C23.294 99.3181 22.7849 99.2041 22.3607 98.9192C21.9365 98.6628 21.173 97.7796 21.88 97.3807C22.0497 97.2952 22.2193 97.2667 22.4173 97.2667C23.1526 97.2667 23.8879 97.4377 24.6232 97.5516C26.4049 97.865 28.2431 97.865 30.053 97.6086L30.1096 97.5801Z" fill="#FCD9BA"/>
    <path d="M50.6694 98.0645C51.631 97.979 52.6208 97.8651 53.5823 97.7796C63.2543 96.8394 72.9262 95.8992 82.5982 94.8735C86.2464 94.4747 92.7792 93.449 94.9568 97.2383C96.1163 99.2611 96.2859 101.911 95.6638 104.104C94.9002 106.84 93.4579 107.58 90.6864 107.922C85.8787 108.549 81.0145 108.492 76.1785 108.435C64.3289 108.293 52.3945 108.122 40.743 105.899C38.1129 105.415 37.519 100.743 39.5552 99.2611C40.9975 98.2354 44.9002 98.5773 46.6536 98.4064C47.9828 98.2639 49.312 98.15 50.6694 98.0075V98.0645Z" fill="#FCD9BA"/>
    <path d="M79.7701 108.35C77.1965 108.293 74.623 108.293 72.0495 108.264C69.4759 108.264 66.9307 108.207 64.3572 108.179C61.7836 108.122 59.2101 108.036 56.6366 107.894C54.0631 107.751 51.5178 107.523 48.9726 107.238C46.4273 106.925 43.8821 106.526 41.3934 106.013C41.0823 105.956 40.7712 105.871 40.4601 105.814C40.347 105.814 40.2339 105.899 40.347 105.956C36.5857 107.267 32.6264 108.065 28.6671 108.236C27.6207 108.293 26.5178 108.236 25.528 107.808C25.4714 107.808 25.3866 107.78 25.33 107.808C25.3017 107.837 25.2735 107.894 25.33 107.922C26.2067 108.321 27.1683 108.435 28.1015 108.407C29.0913 108.407 30.1094 108.293 31.0992 108.207C33.1354 107.979 35.1716 107.609 37.1513 107.096C38.3108 106.811 39.442 106.469 40.545 106.07C40.545 106.07 40.5732 106.07 40.6015 106.042C43.0336 106.583 45.4658 106.982 47.9262 107.295C50.4714 107.637 53.0167 107.865 55.5902 108.036C58.1637 108.207 60.7373 108.293 63.2825 108.378C65.856 108.435 68.4296 108.464 71.0031 108.492C73.5766 108.492 76.1784 108.521 78.752 108.577C79.063 108.577 79.3741 108.577 79.7135 108.577C79.8832 108.577 79.8832 108.435 79.7135 108.435L79.7701 108.35Z" fill="#E6C1A0"/>
    <path d="M30.1094 105.273C29.2327 105.415 28.3561 105.614 27.4794 105.7C26.9703 105.757 26.4613 105.757 25.9522 105.7C25.726 105.7 25.528 105.614 25.3018 105.586C25.1604 105.586 24.9907 105.586 24.9058 105.7C24.821 105.814 25.0755 105.842 25.1321 105.785C25.2169 105.7 25.4714 105.785 25.5563 105.785C25.7542 105.814 25.9522 105.842 26.1219 105.842C26.4895 105.842 26.8289 105.842 27.1965 105.842C27.9318 105.785 28.6389 105.671 29.3742 105.557C29.5438 105.529 29.7135 105.501 29.8832 105.472C29.968 105.472 30.0529 105.444 30.1377 105.415C30.1377 105.415 30.2226 105.415 30.2508 105.415C30.3357 105.415 30.364 105.472 30.3357 105.586C30.2508 105.871 29.9115 105.985 29.657 106.07C29.0065 106.27 28.2995 106.384 27.6208 106.384C26.8289 106.384 26.037 106.241 25.3018 105.956C25.1886 105.928 24.9907 106.013 25.1604 106.099C26.6592 106.669 28.3843 106.726 29.9115 106.184C30.166 106.099 30.4771 105.956 30.5902 105.671C30.7316 105.358 30.3922 105.273 30.1377 105.301L30.1094 105.273Z" fill="#E6C1A0"/>
    <path d="M29.6569 102.623C28.8651 102.623 28.1015 102.68 27.3096 102.765C26.8571 102.822 26.4329 102.822 25.9805 102.765C25.5562 102.708 25.132 102.623 24.7078 102.594C24.5381 102.594 24.5381 102.737 24.7078 102.737C25.3583 102.737 25.9805 102.965 26.6309 102.965C26.9703 102.965 27.2814 102.908 27.6207 102.879C27.9601 102.851 28.3277 102.794 28.6671 102.794C29.0065 102.794 29.3458 102.765 29.6852 102.765C29.7418 102.765 29.9114 102.737 29.8549 102.851C29.8266 102.908 29.6569 102.936 29.6004 102.965C29.4307 103.022 29.2893 103.079 29.1196 103.136C28.4974 103.335 27.847 103.449 27.1682 103.478C26.4329 103.478 25.6976 103.392 24.9624 103.193C24.9058 103.193 24.8209 103.193 24.7644 103.193C24.7361 103.25 24.7644 103.278 24.821 103.307C26.235 103.734 27.7338 103.734 29.1479 103.307C29.3176 103.25 29.4872 103.193 29.6569 103.136C29.7983 103.079 29.9963 103.05 30.0811 102.908C30.2791 102.623 29.7418 102.623 29.6286 102.623H29.6569Z" fill="#E6C1A0"/>
    <path d="M29.9397 100.03C28.2146 99.3751 26.3198 100.116 24.6229 99.489C24.5098 99.4606 24.3118 99.546 24.4815 99.6315C26.1784 100.258 28.0166 99.546 29.7134 100.144C29.4872 100.401 29.0347 100.429 28.7236 100.486C28.2711 100.572 27.8469 100.657 27.3944 100.714C26.9137 100.771 26.4894 100.657 26.037 100.572C25.5845 100.486 25.132 100.401 24.7078 100.287C24.5664 100.287 24.4532 100.401 24.6229 100.429C25.132 100.543 25.6127 100.629 26.1218 100.743C26.6308 100.857 27.0833 100.914 27.5924 100.828C28.1014 100.743 28.5822 100.657 29.0913 100.572C29.4306 100.515 29.8265 100.458 30.0245 100.144C30.0245 100.116 29.9962 100.059 29.968 100.059L29.9397 100.03Z" fill="#E6C1A0"/>
    <path d="M37.3492 95.9277C36.218 95.3294 35.0868 94.7311 33.8424 94.3607C33.2485 94.1613 32.6264 94.0473 32.0325 93.9904C31.382 93.9334 30.7033 93.9904 30.0528 93.9904C29.4872 93.9904 28.7236 93.9049 28.2712 94.3607C28.2429 94.3892 28.2712 94.4177 28.2712 94.4462C28.1297 94.6171 28.0732 94.8451 28.158 95.0445C28.2712 95.3864 28.6105 95.5858 28.9499 95.6428C29.4024 95.7568 29.8831 95.6998 30.3356 95.7852C30.8164 95.8707 31.2972 95.9847 31.7779 96.0986C31.9759 96.1556 32.1739 96.2411 32.2304 96.4975C32.2587 96.7254 32.1456 96.9534 31.9476 97.0958C31.6083 97.3807 31.0992 97.4947 30.675 97.6086C29.7417 97.8366 28.7802 97.8651 27.8187 97.8651C27.2813 97.8651 26.744 97.8366 26.2067 97.7226C25.6411 97.6086 25.0754 97.4662 24.5098 97.3237C24.4533 97.3237 24.3684 97.3237 24.3119 97.3237C24.2836 97.3807 24.3119 97.4092 24.3684 97.4377C25.3583 97.6656 26.3481 97.979 27.3662 98.0075C27.8469 98.0075 28.3277 98.0075 28.8368 97.9505C29.3175 97.9505 29.7983 97.8936 30.2791 97.8081C30.7598 97.7226 31.2123 97.6086 31.6648 97.4377C32.0042 97.2953 32.4001 97.0958 32.485 96.6969C32.5698 96.2981 32.2587 96.0417 31.9193 95.9562C31.4386 95.8137 30.9578 95.7283 30.477 95.6428C30.1942 95.5858 29.9397 95.5573 29.6569 95.5573C29.3741 95.5573 29.0913 95.5573 28.8368 95.4434C28.6388 95.3579 28.4408 95.1869 28.4126 94.9305C28.3843 94.7311 28.4691 94.5032 28.6671 94.4177C28.7236 94.4177 28.6954 94.3607 28.6671 94.3322C28.8368 94.2183 29.0347 94.1898 29.2327 94.1898C29.5438 94.1898 29.8266 94.1898 30.1377 94.1898C30.7598 94.1898 31.382 94.1328 32.0042 94.1898C33.192 94.3037 34.2949 94.7026 35.3696 95.1869C35.9917 95.4719 36.5856 95.7853 37.1795 96.0986C37.2644 96.1556 37.5189 96.0702 37.3775 95.9847L37.3492 95.9277Z" fill="#E6C1A0"/>
    <path d="M80.1945 174.989C80.3076 175.73 80.449 176.527 81.0429 176.983C81.5519 177.382 82.2589 177.382 82.9377 177.382C86.7838 177.297 90.63 177.211 94.5044 177.126C95.0983 177.126 95.7487 177.097 96.2578 176.755C97.1345 176.186 97.2476 174.989 97.2759 173.935C97.3325 172.767 97.4173 159.917 97.4173 159.917C99.3969 159.547 101.377 159.205 103.328 158.835C101.433 139.062 99.5666 119.29 97.6718 99.489C96.7951 90.1441 95.8901 80.7992 93.9105 71.6252C92.6662 65.8417 90.8562 59.9156 86.9535 55.4711C82.57 50.4852 76.7442 48.7473 70.3528 48.4339C70.0135 52.3941 71.9083 56.7532 72.587 60.6279C74.1424 69.6879 75.0757 78.8618 75.6696 88.0643C76.8573 106.64 76.6594 125.273 77.4795 143.877C77.932 154.276 78.6956 164.675 80.1945 174.989Z" fill="#67762E"/>
    <path d="M95.5226 124.333C94.9287 113.449 94.2783 102.566 93.5713 91.6826C93.1754 85.5856 92.7511 79.4601 92.3269 73.3631C92.3269 73.1637 91.7613 73.1637 91.7896 73.3631C92.5532 84.2465 93.2602 95.1299 93.9389 106.013C94.5894 116.897 95.2116 127.78 95.7489 138.663C96.06 144.789 96.3428 150.886 96.6256 157.011C96.6256 157.211 97.1912 157.211 97.1629 157.011C96.6821 146.128 96.1165 135.216 95.5226 124.333Z" fill="#495E22"/>
    <path d="M86.3881 81.2835C86.1336 80.4858 85.5114 79.859 84.9175 79.2892C83.4752 77.9786 81.9198 76.782 80.3078 75.6994C81.3259 72.3375 82.344 69.0041 83.3903 65.6422C83.8711 64.0467 84.4367 62.4798 84.7761 60.8558C85.0872 59.3743 84.9741 57.8928 84.4367 56.4683C83.8146 54.8728 82.7965 53.4767 81.8066 52.1092C81.6935 51.9383 81.1562 52.0237 81.2693 52.1947C83.0227 54.5594 84.8044 57.1805 84.3236 60.286C84.0691 61.9669 83.4469 63.5909 82.9661 65.1864C82.4571 66.8388 81.9763 68.4628 81.4673 70.1152C80.9017 71.9671 80.336 73.8475 79.7704 75.6994C79.7704 75.7564 79.7704 75.8133 79.827 75.8418C81.2976 76.8105 82.7116 77.8931 84.0408 79.0613C84.6347 79.6026 85.2851 80.1439 85.6811 80.8846C86.077 81.6539 86.0204 82.5086 85.9356 83.3633C85.5114 87.1526 85.0306 90.9418 84.5498 94.7026C83.56 102.224 82.4571 109.717 81.1845 117.182C80.4774 121.398 79.7422 125.615 78.9503 129.803C78.922 130.002 79.4593 130.031 79.4876 129.803C80.9017 122.196 82.2026 114.589 83.3621 106.925C84.5216 99.318 85.5114 91.7111 86.3881 84.0756C86.5012 83.1354 86.6709 82.1382 86.3881 81.2265V81.2835Z" fill="#495E22"/>
    <path d="M20.8621 69.0326C19.2784 76.3546 17.8927 83.7337 16.6766 91.1128C15.4888 98.4633 14.4707 105.871 13.6506 113.278C12.8305 120.743 12.2083 128.207 11.7558 135.7C11.3316 143.137 11.0771 150.601 11.0205 158.066C11.0205 161.826 11.0205 165.559 11.0771 169.319C11.1053 171.2 11.1619 173.08 11.2185 174.932C11.2185 175.53 11.1336 176.299 11.671 176.67C11.9255 176.841 12.2366 176.898 12.5194 176.983C13.0001 177.097 13.4809 177.211 13.9334 177.354C14.8101 177.582 15.6868 177.81 16.5918 178.037C16.7897 178.094 17.2139 177.866 16.8746 177.781C15.9979 177.553 15.1212 177.325 14.2162 177.097C13.7637 176.983 13.3395 176.869 12.887 176.755C12.4063 176.641 11.8689 176.556 11.7841 175.986C11.6427 175.131 11.7275 174.22 11.6992 173.365C11.6992 172.453 11.6427 171.513 11.6427 170.601C11.5578 166.926 11.5296 163.251 11.5578 159.576C11.5861 152.196 11.8124 144.789 12.2083 137.41C12.6042 130.059 13.1981 122.737 13.9617 115.415C14.7253 108.065 15.6868 100.743 16.8463 93.4205C17.9775 86.1554 19.3067 78.9188 20.8339 71.7107C21.0318 70.799 21.2015 69.9158 21.3995 69.0041C21.4277 68.8331 20.8904 68.8047 20.8621 69.0041V69.0326Z" fill="#495E22"/>
    <path d="M22.1064 58.3486C22.1064 58.3486 22.2196 58.0922 22.1913 57.9498C22.1913 57.7503 22.0216 57.5509 21.8519 57.4654C21.6539 57.38 21.456 57.38 21.2297 57.4085C19.7026 57.6079 18.8542 58.9754 18.9107 60.4569C18.9107 60.5424 18.9107 60.6279 18.8824 60.6849C18.8542 60.7419 18.7693 60.7703 18.6845 60.8273C18.0906 61.0837 17.6098 61.5966 17.3553 62.1949C17.2987 62.3373 16.9877 64.0468 17.1291 63.9898C16.5634 64.2177 16.0544 64.2747 15.7999 64.873C15.4605 65.6707 15.5453 66.6394 15.9696 67.3801C14.7818 68.2349 14.8949 70.5426 15.9696 71.4543C16.1675 71.6252 16.422 71.7107 16.6483 71.6252C16.9311 71.5398 17.1008 71.2549 17.2139 70.9415C17.3553 70.5141 17.3836 70.0583 17.327 69.6309C17.3553 69.8303 18.2603 70.3432 18.43 70.4286C18.7693 70.5426 19.1935 70.5141 19.4198 70.2577C19.5329 70.1152 19.5895 69.9443 19.646 69.7449C19.8723 68.8047 19.7026 67.8075 19.5329 66.8673C19.7026 67.2377 20.1834 67.3802 20.551 67.2377C20.9186 67.0952 21.1732 66.7249 21.2863 66.326C21.4843 65.5568 21.4277 64.6451 21.0883 63.9328C21.2015 63.9043 21.3429 63.8758 21.456 63.8188C22.6155 63.306 21.9933 62.1379 21.8519 61.2547C21.6822 60.286 21.7953 59.2888 22.1347 58.3771L22.1064 58.3486Z" fill="#FCD9BA"/>
    <path d="M20.7488 63.7049C19.7024 62.8787 19.1085 61.5681 19.1651 60.229C19.1651 60.0866 18.7692 60.0581 18.7692 60.229C18.7126 61.5966 19.3348 62.9641 20.4094 63.8188C20.4943 63.8758 20.6074 63.9043 20.6923 63.8473C20.7488 63.8473 20.8337 63.7619 20.7771 63.7049H20.7488Z" fill="#E6C1A0"/>
    <path d="M19.3351 66.9243C18.317 66.44 17.8363 65.3573 17.5535 64.3317C17.5252 64.1892 17.101 64.2177 17.1575 64.3886C17.4403 65.4713 17.9777 66.5824 19.024 67.0952C19.1089 67.1237 19.222 67.1522 19.3069 67.0952C19.3634 67.0667 19.3917 66.9813 19.3069 66.9243H19.3351Z" fill="#E6C1A0"/>
    <path d="M17.7231 69.8873C17.0444 69.3745 16.5636 68.6622 16.2808 67.8645C16.2243 67.722 15.8283 67.7505 15.8849 67.9215C16.1677 68.7477 16.6768 69.4885 17.3555 70.0013C17.4403 70.0583 17.5535 70.0583 17.6383 70.0298C17.6949 70.0298 17.7797 69.9443 17.7231 69.8873Z" fill="#E6C1A0"/>
    <path d="M79.6854 70.2292C79.6854 70.2292 79.6854 70.3147 79.6572 70.2862C78.6108 69.8019 77.7341 69.0326 76.9422 68.2064C76.5463 67.7791 76.1787 67.3517 75.811 66.9243C75.5565 66.6394 75.1606 66.2975 74.7363 66.3545C74.3404 66.44 74.2273 66.8674 74.2556 67.2092C74.3121 68.9757 76.3201 70.4572 77.3947 71.7108C79.7986 74.5598 82.9094 76.6681 86.1617 78.4915C86.6425 78.7764 87.1515 79.0328 87.6888 79.1468C87.9151 79.2038 88.1696 79.2038 88.3958 79.3177C88.6504 79.4317 88.8483 79.6026 89.0463 79.8021C91.1108 81.7394 93.2035 83.6768 95.268 85.6141C95.8053 86.0985 96.3144 86.6113 96.8517 87.0956C97.2477 87.466 97.7567 88.1783 98.294 88.3492C99.1142 88.6341 100.047 87.8079 100.67 87.3521C101.433 86.7823 101.971 85.9845 102.508 85.1868C102.791 84.7594 103.073 84.3321 103.356 83.9047C104.487 82.2238 102.338 80.9132 101.235 79.859C99.0859 77.8362 96.9366 75.7849 94.7873 73.7621C94.6741 73.6481 94.5327 73.5341 94.5044 73.3632C94.4479 73.2207 94.5044 73.0498 94.5044 72.8789C94.561 72.0241 94.2499 71.1694 93.9106 70.3717C92.6945 67.4657 91.0542 64.7591 89.725 61.8815C89.4988 61.3972 89.2443 60.8843 88.7918 60.5994C87.6323 59.8302 87.4343 61.3117 87.604 62.1664C87.8585 63.5055 88.7069 65.1009 88.2544 66.44C87.5192 66.2691 86.699 65.2719 86.2182 64.7591C85.5961 64.1038 85.0022 63.42 84.38 62.7647C83.8144 62.1664 83.2205 61.5681 82.7397 60.8843C82.1741 60.1151 81.6934 59.2889 81.0429 58.6051C80.8167 58.3487 80.3359 57.9783 79.9682 58.0638C79.1481 58.2632 79.5158 59.9442 79.742 60.457C80.0531 61.1692 80.5904 61.7675 81.0995 62.3374C81.9479 63.306 82.768 64.3317 83.673 65.2434C84.0406 65.6138 83.3619 65.3858 83.1922 65.2434C82.966 65.0725 82.8246 64.8445 82.6266 64.6736C82.2024 64.2747 81.7499 63.9043 81.3257 63.5055C80.4773 62.7362 79.6572 61.8815 79.0633 60.8843C78.6956 60.3145 78.4128 59.6877 77.9886 59.1749C77.6775 58.8045 77.0836 58.5196 76.7443 59.004C76.3766 59.4883 76.3483 60.2576 76.4897 60.8274C76.6029 61.3687 76.8574 61.967 77.1968 62.3943C77.5361 62.8217 77.8472 63.2775 78.1866 63.7049C79.0067 64.7021 79.9682 65.5568 80.8732 66.4685C81.0712 66.6679 81.7216 67.1808 81.2409 67.3802C80.8732 67.5511 80.3359 67.1238 80.0814 66.9243C79.1764 66.2121 78.3563 65.3858 77.6492 64.4741C77.2816 64.0183 76.9422 63.5625 76.6311 63.0781C76.4049 62.7077 76.2069 62.1094 75.8958 61.796C75.4999 61.4257 75.0474 61.853 74.8495 62.2234C74.5949 62.7362 74.5949 63.3345 74.7363 63.8758C74.9343 64.6451 75.4151 65.3004 75.8958 65.8987C76.5746 66.7534 77.2816 67.5796 78.0452 68.3489C78.328 68.6338 78.6956 68.8617 79.0067 69.1466C79.2047 69.3175 79.4026 69.4885 79.5723 69.6594C79.6289 69.7164 79.7703 69.8304 79.7986 69.9158C79.7986 69.9158 79.7986 70.0298 79.7986 70.1153L79.6854 70.2292Z" fill="#FCD9BA"/>
    <path d="M116.111 85.5572C113.82 84.2466 111.557 82.9075 109.295 81.5115C107.344 80.2864 105.364 79.2322 103.497 77.9217C102.027 76.896 100.556 75.5285 98.6898 75.443C98.0676 75.443 97.4171 75.5 96.9081 75.1011C96.0597 74.4173 95.5789 73.3347 94.3628 74.3319C92.5529 75.8419 90.9126 77.5798 89.2723 79.2892C89.0744 79.4887 88.8764 79.7166 88.8199 79.973C88.6219 80.8847 90.4884 81.1981 90.6298 82.0528C90.7147 82.5087 90.4036 82.993 90.4319 83.4489C90.4601 84.1611 90.7995 84.9304 91.2237 85.5002C91.7893 86.2694 92.6377 86.7822 93.1751 87.58C93.7407 88.4062 94.3063 88.919 95.0981 89.5743C96.9364 91.0558 98.7746 92.5658 100.613 94.0188C104.261 96.9249 107.966 99.8024 111.755 102.538C115.092 104.931 118.486 107.238 121.993 109.404C124.029 110.657 125.952 112.196 128.215 113.022C129.685 113.563 131.212 113.221 132.711 113.022C134.436 112.766 136.077 112.082 137.462 110.999C138.707 110.002 139.697 108.72 140.347 107.267C140.913 105.985 141.761 104.532 141.45 103.079C141.309 102.452 141.026 101.882 140.686 101.341C139.781 99.8879 138.509 98.6628 137.01 97.8081C135.483 96.9249 134.21 95.5858 132.74 94.6171C129.6 92.5658 126.178 90.9988 122.87 89.2609C120.522 88.3492 118.26 86.8107 116.082 85.5572H116.111Z" fill="#DFEDE5"/>
    <path d="M143.487 51.1975C143.317 51.1975 143.119 51.2545 142.949 51.283C140.404 51.9383 138.255 54.417 137.039 56.6107C135.455 59.4028 134.776 62.6223 134.126 65.7562C131.892 76.4687 129.799 87.2381 126.433 97.6371C125.585 100.23 125.048 102.31 127.31 104.076C129.601 105.842 132.203 107.951 135.116 108.492C136.077 108.663 137.095 108.663 138 108.976C138.311 109.09 138.594 109.204 138.933 109.233C139.782 109.233 140.376 108.407 140.8 107.666C144.505 100.885 146.795 93.4205 148.266 85.8705C149.821 77.9502 150.783 69.6879 150.387 61.5966C150.274 59.3174 150.048 56.9526 148.973 54.9298C147.955 53.0209 145.721 50.9981 143.487 51.1975Z" fill="#DFEDE5"/>
    <path d="M139.64 101.198C138.905 98.4349 136.36 96.697 134.069 95.3009C132.061 94.1043 130.053 92.9077 128.045 91.7396C128.95 90.0017 129.686 88.1783 130.279 86.2979C130.958 84.2181 131.467 82.0813 131.891 79.9445C132.316 77.7507 132.683 75.557 133.023 73.3632C133.362 71.1694 133.701 68.9757 134.097 66.7819C134.493 64.5881 134.974 62.4228 135.596 60.2575C135.681 60.0011 135.738 59.7447 135.822 59.4883C135.879 59.2604 135.342 59.2319 135.285 59.4028C134.635 61.5111 134.126 63.6764 133.701 65.8417C133.277 68.0355 132.938 70.2292 132.598 72.423C132.259 74.6168 131.92 76.839 131.524 79.0328C131.128 81.1981 130.647 83.3349 129.997 85.4432C129.374 87.523 128.583 89.5458 127.593 91.4832C126.575 90.8849 125.557 90.2866 124.51 89.6883L114.782 83.9332L105.11 78.2066C104.318 77.7223 103.498 77.2664 102.706 76.7821C101.999 76.3547 101.264 75.9558 100.472 75.7279C99.0012 75.3006 97.1629 75.5855 95.9186 74.5028C95.6641 74.2749 95.4661 73.99 95.3247 73.6766C95.2399 73.5057 94.7025 73.5341 94.7874 73.7621C95.353 75.2151 97.0781 75.557 98.4073 75.6994C99.284 75.8134 100.104 75.9273 100.924 76.2692C101.716 76.6111 102.48 77.0955 103.215 77.5228C106.439 79.4317 109.663 81.3406 112.887 83.2494C116.139 85.1583 119.363 87.0672 122.615 89.0045C125.019 90.429 127.395 91.8251 129.799 93.2496C130.647 93.7339 131.496 94.2468 132.316 94.7311C134.691 96.1556 137.519 97.6371 138.735 100.287C138.877 100.6 138.99 100.914 139.075 101.255C139.131 101.426 139.669 101.398 139.612 101.17L139.64 101.198Z" fill="#63848F"/>
    <path d="M146.852 52.793C144.306 52.3372 141.62 53.1634 139.725 54.9013C139.188 55.3856 138.735 55.9555 138.339 56.5538C138.226 56.7247 138.763 56.8102 138.877 56.6392C140.149 54.6164 142.383 53.2489 144.731 53.0209C145.381 52.9639 146.06 52.9924 146.71 53.1064C146.795 53.1064 146.993 53.1064 147.05 52.9924C147.106 52.8785 146.937 52.8215 146.852 52.793Z" fill="#63848F"/>
    <path d="M145.523 94.5032C144.787 96.583 144.052 98.6343 143.232 100.686C142.44 102.708 141.648 104.731 140.743 106.697C140.319 107.609 139.867 108.521 139.244 109.29C138.707 109.974 138.057 110.572 137.321 111.085C135.794 112.139 134.012 112.652 132.174 112.652C130.081 112.652 127.989 111.968 126.037 111.199C125.076 110.8 124.143 110.344 123.238 109.831C122.304 109.29 121.428 108.663 120.551 108.065C118.769 106.84 116.959 105.615 115.178 104.361C113.396 103.107 111.671 101.797 109.946 100.458C106.411 97.7511 102.876 95.0445 99.3405 92.3379C98.9163 91.996 98.4921 91.6826 98.0396 91.3407C97.9265 91.2553 97.7851 91.2553 97.672 91.2838C97.5871 91.3123 97.474 91.4262 97.5871 91.4832C101.207 94.2468 104.827 97.0388 108.475 99.8024C110.257 101.17 112.01 102.538 113.82 103.82C115.63 105.13 117.497 106.384 119.335 107.637C121.117 108.862 122.87 110.088 124.821 110.999C126.744 111.882 128.809 112.566 130.93 112.823C132.853 113.051 134.776 112.823 136.529 111.939C138.141 111.142 139.499 109.888 140.432 108.35C140.969 107.438 141.394 106.469 141.818 105.472C142.27 104.446 142.695 103.392 143.119 102.338C143.939 100.287 144.731 98.207 145.494 96.0987C145.692 95.5573 145.862 95.0445 146.06 94.5032C146.145 94.2753 145.607 94.2468 145.523 94.4462V94.5032Z" fill="#63848F"/>
    <path d="M95.8904 76.6396C95.4945 77.0385 95.1551 77.4943 94.844 77.9502C94.5046 78.406 94.137 78.8619 93.7411 79.2892C92.9492 80.1154 92.1008 80.8562 91.2241 81.597C91.1393 81.6824 91.2241 81.7679 91.3089 81.7964C91.4221 81.8249 91.5918 81.8249 91.6766 81.7394C92.5533 80.9987 93.4017 80.2579 94.1936 79.4317C94.5895 79.0328 94.9288 78.577 95.2682 78.1211C95.6076 77.6653 95.9187 77.1809 96.3429 76.7821C96.5408 76.6111 96.0035 76.4971 95.8621 76.6396H95.8904Z" fill="#63848F"/>
  </g>
  <defs>
    <clipPath id="clip0_121_24">
      <rect width="150" height="312" fill="white" transform="translate(0.5)"/>
    </clipPath>
  </defs>
</svg>
