<svg width="80" height="167" viewBox="0 0 80 167" fill="none"
  xmlns="http://www.w3.org/2000/svg">
  <path d="M77.0118 69.0577H60.8876C60.6786 70.9396 60.6636 72.8518 60.6487 74.7489C60.6189 80.5007 60.7234 86.2223 60.7682 91.9741C60.798 96.2235 61.3206 100.443 61.3803 104.677C61.7087 108.258 61.9625 111.855 62.1566 115.452C62.3209 118.336 62.2611 121.295 62.6493 124.178C62.724 124.785 62.8285 125.393 62.9479 125.984C62.9778 126.136 63.0226 126.303 63.1271 126.409C63.2465 126.546 63.4406 126.591 63.6048 126.622C64.9634 126.88 66.3519 126.91 67.7255 126.895C68.7108 126.895 69.7111 126.849 70.6965 126.683C72.1148 126.455 73.4884 125.969 74.7425 125.241C75.2202 124.968 75.8473 124.603 76.1459 124.103C76.4594 123.587 76.3549 122.828 76.3848 122.221C76.4445 120.749 76.5042 119.261 76.5639 117.789C76.6684 114.83 76.758 111.87 76.8028 108.911C76.8924 104.267 76.8028 99.6382 76.8625 94.9942C76.9222 90.5931 77.818 86.2981 77.818 81.8818C77.818 78.9528 77.5194 76.0237 77.3701 73.1098C77.2955 71.6681 77.4597 70.196 77.0118 69.0577V69.0577Z" fill="#63848F"/>
  <path d="M73.5929 161.861C73.6526 162.119 73.7422 162.377 73.8168 162.635C73.996 163.197 74.1005 163.91 73.4436 164.259C73.2943 164.335 73.1301 164.366 72.9658 164.396C71.6669 164.608 70.3232 164.441 69.0094 164.274C68.457 164.199 67.815 164.183 67.3224 163.956C67.2328 163.925 67.1581 163.88 67.0984 163.804C66.9939 163.667 67.0238 163.485 67.0984 163.349C67.1731 163.212 67.3074 163.091 67.4269 162.984C68.4421 161.968 68.5765 160.693 68.4272 159.342C68.3227 158.401 68.2181 157.46 68.1286 156.504C67.7255 152.573 67.4119 148.628 67.1731 144.682C67.1133 143.65 67.0685 142.572 67.4866 141.646C67.8748 140.797 68.6212 140.19 69.4125 139.795C70.7861 139.112 73.3839 138.96 73.8019 140.994C74.0706 142.269 74.0408 143.574 74.0259 144.879C74.0856 146.7 73.9661 148.552 73.9213 150.388C73.8766 152.361 73.8168 154.334 73.7123 156.307C73.6675 157.293 73.6078 158.28 73.5481 159.251C73.5033 159.843 73.4436 160.42 73.4585 161.012C73.4585 161.315 73.5182 161.603 73.578 161.892L73.5929 161.861Z" fill="#FCD9BA"/>
  <path d="M60.798 165.792C61.1265 165.974 61.664 166.02 62.0372 166.08C62.9181 166.217 63.7989 166.202 64.6798 166.172L67.9942 166.065C68.3077 166.065 68.7407 166.126 69.0393 166.035C69.3827 165.929 69.7111 165.792 70.0545 165.656C70.159 165.61 70.2785 165.58 70.383 165.534C70.6517 165.458 71.2788 165.261 71.4729 165.534C71.5326 165.625 71.5624 165.716 71.5923 165.822C71.5923 165.868 71.6072 165.898 71.6222 165.944L74.5185 165.853C74.5185 165.853 74.5185 165.762 74.5185 165.716C74.5185 165.473 74.5484 165.276 74.3991 165.064C74.3842 165.033 74.3543 165.003 74.3394 164.973C74.3394 164.942 74.3394 164.897 74.3394 164.866C74.3394 164.851 74.3394 164.821 74.3394 164.806C74.3692 164.639 74.3543 164.472 74.3394 164.305C74.3245 163.789 74.2647 163.288 74.1154 162.787C74.0408 162.544 73.9811 162.271 73.8318 162.074C73.563 161.74 73.3839 161.922 73.0853 162.089C72.4433 162.438 71.7117 162.62 70.9802 162.605C70.2486 162.605 69.532 162.408 68.9049 162.044C68.6959 161.922 68.4869 161.543 68.248 161.558C67.9494 161.573 67.6956 162.013 67.5015 162.195C67.0686 162.575 66.6057 162.909 66.128 163.212C65.1426 163.834 64.0677 164.305 62.9479 164.608C62.6045 164.699 62.2611 164.775 61.9178 164.851C61.6042 164.927 61.1713 164.957 60.8876 165.124C60.7831 165.185 60.6935 165.276 60.6338 165.352C60.5591 165.473 60.5591 165.625 60.7532 165.731L60.798 165.792Z" fill="#553A12"/>
  <path d="M60.6786 165.428C60.8727 165.428 61.0668 165.473 61.2758 165.504C61.7834 165.58 62.291 165.625 62.7986 165.655C63.7989 165.716 64.8142 165.701 65.8294 165.686C65.904 165.686 65.9638 165.686 66.0384 165.686C66.7401 165.686 67.4418 165.655 68.1286 165.595C68.8303 165.534 69.4872 165.367 70.174 165.215C70.4278 165.155 70.6667 165.109 70.9205 165.079C70.7712 164.836 70.5323 164.639 70.2636 164.548C69.8903 164.426 69.4573 164.472 69.0692 164.487C68.6511 164.487 68.2331 164.517 67.83 164.608C67.6359 164.654 67.4418 164.699 67.2328 164.715C67.0835 164.73 66.8745 164.76 66.7401 164.654C66.6655 164.593 66.6057 164.517 66.561 164.426C66.5012 164.335 66.4415 164.244 66.3818 164.153C66.2624 163.971 66.1578 163.774 66.0683 163.576C66.0384 163.531 66.1728 163.5 66.2026 163.546C66.2922 163.728 66.3818 163.895 66.4863 164.077C66.5759 164.229 66.6804 164.396 66.7849 164.548C66.8596 164.639 66.9641 164.654 67.0835 164.639C67.2029 164.639 67.3074 164.623 67.4269 164.593C67.621 164.563 67.8151 164.517 68.0091 164.487C68.4123 164.426 68.8154 164.411 69.2185 164.396C69.5917 164.396 69.9799 164.365 70.3382 164.487C70.6368 164.593 70.8757 164.79 71.0399 165.048C72.1298 164.881 73.2495 164.836 74.3394 164.897C74.3394 164.927 74.3394 164.973 74.3394 165.003C74.3394 165.033 74.3693 165.064 74.3991 165.094C74.5484 165.306 74.5186 165.504 74.5186 165.747C74.5186 165.792 74.5186 165.838 74.5186 165.883L71.6222 165.974C71.6222 165.974 71.6072 165.898 71.5923 165.853C71.5625 165.747 71.5326 165.64 71.4729 165.564C71.2788 165.291 70.6517 165.489 70.383 165.564C70.2636 165.595 70.159 165.64 70.0545 165.686C69.7111 165.807 69.3678 165.959 69.0393 166.065C68.7407 166.156 68.3077 166.08 67.9942 166.096L64.6798 166.202C63.7989 166.232 62.9181 166.247 62.0372 166.111C61.664 166.05 61.1414 166.005 60.798 165.822C60.6039 165.716 60.6039 165.58 60.6786 165.443V165.428Z" fill="#412409"/>
  <path d="M67.4567 162.195C67.4567 162.195 67.5015 162.15 67.5164 162.15C67.5761 162.135 67.6508 162.135 67.7105 162.165C67.8598 162.286 68.0091 162.408 68.1584 162.544C68.1733 162.56 68.1882 162.575 68.1733 162.605C68.1733 162.62 68.1285 162.651 68.1136 162.651C68.0837 162.651 68.0389 162.666 68.0091 162.651C67.9792 162.651 67.9494 162.651 67.9195 162.62C67.7851 162.484 67.6358 162.362 67.4716 162.241C67.4567 162.241 67.4418 162.21 67.4567 162.18V162.195Z" fill="#3C3C71"/>
  <path d="M66.9193 162.605C66.9193 162.605 66.964 162.56 66.979 162.56C67.0387 162.544 67.1133 162.544 67.1731 162.575C67.3074 162.696 67.4418 162.833 67.5463 162.969C67.5463 162.984 67.5463 163.015 67.5463 163.03C67.5314 163.045 67.4866 163.06 67.4717 163.06C67.4119 163.06 67.3373 163.06 67.3074 163.015C67.3074 163.015 67.2776 162.984 67.2776 162.969C67.188 162.848 67.0835 162.742 66.964 162.651C66.9491 162.651 66.9342 162.62 66.9491 162.59L66.9193 162.605Z" fill="#3C3C71"/>
  <path d="M62.5746 120.263C62.8434 118.533 63.5749 116.894 65.3964 116.514C66.0085 116.393 66.6355 116.408 67.2477 116.454C68.0688 116.499 68.8899 116.575 69.6663 116.848C70.5024 117.152 71.1891 117.137 72.0849 117.273C73.0404 117.41 73.9661 117.683 74.8469 118.077C75.2501 118.26 75.6382 118.457 75.9667 118.776C76.8774 119.656 76.534 120.9 76.4892 122.023C76.4594 122.691 76.4444 123.344 76.4146 124.011C76.3698 125.332 76.3101 126.652 76.2503 127.973C76.2056 129.156 76.1458 130.34 76.101 131.509C76.101 131.63 76.101 131.751 76.101 131.873C76.0712 132.525 76.0563 133.163 76.0264 133.815C75.9368 136.365 75.8472 138.93 75.7577 141.48C75.7577 141.601 75.7577 141.722 75.7577 141.844C75.6681 144.818 75.5785 147.793 75.5039 150.767C75.5039 150.889 75.5039 151.01 75.5039 151.132C75.4292 154.121 75.3546 157.111 75.2799 160.101C75.2799 160.222 75.2799 160.344 75.2799 160.465C75.25 161.482 75.2351 162.484 75.2053 163.5C75.2053 164.001 73.8466 163.834 72.7866 163.667C72.6075 163.637 72.4283 163.607 72.2641 163.576C72.0103 163.531 71.7863 163.5 71.6669 163.485C70.5322 163.379 69.3975 163.303 68.2629 163.242C68.0837 163.242 67.9195 163.227 67.7403 163.212C67.591 163.212 65.4262 163.167 65.4411 163.212C65.3665 162.18 65.3217 161.087 65.7099 160.101C66.0383 159.251 66.322 158.568 66.2772 157.597C66.1876 155.852 65.2321 154.319 64.5155 152.786C63.4555 150.479 63.7093 147.55 63.6944 145.076C63.6645 137.64 62.7239 130.249 62.5 122.828C62.4701 122.054 62.5 121.158 62.6194 120.278L62.5746 120.263Z" fill="#63848F"/>
  <path d="M62.3208 69.0577H48.9735C48.5256 69.6041 48.2569 70.3174 48.1225 71.0155C47.9434 72.0171 48.0031 73.0491 47.9583 74.066C47.8389 76.8281 46.9431 79.4687 46.4205 82.1398C45.8831 84.9323 45.3754 87.7399 44.8828 90.5323C44.1363 94.7058 43.8675 98.9552 43.1509 103.129C42.6582 105.952 42.2551 108.79 41.9117 111.643C41.5683 114.572 41.1503 117.562 41.0458 120.506C41.0159 121.523 41.0159 122.555 41.2548 123.541C41.434 124.3 41.8221 125.499 42.5686 125.878C42.5686 125.878 42.5836 125.878 42.5985 125.878C43.345 126.242 44.5095 126 45.3157 126.151C46.2862 126.333 47.2715 126.485 48.2718 126.516C49.7051 126.561 51.1533 126.333 52.5119 125.863C53.2883 125.59 54.1243 125.301 54.3781 124.436C54.6469 123.511 54.7365 122.403 55.0052 121.431C55.0052 120.566 55.5576 119.428 55.7965 118.578C56.0951 117.516 56.4086 116.438 56.6773 115.361C56.8565 114.663 56.8117 114.071 56.8714 113.373C56.961 112.326 57.3193 111.233 57.5283 110.201C59.1855 102.188 60.6337 94.1291 61.7684 86.0401C62.485 80.9864 63.336 75.8264 62.7239 70.6968C62.6493 70.1353 62.5597 69.5282 62.3357 69.0122L62.3208 69.0577Z" fill="#63848F"/>
  <path d="M52.0939 161.861C52.1536 162.119 52.2432 162.377 52.3179 162.635C52.497 163.197 52.6015 163.91 51.9446 164.259C51.7953 164.335 51.6311 164.366 51.4668 164.396C50.1381 164.608 48.7795 164.441 47.4507 164.274C46.8983 164.199 46.2414 164.183 45.7338 163.956C45.6442 163.925 45.5696 163.88 45.5098 163.804C45.4053 163.667 45.4352 163.485 45.5098 163.349C45.5845 163.212 45.7189 163.091 45.8383 162.984C46.8834 161.968 47.0178 160.693 46.8535 159.342C46.749 158.401 46.6445 157.46 46.54 156.504C46.1369 152.573 45.8084 148.628 45.5696 144.682C45.5098 143.65 45.4651 142.572 45.8831 141.646C46.2713 140.797 47.0327 140.19 47.8389 139.795C49.2423 139.112 51.87 138.96 52.3029 140.994C52.5717 142.269 52.5567 143.574 52.5269 144.879C52.5866 146.7 52.4672 148.552 52.4224 150.388C52.3776 152.361 52.3178 154.334 52.2133 156.307C52.1685 157.293 52.1088 158.28 52.0342 159.251C51.9894 159.843 51.9297 160.42 51.9446 161.012C51.9446 161.315 52.0043 161.603 52.079 161.892L52.0939 161.861Z" fill="#FCD9BA"/>
  <path d="M39.1049 165.792C39.4334 165.974 39.9858 166.02 40.359 166.08C41.2399 166.217 42.1506 166.202 43.0464 166.172L46.4056 166.065C46.7191 166.065 47.167 166.126 47.4656 166.035C47.809 165.929 48.1524 165.792 48.5107 165.656C48.6301 165.61 48.7346 165.58 48.8541 165.534C49.1228 165.458 49.7648 165.261 49.9589 165.534C50.0186 165.625 50.0485 165.716 50.0783 165.822C50.0783 165.868 50.0933 165.898 50.1082 165.944L53.0494 165.853C53.0494 165.853 53.0494 165.762 53.0494 165.716C53.0494 165.473 53.0792 165.276 52.9299 165.064C52.915 165.033 52.8851 165.003 52.8702 164.973C52.8702 164.942 52.8702 164.897 52.8702 164.866C52.8702 164.851 52.8702 164.821 52.8702 164.806C52.9001 164.639 52.8851 164.472 52.8702 164.305C52.8553 163.789 52.7956 163.288 52.6463 162.787C52.5716 162.544 52.5119 162.271 52.3626 162.074C52.0939 161.74 51.9147 161.922 51.6012 162.089C50.9592 162.438 50.2127 162.62 49.4662 162.605C48.7346 162.605 47.9881 162.408 47.3611 162.044C47.1521 161.922 46.9431 161.543 46.6893 161.558C46.3757 161.573 46.1368 162.013 45.9278 162.195C45.4949 162.575 45.0171 162.909 44.5394 163.212C43.5391 163.834 42.4492 164.305 41.3145 164.608C40.9711 164.699 40.6128 164.775 40.2694 164.851C39.9559 164.927 39.508 164.957 39.2243 165.124C39.1198 165.185 39.0302 165.276 38.9705 165.352C38.8959 165.473 38.8959 165.625 39.09 165.731L39.1049 165.792Z" fill="#553A12"/>
  <path d="M38.9855 165.428C39.1796 165.428 39.3737 165.473 39.5827 165.504C40.0903 165.58 40.6128 165.625 41.1354 165.655C42.1655 165.716 43.1808 165.701 44.2109 165.686C44.2856 165.686 44.3453 165.686 44.4199 165.686C45.1216 165.686 45.8383 165.655 46.54 165.595C47.2566 165.534 47.9135 165.367 48.6152 165.215C48.869 165.155 49.1228 165.109 49.3767 165.079C49.2274 164.836 48.9885 164.639 48.7048 164.548C48.3166 164.426 47.8986 164.472 47.4955 164.487C47.0775 164.487 46.6445 164.517 46.2414 164.608C46.0473 164.654 45.8383 164.699 45.6293 164.715C45.48 164.73 45.2709 164.76 45.1216 164.654C45.047 164.593 44.9873 164.517 44.9425 164.426C44.8828 164.335 44.8231 164.244 44.7633 164.153C44.6439 163.971 44.5394 163.774 44.4498 163.576C44.4199 163.531 44.5692 163.5 44.5842 163.546C44.6738 163.728 44.7633 163.895 44.8678 164.077C44.9574 164.229 45.0619 164.396 45.1814 164.548C45.256 164.639 45.3755 164.654 45.4949 164.639C45.6143 164.639 45.7338 164.623 45.8383 164.593C46.0324 164.563 46.2414 164.517 46.4355 164.487C46.8386 164.426 47.2566 164.411 47.6746 164.396C48.0479 164.396 48.451 164.365 48.8093 164.487C49.1079 164.593 49.3617 164.79 49.511 165.048C50.6158 164.881 51.7654 164.836 52.8702 164.897C52.8702 164.927 52.8702 164.973 52.8702 165.003C52.8702 165.033 52.9001 165.064 52.93 165.094C53.0793 165.306 53.0494 165.504 53.0494 165.747C53.0494 165.792 53.0494 165.838 53.0494 165.883L50.1082 165.974C50.1082 165.974 50.0933 165.898 50.0784 165.853C50.0485 165.747 50.0186 165.64 49.9589 165.564C49.7499 165.291 49.1228 165.489 48.8541 165.564C48.7347 165.595 48.6302 165.64 48.5107 165.686C48.1524 165.807 47.8239 165.959 47.4656 166.065C47.167 166.156 46.7191 166.08 46.4056 166.096L43.0464 166.202C42.1506 166.232 41.2548 166.247 40.359 166.111C39.9858 166.05 39.4483 166.005 39.1049 165.822C38.9108 165.716 38.9108 165.58 38.9855 165.443V165.428Z" fill="#412409"/>
  <path d="M45.8532 162.195C45.8532 162.195 45.898 162.15 45.913 162.15C45.9727 162.135 46.0473 162.135 46.107 162.165C46.2713 162.286 46.4206 162.408 46.5549 162.544C46.5699 162.56 46.5848 162.575 46.5699 162.605C46.5699 162.62 46.5251 162.651 46.5101 162.651C46.4803 162.651 46.4355 162.666 46.4056 162.651C46.3758 162.651 46.3459 162.651 46.3161 162.62C46.1668 162.484 46.0175 162.362 45.8682 162.241C45.8532 162.241 45.8383 162.21 45.8532 162.18V162.195Z" fill="#3C3C71"/>
  <path d="M45.3157 162.605C45.3157 162.605 45.3605 162.56 45.3755 162.56C45.4352 162.544 45.5248 162.544 45.5695 162.575C45.7039 162.696 45.8383 162.833 45.9577 162.969C45.9577 162.984 45.9577 163.015 45.9577 163.03C45.9428 163.045 45.898 163.06 45.8681 163.06C45.8084 163.06 45.7338 163.06 45.689 163.015C45.689 163.015 45.6591 162.984 45.6591 162.969C45.5546 162.848 45.4501 162.742 45.3456 162.651C45.3307 162.651 45.3157 162.62 45.3307 162.59L45.3157 162.605Z" fill="#3C3C71"/>
  <path d="M42.6284 148.628C42.2402 141.252 41.7774 133.891 41.3743 126.531C41.2847 124.998 41.001 123.42 41.0309 121.902C41.0607 119.944 41.7624 116.97 43.9273 116.53C44.5394 116.408 45.1664 116.423 45.7786 116.469C46.973 116.545 48.1226 116.666 49.1378 117.334C50.1082 117.971 51.3474 118.017 52.4223 118.427C53.139 118.7 54.8111 119.231 55.0799 120.02C55.259 120.551 55.0351 121.477 55.0201 122.039C54.9903 122.706 54.9753 123.359 54.9455 124.027C54.9007 125.347 54.841 126.667 54.7813 127.988C54.7365 129.171 54.6768 130.355 54.632 131.524C54.632 131.645 54.632 131.767 54.632 131.888C54.6021 132.541 54.5872 133.178 54.5573 133.831C54.4677 136.38 54.3782 138.945 54.2886 141.495C54.2886 141.616 54.2886 141.738 54.2886 141.859C54.199 144.834 54.1094 147.808 54.0348 150.783C54.0348 150.904 54.0348 151.025 54.0348 151.147C53.9601 154.137 53.8855 157.126 53.8108 160.116C53.8108 160.238 53.8108 160.359 53.8108 160.48C53.781 161.497 53.766 162.499 53.7362 163.516C53.7362 164.016 52.3776 163.85 51.3175 163.683C51.1384 163.652 50.9592 163.622 50.795 163.592C50.5412 163.546 50.3172 163.516 50.1978 163.5C49.0631 163.394 47.9285 163.318 46.7938 163.258C46.6146 163.258 46.4504 163.242 46.2713 163.227C46.122 163.227 43.9571 163.182 43.9721 163.227C43.8825 161.907 43.8228 160.465 44.629 159.418C44.9126 159.054 45.271 158.765 45.48 158.371C45.8681 157.612 45.6143 156.671 45.1664 155.943C43.6735 153.499 42.8374 151.602 42.6881 148.658L42.6284 148.628Z" fill="#63848F"/>
  <path d="M65.0082 90.3957C64.8738 94.1746 64.7245 97.9384 64.5901 101.717C64.4558 105.466 64.3065 109.23 64.1721 112.978C64.0975 115.103 64.0228 117.212 63.9332 119.337C63.9332 119.443 64.2169 119.443 64.2169 119.337C64.3513 115.558 64.5006 111.794 64.6349 108.016C64.7693 104.267 64.9186 100.503 65.053 96.7546C65.1276 94.6299 65.2023 92.5204 65.2918 90.3957C65.2918 90.2895 65.0082 90.2895 65.0082 90.3957V90.3957Z" fill="#364B52"/>
  <path d="M46.4952 96.785C46.1369 98.0902 45.8084 99.3954 45.4949 100.701C45.1814 102.021 44.8977 103.356 44.629 104.692C44.3602 106.012 44.1214 107.348 43.8974 108.683C43.6735 110.019 43.4794 111.354 43.3002 112.705C43.1211 114.041 42.9718 115.391 42.8374 116.742C42.8225 116.909 42.8075 117.091 42.7926 117.258C42.7926 117.364 43.0763 117.364 43.0763 117.258C43.1957 115.922 43.345 114.572 43.5242 113.236C43.6884 111.901 43.8825 110.55 44.1064 109.215C44.3154 107.879 44.5543 106.559 44.8231 105.238C45.0769 103.918 45.3605 102.582 45.6741 101.262C45.9727 99.9417 46.3011 98.6366 46.6594 97.3314C46.7042 97.1644 46.749 96.9975 46.7938 96.8306C46.8237 96.7092 46.54 96.694 46.5101 96.785H46.4952Z" fill="#364B52"/>
  <path d="M44.3602 142.952C43.9571 139.233 43.6287 135.515 43.4047 131.797C43.2703 129.687 43.1658 127.578 43.1061 125.468C43.1061 125.362 42.8075 125.362 42.8224 125.468C42.9568 129.217 43.1658 132.966 43.4794 136.714C43.7929 140.432 44.196 144.151 44.6737 147.854C44.9574 149.948 45.256 152.042 45.5845 154.121C45.5994 154.228 45.8831 154.228 45.8681 154.121C45.2709 150.418 44.7783 146.7 44.3602 142.967V142.952Z" fill="#364B52"/>
  <path d="M66.0533 144.06C65.7099 140.918 65.4411 137.776 65.2172 134.635C65.0977 132.875 64.9932 131.099 64.9037 129.338C64.9037 129.232 64.6051 129.232 64.62 129.338C64.7693 132.51 64.9783 135.667 65.262 138.824C65.5307 141.965 65.8741 145.107 66.2623 148.233C66.4862 149.993 66.7251 151.739 66.9789 153.484C66.9938 153.59 67.2775 153.59 67.2626 153.484C66.7997 150.343 66.3966 147.201 66.0533 144.06V144.06Z" fill="#364B52"/>
  <path d="M61.2309 78.1029C61.2309 76.4638 61.1861 74.8248 61.1264 73.1706C61.0965 72.2448 61.0518 71.319 61.007 70.3933C61.007 70.287 60.7084 70.287 60.7233 70.3933C60.8129 72.0475 60.8726 73.6866 60.9174 75.3408C60.9622 76.9798 60.9771 78.6189 60.9622 80.2731C60.9622 81.1078 60.9622 81.9425 60.9323 82.762C60.5292 82.4282 60.0365 82.2005 59.5886 81.9122C59.3199 81.7452 59.0661 81.5631 58.8571 81.3203C58.6033 81.0319 58.4838 80.6677 58.4241 80.2883C58.3644 79.8633 58.3793 79.4232 58.3793 78.9831C58.3793 78.4975 58.3793 78.027 58.3793 77.5414C58.3793 76.5852 58.3793 75.6291 58.3793 74.6882C58.3793 73.6107 58.3793 72.5332 58.3793 71.4405C58.3793 71.3342 58.0956 71.3342 58.0956 71.4405C58.0956 73.3679 58.0956 75.3104 58.0956 77.2378C58.0956 77.7235 58.0956 78.2091 58.0956 78.6948C58.0956 79.1501 58.0956 79.6053 58.1255 80.0606C58.1554 80.4552 58.2449 80.865 58.4689 81.1989C58.648 81.4569 58.8869 81.6693 59.1407 81.8515C59.7379 82.2764 60.4546 82.5344 60.9472 83.0807C60.992 83.1415 61.216 83.1415 61.216 83.0352C61.2458 81.381 61.2608 79.7419 61.2458 78.0877L61.2309 78.1029Z" fill="#364B52"/>
  <path d="M59.8724 89.6825C59.2752 88.5595 58.5585 87.5123 57.7225 86.5713C57.4836 86.2982 57.2298 86.0402 56.976 85.7822C56.9013 85.7063 56.6326 85.767 56.7222 85.8581C57.603 86.7383 58.3943 87.7248 59.0512 88.8023C59.2453 89.1058 59.4095 89.4093 59.5887 89.728C59.6335 89.8191 59.9172 89.7887 59.8724 89.6825V89.6825Z" fill="#364B52"/>
  <path d="M78.4152 28.3546C78.4152 28.3546 78.3704 28.2787 78.3405 28.2332C77.5044 27.0646 76.4146 26.2603 75.2948 25.3952C74.0407 24.4087 72.3536 23.3767 70.8607 22.8152C68.9646 22.1171 67.4119 20.9637 65.3217 20.7512C64.0377 20.6298 62.7388 20.7968 61.4549 20.9637C58.9765 21.2824 56.6176 21.7832 54.3184 22.7697C52.0789 23.7258 49.944 25.4407 48.0777 27.0039C47.3014 27.6565 46.5549 28.3394 46.0323 29.2197C44.7185 31.4051 45.1365 34.1823 45.5247 36.7168C47.1969 47.4313 47.6746 58.2977 47.9434 69.1336C47.9732 70.2111 48.1374 71.5011 49.093 71.9261C49.4065 72.0626 49.7648 72.0778 50.1082 72.093C53.4226 72.2296 56.7221 72.3813 60.0365 72.5179C62.7388 72.6393 65.4561 72.7456 68.1584 72.6697C69.6812 72.6242 71.204 72.5028 72.7269 72.3662C74.0109 72.2448 75.8622 72.3965 76.9968 71.6984C77.0715 71.6529 77.1461 71.6073 77.1909 71.5315C77.2506 71.4404 77.2805 71.319 77.3103 71.2128C77.5343 70.0745 77.3402 68.9515 77.3999 67.7981C77.4596 66.4626 77.4149 65.127 77.3402 63.8067C77.2058 61.4999 77.4149 59.1475 77.5492 56.8255C77.8478 51.9236 78.3106 47.0368 78.9526 42.1803C79.3856 38.887 79.8932 35.5482 79.5498 32.2246C79.4005 30.8435 79.1915 29.4777 78.4152 28.3243V28.3546Z" fill="#DFEDE5"/>
  <path d="M59.4543 33.5297C59.4244 33.3931 59.3647 33.2869 59.2602 33.211C59.1258 33.12 58.9317 33.1048 58.7974 33.1807C58.6928 33.2262 58.6331 33.3324 58.6033 33.4387C58.6033 33.4842 58.5883 33.5297 58.5734 33.5753C58.5734 33.636 58.5585 33.6815 58.5585 33.7422C58.5585 33.8788 58.6182 34.0002 58.7376 34.0609C58.8571 34.1368 59.0213 34.1368 59.1557 34.1064C59.4095 34.0305 59.5289 33.7725 59.4692 33.5145L59.4543 33.5297Z" fill="#244753"/>
  <path d="M59.4543 41.5884C59.4244 41.4519 59.3647 41.3456 59.2602 41.2697C59.1258 41.1787 58.9317 41.1635 58.7974 41.2394C58.6928 41.2849 58.6331 41.3911 58.6033 41.4974C58.6033 41.5429 58.5883 41.5884 58.5734 41.634C58.5734 41.6947 58.5585 41.7402 58.5585 41.8009C58.5585 41.9375 58.6182 42.0589 58.7376 42.1196C58.8571 42.1955 59.0213 42.1955 59.1557 42.1651C59.4095 42.0893 59.5289 41.8313 59.4692 41.5733L59.4543 41.5884Z" fill="#244753"/>
  <path d="M59.4543 49.6319C59.4244 49.4953 59.3647 49.3891 59.2602 49.3132C59.1258 49.2221 58.9317 49.207 58.7974 49.2828C58.6928 49.3284 58.6331 49.4346 58.6033 49.5408C58.6033 49.5864 58.5883 49.6319 58.5734 49.6774C58.5734 49.7381 58.5585 49.7837 58.5585 49.8444C58.5585 49.981 58.6182 50.1024 58.7376 50.1631C58.8571 50.239 59.0213 50.239 59.1557 50.2086C59.4095 50.1327 59.5289 49.8747 59.4692 49.6167L59.4543 49.6319Z" fill="#244753"/>
  <path d="M59.9619 57.6906C59.932 57.554 59.8723 57.4478 59.7678 57.3719C59.6334 57.2808 59.4393 57.2657 59.305 57.3416C59.2005 57.3871 59.1408 57.4933 59.1109 57.5996C59.1109 57.6451 59.096 57.6906 59.081 57.7361C59.081 57.7968 59.0661 57.8424 59.0661 57.9031C59.0661 58.0397 59.1258 58.1611 59.2453 58.2218C59.3647 58.2977 59.5289 58.2977 59.6633 58.2673C59.9171 58.1914 60.0365 57.9334 59.9768 57.6754L59.9619 57.6906Z" fill="#244753"/>
  <path d="M59.9619 65.7492C59.932 65.6126 59.8723 65.5064 59.7678 65.4305C59.6334 65.3394 59.4393 65.3243 59.305 65.4001C59.2005 65.4457 59.1408 65.5519 59.1109 65.6581C59.1109 65.7037 59.096 65.7492 59.081 65.7947C59.081 65.8554 59.0661 65.901 59.0661 65.9617C59.0661 66.0983 59.1258 66.2197 59.2453 66.2804C59.3647 66.3563 59.5289 66.3563 59.6633 66.3259C59.9171 66.25 60.0365 65.992 59.9768 65.734L59.9619 65.7492Z" fill="#244753"/>
  <path d="M66.4565 21.2672C66.4565 21.3583 66.4117 21.419 66.3669 21.4949C65.3666 23.0125 63.8139 24.0445 62.5747 25.38C61.231 26.837 60.2606 28.643 58.7079 29.8571C58.4093 28.9768 57.9315 28.127 57.6479 27.2467C57.3493 26.3513 57.1104 25.4104 56.8417 24.4998C56.5729 23.6347 56.3191 22.7697 56.0504 21.9046C56.0504 21.9046 56.0504 21.8743 56.0504 21.8591C55.8264 21.1458 55.6174 20.4325 55.3935 19.7041C55.3487 19.5523 55.3039 19.4157 55.2591 19.2639C55.3337 18.9452 55.4383 18.6417 55.5428 18.3382C55.6771 17.9739 55.8712 17.6249 56.1101 17.3062C56.4087 17.0178 56.7372 16.775 57.0805 16.5474C57.2298 16.4411 57.3791 16.3349 57.5135 16.2287C57.5882 16.168 57.6777 16.1072 57.7673 16.0617C58.4839 15.5912 59.0961 15.485 59.6335 14.8173C60.1859 14.1343 61.3654 13.7549 62.1268 14.3468C62.4105 14.5744 62.6046 14.878 62.7837 15.1815C62.9928 15.5305 63.2167 15.8796 63.4257 16.2287C63.799 16.8357 64.1722 17.4428 64.5455 18.0498C65.1576 19.0363 65.7548 20.0228 66.3669 21.0092C66.4117 21.0851 66.4565 21.161 66.4565 21.2369V21.2672Z" fill="#FCD9BA"/>
  <path d="M61.6938 18.5506C61.4997 19.355 60.9174 20.22 60.4098 20.8423C59.5737 21.8287 58.4689 22.2233 57.2148 22.1474C56.8117 22.1171 56.3787 22.0564 56.0354 21.8591C55.8114 21.1458 55.6024 20.4325 55.3784 19.704C55.3337 19.5523 55.2889 19.4157 55.2441 19.2639C55.3187 18.9452 55.4232 18.6417 55.5277 18.3382C55.6621 17.9739 55.8562 17.6249 56.0951 17.3062C56.1548 17.2303 56.2145 17.1696 56.2742 17.0937C56.4982 16.8509 56.7818 16.6991 57.0655 16.5322C57.3044 16.3956 57.5582 16.259 57.7523 16.0769C58.2151 15.6519 58.9168 15.6368 59.5439 15.6519C60.1112 15.6671 60.7084 15.6975 61.1712 16.0465C61.3802 16.1983 61.5295 16.4259 61.634 16.6536C61.7087 16.8205 61.7535 17.0026 61.7834 17.1847C61.8431 17.6249 61.7833 18.0802 61.6788 18.5203L61.6938 18.5506Z" fill="#E6C1A0"/>
  <path d="M62.6642 8.85295C62.485 8.01825 62.1864 7.24425 61.9625 6.42472C61.5892 5.0285 60.4397 3.64744 59.3498 2.73686C59.2453 2.6458 59.1408 2.56992 59.0362 2.49404C58.2151 1.91733 57.1551 1.49239 56.1399 1.46204C54.9455 1.43169 53.6615 2.0691 52.6463 2.63062C51.8251 3.07074 51.0189 3.58674 50.362 4.23932C49.8544 4.75532 49.4214 5.51414 49.3468 6.24261C49.2721 6.89519 49.1228 7.63884 49.2871 8.26107C49.4662 8.95918 49.5707 9.70283 49.7499 10.4009C50.1082 11.8882 50.6009 13.33 51.0936 14.7717C51.4519 15.8341 51.8251 16.9116 52.3477 17.8981C52.8851 18.9301 53.6466 19.9317 54.5573 20.6602C55.4232 21.3583 56.9759 21.4645 58.0359 21.3279C59.4543 21.1458 60.6487 19.8558 61.3504 18.6721C62.5 16.7143 63.2017 14.2709 63.1718 12.0096C63.1718 11.5543 63.0225 11.1901 62.9479 10.75C62.8434 10.1733 62.8135 9.56624 62.709 8.98954C62.709 8.94401 62.6941 8.89848 62.6791 8.83777L62.6642 8.85295Z" fill="#FCD9BA"/>
  <path d="M60.5442 9.18682C60.2755 8.73153 59.9918 8.44317 59.4991 8.04859C58.7974 7.48706 57.9614 6.94071 57.0954 7.12283C56.7819 7.18353 56.4982 7.35047 56.1997 7.44153C55.2441 7.74506 54.4081 7.22906 53.5869 6.8193C52.7807 6.42471 52.1238 5.7266 51.7804 4.87672C51.7655 4.83119 51.7356 4.78566 51.6908 4.77049C51.661 4.77049 51.6162 4.78566 51.5863 4.81601C51.1683 5.2106 51.1384 5.86319 51.1384 6.43989C51.1384 7.01659 51.1384 7.654 50.7951 8.10929C50.4815 8.50388 50.2426 8.686 50.168 9.23235C50.0933 9.85458 50.1083 10.583 49.6455 10.9928C49.2573 11.3267 48.675 11.2963 48.1674 11.2356C47.9882 11.2205 47.8091 11.1901 47.6449 11.099C47.2567 10.8714 47.3015 10.492 47.1671 10.1429C46.9879 9.67246 46.6744 9.35376 46.6595 8.80741C46.6595 8.428 46.7789 8.06376 46.8834 7.69953C47.0477 7.01659 47.0924 6.31848 47.3015 5.63554C47.5105 4.9526 47.8837 4.61872 48.3466 4.13308C48.7198 3.75367 48.7944 3.20732 49.0483 2.75202C49.4066 2.09944 50.4218 1.47721 51.1235 1.3558C51.5714 1.27991 52.0193 1.27991 52.4523 1.12815C52.93 0.946032 53.3331 0.566622 53.781 0.338976C54.9903 -0.283256 56.4236 0.126507 57.7822 0.202389C58.4093 0.232741 59.0512 0.202389 59.6783 0.263094C60.4547 0.338976 61.231 0.596975 61.8581 1.05227C62.5 1.50756 62.9778 2.20567 63.142 2.97967C63.2017 3.31355 63.2167 3.64743 63.3063 3.96614C63.4257 4.36072 63.6795 4.67943 63.9034 5.02848C64.3215 5.66589 64.8291 6.47024 64.859 7.24424C64.8888 8.13965 64.7694 9.01988 64.5305 9.88493C64.3663 10.5223 64.1722 11.1597 63.9482 11.782C63.8736 12.0248 63.7542 12.298 63.5003 12.3435C63.0524 12.4497 62.7091 11.8275 62.4254 11.5847C62.2313 11.4177 61.9924 11.3115 61.7983 11.1446C61.2758 10.7196 60.9921 10.0974 60.7234 9.49035C60.6637 9.36893 60.6189 9.2627 60.5592 9.17164L60.5442 9.18682Z" fill="#553A12"/>
  <path d="M61.7087 10.1429C62.8135 8.7467 63.9631 10.4009 64.0229 11.5999C64.0676 12.3435 63.8736 13.0872 63.6496 13.8156C63.4705 14.4378 63.0823 15.3181 62.2761 15.136C61.9625 15.0601 61.7684 14.7869 61.6341 14.5137C61.0966 13.4969 60.9622 12.0855 61.2758 10.9625C61.3653 10.6741 61.4997 10.3858 61.6938 10.1429H61.7087Z" fill="#FCD9BA"/>
  <path d="M51.9446 10.8714C51.5415 11.0383 51.1683 11.2963 50.8846 11.6757C50.7652 11.8427 50.6159 12.04 50.5263 12.2221C50.377 12.4953 50.6009 12.4042 50.7204 12.3131C50.9145 12.1766 51.0787 11.9944 51.2877 11.873C51.4967 11.7516 51.7207 11.6454 51.9446 11.5695C52.4075 11.4026 52.9001 11.3267 53.3928 11.3419C53.4376 11.3419 53.6168 11.3115 53.572 11.2053C53.4227 10.8562 53.2585 10.7955 52.9599 10.75C52.6762 10.7044 52.3776 10.75 52.1089 10.8259C52.0491 10.841 52.0044 10.8562 51.9596 10.8866L51.9446 10.8714Z" fill="#553A12"/>
  <path d="M57.1552 9.46003C57.618 9.36897 58.1107 9.38415 58.5885 9.53591C58.7975 9.59662 59.0363 9.68768 59.2304 9.79391C59.5141 9.9305 59.2603 9.9912 59.0961 9.97603C58.8273 9.97603 58.5885 9.91532 58.3197 9.9305C58.051 9.9305 57.7972 9.97603 57.5434 10.0367C57.0208 10.1581 56.5132 10.3706 56.0653 10.659C56.0355 10.6893 55.8414 10.75 55.8264 10.659C55.7816 10.2796 55.8862 10.1278 56.1549 9.9305C56.4087 9.73321 56.6924 9.59662 56.991 9.52074C57.0507 9.50556 57.1104 9.49038 57.1701 9.47521L57.1552 9.46003Z" fill="#553A12"/>
  <path d="M53.1241 13.2996C53.0494 13.0265 52.9151 12.7078 52.6165 12.6774C52.4672 12.6622 52.3179 12.7229 52.2283 12.8443C52.1984 12.8747 52.1835 12.9202 52.1686 12.9506C52.1537 12.9809 52.1387 13.0113 52.1238 13.0265C52.0491 13.2086 52.0491 13.421 52.1238 13.6183C52.1537 13.7853 52.2134 13.9219 52.3627 14.0281C52.497 14.1192 52.6911 14.1495 52.8255 14.0585C52.8554 14.0433 52.8852 14.0129 52.9151 13.9826C53.0047 13.9219 53.0793 13.846 53.1241 13.7398C53.1838 13.6032 53.1689 13.4514 53.1241 13.3148V13.2996Z" fill="#553A12"/>
  <path d="M58.245 11.782C58.1704 11.4936 58.036 11.1597 57.7225 11.1294C57.5732 11.1142 57.4089 11.1749 57.3194 11.2963C57.2895 11.3267 57.2746 11.3722 57.2596 11.4177C57.2447 11.4481 57.2298 11.4784 57.2149 11.5088C57.1402 11.7061 57.1402 11.9185 57.2149 12.1158C57.2447 12.2828 57.3044 12.4345 57.4537 12.5408C57.5881 12.6318 57.7971 12.6622 57.9315 12.5711C57.9614 12.5408 57.9912 12.5104 58.0211 12.4801C58.1107 12.4194 58.2002 12.3283 58.2301 12.2372C58.2898 12.1007 58.2749 11.9337 58.2301 11.7971L58.245 11.782Z" fill="#553A12"/>
  <path d="M54.6918 15.2118C54.6918 14.9387 54.7216 14.6807 54.7216 14.4075C54.7216 13.846 54.647 13.2844 54.5275 12.7381C54.4081 12.2069 54.2439 11.6606 53.8557 11.2812C53.781 11.2053 54.0348 11.1142 54.1095 11.1749C54.438 11.5088 54.6022 11.9641 54.7366 12.4194C54.8859 12.9354 54.9605 13.4817 54.9904 14.0129C54.9904 14.2557 54.9904 14.5137 54.9904 14.7566C54.9904 14.9842 54.9306 15.227 54.9904 15.4395C55.065 15.743 55.3039 15.7582 55.5577 15.7734C55.8264 15.8037 56.0952 15.8189 56.3639 15.8493C56.5431 15.8493 56.3639 16.0162 56.2594 16.0162C55.9757 16.001 55.6921 15.9707 55.4084 15.9403C55.2143 15.9251 54.9754 15.91 54.8261 15.7582C54.6918 15.6216 54.6768 15.4091 54.6768 15.2118H54.6918Z" fill="#E6C1A0"/>
  <path d="M57.9763 16.5474C57.8717 16.517 57.7672 16.5018 57.7374 16.517C57.4089 16.6081 57.1402 16.8509 56.8416 17.0178C56.4236 17.2606 55.9458 17.3517 55.468 17.3214C55.3337 17.3214 55.1694 17.291 55.0799 17.4124C54.841 17.7311 55.5427 18.065 55.7666 18.1409C56.2145 18.2926 56.7371 18.2623 57.1551 18.065C57.4686 17.9132 57.7374 17.6704 57.9165 17.3821C58.0211 17.2303 58.0808 17.0482 58.1405 16.8812C58.2151 16.6688 58.1853 16.6384 57.9613 16.5777L57.9763 16.5474Z" fill="#E9B8A2"/>
  <path d="M56.3191 6.62198C55.7667 6.59163 55.2143 6.51575 54.7365 6.19704C54.2886 5.90869 53.9602 5.4534 53.6466 5.01328C53.6019 4.95258 53.5272 4.95258 53.4675 4.95258C53.4376 4.95258 53.3331 4.9981 53.363 5.05881C53.7064 5.52928 54.0647 6.01492 54.5574 6.31845C55.0799 6.65233 55.707 6.72821 56.3191 6.77374C56.3639 6.77374 56.4684 6.75857 56.4684 6.69786C56.4684 6.63716 56.3639 6.62198 56.3191 6.62198V6.62198Z" fill="#412409"/>
  <path d="M57.7822 5.59003C57.7822 5.59003 57.6329 5.5445 57.5881 5.55968C56.9611 5.78732 56.2295 5.69626 55.692 5.2865C55.6323 5.24097 55.5577 5.24097 55.498 5.25615C55.4532 5.25615 55.3934 5.31685 55.4532 5.36238C56.1101 5.84803 56.9909 5.96944 57.7524 5.69626C57.7972 5.68109 57.8419 5.63556 57.7972 5.59003H57.7822Z" fill="#412409"/>
  <path d="M61.9924 2.76721C61.6789 2.34227 61.2459 1.90216 60.6786 1.99322C60.6338 1.99322 60.5592 2.03875 60.5741 2.09945C60.6039 2.16016 60.7085 2.16016 60.7532 2.16016C60.9772 2.1298 61.1713 2.26639 61.3355 2.40298C61.5147 2.55474 61.664 2.75204 61.7983 2.94933C62.082 3.34392 62.3059 3.78403 62.3059 4.28485C62.3059 4.39109 62.5896 4.39109 62.5896 4.28485C62.5896 3.72333 62.3209 3.22251 61.9775 2.78239L61.9924 2.76721Z" fill="#412409"/>
  <path d="M63.2464 23.7713C62.8732 24.1963 62.4552 24.5757 62.0371 24.9551C61.6042 25.3345 61.1264 25.6988 60.7233 26.1085C60.2605 26.5638 60.0664 27.2619 59.8126 27.8386C59.514 28.5367 59.2005 29.2349 58.9019 29.9481C59.4095 29.9481 59.8424 29.5991 60.1858 29.2197C60.574 28.8099 60.9024 28.3698 61.201 27.8993C61.425 27.5199 61.8281 27.2164 62.2909 27.3985C62.694 27.5654 62.8433 28.0663 63.1569 28.3698C63.2016 28.4153 63.2614 28.4609 63.3211 28.476C63.4256 28.4912 63.5152 28.4305 63.5898 28.3698C64.0079 28.0511 64.3811 27.6869 64.7394 27.3226C66.098 25.9416 67.3223 24.4391 68.4271 22.8456C68.6062 22.5724 68.9496 22.193 68.9944 21.8591C69.0392 21.5556 68.651 21.3431 68.4122 21.1914C67.8747 20.8271 67.3223 20.4477 66.7848 20.0835C66.6355 19.9772 66.4713 19.871 66.3071 19.8255C66.0682 19.7648 65.9189 19.9165 65.7696 20.0987C65.2172 20.812 64.6498 21.5404 64.187 22.3144C64.0079 22.6331 63.8287 22.967 63.6346 23.2705C63.5152 23.4526 63.3808 23.6348 63.2315 23.7865L63.2464 23.7713Z" fill="#DFEDE5"/>
  <path d="M68.8152 22.0261C68.1135 22.9367 67.3969 23.8321 66.6952 24.7426C66.3518 25.1828 65.9935 25.6381 65.6501 26.0782C65.3067 26.5183 64.9633 26.9736 64.5901 27.3682C64.2318 27.7628 63.8287 28.0966 63.3957 28.4002C63.0374 28.0056 62.6492 27.5958 62.2461 27.2468C62.0371 27.0798 61.8132 26.9281 61.5593 26.8218C61.2757 26.7004 60.9771 26.6093 60.6934 26.5031C60.6337 26.4879 60.5441 26.4879 60.4993 26.5335C60.4545 26.579 60.4993 26.6245 60.5441 26.6397C60.8129 26.7308 61.0965 26.8218 61.3653 26.9432C61.6191 27.0495 61.8281 27.2012 62.0371 27.3833C62.4701 27.7476 62.8582 28.1725 63.2315 28.5823C63.2613 28.6126 63.336 28.6278 63.4106 28.6126C63.4405 28.6126 63.4853 28.6126 63.5002 28.5975C63.9183 28.3091 64.3214 27.9904 64.6797 27.6262C65.0679 27.2316 65.3963 26.8066 65.7397 26.3665C66.4414 25.4559 67.158 24.5605 67.8597 23.6499C68.2628 23.134 68.6659 22.618 69.0691 22.1171C69.1586 22.0109 68.8899 21.9502 68.8152 22.0412V22.0261Z" fill="#63848F"/>
  <path d="M58.1704 27.4441C58.1704 27.5351 58.1704 27.6262 58.2002 27.7324C58.3197 28.5823 58.5585 29.4322 58.887 30.2213C58.6481 30.2213 58.454 30.024 58.3047 29.8267C57.7374 29.0831 57.5135 28.1422 57.2596 27.2316C57.2298 27.1102 57.185 26.9736 57.0805 26.8977C56.8118 26.7156 56.11 27.6413 55.9309 27.8386C55.5427 28.2484 55.1247 28.6733 54.5723 28.8555C54.3931 28.9162 54.0049 26.2148 53.9751 25.9568C53.8258 24.8944 53.781 23.8169 53.8109 22.7394C53.8109 22.6787 53.8109 22.6028 53.8407 22.5421C53.8706 22.4965 53.9154 22.451 53.9452 22.4207C54.3931 22.0564 54.841 21.7529 55.3934 21.6011C55.5427 21.5556 55.7069 21.5404 55.8264 21.6011C55.9608 21.677 56.0205 21.844 56.0653 21.9957C56.2892 22.709 56.543 23.4223 56.8416 24.1052C57.0805 24.6668 57.3194 25.2131 57.7374 25.6836C58.2152 26.2148 58.1256 26.8218 58.1554 27.4441H58.1704Z" fill="#DFEDE5"/>
  <path d="M57.827 26.3362C57.827 26.3362 57.6926 26.2755 57.6478 26.2755C57.0207 26.3514 56.5729 26.8826 56.1548 27.2923C55.6771 27.7476 55.2142 28.2029 54.7365 28.643C54.4528 27.262 54.1542 25.8657 54.0945 24.4543C54.0796 24.0446 54.0796 23.6196 54.0945 23.2099C54.0945 23.1036 53.8108 23.1036 53.8108 23.2099C53.7213 24.6668 53.9452 26.1086 54.2139 27.5351C54.2886 27.9449 54.3782 28.3547 54.4677 28.7644C54.4677 28.81 54.5275 28.8251 54.5723 28.8403C54.5723 28.8707 54.617 28.8858 54.6469 28.901C54.7066 28.9162 54.7962 28.9162 54.841 28.8707L56.319 27.4593C56.543 27.2468 56.7669 27.0191 57.0058 26.8218C57.2148 26.6397 57.4537 26.4728 57.7224 26.4424C57.7672 26.4424 57.8419 26.3969 57.827 26.3362V26.3362Z" fill="#63848F"/>
  <path d="M0.824829 95.0397C2.94487 96.0414 5.27392 96.4511 7.58805 96.7699C9.12582 96.9671 9.34977 97.0127 9.54385 95.4343C9.70808 94.0381 9.7678 92.6267 9.82752 91.2305C9.99175 87.7095 10.156 84.1886 10.3202 80.6525C10.5442 75.6898 10.783 70.7271 10.7382 65.7645C10.7084 61.7427 10.4546 57.5844 8.63313 54.0179C8.0658 52.8949 7.39396 52.9556 7.09536 53.942C6.73704 55.1258 6.67733 56.689 6.40859 57.9486C5.79647 60.9384 5.2142 63.9281 4.67673 66.9179C3.61671 72.8215 2.72092 78.7706 1.97443 84.7198C1.54146 88.1497 1.16822 91.5947 0.839759 95.0397H0.824829Z" fill="#67762E"/>
  <path d="M8.49876 39.1754C6.319 47.7653 5.67702 56.9773 5.13955 65.8404C4.55728 75.2194 4.45277 84.6894 5.03504 94.0685C7.73734 94.5541 10.3053 95.2067 13.127 95.4647C16.6355 95.7834 20.159 96.0262 23.6675 96.178C22.5328 77.6476 22.07 59.0717 22.2939 40.4958C22.3387 36.6713 22.5029 31.7086 19.8454 28.6278C16.74 25.031 12.9329 30.0848 11.2309 32.7254C9.96188 34.6984 9.08102 36.899 8.49876 39.1754V39.1754Z" fill="#67762E"/>
  <path d="M33.8347 21.1155C34.7006 20.5236 35.4919 19.8255 36.1936 19.0363C36.5221 18.6721 36.7759 18.2168 37.1193 17.8526C37.5373 17.4124 37.9404 16.9723 38.3137 16.4867C38.6272 16.0769 38.8213 15.6368 39.1497 15.227C39.3587 14.969 39.5678 14.7262 39.732 14.4379C40.1202 13.7398 40.1351 12.8899 40.1202 12.0855C40.1202 11.1749 40.0754 10.2644 39.8514 9.38413C39.3886 7.45672 37.3731 5.75697 35.7009 4.92227C35.3576 4.74015 34.9843 4.58839 34.6111 4.49733C33.8496 4.31521 33.0434 4.37592 32.2671 4.43662C29.6693 4.64909 26.9371 5.83285 25.8622 8.41284C25.2799 9.80907 25.2053 11.3722 25.474 12.8747C25.7427 14.362 26.325 15.7734 27.0118 17.1089C27.0715 17.2151 27.1163 17.3214 27.1312 17.4428C27.1312 17.5794 27.0864 17.7008 27.0267 17.8222C26.2503 19.5371 25.2351 21.1914 25.0709 23.0732C25.0261 23.5741 25.041 24.0901 25.2799 24.5302C25.4143 24.7882 25.6233 24.9855 25.8472 25.1676C26.2056 25.4559 26.6087 25.6988 27.0566 25.7595C29.0124 26.063 28.2957 23.1947 29.9082 22.9215C31.3116 22.6787 32.6702 21.9502 33.8496 21.1155H33.8347Z" fill="#B36332"/>
  <path d="M43.4346 74.0659C43.8228 75.3256 43.9273 76.6915 44.0168 77.9814C44.2408 81.1533 44.3453 84.3252 44.3304 87.4971C44.3304 90.4868 43.778 93.431 43.2853 96.3752C42.1954 102.765 40.9264 109.108 39.4782 115.422C39.2393 116.469 38.9855 117.531 38.4181 118.442C37.2835 120.217 34.8798 121.022 32.924 120.278C32.3865 120.066 31.849 119.732 31.5952 119.201C31.4161 118.821 31.3862 118.366 31.3713 117.941C31.2518 113.95 31.5056 109.943 31.4907 105.952C31.4907 98.5606 30.5949 91.2001 29.505 83.9002C28.9825 80.44 27.7732 76.9343 28.2957 73.3982C28.5495 71.6529 29.3408 69.9228 30.7591 68.8908C31.8789 68.0864 33.2674 67.7981 34.626 67.6919C35.6412 67.6008 36.7012 67.616 37.6717 67.965C38.657 68.3141 39.4931 68.9818 40.2694 69.6951C41.3295 70.6816 42.4791 71.8198 43.0912 73.1554C43.2256 73.4437 43.3301 73.7321 43.4196 74.0356L43.4346 74.0659Z" fill="#FCD9BA"/>
  <path d="M40.1948 114.648C40.3142 115.513 40.2993 116.408 40.2993 117.273C40.2246 126.394 39.299 135.485 37.8209 144.469C37.2685 147.793 36.6415 151.117 35.9248 154.41C35.8651 154.683 35.8054 154.956 35.6412 155.169C35.2679 155.654 34.1631 155.229 33.6107 155.229C32.7149 155.214 31.9087 155.669 31.8191 154.44C31.3563 147.11 30.8188 139.81 30.3112 132.495C29.9977 128.018 29.6095 123.556 30.1321 119.079C30.565 115.422 31.9983 110.732 36.4175 110.459C37.8657 110.368 39.1795 111.536 39.7469 112.902C39.9858 113.464 40.1201 114.056 40.1948 114.648Z" fill="#FCD9BA"/>
  <path d="M37.4626 164.183C37.3282 164.532 36.9401 164.806 36.6713 165.033C36.313 165.367 35.9398 165.686 35.5665 166.005C35.4769 166.08 35.3874 166.156 35.2679 166.172C35.1783 166.172 35.0888 166.172 34.9992 166.141C34.193 165.914 33.4017 165.686 32.5955 165.458C31.5056 165.155 30.9233 164.624 30.9831 163.44C30.998 163.182 31.0129 162.924 31.0278 162.651C31.1174 161.209 31.207 159.752 31.2966 158.31C31.4011 156.823 31.5056 155.32 31.9236 153.894C32.2969 152.589 33.0583 152.3 34.2975 152.042C34.4766 152.012 34.6558 151.966 34.835 151.997C35.0141 152.027 35.1783 152.118 35.3127 152.224C35.88 152.665 36.0592 153.363 35.9398 154.046C35.7905 154.941 35.9099 155.897 36.0592 156.793C36.104 157.051 36.1488 157.293 36.2085 157.551C36.5519 159.206 37.0894 160.829 37.4029 162.499C37.4029 162.514 37.4029 162.544 37.4029 162.56C37.4925 163.045 37.6119 163.683 37.4328 164.153L37.4626 164.183Z" fill="#FCD9BA"/>
  <path d="M37.4626 164.183C37.3282 164.533 36.9401 164.806 36.6713 165.033C36.313 165.367 35.9398 165.686 35.5665 166.005C35.4769 166.08 35.3874 166.156 35.2679 166.172C35.1783 166.172 35.0888 166.172 34.9992 166.141C34.193 165.914 33.4017 165.686 32.5955 165.458C31.5056 165.155 30.9233 164.624 30.9831 163.44C30.998 163.182 31.0129 162.924 31.0278 162.651C31.5355 162.681 32.0879 162.878 32.4014 162.969C33.0732 163.167 33.76 163.303 34.4468 163.334C34.8051 163.334 35.1634 163.318 35.5068 163.243C36.1786 163.106 36.7908 162.802 37.4178 162.56C37.5074 163.045 37.6268 163.683 37.4477 164.153L37.4626 164.183Z" fill="#B14B4D"/>
  <path d="M36.1189 153.59C36.2981 153.59 36.4474 153.636 36.5519 153.757C36.7609 154.015 36.6265 154.577 36.4772 154.82C36.1488 155.351 35.1783 155.26 34.6409 155.26C33.8346 155.26 33.0434 155.184 32.2521 155.032C31.8788 154.956 31.5952 155.032 31.4608 154.637C31.3563 154.364 31.4309 153.97 31.4608 153.681C31.4907 153.105 32.7448 153.53 33.118 153.575C33.9093 153.651 34.7155 153.666 35.5217 153.636C35.6859 153.636 35.9248 153.575 36.1338 153.59H36.1189Z" fill="#B14B4D"/>
  <path d="M25.2053 158.295C25.1157 158.932 24.9216 159.539 24.5633 160.071C24.0706 160.799 23.7272 161.679 23.3391 162.484C23.4436 162.271 23.2495 161.634 23.2345 161.391C23.2047 161.012 23.1898 160.632 23.1898 160.238C23.1898 159.464 23.2345 158.674 23.3391 157.916C23.5033 156.777 23.6078 155.427 24.6529 154.744C24.6977 154.713 24.7425 154.683 24.8022 154.698C24.8768 154.698 24.9067 154.774 24.9365 154.85C25.3695 155.791 25.3546 156.868 25.265 157.9C25.265 158.037 25.2351 158.174 25.2202 158.31L25.2053 158.295Z" fill="#FFF4E4"/>
  <path d="M29.938 73.8838C29.7439 72.7152 29.52 71.5315 28.9377 70.5147C26.6534 66.5688 19.8604 66.6143 17.591 70.4843C15.9637 73.2464 16.322 76.8736 16.2921 80.1669C16.1876 89.1968 17.9045 97.6349 20.144 106.331C21.0846 110.019 22.0401 113.707 22.9807 117.395C23.2196 118.351 23.5032 119.352 24.2348 120.005C24.9813 120.673 26.0264 120.809 27.0118 120.84C28.654 120.885 30.4158 120.627 31.64 119.519C33.1628 118.138 33.4614 115.862 33.5659 113.798C34.1631 100.534 32.1924 86.9507 29.9529 73.899L29.938 73.8838Z" fill="#FCD9BA"/>
  <path d="M22.3984 120.916C22.1446 121.796 21.9057 122.676 21.7117 123.571C20.9652 127.047 20.6815 130.613 20.4426 134.149C20.1291 138.642 19.8454 143.149 20.0395 147.641C20.1291 149.735 20.5919 151.906 20.5621 153.985C20.5322 155.503 20.4277 157.187 22.07 157.9C23.2644 158.416 24.1452 157.642 24.399 156.489C25.1007 153.211 25.8024 149.918 26.5041 146.639C27.6687 141.176 28.8332 135.712 30.2665 130.325C30.9682 127.669 31.9685 125.059 32.6254 122.403C32.8642 121.401 32.909 120.384 33.1628 119.368C33.4913 118.062 33.8048 116.742 33.8048 115.391C33.8048 114.329 33.4764 113.1 32.5059 112.705C30.9084 112.037 30.2366 110.535 28.1166 110.884C26.5788 111.142 24.9813 112.508 24.5483 114.056C23.9063 116.363 23.0852 118.609 22.4134 120.9L22.3984 120.916Z" fill="#FCD9BA"/>
  <path d="M17.3522 163.576C17.4268 163.941 17.7702 164.275 17.9942 164.548C18.3077 164.927 18.6063 165.307 18.9198 165.701C18.9945 165.792 19.0691 165.883 19.1885 165.914C19.2781 165.944 19.3677 165.929 19.4573 165.914C20.2784 165.823 21.1145 165.731 21.9356 165.656C23.0554 165.534 23.7272 165.124 23.8467 163.941C23.8765 163.683 23.9064 163.425 23.9362 163.167C24.0855 161.725 24.2348 160.283 24.3841 158.841C24.5334 157.369 24.6678 155.867 24.4886 154.38C24.3244 153.029 23.6227 152.619 22.4432 152.164C22.279 152.103 22.0999 152.027 21.9207 152.027C21.7415 152.027 21.5624 152.088 21.4131 152.164C20.786 152.498 20.4874 153.165 20.4874 153.848C20.4874 154.759 20.2187 155.685 19.9201 156.535C19.8305 156.777 19.7409 157.02 19.6514 157.248C19.0392 158.826 18.248 160.329 17.6657 161.922V161.983C17.4716 162.453 17.2477 163.06 17.3522 163.546V163.576Z" fill="#FCD9BA"/>
  <path d="M17.3522 163.576C17.4268 163.941 17.7702 164.274 17.9942 164.548C18.3077 164.927 18.6063 165.306 18.9198 165.701C18.9945 165.792 19.0691 165.883 19.1885 165.914C19.2781 165.944 19.3677 165.929 19.4573 165.914C20.2784 165.822 21.1145 165.731 21.9356 165.656C23.0554 165.534 23.7272 165.124 23.8467 163.941C23.8765 163.683 23.9064 163.425 23.9362 163.167C23.4286 163.121 22.8613 163.212 22.5328 163.258C21.8461 163.334 21.1294 163.364 20.4576 163.258C20.0993 163.212 19.7559 163.121 19.4274 162.984C18.8004 162.742 18.233 162.332 17.6508 161.983C17.4865 162.453 17.2626 163.06 17.3522 163.546V163.576Z" fill="#B14B4D"/>
  <path d="M20.6069 152.938C20.4427 152.907 20.2635 152.938 20.1441 153.029C19.8903 153.241 19.9351 153.833 20.0545 154.091C20.2934 154.668 21.2638 154.744 21.8013 154.85C22.5926 154.987 23.3988 155.047 24.1901 155.032C24.5782 155.032 24.847 155.123 25.0411 154.774C25.1904 154.516 25.1754 154.121 25.2053 153.833C25.265 153.272 23.9661 153.469 23.5929 153.439C22.7867 153.378 21.9954 153.256 21.219 153.089C21.0548 153.059 20.8308 152.968 20.6218 152.938H20.6069Z" fill="#B14B4D"/>
  <path d="M33.5958 106.817C33.4017 103.994 33.1927 101.186 32.9986 98.3634C32.7746 95.2067 32.5507 92.05 32.3268 88.9085C32.3268 88.8022 32.0282 88.8022 32.0431 88.9085C32.4462 94.5086 32.8493 100.109 33.2524 105.724C33.4465 108.532 33.6406 111.339 33.4465 114.162C33.2524 116.894 32.7896 119.61 32.267 122.297C31.6698 125.362 30.9681 128.397 30.1619 131.402C30.1321 131.524 30.4157 131.539 30.4456 131.448C31.1622 128.792 31.7893 126.121 32.3417 123.435C32.8941 120.718 33.4017 117.986 33.6555 115.224C33.9242 112.417 33.8197 109.624 33.6256 106.817H33.5958Z" fill="#E6C1A0"/>
  <path d="M39.7618 60.9991C36.328 61.4999 32.8493 61.7579 29.3856 61.7883C27.9523 61.7883 26.5937 61.8338 25.1754 61.9856C24.1751 62.0918 22.697 62.3346 21.8908 61.4847C19.8454 59.36 19.0542 56.173 18.3525 53.1529C17.2327 48.2661 16.0981 43.3945 14.9783 38.5077C14.4856 36.3981 14.0079 34.2279 14.2766 32.0729C14.5603 29.7964 15.7248 28.036 17.6358 27.2316C19.6215 26.3969 21.7565 26.5031 23.7421 25.7291C24.623 25.3801 25.4292 24.8186 26.3399 24.515C27.4149 24.166 28.5495 24.1811 29.6543 24.1963C30.4307 24.1963 31.2071 24.2267 31.9535 24.4088C32.8643 24.6364 33.7153 25.0917 34.5961 25.456C35.6561 25.8961 36.7609 26.1844 37.8807 26.321C39.6573 26.5335 41.6729 26.4424 42.9568 27.8083C44.3154 29.2349 44.0019 31.6024 43.8974 33.4995C43.6436 37.5971 43.6735 41.7402 43.3151 45.8682C42.9419 50.2087 42.4044 54.5339 41.7326 58.8289C41.6281 59.527 41.4639 60.3162 40.9114 60.6804C40.6576 60.8473 40.3441 60.908 40.0455 60.9536C39.9709 60.9536 39.8813 60.9839 39.8066 60.9839L39.7618 60.9991Z" fill="#FCD9BA"/>
  <path d="M36.0144 20.3112C36.0144 20.4326 35.9846 20.5388 35.9696 20.6451C35.9547 20.7665 35.9398 20.8879 35.9249 21.0093C35.8203 21.753 35.6561 22.4966 35.4919 23.2251C35.462 23.3617 35.4322 23.4982 35.4023 23.6348C35.253 24.3178 35.1186 24.9855 35.0291 25.6685C34.9096 26.5032 34.8798 27.3379 34.9693 28.1877C34.9693 28.2788 34.9843 28.3699 34.9395 28.4457C34.7155 28.8403 33.0135 28.5823 32.6104 28.5065C31.5206 28.3092 30.4307 28.0815 29.3557 27.8387C28.6839 27.6869 28.012 27.5352 27.3402 27.3834C26.967 27.2923 25.8621 27.2165 25.7278 26.8674C25.5785 26.488 26.0562 25.3194 26.1458 24.9096C26.2951 24.2267 26.4444 23.5286 26.5937 22.8457C26.8923 21.4646 27.2058 20.0836 27.5044 18.7025C27.7732 17.4732 28.4898 17.9437 29.3707 18.0347L33.7003 18.5507C34.8648 18.6873 36.1488 18.6721 35.9995 20.296L36.0144 20.3112Z" fill="#FCD9BA"/>
  <path d="M35.9697 20.6451C35.9547 20.7665 35.9398 20.8879 35.9249 21.0093C35.8204 21.753 35.6561 22.4966 35.4919 23.2251C34.7604 24.0598 33.5958 24.6213 32.6254 24.7276C31.1473 24.8793 29.6991 24.0446 28.9079 22.785C28.6988 22.4511 28.4749 21.9806 28.3256 21.5102C28.2062 21.1156 28.1614 20.7058 28.236 20.3719C28.3853 19.689 29.1766 19.5069 29.7439 19.3096C30.5501 19.0212 31.4758 19.0364 32.3119 19.173C33.2674 19.3248 34.1781 19.6435 35.0888 19.9622C35.3277 20.0532 35.5815 20.1291 35.7607 20.3112C35.8502 20.4023 35.9249 20.5237 35.9846 20.6451H35.9697Z" fill="#E6C1A0"/>
  <path d="M27.2804 18.2927C27.6537 19.7648 28.2957 21.1914 29.296 22.3448C30.3112 23.4982 32.3864 24.3481 33.8944 23.6955C34.9544 23.225 35.8054 22.618 36.5071 21.6467C36.746 21.3128 36.955 20.9486 37.164 20.5843C38.1942 18.7632 38.7316 16.9724 39.1646 14.9235C39.5229 13.1934 39.3736 11.7668 38.433 10.2644C37.6567 9.01992 36.731 7.7451 35.4023 7.15322C34.7901 6.88005 34.1183 6.78899 33.4614 6.72828C32.8343 6.66758 32.1924 6.6524 31.5952 6.80417C31.0278 6.95593 30.5053 7.24428 30.0126 7.56299C29.2064 8.09416 28.4748 8.76192 27.9374 9.56627C27.1013 10.8411 27.0714 12.2677 26.9221 13.7246C26.7579 15.2574 26.9072 16.7902 27.2804 18.2927Z" fill="#FCD9BA"/>
  <path d="M36.6415 9.44484C36.9998 9.70284 37.3133 9.99119 37.5373 10.3099C37.8807 10.7804 38.1793 11.2812 38.3584 11.8275C38.7914 13.1631 38.672 14.7566 38.7018 16.1376C38.8213 16.1832 38.9407 16.0466 39.0004 15.9252C40.0007 13.7853 39.9858 11.1446 39.0004 8.98955C38.7615 8.47355 38.4629 8.32178 38.03 8.01826C37.5671 7.68438 37.1192 7.36567 36.6266 7.07732C35.9995 6.71309 35.3575 6.33368 34.6708 6.12121C34.0138 5.92391 33.3121 5.87838 32.6254 5.83285C31.9535 5.78733 31.2667 5.75697 30.6397 5.98462C29.8036 6.30332 29.2363 7.03179 28.7436 7.76026C28.5197 8.10932 28.2061 8.29143 27.9673 8.62531C27.7881 8.88331 27.6985 9.18684 27.5492 9.46001C27.3999 9.74837 27.161 9.96084 26.9819 10.234C26.1757 11.4178 25.6681 12.7988 25.5188 14.2254C25.4889 14.5896 25.3247 15.1663 25.5188 15.5002C25.9517 16.1528 26.2354 15.0298 26.3847 14.7718C26.9968 13.7246 27.9374 12.9202 28.7436 12.04C29.6245 11.0687 30.4605 10.0215 31.222 8.94402C31.2966 8.83778 31.3713 8.74672 31.4758 8.68602C31.5653 8.64049 31.6699 8.64049 31.7744 8.64049C32.6254 8.64049 33.4764 8.64049 34.3274 8.64049C35.0589 8.64049 35.9099 8.97437 36.5967 9.46001L36.6415 9.44484Z" fill="#B36332"/>
  <path d="M27.2954 14.0737C27.2954 14.0737 27.176 13.9522 27.1162 13.9067C26.8624 13.7246 26.5489 13.6184 26.2354 13.6791C25.7576 13.7701 25.4292 14.2406 25.3247 14.7262C25.1007 15.8038 25.5934 17.0938 26.3548 17.8374C26.6385 18.1258 27.0565 18.3686 27.4298 18.2016C27.6985 18.0802 27.8329 17.7919 27.8926 17.5035C28.0867 16.6081 28.0568 15.5002 27.6836 14.6504C27.594 14.4379 27.4596 14.2406 27.3103 14.0737H27.2954Z" fill="#FCD9BA"/>
  <path d="M34.2527 15.0904C34.2527 15.0904 34.2378 15.0904 34.2229 15.0904C33.984 15.0904 33.984 15.7127 33.984 15.8644C33.984 16.1983 33.9989 16.5322 34.0736 16.8509C34.1631 17.2607 34.3423 17.6401 34.4319 18.0498C34.5513 18.5507 33.9243 18.7783 33.5361 18.8542C33.3271 18.8997 33.4764 19.0515 33.6257 19.0211C33.984 18.9452 34.4468 18.7935 34.6708 18.4748C34.7753 18.3078 34.7603 18.1257 34.7155 17.9436C34.6409 17.716 34.5513 17.4883 34.4916 17.2607C34.3871 16.9268 34.3124 16.5777 34.2975 16.2135C34.2975 16.0314 34.2975 15.8493 34.2975 15.6671C34.3124 15.5154 34.402 15.2877 34.3274 15.1511C34.3124 15.1208 34.2676 15.0904 34.2378 15.0753L34.2527 15.0904Z" fill="#E6C1A0"/>
  <path d="M38.1195 15.2271C38.1195 15.2271 38.1345 15.2574 38.1494 15.2726C38.1643 15.2878 38.224 15.394 38.2539 15.3636C38.2838 15.3485 38.2838 15.3029 38.2838 15.2726C38.2688 15.0753 38.1793 14.9084 38.0897 14.7566C37.8807 14.4075 37.6418 14.1344 37.3133 13.9371C36.9102 13.6942 36.4773 13.5577 36.0294 13.4514C35.7905 13.3907 35.253 13.2693 35.2978 13.7398C35.2978 13.8915 35.462 13.9826 35.5964 14.0281C35.7606 14.0888 35.9398 14.1192 36.1189 14.1344C36.3727 14.1495 36.6266 14.1344 36.8654 14.1951C37.1192 14.2558 37.3432 14.3924 37.5373 14.5441C37.7015 14.6807 37.8359 14.8325 37.9702 14.9994C38.03 15.0753 38.0748 15.1512 38.1345 15.2271H38.1195Z" fill="#B36332"/>
  <path d="M29.1318 13.9371C29.2512 13.5729 29.9081 13.2693 30.2366 13.1327C30.9383 12.8292 31.7445 12.7533 32.4761 12.9658C32.7597 13.0417 33.0285 13.3907 32.6701 13.6032C32.5656 13.6639 32.4462 13.6791 32.3268 13.6791C32.0431 13.6791 31.7594 13.6791 31.4907 13.6032C31.1174 13.5273 30.7293 13.3907 30.356 13.4514C30.1171 13.497 29.9081 13.6032 29.714 13.7094C29.5647 13.7853 29.3109 13.9826 29.1467 13.9371H29.1318Z" fill="#B36332"/>
  <path d="M31.9236 14.6655C31.8341 14.5441 31.6698 14.5441 31.5504 14.5897C31.431 14.6048 31.3264 14.6807 31.2667 14.7718C31.1622 14.9084 31.1174 15.0753 31.1174 15.2422C31.1174 15.394 31.1473 15.5458 31.2219 15.6824C31.3115 15.8341 31.4907 15.8797 31.6549 15.8493C31.6549 15.8493 31.6549 15.8493 31.6848 15.8493C31.7146 15.8493 31.7296 15.8341 31.7594 15.819C31.7743 15.819 31.7893 15.819 31.8042 15.8038C31.8341 15.7886 31.8639 15.7734 31.8938 15.7431C32.0281 15.6217 32.0729 15.4244 32.0879 15.2422C32.0879 15.136 32.0879 15.0298 32.0431 14.9235C32.0282 14.8325 31.9834 14.7414 31.9386 14.6807L31.9236 14.6655Z" fill="#1A8B93"/>
  <path d="M36.9401 15.4395C36.8654 15.3181 36.7012 15.2877 36.5668 15.3333C36.4474 15.3333 36.3429 15.394 36.2533 15.4699C36.1339 15.5913 36.0741 15.7582 36.0592 15.91C36.0443 16.0617 36.0592 16.2135 36.1189 16.3653C36.1936 16.5322 36.3578 16.5929 36.522 16.5777C36.522 16.5777 36.537 16.5777 36.5519 16.5777C36.5818 16.5777 36.5967 16.5777 36.6266 16.5626C36.6415 16.5626 36.6564 16.5626 36.6713 16.5474C36.7012 16.5474 36.746 16.517 36.7758 16.5019C36.9251 16.3956 36.9998 16.1983 37.0297 16.0314C37.0297 15.9251 37.0297 15.8189 37.0297 15.7127C37.0297 15.6216 36.9998 15.5306 36.955 15.4547L36.9401 15.4395Z" fill="#1A8B93"/>
  <path d="M34.2677 19.8407C34.1632 19.8255 34.0288 19.8407 33.8944 19.8862C33.566 19.9924 33.1927 19.9924 32.8792 19.8558C32.6552 19.7648 32.4612 19.613 32.2372 19.5523C31.8341 19.4461 31.4907 19.7193 31.7296 20.129C32.2074 20.9486 33.6854 21.1003 34.3274 20.4477C34.6409 20.129 34.5364 19.9014 34.2826 19.8558L34.2677 19.8407Z" fill="#E9B8A2"/>
  <path d="M23.6974 87.4971C24.7873 87.8765 25.8771 88.2559 26.967 88.6353C27.9673 88.9844 28.7735 88.9995 29.8186 89.0299C32.1178 89.1058 34.4021 88.954 36.7013 88.954C38.672 88.954 40.6427 89.0147 42.6135 88.954C43.3003 88.9388 44.002 88.9085 44.7186 88.954C44.6738 88.6808 44.6439 88.4228 44.629 88.2407C44.4797 85.4938 44.3453 82.7469 44.196 79.9999C43.8676 73.6107 42.8673 67.2214 42.4045 60.817C42.2253 58.4646 42.0909 56.1123 41.5983 53.8055C41.3444 52.5762 39.2095 53.1984 38.254 53.2136C36.7311 53.2439 35.2232 53.2895 33.7004 53.3502C32.1029 53.4109 30.5054 53.4716 28.9228 53.6841C28.3704 53.7599 27.818 53.851 27.2656 53.9572C25.8323 54.2608 24.4289 54.7161 23.0255 55.1865C22.5329 55.3535 22.0252 55.5204 21.6072 55.8088C20.2187 56.7952 19.6365 58.8744 18.8452 60.3161C17.83 62.1677 17.1283 64.171 16.5758 66.2046C14.5305 73.8383 14.2468 81.9425 15.7547 89.7128C17.2626 89.5307 18.4869 89.6521 19.6962 88.5442C20.1889 88.089 20.6069 87.4971 21.234 87.2543C21.9954 86.9507 22.8315 87.2239 23.6078 87.4819C23.6377 87.4819 23.6526 87.4971 23.6825 87.5123L23.6974 87.4971Z" fill="#FFF4E4"/>
  <path d="M40.0754 35.5027C37.7463 35.4268 35.462 35.0019 33.1927 34.5314C30.9383 34.061 28.6242 33.5753 26.5041 32.6647C24.7125 31.9059 23.0852 30.8436 21.5773 29.5991C20.6516 28.8403 19.6215 27.8993 19.0989 26.7611C18.6062 26.8825 18.1136 27.0191 17.6209 27.2316C15.7099 28.0359 14.5453 29.8116 14.2617 32.0728C13.9929 34.2279 14.4856 36.3981 14.9634 38.5076C16.0831 43.3944 17.2178 48.2661 18.3375 53.1529C19.0392 56.173 19.8156 59.36 21.8759 61.4847C22.6821 62.3194 24.1601 62.0766 25.1604 61.9855C26.5788 61.8338 27.9374 61.8034 29.3707 61.7882C32.8344 61.7579 36.313 61.4999 39.7469 60.9991C39.8215 60.9991 39.9111 60.9687 39.9858 60.9687C40.2844 60.9232 40.5979 60.8777 40.8517 60.6955C41.4041 60.3313 41.5683 59.5421 41.6728 58.844C42.3596 54.5491 42.8822 50.2238 43.2554 45.8834C43.554 42.4535 43.5839 39.0085 43.7332 35.5938C42.5089 35.5482 41.2847 35.5482 40.0604 35.5027H40.0754Z" fill="#FFF4E4"/>
  <path d="M30.3859 61.9703C33.9542 61.4695 37.5224 60.9838 41.1055 60.483C41.9267 60.3616 41.6132 59.4055 41.6281 58.7833C41.658 57.8575 41.852 57.2201 40.7771 57.2049C34.6708 57.1442 28.5794 56.78 22.503 56.1122C21.2787 55.9756 20.0097 55.839 18.8302 56.1577C17.8449 56.4157 17.0088 57.0683 16.5758 58.0093C15.9786 59.2537 15.2471 61.5605 16.7848 62.4408C17.3372 62.7595 17.9792 62.8202 18.6063 62.8505C22.4731 63.063 26.3399 62.5318 30.1769 62.0007C30.2516 62.0007 30.3262 61.9855 30.4009 61.9703H30.3859Z" fill="#FCD9BA"/>
  <path d="M18.9198 28.1877C18.7854 27.8387 18.5316 27.3834 18.1434 27.2468C17.7403 27.1102 17.1581 27.3682 16.7699 27.52C15.3515 28.0512 14.2318 29.2956 13.5749 30.6463C12.9478 31.9211 12.6642 33.3477 12.6045 34.7743C12.5597 35.7152 12.6045 36.641 12.6343 37.5819C12.8583 43.2731 13.0822 48.9187 13.6495 54.5947C13.8436 56.5676 14.0527 58.5709 14.829 60.3921C15.1127 61.0598 15.5008 61.7428 16.0682 62.1981C16.6803 62.6837 17.6657 62.623 18.4122 62.6382C18.875 62.6382 19.3378 62.6533 19.7708 62.5016C20.4128 62.2588 20.8756 61.6821 21.1145 61.0295C21.4429 60.1492 21.2787 59.2538 21.1891 58.3281C21.0995 57.3568 20.995 56.3703 20.8905 55.399C20.6666 53.4716 20.3978 51.5594 20.1291 49.6472C19.7857 47.1582 19.4423 44.6541 19.0989 42.1652C18.8601 40.4047 18.6063 38.6291 18.6809 36.8383C18.7854 33.8941 20.0992 31.1016 18.9347 28.1877H18.9198Z" fill="#FCD9BA"/>
  <path d="M39.0303 10.6741C38.8661 9.99117 38.5974 9.30824 38.239 8.70118C38.0748 8.428 37.8658 8.15483 37.612 7.95754C37.3582 7.76024 37.0745 7.62366 36.7759 7.5326C36.1339 7.3353 35.4621 7.3353 34.8052 7.38083C33.9542 7.44154 33.1032 7.57813 32.282 7.82095C32.2372 7.82095 32.1925 7.88165 32.2372 7.92718C32.282 7.97271 32.3716 7.97271 32.4313 7.95754C33.133 7.76024 33.8497 7.62366 34.5663 7.56295C35.1933 7.50224 35.8503 7.48707 36.4624 7.62366C36.7461 7.68436 37.0297 7.80577 37.2686 7.97271C37.5224 8.15483 37.7314 8.39765 37.9106 8.65565C38.2689 9.21718 38.5227 9.85459 38.7019 10.492C38.9109 11.2508 39.0005 12.0248 38.9706 12.814C38.9706 12.9202 39.2543 12.9202 39.2543 12.814C39.2841 12.0855 39.1945 11.3722 39.0303 10.6741V10.6741Z" fill="#98491F"/>
  <path d="M34.0736 5.87835C33.342 5.72658 32.5657 5.89353 31.9685 6.34882C31.9088 6.39435 31.9685 6.43988 32.0133 6.45505C32.073 6.4854 32.1626 6.45505 32.2074 6.4247C32.715 6.03011 33.3719 5.89352 33.9989 6.03011C34.0437 6.03011 34.1482 6.03011 34.1781 5.96941C34.208 5.9087 34.1184 5.87835 34.0736 5.86317V5.87835Z" fill="#98491F"/>
  <path d="M29.4005 9.03504C28.9526 10.0215 28.2957 10.8714 27.4596 11.5391C27.3999 11.5847 27.4596 11.6302 27.5044 11.6454C27.5641 11.6606 27.6537 11.6454 27.6985 11.615C28.5346 10.9321 29.2214 10.0519 29.6693 9.06539C29.714 8.95915 29.4304 8.9288 29.3856 9.01986L29.4005 9.03504Z" fill="#98491F"/>
  <path d="M36.552 86.3892C34.7902 86.1767 33.0285 85.9491 31.2817 85.6456C29.5349 85.342 27.818 84.9474 26.1309 84.4011C25.1904 84.0824 24.2647 83.7182 23.3838 83.2932C23.3241 83.2629 23.2345 83.2629 23.1748 83.2932C23.13 83.3236 23.1151 83.3843 23.1748 83.3994C24.7872 84.1734 26.4743 84.735 28.2062 85.1751C29.953 85.6152 31.7147 85.9036 33.4913 86.1616C34.4916 86.2981 35.477 86.4196 36.4773 86.5561C36.537 86.5561 36.6266 86.5561 36.6565 86.4954C36.6863 86.4347 36.5968 86.4044 36.552 86.3892Z" fill="#C3B8A8"/>
  <path d="M32.715 81.9577C31.5505 81.8059 30.3859 81.5934 29.2513 81.2747C28.9228 81.1837 28.5943 81.0926 28.2808 80.9864C28.2211 80.9712 28.1315 80.9712 28.0867 81.0167C28.0419 81.0623 28.0867 81.1078 28.1315 81.123C29.2811 81.4872 30.4456 81.7604 31.64 81.9577C31.9685 82.0184 32.3119 82.0639 32.6403 82.1094C32.7 82.1094 32.7896 82.1094 32.8195 82.0487C32.8493 81.988 32.7598 81.9577 32.715 81.9425V81.9577Z" fill="#C3B8A8"/>
  <path d="M37.3134 66.9634C35.9995 67.0089 34.6857 66.9786 33.3719 66.8572C32.0581 66.7358 30.7592 66.5233 29.4752 66.235C28.7436 66.068 28.027 65.8707 27.3253 65.6582C27.2656 65.6431 27.176 65.6431 27.1312 65.6886C27.0864 65.7341 27.1312 65.7797 27.176 65.7948C28.445 66.1894 29.7439 66.4929 31.0578 66.7206C32.3716 66.9482 33.7004 67.0848 35.0291 67.1304C35.7905 67.1607 36.537 67.1607 37.2984 67.1304C37.3432 67.1304 37.4477 67.1152 37.4477 67.0545C37.4477 66.9938 37.3432 66.9786 37.2984 66.9786L37.3134 66.9634Z" fill="#C3B8A8"/>
  <path d="M19.9649 82.7468C19.9649 82.7468 19.8305 82.7013 19.7708 82.7165C18.5913 83.02 17.4567 83.4601 16.3668 84.0065C16.3071 84.0368 16.322 84.0975 16.3668 84.1127C16.4265 84.1431 16.5161 84.1431 16.5758 84.1127C17.6358 83.5664 18.7556 83.1414 19.9201 82.8379C19.9649 82.8379 20.0097 82.7772 19.9649 82.7317V82.7468Z" fill="#C3B8A8"/>
  <path d="M16.4563 51.9691C16.74 51.9236 17.6657 51.9388 17.7403 51.5897C17.8747 51.013 16.531 50.9826 16.2175 50.9675C15.9338 50.9675 15.4411 50.8309 15.5008 50.4363C15.5456 50.1631 15.889 50.0872 16.1577 50.0569C16.5011 50.0265 16.8595 50.0114 17.2028 50.0114C17.4268 50.0114 17.6657 50.0114 17.8896 50.0417C18.5017 50.1176 19.0392 50.4363 19.5767 50.7398C19.9947 50.9826 20.4277 51.1648 20.8308 51.4076C21.3533 51.7111 21.7266 52.1209 22.1595 52.5306C22.2043 52.5762 22.2641 52.6217 22.3238 52.6672C22.4581 52.7886 22.6074 52.91 22.6821 53.0466C22.9658 53.5171 22.906 54.3366 22.8314 54.8526C22.7866 55.1865 22.697 55.5204 22.5179 55.8087C22.1745 56.3551 21.5325 56.7193 20.8606 56.9166C20.4575 57.038 20.0395 57.0836 19.6215 57.1291C19.2034 57.1746 18.7555 57.2505 18.3226 57.2505C17.5313 57.2505 16.74 57.5388 15.9338 57.5844C15.1724 57.6299 14.396 57.554 13.7093 57.2201C13.6047 57.1746 13.4853 57.0987 13.4256 56.9925C13.3659 56.8863 13.3808 56.7345 13.4554 56.6434C13.6794 56.3551 14.3363 56.5676 14.6349 56.5979C15.0529 56.6434 15.4859 56.6434 15.9039 56.5979C16.0831 56.5827 16.2623 56.5524 16.4265 56.4765C16.6056 56.4006 16.6952 56.3551 16.6504 56.1578C16.6355 56.0819 15.8741 56.264 15.7994 56.2792C15.4262 56.3399 15.0529 56.3551 14.6648 56.3399C13.8138 56.3096 12.5895 56.2033 12.0371 55.4597C11.7982 55.1258 11.9326 54.7919 12.3656 54.7919C12.5597 54.7919 12.694 54.8526 12.8583 54.9133C13.0523 54.9892 13.2912 55.0044 13.5002 55.0347C13.9183 55.0954 14.3363 55.1258 14.7543 55.1258C15.0828 55.1258 15.4113 55.0954 15.7397 55.0499C15.8442 55.0499 16.5609 54.9892 16.4116 54.7616C16.3518 54.6705 16.1279 54.7616 16.0532 54.7616C15.7994 54.7616 15.5456 54.7616 15.2918 54.7616C14.7842 54.7616 14.2915 54.7312 13.7839 54.6857C13.0673 54.625 12.3506 54.5036 11.7236 54.1545C11.6041 54.0786 11.4698 54.0027 11.3802 53.8813C11.2906 53.7599 11.2458 53.6082 11.2757 53.4716C11.3205 53.2743 11.5295 53.1377 11.7236 53.1073C11.9326 53.077 12.1267 53.1377 12.3208 53.1984C12.9628 53.3957 13.5749 53.5475 14.2467 53.6082C14.7693 53.6689 15.3217 53.6689 15.8442 53.5475C15.9338 53.5323 16.4414 53.4412 16.2921 53.2439C16.2623 53.2136 16.1876 53.2136 16.1428 53.2136C15.6949 53.1225 15.2172 53.2136 14.7693 53.1832C14.2169 53.1377 13.6794 53.0618 13.127 52.9556C12.8583 52.8949 12.5895 52.8342 12.3656 52.6824C12.1416 52.5458 11.7385 52.0753 12.1118 51.8629C12.2013 51.8173 12.2909 51.8022 12.3954 51.8022C12.7836 51.8022 13.1718 51.8932 13.56 51.9539C14.5005 52.1209 15.471 52.1209 16.4265 51.9843L16.4563 51.9691Z" fill="#FCD9BA"/>
  <path d="M27.3103 52.2272C27.818 52.1816 28.3405 52.1209 28.8481 52.0754C33.9541 51.5746 39.0601 51.0738 44.1661 50.5274C46.0921 50.3149 49.5409 49.7686 50.6905 51.7871C51.3026 52.8646 51.3922 54.276 51.0637 55.4446C50.6606 56.9015 49.8992 57.2961 48.4361 57.4782C45.898 57.8121 43.3301 57.7817 40.7771 57.7514C34.5215 57.6755 28.2211 57.5844 22.07 56.4007C20.6815 56.1427 20.368 53.6538 21.4429 52.8646C22.2043 52.3182 24.2647 52.5004 25.1903 52.4093C25.892 52.3334 26.5937 52.2727 27.3103 52.1968V52.2272Z" fill="#FCD9BA"/>
  <path d="M42.6732 57.7058C41.3146 57.6754 39.956 57.6755 38.5973 57.6603C37.2387 57.6603 35.895 57.6299 34.5364 57.6147C33.1778 57.5844 31.8192 57.5389 30.4606 57.463C29.102 57.3871 27.7583 57.2657 26.4146 57.1139C25.0709 56.947 23.7272 56.7345 22.4134 56.4613C22.2492 56.431 22.0849 56.3855 21.9207 56.3551C21.861 56.3551 21.8013 56.4006 21.861 56.431C19.8753 57.1291 17.7852 57.554 15.695 57.6451C15.1426 57.6755 14.5603 57.6451 14.0378 57.4175C14.0079 57.4175 13.9631 57.4023 13.9333 57.4175C13.9183 57.4326 13.9034 57.463 13.9333 57.4782C14.3961 57.6906 14.9037 57.7513 15.3964 57.7362C15.9189 57.7362 16.4564 57.6754 16.9789 57.6299C18.0539 57.5085 19.1288 57.3112 20.1739 57.038C20.7861 56.8863 21.3832 56.7042 21.9655 56.4917C21.9655 56.4917 21.9804 56.4917 21.9954 56.4765C23.2793 56.7649 24.5633 56.9773 25.8622 57.1443C27.2059 57.3264 28.5496 57.4478 29.9082 57.5389C31.2668 57.6299 32.6254 57.6755 33.9691 57.721C35.3277 57.7513 36.6863 57.7665 38.0449 57.7817C39.4036 57.7817 40.7771 57.7969 42.1357 57.8272C42.2999 57.8272 42.4642 57.8272 42.6433 57.8272C42.7329 57.8272 42.7329 57.7513 42.6433 57.7513L42.6732 57.7058Z" fill="#E6C1A0"/>
  <path d="M16.4563 56.0668C15.9935 56.1427 15.5307 56.2489 15.0679 56.2944C14.7991 56.3248 14.5304 56.3248 14.2617 56.2944C14.1422 56.2944 14.0377 56.2489 13.9183 56.2337C13.8436 56.2337 13.754 56.2337 13.7093 56.2944C13.6645 56.3551 13.7988 56.3703 13.8287 56.3399C13.8735 56.2944 14.0078 56.3399 14.0526 56.3399C14.1571 56.3551 14.2617 56.3703 14.3512 56.3703C14.5453 56.3703 14.7245 56.3703 14.9186 56.3703C15.3067 56.3399 15.68 56.2792 16.0682 56.2185C16.1577 56.2034 16.2473 56.1882 16.3369 56.173C16.3817 56.173 16.4265 56.1578 16.4713 56.1427C16.4713 56.1427 16.5161 56.1427 16.531 56.1427C16.5758 56.1427 16.5907 56.173 16.5758 56.2337C16.531 56.3855 16.3518 56.4462 16.2175 56.4917C15.8741 56.5979 15.5008 56.6587 15.1425 56.6587C14.7245 56.6587 14.3064 56.5828 13.9183 56.431C13.8585 56.4158 13.754 56.4614 13.8436 56.5069C14.6349 56.8104 15.5456 56.8408 16.3518 56.5524C16.4862 56.5069 16.6504 56.431 16.7101 56.2792C16.7848 56.1123 16.6056 56.0668 16.4713 56.0819L16.4563 56.0668Z" fill="#E6C1A0"/>
  <path d="M16.2175 54.6554C15.7995 54.6554 15.3964 54.6857 14.9783 54.7313C14.7394 54.7616 14.5155 54.7616 14.2766 54.7313C14.0527 54.7009 13.8287 54.6554 13.6048 54.6402C13.5152 54.6402 13.5152 54.7161 13.6048 54.7161C13.9482 54.7161 14.2766 54.8375 14.62 54.8375C14.7992 54.8375 14.9634 54.8071 15.1426 54.792C15.3217 54.7768 15.5158 54.7464 15.695 54.7464C15.8741 54.7464 16.0533 54.7313 16.2324 54.7313C16.2623 54.7313 16.3519 54.7161 16.322 54.7768C16.3071 54.8071 16.2175 54.8223 16.1876 54.8375C16.0981 54.8678 16.0234 54.8982 15.9338 54.9286C15.6054 55.0348 15.262 55.0955 14.9037 55.1107C14.5155 55.1107 14.1273 55.0651 13.7391 54.9589C13.7093 54.9589 13.6645 54.9589 13.6346 54.9589C13.6197 54.9893 13.6346 55.0044 13.6645 55.0196C14.411 55.2473 15.2023 55.2473 15.9488 55.0196C16.0383 54.9893 16.1279 54.9589 16.2175 54.9286C16.2922 54.8982 16.3967 54.883 16.4415 54.8071C16.546 54.6554 16.2623 54.6554 16.2026 54.6554H16.2175Z" fill="#E6C1A0"/>
  <path d="M16.3668 53.2744C15.4561 52.9253 14.4558 53.3199 13.56 52.986C13.5003 52.9708 13.3958 53.0164 13.4853 53.0619C14.3811 53.3958 15.3516 53.0164 16.2474 53.3351C16.1279 53.4717 15.889 53.4868 15.7248 53.5172C15.4859 53.5627 15.262 53.6082 15.0231 53.6386C14.7693 53.6689 14.5454 53.6082 14.3065 53.5627C14.0676 53.5172 13.8287 53.4717 13.6048 53.411C13.5301 53.411 13.4704 53.4717 13.56 53.4868C13.8287 53.5475 14.0825 53.5931 14.3513 53.6538C14.62 53.7145 14.8589 53.7448 15.1276 53.6993C15.3964 53.6538 15.6502 53.6082 15.9189 53.5627C16.0981 53.5324 16.3071 53.502 16.4116 53.3351C16.4116 53.3199 16.3967 53.2895 16.3817 53.2895L16.3668 53.2744Z" fill="#E6C1A0"/>
  <path d="M20.2784 51.0891C19.6812 50.7704 19.084 50.4517 18.4271 50.2544C18.1136 50.1482 17.7851 50.0875 17.4716 50.0571C17.1282 50.0268 16.7699 50.0571 16.4265 50.0571C16.1279 50.0571 15.7248 50.0116 15.4859 50.2544C15.471 50.2696 15.4859 50.2848 15.4859 50.3C15.4113 50.391 15.3814 50.5124 15.4262 50.6187C15.4859 50.8008 15.6651 50.907 15.8442 50.9374C16.0831 50.9981 16.3369 50.9677 16.5758 51.0132C16.8296 51.0588 17.0834 51.1195 17.3372 51.1802C17.4417 51.2105 17.5462 51.2561 17.5761 51.3926C17.591 51.5141 17.5313 51.6355 17.4268 51.7114C17.2476 51.8631 16.9789 51.9238 16.755 51.9845C16.2623 52.1059 15.7547 52.1211 15.247 52.1211C14.9634 52.1211 14.6797 52.1059 14.396 52.0452C14.0975 51.9845 13.7989 51.9086 13.5003 51.8328C13.4704 51.8328 13.4256 51.8328 13.3957 51.8328C13.3808 51.8631 13.3957 51.8783 13.4256 51.8935C13.9482 52.0149 14.4707 52.1818 15.0082 52.197C15.262 52.197 15.5158 52.197 15.7845 52.1666C16.0383 52.1666 16.2921 52.1363 16.5459 52.0908C16.7998 52.0452 17.0386 51.9845 17.2775 51.8935C17.4567 51.8176 17.6657 51.7114 17.7105 51.4989C17.7553 51.2864 17.591 51.1498 17.4119 51.1043C17.1581 51.0284 16.9043 50.9829 16.6505 50.9374C16.5012 50.907 16.3668 50.8918 16.2175 50.8918C16.0682 50.8918 15.9189 50.8918 15.7845 50.8311C15.68 50.7856 15.5755 50.6945 15.5606 50.5579C15.5456 50.4517 15.5904 50.3303 15.6949 50.2848C15.7248 50.2848 15.7099 50.2544 15.6949 50.2392C15.7845 50.1785 15.889 50.1634 15.9935 50.1634C16.1578 50.1634 16.3071 50.1634 16.4713 50.1634C16.7998 50.1634 17.1282 50.133 17.4567 50.1634C18.0837 50.2241 18.666 50.4365 19.2333 50.6945C19.5618 50.8463 19.8753 51.0132 20.1888 51.1802C20.2336 51.2105 20.368 51.165 20.2933 51.1195L20.2784 51.0891Z" fill="#E6C1A0"/>
  <path d="M42.8971 93.2034C42.9568 93.5979 43.0315 94.0229 43.345 94.2657C43.6137 94.4782 43.987 94.4782 44.3453 94.4782C46.3758 94.4326 48.4062 94.3871 50.4516 94.3416C50.7651 94.3416 51.1085 94.3264 51.3773 94.1443C51.8401 93.8408 51.8998 93.2034 51.9147 92.6418C51.9446 92.0196 51.9894 85.175 51.9894 85.175C53.0345 84.9778 54.0796 84.7956 55.1097 84.5983C54.1094 74.0659 53.124 63.5335 52.1237 52.9859C51.6609 48.008 51.1832 43.0302 50.1381 38.1434C49.4812 35.0626 48.5257 31.9059 46.4653 29.5384C44.1512 26.8825 41.0757 25.9567 37.7015 25.7898C37.5224 27.8993 38.5227 30.2213 38.881 32.2853C39.7021 37.1114 40.1948 41.9982 40.5083 46.9002C41.1354 56.7952 41.0309 66.7205 41.4638 76.6307C41.7027 82.1701 42.1058 87.7095 42.8971 93.2034Z" fill="#67762E"/>
  <path d="M50.9891 66.2198C50.6756 60.4224 50.3322 54.625 49.9589 48.8276C49.7499 45.5799 49.526 42.3169 49.302 39.0692C49.302 38.9629 49.0034 38.9629 49.0184 39.0692C49.4215 44.8666 49.7947 50.6639 50.153 56.4613C50.4964 62.2587 50.8249 68.0561 51.1085 73.8535C51.2728 77.1164 51.4221 80.3642 51.5714 83.6271C51.5714 83.7333 51.87 83.7333 51.855 83.6271C51.6012 77.8297 51.3026 72.0171 50.9891 66.2198V66.2198Z" fill="#495E22"/>
  <path d="M46.1668 43.2882C46.0324 42.8633 45.704 42.5294 45.3905 42.2259C44.629 41.5277 43.8079 40.8903 42.9569 40.3136C43.4944 38.5228 44.0318 36.7472 44.5842 34.9564C44.838 34.1065 45.1366 33.2718 45.3158 32.4067C45.48 31.6176 45.4203 30.8284 45.1366 30.0696C44.8082 29.2197 44.2707 28.476 43.7482 27.7476C43.6884 27.6565 43.4048 27.702 43.4645 27.7931C44.3902 29.0527 45.3307 30.449 45.0769 32.1032C44.9426 32.9986 44.6141 33.8637 44.3603 34.7135C44.0916 35.5938 43.8377 36.4588 43.569 37.3391C43.2704 38.3255 42.9718 39.3272 42.6732 40.3136C42.6732 40.344 42.6732 40.3743 42.7031 40.3895C43.4794 40.9055 44.2259 41.4822 44.9276 42.1044C45.2412 42.3928 45.5845 42.6811 45.7936 43.0757C46.0026 43.4855 45.9727 43.9408 45.9279 44.3961C45.704 46.4145 45.4502 48.433 45.1964 50.4363C44.6738 54.4429 44.0916 58.4343 43.4197 62.4105C43.0465 64.6566 42.6583 66.9027 42.2403 69.1336C42.2253 69.2398 42.509 69.255 42.5239 69.1336C43.2704 65.0815 43.9572 61.0294 44.5693 56.947C45.1814 52.8949 45.704 48.8428 46.1668 44.7755C46.2265 44.2747 46.3161 43.7435 46.1668 43.2579V43.2882Z" fill="#495E22"/>
  <path d="M11.5744 36.7624C10.7383 40.6627 10.0067 44.5934 9.36475 48.5241C8.7377 52.4396 8.20023 56.3855 7.76726 60.3313C7.33429 64.3075 7.00584 68.2838 6.76696 72.2752C6.54301 76.2362 6.40864 80.2124 6.37878 84.1886C6.37878 86.1919 6.37878 88.18 6.40864 90.1833C6.42357 91.1849 6.45343 92.1866 6.48329 93.1731C6.48329 93.4918 6.4385 93.9015 6.72217 94.0988C6.85654 94.1899 7.02077 94.2202 7.17007 94.2658C7.42387 94.3265 7.67768 94.3872 7.91656 94.463C8.37938 94.5845 8.84221 94.7059 9.31996 94.8273C9.42447 94.8576 9.64842 94.7362 9.46926 94.6907C9.00644 94.5693 8.54361 94.4479 8.06586 94.3265C7.82698 94.2658 7.60303 94.2051 7.36415 94.1443C7.11035 94.0836 6.82668 94.0381 6.78189 93.7346C6.70724 93.2793 6.75203 92.7936 6.7371 92.3384C6.7371 91.8527 6.70724 91.3519 6.70724 90.8662C6.66245 88.9085 6.64752 86.9507 6.66245 84.993C6.67738 81.0623 6.79682 77.1164 7.00584 73.1857C7.21486 69.2702 7.52838 65.3699 7.93149 61.4695C8.33459 57.554 8.84221 53.6537 9.45433 49.7534C10.0515 45.8834 10.7532 42.0286 11.5594 38.1889C11.6639 37.7033 11.7535 37.2328 11.858 36.7472C11.873 36.6561 11.5893 36.641 11.5744 36.7472V36.7624Z" fill="#495E22"/>
  <path d="M12.2312 31.0712C12.2312 31.0712 12.2909 30.9346 12.276 30.8587C12.276 30.7525 12.1864 30.6462 12.0969 30.6007C11.9923 30.5552 11.8878 30.5552 11.7684 30.5704C10.9622 30.6766 10.5143 31.4051 10.5442 32.1942C10.5442 32.2398 10.5442 32.2853 10.5292 32.3156C10.5143 32.346 10.4695 32.3612 10.4247 32.3915C10.1112 32.5281 9.85738 32.8013 9.72301 33.12C9.69315 33.1959 9.52892 34.1065 9.60357 34.0761C9.30498 34.1975 9.03624 34.2279 8.90187 34.5466C8.72271 34.9715 8.7675 35.4875 8.99145 35.8821C8.3644 36.3374 8.42411 37.5667 8.99145 38.0523C9.09596 38.1434 9.23033 38.1889 9.34977 38.1434C9.49906 38.0978 9.58864 37.9461 9.64836 37.7791C9.72301 37.5515 9.73794 37.3087 9.70808 37.081C9.72301 37.1873 10.2008 37.4604 10.2903 37.506C10.4695 37.5667 10.6935 37.5515 10.8129 37.4149C10.8726 37.339 10.9025 37.248 10.9323 37.1417C11.0518 36.6409 10.9622 36.1097 10.8726 35.6089C10.9622 35.8062 11.216 35.8821 11.4101 35.8062C11.6042 35.7303 11.7385 35.533 11.7983 35.3206C11.9028 34.9108 11.8729 34.4252 11.6938 34.0458C11.7535 34.0306 11.8281 34.0154 11.8878 33.985C12.5 33.7119 12.1715 33.0896 12.0969 32.6192C12.0073 32.1032 12.067 31.572 12.2462 31.0864L12.2312 31.0712Z" fill="#FCD9BA"/>
  <path d="M11.5146 33.9244C10.9621 33.4843 10.6486 32.7862 10.6785 32.0729C10.6785 31.997 10.4695 31.9818 10.4695 32.0729C10.4396 32.8013 10.7681 33.5298 11.3354 33.9851C11.3802 34.0154 11.4399 34.0306 11.4847 34.0003C11.5146 34.0003 11.5593 33.9547 11.5295 33.9244H11.5146Z" fill="#E6C1A0"/>
  <path d="M10.7681 35.6393C10.2306 35.3813 9.97684 34.8046 9.82754 34.2582C9.81261 34.1824 9.58866 34.1975 9.61852 34.2886C9.76782 34.8653 10.0515 35.4572 10.6039 35.7304C10.6487 35.7455 10.7084 35.7607 10.7532 35.7304C10.783 35.7152 10.798 35.6696 10.7532 35.6393H10.7681Z" fill="#E6C1A0"/>
  <path d="M9.91714 37.2177C9.55882 36.9445 9.30501 36.5651 9.15571 36.1401C9.12586 36.0643 8.91684 36.0794 8.9467 36.1705C9.096 36.6106 9.36473 37.0052 9.72305 37.2784C9.76784 37.3087 9.82756 37.3087 9.87235 37.2935C9.90221 37.2935 9.947 37.248 9.91714 37.2177V37.2177Z" fill="#E6C1A0"/>
  <path d="M42.6283 37.3998C42.6283 37.3998 42.6283 37.4454 42.6134 37.4302C42.061 37.1722 41.5982 36.7624 41.1801 36.3223C40.9711 36.0947 40.777 35.867 40.583 35.6394C40.4486 35.4876 40.2396 35.3055 40.0156 35.3359C39.8066 35.3814 39.7469 35.609 39.7618 35.7911C39.7917 36.7321 40.8517 37.5213 41.419 38.189C42.6881 39.7067 44.3303 40.8297 46.0473 41.801C46.3011 41.9528 46.5698 42.0894 46.8535 42.1501C46.9729 42.1804 47.1073 42.1804 47.2267 42.2411C47.3611 42.3018 47.4656 42.3929 47.5701 42.4991C48.66 43.5311 49.7648 44.5631 50.8547 45.5951C51.1383 45.8531 51.4071 46.1263 51.6908 46.3843C51.8998 46.5816 52.1685 46.961 52.4522 47.052C52.8851 47.2038 53.3778 46.7637 53.7063 46.5209C54.1094 46.2173 54.3931 45.7924 54.6767 45.3675C54.826 45.1398 54.9753 44.9122 55.1246 44.6845C55.7218 43.7891 54.5871 43.091 54.0049 42.5295C52.8702 41.4519 51.7355 40.3592 50.6009 39.2817C50.5412 39.221 50.4665 39.1603 50.4516 39.0692C50.4217 38.9934 50.4516 38.9023 50.4516 38.8112C50.4814 38.356 50.3172 37.9007 50.1381 37.4757C49.4961 35.9277 48.6301 34.486 47.9284 32.9532C47.809 32.6952 47.6746 32.422 47.4357 32.2702C46.8236 31.8605 46.7191 32.6496 46.8087 33.1049C46.9431 33.8182 47.391 34.6681 47.1521 35.3814C46.7639 35.2903 46.3309 34.7591 46.0771 34.486C45.7487 34.1369 45.4352 33.7727 45.1067 33.4236C44.8081 33.1049 44.4946 32.7862 44.2408 32.422C43.9422 32.0122 43.6884 31.5721 43.345 31.2079C43.2255 31.0713 42.9717 30.874 42.7776 30.9195C42.3447 31.0258 42.5388 31.9212 42.6582 32.1943C42.8224 32.5737 43.1061 32.8925 43.3748 33.196C43.8227 33.712 44.2557 34.2583 44.7334 34.744C44.9275 34.9413 44.5692 34.8199 44.4796 34.744C44.3602 34.6529 44.2856 34.5315 44.181 34.4404C43.9571 34.228 43.7182 34.0307 43.4943 33.8182C43.0464 33.4085 42.6134 32.9532 42.2999 32.422C42.1058 32.1185 41.9565 31.7846 41.7326 31.5114C41.5683 31.3141 41.2548 31.1623 41.0756 31.4203C40.8816 31.6783 40.8666 32.0881 40.9413 32.3916C41.001 32.68 41.1354 32.9987 41.3145 33.2263C41.4937 33.454 41.6579 33.6968 41.8371 33.9244C42.27 34.4556 42.7776 34.9109 43.2554 35.3966C43.3599 35.5028 43.7033 35.776 43.4495 35.8822C43.2554 35.9733 42.9717 35.7456 42.8374 35.6394C42.3596 35.26 41.9266 34.8199 41.5534 34.3342C41.3593 34.0914 41.1801 33.8486 41.0159 33.5906C40.8965 33.3933 40.792 33.0746 40.6277 32.9076C40.4187 32.7103 40.1799 32.938 40.0753 33.1353C39.941 33.4085 39.941 33.7272 40.0156 34.0155C40.1201 34.4253 40.3739 34.7743 40.6277 35.093C40.9861 35.5483 41.3593 35.9884 41.7624 36.3982C41.9117 36.55 42.1058 36.6714 42.27 36.8231C42.3745 36.9142 42.479 37.0053 42.5686 37.0963C42.5985 37.1267 42.6731 37.1874 42.6881 37.2329C42.6881 37.2329 42.6881 37.2936 42.6881 37.3391L42.6283 37.3998Z" fill="#FCD9BA"/>
  <path d="M61.858 45.5647C60.6487 44.8666 59.4543 44.1533 58.2599 43.4097C57.2297 42.7571 56.1846 42.1956 55.1993 41.4975C54.4229 40.9511 53.6466 40.2226 52.6612 40.1771C52.3327 40.1771 51.9894 40.2075 51.7206 39.995C51.2727 39.6308 51.0189 39.0541 50.3769 39.5852C49.4214 40.3896 48.5555 41.3153 47.6896 42.2259C47.5851 42.3322 47.4805 42.4536 47.4507 42.5902C47.3462 43.0758 48.3315 43.2427 48.4062 43.698C48.451 43.9409 48.2868 44.1989 48.3017 44.4417C48.3166 44.8211 48.4958 45.2308 48.7197 45.5344C49.0183 45.9441 49.4662 46.2173 49.7499 46.6423C50.0485 47.0824 50.3471 47.3555 50.7651 47.7046C51.7356 48.4938 52.706 49.2981 53.6764 50.0721C55.6024 51.6201 57.5582 53.1529 59.5588 54.6099C61.3205 55.8847 63.1121 57.114 64.9634 58.2674C66.0383 58.9351 67.0536 59.7547 68.248 60.1948C69.0243 60.4831 69.8305 60.301 70.6218 60.1948C71.5325 60.0582 72.3984 59.694 73.13 59.1173C73.7869 58.5861 74.3095 57.9031 74.6529 57.1291C74.9514 56.4462 75.3993 55.6722 75.2351 54.8982C75.1605 54.5643 75.0112 54.2608 74.832 53.9725C74.3543 53.1985 73.6824 52.5459 72.8911 52.0906C72.0849 51.6201 71.4131 50.9068 70.6367 50.3908C68.9795 49.2981 67.173 48.4634 65.4262 47.5377C64.187 47.052 62.9926 46.2325 61.843 45.5647H61.858Z" fill="#DFEDE5"/>
  <path d="M76.3101 27.262C76.2205 27.262 76.116 27.2923 76.0264 27.3075C74.6827 27.6566 73.5481 28.9769 72.9061 30.1455C72.07 31.6328 71.7117 33.3477 71.3683 35.0171C70.1888 40.7234 69.084 46.4601 67.3074 51.9995C66.8595 53.3805 66.5758 54.4884 67.7702 55.4294C68.9795 56.3703 70.3531 57.4934 71.8908 57.7817C72.3985 57.8728 72.9359 57.8728 73.4137 58.0397C73.5779 58.1004 73.7272 58.1611 73.9064 58.1763C74.3543 58.1763 74.6678 57.7362 74.8917 57.3416C76.8476 53.7296 78.0569 49.7534 78.8332 45.7316C79.6544 41.5126 80.162 37.1115 79.953 32.8014C79.8932 31.5872 79.7738 30.3276 79.2065 29.2501C78.669 28.2333 77.4895 27.1557 76.3101 27.262V27.262Z" fill="#DFEDE5"/>
  <path d="M74.2796 53.8965C73.8915 52.4244 72.5478 51.4987 71.3385 50.755C70.2784 50.1176 69.2184 49.4802 68.1584 48.858C68.6362 47.9322 69.0243 46.9609 69.3379 45.9593C69.6962 44.8514 69.9649 43.7132 70.1889 42.5749C70.4128 41.4064 70.6069 40.2378 70.7861 39.0692C70.9652 37.9006 71.1444 36.732 71.3534 35.5634C71.5624 34.3949 71.8162 33.2415 72.1447 32.088C72.1895 31.9515 72.2193 31.8149 72.2641 31.6783C72.294 31.5569 72.0103 31.5417 71.9804 31.6328C71.6371 32.7558 71.3683 33.9092 71.1444 35.0626C70.9204 36.2312 70.7413 37.3998 70.5621 38.5684C70.3829 39.737 70.2038 40.9207 69.9948 42.0893C69.7858 43.2427 69.5319 44.3809 69.1886 45.504C68.8601 46.6119 68.4421 47.6894 67.9195 48.7214C67.382 48.4027 66.8446 48.084 66.2922 47.7653L61.1563 44.6996L56.0503 41.6492C55.6323 41.3912 55.1993 41.1484 54.7813 40.8904C54.408 40.6627 54.0198 40.4502 53.6018 40.3288C52.8255 40.1012 51.855 40.253 51.1981 39.6762C51.0637 39.5548 50.9592 39.4031 50.8846 39.2361C50.8398 39.1451 50.5561 39.1602 50.6009 39.2817C50.8995 40.0557 51.8102 40.2378 52.5119 40.3137C52.9748 40.3744 53.4077 40.4351 53.8407 40.6172C54.2587 40.7993 54.6618 41.0573 55.05 41.2849C56.752 42.3018 58.454 43.3186 60.156 44.3354C61.8729 45.3522 63.5749 46.369 65.2919 47.401C66.5609 48.1599 67.815 48.9035 69.0841 49.6623C69.5319 49.9203 69.9798 50.1935 70.4128 50.4515C71.6669 51.2103 73.1599 51.9995 73.8019 53.4109C73.8765 53.5778 73.9362 53.7448 73.981 53.9269C74.0109 54.0179 74.2946 54.0028 74.2647 53.8814L74.2796 53.8965Z" fill="#63848F"/>
  <path d="M78.0867 28.1119C76.7431 27.869 75.3247 28.3092 74.3244 29.2349C74.0408 29.4929 73.8019 29.7964 73.5929 30.1151C73.5331 30.2062 73.8168 30.2517 73.8765 30.1607C74.5484 29.0832 75.7278 28.3547 76.967 28.2333C77.3104 28.2029 77.6687 28.2181 78.0121 28.2788C78.0569 28.2788 78.1614 28.2788 78.1913 28.2181C78.2211 28.1574 78.1315 28.127 78.0867 28.1119V28.1119Z" fill="#63848F"/>
  <path d="M77.385 50.3301C76.9969 51.438 76.6087 52.5307 76.1757 53.6234C75.7577 54.7009 75.3396 55.7784 74.8619 56.8256C74.6379 57.3112 74.3991 57.7969 74.0706 58.2066C73.7869 58.5709 73.4436 58.8896 73.0554 59.1628C72.2492 59.7243 71.3086 59.9975 70.3382 59.9975C69.2333 59.9975 68.1285 59.6332 67.0984 59.2235C66.5908 59.011 66.0981 58.7682 65.6203 58.495C65.1276 58.2066 64.6648 57.8728 64.202 57.5541C63.2614 56.9015 62.3059 56.2489 61.3653 55.5811C60.4247 54.9134 59.514 54.2152 58.6033 53.502C56.7371 52.0602 54.8708 50.6184 53.0046 49.1767C52.7807 48.9946 52.5567 48.8276 52.3178 48.6455C52.2581 48.6 52.1835 48.6 52.1237 48.6152C52.079 48.6303 52.0192 48.691 52.079 48.7214C53.99 50.1935 55.901 51.6808 57.8269 53.1529C58.7675 53.8814 59.6932 54.6098 60.6487 55.2928C61.6042 55.9909 62.5896 56.6586 63.56 57.3264C64.5006 57.979 65.4262 58.6316 66.4564 59.1172C67.4716 59.5877 68.5615 59.9519 69.6812 60.0885C70.6965 60.2099 71.7117 60.0885 72.6373 59.618C73.4883 59.1931 74.205 58.5253 74.6977 57.7058C74.9813 57.2202 75.2053 56.7042 75.4292 56.173C75.6681 55.6267 75.8921 55.0651 76.116 54.5036C76.549 53.4109 76.967 52.303 77.3701 51.18C77.4746 50.8916 77.5642 50.6184 77.6687 50.3301C77.7135 50.2087 77.4298 50.1935 77.385 50.2997V50.3301Z" fill="#63848F"/>
  <path d="M51.1831 40.8145C50.9741 41.027 50.795 41.2698 50.6307 41.5126C50.4516 41.7555 50.2575 41.9983 50.0485 42.2259C49.6304 42.666 49.1825 43.0606 48.7197 43.4552C48.6749 43.5007 48.7197 43.5463 48.7645 43.5614C48.8242 43.5766 48.9138 43.5766 48.9586 43.5311C49.4214 43.1365 49.8693 42.7419 50.2874 42.3018C50.4964 42.0893 50.6755 41.8465 50.8547 41.6037C51.0338 41.3609 51.1981 41.1029 51.422 40.8904C51.5265 40.7993 51.2429 40.7386 51.1682 40.8145H51.1831Z" fill="#63848F"/>
</svg>
