<svg width="205" height="189" viewBox="0 0 205 189" fill="none"
  xmlns="http://www.w3.org/2000/svg">
  <path d="M125.078 124.236L125.319 123.678C123.943 123.094 122.55 122.552 121.147 122.09C119.051 121.385 116.9 120.804 114.736 120.367L114.729 120.356C116.856 118.59 118.738 116.532 120.472 114.479L120.465 114.468C120.465 114.468 120.48 114.444 120.497 114.448C121.197 113.626 121.879 112.801 122.525 112.013L122.202 111.741L122.116 111.677L122.109 111.666L122.06 111.638C119.579 114.648 117.032 117.744 113.978 120.21C107.394 118.941 100.611 118.831 93.9927 119.842C87.3745 120.853 80.9391 122.943 75.0467 126.09C75.0361 126.097 75.0294 126.086 75.0294 126.086C74.9946 126.079 74.9492 126.078 74.9144 126.07L74.9021 126.168C73.6433 126.84 72.4328 127.541 71.2456 128.301C70.6733 128.668 70.0971 129.052 69.5277 129.447C73.9395 123.615 78.6512 117.995 83.4088 112.54L83.4224 112.561C83.887 111.979 84.4097 111.465 84.9489 111L84.9761 111.042C85.0155 110.987 85.0443 110.939 85.0837 110.884C87.7313 108.739 91.1166 107.886 93.7311 107.556C96.1322 107.244 98.6146 107.268 101.01 107.273C102.529 107.287 104.103 107.295 105.659 107.225C109.258 107.057 112.228 106.395 114.613 105.241C115.508 104.817 116.331 104.305 117.085 103.732C117.461 103.431 117.833 103.103 118.051 102.65L117.49 102.381C117.341 102.731 117.018 102.997 116.699 103.246C115.966 103.806 115.165 104.305 114.281 104.721C114.168 104.779 114.044 104.843 113.925 104.89C111.682 105.893 108.934 106.457 105.61 106.613C104.09 106.69 102.526 106.676 101.007 106.662C98.605 106.646 96.1014 106.636 93.6549 106.947C91.4254 107.224 88.6198 107.886 86.1692 109.381C86.4328 109.093 86.6829 108.783 86.9678 108.481C90.0736 104.951 92.7072 102.038 95.7761 99.3839C97.4294 97.9509 99.1748 96.6383 100.911 95.4512L101.271 95.2203C101.434 95.1011 101.593 94.9992 101.763 94.8906C104.036 93.3745 106.246 92.0634 108.175 90.9916C111.785 88.9482 115.458 87.0281 119.21 85.2527C120.536 86.2267 122.337 86.1198 123.945 86.0164L124.452 85.9907C125.34 85.93 126.321 85.9444 127.503 85.9939C130.605 86.1447 133.698 86.5851 136.709 87.3174C137.713 87.5557 138.7 87.8355 139.7 88.1366L139.882 87.5568C138.969 87.2747 138.034 87.0063 137.11 86.7765C133.97 86.0069 130.756 85.5398 127.529 85.3798C126.328 85.3265 125.326 85.3257 124.414 85.3719L123.897 85.4044C122.446 85.4967 120.96 85.5814 119.851 84.9466C127.571 81.3159 135.526 78.2377 143.693 75.7709C145.189 75.3058 146.706 74.8725 148.218 74.4566L148.058 73.8565C146.711 74.2266 145.37 74.6072 144.021 75.0227C131.434 78.7812 119.278 83.9829 107.846 90.4548C106.266 91.3479 104.48 92.3874 102.625 93.5758C104.265 91.3289 106.34 89.3868 108.364 87.5065L116.18 80.197L118.063 78.4225L117.648 77.9854L115.343 80.1504C115.343 80.1504 115.325 80.1465 115.332 80.1571L107.932 87.0657C105.538 89.3023 103.062 91.6213 101.285 94.4489C99.2881 95.7883 97.2671 97.2775 95.3479 98.9257C92.9569 100.981 90.8599 103.191 88.5717 105.734C93.6375 98.1228 98.4783 90.2074 101.584 81.5201C102.334 79.4246 102.974 77.2956 103.495 75.1227C106.937 68.8509 112.179 63.4745 118.371 59.9556L118.975 59.6139C119.761 59.1848 120.551 58.7382 121.287 58.2069C121.808 57.8287 122.283 57.4044 122.711 56.9058L122.24 56.5201C121.798 57.0429 121.266 57.4732 120.697 57.8679C120.064 58.3033 119.365 58.7061 118.67 59.0915L118.067 59.4332C112.354 62.6745 107.441 67.4668 103.965 73.1024C104.254 71.7807 104.502 70.4408 104.701 69.1175C104.721 68.9852 104.751 68.846 104.75 68.7273C104.827 68.3341 104.887 67.9371 104.914 67.5605C104.93 67.4909 104.934 67.4281 104.932 67.3548C105.007 66.8882 105.054 66.4246 105.111 65.9543C105.112 65.7447 105.181 65.2222 104.794 64.9463C104.636 64.8387 104.437 64.8315 104.254 64.919C104.042 65.0094 103.91 65.1991 103.892 65.4048C103.879 65.5477 103.964 65.7029 104.098 65.7961L104.439 65.2786C104.439 65.2786 104.491 65.3354 104.496 65.3913C104.506 65.4299 104.509 65.4579 104.509 65.4579C104.499 65.4647 104.481 65.4609 104.464 65.4571C104.498 65.5101 104.538 65.6191 104.491 65.8731C104.438 66.3261 104.384 66.7791 104.33 67.2321C104.322 67.3122 104.317 67.375 104.309 67.4551C104.251 67.9255 104.187 68.3853 104.102 68.8586C103.813 70.8822 103.406 72.9071 102.909 74.885C102.674 75.9178 102.387 76.9392 102.092 77.95C101.758 79.0614 101.402 80.1863 101.005 81.293C97.3987 91.3924 91.423 100.454 85.4918 109.187L85.4668 109.218C79.4332 116.089 73.41 123.162 67.8687 130.614C67.511 131.083 67.185 131.531 66.8485 131.985C66.8064 131.803 66.7779 131.642 66.7532 131.463C66.0828 127.243 68.1016 122.81 70.2727 118.639L74.4066 110.623C76.8061 105.991 78.808 101.718 79.0069 97.3151C79.0667 96.3349 79.0144 95.3667 78.8859 94.3726L78.2769 94.4489C78.3143 94.694 78.3276 94.9247 78.3477 95.166C78.374 95.2538 78.3859 95.3657 78.3911 95.4671C78.4149 95.691 78.4214 95.9111 78.4066 96.1448C78.5378 100.83 76.4334 105.363 73.8775 110.334L69.737 118.339C67.4603 122.743 65.3572 127.394 66.211 131.9C66.2629 132.121 66.3079 132.332 66.3598 132.553C66.3628 132.581 66.3763 132.602 66.3725 132.619C63.2671 136.896 60.3619 141.299 57.713 145.822C57.7091 145.839 57.7159 145.85 57.6985 145.846C57.4498 146.274 57.1799 146.716 56.9379 147.156C53.4309 153.349 50.4431 159.793 48.2355 166.545L48.8115 166.744C52.83 154.512 59.3687 143.296 67.0083 132.795L67.0507 132.768C67.0507 132.768 67.044 132.757 67.0478 132.74C67.4458 132.171 67.8611 131.606 68.2726 131.058C70.4535 129.422 72.7392 127.972 75.1336 126.692C79.2033 127.374 83.2757 127.71 87.3578 127.711C91.4399 127.712 95.518 127.357 99.5777 126.67C102.636 126.146 107.165 125.187 111.096 122.923C112.162 122.3 113.163 121.599 114.123 120.834C116.026 121.214 117.952 121.7 119.82 122.282C121.612 122.839 123.367 123.478 125.103 124.205L125.078 124.236ZM110.777 122.425C106.927 124.652 102.475 125.591 99.4553 126.105C91.6756 127.427 83.8109 127.472 76.0147 126.247C87.3895 120.41 100.685 118.41 113.301 120.718C112.494 121.325 111.66 121.889 110.76 122.421L110.777 122.425Z" fill="#2D3824"/>
  <path d="M170.133 74.4995C168.097 73.7257 165.969 73.205 164.131 71.9459C162.324 70.7117 162.172 69.0747 162.292 67.069C162.301 66.9888 162.305 66.9261 162.307 66.8353C162.307 66.8353 162.297 66.8421 162.29 66.8315C161.397 66.7908 160.513 66.7887 159.629 66.8319C159.342 66.8512 159.038 66.8666 158.758 66.8964C157.586 67.0043 156.433 67.2347 155.299 67.5877C152.324 68.5217 149.749 70.336 147.247 72.1482C146.058 72.9995 144.869 73.8962 143.982 75.0324C143.811 75.2319 143.66 75.4631 143.52 75.6875C143.558 75.7231 143.599 75.7413 143.647 75.7701C146.523 77.785 150.318 77.8052 153.858 77.7056C156.705 77.6457 159.531 77.554 162.356 77.1794C162.832 77.1287 163.315 77.0432 163.795 76.9751C163.928 76.9496 164.079 76.9279 164.229 76.9062C164.275 76.9071 164.324 76.8905 164.38 76.8845C164.562 76.8425 164.723 76.814 164.913 76.7825C165.007 76.7668 165.123 76.7374 165.217 76.7217C165.379 76.6932 165.55 76.6579 165.722 76.6226C165.827 76.6001 165.943 76.5708 166.048 76.5483C166.076 76.5453 166.087 76.5385 166.115 76.5355C166.297 76.4934 166.462 76.4475 166.651 76.4161C166.883 76.3574 167.093 76.3124 167.325 76.2537C167.353 76.2508 167.381 76.2478 167.402 76.2342C167.496 76.2184 167.595 76.1853 167.683 76.159C167.788 76.1365 167.903 76.1071 168.002 76.074C168.03 76.071 168.058 76.068 168.079 76.0545C168.321 75.989 168.585 75.91 168.827 75.8446C168.942 75.8153 169.069 75.7792 169.195 75.7431C169.294 75.7099 169.42 75.6738 169.518 75.6407C169.557 75.6309 169.595 75.6211 169.627 75.6008L169.634 75.6114C169.634 75.6114 169.722 75.585 169.754 75.5647C170.182 75.4398 170.625 75.2907 171.039 75.1446C171.155 75.1153 171.285 75.0618 171.394 75.0219C170.972 74.8291 170.545 74.6537 170.098 74.4919L170.133 74.4995ZM149.186 71.3245C149.271 71.106 149.393 70.9232 149.563 70.7691C149.707 70.7368 149.868 70.7083 150.025 70.6972C149.981 70.8605 149.945 71.0624 149.942 71.244C149.592 71.3039 149.2 71.3457 149.186 71.3245ZM145.491 75.8002C145.491 75.8002 145.494 75.7828 145.498 75.7654C145.583 75.9206 145.664 76.0478 145.763 76.1788C145.074 76.0371 144.982 75.9167 145.497 75.8108L145.491 75.8002Z" fill="#667C43"/>
  <path d="M173.56 74.2022C172.85 74.4931 172.143 74.7665 171.422 75.0188C171.264 75.0753 171.106 75.1318 170.93 75.1845C170.516 75.3305 170.094 75.466 169.655 75.5977C167.271 76.333 164.82 76.8715 162.346 77.1862C159.531 77.5539 156.687 77.6418 153.847 77.7123C150.273 77.8044 146.404 77.7863 143.502 75.6836C144.416 74.2162 145.832 73.1595 147.23 72.1443C149.742 70.3254 152.328 68.5043 155.286 67.5664C157.554 66.8604 159.914 66.6939 162.304 66.8073C163.079 66.8493 163.849 66.9087 164.623 66.9962C166.387 67.1819 168.162 67.4797 169.934 67.7494C175.244 68.5934 180.511 69.3458 185.217 67.0779C181.727 70.0314 177.765 72.4351 173.536 74.1878L173.56 74.2022Z" fill="#647F52"/>
  <path d="M160.942 58.1713C159.754 58.7677 158.516 59.262 157.258 59.6791C158.38 58.8859 159.585 58.2932 160.942 58.1713Z" fill="#95B04C"/>
  <path d="M125.594 78.2768C125.022 78.434 124.45 78.5912 123.871 78.7378C121.026 79.4542 118.146 79.9989 115.227 80.3438C115.758 79.2116 116.385 78.137 117.091 77.1163C117.777 76.1091 118.548 75.1664 119.381 74.2736C121.91 71.5471 125.02 69.3304 128.351 67.6451C130.66 66.4649 133.079 65.5278 135.555 64.7488C138.983 63.6588 142.531 62.8959 146.077 62.2236C149.833 61.5064 153.658 60.8951 157.266 59.6897C156.176 60.4625 155.164 61.4253 154.19 62.333C151.878 64.4873 149.404 66.4606 146.812 68.2711C140.368 72.7736 133.154 76.1692 125.59 78.2942L125.594 78.2768Z" fill="#647F52"/>
  <path d="M125.27 57.3296C124.049 58.0372 122.698 58.5433 121.349 58.2569C121.095 58.2103 120.824 58.1146 120.681 57.892C120.532 57.6588 120.573 57.3488 120.634 57.0705C120.749 56.5035 120.909 55.9372 121.101 55.3959C121.186 55.1321 121.278 54.8788 121.387 54.6294C121.556 54.1925 121.748 53.77 121.958 53.3513C122.089 53.0883 122.237 52.8291 122.385 52.5699C122.533 52.3107 122.68 52.0515 122.835 51.8029C122.918 51.6752 123 51.5475 123.073 51.4265C123.238 51.1712 123.417 50.937 123.589 50.6922C123.95 50.2064 124.325 49.7418 124.718 49.281C124.9 49.0748 125.082 48.8686 125.274 48.6556C125.316 48.6284 125.345 48.5801 125.37 48.5491C125.559 48.3535 125.751 48.1405 125.951 47.9381C126.16 47.7289 126.37 47.5197 126.576 47.3279C126.807 47.1052 127.045 46.893 127.283 46.6808C127.51 46.4755 127.744 46.2807 127.971 46.0753C128.024 46.0413 128.071 45.9968 128.106 45.959C128.283 45.8156 128.461 45.6722 128.627 45.5355C128.723 45.4744 128.804 45.3921 128.904 45.3136C129.07 45.1769 129.226 45.0471 129.389 44.9278C129.63 44.7436 129.871 44.5595 130.118 44.3859C130.345 44.2259 130.564 44.0553 130.791 43.8953C135.245 40.7428 140.18 38.1788 144.128 34.4235C141.293 37.2563 139.45 40.8892 137.41 44.379C136.855 45.3326 136.275 46.2719 135.665 47.1862C135.514 47.4174 135.346 47.6448 135.188 47.8654C135.055 48.0551 134.927 48.2273 134.787 48.4063C134.755 48.4721 134.698 48.5234 134.658 48.5786C134.569 48.6957 134.49 48.806 134.401 48.9231C134.247 49.1263 134.097 49.3122 133.943 49.5154C132.924 50.7958 131.813 52.0013 130.637 53.1287C129.3 54.4034 127.864 55.5924 126.34 56.6437C125.987 56.8852 125.633 57.1267 125.259 57.3364L125.27 57.3296Z" fill="#3E5434"/>
  <path d="M104.321 69.4807C104.268 69.3505 104.214 69.2204 104.167 69.1008C103.85 68.3023 103.544 67.4971 103.258 66.6783C103.231 66.6359 103.232 66.5905 103.222 66.5519C102.326 63.9864 101.637 61.3479 101.407 58.6549C101.335 57.819 101.291 56.9802 101.313 56.1285C101.35 54.1318 101.675 52.1892 102.119 50.2453C102.581 48.2598 103.169 46.2836 103.739 44.3035C104.015 43.3343 104.291 42.3651 104.55 41.392C104.617 41.1244 104.685 40.8567 104.757 40.5717C106 35.3948 106.261 29.5016 103.145 25.1742C108.288 29.6084 111.813 35.8568 113.039 42.5314C113.1 42.8363 113.15 43.148 113.193 43.4491C113.378 44.6467 113.495 45.857 113.522 47.0658C113.563 48.8334 113.451 50.5948 113.178 52.3393C112.739 55.1773 111.885 57.9518 110.678 60.5488C109.421 63.2531 107.769 65.7617 105.78 67.9778C105.32 68.4967 104.829 68.9906 104.342 69.4671L104.321 69.4807Z" fill="#647F52"/>
  <path d="M154.381 108.273C154.111 106.592 152.593 105.203 150.888 105.084C149.011 104.956 147.344 106.204 145.815 107.318C144.895 107.982 143.961 108.625 142.99 109.232C142.068 109.823 141.122 110.354 140.153 110.871C139.391 111.269 138.623 111.656 137.845 112.005C136.975 112.398 136.092 112.77 135.199 113.102C130.407 114.887 125.322 115.678 120.287 114.912C120.733 113.789 121.322 112.724 122.027 111.749C122.332 111.314 122.657 110.912 122.996 110.53C123.495 109.956 124.032 109.418 124.611 108.897C126.215 107.481 128.073 106.321 130.013 105.451C133.991 103.68 138.344 102.984 142.688 102.623C142.974 102.604 143.272 102.578 143.558 102.559C146.401 102.352 149.367 102.291 151.947 103.494C153.771 104.358 155.425 106.543 154.374 108.263L154.381 108.273Z" fill="#647F52"/>
  <path d="M147.65 134.054C144.494 132.862 141.001 133.336 137.643 133.648C137.059 133.694 136.464 133.746 135.867 133.77C133.731 133.867 131.558 133.764 129.629 133.041C129.005 132.814 128.413 132.52 127.858 132.143C124.283 129.784 123.011 125.022 119.684 122.325C122.668 121.803 125.671 121.449 128.698 121.274C129.502 121.222 130.32 121.192 131.133 121.224C132.099 121.263 133.054 121.399 133.956 121.733C135.811 122.413 137.208 123.776 138.465 125.317C139.524 126.597 140.49 128.012 141.567 129.25C143.267 131.226 145.36 132.86 147.678 134.051L147.65 134.054Z" fill="#647F52"/>
  <path d="M78.6104 97.7479C79.0492 95.7026 76.4321 94.2547 76.0753 92.1809C75.7589 90.3803 77.218 88.8774 78.2007 87.2611C78.6292 86.553 78.9571 85.8047 79.0241 84.9993C79.0418 84.7936 79.0316 84.5909 79.0145 84.3775C78.9582 83.6362 78.7551 82.8992 78.7827 82.1489C78.8191 81.109 79.3145 80.1787 79.8098 79.2484C80.0882 78.7261 80.3772 78.1971 80.583 77.6317C81.7101 74.6072 80.437 71.2667 79.1641 68.2998C82.1919 69.2454 84.2507 72.2021 84.9592 75.2915C85.0982 75.9051 85.1985 76.5285 85.2603 77.1617C85.5046 79.6664 85.1504 82.2405 84.7139 84.7328C84.436 86.3759 84.1128 88.0182 83.5983 89.6187C83.5428 89.7888 83.4911 89.9415 83.4289 90.101C83.2451 90.6074 83.0506 91.1207 82.8252 91.609C81.8165 93.8848 80.3747 95.9747 78.6074 97.7199L78.6104 97.7479Z" fill="#769150"/>
  <path d="M57.0691 147.594C55.9554 144.899 54.8522 142.197 53.7491 139.495C52.9466 137.543 52.1373 135.58 51.5595 133.558C51.5098 133.41 51.464 133.245 51.4249 133.091C51.2375 132.448 51.0888 131.796 50.968 131.141C50.3647 128.029 50.437 124.828 50.5122 121.655C50.5334 120.685 50.5584 119.697 50.5901 118.72C50.6049 118.486 50.6022 118.249 50.6169 118.015C50.7133 114.829 50.8484 111.633 51.1573 108.475C51.3565 106.359 51.632 104.268 51.9945 102.197C52.6514 98.5322 53.6213 94.9356 55.1015 91.5055C55.2108 91.2561 55.3239 90.9893 55.4438 90.7331C56.7318 87.8896 58.3243 85.1949 60.0241 82.551C62.9674 77.9743 66.2047 73.553 68.6779 68.7093C72.3862 61.4298 74.2989 53.2375 74.186 45.0573C76.6379 47.1343 76.1071 50.9728 75.3761 54.1022C74.5965 57.4124 73.8101 60.7119 73.041 64.0153C72.7045 65.4269 72.3786 66.8317 72.0248 68.2395C71.3191 71.1285 70.5508 74.0128 69.6123 76.8417C68.6738 79.6705 67.5758 82.4371 66.5021 85.2181C65.2999 88.3355 64.1325 91.4605 63.288 94.6927C63.1754 95.1236 63.0628 95.5546 62.9676 95.9893C62.2442 99.084 61.7992 102.24 61.5106 105.429C61.3229 107.493 61.2153 109.566 61.1357 111.635C61.0536 113.84 61.0169 116.047 60.9764 118.27C60.9558 119.405 60.9419 120.55 60.9106 121.691C60.8534 124.449 60.7788 127.203 60.5893 129.94C60.1821 136.002 59.2811 141.946 57.0653 147.612L57.0691 147.594Z" fill="#647F52"/>
  <path d="M173.56 74.2023C169.981 75.6876 166.206 76.7013 162.362 77.19C159.548 77.5578 156.704 77.6457 153.864 77.7162C150.29 77.8082 146.421 77.7902 143.519 75.6875C144.433 74.2201 145.849 73.1634 147.247 72.1482C149.759 70.3293 152.345 68.5082 155.302 67.5703C159.97 66.1049 164.982 66.9749 169.951 67.7533C171.654 68.8004 173.369 69.7047 175.142 70.1385C175.963 70.3455 176.456 71.465 175.784 72.1197C175.055 72.8258 174.319 73.5212 173.553 74.1917L173.56 74.2023Z" fill="#567047"/>
  <path d="M115.227 80.3438C117.868 74.7349 122.824 70.4532 128.351 67.6451C130.659 66.4649 133.079 65.5278 135.555 64.7488C139.582 64.8745 143.66 65.3119 147.397 63.9343C148.607 63.4884 149.312 65.0098 148.647 65.8846C148.046 66.6733 147.434 67.4688 146.805 68.2605C137.468 74.7811 126.52 78.9991 115.21 80.34L115.227 80.3438Z" fill="#567047"/>
  <path d="M125.27 57.3296C124.049 58.0372 122.699 58.5433 121.349 58.2569C121.095 58.2103 120.825 58.1146 120.682 57.892C120.533 57.6588 120.573 57.3488 120.634 57.0705C120.749 56.5034 120.91 55.9372 121.101 55.3959C121.197 55.1253 121.289 54.872 121.391 54.612C121.56 54.1751 121.753 53.7526 121.963 53.3339C122.093 53.0709 122.241 52.8117 122.389 52.5525C122.537 52.2933 122.692 52.0447 122.84 51.7855C122.922 51.6578 123.005 51.5301 123.077 51.4092C123.242 51.1538 123.421 50.9196 123.593 50.6748C123.955 50.189 124.33 49.7244 124.722 49.2636C124.904 49.0574 125.086 48.8512 125.278 48.6382C125.321 48.6111 125.35 48.5627 125.375 48.5317C125.563 48.3361 125.756 48.1231 125.955 47.9207C126.165 47.7115 126.375 47.5023 126.581 47.3105C126.812 47.0878 127.05 46.8756 127.287 46.6634C127.515 46.458 127.749 46.2633 127.976 46.0579C128.029 46.0239 128.075 45.9794 128.111 45.9416C128.288 45.7982 128.465 45.6547 128.632 45.5181C128.727 45.457 128.809 45.3747 128.908 45.2962C129.075 45.1595 129.231 45.0297 129.394 44.9104C129.634 44.7262 129.875 44.5421 130.123 44.3685C131.968 44.3078 133.874 44.3425 135.537 43.4858C136.288 43.0945 137.359 43.5295 137.41 44.379C136.855 45.3326 136.276 46.2719 135.666 47.1862C135.515 47.4174 135.346 47.6448 135.189 47.8654C135.056 48.055 134.927 48.2273 134.788 48.4063C134.755 48.4721 134.698 48.5234 134.659 48.5786C134.57 48.6957 134.491 48.806 134.401 48.9231C134.247 49.1263 134.097 49.3121 133.944 49.5154C132.929 50.7784 131.839 51.9703 130.662 53.0977C130.652 53.1045 130.63 53.1181 130.633 53.1461C129.297 54.4208 127.861 55.6098 126.337 56.6611C125.984 56.9026 125.63 57.1441 125.256 57.3537L125.27 57.3296Z" fill="#37492E"/>
  <path d="M104.17 69.0834C102.517 64.9397 101.203 60.5788 101.306 56.1179C101.408 51.0739 103.297 46.2754 104.542 41.3814C105.927 40.2997 107.054 39.0247 107.959 37.4733C108.467 36.6095 109.885 36.583 110.176 37.6673C110.693 39.5484 111.892 41.0229 113.028 42.5381C113.311 44.0309 113.472 45.5423 113.511 47.0725C113.711 54.6886 110.851 62.3363 105.758 67.9914C105.507 68.1823 105.255 68.3733 104.986 68.5605C104.724 68.7582 104.445 68.9522 104.16 69.0902L104.17 69.0834Z" fill="#567047"/>
  <path d="M142.99 109.232C136.18 113.491 128.17 116.11 120.286 114.912C121.996 110.603 125.788 107.351 130.03 105.455C134.008 103.684 138.361 102.988 142.705 102.627C143.602 103.024 144.442 103.518 145.199 104.094C145.63 104.416 145.695 105.077 145.466 105.537C144.825 106.846 143.971 108.08 143 109.225L142.99 109.232Z" fill="#567047"/>
  <path d="M135.855 133.776C133.038 133.907 130.155 133.676 127.846 132.15C124.272 129.791 123 125.029 119.672 122.332C122.657 121.81 125.66 121.456 128.687 121.281C130.452 121.166 132.272 121.137 133.934 121.746C135.79 122.426 137.186 123.789 138.443 125.331C138.242 127 137.96 128.661 139.134 129.747C139.563 130.16 139.722 131.015 139.219 131.442C138.214 132.325 137.082 133.125 135.866 133.77L135.855 133.776Z" fill="#3E5434"/>
  <path d="M78.9814 97.346C79.1413 97.1988 79.2769 97.0371 79.4299 96.8793C79.4655 96.8415 79.4905 96.8105 79.5193 96.7622C79.5723 96.7282 79.6012 96.6798 79.6512 96.6179C80.0649 96.1435 80.465 95.648 80.8236 95.1342C81.0418 94.8449 81.2397 94.5237 81.4444 94.2132C81.4695 94.1822 81.4945 94.1512 81.5127 94.1097C81.5953 93.982 81.6924 93.8301 81.7614 93.6812C81.8403 93.5709 81.9229 93.4432 81.9707 93.3079C82.0102 93.2527 82.0322 93.1937 82.0716 93.1386C82.1216 93.0766 82.1543 93.0109 82.1907 92.9277C82.3644 92.5922 82.5382 92.2566 82.6983 91.8999C82.7089 91.8931 82.7195 91.8863 82.7127 91.8757C82.7559 91.8032 82.7818 91.7268 82.8182 91.6437C82.9563 91.3459 83.08 91.0723 83.1757 90.8016C83.1863 90.7948 83.1795 90.7842 83.1795 90.7842C83.1901 90.7774 83.1872 90.7495 83.1872 90.7495C83.285 90.5522 83.3481 90.3473 83.415 90.125C83.4477 90.0593 83.4841 89.9762 83.5205 89.893C83.5464 89.8167 83.5722 89.7403 83.6018 89.6466C84.1232 88.0567 84.4464 86.4144 84.7243 84.7713C85.154 82.2684 85.5081 79.6942 85.2601 77.2069L85.2533 77.1964C85.1341 77.0335 84.9338 76.9077 84.7221 76.834C84.5528 75.7763 82.9564 75.6181 82.4505 76.5552C81.767 77.8452 80.8339 78.6523 79.7854 79.2792C79.2968 80.2202 78.8015 81.1505 78.7545 82.1972C78.7482 82.3507 78.7449 82.5323 78.7666 82.6828C78.7581 82.763 78.7671 82.847 78.7934 82.9347C78.8173 83.1587 78.8411 83.3826 78.8824 83.6103C78.9334 83.8766 78.9632 84.1565 78.9901 84.4084C78.9863 84.4258 78.9998 84.447 78.9854 84.4712C78.9982 84.5378 79.0003 84.6112 79.0055 84.7125C79.0106 84.8139 79.0052 84.922 78.9997 85.0302C78.9828 85.1905 78.9621 85.3682 78.9316 85.5073C78.905 85.6291 78.8783 85.7508 78.8449 85.8619C78.7102 86.3519 78.4607 86.8257 78.1937 87.2957C77.8229 87.9071 77.3931 88.4964 77.0155 89.0971C76.8935 89.2799 76.7888 89.4666 76.6735 89.6601C76.493 89.985 76.3231 90.3032 76.2121 90.6434C76.1931 90.7303 76.1567 90.8135 76.1338 90.9178C76.0623 91.2028 76.0255 91.4955 76.0303 91.8064C76.0279 91.9425 76.0496 92.0931 76.0645 92.233C76.3201 93.7287 77.7758 94.9041 78.3698 96.2279C78.6156 96.7282 78.704 97.2397 78.5995 97.8C78.7381 97.6663 78.8661 97.5395 78.9874 97.402L78.9814 97.346ZM78.1178 95.298C78.1882 95.2678 78.248 95.2445 78.3222 95.1969C78.4099 95.1706 78.5053 95.1095 78.5863 95.0725C78.5173 95.2214 78.455 95.3809 78.4033 95.5336C78.3965 95.523 78.3724 95.5086 78.3656 95.498C78.2901 95.4268 78.2077 95.345 78.1284 95.2912L78.1178 95.298Z" fill="#667C43"/>
  <path d="M57.6868 145.898C57.6868 145.898 57.6974 145.891 57.7012 145.874C57.819 145.544 57.9367 145.215 58.0303 144.871C58.1777 144.447 58.3115 144.003 58.4279 143.555C58.4681 143.454 58.5122 143.336 58.5215 143.21C58.6188 142.849 58.7162 142.488 58.8136 142.126C59.0206 141.306 59.2102 140.482 59.3756 139.643C59.4861 139.139 59.5791 138.631 59.648 138.108C59.7563 137.531 59.8366 136.956 59.9343 136.385C60.0231 135.73 60.1186 135.086 60.1862 134.445C60.3602 132.943 60.4926 131.423 60.6039 129.916C60.6047 129.871 60.6055 129.825 60.6169 129.773C60.6459 129.142 60.6922 128.514 60.725 127.865C60.8288 125.81 60.8804 123.744 60.932 121.678C60.9336 121.587 60.9217 121.475 60.9234 121.384C60.9298 120.647 60.9536 119.914 60.9707 119.171C60.962 118.878 60.9678 118.56 60.9872 118.263C61.009 116.874 61.0444 115.506 61.0692 114.144C61.0773 113.317 61.1133 112.487 61.132 111.652C61.1426 111.645 61.1358 111.635 61.1358 111.635C61.1638 110.675 61.2091 109.719 61.2613 108.774C61.3235 107.657 61.3963 106.534 61.4934 105.426C61.5803 104.488 61.6778 103.543 61.7995 102.613C61.873 102.028 61.9465 101.443 62.0374 100.861C62.1787 100.008 62.3093 99.162 62.4641 98.3302C62.5953 97.6482 62.7294 96.9942 62.8886 96.3091L62.9609 95.9787C63.0629 95.5546 63.1687 95.113 63.2813 94.6821C63.9189 92.2702 64.7266 89.9139 65.597 87.5622C65.8871 86.7783 66.1879 85.9876 66.4848 85.2143C67.1477 83.5188 67.7895 81.8369 68.4244 80.1444C68.5748 79.749 68.7183 79.3431 68.8581 78.9545C69.1186 78.2644 69.3655 77.553 69.6019 76.8485C70.5403 74.0196 71.3049 71.1527 72.0143 68.2463C71.9689 68.2455 71.9236 68.2446 71.8782 68.2438C71.4524 68.2326 71.0314 68.5322 70.85 68.9025C69.1128 72.2581 66.6623 75.0839 64.1703 77.8914C62.7838 79.4375 61.3934 81.0011 60.0311 82.5616C59.8226 82.8895 59.6141 83.2175 59.4124 83.556C59.2039 83.884 58.9953 84.2119 58.7936 84.5505C58.5381 84.9683 58.2719 85.393 58.03 85.8321C57.8139 86.1948 57.5977 86.5575 57.3952 86.9414C56.9371 87.7432 56.5138 88.5526 56.0973 89.3726C55.9448 89.6946 55.7817 90.0234 55.6359 90.3559C55.5745 90.4701 55.5092 90.6016 55.4614 90.7369C55.4614 90.7369 55.4682 90.7475 55.4576 90.7543C55.3309 90.9999 55.239 91.2531 55.1191 91.5093C54.864 92.0914 54.637 92.6704 54.4099 93.2494C54.4023 93.2842 54.3879 93.3084 54.3803 93.3431C54.2261 93.7559 54.0787 94.1792 53.9419 94.5958C53.8424 94.8838 53.7573 95.1476 53.6683 95.4289C53.4981 95.9565 53.3279 96.4842 53.1924 97.0195C53.0319 97.5858 52.8851 98.1732 52.742 98.7433C52.6324 99.2023 52.5227 99.6612 52.4267 100.141C52.2676 100.826 52.1364 101.508 52.012 102.201C51.9693 102.438 51.9342 102.64 51.9127 102.863C51.8349 103.301 51.757 103.74 51.6966 104.182C51.4857 105.603 51.3163 107.042 51.1817 108.489C50.9534 110.863 50.812 113.256 50.7092 115.639C50.6854 116.372 50.6442 117.101 50.631 117.827C50.6264 117.89 50.6285 117.963 50.6306 118.036C50.6333 118.274 50.6118 118.497 50.6144 118.734C50.5895 119.722 50.5645 120.71 50.5433 121.68C50.4613 124.843 50.3958 128.054 50.9992 131.166C51.0765 131.52 51.1433 131.881 51.238 132.239C51.3094 132.537 51.374 132.824 51.456 133.116C51.5057 133.263 51.5448 133.418 51.5945 133.565C51.6968 133.888 51.7818 134.208 51.8948 134.524C52.2154 135.515 52.5679 136.485 52.9658 137.456C53.0991 137.804 53.2363 138.135 53.3696 138.483C53.5136 138.824 53.6507 139.155 53.784 139.503C54.8299 142.092 55.8765 144.636 56.9436 147.212C56.9903 147.331 57.0506 147.472 57.0973 147.591C57.3205 147.03 57.5226 146.482 57.708 145.885L57.6868 145.898Z" fill="#769150"/>
  <path d="M58.6034 119.91C57.0854 120.434 55.9838 120.138 55.2989 119.396C55.2489 119.458 55.2095 119.513 55.1595 119.575C54.8056 120.026 54.3055 120.062 53.8724 119.876C53.3156 119.964 52.6573 119.683 52.4623 119.075C52.3892 118.868 52.351 118.668 52.3301 118.472C51.7988 118.693 51.2276 118.805 50.5795 118.727C50.5942 118.493 50.5916 118.256 50.6063 118.022C50.7028 114.836 50.8378 111.639 51.1467 108.481C51.3459 106.365 51.6214 104.275 51.9839 102.204C52.6408 98.5389 53.6107 94.9424 55.0909 91.5123C55.2002 91.2629 55.3133 90.9961 55.4332 90.7399C55.4861 92.2459 55.7523 93.7348 56.2848 95.1727C56.98 97.0745 58.1242 98.6737 60.3657 97.9254C60.738 97.8064 61.1005 97.6489 61.4457 97.4876C62.0015 97.0717 62.5 96.543 62.9569 95.9961C62.2336 99.0908 61.7885 102.246 61.5 105.436C61.3122 107.5 61.2047 109.572 61.1251 111.642C61.043 113.847 61.0063 116.053 60.9658 118.277C60.3308 119.013 59.5554 119.599 58.5996 119.927L58.6034 119.91Z" fill="#667C43"/>
  <path d="M60.5927 129.923C60.7716 127.192 60.8462 124.438 60.914 121.674C60.982 118.326 61.0152 114.971 61.1285 111.624C59.643 114.579 56.7084 118.866 54.8582 116.539C53.6021 114.951 52.365 113.277 51.641 111.424C51.4738 110.439 51.3173 109.448 51.1569 108.475C50.8548 111.643 50.7129 114.829 50.6165 118.015C50.5768 119.237 50.5477 120.451 50.5118 121.655C50.4366 124.828 50.3643 128.029 50.9676 131.141C51.0884 131.796 51.2545 132.452 51.4245 133.091C51.4636 133.245 51.5094 133.41 51.5591 133.558C52.1475 135.573 52.9462 137.543 53.7487 139.495C54.8518 142.197 55.9656 144.892 57.0687 147.594C59.2845 141.929 60.1855 135.985 60.5927 129.923Z" fill="#577036"/>
  <path d="M57.0692 147.594C55.9554 144.899 54.8523 142.197 53.7491 139.495C52.9466 137.543 52.1373 135.58 51.5596 133.558C52.5267 134.717 53.4408 135.911 54.3549 137.104C55.2997 136.035 56.2378 134.956 57.2 133.891C58.3691 132.589 59.5208 131.283 60.5931 129.923C60.1859 135.985 59.285 141.929 57.0692 147.594Z" fill="#3D492F"/>
  <path d="M170.937 75.1951C168.158 76.1537 165.285 76.8277 162.37 77.2006C159.556 77.5684 156.712 77.6563 153.871 77.7267C150.297 77.8188 146.429 77.8007 143.527 75.6981C144.44 74.2306 145.856 73.1739 147.254 72.1588C149.767 70.3398 152.352 68.5187 155.31 67.5809C157.578 66.8749 159.938 66.7084 162.328 66.8217C163.096 66.8532 163.873 66.9232 164.647 67.0106C164.37 67.0684 164.093 67.1262 163.806 67.1908C163.108 67.3388 162.318 67.2022 163.001 68.0352C163.824 69.0629 164.791 70.0128 165.739 70.931C166.143 71.3295 166.559 71.7212 166.985 72.1061C168.314 73.108 169.739 74.0489 170.948 75.1883L170.937 75.1951Z" fill="#48603C"/>
  <path d="M169.673 75.6016C167.288 76.3369 164.838 76.8754 162.363 77.19C159.549 77.5578 156.705 77.6456 153.864 77.7161C150.29 77.8082 146.422 77.7901 143.52 75.6875C144.433 74.22 145.849 73.1633 147.247 72.1482C149.76 70.3292 152.345 68.5081 155.303 67.5702C157.571 66.8643 159.932 66.6977 162.322 66.8111C160.724 67.1172 159.087 67.4331 157.525 67.8656C157.424 68.0349 157.334 68.1974 157.275 68.3849C156.776 69.7062 157.201 70.9292 158.028 71.894C159.506 72.8009 161.198 73.4813 162.397 73.9989C162.58 74.0756 162.771 74.1629 162.954 74.2396C165.213 74.6613 167.525 74.8396 169.662 75.6084L169.673 75.6016Z" fill="#3E5434"/>
  <path d="M129.055 76.0002C127.909 76.779 126.757 77.5472 125.584 78.2836C122.186 79.2343 118.717 79.9324 115.217 80.3506C116.281 78.1141 117.701 76.0832 119.371 74.2804C122.192 73.0118 124.878 71.395 127.662 70.0454C131.294 68.2713 136.478 65.6979 140.486 67.6146C141.352 68.032 141.293 69.1763 140.595 69.6978C137.024 72.3146 133.346 74.8806 129.044 76.007L129.055 76.0002Z" fill="#48603C"/>
  <path d="M125.584 77.2815C125.013 77.7669 124.442 78.2524 123.864 78.7272C121.019 79.4436 118.139 79.9883 115.22 80.3332C115.751 79.201 116.378 78.1265 117.085 77.1057C122.13 75.6227 126.227 71.1438 131.735 70.7098C132.784 70.6207 133.357 71.9581 132.672 72.7104C130.706 74.8675 128.327 76.406 125.571 77.2603L125.584 77.2815Z" fill="#3E5434"/>
  <path d="M125.271 57.3296C124.049 58.0372 122.699 58.5433 121.35 58.2569C121.096 58.2103 120.825 58.1146 120.682 57.892C120.533 57.6588 120.573 57.3488 120.634 57.0705C120.75 56.5034 120.91 55.9372 121.101 55.3959C121.187 55.1321 121.278 54.8788 121.388 54.6294C121.74 54.2692 122.116 53.9233 122.476 53.5737C124.882 51.2395 127.401 49.0575 130.047 47.0035C130.826 46.3996 131.811 47.1439 131.894 47.973C132.147 50.188 130.521 51.6635 128.974 52.9832C128.595 53.301 128.222 53.6295 127.843 53.9473C126.912 55.0373 126.029 56.1561 125.28 57.3682L125.271 57.3296Z" fill="#2D3824"/>
  <path d="M104.669 69.1377C105.06 68.7677 105.399 68.3863 105.759 67.9913C106.037 67.6786 106.319 67.3485 106.59 67.0252C106.676 66.9254 106.783 66.8122 106.861 66.7018C106.897 66.6641 106.922 66.6331 106.94 66.5915C107.126 66.3679 107.294 66.1405 107.473 65.9063C107.534 65.8376 107.587 65.7583 107.637 65.6963C107.895 65.3518 108.15 64.9793 108.383 64.6204C108.642 64.2305 108.911 63.8339 109.149 63.4122C109.304 63.1636 109.452 62.9044 109.585 62.6693C109.603 62.6278 109.622 62.5862 109.647 62.5552C109.7 62.4759 109.747 62.386 109.801 62.3066C109.917 62.1132 110.008 61.9053 110.106 61.7081C110.275 61.3899 110.445 61.0717 110.591 60.7391L110.584 60.7285C110.631 60.684 110.642 60.6318 110.681 60.5767C110.958 59.9811 111.206 59.3885 111.447 58.7853C111.469 58.7263 111.491 58.6673 111.513 58.6084C111.604 58.4005 111.671 58.1783 111.756 57.9598C111.792 57.8767 111.832 57.7761 111.851 57.6892C111.906 57.5645 111.947 57.4185 111.988 57.2726C112.028 57.1721 112.072 57.0542 112.099 56.9324C112.117 56.8909 112.136 56.8493 112.136 56.8039C112.269 56.4048 112.385 56.0018 112.494 55.5882C112.498 55.5708 112.508 55.564 112.508 55.564C112.557 55.3834 112.599 55.1921 112.641 55.0008C112.686 54.8375 112.727 54.6462 112.762 54.4897C112.822 54.2568 112.868 54.0481 112.906 53.8288C112.979 53.4984 113.051 53.168 113.102 52.8511C113.099 52.8231 113.118 52.7816 113.118 52.7362C113.141 52.6318 113.151 52.5063 113.167 52.3914C113.282 51.7789 113.357 51.1482 113.399 50.5379C113.432 50.2626 113.451 50.0115 113.473 49.7431C113.549 48.8575 113.551 47.974 113.536 47.0868C113.505 46.105 113.424 45.1398 113.299 44.1737C113.258 43.946 113.237 43.7046 113.196 43.4769C113.186 43.4837 113.182 43.5011 113.182 43.5011C112.286 45.9292 110.921 49.7036 107.667 49.2916C105.796 49.055 104.752 46.211 103.742 44.3314C103.6 44.8107 103.466 45.3006 103.314 45.7867C103.213 46.1655 103.105 46.5337 102.99 46.8913C102.673 48.0064 102.373 49.1254 102.108 50.2519C102.01 50.6587 101.922 51.0587 101.841 51.4693C101.737 52.0296 101.639 52.6005 101.548 53.182C101.496 53.5442 101.444 53.9064 101.42 54.2656C101.408 54.3632 101.396 54.4607 101.39 54.5689C101.371 54.7012 101.364 54.8548 101.355 54.9803C101.323 55.3743 101.292 55.7683 101.299 56.1526C101.281 56.5678 101.291 56.98 101.311 57.3855C101.304 57.4202 101.307 57.4482 101.31 57.4762C101.311 57.8045 101.34 58.1298 101.369 58.455C101.371 58.5284 101.373 58.6018 101.392 58.679C101.401 58.7629 101.41 58.8469 101.426 58.9415C101.462 59.2774 101.494 59.6306 101.547 59.9703C101.552 60.0717 101.581 60.1875 101.604 60.2926C101.722 61.084 101.886 61.8761 102.06 62.6615C102.074 62.6827 102.084 62.7213 102.086 62.7493C102.213 63.2963 102.353 63.8192 102.508 64.3633C102.56 64.5388 102.613 64.7144 102.676 64.8831C102.752 65.1185 102.828 65.3538 102.894 65.596C102.993 65.8911 103.089 66.2036 103.188 66.4988C103.202 66.52 103.198 66.5373 103.211 66.5585C103.228 66.6077 103.238 66.6463 103.254 66.6955L103.261 66.7061C103.503 67.4334 103.803 68.1826 104.073 68.9069C104.096 68.9667 104.127 69.037 104.157 69.1074C104.21 69.2376 104.264 69.3678 104.317 69.498C104.441 69.3885 104.559 69.2684 104.676 69.1483L104.669 69.1377ZM108.043 56.1078C107.937 56.3398 107.838 56.5825 107.733 56.8145C107.772 56.5952 107.821 56.3691 107.871 56.1431C107.885 56.1189 107.896 56.1121 107.9 56.0947C107.945 56.0955 107.99 56.0964 108.036 56.0972L108.043 56.1078ZM102.289 51.0479C102.234 51.8012 102.141 52.4734 102.111 52.7767C102.065 53.4044 101.966 54.0207 101.878 54.6302C102.001 53.4451 102.156 52.2397 102.289 51.0479Z" fill="#48603C"/>
  <path d="M104.668 69.1379C105.059 68.7679 105.398 68.3864 105.758 67.9914C106.036 67.6787 106.318 67.3486 106.589 67.0253C106.685 66.9188 106.775 66.8017 106.86 66.702C106.896 66.6642 106.921 66.6333 106.939 66.5917C107.125 66.3681 107.304 66.1339 107.472 65.9065C107.533 65.8377 107.586 65.7584 107.636 65.6965C107.894 65.352 108.156 64.9901 108.382 64.6206C108.641 64.2307 108.91 63.834 109.148 63.4123C109.303 63.1637 109.451 62.9045 109.584 62.6695C109.602 62.6279 109.621 62.5863 109.646 62.5554C109.808 62.272 109.953 61.9848 110.105 61.7082C110.268 61.3794 110.438 61.0613 110.59 60.7393L110.583 60.7287C110.583 60.7287 110.641 60.632 110.652 60.5798C110.935 59.9948 111.184 59.4022 111.436 58.7922C111.458 58.7332 111.48 58.6743 111.502 58.6153C111.593 58.4075 111.66 58.1852 111.744 57.9667C111.781 57.8836 111.821 57.7831 111.84 57.6961C111.888 57.5608 111.929 57.4149 111.977 57.2796C112.017 57.179 112.061 57.0611 112.088 56.9394C112.106 56.8978 112.117 56.8456 112.125 56.8108C112.258 56.4117 112.373 56.0087 112.482 55.5952C112.486 55.5778 112.497 55.571 112.497 55.571C112.5 55.5536 112.494 55.543 112.494 55.543C112.549 55.3729 112.591 55.1816 112.629 55.0077C112.674 54.8444 112.716 54.6531 112.75 54.4966C112.81 54.2637 112.856 54.055 112.895 53.8357C112.967 53.5053 113.04 53.1749 113.091 52.8581C113.088 52.8301 113.106 52.7885 113.107 52.7431C113.13 52.6388 113.139 52.5132 113.166 52.3915C111.774 52.8795 110.749 53.9398 109.56 54.7912C109.433 54.1254 109.06 53.497 108.359 53.0792C107.851 52.7766 107.309 53.0042 106.926 53.3394C106.046 54.0672 105.127 54.5219 104.056 54.8341C103.984 54.7455 103.91 54.6289 103.848 54.5335C103.074 53.3252 102.76 51.5979 102.114 50.2627C102.016 50.6694 101.928 51.0694 101.847 51.48C101.743 52.0403 101.645 52.6112 101.554 53.1927C101.502 53.5549 101.45 53.9171 101.426 54.2764C101.414 54.3739 101.402 54.4715 101.396 54.5796C101.376 54.712 101.37 54.8655 101.361 54.991C101.329 55.3851 101.298 55.7791 101.305 56.1633C101.287 56.5785 101.296 56.9908 101.317 57.3962C101.309 57.431 101.312 57.459 101.315 57.487C101.316 57.8152 101.345 58.1405 101.374 58.4658C101.377 58.5392 101.379 58.6125 101.398 58.6897C101.407 58.7737 101.416 58.8577 101.432 58.9522C101.459 59.2041 101.479 59.4454 101.516 59.6906C101.521 59.7919 101.537 59.8865 101.553 59.9811C101.558 60.0824 101.587 60.1982 101.61 60.3034C101.728 61.0947 101.892 61.8869 102.066 62.6722C102.086 62.704 102.089 62.732 102.092 62.76C102.219 63.3071 102.359 63.8299 102.513 64.374C102.566 64.5496 102.619 64.7251 102.682 64.8939C102.758 65.1292 102.834 65.3646 102.9 65.6067C102.999 65.9018 103.094 66.2144 103.194 66.5095C103.207 66.5307 103.204 66.5481 103.217 66.5693C103.304 66.5883 103.395 66.59 103.496 66.5848C103.672 66.9058 103.943 67.1657 104.325 67.2948C104.498 67.3783 104.71 67.4066 104.92 67.4069C105.164 67.4149 105.423 67.3987 105.711 67.334C105.717 67.3446 105.728 67.3379 105.728 67.3379C105.435 67.5106 105.15 67.6032 104.885 67.6088C104.668 67.6433 104.47 67.5908 104.286 67.5141C103.904 67.385 103.574 67.1031 103.267 66.7169C103.509 67.4441 103.809 68.1934 104.079 68.9176C104.102 68.9774 104.132 69.0478 104.163 69.1182C104.216 69.2484 104.269 69.3785 104.323 69.5087C104.447 69.3992 104.565 69.2792 104.682 69.1591L104.668 69.1379Z" fill="#3E5434"/>
  <path d="M104.32 69.4807C104.267 69.3505 104.213 69.2204 104.166 69.1008C103.849 68.3023 103.543 67.4971 103.257 66.6783C103.23 66.6359 103.231 66.5905 103.221 66.5519C102.325 63.9864 101.636 61.3479 101.406 58.6549C102.077 59.795 102.778 60.9602 103.587 62.012C104.794 63.5705 106.305 63.2907 107.728 62.1992C108.607 61.5168 109.618 60.4352 110.684 60.5594C109.427 63.2637 107.775 65.7723 105.786 67.9884C105.326 68.5073 104.835 69.0012 104.348 69.4777L104.32 69.4807Z" fill="#2D3824"/>
  <path d="M78.611 97.7479C79.0499 95.7026 76.4328 94.2547 76.076 92.1809C75.6171 89.5746 78.8475 87.6395 79.0142 85.0061C79.0319 84.8004 79.0216 84.5977 79.0046 84.3843C79.1215 84.1001 79.221 83.8121 79.3227 83.5975C79.8159 82.5938 80.4126 81.6583 81.0818 80.7661C81.5684 80.1254 82.5847 80.3116 82.9892 80.9195C83.8359 82.1711 83.507 83.5479 83.383 84.9879C83.2192 86.6925 83.0555 88.397 82.8918 90.1016C83.0635 90.0663 83.2518 90.0803 83.4325 90.1289C82.4237 92.9879 80.7624 95.6221 78.6072 97.7653L78.611 97.7479Z" fill="#577036"/>
  <path d="M140.152 110.871C134.006 114.135 127.094 115.947 120.275 114.919C121.194 112.596 122.722 110.571 124.599 108.904C125.268 108.805 125.814 108.724 126.025 108.679C126.821 108.498 127.62 108.299 128.413 108.09C128.509 108.029 128.604 107.968 128.72 107.939L135.996 105.505C136.723 105.263 137.451 104.976 138.192 104.755C139.306 104.206 140.54 103.73 141.582 104.258C143.533 105.251 142.707 106.901 141.282 108.412C141.119 109.324 140.706 110.126 140.152 110.871Z" fill="#48603C"/>
  <path d="M137.844 112.005C132.305 114.537 126.258 115.81 120.286 114.912C120.923 113.293 121.854 111.829 122.995 110.53C123.335 110.477 123.692 110.428 124.038 110.385C125.103 110.226 126.185 110.071 127.243 109.857C128.862 109.537 130.499 109.176 132.053 108.614C133.558 108.069 137.522 105.903 138.799 107.895C139.532 109.04 138.825 110.644 137.844 112.005Z" fill="#3E5434"/>
  <path d="M135.198 113.102C130.406 114.887 125.322 115.678 120.286 114.912C120.733 113.789 121.321 112.724 122.027 111.749C122.338 111.744 122.645 111.756 122.927 111.8C124.957 112.099 127.09 112.138 129.086 111.636C130.426 111.301 131.695 110.877 133.088 110.882C133.415 110.716 133.866 110.697 134.17 110.891C135.151 111.488 135.422 112.331 135.202 113.085L135.198 113.102Z" fill="#2D3824"/>
  <path d="M133.659 100.245C132.681 100.796 131.684 101.316 130.672 101.814C128.597 102.845 126.464 103.763 124.291 104.572C121.001 105.783 117.161 106.673 114.117 105.05C113.986 104.985 113.858 104.902 113.73 104.819C113.841 104.689 113.952 104.558 114.08 104.431C116.508 101.664 119.236 99.1545 122.219 96.9739C123.196 96.2584 124.193 95.5747 125.221 94.916C126.143 94.3252 127.103 93.77 128.066 93.2428C129.505 92.4553 130.974 91.7383 132.481 91.1023C140.452 87.6996 149.57 86.1336 155.859 80.1757C151.897 85.8687 147.017 90.9235 141.486 95.1249C139.004 97.0142 136.396 98.7302 133.665 100.255L133.659 100.245Z" fill="#567047"/>
  <path d="M124.291 104.572C121 105.783 117.16 106.673 114.117 105.05C114.175 104.908 114.234 104.766 114.292 104.624C114.213 104.57 114.144 104.509 114.069 104.438C118.027 99.9287 122.779 96.1217 128.045 93.2565C128.935 93.0597 129.833 92.8281 130.714 92.5927C134.366 91.6431 137.965 90.5633 141.539 89.3503C142.435 89.0453 143.222 89.9012 143.071 90.761C142.797 92.3414 142.247 93.8154 141.465 95.1386C136.238 99.115 130.436 102.309 124.287 104.589L124.291 104.572Z" fill="#3E5434"/>
  <path d="M133.659 100.245C130.657 101.929 127.522 103.384 124.292 104.572C121.001 105.783 117.161 106.673 114.118 105.05C113.986 104.985 113.859 104.902 113.731 104.819C113.842 104.689 113.952 104.558 114.08 104.431C117.311 100.747 121.074 97.5433 125.211 94.9228C125.654 94.9379 126.113 94.8833 126.576 94.7661C128.278 94.3187 129.883 93.6041 131.625 93.2657C133.471 92.9047 137.621 93.5949 136.364 96.4633C135.781 97.7936 134.791 99.0711 133.666 100.255L133.659 100.245Z" fill="#37492E"/>
  <path d="M130.671 101.814C128.596 102.845 126.463 103.763 124.29 104.572C121 105.783 117.16 106.673 114.116 105.05C113.985 104.985 113.857 104.902 113.729 104.819C113.84 104.689 113.951 104.558 114.079 104.431C116.507 101.664 119.235 99.1545 122.218 96.974C124.823 96.8154 127.404 96.3875 129.952 95.6971C130.513 95.5467 130.977 95.7577 131.318 96.1969C132.677 97.8978 131.996 100.008 130.682 101.807L130.671 101.814Z" fill="#2D3824"/>
  <path d="M175.308 94.8506C173.176 95.3496 171.047 95.8311 168.912 96.3021C167.247 96.6663 165.557 97.0162 163.868 97.3207C161.668 97.7136 159.453 98.012 157.24 98.1288C155.534 98.22 153.82 98.1818 152.113 97.99C151.719 97.9584 151.332 97.892 150.942 97.843C144.971 96.8997 139.035 93.4218 136.811 87.8047C136.732 87.5867 136.649 87.3408 136.74 87.1329C136.849 86.8835 137.144 86.7841 137.397 86.7119C139.532 86.2409 141.754 86.7912 143.829 87.4645C146.954 88.4678 149.993 89.7348 153.051 90.9603C154.978 91.7287 156.917 92.4904 158.884 93.1583C158.985 93.1985 159.079 93.2281 159.19 93.2616C160.557 93.716 161.954 94.1221 163.376 94.4518C167.319 95.3791 171.381 95.722 175.321 94.8719L175.308 94.8506Z" fill="#647F52"/>
  <path d="M163.862 97.31C159.566 98.0733 155.218 98.497 150.928 97.8217C144.957 96.8784 139.021 93.4005 136.798 87.7834C136.718 87.5654 136.635 87.3195 136.726 87.1116C136.835 86.8622 137.131 86.7628 137.383 86.6906C139.518 86.2196 141.74 86.7699 143.816 87.4433C149.027 89.113 153.976 91.5184 159.169 93.2297C160.537 93.6841 161.933 94.0902 163.355 94.4199C163.051 94.4353 162.751 94.4333 162.458 94.442C161.718 94.617 160.424 94.9078 161.333 95.5808C162.15 96.1788 162.992 96.7459 163.855 97.2994L163.862 97.31Z" fill="#3E5434"/>
  <path d="M157.244 98.1114C155.143 98.2163 153.036 98.1465 150.946 97.8256C144.975 96.8822 139.039 93.4044 136.816 87.7872C136.736 87.5693 136.653 87.3233 136.744 87.1155C136.853 86.866 137.148 86.7666 137.401 86.6944C139.536 86.2235 141.758 86.7738 143.834 87.4471C148.94 89.094 153.797 91.4243 158.888 93.1408C158.623 93.1465 158.299 93.1301 157.946 93.1167C157.468 93.3035 156.983 93.4798 156.49 93.6908C155.494 94.1196 154.791 94.5398 154.519 95.7012C154.474 95.8645 154.436 96.0384 154.398 96.2123C155.109 97.0423 156.184 97.6241 157.24 98.1288L157.244 98.1114Z" fill="#37492E"/>
  <path d="M152.117 97.9726C151.723 97.941 151.336 97.8746 150.946 97.8256C144.974 96.8822 139.039 93.4044 136.815 87.7872C136.735 87.5693 136.653 87.3233 136.744 87.1155C136.853 86.866 137.148 86.7667 137.401 86.6944C139.536 86.2235 141.757 86.7738 143.833 87.4471C146.958 88.4504 149.997 89.7174 153.055 90.9429C151.895 90.9532 150.731 91.0263 149.658 91.2652C149.087 91.7506 148.685 92.3823 148.614 93.2051C148.412 95.2478 150.375 96.5616 151.819 97.625C151.96 97.7288 152.07 97.853 152.134 97.9764L152.117 97.9726Z" fill="#2D3824"/>
  <path d="M78.6117 97.7478C79.0505 95.7026 76.4335 94.2546 76.0767 92.1809C75.7603 90.3803 77.2194 88.8773 78.2021 87.261C78.5337 88.0353 78.8335 88.8299 79.213 89.4689C79.5153 90.1274 79.9668 90.6454 80.6023 91.0306C80.9713 91.0932 81.3509 91.149 81.7237 91.1942C82.1682 91.328 82.4601 91.4102 82.8334 91.6195C81.8247 93.8954 80.3828 95.9852 78.6155 97.7305L78.6117 97.7478Z" fill="#3D492F"/>
  <path d="M129.619 133.048C128.994 132.82 128.403 132.527 127.847 132.15C124.273 129.791 123.001 125.029 119.673 122.332C122.658 121.81 125.66 121.456 128.688 121.281C129.492 121.229 130.309 121.199 131.123 121.231C132.003 121.788 132.714 122.454 133.319 123.352C134.525 125.165 133.704 127.336 132.654 128.966C131.76 130.346 130.943 132.035 129.636 133.052L129.619 133.048Z" fill="#2D3824"/>
</svg>
