<svg width="209" height="304" viewBox="0 0 209 304" fill="none"
  xmlns="http://www.w3.org/2000/svg">
  <g clip-path="url(#clip0_121_207)">
    <path d="M49.4502 297.348C49.2851 297.953 48.8448 298.612 48.377 299.107C47.1112 300.509 46.1755 302.132 44.6896 303.314C44.552 303.424 44.4419 303.506 44.2768 303.561C44.1392 303.589 44.0291 303.561 43.8915 303.506C43.7815 303.479 43.6989 303.424 43.6164 303.369C41.2773 302.077 38.8557 300.729 37.0946 298.503C36.5167 297.76 36.2965 297.183 36.3241 296.688C36.3791 295.643 37.5624 295.093 38.8282 294.708C41.9928 293.801 45.405 294.076 48.432 295.451C49.4227 295.918 49.6428 296.605 49.4502 297.32V297.348Z" fill="#4B575E"/>
    <path d="M49.4502 297.348C49.2851 297.953 48.8448 298.613 48.377 299.107C47.1111 300.51 46.1755 302.132 44.6896 303.314C44.552 303.424 44.4419 303.506 44.2768 303.561C44.1392 303.589 44.0291 303.561 43.8915 303.506C43.7815 303.479 43.6989 303.424 43.6164 303.369C41.2773 302.077 38.8557 300.729 37.0946 298.503C36.5167 297.76 36.2965 297.183 36.3241 296.688C36.4341 296.798 36.5167 296.908 36.5717 296.963C37.1221 297.54 37.7 298.063 38.3054 298.558C39.5437 299.547 40.9196 300.317 42.3505 300.867C42.9009 301.087 43.5063 301.252 44.0566 301.087C45.0473 300.757 46.0104 299.795 46.891 299.19C47.634 298.667 48.4045 298.118 49.1475 297.595C49.23 297.54 49.3401 297.458 49.4502 297.348Z" fill="#4B575E"/>
    <path d="M23.3909 139.566C23.3359 142.37 23.4735 145.037 23.5836 147.209C25.0696 178.303 27.3811 209.095 27.3811 240.272C27.5462 248.163 27.6838 256.081 27.8489 263.971C27.959 269.223 27.9314 274.474 28.0965 279.725C28.1791 282.199 28.3992 284.701 28.3442 287.175C28.3167 289.677 28.3442 292.207 29.0872 294.626C29.2798 295.258 29.5275 295.891 29.9678 296.358C31.096 297.595 33.0498 297.458 34.7009 297.21C38.8011 296.578 42.9288 295.808 47.0565 296.138C49.0103 296.303 50.9641 296.715 52.9454 296.77C54.8992 296.825 53.936 295.093 53.936 293.801C53.9636 291.684 54.0186 289.567 54.0736 287.45C54.1562 283.216 54.2663 278.983 54.3488 274.749C54.5414 266.281 54.7066 257.785 54.8992 249.318C55.2569 232.354 55.6147 215.419 55.9999 198.456C56.11 193.534 56.22 188.613 56.3301 183.719C56.6603 168.736 56.963 153.725 55.9999 138.768C55.7247 134.397 55.2569 129.806 52.8353 126.149C48.7351 119.991 38.7736 117.764 31.9766 120.431C25.0145 123.152 23.5561 131.895 23.4185 139.593L23.3909 139.566Z" fill="#99A558"/>
    <path d="M79.8852 204.642C79.8852 204.834 79.8852 205.054 79.8302 205.246C79.7752 205.769 79.7476 206.291 79.6651 206.813C79.2523 210.168 78.3993 213.494 77.4361 216.793C76.7482 219.13 75.9777 221.44 75.2897 223.667C67.5846 248.025 59.8796 272.384 52.147 296.743C49.6704 290.859 47.7716 284.701 46.5058 278.433C44.6345 269.168 44.1117 259.6 45.295 250.225C46.2306 242.664 48.2669 235.269 49.4777 227.763C50.2482 222.979 50.661 218.278 50.8261 213.604C50.8811 212.312 50.9087 211.02 50.9087 209.728C50.9637 204.642 50.7436 199.555 50.4133 194.332C49.0374 172.53 49.0925 150.453 44.1392 129.173C43.3687 125.902 42.6532 122.025 44.9372 119.578C46.5608 117.846 49.175 117.516 51.5416 117.434C55.7243 117.296 59.9346 117.571 64.0623 118.286C69.8136 119.276 69.3733 125.132 70.2539 129.916C71.3821 136.019 72.4278 142.123 73.391 148.226C75.2897 160.24 76.8858 172.31 78.1516 184.434C78.8395 190.95 80.243 198.098 79.8577 204.642H79.8852Z" fill="#99A558"/>
    <path d="M23.9136 131.758C23.8861 131.923 23.8586 132.088 23.8035 132.253C23.0881 136.047 23.2532 140.006 24.2438 143.745C36.3793 140.61 49.2303 140.198 61.5308 142.535C63.8699 142.975 66.5942 143.415 68.3553 141.82C71.6025 138.906 70.7219 132.363 70.2266 128.596C69.401 122.273 68.4104 115.977 67.2546 109.708C67.1445 109.186 67.0345 108.609 66.5942 108.306C66.2915 108.086 65.9337 108.059 65.576 108.004C56.8528 107.096 47.9644 106.932 39.2962 108.306C36.0766 108.801 31.3985 108.884 30.0501 112.1C28.5917 115.619 27.7386 120.211 26.3077 123.977C25.3721 126.534 24.4089 129.091 23.8586 131.758H23.9136Z" fill="#99A558"/>
    <path d="M69.7864 132.555C68.5756 130.933 67.585 129.173 66.7319 127.331C65.8789 125.462 65.1909 123.537 64.558 121.585C64.2003 120.513 63.87 119.413 63.5398 118.341C64.8057 118.314 66.099 118.341 67.3648 118.396C67.4474 118.396 67.64 118.369 67.64 118.259C67.64 118.149 67.4474 118.121 67.3648 118.121C62.9069 117.846 58.4765 118.396 54.0461 118.863C54.0461 118.534 54.0461 118.176 54.0461 117.846C54.0461 115.839 54.1011 113.805 54.1286 111.798C54.1286 111.605 53.6058 111.605 53.6058 111.798C53.5783 114.162 53.5508 116.554 53.5232 118.918C53.1655 118.946 52.7802 119.001 52.4225 119.028C50.8815 119.193 49.3405 119.303 47.7995 119.358C47.7169 118.066 47.6619 116.801 47.5793 115.509C47.4693 113.722 47.3317 111.935 47.1666 110.148C47.1666 109.956 46.6162 109.956 46.6437 110.148C46.9189 113.227 47.139 116.279 47.3041 119.358C46.5061 119.386 45.7081 119.413 44.9101 119.413C42.3784 119.413 39.8467 119.358 37.3151 119.221C34.4807 119.083 31.6188 118.918 28.7845 118.753C28.7019 118.753 28.5093 118.781 28.5093 118.891C28.5093 119.001 28.7019 119.028 28.7845 119.028C31.2061 119.166 33.6276 119.331 36.0217 119.441C36.1043 121.915 35.719 124.362 35.0311 126.726C34.6733 127.909 34.2606 129.091 33.7928 130.218C33.3249 131.318 32.8021 132.39 32.0316 133.297C31.1785 134.315 30.1053 135.084 29.0321 135.882C28.9221 135.964 29.0321 136.047 29.1147 136.074C29.2247 136.129 29.3899 136.074 29.4724 136.019C30.4355 135.332 31.3987 134.617 32.1967 133.737C33.0222 132.857 33.6276 131.813 34.0955 130.713C35.1136 128.431 35.8566 126.012 36.2694 123.537C36.4895 122.19 36.5996 120.788 36.5446 119.413C39.0212 119.551 41.4978 119.633 43.9745 119.633C45.0752 119.633 46.2034 119.633 47.3041 119.578C47.3041 119.578 47.3041 119.578 47.3041 119.606C47.4693 122.795 47.5793 125.984 47.6619 129.173C47.6894 130.96 47.7169 132.747 47.7169 134.534C47.7169 134.727 48.0747 134.672 48.1847 134.644C49.0103 134.287 49.8358 133.902 50.6614 133.545C51.3218 133.242 52.0097 132.995 52.5876 132.582C53.138 132.225 53.6333 131.73 53.8259 131.07C53.936 130.685 53.936 130.301 53.9635 129.888C53.9635 129.448 53.9635 128.981 53.9635 128.541C53.991 125.379 54.0461 122.218 54.0736 119.056C55.7247 118.891 57.3483 118.699 58.9993 118.534C60.3477 118.424 61.6961 118.314 63.017 118.259C63.6224 120.211 64.2003 122.163 64.8882 124.087C65.5762 126.012 66.3742 127.881 67.3648 129.668C67.9152 130.658 68.5481 131.62 69.2086 132.527C69.2911 132.637 69.4287 132.637 69.5388 132.637C69.5938 132.637 69.7864 132.555 69.7314 132.445L69.7864 132.555ZM53.4957 122.383C53.4957 124.142 53.4407 125.929 53.4407 127.689C53.4407 128.568 53.4407 129.448 53.4132 130.301C53.4132 130.685 53.3306 131.098 53.1655 131.428C53.0279 131.703 52.8078 131.95 52.5601 132.17C51.9822 132.665 51.2117 132.967 50.5238 133.27L48.2673 134.287C48.2673 131.208 48.2122 128.101 48.1022 125.022C48.0471 123.207 47.9646 121.42 47.8545 119.606C49.0928 119.551 50.3036 119.468 51.5419 119.358C52.2024 119.303 52.8903 119.221 53.5508 119.166C53.5508 120.238 53.5508 121.31 53.5232 122.383H53.4957Z" fill="#67762E"/>
    <path d="M56.6054 145.394C56.6054 145.394 56.3303 145.339 56.2202 145.394C54.8168 146.274 53.4959 147.264 52.2301 148.336C52.0925 148.226 51.7347 148.281 51.7622 148.446C52.0099 167.031 52.2576 185.644 52.5328 204.229L53.3033 259.737C53.4409 270.185 53.5784 280.605 53.7436 291.052C53.7436 291.272 54.2664 291.244 54.2664 291.052C54.0187 272.467 53.7711 253.854 53.4959 235.269C53.2482 216.766 53.0006 198.263 52.7254 179.76C52.5878 169.451 52.4502 159.141 52.3126 148.831H52.3401C53.6885 147.676 55.1195 146.604 56.633 145.642C56.7155 145.587 56.7155 145.504 56.633 145.422L56.6054 145.394Z" fill="#67762E"/>
    <path d="M93.0666 150.041C93.4794 149.711 93.5895 149.051 93.1492 147.731C90.2323 138.878 87.3429 130.026 84.4259 121.173C83.1876 117.406 81.2338 113.392 81.2614 109.406C81.2889 105.144 80.4909 100.856 80.0506 96.6492C79.9405 95.4944 79.8304 94.3397 79.7203 93.1575C79.17 87.0816 78.7022 81.0057 77.6015 75.0122C76.7484 70.3934 75.5651 60.7708 69.4561 60.056C67.7225 59.8361 65.8787 60.4959 64.6679 61.7606C62.8242 63.6851 62.5766 66.6268 62.6591 69.2937C62.7692 72.9777 63.292 76.6343 63.8424 80.2908C64.4753 84.5248 65.6311 88.9511 65.8512 93.2125C66.319 102.808 68.1627 111.825 71.4374 120.87C73.914 127.689 76.886 134.342 80.0506 140.885C81.5365 143.992 83.2977 147.016 85.1964 149.903C85.6643 150.59 85.9945 150.618 86.765 150.59C87.6456 150.59 88.4986 150.59 89.3517 150.453C90.8377 150.205 92.4062 150.59 93.0942 150.041H93.0666Z" fill="#F7D2B1"/>
    <path d="M64.9156 107.151C66.7868 107.151 86.3247 105.172 86.1321 104.265C83.4903 92.1678 80.2157 80.1809 76.3631 68.4139C75.5651 65.9395 74.6295 63.3552 72.6757 61.6781C71.7951 60.9083 70.7219 60.3584 69.6762 59.8086C68.7957 59.3412 67.86 58.8738 66.8694 58.7638C61.6134 58.049 60.8704 68.0015 60.7329 71.4106C60.5677 75.5071 61.1181 79.576 61.696 83.645C62.2739 87.7139 62.9618 91.8104 63.5122 95.8793C64.0075 99.6734 64.2001 103.44 64.9431 107.206L64.9156 107.151Z" fill="#FFFDF8"/>
    <path d="M27.4633 88.2363C30.9306 84.1398 34.0677 78.8887 36.5993 74.1599C38.1128 71.3281 40.8096 69.2386 42.213 66.3519C43.7265 63.2452 43.2862 59.5611 42.7909 56.1245C42.2681 52.3305 41.6627 48.6464 41.6351 44.8524C41.6076 41.0033 41.6902 37.1268 41.8553 33.2778C41.9378 31.5183 42.0479 29.4838 41.0297 27.9442C40.2867 26.817 38.8833 25.5523 37.5349 25.2499C35.5812 24.81 34.9758 27.6967 34.2603 28.9889C33.132 31.1059 32.4441 33.3878 31.9488 35.7247C30.9306 40.3985 30.5729 45.2922 28.564 49.6636C27.2982 52.4129 25.3995 54.8873 23.0329 56.8118C20.1985 59.0937 16.5386 60.8533 15.2178 64.2624C14.3372 66.5718 14.7224 69.3486 13.319 71.4106C12.6861 72.3453 11.7505 73.0052 10.8974 73.7475C7.43013 76.7442 5.17365 81.0881 4.73336 85.6519C4.48569 88.2363 4.92598 91.1505 6.93481 92.8276C8.47582 94.0923 10.5947 94.3672 12.6035 94.2847C17.4742 94.1198 24.2162 92.0853 27.4633 88.2363Z" fill="#B36332"/>
    <path d="M14.6398 93.13C15.4654 88.0163 16.3184 82.9301 17.254 77.8439C18.1621 72.8402 19.5105 60.8258 26.2249 60.0285C27.9586 59.8085 29.8023 60.4684 31.0131 61.733C32.8568 63.6576 33.1045 66.5993 33.0219 69.2661C32.9118 72.9502 32.389 76.6067 31.8386 80.2633C30.4902 89.3085 29.0043 98.3537 27.4357 107.371C26.6928 111.605 25.9222 115.839 24.4913 119.881C24.3262 120.348 24.1336 120.843 23.7483 121.173C23.2805 121.585 22.5926 121.64 21.9596 121.695C20.0334 121.86 18.1071 121.998 16.1808 121.888C14.915 121.805 13.0163 121.998 11.9155 121.283C10.4846 120.376 11.0625 118.698 11.2551 117.241C11.8055 112.815 12.3833 108.361 13.0163 103.935C13.5391 100.306 14.0895 96.7041 14.6673 93.075L14.6398 93.13Z" fill="#F7D2B1"/>
    <path d="M22.345 114.41C21.0792 113.557 19.4556 113.145 17.9696 113.145C12.1082 113.2 10.0444 120.953 8.94367 125.517C6.08178 137.504 3.96289 149.683 1.98159 161.835C1.67889 163.622 1.67889 165.876 3.8253 166.289C5.36631 166.591 7.29258 166.069 7.87046 164.502C10.5397 157.409 12.9888 150.15 16.0984 143.222C19.1529 136.376 21.6845 129.283 23.8034 122.08C24.2437 120.541 24.684 118.946 24.3813 117.379C24.1337 116.059 23.3356 115.042 22.3175 114.327L22.345 114.41Z" fill="#F7D2B1"/>
    <path d="M9.3288 172.337C9.24624 172.007 9.10865 171.705 8.99858 171.375C8.66836 170.468 8.47574 169.478 8.44822 168.488C8.44822 168.131 8.53077 167.828 8.55829 167.471C8.55829 166.976 8.50325 166.454 8.44822 165.986C8.28311 164.969 7.92537 164.117 7.37501 163.265C6.90721 162.55 5.88904 162.302 5.06349 162.247C3.02715 162.137 1.78884 163.265 1.18344 164.804C-0.825383 169.918 -0.0548759 176.021 2.28416 180.943C2.39424 181.162 2.53183 181.41 2.80701 181.492C3.10971 181.575 3.43992 181.382 3.57751 181.108C3.7151 180.86 3.68759 180.558 3.66007 180.283C3.7151 180.778 4.0178 181.217 4.51313 181.492C5.25612 181.932 5.42123 181.19 5.33867 180.64C5.20108 179.403 5.09101 178.221 4.9259 177.011C4.76079 175.801 4.70576 174.454 4.78831 173.19C4.84335 172.31 4.89838 171.43 5.11853 170.55C5.2286 170.193 5.28364 169.533 5.834 169.615C6.10918 169.67 6.32932 169.89 6.49443 170.138C6.7421 170.468 6.93472 170.853 7.07231 171.238C7.23742 171.677 7.34749 172.145 7.54012 172.557C7.73275 172.97 8.03545 173.382 8.47574 173.547C9.30128 173.877 9.49391 173.08 9.35632 172.42C9.35632 172.365 9.35632 172.31 9.3288 172.282V172.337Z" fill="#F7D2B1"/>
    <path d="M18.6851 66.022C16.0709 70.4208 14.6675 76.0569 13.4016 80.2083C10.8149 88.6487 9.0813 97.3364 7.34766 105.997C8.36583 106.189 9.8518 106.849 10.8425 106.849C12.7962 107.619 15.1628 107.591 17.2267 108.031C21.2443 108.856 25.2895 109.488 29.3621 109.873C29.8024 103.165 31.1508 96.4567 32.0314 89.7759C32.9395 82.9026 33.7375 76.0294 34.4255 69.1287C34.5906 67.5616 34.7282 65.9395 34.4255 64.3999C34.1228 62.8603 33.3247 61.3207 31.9764 60.4959C30.1877 59.4236 26.6378 59.3137 24.6841 60.1934C22.1524 61.3481 20.2261 63.4651 18.7126 66.022H18.6851Z" fill="#FFFDF8"/>
    <path d="M75.1794 78.1189C74.7667 81.1431 74.1613 84.1673 73.776 86.9991C72.9505 92.8826 72.0699 98.7661 71.0792 104.622C70.694 106.932 70.6665 109.213 69.9785 111.495C69.8409 111.963 69.6758 112.458 69.2906 112.788C68.8778 113.145 68.2999 113.2 67.7771 113.255C65.8233 113.42 63.8695 113.53 61.9157 113.64C52.477 114.162 43.0383 114.657 33.5721 114.437C32.4989 114.437 31.3981 114.355 30.4625 113.86C28.7839 112.925 28.2335 110.836 27.8483 108.966C26.0596 100.113 26.0321 90.4357 22.3997 82.1054C21.7393 80.5657 21.1339 79.2736 19.9781 78.0639C18.272 76.2768 18.0794 74.5173 18.0518 71.9879C17.9693 63.4651 26.7751 57.8566 34.0399 55.6571C35.801 55.1348 37.5897 54.7224 39.4059 54.4199C42.8732 53.8426 46.423 53.7051 49.9453 53.8976C52.9448 54.0625 55.9718 54.3375 58.8887 55.1622C58.9988 55.1897 59.1089 55.2172 59.1914 55.2447C64.2272 56.7293 70.9416 58.8188 73.6659 63.6851C74.7667 65.6646 75.1244 67.974 75.3721 70.2284C75.6748 72.7852 75.4821 75.4521 75.1244 78.1464L75.1794 78.1189Z" fill="#FFFDF8"/>
    <path d="M58.2559 55.1348C58.2009 55.4097 58.1459 55.6846 58.0633 55.987C57.6505 57.4167 56.825 58.8188 56.1921 59.7811C55.0088 61.5681 53.853 63.3551 52.6698 65.1422C51.569 66.8193 50.5509 69.0737 49.1475 70.5033C47.9367 71.768 48.0192 70.6133 47.1661 69.2936C46.2305 67.8365 45.405 66.3519 44.4969 64.8673C43.0659 62.4754 41.6075 60.0835 40.1765 57.6916C39.6812 56.8393 38.9382 55.5746 38.7456 54.4199C42.2129 53.8426 45.7627 53.7051 49.285 53.8976C52.2845 54.0625 55.3115 54.3375 58.2284 55.1622L58.2559 55.1348Z" fill="#FCD9BA"/>
    <path d="M60.9252 56.4269C60.9252 56.2345 60.3749 56.2345 60.4024 56.4269C60.485 59.1212 60.4574 61.7881 60.3749 64.4824C60.3749 65.1422 60.3198 65.802 60.2923 66.4619C60.2923 66.7918 60.2648 67.1492 60.2373 67.4791C60.2373 67.6441 60.2373 67.7815 60.2098 67.9465C60.2098 68.0839 60.2098 68.2489 60.1823 68.3864C60.1823 68.4414 60.1547 68.4963 60.0997 68.5238C60.0997 68.5238 60.0997 68.5238 60.0447 68.5238C59.9071 68.4688 59.7695 68.3864 59.6319 68.3314C59.3567 68.1939 59.0815 68.029 58.8064 67.864C58.256 67.5341 57.7056 67.2042 57.1553 66.8743C56.5499 66.4894 55.972 66.1045 55.3941 65.6921C54.8437 65.3347 54.2659 64.9772 53.5779 65.0322C53.4954 65.0322 53.3027 65.0322 53.3027 65.1697C53.3027 65.2797 53.4954 65.3072 53.5779 65.3072C54.1833 65.2797 54.7062 65.6646 55.174 65.9945C55.7243 66.3794 56.2747 66.7368 56.825 67.0942C57.3754 67.4516 57.9533 67.7815 58.5312 68.1114C58.8339 68.2764 59.1091 68.4414 59.4118 68.6063C59.6594 68.7438 59.9346 68.8538 60.2373 68.8263C60.5125 68.7988 60.6776 68.6063 60.7326 68.3314C60.7877 68.029 60.7877 67.6716 60.8152 67.3691C60.8702 66.6818 60.8977 65.967 60.9252 65.2797C60.9803 63.8775 61.0353 62.5029 61.0353 61.1007C61.0353 59.5336 61.0353 57.9665 60.9803 56.3994L60.9252 56.4269Z" fill="#63848F"/>
    <path d="M43.7816 65.3072C43.7816 65.3072 43.5064 65.2522 43.3964 65.3072C41.1124 66.4069 38.8559 67.5341 36.5719 68.6338L35.8289 63.7676C35.5812 62.0905 35.251 60.4134 35.1684 58.7088C35.1134 57.7466 35.1685 56.7843 35.3611 55.8496C35.3886 55.6571 34.8658 55.6296 34.8382 55.8496C34.508 57.4992 34.6456 59.2037 34.8658 60.8808C35.0859 62.5854 35.3886 64.2899 35.6363 65.9945C35.8014 66.9842 35.939 67.9465 36.1041 68.9362C36.1316 69.1287 36.4343 69.1012 36.5719 69.0462L43.8091 65.5271C43.8091 65.5271 43.8917 65.3622 43.8091 65.3072H43.7816Z" fill="#63848F"/>
    <path d="M49.7531 77.459C49.698 77.2941 49.6155 77.1291 49.4779 76.9916C49.0926 76.6067 48.3496 76.5518 47.9644 76.9367C47.8268 77.0191 47.7442 77.1016 47.6617 77.2391C47.5241 77.459 47.4966 77.7614 47.4966 78.0089C47.4966 78.3113 47.4966 78.6412 47.5791 78.9436C47.6067 79.1086 47.6617 79.2736 47.7167 79.411C47.7718 79.6585 47.8268 79.9059 47.9919 80.1258C48.1845 80.3458 48.5148 80.4558 48.8174 80.4283C49.1477 80.4008 49.3678 80.2083 49.5054 79.9334C49.8631 79.3011 50.1658 78.1464 49.7531 77.4315V77.459Z" fill="#63848F"/>
    <path d="M49.7531 90.6282C49.698 90.4632 49.6155 90.2982 49.4779 90.1608C49.0926 89.7759 48.3496 89.7209 47.9644 90.1058C47.8268 90.1883 47.7442 90.2707 47.6617 90.4082C47.5241 90.6281 47.4966 90.9306 47.4966 91.178C47.4966 91.4804 47.4966 91.8104 47.5791 92.1128C47.6067 92.2777 47.6617 92.4427 47.7167 92.5802C47.7718 92.8276 47.8268 93.075 47.9919 93.295C48.1845 93.5149 48.5148 93.6249 48.8174 93.5974C49.1477 93.5699 49.3678 93.3775 49.5054 93.1025C49.8631 92.4702 50.1658 91.3155 49.7531 90.6007V90.6282Z" fill="#63848F"/>
    <path d="M49.7531 103.797C49.698 103.632 49.6155 103.467 49.4779 103.33C49.0926 102.945 48.3496 102.89 47.9644 103.275C47.8268 103.357 47.7442 103.44 47.6617 103.577C47.5241 103.797 47.4966 104.1 47.4966 104.347C47.4966 104.65 47.4966 104.979 47.5791 105.282C47.6067 105.447 47.6617 105.612 47.7167 105.749C47.7718 105.997 47.8268 106.244 47.9919 106.464C48.1845 106.684 48.5148 106.794 48.8174 106.767C49.1477 106.739 49.3678 106.547 49.5054 106.272C49.8631 105.639 50.1658 104.485 49.7531 103.77V103.797Z" fill="#63848F"/>
    <path d="M75.5652 72.2904C74.4094 74.2699 73.2812 76.2493 72.1254 78.2563C71.7952 78.8337 71.465 79.3835 71.1348 79.9609C71.0247 80.1534 71.5475 80.2083 71.6576 80.0434C72.8134 78.0639 73.9416 76.0844 75.0974 74.0774L76.088 72.3728C76.1981 72.1804 75.6752 72.1254 75.5652 72.2904Z" fill="#63848F"/>
    <path d="M70.1987 83.6175V105.749C70.1987 105.942 70.7216 105.942 70.7216 105.749V83.6175C70.7216 83.425 70.1987 83.425 70.1987 83.6175Z" fill="#63848F"/>
    <path d="M26.0049 86.5042C24.2162 84.3598 22.5926 82.0778 21.1617 79.686C20.7489 78.9986 20.3637 78.3113 19.9784 77.624C19.8959 77.459 19.373 77.514 19.4556 77.7065C20.804 80.1808 22.345 82.5727 24.0511 84.8271C24.5189 85.4595 25.0142 86.0643 25.5096 86.6692C25.6196 86.8066 26.1425 86.7242 25.9774 86.5317L26.0049 86.5042Z" fill="#63848F"/>
    <path d="M26.7755 101.378C26.6379 99.096 26.4728 96.8416 26.2802 94.5597C26.1701 93.2675 26.0875 91.9753 25.9775 90.6832C25.9775 90.4907 25.4271 90.4907 25.4546 90.6832C25.6472 92.9651 25.8123 95.247 25.9775 97.5289C26.1426 99.8108 26.2802 102.065 26.4453 104.347C26.5278 105.639 26.6104 106.932 26.6654 108.224C26.6654 108.416 27.2158 108.416 27.1883 108.224C27.0507 105.942 26.9131 103.66 26.7755 101.378Z" fill="#63848F"/>
    <path d="M40.7271 57.939L57.3205 57.3067C57.2104 56.7018 57.1278 56.097 57.0453 55.4922C56.9902 54.8048 56.9627 54.1175 56.9627 53.4027C56.9627 51.8631 57.0728 50.3235 57.0728 48.7839C57.0728 47.9866 57.1829 46.8869 56.9627 46.0621C56.9352 45.9246 56.8802 45.7871 56.8251 45.6772C56.4674 44.9074 55.862 44.1651 55.1741 43.6702C53.2478 41.9381 49.9731 41.1408 47.4415 41.4982C46.2582 41.6632 45.1024 41.9931 44.2218 42.8454C43.3688 43.6702 43.4238 45.1548 43.2037 46.282C42.7084 48.7014 42.0754 51.0933 41.3049 53.4302C41.0848 54.09 40.8646 54.7498 40.617 55.3822C40.4244 55.932 40.2592 56.2894 40.3693 56.8668C40.4519 57.2242 40.5619 57.5816 40.7271 57.939Z" fill="#FCD9BA"/>
    <path d="M57.073 48.8113C57.073 50.351 56.963 51.8906 56.963 53.4302C56.4126 53.3477 55.9173 53.1277 55.422 52.8803C53.248 51.7806 48.4599 48.1515 51.707 45.5672C53.6058 44.165 55.3394 44.9898 56.963 46.0895C57.1831 46.9143 57.073 48.0141 57.073 48.8113Z" fill="#E6C1A0"/>
    <path d="M37.177 40.0136C35.9112 37.9792 35.0581 35.6973 34.8655 33.2779C34.6454 30.8585 35.2783 28.989 36.0763 26.762C37.122 23.8753 40.0114 21.7858 42.7357 20.6036C47.854 18.3767 54.6785 18.5141 58.0908 23.5729C59.7969 26.1022 59.8795 28.879 60.705 31.6558C61.0077 32.618 61.7232 33.0854 62.4937 33.6628C63.3743 34.3226 64.2824 34.9549 65.1629 35.6148C65.3831 35.7797 65.6307 35.9447 65.7959 36.1921C66.3462 36.9619 65.4381 37.8417 64.9153 38.3916C63.9797 39.3263 64.0347 41.0309 64.1723 42.2681C64.3099 43.7527 64.6951 45.2648 64.4199 46.7494C64.3374 47.2168 64.1723 47.6842 63.8696 48.0691C63.3743 48.7014 62.3011 49.0038 61.5306 49.1963C60.5399 49.4712 59.4942 49.5262 58.476 49.5537C56.9625 49.5537 55.6142 49.4987 54.1832 49.0588C52.8073 48.6464 51.4864 48.0141 50.2756 47.2168C49.23 46.5295 48.2668 45.7047 47.2762 44.9624C46.4231 44.33 45.46 43.4503 44.3317 44.0001C43.9465 44.1926 44.0015 44.495 43.5612 44.605C43.1485 44.7149 42.433 44.4125 42.0477 44.2751C39.9839 43.5327 38.3603 41.8282 37.2045 40.0136H37.177Z" fill="#FCD9BA"/>
    <path d="M52.1741 44.3575C52.1741 44.3575 52.1741 44.5225 52.1741 44.605C52.1191 45.1548 51.954 45.7047 51.6238 46.1171C51.4036 46.4195 51.1009 46.6395 50.7707 46.8319C49.8076 47.4093 48.7894 47.5192 47.7712 47.0244C47.4135 46.8594 47.0283 46.6395 46.8907 46.2821C46.8081 46.1171 46.8081 45.9521 46.8081 45.7597C46.8081 44.6325 47.5236 45.2373 48.1015 45.5947C48.6793 45.9796 49.5049 45.9796 50.1103 45.5947C50.7157 45.2098 51.0734 44.5225 51.0734 43.8077C51.0734 43.0929 50.7157 42.4055 50.1653 41.9657C49.9727 41.8007 49.7801 41.6907 49.5874 41.4983C49.3948 41.3058 49.2847 41.0859 49.3123 40.8384C49.3673 40.0411 50.3855 40.0961 50.8257 40.426C51.266 40.756 51.7063 41.3058 51.899 41.8282C52.2017 42.6255 52.3117 43.4778 52.2567 44.33L52.1741 44.3575Z" fill="#EAC056"/>
    <path d="M55.119 32.0956C54.9264 31.7382 55.3667 30.9684 55.5043 30.666C55.807 30.0887 56.2748 29.6213 56.7976 29.2914C57.3204 28.9614 58.0634 28.5216 58.6964 28.6865C59.1366 28.7965 59.5219 29.2914 59.1917 29.6488C58.889 30.0062 58.0084 30.1986 57.5956 30.3086C57.2379 30.3911 56.8251 30.4461 56.4949 30.6385C56.1647 30.831 55.8895 31.1334 55.6418 31.4358C55.4492 31.6558 55.2841 31.9032 55.064 32.0956H55.119Z" fill="#B36332"/>
    <path d="M58.3934 33.1954C58.3934 33.1954 58.4484 33.1404 58.5034 33.1404C58.5034 33.1404 58.5034 33.1404 58.531 33.1404C58.6686 33.0854 58.8337 33.1404 58.9713 33.1679C59.1088 33.1954 59.2189 33.3054 59.329 33.3878C59.7418 33.7453 59.7968 34.2676 59.7693 34.79C59.7693 34.9 59.7693 35.0374 59.7142 35.1474C59.7142 35.1474 59.7142 35.1474 59.7142 35.1749C59.7142 35.1749 59.7142 35.2024 59.7142 35.2299C59.7142 35.3398 59.6592 35.3948 59.5766 35.4498C59.5216 35.4773 59.4666 35.5323 59.4115 35.5598C59.2464 35.6148 59.0263 35.5873 58.8612 35.5048C58.6961 35.4223 58.6135 35.2849 58.5585 35.1199C58.3108 34.5426 58.0356 33.8277 58.4209 33.2504L58.3934 33.1954Z" fill="#1A8B93"/>
    <path d="M27.5732 46.8319C27.5732 46.8319 27.7933 46.6119 27.9034 46.502C30.2149 44.1926 31.921 40.9209 32.8566 37.7867C33.9023 34.2126 33.407 30.2536 35.1131 26.8445C38.4703 20.1912 47.6063 16.1497 54.6235 19.2289C57.3753 20.4386 56.4121 24.0402 56.0269 26.3221C55.4765 29.4563 54.4583 32.508 53.4127 35.5323C51.0736 42.2406 47.5788 48.6739 43.3961 54.4199C40.204 58.8463 35.4984 62.5304 29.8021 62.4754C23.583 62.3929 18.217 64.3449 14.2544 69.4036C14.5021 63.7126 16.676 58.104 20.3909 53.7601C22.5649 51.2308 25.2066 49.1413 27.5732 46.8044V46.8319Z" fill="#B36332"/>
    <path d="M49.5326 37.5393C48.5695 40.4811 47.1385 43.2853 45.3774 45.8422C43.6162 48.3715 41.4698 50.6535 39.0757 52.6055C37.6998 53.7052 36.2689 54.6949 34.7279 55.5472C34.6178 55.6022 34.6453 55.6847 34.7279 55.7671C34.8379 55.8221 35.0031 55.8221 35.1131 55.7671C37.8374 54.2275 40.3416 52.303 42.5155 50.0486C44.6894 47.7942 46.5331 45.2648 47.9916 42.488C48.8171 40.9209 49.5051 39.2989 50.0555 37.6493C50.138 37.4293 49.5877 37.4018 49.5326 37.5668V37.5393Z" fill="#98491F"/>
    <path d="M38.8008 44.7699C37.5349 46.9694 35.8013 48.8939 33.7374 50.3785C33.1595 50.7909 32.5541 51.1758 31.9212 51.5057C31.8112 51.5607 31.8387 51.6432 31.9212 51.7256C32.0313 51.7806 32.1964 51.7806 32.3065 51.7256C34.5905 50.4885 36.5718 48.7564 38.1128 46.6944C38.5531 46.1171 38.9383 45.4847 39.3236 44.8524C39.4337 44.6599 38.9108 44.605 38.8008 44.7699Z" fill="#98491F"/>
    <path d="M40.6993 23.3529C40.6993 23.3529 40.4241 23.3529 40.3416 23.4079C38.5254 24.81 37.177 26.817 36.5716 29.0165C36.4065 29.6488 36.2964 30.2811 36.2139 30.9135C36.2139 31.1059 36.7367 31.1334 36.7367 30.9135C36.9293 28.659 37.8925 26.4871 39.406 24.8375C39.8187 24.3701 40.2865 23.9303 40.8094 23.5454C40.9195 23.4629 40.8094 23.3804 40.7268 23.3529H40.6993Z" fill="#98491F"/>
    <path d="M61.8055 43.0653C61.8055 43.0653 61.5578 42.9828 61.4477 43.0103C60.6497 43.2303 59.7691 42.8179 59.3564 42.1031C59.3013 41.9931 59.1362 41.9931 59.0261 41.9931C58.9711 41.9931 58.7785 42.0756 58.8335 42.1856C59.4114 43.1478 60.6497 43.5602 61.6954 43.2578C61.778 43.2578 61.8605 43.1478 61.778 43.0653H61.8055Z" fill="#C6AE8A"/>
    <path d="M99.1479 151.772C97.1941 150.837 95.2128 149.82 93.6718 148.253C93.204 147.786 92.7362 146.851 92.1308 146.576C91.4428 146.273 90.3696 146.521 89.6817 146.741C88.8286 147.016 88.0306 147.456 87.2876 147.951C86.6272 148.39 86.0218 148.885 85.609 149.545C84.6184 151.222 85.8567 153.339 86.2694 154.989C86.7648 156.886 87.7829 158.563 88.8286 160.212C89.7642 161.697 90.8925 163.264 92.5711 163.622C93.3416 163.786 94.1396 162.852 94.8001 162.494C96.0109 161.807 97.2767 161.065 97.9371 159.827C98.1022 159.525 98.2123 159.168 98.2123 158.81C98.2123 158.26 97.8821 157.793 97.6619 157.298C97.1941 156.281 96.5337 153.559 98.4875 154.301C99.1204 154.549 99.7533 154.796 100.386 155.016C100.716 155.126 101.074 155.264 101.377 155.099C101.735 154.906 101.79 154.411 101.68 154.026C101.377 152.982 100.359 152.322 99.3681 151.827C99.2855 151.8 99.2305 151.745 99.1479 151.717V151.772Z" fill="#F7D2B1"/>
    <path d="M97.9095 148.335C97.827 147.951 97.7169 147.593 97.4968 147.291C97.2766 146.988 96.9464 146.768 96.6437 146.576C95.4879 145.889 94.1396 145.476 92.7912 145.421C91.4978 145.366 90.5622 145.779 89.7917 146.823C89.1863 147.648 88.746 148.583 88.3057 149.49C87.5902 151.002 86.8473 152.542 86.2419 154.109C85.7465 155.374 84.7559 158.15 86.8473 158.315C86.9573 158.81 86.9573 159.305 87.205 159.745C87.4251 160.185 87.8929 160.57 88.3883 160.542C88.4433 160.542 88.5259 160.542 88.5809 160.542C88.6634 160.597 88.691 160.735 88.691 160.817C88.691 161.202 88.8286 161.587 89.1037 161.889C89.3514 162.192 89.7642 162.357 90.1494 162.302C90.2595 162.714 90.3696 163.099 90.5897 163.457C90.8924 163.896 91.718 164.474 92.2958 164.446C92.7912 164.446 92.7361 164.006 92.8462 163.649C93.5342 161.862 94.112 160.047 94.5798 158.178C94.7174 157.683 94.7725 157.188 95.4054 157.161C96.341 157.106 97.1941 157.985 97.827 158.535C98.1022 158.783 99.2029 159.965 99.5606 159.745C99.6982 159.663 99.7532 159.47 99.7808 159.305C99.8908 158.425 99.6707 157.656 99.423 156.831C98.7076 154.384 98.2122 151.855 98.0471 149.298C98.0471 148.968 97.9921 148.61 97.9371 148.28L97.9095 148.335Z" fill="#FCD9BA"/>
    <path d="M97.2215 161.175C97.2215 161.175 97.2215 161.065 97.2215 161.01C97.2215 160.9 97.2215 160.79 97.249 160.68C97.3866 160.405 97.7993 160.46 98.0745 160.377C98.5148 160.267 98.7625 159.8 98.735 159.36C98.735 158.948 98.4873 158.563 98.2671 158.178C97.7168 157.243 96.4785 155.539 95.1026 155.814C94.9099 155.869 94.6898 155.951 94.5797 156.116C94.4421 156.308 94.4421 156.528 94.4972 156.748C94.5522 157.188 94.7448 157.628 95.02 158.013C94.6898 157.546 94.0018 157.106 93.479 156.968C92.9562 156.831 92.1581 156.913 92.1856 157.656C92.1856 157.958 92.3783 158.233 92.5709 158.48C92.791 158.81 93.0387 159.14 93.2588 159.47C93.0937 159.36 92.9286 159.25 92.7635 159.14C92.5159 158.975 92.2682 158.838 91.993 158.728C91.7178 158.645 91.4151 158.618 91.14 158.728C89.7916 159.278 91.2775 161.01 91.7729 161.587C91.4427 161.34 90.8923 161.697 90.8648 162.082C90.8648 162.494 91.1675 162.824 91.4702 163.072C91.7729 163.319 92.1306 163.539 92.4883 163.732C92.8186 163.897 93.2038 164.034 93.5891 163.979C93.9743 163.897 94.3045 163.539 94.222 163.209C95.0475 163.374 95.9556 162.632 95.9006 161.835C96.4234 161.999 97.0563 161.615 97.1939 161.12L97.2215 161.175Z" fill="#F7D2B1"/>
    <path d="M148.35 279.147C148.433 280.577 148.543 281.952 149.065 283.244C149.175 283.519 149.313 283.794 149.451 284.041C149.616 284.316 149.781 284.564 149.974 284.839C150.056 284.948 150.166 285.058 150.276 285.196C151.845 286.955 154.899 287.56 157.238 286.406C158.642 285.691 159.632 284.536 160.183 283.244C160.238 283.134 160.293 283.024 160.32 282.887C161.311 280.247 160.926 277.085 160.54 274.391C160.513 274.144 160.458 273.896 160.43 273.649C159.99 271.037 159.302 268.425 159.027 265.786C158.862 264.164 158.862 262.514 158.339 260.947C157.431 258.115 154.404 256.191 150.909 257.483C150.441 257.648 150.001 257.868 149.698 258.198C149.423 258.5 149.258 258.885 149.148 259.243C148.047 262.514 148.35 265.923 148.515 269.25C148.598 271.257 148.46 273.236 148.35 275.243C148.295 276.536 148.267 277.828 148.35 279.147Z" fill="#B36332"/>
    <path d="M149.066 281.732C149.258 281.347 149.699 281.099 150.139 280.907C150.579 280.715 151.074 280.522 151.322 280.137C151.487 279.862 151.515 279.56 151.515 279.257C151.515 278.928 151.515 278.598 151.515 278.268C151.515 277.58 151.515 276.893 151.515 276.206C151.515 274.831 151.542 273.456 151.57 272.082C151.57 271.394 151.57 270.707 151.57 270.047C151.57 269.415 151.57 268.783 151.24 268.205C150.689 267.133 149.451 266.391 149.093 265.236C149.038 265.099 149.478 265.071 149.506 265.181C149.836 266.198 150.854 266.913 151.46 267.82C151.817 268.343 151.955 268.948 151.983 269.525C152.01 270.185 151.983 270.872 151.983 271.532C151.983 272.934 151.955 274.309 151.927 275.711C151.927 276.398 151.927 277.085 151.927 277.773C151.927 278.13 151.927 278.488 151.927 278.818C151.927 279.12 151.927 279.422 151.872 279.725C151.817 280 151.68 280.275 151.432 280.467C151.24 280.632 150.992 280.742 150.744 280.879C150.249 281.099 149.671 281.292 149.478 281.759C149.423 281.869 149.011 281.842 149.066 281.704V281.732Z" fill="#C46A39"/>
    <path d="M159.99 281.677C159.77 281.292 159.275 281.1 158.835 280.962C158.394 280.797 157.871 280.66 157.569 280.302C157.376 280.055 157.321 279.752 157.266 279.45C157.211 279.12 157.183 278.79 157.128 278.46C157.046 277.773 156.936 277.086 156.853 276.398C156.661 275.024 156.496 273.676 156.303 272.302C156.22 271.614 156.11 270.955 156.028 270.267C155.945 269.662 155.89 269.03 156.138 268.425C156.551 267.326 157.679 266.473 157.899 265.291C157.926 265.154 157.514 265.154 157.486 265.291C157.294 266.336 156.358 267.133 155.863 268.095C155.56 268.645 155.505 269.25 155.56 269.855C155.615 270.515 155.725 271.175 155.808 271.834C156 273.209 156.165 274.584 156.358 275.986C156.44 276.673 156.551 277.36 156.633 278.048C156.688 278.405 156.716 278.735 156.771 279.093C156.798 279.395 156.826 279.697 156.936 280C157.018 280.275 157.183 280.522 157.459 280.715C157.679 280.852 157.926 280.962 158.202 281.045C158.697 281.237 159.302 281.374 159.578 281.814C159.66 281.924 160.073 281.869 159.99 281.732V281.677Z" fill="#C46A39"/>
    <path d="M150.909 279.917C152.863 278.24 155.945 278.653 158.257 279.505C158.477 279.587 158.422 279.752 158.257 279.835C158.036 279.945 157.706 279.917 157.486 279.835C155.642 279.147 153.386 278.79 151.845 280.137C151.597 280.357 150.552 280.192 150.909 279.89V279.917Z" fill="#FFFDF8"/>
    <path d="M150.826 277.8C151.294 277.443 151.79 277.085 152.34 276.811C152.918 276.536 153.523 276.536 154.211 276.536C155.505 276.536 156.798 276.673 157.954 277.168C158.174 277.25 158.119 277.415 157.954 277.498C157.761 277.608 157.403 277.58 157.183 277.498C156.33 277.113 155.367 277.031 154.376 277.003C153.853 277.003 153.413 276.948 152.945 277.195C152.505 277.415 152.12 277.718 151.735 277.993C151.459 278.213 150.441 278.048 150.799 277.745L150.826 277.8Z" fill="#FFFDF8"/>
    <path d="M150.139 283.519C150.359 284.069 150.689 284.619 151.157 285.113C152.45 286.571 154.954 287.065 156.881 286.103C158.036 285.526 158.862 284.564 159.302 283.491C158.504 283.216 157.514 283.106 156.743 282.996C156.11 282.914 155.45 282.832 154.817 282.804C153.578 282.749 152.313 282.887 151.129 283.216C150.909 283.271 150.551 283.381 150.166 283.491L150.139 283.519Z" fill="#FFFDF8"/>
    <path d="M150.909 275.024C151.405 274.831 151.817 274.501 152.368 274.336C152.918 274.171 153.496 274.089 154.074 274.061C155.34 274.006 156.578 274.364 157.706 274.776C157.926 274.859 157.871 275.024 157.706 275.106C157.486 275.216 157.156 275.188 156.936 275.106C156.028 274.776 155.037 274.501 154.046 274.529C153.606 274.529 153.166 274.639 152.781 274.804C152.395 274.969 152.065 275.216 151.68 275.353C151.46 275.436 151.13 275.463 150.909 275.353C150.744 275.271 150.689 275.106 150.909 275.024Z" fill="#FFFDF8"/>
    <path d="M150.826 272.769C151.707 272.082 152.588 271.559 153.826 271.504C155.092 271.449 156.358 271.724 157.458 272.192C157.678 272.274 157.623 272.439 157.458 272.522C157.266 272.632 156.908 272.604 156.688 272.522C155.862 272.164 154.954 271.972 154.019 271.972C153.055 271.972 152.395 272.467 151.735 272.989C151.459 273.209 150.441 273.044 150.799 272.742L150.826 272.769Z" fill="#FFFDF8"/>
    <path d="M148.35 279.148C148.432 280.577 148.542 281.952 149.065 283.244C149.175 283.519 149.313 283.794 149.451 284.041C149.616 284.316 149.781 284.564 149.973 284.839C150.056 284.949 150.166 285.058 150.276 285.196C151.845 286.956 154.899 287.56 157.238 286.406C158.642 285.691 159.632 284.536 160.183 283.244C160.238 283.134 160.293 283.024 160.32 282.887C161.311 280.247 160.926 277.086 160.54 274.391C160.513 274.144 160.458 273.896 160.43 273.649C160.375 273.676 160.348 273.731 160.375 273.786C161.118 276.591 160.76 279.477 159.742 282.199C159.302 283.354 158.752 284.509 157.733 285.416C157.596 285.526 157.458 285.663 157.321 285.746C157.211 285.746 157.128 285.773 157.046 285.828C156.578 286.158 155.945 286.186 155.367 286.241C154.734 286.296 154.101 286.323 153.468 286.268C152.78 286.213 152.285 285.856 151.735 285.526C151.624 285.416 151.542 285.306 151.432 285.196C150.606 284.206 149.973 283.106 149.561 281.952C148.763 279.807 148.597 277.498 148.377 275.244C148.322 276.536 148.295 277.828 148.377 279.148H148.35Z" fill="#FFFDF8"/>
    <path d="M167.392 132.747C170.474 135.607 171.933 139.786 172.703 143.91C176.006 161.395 170.722 180.42 167.668 197.603C163.98 218.278 162.577 239.365 163.512 260.37C163.733 265.373 165.136 269.277 159.55 270.735C155.147 271.889 150.359 270.79 146.038 269.745C145.158 269.525 144.222 269.277 143.589 268.618C143.011 268.013 142.819 267.161 142.626 266.336C134.866 230.87 140.975 194.469 140.094 158.591C139.929 151.498 137.37 137.449 143.452 131.978C149.175 126.809 161.971 127.744 167.365 132.747H167.392Z" fill="#63848F"/>
    <path d="M141.883 301.389C141.883 301.527 141.828 301.664 141.746 301.829C141.361 302.627 140.315 302.764 139.379 302.764C137.013 302.764 134.646 302.764 132.28 302.764C131.206 302.764 130.051 302.764 129.115 302.297C128.867 302.187 128.537 302.022 128.344 301.857C128.289 301.802 128.234 301.747 128.207 301.692C128.014 301.334 128.014 300.977 128.097 300.62C128.097 300.62 128.097 300.62 128.097 300.592C128.455 299.107 128.895 297.568 129.253 296.056C129.72 294.159 130.629 292.207 132.472 291.354C133.766 290.777 135.252 290.695 136.627 291.052C137.26 291.217 137.893 291.464 138.334 291.932C139.242 292.867 139.765 294.461 140.205 295.671C140.645 296.853 140.893 298.035 141.223 299.245C141.416 299.987 141.966 300.565 141.856 301.389H141.883Z" fill="#B36332"/>
    <path d="M131.674 297.513C131.949 297.293 132.225 297.1 132.445 296.88C132.637 296.688 132.775 296.441 132.803 296.193C132.83 295.918 132.803 295.643 132.72 295.396C132.61 294.846 132.5 294.269 132.39 293.719C132.28 293.306 132.17 292.866 132.06 292.454H132.445C132.748 293.499 132.995 294.571 133.16 295.643C133.215 295.918 133.215 296.166 133.16 296.441C133.078 296.688 132.885 296.88 132.692 297.073C132.472 297.265 132.197 297.458 131.949 297.65C131.674 297.87 131.399 298.09 131.124 298.283C131.069 298.338 130.931 298.338 130.849 298.31C130.794 298.31 130.711 298.255 130.794 298.2C131.096 297.953 131.399 297.733 131.702 297.485L131.674 297.513Z" fill="#C46A39"/>
    <path d="M137.013 292.454H137.398C137.288 292.866 137.178 293.306 137.068 293.719C136.93 294.269 136.82 294.818 136.738 295.396C136.683 295.671 136.628 295.918 136.655 296.193C136.655 296.441 136.82 296.661 137.013 296.88C137.233 297.1 137.536 297.32 137.784 297.513C138.086 297.76 138.389 297.98 138.692 298.228C138.747 298.283 138.692 298.31 138.637 298.338C138.554 298.338 138.444 298.338 138.361 298.31C138.086 298.09 137.811 297.87 137.536 297.678C137.288 297.485 137.041 297.293 136.793 297.1C136.573 296.908 136.408 296.716 136.325 296.468C136.242 296.193 136.27 295.946 136.325 295.671C136.49 294.599 136.738 293.526 137.041 292.482L137.013 292.454Z" fill="#C46A39"/>
    <path d="M131.922 292.757C133.71 292.234 135.609 292.207 137.398 292.702C137.508 292.729 137.701 292.812 137.646 293.004C137.591 293.169 137.315 293.196 137.205 293.169C135.582 292.729 133.903 292.702 132.28 293.169C132.142 293.224 131.894 293.224 131.784 293.086C131.674 292.949 131.784 292.784 131.922 292.757Z" fill="#FFFDF8"/>
    <path d="M131.922 294.076C133.766 293.636 135.664 293.664 137.481 294.159C137.618 294.186 137.728 294.324 137.618 294.489C137.508 294.654 137.288 294.626 137.123 294.599C135.472 294.159 133.766 294.131 132.115 294.544C131.977 294.571 131.729 294.544 131.674 294.406C131.619 294.214 131.812 294.131 131.922 294.104V294.076Z" fill="#FFFDF8"/>
    <path d="M131.922 296.633C133.766 296.193 135.664 296.221 137.481 296.715C137.618 296.743 137.728 296.88 137.618 297.045C137.508 297.21 137.288 297.183 137.123 297.155C135.472 296.716 133.766 296.688 132.115 297.1C131.977 297.128 131.729 297.1 131.674 296.963C131.619 296.77 131.812 296.688 131.922 296.661V296.633Z" fill="#FFFDF8"/>
    <path d="M131.564 295.506C133.491 294.956 135.472 294.846 137.426 295.258C137.536 295.258 137.728 295.368 137.673 295.561C137.618 295.726 137.343 295.753 137.233 295.726C135.472 295.341 133.683 295.396 131.922 295.918C131.784 295.973 131.537 296.001 131.427 295.836C131.317 295.698 131.427 295.533 131.564 295.506Z" fill="#FFFDF8"/>
    <path d="M130.463 299.162C132.912 298.09 135.582 297.568 138.113 298.695C138.994 299.08 139.792 299.657 140.562 300.235C141.25 300.729 141.223 301.554 140.425 301.967C139.985 302.214 139.462 302.214 138.966 302.214C136.462 302.214 133.958 302.104 131.454 301.802C130.986 301.802 130.463 301.664 130.051 301.527C129.555 301.389 129.115 301.389 128.592 301.389C128.537 301.389 128.454 301.389 128.399 301.362C128.317 301.307 128.317 301.169 128.317 301.059C128.317 300.839 128.317 300.4 128.454 300.207C128.565 300.042 128.84 299.932 129.032 299.85C129.5 299.602 129.995 299.355 130.463 299.135V299.162Z" fill="#FFFDF8"/>
    <path d="M141.856 300.73C141.856 300.757 141.856 300.784 141.856 300.812C141.856 300.812 141.856 300.812 141.856 300.839C141.856 300.839 141.856 300.867 141.856 300.894C141.856 300.894 141.856 300.922 141.856 300.949C141.856 301.087 141.856 301.197 141.856 301.334C141.856 301.472 141.801 301.609 141.718 301.774C141.333 302.572 140.287 302.709 139.352 302.709C136.985 302.709 134.619 302.709 132.252 302.709C131.179 302.709 130.023 302.709 129.088 302.242C128.84 302.132 128.51 301.967 128.317 301.802C128.262 301.747 128.207 301.692 128.179 301.637C128.014 301.334 127.987 301.004 128.042 300.702H141.828L141.856 300.73Z" fill="#FFFDF8"/>
    <path d="M119.896 196.366C121.355 219.295 122.786 242.252 124.244 265.181C124.382 267.545 124.519 269.91 124.684 272.274C124.822 274.474 124.382 276.618 124.877 278.845C125.152 280.055 125.593 281.209 125.758 282.447C126.033 284.316 125.648 286.213 125.538 288.083C125.4 290.914 125.868 293.719 126.336 296.523C126.391 296.853 126.473 297.21 126.693 297.43C127.051 297.76 128.234 297.348 128.62 297.155C132.857 295.038 137.948 294.736 142.379 296.303C142.901 296.496 143.452 296.688 143.975 296.578C144.965 296.358 145.516 294.901 145.598 293.994C145.708 292.976 145.351 291.987 145.158 290.997C144.883 289.402 145.075 287.78 145.268 286.186C146.149 278.845 146.754 271.532 147.112 264.164C147.387 258.858 147.497 253.552 147.332 248.245C146.837 234.224 146.286 220.065 145.928 205.961C145.433 185.781 146.616 165.574 148.047 145.449C148.267 142.507 148.46 139.511 147.745 136.651C147.029 133.792 145.185 131.043 142.434 129.998C141.25 129.558 139.985 129.448 138.719 129.366C130.986 128.981 121.933 128.871 118.493 136.789C115.493 143.717 117.034 151.663 117.502 158.921C118.3 171.403 119.071 183.857 119.869 196.339L119.896 196.366Z" fill="#63848F"/>
    <path d="M146.589 187.348C146.727 179.568 146.919 171.787 147.167 164.034C147.167 163.842 146.644 163.842 146.644 164.034C146.231 177.891 145.956 191.747 145.819 205.576C145.681 219.35 145.708 233.152 145.874 246.926C145.956 254.706 146.094 262.487 146.286 270.24C146.286 270.432 146.837 270.432 146.809 270.24C146.479 256.383 146.286 242.527 146.259 228.67C146.231 214.896 146.341 201.095 146.589 187.321V187.348Z" fill="#4B575E"/>
    <path d="M183.794 220.45C183.546 221.522 183.684 222.732 184.096 223.832C184.729 225.481 185.94 226.856 187.289 227.983C187.894 228.478 188.554 228.973 189.325 229.083C190.261 229.22 191.059 228.533 191.912 228.258C193.095 227.873 194.553 227.873 195.627 227.268C196.755 226.636 197.498 225.151 197.773 223.969C198.131 222.485 197.966 220.917 197.635 219.433C197.002 216.629 194.608 213.879 191.554 215.749C190.591 216.326 189.848 217.343 188.775 217.646C188.004 217.866 187.151 217.701 186.38 217.893C184.894 218.223 184.096 219.24 183.794 220.45Z" fill="#B36332"/>
    <path d="M183.133 200.27C182.088 200.628 181.124 201.397 180.409 202.305C179.336 203.707 178.813 205.466 178.565 207.198C178.455 207.968 178.4 208.793 178.73 209.508C179.116 210.388 180.106 210.69 180.822 211.267C181.785 212.065 182.555 213.302 183.629 213.907C184.757 214.539 186.408 214.374 187.564 213.962C189.022 213.467 190.26 212.505 191.361 211.432C193.397 209.398 194.471 205.906 191.251 204.312C190.233 203.817 188.995 203.707 188.169 202.964C187.564 202.442 187.261 201.645 186.683 201.067C185.61 199.995 184.344 199.83 183.133 200.243V200.27Z" fill="#B36332"/>
    <path d="M195.626 210.827C196.92 215.281 201.598 214.457 204.625 212.367C205.533 211.735 206.413 211.047 206.991 210.113C207.872 208.766 207.927 206.978 207.239 205.549C206.661 204.394 205.725 203.349 204.487 202.937C199.836 201.342 194.195 205.879 195.626 210.8V210.827Z" fill="#B36332"/>
    <path d="M200.332 204.917C200.332 204.917 200.167 204.972 200.112 205.054C200.084 205.054 200.029 205.081 200.002 205.109C199.754 205.219 199.534 205.356 199.341 205.549C199.204 205.686 199.066 205.879 199.011 206.099C198.956 206.291 199.011 206.566 199.259 206.566C199.369 206.566 199.507 206.539 199.617 206.484C199.754 206.429 199.892 206.374 200.029 206.291C200.277 206.154 200.497 205.989 200.662 205.769C200.8 205.604 200.937 205.329 200.882 205.109C200.827 204.862 200.497 204.889 200.332 204.944V204.917Z" fill="#63848F"/>
    <path d="M205.781 191.307C203.772 185.369 201.543 179.513 199.396 173.63C198.351 170.77 197.415 167.856 196.259 165.079C195.406 163.017 194.003 161.093 191.636 160.818C189.27 160.543 187.233 161.753 186.078 163.787C185.637 164.584 185.335 165.437 185.087 166.289C184.977 166.701 184.922 167.169 184.757 167.554C184.647 167.883 184.454 168.158 184.371 168.488C183.821 170.275 183.463 172.145 183.161 173.987C182.693 176.846 182.225 179.705 181.647 182.537C181.042 185.589 180.354 188.613 179.666 191.637C178.29 197.713 176.859 203.817 176.033 210.003C175.648 212.779 175.263 215.666 175.401 218.471C175.538 220.917 176.226 223.282 178.125 224.959C179.748 226.389 181.812 227.433 183.876 228.176C183.904 228.176 183.931 228.231 183.959 228.258C184.041 228.313 184.151 228.341 184.289 228.341C184.619 228.45 184.922 228.56 185.225 228.643C186.821 229.138 188.472 229.413 190.15 229.44C190.233 229.44 190.343 229.44 190.425 229.44C191.251 229.44 192.104 229.385 192.93 229.275C197.828 228.588 202.203 225.894 205.01 221.797C211.284 212.67 209.083 201.068 205.781 191.307ZM206.138 194.964C206.413 195.954 206.689 196.944 206.936 197.961C207.046 198.456 207.156 198.978 207.267 199.445C207.377 199.803 207.322 199.94 207.267 200.243C205.505 198.758 203.882 197.136 202.396 195.376C202.809 193.534 203.111 191.692 203.249 189.823C203.772 190.318 204.295 190.813 204.79 191.307C204.845 191.362 204.927 191.39 205.01 191.39C205.395 192.572 205.781 193.754 206.138 194.964ZM187.481 196.834C186.545 199.445 185.417 202.002 184.179 204.504C183.766 203.349 183.381 202.195 182.996 201.013C182.555 199.638 182.17 198.236 181.785 196.861C182.253 195.899 182.72 194.909 183.161 193.919C183.408 194.029 183.683 194.167 183.959 194.249C184.784 194.524 185.61 194.717 186.463 194.882C186.793 195.541 187.123 196.201 187.453 196.861L187.481 196.834ZM187.371 195.019C187.619 195.047 187.839 195.074 188.086 195.102C188.004 195.376 187.921 195.624 187.811 195.899C187.674 195.596 187.509 195.321 187.371 195.019ZM184.096 206.401C185.169 209.15 186.38 211.845 187.756 214.484C186.931 216.244 186.078 217.976 185.252 219.708C185.087 220.038 184.922 220.368 184.784 220.67C183.216 218.388 181.812 215.996 180.464 213.549C181.482 211.57 182.473 209.59 183.491 207.638C183.711 207.226 183.904 206.814 184.124 206.401H184.096ZM184.537 205.494C185.775 202.965 186.958 200.408 187.949 197.768C189.215 200.243 190.536 202.717 191.939 205.136C190.728 207.996 189.435 210.827 188.114 213.632C186.766 210.992 185.555 208.271 184.509 205.466L184.537 205.494ZM193.81 195.019C194.195 195.816 194.608 196.614 195.048 197.383C194.195 199.72 193.26 202.03 192.297 204.339C191.636 203.184 191.003 202.03 190.37 200.848C189.655 199.528 188.967 198.208 188.307 196.861C188.499 196.311 188.692 195.761 188.884 195.184C189.38 195.211 189.875 195.239 190.343 195.239C191.499 195.239 192.682 195.129 193.81 194.882C193.81 194.909 193.81 194.937 193.81 194.992V195.019ZM197.14 193.727C197.883 193.342 198.571 192.847 199.204 192.297C199.947 193.369 200.717 194.387 201.543 195.376C200.965 197.961 200.222 200.518 199.424 203.047C198.131 201.232 196.92 199.363 195.846 197.411C196.287 196.229 196.7 195.019 197.112 193.809C197.112 193.782 197.112 193.727 197.112 193.699L197.14 193.727ZM195.379 196.504C195.104 196.009 194.856 195.486 194.581 194.964C194.526 194.882 194.416 194.827 194.278 194.799C194.938 194.634 195.571 194.414 196.177 194.167C195.902 194.937 195.626 195.734 195.351 196.504H195.379ZM192.434 205.989C193.673 208.106 194.993 210.195 196.397 212.23C195.461 214.869 194.526 217.481 193.535 220.065C193.342 220.588 193.122 221.11 192.93 221.632C191.334 219.35 189.903 216.986 188.609 214.539C189.93 211.707 191.223 208.875 192.462 206.016L192.434 205.989ZM192.764 205.191C193.315 203.899 193.838 202.635 194.361 201.342C194.773 200.325 195.159 199.308 195.544 198.291C196.645 200.215 197.855 202.085 199.176 203.872C198.378 206.401 197.525 208.93 196.672 211.432C195.296 209.398 194.003 207.308 192.792 205.191H192.764ZM199.782 204.669C201.268 206.594 202.864 208.436 204.597 210.195C204.24 211.322 203.882 212.477 203.524 213.604C203.001 215.226 202.478 216.821 201.928 218.443C200.249 216.464 198.681 214.374 197.195 212.23C198.075 209.728 198.956 207.198 199.782 204.669ZM200.029 203.899C200.8 201.48 201.488 199.061 202.093 196.614C202.121 196.476 202.176 196.311 202.203 196.174C203.717 197.878 205.368 199.473 207.129 200.93C207.129 201.095 207.101 201.287 207.074 201.452C206.964 202.112 206.826 202.745 206.661 203.377C206.331 204.642 205.918 205.879 205.533 207.143C205.285 207.941 205.065 208.738 204.817 209.535C203.111 207.776 201.515 205.879 200.057 203.927L200.029 203.899ZM204.24 189.191C204.377 189.575 204.515 189.96 204.625 190.345C204.184 189.933 203.744 189.52 203.276 189.108C203.304 188.558 203.331 187.981 203.331 187.431C203.882 187.541 204.047 188.751 204.212 189.191H204.24ZM202.561 188.063C202.561 188.063 202.561 188.311 202.561 188.448C202.506 188.421 202.478 188.366 202.423 188.338C202.423 188.283 202.478 188.228 202.506 188.173C202.506 188.146 202.533 188.091 202.561 188.063ZM202.121 188.833C202.121 188.833 202.368 189.053 202.506 189.163C202.368 190.978 202.121 192.792 201.735 194.579C201.047 193.727 200.415 192.847 199.809 191.94C199.809 191.912 199.754 191.885 199.699 191.857C200.084 191.472 200.47 191.033 200.8 190.565C201.213 189.96 201.708 189.438 202.121 188.806V188.833ZM183.353 181.493C183.739 179.156 184.151 176.846 184.537 174.509C184.757 173.217 184.894 171.87 185.252 170.578C185.61 169.313 186.215 168.103 186.848 166.921C187.536 165.629 188.307 164.337 189.215 163.155C189.6 162.66 190.068 161.972 190.591 161.615C191.113 161.23 191.966 161.67 192.434 162C193.507 162.77 194.14 163.979 194.718 165.162C195.296 166.344 195.874 167.526 196.452 168.708C198.763 173.437 200.332 178.743 200.717 184.022C200.855 185.891 200.827 187.761 200.525 189.603C199.754 191.005 198.598 192.16 197.25 193.04C194.223 194.964 190.563 195.156 187.123 194.579C187.041 194.387 186.628 194.359 186.435 194.442C186.16 194.387 185.885 194.332 185.61 194.249C185.307 194.167 185.004 194.084 184.674 194.002C184.674 193.974 184.647 193.919 184.592 193.864C182.913 192.572 182.363 190.4 182.39 188.366C182.418 186.056 182.968 183.747 183.353 181.465V181.493ZM182.5 193.617C182.17 194.332 181.867 195.047 181.51 195.734C181.289 194.909 181.097 194.084 180.932 193.259C181.51 193.232 182.005 193.397 182.5 193.617ZM179.831 194.524C179.941 194.084 179.996 193.754 180.216 193.534C180.464 194.634 180.739 195.734 181.014 196.806C180.134 198.621 179.198 200.38 178.18 202.14C178.675 199.583 179.253 197.054 179.831 194.524ZM177.932 203.487C178.097 203.487 178.29 203.487 178.345 203.377C179.391 201.59 180.381 199.775 181.289 197.933C182.005 200.49 182.803 203.019 183.739 205.494C183.353 206.236 182.996 207.006 182.61 207.748C181.757 209.425 180.877 211.13 180.024 212.807C179.088 211.075 178.207 209.343 177.299 207.611C177.299 207.583 177.244 207.556 177.217 207.528C177.437 206.181 177.657 204.862 177.932 203.514V203.487ZM176.199 216.903C176.226 215.199 176.446 213.467 176.639 211.79C176.749 210.745 176.914 209.7 177.052 208.656C177.905 210.305 178.758 211.927 179.638 213.577C178.785 215.254 177.932 216.931 177.052 218.635C176.804 218.113 176.556 217.591 176.336 217.068C176.336 217.013 176.254 216.958 176.199 216.931V216.903ZM176.309 219.515C176.281 219.185 176.254 218.855 176.226 218.526C176.364 218.828 176.529 219.103 176.666 219.405C176.556 219.598 176.474 219.79 176.364 220.01C176.364 219.845 176.309 219.708 176.309 219.543V219.515ZM181.812 226.746C181.179 226.416 180.574 226.059 179.969 225.646C178.152 224.437 177.024 222.787 176.529 220.78C176.666 220.78 176.804 220.752 176.859 220.642C176.942 220.478 177.024 220.313 177.107 220.175C178.428 222.485 180.051 224.574 181.95 226.444C181.895 226.553 181.867 226.636 181.812 226.746ZM177.492 219.433C178.345 217.728 179.226 216.051 180.079 214.347C181.427 216.766 182.858 219.13 184.426 221.412C183.683 222.897 182.968 224.382 182.225 225.894C180.354 223.969 178.758 221.797 177.492 219.433ZM182.473 227.103C182.473 227.103 182.473 227.048 182.5 227.021C182.583 227.076 182.638 227.158 182.72 227.213C182.638 227.186 182.555 227.131 182.473 227.103ZM189.958 229C188.059 228.945 186.215 228.56 184.399 227.901C183.849 227.433 183.298 226.938 182.775 226.444C183.491 225.014 184.206 223.557 184.922 222.1C186.518 224.299 188.251 226.389 190.233 228.313C190.15 228.533 190.04 228.78 189.958 229ZM190.508 227.708C188.582 225.784 186.848 223.667 185.28 221.44C186.27 219.433 187.261 217.398 188.224 215.364C189.27 217.288 190.398 219.158 191.609 220.972C191.939 221.467 192.269 221.962 192.627 222.43C191.939 224.189 191.223 225.976 190.48 227.736L190.508 227.708ZM190.783 229.028C190.783 229.028 190.811 228.945 190.838 228.89C190.893 228.945 190.921 228.973 190.976 229.028C190.921 229.028 190.838 229.028 190.783 229.028ZM195.186 228.368C194.058 228.698 192.93 228.89 191.801 229C191.554 228.78 191.306 228.56 191.086 228.313C191.801 226.608 192.489 224.904 193.177 223.172C194.361 224.766 195.599 226.279 196.92 227.736C196.369 227.983 195.791 228.176 195.186 228.368ZM199.589 225.041C199.286 225.866 199.066 226.636 198.241 227.103C197.993 227.241 197.773 227.351 197.525 227.461C196.067 225.839 194.718 224.162 193.452 222.402C194.663 219.295 195.819 216.189 196.947 213.027C197.663 214.044 198.406 215.061 199.176 216.051C200.002 217.123 200.855 218.141 201.708 219.158C201.57 219.515 201.46 219.873 201.323 220.23C200.965 221.275 200.58 222.32 200.222 223.364C200.029 223.914 199.809 224.492 199.616 225.041H199.589ZM200.139 225.894C200.249 225.591 200.332 225.261 200.442 224.986C200.69 224.354 200.91 223.722 201.13 223.062C201.515 221.99 201.9 220.917 202.258 219.845C202.754 220.423 203.276 220.972 203.827 221.55C203.909 221.632 204.102 221.66 204.267 221.66C203.139 223.309 201.735 224.739 200.139 225.921V225.894ZM205.698 219.185C205.34 219.928 204.927 220.642 204.46 221.302C203.799 220.587 203.139 219.873 202.506 219.13C202.891 218.031 203.249 216.903 203.634 215.776C204.184 214.127 204.707 212.477 205.23 210.827C205.946 211.515 206.661 212.202 207.404 212.834C207.487 212.889 207.624 212.917 207.789 212.917C207.404 215.034 206.716 217.123 205.726 219.158L205.698 219.185ZM205.423 210.168C205.615 209.508 205.836 208.848 206.028 208.188C206.413 206.951 206.771 205.686 207.129 204.422C207.349 203.624 207.597 202.855 207.762 202.057C208.312 205.521 208.45 209.04 207.872 212.45C207.046 211.707 206.221 210.937 205.45 210.14L205.423 210.168Z" fill="#4B575E"/>
    <path d="M165.054 90.2433C165.054 90.7382 165.054 91.2056 165.054 91.7005C165.054 92.8277 165.026 93.9549 164.998 95.0821C164.916 100.416 164.806 105.749 164.586 111.083C164.586 111.578 164.558 112.073 164.531 112.54C164.228 119.001 163.76 125.434 162.907 131.813C162.852 132.308 162.77 132.802 162.714 133.27C162.302 136.157 161.834 139.016 161.284 141.875C149.946 141.298 138.581 141.16 127.244 141.49C127.244 138.988 127.244 136.487 127.244 134.012C127.244 133.517 127.244 133.05 127.244 132.555C127.244 126.039 127.299 119.496 127.299 112.98C127.299 112.485 127.299 112.018 127.299 111.523C127.299 105.09 127.354 98.6837 127.354 92.2503C127.354 91.7554 127.354 91.2881 127.354 90.7932C127.354 90.3533 127.354 89.8859 127.354 89.446C127.354 84.3049 127.381 79.1362 127.684 74.0225C127.684 73.5276 127.739 73.0327 127.766 72.5654C128.124 67.2317 128.785 61.9531 130.023 56.7569C130.078 56.5095 130.161 56.262 130.216 56.0146C130.353 55.4922 130.491 54.9699 130.628 54.4475C131.371 51.8357 132.362 49.3063 133.82 47.0519C134.041 46.6945 134.261 46.3921 134.481 46.0621C137.068 42.4881 139.985 41.2234 144.387 40.811C149.671 40.2886 153.964 37.0444 158.064 42.4056C158.422 42.8729 158.724 43.3678 159.027 43.8627C159.99 45.5398 160.568 47.4368 161.091 49.3063C161.449 50.5435 161.751 51.8082 162.054 53.0453C162.164 53.5402 162.274 54.0076 162.384 54.5025C163.568 60.0835 164.256 65.7746 164.641 71.4931C164.668 71.988 164.696 72.4554 164.723 72.9503C165.054 78.6963 165.081 84.4698 165.026 90.2158L165.054 90.2433Z" fill="#FFFDF8"/>
    <path d="M134.316 90.6832L127.409 90.7932C127.409 91.2881 127.409 91.7555 127.409 92.2503C136.352 92.1129 145.323 91.9754 154.266 91.8379C157.871 91.7829 161.476 91.728 165.081 91.673C165.081 91.1781 165.081 90.7107 165.081 90.2158C154.817 90.3808 144.58 90.5183 134.316 90.6832ZM164.778 72.9503C164.778 72.4554 164.723 71.988 164.696 71.4931C152.891 71.823 141.113 72.1805 129.308 72.5104C128.812 72.5104 128.317 72.5379 127.822 72.5379C127.794 73.0327 127.766 73.5001 127.739 73.995C135.224 73.775 142.736 73.5826 150.221 73.3627C155.064 73.2252 159.935 73.0877 164.778 72.9503ZM132.307 111.605C130.656 111.605 128.977 111.55 127.326 111.523C127.326 112.018 127.326 112.485 127.326 112.98C135.664 113.172 144.03 113.145 152.368 112.925C156.413 112.815 160.486 112.705 164.531 112.54C164.531 112.045 164.586 111.55 164.586 111.083C153.826 111.495 143.067 111.743 132.307 111.605ZM127.271 132.555C127.271 133.05 127.271 133.517 127.271 134.012C133.82 133.82 140.397 133.627 146.947 133.49C152.203 133.38 157.459 133.297 162.714 133.27C162.77 132.775 162.852 132.308 162.907 131.813C151.129 131.84 139.352 132.198 127.574 132.555C127.464 132.555 127.354 132.555 127.244 132.555H127.271ZM143.452 54.8049C149.781 54.6124 156.138 54.6949 162.467 54.5025C162.357 54.0076 162.247 53.5127 162.137 53.0453C156.688 53.1828 151.267 53.1828 145.818 53.2928C142.351 53.3478 138.911 53.5127 135.444 53.8701C133.848 54.0351 132.279 54.255 130.683 54.4475C130.546 54.9699 130.381 55.4922 130.271 56.0146C131.289 55.8771 132.307 55.7397 133.325 55.6297C136.682 55.1898 140.04 54.9424 143.452 54.8324V54.8049Z" fill="#63848F"/>
    <path d="M159.11 43.8627C158.394 45.0999 157.238 46.1171 156.028 46.7769C154.074 47.8767 151.845 48.2891 149.643 48.6465C146.479 49.1688 143.204 49.5537 140.095 48.8939C139.682 48.8114 139.297 48.7015 138.911 48.5915C137.315 48.0966 135.774 47.2443 134.563 46.0621C137.15 42.4881 140.067 41.2234 144.47 40.811C149.753 40.2886 154.046 37.0444 158.146 42.4056C158.504 42.8729 158.807 43.3678 159.11 43.8627Z" fill="#FCD9BA"/>
    <path d="M98.1296 147.676C98.4048 147.236 98.6249 146.769 98.9001 146.274C100.276 143.8 101.652 141.325 103 138.796C105.697 133.792 108.256 128.733 110.733 123.62C113.099 118.726 115.273 113.64 116.622 108.361C117.255 105.859 117.255 103.99 115.163 102.148C113.402 100.608 110.788 100.416 108.504 100.938C106.33 101.433 104.211 102.533 102.918 104.347C101.982 105.667 101.542 107.261 101.102 108.801C98.9001 116.801 96.6987 124.802 94.7174 132.857C93.8093 136.486 92.9562 140.198 91.4152 143.607C90.8649 144.817 90.3145 146.054 90.2319 147.374C90.2319 147.484 90.2319 147.621 90.287 147.731C90.342 147.841 90.4521 147.896 90.5346 147.979C92.7636 149.408 96.4785 150.398 98.1296 147.676Z" fill="#FCD9BA"/>
    <path d="M120.887 87.6589C120.447 93.1026 120.061 98.5736 119.676 104.017C119.484 106.794 119.291 109.571 119.071 112.348C118.906 114.465 118.988 116.472 117.447 118.121C117.255 118.314 117.034 118.506 116.759 118.561C116.457 118.644 116.126 118.534 115.824 118.396C113.677 117.461 112.907 115.537 111.476 113.915C110.237 112.513 108.256 112.128 106.412 112.045C104.624 111.963 103.083 112.155 101.459 112.87C100.551 113.282 99.8357 113.172 99.4229 112.128C98.9 110.836 99.2027 109.351 99.7256 108.059C100.276 106.767 101.046 105.584 101.542 104.292C102.175 102.615 102.34 100.773 102.257 98.9585C102.147 96.8416 101.762 94.5872 102.725 92.6902C103.193 91.7829 103.936 91.0406 104.459 90.1333C106.082 87.2465 104.899 83.8099 105.449 80.7032C105.752 79.0536 106.357 77.514 106.66 75.8645C107.018 73.9125 107.376 71.9605 107.761 70.0085C108.807 64.6748 109.55 57.7741 112.687 53.1553C114.888 49.9111 118.658 44.8799 123.199 46.0346C123.501 46.1171 123.831 46.2545 124.024 46.502C124.244 46.8319 124.217 47.2718 124.189 47.6567C123.721 52.4679 123.309 57.2517 122.868 62.063C122.566 65.6371 122.786 69.0187 122.373 72.6203C121.795 77.5965 121.327 82.6277 120.915 87.6314L120.887 87.6589Z" fill="#99A558"/>
    <path d="M116.732 110.258C116.264 126.149 116.815 142.123 115.934 157.958C115.962 157.958 115.989 157.958 116.017 157.958H133.766C133.27 151.58 133.408 145.147 133.711 138.768C134.124 129.723 134.316 120.678 134.619 111.633C134.922 102.45 135.224 93.2675 135.527 84.0849C135.83 75.1222 136.325 66.1594 136.408 57.1967C136.408 54.6949 136.352 52.2205 136.573 49.7461C136.765 47.6292 136.132 45.3748 137.398 43.4503C138.251 42.1031 139.792 41.3883 141.333 40.9484C144.746 39.9587 148.213 39.1614 151.79 38.9414C152.753 38.8864 153.771 38.8589 154.624 39.3263C155.423 39.7662 155.973 40.5635 156.413 41.3608C158.697 45.4023 158.972 49.9936 159.027 54.5299C159.082 61.4032 159.688 68.4139 159.303 75.2046C158.725 86.0094 157.899 96.7866 157.294 107.591C156.688 118.314 156.083 129.146 156.771 139.896C157.074 144.734 157.596 149.628 157.101 154.494C156.991 155.677 156.853 156.859 156.716 158.013H176.336C176.281 157.519 175.758 157.024 175.621 156.501C175.428 155.649 175.318 154.742 175.263 153.835C175.125 151.828 175.236 149.738 175.153 147.841C173.942 121.943 173.007 95.6869 178.868 70.4209C179.804 66.4069 181.317 61.2657 181.262 56.6194C181.207 53.6776 180.436 51.1208 178.675 48.7839C176.997 46.557 174.08 45.3473 171.603 44.1376C165.989 41.3883 159.991 39.4363 153.854 38.3641C152.203 38.0891 150.414 37.4293 148.791 37.3193C147.497 37.2368 145.901 37.7042 144.635 37.9517C141.388 38.584 138.279 39.7112 135.169 40.8384L121.548 45.7322C120.585 46.0896 119.594 46.4195 118.796 47.0518C116.484 48.7839 116.567 51.4232 115.851 53.9251C115.026 56.8118 115.136 59.3137 115.521 62.3379C117.53 78.2564 117.2 94.3672 116.732 110.368V110.258Z" fill="#99A558"/>
    <path d="M154.597 41.8557C154.267 42.2681 153.771 42.543 153.304 42.7905C149.148 44.9624 144.278 45.8697 139.6 45.3198C139.352 45.2923 139.077 45.2373 138.884 45.0724C138.719 44.9349 138.636 44.6875 138.554 44.4675C138.141 43.2028 137.673 41.9107 137.233 40.646C136.407 38.2541 135.637 35.8072 135.279 33.3329C135.279 33.3054 135.279 33.2504 135.279 33.2229C135.169 32.4806 135.142 31.7658 135.252 31.0235C135.692 27.8343 138.169 25.195 140.783 23.4354C142.104 22.5556 143.204 22.0058 144.773 22.7756C146.699 23.7103 148.13 24.8375 149.066 26.7621C150.139 28.9615 151.212 31.1609 152.23 33.3879C152.726 34.4876 153.221 35.6148 153.716 36.742C154.129 37.6768 154.845 38.5015 155.065 39.4913C155.257 40.2886 155.175 41.1959 154.652 41.8557H154.597Z" fill="#FCD9BA"/>
    <path d="M140.067 38.8314C139.737 39.2438 139.379 39.6562 138.939 39.9861C138.692 40.1511 138.416 40.3161 138.141 40.426C137.838 40.5635 137.536 40.646 137.233 40.6735C136.408 38.2816 135.637 35.8347 135.279 33.3603C135.499 33.1129 135.802 32.9205 136.27 32.6455C137.728 31.7658 139.6 30.5836 141.251 31.6833C143.727 33.3054 141.388 37.2094 140.067 38.8314Z" fill="#E6C1A0"/>
    <path d="M125.345 15.6274C125.345 15.6274 125.317 15.7373 125.29 15.7923C125.18 16.2047 125.29 16.7821 125.262 17.222C125.207 17.7718 125.207 18.3492 125.262 18.899C125.373 19.9163 126.171 20.7411 126.281 21.7583C126.336 22.2257 126.115 22.6381 125.978 23.078C125.813 23.6003 125.648 24.0952 125.428 24.5901C125.015 25.6073 124.519 26.5971 123.969 27.5318C123.584 28.1916 123.144 28.9065 123.281 29.6488C123.501 30.8585 124.85 31.0509 125.813 31.2709C126.886 31.5458 127.271 32.838 127.519 33.7452C127.849 34.9824 127.959 36.2471 128.344 37.4843C128.812 39.0239 129.665 40.2611 131.399 40.2061C133.876 40.1511 136.27 39.2988 138.334 37.9517C139.957 36.9069 141.361 35.5598 142.516 34.0751C143.534 32.783 145.131 31.6558 145.681 30.0612C146.259 28.4116 147.772 28.4391 149.093 27.4768C150.441 26.4596 151.295 24.6176 151.735 23.078C152.258 21.3459 152.395 19.5314 152.56 17.7443C152.698 15.9573 152.863 14.1152 152.258 12.4382C151.57 10.4587 149.919 8.89159 148.047 7.87435C146.176 6.85711 144.085 6.33474 141.993 5.92235C139.709 5.45497 137.618 5.07006 135.307 5.50995C133.683 5.81237 132.225 6.41722 130.684 7.02206C129.253 7.57192 128.234 8.78161 127.409 10.0463C126.336 11.7509 125.758 13.6754 125.235 15.6274H125.345Z" fill="#FCD9BA"/>
    <path d="M153.579 27.6968C153.001 28.9615 152.313 30.1712 151.075 30.9135C150.194 31.4633 149.286 31.2434 148.405 30.8035C147.525 30.3361 146.672 29.7863 145.929 29.1264C144.966 28.3017 144.14 27.3394 143.204 26.4871C142.351 25.7173 141.196 25.6073 140.205 25.03C136.848 23.0505 137.838 18.5416 135.582 15.7099C134.619 14.5002 133.16 13.6754 131.619 13.4829C130.216 13.318 128.757 13.6204 127.437 13.098C124.685 12.0258 122.814 8.5617 125.4 6.36226C126.253 5.61995 127.271 5.0426 128.317 4.68519C129.225 4.35527 130.188 4.19032 131.041 3.69544C132.335 2.98063 133.243 1.60598 134.619 1.02862C135.389 0.698709 136.215 0.671216 137.04 0.61623C138.389 0.533751 139.765 0.478765 141.058 0.918653C141.966 1.24857 142.764 1.82592 143.672 2.23832C145.736 3.14558 148.378 3.11809 149.864 4.82265C151.047 6.1973 151.047 8.1768 151.625 9.88136C152.285 11.8609 153.716 13.4554 154.845 15.1875C155.973 16.9471 156.798 19.119 156.083 21.071C155.698 22.1432 154.9 22.9955 154.514 24.0402C154.074 25.2224 154.129 26.5146 153.606 27.6693L153.579 27.6968Z" fill="#553A12"/>
    <path d="M126.501 19.7788C126.501 19.7788 126.528 19.5864 126.584 19.5039C126.914 18.7891 128.014 18.8716 128.647 18.8716C129.5 18.8716 130.298 19.2015 131.041 19.5589C131.757 19.9163 132.5 20.3837 132.748 21.1535C132.748 21.2085 132.748 21.2359 132.748 21.2909C132.638 21.5109 131.537 20.9335 131.372 20.8785C131.124 20.7686 130.849 20.7136 130.601 20.6586C129.638 20.4661 128.62 20.3562 127.657 20.5211C127.437 20.5486 127.216 20.6036 127.024 20.5486C126.666 20.4661 126.501 20.1087 126.528 19.7513L126.501 19.7788Z" fill="#553A12"/>
    <path d="M136.435 25.8548C136.435 25.8548 136.435 25.7998 136.435 25.7723C135.94 23.4354 137.701 19.009 140.728 20.1637C141.801 20.5761 142.544 21.5933 142.764 22.7206C143.177 24.8925 141.608 28.5766 139.077 28.769C137.536 28.879 136.738 27.1469 136.435 25.8822V25.8548Z" fill="#FCD9BA"/>
    <path d="M129.748 23.6278C129.693 23.3529 129.61 23.078 129.445 22.9405C129.335 22.858 129.17 22.803 129.005 22.803C128.537 22.803 128.262 23.078 128.179 23.4629C128.152 23.7103 128.179 23.9577 128.234 24.2052C128.289 24.4526 128.372 24.7275 128.509 24.9475C128.592 25.0575 128.675 25.1674 128.812 25.2224C129.418 25.4699 129.72 25.0575 129.748 24.5626C129.748 24.3426 129.775 23.9577 129.748 23.6003V23.6278Z" fill="#553A12"/>
    <path d="M131.812 10.5412C130.794 10.5412 129.748 10.5687 128.84 10.0463C127.959 9.55142 127.657 8.61666 127.437 7.68189C127.382 7.48944 126.859 7.51694 126.914 7.68189C127.024 8.20426 127.161 8.72663 127.437 9.19401C127.684 9.6339 128.069 9.9913 128.51 10.2662C129.528 10.8436 130.739 10.8436 131.867 10.8161C131.95 10.8161 132.142 10.7611 132.115 10.6511C132.115 10.5412 131.922 10.5137 131.839 10.5137L131.812 10.5412Z" fill="#412409"/>
    <path d="M135.554 6.77463C135.554 6.77463 135.307 6.66466 135.224 6.69215C134.646 6.80212 134.013 6.82961 133.491 6.58218C133.023 6.36223 132.665 5.94984 132.582 5.45497C132.555 5.26251 132.032 5.29001 132.06 5.45497C132.142 6.05981 132.61 6.55468 133.16 6.80212C133.848 7.10454 134.646 7.07705 135.389 6.96708C135.472 6.96708 135.609 6.8846 135.554 6.77463Z" fill="#412409"/>
    <path d="M153.689 16.1772C153.606 16.0123 153.084 16.0672 153.166 16.2872C153.937 17.9368 153.772 19.9437 152.753 21.4834C152.698 21.5933 152.891 21.6483 152.946 21.6483C153.056 21.6483 153.194 21.6483 153.276 21.5383C154.322 19.9712 154.46 17.9093 153.689 16.2047V16.1772Z" fill="#412409"/>
    <path d="M149.314 17.3869C149.204 17.2219 148.681 17.3044 148.791 17.4969C149.616 18.7341 148.626 20.1087 147.855 21.071C147.69 21.2634 148.213 21.3459 148.323 21.2084C148.791 20.6586 149.259 20.0537 149.479 19.3664C149.699 18.7341 149.671 17.9918 149.314 17.4144V17.3869Z" fill="#412409"/>
    <path d="M129.5 33.0304C129.362 32.7005 129.28 32.2057 129.555 31.9857C129.885 31.7383 130.491 31.7108 130.876 31.4359C131.261 31.1609 131.564 30.8035 131.922 30.5286C132.72 29.9237 133.132 30.4461 133.022 31.2709C132.94 31.8482 132.555 32.3706 132.169 32.783C131.481 33.4978 130.05 34.3501 129.472 33.0304H129.5Z" fill="#E9B8A2"/>
    <path d="M193.26 156.501C193.039 155.979 192.792 155.484 192.489 155.017C191.994 154.192 191.306 153.477 190.425 153.065C189.545 152.652 188.499 152.57 187.646 152.982C187.233 153.175 186.903 153.477 186.573 153.78C184.867 155.347 183.931 157.711 183.683 159.993C183.463 162.11 183.573 164.612 184.509 166.536C184.619 166.784 184.949 167.224 185.142 166.839C185.197 166.729 185.114 166.509 185.142 166.399C185.197 165.767 185.692 165.134 186.325 165.739C186.6 166.014 186.683 166.426 186.628 166.784C186.545 167.334 186.27 167.664 185.995 168.103C185.967 168.158 185.912 168.213 185.912 168.296C185.885 168.433 185.967 168.598 186.077 168.681C186.325 168.873 186.71 169.176 187.013 169.203C187.894 169.286 188.774 168.406 189.159 167.691C189.159 167.993 189.38 168.241 189.655 168.323C189.93 168.406 190.233 168.323 190.508 168.213C191.223 167.911 191.774 167.251 191.939 166.481C192.407 166.784 193.039 166.784 193.507 166.481C193.975 166.179 194.25 165.629 194.195 165.079C194.195 165.134 194.718 164.832 194.773 164.777C194.966 164.612 195.103 164.392 195.186 164.144C195.323 163.705 195.351 163.1 195.351 162.632C195.351 161.285 194.911 159.993 194.36 158.783C194.003 158.041 193.7 157.271 193.37 156.501H193.26Z" fill="#FCD9BA"/>
    <path d="M191.856 157.381C193.177 154 192.627 149.601 192.737 145.972C192.847 141.82 192.902 137.669 192.93 133.517C193.012 125.214 192.93 116.884 192.764 108.581C192.654 103.44 186.958 104.732 183.546 105.749C182.06 106.189 179.968 106.822 179.253 108.361C178.565 109.846 179.198 112.375 179.336 113.97C180.024 120.843 180.739 127.744 181.427 134.617C181.895 139.373 182.39 144.157 183.133 148.886C183.518 151.25 183.959 153.587 184.481 155.924C184.894 157.684 184.784 159.388 186.848 159.828C188.774 160.213 191.113 159.333 191.884 157.409L191.856 157.381Z" fill="#FCD9BA"/>
    <path d="M186.435 165.794C185.913 164.804 184.949 163.952 185.004 162.742C185.004 162.55 184.482 162.55 184.482 162.742C184.454 163.952 185.335 164.804 185.885 165.767C186.023 165.986 186.133 166.261 186.16 166.509C186.188 166.756 186.16 167.004 186.078 167.251C185.913 167.719 185.665 168.158 185.775 168.653C185.802 168.846 186.353 168.846 186.298 168.653C186.188 168.131 186.463 167.691 186.6 167.224C186.738 166.729 186.683 166.261 186.435 165.794Z" fill="#C6AE8A"/>
    <path d="M174.052 87.659C174.052 89.3086 174.052 90.9581 174.107 92.6077C174.217 95.6319 174.768 98.6287 175.703 101.515C176.116 102.753 176.694 103.935 176.997 105.199C177.685 108.196 176.611 111.193 176.556 114.162C176.556 115.234 176.501 117.489 177.575 118.176C178.263 118.616 179.996 118.341 180.794 118.259C183.629 118.011 186.463 117.764 189.297 117.516C190.811 117.379 193.315 118.149 194.526 116.966C195.957 115.564 195.819 112.403 195.241 110.698C194.938 109.818 194.471 109.021 194.251 108.114C193.37 104.815 195.654 101.076 194.14 98.0238C193.783 97.2815 193.205 96.6492 192.765 95.9344C191.664 94.1473 191.526 92.0029 191.416 89.9684C191.306 88.0989 191.058 86.2293 190.948 84.3873C190.673 79.631 189.352 74.7098 188.444 70.036C187.399 64.7023 186.656 57.8016 183.518 53.1828C181.317 49.9386 177.547 44.9074 173.007 46.0621C172.704 46.1446 172.374 46.2821 172.181 46.5295C171.961 46.8594 171.988 47.2993 172.016 47.6842C172.484 52.4955 172.896 57.2793 173.337 62.0905C173.639 65.6646 173.419 69.0462 173.832 72.6478C174.41 77.5965 174.162 82.6278 174.08 87.659H174.052Z" fill="#99A558"/>
    <path d="M130.959 57.9115C131.371 57.5816 131.812 57.2517 132.225 56.9218C133.078 56.262 133.931 55.6296 134.756 54.9698C134.866 54.8873 134.756 54.8048 134.674 54.7773C133.49 54.3375 132.307 53.9251 131.151 53.4852C130.546 53.2652 129.941 53.0453 129.363 52.8253C129.115 52.7429 128.84 52.6329 128.592 52.5504C128.344 52.4679 128.152 52.3305 128.179 52.028C128.207 51.7531 128.4 51.4782 128.51 51.2308C128.647 50.9558 128.785 50.6534 128.922 50.3785C129.198 49.8561 129.445 49.3337 129.72 48.8389C130.271 47.7941 130.876 46.7494 131.482 45.7322C132.17 44.5775 132.885 43.4502 133.6 42.323C133.711 42.1581 133.188 42.0756 133.078 42.2406C131.702 44.3025 130.436 46.447 129.28 48.6189C129.005 49.1413 128.702 49.6911 128.427 50.241C128.289 50.5159 128.152 50.8184 128.014 51.0933C127.877 51.3407 127.739 51.6157 127.657 51.8906C127.491 52.4679 127.987 52.6879 128.427 52.8528C129.032 53.0728 129.638 53.2927 130.271 53.5402C131.564 54.0075 132.885 54.5024 134.178 54.9698C133.463 55.5197 132.747 56.0695 132.032 56.6194C131.647 56.9218 131.261 57.1967 130.876 57.4992C130.518 57.7741 130.133 58.0215 129.83 58.3239C129.528 58.5989 129.363 58.9288 129.335 59.3412C129.308 59.7811 129.418 60.221 129.5 60.6608C129.693 61.5956 129.858 62.5304 130.051 63.4651C130.821 67.2317 131.647 70.9707 132.555 74.7097C133.05 76.7992 133.573 78.8612 134.123 80.9232C134.178 81.0881 134.701 81.0606 134.646 80.8407C133.683 77.1841 132.802 73.5001 131.949 69.816C131.537 67.974 131.124 66.1044 130.739 64.2349C130.546 63.3277 130.353 62.3929 130.188 61.4856C130.106 61.0182 129.996 60.5784 129.913 60.111C129.83 59.6986 129.775 59.2587 129.968 58.8738C130.188 58.4614 130.629 58.1865 130.959 57.9115Z" fill="#495E22"/>
    <path d="M165.741 56.2895C165.356 55.9596 164.916 55.6571 164.503 55.3547C163.677 54.7499 162.824 54.1725 161.944 53.6501C162.714 52.8803 163.485 52.138 164.255 51.3682C164.64 50.9833 165.026 50.5984 165.411 50.2135C165.769 49.8561 166.154 49.5262 166.484 49.1138C166.759 48.7564 166.924 48.3715 166.842 47.9041C166.732 47.4092 166.457 46.9968 166.209 46.557C165.686 45.6222 165.136 44.7149 164.558 43.8077C163.925 42.7904 163.237 41.8007 162.549 40.8384C162.467 40.7285 162.329 40.7285 162.219 40.7285C162.164 40.7285 161.971 40.8109 162.026 40.9209C163.237 42.598 164.365 44.33 165.411 46.1446C165.659 46.5845 165.961 47.0243 166.154 47.4917C166.374 47.9591 166.402 48.399 166.126 48.8389C165.879 49.2238 165.494 49.5262 165.191 49.8561C164.806 50.241 164.42 50.6259 164.035 51.0108C163.154 51.8631 162.301 52.7429 161.421 53.5952C161.366 53.6501 161.421 53.7326 161.476 53.7601C162.301 54.255 163.072 54.8049 163.87 55.3547C164.255 55.6296 164.613 55.9046 164.998 56.1795C165.301 56.4269 165.631 56.6469 165.879 56.9768C166.484 57.7466 166.209 58.7089 165.989 59.5611L165.273 62.3929C164.31 66.2144 163.347 70.036 162.384 73.885L160.76 80.3183C160.705 80.5383 161.228 80.5658 161.283 80.4008C162.274 76.4968 163.265 72.5928 164.228 68.6888C164.723 66.7368 165.218 64.7848 165.714 62.8603C165.961 61.8705 166.209 60.9083 166.457 59.9185C166.677 59.0938 167.035 58.1315 166.649 57.2792C166.484 56.8943 166.154 56.5644 165.824 56.2895H165.741Z" fill="#495E22"/>
    <path d="M115.356 74.6548C113.484 72.0704 112.053 69.1562 111.118 66.1045C110.843 65.2247 110.622 64.3449 110.457 63.4377C110.43 63.2177 109.879 63.2452 109.935 63.4377C110.567 66.5993 111.723 69.6511 113.347 72.4553C113.815 73.2526 114.31 73.995 114.833 74.7373C114.915 74.8472 115.053 74.8472 115.163 74.8472C115.218 74.8472 115.411 74.7648 115.356 74.6548Z" fill="#495E22"/>
    <path d="M117.172 103.082C117.117 98.2437 117.117 93.4324 117.172 88.5937C117.199 85.8719 117.254 83.1501 117.337 80.4283C117.337 80.2358 116.814 80.2358 116.814 80.4283C116.704 85.267 116.622 90.1333 116.622 94.9995C116.622 99.8383 116.677 104.65 116.787 109.488C116.842 112.21 116.924 114.932 117.034 117.654C117.034 117.846 117.585 117.846 117.557 117.654C117.365 112.815 117.254 107.949 117.199 103.11L117.172 103.082Z" fill="#495E22"/>
    <path d="M185.912 64.1249C185.72 65.2247 185.252 66.2694 184.756 67.2591C184.206 68.3314 183.628 69.3486 183.078 70.4208C181.895 72.5928 180.739 74.7647 179.556 76.9367C178.895 78.1464 178.235 79.3835 177.574 80.5932C177.464 80.7857 177.987 80.8407 178.097 80.6757L181.619 74.1324C182.775 71.9604 183.958 69.816 185.114 67.644C185.692 66.5443 186.215 65.3896 186.435 64.1524C186.463 63.96 185.94 63.9325 185.912 64.1524V64.1249Z" fill="#495E22"/>
    <path d="M191.691 107.729C190.177 107.619 188.719 108.004 187.233 108.169C185.747 108.306 184.261 108.114 182.83 107.784C182.004 107.591 181.179 107.371 180.353 107.151C180.243 107.124 180.078 107.124 179.996 107.206C179.913 107.289 179.996 107.371 180.078 107.399C181.537 107.784 183.023 108.196 184.509 108.361C185.252 108.444 186.022 108.499 186.793 108.471C187.536 108.444 188.279 108.306 189.022 108.196C189.847 108.059 190.7 107.921 191.526 108.004C191.636 108.004 191.801 108.004 191.856 107.894C191.911 107.784 191.746 107.729 191.663 107.701L191.691 107.729Z" fill="#495E22"/>
    <path d="M187.563 95.5494C186.05 96.5667 184.481 97.5014 182.858 98.3812C182.748 98.4362 182.775 98.5187 182.858 98.6012C182.968 98.6561 183.133 98.6561 183.243 98.6012C184.867 97.7489 186.435 96.8141 187.949 95.7694C188.196 95.6044 187.728 95.467 187.563 95.5494Z" fill="#495E22"/>
    <path d="M112.109 107.784C110.155 105.777 107.265 104.76 104.486 104.952C103.688 105.007 102.918 105.144 102.147 105.392C102.064 105.419 101.982 105.502 102.064 105.584C102.147 105.667 102.34 105.667 102.422 105.639C104.899 104.815 107.678 105.199 109.907 106.547C110.54 106.932 111.118 107.399 111.641 107.921C111.778 108.059 112.274 107.949 112.109 107.784Z" fill="#495E22"/>
    <path d="M110.65 93.7349C110.265 93.4875 109.88 93.2675 109.467 93.0751C108.669 92.6627 107.843 92.2778 107.018 91.9754C106.908 91.9479 106.743 91.9479 106.66 92.0303C106.578 92.1128 106.66 92.1953 106.743 92.2228C107.513 92.5252 108.256 92.8551 108.972 93.2125C109.329 93.405 109.687 93.5975 110.017 93.7899C110.293 93.9549 110.76 94.1473 110.788 94.5047C110.815 94.6972 111.338 94.6972 111.311 94.5047C111.256 94.1198 110.925 93.8999 110.623 93.7349H110.65Z" fill="#495E22"/>
    <path d="M132.417 92.3327C132.417 92.3327 132.334 92.3327 132.307 92.3327C132.114 92.2777 131.921 92.2502 131.701 92.2502C131.178 92.2777 130.821 92.5527 130.766 93.075C130.711 93.5149 130.766 93.9548 131.151 94.2572C131.564 94.5597 132.197 94.5871 132.637 94.3397C132.967 94.1473 133.132 93.7624 133.132 93.3775C133.132 92.8826 132.857 92.4977 132.389 92.3602L132.417 92.3327Z" fill="#495E22"/>
    <path d="M131.234 107.481C131.234 107.481 131.151 107.481 131.124 107.481C130.931 107.426 130.738 107.399 130.518 107.399C129.995 107.426 129.638 107.701 129.583 108.224C129.527 108.664 129.583 109.103 129.968 109.406C130.381 109.708 131.013 109.736 131.481 109.488C131.811 109.296 131.977 108.911 131.977 108.526C131.977 108.031 131.701 107.646 131.234 107.509V107.481Z" fill="#495E22"/>
    <path d="M131.234 122.657C131.234 122.657 131.151 122.657 131.124 122.657C130.931 122.603 130.738 122.575 130.518 122.575C129.995 122.603 129.638 122.877 129.583 123.4C129.527 123.84 129.583 124.28 129.968 124.582C130.381 124.884 131.013 124.912 131.481 124.664C131.811 124.472 131.977 124.087 131.977 123.702C131.977 123.207 131.701 122.822 131.234 122.685V122.657Z" fill="#495E22"/>
    <path d="M131.234 137.806C131.234 137.806 131.151 137.806 131.124 137.806C130.931 137.751 130.738 137.724 130.518 137.724C129.995 137.751 129.638 138.026 129.583 138.548C129.527 138.988 129.583 139.428 129.968 139.731C130.381 140.033 131.013 140.061 131.481 139.813C131.811 139.621 131.977 139.236 131.977 138.851C131.977 138.356 131.701 137.971 131.234 137.834V137.806Z" fill="#495E22"/>
  </g>
  <defs>
    <clipPath id="clip0_121_207">
      <rect width="209" height="303" fill="white" transform="translate(0 0.588745)"/>
    </clipPath>
  </defs>
</svg>
