<svg width="109" height="171" viewBox="0 0 109 171" fill="none"
  xmlns="http://www.w3.org/2000/svg">
  <path d="M27.5367 166.731C27.4447 167.07 27.1994 167.44 26.9388 167.718C26.2334 168.505 25.7121 169.415 24.8841 170.078C24.8075 170.14 24.7462 170.186 24.6542 170.217C24.5775 170.232 24.5162 170.217 24.4395 170.186C24.3782 170.17 24.3322 170.14 24.2862 170.109C22.9829 169.384 21.6336 168.628 20.6523 167.379C20.3303 166.962 20.2076 166.638 20.2229 166.361C20.2536 165.774 20.9129 165.466 21.6182 165.25C23.3815 164.741 25.2828 164.895 26.9694 165.667C27.5214 165.929 27.6441 166.314 27.5367 166.715V166.731Z" fill="#4B575E"/>
  <path d="M27.5367 166.731C27.4447 167.07 27.1994 167.44 26.9388 167.718C26.2334 168.505 25.7121 169.415 24.8841 170.078C24.8075 170.14 24.7462 170.186 24.6542 170.217C24.5775 170.232 24.5162 170.217 24.4395 170.186C24.3782 170.17 24.3322 170.14 24.2862 170.109C22.9829 169.384 21.6336 168.628 20.6523 167.379C20.3303 166.962 20.2076 166.638 20.2229 166.361C20.2843 166.422 20.3303 166.484 20.3609 166.515C20.6676 166.839 20.9896 167.132 21.3269 167.409C22.0169 167.965 22.7835 168.397 23.5809 168.705C23.8875 168.829 24.2248 168.921 24.5315 168.829C25.0835 168.643 25.6201 168.104 26.1108 167.764C26.5248 167.471 26.9541 167.163 27.3681 166.87C27.4141 166.839 27.4754 166.792 27.5367 166.731V166.731Z" fill="#4B575E"/>
  <path d="M13.0165 78.2098C12.9858 79.783 13.0625 81.2792 13.1238 82.4978C13.9518 99.9428 15.2398 117.218 15.2398 134.71C15.3318 139.136 15.4084 143.579 15.5004 148.005C15.5618 150.952 15.5464 153.898 15.6384 156.844C15.6844 158.232 15.8071 159.636 15.7764 161.024C15.7611 162.427 15.7764 163.846 16.1904 165.204C16.2977 165.559 16.4357 165.913 16.6811 166.176C17.3097 166.87 18.3983 166.792 19.3183 166.654C21.6029 166.299 23.9029 165.867 26.2028 166.052C27.2914 166.145 28.3801 166.376 29.484 166.407C30.5727 166.438 30.036 165.466 30.036 164.741C30.0513 163.553 30.082 162.366 30.1127 161.178C30.1587 158.803 30.22 156.427 30.266 154.052C30.3733 149.301 30.4653 144.535 30.5727 139.784C30.772 130.267 30.9713 120.766 31.186 111.249C31.2473 108.488 31.3086 105.727 31.37 102.981C31.554 94.5751 31.7226 86.1534 31.186 77.7624C31.0327 75.31 30.772 72.7341 29.4227 70.6826C27.1381 67.2275 21.5876 65.9781 17.8004 67.4743C13.9211 69.0013 13.1085 73.9063 13.0318 78.2252L13.0165 78.2098Z" fill="#99A558"/>
  <path d="M44.4949 114.719C44.4949 114.827 44.4949 114.951 44.4643 115.059C44.4336 115.352 44.4183 115.645 44.3723 115.938C44.1423 117.82 43.667 119.686 43.1303 121.537C42.747 122.848 42.3177 124.144 41.9344 125.393C37.6411 139.059 33.3479 152.725 29.0394 166.391C27.6594 163.091 26.6015 159.635 25.8961 156.119C24.8535 150.921 24.5622 145.553 25.2215 140.293C25.7428 136.051 26.8775 131.902 27.5521 127.691C27.9814 125.008 28.2114 122.37 28.3034 119.748C28.3341 119.023 28.3494 118.298 28.3494 117.573C28.3801 114.719 28.2574 111.866 28.0734 108.935C27.3068 96.7037 27.3374 84.3178 24.5775 72.3793C24.1482 70.5438 23.7495 68.3689 25.0222 66.9961C25.9268 66.0244 27.3834 65.8393 28.7021 65.793C31.0327 65.7159 33.3786 65.8701 35.6785 66.2712C38.8831 66.8265 38.6378 70.1119 39.1284 72.7957C39.7571 76.22 40.3397 79.6442 40.8764 83.0684C41.9344 89.8089 42.8237 96.5803 43.529 103.382C43.9123 107.038 44.6943 111.048 44.4796 114.719H44.4949Z" fill="#99A558"/>
  <path d="M13.3078 73.8292C13.2925 73.9217 13.2772 74.0143 13.2465 74.1068C12.8478 76.2354 12.9398 78.4565 13.4918 80.5542C20.2536 78.7959 27.4141 78.5645 34.2679 79.8756C35.5712 80.1224 37.0891 80.3692 38.0704 79.4745C39.8797 77.8395 39.3891 74.1685 39.1131 72.0554C38.6531 68.5077 38.1011 64.9755 37.4571 61.4588C37.3958 61.1657 37.3345 60.8418 37.0891 60.6721C36.9205 60.5487 36.7212 60.5333 36.5218 60.5024C31.6613 59.9934 26.7088 59.9009 21.8789 60.6721C20.085 60.9497 17.4784 60.996 16.7271 62.8007C15.9144 64.775 15.4391 67.3509 14.6418 69.4641C14.1205 70.8985 13.5838 72.333 13.2772 73.8292H13.3078Z" fill="#99A558"/>
  <path d="M38.8677 74.2764C38.1931 73.3664 37.6411 72.3792 37.1658 71.3458C36.6905 70.2969 36.3072 69.2172 35.9545 68.1221C35.7552 67.5205 35.5712 66.9035 35.3872 66.302C36.0925 66.2866 36.8131 66.302 37.5185 66.3328C37.5645 66.3328 37.6718 66.3174 37.6718 66.2557C37.6718 66.194 37.5645 66.1786 37.5185 66.1786C35.0345 66.0243 32.5659 66.3328 30.0973 66.5951C30.0973 66.41 30.0973 66.2094 30.0973 66.0243C30.0973 64.8984 30.128 63.7569 30.1433 62.631C30.1433 62.523 29.852 62.523 29.852 62.631C29.8367 63.9575 29.8213 65.2994 29.806 66.6259C29.6067 66.6413 29.392 66.6722 29.1927 66.6876C28.334 66.7801 27.4754 66.8418 26.6168 66.8727C26.5708 66.1477 26.5401 65.4382 26.4941 64.7133C26.4328 63.7107 26.3561 62.7081 26.2641 61.7055C26.2641 61.5975 25.9575 61.5975 25.9728 61.7055C26.1261 63.433 26.2488 65.1452 26.3408 66.8727C25.8961 66.8881 25.4515 66.9035 25.0068 66.9035C23.5962 66.9035 22.1856 66.8727 20.7749 66.7956C19.1956 66.7184 17.601 66.6259 16.0217 66.5334C15.9757 66.5334 15.8684 66.5488 15.8684 66.6105C15.8684 66.6722 15.9757 66.6876 16.0217 66.6876C17.371 66.7647 18.7203 66.8573 20.0543 66.919C20.1003 68.3072 19.8856 69.6799 19.5023 71.0064C19.303 71.6697 19.073 72.333 18.8123 72.9654C18.5517 73.5823 18.2603 74.1839 17.831 74.6929C17.3557 75.2636 16.7577 75.6955 16.1597 76.1428C16.0984 76.1891 16.1597 76.2353 16.2057 76.2508C16.2671 76.2816 16.3591 76.2508 16.4051 76.2199C16.9417 75.8343 17.4784 75.4333 17.923 74.9397C18.383 74.4461 18.7203 73.86 18.981 73.243C19.5483 71.9628 19.9623 70.6054 20.1923 69.2172C20.3149 68.4614 20.3763 67.6748 20.3456 66.9035C21.7256 66.9807 23.1055 67.0269 24.4855 67.0269C25.0988 67.0269 25.7275 67.0269 26.3408 66.9961C26.3408 66.9961 26.3408 66.9961 26.3408 67.0115C26.4328 68.8008 26.4941 70.59 26.5401 72.3792C26.5554 73.3818 26.5708 74.3844 26.5708 75.387C26.5708 75.495 26.7701 75.4641 26.8314 75.4487C27.2914 75.2482 27.7514 75.0322 28.2114 74.8317C28.5794 74.662 28.9627 74.5232 29.2847 74.2919C29.5913 74.0913 29.8673 73.8137 29.9747 73.4435C30.036 73.2276 30.036 73.0116 30.0513 72.7803C30.0513 72.5335 30.0513 72.2713 30.0513 72.0245C30.0667 70.2507 30.0973 68.4768 30.1127 66.703C31.0326 66.6105 31.9373 66.5025 32.8573 66.41C33.6086 66.3483 34.3599 66.2866 35.0959 66.2557C35.4332 67.3508 35.7552 68.446 36.1385 69.5257C36.5218 70.6054 36.9665 71.6543 37.5185 72.6569C37.8251 73.2121 38.1778 73.752 38.5458 74.261C38.5918 74.3227 38.6684 74.3227 38.7298 74.3227C38.7604 74.3227 38.8677 74.2764 38.8371 74.2147L38.8677 74.2764ZM29.7907 68.5694C29.7907 69.5565 29.76 70.5591 29.76 71.5463C29.76 72.0399 29.76 72.5335 29.7447 73.0116C29.7447 73.2276 29.6987 73.4589 29.6067 73.644C29.53 73.7983 29.4074 73.9371 29.2694 74.0605C28.9474 74.3381 28.518 74.5078 28.1347 74.6775L26.8774 75.2482C26.8774 73.5206 26.8468 71.7777 26.7854 70.0501C26.7548 69.0321 26.7088 68.0295 26.6474 67.0115C27.3374 66.9807 28.0121 66.9344 28.702 66.8727C29.07 66.8418 29.4534 66.7956 29.8213 66.7647C29.8213 67.3663 29.8213 67.9678 29.806 68.5694H29.7907Z" fill="#67762E"/>
  <path d="M31.5233 81.4797C31.5233 81.4797 31.37 81.4488 31.3086 81.4797C30.5266 81.9732 29.7907 82.5285 29.0853 83.1301C29.0087 83.0684 28.8094 83.0992 28.8247 83.1918C28.9627 93.6187 29.1007 104.061 29.254 114.488L29.6833 145.63C29.76 151.491 29.8367 157.337 29.9287 163.199C29.9287 163.322 30.22 163.306 30.22 163.199C30.082 152.772 29.944 142.329 29.7907 131.902C29.6527 121.522 29.5147 111.141 29.3613 100.76C29.2847 94.9761 29.208 89.1919 29.1313 83.4077H29.1467C29.898 82.7599 30.6953 82.1583 31.5386 81.6185C31.5846 81.5876 31.5846 81.5414 31.5386 81.4951L31.5233 81.4797Z" fill="#67762E"/>
  <path d="M51.8393 84.0865C52.0693 83.9014 52.1307 83.5312 51.8853 82.7908C50.2601 77.8241 48.6501 72.8575 47.0248 67.8908C46.3348 65.7776 45.2462 63.5257 45.2615 61.2891C45.2769 58.8983 44.8322 56.4921 44.5869 54.1322C44.5256 53.4843 44.4642 52.8365 44.4029 52.1732C44.0962 48.7644 43.8356 45.3556 43.2223 41.9931C42.7469 39.4018 42.0876 34.0032 38.6837 33.6022C37.7178 33.4788 36.6905 33.849 36.0158 34.5585C34.9885 35.6382 34.8505 37.2886 34.8965 38.7848C34.9578 40.8517 35.2492 42.9031 35.5558 44.9546C35.9085 47.33 36.5525 49.8133 36.6751 52.2041C36.9358 57.5872 37.9631 62.6465 39.7877 67.7211C41.1677 71.5464 42.8236 75.2791 44.5869 78.9501C45.4149 80.6931 46.3962 82.3898 47.4541 84.0094C47.7148 84.395 47.8988 84.4104 48.3281 84.395C48.8188 84.395 49.2941 84.395 49.7694 84.3178C50.5974 84.179 51.4714 84.395 51.8547 84.0865H51.8393Z" fill="#F7D2B1"/>
  <path d="M36.1538 60.0243C37.1964 60.0243 48.0828 58.9137 47.9755 58.4047C46.5035 51.618 44.6789 44.8929 42.5323 38.2912C42.0876 36.903 41.5663 35.4531 40.4777 34.5122C39.987 34.0803 39.389 33.7718 38.8064 33.4634C38.3157 33.2011 37.7944 32.9389 37.2424 32.8772C34.3139 32.4762 33.8999 38.0598 33.8232 39.9725C33.7312 42.2707 34.0379 44.5535 34.3599 46.8364C34.6818 49.1192 35.0652 51.4174 35.3718 53.7003C35.6478 55.8288 35.7552 57.942 36.1691 60.0551L36.1538 60.0243Z" fill="#FFFDF8"/>
  <path d="M15.2857 49.4123C17.2177 47.1141 18.9656 44.168 20.3762 41.515C21.2195 39.9263 22.7222 38.754 23.5041 37.1344C24.3474 35.3915 24.1021 33.3246 23.8261 31.3965C23.5348 29.2679 23.1975 27.2011 23.1821 25.0725C23.1668 22.9131 23.2128 20.7382 23.3048 18.5788C23.3508 17.5916 23.4121 16.4502 22.8448 15.5864C22.4308 14.954 21.6489 14.2445 20.8975 14.0748C19.8089 13.828 19.4716 15.4476 19.0729 16.1726C18.4443 17.3602 18.061 18.6405 17.785 19.9516C17.2177 22.5737 17.0183 25.3193 15.899 27.7718C15.1937 29.3142 14.1357 30.7024 12.8171 31.7821C11.2378 33.0624 9.19855 34.0495 8.46257 35.9622C7.97192 37.2578 8.18658 38.8157 7.4046 39.9725C7.05195 40.497 6.53063 40.8671 6.05531 41.2836C4.12336 42.9649 2.86607 45.4019 2.62074 47.9624C2.48274 49.4123 2.72807 51.0473 3.84737 51.9882C4.70601 52.6977 5.88665 52.852 7.00595 52.8057C9.71987 52.7131 13.4764 51.5717 15.2857 49.4123V49.4123Z" fill="#B36332"/>
  <path d="M8.14066 52.1578C8.60064 49.2889 9.07596 46.4353 9.59728 43.5818C10.1033 40.7745 10.8546 34.0341 14.5958 33.5867C15.5618 33.4633 16.5891 33.8335 17.2637 34.5431C18.291 35.6228 18.429 37.2732 18.383 38.7694C18.3217 40.8362 18.0304 42.8877 17.7237 44.9391C16.9724 50.0138 16.1444 55.0885 15.2705 60.1477C14.8565 62.523 14.4271 64.8984 13.6298 67.1658C13.5378 67.428 13.4305 67.7057 13.2158 67.8908C12.9552 68.1221 12.5719 68.153 12.2192 68.1838C11.1459 68.2764 10.0726 68.3535 8.9993 68.2918C8.29399 68.2455 7.23602 68.3535 6.6227 67.9525C5.82539 67.4435 6.14738 66.5026 6.25471 65.6851C6.56137 63.2017 6.88336 60.703 7.23602 58.2196C7.52734 56.1836 7.834 54.163 8.15599 52.127L8.14066 52.1578Z" fill="#F7D2B1"/>
  <path d="M12.4338 64.0964C11.7285 63.6182 10.8238 63.3868 9.99587 63.3868C6.72996 63.4177 5.57999 67.7674 4.96668 70.3279C3.37206 77.0529 2.19142 83.886 1.08746 90.7036C0.918794 91.7062 0.918794 92.971 2.11476 93.2023C2.9734 93.372 4.0467 93.0789 4.36869 92.1998C5.85599 88.2202 7.22061 84.1482 8.95323 80.2612C10.6552 76.4205 12.0658 72.441 13.2464 68.3998C13.4918 67.536 13.7371 66.6414 13.5684 65.7622C13.4304 65.0218 12.9858 64.4511 12.4185 64.0501L12.4338 64.0964Z" fill="#F7D2B1"/>
  <path d="M5.18137 96.5957C5.13537 96.4106 5.05871 96.241 4.99738 96.0559C4.81338 95.5469 4.70605 94.9916 4.69072 94.4363C4.69072 94.2358 4.73672 94.0661 4.75205 93.8656C4.75205 93.588 4.72139 93.2949 4.69072 93.0327C4.59872 92.462 4.39939 91.9838 4.09274 91.5056C3.83208 91.1046 3.26476 90.9658 2.80477 90.9349C1.67014 90.8732 0.980159 91.5056 0.642836 92.3694C-0.476466 95.2384 -0.0471446 98.6626 1.25615 101.424C1.31748 101.547 1.39415 101.686 1.54748 101.732C1.71614 101.778 1.90013 101.67 1.9768 101.516C2.05346 101.377 2.03813 101.208 2.0228 101.053C2.05346 101.331 2.22212 101.578 2.49812 101.732C2.9121 101.979 3.0041 101.562 2.9581 101.254C2.88144 100.56 2.82011 99.8966 2.72811 99.2179C2.63611 98.5392 2.60545 97.7834 2.65144 97.0739C2.68211 96.5803 2.71278 96.0867 2.83544 95.5931C2.89677 95.3926 2.92744 95.0224 3.23409 95.0687C3.38742 95.0995 3.51009 95.2229 3.60208 95.3618C3.74008 95.5469 3.84741 95.7628 3.92407 95.9787C4.01607 96.2255 4.0774 96.4878 4.18473 96.7191C4.29206 96.9505 4.46073 97.1819 4.70605 97.2744C5.16604 97.4595 5.27337 97.0122 5.1967 96.642C5.1967 96.6111 5.1967 96.5803 5.18137 96.5649V96.5957Z" fill="#F7D2B1"/>
  <path d="M10.3945 36.9493C8.93792 39.4172 8.15594 42.5792 7.45063 44.9083C6.00934 49.6436 5.04336 54.5178 4.07739 59.3765C4.64471 59.4844 5.47269 59.8546 6.02467 59.8546C7.11331 60.2865 8.43193 60.2711 9.5819 60.5179C11.8205 60.9806 14.0744 61.3354 16.3437 61.5513C16.589 57.7877 17.3403 54.0242 17.831 50.276C18.337 46.4199 18.7816 42.5638 19.165 38.6923C19.257 37.8131 19.3336 36.903 19.165 36.0392C18.9963 35.1755 18.5516 34.3117 17.8003 33.849C16.8037 33.2474 14.8258 33.1857 13.7371 33.6793C12.3265 34.3271 11.2532 35.5148 10.4099 36.9493H10.3945Z" fill="#FFFDF8"/>
  <path d="M41.873 43.736C41.643 45.4327 41.3057 47.1294 41.091 48.7181C40.631 52.019 40.1404 55.3198 39.5884 58.6052C39.3737 59.9009 39.3584 61.1811 38.9751 62.4613C38.8984 62.7235 38.8064 63.0012 38.5917 63.1863C38.3617 63.3868 38.0397 63.4176 37.7484 63.4485C36.6598 63.541 35.5712 63.6027 34.4825 63.6644C29.2233 63.9575 23.9642 64.2351 18.6896 64.1117C18.0917 64.1117 17.4783 64.0655 16.957 63.7878C16.0217 63.2634 15.7151 62.0911 15.5004 61.0423C14.5038 56.0756 14.4884 50.6462 12.4645 45.9726C12.0965 45.1088 11.7592 44.3839 11.1152 43.7052C10.1645 42.7026 10.0572 41.7154 10.0419 40.2964C9.99589 35.5148 14.9024 32.3682 18.9503 31.1342C19.9316 30.8412 20.9282 30.6098 21.9402 30.4401C23.8722 30.1162 25.8501 30.0391 27.8127 30.1471C29.484 30.2396 31.1706 30.3939 32.7959 30.8566C32.8572 30.872 32.9186 30.8874 32.9646 30.9029C35.7705 31.7358 39.5117 32.908 41.0297 35.6382C41.643 36.7487 41.8423 38.0444 41.9803 39.3092C42.149 40.7437 42.0416 42.2398 41.8423 43.7514L41.873 43.736Z" fill="#FFFDF8"/>
  <path d="M32.4432 30.8412C32.4126 30.9954 32.3819 31.1497 32.3359 31.3193C32.1059 32.1214 31.6459 32.908 31.2933 33.4479C30.6339 34.4505 29.99 35.4531 29.3306 36.4557C28.7173 37.3966 28.15 38.6614 27.368 39.4634C26.6934 40.173 26.7394 39.5251 26.2641 38.7848C25.7428 37.9673 25.2828 37.1344 24.7768 36.3014C23.9795 34.9595 23.1668 33.6176 22.3695 32.2756C22.0935 31.7975 21.6795 31.088 21.5722 30.4401C23.5041 30.1162 25.4821 30.0391 27.4447 30.1471C29.116 30.2396 30.8026 30.3939 32.4279 30.8566L32.4432 30.8412Z" fill="#FCD9BA"/>
  <path d="M33.9306 31.5661C33.9306 31.4581 33.6239 31.4581 33.6392 31.5661C33.6852 33.0777 33.6699 34.5739 33.6239 36.0855C33.6239 36.4556 33.5932 36.8258 33.5779 37.196C33.5779 37.3811 33.5626 37.5816 33.5472 37.7667C33.5472 37.8593 33.5472 37.9364 33.5319 38.0289C33.5319 38.1061 33.5319 38.1986 33.5166 38.2757C33.5166 38.3066 33.5012 38.3374 33.4706 38.3529C33.4706 38.3529 33.4706 38.3529 33.4399 38.3529C33.3632 38.322 33.2866 38.2757 33.2099 38.2449C33.0566 38.1678 32.9033 38.0752 32.7499 37.9827C32.4433 37.7976 32.1366 37.6125 31.83 37.4274C31.4926 37.2114 31.1706 36.9955 30.8486 36.7641C30.542 36.5636 30.22 36.3631 29.8367 36.3939C29.7907 36.3939 29.6833 36.3939 29.6833 36.4711C29.6833 36.5328 29.7907 36.5482 29.8367 36.5482C30.174 36.5328 30.4653 36.7487 30.726 36.9338C31.0326 37.1497 31.3393 37.3503 31.646 37.5508C31.9526 37.7513 32.2746 37.9364 32.5966 38.1215C32.7653 38.214 32.9186 38.3066 33.0873 38.3991C33.2252 38.4762 33.3786 38.5379 33.5472 38.5225C33.7006 38.5071 33.7926 38.3991 33.8232 38.2449C33.8539 38.0752 33.8539 37.8747 33.8692 37.705C33.8999 37.3194 33.9152 36.9184 33.9306 36.5328C33.9612 35.7461 33.9919 34.9749 33.9919 34.1882C33.9919 33.3091 33.9919 32.4299 33.9612 31.5507L33.9306 31.5661Z" fill="#63848F"/>
  <path d="M24.3782 36.5482C24.3782 36.5482 24.2249 36.5174 24.1635 36.5482C22.8909 37.1652 21.6336 37.7976 20.361 38.4146L19.947 35.6844C19.809 34.7435 19.625 33.8027 19.579 32.8463C19.5483 32.3065 19.579 31.7666 19.6863 31.2422C19.7016 31.1342 19.4103 31.1188 19.395 31.2422C19.211 32.1677 19.2877 33.124 19.4103 34.0649C19.533 35.0212 19.7016 35.9775 19.8396 36.9338C19.9316 37.4891 20.0083 38.029 20.1003 38.5842C20.1156 38.6922 20.2843 38.6768 20.361 38.6459L24.3935 36.6716C24.3935 36.6716 24.4395 36.5791 24.3935 36.5482H24.3782Z" fill="#63848F"/>
  <path d="M27.7054 43.3658C27.6748 43.2732 27.6288 43.1807 27.5521 43.1036C27.3374 42.8876 26.9234 42.8568 26.7088 43.0727C26.6321 43.119 26.5861 43.1653 26.5401 43.2424C26.4635 43.3658 26.4481 43.5354 26.4481 43.6743C26.4481 43.8439 26.4481 44.029 26.4941 44.1987C26.5095 44.2912 26.5401 44.3838 26.5708 44.4609C26.6014 44.5997 26.6321 44.7386 26.7241 44.8619C26.8314 44.9853 27.0154 45.047 27.1841 45.0316C27.3681 45.0162 27.4908 44.9082 27.5674 44.754C27.7667 44.3992 27.9354 43.7514 27.7054 43.3504V43.3658Z" fill="#63848F"/>
  <path d="M27.7054 50.7541C27.6748 50.6615 27.6288 50.569 27.5521 50.4919C27.3374 50.2759 26.9234 50.2451 26.7088 50.461C26.6321 50.5073 26.5861 50.5536 26.5401 50.6307C26.4635 50.7541 26.4481 50.9237 26.4481 51.0626C26.4481 51.2322 26.4481 51.4173 26.4941 51.587C26.5095 51.6795 26.5401 51.7721 26.5708 51.8492C26.6014 51.988 26.6321 52.1269 26.7241 52.2503C26.8314 52.3736 27.0154 52.4353 27.1841 52.4199C27.3681 52.4045 27.4908 52.2965 27.5674 52.1423C27.7667 51.7875 27.9354 51.1397 27.7054 50.7387V50.7541Z" fill="#63848F"/>
  <path d="M27.7054 58.1425C27.6748 58.0499 27.6288 57.9574 27.5521 57.8802C27.3374 57.6643 26.9234 57.6334 26.7088 57.8494C26.6321 57.8957 26.5861 57.9419 26.5401 58.0191C26.4635 58.1424 26.4481 58.3121 26.4481 58.4509C26.4481 58.6206 26.4481 58.8057 26.4941 58.9754C26.5095 59.0679 26.5401 59.1605 26.5708 59.2376C26.6014 59.3764 26.6321 59.5152 26.7241 59.6386C26.8314 59.762 27.0154 59.8237 27.1841 59.8083C27.3681 59.7929 27.4908 59.6849 27.5674 59.5306C27.7667 59.1759 27.9354 58.5281 27.7054 58.127V58.1425Z" fill="#63848F"/>
  <path d="M42.0877 40.4661C41.4437 41.5766 40.8151 42.6872 40.1711 43.8132C39.9871 44.1371 39.8031 44.4456 39.6191 44.7695C39.5578 44.8775 39.8491 44.9083 39.9104 44.8158C40.5544 43.7052 41.183 42.5946 41.827 41.4686L42.379 40.5123C42.4403 40.4044 42.149 40.3735 42.0877 40.4661V40.4661Z" fill="#63848F"/>
  <path d="M39.0978 46.8209V59.2376C39.0978 59.3456 39.3891 59.3456 39.3891 59.2376V46.8209C39.3891 46.7129 39.0978 46.7129 39.0978 46.8209Z" fill="#63848F"/>
  <path d="M14.4731 48.4405C13.4765 47.2374 12.5718 45.9571 11.7745 44.6152C11.5445 44.2296 11.3299 43.844 11.1152 43.4584C11.0692 43.3658 10.7779 43.3967 10.8239 43.5046C11.5752 44.8928 12.4338 46.2348 13.3845 47.4996C13.6451 47.8543 13.9211 48.1937 14.1971 48.533C14.2584 48.6101 14.5498 48.5639 14.4578 48.4559L14.4731 48.4405Z" fill="#63848F"/>
  <path d="M14.9024 56.7851C14.8258 55.5048 14.7338 54.24 14.6264 52.9598C14.5651 52.2349 14.5191 51.5099 14.4578 50.785C14.4578 50.677 14.1511 50.677 14.1664 50.785C14.2738 52.0652 14.3658 53.3454 14.4578 54.6256C14.5498 55.9059 14.6264 57.1707 14.7184 58.4509C14.7644 59.1759 14.8104 59.9008 14.8411 60.6258C14.8411 60.7337 15.1478 60.7337 15.1324 60.6258C15.0558 59.3455 14.9791 58.0653 14.9024 56.7851Z" fill="#63848F"/>
  <path d="M22.6762 32.4145L31.922 32.0597C31.8606 31.7204 31.8146 31.381 31.7686 31.0417C31.738 30.6561 31.7226 30.2705 31.7226 29.8694C31.7226 29.0057 31.784 28.1419 31.784 27.2781C31.784 26.8308 31.8453 26.2138 31.7226 25.7511C31.7073 25.674 31.6766 25.5968 31.646 25.5352C31.4466 25.1033 31.1093 24.6868 30.726 24.4092C29.6527 23.4374 27.8281 22.9901 26.4175 23.1906C25.7581 23.2832 25.1142 23.4683 24.6235 23.9464C24.1482 24.4092 24.1789 25.2421 24.0562 25.8745C23.7802 27.2318 23.4275 28.5738 22.9982 29.8849C22.8756 30.255 22.7529 30.6252 22.6149 30.98C22.5076 31.2885 22.4156 31.489 22.4769 31.8129C22.5229 32.0134 22.5842 32.2139 22.6762 32.4145V32.4145Z" fill="#FCD9BA"/>
  <path d="M31.7839 27.2935C31.7839 28.1573 31.7226 29.0211 31.7226 29.8849C31.416 29.8386 31.14 29.7152 30.864 29.5764C29.6527 28.9594 26.9848 26.9234 28.794 25.4735C29.852 24.6868 30.818 25.1495 31.7226 25.7665C31.8453 26.2293 31.7839 26.8462 31.7839 27.2935Z" fill="#E6C1A0"/>
  <path d="M20.6983 22.3577C19.993 21.2163 19.5176 19.9361 19.4103 18.5787C19.2877 17.2214 19.6403 16.1725 20.085 14.9231C20.6676 13.3036 22.2776 12.1313 23.7955 11.4681C26.6474 10.2187 30.45 10.2958 32.3513 13.1339C33.3019 14.553 33.3479 16.1108 33.8079 17.6687C33.9766 18.2086 34.3752 18.4708 34.8045 18.7947C35.2952 19.1649 35.8012 19.5196 36.2918 19.8898C36.4145 19.9824 36.5525 20.0749 36.6445 20.2137C36.9511 20.6456 36.4452 21.1392 36.1538 21.4477C35.6325 21.9721 35.6632 22.9284 35.7398 23.6225C35.8165 24.4555 36.0312 25.3038 35.8778 26.1367C35.8318 26.399 35.7398 26.6612 35.5712 26.8771C35.2952 27.2319 34.6972 27.4015 34.2679 27.5095C33.7159 27.6638 33.1333 27.6946 32.5659 27.71C31.7226 27.71 30.9713 27.6792 30.174 27.4324C29.4074 27.201 28.6714 26.8463 27.9967 26.3989C27.4141 26.0133 26.8774 25.5506 26.3255 25.1341C25.8501 24.7794 25.3135 24.2858 24.6848 24.5943C24.4702 24.7023 24.5008 24.8719 24.2555 24.9336C24.0255 24.9953 23.6269 24.8257 23.4122 24.7485C22.2622 24.3321 21.3576 23.3758 20.7136 22.3577H20.6983Z" fill="#FCD9BA"/>
  <path d="M29.0547 24.7948C29.0547 24.7948 29.0547 24.8873 29.0547 24.9336C29.0241 25.2421 28.9321 25.5506 28.7481 25.782C28.6254 25.9516 28.4568 26.075 28.2728 26.183C27.7361 26.5069 27.1688 26.5686 26.6015 26.291C26.4021 26.1984 26.1875 26.075 26.1108 25.8745C26.0648 25.782 26.0648 25.6894 26.0648 25.5814C26.0648 24.949 26.4635 25.2884 26.7855 25.4889C27.1075 25.7048 27.5674 25.7048 27.9048 25.4889C28.2421 25.2729 28.4414 24.8873 28.4414 24.4863C28.4414 24.0853 28.2421 23.6996 27.9354 23.4529C27.8281 23.3603 27.7208 23.2986 27.6134 23.1906C27.5061 23.0827 27.4448 22.9593 27.4601 22.8205C27.4908 22.3731 28.0581 22.404 28.3034 22.5891C28.5487 22.7742 28.7941 23.0827 28.9014 23.3757C29.0701 23.823 29.1314 24.3012 29.1007 24.7794L29.0547 24.7948Z" fill="#EAC056"/>
  <path d="M30.6953 17.9155C30.588 17.7149 30.8333 17.2831 30.91 17.1134C31.0787 16.7895 31.3393 16.5273 31.6306 16.3422C31.922 16.1571 32.336 15.9103 32.6886 16.0028C32.9339 16.0645 33.1486 16.3422 32.9646 16.5427C32.7959 16.7432 32.3053 16.8512 32.0753 16.9129C31.876 16.9591 31.646 16.99 31.462 17.098C31.278 17.2059 31.1247 17.3756 30.9867 17.5453C30.8793 17.6687 30.7873 17.8075 30.6647 17.9155H30.6953Z" fill="#B36332"/>
  <path d="M32.52 18.5325C32.52 18.5325 32.5506 18.5016 32.5813 18.5016C32.5813 18.5016 32.5813 18.5016 32.5966 18.5016C32.6733 18.4708 32.7653 18.5016 32.842 18.517C32.9186 18.5325 32.9799 18.5941 33.0413 18.6404C33.2713 18.8409 33.3019 19.134 33.2866 19.4271C33.2866 19.4888 33.2866 19.5659 33.2559 19.6276C33.2559 19.6276 33.2559 19.6276 33.2559 19.643C33.2559 19.643 33.2559 19.6584 33.2559 19.6739C33.2559 19.7356 33.2253 19.7664 33.1793 19.7973C33.1486 19.8127 33.1179 19.8435 33.0873 19.859C32.9953 19.8898 32.8726 19.8744 32.7806 19.8281C32.6886 19.7818 32.6426 19.7047 32.612 19.6122C32.474 19.2883 32.3206 18.8872 32.5353 18.5633L32.52 18.5325Z" fill="#1A8B93"/>
  <path d="M15.3471 26.183C15.3471 26.183 15.4697 26.0596 15.5311 25.9979C16.819 24.7022 17.7697 22.8667 18.291 21.1083C18.8736 19.1032 18.5977 16.882 19.5483 14.9694C21.4189 11.2367 26.5094 8.96928 30.4193 10.6968C31.9526 11.3755 31.416 13.3961 31.2013 14.6763C30.8946 16.4347 30.3273 18.1468 29.7447 19.8435C28.4414 23.6071 26.4941 27.2164 24.1635 30.4401C22.3849 32.9235 19.763 34.9904 16.589 34.9595C13.1238 34.9132 10.1339 36.0084 7.92596 38.8465C8.06396 35.6536 9.27526 32.507 11.3452 30.07C12.5565 28.6509 14.0285 27.4786 15.3471 26.1676V26.183Z" fill="#B36332"/>
  <path d="M27.5828 20.9695C27.0461 22.62 26.2488 24.1933 25.2675 25.6277C24.2862 27.0468 23.0902 28.327 21.7563 29.4222C20.9896 30.0391 20.1923 30.5944 19.3337 31.0726C19.2723 31.1034 19.2877 31.1497 19.3337 31.196C19.395 31.2268 19.487 31.2268 19.5483 31.196C21.0663 30.3322 22.4616 29.2525 23.6729 27.9877C24.8842 26.7229 25.9115 25.3038 26.7241 23.746C27.1841 22.8668 27.5674 21.9567 27.8741 21.0312C27.9201 20.9078 27.6134 20.8924 27.5828 20.985V20.9695Z" fill="#98491F"/>
  <path d="M21.6029 25.0262C20.8976 26.2601 19.9316 27.3398 18.7817 28.1728C18.4597 28.4041 18.1224 28.6201 17.7697 28.8052C17.7084 28.836 17.7237 28.8823 17.7697 28.9286C17.831 28.9594 17.923 28.9594 17.9844 28.9286C19.257 28.2345 20.361 27.2627 21.2196 26.1059C21.4649 25.782 21.6796 25.4272 21.8942 25.0724C21.9556 24.9645 21.6643 24.9336 21.6029 25.0262V25.0262Z" fill="#98491F"/>
  <path d="M22.6609 13.0105C22.6609 13.0105 22.5076 13.0105 22.4616 13.0413C21.4496 13.828 20.6983 14.954 20.3609 16.1879C20.269 16.5427 20.2076 16.8975 20.1616 17.2522C20.1616 17.3602 20.4529 17.3756 20.4529 17.2522C20.5603 15.9874 21.0969 14.7689 21.9402 13.8434C22.1702 13.5812 22.4309 13.3344 22.7222 13.1185C22.7835 13.0722 22.7222 13.0259 22.6762 13.0105H22.6609Z" fill="#98491F"/>
  <path d="M34.4212 24.0698C34.4212 24.0698 34.2832 24.0235 34.2219 24.039C33.7773 24.1624 33.2866 23.931 33.0566 23.53C33.0259 23.4683 32.9339 23.4683 32.8726 23.4683C32.8419 23.4683 32.7346 23.5145 32.7653 23.5762C33.0873 24.1161 33.7773 24.3475 34.3599 24.1778C34.4059 24.1778 34.4519 24.1161 34.4059 24.0698H34.4212Z" fill="#C6AE8A"/>
  <path d="M55.2283 85.0578C54.1396 84.5334 53.0357 83.9627 52.177 83.0835C51.9164 82.8213 51.6557 82.2969 51.3184 82.1426C50.9351 81.9729 50.3371 82.1118 49.9537 82.2352C49.4784 82.3894 49.0338 82.6362 48.6198 82.9138C48.2518 83.1606 47.9145 83.4383 47.6845 83.8085C47.1325 84.7494 47.8225 85.937 48.0525 86.8625C48.3285 87.9268 48.8958 88.8677 49.4784 89.7932C49.9997 90.6261 50.6284 91.5053 51.5637 91.7058C51.993 91.7983 52.4377 91.2739 52.8057 91.0734C53.4803 90.6878 54.1856 90.2713 54.5536 89.5772C54.6456 89.4075 54.7069 89.207 54.7069 89.0065C54.7069 88.698 54.523 88.4358 54.4003 88.1582C54.1396 87.5875 53.7716 86.0604 54.8603 86.4769C55.2129 86.6157 55.5656 86.7545 55.9182 86.8779C56.1022 86.9396 56.3016 87.0168 56.4702 86.9242C56.6696 86.8162 56.7002 86.5386 56.6389 86.3227C56.4702 85.7365 55.9029 85.3663 55.3509 85.0887C55.3049 85.0733 55.2743 85.0424 55.2283 85.027V85.0578Z" fill="#F7D2B1"/>
  <path d="M54.5383 83.1298C54.4923 82.9138 54.431 82.7133 54.3083 82.5436C54.1856 82.374 54.0016 82.2506 53.833 82.1426C53.189 81.757 52.4377 81.5256 51.6864 81.4948C50.9657 81.4639 50.4444 81.6953 50.0151 82.2814C49.6778 82.7441 49.4324 83.2686 49.1871 83.7776C48.7885 84.6259 48.3745 85.4897 48.0371 86.3689C47.7611 87.0784 47.2092 88.6363 48.3745 88.7288C48.4358 89.0065 48.4358 89.2841 48.5738 89.5309C48.6965 89.7777 48.9571 89.9937 49.2331 89.9782C49.2638 89.9782 49.3098 89.9782 49.3404 89.9782C49.3864 90.0091 49.4018 90.0862 49.4018 90.1325C49.4018 90.3484 49.4784 90.5644 49.6318 90.734C49.7698 90.9037 49.9997 90.9962 50.2144 90.9654C50.2757 91.1968 50.3371 91.4127 50.4597 91.6132C50.6284 91.86 51.0884 92.1839 51.4104 92.1685C51.6864 92.1685 51.6557 91.9217 51.717 91.7212C52.1004 90.7186 52.4223 89.7006 52.683 88.6517C52.7597 88.3741 52.7903 88.0964 53.143 88.081C53.6643 88.0502 54.1396 88.5438 54.4923 88.8522C54.6456 88.9911 55.2589 89.6543 55.4583 89.5309C55.5349 89.4846 55.5656 89.3767 55.5809 89.2841C55.6423 88.7905 55.5196 88.3587 55.3816 87.8959C54.9829 86.5231 54.7069 85.1041 54.615 83.6696C54.615 83.4845 54.5843 83.284 54.5536 83.0989L54.5383 83.1298Z" fill="#FCD9BA"/>
  <path d="M54.155 90.333C54.155 90.333 54.155 90.2713 54.155 90.2404C54.155 90.1787 54.155 90.117 54.1703 90.0554C54.247 89.9011 54.477 89.932 54.6303 89.8857C54.8757 89.824 55.0137 89.5618 54.9983 89.315C54.9983 89.0836 54.8603 88.8677 54.7377 88.6517C54.431 88.1273 53.741 87.171 52.9744 87.3252C52.867 87.3561 52.7444 87.4023 52.6831 87.4949C52.6064 87.6029 52.6064 87.7263 52.6371 87.8497C52.6677 88.0964 52.775 88.3432 52.9284 88.5592C52.7444 88.297 52.3611 88.0502 52.0697 87.973C51.7784 87.8959 51.3338 87.9422 51.3491 88.3587C51.3491 88.5283 51.4564 88.6826 51.5638 88.8214C51.6864 89.0065 51.8244 89.1916 51.9471 89.3767C51.8551 89.315 51.7631 89.2533 51.6711 89.1916C51.5331 89.099 51.3951 89.0219 51.2418 88.9602C51.0884 88.9139 50.9198 88.8985 50.7664 88.9602C50.0151 89.2687 50.8431 90.2404 51.1191 90.5644C50.9351 90.4255 50.6284 90.6261 50.6131 90.842C50.6131 91.0734 50.7818 91.2585 50.9504 91.3973C51.1191 91.5361 51.3184 91.6595 51.5178 91.7675C51.7017 91.86 51.9164 91.9371 52.1311 91.9063C52.3457 91.86 52.5297 91.6595 52.4837 91.4744C52.9437 91.567 53.4497 91.1505 53.419 90.7032C53.7104 90.7957 54.063 90.5798 54.1397 90.3021L54.155 90.333Z" fill="#F7D2B1"/>
  <path d="M82.6431 156.52C82.6891 157.322 82.7504 158.093 83.0418 158.818C83.1031 158.972 83.1798 159.126 83.2564 159.265C83.3484 159.42 83.4404 159.558 83.5477 159.713C83.5937 159.774 83.6551 159.836 83.7164 159.913C84.5904 160.9 86.2923 161.24 87.5956 160.592C88.3776 160.191 88.9296 159.543 89.2362 158.818C89.2669 158.756 89.2976 158.695 89.3129 158.617C89.8649 157.137 89.6502 155.363 89.4356 153.851C89.4202 153.712 89.3896 153.574 89.3742 153.435C89.1289 151.97 88.7456 150.504 88.5923 149.023C88.5003 148.113 88.5003 147.188 88.2089 146.309C87.703 144.72 86.0163 143.64 84.0691 144.365C83.8084 144.458 83.5631 144.581 83.3944 144.766C83.2411 144.936 83.1491 145.152 83.0878 145.352C82.4744 147.188 82.6431 149.101 82.7351 150.967C82.7811 152.093 82.7044 153.203 82.6431 154.329C82.6124 155.054 82.5971 155.779 82.6431 156.52V156.52Z" fill="#B36332"/>
  <path d="M83.0417 157.97C83.1491 157.754 83.3944 157.615 83.6397 157.507C83.8851 157.399 84.1611 157.291 84.2991 157.075C84.391 156.921 84.4064 156.751 84.4064 156.581C84.4064 156.396 84.4064 156.211 84.4064 156.026C84.4064 155.641 84.4064 155.255 84.4064 154.869C84.4064 154.098 84.4217 153.327 84.437 152.556C84.437 152.17 84.437 151.784 84.437 151.414C84.437 151.06 84.437 150.705 84.253 150.381C83.9464 149.779 83.2564 149.363 83.0571 148.715C83.0264 148.638 83.2717 148.622 83.2871 148.684C83.4711 149.255 84.0384 149.656 84.3757 150.165C84.575 150.458 84.6517 150.797 84.667 151.121C84.6824 151.491 84.667 151.877 84.667 152.247C84.667 153.034 84.6517 153.805 84.6364 154.592C84.6364 154.977 84.6364 155.363 84.6364 155.749C84.6364 155.949 84.6364 156.15 84.6364 156.335C84.6364 156.504 84.6364 156.674 84.6057 156.844C84.575 156.998 84.4984 157.152 84.3604 157.26C84.253 157.353 84.1151 157.414 83.9771 157.491C83.7011 157.615 83.3791 157.723 83.2717 157.985C83.2411 158.047 83.0111 158.031 83.0417 157.954V157.97Z" fill="#C46A39"/>
  <path d="M89.129 157.939C89.0063 157.723 88.7303 157.615 88.485 157.538C88.2397 157.445 87.9483 157.368 87.7797 157.168C87.6723 157.029 87.6417 156.859 87.611 156.689C87.5803 156.504 87.565 156.319 87.5343 156.134C87.4883 155.749 87.427 155.363 87.381 154.977C87.2737 154.206 87.1817 153.45 87.0743 152.679C87.0283 152.293 86.967 151.923 86.921 151.538C86.875 151.198 86.8444 150.844 86.9824 150.504C87.2123 149.887 87.841 149.409 87.9637 148.746C87.979 148.669 87.749 148.669 87.7337 148.746C87.6263 149.332 87.105 149.779 86.829 150.319C86.6604 150.628 86.6297 150.967 86.6604 151.306C86.691 151.676 86.7524 152.047 86.7984 152.417C86.9057 153.188 86.9977 153.959 87.105 154.746C87.151 155.132 87.2123 155.517 87.2583 155.903C87.289 156.103 87.3043 156.288 87.335 156.489C87.3503 156.659 87.3657 156.828 87.427 156.998C87.473 157.152 87.565 157.291 87.7183 157.399C87.841 157.476 87.979 157.538 88.1323 157.584C88.4083 157.692 88.7456 157.769 88.899 158.016C88.945 158.078 89.175 158.047 89.129 157.97V157.939Z" fill="#C46A39"/>
  <path d="M84.0691 156.952C85.1577 156.011 86.875 156.242 88.163 156.72C88.2856 156.767 88.255 156.859 88.163 156.905C88.0403 156.967 87.8563 156.952 87.7336 156.905C86.7063 156.52 85.449 156.319 84.5904 157.075C84.4524 157.198 83.8698 157.106 84.0691 156.936V156.952Z" fill="#FFFDF8"/>
  <path d="M84.0231 155.764C84.2837 155.563 84.5597 155.363 84.8664 155.209C85.1883 155.054 85.5257 155.054 85.909 155.054C86.6296 155.054 87.3503 155.132 87.9943 155.409C88.1169 155.455 88.0863 155.548 87.9943 155.594C87.8869 155.656 87.6876 155.641 87.5649 155.594C87.0896 155.378 86.553 155.332 86.001 155.317C85.7097 155.317 85.4643 155.286 85.2037 155.425C84.9584 155.548 84.7437 155.718 84.529 155.872C84.3757 155.995 83.8084 155.903 84.0077 155.733L84.0231 155.764Z" fill="#FFFDF8"/>
  <path d="M83.6398 158.972C83.7624 159.281 83.9464 159.589 84.2071 159.867C84.9277 160.684 86.323 160.962 87.3963 160.422C88.0403 160.098 88.5003 159.558 88.7456 158.957C88.301 158.803 87.749 158.741 87.3197 158.679C86.967 158.633 86.599 158.587 86.2464 158.571C85.5564 158.54 84.8511 158.617 84.1917 158.803C84.0691 158.833 83.8698 158.895 83.6551 158.957L83.6398 158.972Z" fill="#FFFDF8"/>
  <path d="M84.0691 154.206C84.3451 154.098 84.5751 153.913 84.8818 153.82C85.1884 153.728 85.5104 153.682 85.8324 153.666C86.5377 153.635 87.2277 153.836 87.8564 154.067C87.979 154.114 87.9483 154.206 87.8564 154.252C87.7337 154.314 87.5497 154.299 87.427 154.252C86.921 154.067 86.3691 153.913 85.8171 153.928C85.5717 153.928 85.3264 153.99 85.1118 154.083C84.8971 154.175 84.7131 154.314 84.4984 154.391C84.3758 154.437 84.1918 154.453 84.0691 154.391C83.9771 154.345 83.9465 154.252 84.0691 154.206V154.206Z" fill="#FFFDF8"/>
  <path d="M84.0231 152.941C84.5137 152.556 85.0044 152.263 85.6943 152.232C86.3996 152.201 87.105 152.355 87.7183 152.617C87.8409 152.664 87.8103 152.756 87.7183 152.802C87.6109 152.864 87.4116 152.849 87.289 152.802C86.829 152.602 86.323 152.494 85.8017 152.494C85.265 152.494 84.897 152.772 84.529 153.065C84.3757 153.188 83.8084 153.096 84.0077 152.926L84.0231 152.941Z" fill="#FFFDF8"/>
  <path d="M82.6431 156.52C82.6891 157.322 82.7504 158.093 83.0417 158.818C83.1031 158.972 83.1797 159.127 83.2564 159.265C83.3484 159.42 83.4404 159.558 83.5477 159.713C83.5937 159.774 83.6551 159.836 83.7164 159.913C84.5904 160.9 86.2923 161.24 87.5956 160.592C88.3776 160.191 88.9296 159.543 89.2362 158.818C89.2669 158.756 89.2976 158.695 89.3129 158.617C89.8649 157.137 89.6502 155.363 89.4356 153.851C89.4202 153.713 89.3896 153.574 89.3742 153.435C89.3436 153.45 89.3282 153.481 89.3436 153.512C89.7576 155.085 89.5582 156.705 88.9909 158.232C88.7456 158.88 88.4389 159.528 87.8716 160.037C87.7949 160.098 87.7183 160.175 87.6416 160.222C87.5803 160.222 87.5343 160.237 87.4883 160.268C87.2276 160.453 86.875 160.468 86.553 160.499C86.2003 160.53 85.8477 160.546 85.495 160.515C85.1117 160.484 84.8357 160.283 84.529 160.098C84.4677 160.037 84.4217 159.975 84.3604 159.913C83.9004 159.358 83.5477 158.741 83.3177 158.093C82.8731 156.89 82.7811 155.594 82.6584 154.329C82.6278 155.054 82.6124 155.779 82.6584 156.52H82.6431Z" fill="#FFFDF8"/>
  <path d="M93.2535 74.3845C94.9707 75.9886 95.7834 78.3331 96.2127 80.6468C98.0527 90.4568 95.1087 101.13 93.4068 110.771C91.3522 122.37 90.5702 134.201 91.0915 145.985C91.2142 148.792 91.9962 150.982 88.8836 151.8C86.4303 152.448 83.7624 151.831 81.3551 151.245C80.8645 151.121 80.3432 150.982 79.9905 150.612C79.6685 150.273 79.5612 149.795 79.4539 149.332C75.13 129.434 78.5339 109.012 78.0432 88.8835C77.9512 84.9039 76.5253 77.022 79.9138 73.9526C83.1031 71.0528 90.2329 71.5772 93.2381 74.3845H93.2535Z" fill="#63848F"/>
  <path d="M79.0404 168.998C79.0404 169.075 79.0098 169.152 78.9638 169.245C78.7491 169.692 78.1665 169.769 77.6452 169.769C76.3265 169.769 75.0079 169.769 73.6893 169.769C73.0913 169.769 72.4473 169.769 71.926 169.507C71.788 169.445 71.604 169.353 71.4967 169.26C71.466 169.229 71.4353 169.199 71.42 169.168C71.3127 168.967 71.3127 168.767 71.3587 168.566C71.3587 168.566 71.3587 168.566 71.3587 168.551C71.558 167.718 71.8033 166.854 72.0026 166.006C72.2633 164.941 72.7693 163.846 73.7966 163.368C74.5172 163.044 75.3452 162.998 76.1119 163.199C76.4645 163.291 76.8172 163.43 77.0625 163.692C77.5685 164.217 77.8598 165.111 78.1051 165.79C78.3505 166.453 78.4885 167.116 78.6725 167.795C78.7798 168.211 79.0864 168.535 79.0251 168.998H79.0404Z" fill="#B36332"/>
  <path d="M73.3514 166.823C73.5047 166.7 73.6581 166.592 73.7807 166.468C73.8881 166.361 73.9647 166.222 73.9801 166.083C73.9954 165.929 73.9801 165.774 73.9341 165.636C73.8727 165.327 73.8114 165.003 73.7501 164.695C73.6887 164.463 73.6274 164.217 73.5661 163.985H73.7807C73.9494 164.571 74.0874 165.173 74.1794 165.774C74.2101 165.929 74.2101 166.067 74.1794 166.222C74.1334 166.361 74.0261 166.468 73.9187 166.576C73.7961 166.684 73.6427 166.792 73.5048 166.9C73.3514 167.024 73.1981 167.147 73.0448 167.255C73.0141 167.286 72.9374 167.286 72.8914 167.271C72.8608 167.271 72.8148 167.24 72.8608 167.209C73.0294 167.07 73.1981 166.947 73.3668 166.808L73.3514 166.823Z" fill="#C46A39"/>
  <path d="M76.326 163.985H76.5406C76.4793 164.217 76.418 164.463 76.3567 164.695C76.28 165.003 76.2187 165.312 76.1727 165.636C76.142 165.79 76.1113 165.929 76.1267 166.083C76.1267 166.222 76.2187 166.345 76.326 166.468C76.4487 166.592 76.6173 166.715 76.7553 166.823C76.924 166.962 77.0926 167.085 77.2613 167.224C77.292 167.255 77.2613 167.271 77.2306 167.286C77.1846 167.286 77.1233 167.286 77.0773 167.271C76.924 167.147 76.7706 167.024 76.6173 166.916C76.4793 166.808 76.3413 166.7 76.2033 166.592C76.0807 166.484 75.9887 166.376 75.9427 166.237C75.8967 166.083 75.912 165.944 75.9427 165.79C76.0347 165.188 76.1727 164.587 76.3413 164.001L76.326 163.985Z" fill="#C46A39"/>
  <path d="M73.4894 164.155C74.486 163.862 75.544 163.846 76.5406 164.124C76.602 164.139 76.7093 164.186 76.6786 164.294C76.648 164.386 76.4946 164.402 76.4333 164.386C75.5287 164.139 74.5934 164.124 73.6887 164.386C73.6121 164.417 73.4741 164.417 73.4127 164.34C73.3514 164.263 73.4127 164.17 73.4894 164.155V164.155Z" fill="#FFFDF8"/>
  <path d="M73.4894 164.895C74.5167 164.648 75.5747 164.664 76.5866 164.942C76.6633 164.957 76.7246 165.034 76.6633 165.127C76.602 165.219 76.4793 165.204 76.3873 165.188C75.4673 164.942 74.5167 164.926 73.5967 165.157C73.5201 165.173 73.3821 165.157 73.3514 165.08C73.3207 164.972 73.4281 164.926 73.4894 164.911V164.895Z" fill="#FFFDF8"/>
  <path d="M73.4894 166.33C74.5167 166.083 75.5747 166.098 76.5866 166.376C76.6633 166.391 76.7246 166.468 76.6633 166.561C76.602 166.654 76.4793 166.638 76.3873 166.623C75.4673 166.376 74.5167 166.361 73.5967 166.592C73.5201 166.607 73.3821 166.592 73.3514 166.515C73.3207 166.407 73.4281 166.361 73.4894 166.345V166.33Z" fill="#FFFDF8"/>
  <path d="M73.2901 165.697C74.3634 165.389 75.4673 165.327 76.556 165.558C76.6173 165.558 76.7246 165.62 76.694 165.728C76.6633 165.821 76.51 165.836 76.4486 165.821C75.4673 165.605 74.4707 165.636 73.4894 165.929C73.4127 165.959 73.2747 165.975 73.2134 165.882C73.1521 165.805 73.2134 165.713 73.2901 165.697V165.697Z" fill="#FFFDF8"/>
  <path d="M72.6767 167.749C74.0414 167.147 75.5287 166.854 76.9393 167.487C77.4299 167.702 77.8746 168.026 78.3039 168.35C78.6872 168.628 78.6719 169.091 78.2272 169.322C77.9819 169.461 77.6906 169.461 77.4146 169.461C76.0193 169.461 74.624 169.399 73.2287 169.229C72.9681 169.229 72.6767 169.152 72.4467 169.075C72.1707 168.998 71.9254 168.998 71.6341 168.998C71.6034 168.998 71.5574 168.998 71.5268 168.983C71.4808 168.952 71.4808 168.875 71.4808 168.813C71.4808 168.69 71.4808 168.443 71.5574 168.335C71.6188 168.242 71.7721 168.181 71.8794 168.134C72.1401 167.996 72.4161 167.857 72.6767 167.733V167.749Z" fill="#FFFDF8"/>
  <path d="M79.0246 168.628C79.0246 168.643 79.0246 168.659 79.0246 168.674C79.0246 168.674 79.0246 168.674 79.0246 168.69C79.0246 168.69 79.0246 168.705 79.0246 168.72C79.0246 168.72 79.0246 168.736 79.0246 168.751C79.0246 168.828 79.0246 168.89 79.0246 168.967C79.0246 169.044 78.9939 169.121 78.9479 169.214C78.7333 169.661 78.1506 169.738 77.6293 169.738C76.3107 169.738 74.992 169.738 73.6734 169.738C73.0754 169.738 72.4314 169.738 71.9101 169.476C71.7721 169.415 71.5881 169.322 71.4808 169.229C71.4501 169.199 71.4195 169.168 71.4041 169.137C71.3121 168.967 71.2968 168.782 71.3275 168.612H79.0092L79.0246 168.628Z" fill="#FFFDF8"/>
  <path d="M66.7889 110.077C67.6015 122.941 68.3989 135.82 69.2115 148.684C69.2882 150.011 69.3648 151.337 69.4568 152.664C69.5335 153.898 69.2882 155.101 69.5642 156.35C69.7175 157.029 69.9628 157.677 70.0548 158.371C70.2081 159.42 69.9935 160.484 69.9321 161.533C69.8555 163.121 70.1161 164.695 70.3768 166.268C70.4075 166.453 70.4535 166.654 70.5761 166.777C70.7755 166.962 71.4348 166.731 71.6494 166.623C74.0107 165.435 76.8473 165.265 79.3159 166.145C79.6072 166.253 79.9139 166.361 80.2052 166.299C80.7572 166.175 81.0638 165.358 81.1098 164.849C81.1712 164.278 80.9718 163.723 80.8645 163.168C80.7112 162.273 80.8185 161.363 80.9258 160.468C81.4165 156.35 81.7538 152.247 81.9531 148.113C82.1065 145.137 82.1678 142.16 82.0758 139.183C81.7998 131.316 81.4931 123.373 81.2938 115.46C81.0178 104.138 81.6771 92.8013 82.4745 81.5106C82.5971 79.8601 82.7044 78.1789 82.3058 76.5747C81.9071 74.9706 80.8798 73.4281 79.3465 72.842C78.6872 72.5952 77.9819 72.5335 77.2766 72.4873C72.9681 72.2713 67.9235 72.2096 66.0069 76.6519C64.3356 80.5388 65.1943 84.9965 65.4549 89.0686C65.8996 96.0713 66.3289 103.059 66.7736 110.061L66.7889 110.077Z" fill="#63848F"/>
  <path d="M81.6618 105.017C81.7384 100.652 81.8458 96.2872 81.9837 91.9375C81.9837 91.8296 81.6924 91.8296 81.6924 91.9375C81.4624 99.7115 81.3091 107.485 81.2324 115.244C81.1558 122.972 81.1711 130.715 81.2631 138.442C81.3091 142.807 81.3858 147.173 81.4931 151.522C81.4931 151.63 81.7998 151.63 81.7844 151.522C81.6004 143.748 81.4931 135.974 81.4778 128.2C81.4624 120.473 81.5238 112.73 81.6618 105.002V105.017Z" fill="#4B575E"/>
  <path d="M91.9502 50.5383C91.9502 50.8159 91.9502 51.0781 91.9502 51.3558C91.9502 51.9882 91.9349 52.6206 91.9195 53.253C91.8735 56.2453 91.8122 59.2377 91.6895 62.23C91.6895 62.5076 91.6742 62.7853 91.6589 63.0475C91.4902 66.6723 91.2296 70.2816 90.7542 73.8601C90.7236 74.1377 90.6776 74.4153 90.6469 74.6776C90.4169 76.2971 90.1563 77.9013 89.8496 79.5054C83.5324 79.1815 77.2 79.1044 70.8828 79.2895C70.8828 77.8858 70.8828 76.4822 70.8828 75.094C70.8828 74.8164 70.8828 74.5542 70.8828 74.2765C70.8828 70.6209 70.9135 66.9499 70.9135 63.2943C70.9135 63.0167 70.9135 62.7544 70.9135 62.4768C70.9135 58.8675 70.9441 55.2736 70.9441 51.6642C70.9441 51.3866 70.9441 51.1244 70.9441 50.8467C70.9441 50.6 70.9441 50.3377 70.9441 50.0909C70.9441 47.2066 70.9595 44.3068 71.1281 41.4378C71.1281 41.1602 71.1588 40.8825 71.1741 40.6203C71.3735 37.628 71.7415 34.6665 72.4314 31.7513C72.4621 31.6124 72.5081 31.4736 72.5388 31.3348C72.6154 31.0417 72.6921 30.7487 72.7688 30.4556C73.1827 28.9903 73.7347 27.5712 74.5474 26.3064C74.67 26.1059 74.7927 25.9362 74.9154 25.7511C76.3567 23.746 77.9819 23.0364 80.4352 22.8051C83.3791 22.512 85.771 20.6919 88.0556 23.6997C88.255 23.9619 88.4236 24.2395 88.5923 24.5172C89.129 25.4581 89.4509 26.5224 89.7423 27.5712C89.9416 28.2653 90.1103 28.9748 90.2789 29.6689C90.3403 29.9466 90.4016 30.2088 90.4629 30.4864C91.1222 33.6176 91.5056 36.8105 91.7202 40.0188C91.7355 40.2964 91.7509 40.5586 91.7662 40.8363C91.9502 44.06 91.9655 47.2991 91.9349 50.5228L91.9502 50.5383Z" fill="#FFFDF8"/>
  <path d="M74.8234 50.785L70.9748 50.8467C70.9748 51.1244 70.9748 51.3866 70.9748 51.6642C75.958 51.5871 80.9565 51.51 85.9397 51.4329C87.9483 51.402 89.9569 51.3712 91.9655 51.3403C91.9655 51.0627 91.9655 50.8005 91.9655 50.5228C86.2464 50.6154 80.5425 50.6925 74.8234 50.785ZM91.7969 40.8363C91.7969 40.5586 91.7662 40.2964 91.7509 40.0188C85.1731 40.2039 78.6106 40.4044 72.0328 40.5895C71.7568 40.5895 71.4808 40.6049 71.2048 40.6049C71.1895 40.8825 71.1741 41.1448 71.1588 41.4224C75.3293 41.299 79.5152 41.191 83.6858 41.0676C86.3844 40.9905 89.0983 40.9134 91.7969 40.8363V40.8363ZM73.7041 62.5231C72.7841 62.5231 71.8488 62.4922 70.9288 62.4768C70.9288 62.7544 70.9288 63.0167 70.9288 63.2943C75.5747 63.4023 80.2359 63.3868 84.8817 63.2634C87.1357 63.2017 89.4049 63.14 91.6589 63.0475C91.6589 62.7699 91.6895 62.4922 91.6895 62.23C85.6944 62.4614 79.6992 62.6002 73.7041 62.5231V62.5231ZM70.8981 74.2765C70.8981 74.5542 70.8981 74.8164 70.8981 75.094C74.5474 74.986 78.2119 74.8781 81.8612 74.8009C84.7897 74.7392 87.7183 74.693 90.6469 74.6775C90.6776 74.3999 90.7236 74.1377 90.7542 73.8601C84.1918 73.8755 77.6293 74.076 71.0668 74.2765C71.0055 74.2765 70.9441 74.2765 70.8828 74.2765H70.8981ZM79.9139 30.6561C83.4405 30.5481 86.9823 30.5944 90.5089 30.4864C90.4476 30.2088 90.3862 29.9312 90.3249 29.6689C87.289 29.7461 84.2684 29.7461 81.2325 29.8078C79.3006 29.8386 77.384 29.9312 75.452 30.1317C74.5627 30.2242 73.6887 30.3476 72.7994 30.4556C72.7228 30.7487 72.6308 31.0417 72.5694 31.3348C73.1367 31.2577 73.7041 31.1805 74.2714 31.1188C76.142 30.8721 78.0126 30.7332 79.9139 30.6715V30.6561Z" fill="#63848F"/>
  <path d="M88.6383 24.5172C88.2396 25.2113 87.5957 25.782 86.921 26.1522C85.8324 26.7691 84.5904 27.0005 83.3638 27.201C81.6005 27.4941 79.7759 27.71 78.0433 27.3399C77.8133 27.2936 77.5986 27.2319 77.384 27.1702C76.4947 26.8925 75.636 26.4144 74.9614 25.7511C76.4027 23.746 78.0279 23.0364 80.4812 22.8051C83.4251 22.512 85.8171 20.6919 88.1017 23.6997C88.301 23.9619 88.4696 24.2395 88.6383 24.5172V24.5172Z" fill="#FCD9BA"/>
  <path d="M54.6606 82.76C54.8139 82.5132 54.9366 82.251 55.0899 81.9733C55.8566 80.5851 56.6232 79.1969 57.3745 77.7779C58.8772 74.9706 60.3031 72.1325 61.6831 69.2636C63.0017 66.518 64.213 63.6645 64.9643 60.703C65.317 59.2993 65.317 58.2505 64.1517 57.217C63.1704 56.3533 61.7137 56.2453 60.4411 56.5384C59.2298 56.816 58.0492 57.433 57.3285 58.451C56.8072 59.1914 56.5619 60.086 56.3166 60.9498C55.0899 65.4383 53.8633 69.9268 52.7593 74.4462C52.2533 76.4822 51.778 78.5645 50.9194 80.4771C50.6127 81.1558 50.3061 81.8499 50.2601 82.5903C50.2601 82.652 50.2601 82.7291 50.2907 82.7908C50.3214 82.8525 50.3827 82.8834 50.4287 82.9296C51.6707 83.7317 53.7406 84.287 54.6606 82.76V82.76Z" fill="#FCD9BA"/>
  <path d="M67.3409 49.0883C67.0956 52.1424 66.8809 55.2119 66.6662 58.2659C66.5589 59.8238 66.4516 61.3816 66.3289 62.9395C66.2369 64.1272 66.2829 65.2532 65.4243 66.1787C65.3169 66.2866 65.1943 66.3946 65.041 66.4254C64.8723 66.4717 64.6883 66.41 64.5196 66.3329C63.3237 65.8085 62.8943 64.7288 62.097 63.8187C61.4071 63.0321 60.3031 62.8161 59.2758 62.7698C58.2791 62.7236 57.4205 62.8315 56.5159 63.2326C56.0099 63.4639 55.6112 63.4023 55.3812 62.8161C55.0899 62.0912 55.2586 61.2582 55.5499 60.5333C55.8566 59.8083 56.2859 59.1451 56.5619 58.4201C56.9145 57.4793 57.0065 56.4458 56.9605 55.4278C56.8992 54.2401 56.6845 52.9753 57.2212 51.911C57.4818 51.402 57.8958 50.9856 58.1872 50.4765C59.0918 48.857 58.4325 46.9289 58.7391 45.186C58.9078 44.2605 59.2451 43.3967 59.4138 42.4712C59.6131 41.3761 59.8124 40.281 60.0271 39.1858C60.6097 36.1935 61.0237 32.3219 62.7717 29.7306C63.9983 27.9105 66.0989 25.0879 68.6289 25.7357C68.7975 25.782 68.9815 25.8591 69.0888 25.9979C69.2115 26.183 69.1962 26.4298 69.1808 26.6457C68.9202 29.345 68.6902 32.0289 68.4449 34.7282C68.2762 36.7333 68.3989 38.6306 68.1689 40.6512C67.8469 43.443 67.5862 46.2657 67.3562 49.0729L67.3409 49.0883Z" fill="#99A558"/>
  <path d="M65.0256 61.7673C64.765 70.6826 65.0716 79.6442 64.581 88.5287C64.5963 88.5287 64.6116 88.5287 64.627 88.5287H74.5167C74.2407 84.9503 74.3174 81.3409 74.486 77.7625C74.716 72.6878 74.8234 67.6132 74.992 62.5385C75.1607 57.3867 75.3293 52.235 75.498 47.0832C75.6667 42.0548 75.9427 37.0264 75.9887 31.9981C75.9887 30.5944 75.958 29.2062 76.0807 27.818C76.188 26.6303 75.8353 25.3655 76.5406 24.2858C77.016 23.53 77.8746 23.129 78.7332 22.8822C80.6345 22.3269 82.5665 21.8796 84.5597 21.7562C85.0964 21.7254 85.6637 21.7099 86.139 21.9722C86.5837 22.2189 86.8903 22.6663 87.1357 23.1136C88.4083 25.381 88.5616 27.9568 88.5923 30.5019C88.623 34.358 88.9603 38.2912 88.7456 42.1011C88.4236 48.1629 87.9636 54.2093 87.6263 60.2711C87.289 66.2866 86.9517 72.3639 87.335 78.3949C87.5037 81.1096 87.795 83.8551 87.519 86.5853C87.4577 87.2485 87.381 87.9118 87.3043 88.5596H98.2367C98.206 88.2819 97.9147 88.0043 97.838 87.7112C97.7307 87.2331 97.6694 86.7241 97.6387 86.2151C97.562 85.0891 97.6234 83.9168 97.5774 82.8525C96.9027 68.3227 96.3814 53.5923 99.6473 39.4172C100.169 37.1653 101.012 34.2809 100.981 31.6741C100.951 30.0237 100.521 28.5892 99.54 27.2782C98.6047 26.0288 96.9794 25.3501 95.5994 24.6714C92.4715 23.129 89.1289 22.0338 85.7097 21.4323C84.7897 21.278 83.7931 20.9079 82.8885 20.8462C82.1678 20.7999 81.2785 21.0621 80.5732 21.2009C78.7639 21.5557 77.0313 22.1881 75.2987 22.8205L67.7089 25.5661C67.1722 25.7666 66.6203 25.9517 66.1756 26.3064C64.8876 27.2782 64.9336 28.7589 64.535 30.1625C64.075 31.7821 64.1363 33.1857 64.351 34.8824C65.4703 43.8132 65.2863 52.8519 65.0256 61.829V61.7673Z" fill="#99A558"/>
  <path d="M86.1237 23.3912C85.9397 23.6226 85.6637 23.7768 85.4031 23.9156C83.0878 25.1342 80.3739 25.6432 77.7673 25.3347C77.6293 25.3193 77.476 25.2884 77.3687 25.1959C77.2767 25.1187 77.2306 24.9799 77.1847 24.8565C76.9547 24.147 76.694 23.422 76.4487 22.7125C75.9887 21.3706 75.5594 19.9978 75.36 18.6096C75.36 18.5942 75.36 18.5633 75.36 18.5479C75.2987 18.1315 75.2834 17.7304 75.3447 17.314C75.59 15.5247 76.97 14.044 78.4266 13.0568C79.1626 12.5632 79.7759 12.2547 80.6499 12.6866C81.7232 13.211 82.5205 13.8435 83.0418 14.9232C83.6398 16.1571 84.2378 17.3911 84.8051 18.6405C85.0811 19.2574 85.3571 19.8898 85.6331 20.5222C85.8631 21.0467 86.2617 21.5094 86.3844 22.0647C86.4917 22.512 86.4457 23.021 86.1544 23.3912H86.1237Z" fill="#FCD9BA"/>
  <path d="M78.028 21.6946C77.844 21.9259 77.6447 22.1573 77.3993 22.3424C77.2613 22.4349 77.108 22.5275 76.9547 22.5892C76.786 22.6663 76.6173 22.7126 76.4487 22.728C75.9887 21.3861 75.5594 20.0133 75.36 18.6251C75.4827 18.4863 75.6514 18.3783 75.912 18.2241C76.7247 17.7305 77.7673 17.0672 78.6873 17.6842C80.0672 18.5942 78.764 20.7845 78.028 21.6946V21.6946Z" fill="#E6C1A0"/>
  <path d="M69.8248 8.6762C69.8248 8.6762 69.8095 8.7379 69.7942 8.76875C69.7328 9.00011 69.7942 9.32403 69.7788 9.57082C69.7482 9.87931 69.7482 10.2032 69.7788 10.5117C69.8402 11.0824 70.2848 11.5452 70.3462 12.1159C70.3768 12.3781 70.2542 12.6094 70.1775 12.8562C70.0855 13.1493 69.9935 13.4269 69.8708 13.7046C69.6409 14.2753 69.3649 14.8306 69.0582 15.355C68.8435 15.7252 68.5982 16.1262 68.6749 16.5427C68.7975 17.2214 69.5489 17.3293 70.0855 17.4527C70.6835 17.607 70.8981 18.3319 71.0361 18.8409C71.2201 19.535 71.2815 20.2446 71.4961 20.9387C71.7568 21.8024 72.2321 22.4965 73.1981 22.4657C74.578 22.4348 75.912 21.9567 77.062 21.2009C77.9666 20.6147 78.7486 19.8589 79.3926 19.026C79.9599 18.3011 80.8492 17.6687 81.1558 16.774C81.4778 15.8486 82.3211 15.864 83.0571 15.3241C83.8084 14.7534 84.2838 13.72 84.5291 12.8562C84.8204 11.8845 84.8971 10.8665 84.9891 9.86388C85.0657 8.86129 85.1577 7.82785 84.8204 6.88696C84.4371 5.7764 83.5171 4.89721 82.4745 4.3265C81.4318 3.7558 80.2665 3.46273 79.1012 3.23136C77.8286 2.96915 76.6633 2.7532 75.3753 3C74.4707 3.16967 73.6581 3.509 72.7994 3.84834C72.0021 4.15683 71.4348 4.83551 70.9748 5.54503C70.3768 6.50135 70.0548 7.58106 69.7635 8.6762H69.8248Z" fill="#FCD9BA"/>
  <path d="M85.5564 15.4476C85.2344 16.1571 84.8511 16.8358 84.1611 17.2522C83.6704 17.5607 83.1644 17.4373 82.6738 17.1905C82.1831 16.9283 81.7078 16.6198 81.2938 16.2496C80.7572 15.7869 80.2972 15.2471 79.7759 14.7689C79.3006 14.337 78.6566 14.2753 78.1046 13.9514C76.234 12.8408 76.786 10.3112 75.5287 8.72251C74.992 8.04383 74.1794 7.5811 73.3207 7.47312C72.5388 7.38058 71.7261 7.55025 70.9901 7.25718C69.4568 6.65563 68.4142 4.71214 69.8555 3.47819C70.3308 3.06172 70.8981 2.73781 71.4808 2.53729C71.9868 2.3522 72.5234 2.25965 72.9987 1.98201C73.7194 1.58098 74.2254 0.809752 74.992 0.485838C75.4213 0.300745 75.8813 0.28532 76.3413 0.254471C77.0926 0.208198 77.8593 0.177349 78.5799 0.42414C79.0859 0.609234 79.5305 0.933148 80.0365 1.16451C81.1865 1.67352 82.6585 1.6581 83.4864 2.61442C84.1457 3.38564 84.1457 4.4962 84.4677 5.45252C84.8357 6.56308 85.633 7.4577 86.2617 8.42944C86.8903 9.41661 87.3503 10.6351 86.9517 11.7303C86.737 12.3318 86.2924 12.81 86.0777 13.3961C85.8324 14.0594 85.863 14.7843 85.5717 15.4322L85.5564 15.4476Z" fill="#553A12"/>
  <path d="M70.4688 11.0053C70.4688 11.0053 70.4841 10.8974 70.5148 10.8511C70.6988 10.45 71.3121 10.4963 71.6648 10.4963C72.1401 10.4963 72.5847 10.6814 72.9987 10.8819C73.3974 11.0824 73.8114 11.3447 73.9494 11.7765C73.9494 11.8074 73.9494 11.8228 73.9494 11.8537C73.888 11.9771 73.2747 11.6532 73.1827 11.6223C73.0447 11.5606 72.8914 11.5298 72.7534 11.4989C72.2168 11.3909 71.6494 11.3292 71.1128 11.4218C70.9901 11.4372 70.8675 11.4681 70.7601 11.4372C70.5608 11.3909 70.4688 11.1904 70.4841 10.9899L70.4688 11.0053Z" fill="#553A12"/>
  <path d="M76.004 14.4141C76.004 14.4141 76.004 14.3833 76.004 14.3678C75.728 13.0568 76.7093 10.5734 78.3959 11.2212C78.9939 11.4526 79.4079 12.0233 79.5306 12.6557C79.7606 13.8743 78.8866 15.9411 77.476 16.0491C76.6173 16.1108 76.1727 15.1391 76.004 14.4295V14.4141Z" fill="#FCD9BA"/>
  <path d="M72.2781 13.1648C72.2474 13.0105 72.2014 12.8563 72.1094 12.7791C72.0481 12.7329 71.9561 12.702 71.8641 12.702C71.6034 12.702 71.4501 12.8563 71.4041 13.0722C71.3888 13.211 71.4041 13.3499 71.4347 13.4887C71.4654 13.6275 71.5114 13.7817 71.5881 13.9051C71.6341 13.9668 71.6801 14.0285 71.7567 14.0594C72.0941 14.1982 72.2627 13.9668 72.2781 13.6892C72.2781 13.5658 72.2934 13.3499 72.2781 13.1493V13.1648Z" fill="#553A12"/>
  <path d="M73.4281 5.82264C72.8608 5.82264 72.2781 5.83806 71.7722 5.545C71.2815 5.26736 71.1128 4.74293 70.9902 4.21849C70.9595 4.11052 70.6682 4.12595 70.6989 4.21849C70.7602 4.51156 70.8369 4.80462 70.9902 5.06684C71.1282 5.31363 71.3428 5.51415 71.5882 5.66839C72.1555 5.99231 72.8301 5.99231 73.4588 5.97688C73.5048 5.97688 73.6121 5.94603 73.5968 5.88434C73.5968 5.82264 73.4894 5.80721 73.4434 5.80721L73.4281 5.82264Z" fill="#412409"/>
  <path d="M75.5134 3.70954C75.5134 3.70954 75.3754 3.64784 75.3294 3.66327C75.0074 3.72496 74.6548 3.74039 74.3634 3.60157C74.1028 3.47817 73.9035 3.24681 73.8575 2.96917C73.8421 2.86119 73.5508 2.87662 73.5661 2.96917C73.6121 3.3085 73.8728 3.58614 74.1794 3.72496C74.5628 3.89463 75.0074 3.87921 75.4214 3.81751C75.4674 3.81751 75.5441 3.77124 75.5134 3.70954V3.70954Z" fill="#412409"/>
  <path d="M85.6178 8.98472C85.5718 8.89217 85.2805 8.92302 85.3265 9.04642C85.7558 9.97189 85.6638 11.0979 85.0965 11.9616C85.0658 12.0233 85.1731 12.0542 85.2038 12.0542C85.2651 12.0542 85.3418 12.0542 85.3878 11.9925C85.9704 11.1133 86.0471 9.95646 85.6178 9.00014V8.98472Z" fill="#412409"/>
  <path d="M83.1798 9.66333C83.1185 9.57078 82.8272 9.61706 82.8885 9.72503C83.3485 10.4191 82.7965 11.1904 82.3672 11.7302C82.2752 11.8382 82.5665 11.8845 82.6278 11.8073C82.8885 11.4988 83.1492 11.1595 83.2718 10.7739C83.3945 10.4191 83.3791 10.0027 83.1798 9.67875V9.66333Z" fill="#412409"/>
  <path d="M72.1401 18.4399C72.0634 18.2548 72.0174 17.9772 72.1708 17.8538C72.3548 17.715 72.6921 17.6996 72.9067 17.5453C73.1214 17.3911 73.2901 17.1906 73.4894 17.0363C73.934 16.697 74.164 16.99 74.1027 17.4528C74.0567 17.7767 73.842 18.0698 73.6274 18.3011C73.2441 18.7022 72.4468 19.1803 72.1248 18.4399H72.1401Z" fill="#E9B8A2"/>
  <path d="M107.666 87.7111C107.544 87.418 107.406 87.1404 107.237 86.8782C106.961 86.4154 106.578 86.0144 106.087 85.783C105.596 85.5517 105.014 85.5054 104.539 85.7368C104.309 85.8447 104.125 86.0144 103.941 86.1841C102.99 87.0633 102.469 88.3898 102.331 89.67C102.208 90.8577 102.269 92.2613 102.791 93.341C102.852 93.4799 103.036 93.7266 103.143 93.5107C103.174 93.449 103.128 93.3256 103.143 93.2639C103.174 92.9091 103.45 92.5544 103.803 92.8937C103.956 93.048 104.002 93.2793 103.971 93.4799C103.925 93.7883 103.772 93.9734 103.619 94.2202C103.603 94.2511 103.573 94.2819 103.573 94.3282C103.557 94.4053 103.603 94.4979 103.665 94.5441C103.803 94.6521 104.017 94.8218 104.186 94.8372C104.677 94.8835 105.167 94.3899 105.382 93.9889C105.382 94.1585 105.504 94.2973 105.658 94.3436C105.811 94.3899 105.98 94.3436 106.133 94.2819C106.532 94.1123 106.838 93.7421 106.93 93.3102C107.191 93.4799 107.544 93.4799 107.804 93.3102C108.065 93.1405 108.218 92.832 108.188 92.5235C108.188 92.5544 108.479 92.3847 108.51 92.3539C108.617 92.2613 108.694 92.1379 108.74 91.9991C108.816 91.7523 108.832 91.413 108.832 91.1508C108.832 90.395 108.586 89.67 108.28 88.9913C108.08 88.5749 107.912 88.143 107.728 87.7111H107.666Z" fill="#FCD9BA"/>
  <path d="M106.884 88.2048C107.62 86.3075 107.314 83.8396 107.375 81.8036C107.436 79.4745 107.467 77.1454 107.482 74.8163C107.528 70.1581 107.482 65.4845 107.39 60.8263C107.329 57.9419 104.155 58.6669 102.254 59.2376C101.426 59.4844 100.261 59.8392 99.862 60.7029C99.4787 61.5358 99.8313 62.9549 99.908 63.8495C100.291 67.7056 100.69 71.5772 101.073 75.4333C101.334 78.1017 101.61 80.7856 102.024 83.4386C102.239 84.7651 102.484 86.0762 102.775 87.3873C103.005 88.3744 102.944 89.3307 104.094 89.5775C105.167 89.7935 106.47 89.2999 106.9 88.2202L106.884 88.2048Z" fill="#FCD9BA"/>
  <path d="M103.864 92.9246C103.573 92.3693 103.036 91.8912 103.067 91.2125C103.067 91.1045 102.775 91.1045 102.775 91.2125C102.76 91.8912 103.251 92.3693 103.557 92.9092C103.634 93.0326 103.695 93.1868 103.711 93.3257C103.726 93.4645 103.711 93.6033 103.665 93.7421C103.573 94.0043 103.435 94.2511 103.496 94.5288C103.511 94.6367 103.818 94.6367 103.787 94.5288C103.726 94.2357 103.879 93.9889 103.956 93.7267C104.033 93.4491 104.002 93.1868 103.864 92.9246Z" fill="#C6AE8A"/>
  <path d="M96.9641 49.0883C96.9641 50.0138 96.9641 50.9392 96.9947 51.8647C97.0561 53.5614 97.3627 55.2427 97.884 56.8622C98.114 57.5563 98.436 58.2196 98.6047 58.9291C98.988 60.6104 98.39 62.2917 98.3594 63.9575C98.3594 64.559 98.3287 65.8239 98.9267 66.2095C99.31 66.4563 100.276 66.302 100.721 66.2557C102.3 66.1169 103.879 65.9781 105.458 65.8393C106.302 65.7622 107.697 66.194 108.372 65.5308C109.169 64.7441 109.092 62.9703 108.77 62.014C108.602 61.5204 108.341 61.0731 108.218 60.5641C107.728 58.7132 109 56.6154 108.157 54.9033C107.958 54.4869 107.636 54.1321 107.39 53.7311C106.777 52.7285 106.7 51.5254 106.639 50.384C106.578 49.3351 106.44 48.2862 106.378 47.2528C106.225 44.5844 105.489 41.8234 104.983 39.2012C104.401 36.2089 103.987 32.3373 102.239 29.746C101.012 27.9259 98.9113 25.1033 96.3814 25.7511C96.2128 25.7974 96.0288 25.8745 95.9214 26.0133C95.7988 26.1984 95.8141 26.4452 95.8294 26.6611C96.0901 29.3604 96.3201 32.0443 96.5654 34.7435C96.7341 36.7487 96.6114 38.6459 96.8414 40.6665C97.1634 43.4429 97.0254 46.2656 96.9794 49.0883H96.9641Z" fill="#99A558"/>
  <path d="M72.9528 32.399C73.1828 32.2139 73.4281 32.0288 73.6581 31.8438C74.1334 31.4736 74.6087 31.1188 75.0687 30.7486C75.1301 30.7023 75.0687 30.6561 75.0227 30.6406C74.3634 30.3939 73.7041 30.1625 73.0601 29.9157C72.7228 29.7923 72.3855 29.6689 72.0635 29.5455C71.9255 29.4992 71.7722 29.4375 71.6342 29.3913C71.4962 29.345 71.3888 29.2679 71.4042 29.0982C71.4195 28.944 71.5268 28.7897 71.5882 28.6509C71.6648 28.4966 71.7415 28.327 71.8182 28.1727C71.9715 27.8797 72.1095 27.5866 72.2628 27.309C72.5695 26.7228 72.9068 26.1367 73.2441 25.566C73.6274 24.9182 74.0261 24.2858 74.4248 23.6534C74.4861 23.5608 74.1948 23.5145 74.1334 23.6071C73.3668 24.7639 72.6615 25.967 72.0175 27.1856C71.8642 27.4786 71.6955 27.7871 71.5422 28.0956C71.4655 28.2499 71.3888 28.4195 71.3122 28.5738C71.2355 28.7126 71.1588 28.8668 71.1128 29.0211C71.0208 29.345 71.2968 29.4684 71.5422 29.5609C71.8795 29.6843 72.2168 29.8077 72.5695 29.9465C73.2901 30.2088 74.0261 30.4864 74.7467 30.7486C74.3481 31.0571 73.9494 31.3656 73.5508 31.6741C73.3361 31.8438 73.1215 31.998 72.9068 32.1677C72.7075 32.3219 72.4928 32.4607 72.3241 32.6304C72.1555 32.7846 72.0635 32.9697 72.0482 33.2011C72.0328 33.4479 72.0942 33.6947 72.1402 33.9415C72.2475 34.4659 72.3395 34.9903 72.4468 35.5148C72.8761 37.6279 73.3361 39.7257 73.8421 41.8234C74.1181 42.9956 74.4094 44.1525 74.7161 45.3093C74.7467 45.4019 75.0381 45.3864 75.0074 45.263C74.4708 43.2116 73.9801 41.1447 73.5048 39.0778C73.2748 38.0444 73.0448 36.9955 72.8301 35.9467C72.7228 35.4377 72.6155 34.9132 72.5235 34.4042C72.4775 34.142 72.4161 33.8952 72.3701 33.633C72.3241 33.4016 72.2935 33.1548 72.4008 32.9389C72.5235 32.7075 72.7688 32.5533 72.9528 32.399V32.399Z" fill="#495E22"/>
  <path d="M92.3335 31.489C92.1189 31.3039 91.8736 31.1343 91.6436 30.9646C91.1836 30.6253 90.7083 30.3014 90.2176 30.0083C90.6469 29.5764 91.0762 29.1599 91.5056 28.7281C91.7202 28.5121 91.9349 28.2962 92.1496 28.0802C92.3489 27.8797 92.5635 27.6946 92.7475 27.4633C92.9009 27.2627 92.9929 27.0468 92.9469 26.7846C92.8855 26.5069 92.7322 26.2756 92.5942 26.0288C92.3029 25.5043 91.9962 24.9953 91.6742 24.4863C91.3216 23.9156 90.9383 23.3603 90.5549 22.8205C90.5089 22.7588 90.4323 22.7588 90.3709 22.7588C90.3403 22.7588 90.2329 22.8051 90.2636 22.8668C90.9383 23.8077 91.5669 24.7794 92.1496 25.7974C92.2875 26.0442 92.4562 26.291 92.5635 26.5532C92.6862 26.8154 92.7015 27.0622 92.5482 27.309C92.4102 27.5249 92.1955 27.6946 92.0269 27.8797C91.8122 28.0957 91.5976 28.3116 91.3829 28.5275C90.8923 29.0057 90.4169 29.4993 89.9263 29.9774C89.8956 30.0083 89.9263 30.0546 89.9569 30.07C90.4169 30.3476 90.8463 30.6561 91.2909 30.9646C91.5056 31.1189 91.7049 31.2731 91.9196 31.4273C92.0882 31.5662 92.2722 31.6896 92.4102 31.8747C92.7475 32.3065 92.5942 32.8464 92.4715 33.3246L92.0729 34.9133C91.5362 37.0573 90.9996 39.2013 90.4629 41.3607L89.5583 44.97C89.5276 45.0934 89.819 45.1088 89.8496 45.0163C90.4016 42.826 90.9536 40.6357 91.4902 38.4455C91.7662 37.3503 92.0422 36.2552 92.3182 35.1755C92.4562 34.6202 92.5942 34.0803 92.7322 33.5251C92.8549 33.0623 93.0542 32.5225 92.8395 32.0443C92.7475 31.8284 92.5635 31.6433 92.3795 31.489H92.3335Z" fill="#495E22"/>
  <path d="M64.259 41.7926C63.2164 40.3427 62.4191 38.7077 61.8977 36.9956C61.7444 36.502 61.6217 36.0084 61.5297 35.4994C61.5144 35.376 61.2078 35.3914 61.2384 35.4994C61.5911 37.2732 62.2351 38.9853 63.1397 40.5586C63.4004 41.0059 63.6763 41.4224 63.9677 41.8389C64.0137 41.9005 64.0903 41.9006 64.1517 41.9006C64.1823 41.9006 64.2897 41.8543 64.259 41.7926Z" fill="#495E22"/>
  <path d="M65.271 57.7415C65.2403 55.0268 65.2403 52.3275 65.271 49.6128C65.2863 48.0858 65.317 46.5587 65.363 45.0317C65.363 44.9238 65.0717 44.9238 65.0717 45.0317C65.0104 47.7464 64.9644 50.4766 64.9644 53.2067C64.9644 55.9214 64.995 58.6207 65.0563 61.3354C65.087 62.8624 65.133 64.3894 65.1943 65.9165C65.1943 66.0244 65.501 66.0244 65.4857 65.9165C65.3783 63.2017 65.317 60.4716 65.2863 57.7569L65.271 57.7415Z" fill="#495E22"/>
  <path d="M103.573 35.885C103.465 36.502 103.205 37.0881 102.929 37.6434C102.622 38.2449 102.3 38.8156 101.993 39.4172C101.334 40.6357 100.69 41.8542 100.031 43.0728C99.6627 43.7515 99.2947 44.4456 98.9267 45.1242C98.8654 45.2322 99.1567 45.263 99.218 45.1705L101.181 41.4995C101.825 40.2809 102.484 39.0778 103.128 37.8593C103.45 37.2423 103.741 36.5945 103.864 35.9004C103.879 35.7924 103.588 35.777 103.573 35.9004V35.885Z" fill="#495E22"/>
  <path d="M106.792 60.3482C105.949 60.2865 105.137 60.5025 104.309 60.595C103.481 60.6721 102.653 60.5642 101.855 60.3791C101.395 60.2711 100.935 60.1477 100.475 60.0243C100.414 60.0089 100.322 60.0089 100.276 60.0552C100.23 60.1014 100.276 60.1477 100.322 60.1631C101.135 60.3791 101.963 60.6104 102.791 60.703C103.205 60.7493 103.634 60.7801 104.063 60.7647C104.477 60.7493 104.891 60.6721 105.305 60.6104C105.765 60.5333 106.24 60.4562 106.7 60.5025C106.762 60.5025 106.854 60.5025 106.884 60.4408C106.915 60.3791 106.823 60.3482 106.777 60.3328L106.792 60.3482Z" fill="#495E22"/>
  <path d="M104.493 53.5152C103.649 54.0859 102.775 54.6103 101.871 55.1039C101.809 55.1347 101.825 55.181 101.871 55.2273C101.932 55.2581 102.024 55.2581 102.085 55.2273C102.99 54.7491 103.864 54.2247 104.707 53.6386C104.845 53.546 104.585 53.4689 104.493 53.5152Z" fill="#495E22"/>
  <path d="M62.4497 60.3791C61.3611 59.2531 59.7511 58.6824 58.2025 58.7904C57.7579 58.8212 57.3285 58.8983 56.8992 59.0371C56.8532 59.0526 56.8072 59.0988 56.8532 59.1451C56.8992 59.1914 57.0066 59.1914 57.0526 59.176C58.4325 58.7132 59.9811 58.9292 61.2231 59.685C61.5757 59.9009 61.8977 60.1631 62.1891 60.4562C62.2657 60.5333 62.5417 60.4716 62.4497 60.3791Z" fill="#495E22"/>
  <path d="M61.6371 52.4971C61.4224 52.3583 61.2078 52.2349 60.9778 52.1269C60.5331 51.8956 60.0731 51.6796 59.6132 51.51C59.5518 51.4945 59.4598 51.4945 59.4138 51.5408C59.3678 51.5871 59.4138 51.6334 59.4598 51.6488C59.8892 51.8184 60.3031 52.0035 60.7018 52.2041C60.9011 52.312 61.1004 52.42 61.2844 52.528C61.4378 52.6205 61.6984 52.7285 61.7138 52.929C61.7291 53.037 62.0204 53.037 62.0051 52.929C61.9744 52.7131 61.7904 52.5897 61.6218 52.4971H61.6371Z" fill="#495E22"/>
  <path d="M73.7654 51.7106C73.7654 51.7106 73.7194 51.7106 73.704 51.7106C73.5967 51.6797 73.4894 51.6643 73.3667 51.6643C73.0754 51.6797 72.8761 51.834 72.8454 52.127C72.8147 52.3738 72.8454 52.6206 73.0601 52.7903C73.2901 52.96 73.6427 52.9754 73.888 52.8366C74.072 52.7286 74.164 52.5127 74.164 52.2967C74.164 52.0191 74.0107 51.8031 73.75 51.726L73.7654 51.7106Z" fill="#495E22"/>
  <path d="M73.1061 60.2094C73.1061 60.2094 73.0601 60.2094 73.0447 60.2094C72.9374 60.1786 72.8301 60.1631 72.7074 60.1631C72.4161 60.1786 72.2168 60.3328 72.1861 60.6259C72.1554 60.8727 72.1861 61.1195 72.4008 61.2891C72.6307 61.4588 72.9834 61.4742 73.2441 61.3354C73.4281 61.2274 73.5201 61.0115 73.5201 60.7955C73.5201 60.5179 73.3667 60.302 73.1061 60.2248V60.2094Z" fill="#495E22"/>
  <path d="M73.1061 68.7238C73.1061 68.7238 73.0601 68.7238 73.0447 68.7238C72.9374 68.6929 72.8301 68.6775 72.7074 68.6775C72.4161 68.6929 72.2168 68.8472 72.1861 69.1402C72.1554 69.387 72.1861 69.6338 72.4008 69.8035C72.6307 69.9731 72.9834 69.9886 73.2441 69.8498C73.4281 69.7418 73.5201 69.5258 73.5201 69.3099C73.5201 69.0323 73.3667 68.8163 73.1061 68.7392V68.7238Z" fill="#495E22"/>
  <path d="M73.1061 77.2226C73.1061 77.2226 73.0601 77.2226 73.0447 77.2226C72.9374 77.1918 72.8301 77.1763 72.7074 77.1763C72.4161 77.1918 72.2168 77.346 72.1861 77.6391C72.1554 77.8859 72.1861 78.1326 72.4008 78.3023C72.6307 78.472 72.9834 78.4874 73.2441 78.3486C73.4281 78.2406 73.5201 78.0247 73.5201 77.8087C73.5201 77.5311 73.3667 77.3151 73.1061 77.238V77.2226Z" fill="#495E22"/>
</svg>
