<svg width="118" height="158" viewBox="0 0 118 158" fill="none"
  xmlns="http://www.w3.org/2000/svg">
  <path d="M23.5821 132.436C25.3758 140.064 29.8603 148.365 32.5509 147.917C35.4658 147.468 35.9143 137.372 34.7932 129.968C33.6721 121.218 29.6361 110 26.7212 110C23.5821 110 21.1156 121.891 23.5821 132.436Z" fill="#224120"/>
  <path d="M32.1026 148.141C30.3088 141.635 28.9635 134.904 27.8424 128.173C27.6182 126.154 27.1697 123.91 27.1697 121.891C27.1697 120.769 26.9455 119.872 26.9455 118.75C26.7213 115.833 26.4971 112.917 26.4971 110H27.1697C27.1697 112.917 27.394 115.833 27.6182 118.75C27.6182 119.647 27.8424 120.769 27.8424 121.891C28.0666 123.91 28.2908 126.154 28.5151 128.173C29.4119 134.904 30.9815 141.41 32.7753 147.917L32.1026 148.141Z" fill="#A7BC68"/>
  <path d="M30.6691 114.884L26.8958 118.723L27.2154 119.038L30.9888 115.199L30.6691 114.884Z" fill="#A7BC68"/>
  <path d="M27.6181 122.115L27.1697 121.667L31.4299 116.955L31.8784 117.404L27.6181 122.115Z" fill="#A7BC68"/>
  <path d="M13.4921 140.737C20.443 147.019 30.9814 152.179 33.2237 149.936C35.6901 147.468 28.9634 137.147 22.9094 130.641C15.5101 122.788 3.85056 114.487 0.935671 116.506C-2.42766 118.526 3.62628 131.987 13.4921 140.737Z" fill="#608437"/>
  <path d="M32.9994 150.16C26.497 145 20.443 139.391 14.8374 133.333C13.0436 131.538 11.2499 129.519 9.68032 127.724C8.78343 126.827 8.11075 125.929 7.21386 124.808C4.97163 122.115 2.72943 119.423 0.711426 116.506L1.15983 116.058C3.17783 118.75 5.42011 121.667 7.66233 124.359C8.335 125.256 9.23183 126.154 10.1287 127.051C11.6983 128.846 13.4921 130.865 15.2859 132.66C20.8914 138.494 26.9454 144.103 33.4479 149.263L32.9994 150.16Z" fill="#A7BC68"/>
  <path d="M7.97776 118.414L6.95752 124.84L7.40041 124.911L8.42066 118.485L7.97776 118.414Z" fill="#A7BC68"/>
  <path d="M10.3724 120.061L9.45068 127.633L9.89586 127.688L10.8176 120.115L10.3724 120.061Z" fill="#A7BC68"/>
  <path d="M108.786 152.628C108.786 154.647 90.8487 159.808 73.3593 156.891C68.2022 155.994 65.5116 154.872 60.1303 155.32C53.1794 155.769 49.816 158.013 42.4167 157.564C39.726 157.34 39.726 157.115 34.7931 156.218C20.4429 153.526 11.474 154.423 11.2498 152.853C11.0256 151.731 16.1827 150.16 17.0796 149.936C26.0485 147.244 32.7751 148.814 43.3136 149.712C49.5918 150.16 53.852 150.16 60.1303 150.385C73.1351 150.385 75.3774 149.487 84.7947 149.712C93.9878 149.712 108.786 150.833 108.786 152.628Z" fill="#E9D7AA"/>
  <path d="M41.5407 153.966C41.4553 154.28 41.2278 154.622 40.986 154.879C40.3318 155.606 39.8483 156.448 39.0804 157.061C39.0093 157.118 38.9524 157.161 38.867 157.189C38.7959 157.203 38.739 157.189 38.6679 157.161C38.6111 157.146 38.5684 157.118 38.5257 157.089C37.3169 156.419 36.0654 155.72 35.1552 154.565C34.8566 154.18 34.7428 153.88 34.757 153.624C34.7855 153.082 35.397 152.796 36.0512 152.597C37.6867 152.126 39.4501 152.269 41.0145 152.982C41.5265 153.224 41.6402 153.581 41.5407 153.952V153.966Z" fill="#4B575E"/>
  <path d="M41.5407 153.966C41.4553 154.28 41.2278 154.622 40.986 154.879C40.3318 155.606 39.8483 156.448 39.0804 157.061C39.0093 157.118 38.9524 157.161 38.867 157.189C38.7959 157.203 38.739 157.189 38.6679 157.161C38.6111 157.146 38.5684 157.118 38.5257 157.089C37.3169 156.419 36.0654 155.72 35.1552 154.565C34.8566 154.18 34.7428 153.88 34.757 153.624C34.8139 153.681 34.8566 153.738 34.885 153.766C35.1695 154.066 35.4681 154.337 35.781 154.593C36.4209 155.107 37.132 155.506 37.8715 155.791C38.156 155.906 38.4688 155.991 38.7533 155.906C39.2652 155.734 39.763 155.235 40.2181 154.921C40.6021 154.65 41.0003 154.365 41.3842 154.094C41.4269 154.066 41.4838 154.023 41.5407 153.966V153.966Z" fill="#4B575E"/>
  <path d="M28.0731 72.1127C28.0447 73.5675 28.1158 74.951 28.1727 76.0777C28.9406 92.2087 30.1352 108.183 30.1352 124.357C30.2206 128.45 30.2917 132.558 30.377 136.651C30.4339 139.375 30.4197 142.099 30.505 144.823C30.5477 146.107 30.6614 147.405 30.633 148.689C30.6188 149.987 30.633 151.299 31.017 152.554C31.1165 152.882 31.2445 153.21 31.4721 153.452C32.0551 154.094 33.0649 154.023 33.9181 153.895C36.0371 153.566 38.1704 153.167 40.3036 153.338C41.3133 153.424 42.323 153.638 43.347 153.666C44.3567 153.695 43.8589 152.796 43.8589 152.126C43.8732 151.028 43.9016 149.929 43.9301 148.831C43.9727 146.635 44.0296 144.438 44.0723 142.242C44.1718 137.849 44.2572 133.442 44.3567 129.049C44.5416 120.249 44.7265 111.463 44.9256 102.663C44.9824 100.11 45.0393 97.5572 45.0962 95.0185C45.2669 87.2453 45.4233 79.458 44.9256 71.6991C44.7833 69.4313 44.5416 67.0495 43.2901 65.1526C41.1711 61.9577 36.0229 60.8025 32.5102 62.1859C28.9122 63.5979 28.1585 68.1335 28.0873 72.127L28.0731 72.1127Z" fill="#99A558"/>
  <path d="M57.2697 105.872C57.2697 105.972 57.2697 106.086 57.2413 106.186C57.2128 106.457 57.1986 106.728 57.1559 106.999C56.9426 108.739 56.5017 110.465 56.004 112.176C55.6485 113.389 55.2503 114.587 54.8947 115.742C50.9127 128.379 46.9307 141.015 42.9345 153.652C41.6545 150.6 40.6733 147.405 40.0191 144.153C39.052 139.347 38.7818 134.383 39.3933 129.52C39.8769 125.598 40.9292 121.761 41.555 117.867C41.9532 115.385 42.1665 112.947 42.2518 110.522C42.2803 109.852 42.2945 109.181 42.2945 108.511C42.3229 105.872 42.2092 103.234 42.0385 100.524C41.3274 89.2136 41.3559 77.7607 38.796 66.7215C38.3978 65.0242 38.0281 63.0132 39.2084 61.7438C40.0475 60.8453 41.3985 60.6741 42.6216 60.6313C44.7833 60.56 46.9591 60.7027 49.0924 61.0735C52.0646 61.5869 51.8371 64.6249 52.2922 67.1066C52.8753 70.2729 53.4157 73.4392 53.9134 76.6055C54.8947 82.8382 55.7196 89.0995 56.3737 95.3893C56.7293 98.7696 57.4546 102.478 57.2555 105.872H57.2697Z" fill="#99A558"/>
  <path d="M28.3432 68.0621C28.329 68.1477 28.3148 68.2333 28.2863 68.3189C27.9166 70.2871 28.0019 72.3409 28.5139 74.2806C34.7856 72.6547 41.427 72.4407 47.784 73.6531C48.9928 73.8813 50.4007 74.1095 51.3109 73.2822C52.989 71.7704 52.5339 68.3759 52.278 66.4219C51.8513 63.1415 51.3393 59.8754 50.742 56.6235C50.6851 56.3525 50.6283 56.053 50.4007 55.8961C50.2443 55.782 50.0594 55.7678 49.8745 55.7392C45.3663 55.2686 40.7728 55.183 36.293 55.8961C34.6291 56.1529 32.2115 56.1956 31.5146 57.8644C30.7609 59.69 30.32 62.0718 29.5805 64.0258C29.097 65.3522 28.5992 66.6787 28.3148 68.0621H28.3432Z" fill="#99A558"/>
  <path d="M52.0505 68.4757C51.4247 67.6342 50.9127 66.7214 50.4719 65.7658C50.031 64.7959 49.6755 63.7976 49.3484 62.7849C49.1635 62.2287 48.9928 61.6582 48.8222 61.1019C49.4764 61.0877 50.1448 61.1019 50.799 61.1305C50.8416 61.1305 50.9412 61.1162 50.9412 61.0591C50.9412 61.0021 50.8416 60.9878 50.799 60.9878C48.4951 60.8452 46.2054 61.1305 43.9158 61.3729C43.9158 61.2018 43.9158 61.0164 43.9158 60.8452C43.9158 59.804 43.9442 58.7486 43.9584 57.7074C43.9584 57.6076 43.6882 57.6076 43.6882 57.7074C43.674 58.934 43.6598 60.1749 43.6456 61.4014C43.4607 61.4157 43.2616 61.4442 43.0767 61.4585C42.2803 61.5441 41.4839 61.6011 40.6875 61.6296C40.6448 60.9593 40.6164 60.3032 40.5737 59.6329C40.5169 58.7058 40.4457 57.7787 40.3604 56.8517C40.3604 56.7518 40.076 56.7518 40.0902 56.8517C40.2324 58.4491 40.3462 60.0322 40.4315 61.6296C40.0191 61.6439 39.6067 61.6582 39.1943 61.6582C37.8859 61.6582 36.5775 61.6297 35.2691 61.5583C33.8043 61.487 32.3253 61.4014 30.8605 61.3159C30.8178 61.3159 30.7183 61.3301 30.7183 61.3872C30.7183 61.4442 30.8178 61.4585 30.8605 61.4585C32.112 61.5298 33.3635 61.6154 34.6007 61.6724C34.6434 62.9561 34.4443 64.2254 34.0887 65.452C33.9039 66.0653 33.6905 66.6786 33.4488 67.2634C33.207 67.8339 32.9368 68.3901 32.5386 68.8608C32.0977 69.3885 31.5431 69.7879 30.9885 70.2015C30.9316 70.2443 30.9885 70.287 31.0311 70.3013C31.088 70.3298 31.1733 70.3013 31.216 70.2728C31.7138 69.9162 32.2115 69.5454 32.6239 69.089C33.0506 68.6326 33.3635 68.0906 33.6052 67.5201C34.1314 66.3363 34.5154 65.0812 34.7287 63.7976C34.8425 63.0987 34.8994 62.3713 34.8709 61.6582C36.1509 61.7295 37.4308 61.7723 38.7107 61.7723C39.2796 61.7723 39.8627 61.7723 40.4315 61.7437C40.4315 61.7437 40.4315 61.7438 40.4315 61.758C40.5168 63.4125 40.5737 65.0669 40.6164 66.7214C40.6306 67.6485 40.6448 68.5755 40.6448 69.5026C40.6448 69.6024 40.8297 69.5739 40.8866 69.5597C41.3133 69.3742 41.7399 69.1746 42.1665 68.9892C42.5079 68.8323 42.8634 68.7039 43.162 68.49C43.4465 68.3045 43.7025 68.0478 43.802 67.7055C43.8589 67.5058 43.8589 67.3062 43.8731 67.0922C43.8731 66.864 43.8731 66.6216 43.8731 66.3934C43.8873 64.7532 43.9158 63.113 43.93 61.4728C44.7833 61.3872 45.6224 61.2873 46.4756 61.2018C47.1725 61.1447 47.8693 61.0877 48.552 61.0591C48.8648 62.0718 49.1635 63.0844 49.519 64.0828C49.8746 65.0812 50.287 66.0511 50.799 66.9781C51.0834 67.4916 51.4105 67.9908 51.7518 68.4614C51.7945 68.5185 51.8656 68.5185 51.9225 68.5185C51.9509 68.5185 52.0505 68.4757 52.022 68.4186L52.0505 68.4757ZM43.6313 63.1985C43.6313 64.1113 43.6029 65.0384 43.6029 65.9512C43.6029 66.4076 43.6029 66.864 43.5887 67.3062C43.5887 67.5058 43.546 67.7198 43.4607 67.8909C43.3896 68.0336 43.2758 68.1619 43.1478 68.276C42.8492 68.5328 42.451 68.6896 42.0954 68.8465L40.9293 69.3742C40.9293 67.7768 40.9008 66.1652 40.8439 64.5677C40.8155 63.6264 40.7728 62.6993 40.7159 61.758C41.3559 61.7295 41.9817 61.6867 42.6216 61.6296C42.9629 61.6011 43.3185 61.5583 43.6598 61.5298C43.6598 62.0861 43.6598 62.6423 43.6456 63.1985H43.6313Z" fill="#67762E"/>
  <path d="M45.2384 75.1363C45.2384 75.1363 45.0962 75.1078 45.0393 75.1363C44.314 75.5927 43.6313 76.1062 42.9772 76.6624C42.9061 76.6054 42.7212 76.6339 42.7354 76.7195C42.8634 86.361 42.9914 96.0168 43.1336 105.658L43.5318 134.455C43.6029 139.874 43.674 145.28 43.7593 150.7C43.7593 150.814 44.0295 150.799 44.0295 150.7C43.9016 141.058 43.7736 131.402 43.6313 121.761C43.5034 112.162 43.3754 102.563 43.2331 92.9646C43.162 87.6161 43.0909 82.2676 43.0198 76.9192H43.034C43.7309 76.3201 44.4704 75.7639 45.2526 75.2647C45.2953 75.2362 45.2953 75.1934 45.2526 75.1506L45.2384 75.1363Z" fill="#67762E"/>
  <path d="M64.0819 77.5468C64.2952 77.3757 64.3521 77.0334 64.1245 76.3488C62.617 71.7562 61.1238 67.1636 59.6163 62.5711C58.9764 60.6171 57.9666 58.5348 57.9809 56.4667C57.9951 54.256 57.5826 52.031 57.3551 49.8488C57.2982 49.2498 57.2413 48.6508 57.1844 48.0375C56.9 44.8854 56.6583 41.7334 56.0894 38.6242C55.6485 36.228 55.037 31.2361 51.8798 30.8653C50.9839 30.7512 50.0311 31.0935 49.4053 31.7496C48.4525 32.748 48.3245 34.2741 48.3671 35.6575C48.424 37.5687 48.6942 39.4657 48.9787 41.3626C49.3058 43.559 49.9031 45.8553 50.0168 48.066C50.2586 53.0437 51.2114 57.7218 52.9038 62.4142C54.1837 65.9513 55.7196 69.4029 57.3551 72.7974C58.1231 74.409 59.0332 75.9779 60.0145 77.4755C60.2563 77.8321 60.4269 77.8463 60.8251 77.8321C61.2802 77.8321 61.7211 77.8321 62.162 77.7608C62.9299 77.6324 63.7405 77.8321 64.0961 77.5468H64.0819Z" fill="#F7D2B1"/>
  <path d="M49.5332 55.2971C50.5003 55.2971 60.5975 54.2702 60.498 53.7996C59.1327 47.524 57.4404 41.3055 55.4494 35.2011C55.0369 33.9175 54.5534 32.5768 53.5437 31.7068C53.0886 31.3074 52.534 31.0222 51.9935 30.7369C51.5385 30.4945 51.0549 30.252 50.543 30.195C47.8267 29.8241 47.4427 34.9872 47.3716 36.7558C47.2862 38.8809 47.5707 40.9917 47.8693 43.1026C48.168 45.2135 48.5235 47.3386 48.8079 49.4495C49.0639 51.4177 49.1635 53.3717 49.5475 55.3257L49.5332 55.2971Z" fill="#FFFDF8"/>
  <path d="M30.1776 45.4845C31.9695 43.3593 33.5908 40.6352 34.8992 38.182C35.6813 36.713 37.0751 35.629 37.8003 34.1314C38.5825 32.5198 38.355 30.6086 38.099 28.8257C37.8288 26.8575 37.5159 24.9463 37.5017 22.9781C37.4875 20.9813 37.5301 18.9703 37.6155 16.9735C37.6581 16.0607 37.715 15.0053 37.1888 14.2066C36.8048 13.6218 36.0795 12.9657 35.3827 12.8088C34.373 12.5806 34.0601 14.0782 33.6903 14.7485C33.1073 15.8468 32.7517 17.0306 32.4957 18.2429C31.9695 20.6675 31.7847 23.2063 30.7465 25.474C30.0923 26.9003 29.111 28.1839 27.888 29.1823C26.4232 30.3661 24.5317 31.2789 23.8491 33.0475C23.394 34.2455 23.5931 35.6861 22.8678 36.7557C22.5407 37.2407 22.0572 37.583 21.6163 37.9681C19.8244 39.5227 18.6583 41.7762 18.4307 44.1438C18.3027 45.4845 18.5303 46.9963 19.5684 47.8663C20.3648 48.5224 21.4599 48.665 22.4981 48.6222C25.0153 48.5367 28.4995 47.4812 30.1776 45.4845V45.4845Z" fill="#B36332"/>
  <path d="M23.5504 48.0232C23.9771 45.3704 24.4179 42.7318 24.9015 40.0932C25.3708 37.4974 26.0676 31.2646 29.5377 30.851C30.4336 30.7369 31.3864 31.0792 32.0122 31.7353C32.965 32.7337 33.093 34.2598 33.0504 35.6433C32.9935 37.5544 32.7233 39.4514 32.4388 41.3483C31.742 46.0407 30.974 50.7331 30.1634 55.4112C29.7794 57.6077 29.3812 59.8041 28.6417 61.9007C28.5564 62.1432 28.4568 62.3999 28.2577 62.5711C28.016 62.785 27.6604 62.8135 27.3333 62.842C26.3378 62.9276 25.3423 62.9989 24.3468 62.9419C23.6926 62.8991 22.7114 62.9989 22.1425 62.6281C21.403 62.1574 21.7016 61.2874 21.8012 60.5315C22.0856 58.2352 22.3843 55.9247 22.7114 53.6284C22.9816 51.7457 23.266 49.8773 23.5646 47.9947L23.5504 48.0232Z" fill="#F7D2B1"/>
  <path d="M27.5325 59.0625C26.8783 58.6203 26.0392 58.4064 25.2712 58.4064C22.2421 58.4349 21.1755 62.457 20.6066 64.8245C19.1276 71.043 18.0325 77.3614 17.0086 83.6654C16.8521 84.5925 16.8521 85.7621 17.9614 85.976C18.7578 86.1329 19.7533 85.8619 20.052 85.0489C21.4314 81.3692 22.6972 77.6038 24.3042 74.0097C25.8828 70.4583 27.1911 66.7785 28.2862 63.0417C28.5137 62.243 28.7413 61.4158 28.5848 60.6028C28.4568 59.9182 28.0444 59.3905 27.5182 59.0197L27.5325 59.0625Z" fill="#F7D2B1"/>
  <path d="M20.8058 89.1138C20.7631 88.9426 20.692 88.7857 20.6351 88.6146C20.4645 88.1439 20.3649 87.6305 20.3507 87.117C20.3507 86.9316 20.3934 86.7747 20.4076 86.5893C20.4076 86.3326 20.3791 86.0616 20.3507 85.8191C20.2654 85.2914 20.0805 84.8492 19.796 84.4071C19.5543 84.0363 19.0281 83.9079 18.6014 83.8794C17.5491 83.8223 16.9091 84.4071 16.5962 85.2058C15.5581 87.8587 15.9563 91.025 17.1651 93.578C17.222 93.6921 17.2931 93.8204 17.4353 93.8632C17.5917 93.906 17.7624 93.8062 17.8335 93.6635C17.9046 93.5352 17.8904 93.3783 17.8762 93.2357C17.9046 93.4924 18.061 93.7206 18.317 93.8632C18.701 94.0914 18.7863 93.7063 18.7437 93.4211C18.6726 92.7793 18.6157 92.166 18.5303 91.5384C18.445 90.9109 18.4166 90.212 18.4592 89.5559C18.4877 89.0995 18.5161 88.6431 18.6299 88.1867C18.6868 88.0013 18.7152 87.659 18.9996 87.7018C19.1419 87.7303 19.2556 87.8444 19.341 87.9728C19.469 88.1439 19.5685 88.3436 19.6396 88.5433C19.7249 88.7715 19.7818 89.0139 19.8814 89.2279C19.9809 89.4418 20.1374 89.6557 20.3649 89.7413C20.7916 89.9125 20.8911 89.4989 20.82 89.1566C20.82 89.128 20.82 89.0995 20.8058 89.0852V89.1138Z" fill="#F7D2B1"/>
  <path d="M25.641 33.9602C24.2899 36.2423 23.5646 39.1661 22.9105 41.3198C21.5736 45.6984 20.6777 50.2054 19.7817 54.6981C20.3079 54.7979 21.0759 55.1402 21.5879 55.1402C22.5976 55.5396 23.8206 55.5253 24.8872 55.7535C26.9636 56.1814 29.0541 56.5094 31.1589 56.7091C31.3864 53.229 32.0833 49.7489 32.5384 46.2831C33.0077 42.7175 33.4201 39.1518 33.7757 35.5719C33.861 34.759 33.9321 33.9175 33.7757 33.1188C33.6192 32.32 33.2068 31.5213 32.5099 31.0935C31.5855 30.5372 29.751 30.4802 28.7413 30.9366C27.4329 31.5356 26.4374 32.6338 25.6552 33.9602H25.641Z" fill="#FFFDF8"/>
  <path d="M54.8378 40.2358C54.6244 41.8047 54.3116 43.3735 54.1125 44.8426C53.6858 47.8948 53.2307 50.947 52.7188 53.9849C52.5197 55.183 52.5055 56.3668 52.1499 57.5506C52.0788 57.793 51.9935 58.0498 51.7944 58.2209C51.5811 58.4063 51.2824 58.4348 51.0122 58.4634C50.0025 58.549 48.9927 58.606 47.983 58.6631C43.1051 58.934 38.2271 59.1908 33.3349 59.0767C32.7803 59.0767 32.2114 59.0339 31.7279 58.7772C30.8604 58.2922 30.576 57.2083 30.3769 56.2384C29.4525 51.6458 29.4382 46.6254 27.561 42.3038C27.2197 41.5051 26.9068 40.8348 26.3095 40.2072C25.4278 39.2802 25.3282 38.3674 25.314 37.0552C25.2714 32.6338 29.8222 29.7242 33.5767 28.5832C34.4869 28.3122 35.4113 28.0983 36.3499 27.9414C38.1418 27.6419 39.9763 27.5706 41.7967 27.6704C43.3468 27.756 44.9112 27.8986 46.4187 28.3265C46.4755 28.3408 46.5324 28.355 46.5751 28.3693C49.1776 29.1395 52.6477 30.2234 54.0556 32.7479C54.6244 33.7748 54.8093 34.9729 54.9373 36.1424C55.0938 37.4688 54.9942 38.8523 54.8093 40.25L54.8378 40.2358Z" fill="#FFFDF8"/>
  <path d="M46.0916 28.3122C46.0631 28.4549 46.0347 28.5975 45.992 28.7544C45.7787 29.496 45.352 30.2234 45.025 30.7226C44.4134 31.6497 43.8161 32.5767 43.2046 33.5038C42.6357 34.3738 42.1096 35.5434 41.3843 36.285C40.7585 36.9411 40.8012 36.3421 40.3603 35.6575C39.8768 34.9016 39.4501 34.1314 38.9808 33.3612C38.2413 32.1203 37.4876 30.8795 36.7481 29.6387C36.4921 29.1965 36.1081 28.5404 36.0085 27.9414C37.8004 27.6419 39.635 27.5706 41.4554 27.6704C43.0055 27.756 44.5699 27.8986 46.0773 28.3265L46.0916 28.3122Z" fill="#FCD9BA"/>
  <path d="M47.4711 28.9826C47.4711 28.8828 47.1867 28.8828 47.2009 28.9826C47.2435 30.3803 47.2293 31.7638 47.1867 33.1615C47.1867 33.5038 47.1582 33.8461 47.144 34.1884C47.144 34.3596 47.1298 34.545 47.1155 34.7162C47.1155 34.8017 47.1155 34.873 47.1013 34.9586C47.1013 35.0299 47.1013 35.1155 47.0871 35.1868C47.0871 35.2154 47.0729 35.2439 47.0444 35.2581C47.0444 35.2581 47.0444 35.2581 47.016 35.2581C46.9449 35.2296 46.8738 35.1868 46.8027 35.1583C46.6605 35.087 46.5182 35.0014 46.376 34.9158C46.0916 34.7447 45.8072 34.5735 45.5227 34.4024C45.2099 34.2027 44.9112 34.003 44.6126 33.7891C44.3281 33.6037 44.0295 33.4183 43.674 33.4468C43.6313 33.4468 43.5317 33.4468 43.5317 33.5181C43.5317 33.5752 43.6313 33.5894 43.674 33.5894C43.9868 33.5752 44.257 33.7748 44.4988 33.946C44.7832 34.1457 45.0677 34.3311 45.3521 34.5165C45.6365 34.7019 45.9352 34.873 46.2338 35.0442C46.3903 35.1298 46.5325 35.2154 46.6889 35.3009C46.8169 35.3722 46.9591 35.4293 47.1155 35.415C47.2578 35.4008 47.3431 35.3009 47.3715 35.1583C47.4 35.0014 47.4 34.816 47.4142 34.6591C47.4426 34.3025 47.4569 33.9317 47.4711 33.5752C47.4995 32.8478 47.528 32.1346 47.528 31.4072C47.528 30.5943 47.528 29.7813 47.4995 28.9683L47.4711 28.9826Z" fill="#63848F"/>
  <path d="M38.6111 33.5894C38.6111 33.5894 38.4688 33.5609 38.412 33.5894C37.2316 34.1599 36.0654 34.7447 34.885 35.3152L34.5011 32.7907C34.3731 31.9207 34.2024 31.0507 34.1597 30.1664C34.1313 29.6672 34.1597 29.168 34.2593 28.6831C34.2735 28.5833 34.0033 28.569 33.9891 28.6831C33.8184 29.5389 33.8895 30.4231 34.0033 31.2932C34.1171 32.1774 34.2735 33.0617 34.4015 33.946C34.4868 34.4595 34.5579 34.9586 34.6433 35.4721C34.6575 35.5719 34.8139 35.5577 34.885 35.5291L38.6253 33.7035C38.6253 33.7035 38.6679 33.618 38.6253 33.5894H38.6111Z" fill="#63848F"/>
  <path d="M41.6972 39.8934C41.6687 39.8079 41.6261 39.7223 41.555 39.651C41.3558 39.4513 40.9719 39.4228 40.7728 39.6225C40.7017 39.6652 40.659 39.708 40.6163 39.7793C40.5452 39.8934 40.531 40.0503 40.531 40.1787C40.531 40.3356 40.531 40.5067 40.5737 40.6636C40.5879 40.7492 40.6163 40.8348 40.6448 40.9061C40.6732 41.0345 40.7017 41.1628 40.787 41.2769C40.8865 41.391 41.0572 41.4481 41.2136 41.4338C41.3843 41.4196 41.4981 41.3197 41.5692 41.1771C41.7541 40.849 41.9105 40.25 41.6972 39.8792V39.8934Z" fill="#63848F"/>
  <path d="M41.6972 46.7252C41.6687 46.6397 41.6261 46.5541 41.555 46.4828C41.3558 46.2831 40.9719 46.2546 40.7728 46.4542C40.7017 46.497 40.659 46.5398 40.6163 46.6111C40.5452 46.7252 40.531 46.8821 40.531 47.0105C40.531 47.1674 40.531 47.3385 40.5737 47.4954C40.5879 47.581 40.6163 47.6666 40.6448 47.7379C40.6732 47.8662 40.7017 47.9946 40.787 48.1087C40.8865 48.2228 41.0572 48.2799 41.2136 48.2656C41.3843 48.2513 41.4981 48.1515 41.5692 48.0089C41.7541 47.6808 41.9105 47.0818 41.6972 46.711V46.7252Z" fill="#63848F"/>
  <path d="M41.6972 53.557C41.6687 53.4715 41.6261 53.3859 41.555 53.3146C41.3558 53.1149 40.9719 53.0864 40.7728 53.286C40.7017 53.3288 40.659 53.3716 40.6163 53.4429C40.5452 53.557 40.531 53.7139 40.531 53.8423C40.531 53.9992 40.531 54.1703 40.5737 54.3272C40.5879 54.4128 40.6163 54.4984 40.6448 54.5697C40.6732 54.698 40.7017 54.8264 40.787 54.9405C40.8865 55.0546 41.0572 55.1117 41.2136 55.0974C41.3843 55.0831 41.4981 54.9833 41.5692 54.8407C41.7541 54.5126 41.9105 53.9136 41.6972 53.5428V53.557Z" fill="#63848F"/>
  <path d="M55.0367 37.2121C54.4394 38.239 53.8564 39.2659 53.259 40.3071C53.0884 40.6066 52.9177 40.8919 52.7471 41.1914C52.6902 41.2912 52.9604 41.3197 53.0173 41.2342C53.6146 40.2073 54.1977 39.1803 54.795 38.1392L55.3069 37.2549C55.3638 37.1551 55.0936 37.1265 55.0367 37.2121V37.2121Z" fill="#63848F"/>
  <path d="M52.2637 43.0883V54.5697C52.2637 54.6695 52.5339 54.6695 52.5339 54.5697V43.0883C52.5339 42.9885 52.2637 42.9885 52.2637 43.0883Z" fill="#63848F"/>
  <path d="M29.4239 44.5859C28.4995 43.4734 27.6605 42.2896 26.921 41.0488C26.7076 40.6922 26.5085 40.3356 26.3094 39.9791C26.2668 39.8935 25.9966 39.922 26.0392 40.0219C26.7361 41.3055 27.5325 42.5463 28.4142 43.7159C28.656 44.0439 28.912 44.3577 29.1679 44.6715C29.2248 44.7428 29.495 44.7 29.4097 44.6002L29.4239 44.5859Z" fill="#63848F"/>
  <path d="M29.8221 52.302C29.751 51.1182 29.6656 49.9487 29.5661 48.7649C29.5092 48.0945 29.4665 47.4242 29.4096 46.7538C29.4096 46.654 29.1252 46.654 29.1394 46.7538C29.239 47.9376 29.3243 49.1214 29.4096 50.3052C29.495 51.489 29.5661 52.6586 29.6514 53.8424C29.6941 54.5127 29.7367 55.183 29.7652 55.8534C29.7652 55.9532 30.0496 55.9532 30.0354 55.8534C29.9643 54.6696 29.8932 53.4858 29.8221 52.302Z" fill="#63848F"/>
  <path d="M37.0325 29.767L45.608 29.439C45.5511 29.1252 45.5085 28.8114 45.4658 28.4977C45.4374 28.1411 45.4231 27.7845 45.4231 27.4137C45.4231 26.615 45.48 25.8163 45.48 25.0176C45.48 24.604 45.5369 24.0335 45.4231 23.6056C45.4089 23.5343 45.3805 23.463 45.352 23.4059C45.1672 23.0066 44.8543 22.6215 44.4987 22.3647C43.5032 21.4662 41.8109 21.0526 40.5025 21.238C39.891 21.3236 39.2937 21.4947 38.8386 21.9369C38.3977 22.3647 38.4262 23.1349 38.3124 23.7197C38.0564 24.9748 37.7293 26.2156 37.3311 27.428C37.2174 27.7703 37.1036 28.1126 36.9756 28.4406C36.876 28.7259 36.7907 28.9113 36.8476 29.2108C36.8903 29.3962 36.9472 29.5816 37.0325 29.767V29.767Z" fill="#FCD9BA"/>
  <path d="M45.4801 25.0319C45.4801 25.8306 45.4232 26.6293 45.4232 27.428C45.1388 27.3852 44.8828 27.2711 44.6268 27.1427C43.5033 26.5722 41.0288 24.6896 42.7069 23.3489C43.6882 22.6215 44.5841 23.0494 45.4232 23.6199C45.537 24.0478 45.4801 24.6183 45.4801 25.0319Z" fill="#E6C1A0"/>
  <path d="M35.1979 20.4678C34.5437 19.4124 34.1029 18.2286 34.0033 16.9735C33.8895 15.7184 34.2166 14.7485 34.6291 13.5932C35.1695 12.0957 36.6627 11.0117 38.0707 10.3984C40.7158 9.24315 44.2428 9.31446 46.0062 11.9388C46.888 13.2509 46.9306 14.6915 47.3573 16.132C47.5137 16.6312 47.8835 16.8736 48.2817 17.1732C48.7367 17.5155 49.2061 17.8435 49.6611 18.1858C49.7749 18.2714 49.9029 18.357 49.9882 18.4853C50.2727 18.8847 49.8034 19.3411 49.5332 19.6263C49.0496 20.1113 49.0781 20.9955 49.1492 21.6374C49.2203 22.4075 49.4194 23.192 49.2772 23.9622C49.2345 24.2046 49.1492 24.4471 48.9927 24.6468C48.7367 24.9748 48.1821 25.1317 47.7839 25.2315C47.2719 25.3742 46.7315 25.4027 46.2053 25.4169C45.4232 25.4169 44.7263 25.3884 43.9868 25.1602C43.2757 24.9463 42.5931 24.6182 41.9673 24.2046C41.4269 23.8481 40.9292 23.4202 40.4172 23.0351C39.9763 22.707 39.4786 22.2506 38.8955 22.5359C38.6964 22.6357 38.7248 22.7926 38.4973 22.8497C38.284 22.9067 37.9142 22.7498 37.7151 22.6785C36.6485 22.2934 35.8094 21.4092 35.2121 20.4678H35.1979Z" fill="#FCD9BA"/>
  <path d="M42.9485 22.7213C42.9485 22.7213 42.9485 22.8069 42.9485 22.8497C42.92 23.1349 42.8347 23.4202 42.664 23.6341C42.5503 23.791 42.3938 23.9051 42.2232 24.005C41.7254 24.3045 41.1992 24.3615 40.673 24.1048C40.4882 24.0192 40.2891 23.9051 40.218 23.7197C40.1753 23.6341 40.1753 23.5486 40.1753 23.4487C40.1753 22.8639 40.5451 23.1777 40.8437 23.3631C41.1424 23.5628 41.569 23.5628 41.8819 23.3631C42.1947 23.1635 42.3796 22.8069 42.3796 22.4361C42.3796 22.0652 42.1947 21.7087 41.9103 21.4805C41.8108 21.3949 41.7112 21.3379 41.6117 21.238C41.5121 21.1382 41.4552 21.0241 41.4694 20.8957C41.4979 20.4821 42.0241 20.5106 42.2516 20.6818C42.4792 20.8529 42.7067 21.1382 42.8063 21.4092C42.9627 21.8228 43.0196 22.2649 42.9911 22.7071L42.9485 22.7213Z" fill="#EAC056"/>
  <path d="M44.4701 16.3602C44.3705 16.1748 44.5981 15.7754 44.6692 15.6185C44.8256 15.319 45.0674 15.0766 45.3376 14.9054C45.6078 14.7343 45.9918 14.5061 46.3189 14.5916C46.5464 14.6487 46.7455 14.9054 46.5749 15.0908C46.4184 15.2762 45.9633 15.3761 45.75 15.4331C45.5651 15.4759 45.3518 15.5044 45.1812 15.6043C45.0105 15.7041 44.8683 15.861 44.7403 16.0179C44.6407 16.132 44.5554 16.2604 44.4417 16.3602H44.4701Z" fill="#B36332"/>
  <path d="M46.1626 16.9307C46.1626 16.9307 46.191 16.9022 46.2195 16.9022C46.2195 16.9022 46.2195 16.9022 46.2337 16.9022C46.3048 16.8736 46.3901 16.9022 46.4612 16.9164C46.5323 16.9307 46.5892 16.9877 46.6461 17.0305C46.8594 17.2159 46.8879 17.4869 46.8736 17.7579C46.8736 17.815 46.8736 17.8863 46.8452 17.9433C46.8452 17.9433 46.8452 17.9433 46.8452 17.9576C46.8452 17.9576 46.8452 17.9719 46.8452 17.9861C46.8452 18.0432 46.8168 18.0717 46.7741 18.1002C46.7457 18.1145 46.7172 18.143 46.6888 18.1573C46.6034 18.1858 46.4897 18.1715 46.4043 18.1287C46.319 18.086 46.2763 18.0146 46.2479 17.9291C46.1199 17.6296 45.9777 17.2587 46.1768 16.9592L46.1626 16.9307Z" fill="#1A8B93"/>
  <path d="M30.2345 24.0049C30.2345 24.0049 30.3483 23.8909 30.4052 23.8338C31.5998 22.6357 32.4815 20.9385 32.965 19.3126C33.5054 17.4584 33.2495 15.4046 34.1312 13.636C35.8662 10.1845 40.5877 8.08788 44.2142 9.68529C45.6363 10.3128 45.1386 12.1812 44.9395 13.365C44.6551 14.991 44.1289 16.5741 43.5885 18.143C42.3796 21.6231 40.5735 24.9605 38.4118 27.9414C36.7622 30.2377 34.3303 32.1489 31.3864 32.1204C28.1724 32.0776 25.3992 33.0902 23.3513 35.7145C23.4793 32.7622 24.6028 29.8526 26.5227 27.5991C27.6462 26.287 29.0115 25.203 30.2345 23.9907V24.0049Z" fill="#B36332"/>
  <path d="M41.5834 19.1842C41.0857 20.7103 40.3462 22.1651 39.436 23.4915C38.5258 24.8037 37.4166 25.9875 36.1793 27.0002C35.4682 27.5707 34.7287 28.0841 33.9323 28.5262C33.8754 28.5548 33.8896 28.5976 33.9323 28.6404C33.9892 28.6689 34.0745 28.6689 34.1314 28.6404C35.5393 27.8416 36.8335 26.8433 37.957 25.6737C39.0805 24.5042 40.0333 23.192 40.787 21.7515C41.2137 20.9385 41.5692 20.0971 41.8536 19.2413C41.8963 19.1272 41.6119 19.1129 41.5834 19.1985V19.1842Z" fill="#98491F"/>
  <path d="M36.037 22.9353C35.3828 24.0763 34.4868 25.0747 33.4202 25.8449C33.1216 26.0588 32.8087 26.2585 32.4816 26.4297C32.4247 26.4582 32.4389 26.501 32.4816 26.5438C32.5385 26.5723 32.6238 26.5723 32.6807 26.5438C33.8611 25.9019 34.885 25.0034 35.6814 23.9337C35.909 23.6342 36.1081 23.3061 36.3072 22.9781C36.3641 22.8783 36.0939 22.8497 36.037 22.9353V22.9353Z" fill="#98491F"/>
  <path d="M37.0183 11.8247C37.0183 11.8247 36.8761 11.8247 36.8334 11.8532C35.8948 12.5806 35.1979 13.6218 34.8851 14.7628C34.7997 15.0908 34.7429 15.4189 34.7002 15.7469C34.7002 15.8468 34.9704 15.861 34.9704 15.7469C35.07 14.5774 35.5677 13.4506 36.3499 12.5949C36.5632 12.3524 36.805 12.1242 37.0752 11.9245C37.1321 11.8818 37.0752 11.839 37.0325 11.8247H37.0183Z" fill="#98491F"/>
  <path d="M47.926 22.051C47.926 22.051 47.798 22.0082 47.7411 22.0225C47.3287 22.1366 46.8736 21.9226 46.6603 21.5518C46.6318 21.4948 46.5465 21.4948 46.4896 21.4948C46.4612 21.4948 46.3616 21.5375 46.3901 21.5946C46.6887 22.0938 47.3287 22.3077 47.8691 22.1508C47.9118 22.1508 47.9544 22.0938 47.9118 22.051H47.926Z" fill="#C6AE8A"/>
  <path d="M67.225 78.445C66.2153 77.9601 65.1913 77.4323 64.3949 76.6194C64.1532 76.3769 63.9114 75.892 63.5985 75.7493C63.243 75.5925 62.6884 75.7208 62.3328 75.8349C61.892 75.9776 61.4795 76.2058 61.0956 76.4625C60.7542 76.6907 60.4414 76.9474 60.228 77.2897C59.7161 78.1597 60.356 79.258 60.5694 80.1137C60.8253 81.0978 61.3515 81.9679 61.892 82.8236C62.3755 83.5938 62.9586 84.4068 63.8261 84.5922C64.2243 84.6777 64.6367 84.1928 64.978 84.0074C65.6038 83.6508 66.2579 83.2657 66.5993 82.6239C66.6846 82.467 66.7415 82.2816 66.7415 82.0962C66.7415 81.811 66.5708 81.5685 66.457 81.3118C66.2153 80.7841 65.874 79.3721 66.8837 79.7571C67.2108 79.8855 67.5379 80.0139 67.865 80.128C68.0356 80.185 68.2205 80.2563 68.3769 80.1708C68.5618 80.0709 68.5903 79.8142 68.5334 79.6145C68.3769 79.0725 67.8507 78.7302 67.3388 78.4735C67.2961 78.4592 67.2677 78.4307 67.225 78.4165V78.445Z" fill="#F7D2B1"/>
  <path d="M66.585 76.6622C66.5423 76.4625 66.4854 76.2771 66.3717 76.1202C66.2579 75.9633 66.0872 75.8492 65.9308 75.7494C65.3335 75.3928 64.6366 75.1789 63.9398 75.1503C63.2714 75.1218 62.7879 75.3357 62.3897 75.8777C62.0768 76.3056 61.8492 76.7905 61.6217 77.2612C61.2519 78.0456 60.868 78.8443 60.5551 79.6573C60.2991 80.3134 59.7871 81.7539 60.868 81.8395C60.9248 82.0962 60.9248 82.3529 61.0528 82.5811C61.1666 82.8093 61.4084 83.009 61.6644 82.9948C61.6928 82.9948 61.7355 82.9948 61.7639 82.9948C61.8066 83.0233 61.8208 83.0946 61.8208 83.1374C61.8208 83.3371 61.8919 83.5367 62.0341 83.6936C62.1621 83.8505 62.3754 83.9361 62.5745 83.9076C62.6314 84.1215 62.6883 84.3212 62.8021 84.5066C62.9585 84.7348 63.3852 85.0343 63.6838 85.02C63.9398 85.02 63.9113 84.7919 63.9682 84.6064C64.3238 83.6794 64.6224 82.738 64.8642 81.7682C64.9353 81.5114 64.9637 81.2547 65.2908 81.2405C65.7744 81.2119 66.2152 81.6683 66.5423 81.9536C66.6845 82.082 67.2534 82.6952 67.4383 82.5811C67.5094 82.5384 67.5378 82.4385 67.552 82.3529C67.6089 81.8965 67.4952 81.4972 67.3672 81.0693C66.9974 79.7999 66.7414 78.4878 66.6561 77.1614C66.6561 76.9902 66.6276 76.8048 66.5992 76.6336L66.585 76.6622Z" fill="#FCD9BA"/>
  <path d="M66.2295 83.3228C66.2295 83.3228 66.2295 83.2657 66.2295 83.2372C66.2295 83.1801 66.2295 83.1231 66.2437 83.066C66.3148 82.9234 66.5282 82.9519 66.6704 82.9091C66.8979 82.8521 67.0259 82.6096 67.0117 82.3814C67.0117 82.1675 66.8837 81.9678 66.7699 81.7681C66.4855 81.2832 65.8455 80.3989 65.1345 80.5416C65.0349 80.5701 64.9211 80.6129 64.8643 80.6984C64.7931 80.7983 64.7931 80.9124 64.8216 81.0265C64.85 81.2547 64.9496 81.4829 65.0918 81.6826C64.9211 81.4401 64.5656 81.2119 64.2954 81.1406C64.0252 81.0693 63.6128 81.1121 63.627 81.4972C63.627 81.654 63.7265 81.7967 63.8261 81.925C63.9399 82.0962 64.0679 82.2673 64.1816 82.4385C64.0963 82.3814 64.011 82.3244 63.9256 82.2673C63.7976 82.1818 63.6697 82.1104 63.5274 82.0534C63.3852 82.0106 63.2288 81.9963 63.0866 82.0534C62.3897 82.3386 63.1577 83.2372 63.4137 83.5367C63.243 83.4083 62.9586 83.5938 62.9444 83.7934C62.9444 84.0074 63.1008 84.1785 63.2572 84.3069C63.4137 84.4352 63.5985 84.5494 63.7834 84.6492C63.9541 84.7348 64.1532 84.8061 64.3523 84.7776C64.5514 84.7348 64.722 84.5494 64.6794 84.3782C65.106 84.4638 65.5753 84.0787 65.5469 83.6651C65.8171 83.7506 66.1442 83.551 66.2153 83.2942L66.2295 83.3228Z" fill="#F7D2B1"/>
  <path d="M92.6527 144.524C92.6953 145.266 92.7522 145.979 93.0224 146.649C93.0793 146.792 93.1504 146.934 93.2215 147.063C93.3068 147.205 93.3922 147.334 93.4917 147.476C93.5344 147.533 93.5913 147.59 93.6482 147.662C94.4588 148.575 96.0374 148.888 97.2462 148.289C97.9715 147.918 98.4835 147.319 98.7679 146.649C98.7963 146.592 98.8248 146.535 98.839 146.464C99.351 145.094 99.1519 143.454 98.9528 142.057C98.9385 141.928 98.9101 141.8 98.8959 141.671C98.6683 140.317 98.3128 138.962 98.1706 137.592C98.0853 136.751 98.0853 135.895 97.8151 135.082C97.3457 133.613 95.7814 132.615 93.9753 133.285C93.7335 133.371 93.5059 133.485 93.3495 133.656C93.2073 133.813 93.122 134.012 93.0651 134.198C92.4962 135.895 92.6527 137.664 92.738 139.389C92.7807 140.431 92.7095 141.458 92.6527 142.499C92.6242 143.169 92.61 143.839 92.6527 144.524V144.524Z" fill="#B36332"/>
  <path d="M93.0224 145.865C93.1219 145.665 93.3495 145.537 93.577 145.437C93.8046 145.337 94.0606 145.237 94.1885 145.037C94.2739 144.895 94.2881 144.738 94.2881 144.581C94.2881 144.41 94.2881 144.239 94.2881 144.068C94.2881 143.711 94.2881 143.354 94.2881 142.998C94.2881 142.285 94.3023 141.572 94.3165 140.859C94.3165 140.502 94.3165 140.145 94.3165 139.803C94.3165 139.475 94.3165 139.147 94.1459 138.847C93.8614 138.291 93.2215 137.906 93.0366 137.307C93.0082 137.236 93.2357 137.222 93.2499 137.279C93.4206 137.806 93.9468 138.177 94.2597 138.648C94.4445 138.919 94.5156 139.233 94.5299 139.532C94.5441 139.874 94.5299 140.231 94.5299 140.573C94.5299 141.301 94.5156 142.014 94.5014 142.741C94.5014 143.098 94.5014 143.454 94.5014 143.811C94.5014 143.996 94.5014 144.182 94.5014 144.353C94.5014 144.51 94.5014 144.667 94.473 144.824C94.4445 144.966 94.3734 145.109 94.2454 145.209C94.1459 145.294 94.0179 145.351 93.8899 145.423C93.6339 145.537 93.3353 145.636 93.2357 145.879C93.2073 145.936 92.9939 145.922 93.0224 145.85V145.865Z" fill="#C46A39"/>
  <path d="M98.6683 145.836C98.5545 145.636 98.2986 145.537 98.071 145.465C97.8435 145.38 97.5733 145.308 97.4168 145.123C97.3173 144.995 97.2888 144.838 97.2604 144.681C97.2319 144.51 97.2177 144.339 97.1893 144.167C97.1466 143.811 97.0897 143.454 97.0471 143.098C96.9475 142.385 96.8622 141.686 96.7626 140.973C96.72 140.616 96.6631 140.274 96.6204 139.917C96.5778 139.603 96.5493 139.275 96.6773 138.962C96.8906 138.391 97.4737 137.949 97.5875 137.336C97.6017 137.264 97.3884 137.264 97.3742 137.336C97.2746 137.878 96.7911 138.291 96.5351 138.79C96.3787 139.076 96.3502 139.389 96.3787 139.703C96.4071 140.046 96.464 140.388 96.5066 140.73C96.6062 141.443 96.6915 142.156 96.7911 142.884C96.8337 143.24 96.8906 143.597 96.9333 143.953C96.9617 144.139 96.976 144.31 97.0044 144.495C97.0186 144.652 97.0328 144.809 97.0897 144.966C97.1324 145.109 97.2177 145.237 97.3599 145.337C97.4737 145.408 97.6017 145.465 97.7439 145.508C97.9999 145.608 98.3128 145.679 98.455 145.907C98.4977 145.965 98.711 145.936 98.6683 145.865V145.836Z" fill="#C46A39"/>
  <path d="M93.9752 144.923C94.9849 144.053 96.5777 144.267 97.7723 144.709C97.8861 144.752 97.8576 144.838 97.7723 144.881C97.6585 144.938 97.4879 144.923 97.3741 144.881C96.4212 144.524 95.2551 144.339 94.4587 145.037C94.3307 145.152 93.7903 145.066 93.9752 144.909V144.923Z" fill="#FFFDF8"/>
  <path d="M93.9325 143.825C94.1743 143.64 94.4303 143.454 94.7147 143.312C95.0134 143.169 95.3262 143.169 95.6818 143.169C96.3502 143.169 97.0186 143.24 97.6159 143.497C97.7297 143.54 97.7012 143.625 97.6159 143.668C97.5163 143.725 97.3315 143.711 97.2177 143.668C96.7768 143.469 96.2791 143.426 95.7671 143.412C95.4969 143.412 95.2694 143.383 95.0276 143.511C94.8 143.625 94.6009 143.782 94.4018 143.925C94.2596 144.039 93.7334 143.954 93.9183 143.797L93.9325 143.825Z" fill="#FFFDF8"/>
  <path d="M93.5771 146.792C93.6909 147.077 93.8616 147.362 94.1033 147.619C94.7717 148.375 96.0659 148.632 97.0614 148.132C97.6587 147.833 98.0853 147.334 98.3129 146.777C97.9005 146.635 97.3885 146.578 96.9903 146.521C96.6632 146.478 96.3219 146.435 95.9948 146.421C95.3548 146.392 94.7006 146.464 94.0891 146.635C93.9753 146.663 93.7905 146.72 93.5914 146.777L93.5771 146.792Z" fill="#FFFDF8"/>
  <path d="M93.9752 142.385C94.2312 142.285 94.4445 142.114 94.7289 142.028C95.0134 141.942 95.312 141.9 95.6107 141.885C96.2648 141.857 96.9048 142.042 97.4879 142.256C97.6017 142.299 97.5732 142.385 97.4879 142.427C97.3741 142.484 97.2035 142.47 97.0897 142.427C96.6204 142.256 96.1084 142.114 95.5964 142.128C95.3689 142.128 95.1413 142.185 94.9422 142.271C94.7431 142.356 94.5725 142.484 94.3734 142.556C94.2596 142.599 94.089 142.613 93.9752 142.556C93.8899 142.513 93.8614 142.427 93.9752 142.385V142.385Z" fill="#FFFDF8"/>
  <path d="M93.9325 141.215C94.3876 140.858 94.8427 140.587 95.4827 140.559C96.1369 140.53 96.791 140.673 97.3599 140.916C97.4737 140.958 97.4452 141.044 97.3599 141.087C97.2604 141.144 97.0755 141.129 96.9617 141.087C96.5351 140.901 96.0658 140.801 95.5822 140.801C95.0845 140.801 94.7432 141.058 94.4018 141.329C94.2596 141.443 93.7334 141.358 93.9183 141.201L93.9325 141.215Z" fill="#FFFDF8"/>
  <path d="M92.6526 144.524C92.6953 145.266 92.7521 145.979 93.0224 146.649C93.0792 146.792 93.1504 146.934 93.2215 147.063C93.3068 147.205 93.3921 147.334 93.4917 147.476C93.5343 147.533 93.5912 147.59 93.6481 147.662C94.4587 148.575 96.0373 148.888 97.2461 148.289C97.9714 147.919 98.4834 147.319 98.7678 146.649C98.7963 146.592 98.8247 146.535 98.8389 146.464C99.3509 145.095 99.1518 143.454 98.9527 142.057C98.9385 141.928 98.91 141.8 98.8958 141.672C98.8674 141.686 98.8532 141.714 98.8674 141.743C99.2514 143.198 99.0665 144.695 98.5403 146.107C98.3127 146.706 98.0283 147.305 97.5021 147.776C97.431 147.833 97.3599 147.904 97.2888 147.947C97.2319 147.947 97.1892 147.961 97.1466 147.99C96.9048 148.161 96.5777 148.175 96.2791 148.204C95.952 148.232 95.6249 148.247 95.2978 148.218C94.9423 148.19 94.6863 148.004 94.4018 147.833C94.345 147.776 94.3023 147.719 94.2454 147.662C93.8188 147.148 93.4917 146.578 93.2783 145.979C92.8659 144.866 92.7806 143.668 92.6668 142.499C92.6384 143.169 92.6242 143.839 92.6668 144.524H92.6526Z" fill="#FFFDF8"/>
  <path d="M102.494 68.5756C104.087 70.0589 104.84 72.2268 105.239 74.3662C106.945 83.4372 104.215 93.307 102.636 102.221C100.73 112.947 100.005 123.886 100.489 134.783C100.602 137.378 101.328 139.404 98.4408 140.16C96.1653 140.759 93.6908 140.188 91.458 139.646C91.0029 139.532 90.5194 139.404 90.1923 139.061C89.8937 138.748 89.7941 138.305 89.6946 137.878C85.6841 119.479 88.8413 100.595 88.3862 81.9825C88.3009 78.3027 86.9783 71.0145 90.1212 68.1763C93.0793 65.4949 99.6923 65.9798 102.48 68.5756H102.494Z" fill="#63848F"/>
  <path d="M89.311 156.062C89.311 156.134 89.2825 156.205 89.2399 156.291C89.0408 156.704 88.5003 156.776 88.0168 156.776C86.7938 156.776 85.5707 156.776 84.3477 156.776C83.793 156.776 83.1957 156.776 82.7122 156.533C82.5842 156.476 82.4136 156.39 82.314 156.305C82.2856 156.276 82.2571 156.248 82.2429 156.219C82.1434 156.034 82.1434 155.849 82.186 155.663C82.186 155.663 82.186 155.663 82.186 155.649C82.3709 154.879 82.5984 154.08 82.7833 153.295C83.0251 152.311 83.4944 151.299 84.4472 150.857C85.1156 150.557 85.8836 150.514 86.5947 150.7C86.9218 150.785 87.2489 150.914 87.4764 151.156C87.9457 151.641 88.2159 152.468 88.4435 153.096C88.671 153.709 88.799 154.322 88.9697 154.95C89.0692 155.335 89.3536 155.635 89.2967 156.062H89.311Z" fill="#B36332"/>
  <path d="M84.0344 154.051C84.1766 153.937 84.3188 153.837 84.4326 153.723C84.5322 153.624 84.6033 153.495 84.6175 153.367C84.6317 153.224 84.6175 153.082 84.5748 152.953C84.5179 152.668 84.4611 152.368 84.4042 152.083C84.3473 151.869 84.2904 151.641 84.2335 151.427H84.4326C84.5891 151.969 84.717 152.525 84.8024 153.082C84.8308 153.224 84.8308 153.353 84.8024 153.495C84.7597 153.624 84.6602 153.723 84.5606 153.823C84.4468 153.923 84.3046 154.023 84.1766 154.123C84.0344 154.237 83.8922 154.351 83.75 154.451C83.7215 154.479 83.6504 154.479 83.6078 154.465C83.5793 154.465 83.5367 154.437 83.5793 154.408C83.7358 154.28 83.8922 154.166 84.0486 154.037L84.0344 154.051Z" fill="#C46A39"/>
  <path d="M86.7934 151.427H86.9925C86.9356 151.641 86.8787 151.869 86.8218 152.083C86.7507 152.368 86.6938 152.654 86.6511 152.953C86.6227 153.096 86.5942 153.224 86.6085 153.367C86.6085 153.495 86.6938 153.609 86.7934 153.723C86.9071 153.837 87.0636 153.952 87.1916 154.051C87.348 154.18 87.5044 154.294 87.6609 154.422C87.6893 154.451 87.6609 154.465 87.6324 154.479C87.5898 154.479 87.5329 154.479 87.4902 154.465C87.348 154.351 87.2058 154.237 87.0636 154.137C86.9356 154.037 86.8076 153.937 86.6796 153.837C86.5658 153.738 86.4805 153.638 86.4378 153.509C86.3952 153.367 86.4094 153.238 86.4378 153.096C86.5231 152.54 86.6511 151.983 86.8076 151.441L86.7934 151.427Z" fill="#C46A39"/>
  <path d="M84.1624 151.584C85.0868 151.313 86.0681 151.299 86.9925 151.555C87.0494 151.57 87.1489 151.613 87.1205 151.712C87.0921 151.798 86.9498 151.812 86.893 151.798C86.0539 151.57 85.1864 151.555 84.3473 151.798C84.2762 151.826 84.1482 151.826 84.0913 151.755C84.0344 151.684 84.0913 151.598 84.1624 151.584V151.584Z" fill="#FFFDF8"/>
  <path d="M84.1623 152.269C85.1151 152.04 86.0964 152.055 87.035 152.311C87.1061 152.326 87.163 152.397 87.1061 152.483C87.0493 152.568 86.9355 152.554 86.8502 152.54C85.9969 152.311 85.1151 152.297 84.2618 152.511C84.1907 152.525 84.0627 152.511 84.0343 152.44C84.0059 152.34 84.1054 152.297 84.1623 152.283V152.269Z" fill="#FFFDF8"/>
  <path d="M84.1623 153.595C85.1151 153.367 86.0964 153.381 87.035 153.638C87.1061 153.652 87.163 153.723 87.1061 153.809C87.0493 153.895 86.9355 153.88 86.8502 153.866C85.9969 153.638 85.1151 153.624 84.2618 153.838C84.1907 153.852 84.0627 153.838 84.0343 153.766C84.0059 153.666 84.1054 153.624 84.1623 153.609V153.595Z" fill="#FFFDF8"/>
  <path d="M83.9774 153.01C84.9729 152.725 85.9968 152.668 87.0066 152.882C87.0634 152.882 87.163 152.939 87.1345 153.039C87.1061 153.124 86.9639 153.139 86.907 153.124C85.9968 152.925 85.0724 152.953 84.1623 153.224C84.0912 153.253 83.9632 153.267 83.9063 153.181C83.8494 153.11 83.9063 153.025 83.9774 153.01V153.01Z" fill="#FFFDF8"/>
  <path d="M83.4086 154.907C84.6743 154.351 86.0538 154.08 87.3622 154.665C87.8172 154.864 88.2297 155.164 88.6279 155.463C88.9834 155.72 88.9692 156.148 88.5568 156.362C88.3292 156.49 88.059 156.49 87.803 156.49C86.5089 156.49 85.2147 156.433 83.9206 156.276C83.6788 156.276 83.4086 156.205 83.1953 156.134C82.9393 156.062 82.7117 156.062 82.4415 156.062C82.4131 156.062 82.3704 156.062 82.342 156.048C82.2993 156.02 82.2993 155.948 82.2993 155.891C82.2993 155.777 82.2993 155.549 82.3704 155.449C82.4273 155.364 82.5695 155.307 82.6691 155.264C82.9108 155.135 83.1668 155.007 83.4086 154.893V154.907Z" fill="#FFFDF8"/>
  <path d="M89.2963 155.72C89.2963 155.734 89.2963 155.749 89.2963 155.763C89.2963 155.763 89.2963 155.763 89.2963 155.777C89.2963 155.777 89.2963 155.791 89.2963 155.806C89.2963 155.806 89.2963 155.82 89.2963 155.834C89.2963 155.906 89.2963 155.963 89.2963 156.034C89.2963 156.105 89.2678 156.177 89.2252 156.262C89.0261 156.676 88.4857 156.747 88.0021 156.747C86.7791 156.747 85.556 156.747 84.333 156.747C83.7784 156.747 83.1811 156.747 82.6975 156.505C82.5695 156.448 82.3989 156.362 82.2993 156.276C82.2709 156.248 82.2424 156.219 82.2282 156.191C82.1429 156.034 82.1287 155.863 82.1571 155.706H89.2821L89.2963 155.72Z" fill="#FFFDF8"/>
  <path d="M77.9476 101.579C78.7013 113.474 79.4408 125.384 80.1946 137.279C80.2657 138.505 80.3368 139.732 80.4221 140.958C80.4932 142.099 80.2657 143.212 80.5217 144.367C80.6639 144.995 80.8914 145.594 80.9768 146.236C81.119 147.205 80.9199 148.189 80.863 149.159C80.7919 150.628 81.0336 152.083 81.2754 153.538C81.3039 153.709 81.3465 153.895 81.4603 154.009C81.6452 154.18 82.2567 153.966 82.4558 153.866C84.6459 152.768 87.2769 152.611 89.5665 153.424C89.8367 153.524 90.1212 153.624 90.3914 153.567C90.9033 153.452 91.1878 152.696 91.2304 152.226C91.2873 151.698 91.1024 151.185 91.0029 150.671C90.8607 149.844 90.9602 149.002 91.0598 148.175C91.5149 144.367 91.8277 140.573 92.0126 136.751C92.1548 133.998 92.2117 131.246 92.1264 128.493C91.8704 121.219 91.586 113.874 91.4011 106.557C91.1451 96.0882 91.7566 85.6052 92.4961 75.165C92.6099 73.6389 92.7095 72.0842 92.3397 70.6009C91.97 69.1176 91.0171 67.6913 89.595 67.1494C88.9834 66.9212 88.3293 66.8641 87.6751 66.8213C83.6788 66.6217 79 66.5646 77.2223 70.6722C75.6722 74.2664 76.4686 78.3883 76.7103 82.1536C77.1227 88.6289 77.521 95.0898 77.9334 101.565L77.9476 101.579Z" fill="#63848F"/>
  <path d="M91.7423 96.9011C91.8134 92.8648 91.913 88.8285 92.041 84.8064C92.041 84.7066 91.7708 84.7066 91.7708 84.8064C91.5574 91.9948 91.4152 99.1831 91.3441 106.357C91.273 113.503 91.2872 120.663 91.3726 127.808C91.4152 131.845 91.4863 135.881 91.5859 139.903C91.5859 140.003 91.8703 140.003 91.8561 139.903C91.6854 132.715 91.5859 125.526 91.5717 118.338C91.5574 111.192 91.6143 104.032 91.7423 96.8869V96.9011Z" fill="#4B575E"/>
  <path d="M101.285 46.5257C101.285 46.7824 101.285 47.0249 101.285 47.2816C101.285 47.8664 101.271 48.4511 101.257 49.0359C101.214 51.8028 101.157 54.5698 101.043 57.3367C101.043 57.5935 101.029 57.8502 101.015 58.0927C100.859 61.4444 100.617 64.7818 100.176 68.0907C100.147 68.3475 100.105 68.6042 100.076 68.8467C99.863 70.3442 99.6212 71.8275 99.3368 73.3109C93.4776 73.0113 87.6041 72.94 81.7449 73.1112C81.7449 71.8133 81.7449 70.5154 81.7449 69.2317C81.7449 68.975 81.7449 68.7326 81.7449 68.4758C81.7449 65.0956 81.7733 61.7011 81.7733 58.3209C81.7733 58.0641 81.7733 57.8217 81.7733 57.5649C81.7733 54.2275 81.8018 50.9043 81.8018 47.5668C81.8018 47.3101 81.8018 47.0677 81.8018 46.8109C81.8018 46.5827 81.8018 46.3403 81.8018 46.1121C81.8018 43.445 81.816 40.7636 81.9724 38.1107C81.9724 37.854 82.0009 37.5973 82.0151 37.3548C82.2 34.5879 82.5413 31.8495 83.1812 29.1538C83.2097 29.0255 83.2523 28.8971 83.2808 28.7687C83.3519 28.4977 83.423 28.2268 83.4941 27.9558C83.8781 26.6008 84.3901 25.2887 85.1438 24.1191C85.2576 23.9337 85.3713 23.7768 85.4851 23.6057C86.8219 21.7515 88.3294 21.0955 90.6048 20.8815C93.3354 20.6105 95.5539 18.9275 97.6729 21.7087C97.8578 21.9512 98.0142 22.2079 98.1707 22.4647C98.6684 23.3347 98.9671 24.3188 99.2373 25.2887C99.4221 25.9305 99.5786 26.5866 99.735 27.2284C99.7919 27.4851 99.8488 27.7276 99.9057 27.9843C100.517 30.8796 100.873 33.832 101.072 36.7986C101.086 37.0553 101.1 37.2978 101.115 37.5545C101.285 40.5354 101.299 43.5305 101.271 46.5114L101.285 46.5257Z" fill="#FFFDF8"/>
  <path d="M85.3998 46.7538L81.8302 46.8109C81.8302 47.0676 81.8302 47.3101 81.8302 47.5668C86.4522 47.4955 91.0884 47.4242 95.7103 47.3529C97.5734 47.3243 99.4364 47.2958 101.299 47.2673C101.299 47.0106 101.299 46.7681 101.299 46.5114C95.9948 46.5969 90.7044 46.6683 85.3998 46.7538ZM101.143 37.5545C101.143 37.2977 101.114 37.0553 101.1 36.7985C94.9993 36.9697 88.9125 37.1551 82.8115 37.3263C82.5555 37.3263 82.2995 37.3405 82.0435 37.3405C82.0293 37.5972 82.0151 37.8397 82.0009 38.0964C85.8691 37.9823 89.7516 37.8825 93.6198 37.7684C96.1228 37.6971 98.64 37.6258 101.143 37.5545V37.5545ZM84.3616 57.6077C83.5083 57.6077 82.6408 57.5792 81.7875 57.5649C81.7875 57.8216 81.7875 58.0641 81.7875 58.3208C86.0966 58.4207 90.42 58.4064 94.7291 58.2923C96.8196 58.2352 98.9244 58.1782 101.015 58.0926C101.015 57.8359 101.043 57.5792 101.043 57.3367C95.4828 57.5506 89.9222 57.679 84.3616 57.6077V57.6077ZM81.7591 68.4758C81.7591 68.7325 81.7591 68.975 81.7591 69.2317C85.1438 69.1319 88.5427 69.032 91.9274 68.9607C94.6437 68.9037 97.36 68.8609 100.076 68.8466C100.105 68.5899 100.147 68.3474 100.176 68.0907C94.0891 68.105 88.0023 68.2904 81.9155 68.4758C81.8586 68.4758 81.8018 68.4758 81.7449 68.4758H81.7591ZM90.1213 28.1411C93.3922 28.0413 96.6774 28.0841 99.9483 27.9843C99.8915 27.7275 99.8346 27.4708 99.7777 27.2283C96.9618 27.2996 94.1602 27.2996 91.3444 27.3567C89.5525 27.3852 87.7748 27.4708 85.9829 27.6562C85.158 27.7418 84.3474 27.8559 83.5226 27.9557C83.4514 28.2267 83.3661 28.4977 83.3092 28.7687C83.8354 28.6974 84.3616 28.6261 84.8878 28.569C86.6228 28.3408 88.3579 28.2125 90.1213 28.1554V28.1411Z" fill="#63848F"/>
  <path d="M98.2134 22.4647C97.8436 23.1065 97.2463 23.6342 96.6206 23.9765C95.6108 24.547 94.4589 24.7609 93.3212 24.9464C91.6857 25.2173 89.9934 25.417 88.3863 25.0747C88.173 25.0319 87.9739 24.9749 87.7748 24.9178C86.95 24.6611 86.1536 24.219 85.5278 23.6057C86.8646 21.7515 88.3721 21.0955 90.6476 20.8815C93.3781 20.6105 95.5966 18.9275 97.7156 21.7087C97.9005 21.9512 98.0569 22.2079 98.2134 22.4647V22.4647Z" fill="#FCD9BA"/>
  <path d="M66.6985 76.3202C66.8407 76.092 66.9545 75.8495 67.0967 75.5928C67.8078 74.3092 68.5188 73.0255 69.2157 71.7134C70.6094 69.1176 71.932 66.4933 73.2119 63.8404C74.435 61.3017 75.5585 58.6631 76.2553 55.9247C76.5824 54.6268 76.5824 53.6569 75.5016 52.7013C74.5914 51.9026 73.2404 51.8028 72.06 52.0738C70.9365 52.3305 69.8414 52.901 69.173 53.8423C68.6895 54.5269 68.462 55.3542 68.2344 56.1529C67.0967 60.3033 65.959 64.4537 64.935 68.6327C64.4657 70.5153 64.0249 72.4408 63.2285 74.2093C62.944 74.8369 62.6596 75.4787 62.6169 76.1633C62.6169 76.2204 62.6169 76.2917 62.6454 76.3487C62.6738 76.4058 62.7307 76.4343 62.7734 76.4771C63.9253 77.2188 65.8452 77.7322 66.6985 76.3202V76.3202Z" fill="#FCD9BA"/>
  <path d="M78.4596 45.1849C78.2321 48.0089 78.033 50.8472 77.8339 53.6712C77.7343 55.1117 77.6348 56.5522 77.521 57.9928C77.4357 59.091 77.4783 60.1321 76.6819 60.9879C76.5824 61.0877 76.4686 61.1876 76.3264 61.2161C76.17 61.2589 75.9993 61.2018 75.8429 61.1305C74.7336 60.6456 74.3354 59.6472 73.5959 58.8057C72.9559 58.0783 71.932 57.8787 70.9791 57.8359C70.0547 57.7931 69.2583 57.8929 68.4193 58.2637C67.95 58.4777 67.5802 58.4206 67.3669 57.8787C67.0967 57.2083 67.2531 56.4381 67.5233 55.7678C67.8078 55.0974 68.206 54.4842 68.4619 53.8138C68.789 52.9438 68.8744 51.9882 68.8317 51.0469C68.7748 49.9486 68.5757 48.7791 69.0735 47.795C69.3152 47.3243 69.6992 46.9392 69.9694 46.4686C70.8085 44.971 70.197 43.1882 70.4814 41.5765C70.6378 40.7207 70.9507 39.922 71.1071 39.0663C71.292 38.0536 71.4769 37.041 71.676 36.0283C72.2164 33.2614 72.6004 29.6815 74.2216 27.2854C75.3594 25.6024 77.3077 22.9923 79.6542 23.5914C79.8107 23.6341 79.9813 23.7055 80.0809 23.8338C80.1946 24.005 80.1804 24.2332 80.1662 24.4329C79.9244 26.9288 79.7111 29.4105 79.4836 31.9065C79.3271 33.7606 79.4409 35.5149 79.2276 37.3833C78.9289 39.9648 78.6872 42.5749 78.4738 45.1707L78.4596 45.1849Z" fill="#99A558"/>
  <path d="M76.3122 56.9088C76.0704 65.1526 76.3549 73.4392 75.8998 81.6544C75.914 81.6544 75.9282 81.6544 75.9424 81.6544H85.1153C84.8593 78.3455 84.9304 75.0081 85.0868 71.6991C85.3002 67.0067 85.3997 62.3143 85.5561 57.6219C85.7126 52.8582 85.869 48.0945 86.0255 43.3308C86.1819 38.6812 86.4379 34.0316 86.4805 29.382C86.4805 28.0841 86.4521 26.8005 86.5659 25.5168C86.6654 24.4186 86.3383 23.2491 86.9925 22.2507C87.4334 21.5518 88.2298 21.181 89.0262 20.9528C90.7896 20.4393 92.5816 20.0257 94.4303 19.9116C94.9281 19.8831 95.4543 19.8688 95.8951 20.1113C96.3076 20.3395 96.592 20.7531 96.8195 21.1667C97.9999 23.2633 98.1421 25.6452 98.1706 27.9985C98.199 31.5642 98.5119 35.2011 98.3128 38.724C98.0141 44.3292 97.5875 49.9201 97.2746 55.5253C96.9618 61.0878 96.6489 66.7072 97.0044 72.2839C97.1609 74.7941 97.4311 77.3329 97.1751 79.8573C97.1182 80.4706 97.0471 81.0839 96.976 81.683H107.116C107.087 81.4262 106.817 81.1695 106.746 80.8985C106.647 80.4564 106.59 79.9857 106.561 79.515C106.49 78.4739 106.547 77.3899 106.504 76.4058C105.879 62.9704 105.395 49.3496 108.424 36.2423C108.908 34.16 109.69 31.4928 109.662 29.0825C109.633 27.5564 109.235 26.23 108.325 25.0176C107.457 23.8624 105.95 23.2348 104.67 22.6072C101.769 21.181 98.6683 20.1683 95.4969 19.6121C94.6437 19.4695 93.7193 19.1272 92.8802 19.0701C92.2118 19.0273 91.3869 19.2698 90.7328 19.3982C89.0546 19.7262 87.4476 20.311 85.8406 20.8957L78.801 23.4345C78.3032 23.6199 77.7912 23.791 77.3788 24.1191C76.1842 25.0176 76.2269 26.3868 75.8571 27.6847C75.4305 29.1823 75.4874 30.4802 75.6865 32.0491C76.7246 40.3071 76.554 48.665 76.3122 56.9659V56.9088Z" fill="#99A558"/>
  <path d="M95.8808 21.4234C95.7102 21.6374 95.4542 21.78 95.2124 21.9084C93.065 23.0351 90.5478 23.5058 88.1301 23.2205C88.0021 23.2063 87.8599 23.1777 87.7604 23.0922C87.675 23.0209 87.6324 22.8925 87.5897 22.7784C87.3764 22.1223 87.1346 21.452 86.9071 20.7959C86.4804 19.555 86.0822 18.2857 85.8974 17.002C85.8974 16.9878 85.8974 16.9592 85.8974 16.945C85.8405 16.5599 85.8263 16.1891 85.8831 15.804C86.1107 14.1495 87.3906 12.7803 88.7416 11.8675C89.4243 11.4111 89.9931 11.1258 90.8038 11.5252C91.7993 12.0101 92.5388 12.5949 93.0223 13.5933C93.5769 14.7343 94.1316 15.8753 94.6578 17.0306C94.9138 17.6011 95.1697 18.1858 95.4257 18.7706C95.6391 19.2555 96.0088 19.6834 96.1226 20.1969C96.2221 20.6105 96.1795 21.0811 95.9093 21.4234H95.8808Z" fill="#FCD9BA"/>
  <path d="M88.372 19.8546C88.2013 20.0685 88.0165 20.2825 87.7889 20.4536C87.6609 20.5392 87.5187 20.6248 87.3765 20.6818C87.2201 20.7532 87.0636 20.7959 86.9072 20.8102C86.4805 19.5694 86.0823 18.3 85.8975 17.0163C86.0112 16.888 86.1677 16.7881 86.4094 16.6455C87.1632 16.1891 88.1302 15.5758 88.9835 16.1463C90.2635 16.9878 89.0546 19.0131 88.372 19.8546V19.8546Z" fill="#E6C1A0"/>
  <path d="M80.7635 7.81694C80.7635 7.81694 80.7493 7.87399 80.7351 7.90251C80.6782 8.11645 80.7351 8.41597 80.7209 8.64417C80.6924 8.92942 80.6924 9.22894 80.7209 9.51419C80.7777 10.0419 81.1902 10.4698 81.247 10.9975C81.2755 11.24 81.1617 11.4539 81.0906 11.6821C81.0053 11.9531 80.92 12.2098 80.8062 12.4665C80.5929 12.9943 80.3369 13.5077 80.0524 13.9926C79.8533 14.3349 79.6258 14.7058 79.6969 15.0909C79.8107 15.7184 80.5075 15.8183 81.0053 15.9324C81.5599 16.075 81.759 16.7453 81.887 17.216C82.0577 17.8578 82.1146 18.5139 82.3137 19.1557C82.5554 19.9544 82.9963 20.5962 83.8922 20.5677C85.1722 20.5392 86.4094 20.097 87.476 19.3982C88.3151 18.8562 89.0404 18.1573 89.6377 17.3871C90.1639 16.7168 90.9887 16.132 91.2732 15.3048C91.5718 14.449 92.354 14.4633 93.0366 13.9641C93.7335 13.4364 94.1744 12.4808 94.4019 11.6821C94.6721 10.7836 94.7432 9.84223 94.8285 8.91516C94.8996 7.98809 94.985 7.03249 94.6721 6.16248C94.3166 5.13557 93.4633 4.3226 92.4962 3.79488C91.5292 3.26717 90.4483 2.99618 89.3675 2.78224C88.1871 2.53977 87.1063 2.3401 85.9117 2.5683C85.0726 2.72519 84.3189 3.03896 83.5225 3.35274C82.783 3.63799 82.2568 4.26555 81.8301 4.92163C81.2755 5.80591 80.9768 6.80429 80.7066 7.81694H80.7635Z" fill="#FCD9BA"/>
  <path d="M95.3547 14.0782C95.056 14.7343 94.7005 15.3618 94.0605 15.7469C93.6054 16.0322 93.1361 15.9181 92.681 15.6899C92.2259 15.4474 91.7851 15.1622 91.4011 14.8199C90.9033 14.392 90.4767 13.8928 89.9932 13.4507C89.5523 13.0513 88.955 12.9943 88.443 12.6947C86.708 11.6678 87.22 9.32876 86.0538 7.85972C85.5561 7.23216 84.8023 6.80428 84.0059 6.70444C83.2806 6.61887 82.5269 6.77576 81.8443 6.50477C80.4221 5.94853 79.4551 4.15144 80.7919 3.01043C81.2328 2.62534 81.759 2.32582 82.2994 2.14041C82.7687 1.96926 83.2664 1.88368 83.7073 1.62696C84.3757 1.25613 84.845 0.542999 85.5561 0.243484C85.9543 0.0723329 86.3809 0.0580703 86.8076 0.0295451C87.5044 -0.0132428 88.2155 -0.041768 88.8839 0.186434C89.3532 0.357585 89.7656 0.6571 90.2349 0.871039C91.3015 1.3417 92.6668 1.32744 93.4348 2.21172C94.0463 2.92485 94.0463 3.95176 94.3449 4.83604C94.6863 5.86295 95.4258 6.69018 96.0089 7.58873C96.5919 8.50153 97.0186 9.62828 96.6488 10.6409C96.4497 11.1972 96.0373 11.6393 95.8382 12.1813C95.6107 12.7946 95.6391 13.4649 95.3689 14.0639L95.3547 14.0782Z" fill="#553A12"/>
  <path d="M81.3608 9.97058C81.3608 9.97058 81.3751 9.87075 81.4035 9.82796C81.5742 9.45713 82.143 9.49992 82.4701 9.49992C82.911 9.49992 83.3234 9.67107 83.7074 9.85648C84.0771 10.0419 84.4611 10.2844 84.5891 10.6837C84.5891 10.7122 84.5891 10.7265 84.5891 10.755C84.5322 10.8691 83.9634 10.5696 83.878 10.5411C83.75 10.484 83.6078 10.4555 83.4798 10.427C82.9821 10.3271 82.4559 10.2701 81.9581 10.3557C81.8444 10.3699 81.7306 10.3985 81.631 10.3699C81.4462 10.3271 81.3608 10.1417 81.3751 9.95632L81.3608 9.97058Z" fill="#553A12"/>
  <path d="M86.4948 13.1226C86.4948 13.1226 86.4948 13.0941 86.4948 13.0798C86.2388 11.8675 87.1489 9.57121 88.7133 10.1702C89.2679 10.3842 89.6519 10.9119 89.7657 11.4967C89.979 12.6234 89.1684 14.5346 87.86 14.6344C87.0636 14.6915 86.6512 13.7929 86.4948 13.1369V13.1226Z" fill="#FCD9BA"/>
  <path d="M83.0389 11.9674C83.0104 11.8247 82.9678 11.6821 82.8824 11.6108C82.8255 11.568 82.7402 11.5395 82.6549 11.5395C82.4131 11.5395 82.2709 11.6821 82.2282 11.8818C82.214 12.0102 82.2282 12.1385 82.2567 12.2669C82.2851 12.3952 82.3278 12.5379 82.3989 12.652C82.4416 12.709 82.4842 12.7661 82.5553 12.7946C82.8682 12.923 83.0246 12.709 83.0389 12.4523C83.0389 12.3382 83.0531 12.1385 83.0389 11.9531V11.9674Z" fill="#553A12"/>
  <path d="M84.1055 5.17831C83.5793 5.17831 83.0389 5.19257 82.5696 4.92158C82.1145 4.66486 81.9581 4.17993 81.8443 3.695C81.8159 3.59516 81.5457 3.60942 81.5741 3.695C81.631 3.96599 81.7021 4.23698 81.8443 4.47944C81.9723 4.70764 82.1714 4.89306 82.399 5.03568C82.9252 5.3352 83.5509 5.3352 84.134 5.32094C84.1766 5.32094 84.2762 5.29241 84.262 5.23536C84.262 5.17831 84.1624 5.16405 84.1198 5.16405L84.1055 5.17831Z" fill="#412409"/>
  <path d="M86.0396 3.22439C86.0396 3.22439 85.9116 3.16734 85.8689 3.1816C85.5703 3.23865 85.2432 3.25292 84.973 3.12455C84.7312 3.01045 84.5463 2.79651 84.5037 2.53979C84.4894 2.43995 84.2192 2.45421 84.2335 2.53979C84.2761 2.85356 84.5179 3.11029 84.8023 3.23865C85.1578 3.39554 85.5703 3.38128 85.9542 3.32423C85.9969 3.32423 86.068 3.28144 86.0396 3.22439V3.22439Z" fill="#412409"/>
  <path d="M95.4117 8.10219C95.369 8.01661 95.0988 8.04514 95.1415 8.15924C95.5397 9.01499 95.4543 10.0562 94.9282 10.8549C94.8997 10.9119 94.9993 10.9404 95.0277 10.9404C95.0846 10.9404 95.1557 10.9404 95.1984 10.8834C95.7388 10.0704 95.8099 9.00073 95.4117 8.11645V8.10219Z" fill="#412409"/>
  <path d="M93.1504 8.72972C93.0935 8.64415 92.8233 8.68693 92.8802 8.78677C93.3068 9.42859 92.7948 10.1417 92.3966 10.6409C92.3113 10.7407 92.5815 10.7835 92.6384 10.7122C92.8802 10.427 93.1219 10.1132 93.2357 9.75663C93.3495 9.42859 93.3353 9.0435 93.1504 8.74398V8.72972Z" fill="#412409"/>
  <path d="M82.9111 16.8452C82.84 16.674 82.7973 16.4173 82.9395 16.3032C83.1102 16.1748 83.423 16.1606 83.6221 16.0179C83.8213 15.8753 83.9777 15.6899 84.1626 15.5473C84.575 15.2335 84.7883 15.5045 84.7314 15.9324C84.6888 16.2319 84.4897 16.5029 84.2906 16.7168C83.935 17.0876 83.1955 17.5298 82.8969 16.8452H82.9111Z" fill="#E9B8A2"/>
  <path d="M115.862 80.8985C115.748 80.6275 115.62 80.3707 115.464 80.1283C115.208 79.7004 114.852 79.3296 114.397 79.1156C113.942 78.9017 113.402 78.8589 112.961 79.0728C112.748 79.1727 112.577 79.3296 112.406 79.4865C111.525 80.2994 111.041 81.526 110.913 82.7098C110.799 83.808 110.856 85.1059 111.34 86.1043C111.397 86.2327 111.567 86.4609 111.667 86.2612C111.695 86.2041 111.653 86.09 111.667 86.033C111.695 85.705 111.951 85.3769 112.278 85.6907C112.421 85.8333 112.463 86.0473 112.435 86.2327C112.392 86.5179 112.25 86.6891 112.108 86.9173C112.093 86.9458 112.065 86.9743 112.065 87.0171C112.051 87.0884 112.093 87.174 112.15 87.2168C112.278 87.3166 112.477 87.4735 112.634 87.4878C113.089 87.5306 113.544 87.0742 113.743 86.7033C113.743 86.8602 113.857 86.9886 113.999 87.0314C114.141 87.0742 114.298 87.0314 114.44 86.9743C114.81 86.8174 115.094 86.4751 115.18 86.0758C115.421 86.2327 115.748 86.2327 115.99 86.0758C116.232 85.9189 116.374 85.6336 116.346 85.3484C116.346 85.3769 116.616 85.22 116.644 85.1915C116.744 85.1059 116.815 84.9918 116.858 84.8635C116.929 84.6353 116.943 84.3215 116.943 84.079C116.943 83.3801 116.715 82.7098 116.431 82.0823C116.246 81.6972 116.09 81.2978 115.919 80.8985H115.862Z" fill="#FCD9BA"/>
  <path d="M115.137 81.3549C115.82 79.6006 115.535 77.3186 115.592 75.4359C115.649 73.2823 115.677 71.1286 115.692 68.975C115.734 64.6677 115.692 60.3461 115.606 56.0388C115.549 53.3717 112.606 54.042 110.842 54.5698C110.074 54.798 108.993 55.126 108.623 55.9247C108.268 56.6949 108.595 58.007 108.666 58.8343C109.022 62.3999 109.391 65.9798 109.747 69.5455C109.989 72.0129 110.245 74.4946 110.629 76.9478C110.828 78.1744 111.055 79.3867 111.326 80.599C111.539 81.5118 111.482 82.3961 112.549 82.6243C113.544 82.824 114.753 82.3676 115.151 81.3692L115.137 81.3549Z" fill="#FCD9BA"/>
  <path d="M112.335 85.7193C112.065 85.2059 111.567 84.7637 111.596 84.1362C111.596 84.0363 111.326 84.0363 111.326 84.1362C111.311 84.7637 111.766 85.2059 112.051 85.705C112.122 85.8191 112.179 85.9618 112.193 86.0901C112.207 86.2185 112.193 86.3469 112.15 86.4752C112.065 86.7177 111.937 86.9459 111.994 87.2026C112.008 87.3025 112.293 87.3025 112.264 87.2026C112.207 86.9316 112.349 86.7034 112.421 86.461C112.492 86.2042 112.463 85.9618 112.335 85.7193Z" fill="#C6AE8A"/>
  <path d="M105.936 45.185C105.936 46.0407 105.936 46.8965 105.964 47.7522C106.021 49.3211 106.305 50.8757 106.789 52.3733C107.002 53.0151 107.301 53.6284 107.457 54.2845C107.813 55.8391 107.258 57.3938 107.23 58.9341C107.23 59.4904 107.201 60.6599 107.756 61.0165C108.112 61.2447 109.007 61.102 109.42 61.0592C110.885 60.9309 112.35 60.8025 113.814 60.6742C114.597 60.6028 115.891 61.0022 116.516 60.3889C117.256 59.6615 117.185 58.0213 116.886 57.137C116.73 56.6806 116.488 56.267 116.374 55.7963C115.919 54.0848 117.1 52.1451 116.317 50.562C116.132 50.1769 115.834 49.8488 115.606 49.478C115.037 48.5509 114.966 47.4385 114.909 46.383C114.853 45.4132 114.725 44.4433 114.668 43.4877C114.525 41.0203 113.843 38.4673 113.373 36.0426C112.833 33.2757 112.449 29.6958 110.828 27.2997C109.69 25.6167 107.742 23.0066 105.395 23.6056C105.239 23.6484 105.068 23.7197 104.969 23.8481C104.855 24.0193 104.869 24.2475 104.883 24.4471C105.125 26.9431 105.338 29.4248 105.566 31.9207C105.722 33.7749 105.609 35.5292 105.822 37.3976C106.121 39.9648 105.993 42.5749 105.95 45.185H105.936Z" fill="#99A558"/>
  <path d="M83.6648 29.7528C83.8781 29.5817 84.1057 29.4105 84.319 29.2394C84.7598 28.8971 85.2007 28.569 85.6274 28.2267C85.6842 28.1839 85.6273 28.1411 85.5847 28.1269C84.9732 27.8987 84.3616 27.6847 83.7643 27.4565C83.4515 27.3424 83.1386 27.2283 82.8399 27.1142C82.7119 27.0714 82.5697 27.0144 82.4417 26.9716C82.3137 26.9288 82.2142 26.8575 82.2284 26.7006C82.2426 26.558 82.3422 26.4154 82.3991 26.287C82.4702 26.1444 82.5413 25.9875 82.6124 25.8449C82.7546 25.5739 82.8826 25.3029 83.0248 25.0461C83.3093 24.5042 83.6221 23.9622 83.935 23.4345C84.2905 22.8354 84.6603 22.2507 85.03 21.6659C85.0869 21.5803 84.8167 21.5375 84.7598 21.6231C84.0488 22.6928 83.3946 23.8053 82.7973 24.932C82.6551 25.203 82.4986 25.4883 82.3564 25.7735C82.2853 25.9162 82.2142 26.0731 82.1431 26.2157C82.072 26.344 82.0009 26.4867 81.9582 26.6293C81.8729 26.9288 82.1289 27.0429 82.3564 27.1285C82.6693 27.2426 82.9822 27.3567 83.3093 27.4851C83.9777 27.7275 84.6603 27.9842 85.3287 28.2267C84.9589 28.512 84.5892 28.7972 84.2194 29.0825C84.0203 29.2394 83.8212 29.382 83.6221 29.5389C83.4372 29.6815 83.2381 29.8099 83.0817 29.9667C82.9253 30.1094 82.8399 30.2805 82.8257 30.4945C82.8115 30.7227 82.8684 30.9509 82.9111 31.1791C83.0106 31.664 83.0959 32.1489 83.1955 32.6339C83.5937 34.5878 84.0203 36.5275 84.4896 38.4673C84.7456 39.5512 85.0158 40.6209 85.3003 41.6906C85.3287 41.7762 85.5989 41.7619 85.5705 41.6478C85.0727 39.7509 84.6176 37.8397 84.1768 35.9285C83.9634 34.9729 83.7501 34.0031 83.551 33.0332C83.4515 32.5625 83.3519 32.0776 83.2666 31.6069C83.2239 31.3645 83.167 31.1363 83.1244 30.8938C83.0817 30.6799 83.0533 30.4517 83.1528 30.252C83.2666 30.0381 83.4941 29.8954 83.6648 29.7528V29.7528Z" fill="#495E22"/>
  <path d="M101.641 28.9113C101.442 28.7402 101.214 28.5833 101.001 28.4264C100.574 28.1126 100.133 27.8131 99.6781 27.5421C100.076 27.1428 100.474 26.7577 100.873 26.3583C101.072 26.1586 101.271 25.959 101.47 25.7593C101.655 25.5739 101.854 25.4027 102.025 25.1888C102.167 25.0034 102.252 24.8037 102.209 24.5612C102.153 24.3045 102.01 24.0906 101.882 23.8624C101.612 23.3774 101.328 22.9068 101.029 22.4361C100.702 21.9084 100.346 21.3949 99.9909 20.8957C99.9483 20.8387 99.8772 20.8387 99.8203 20.8387C99.7918 20.8387 99.6923 20.8815 99.7207 20.9385C100.346 21.8085 100.93 22.7071 101.47 23.6484C101.598 23.8766 101.754 24.1048 101.854 24.3473C101.968 24.5897 101.982 24.8179 101.84 25.0462C101.712 25.2458 101.513 25.4027 101.356 25.5739C101.157 25.7735 100.958 25.9732 100.759 26.1729C100.304 26.615 99.863 27.0714 99.4079 27.5136C99.3794 27.5421 99.4079 27.5849 99.4363 27.5992C99.863 27.8559 100.261 28.1411 100.674 28.4264C100.873 28.569 101.058 28.7116 101.257 28.8543C101.413 28.9826 101.584 29.0967 101.712 29.2679C102.025 29.6672 101.882 30.1664 101.769 30.6086L101.399 32.0776C100.901 34.0601 100.403 36.0426 99.9056 38.0394L99.0665 41.3768C99.0381 41.4909 99.3083 41.5052 99.3368 41.4196C99.8487 39.3943 100.361 37.369 100.858 35.3438C101.114 34.3311 101.37 33.3185 101.626 32.3201C101.754 31.8066 101.882 31.3074 102.01 30.794C102.124 30.3661 102.309 29.8669 102.11 29.4248C102.025 29.2251 101.854 29.0539 101.683 28.9113H101.641Z" fill="#495E22"/>
  <path d="M75.6012 38.4388C74.6342 37.0981 73.8947 35.5862 73.4111 34.0031C73.2689 33.5467 73.1551 33.0903 73.0698 32.6196C73.0556 32.5055 72.7712 32.5198 72.7996 32.6196C73.1267 34.2598 73.724 35.843 74.5631 37.2978C74.8048 37.7114 75.0608 38.0965 75.331 38.4816C75.3737 38.5386 75.4448 38.5386 75.5017 38.5386C75.5301 38.5386 75.6297 38.4958 75.6012 38.4388Z" fill="#495E22"/>
  <path d="M76.5398 53.1863C76.5114 50.6761 76.5114 48.1801 76.5398 45.6699C76.554 44.2579 76.5825 42.8459 76.6251 41.4339C76.6251 41.334 76.3549 41.334 76.3549 41.4339C76.298 43.9441 76.2554 46.4686 76.2554 48.9931C76.2554 51.5033 76.2838 53.9992 76.3407 56.5095C76.3691 57.9215 76.4118 59.3335 76.4687 60.7455C76.4687 60.8453 76.7531 60.8453 76.7389 60.7455C76.6394 58.2352 76.5825 55.7108 76.554 53.2005L76.5398 53.1863Z" fill="#495E22"/>
  <path d="M112.065 32.9761C111.965 33.5467 111.724 34.0886 111.468 34.6021C111.183 35.1583 110.885 35.686 110.6 36.2423C109.989 37.369 109.391 38.4958 108.78 39.6225C108.438 40.2501 108.097 40.8919 107.756 41.5194C107.699 41.6193 107.969 41.6478 108.026 41.5622L109.846 38.1677C110.444 37.041 111.055 35.9285 111.653 34.8018C111.951 34.2313 112.221 33.6322 112.335 32.9904C112.349 32.8906 112.079 32.8763 112.065 32.9904V32.9761Z" fill="#495E22"/>
  <path d="M115.052 55.5967C114.269 55.5396 113.516 55.7393 112.748 55.8249C111.98 55.8962 111.212 55.7964 110.472 55.6252C110.046 55.5254 109.619 55.4113 109.192 55.2972C109.135 55.2829 109.05 55.2829 109.007 55.3257C108.965 55.3685 109.007 55.4113 109.05 55.4255C109.804 55.6252 110.572 55.8391 111.34 55.9247C111.724 55.9675 112.122 55.996 112.52 55.9818C112.904 55.9675 113.288 55.8962 113.672 55.8391C114.099 55.7678 114.54 55.6965 114.966 55.7393C115.023 55.7393 115.108 55.7393 115.137 55.6823C115.165 55.6252 115.08 55.5967 115.037 55.5824L115.052 55.5967Z" fill="#495E22"/>
  <path d="M112.918 49.2783C112.136 49.806 111.326 50.2909 110.486 50.7473C110.43 50.7759 110.444 50.8187 110.486 50.8614C110.543 50.89 110.629 50.89 110.686 50.8614C111.525 50.4193 112.335 49.9344 113.117 49.3924C113.245 49.3068 113.004 49.2355 112.918 49.2783Z" fill="#495E22"/>
  <path d="M73.9231 55.6252C72.9134 54.584 71.4201 54.0563 69.9838 54.1561C69.5713 54.1847 69.1731 54.256 68.7749 54.3843C68.7323 54.3986 68.6896 54.4414 68.7323 54.4842C68.7749 54.527 68.8745 54.527 68.9172 54.5127C70.1971 54.0848 71.6334 54.2845 72.7854 54.9834C73.1125 55.183 73.4111 55.4255 73.6813 55.6965C73.7524 55.7678 74.0084 55.7108 73.9231 55.6252Z" fill="#495E22"/>
  <path d="M73.1694 48.337C72.9703 48.2086 72.7712 48.0945 72.5579 47.9947C72.1454 47.7807 71.7188 47.5811 71.2922 47.4242C71.2353 47.4099 71.1499 47.4099 71.1073 47.4527C71.0646 47.4955 71.1073 47.5383 71.1499 47.5525C71.5481 47.7094 71.9321 47.8806 72.3019 48.066C72.4868 48.1658 72.6716 48.2657 72.8423 48.3655C72.9845 48.4511 73.2263 48.5509 73.2405 48.7363C73.2547 48.8362 73.5249 48.8362 73.5107 48.7363C73.4823 48.5367 73.3116 48.4226 73.1552 48.337H73.1694Z" fill="#495E22"/>
  <path d="M84.4185 47.6096C84.4185 47.6096 84.3759 47.6096 84.3617 47.6096C84.2621 47.5811 84.1626 47.5668 84.0488 47.5668C83.7786 47.5811 83.5937 47.7237 83.5652 47.9947C83.5368 48.2229 83.5652 48.4511 83.7643 48.608C83.9777 48.7649 84.3048 48.7792 84.5323 48.6508C84.703 48.551 84.7883 48.3513 84.7883 48.1516C84.7883 47.8949 84.6461 47.6952 84.4043 47.6239L84.4185 47.6096Z" fill="#495E22"/>
  <path d="M83.807 55.4683C83.807 55.4683 83.7643 55.4683 83.7501 55.4683C83.6505 55.4397 83.551 55.4255 83.4372 55.4255C83.167 55.4397 82.9821 55.5824 82.9537 55.8534C82.9252 56.0816 82.9537 56.3098 83.1528 56.4667C83.3661 56.6235 83.6932 56.6378 83.935 56.5094C84.1056 56.4096 84.1909 56.2099 84.1909 56.0102C84.1909 55.7535 84.0487 55.5538 83.807 55.4825V55.4683Z" fill="#495E22"/>
  <path d="M83.807 63.3413C83.807 63.3413 83.7643 63.3413 83.7501 63.3413C83.6505 63.3127 83.551 63.2985 83.4372 63.2985C83.167 63.3127 82.9821 63.4553 82.9537 63.7263C82.9252 63.9545 82.9537 64.1827 83.1528 64.3396C83.3661 64.4965 83.6932 64.5108 83.935 64.3824C84.1056 64.2826 84.1909 64.0829 84.1909 63.8832C84.1909 63.6265 84.0487 63.4268 83.807 63.3555V63.3413Z" fill="#495E22"/>
  <path d="M83.807 71.2C83.807 71.2 83.7643 71.2 83.7501 71.2C83.6505 71.1714 83.551 71.1572 83.4372 71.1572C83.167 71.1714 82.9821 71.3141 82.9537 71.585C82.9252 71.8132 82.9537 72.0414 83.1528 72.1983C83.3661 72.3552 83.6932 72.3695 83.935 72.2411C84.1056 72.1413 84.1909 71.9416 84.1909 71.7419C84.1909 71.4852 84.0487 71.2855 83.807 71.2142V71.2Z" fill="#495E22"/>
</svg>
