<svg width="185" height="198" viewBox="0 0 185 198" fill="none"
  xmlns="http://www.w3.org/2000/svg">
  <path d="M104.616 86.2562C107.478 85.4059 110.434 84.5304 113.217 83.2879C115.749 82.1489 118.147 80.6822 120.357 78.9523C124.668 79.0841 128.99 77.924 132.695 75.7067C134.38 74.6983 135.934 73.4705 137.299 72.058L136.992 71.7554C132.838 76.076 126.867 78.5675 120.892 78.5377C124.755 75.3794 127.964 71.39 130.124 66.9311L129.616 66.686C126.192 73.7202 120.139 79.5841 113.003 82.7732C112.011 83.2104 110.986 83.6199 109.964 83.9809C114.333 78.0274 115.336 69.8555 112.486 63.0496L112.093 63.206C114.937 70.0004 113.873 78.1768 109.401 84.0356L109.523 84.1349C107.848 84.7143 106.142 85.2176 104.467 85.7186C103.334 86.0518 102.148 86.401 101.006 86.7711C100.717 86.8654 100.429 86.9597 100.129 87.0608C100.129 87.0608 100.122 87.0493 100.115 87.0378L100.08 87.0585C99.2817 87.3482 98.4625 87.6818 97.7076 88.1492C95.8678 89.2659 94.7033 90.9347 93.9447 92.7054C93.762 91.0121 92.7906 89.2578 91.2006 87.7797C90.1429 86.7981 88.9189 86.0101 87.7502 85.236C87.1278 84.8247 86.487 84.4087 85.8808 83.972L85.629 84.3108C86.2421 84.7591 86.8829 85.175 87.5168 85.5794C88.6785 86.342 89.8841 87.1253 90.9096 88.0792C92.7185 89.7398 93.6735 91.7548 93.5538 93.5978L93.6022 93.6001C92.7621 96.0466 92.6301 98.524 92.6516 99.922C92.6706 101.525 92.8164 103.131 92.9599 104.707C93.1832 107.175 93.3995 109.711 93.1406 112.185C92.2676 111.093 91.3715 110.015 90.4707 108.955C89.464 107.771 88.4341 106.6 87.4112 105.441C83.7551 101.296 79.9976 97.008 77.2765 92.1468L77.3249 92.1492C77.036 88.4972 77.5732 84.7585 78.9127 81.339C79.5743 79.642 80.4389 77.9959 81.2781 76.4121C81.3937 76.1862 81.5092 75.9602 81.6133 75.7412C83.9602 74.948 86.222 73.908 88.3457 72.637C90.7118 71.221 92.9236 69.5211 94.8889 67.5925C97.5054 65.0234 98.9336 62.6952 99.3862 60.2297L98.9642 60.1531C98.5278 62.5148 97.1366 64.7739 94.594 67.2831C91.0168 70.7877 86.6377 73.5024 81.9092 75.1879C82.0826 74.849 82.2675 74.5032 82.4409 74.1643C86.0778 66.8306 88.0202 58.6298 88.0456 50.4476L87.4781 50.4424C87.4576 56.38 86.4059 62.3234 84.448 67.9313C84.4466 63.0571 82.5167 58.2084 79.1251 54.689L78.8156 54.9839C82.4353 58.7273 84.3393 64.0305 83.9667 69.2226C83.3582 70.8251 82.6806 72.3907 81.9268 73.9077C81.5615 74.6593 81.1592 75.4016 80.7755 76.1486C79.9317 77.7508 79.0625 79.4154 78.3846 81.1378C77.1515 84.2898 76.5848 87.717 76.7032 91.1104C75.2278 88.2783 74.1147 85.2921 73.23 82.2161C73.1956 82.08 73.1542 81.9323 73.1083 81.8031C71.7344 76.8881 70.912 71.7683 70.1103 66.7617C68.9078 59.1733 67.6503 51.3357 64.4841 44.2641L63.9648 44.4966C67.1079 51.5036 68.3448 59.3065 69.545 66.8649C70.223 71.1148 70.9125 75.4362 71.9435 79.6472C70.7065 78.0518 68.8464 76.751 67.0255 75.4894C66.5161 75.1359 66.032 74.7986 65.5595 74.4543L65.5319 74.4082C65.5319 74.4082 65.5203 74.4151 65.5019 74.4104C65.3428 74.3018 65.1953 74.1863 65.0294 74.0662C63.1602 72.6454 61.5567 70.9089 60.1009 69.0526L59.9823 57.6177L59.5602 57.6195L59.6724 68.4938C58.4309 66.8385 57.2795 65.0979 56.1534 63.3734C54.1822 60.3678 52.1558 57.2698 49.6005 54.6763L49.1963 55.0749C51.7055 57.6175 53.7251 60.704 55.6756 63.6751C58.2409 67.5949 60.8937 71.6348 64.6828 74.5087C64.6967 74.5318 64.7336 74.5411 64.759 74.5572C60.1004 75.5739 54.9139 76.3108 50.7783 73.8793C50.172 73.5211 49.5842 73.0891 49.0103 72.6801C47.7841 71.7837 46.5141 70.8665 44.9965 70.5834L44.92 71.0054C46.3453 71.2653 47.5139 72.1179 48.7585 73.0189C49.3393 73.4394 49.934 73.883 50.5587 74.2459C54.9341 76.816 60.3837 75.9686 65.2176 74.8784C65.7086 75.2273 66.2064 75.5877 66.7089 75.9297C69.2052 77.6649 71.7845 79.4602 72.5752 82.0124C72.6073 82.1185 72.6326 82.2131 72.6648 82.3193C72.7451 82.6631 72.8139 83.0138 72.8296 83.3806L72.9796 83.3692C73.892 86.3345 75.0214 89.217 76.5085 91.9637C78.2465 95.156 80.43 98.0973 82.7544 100.907C78.1248 100.794 73.3522 100.624 68.8485 99.3068C68.3181 99.1539 67.7924 98.9826 67.2713 98.7929L61.1311 86.1493L60.741 86.3358L66.6948 98.5892C66.1806 98.411 65.678 98.2259 65.1937 98.0455C62.3276 97.0018 59.3554 95.912 56.2619 96.0076C52.2364 96.1438 48.587 98.2181 45.3785 100.06L45.6686 100.545C48.8078 98.7443 52.3995 96.7046 56.275 96.5798C56.6487 96.5756 57.0225 96.5714 57.3985 96.5972C56.8779 99.9968 55.0312 103.171 52.3137 105.283L52.5739 105.614C55.3815 103.416 57.2814 100.147 57.8229 96.6253C60.277 96.8496 62.6589 97.7127 64.9924 98.5735C66.1961 99.0131 67.4435 99.4736 68.6888 99.8256C73.4208 101.21 78.401 101.334 83.2244 101.457C84.4568 102.914 85.7124 104.357 86.9726 105.782C88.0024 106.952 89.0253 108.112 90.032 109.296C91.0641 110.497 92.0547 111.707 93.0475 112.946C93.0475 112.946 93.0475 112.947 93.0429 112.965L93.0544 112.958C98.3479 119.603 103.018 126.699 107.04 134.153C104.071 131.759 99.9378 131.349 96.9691 131.26C93.802 131.18 90.6552 131.37 87.5359 131.842C86.0532 129.312 85.8262 126.156 85.6059 123.09C85.3265 119.245 85.0426 115.26 82.1943 112.701L81.9103 113.012C84.641 115.454 84.9113 119.18 85.186 123.122C85.4109 126.17 85.638 129.326 87.0883 131.906C84.9126 132.252 82.7645 132.723 80.6508 133.329C79.8063 133.568 78.9755 133.83 78.1332 134.099C76.7902 134.527 75.3988 134.952 74.0005 135.287C70.9871 129.754 66.1872 125.244 60.4717 122.582L60.2959 122.969C65.8869 125.58 70.6063 129.982 73.5805 135.397C72.9991 135.526 72.4107 135.643 71.827 135.741C64.6216 136.824 57.008 133.872 52.4216 128.199L51.9782 128.559C55.3875 132.788 60.4455 135.53 65.7825 136.302C63.8118 138.955 60.0712 140.143 56.9305 139.06L56.7917 139.457C59.1022 140.253 61.7162 139.88 63.7937 138.636C64.7632 138.056 65.6038 137.287 66.2461 136.369C68.1212 136.595 70.0267 136.584 71.8932 136.297C74.0827 135.975 76.2265 135.287 78.301 134.641C79.1318 134.379 79.9625 134.117 80.8071 133.878C86.0614 132.364 91.4923 131.669 96.9638 131.827C97.2176 131.832 97.4598 131.844 97.702 131.856C97.2469 132.379 96.9321 133.32 96.899 134.076C96.7401 137.871 94.6369 141.481 91.4097 143.475L91.6308 143.844C94.978 141.763 97.169 138.038 97.3234 134.105C97.3635 133.281 97.7569 132.184 98.2739 131.921C98.297 131.907 98.3086 131.9 98.3386 131.898C98.4539 131.908 98.5692 131.917 98.6776 131.915C98.7215 131.936 98.7468 131.952 98.7975 131.984L98.8299 131.933C102.862 132.279 105.654 133.383 107.53 135.364L107.643 135.265C113.855 147.034 118.42 159.665 121.118 172.738L121.676 172.623C119.795 163.56 117.025 154.715 113.45 146.227L113.51 146.222C112.728 140.279 113.016 134.291 114.365 128.451C114.611 127.395 114.901 126.281 115.557 125.387C116.201 124.5 117.166 123.86 118.097 123.24C118.316 123.109 118.51 122.961 118.722 122.819C121.934 120.615 124.546 117.593 126.567 113.766C129.871 113.184 133.136 112.249 136.244 111C136.911 110.726 137.592 110.397 138.227 110.017C140.431 108.698 142.143 106.764 141.668 104.478L141.253 104.57C141.801 107.267 138.945 109.462 136.088 110.608C133.108 111.811 129.979 112.712 126.814 113.289C129.348 108.277 130.875 101.924 131.371 94.291L130.801 94.2558C129.923 107.745 125.815 117.147 118.599 122.219L118.227 122.331C118.227 122.331 118.241 122.433 118.227 122.488C118.077 122.578 117.934 122.679 117.79 122.781C117.767 122.794 117.744 122.808 117.721 122.822C117.548 122.847 117.385 122.836 117.251 122.743C116.829 122.431 116.719 121.854 116.632 121.185C115.927 116.105 114.178 111.086 111.557 106.681L111.188 106.902C113.792 111.254 115.526 116.22 116.208 121.236C116.294 121.826 116.404 122.638 116.999 123.082C117.057 123.126 117.13 123.144 117.2 123.181C116.419 123.711 115.667 124.287 115.105 125.077C114.396 126.066 114.092 127.236 113.833 128.347C112.593 133.714 112.252 139.169 112.781 144.636C107.829 133.272 101.401 122.557 93.6728 112.839C94.0588 110.131 93.8127 107.363 93.5736 104.684C93.4323 103.138 93.2911 101.514 93.2744 99.9411C93.2473 97.4336 93.6602 91.3395 98.0646 88.6409C98.7571 88.2265 99.5117 87.916 100.276 87.6469C103.97 90.3893 108.032 92.5669 112.377 94.0896L112.515 93.693C108.307 92.2142 104.36 90.1244 100.776 87.4883C100.936 87.4401 101.099 87.3734 101.259 87.3251C102.401 86.955 103.575 86.6126 104.709 86.2794L104.616 86.2562Z" fill="#3E5B2D"/>
  <path d="M69.5611 34.046C69.5651 34.5766 69.507 35.0816 69.3818 35.5798C69.1477 36.5507 68.7361 37.4867 68.3268 38.3744C67.6076 39.9491 66.8952 41.5354 66.176 43.1101C65.8292 43.8664 65.2815 44.7585 64.4511 44.7068C64.0152 44.6855 63.6487 44.3875 63.2868 44.1495C61.7931 43.1467 59.895 42.8562 58.2926 42.0908C58.099 42.0029 57.903 41.8851 57.714 41.7787C57.4235 41.6077 57.1423 41.3998 56.8842 41.1781C56.179 40.5498 55.6656 39.7441 55.1982 38.9109C54.3971 37.4936 53.6629 36.0049 53.4502 34.3922C53.2375 32.7795 53.5877 31.0337 54.7102 29.8447C55.8395 28.6672 57.8054 28.2588 59.1538 29.1761C59.4973 29.4094 59.7922 29.7189 60.2027 29.8024C61.2267 30.0204 61.8833 28.7339 62.7766 28.1836C63.85 27.5413 65.2612 28.0135 66.2962 28.6951C68.1126 29.8967 69.5521 31.8568 69.5773 34.0206L69.5611 34.046Z" fill="#6DA04E"/>
  <path d="M62.5875 54.6632C62.5875 54.6632 62.5712 54.767 62.562 54.8039C62.5341 54.9146 62.511 55.0068 62.4578 55.1013C61.9259 56.2818 60.0338 56.7088 59.8386 58.0326C59.3322 57.0032 58.0431 56.7088 56.9987 56.2209C56.9618 56.2116 56.9364 56.1954 56.9042 56.1677C56.7543 56.1006 56.6275 56.0197 56.5007 55.9389C55.5395 55.3541 54.7769 54.4468 54.3468 53.3875C53.9741 52.4505 53.9132 51.2485 54.6383 50.5481C55.3635 49.8477 56.5283 49.9343 57.476 50.2607C58.6589 50.6657 59.7077 51.3705 60.7496 52.0637C61.6716 52.6876 62.7225 53.5791 62.5806 54.6516L62.5875 54.6632Z" fill="#4D7438"/>
  <path d="M50.5728 50.8808C50.6046 51.3006 50.5996 51.7112 50.5761 52.1172C50.5783 52.1472 50.5737 52.1656 50.5759 52.1956C50.4985 53.3236 50.2943 54.449 49.9724 55.5352C48.6977 54.7148 47.0527 54.9782 45.5187 54.9557C45.1565 54.953 44.7805 54.9273 44.4091 54.883C43.9409 54.834 43.4866 54.7297 43.03 54.5954C42.3336 54.4008 41.6834 54.1002 41.091 53.6866C39.5006 52.6006 38.506 50.8602 37.7629 49.0946C37.5927 48.6792 37.4202 48.2339 37.4645 47.7841C37.5648 46.7992 38.6774 46.196 39.6717 46.181C40.6659 46.166 41.6228 46.5339 42.61 46.6642C44.7481 46.9365 47.1803 46.0765 48.9344 47.3311C50.0315 48.1166 50.4775 49.4643 50.5705 50.8508L50.5728 50.8808Z" fill="#6DA04E"/>
  <path d="M46.2177 69.1155C46.3119 69.4039 46.33 69.7223 46.2443 70.0244C45.9987 71.0022 44.937 71.4808 44.1796 72.1535C43.7109 72.5751 43.362 73.0661 43.0823 73.594C41.8224 75.994 41.9708 79.3851 39.8558 81.1681C39.08 81.8362 38.0807 82.1834 37.1139 82.4799C35.9232 82.8477 34.6263 83.1691 33.4272 82.7895C32.6916 82.5557 32.0509 82.0613 31.5302 81.4794C29.3714 79.1033 29.1635 75.3245 30.6822 72.5189C31.3965 71.1979 32.4474 70.0987 33.6802 69.2512C34.6844 68.5719 35.8037 68.0587 36.9621 67.7417C37.4467 67.6084 37.9151 67.5006 38.4111 67.4389C39.6523 67.2603 40.8957 67.2686 42.1459 67.2885C43.094 67.3011 44.0906 67.3161 44.9436 67.7461C45.52 68.0282 45.9945 68.5593 46.1899 69.1478L46.2177 69.1155Z" fill="#6DA04E"/>
  <path d="M77.8606 50.194C78.0126 50.448 78.0999 50.7249 78.1757 51.0087C78.2033 51.0548 78.201 51.1033 78.2171 51.1564C78.2883 51.4586 78.371 51.754 78.4606 52.0609C78.7431 53.1615 79.0371 54.2553 79.3312 55.3491C78.2169 55.4516 77.105 55.4273 76.0025 55.2877C75.8987 55.2714 75.8134 55.2597 75.7096 55.2435C75.4536 55.2086 75.2022 55.1552 74.9508 55.1019C73.9637 54.8932 73.0068 54.5253 72.2279 53.8785C71.2507 53.0839 70.6108 51.8052 70.836 50.5575C70.9381 50.0732 71.1785 49.5844 71.5987 49.3173C71.9565 49.1031 72.4064 49.0691 72.8262 49.0372C74.1896 48.958 75.6199 48.8858 76.8788 49.4178C77.2593 49.582 77.6327 49.8132 77.8652 50.1756L77.8606 50.194Z" fill="#4D7438"/>
  <path d="M96.9344 45.4724C96.998 46.3906 96.6463 47.3221 96.0688 48.0596C95.8863 48.2786 95.6969 48.486 95.4821 48.6772C95.115 49.0067 94.6995 49.2553 94.2564 49.4578C93.6101 49.7662 92.8948 49.9592 92.1727 50.0621C90.5969 50.2841 88.86 50.1322 87.5396 51.0165C86.9878 49.3873 85.9628 47.9629 84.9102 46.5707C84.6683 46.2452 84.4081 45.915 84.1662 45.5895C82.9247 43.9341 81.7894 42.2465 81.4503 40.2392C81.3564 39.6371 81.3271 39.0119 81.5307 38.4354C81.8571 37.4877 82.776 36.7967 83.768 36.6733C84.7601 36.5498 85.7931 36.9662 86.4981 37.6729C87.323 38.5273 87.8129 39.8174 88.9451 40.1901C89.8536 40.4771 90.823 40.0538 91.7687 40.1148C92.9566 40.1877 93.943 41.0238 94.7956 41.846C95.8255 42.8598 96.8207 44.0513 96.9298 45.4909L96.9344 45.4724Z" fill="#6DA04E"/>
  <path d="M60.2971 80.9581C60.4076 81.1428 60.4534 81.3505 60.5063 81.5697C60.543 81.7358 60.5498 81.9042 60.5749 82.0773C60.5818 82.0888 60.5887 82.1004 60.5725 82.1257C60.7804 83.9137 60.9883 85.7017 61.1962 87.4897C60.6063 86.9493 59.954 86.4618 59.2717 86.055C58.6954 85.6945 58.0821 85.4032 57.4364 85.1625C57.4295 85.151 57.3996 85.1532 57.3811 85.1486C56.5118 84.8224 55.5825 84.5791 54.8241 84.0454C54.0474 83.507 53.4441 82.5513 53.6458 81.6311C53.8128 80.8885 54.4708 80.338 55.1816 80.0851C55.8923 79.8321 56.6582 79.8283 57.4194 79.843C58.4944 79.8581 59.7791 80.0141 60.2855 80.9651L60.2971 80.9581Z" fill="#4D7438"/>
  <path d="M46.0613 99.9963C46.1442 100.135 46.1394 100.31 46.1207 100.462C45.9625 101.639 45.4677 102.75 44.9198 103.799C44.8042 104.025 44.6932 104.232 44.5638 104.435C44.3443 104.802 44.0994 105.152 43.8084 105.452C43.3164 105.965 42.6909 106.308 42.0078 106.529C40.8471 106.895 39.5208 106.826 38.3586 106.456C36.4976 105.861 34.9489 104.609 33.4601 103.352C32.5775 102.611 31.681 101.846 31.0916 100.835C30.5091 99.8357 30.303 98.5483 30.8462 97.5177C31.1467 96.946 31.6501 96.5037 32.1857 96.1675C34.7204 94.5094 38.3027 94.6542 40.6881 96.5185C40.8287 96.6224 40.9578 96.7333 41.0938 96.8557C41.6238 97.3223 42.1399 97.8442 42.6584 98.3177C43.4811 99.0637 44.3431 99.6922 45.4226 99.7672C45.6532 99.7859 45.9439 99.8001 46.0798 100.001L46.0613 99.9963Z" fill="#6DA04E"/>
  <path d="M57.9133 109.926C58.0348 110.653 57.8262 111.483 57.2328 111.932C56.5264 112.481 55.4907 112.348 54.6838 111.969C53.8515 111.573 53.1764 110.943 52.6789 110.19C52.2276 109.489 51.924 108.667 51.8488 107.834C51.7369 106.914 51.8694 105.956 52.2948 105.122C53.1314 105.813 54.1366 106.261 55.0864 106.774C55.2501 106.865 55.4138 106.955 55.5775 107.045C55.9071 107.255 56.2437 107.477 56.5341 107.726C57.2232 108.302 57.7667 109.026 57.918 109.908L57.9133 109.926Z" fill="#4D7438"/>
  <path d="M85.814 79.4344C85.9176 79.6075 85.9866 79.8013 85.9979 80.0297C85.9977 80.1866 85.9722 80.3273 85.942 80.4864C85.9119 80.6456 85.8632 80.8001 85.8146 80.9546C85.4671 82.2598 85.8622 83.732 86.8046 84.7042C86.099 84.4681 85.3749 84.3058 84.6483 84.192C84.2516 84.1315 83.8503 84.0896 83.4512 84.0776C83.0153 84.0563 82.5816 84.065 82.1433 84.0922C81.0581 82.9076 81.4362 81.0511 81.9478 79.5223C82.1051 79.0519 82.3295 78.51 82.8049 78.3352C83.098 78.2225 83.4231 78.2944 83.7414 78.3548C84.5255 78.5125 85.4295 78.818 85.8256 79.4275L85.814 79.4344Z" fill="#4D7438"/>
  <path d="M120.685 47.2321C121.827 49.0096 122.189 51.3168 121.666 53.3231C121.534 53.8097 121.358 54.2755 121.131 54.7089C120.946 55.0547 120.736 55.3843 120.482 55.6932C119.803 56.5228 118.935 57.1678 118.106 57.852C115.924 59.628 113.942 61.6604 112.231 63.9075C111.611 62.7419 110.985 61.5647 110.384 60.4037C110.295 60.2537 110.223 60.1083 110.145 59.9513C110.021 59.7436 109.919 59.522 109.807 59.3073C109.675 59.088 109.581 58.878 109.468 58.6634C109.367 58.4418 109.254 58.2271 109.153 58.0056C108.822 57.2947 108.52 56.5816 108.277 55.8339C108.049 55.1393 107.875 54.4286 107.753 53.7018C107.625 52.9635 107.549 52.2091 107.541 51.4617C107.509 49.6001 107.824 47.7181 108.482 45.9611C108.942 44.7136 109.684 43.4388 110.921 42.965C111.618 42.689 112.398 42.7083 113.152 42.7899C116.153 43.1416 119.092 44.6744 120.708 47.2183L120.685 47.2321Z" fill="#4D7438"/>
  <path d="M139.13 59.4557C139.314 60.051 139.434 60.6694 139.617 61.2647C139.76 61.7124 139.933 62.1579 139.944 62.6215C139.968 63.2652 139.711 63.8577 139.277 64.337C138.922 64.738 138.457 65.0628 137.961 65.2813C137.892 65.3228 137.827 65.3458 137.744 65.3641C137.675 65.4056 137.604 65.417 137.527 65.4469C136.261 65.8445 134.902 65.7484 133.58 65.8969C132.09 66.0521 130.636 66.5302 129.329 67.2808C129.327 67.0155 129.307 66.7456 129.286 66.4756C129.273 66.2173 129.248 65.9658 129.227 65.6959C129.213 65.6728 129.223 65.6359 129.22 65.6059C129.2 65.4145 129.172 65.2114 129.145 65.0084C129.129 64.8769 129.113 64.7453 129.085 64.6207C129.085 64.6207 129.081 64.5608 129.067 64.5377C129.044 64.3947 129.021 64.2516 128.998 64.1086C128.975 63.9655 128.941 63.8294 128.918 63.6863C128.87 63.4487 128.822 63.211 128.762 62.9803C128.755 62.9687 128.741 62.9456 128.746 62.9272C128.739 62.9156 128.725 62.8926 128.737 62.8856C128.725 62.8141 128.702 62.7495 128.679 62.6849C128.666 62.6618 128.659 62.6503 128.656 62.6203C128.649 62.6088 128.636 62.5857 128.64 62.5672C128.503 62.0227 128.342 61.4919 128.158 60.975C128.034 60.6104 127.886 60.2596 127.751 59.9019C127.219 58.5426 126.665 57.1971 126.477 55.7574C126.427 55.3329 126.407 54.9062 126.52 54.4934C126.905 53.119 128.585 52.5995 130.01 52.6242C134.063 52.6911 137.915 55.5905 139.077 59.4718L139.13 59.4557Z" fill="#6DA04E"/>
  <path d="M147.359 75.85C147.716 77.7834 146.415 79.8788 144.525 80.4142C142.984 80.8507 141.291 80.2491 140.155 79.1105C139.824 78.7918 139.536 78.4155 139.306 78.0046C138.794 77.0721 138.526 75.9945 138.206 74.963C137.864 73.8669 137.431 72.8561 136.558 72.1561C138.019 71.2189 139.598 70.2426 141.337 70.3461C142.052 70.3884 142.74 70.6198 143.369 70.9643C143.678 71.1399 143.989 71.3456 144.277 71.5651C144.763 71.9324 145.206 72.3574 145.614 72.803C146.404 73.6782 147.125 74.6732 147.345 75.8269L147.359 75.85Z" fill="#4D7438"/>
  <path d="M121.048 95.1697C121.166 95.3659 121.26 95.5759 121.348 95.7744C121.799 96.7899 122.04 97.8997 121.912 98.9953C121.793 99.8971 121.42 100.794 120.755 101.412C120.09 102.029 119.126 102.355 118.229 102.14C117.491 101.955 116.885 101.439 116.389 100.874C115.788 100.183 115.314 99.4169 114.879 98.6114C114.344 97.6142 113.873 96.5641 113.311 95.5992C112.816 94.7198 112.24 93.8887 111.478 93.2166C113.269 93.6961 115.031 92.2656 116.883 92.27C116.992 92.2678 117.089 92.2725 117.174 92.2841C118.826 92.4244 120.22 93.7062 121.042 95.1581L121.048 95.1697Z" fill="#4D7438"/>
  <path d="M51.7668 123.151C51.8266 123.304 51.868 123.451 51.9278 123.604C51.9991 123.828 52.0588 124.058 52.1185 124.289C52.1828 124.501 52.2287 124.709 52.2815 124.928C52.316 125.064 52.3458 125.219 52.3756 125.374C52.3894 125.397 52.3917 125.427 52.394 125.457C52.4078 125.48 52.41 125.51 52.4123 125.54C52.4559 125.717 52.4627 125.886 52.4994 126.052C52.5132 126.075 52.5086 126.093 52.5108 126.123C52.5315 126.236 52.5475 126.368 52.5681 126.481C52.5888 126.594 52.5978 126.714 52.6069 126.834C52.6298 126.977 52.6343 127.116 52.6572 127.259C52.6662 127.457 52.6868 127.648 52.6958 127.847C52.7094 128.027 52.7115 128.214 52.7067 128.389C52.7087 128.654 52.7107 128.92 52.7012 129.192C51.2399 128.06 49.3765 127.592 47.6241 126.994C47.3819 126.904 47.1399 126.814 46.8978 126.724C46.8424 126.71 46.7917 126.678 46.7363 126.664C46.7363 126.664 46.7295 126.652 46.6995 126.654C46.575 126.603 46.432 126.548 46.3006 126.485C46.1069 126.398 45.9132 126.31 45.7311 126.215C45.5928 126.141 45.4544 126.067 45.3276 125.986C45.1455 125.891 44.9865 125.783 44.809 125.67C44.1106 125.21 43.5137 124.658 43.0855 123.942C42.5536 123.053 42.389 121.757 43.1901 121.105C44.1322 120.322 45.5363 121.018 46.7497 120.95C47.6033 120.909 48.4088 120.474 49.2599 120.56C50.5308 120.693 51.323 121.912 51.7783 123.145L51.7668 123.151Z" fill="#4D7438"/>
  <path d="M57.2211 139.231C56.6665 140.112 56.4923 141.157 56.3112 142.19C56.2438 142.575 56.1697 142.949 56.077 143.318C55.968 143.79 55.8153 144.242 55.6071 144.68C54.9367 146.022 53.563 147.001 52.0749 147.186C51.7635 147.216 51.4382 147.222 51.1616 147.074C50.5645 146.758 50.5146 145.941 50.5292 145.258C50.5675 144.091 50.6243 142.85 51.3197 141.917C51.4722 141.7 51.6684 141.504 51.8785 141.331C52.1117 141.145 52.3519 140.97 52.6173 140.811C52.7443 140.735 52.8827 140.652 52.9981 140.583C54.3 139.851 55.7423 139.379 57.2142 139.22L57.2211 139.231Z" fill="#4D7438"/>
  <path d="M59.1056 118.258C59.1861 118.445 59.2666 118.632 59.3172 118.821C59.3516 118.957 59.3929 119.105 59.4158 119.248C59.5443 119.908 59.5713 120.581 59.7112 121.234C59.8741 122.03 60.2861 122.849 61.0354 123.185C60.007 122.828 58.9786 122.472 57.9501 122.116C57.399 121.928 56.8225 121.724 56.2853 121.482C56.2231 121.456 56.1424 121.426 56.0801 121.401C54.9066 120.88 53.8347 120.189 53.1923 119.116C52.6811 118.262 52.5349 117.048 53.2347 116.332C53.5811 115.968 54.0818 115.809 54.5709 115.736C56.4028 115.47 58.3393 116.584 59.1171 118.251L59.1056 118.258Z" fill="#4D7438"/>
  <path d="M84.3422 108.328C84.3606 108.411 84.3605 108.489 84.3673 108.579C84.376 109.091 84.1332 109.55 83.902 110.002C83.8812 110.046 83.8489 110.097 83.8281 110.14C83.2432 111.259 82.6583 112.377 82.085 113.488C80.866 112.289 78.9375 112.315 77.2188 112.481C77.1588 112.486 77.0988 112.49 77.0388 112.495C76.2544 112.572 75.4032 112.643 74.5959 112.577C73.6133 112.507 72.6885 112.245 71.9741 111.576C70.6583 110.372 70.7256 107.996 72.0994 106.861C72.5935 106.455 73.2075 106.198 73.8075 105.995C75.446 105.407 77.158 104.993 78.8834 105.074C80.6088 105.154 82.3682 105.763 83.5732 107.017C83.9327 107.382 84.239 107.841 84.3307 108.335L84.3422 108.328Z" fill="#4D7438"/>
  <path d="M91.7875 143.531C91.2773 143.883 91.3411 144.645 91.5019 145.254C91.7362 146.117 92.0282 146.945 92.3918 147.762C92.615 148.24 92.8566 148.722 93.0637 149.225C93.2247 149.599 93.3627 149.987 93.4522 150.372C93.5532 150.829 93.5942 151.291 93.5037 151.768C93.3017 152.924 92.401 153.854 91.3831 154.432C90.349 155.036 88.9899 155.332 87.9872 154.678C86.4912 153.723 86.4686 151.197 84.82 150.538C84.0545 150.228 83.1155 150.414 82.447 149.952C81.7648 149.466 81.6482 148.486 81.8221 147.676C81.8755 147.425 81.9542 147.19 82.0514 146.959C82.174 146.666 82.3219 146.39 82.4952 146.129C83.2831 144.984 84.5412 144.152 85.8796 143.743C87.7719 143.16 89.7971 143.296 91.7576 143.533L91.7875 143.531Z" fill="#405E2E"/>
  <path d="M110.125 101.566C110.284 101.831 110.42 102.111 110.521 102.411C110.597 102.616 110.654 102.817 110.711 103.017C110.725 103.041 110.732 103.052 110.723 103.089C111.047 104.573 110.802 106.286 111.839 107.39C110.343 106.828 108.846 106.266 107.345 105.722C106.872 105.534 106.37 105.349 105.899 105.114C104.945 104.619 104.129 103.963 103.853 102.952C103.445 101.457 104.708 99.8227 106.233 99.5684C107.758 99.3141 109.349 100.243 110.132 101.577L110.125 101.566Z" fill="#4D7438"/>
  <path d="M138.144 86.3033C138.613 87.1666 139.011 88.1197 139.038 89.1071C139.058 89.6907 138.935 90.2973 138.66 90.8067C138.47 91.171 138.216 91.4798 137.884 91.7101C137.5 91.9865 137.064 92.1221 136.607 92.2231C136.305 92.2942 135.982 92.3308 135.684 92.3835C134.676 92.5323 133.663 92.6996 132.745 93.1553C131.831 93.5925 131.013 94.3482 130.738 95.3283C130.01 94.0864 128.805 93.2246 127.641 92.3537C127.41 92.1781 127.18 92.0025 126.956 91.8385C126.924 91.8108 126.892 91.7831 126.853 91.7438C125.541 90.6789 124.304 89.2404 124.382 87.5634C124.439 86.1656 125.398 84.9648 126.391 83.9786C127.317 83.0639 128.356 82.2069 129.586 81.8C131.245 81.2459 133.129 81.5918 134.651 82.4839C136.161 83.383 137.322 84.773 138.169 86.3195L138.144 86.3033Z" fill="#405E2E"/>
  <path d="M147.608 94.4177C147.9 95.2461 147.908 96.1504 147.663 96.9713C147.586 97.2365 147.48 97.504 147.348 97.7553C147.159 98.1195 146.918 98.4515 146.62 98.7395C146.154 99.1911 145.607 99.5342 145.12 99.9511C144.6 100.419 144.166 100.977 143.743 101.527L141.116 104.996C141.177 104.364 141.095 103.755 140.941 103.157C140.69 102.163 140.249 101.189 139.973 100.178C139.897 99.8945 139.821 99.6106 139.776 99.3245C139.537 97.7741 139.876 96.1921 140.33 94.6978C140.552 93.9691 140.809 93.2197 141.322 92.662C142.008 91.9223 143.064 91.619 144.066 91.694C145.62 91.8295 147.061 92.9269 147.594 94.3946L147.608 94.4177Z" fill="#405E2E"/>
  <path d="M69.3771 35.5983C69.143 36.5692 68.7314 37.5053 68.3221 38.393C67.6029 39.9677 66.8906 41.554 66.1714 43.1287C65.8246 43.8849 65.2768 44.777 64.4464 44.7253C64.0105 44.7041 63.644 44.4061 63.2821 44.1681C61.7884 43.1653 59.8903 42.8748 58.288 42.1094C58.0943 42.0215 57.8983 41.9036 57.7093 41.7973C56.6366 39.8215 55.7985 36.3258 56.5318 34.5389C57.2396 32.8142 59.6309 31.5712 61.3619 32.7612C62.164 33.3157 64.0527 29.8184 66.0065 31.8783C67.0894 33.0329 68.4283 34.2224 69.3933 35.573L69.3771 35.5983Z" fill="#557A3D"/>
  <path d="M62.5881 54.6631C62.5881 54.6631 62.5718 54.7669 62.5626 54.8038C62.5348 54.9145 62.5116 55.0067 62.4584 55.1012C61.9265 56.2817 60.0344 56.7087 59.8392 58.0325C59.3328 57.0031 58.0437 56.7087 56.9993 56.2208C56.9624 56.2115 56.937 56.1953 56.9048 56.1676C56.7549 56.1006 56.6281 56.0196 56.5013 55.9388C56.154 55.0964 55.9427 54.2196 56.0707 53.2809C56.4475 50.5316 60.7649 53.2931 61.7123 53.9332C62.005 54.1342 62.307 54.3767 62.5812 54.6515L62.5881 54.6631Z" fill="#3E5B2D"/>
  <path d="M50.5732 50.8806C50.605 51.3005 50.5999 51.7111 50.5764 52.1171C50.5787 52.147 50.574 52.1655 50.5763 52.1955C50.4989 53.3234 50.2946 54.4489 49.9728 55.535C48.698 54.7147 47.053 54.9781 45.519 54.9556C45.1569 54.9529 44.7808 54.9271 44.4095 54.8829C43.9413 54.8339 43.487 54.7295 43.0304 54.5952C42.8783 54.4197 42.7193 54.2327 42.5604 54.0457C41.6527 52.9743 39.7473 50.9953 40.6464 49.4069C41.534 47.8255 42.7771 48.069 44.2713 48.6013C46.3674 49.3534 48.5072 50.0478 50.5732 50.8806Z" fill="#557A3D"/>
  <path d="M46.2178 69.1155C46.312 69.4039 46.3301 69.7223 46.2444 70.0244C45.9988 71.0022 44.9371 71.4808 44.1797 72.1535C43.711 72.5751 43.3621 73.0661 43.0824 73.594C42.3066 74.1837 41.6162 74.8634 41.2207 75.7741C40.2331 78.0267 37.9205 81.1821 34.9901 79.7694C33.118 78.8676 32.6262 77.2338 32.7596 75.4924C32.4823 73.9027 32.655 72.1221 32.9307 71.0636C33.0999 70.4294 33.3497 69.8253 33.6802 69.2512C34.6845 68.5719 35.8038 68.0587 36.9622 67.7417C37.4467 67.6084 37.9151 67.5006 38.4112 67.4389C39.6524 67.2603 40.8958 67.2686 42.146 67.2885C43.0941 67.3011 44.0907 67.3161 44.9437 67.7461C45.5201 68.0282 45.9946 68.5593 46.19 69.1478L46.2178 69.1155Z" fill="#557A3D"/>
  <path d="M60.4994 81.5581C60.5361 81.7243 60.5428 81.8926 60.568 82.0657C60.5749 82.0772 60.5818 82.0888 60.5656 82.1141C60.7735 83.9021 60.9814 85.6901 61.1893 87.4781C60.5994 86.9377 59.9471 86.4502 59.2648 86.0434C58.6885 85.6829 58.0752 85.3916 57.4296 85.151C57.4227 85.1394 57.3927 85.1417 57.3743 85.137C56.9526 84.6683 56.5956 84.1765 56.3033 83.6618C55.5689 82.3299 56.7216 80.9033 58.0827 80.8726C58.8416 80.8573 59.7017 81.142 60.4878 81.5651L60.4994 81.5581Z" fill="#3E5B2D"/>
  <path d="M78.2173 51.1562C78.2885 51.4584 78.3712 51.7538 78.4608 52.0607C78.7433 53.1613 79.0373 54.2551 79.3313 55.3489C78.217 55.4514 77.1052 55.4271 76.0027 55.2875C75.8989 55.2712 75.8136 55.2595 75.7098 55.2433C75.4538 55.2084 75.2024 55.155 74.951 55.1017C74.815 54.9793 74.6722 54.8453 74.5524 54.6975C73.8544 53.8455 72.392 51.664 73.5973 50.6135C75.0844 49.3003 76.5758 50.3515 78.0997 51.1168C78.1435 51.1376 78.1757 51.1653 78.2126 51.1746L78.2173 51.1562Z" fill="#3E5B2D"/>
  <path d="M96.0685 48.06C95.8861 48.2789 95.6966 48.4864 95.4819 48.6776C95.1147 49.007 94.6993 49.2557 94.2561 49.4582C93.6099 49.7666 92.8946 49.9595 92.1724 50.0625C90.5966 50.2845 88.8598 50.1326 87.5393 51.0169C86.9875 49.3877 85.9626 47.9633 84.9099 46.5711C84.6681 46.2456 84.4078 45.9154 84.166 45.5898C83.9151 45.0659 83.6874 44.5282 83.545 44.002C83.2119 42.7906 83.0663 40.8712 84.9048 40.8525C87.1771 40.8251 87.3284 43.6973 89.7737 43.5662C91.3955 43.4735 92.8091 43.8972 94.0004 45.0497C94.9636 45.9781 95.8484 46.9064 96.0824 48.0831L96.0685 48.06Z" fill="#557A3D"/>
  <path d="M85.8148 79.4341C85.9184 79.6073 85.9874 79.8011 85.9987 80.0295C85.9985 80.1863 85.973 80.327 85.9428 80.4862C85.9127 80.6453 85.864 80.7998 85.8154 80.9543C85.4679 82.2596 85.863 83.7317 86.8054 84.704C86.0998 84.4679 85.3756 84.3056 84.6491 84.1917C84.2524 84.1313 83.8511 84.0893 83.452 84.0773L83.3967 83.985C83.0929 83.3987 82.8421 82.7964 82.6906 82.1503C82.429 80.9274 83.1294 79.7402 84.3961 79.4994C84.8183 79.4192 85.3282 79.3805 85.8148 79.4341Z" fill="#3E5B2D"/>
  <path d="M121.666 53.323C121.534 53.8095 121.358 54.2753 121.132 54.7087C120.947 55.0545 120.737 55.3842 120.482 55.693C119.803 56.5227 118.935 57.1676 118.106 57.8518C115.924 59.6278 113.943 61.6602 112.231 63.9074C111.612 62.7417 110.986 61.5645 110.385 60.4035C110.295 60.2535 110.224 60.1081 110.145 59.9512C110.021 59.7434 109.92 59.5218 109.807 59.3072C109.729 58.9933 109.658 58.6911 109.601 58.4119C109.571 58.2573 109.536 58.1212 109.502 57.985C109.47 57.8005 109.44 57.6459 109.417 57.5028C109.256 56.6584 109.168 55.4103 109.179 54.0401C109.198 53.182 109.261 52.2662 109.387 51.376C109.703 49.1803 110.423 47.1349 111.794 46.3614C112.854 45.7743 114.143 45.3629 115.224 46.1738C116.146 46.8761 116.491 47.8454 117.328 48.6145C118.157 49.3721 119.119 49.9568 119.937 50.7212C120.819 51.5411 121.381 52.4276 121.68 53.346L121.666 53.323Z" fill="#3E5B2D"/>
  <path d="M46.0616 99.9958C46.1444 100.134 46.1396 100.31 46.121 100.462C45.9628 101.638 45.4679 102.749 44.92 103.798C44.8044 104.024 44.6935 104.232 44.5641 104.435C44.3445 104.801 44.0996 105.152 43.8086 105.451C43.3167 105.965 42.6911 106.308 42.008 106.529C39.4105 106.641 37.0524 105.058 35.3524 102.925C34.4126 101.747 33.007 100.394 33.4241 98.7335C33.679 97.7188 34.7667 96.7073 35.8026 96.5263C37.5469 96.2191 39.3821 97.1116 41.0894 96.8737C41.6194 97.3402 42.1355 97.8622 42.654 98.3356C43.4767 99.0817 44.3387 99.7101 45.4182 99.7852C45.6488 99.8039 45.9395 99.818 46.0754 100.019L46.0616 99.9958Z" fill="#557A3D"/>
  <path d="M56.5372 107.756C56.5372 107.756 56.5716 107.893 56.5762 107.953C56.805 109.618 55.4934 110.779 53.8398 110.531C53.4131 110.473 53.0234 110.345 52.6867 110.202C52.2354 109.5 51.9318 108.679 51.8567 107.846C51.7447 106.925 51.8772 105.968 52.3026 105.133C53.1392 105.824 54.1444 106.273 55.0942 106.786C55.2579 106.876 55.4216 106.966 55.5853 107.056C55.9149 107.267 56.2515 107.489 56.5419 107.738L56.5372 107.756Z" fill="#3E5B2D"/>
  <path d="M59.1072 118.257C59.1878 118.444 59.2683 118.631 59.3188 118.82C59.3532 118.956 59.3946 119.104 59.4175 119.247C59.5459 119.907 59.5729 120.581 59.7129 121.234C59.8757 122.03 60.2877 122.849 61.037 123.184C60.0086 122.828 58.9802 122.472 57.9518 122.115C57.4007 121.928 56.8242 121.724 56.287 121.481C56.2247 121.456 56.144 121.426 56.0818 121.4C55.6462 121.065 55.2705 120.726 54.9964 120.373C54.6831 119.98 54.4785 119.428 54.7812 118.965C55.5945 117.757 56.963 117.267 58.3511 117.832C58.6255 117.95 58.8836 118.093 59.1187 118.25L59.1072 118.257Z" fill="#3E5B2D"/>
  <path d="M49.9869 123.37C48.7964 123.503 47.6024 122.712 46.3839 123.112C45.4355 123.414 44.4544 124.079 44.6607 125.21C44.6905 125.364 44.7388 125.523 44.7986 125.676C44.9576 125.784 45.1351 125.898 45.3173 125.992C45.444 126.073 45.5823 126.147 45.7207 126.221C45.9028 126.316 46.0965 126.404 46.2902 126.492C46.4216 126.554 46.5576 126.598 46.6891 126.661C46.6891 126.661 46.7074 126.665 46.7259 126.67C46.7812 126.684 46.832 126.716 46.8873 126.73C47.1294 126.82 47.3715 126.911 47.6136 127.001C49.3661 127.598 51.2295 128.066 52.6907 129.198C52.7003 128.926 52.7052 128.672 52.6963 128.395C52.6942 128.208 52.6805 128.028 52.6853 127.853C52.6763 127.655 52.6558 127.463 52.6468 127.265C52.6355 127.115 52.6194 126.983 52.5965 126.84C52.5758 126.727 52.5668 126.607 52.5577 126.487C52.5486 126.367 52.521 126.243 52.5004 126.13C52.4866 126.107 52.5028 126.081 52.489 126.058C52.4638 125.885 52.4387 125.712 52.4019 125.546C52.3881 125.523 52.3858 125.493 52.3835 125.463C52.3697 125.44 52.3674 125.41 52.3652 125.38C52.3423 125.237 52.3124 125.082 52.2711 124.935C52.2252 124.727 52.1724 124.508 52.1081 124.295C52.0483 124.065 51.9886 123.834 51.9174 123.61C51.876 123.462 51.8162 123.31 51.7564 123.158C51.2028 123.176 50.6397 123.309 49.9822 123.389L49.9869 123.37ZM50.0948 125.829C49.1744 125.785 48.0788 125.735 47.4449 125.33C48.2799 125.364 49.6751 125.704 50.0188 125.702C50.0188 125.702 50.0488 125.7 50.0672 125.705C50.0879 125.739 50.0856 125.788 50.0948 125.829Z" fill="#3E5B2D"/>
  <path d="M57.2208 139.231C56.6661 140.112 56.4919 141.156 56.3108 142.19C56.2435 142.575 56.1693 142.948 56.0766 143.317C56.0766 143.317 56.0397 143.308 56.0282 143.315C55.3697 144.179 54.2665 144.745 53.2244 144.209C51.8619 143.504 51.5886 142.445 51.8782 141.331C52.1114 141.144 52.3515 140.969 52.617 140.81C52.7439 140.734 52.8824 140.652 52.9978 140.583C54.2996 139.85 55.742 139.379 57.2139 139.219L57.2208 139.231Z" fill="#3E5B2D"/>
  <path d="M84.3424 108.328C84.3607 108.411 84.3607 108.489 84.3675 108.579C84.3761 109.091 84.1334 109.55 83.9022 110.002C83.8814 110.046 83.8491 110.096 83.8282 110.14C83.2434 111.258 82.6585 112.376 82.0851 113.488C80.8662 112.289 78.9377 112.315 77.2189 112.481C77.1589 112.486 77.0989 112.49 77.039 112.495C76.2546 112.572 75.4033 112.643 74.596 112.577C73.8013 111.564 73.2587 110.054 74.0812 108.888C75.1533 107.353 76.8307 106.96 78.6203 107.41C79.8933 107.73 81.065 107.828 82.3474 107.954C83.0163 108.024 83.7083 108.08 84.3309 108.335L84.3424 108.328Z" fill="#3E5B2D"/>
  <path d="M138.656 62.357C137.679 61.4839 136.672 61.0052 135.39 60.7223C134.666 60.56 134.447 57.9947 133.732 57.4033C131.838 55.8095 129.681 56.2384 128.377 58.3038C128.065 58.8041 127.894 59.3298 127.804 59.8856C127.939 60.2433 128.075 60.6011 128.211 60.9588C128.395 61.4757 128.555 62.0064 128.693 62.551C128.7 62.5625 128.714 62.5856 128.709 62.6041C128.723 62.6271 128.73 62.6387 128.732 62.6687C128.755 62.7333 128.767 62.8048 128.79 62.8694C128.79 62.8694 128.804 62.8925 128.799 62.911C128.806 62.9225 128.82 62.9456 128.815 62.9641C128.875 63.1948 128.923 63.4324 128.971 63.6701C129.006 63.8062 129.028 63.9493 129.051 64.0923C129.074 64.2354 129.109 64.3715 129.12 64.5215C129.134 64.5445 129.136 64.5745 129.138 64.6045C129.173 64.7407 129.189 64.8722 129.198 64.9921C129.225 65.1952 129.246 65.3866 129.273 65.5897C129.287 65.6127 129.278 65.6497 129.28 65.6796C129.305 65.9311 129.337 66.1942 129.339 66.4594C129.36 66.7294 129.373 66.9877 129.382 67.2645C130.677 66.5209 132.131 66.0427 133.633 65.8806C134.955 65.7322 136.313 65.8283 137.58 65.4307C137.657 65.4008 137.728 65.3893 137.797 65.3479C137.862 65.3249 137.938 65.295 138.014 65.2651C138.51 65.0465 138.974 64.7218 139.33 64.3208C139.49 63.6451 139.359 62.9552 138.698 62.3477L138.656 62.357ZM131.251 62.6347C131.194 62.6692 131.129 62.6921 131.053 62.722C131.092 62.526 131.12 62.3369 131.148 62.1478C131.174 61.9286 131.204 61.6911 131.241 61.4651C131.275 61.8365 131.275 62.2287 131.251 62.6347Z" fill="#557A3D"/>
  <path d="M144.291 71.5882C145.211 74.0944 144.598 77.314 142.278 78.7024C141.678 79.0616 140.905 79.2106 140.162 79.1221C139.831 78.8034 139.543 78.4271 139.312 78.0162C138.801 77.0837 138.533 76.0061 138.213 74.9746C137.871 73.8785 137.438 72.8677 136.565 72.1677C138.026 71.2305 139.605 70.2542 141.344 70.3577C142.059 70.4 142.746 70.6314 143.376 70.9758C143.685 71.1515 143.996 71.3572 144.284 71.5767L144.291 71.5882Z" fill="#3E5B2D"/>
  <path d="M121.048 95.1696C121.166 95.3658 121.26 95.5758 121.348 95.7743C121.083 97.2181 120.222 97.953 119.133 98.2285C118.128 99.6138 116.229 99.4802 114.885 98.6228C114.351 97.6257 113.88 96.5755 113.318 95.6107C112.823 94.7312 112.247 93.9002 111.484 93.228C113.276 93.7076 115.038 92.277 116.89 92.2814C116.999 92.2792 117.096 92.284 117.181 92.2956C118.832 92.4359 120.227 93.7177 121.048 95.1696Z" fill="#3E5B2D"/>
  <path d="M110.521 102.411C110.597 102.616 110.654 102.817 110.711 103.018C110.725 103.041 110.732 103.052 110.723 103.089C111.046 104.573 110.802 106.286 111.839 107.39C110.343 106.828 108.846 106.266 107.345 105.722C106.872 105.535 106.37 105.349 105.899 105.114C105.819 104.927 105.761 104.726 105.716 104.518C105.358 102.742 107.059 101.551 108.66 101.737C109.25 101.807 109.903 102.059 110.534 102.434L110.521 102.411Z" fill="#3E5B2D"/>
  <path d="M138.653 90.795C138.463 91.1593 138.209 91.4681 137.876 91.6984C137.493 91.9748 137.057 92.1104 136.6 92.2114C136.298 92.2825 135.975 92.3191 135.677 92.3718C134.669 92.5206 133.656 92.6879 132.738 93.1436C131.824 93.5808 131.006 94.3366 130.73 95.3166C130.003 94.0748 128.797 93.2129 127.634 92.342C127.403 92.1664 127.173 91.9908 126.949 91.8268C126.917 91.799 126.884 91.7713 126.845 91.7321C126.424 90.9496 126.208 90.0912 126.325 89.1594C126.597 86.8645 128.708 84.7862 131.141 85.1326C131.983 85.2558 132.55 85.4964 133.112 86.1475C133.456 86.5378 133.379 87.1951 133.978 87.3065C135.263 87.541 136.651 88.0269 137.57 89.013C138.128 89.6042 138.506 90.2089 138.676 90.7812L138.653 90.795Z" fill="#334925"/>
  <path d="M147.65 96.9787C147.574 97.2439 147.467 97.5114 147.335 97.7627C147.146 98.127 146.905 98.4589 146.608 98.7469C146.141 99.1985 145.594 99.5416 145.107 99.9585C144.587 100.426 144.153 100.984 143.73 101.535L141.103 105.004C141.164 104.372 141.082 103.763 140.928 103.165C140.678 102.17 140.236 101.196 139.96 100.186C140 99.9113 140.058 99.6414 140.141 99.3878C140.093 98.9933 140.063 98.6033 140.082 98.2158C140.183 96.6035 141.323 94.1342 143.408 94.6579C144.337 94.9012 145.022 95.4164 145.478 96.0997C145.478 96.0997 145.508 96.0975 145.515 96.109C146.022 96.2757 146.419 96.4929 146.716 96.7539C147.037 96.7658 147.332 96.84 147.625 96.9626L147.65 96.9787Z" fill="#334925"/>
  <path d="M91.7873 143.531C91.2771 143.883 91.3408 144.645 91.5016 145.254C91.7359 146.117 92.028 146.945 92.3915 147.762C92.6147 148.24 92.8564 148.723 93.0634 149.226C93.2245 149.6 93.3624 149.987 93.452 150.373C93.1402 150.638 92.8009 150.856 92.4501 151.004C91.9074 151.564 90.8231 151.664 90.1914 151.368C89.947 151.248 89.7257 151.113 89.5206 150.954C88.9995 150.686 88.5756 150.266 88.2971 149.695C87.8018 149.13 87.2718 148.585 86.4579 148.272C85.3691 148.234 84.0034 148.284 83.5954 147.995C83.1875 147.706 82.8994 147.408 82.7338 147.053C82.5864 146.78 82.5153 146.478 82.5018 146.141C83.2897 144.996 84.5479 144.164 85.8863 143.755C87.7785 143.171 89.8037 143.307 91.7642 143.545L91.7873 143.531Z" fill="#334925"/>
  <path d="M113.447 54.887C113.598 55.7684 112.981 56.6235 112.229 57.1209C111.499 57.6045 110.643 57.8504 109.764 57.9532C109.663 57.9669 109.573 57.9737 109.483 57.9806C109.37 58.0012 109.254 57.9918 109.134 58.0009C108.611 58.0164 108.073 58.0089 107.552 57.976C107.455 57.9713 107.37 57.9597 107.273 57.9549C105.755 57.8287 104.224 57.6009 102.724 57.8714C101.141 58.1602 99.5483 59.1919 99.1844 60.7578C98.8441 59.7701 98.9468 58.7368 99.3077 57.7683C99.7381 56.6016 100.549 55.5206 101.457 54.6797C101.851 54.3179 102.26 53.9793 102.701 53.6684C103.874 52.8254 105.157 52.1672 106.53 51.7373C106.849 51.6408 107.167 51.5443 107.488 51.4778C108.106 51.3585 108.736 51.3108 109.345 51.3853C109.686 51.4318 110.018 51.5152 110.336 51.654C111.203 52.0286 111.872 52.7261 112.51 53.4258C112.911 53.8599 113.302 54.3309 113.401 54.9146L113.447 54.887Z" fill="#6DA04E"/>
  <path d="M109.765 57.9532C109.698 58.1031 109.637 58.2645 109.563 58.4028C109.522 58.4904 109.48 58.578 109.45 58.6587C109.349 58.4371 109.236 58.2225 109.135 58.0009C108.611 58.0165 108.074 58.0089 107.552 57.976C107.456 57.9713 107.37 57.9597 107.273 57.955C105.756 57.8287 104.224 57.6009 102.724 57.8714C101.142 58.1602 99.5488 59.1919 99.1848 60.7578C98.8445 59.7701 98.9472 58.7368 99.3082 57.7683C99.7386 56.6016 100.549 55.5206 101.457 54.6797C101.852 54.318 102.261 53.9793 102.701 53.6684C104.257 53.3334 105.878 53.7112 107.543 53.7177C107.603 53.7132 107.652 53.7155 107.719 53.7225C108.311 53.744 108.791 53.8645 109.144 54.0609C110.444 54.7406 110.382 56.3922 109.748 57.9786L109.765 57.9532Z" fill="#557A3D"/>
  <path d="M69.373 35.6166C69.1389 36.5875 68.7273 37.5236 68.318 38.4112C67.5988 39.9859 66.8865 41.5722 66.1673 43.1469C65.8205 43.9032 65.2727 44.7953 64.4423 44.7436C64.0064 44.7223 63.64 44.4243 63.2781 44.1863C61.7844 43.1835 59.8862 42.893 58.2839 42.1276C58.7571 41.8444 59.115 41.4734 59.3669 41.0562C58.5963 39.1661 58.6493 37.1592 60.335 35.6017C60.8985 35.0764 61.7567 34.939 62.4763 35.1197C63.3987 35.3514 64.1514 34.7756 65.0001 34.9888C65.8303 35.1973 66.5609 35.7633 67.1967 36.5114C67.9789 36.3255 68.6621 36.0264 69.3661 35.605L69.373 35.6166Z" fill="#486634"/>
  <path d="M62.4578 55.1013C61.9259 56.2817 60.0338 56.7087 59.8385 58.0325C59.3322 57.0031 58.043 56.7087 56.9986 56.2208C57.0591 55.7457 57.0805 55.2313 57.1868 55.0422C57.4896 54.5005 58.0666 54.312 58.6433 54.2803C59.0032 54.253 59.3559 54.3711 59.7155 54.5791C60.6497 54.6471 61.6047 54.7497 62.4462 55.1082L62.4578 55.1013Z" fill="#2B3D1F"/>
  <path d="M50.5765 52.1167C50.5765 52.1167 50.5741 52.1652 50.5763 52.1951C50.4989 53.3231 50.2947 54.4485 49.9728 55.5347C48.6981 54.7143 47.0531 54.9778 45.5191 54.9553C45.1569 54.9525 44.7809 54.9268 44.4095 54.8825C44.1055 54.4531 43.7323 54.0651 43.5573 53.7466C43.2718 53.2434 43.1342 52.542 43.2594 51.9654C43.5076 50.7823 44.5669 50.3521 45.6993 50.568C47.2053 50.858 49.0942 51.2638 50.5696 52.1052L50.5765 52.1167Z" fill="#486634"/>
  <path d="M46.2176 69.1155C45.6451 69.5208 45.015 69.8039 44.5397 69.9002C43.4645 70.1205 42.6521 70.4655 41.9664 70.9699C41.7655 71.1843 41.5715 71.4101 41.3336 71.6152C41.232 71.7073 41.1166 71.7764 41.0058 71.827C40.5324 72.3455 40.1142 72.9563 39.6866 73.6825C39.0395 74.7752 38.5197 75.3213 37.3289 75.7675C36.4312 76.1009 35.7495 75.1451 35.8888 74.3564C36.1976 72.5413 35.9021 70.7901 36.4485 69.0053C36.5782 68.5671 36.7632 68.1429 36.9805 67.7464C37.4651 67.6131 37.9334 67.5052 38.4295 67.4435C39.6707 67.265 40.9141 67.2733 42.1643 67.2932C43.1124 67.3058 44.1089 67.3208 44.9619 67.7508C45.5383 68.0329 46.0129 68.5639 46.2083 69.1524L46.2176 69.1155Z" fill="#486634"/>
  <path d="M78.4617 52.0607C78.7441 53.1613 79.0382 54.2551 79.3322 55.3489C78.2179 55.4514 77.106 55.4271 76.0035 55.2874C75.2614 54.7284 74.8399 54.1027 74.7257 53.1522C74.6777 52.7577 74.9711 52.3312 75.2943 52.1378C76.2061 51.5922 77.3893 51.7619 78.4617 52.0607Z" fill="#2B3D1F"/>
  <path d="M94.2602 49.4398C94.2602 49.4398 94.2671 49.4514 94.274 49.4629C93.6278 49.7713 92.9124 49.9642 92.1903 50.0672C90.6145 50.2892 88.8777 50.1373 87.5572 51.0216C87.0054 49.3924 85.9805 47.9679 84.9279 46.5757C84.9188 46.4558 84.9213 46.3289 84.9422 46.2067C85.1165 45.005 85.9315 44.4546 87.0965 44.3844C88.483 44.2914 90.4027 45.823 91.5161 46.5048C92.6987 47.2235 93.7911 48.106 94.274 49.4629L94.2602 49.4398Z" fill="#486634"/>
  <path d="M60.5724 82.1259C60.7803 83.9138 60.9882 85.7019 61.196 87.4899C60.6061 86.9494 59.9539 86.4619 59.2715 86.0552C58.7601 85.4364 58.3226 84.7577 57.9474 84.026C57.6413 83.4097 57.808 82.824 58.3506 82.4209C58.9439 81.9718 59.7675 81.9335 60.5724 82.1259Z" fill="#2B3D1F"/>
  <path d="M107.156 57.3667C107.232 57.5721 107.271 57.7683 107.285 57.9482C105.767 57.8219 104.236 57.5941 102.736 57.8646C101.153 58.1535 99.5603 59.1851 99.1963 60.751C98.8561 59.7634 98.9588 58.73 99.3197 57.7615C100.116 56.9712 101.091 56.3726 102.3 55.8526C104.222 55.0313 106.328 55.1975 107.138 57.3621L107.156 57.3667Z" fill="#486634"/>
  <path d="M121.12 54.7156C120.935 55.0614 120.725 55.391 120.471 55.6998C119.792 56.5295 118.923 57.1744 118.095 57.8586C115.913 59.6346 113.931 61.667 112.219 63.9141C111.6 62.7485 110.974 61.5714 110.373 60.4104C110.283 60.2603 110.212 60.1149 110.134 59.9579C110.757 59.5849 111.341 59.1727 111.921 58.7005C112.154 58.5139 112.454 58.4128 112.749 58.4085C112.798 58.3324 112.828 58.2517 112.883 58.1872C114.05 56.4699 114.061 55.1781 113.306 53.2627C112.89 52.2264 112.683 51.488 113.166 50.462C113.442 49.8741 114.215 49.725 114.754 49.9978C115.69 50.4879 116.607 51.3656 117.39 52.3861C117.457 52.3931 117.542 52.4047 117.623 52.4348C118.896 52.9114 120.342 53.5982 121.127 54.7271L121.12 54.7156Z" fill="#2B3D1F"/>
  <path d="M85.8148 80.9549C85.4673 82.2602 85.8624 83.7323 86.8048 84.7045C86.0992 84.4685 85.3751 84.3062 84.6486 84.1923C84.3238 83.7283 84.0683 83.2228 84.0159 82.6899C83.9019 81.504 84.7635 80.4554 85.9422 80.4868C85.9121 80.6459 85.8635 80.8004 85.8148 80.9549Z" fill="#2B3D1F"/>
  <path d="M46.0603 99.9964C46.1432 100.135 46.1383 100.31 46.1197 100.462C45.9615 101.639 45.4666 102.75 44.9187 103.799C44.8031 104.025 44.6922 104.232 44.5628 104.435C43.5616 104.517 42.5351 104.426 41.518 104.22C40.0167 103.911 37.1519 103.682 36.6304 101.815C36.1525 100.126 37.7845 99.1335 39.2538 99.2574C40.4555 99.3533 41.538 98.8309 42.6343 98.3315C43.457 99.0776 44.319 99.706 45.3985 99.781C45.6292 99.7997 45.9197 99.8139 46.0556 100.015L46.0603 99.9964Z" fill="#486634"/>
  <path d="M55.0829 106.793C55.0943 106.864 55.1172 106.929 55.1218 106.989C55.2363 107.704 54.8249 108.483 54.0037 108.473C53.2125 108.461 52.4837 108.238 51.8383 107.841C51.7263 106.92 51.8589 105.963 52.2843 105.129C53.1208 105.819 54.1261 106.268 55.0759 106.781L55.0829 106.793Z" fill="#2B3D1F"/>
  <path d="M137.966 65.263C137.897 65.3044 137.832 65.3274 137.749 65.3457C137.68 65.3872 137.608 65.3987 137.532 65.4286C136.265 65.8262 134.907 65.7301 133.585 65.8785C132.094 66.0337 130.641 66.5119 129.334 67.2624C129.332 66.9971 129.312 66.7272 129.291 66.4573C129.278 66.1989 129.253 65.9474 129.232 65.6775C129.218 65.6544 129.228 65.6175 129.225 65.5876C129.205 65.3961 129.177 65.193 129.15 64.99C129.134 64.8585 129.118 64.727 129.09 64.6024C129.148 64.1757 129.193 63.8044 129.248 63.5045C129.49 62.3099 129.583 61.1566 130.373 60.1979C131.54 58.7943 133.475 60.6143 133.596 61.8901C133.63 62.2615 133.609 62.6191 133.574 62.9535C133.791 63.0276 134.015 63.1132 134.264 63.215C135.221 63.5828 136.549 63.8381 137.36 64.5126C137.637 64.7389 137.826 65.0021 137.943 65.2768L137.966 65.263Z" fill="#486634"/>
  <path d="M83.8277 110.141C83.2428 111.259 82.6579 112.377 82.0845 113.488C80.8656 112.29 78.9371 112.315 77.2183 112.482C76.8407 111.877 76.7077 111.157 76.8885 110.437C77.6714 107.555 81.8171 109.322 83.8277 110.141Z" fill="#2B3D1F"/>
  <path d="M61.0247 123.191C59.9962 122.835 58.9678 122.478 57.9394 122.122C57.3883 121.935 56.8118 121.731 56.2746 121.488C56.1226 121.234 56.0654 120.877 56.1603 120.616C56.7202 119.09 58.0792 118.872 59.4098 119.236C59.5382 119.896 59.5652 120.569 59.7052 121.222C59.868 122.018 60.28 122.837 61.0293 123.173L61.0247 123.191Z" fill="#2B3D1F"/>
  <path d="M52.3577 125.369C52.3577 125.369 52.3738 125.422 52.3761 125.452C52.3899 125.475 52.3922 125.505 52.3945 125.535C52.4381 125.712 52.4448 125.881 52.4815 126.047C52.4953 126.07 52.4907 126.088 52.493 126.118C52.5136 126.231 52.5296 126.363 52.5503 126.476C52.5709 126.589 52.5799 126.709 52.589 126.829C52.6119 126.972 52.6164 127.11 52.6394 127.253C52.6484 127.452 52.6689 127.643 52.6779 127.842C52.6915 128.022 52.6936 128.209 52.6888 128.384C52.6908 128.649 52.6928 128.914 52.6833 129.187C51.2221 128.055 49.3587 127.587 47.6062 126.989C47.3641 126.899 47.122 126.809 46.8799 126.719C46.8245 126.705 46.7738 126.672 46.7184 126.659C46.6748 126.481 46.6612 126.301 46.666 126.126C46.6665 123.664 49.5285 124.256 51.0388 124.841C51.3939 124.989 51.8643 125.146 52.3693 125.362L52.3577 125.369Z" fill="#2B3D1F"/>
  <path d="M57.2214 139.231C56.6668 140.112 56.4926 141.156 56.3115 142.19C55.9953 142.316 55.6399 142.403 55.2547 142.414C54.6895 142.439 54.3094 142.04 54.1162 141.56C54.1162 141.56 54.1092 141.548 54.1023 141.537C53.6504 141.384 53.2585 141.07 52.9938 140.601C54.2956 139.869 55.7379 139.398 57.2098 139.238L57.2214 139.231Z" fill="#2B3D1F"/>
  <path d="M111.829 107.397C110.332 106.835 108.836 106.272 107.335 105.728C107.28 105.636 107.224 105.544 107.169 105.451C106.831 104.886 107.051 104.206 107.572 103.846C108.537 103.206 109.659 102.958 110.731 103.1C111.055 104.584 110.811 106.298 111.847 107.401L111.829 107.397Z" fill="#2B3D1F"/>
  <path d="M118.767 94.9987C118.814 96.8049 116.629 97.0309 115.388 96.5819C114.657 96.3297 113.973 95.9714 113.311 95.5992C112.816 94.7198 112.24 93.8887 111.478 93.2166C113.269 93.6961 115.031 92.2656 116.883 92.27C116.992 92.2678 117.089 92.2725 117.174 92.2841C118.103 92.9195 118.741 93.7761 118.767 94.9987Z" fill="#2B3D1F"/>
  <path d="M136.599 92.2117C136.297 92.2829 135.974 92.3194 135.676 92.3721C134.668 92.5209 133.655 92.6882 132.736 93.1439C131.823 93.5812 131.005 94.3369 130.729 95.317C130.002 94.0751 128.796 93.2133 127.632 92.3423C127.44 91.3132 127.665 90.3008 128.674 89.4461C129.664 88.5868 131.205 88.6993 132.3 89.298C133.497 89.9614 135.025 90.5514 136.035 91.4522C136.281 91.6808 136.482 91.9371 136.606 92.2233L136.599 92.2117Z" fill="#223019"/>
  <path d="M141.829 72.2938C141.633 72.4113 141.416 72.4941 141.19 72.5353C141.713 73.0688 142.12 73.6713 142.288 74.292C142.612 75.4619 141.718 77.0318 140.309 76.6681C139.453 76.4433 138.822 75.6768 138.202 74.9818C137.86 73.8856 137.427 72.8748 136.554 72.1748C138.015 71.2376 139.594 70.2613 141.333 70.3648C142.048 70.4071 142.735 70.6386 143.365 70.983C142.783 71.4252 142.203 72.0543 141.811 72.2892L141.829 72.2938Z" fill="#2B3D1F"/>
  <path d="M147.342 97.7741C147.153 98.1384 146.912 98.4703 146.614 98.7583C146.148 99.2099 145.601 99.553 145.114 99.97C144.594 100.438 144.16 100.995 143.737 101.546L141.11 105.015C141.171 104.383 141.089 103.774 140.935 103.176C140.871 102.493 140.763 101.868 140.715 101.474C140.622 100.479 140.731 99.6928 141.29 98.8722C141.93 97.9249 143.058 97.9238 144.099 97.8812C145.176 97.8478 146.258 97.796 147.335 97.7626L147.342 97.7741Z" fill="#223019"/>
  <path d="M91.7879 143.531C91.2777 143.883 91.3415 144.644 91.5023 145.254C91.7366 146.117 92.0286 146.945 92.3921 147.762C92.6154 148.24 92.857 148.722 93.064 149.225C92.981 149.244 92.9095 149.255 92.8195 149.262C90.5239 149.538 88.0658 148.784 86.543 146.999C86.2639 146.978 86.0056 146.913 85.745 146.818C84.7575 147.001 83.7747 147.088 82.7459 147.045C82.6306 147.036 82.5153 147.026 82.3953 147.036C82.28 147.026 82.1693 146.998 82.0586 146.971C82.1812 146.678 82.3291 146.401 82.5024 146.141C83.2904 144.995 84.5485 144.164 85.8869 143.755C87.7791 143.171 89.8044 143.307 91.7649 143.544L91.7879 143.531Z" fill="#223019"/>
</svg>
