<svg width="166" height="143" viewBox="0 0 166 143" fill="none"
  xmlns="http://www.w3.org/2000/svg">
  <path d="M110.726 138.98C111.098 138.98 111.47 139.005 111.842 139.031C112.213 139.056 112.598 139.082 112.97 139.031C113.316 138.992 113.662 138.89 113.97 138.725C114.508 138.457 114.547 137.475 114.431 136.952C114.201 135.843 113.739 134.81 113.585 133.662C113.56 133.509 113.534 133.33 113.393 133.254C113.329 133.228 113.252 133.216 113.188 133.216C112.803 133.216 112.419 133.216 112.034 133.203C111.624 133.203 111.188 133.203 110.803 133.369C110.354 133.585 110.047 134.019 109.816 134.453C109.495 135.052 109.341 135.485 108.713 135.753C108.021 136.059 107.354 136.416 106.662 136.735C106.072 137.016 105.47 137.296 104.88 137.564C104.559 137.717 104.239 137.87 103.918 138.01C103.675 138.125 103.2 138.24 103.034 138.444C102.457 139.145 105.175 139.196 105.534 139.171C106.547 139.094 107.521 138.941 108.534 138.929C109.265 138.929 109.995 138.929 110.726 138.941V138.98Z" fill="#FCD9BA"/>
  <path d="M107.341 111.485C107.431 112.671 107.508 113.87 107.662 115.069C107.944 117.262 108.2 119.456 108.431 121.649C108.918 126.1 109.316 130.55 109.623 135.014C109.713 136.251 110.252 136.225 111.303 136.353C112.047 136.442 113.111 136.557 113.585 135.83C113.982 135.205 113.893 134.006 113.982 133.279C114.072 132.476 114.162 131.672 114.239 130.869C114.508 128.178 114.726 125.488 114.893 122.797C115.047 120.285 115.034 117.785 115.213 115.273C115.406 112.557 115.495 109.828 115.495 107.099C115.495 104.497 115.47 101.245 114.034 98.9498C112.906 97.1389 109.636 96.9221 108.098 98.2994C105.623 100.531 106.816 106.499 107.149 109.445C107.226 110.121 107.277 110.797 107.328 111.473L107.341 111.485Z" fill="#FCD9BA"/>
  <path d="M127.15 61.3047C126.407 60.5523 125.407 60.1059 124.368 59.8126C122.932 60.514 121.509 61.2281 120.035 61.8403C118.484 62.4906 116.868 63.0517 115.201 63.294C112.406 69.6575 110.022 76.2122 108.06 82.869C105.65 91.0178 103.957 99.5747 103.791 108.081C104.163 108.068 104.547 108.055 104.919 108.042C105.342 108.03 105.765 108.017 106.188 107.991C106.188 107.991 106.188 107.991 106.201 107.991C106.368 107.991 106.534 107.979 106.701 107.979C107.522 107.953 108.342 107.915 109.163 107.889C109.535 107.877 109.906 107.864 110.278 107.851C110.329 107.851 110.394 107.851 110.445 107.851C110.56 107.851 110.676 107.851 110.791 107.838C111.958 107.8 113.124 107.749 114.304 107.711C114.381 107.711 114.458 107.711 114.535 107.711C114.701 107.711 114.881 107.698 115.048 107.698C115.214 107.698 115.394 107.698 115.586 107.698C116.265 107.723 116.983 107.749 117.24 107.239C117.483 106.78 117.189 105.275 117.253 104.688C117.253 104.676 117.253 104.65 117.253 104.637C117.445 102.941 117.945 101.284 118.445 99.6512C119.355 96.6671 120.266 93.6831 121.176 90.699C121.791 88.6714 122.714 86.7457 123.509 84.7436C123.676 84.3228 123.83 83.902 123.984 83.4811C124.202 82.8435 124.432 82.2059 124.65 81.5683C124.843 81.0072 125.035 80.446 125.227 79.8722C125.317 79.6171 125.407 79.3493 125.484 79.0943C125.509 79.005 125.548 78.9158 125.573 78.8137C126.548 75.8424 127.407 72.8201 127.945 69.7468C128.125 68.7393 128.266 67.7191 128.356 66.6862C128.522 64.9518 128.509 63.039 127.445 61.6617C127.343 61.5342 127.24 61.4067 127.125 61.2919L127.15 61.3047Z" fill="#DFB880"/>
  <path d="M162.459 120.361C162.574 120.017 162.702 119.66 162.831 119.315C162.959 118.958 163.1 118.614 163.164 118.244C163.228 117.9 163.228 117.543 163.164 117.198C163.061 116.599 162.138 116.293 161.587 116.242C160.446 116.14 159.318 116.28 158.177 116.089C158.023 116.063 157.843 116.051 157.728 116.153C157.677 116.204 157.651 116.267 157.638 116.344C157.523 116.701 157.407 117.071 157.279 117.428C157.151 117.823 157.023 118.231 157.087 118.639C157.164 119.137 157.497 119.545 157.843 119.889C158.33 120.374 158.689 120.642 158.779 121.317C158.869 122.057 159.023 122.809 159.125 123.549C159.215 124.199 159.318 124.837 159.407 125.487C159.459 125.832 159.51 126.189 159.561 126.533C159.6 126.788 159.561 127.286 159.728 127.502C160.228 128.255 161.087 125.679 161.164 125.334C161.395 124.353 161.523 123.383 161.805 122.414C162.01 121.713 162.228 121.024 162.459 120.336V120.361Z" fill="#FCD9BA"/>
  <path d="M137.433 107.507C138.446 108.157 139.433 108.82 140.497 109.432C142.42 110.542 144.33 111.664 146.228 112.812C150.074 115.12 153.882 117.505 157.638 119.966C158.677 120.642 158.985 120.208 159.728 119.456C160.254 118.933 160.985 118.142 160.69 117.326C160.433 116.625 159.42 115.974 158.895 115.477C158.305 114.916 157.715 114.367 157.113 113.806C155.125 111.97 153.113 110.159 151.061 108.399C149.138 106.754 147.138 105.249 145.241 103.579C143.189 101.781 141.061 100.046 138.869 98.4141C136.779 96.8456 134.176 94.8944 131.471 94.6394C129.33 94.4354 127.189 96.8966 127.355 98.9497C127.638 102.253 133.125 104.931 135.689 106.448C136.279 106.792 136.856 107.162 137.42 107.532L137.433 107.507Z" fill="#FCD9BA"/>
  <path d="M142.177 96.5395C142.151 96.463 142.125 96.3865 142.1 96.3099C141.69 95.0602 141.292 93.7977 140.933 92.5225C140.215 89.9847 139.6 87.4215 139.087 84.8328C138.087 79.7318 137.523 74.5415 137.382 69.3513C137.305 66.329 137.382 63.2429 136.651 60.2843C136.215 58.4607 135.702 56.3566 134.369 55.0176C131.83 56.3948 129.202 57.6191 126.548 58.805C124.663 59.6467 122.843 60.6159 120.958 61.4576C120.958 61.4831 120.958 61.4958 120.958 61.5213V61.5468C120.958 61.7381 120.958 61.9294 120.958 62.1334C120.958 62.6308 120.958 63.1409 120.958 63.6382C120.958 64.1483 120.971 64.6457 120.984 65.1558C121.086 68.6627 121.407 72.1696 121.894 75.651C121.971 76.2121 122.061 76.786 122.151 77.3471C122.202 77.6404 122.24 77.9337 122.292 78.227C122.292 78.2525 122.292 78.278 122.292 78.2908C122.651 80.4587 123.061 82.6138 123.535 84.769C125.022 91.617 127.01 98.3758 129.112 104.994C129.51 106.231 130.241 106.537 131.112 106.372C131.317 106.333 131.523 106.27 131.741 106.193C131.894 106.142 132.035 106.066 132.189 106.002C132.215 105.989 132.253 105.976 132.279 105.964C133.471 105.364 134.702 104.344 135.548 103.859C135.548 103.859 135.548 103.859 135.561 103.859C135.907 103.655 136.266 103.464 136.612 103.26C136.677 103.222 136.741 103.183 136.792 103.158L137.215 102.916C137.972 102.482 138.715 102.049 139.433 101.589C139.779 101.36 140.138 101.143 140.497 100.939H140.51C140.651 100.85 140.792 100.773 140.933 100.71C141.177 100.582 141.433 100.48 141.69 100.391C142.484 100.123 142.997 99.8041 142.92 98.8987C142.869 98.1718 142.408 97.3301 142.138 96.616L142.177 96.5395Z" fill="#DFB880"/>
  <path d="M133.869 59.5194C133.716 58.1932 133.562 56.8542 133.382 55.5279C133.216 55.6172 133.062 55.6937 132.895 55.783C133.51 60.6289 133.972 65.4876 134.472 70.3462C135.28 78.1252 136.241 85.9297 138.216 93.5174C138.87 96.0041 139.626 98.4653 140.524 100.876H140.536C140.677 100.786 140.818 100.71 140.959 100.646C138.908 95.0987 137.575 89.2836 136.639 83.443C135.357 75.5237 134.754 67.5025 133.857 59.5322L133.869 59.5194Z" fill="#DFB880"/>
  <path d="M132.793 87.2686C131.972 83.1368 131.267 78.9795 130.664 74.8094C130.062 70.6139 129.574 66.4184 129.203 62.1973C129.074 60.718 128.959 59.226 128.857 57.7467C128.69 57.8232 128.523 57.8997 128.357 57.9762C128.421 58.8817 128.485 59.7998 128.562 60.7053C128.908 64.9263 129.369 69.1346 129.946 73.3302C130.523 77.5257 131.203 81.7085 131.998 85.8658C132.728 89.6533 133.498 93.4535 134.6 97.1517C135.203 99.1793 135.921 101.181 136.805 103.107L137.229 102.865C136.575 101.424 136.011 99.9445 135.523 98.4524C134.331 94.8053 133.523 91.0433 132.78 87.2813L132.793 87.2686Z" fill="#DFB880"/>
  <path d="M127.1 87.2304C126.536 84.4376 126.036 81.6321 125.6 78.8138C124.882 74.1464 124.357 69.4662 124.023 64.7606C123.908 63.2176 123.818 61.6618 123.754 60.106C123.587 60.1825 123.421 60.2717 123.254 60.3483C123.446 64.5948 123.805 68.8414 124.305 73.0624C124.228 73.0624 124.164 73.1007 124.139 73.1517C123.446 74.5162 122.78 75.9062 122.151 77.2962C120.523 80.9179 119.151 84.6544 118.023 88.4674C116.484 93.6831 115.408 99.0391 114.843 104.446C114.728 105.517 114.638 106.601 114.561 107.673C114.728 107.673 114.908 107.66 115.074 107.66C115.318 104.229 115.754 100.812 116.382 97.4323C117.395 92.038 118.895 86.733 120.882 81.6066C121.331 80.4588 121.805 79.3111 122.292 78.1762C122.946 76.6714 123.651 75.1793 124.382 73.7128C124.433 74.0826 124.472 74.4397 124.523 74.8095C124.741 76.4928 124.985 78.1761 125.254 79.8595C126.177 85.6618 127.395 91.4259 128.895 97.1135C129.703 100.161 130.549 103.235 131.741 106.155C131.895 106.104 132.036 106.027 132.19 105.964C131.19 103.49 130.434 100.926 129.741 98.3505C128.741 94.6778 127.857 90.9668 127.1 87.2304V87.2304Z" fill="#DFB880"/>
  <path d="M113.241 72.1698C114.37 68.9434 115.677 65.768 117.37 62.8095C117.152 62.8732 116.947 62.937 116.729 62.988C115.293 65.5385 114.139 68.242 113.139 70.9965C111.921 74.3249 110.857 77.7171 109.882 81.122C107.895 88.0338 106.395 95.1369 106.126 102.329C106.062 104.217 106.074 106.117 106.19 108.004C106.19 108.004 106.19 108.004 106.203 108.004C106.369 108.004 106.536 107.991 106.703 107.991C106.395 102.992 106.78 97.9424 107.626 92.9945C108.831 85.9169 110.857 78.9413 113.229 72.1698H113.241Z" fill="#DFB880"/>
  <path d="M120.959 63.6129C121.254 62.7457 121.549 61.8913 121.844 61.0241C121.639 61.1262 121.434 61.2154 121.216 61.3174C121.126 61.5852 121.036 61.8403 120.947 62.1081C118.703 68.6118 116.498 75.1411 114.664 81.7851C112.677 89.0157 111.139 96.3994 110.523 103.885C110.421 105.211 110.331 106.525 110.292 107.851C110.344 107.851 110.408 107.851 110.459 107.851C110.574 107.851 110.69 107.851 110.805 107.838C110.972 103.26 111.51 98.6948 112.318 94.1804C113.664 86.7203 115.741 79.4131 118.062 72.208C118.985 69.3387 119.959 66.4822 120.934 63.6256L120.959 63.6129Z" fill="#DFB880"/>
  <path d="M112.741 24.9347C112.023 23.7488 110.728 23.1239 109.369 23.0984C109.048 23.0984 108.754 23.1366 108.484 23.2132C108.228 23.4172 107.997 23.634 107.766 23.8635C107.215 24.5649 106.741 25.3173 106.33 26.1207C106.177 26.414 106.035 26.7073 105.894 27.0134C105.933 27.0899 105.946 27.1919 105.894 27.2939C105.177 28.7987 104.561 30.3545 104.023 31.9231C102.664 35.1239 101.907 38.6691 101.176 42.0612C100.458 45.3514 99.0609 47.8253 97.0481 50.5161C95.6378 52.4035 94.2146 54.3036 92.8043 56.1909C92.1505 57.0709 91.6633 58.0145 92.8556 58.5756C93.6377 58.9455 94.6377 59.022 95.4967 59.0475C97.2404 59.0857 97.8814 58.869 99.2148 57.6702C100.933 56.1272 102.446 54.3673 103.805 52.4927C106.523 48.7308 108.6 44.548 110.42 40.3014C111.177 38.5416 112.087 36.667 112.42 34.7796C112.766 32.8285 113.19 30.9029 113.382 28.9262C113.523 27.4342 113.561 26.2865 112.754 24.9347H112.741Z" fill="#FCD9BA"/>
  <path d="M112.741 24.9346C112.331 24.2588 111.702 23.7359 110.972 23.4299C110.561 23.2513 110.138 23.2131 109.715 23.111C109.433 23.0473 108.933 22.805 108.664 22.856C108.407 22.907 108.19 23.0855 107.997 23.2641C106.715 24.4883 105.92 26.1206 105.215 27.7402C103.523 31.5914 102.061 35.5447 100.843 39.5744C100.779 39.804 100.702 40.0463 100.792 40.2758C100.92 40.5819 101.561 40.6074 101.843 40.7222C102.818 41.1047 103.766 41.5383 104.715 41.9719C105.151 42.1759 105.6 42.38 106.036 42.5585C106.382 42.6988 106.754 42.8263 107.113 42.9283C107.728 43.1196 108.356 43.2854 108.984 43.4767C109.484 42.431 109.946 41.3725 110.408 40.3013C111.164 38.5415 112.074 36.6669 112.408 34.7795C112.754 32.8284 113.177 30.9028 113.369 28.9262C113.51 27.4341 113.549 26.2864 112.741 24.9346V24.9346Z" fill="#99A558"/>
  <path d="M135.896 55.362C135.435 53.9975 134.973 52.633 134.512 51.2685C133.576 48.5522 132.627 45.836 131.653 43.1197C130.114 38.8476 128.512 34.5883 126.858 30.3418C126.563 29.6786 126.281 29.0283 125.986 28.3651C125.358 26.9496 124.794 25.4831 123.999 24.1568C123.255 22.9198 122.306 21.7084 121.165 20.8029C120.088 19.9485 118.781 19.4894 117.588 18.8391C115.691 18.5075 113.691 18.7371 111.921 19.5532C110.691 20.1143 109.691 21.0325 108.883 22.1419C107.331 24.2716 106.524 27.1154 106.319 29.5129C105.985 33.3768 106.857 37.2408 107.716 41.0283C108.588 44.854 109.46 48.6925 110.242 52.5437C110.639 54.5076 111.011 56.4715 111.344 58.4481C111.652 60.2462 111.55 62.6947 112.216 64.378C112.511 65.1176 113.37 65.3089 114.293 65.3472C114.96 65.3727 115.652 65.3089 116.204 65.3217C117.922 65.3217 119.627 65.2196 121.332 64.9773C124.729 64.4928 128.05 63.4981 131.153 62.057C133.14 61.1261 135.499 60.0039 137.076 58.4736C136.371 57.8232 136.204 56.2674 135.909 55.3748L135.896 55.362Z" fill="#99A558"/>
  <path d="M88.7277 53.4236C88.7277 53.4236 88.6379 53.4619 88.5995 53.4874C84.8942 55.26 82.4583 59.5448 80.33 62.8859C76.6119 68.7393 72.8682 74.6692 70.74 81.2494C69.9451 83.7362 71.4067 85.0751 73.3426 86.4142C75.676 88.0337 78.1248 89.513 80.7787 90.5459C83.0993 91.4514 85.5737 92.0252 88.0738 92.0252C90.279 92.0252 92.7534 92.089 94.7407 91.0305C97.0228 89.8063 98.4716 87.4726 99.5998 85.1517C101.728 80.7903 102.754 76.2505 104.1 71.6724C104.138 71.5321 104.177 71.3918 104.267 71.277C104.485 70.9837 104.908 70.971 105.267 70.9327C107.523 70.7414 109.574 69.1729 110.485 67.1325C111.6 64.5948 110.177 62.7329 108.344 60.9858C105.997 58.7414 103.485 56.6755 100.831 54.7881C97.151 52.1867 92.8304 51.5235 88.7149 53.4236H88.7277Z" fill="#FAEAEA"/>
  <path d="M117.574 18.839C116.818 18.431 115.215 18.686 114.395 18.8135C113.446 18.9666 112.254 19.2344 111.408 19.6934C109.728 20.5989 109.087 23.4554 109.125 25.2025C109.138 25.8401 109.343 26.6053 109.972 26.7455C110.6 26.8858 111.113 26.2865 111.51 25.7891C113.1 23.8125 115.356 22.499 117.203 20.7519C117.728 20.2546 118.433 19.3236 117.574 18.8518V18.839Z" fill="#FCD9BA"/>
  <path d="M115.857 18.2014C115.472 17.6785 115.024 17.1812 114.729 16.6073C114.267 15.7019 113.908 14.7455 113.318 13.9165C112.908 13.3554 112.357 12.8581 111.716 12.6158C110.959 12.3225 110.459 12.6158 109.895 13.1004C108.754 14.0568 107.728 15.4213 107.664 16.9644C107.664 17.3214 107.703 17.6785 107.78 18.0228C107.895 18.5074 108.075 18.9793 108.267 19.4383C108.6 20.2418 108.959 21.0324 109.344 21.8103C109.959 23.0473 110.536 23.7742 112.023 23.1876C112.613 22.958 113.126 22.5627 113.639 22.1801C114.665 21.3895 115.511 20.5096 116.549 19.7444C116.639 19.6806 116.729 19.6169 116.754 19.5149C116.857 19.1705 116.049 18.4692 115.857 18.2141V18.2014Z" fill="#FCD9BA"/>
  <path d="M109.575 21.5298C109.498 21.6191 109.421 21.7083 109.344 21.7976C108.959 21.0197 108.6 20.2291 108.267 19.4257C108.075 18.9666 107.895 18.4947 107.78 18.0101C107.844 17.9591 107.921 17.9081 107.985 17.8571C108.677 17.347 109.562 16.4926 110.498 17.0027C111.524 17.5638 111.011 19.2599 110.639 20.0633C110.395 20.5861 109.934 21.058 109.588 21.5043L109.575 21.5298Z" fill="#E6C1A0"/>
  <path d="M103.293 9.19819C103.293 9.19819 103.28 9.2492 103.267 9.27471C103.203 9.46599 103.254 9.74655 103.216 9.96334C103.177 10.2311 103.164 10.4989 103.19 10.7667C103.228 11.2513 103.6 11.6722 103.639 12.1568C103.652 12.3735 103.549 12.5776 103.472 12.7816C103.382 13.0239 103.293 13.2662 103.177 13.4958C102.959 13.9804 102.703 14.4394 102.421 14.8858C102.216 15.1918 101.998 15.5362 102.049 15.8932C102.126 16.4798 102.767 16.5946 103.241 16.7221C103.754 16.8624 103.921 17.5128 104.011 17.9464C104.139 18.5457 104.177 19.1578 104.331 19.7572C104.523 20.4968 104.908 21.109 105.754 21.1217C106.946 21.1345 108.126 20.7774 109.152 20.178C109.947 19.7062 110.652 19.0941 111.254 18.3927C111.767 17.7933 112.575 17.2832 112.87 16.5308C113.177 15.7529 113.908 15.804 114.562 15.3576C115.242 14.8985 115.678 14.0314 115.921 13.2917C116.203 12.4756 116.306 11.6084 116.421 10.7412C116.524 9.88682 116.626 9.00691 116.383 8.178C116.088 7.20881 115.331 6.43092 114.447 5.90807C113.562 5.38522 112.562 5.09191 111.562 4.84961C110.472 4.58181 109.472 4.35227 108.344 4.51805C107.549 4.63282 106.831 4.90062 106.087 5.15567C105.395 5.39797 104.869 5.95908 104.446 6.54569C103.895 7.33634 103.575 8.26727 103.293 9.18544V9.19819Z" fill="#FCD9BA"/>
  <path d="M113.344 17.347C113.114 17.2068 112.908 17.0282 112.729 16.8242C112.357 16.3906 112.088 15.8677 111.819 15.3704C111.691 15.1154 111.549 14.8731 111.344 14.669C111.049 14.3757 110.639 14.2354 110.28 14.0059C108.703 12.9985 109.255 10.8433 108.229 9.44052C107.78 8.84116 107.101 8.40758 106.357 8.29281C105.69 8.17803 104.972 8.2928 104.344 8.03776C103.036 7.47665 102.203 5.76782 103.485 4.76038C103.921 4.42882 104.408 4.16102 104.934 4.00799C105.383 3.86771 105.857 3.80395 106.267 3.58716C106.908 3.26835 107.37 2.63073 108.049 2.37568C108.421 2.2354 108.831 2.2354 109.229 2.22265C109.883 2.22265 110.549 2.2099 111.152 2.45219C111.588 2.63073 111.96 2.92403 112.383 3.12807C113.37 3.61266 114.639 3.63817 115.319 4.49258C115.857 5.16846 115.819 6.12489 116.062 6.9538C116.344 7.91023 116.998 8.70088 117.511 9.56805C118.011 10.4352 118.383 11.4937 117.998 12.4118C117.793 12.9092 117.396 13.3173 117.178 13.8146C116.947 14.3757 116.947 15.0006 116.665 15.5489C116.396 16.0718 115.998 16.3396 115.588 16.7477C115.152 17.1812 114.909 17.6403 114.191 17.6148C113.883 17.6148 113.588 17.5001 113.332 17.347H113.344Z" fill="#553A12"/>
  <path d="M103.767 11.2133C103.767 11.2133 103.793 11.124 103.806 11.073C103.972 10.7414 104.511 10.7924 104.818 10.8052C105.229 10.8307 105.613 10.9965 105.959 11.1878C106.306 11.3663 106.652 11.6213 106.742 11.9912C106.742 12.0167 106.742 12.0294 106.742 12.0549C106.677 12.1697 106.165 11.8636 106.075 11.8254C105.959 11.7744 105.831 11.7361 105.703 11.7106C105.241 11.5958 104.754 11.5321 104.28 11.5958C104.177 11.6086 104.075 11.6341 103.972 11.5958C103.793 11.5448 103.729 11.3663 103.754 11.2005L103.767 11.2133Z" fill="#553A12"/>
  <path d="M108.446 14.3247C108.446 14.3247 108.446 14.2992 108.446 14.2864C108.254 13.1642 109.19 11.06 110.626 11.6722C111.126 11.8889 111.472 12.399 111.549 12.9346C111.703 13.9803 110.882 15.7274 109.652 15.7657C108.908 15.7912 108.549 14.9495 108.434 14.3247H108.446Z" fill="#FCD9BA"/>
  <path d="M105.742 16.5436C105.742 16.5436 105.716 16.5436 105.716 16.5563C105.549 16.6584 105.383 16.7604 105.229 16.8624C105.113 16.9389 104.998 17.0027 104.883 17.0792C104.613 17.245 104.626 17.5383 104.729 17.8061C104.844 18.1249 105.267 18.1121 105.549 17.9846C105.665 17.9336 105.755 17.8698 105.857 17.7933C106.126 17.5765 106.37 17.296 106.46 16.9517C106.511 16.7604 106.537 16.5819 106.344 16.4671C106.152 16.3523 105.934 16.4161 105.755 16.5181L105.742 16.5436Z" fill="#E9B8A2"/>
  <path d="M105.254 12.9476C105.241 12.8073 105.203 12.6798 105.126 12.616C105.074 12.565 104.985 12.5395 104.908 12.5395C104.677 12.5268 104.536 12.6543 104.497 12.8456C104.472 12.9603 104.497 13.0879 104.497 13.2026C104.523 13.3302 104.562 13.4577 104.626 13.5725C104.664 13.6362 104.703 13.6745 104.767 13.7127C105.049 13.8403 105.215 13.649 105.228 13.4194C105.228 13.3174 105.254 13.1261 105.228 12.9603L105.254 12.9476Z" fill="#553A12"/>
  <path d="M106.524 6.87733C106.037 6.87733 105.524 6.85183 105.101 6.58403C104.69 6.32898 104.549 5.86989 104.46 5.42356C104.434 5.32154 104.19 5.33429 104.203 5.42356C104.255 5.67861 104.306 5.9209 104.421 6.15045C104.537 6.36724 104.703 6.54577 104.921 6.68605C105.396 6.97935 105.985 7.00486 106.524 7.01761C106.562 7.01761 106.652 7.00486 106.652 6.9411C106.652 6.87733 106.562 6.87733 106.524 6.86458V6.87733Z" fill="#412409"/>
  <path d="M108.383 5.14289C108.383 5.14289 108.268 5.09188 108.229 5.09188C107.947 5.13013 107.639 5.13013 107.396 5.00261C107.178 4.88784 107.011 4.6838 106.985 4.4415C106.985 4.33948 106.716 4.35223 106.729 4.4415C106.755 4.73481 106.973 4.98986 107.242 5.11738C107.575 5.28316 107.96 5.28316 108.319 5.23215C108.357 5.23215 108.434 5.1939 108.409 5.14289H108.383Z" fill="#412409"/>
  <path d="M116.96 10.0144C116.922 9.92509 116.665 9.95059 116.717 10.0526C117.063 10.8688 116.935 11.8252 116.422 12.5393C116.383 12.5903 116.486 12.6158 116.511 12.6286C116.563 12.6286 116.64 12.6286 116.665 12.5776C117.204 11.8507 117.306 10.856 116.96 10.0144V10.0144Z" fill="#412409"/>
  <path d="M114.832 10.5118C114.78 10.4353 114.537 10.4608 114.588 10.5501C114.96 11.1622 114.46 11.7998 114.062 12.2462C113.985 12.3354 114.229 12.3864 114.28 12.3227C114.511 12.0676 114.755 11.7871 114.883 11.4555C114.998 11.1494 115.011 10.8051 114.832 10.5246V10.5118Z" fill="#412409"/>
  <path d="M109.408 66.38C108.203 66.3545 106.985 66.3162 105.779 66.2907C105.177 66.278 104.574 66.2652 103.972 66.2525C103.446 66.2525 102.895 66.2397 102.42 66.4693C101.984 66.6861 101.651 67.0559 101.331 67.4257C100.972 67.8465 100.625 68.2546 100.292 68.6882C99.6254 69.5554 99.1126 70.4863 98.7792 71.5192C98.1125 73.5341 98.01 75.6765 97.6382 77.7424C97.2535 79.9103 96.6894 82.0527 95.9714 84.1314C95.2535 86.21 94.3688 88.2249 93.3303 90.1633C93.2021 90.3928 93.0739 90.6351 92.9457 90.8647C92.8944 90.9539 93.1508 90.9794 93.1893 90.9029C94.2534 89.0156 95.1637 87.0389 95.9202 85.0113C96.6766 82.9837 97.2664 80.905 97.7023 78.8009C97.9202 77.7552 98.0741 76.7095 98.2279 75.651C98.3689 74.6181 98.51 73.5724 98.7536 72.5522C98.9972 71.532 99.3562 70.5373 99.9203 69.6319C100.215 69.16 100.549 68.7137 100.907 68.2801C101.228 67.8848 101.561 67.4767 101.92 67.1069C102.087 66.9284 102.279 66.7626 102.497 66.635C102.741 66.4948 102.997 66.431 103.267 66.4055C103.831 66.3545 104.408 66.4055 104.972 66.4183C106.164 66.4438 107.356 66.482 108.549 66.5075L109.433 66.533C109.433 66.533 109.562 66.5203 109.562 66.4565C109.562 66.3928 109.472 66.3928 109.433 66.38H109.408Z" fill="#DFB880"/>
  <path d="M84.6506 84.5779C84.048 83.1241 83.5992 81.6066 83.2915 80.0635C82.9967 78.5205 82.8428 76.952 82.8556 75.3834C82.8556 74.4907 82.9197 73.6108 83.0223 72.7309C83.0223 72.6416 82.7787 72.6289 82.7659 72.7309C82.5864 74.2994 82.5607 75.8935 82.689 77.462C82.8172 79.0306 83.0992 80.5991 83.5351 82.1167C83.7787 82.9711 84.0736 83.8128 84.407 84.6289C84.4454 84.7182 84.7018 84.6927 84.6506 84.5907V84.5779Z" fill="#DFB880"/>
  <path d="M101.022 69.7468C101.022 69.7468 101.061 69.7468 101.048 69.7723C100.727 70.1931 100.304 70.5119 99.8684 70.7797C99.6504 70.92 99.4197 71.0348 99.1889 71.1623C99.035 71.2516 98.8427 71.3919 98.8427 71.5832C98.8427 71.7617 99.0222 71.851 99.1761 71.8765C99.971 72.0167 100.804 71.2516 101.471 70.8945C102.971 70.0911 104.189 68.9051 105.292 67.6299C105.458 67.4386 105.625 67.2473 105.728 67.005C105.766 66.903 105.804 66.801 105.869 66.7117C105.933 66.6097 106.035 66.5332 106.138 66.4694C106.689 66.0741 107.369 65.6788 107.522 64.9519C107.548 64.8371 107.548 64.7223 107.548 64.6076C107.51 63.9317 107.022 63.3196 106.394 63.039C105.587 62.682 104.715 62.8605 104.01 63.3451C103.945 63.3833 103.881 63.4344 103.804 63.4344C103.727 63.4344 103.663 63.4216 103.586 63.3961C103.215 63.2941 102.804 63.3451 102.42 63.4216C101.009 63.6894 99.6633 64.174 98.2658 64.5056C98.035 64.5566 97.7786 64.6331 97.6119 64.7989C97.1504 65.2452 97.8042 65.462 98.1889 65.462C98.8043 65.462 99.5863 65.2452 100.15 65.5768C100.009 65.8828 99.4838 66.1506 99.2017 66.3292C98.8556 66.5459 98.4837 66.7372 98.1376 66.9668C97.8171 67.1708 97.4965 67.3621 97.1504 67.5279C96.7658 67.7064 96.3427 67.8467 95.9837 68.0762C95.8555 68.1655 95.6375 68.3313 95.6375 68.5098C95.6503 68.8924 96.4324 68.8924 96.676 68.8414C97.0222 68.7649 97.3299 68.5863 97.6376 68.4206C98.1504 68.1272 98.6889 67.8722 99.1633 67.5534C99.3684 67.4259 99.2017 67.7064 99.1248 67.7702C99.035 67.8467 98.9197 67.8977 98.8171 67.9742C98.5991 68.1272 98.394 68.293 98.176 68.4461C97.753 68.7521 97.3042 69.0327 96.8042 69.2112C96.5221 69.3132 96.2144 69.3897 95.9452 69.53C95.7401 69.632 95.5734 69.8616 95.7529 70.0656C95.9324 70.2697 96.2657 70.3589 96.535 70.3589C96.7786 70.3589 97.0735 70.3079 97.2914 70.1931C97.5094 70.0784 97.7401 69.9891 97.9709 69.8743C98.4966 69.6065 98.9581 69.2495 99.4453 68.9306C99.5479 68.8669 99.8428 68.6246 99.8812 68.8541C99.9197 69.0327 99.6889 69.224 99.5607 69.326C99.1504 69.6575 98.7145 69.9508 98.2402 70.1804C98.0094 70.2952 97.7658 70.4099 97.5222 70.4992C97.3299 70.5757 97.0478 70.6012 96.8811 70.716C96.676 70.8563 96.8299 71.0986 96.9709 71.2133C97.176 71.3664 97.4453 71.4301 97.6889 71.4174C98.0478 71.4046 98.3812 71.2516 98.7017 71.0858C99.1376 70.869 99.5735 70.6267 99.9966 70.3589C100.15 70.2569 100.291 70.1166 100.433 70.0019C100.522 69.9253 100.612 69.8616 100.715 69.7978C100.753 69.7723 100.804 69.7341 100.856 69.7213C100.856 69.7213 100.92 69.7213 100.945 69.7213L101.022 69.7468Z" fill="#FCD9BA"/>
  <path d="M106.433 66.1378C106.625 66.0613 106.818 65.972 107.01 65.87C107.087 65.87 107.177 65.87 107.266 65.8445C108.061 65.6532 108.997 64.6458 109.625 64.1612C113.1 61.5087 116.395 58.5374 119.421 55.3493C119.946 54.8009 120.459 54.2271 120.767 53.5384C121.292 52.3652 120.805 50.8477 120.1 49.8275C119.459 48.8965 117.985 48.7563 116.959 48.9093C114.42 49.2919 113.177 51.2557 111.818 53.2324C109.472 56.6628 106.536 59.6596 104.112 63.0517C103.869 63.396 103.612 63.7659 103.535 64.1867C103.292 65.5129 105.292 66.5969 106.407 66.1251L106.433 66.1378Z" fill="#FCD9BA"/>
  <path d="M121.921 50.6181C121.959 50.4141 121.998 50.1973 122.036 49.9805C122.292 48.5395 122.523 47.0857 122.792 45.6575C123.292 42.9922 123.831 40.3397 124.139 37.6362C124.357 35.6723 124.421 33.6957 124.549 31.7318C124.651 30.0357 124.728 28.2886 124.434 26.6053C124.164 25.1133 123.575 23.6085 122.19 22.8179C122.01 22.7158 121.998 22.5373 122.074 22.397C121.267 22.0527 120.356 21.9889 119.472 22.193C118.01 22.5245 117.369 23.736 116.869 25.0623C116.741 25.3938 116.626 25.7382 116.523 26.0697C115.1 30.5458 115.202 35.379 115.138 40.0846C115.087 44.2929 114.882 48.4885 114.549 52.6713C114.446 53.9465 114.408 54.5459 115.677 55.1963C116.574 55.6426 117.664 55.7446 118.6 55.3748C119.523 55.005 120.254 54.2526 120.767 53.4109C121.28 52.5693 121.6 51.6128 121.895 50.6692C121.895 50.6564 121.895 50.6309 121.908 50.6181H121.921Z" fill="#FCD9BA"/>
  <path d="M116.023 40.8115C116.561 40.8115 117.1 40.7987 117.638 40.7987C118.228 40.7987 118.831 40.7987 119.42 40.7987C120.036 40.7987 120.651 40.8242 121.279 40.837C121.882 40.8497 122.472 40.8752 123.074 40.9135C123.497 40.939 123.908 40.9645 124.318 40.99C124.472 40.1994 124.6 39.4087 124.728 38.6181C125.023 36.7179 125.446 34.6776 125.305 32.7774C125.164 30.8008 125.1 28.8369 124.792 26.8603C124.561 25.381 124.318 24.2461 123.19 23.1494C122.202 22.1802 120.792 21.8869 119.459 22.1929C117.997 22.5245 117.356 23.736 116.856 25.0622C116.728 25.3938 116.613 25.7381 116.51 26.0697C115.087 30.5458 115.189 35.3789 115.125 40.0846C115.125 40.3269 115.125 40.5819 115.125 40.8242C115.42 40.8242 115.728 40.7987 116.023 40.7987V40.8115Z" fill="#99A558"/>
  <path d="M124.588 32.4077C124.588 33.4917 124.588 34.5756 124.55 35.6596C124.524 36.7308 124.473 37.8147 124.396 38.8859C124.357 39.498 124.319 40.0974 124.268 40.7095C124.268 40.7988 124.511 40.8115 124.524 40.7095C124.614 39.6256 124.678 38.5544 124.729 37.4704C124.78 36.3992 124.819 35.3152 124.832 34.244C124.832 33.6319 124.845 33.0198 124.832 32.4204C124.832 32.3184 124.575 32.3184 124.575 32.4204L124.588 32.4077Z" fill="#67762E"/>
  <path d="M117.998 22.7668C117.998 22.7668 117.869 22.7668 117.844 22.8179C117.164 23.6978 116.639 24.6797 116.228 25.7254C115.818 26.7711 115.549 27.8551 115.344 28.9518C115.139 30.074 115.01 31.1962 114.921 32.3312C114.818 33.6192 114.741 34.9199 114.69 36.2207C114.626 37.5724 114.6 38.9369 114.574 40.2887C114.574 40.4545 114.574 40.6202 114.574 40.786C114.574 40.888 114.831 40.888 114.831 40.786C114.831 39.4343 114.869 38.0825 114.921 36.7307C114.972 35.4172 115.049 34.091 115.139 32.7775C115.228 31.6425 115.331 30.5203 115.523 29.3981C115.703 28.2886 115.959 27.1919 116.344 26.1335C116.716 25.1005 117.203 24.0931 117.844 23.1877C117.921 23.0729 118.01 22.9709 118.087 22.8561C118.126 22.8051 118.023 22.7796 117.998 22.7668V22.7668Z" fill="#67762E"/>
  <path d="M108.305 42.6861C107.779 41.0155 107.356 39.3194 107.036 37.5978C106.715 35.8763 106.51 34.1419 106.408 32.3949C106.343 31.4257 106.331 30.4437 106.331 29.4618C106.331 29.3598 106.074 29.3598 106.074 29.4618C106.061 31.2089 106.151 32.9687 106.356 34.703C106.561 36.4374 106.856 38.1717 107.267 39.8678C107.497 40.8242 107.767 41.7679 108.061 42.7116C108.087 42.8008 108.343 42.7753 108.305 42.6733V42.6861Z" fill="#67762E"/>
  <path d="M24.546 62.2738C24.6229 62.6436 24.8409 62.7966 25.5076 62.8604C27.3666 63.0389 29.2769 62.8221 31.1231 62.5798C34.8155 62.0952 38.5849 61.2918 42.2901 62.0315C41.6234 60.0549 41.1875 58.0145 40.9952 55.9486C40.8542 54.482 40.7901 52.888 39.867 51.7275C39.3926 51.1282 38.7259 50.7073 38.0336 50.3758C36.0207 49.4193 33.7258 49.1643 31.4949 49.2918C29.5974 49.3938 27.6487 49.7891 26.0845 50.8603C25.046 51.5745 23.9947 52.735 23.8024 54.0102C23.5588 55.5915 24.1101 57.1856 24.3537 58.7286C24.5076 59.6468 24.546 60.565 24.5204 61.4831C24.5204 61.8147 24.5204 62.057 24.546 62.2483V62.2738Z" fill="#FCD9BA"/>
  <path d="M18.0578 107.086C18.4168 106.576 18.7886 106.078 19.1604 105.581C20.2374 104.153 21.4169 102.877 22.8144 101.742C24.0324 100.76 25.7888 99.0899 27.4684 99.6128C28.8145 100.034 30.0325 100.85 30.9172 101.946C31.2249 102.342 31.5069 102.788 31.5454 103.285C31.571 103.681 31.4556 104.063 31.3018 104.433C30.3787 106.792 28.0838 108.718 26.4427 110.618C24.4939 112.875 22.5451 115.132 20.5964 117.377C16.6475 121.942 12.7115 126.508 8.76268 131.086C8.17292 131.774 7.74983 131.953 7.04468 131.519C6.09593 130.933 5.35232 130.435 5.6472 129.313C5.9549 128.127 6.80108 126.89 7.33956 125.794C8.48062 123.447 9.64732 121.113 10.8781 118.805C13.032 114.763 15.3654 110.797 18.0322 107.06L18.0578 107.086Z" fill="#FCD9BA"/>
  <path d="M11.2114 138.278C10.8653 138.138 10.5191 137.857 10.2755 137.615C8.99343 136.34 7.72416 135.052 6.2754 133.968C5.30101 133.241 4.2497 132.603 3.4548 131.698C3.24967 131.468 2.95479 131.086 3.00607 130.767C3.05736 130.435 3.42916 130.117 3.68558 129.925C4.28816 129.453 5.03177 129.224 5.67282 128.803C5.92923 128.637 6.26258 128.382 6.5831 128.382C6.86516 128.382 7.24979 128.548 7.5062 128.675C7.87801 128.854 8.23699 129.096 8.53187 129.39C8.86522 129.721 8.96778 130.014 9.04471 130.474C9.13446 130.984 9.36523 131.494 9.48062 132.004C9.60883 132.552 9.69858 133.101 9.81396 133.649C10.0447 134.746 10.3524 135.868 11.0319 136.773C11.2884 137.118 11.6089 137.436 11.7756 137.832C11.8268 137.946 11.8525 138.087 11.8012 138.189C11.7371 138.329 11.532 138.38 11.3781 138.342C11.314 138.329 11.2499 138.304 11.1858 138.278H11.2114Z" fill="#FCD9BA"/>
  <path d="M24.9296 69.4661C23.4039 73.8529 23.1346 78.5713 22.8782 83.2132C22.532 89.5001 22.1731 95.7998 21.8269 102.087C21.8013 102.559 21.7884 103.081 22.0705 103.464C22.2628 103.719 22.5705 103.872 22.8654 104.012C24.3141 104.676 25.8527 105.135 27.4296 105.364C28.6476 105.543 30.0835 105.517 30.8784 104.574C31.6092 103.706 31.9939 101.947 32.2118 100.837C32.5708 99.0772 32.8657 97.3046 33.199 95.5448C33.8529 92.0124 34.4939 88.4799 35.1222 84.9475C35.3786 83.5065 35.635 82.0655 35.7888 80.6117C36.2247 76.5819 36.135 72.3099 35.9812 68.2929C35.9299 67.0941 35.8145 65.7934 35.0324 64.8752C33.6349 63.2684 30.481 63.3322 28.7245 64.2758C26.7629 65.3215 25.6475 67.4512 24.9424 69.4661H24.9296Z" fill="#FCD9BA"/>
  <path d="M36.5326 65.1047C36.4685 67.3491 36.4044 69.5935 36.3403 71.838C36.3147 72.5521 36.3018 73.2662 36.2762 73.9804C36.2249 75.8805 36.1608 77.7806 36.1095 79.6807C36.0839 80.4076 36.0711 81.1217 36.0454 81.8486C35.9557 85.126 35.8531 88.3906 35.7634 91.668C35.2249 91.668 34.6864 91.668 34.1479 91.668C29.6863 91.6425 25.2118 91.3747 20.7758 90.9411C21.186 87.1026 21.5065 83.2514 21.6989 79.4001C21.8527 76.5564 21.9425 73.6998 22.2502 70.8688C22.404 69.4915 22.5963 68.1142 22.8656 66.7497C23.2758 64.7349 24.1092 62.8985 24.6348 60.9346C24.9938 60.9601 25.34 60.9984 25.6862 61.0494C26.0323 61.0877 26.3657 61.1387 26.7118 61.1769C26.9554 61.2024 27.199 61.2279 27.4426 61.2534C28.5196 61.3555 29.5965 61.4065 30.6735 61.4065C30.7632 61.4065 30.853 61.4065 30.9427 61.4065H31.0068C32.5453 61.4065 34.0838 61.2407 35.6095 61.0749C35.648 61.0749 35.6864 61.0749 35.7249 61.0622C35.9685 61.432 36.1608 61.8273 36.289 62.2609C36.5711 63.1791 36.5454 64.1482 36.507 65.1047H36.5326Z" fill="#9DCAD4"/>
  <path d="M39.0205 111.128C38.7385 107.851 38.8667 104.561 39.7898 101.245C40.1103 100.085 40.2385 99.549 41.3539 99.141C42.5719 98.6946 43.9309 98.5543 45.213 98.7839C45.713 98.8732 46.213 99.0262 46.572 99.3705C46.8541 99.6511 47.0207 100.021 47.1618 100.391C47.8156 102.138 47.9439 104.051 47.9439 105.9C47.9439 108.068 47.8541 110.236 47.9182 112.429C47.9823 114.89 48.0464 117.351 48.1105 119.813C48.2387 124.735 48.3669 129.658 48.4951 134.58C48.5208 135.753 48.2259 136.289 47.072 136.442C45.5848 136.646 44.5207 137.054 44.1104 135.269C42.9822 130.435 41.8539 125.602 40.7257 120.769C39.9693 117.543 39.2898 114.342 39.0077 111.128H39.0205Z" fill="#FCD9BA"/>
  <path d="M54.7768 138.941C54.4179 139.056 53.9691 139.082 53.623 139.069C51.8152 138.967 50.0075 138.839 48.1997 138.992C46.9946 139.094 45.7766 139.311 44.5714 139.158C44.2637 139.12 43.7893 139.043 43.6099 138.75C43.4304 138.469 43.4945 137.985 43.5586 137.679C43.6996 136.926 44.097 136.263 44.3022 135.524C44.3791 135.23 44.456 134.809 44.7124 134.605C44.9304 134.427 45.315 134.299 45.5971 134.223C45.9945 134.108 46.4176 134.057 46.8407 134.083C47.3151 134.108 47.5971 134.261 47.9433 134.542C48.3536 134.861 48.8664 135.09 49.2895 135.396C49.7511 135.715 50.187 136.072 50.6357 136.404C51.546 137.079 52.5204 137.704 53.6358 137.921C54.0589 138.01 54.5076 138.036 54.905 138.214C55.0204 138.265 55.1358 138.342 55.1743 138.469C55.2256 138.622 55.1102 138.788 54.9692 138.865C54.905 138.89 54.8538 138.916 54.7768 138.941V138.941Z" fill="#FCD9BA"/>
  <path d="M32.7373 71.7998C32.6091 73.8402 32.3399 76.1101 32.763 78.1123C33.3527 80.8668 34.0579 83.6086 34.6989 86.3503C35.9682 91.7319 37.2375 97.1261 38.5067 102.508C38.7375 103.464 39.0324 105.109 39.9683 105.67C41.0453 106.295 43.4812 105.925 44.6608 105.785C45.8916 105.645 47.2634 105.237 47.7762 104.114C48.2506 103.082 48.148 101.283 48.0711 100.161C47.9429 98.3759 47.7762 96.5905 47.6224 94.7924C47.3147 91.2218 46.9942 87.6383 46.6608 84.0676C46.5326 82.6139 46.3916 81.1473 46.1608 79.7063C45.5198 75.702 44.2889 71.6085 43.071 67.77C42.712 66.6223 42.2504 65.3981 41.2504 64.7222C39.4811 63.5362 36.4554 64.4289 35.0066 65.8062C33.3912 67.3365 32.8784 69.6829 32.7373 71.8126V71.7998Z" fill="#FCD9BA"/>
  <path d="M48.2255 90.1379C46.8024 90.3674 45.3664 90.5842 43.9305 90.8138C43.3279 90.903 42.7382 91.005 42.1356 91.0943C41.5586 91.1836 40.9689 91.2728 40.3919 91.3749C38.6227 91.6554 36.8406 91.936 35.0584 91.8722C34.6738 91.8595 34.2636 91.8212 33.9815 91.5661C33.7507 91.3621 33.6481 91.0433 33.5712 90.75C32.725 87.6894 32.6353 84.361 32.2507 81.2112C31.6353 76.1102 31.0583 70.9582 30.8147 65.819C30.7763 65.1049 30.7506 64.3907 30.725 63.6766C30.6993 62.9242 30.6865 62.1718 30.6737 61.4194C30.7891 61.4194 30.9045 61.4194 31.007 61.4194C32.5456 61.4194 34.0841 61.2536 35.6097 61.0878C37.1226 60.9221 38.6355 60.718 40.1612 60.5267C40.9304 60.4247 41.6997 60.3227 42.4561 60.2334C45.0075 68.5353 46.3152 77.0411 47.7768 85.5725C47.8537 86.0443 48.264 90.1506 48.2127 90.1506L48.2255 90.1379Z" fill="#9DCAD4"/>
  <path d="M30.3146 81.2749C30.0582 80.5735 29.2505 79.9231 28.5069 80.446C28.0453 80.7775 28.212 81.4662 28.4684 81.9508C28.6223 82.3461 28.93 82.6649 29.3659 82.7287C29.7633 82.7924 30.2762 82.6904 30.4044 82.2568C30.4941 81.938 30.43 81.581 30.3146 81.2749V81.2749Z" fill="#1A8B93"/>
  <path d="M37.0073 71.9911C36.7508 71.7616 36.3149 71.7998 36.0329 71.9274H35.9944C35.9944 71.9274 35.9559 71.9656 35.9303 71.9784C35.7508 72.0039 35.5841 72.0804 35.4816 72.2207C35.2251 72.565 35.0713 72.9986 35.0841 73.4321C35.0841 73.9805 35.6482 74.1463 36.1354 74.0315C36.5713 73.9167 36.8406 73.5469 36.9944 73.1388C37.1098 72.82 37.2893 72.2589 37.0073 71.9911Z" fill="#1A8B93"/>
  <path d="M26.1479 68.8413C25.7889 68.6883 25.1479 68.7776 25.1351 69.1219C25.1351 69.9636 25.5582 70.869 26.5197 70.8307C26.7249 70.8307 27.1223 70.767 27.1351 70.4864C27.1864 69.7723 26.8531 68.9434 26.1351 68.8413H26.1479Z" fill="#1A8B93"/>
  <path d="M31.3145 63.6638C31.1606 63.6255 30.9555 63.6255 30.776 63.6638C30.5196 63.6638 30.2632 63.7276 30.1734 63.8806C29.9426 64.2504 29.8016 64.6457 29.7375 65.0793C29.7119 65.2323 29.6862 65.4236 29.7503 65.5767C29.8529 65.7807 30.1349 65.8572 30.3401 65.87C31.3273 65.9465 31.6093 64.7222 31.6863 63.9571C31.7119 63.7786 31.4298 63.6765 31.3016 63.651L31.3145 63.6638Z" fill="#1A8B93"/>
  <path d="M38.1744 62.1334C38.0205 61.8911 37.6744 61.8529 37.4051 61.8911C37.2769 61.9039 36.9692 62.0187 36.9436 62.1844C36.8667 62.2354 36.8154 62.312 36.8282 62.4012C36.8923 63.0133 37.0077 64.0208 37.6616 64.3013C37.8923 64.4034 38.5847 64.5181 38.7 64.1483C38.9308 63.3832 38.5847 62.7455 38.1744 62.1079V62.1334Z" fill="#1A8B93"/>
  <path d="M43.443 66.9668C43.1481 66.801 42.5199 66.8265 42.3788 67.107C42.084 67.6809 41.5455 69.0072 42.5712 69.1602C43.084 69.2367 43.443 69.0454 43.6353 68.5736C43.802 68.1655 43.8789 67.7447 43.8917 67.3111C43.8917 67.107 43.6866 67.005 43.443 66.9795V66.9668Z" fill="#1A8B93"/>
  <path d="M42.4559 77.0921C42.3277 76.7223 42.0585 76.1229 41.6354 76.0209C41.3662 75.9571 40.9943 75.9444 40.7892 76.1484C40.6354 76.1994 40.5072 76.3015 40.5072 76.4417C40.4559 77.3854 41.1226 78.7882 42.2893 78.2398C42.7764 78.0103 42.597 77.4874 42.4559 77.0921V77.0921Z" fill="#1A8B93"/>
  <path d="M46.7765 83.7233C46.4688 83.5448 45.8406 83.5831 45.738 83.8764C45.6098 84.2589 45.5201 84.6543 45.5201 85.0623C45.5201 85.2409 45.4944 85.5087 45.5842 85.6872C45.6867 85.8785 45.956 85.9423 46.1483 85.955C46.6098 85.9933 46.956 85.8147 47.0457 85.3557C47.1227 84.9221 47.1483 84.4757 47.1483 84.0422C47.1483 83.8636 46.956 83.7743 46.7765 83.7361V83.7233Z" fill="#1A8B93"/>
  <path d="M38.8408 85.3684C38.7511 85.1644 38.6485 84.9604 38.4562 84.8456C38.1869 84.6798 37.8792 84.7053 37.5844 84.7691C37.4433 84.7946 37.2895 84.9093 37.2767 85.0624C37.2767 85.1261 37.2767 85.1771 37.2767 85.2409C37.2767 85.2792 37.2767 85.3047 37.2895 85.3429C37.1869 85.9295 37.4305 86.5417 37.9049 86.9115C38.1613 87.1155 39.0075 87.2175 39.0588 86.7457C39.11 86.2738 39.0331 85.802 38.8408 85.3812V85.3684Z" fill="#1A8B93"/>
  <path d="M43.9304 90.8137C43.3278 90.903 42.738 91.005 42.1354 91.0943C42.1739 90.9795 42.238 90.8647 42.3149 90.75C42.3149 90.75 42.3149 90.7372 42.3149 90.7245C42.3919 90.4056 42.6739 90.1761 43.0073 90.1123C43.2893 90.0613 43.7637 90.0996 43.9047 90.4056C43.956 90.5204 43.956 90.6607 43.9304 90.8137V90.8137Z" fill="#1A8B93"/>
  <path d="M31.6097 89.2961C31.302 89.1176 30.4814 89.0921 30.2891 89.4492C30.0968 89.5129 29.9814 89.6405 30.0583 89.819C30.2635 90.3163 30.3532 90.8774 30.8404 91.1963C31.1481 91.4003 31.5199 91.4513 31.8661 91.3238C32.1866 91.2218 32.2507 90.9412 32.2507 90.6352C32.2507 90.1506 32.0456 89.5512 31.6097 89.2961V89.2961Z" fill="#1A8B93"/>
  <path d="M23.9044 85.2026C23.9044 85.0496 23.7633 84.9603 23.6095 84.9093C23.5326 84.5777 22.571 84.5267 22.3915 84.871C22.0966 85.4831 21.6735 86.8349 22.6351 87.0644C23.1095 87.1792 23.5838 87.0007 23.7377 86.5416C23.8915 86.108 23.9428 85.6489 23.9044 85.1898V85.2026Z" fill="#1A8B93"/>
  <path d="M23.9814 74.6691C23.8019 74.3758 23.0583 74.3886 22.8276 74.6053C22.584 74.6436 22.3788 74.7456 22.366 74.9497C22.3147 75.7913 22.4045 77.1813 23.6096 76.9901C24.6353 76.837 24.3532 75.3067 23.9814 74.6819V74.6691Z" fill="#1A8B93"/>
  <path d="M31.1478 73.9167C30.9811 73.6872 30.6478 73.6362 30.3914 73.6744C30.3401 73.6744 30.2631 73.6999 30.1862 73.7382C30.0067 73.7637 29.8529 73.853 29.8016 73.9805C29.6349 74.4651 29.558 74.9879 29.6221 75.498C29.699 76.0464 30.1093 76.2887 30.6606 76.1994C31.1991 76.1102 31.3273 75.6256 31.3914 75.1537C31.4555 74.7201 31.3914 74.2738 31.135 73.9167H31.1478Z" fill="#1A8B93"/>
  <path d="M27.455 61.2536C27.4165 61.3684 27.3652 61.4831 27.3268 61.5852C27.1216 62.057 26.8524 62.5671 26.2883 62.6564C26.0191 62.6946 25.6729 62.6564 25.4678 62.4778C25.2626 62.2993 25.3267 62.057 25.378 61.8275C25.4421 61.5469 25.5575 61.2919 25.7113 61.0623C26.0575 61.1006 26.3909 61.1516 26.737 61.1898C26.9806 61.2153 27.2242 61.2409 27.4678 61.2664L27.455 61.2536Z" fill="#1A8B93"/>
  <path d="M37.0328 79.5406C36.802 79.464 36.4558 79.464 36.2379 79.6171C36.1097 79.6681 36.0199 79.7446 35.9943 79.8466C35.7122 80.1399 35.4558 80.446 35.2378 80.7903C35.1224 80.9561 34.9558 81.1729 34.9686 81.3897C34.9686 81.6575 35.225 81.7977 35.443 81.8615C36.4943 82.1421 37.1097 80.9306 37.2122 80.0506C37.2251 80.0379 37.2379 80.0251 37.2635 79.9996C37.4687 79.8084 37.2379 79.6043 37.0456 79.5406H37.0328Z" fill="#1A8B93"/>
  <path d="M36.6739 78.7499C36.5841 80.4077 36.4815 82.0655 36.3533 83.7106C36.238 85.3556 36.0969 87.0007 35.9431 88.633C35.8533 89.5639 35.7636 90.4821 35.6738 91.413C35.6738 91.5278 35.9687 91.5278 35.9815 91.413C36.1482 89.768 36.3021 88.1101 36.4431 86.4651C36.5841 84.82 36.6995 83.175 36.8149 81.5427C36.879 80.6117 36.9303 79.6808 36.9816 78.7499C36.9816 78.6351 36.6739 78.6351 36.6739 78.7499V78.7499Z" fill="#1A8B93"/>
  <path d="M42.097 62.2992C42.097 62.2992 41.9559 62.2227 41.9046 62.2355C40.7764 62.4778 39.6482 62.6818 38.5071 62.8348C37.3789 63.0006 36.2378 63.1154 35.0968 63.2047C33.9557 63.2939 32.8018 63.3322 31.6608 63.3449C30.5197 63.3449 29.3658 63.3194 28.2248 63.2557C27.0837 63.1919 25.9298 63.0771 24.8016 62.9369C24.6606 62.9241 24.5195 62.8986 24.3785 62.8858C24.3272 62.8858 24.2118 62.8858 24.1862 62.9496C24.1605 63.0134 24.2503 63.0516 24.2887 63.0516C25.4298 63.2047 26.5837 63.3322 27.7504 63.4087C28.9043 63.4852 30.0581 63.5235 31.212 63.5362C32.3659 63.5362 33.5198 63.498 34.6737 63.4214C35.8275 63.3449 36.9814 63.2302 38.1353 63.0771C39.2764 62.9241 40.4174 62.7328 41.5585 62.5033C41.6995 62.4778 41.8405 62.4395 41.9944 62.414C42.0457 62.414 42.1226 62.3757 42.097 62.312V62.2992Z" fill="#1A8B93"/>
  <path d="M34.9561 62.8987C34.9689 62.8349 34.8407 62.8094 34.8023 62.8094C34.4946 62.8094 34.4176 63.6893 34.3663 63.9061C34.2381 64.4289 34.0971 64.9518 33.9433 65.4619C33.6356 66.4948 33.2894 67.515 32.9689 68.5352C32.7637 69.1856 32.5714 69.8487 32.5458 70.5374C32.5458 70.6904 32.5458 70.8434 32.6227 70.9709C32.7253 71.1112 33.1996 71.1367 33.2381 70.9454C33.2381 70.8944 33.2637 70.8562 33.2637 70.8052C33.4689 70.5884 33.5458 70.2568 33.6099 69.9635C33.7509 69.4151 33.8792 68.8668 33.9945 68.3184C34.2381 67.209 34.4561 66.0868 34.6356 64.9646C34.7381 64.3269 34.8279 63.6893 34.9176 63.0517C34.9176 63.0389 34.9176 63.0262 34.9048 63.0134C34.9048 62.9752 34.9176 62.9369 34.9305 62.8987H34.9561Z" fill="#1A8B93"/>
  <path d="M38.7125 64.786C38.7894 64.1866 38.8535 63.5873 38.9176 62.9879C38.9433 62.8094 38.9176 62.4651 38.6612 62.6181C38.533 62.6946 38.4946 62.9242 38.4561 63.0517C38.3663 63.396 38.3663 63.7658 38.3022 64.1101C37.9048 66.3291 36.9817 68.6117 36.9689 70.8689C36.9689 71.0602 37.0714 71.4938 37.3535 71.328C37.5586 71.2132 37.6484 70.7031 37.6997 70.4991C38.174 68.6245 38.4561 66.7116 38.6997 64.786H38.7125Z" fill="#1A8B93"/>
  <path d="M53.9055 30.1376C53.8158 29.1685 53.5978 28.1865 53.0465 27.3959C51.7645 25.5723 49.1362 25.2407 47.5848 23.6339C45.7771 21.7465 45.7515 18.4309 43.6104 17.0026C43.136 16.4288 42.5206 15.9697 41.8026 15.7402C40.8923 15.4469 39.9051 15.5106 38.9564 15.5871C37.9564 15.6636 36.9435 15.7147 35.9563 15.5106C35.3153 15.3831 34.687 15.1535 34.1486 14.7965C33.4562 14.1844 32.8152 13.4957 32.0588 12.9729C29.5715 11.2513 25.8919 11.5191 23.6995 13.585L22.9944 13.9548C21.3533 14.873 21.3918 17.0537 21.6226 18.635C22.0841 21.6828 22.5585 24.8071 24.0329 27.5106C26.3022 31.6679 30.7126 34.3842 35.3409 35.4682C39.9692 36.5521 44.8284 36.1823 49.5208 35.3916C50.726 35.1876 52.008 34.9198 52.867 34.0526C53.8543 33.058 54.0466 31.5149 53.9184 30.1249L53.9055 30.1376ZM36.1871 16.1355C35.6486 15.9442 35.1742 15.6381 34.7383 15.2938C34.9435 15.3831 35.1486 15.4468 35.3537 15.5106C36.3281 15.7912 37.3538 15.8167 38.3666 15.7657C39.3026 15.7147 40.2641 15.5744 41.2 15.7402C41.636 15.8167 42.0462 15.9697 42.4308 16.1992C42.6616 16.3395 42.8796 16.5181 43.0719 16.6966C40.9949 15.7912 38.3794 16.9261 36.1999 16.1227L36.1871 16.1355Z" fill="#B36332"/>
  <path d="M36.2632 37.5469C40.1735 37.7255 44.0839 37.6362 47.9814 37.4194C48.0199 37.4194 48.0455 37.4194 48.084 37.4194C48.8404 37.3302 49.6097 37.2281 50.3661 37.1644C50.4687 37.1516 50.5713 37.1389 50.6738 37.1261C52.4944 36.8583 54.3021 36.5268 56.0842 36.1059C56.3791 36.0039 56.674 35.8891 56.9689 35.7744C57.2766 35.6468 57.5971 35.5193 57.8407 35.2898C58.4048 34.7414 58.3407 33.8232 58.1869 33.0581C58.0458 32.344 58.0587 31.413 57.392 31.0049C56.815 30.6479 55.9689 30.7371 55.315 30.7754C47.5455 31.26 39.7504 29.1814 32.0066 29.9082C30.404 30.0613 29.4681 31.8976 29.3271 33.4152C29.2117 34.6904 29.6604 35.8509 30.4296 36.7946C32.3271 37.2919 34.3016 37.4704 36.2632 37.5597V37.5469Z" fill="#FCD9BA"/>
  <path d="M36.264 37.5469C38.3025 37.6361 40.341 37.6616 42.3796 37.6234C42.5847 35.1111 43.2898 32.6372 44.3155 30.3035C40.2128 29.9082 36.1102 29.5128 32.0203 29.8954C30.4177 30.0484 29.4818 31.8848 29.3407 33.4023C29.2253 34.6776 29.6741 35.838 30.4433 36.7817C32.3408 37.2791 34.3152 37.4576 36.2768 37.5469H36.264Z" fill="#DFB880"/>
  <path d="M20.2248 44.2164C21.0325 49.4449 22.0838 54.6479 23.3531 59.7872C29.9943 58.1421 36.815 57.2367 43.6486 57.0836C44.5588 57.0581 46.4435 57.3259 46.9563 56.4205C47.3538 55.7191 46.5589 53.7935 46.3538 53.0921C45.3281 49.6362 43.8922 46.3078 42.2126 43.107C40.5074 39.8679 38.5587 37.0113 36.2124 34.193C35.2381 33.0198 34.2124 31.8593 32.9944 30.9412C31.7379 29.9847 30.3918 29.1558 28.802 29.4109C26.9045 29.7169 25.2249 30.2015 23.4557 30.9922C19.2248 32.905 19.3786 38.4013 19.9299 42.2143C20.0197 42.8774 20.1222 43.5406 20.2248 44.2037V44.2164Z" fill="#DFB880"/>
  <path d="M92.9832 15.5616C91.1882 12.7433 89.4702 9.49147 85.5727 10.0016C81.9059 10.4989 77.8673 12.6668 74.6621 14.4139C67.7645 18.1759 61.713 23.4681 57.0847 29.8061C55.5846 31.8465 54.2513 34.0016 53.0717 36.2461C52.0076 38.2865 50.2383 40.7349 51.4307 43.0049C52.5845 45.211 54.0333 47.2642 55.7 49.1005C57.2898 50.8476 59.4053 52.5182 61.7771 52.2759C62.6618 52.1866 63.4951 51.8295 64.29 51.4215C69.7261 48.5777 73.1621 43.0941 76.2775 37.8274C76.6878 37.126 77.1237 36.4118 77.7519 35.889C78.4699 35.2896 79.4058 34.9963 80.3033 34.703C86.6753 32.6626 92.9062 30.1504 98.9064 27.2046C99.15 27.0898 99.4064 26.9495 99.5346 26.72C99.7654 26.2992 99.509 25.8018 99.2526 25.3937C97.1628 22.1164 95.073 18.839 92.9832 15.5616V15.5616Z" fill="#FAEAEA"/>
  <path d="M96.9064 26.7839C93.8807 27.9316 90.8549 29.0921 87.7651 30.0612C86.2266 30.5458 84.6753 30.9922 83.0983 31.3747C81.5085 31.7573 79.9059 32.0379 78.3033 32.2929C77.5981 32.4077 76.893 32.5607 76.2391 32.854C75.7006 33.0963 75.2006 33.4151 74.7391 33.7722C73.7519 34.5501 72.957 35.532 72.2518 36.5522C71.4954 37.6617 70.8287 38.8349 70.1364 39.9826C69.2902 41.3854 68.4056 42.7627 67.4825 44.1144C65.8798 46.4736 64.1875 48.9348 61.7643 50.5289C61.4823 50.7202 61.1746 50.8987 60.8797 51.0517C60.7515 51.1155 60.9823 51.192 61.0592 51.1538C63.5464 49.8403 65.3414 47.5831 66.9183 45.3259C67.8414 43.9996 68.7389 42.6479 69.5979 41.2834C70.3672 40.0591 71.0723 38.8094 71.8416 37.5852C73.1493 35.4938 74.8032 33.3004 77.3289 32.6245C78.1238 32.4077 78.9572 32.3312 79.7649 32.1909C80.5598 32.0634 81.3547 31.8976 82.1367 31.7318C83.7009 31.3875 85.2522 30.9794 86.7779 30.5076C89.8677 29.5766 92.8934 28.4544 95.9064 27.3067C96.2782 27.1664 96.65 27.0262 97.0218 26.8859C97.1756 26.8221 96.9961 26.7329 96.8936 26.7711L96.9064 26.7839Z" fill="#DFB880"/>
  <path d="M73.8668 21.9507C73.8668 21.9507 73.7386 21.9507 73.7001 21.9762C72.7257 22.7031 71.777 23.4555 70.9052 24.2971C70.0462 25.126 69.2641 26.0442 68.6487 27.0644C68.3025 27.6383 68.0205 28.2504 67.8153 28.888C67.7769 28.99 68.0333 29.0028 68.0589 28.9263C68.4307 27.804 69.0333 26.7711 69.7769 25.8402C70.5205 24.8965 71.4052 24.0676 72.3283 23.2897C72.8539 22.8561 73.3796 22.448 73.9309 22.04C73.9822 22.0017 73.9309 21.9634 73.8924 21.9507H73.8668Z" fill="#DFB880"/>
  <path d="M36.5845 43.4002C35.3665 43.2855 34.1485 43.2217 32.9306 43.0559C31.2126 42.8136 29.4946 42.5203 27.8022 42.176C27.0073 42.0102 26.2124 41.8317 25.4688 41.5129C23.0072 40.4799 20.9815 37.5979 21.9046 34.8689C22.3021 33.6829 23.3662 32.8667 24.456 32.3184C25.7381 31.668 27.7125 32.1654 29.0074 32.5607C30.5074 33.007 31.9177 33.6956 33.3408 34.3205C34.546 34.8434 35.7768 35.3152 37.0204 35.7488C38.2384 36.1696 39.6231 36.3992 40.7769 36.9603C41.8667 37.4959 43.0975 37.5596 44.3027 37.6999C45.7258 37.8657 47.1489 37.955 48.572 37.9932C49.2387 38.006 50.008 38.0187 50.0465 38.7966C50.0849 39.5745 50.0849 40.3524 50.0465 41.1303C50.008 41.921 49.867 42.8136 49.1874 43.2345C48.9054 43.413 48.5592 43.464 48.2259 43.515C44.7001 44.0124 41.1103 44.0251 37.5845 43.5278C37.2384 43.4768 36.8922 43.4385 36.5589 43.413L36.5845 43.4002Z" fill="#FCD9BA"/>
  <path d="M35.4566 35.1622C34.7514 34.8944 34.0463 34.6011 33.354 34.3078C31.918 33.6829 30.5077 33.007 29.0205 32.5479C27.7256 32.1526 25.7512 31.6553 24.4691 32.3056C23.3793 32.854 22.3152 33.6701 21.9177 34.8561C20.9946 37.5979 23.0203 40.4672 25.4819 41.5001C26.2255 41.8189 27.0204 41.9975 27.8153 42.1633C29.5205 42.5203 31.2257 42.8136 32.9437 43.0432C33.0078 43.0432 33.0847 43.0559 33.1488 43.0687C33.2514 40.2759 33.9694 37.5214 35.4566 35.1494V35.1622Z" fill="#DFB880"/>
  <path d="M44.8542 40.4035C44.5465 41.0538 44.9568 41.87 45.303 42.4438C45.444 42.6734 45.5978 42.9157 45.803 43.107C46.4184 43.6808 47.521 43.5278 48.2902 43.5406C49.2005 43.5533 50.098 43.4768 50.9954 43.3238C52.7647 43.0432 54.4955 42.5204 56.2007 41.9848C57.47 41.6022 58.7393 41.2069 60.0085 40.8243C61.0855 40.4927 62.1624 40.1612 63.2266 39.7913C64.842 39.2175 66.4318 38.5543 67.9575 37.7765C68.4831 37.5214 69.0088 37.2281 69.3678 36.769C70.1114 35.8253 69.7524 34.0145 68.3165 34.2695C64.201 34.9964 60.0854 35.7233 55.9699 36.463C53.5468 36.8965 51.1365 37.3174 48.7518 37.9167C47.9825 38.108 47.1364 38.4396 46.521 38.9624C46.0209 39.3833 45.3671 39.6766 44.9696 40.2122C44.9183 40.2759 44.8927 40.3397 44.8542 40.4035V40.4035Z" fill="#FCD9BA"/>
  <path d="M68.5987 33.8104C67.9962 34.2184 67.9705 34.7285 67.9577 35.4427C67.9577 35.7615 67.9577 36.093 67.9833 36.4119C68.0218 37.0367 68.0603 37.3938 68.6372 37.6743C69.509 38.0952 70.4962 38.2099 71.445 38.363C72.0219 38.4522 72.6373 38.567 73.2271 38.5288C73.7784 38.5033 74.304 38.567 74.8425 38.4012C75.0348 38.3375 75.2528 38.2482 75.3938 38.1079C75.5861 37.9166 75.6502 37.6999 75.3041 37.7381C74.7015 37.8019 74.0604 37.7636 73.4707 37.6616C73.3168 37.6361 72.5989 37.5341 72.9194 37.3428C73.0732 37.2535 73.3681 37.3428 73.5348 37.33C73.8169 37.33 74.1117 37.3045 74.3938 37.2918C74.9707 37.2663 75.5349 37.2408 76.1118 37.2153C76.3169 37.2153 76.6246 37.177 76.7657 36.9985C76.8682 36.8582 76.9067 36.5776 76.7272 36.4629C76.6503 36.4119 76.5477 36.4119 76.4451 36.4119C75.3554 36.3864 74.2784 36.5904 73.2014 36.3481C73.0476 36.3098 72.7527 36.1568 72.9963 36.0293C73.0732 35.991 73.163 35.991 73.2527 35.9783C74.2143 35.9528 75.1759 35.9273 76.1374 35.889C76.4195 35.889 76.8298 35.9273 77.0349 35.7105C77.3811 35.3534 76.9195 35.0346 76.5605 35.0346C75.8938 35.0346 75.2143 35.0856 74.5476 35.0729C74.0476 35.0729 73.4707 35.0729 73.022 34.8433C73.1245 34.7795 73.2527 34.7795 73.3809 34.7795C73.8681 34.7795 74.3425 34.7795 74.8169 34.7413C75.2528 34.703 75.7143 34.7285 76.1374 34.6393C76.4323 34.5755 76.7913 34.1674 76.3554 34.0016C76.2528 33.9634 76.1246 33.9634 76.0092 33.9634C75.0477 34.0016 74.0861 34.0909 73.1373 33.9889C72.7784 33.9506 72.3296 33.8869 72.0476 33.6318C72.1886 33.262 72.9322 33.2493 73.2399 33.058C73.6886 32.7774 73.9835 32.4203 73.9194 31.821C73.8681 31.3364 73.1245 31.8592 72.9194 31.9995C72.2399 32.4331 71.5091 32.6881 70.7527 32.9687C70.0347 33.2238 69.3167 33.4023 68.65 33.8231C68.6244 33.8359 68.6116 33.8486 68.5859 33.8614L68.5987 33.8104Z" fill="#FCD9BA"/>
  <path d="M36.4047 35.2259C35.5585 33.8232 34.52 32.5224 33.3533 31.3747C33.02 31.0431 32.6738 30.7371 32.3148 30.431C32.2764 30.3928 32.1995 30.3928 32.1482 30.4055C32.1097 30.4055 32.0584 30.4565 32.1097 30.4948C33.3533 31.5532 34.4816 32.7775 35.4175 34.1165C35.6867 34.4863 35.9303 34.8689 36.1739 35.2642C36.2252 35.3407 36.4688 35.3152 36.4175 35.2259H36.4047Z" fill="#99A558"/>
  <path d="M35.2898 34.7413C34.0461 34.1292 32.7512 33.6063 31.4307 33.1855C30.1101 32.7647 28.7511 32.4459 27.3665 32.2291C26.5844 32.1016 25.8023 32.025 25.0202 31.9613C24.9818 31.9613 24.892 31.974 24.892 32.025C24.892 32.076 24.9818 32.0888 25.0202 32.0888C26.4049 32.1908 27.7254 32.3821 29.0845 32.6882C30.4178 32.9942 31.7256 33.3895 32.9948 33.8869C33.7128 34.1674 34.4179 34.4735 35.1103 34.8178C35.1616 34.8433 35.2385 34.8433 35.2898 34.8178C35.3282 34.7923 35.341 34.7413 35.2898 34.7158V34.7413Z" fill="#99A558"/>
  <path d="M33.0458 43.6043C33.0201 43.9996 32.956 44.3949 32.8663 44.7775L29.738 44.1271C28.661 43.8976 27.5713 43.6808 26.4943 43.4512C25.9045 43.3237 25.302 43.1834 24.725 43.0049C24.6737 42.9922 24.5968 42.9922 24.5584 43.0304C24.5199 43.0687 24.5584 43.1069 24.5968 43.1197C25.6353 43.4512 26.7251 43.6425 27.7892 43.8721C28.8918 44.1016 29.9816 44.3312 31.0842 44.5607C31.6996 44.6882 32.315 44.8158 32.9304 44.9433C32.9817 44.9433 33.0714 44.9433 33.0842 44.8795C33.174 44.4587 33.2509 44.0379 33.2765 43.617C33.2765 43.5278 33.033 43.515 33.033 43.617L33.0458 43.6043Z" fill="#99A558"/>
  <path d="M27.3665 30.635C28.0716 30.7115 28.7511 30.8517 29.4307 31.043C29.9435 31.1961 30.4563 31.3491 30.982 31.4766C31.0204 31.4001 31.0589 31.3108 31.0845 31.2343C31.2384 30.7115 30.9692 30.4437 30.8794 29.9208C30.7768 29.2449 30.7897 28.5563 30.7512 27.8804C30.6743 26.5797 30.4435 25.1259 29.1101 24.5138C27.8665 23.8124 25.0972 23.7869 24.2126 24.9856C23.6997 25.687 23.7382 26.6817 23.6741 27.4979C23.5843 28.467 23.5715 29.4745 23.4433 30.4437C24.751 30.4437 26.0588 30.5074 27.3665 30.6477V30.635Z" fill="#FCD9BA"/>
  <path d="M29.8795 28.6839C30.1872 28.7604 30.5077 28.8242 30.8154 28.7732C30.7 27.6892 30.7128 26.5543 30.2641 25.5341C29.3025 25.1132 28.2769 24.7179 27.4179 25.6616C26.1614 27.1791 28.7512 28.3906 29.8795 28.6839V28.6839Z" fill="#E6C1A0"/>
  <path d="M20.7897 23.5829C20.1102 22.6648 19.623 21.6191 19.4307 20.4841C19.2384 19.3364 19.4692 18.4437 19.764 17.3598C20.1487 15.957 21.4564 14.8603 22.7 14.1972C25.0463 12.9474 28.2899 12.7689 30.1105 15.0388C31.008 16.1738 31.149 17.4873 31.649 18.7625C31.8285 19.2089 32.1875 19.4129 32.5849 19.6424C33.0337 19.923 33.4824 20.1908 33.9311 20.4714C34.0465 20.5479 34.1619 20.6116 34.2517 20.7137C34.5465 21.058 34.1491 21.5171 33.9183 21.7849C33.508 22.2694 33.5978 23.0601 33.7004 23.6467C33.8286 24.3481 34.0593 25.0367 33.9824 25.7509C33.9568 25.9804 33.8927 26.2099 33.7645 26.3885C33.4952 26.7838 32.9824 26.9241 32.5593 27.1281C32.1618 27.3194 31.7388 27.4469 31.3028 27.5107C30.4054 27.6637 29.4823 27.5872 28.6233 27.3449C28.0207 27.1791 27.4438 26.9241 26.9181 26.6053C26.4437 26.312 25.854 25.9294 25.5334 25.4703C25.277 25.1005 24.7514 24.9602 24.3539 25.1898C24.1873 25.2918 24.2257 25.4448 24.0078 25.5086C23.8154 25.5723 23.4565 25.4576 23.277 25.4065C22.2641 25.1387 21.4308 24.3863 20.8154 23.5702L20.7897 23.5829Z" fill="#FCD9BA"/>
  <path d="M28.726 19.2089C28.6234 19.0431 28.8157 18.6606 28.8926 18.5075C29.0209 18.2142 29.2516 17.9719 29.508 17.7934C29.7645 17.6149 30.1363 17.3726 30.4568 17.4108C30.6747 17.4363 30.8927 17.6531 30.7389 17.8444C30.5978 18.0229 30.1491 18.1632 29.944 18.2397C29.7645 18.3035 29.5593 18.3418 29.3927 18.4565C29.226 18.5585 29.1106 18.7243 28.9824 18.8774C28.8926 18.9921 28.8029 19.1069 28.7132 19.2217L28.726 19.2089Z" fill="#B36332"/>
  <path d="M31.3926 23.0857C31.4696 23.0347 31.5593 23.0092 31.649 22.9964C31.7516 22.9964 31.8542 22.9964 31.9567 23.0219C32.1619 23.0602 32.367 23.0857 32.5721 23.1239C32.6747 23.1367 32.7773 23.1622 32.867 23.2004C33.3029 23.4045 33.2132 23.9911 32.8029 24.1441C32.6491 24.2079 32.4824 24.2079 32.3157 24.1951C31.867 24.1569 31.4183 23.9656 31.2901 23.4937C31.2516 23.3407 31.2644 23.1749 31.4054 23.0857H31.3926Z" fill="#E9B8A2"/>
  <path d="M20.7637 29.6531C20.8791 29.041 20.9945 28.4289 21.0458 27.804C21.1355 26.4523 20.8535 25.0878 20.2509 23.889C19.9688 23.3152 19.6099 22.7923 19.3406 22.2057C18.6739 20.7137 18.7124 18.9538 19.3406 17.4363C20.2894 15.1409 22.1484 13.9421 24.3536 12.9985C25.3023 12.5904 26.328 12.2206 27.3537 12.2971C29.123 12.4246 29.6614 13.8911 29.046 15.4342C28.764 16.1483 28.2896 16.7732 27.8921 17.4363C27.1742 18.6223 26.7767 19.8338 26.6101 21.1855C26.4562 22.4608 26.6101 23.7487 26.7383 25.0367C26.9434 27.0134 27.1101 29.0283 26.7767 30.9921C26.4434 32.9305 23.969 34.091 22.2125 34.2185C21.8022 34.244 21.3663 34.2185 21.0458 33.9889C20.2637 33.4151 20.4304 31.9231 20.533 31.1069C20.5971 30.6223 20.6868 30.125 20.7894 29.6404L20.7637 29.6531Z" fill="#B36332"/>
  <path d="M26.5839 21.2111C26.289 21.0453 25.93 21.0325 25.571 21.2876C25.2505 21.5171 25.071 21.9252 25.0582 22.3205C25.0454 22.7159 25.1736 23.1112 25.3531 23.4683C25.43 23.6213 25.5197 23.7616 25.6351 23.8891C26.0069 24.2972 26.8147 24.871 27.3916 24.667C27.7249 24.5395 27.8147 24.2334 27.8788 23.8636C27.9044 23.6978 27.8788 23.532 27.8531 23.3662C27.7378 22.7796 27.4301 22.397 27.1865 21.887C27.0454 21.5936 26.8275 21.3386 26.5711 21.1983L26.5839 21.2111Z" fill="#FCD9BA"/>
  <path d="M31.0334 19.9358C31.0334 19.9358 30.9822 19.8592 30.9437 19.821C30.854 19.7572 30.7514 19.7062 30.636 19.6935C30.4565 19.668 30.277 19.719 30.1232 19.8082C29.8924 19.9613 29.777 20.1908 29.5847 20.3821C29.4949 20.4714 29.3924 20.5479 29.2642 20.5861C29.3026 20.6244 29.3539 20.6371 29.4052 20.6499C29.7129 20.7009 29.8924 20.4714 30.0591 20.2673C30.1488 20.1653 30.2385 20.0633 30.3668 19.9995C30.5719 19.9102 30.7129 19.974 30.9181 19.9995C31.0334 20.0123 31.0591 19.9868 31.0334 19.9358V19.9358Z" fill="#4B575E"/>
  <path d="M26.6354 15.906C26.6354 15.4852 26.6097 15.0643 26.5456 14.6563C26.5328 14.567 26.2892 14.5542 26.302 14.6563C26.5328 16.11 26.302 17.6276 25.6738 18.9666C25.4943 19.3364 25.2892 19.6935 25.0456 20.0378C24.9943 20.1143 25.2251 20.1781 25.2764 20.1015C26.1354 18.8901 26.6226 17.398 26.6354 15.906Z" fill="#98491F"/>
  <path d="M24.1607 16.5437C24.1607 16.4544 23.9043 16.4544 23.9171 16.5437C24.0069 17.6149 23.7376 18.6989 23.1735 19.6043C23.0068 19.8593 22.8273 20.1016 22.6094 20.3312C22.5325 20.4204 22.7632 20.4587 22.8273 20.3949C23.5838 19.5915 24.0453 18.5458 24.1607 17.4619C24.1864 17.1558 24.1992 16.8498 24.1607 16.5437V16.5437Z" fill="#98491F"/>
  <path d="M43.8024 20.4587C43.6357 19.7191 43.1998 19.0815 42.7254 18.4948C42.251 17.9082 41.7382 17.3089 41.0202 17.0028C40.6228 16.837 40.1869 16.7605 39.7638 16.837C39.7253 16.837 39.6612 16.8625 39.674 16.9263C39.6997 16.9773 39.7894 16.9773 39.8279 16.9773C40.5458 16.8498 41.2254 17.2324 41.7254 17.6914C41.9946 17.9337 42.2254 18.2143 42.4433 18.4948C42.6741 18.7754 42.8921 19.0687 43.0716 19.3748C43.2767 19.7063 43.4562 20.0761 43.5331 20.4587C43.5588 20.548 43.8024 20.548 43.7767 20.4587H43.8024Z" fill="#98491F"/>
  <path d="M41.0203 19.9104C40.828 19.6808 40.61 19.464 40.3664 19.2855C40.3151 19.2472 40.251 19.2472 40.1998 19.26C40.1613 19.26 40.11 19.311 40.1613 19.3492C40.9946 19.9869 41.5588 20.9561 41.6998 21.989C41.7383 22.2823 41.7511 22.5756 41.7126 22.8689C41.7126 22.9582 41.9562 22.9709 41.9562 22.8689C42.0588 21.8105 41.6998 20.7265 41.0203 19.9104V19.9104Z" fill="#98491F"/>
  <path d="M24.2634 29.7934C23.8787 30.6861 23.1095 31.4258 22.1864 31.7573C21.9171 31.8593 21.6094 31.9486 21.3402 31.8083C21.2889 31.7828 21.212 31.7828 21.1607 31.8083C21.1223 31.8338 21.1094 31.8721 21.1607 31.9103C21.43 32.0634 21.7505 32.0379 22.0454 31.9614C22.3146 31.8976 22.571 31.7828 22.8018 31.6553C23.2762 31.4002 23.6993 31.0432 24.0326 30.6096C24.2121 30.3673 24.3788 30.1123 24.4941 29.8317C24.5326 29.7424 24.289 29.7169 24.2505 29.7934H24.2634Z" fill="#98491F"/>
  <path d="M138.589 16.3779C139.102 16.1611 139.64 16.0463 140.192 16.0335C139.602 15.6892 138.781 15.7402 138.243 16.1738C138.204 16.2121 138.153 16.2376 138.102 16.2376C138.063 16.2376 138.038 16.2121 137.999 16.1866C137.756 16.008 137.589 15.7657 137.384 15.549C136.935 15.0771 136.486 14.618 136.012 14.1717C136.153 14.9113 136.499 15.6127 137.012 16.1738C136.974 16.1356 136.268 16.2503 136.153 16.2503C135.82 16.2503 135.474 16.1993 135.153 16.1356C135.153 16.3651 135.371 16.5436 135.602 16.6074C135.82 16.6712 136.063 16.6584 136.294 16.7094C136.55 16.7732 136.781 16.9262 136.948 17.1303C136.974 17.1558 136.999 17.194 136.986 17.2323C136.986 17.3088 136.884 17.347 136.794 17.347C136.422 17.3853 136.038 17.4236 135.666 17.4491C135.307 17.4873 134.922 17.5383 134.691 17.8061C134.602 17.9209 134.538 18.0484 134.486 18.1887C134.153 18.9921 133.691 19.6935 133.371 20.4969C133.025 21.3513 132.614 22.1675 132.166 22.9836C131.755 23.7233 131.089 24.5012 130.807 25.2918C130.781 25.3683 130.845 25.4448 130.922 25.4703C130.999 25.4958 131.076 25.4703 131.166 25.4703C131.499 25.4321 131.858 25.4831 132.166 25.6234C131.679 25.6999 131.191 25.8147 130.73 25.9804C129.922 26.261 129.896 27.5107 130.332 28.1356C131.23 29.4363 133.717 27.9188 134.627 27.3322C135.538 26.7456 136.358 26.0442 137.063 25.2408C137.307 24.973 137.64 24.6414 137.833 24.3354C137.974 24.1058 137.91 23.9273 137.768 23.6085C137.551 23.1366 136.986 22.244 136.486 22.0144C137.127 22.3077 137.768 22.601 138.294 23.0729C138.307 23.0729 138.32 23.0984 138.345 23.0984C138.371 23.0984 138.384 23.0729 138.397 23.0601C138.73 22.499 139.038 22.0272 139.217 21.4023C139.384 20.8285 139.653 20.0123 139.615 19.4257C139.576 18.8773 138.922 18.1249 138.384 18.0102C139.025 18.1504 139.769 18.278 140.294 17.8826C139.448 17.8189 138.666 17.245 138.345 16.4671C138.422 16.4289 138.512 16.3906 138.589 16.3524V16.3779Z" fill="#9DCAD4"/>
  <path d="M138.627 11.5448C138.448 12.6415 138.23 13.7382 137.961 14.8222C137.691 15.9061 137.371 16.9773 136.999 18.023C136.627 19.0687 136.191 20.0889 135.704 21.0836C135.217 22.0655 134.653 23.022 134.025 23.9146C133.396 24.8073 132.691 25.6617 131.922 26.4396C131.819 26.5416 131.73 26.6309 131.627 26.7329C131.576 26.7839 131.627 26.8477 131.691 26.8604C131.755 26.886 131.871 26.886 131.922 26.8222C132.717 26.057 133.448 25.2154 134.102 24.3227C134.755 23.43 135.332 22.4736 135.845 21.4917C136.358 20.5097 136.807 19.4895 137.191 18.4438C137.589 17.3854 137.922 16.3142 138.204 15.2302C138.486 14.1463 138.717 13.0496 138.909 11.9529C138.935 11.8126 138.961 11.6723 138.974 11.5448C138.999 11.43 138.653 11.4173 138.627 11.5448V11.5448Z" fill="white"/>
  <path d="M80.9584 121.101C80.984 120.769 80.9584 120.45 80.8045 120.157C80.7404 120.68 80.5738 121.177 80.3302 121.649C80.3045 121.024 80.2404 120.348 79.8942 119.8C79.5096 119.201 78.6891 119.086 78.0609 118.856C77.9198 118.805 77.7147 118.589 77.5737 118.601C77.548 118.933 77.5865 119.277 77.6121 119.609C77.6249 119.889 77.5993 120.246 77.6634 120.514C77.5352 120.042 77.3685 119.57 77.1634 119.124C76.9839 118.754 76.7018 118.142 76.3429 117.9C76.189 117.798 75.9967 117.76 75.8172 117.619C75.6121 117.466 75.4069 117.301 75.2018 117.135C74.8172 116.803 74.4582 116.459 74.1377 116.076C73.8556 115.758 73.6248 115.388 73.3812 115.031C73.253 114.839 73.1248 114.648 72.971 114.47C72.9197 114.406 72.7402 114.1 72.6761 114.1C72.6248 114.1 72.5863 114.138 72.5607 114.189C72.5351 114.24 72.5351 114.291 72.5351 114.342C72.5351 114.635 72.5351 114.941 72.5222 115.235C72.4197 114.929 72.3043 114.623 72.1504 114.342C71.9966 114.061 71.7915 113.794 71.5094 113.628C71.3427 113.526 70.9196 113.679 70.753 113.73C68.9196 114.304 69.6247 116.127 70.2145 117.441C70.4196 117.913 70.6504 118.372 70.894 118.818C71.1248 119.239 71.2914 119.634 71.7273 119.851C72.2274 120.093 72.8043 120.093 73.33 120.259C73.1376 120.399 72.8684 120.412 72.6248 120.399C72.3812 120.399 72.1248 120.374 71.9068 120.476C71.8684 120.807 72.0222 120.693 72.2145 120.833C72.4325 120.999 72.612 121.305 72.8043 121.496C73.0094 121.713 73.2274 121.904 73.4582 122.095C73.5864 122.21 73.971 122.593 74.1377 122.593C74.3043 122.593 74.689 122.899 74.8556 122.988C76.0608 123.536 77.3685 123.677 78.5096 122.848C78.4455 123.332 78.3686 123.817 78.3045 124.302C78.8173 123.741 79.3301 123.192 79.8045 122.606C79.8942 123.001 80.0737 123.371 80.3302 123.69C80.2404 123.587 80.3302 122.988 80.3302 122.848C80.702 123.026 80.8943 123.69 81.0225 124.034C81.1892 123.447 80.984 122.822 80.7789 122.248C81.3174 122.019 81.8687 121.802 82.4071 121.573C81.8174 121.369 81.1122 121.573 80.7148 122.032C80.8045 121.738 80.8814 121.42 80.9071 121.101H80.9584Z" fill="#9DCAD4"/>
  <path d="M83.6894 122.453C82.7407 122.453 81.7791 122.363 80.8432 122.159C79.9201 121.968 78.997 121.662 78.138 121.292C77.2533 120.91 76.42 120.438 75.6251 119.889C74.843 119.341 74.125 118.716 73.4712 118.027C72.8173 117.339 72.2275 116.574 71.7403 115.758C71.6762 115.656 71.6121 115.554 71.5609 115.452C71.4967 115.349 71.1634 115.388 71.2275 115.503C71.7019 116.344 72.2788 117.148 72.9327 117.874C73.5866 118.601 74.3173 119.252 75.0994 119.838C75.8815 120.412 76.7277 120.91 77.6123 121.33C78.4969 121.738 79.4329 122.07 80.3816 122.3C81.3432 122.529 82.3304 122.657 83.3176 122.682C83.433 122.682 83.5612 122.682 83.6766 122.682C83.7279 122.682 83.8432 122.657 83.8432 122.593C83.8432 122.516 83.7279 122.504 83.6766 122.504L83.6894 122.453Z" fill="#F2FFFC"/>
  <path d="M148.59 131.417C148.308 131.239 148.013 131.111 147.679 131.111C148.115 131.417 148.487 131.787 148.782 132.221C148.218 131.953 147.577 131.685 146.936 131.736C146.218 131.787 145.743 132.463 145.231 132.91C145.115 133.012 144.833 133.088 144.782 133.228C145.064 133.407 145.397 133.534 145.705 133.662C145.961 133.777 146.256 133.968 146.538 134.032C146.051 133.917 145.564 133.84 145.064 133.828C144.654 133.815 143.974 133.777 143.602 133.981C143.436 134.07 143.307 134.223 143.115 134.312C142.884 134.427 142.641 134.529 142.397 134.631C141.936 134.822 141.448 134.963 140.961 135.077C140.538 135.179 140.115 135.205 139.679 135.256C139.448 135.281 139.218 135.307 139 135.358C138.923 135.371 138.564 135.383 138.538 135.447C138.512 135.486 138.538 135.549 138.564 135.588C138.589 135.626 138.641 135.651 138.692 135.677C138.948 135.817 139.218 135.957 139.474 136.11C139.154 136.059 138.833 136.008 138.512 136.021C138.192 136.021 137.859 136.085 137.577 136.251C137.41 136.34 137.346 136.799 137.32 136.965C136.974 138.852 138.923 139.082 140.359 139.171C140.871 139.209 141.384 139.222 141.897 139.222C142.384 139.222 142.807 139.247 143.205 138.967C143.654 138.648 143.923 138.138 144.32 137.755C144.359 137.998 144.243 138.227 144.115 138.444C143.987 138.661 143.859 138.865 143.846 139.107C144.115 139.286 144.09 139.107 144.308 139.005C144.551 138.89 144.91 138.878 145.179 138.788C145.461 138.699 145.743 138.61 146.013 138.495C146.167 138.431 146.692 138.278 146.769 138.125C146.846 137.972 147.308 137.781 147.449 137.666C148.5 136.85 149.231 135.779 149.026 134.389L150.231 135.243C149.974 134.529 149.718 133.815 149.423 133.126C149.808 133.241 150.231 133.254 150.628 133.177C150.5 133.203 150 132.846 149.885 132.769C150.218 132.527 150.885 132.667 151.269 132.718C150.821 132.297 150.179 132.183 149.564 132.093C149.615 131.507 149.679 130.92 149.731 130.346C149.282 130.767 149.115 131.481 149.346 132.055C149.115 131.838 148.872 131.622 148.615 131.443L148.59 131.417Z" fill="#9DCAD4"/>
  <path d="M151.064 129.658C150.628 130.499 150.089 131.29 149.487 132.017C148.884 132.744 148.192 133.407 147.448 133.993C146.692 134.593 145.884 135.103 145.025 135.549C144.179 135.983 143.282 136.327 142.358 136.582C141.435 136.837 140.487 137.003 139.525 137.054C139.41 137.054 139.281 137.054 139.166 137.067C139.038 137.067 138.922 137.386 139.051 137.386C140.025 137.36 140.999 137.22 141.948 136.99C142.897 136.761 143.82 136.416 144.705 135.996C145.589 135.575 146.423 135.065 147.205 134.478C147.987 133.891 148.718 133.216 149.359 132.489C150.012 131.749 150.589 130.946 151.064 130.078C151.128 129.976 151.179 129.862 151.23 129.76C151.256 129.709 151.295 129.607 151.23 129.568C151.166 129.53 151.089 129.632 151.064 129.67V129.658Z" fill="white"/>
  <path d="M16.5962 77.1559C16.6731 77.6915 16.5962 78.2399 16.4039 78.75C16.4039 78.699 16.8526 78.5077 16.9167 78.4567C17.0962 78.3292 17.2501 78.1634 17.4039 78.0104C17.6732 77.7426 17.7886 77.4875 17.9424 77.1304C18.1732 77.6023 18.4296 78.0486 18.7117 78.4822C18.9681 78.1251 18.904 77.5768 18.6732 77.2197C18.4809 76.9264 18.186 76.6714 18.1347 76.327C18.1219 76.2378 18.1347 76.1485 18.186 76.0847C18.2245 76.0465 18.2886 76.0337 18.3399 76.021C18.686 75.9445 19.045 75.8807 19.404 75.8424C18.9937 75.6639 18.4809 75.7277 18.1219 76.0082C18.3783 75.4854 18.4552 74.733 18.2373 74.1974C18.1604 74.0188 18.0706 73.8531 17.9809 73.6873C17.9296 73.598 17.8655 73.496 17.8142 73.4067C17.8142 73.9933 17.8014 74.5672 17.7886 75.1538C17.6603 74.5927 17.5706 74.0571 17.3014 73.5343C17.3014 73.7128 17.2885 73.8786 17.2373 74.0571C17.1603 74.3632 16.9937 74.6565 16.7757 74.886C16.7372 74.3504 16.5962 73.5343 16.2244 73.1134C15.9295 72.7946 15.4039 72.6161 15.0449 72.361C14.9423 72.2845 14.8013 72.1315 14.6859 72.1187C14.6987 72.4376 14.7885 72.7691 14.8397 73.0879C14.891 73.4067 14.9295 73.7255 14.9936 74.0316C14.8397 73.394 14.6987 72.7564 14.5449 72.1187C14.4936 71.8764 14.25 71.7362 14.0705 71.5831C13.8654 71.3918 13.673 71.2006 13.4679 71.0093C12.2884 69.8105 11.3012 68.4333 10.0576 67.2983C9.59601 66.8775 9.04471 66.4694 8.41649 66.4822C6.24976 66.5077 7.73698 69.3132 8.17289 70.1676C8.27546 70.3717 8.42931 70.6012 8.62162 70.7415C8.73701 70.818 8.87804 70.8562 9.00625 70.8945C9.73704 71.1113 10.4678 71.3791 11.1602 71.6979C10.4806 71.6596 9.80114 71.6214 9.12163 71.5831C9.07035 71.5831 9.03189 71.5831 8.99343 71.6086C8.92932 71.6597 9.17292 71.9785 9.2242 72.0422C9.33959 72.2335 9.45498 72.412 9.57037 72.6033C9.81396 72.9731 10.0576 73.343 10.314 73.7C10.8268 74.4142 11.3781 75.1028 11.955 75.7659C12.1474 75.9827 12.3397 76.1995 12.5448 76.4036C12.7884 76.6586 13.032 76.9392 13.3141 77.1559C13.5192 77.309 13.8782 77.3217 14.1218 77.3345C14.7628 77.36 15.4167 77.1687 15.9423 76.7861C15.9936 76.8371 15.9423 76.9264 15.9039 76.9902C15.7629 77.207 15.5962 77.411 15.4167 77.6023C15.5705 77.6533 15.7244 77.6023 15.8782 77.6023C16.0321 77.6023 16.1988 77.5513 16.327 77.462C16.4039 77.411 16.5962 77.2962 16.5834 77.1942L16.5962 77.1559Z" fill="#9DCAD5"/>
  <path d="M21.8789 77.5129C20.9174 77.2578 19.9814 76.939 19.0711 76.5565C18.1609 76.1739 17.2762 75.7276 16.43 75.2175C15.5839 74.7074 14.7762 74.1462 14.0069 73.5214C13.2376 72.8965 12.5069 72.2334 11.8402 71.5065C11.1735 70.7924 10.5453 70.0272 9.98114 69.2238C9.90421 69.1218 9.84011 69.0198 9.76318 68.9178C9.72472 68.854 9.62215 68.8412 9.55805 68.854C9.51959 68.854 9.39138 68.905 9.44266 68.9688C9.99396 69.7977 10.6094 70.5883 11.276 71.328C11.9427 72.0676 12.6607 72.7562 13.43 73.3939C14.1992 74.0315 15.0197 74.6308 15.8659 75.1537C16.7121 75.6765 17.5967 76.1484 18.507 76.5565C19.4301 76.9645 20.3661 77.3089 21.3276 77.5767C21.443 77.6149 21.5712 77.6404 21.6866 77.6787C21.7635 77.6914 21.8661 77.7042 21.9174 77.6404C21.9687 77.5894 21.9174 77.5256 21.8533 77.5129H21.8789Z" fill="#F2FFFC"/>
</svg>
