<svg width="238" height="206" viewBox="0 0 238 206" fill="none"
  xmlns="http://www.w3.org/2000/svg">
  <path d="M158.528 205.654C159.084 205.654 159.64 205.693 160.196 205.731C160.751 205.77 161.327 205.808 161.882 205.731C162.4 205.674 162.918 205.52 163.378 205.271C164.183 204.868 164.24 203.392 164.068 202.605C163.723 200.937 163.033 199.384 162.803 197.658C162.764 197.428 162.726 197.159 162.515 197.044C162.419 197.006 162.304 196.986 162.208 196.986C161.633 196.986 161.058 196.986 160.483 196.967C159.87 196.967 159.218 196.967 158.643 197.217C157.972 197.543 157.512 198.195 157.167 198.847C156.688 199.748 156.457 200.4 155.518 200.803C154.483 201.263 153.486 201.8 152.451 202.279C151.569 202.701 150.668 203.123 149.786 203.526C149.307 203.756 148.828 203.986 148.349 204.197C147.984 204.37 147.275 204.542 147.026 204.849C146.163 205.904 150.227 205.981 150.764 205.942C152.278 205.827 153.735 205.597 155.25 205.578C156.342 205.578 157.435 205.578 158.528 205.597V205.654Z" fill="#FCD9BA"/>
  <path d="M153.467 164.309C153.601 166.092 153.716 167.895 153.946 169.698C154.368 172.996 154.751 176.295 155.096 179.593C155.825 186.286 156.419 192.979 156.879 199.691C157.013 201.551 157.819 201.512 159.39 201.704C160.502 201.838 162.093 202.011 162.803 200.918C163.397 199.978 163.263 198.176 163.397 197.082C163.531 195.874 163.665 194.666 163.78 193.458C164.183 189.412 164.509 185.365 164.758 181.319C164.988 177.541 164.969 173.782 165.237 170.004C165.525 165.92 165.659 161.816 165.659 157.712C165.659 153.8 165.621 148.91 163.474 145.458C161.787 142.735 156.898 142.409 154.598 144.48C150.898 147.836 152.681 156.811 153.179 161.241C153.294 162.257 153.371 163.273 153.448 164.29L153.467 164.309Z" fill="#FCD9BA"/>
  <path d="M183.084 88.8472C181.973 87.7158 180.477 87.0446 178.925 86.6035C176.778 87.6583 174.65 88.7322 172.445 89.6527C170.126 90.6307 167.71 91.4745 165.218 91.8389C161.039 101.408 157.474 111.265 154.541 121.276C150.937 133.53 148.406 146.398 148.157 159.189C148.713 159.17 149.288 159.15 149.844 159.131C150.477 159.112 151.109 159.093 151.742 159.054C151.742 159.054 151.742 159.054 151.761 159.054C152.01 159.054 152.26 159.035 152.509 159.035C153.736 158.997 154.962 158.939 156.189 158.901C156.745 158.882 157.301 158.863 157.857 158.844C157.934 158.844 158.03 158.844 158.106 158.844C158.279 158.844 158.451 158.844 158.624 158.824C160.368 158.767 162.113 158.69 163.876 158.633C163.991 158.633 164.106 158.633 164.221 158.633C164.471 158.633 164.739 158.613 164.988 158.613C165.237 158.613 165.506 158.613 165.793 158.613C166.809 158.652 167.883 158.69 168.266 157.923C168.63 157.233 168.19 154.97 168.285 154.088C168.285 154.068 168.285 154.03 168.285 154.011C168.573 151.46 169.321 148.967 170.068 146.513C171.429 142.025 172.79 137.538 174.151 133.05C175.072 130.001 176.452 127.105 177.64 124.095C177.889 123.462 178.119 122.829 178.35 122.196C178.675 121.237 179.02 120.278 179.346 119.32C179.634 118.476 179.921 117.632 180.209 116.769C180.343 116.385 180.477 115.983 180.592 115.599C180.631 115.465 180.688 115.331 180.727 115.177C182.183 110.709 183.468 106.164 184.273 101.542C184.541 100.027 184.752 98.4933 184.886 96.94C185.136 94.3319 185.116 91.4553 183.525 89.3842C183.372 89.1924 183.219 89.0006 183.046 88.8281L183.084 88.8472Z" fill="#DFB880"/>
  <path d="M235.877 177.656C236.049 177.138 236.241 176.601 236.433 176.084C236.625 175.547 236.835 175.029 236.931 174.473C237.027 173.955 237.027 173.418 236.931 172.9C236.778 171.999 235.398 171.539 234.573 171.462C232.867 171.309 231.18 171.52 229.474 171.232C229.244 171.194 228.976 171.174 228.803 171.328C228.727 171.404 228.688 171.5 228.669 171.615C228.497 172.152 228.324 172.708 228.132 173.245C227.941 173.84 227.749 174.454 227.845 175.067C227.96 175.815 228.458 176.429 228.976 176.947C229.704 177.675 230.241 178.078 230.375 179.094C230.509 180.207 230.739 181.338 230.893 182.45C231.027 183.428 231.18 184.387 231.315 185.365C231.391 185.883 231.468 186.42 231.545 186.938C231.602 187.321 231.545 188.069 231.794 188.395C232.541 189.527 233.826 185.653 233.941 185.135C234.286 183.659 234.478 182.201 234.899 180.744C235.206 179.689 235.532 178.653 235.877 177.618V177.656Z" fill="#FCD9BA"/>
  <path d="M198.458 158.326C199.972 159.304 201.448 160.301 203.04 161.222C205.915 162.89 208.771 164.578 211.608 166.303C217.359 169.774 223.053 173.361 228.669 177.062C230.222 178.078 230.682 177.426 231.794 176.295C232.58 175.508 233.673 174.319 233.232 173.092C232.848 172.037 231.334 171.059 230.548 170.311C229.666 169.468 228.785 168.643 227.884 167.799C224.912 165.038 221.903 162.315 218.835 159.668C215.96 157.194 212.969 154.931 210.132 152.419C207.065 149.715 203.883 147.107 200.605 144.653C197.48 142.294 193.589 139.36 189.544 138.976C186.343 138.669 183.141 142.37 183.391 145.458C183.812 150.425 192.017 154.452 195.851 156.734C196.733 157.252 197.595 157.808 198.439 158.364L198.458 158.326Z" fill="#FCD9BA"/>
  <path d="M205.551 141.834C205.513 141.719 205.474 141.603 205.436 141.488C204.823 139.609 204.228 137.711 203.692 135.793C202.618 131.977 201.698 128.122 200.931 124.229C199.436 116.558 198.592 108.753 198.382 100.948C198.267 96.4031 198.382 91.7623 197.289 87.3132C196.637 84.5709 195.87 81.4067 193.877 79.3931C190.081 81.4642 186.151 83.3052 182.183 85.0886C179.365 86.3543 176.643 87.8118 173.825 89.0775C173.825 89.1158 173.825 89.135 173.825 89.1734V89.2117C173.825 89.4994 173.825 89.787 173.825 90.0939C173.825 90.8418 173.825 91.6089 173.825 92.3568C173.825 93.1238 173.844 93.8717 173.864 94.6388C174.017 99.9125 174.496 105.186 175.225 110.422C175.34 111.265 175.474 112.128 175.608 112.972C175.685 113.413 175.742 113.854 175.819 114.295C175.819 114.334 175.819 114.372 175.819 114.391C176.356 117.651 176.969 120.892 177.678 124.133C179.902 134.431 182.873 144.595 186.017 154.548C186.611 156.408 187.704 156.868 189.008 156.619C189.314 156.562 189.621 156.466 189.947 156.351C190.177 156.274 190.388 156.159 190.618 156.063C190.656 156.044 190.714 156.025 190.752 156.005C192.535 155.104 194.375 153.57 195.64 152.841C195.64 152.841 195.64 152.841 195.659 152.841C196.177 152.534 196.714 152.247 197.231 151.94C197.327 151.882 197.423 151.825 197.5 151.786L198.132 151.422C199.263 150.77 200.375 150.118 201.449 149.428C201.966 149.083 202.503 148.757 203.04 148.45H203.059C203.27 148.315 203.481 148.2 203.692 148.104C204.056 147.913 204.439 147.759 204.823 147.625C206.011 147.222 206.778 146.743 206.663 145.381C206.586 144.288 205.896 143.023 205.494 141.949L205.551 141.834Z" fill="#DFB880"/>
  <path d="M193.129 86.1626C192.899 84.1682 192.669 82.1546 192.4 80.1602C192.151 80.2944 191.921 80.4095 191.672 80.5437C192.592 87.831 193.282 95.1374 194.03 102.444C195.237 114.142 196.675 125.878 199.627 137.289C200.605 141.028 201.736 144.729 203.078 148.354H203.097C203.308 148.22 203.519 148.104 203.73 148.009C200.662 139.667 198.669 130.922 197.269 122.139C195.352 110.23 194.451 98.1674 193.11 86.1818L193.129 86.1626Z" fill="#DFB880"/>
  <path d="M191.518 127.892C190.292 121.679 189.237 115.427 188.336 109.156C187.435 102.847 186.707 96.5375 186.151 90.1899C185.959 87.9653 185.787 85.7216 185.633 83.4971C185.384 83.6121 185.135 83.7272 184.886 83.8423C184.982 85.2038 185.077 86.5846 185.192 87.9461C185.71 94.2938 186.4 100.622 187.263 106.931C188.125 113.241 189.141 119.531 190.33 125.782C191.423 131.478 192.573 137.193 194.221 142.754C195.122 145.803 196.196 148.814 197.519 151.71L198.151 151.346C197.174 149.179 196.33 146.954 195.602 144.71C193.819 139.226 192.611 133.568 191.499 127.911L191.518 127.892Z" fill="#DFB880"/>
  <path d="M183.008 127.834C182.164 123.635 181.417 119.416 180.765 115.177C179.691 108.159 178.905 101.121 178.407 94.0443C178.235 91.7239 178.1 89.3843 178.004 87.0447C177.755 87.1597 177.506 87.294 177.257 87.409C177.544 93.795 178.081 100.181 178.829 106.529C178.714 106.529 178.618 106.586 178.58 106.663C177.544 108.715 176.548 110.805 175.608 112.895C173.174 118.342 171.123 123.961 169.436 129.694C167.135 137.538 165.525 145.592 164.682 153.723C164.509 155.334 164.375 156.964 164.26 158.575C164.509 158.575 164.777 158.556 165.027 158.556C165.391 153.397 166.043 148.258 166.982 143.176C168.496 135.064 170.739 127.086 173.71 119.377C174.381 117.651 175.091 115.925 175.819 114.219C176.797 111.956 177.851 109.712 178.944 107.507C179.02 108.063 179.078 108.6 179.155 109.156C179.481 111.687 179.845 114.219 180.247 116.75C181.628 125.476 183.449 134.144 185.692 142.697C186.899 147.28 188.164 151.902 189.947 156.293C190.177 156.216 190.388 156.101 190.618 156.005C189.123 152.285 187.992 148.43 186.957 144.557C185.461 139.034 184.139 133.453 183.008 127.834V127.834Z" fill="#DFB880"/>
  <path d="M162.285 105.186C163.972 100.335 165.928 95.5594 168.458 91.1104C168.132 91.2062 167.825 91.3021 167.5 91.3788C165.353 95.2142 163.627 99.2798 162.132 103.422C160.311 108.427 158.72 113.528 157.263 118.649C154.292 129.043 152.049 139.724 151.646 150.54C151.55 153.378 151.57 156.236 151.742 159.074C151.742 159.074 151.742 159.074 151.761 159.074C152.01 159.074 152.26 159.055 152.509 159.055C152.049 151.537 152.624 143.943 153.889 136.502C155.691 125.859 158.72 115.369 162.266 105.186H162.285Z" fill="#DFB880"/>
  <path d="M173.825 92.3185C174.266 91.0144 174.707 89.7296 175.148 88.4255C174.841 88.579 174.534 88.7132 174.209 88.8666C174.074 89.2693 173.94 89.6529 173.806 90.0556C170.451 99.8359 167.154 109.655 164.413 119.646C161.442 130.519 159.141 141.623 158.221 152.88C158.068 154.874 157.933 156.849 157.876 158.844C157.953 158.844 158.048 158.844 158.125 158.844C158.298 158.844 158.47 158.844 158.643 158.825C158.892 151.94 159.697 145.075 160.905 138.286C162.918 127.067 166.023 116.079 169.493 105.244C170.873 100.929 172.33 96.6333 173.787 92.3377L173.825 92.3185Z" fill="#DFB880"/>
  <path d="M161.538 34.1543C160.464 32.3708 158.528 31.4312 156.496 31.3928C156.017 31.3928 155.576 31.4504 155.173 31.5654C154.79 31.8722 154.445 32.1983 154.1 32.5434C153.275 33.5982 152.566 34.7296 151.953 35.9378C151.723 36.3789 151.512 36.8199 151.301 37.2802C151.358 37.3952 151.378 37.5487 151.301 37.7021C150.227 39.965 149.307 42.3046 148.502 44.6633C146.47 49.4768 145.339 54.808 144.246 59.9091C143.173 64.8568 141.083 68.5771 138.074 72.6235C135.965 75.4617 133.837 78.3191 131.729 81.1573C130.751 82.4805 130.022 83.8996 131.805 84.7434C132.975 85.2995 134.47 85.4146 135.754 85.453C138.361 85.5105 139.32 85.1845 141.313 83.3818C143.882 81.0614 146.144 78.415 148.176 75.5959C152.24 69.9387 155.346 63.6486 158.068 57.2627C159.199 54.6162 160.56 51.7972 161.058 48.959C161.576 46.0249 162.208 43.1292 162.496 40.1567C162.707 37.913 162.764 36.1871 161.557 34.1543H161.538Z" fill="#FCD9BA"/>
  <path d="M161.538 34.1542C160.924 33.1378 159.985 32.3516 158.892 31.8913C158.279 31.6228 157.646 31.5653 157.014 31.4119C156.592 31.316 155.844 30.9516 155.442 31.0284C155.058 31.1051 154.732 31.3735 154.445 31.642C152.528 33.483 151.339 35.9377 150.285 38.3732C147.755 44.1646 145.569 50.1095 143.748 56.1695C143.652 56.5147 143.537 56.879 143.671 57.2242C143.863 57.6845 144.822 57.7228 145.243 57.8954C146.7 58.4707 148.119 59.1227 149.537 59.7748C150.189 60.0816 150.86 60.3884 151.512 60.6569C152.029 60.8679 152.585 61.0596 153.122 61.213C154.042 61.5007 154.982 61.75 155.921 62.0377C156.668 60.4651 157.359 58.8734 158.049 57.2626C159.18 54.6161 160.541 51.7971 161.039 48.9589C161.557 46.0248 162.189 43.1291 162.477 40.1566C162.688 37.9129 162.745 36.187 161.538 34.1542V34.1542Z" fill="#99A558"/>
  <path d="M196.159 79.9107C195.468 77.8587 194.778 75.8068 194.088 73.7548C192.689 69.6701 191.27 65.5854 189.813 61.5007C187.513 55.0764 185.117 48.6712 182.644 42.2853C182.203 41.2881 181.781 40.31 181.34 39.3128C180.401 37.1842 179.558 34.9788 178.369 32.9844C177.257 31.1242 175.839 29.3024 174.133 27.9408C172.522 26.656 170.567 25.9656 168.784 24.9876C165.947 24.489 162.957 24.8342 160.311 26.0615C158.471 26.9053 156.976 28.286 155.768 29.9544C153.448 33.157 152.241 37.4335 151.934 41.0388C151.436 46.8494 152.739 52.6601 154.024 58.3557C155.327 64.1088 156.631 69.8811 157.8 75.6725C158.394 78.6258 158.95 81.5791 159.449 84.5515C159.909 87.2555 159.755 90.9375 160.752 93.4689C161.193 94.5811 162.477 94.8688 163.858 94.9263C164.854 94.9647 165.89 94.8688 166.714 94.888C169.283 94.888 171.832 94.7345 174.382 94.3702C179.462 93.6415 184.427 92.1456 189.066 89.9786C192.037 88.5787 195.564 86.8911 197.922 84.5899C196.868 83.6119 196.619 81.2723 196.178 79.9299L196.159 79.9107Z" fill="#99A558"/>
  <path d="M125.633 76.9958C125.633 76.9958 125.498 77.0533 125.441 77.0916C119.901 79.7572 116.259 86.2007 113.077 91.2251C107.517 100.027 101.92 108.945 98.7376 118.84C97.549 122.58 99.7344 124.593 102.629 126.607C106.118 129.042 109.779 131.267 113.747 132.82C117.217 134.182 120.917 135.045 124.655 135.045C127.952 135.045 131.652 135.141 134.623 133.549C138.035 131.708 140.202 128.199 141.889 124.708C145.071 118.15 146.604 111.323 148.617 104.438C148.675 104.227 148.732 104.016 148.866 103.844C149.192 103.403 149.825 103.383 150.362 103.326C153.735 103.038 156.803 100.679 158.164 97.6111C159.831 93.7949 157.704 90.995 154.962 88.3677C151.454 84.9926 147.697 81.8859 143.729 79.0477C138.227 75.1356 131.767 74.1384 125.614 76.9958H125.633Z" fill="#FFFDF8"/>
  <path d="M168.764 24.9877C167.633 24.374 165.237 24.7576 164.01 24.9493C162.592 25.1795 160.809 25.5822 159.544 26.2726C157.032 27.6341 156.074 31.9298 156.131 34.5571C156.151 35.5159 156.457 36.6665 157.397 36.8775C158.336 37.0884 159.103 36.1871 159.697 35.4392C162.074 32.4668 165.448 30.4915 168.208 27.8643C168.994 27.1164 170.049 25.7164 168.764 25.0069V24.9877Z" fill="#FCD9BA"/>
  <path d="M166.196 24.0288C165.621 23.2425 164.95 22.4946 164.509 21.6317C163.819 20.2701 163.282 18.8318 162.4 17.5853C161.787 16.7415 160.962 15.9936 160.004 15.6292C158.873 15.1882 158.125 15.6292 157.282 16.358C155.576 17.7962 154.042 19.8482 153.946 22.1686C153.946 22.7056 154.004 23.2425 154.119 23.7603C154.291 24.489 154.56 25.1986 154.847 25.889C155.346 27.0971 155.882 28.2861 156.458 29.4559C157.378 31.3161 158.24 32.4092 160.464 31.527C161.346 31.1818 162.113 30.5873 162.879 30.012C164.413 28.8231 165.678 27.4998 167.231 26.3492C167.365 26.2533 167.499 26.1574 167.538 26.004C167.691 25.4862 166.483 24.4315 166.196 24.048V24.0288Z" fill="#FCD9BA"/>
  <path d="M156.803 29.0341C156.688 29.1683 156.573 29.3026 156.458 29.4368C155.883 28.267 155.346 27.078 154.848 25.8699C154.56 25.1795 154.292 24.47 154.119 23.7412C154.215 23.6645 154.33 23.5878 154.426 23.5111C155.461 22.744 156.784 21.4592 158.183 22.2262C159.717 23.07 158.95 25.6206 158.394 26.8287C158.03 27.615 157.34 28.3245 156.822 28.9957L156.803 29.0341Z" fill="#E6C1A0"/>
  <path d="M147.41 10.4899C147.41 10.4899 147.391 10.5666 147.372 10.605C147.276 10.8926 147.352 11.3145 147.295 11.6405C147.237 12.0432 147.218 12.446 147.257 12.8487C147.314 13.5774 147.87 14.2102 147.927 14.939C147.947 15.265 147.793 15.5718 147.678 15.8786C147.544 16.243 147.41 16.6074 147.237 16.9526C146.911 17.6813 146.528 18.3717 146.106 19.0429C145.8 19.5031 145.474 20.0209 145.55 20.5579C145.665 21.44 146.624 21.6126 147.333 21.8044C148.1 22.0153 148.349 22.9933 148.483 23.6454C148.675 24.5467 148.733 25.4672 148.963 26.3685C149.25 27.4808 149.825 28.4013 151.09 28.4204C152.873 28.4396 154.637 27.9027 156.17 27.0013C157.359 26.2918 158.413 25.3713 159.314 24.3166C160.081 23.4152 161.289 22.6482 161.73 21.5167C162.19 20.3469 163.282 20.4236 164.26 19.7524C165.276 19.062 165.928 17.758 166.292 16.6457C166.714 15.4184 166.867 14.1144 167.04 12.8103C167.193 11.5255 167.346 10.2022 166.982 8.95573C166.541 7.49827 165.41 6.32847 164.088 5.54221C162.765 4.75595 161.27 4.31488 159.774 3.95051C158.145 3.5478 156.65 3.20261 154.963 3.45191C153.774 3.6245 152.701 4.02722 151.589 4.41076C150.554 4.77513 149.768 5.61892 149.135 6.50106C148.311 7.69004 147.832 9.08997 147.41 10.4707V10.4899Z" fill="#FCD9BA"/>
  <path d="M162.439 22.7439C162.094 22.533 161.788 22.2645 161.519 21.9577C160.963 21.3056 160.561 20.5194 160.158 19.7715C159.966 19.3879 159.756 19.0236 159.449 18.7167C159.008 18.2757 158.395 18.0647 157.858 17.7195C155.5 16.2045 156.324 12.9636 154.791 10.8541C154.12 9.95282 153.104 9.30081 151.992 9.12821C150.995 8.95562 149.922 9.12821 148.982 8.74467C147.027 7.90088 145.781 5.33115 147.698 3.81617C148.35 3.31756 149.078 2.91484 149.864 2.68472C150.535 2.47377 151.244 2.37789 151.858 2.05188C152.816 1.57245 153.506 0.613596 154.522 0.230055C155.078 0.0191069 155.692 0.0191069 156.286 -7.01995e-05C157.264 -7.01995e-05 158.26 -0.0192472 159.161 0.345117C159.813 0.613596 160.369 1.05467 161.002 1.3615C162.478 2.09023 164.375 2.12858 165.391 3.41345C166.197 4.42983 166.139 5.86811 166.503 7.11462C166.925 8.5529 167.903 9.74188 168.669 11.0459C169.417 12.35 169.973 13.9417 169.398 15.3224C169.091 16.0703 168.497 16.684 168.171 17.4319C167.826 18.2757 167.826 19.2153 167.404 20.04C167.002 20.8262 166.407 21.2289 165.794 21.8426C165.142 22.4946 164.778 23.185 163.705 23.1466C163.244 23.1466 162.804 22.974 162.42 22.7439H162.439Z" fill="#553A12"/>
  <path d="M148.119 13.5198C148.119 13.5198 148.157 13.3856 148.177 13.3089C148.426 12.8103 149.231 12.887 149.691 12.9061C150.304 12.9445 150.88 13.1938 151.397 13.4815C151.915 13.7499 152.432 14.1335 152.566 14.6896C152.566 14.728 152.566 14.7471 152.566 14.7855C152.471 14.9581 151.704 14.4978 151.57 14.4403C151.397 14.3636 151.205 14.3061 151.014 14.2677C150.324 14.0951 149.595 13.9992 148.886 14.0951C148.733 14.1143 148.579 14.1527 148.426 14.0951C148.157 14.0184 148.062 13.7499 148.1 13.5006L148.119 13.5198Z" fill="#553A12"/>
  <path d="M155.116 18.1989C155.116 18.1989 155.116 18.1605 155.116 18.1413C154.829 16.4537 156.228 13.2895 158.375 14.21C159.123 14.536 159.641 15.3031 159.756 16.1086C159.986 17.6811 158.759 20.3083 156.918 20.3659C155.807 20.4042 155.27 19.1385 155.097 18.1989H155.116Z" fill="#FCD9BA"/>
  <path d="M151.072 21.5357C151.072 21.5357 151.033 21.5357 151.033 21.5549C150.784 21.7083 150.535 21.8617 150.305 22.0151C150.132 22.1302 149.96 22.2261 149.787 22.3411C149.385 22.5904 149.404 23.0315 149.557 23.4342C149.73 23.9137 150.362 23.8945 150.784 23.7027C150.957 23.626 151.091 23.5301 151.244 23.4151C151.647 23.089 152.011 22.6672 152.145 22.1494C152.222 21.8617 152.26 21.5932 151.973 21.4206C151.685 21.2481 151.359 21.3439 151.091 21.4974L151.072 21.5357Z" fill="#E9B8A2"/>
  <path d="M150.342 16.1279C150.323 15.917 150.266 15.7252 150.151 15.6293C150.074 15.5526 149.94 15.5143 149.825 15.5143C149.48 15.4951 149.269 15.6869 149.211 15.9745C149.173 16.1471 149.211 16.3389 149.211 16.5115C149.25 16.7032 149.307 16.895 149.403 17.0676C149.461 17.1635 149.518 17.221 149.614 17.2785C150.036 17.4703 150.285 17.1827 150.304 16.8375C150.304 16.6841 150.342 16.3964 150.304 16.1471L150.342 16.1279Z" fill="#553A12"/>
  <path d="M152.241 6.9995C151.513 6.9995 150.746 6.96114 150.113 6.55843C149.5 6.17488 149.289 5.48451 149.155 4.81331C149.116 4.6599 148.752 4.67907 148.771 4.81331C148.848 5.19685 148.925 5.56122 149.097 5.90641C149.27 6.23242 149.519 6.50089 149.845 6.71184C150.554 7.15291 151.436 7.19127 152.241 7.21045C152.298 7.21045 152.433 7.19127 152.433 7.09538C152.433 6.9995 152.298 6.9995 152.241 6.98032V6.9995Z" fill="#412409"/>
  <path d="M155.02 4.39149C155.02 4.39149 154.848 4.31478 154.79 4.31478C154.369 4.37231 153.909 4.37231 153.544 4.18054C153.218 4.00795 152.969 3.70111 152.931 3.33675C152.931 3.18333 152.528 3.20251 152.548 3.33675C152.586 3.77782 152.912 4.16136 153.314 4.35313C153.813 4.60244 154.388 4.60244 154.925 4.52573C154.982 4.52573 155.097 4.4682 155.059 4.39149H155.02Z" fill="#412409"/>
  <path d="M167.845 11.7171C167.788 11.5828 167.404 11.6212 167.481 11.7746C167.999 13.0019 167.807 14.4402 167.04 15.5141C166.983 15.5908 167.136 15.6292 167.174 15.6484C167.251 15.6484 167.366 15.6484 167.404 15.5717C168.209 14.4786 168.363 12.9828 167.845 11.7171V11.7171Z" fill="#412409"/>
  <path d="M164.663 12.4651C164.586 12.35 164.222 12.3884 164.298 12.5226C164.854 13.4431 164.107 14.402 163.513 15.0732C163.397 15.2074 163.762 15.2841 163.838 15.1882C164.183 14.8047 164.548 14.3828 164.739 13.8842C164.912 13.424 164.931 12.9062 164.663 12.4843V12.4651Z" fill="#412409"/>
  <path d="M156.554 96.4798C154.752 96.4415 152.931 96.3839 151.129 96.3456C150.228 96.3264 149.327 96.3072 148.426 96.288C147.64 96.288 146.815 96.2689 146.106 96.614C145.454 96.9401 144.956 97.4962 144.477 98.0523C143.94 98.6852 143.422 99.2988 142.924 99.9509C141.927 101.255 141.16 102.655 140.662 104.208C139.665 107.238 139.512 110.46 138.956 113.567C138.381 116.827 137.537 120.048 136.464 123.174C135.39 126.3 134.068 129.33 132.515 132.245C132.323 132.59 132.131 132.955 131.94 133.3C131.863 133.434 132.246 133.472 132.304 133.357C133.895 130.519 135.256 127.547 136.387 124.497C137.518 121.448 138.4 118.322 139.052 115.158C139.378 113.586 139.608 112.013 139.838 110.422C140.049 108.868 140.259 107.296 140.624 105.762C140.988 104.227 141.525 102.732 142.368 101.37C142.809 100.66 143.307 99.9892 143.844 99.3372C144.323 98.7427 144.822 98.129 145.359 97.5729C145.608 97.3044 145.895 97.0551 146.221 96.8633C146.585 96.6524 146.969 96.5565 147.371 96.5182C148.215 96.4415 149.078 96.5182 149.921 96.5373C151.704 96.5757 153.487 96.6332 155.269 96.6716L156.592 96.7099C156.592 96.7099 156.784 96.6908 156.784 96.5949C156.784 96.499 156.65 96.499 156.592 96.4798H156.554Z" fill="#DFB880"/>
  <path d="M119.537 123.845C118.636 121.659 117.965 119.377 117.505 117.057C117.064 114.736 116.834 112.377 116.853 110.019C116.853 108.676 116.949 107.353 117.103 106.03C117.103 105.896 116.738 105.876 116.719 106.03C116.451 108.389 116.412 110.786 116.604 113.145C116.796 115.503 117.218 117.862 117.869 120.144C118.234 121.429 118.675 122.695 119.173 123.922C119.23 124.056 119.614 124.018 119.537 123.865V123.845Z" fill="#DFB880"/>
  <path d="M144.016 101.543C144.016 101.543 144.074 101.543 144.054 101.581C143.575 102.214 142.943 102.693 142.291 103.096C141.965 103.307 141.62 103.479 141.275 103.671C141.045 103.806 140.757 104.016 140.757 104.304C140.757 104.573 141.026 104.707 141.256 104.745C142.444 104.956 143.69 103.806 144.687 103.269C146.93 102.06 148.751 100.277 150.4 98.3592C150.649 98.0716 150.898 97.7839 151.051 97.4195C151.109 97.2661 151.166 97.1127 151.262 96.9785C151.358 96.8251 151.511 96.71 151.665 96.6141C152.489 96.0196 153.505 95.4251 153.735 94.332C153.774 94.1594 153.774 93.9868 153.774 93.8143C153.716 92.7979 152.988 91.8774 152.048 91.4555C150.841 90.9185 149.537 91.187 148.483 91.9157C148.387 91.9733 148.291 92.05 148.176 92.05C148.061 92.05 147.965 92.0308 147.85 91.9924C147.294 91.839 146.681 91.9157 146.106 92.0308C143.997 92.4335 141.984 93.1622 139.895 93.6608C139.55 93.7375 139.166 93.8526 138.917 94.1019C138.227 94.7731 139.205 95.0991 139.78 95.0991C140.7 95.0991 141.869 94.7731 142.713 95.2717C142.502 95.732 141.716 96.1347 141.294 96.4032C140.776 96.7292 140.221 97.0168 139.703 97.362C139.224 97.6688 138.744 97.9565 138.227 98.2058C137.652 98.4743 137.019 98.6852 136.482 99.0304C136.291 99.1647 135.965 99.414 135.965 99.6824C135.984 100.258 137.153 100.258 137.518 100.181C138.035 100.066 138.495 99.7975 138.955 99.5482C139.722 99.1071 140.527 98.7236 141.237 98.2442C141.543 98.0524 141.294 98.4743 141.179 98.5702C141.045 98.6852 140.872 98.7619 140.719 98.877C140.393 99.1071 140.086 99.3564 139.76 99.5866C139.128 100.047 138.457 100.469 137.709 100.737C137.288 100.891 136.827 101.006 136.425 101.217C136.118 101.37 135.869 101.715 136.137 102.022C136.406 102.329 136.904 102.463 137.307 102.463C137.671 102.463 138.112 102.386 138.438 102.214C138.764 102.041 139.109 101.907 139.454 101.734C140.24 101.332 140.93 100.795 141.658 100.315C141.812 100.219 142.253 99.855 142.31 100.2C142.368 100.469 142.022 100.756 141.831 100.91C141.217 101.408 140.566 101.849 139.856 102.195C139.511 102.367 139.147 102.54 138.783 102.674C138.495 102.789 138.074 102.827 137.824 103C137.518 103.211 137.748 103.575 137.958 103.748C138.265 103.978 138.668 104.074 139.032 104.055C139.569 104.036 140.067 103.806 140.546 103.556C141.198 103.23 141.85 102.866 142.483 102.463C142.713 102.31 142.923 102.099 143.134 101.926C143.269 101.811 143.403 101.715 143.556 101.619C143.614 101.581 143.69 101.523 143.767 101.504C143.767 101.504 143.863 101.504 143.901 101.504L144.016 101.543Z" fill="#FCD9BA"/>
  <path d="M152.106 96.1155C152.394 96.0005 152.681 95.8662 152.969 95.7128C153.084 95.7128 153.218 95.7128 153.352 95.6745C154.541 95.3868 155.94 93.8718 156.879 93.1431C162.074 89.1543 167.001 84.686 171.525 79.8917C172.311 79.0671 173.078 78.2042 173.538 77.1686C174.324 75.4043 173.595 73.1222 172.541 71.5881C171.582 70.1881 169.378 69.9772 167.844 70.2073C164.049 70.7826 162.189 73.7359 160.157 76.7083C156.649 81.867 152.259 86.3736 148.636 91.4747C148.272 91.9925 147.889 92.5486 147.774 93.1814C147.409 95.1758 150.4 96.8059 152.068 96.0963L152.106 96.1155Z" fill="#FCD9BA"/>
  <path d="M175.263 72.7769C175.32 72.4701 175.378 72.1441 175.435 71.818C175.819 69.651 176.164 67.4648 176.566 65.317C177.314 61.309 178.119 57.3202 178.579 53.2546C178.905 50.3014 179.001 47.3289 179.192 44.3757C179.346 41.8251 179.461 39.1979 179.02 36.6665C178.617 34.4228 177.736 32.1599 175.665 30.9709C175.397 30.8175 175.378 30.549 175.493 30.3381C174.285 29.8203 172.924 29.7244 171.601 30.0312C169.416 30.5298 168.457 32.3516 167.71 34.3461C167.518 34.8447 167.346 35.3624 167.192 35.861C165.064 42.5922 165.218 49.8603 165.122 56.9366C165.045 63.2651 164.738 69.5743 164.24 75.8644C164.087 77.7821 164.029 78.6834 165.927 79.6615C167.269 80.3327 168.898 80.4861 170.298 79.9299C171.678 79.3738 172.771 78.2424 173.537 76.9767C174.304 75.711 174.783 74.2727 175.224 72.8536C175.224 72.8344 175.224 72.7961 175.243 72.7769H175.263Z" fill="#FCD9BA"/>
  <path d="M166.444 58.0298C167.25 58.0298 168.055 58.0107 168.86 58.0107C169.742 58.0107 170.643 58.0107 171.524 58.0107C172.445 58.0107 173.365 58.049 174.304 58.0682C175.205 58.0874 176.087 58.1257 176.988 58.1833C177.62 58.2216 178.234 58.26 178.847 58.2983C179.077 57.1093 179.269 55.9204 179.461 54.7314C179.902 51.874 180.534 48.8057 180.323 45.9483C180.112 42.9758 180.017 40.0226 179.557 37.0501C179.211 34.8256 178.847 33.1188 177.16 31.4696C175.684 30.0122 173.576 29.5711 171.582 30.0313C169.397 30.5299 168.438 32.3518 167.69 34.3462C167.499 34.8448 167.326 35.3626 167.173 35.8612C165.045 42.5923 165.198 49.8604 165.103 56.9367C165.103 57.3011 165.103 57.6847 165.103 58.049C165.543 58.049 166.004 58.0107 166.444 58.0107V58.0298Z" fill="#99A558"/>
  <path d="M179.251 45.392C179.251 47.0221 179.251 48.6521 179.193 50.2822C179.155 51.8931 179.078 53.5231 178.963 55.134C178.906 56.0545 178.848 56.9558 178.771 57.8763C178.771 58.0105 179.136 58.0297 179.155 57.8763C179.289 56.2462 179.385 54.6354 179.462 53.0053C179.538 51.3944 179.596 49.7644 179.615 48.1535C179.615 47.233 179.634 46.3125 179.615 45.4112C179.615 45.2578 179.232 45.2578 179.232 45.4112L179.251 45.392Z" fill="#67762E"/>
  <path d="M169.397 30.8943C169.397 30.8943 169.205 30.8943 169.167 30.971C168.151 32.2942 167.365 33.7708 166.751 35.3434C166.138 36.9159 165.735 38.5459 165.429 40.1952C165.122 41.8827 164.93 43.5703 164.796 45.2771C164.643 47.214 164.528 49.17 164.451 51.1261C164.355 53.1589 164.317 55.2108 164.278 57.2436C164.278 57.4929 164.278 57.7422 164.278 57.9915C164.278 58.1449 164.662 58.1449 164.662 57.9915C164.662 55.9587 164.719 53.9259 164.796 51.8932C164.873 49.9179 164.988 47.9235 165.122 45.9483C165.256 44.2415 165.409 42.5539 165.697 40.8664C165.965 39.198 166.349 37.5487 166.924 35.957C167.48 34.4037 168.208 32.8887 169.167 31.5271C169.282 31.3545 169.416 31.2011 169.531 31.0285C169.588 30.9518 169.435 30.9135 169.397 30.8943V30.8943Z" fill="#67762E"/>
  <path d="M154.905 60.8488C154.119 58.3366 153.486 55.7861 153.007 53.1972C152.528 50.6083 152.221 48.0002 152.068 45.373C151.972 43.9155 151.953 42.4389 151.953 40.9622C151.953 40.8088 151.569 40.8088 151.569 40.9622C151.55 43.5895 151.684 46.2359 151.991 48.844C152.298 51.4521 152.739 54.0602 153.352 56.6107C153.697 58.049 154.1 59.4681 154.54 60.8872C154.579 61.0214 154.962 60.9831 154.905 60.8297V60.8488Z" fill="#67762E"/>
  <path d="M32.7457 90.3047C32.8607 90.8609 33.1866 91.091 34.1834 91.1869C36.963 91.4554 39.8193 91.1294 42.5797 90.765C48.1006 90.0363 53.7365 88.8281 59.2766 89.9404C58.2797 86.9679 57.628 83.8996 57.3404 80.7929C57.1296 78.5876 57.0337 76.1904 55.6535 74.4453C54.9442 73.544 53.9474 72.9112 52.9122 72.4125C49.9026 70.9743 46.4712 70.5907 43.1357 70.7825C40.2985 70.9359 37.3847 71.5304 35.046 73.1413C33.4933 74.2152 31.9214 75.9603 31.6338 77.878C31.2696 80.256 32.0939 82.6531 32.4581 84.9735C32.6882 86.3543 32.7457 87.735 32.7073 89.1158C32.7073 89.6144 32.7073 89.9787 32.7457 90.2664V90.3047Z" fill="#FCD9BA"/>
  <path d="M23.0457 157.693C23.5824 156.926 24.1384 156.178 24.6943 155.43C26.3045 153.282 28.0682 151.365 30.1577 149.658C31.9788 148.181 34.605 145.669 37.1163 146.455C39.1291 147.088 40.9502 148.315 42.2729 149.965C42.733 150.559 43.1547 151.23 43.2122 151.978C43.2506 152.573 43.078 153.148 42.848 153.704C41.4678 157.252 38.0364 160.148 35.5827 163.005C32.6689 166.399 29.7551 169.794 26.8413 173.169C20.937 180.034 15.0519 186.9 9.14765 193.784C8.26584 194.82 7.63324 195.088 6.57891 194.436C5.16035 193.554 4.0485 192.806 4.48941 191.119C4.94948 189.335 6.21468 187.475 7.01981 185.826C8.72592 182.297 10.4704 178.788 12.3107 175.317C15.5312 169.238 19.0201 163.274 23.0074 157.655L23.0457 157.693Z" fill="#FCD9BA"/>
  <path d="M12.8087 204.6C12.2911 204.389 11.7735 203.967 11.4093 203.603C9.49232 201.685 7.59451 199.748 5.42833 198.118C3.97144 197.025 2.39952 196.066 1.211 194.705C0.904281 194.36 0.463376 193.784 0.540055 193.305C0.616734 192.806 1.17266 192.327 1.55605 192.039C2.45703 191.33 3.56887 190.984 4.52736 190.352C4.91075 190.102 5.40916 189.719 5.88841 189.719C6.31014 189.719 6.88523 189.968 7.26863 190.16C7.82455 190.428 8.3613 190.793 8.8022 191.234C9.30062 191.732 9.45397 192.173 9.56899 192.864C9.70318 193.631 10.0482 194.398 10.2208 195.165C10.4125 195.99 10.5466 196.814 10.7192 197.639C11.0642 199.288 11.5243 200.976 12.5403 202.337C12.9237 202.855 13.4029 203.334 13.6521 203.929C13.7288 204.102 13.7672 204.312 13.6905 204.466C13.5946 204.677 13.2879 204.754 13.0579 204.696C12.962 204.677 12.8662 204.639 12.7703 204.6H12.8087Z" fill="#FCD9BA"/>
  <path d="M33.3198 101.121C31.0386 107.718 30.636 114.813 30.2526 121.794C29.7351 131.248 29.1983 140.721 28.6807 150.176C28.6424 150.885 28.6232 151.671 29.0449 152.247C29.3325 152.63 29.7926 152.86 30.2335 153.071C32.3996 154.069 34.7 154.759 37.0579 155.104C38.879 155.373 41.026 155.334 42.2145 153.915C43.3072 152.611 43.8823 149.965 44.2082 148.296C44.7449 145.65 45.1858 142.984 45.6843 140.338C46.6619 135.026 47.6204 129.714 48.5597 124.402C48.9431 122.235 49.3265 120.068 49.5565 117.881C50.2083 111.822 50.0741 105.397 49.8441 99.3564C49.7674 97.5538 49.5949 95.5977 48.4255 94.217C46.336 91.8007 41.6203 91.8966 38.994 93.3157C36.0611 94.8882 34.3933 98.0908 33.339 101.121H33.3198Z" fill="#FCD9BA"/>
  <path d="M50.669 94.5622C50.5731 97.9373 50.4773 101.312 50.3814 104.688C50.3431 105.762 50.3239 106.835 50.2856 107.909C50.2089 110.767 50.113 113.624 50.0364 116.482C49.998 117.575 49.9788 118.649 49.9405 119.742C49.8063 124.67 49.653 129.579 49.5188 134.508C48.7137 134.508 47.9085 134.508 47.1034 134.508C40.4323 134.47 33.7421 134.067 27.1094 133.415C27.7228 127.643 28.2021 121.851 28.4896 116.06C28.7196 111.783 28.8538 107.488 29.3139 103.23C29.5439 101.159 29.8315 99.0879 30.234 97.036C30.8475 94.006 32.0935 91.2445 32.8795 88.2913C33.4162 88.3296 33.9338 88.3871 34.4514 88.4639C34.969 88.5214 35.4674 88.5981 35.985 88.6556C36.3492 88.694 36.7134 88.7323 37.0776 88.7707C38.6879 88.9241 40.2981 89.0008 41.9084 89.0008C42.0426 89.0008 42.1768 89.0008 42.311 89.0008H42.4068C44.7072 89.0008 47.0075 88.7515 49.2887 88.5022C49.3462 88.5022 49.4038 88.5022 49.4613 88.483C49.8255 89.0392 50.113 89.6337 50.3047 90.2857C50.7265 91.6664 50.6881 93.1239 50.6306 94.5622H50.669Z" fill="#9DCAD4"/>
  <path d="M54.3879 163.772C53.9661 158.843 54.1578 153.896 55.538 148.91C56.0173 147.165 56.209 146.359 57.8768 145.746C59.6979 145.074 61.7299 144.863 63.6468 145.209C64.3945 145.343 65.1421 145.573 65.6788 146.091C66.1006 146.513 66.3498 147.069 66.5606 147.625C67.5383 150.252 67.73 153.129 67.73 155.909C67.73 159.17 67.5958 162.43 67.6917 165.728C67.7875 169.429 67.8833 173.13 67.9792 176.832C68.1709 184.234 68.3626 191.636 68.5543 199.039C68.5926 200.803 68.1517 201.608 66.4265 201.838C64.2028 202.145 62.6117 202.759 61.9982 200.074C60.3113 192.806 58.6244 185.538 56.9374 178.27C55.8064 173.418 54.7904 168.605 54.3687 163.772H54.3879Z" fill="#FCD9BA"/>
  <path d="M77.947 205.597C77.4103 205.77 76.7393 205.808 76.2218 205.789C73.5188 205.635 70.8159 205.444 68.113 205.674C66.311 205.827 64.4899 206.153 62.6879 205.923C62.2279 205.866 61.5186 205.751 61.2502 205.309C60.9818 204.888 61.0777 204.159 61.1735 203.699C61.3844 202.567 61.9787 201.57 62.2854 200.458C62.4004 200.017 62.5154 199.384 62.8988 199.077C63.2247 198.808 63.7998 198.617 64.2215 198.502C64.8158 198.329 65.4484 198.252 66.081 198.291C66.7903 198.329 67.212 198.559 67.7296 198.981C68.343 199.46 69.1098 199.806 69.7424 200.266C70.4325 200.745 71.0843 201.282 71.7552 201.781C73.1163 202.797 74.5732 203.737 76.2409 204.063C76.8735 204.197 77.5445 204.236 78.1387 204.504C78.3113 204.581 78.4838 204.696 78.5413 204.888C78.618 205.118 78.4455 205.367 78.2346 205.482C78.1387 205.52 78.0621 205.559 77.947 205.597V205.597Z" fill="#FCD9BA"/>
  <path d="M44.9941 104.63C44.8024 107.698 44.3998 111.112 45.0324 114.123C45.9142 118.265 46.9686 122.388 47.9271 126.511C49.8249 134.604 51.7227 142.716 53.6205 150.808C53.9655 152.247 54.4064 154.72 55.8058 155.564C57.4161 156.504 61.0583 155.948 62.8219 155.737C64.6622 155.526 66.7134 154.912 67.4802 153.225C68.1895 151.671 68.0361 148.967 67.9211 147.28C67.7294 144.595 67.4802 141.91 67.2501 139.206C66.7901 133.837 66.3108 128.448 65.8124 123.078C65.6207 120.892 65.4098 118.687 65.0648 116.52C64.1063 110.498 62.266 104.342 60.4449 98.57C59.9081 96.8441 59.218 95.0031 57.7228 93.9867C55.0774 92.2032 50.5533 93.5456 48.3871 95.6167C45.9718 97.918 45.205 101.447 44.9941 104.649V104.63Z" fill="#FCD9BA"/>
  <path d="M68.1515 132.207C66.0237 132.552 63.8767 132.878 61.7297 133.223C60.8287 133.357 59.9469 133.511 59.0459 133.645C58.1833 133.779 57.3015 133.913 56.4388 134.067C53.7934 134.489 51.1288 134.911 48.4642 134.815C47.8892 134.795 47.2757 134.738 46.854 134.354C46.5089 134.048 46.3556 133.568 46.2406 133.127C44.9754 128.525 44.8412 123.519 44.2661 118.783C43.3459 111.112 42.4833 103.364 42.1191 95.6359C42.0616 94.562 42.0232 93.488 41.9849 92.4141C41.9465 91.2827 41.9274 90.1512 41.9082 89.0198C42.0807 89.0198 42.2533 89.0198 42.4066 89.0198C44.707 89.0198 47.0073 88.7705 49.2885 88.5212C51.5506 88.2719 53.8126 87.9651 56.0938 87.6774C57.244 87.524 58.3942 87.3706 59.5252 87.2363C63.3399 99.7206 65.2953 112.512 67.4806 125.341C67.5956 126.051 68.2091 132.226 68.1324 132.226L68.1515 132.207Z" fill="#9DCAD4"/>
  <path d="M41.3718 118.879C40.9884 117.824 39.7807 116.846 38.6688 117.632C37.9787 118.131 38.2279 119.166 38.6113 119.895C38.8414 120.489 39.3014 120.969 39.9532 121.065C40.5475 121.161 41.3143 121.007 41.506 120.355C41.6401 119.876 41.5443 119.339 41.3718 118.879V118.879Z" fill="#1A8B93"/>
  <path d="M51.3785 104.918C50.9951 104.572 50.3434 104.63 49.9216 104.822H49.8641C49.8641 104.822 49.8066 104.879 49.7683 104.898C49.4999 104.937 49.2507 105.052 49.0973 105.263C48.7139 105.78 48.4839 106.433 48.5031 107.085C48.5031 107.909 49.3465 108.158 50.075 107.986C50.7268 107.813 51.1293 107.257 51.3594 106.643C51.5319 106.164 51.8003 105.32 51.3785 104.918Z" fill="#1A8B93"/>
  <path d="M35.1414 100.181C34.6046 99.9508 33.6461 100.085 33.627 100.603C33.627 101.868 34.2596 103.23 35.6973 103.173C36.004 103.173 36.5983 103.077 36.6174 102.655C36.6941 101.581 36.1957 100.334 35.1222 100.181H35.1414Z" fill="#1A8B93"/>
  <path d="M42.8666 92.395C42.6366 92.3374 42.3299 92.3374 42.0615 92.395C41.6781 92.395 41.2947 92.4908 41.1605 92.721C40.8155 93.2771 40.6046 93.8716 40.5088 94.5236C40.4704 94.7537 40.4321 95.0414 40.5279 95.2715C40.6813 95.5783 41.103 95.6934 41.4097 95.7126C42.8858 95.8276 43.3075 93.9867 43.4226 92.836C43.4609 92.5675 43.0392 92.4141 42.8475 92.3758L42.8666 92.395Z" fill="#1A8B93"/>
  <path d="M53.1232 90.0938C52.8931 89.7295 52.3756 89.6719 51.973 89.7295C51.7813 89.7486 51.3212 89.9212 51.2829 90.1705C51.1679 90.2472 51.0912 90.3623 51.1104 90.4965C51.2062 91.417 51.3787 92.932 52.3564 93.3539C52.7014 93.5073 53.7366 93.6799 53.9091 93.1238C54.2542 91.9732 53.7366 91.0143 53.1232 90.0555V90.0938Z" fill="#1A8B93"/>
  <path d="M61.0015 97.3618C60.5606 97.1125 59.6213 97.1508 59.4105 97.5727C58.9696 98.4357 58.1644 100.43 59.698 100.66C60.4648 100.775 61.0015 100.488 61.2891 99.7781C61.5383 99.1644 61.6533 98.5316 61.6725 97.8796C61.6725 97.5727 61.3658 97.4193 61.0015 97.3809V97.3618Z" fill="#1A8B93"/>
  <path d="M59.5253 112.589C59.3336 112.032 58.9311 111.131 58.2985 110.978C57.8959 110.882 57.34 110.863 57.0333 111.169C56.8032 111.246 56.6115 111.4 56.6115 111.611C56.5349 113.03 57.5317 115.139 59.2761 114.315C60.0046 113.969 59.7362 113.183 59.5253 112.589V112.589Z" fill="#1A8B93"/>
  <path d="M65.9853 122.56C65.5252 122.292 64.5859 122.35 64.4325 122.791C64.2408 123.366 64.1066 123.96 64.1066 124.574C64.1066 124.843 64.0683 125.245 64.2025 125.514C64.3558 125.801 64.7584 125.897 65.0459 125.916C65.7361 125.974 66.2536 125.705 66.3878 125.015C66.5028 124.363 66.5412 123.692 66.5412 123.04C66.5412 122.771 66.2536 122.637 65.9853 122.58V122.56Z" fill="#1A8B93"/>
  <path d="M54.1198 125.034C53.9856 124.728 53.8323 124.421 53.5447 124.248C53.1422 123.999 52.6821 124.037 52.2412 124.133C52.0303 124.171 51.8003 124.344 51.7811 124.574C51.7811 124.67 51.7811 124.747 51.7811 124.843C51.7811 124.9 51.7811 124.939 51.8003 124.996C51.6469 125.878 52.0112 126.799 52.7204 127.355C53.1038 127.662 54.369 127.815 54.4457 127.106C54.5224 126.396 54.4074 125.686 54.1198 125.054V125.034Z" fill="#1A8B93"/>
  <path d="M61.7297 133.223C60.8287 133.357 59.9469 133.511 59.0459 133.645C59.1034 133.472 59.1993 133.3 59.3143 133.127C59.3143 133.127 59.3143 133.108 59.3143 133.089C59.4293 132.609 59.851 132.264 60.3494 132.168C60.7712 132.092 61.4805 132.149 61.6913 132.609C61.768 132.782 61.768 132.993 61.7297 133.223V133.223Z" fill="#1A8B93"/>
  <path d="M43.3077 130.941C42.8476 130.672 41.6208 130.634 41.3332 131.171C41.0457 131.267 40.8732 131.459 40.9882 131.727C41.2949 132.475 41.4291 133.319 42.1575 133.798C42.6176 134.105 43.1735 134.182 43.6911 133.99C44.1703 133.837 44.2662 133.415 44.2662 132.954C44.2662 132.226 43.9595 131.324 43.3077 130.941V130.941Z" fill="#1A8B93"/>
  <path d="M31.7869 124.785C31.7869 124.555 31.5761 124.421 31.346 124.344C31.231 123.845 29.7933 123.769 29.5249 124.286C29.084 125.207 28.4514 127.24 29.8891 127.585C30.5984 127.757 31.3077 127.489 31.5377 126.799C31.7678 126.147 31.8444 125.456 31.7869 124.766V124.785Z" fill="#1A8B93"/>
  <path d="M31.9021 108.945C31.6337 108.504 30.5219 108.523 30.1768 108.849C29.8126 108.906 29.5059 109.06 29.4867 109.367C29.4101 110.632 29.5442 112.723 31.3462 112.435C32.8798 112.205 32.458 109.904 31.9021 108.964V108.945Z" fill="#1A8B93"/>
  <path d="M42.6176 107.813C42.3684 107.468 41.8699 107.391 41.4866 107.449C41.4099 107.449 41.2949 107.487 41.1798 107.545C40.9115 107.583 40.6814 107.717 40.6047 107.909C40.3555 108.638 40.2405 109.424 40.3364 110.191C40.4514 111.016 41.0648 111.38 41.8891 111.246C42.6942 111.112 42.8859 110.383 42.9818 109.674C43.0776 109.022 42.9818 108.35 42.5984 107.813H42.6176Z" fill="#1A8B93"/>
  <path d="M37.0966 88.7706C37.0391 88.9432 36.9624 89.1158 36.9049 89.2692C36.5982 89.9787 36.1956 90.7458 35.3522 90.88C34.9496 90.9376 34.432 90.88 34.1253 90.6116C33.8186 90.3431 33.9144 89.9787 33.9911 89.6335C34.087 89.2116 34.2595 88.8281 34.4895 88.4829C35.0071 88.5404 35.5055 88.6172 36.0231 88.6747C36.3873 88.713 36.7515 88.7514 37.1158 88.7897L37.0966 88.7706Z" fill="#1A8B93"/>
  <path d="M51.4165 116.27C51.0714 116.155 50.5538 116.155 50.228 116.385C50.0363 116.462 49.9021 116.577 49.8637 116.731C49.442 117.172 49.0586 117.632 48.7327 118.15C48.5602 118.399 48.311 118.725 48.3301 119.051C48.3301 119.454 48.7135 119.665 49.0394 119.761C50.6113 120.183 51.5315 118.361 51.6848 117.037C51.704 117.018 51.7232 116.999 51.7615 116.961C52.0682 116.673 51.7232 116.366 51.4356 116.27H51.4165Z" fill="#1A8B93"/>
  <path d="M50.879 115.082C50.7448 117.575 50.5915 120.068 50.3998 122.541C50.2273 125.015 50.0164 127.489 49.7864 129.944C49.6522 131.344 49.518 132.724 49.3838 134.124C49.3838 134.297 49.8247 134.297 49.8439 134.124C50.0931 131.651 50.3231 129.158 50.534 126.684C50.7448 124.21 50.9174 121.736 51.0899 119.281C51.1857 117.881 51.2624 116.482 51.3391 115.082C51.3391 114.909 50.879 114.909 50.879 115.082V115.082Z" fill="#1A8B93"/>
  <path d="M58.9881 90.3432C58.9881 90.3432 58.7772 90.2281 58.7005 90.2473C57.0136 90.6116 55.3266 90.9185 53.6205 91.1486C51.9336 91.3979 50.2275 91.5705 48.5214 91.7047C46.8153 91.839 45.09 91.8965 43.3839 91.9157C41.6778 91.9157 39.9525 91.8773 38.2464 91.7814C36.5403 91.6856 34.815 91.513 33.1281 91.302C32.9172 91.2828 32.7064 91.2445 32.4955 91.2253C32.4188 91.2253 32.2463 91.2253 32.208 91.3212C32.1696 91.4171 32.3038 91.4746 32.3613 91.4746C34.0674 91.7047 35.7927 91.8965 37.5371 92.0116C39.2624 92.1266 40.9877 92.1842 42.713 92.2033C44.4382 92.2033 46.1635 92.1458 47.8888 92.0307C49.6141 91.9157 51.3393 91.7431 53.0646 91.513C54.7707 91.2828 56.4768 90.9952 58.1829 90.65C58.3938 90.6116 58.6047 90.5541 58.8347 90.5158C58.9114 90.5158 59.0264 90.4582 58.9881 90.3623V90.3432Z" fill="#1A8B93"/>
  <path d="M48.3109 91.2446C48.3301 91.1487 48.1384 91.1104 48.0809 91.1104C47.6208 91.1104 47.5058 92.4336 47.4291 92.7596C47.2374 93.5458 47.0266 94.3321 46.7965 95.0992C46.3365 96.6525 45.8189 98.1867 45.3396 99.7209C45.0329 100.699 44.7454 101.696 44.707 102.732C44.707 102.962 44.707 103.192 44.8221 103.384C44.9754 103.595 45.6847 103.633 45.7422 103.345C45.7422 103.269 45.7805 103.211 45.7805 103.134C46.0873 102.808 46.2023 102.31 46.2981 101.869C46.509 101.044 46.7007 100.219 46.8732 99.3948C47.2374 97.7264 47.5633 96.0389 47.8317 94.3513C47.9851 93.3924 48.1192 92.4336 48.2534 91.4747C48.2534 91.4555 48.2534 91.4364 48.2343 91.4172C48.2343 91.3597 48.2534 91.3021 48.2726 91.2446H48.3109Z" fill="#1A8B93"/>
  <path d="M53.9274 94.0827C54.0424 93.1814 54.1383 92.28 54.2341 91.3787C54.2725 91.1102 54.2341 90.5925 53.8507 90.8226C53.659 90.9376 53.6015 91.2828 53.544 91.4746C53.4098 91.9924 53.4098 92.5485 53.314 93.0663C52.7197 96.4031 51.3395 99.8358 51.3203 103.23C51.3203 103.518 51.4737 104.17 51.8954 103.921C52.2021 103.748 52.3363 102.981 52.413 102.674C53.1223 99.855 53.544 96.9784 53.9082 94.0827H53.9274Z" fill="#1A8B93"/>
  <path d="M76.644 41.9786C76.5098 40.5211 76.1839 39.0445 75.3596 37.8555C73.4427 35.1132 69.5129 34.6146 67.1933 32.1983C64.4904 29.3601 64.4521 24.3741 61.2507 22.2262C60.5414 21.3633 59.6213 20.6729 58.5478 20.3277C57.1867 19.8866 55.7107 19.9825 54.2921 20.0976C52.7969 20.2126 51.2825 20.2893 49.8064 19.9825C48.8479 19.7907 47.9086 19.4456 47.1035 18.9086C46.0683 17.9881 45.1098 16.9525 43.9788 16.1663C40.2599 13.5774 34.7582 13.9801 31.4801 17.0868L30.4258 17.6429C27.9721 19.0237 28.0296 22.3029 28.3746 24.6809C29.0648 29.2642 29.774 33.9626 31.9786 38.0281C35.3716 44.2798 41.966 48.3646 48.8862 49.9946C55.8065 51.6247 63.0718 51.0685 70.088 49.8796C71.8899 49.5727 73.8069 49.17 75.0913 47.866C76.5673 46.3701 76.8549 44.0497 76.6632 41.9594L76.644 41.9786ZM50.1515 20.9222C49.3463 20.6345 48.637 20.1743 47.9853 19.6565C48.292 19.7907 48.5987 19.8866 48.9054 19.9825C50.3623 20.4044 51.8959 20.4428 53.4103 20.3661C54.8097 20.2893 56.2474 20.0784 57.6468 20.3277C58.2986 20.4428 58.912 20.6729 59.4871 21.0181C59.8322 21.229 60.158 21.4975 60.4456 21.766C57.3401 20.4044 53.4295 22.1112 50.1706 20.903L50.1515 20.9222Z" fill="#B36332"/>
  <path d="M50.2659 53.1204C56.1126 53.3888 61.9594 53.2546 67.787 52.9286C67.8445 52.9286 67.8828 52.9286 67.9403 52.9286C69.0713 52.7944 70.2215 52.6409 71.3525 52.5451C71.5059 52.5259 71.6593 52.5067 71.8126 52.4875C74.5347 52.0848 77.2376 51.5862 79.9022 50.9534C80.3431 50.7999 80.784 50.6274 81.2249 50.4548C81.685 50.263 82.1643 50.0712 82.5285 49.726C83.372 48.9014 83.2761 47.5207 83.0461 46.37C82.8352 45.2961 82.8544 43.8962 81.8575 43.2825C80.9949 42.7456 79.7297 42.8798 78.7521 42.9373C67.1352 43.6661 55.48 40.5402 43.9015 41.6333C41.5053 41.8634 40.1059 44.6249 39.895 46.907C39.7225 48.8247 40.3934 50.5698 41.5436 51.9889C44.3807 52.7368 47.3329 53.0053 50.2659 53.1395V53.1204Z" fill="#FCD9BA"/>
  <path d="M50.2662 53.1205C53.3142 53.2548 56.3622 53.2931 59.4102 53.2356C59.7169 49.4577 60.7712 45.7374 62.3048 42.228C56.1705 41.6335 50.0362 41.039 43.921 41.6143C41.5248 41.8444 40.1254 44.6059 39.9146 46.888C39.742 48.8057 40.413 50.5508 41.5632 51.9699C44.4003 52.7178 47.3524 52.9863 50.2854 53.1205H50.2662Z" fill="#DFB880"/>
  <path d="M26.2847 63.15C27.4924 71.0126 29.0643 78.8368 30.9621 86.5652C40.8921 84.0913 51.0904 82.7298 61.3078 82.4996C62.6689 82.4613 65.4868 82.864 66.2536 81.5024C66.8479 80.4477 65.6593 77.552 65.3526 76.4972C63.819 71.3002 61.672 66.295 59.1608 61.4816C56.6112 56.6106 53.6974 52.3149 50.1894 48.0768C48.7325 46.3125 47.1989 44.5674 45.3778 43.1867C43.4991 41.7484 41.4863 40.5019 39.1093 40.8854C36.2722 41.3457 33.7609 42.0744 31.1155 43.2634C24.7895 46.1399 25.0195 54.4052 25.8438 60.1392C25.978 61.1364 26.1314 62.1336 26.2847 63.1308V63.15Z" fill="#DFB880"/>
  <path d="M135.073 20.0592C132.389 15.8211 129.821 10.9309 123.993 11.698C118.51 12.4459 112.472 15.706 107.68 18.3333C97.3662 23.9905 88.3181 31.949 81.3978 41.48C79.155 44.5483 77.1613 47.7892 75.3977 51.1644C73.8066 54.2327 71.1612 57.9147 72.944 61.3283C74.6693 64.6459 76.8354 67.7334 79.3275 70.4949C81.7045 73.1221 84.8675 75.6343 88.4139 75.27C89.7367 75.1357 90.9827 74.5988 92.1712 73.9851C100.299 69.7086 105.437 61.4625 110.095 53.5424C110.708 52.4876 111.36 51.4137 112.299 50.6274C113.373 49.7261 114.772 49.2851 116.114 48.844C125.642 45.7757 134.958 41.9978 143.929 37.5679C144.294 37.3953 144.677 37.1843 144.869 36.8391C145.214 36.2063 144.83 35.4584 144.447 34.8447C141.322 29.9162 138.198 24.9877 135.073 20.0592V20.0592Z" fill="#FFFDF8"/>
  <path d="M140.939 36.9351C136.415 38.6611 131.891 40.4062 127.271 41.8636C124.971 42.5924 122.651 43.2636 120.294 43.8389C117.917 44.4142 115.52 44.8361 113.124 45.2196C112.07 45.3922 111.015 45.6223 110.038 46.0634C109.233 46.4278 108.485 46.9072 107.795 47.4442C106.319 48.614 105.13 50.0906 104.076 51.6248C102.945 53.2932 101.948 55.0575 100.913 56.7834C99.6478 58.8929 98.3251 60.964 96.9449 62.9968C94.5487 66.5445 92.0183 70.2457 88.3952 72.6428C87.9735 72.9305 87.5134 73.199 87.0725 73.4291C86.8808 73.525 87.2258 73.64 87.3409 73.5825C91.0598 71.6073 93.7436 68.2129 96.1014 64.8186C97.4816 62.8242 98.8235 60.7914 100.108 58.7394C101.258 56.8984 102.312 55.0191 103.463 53.1781C105.418 50.0331 107.891 46.7346 111.667 45.7182C112.856 45.3922 114.102 45.2771 115.309 45.0662C116.498 44.8744 117.687 44.6251 118.856 44.3758C121.195 43.858 123.514 43.2444 125.795 42.5348C130.415 41.1349 134.939 39.4473 139.444 37.7214C140 37.5104 140.556 37.2995 141.112 37.0885C141.342 36.9927 141.074 36.8584 140.92 36.9159L140.939 36.9351Z" fill="#DFB880"/>
  <path d="M106.491 29.667C106.491 29.667 106.3 29.667 106.242 29.7053C104.785 30.7984 103.367 31.9299 102.063 33.1956C100.779 34.4421 99.6095 35.8228 98.6894 37.357C98.1718 38.22 97.7501 39.1405 97.4434 40.0993C97.3859 40.2527 97.7692 40.2719 97.8076 40.1568C98.3635 38.4693 99.2645 36.9159 100.376 35.516C101.488 34.0969 102.811 32.8504 104.191 31.6806C104.977 31.0286 105.763 30.4149 106.587 29.8012C106.664 29.7437 106.587 29.6862 106.53 29.667H106.491Z" fill="#DFB880"/>
  <path d="M50.7455 61.9228C48.9244 61.7502 47.1033 61.6543 45.2821 61.405C42.7134 61.0406 40.1447 60.5995 37.6143 60.0818C36.4257 59.8325 35.2372 59.564 34.1254 59.0846C30.4448 57.5312 27.416 53.1972 28.7962 49.0933C29.3904 47.3098 30.9815 46.0825 32.611 45.2579C34.5279 44.2799 37.4801 45.0278 39.4162 45.6223C41.6591 46.2935 43.7677 47.329 45.8956 48.2687C47.6975 49.055 49.5378 49.7645 51.3973 50.4165C53.2184 51.0494 55.2887 51.3946 57.014 52.2383C58.6434 53.0438 60.4837 53.1397 62.2857 53.3506C64.4135 53.5999 66.5414 53.7342 68.6692 53.7917C69.666 53.8109 70.8162 53.83 70.8737 54.9998C70.9312 56.1696 70.9312 57.3394 70.8737 58.5092C70.8162 59.6982 70.6053 61.0406 69.5893 61.6735C69.1676 61.9419 68.65 62.0186 68.1516 62.0954C62.8799 62.8433 57.5124 62.8624 52.2407 62.1145C51.7232 62.0378 51.2056 61.9803 50.7072 61.9419L50.7455 61.9228Z" fill="#FCD9BA"/>
  <path d="M49.0589 49.5345C48.0046 49.1318 46.9503 48.6907 45.9151 48.2497C43.7681 47.31 41.6594 46.2936 39.4357 45.6032C37.4996 45.0087 34.5475 44.2608 32.6305 45.2389C31.0011 46.0635 29.41 47.2908 28.8157 49.0743C27.4355 53.1973 30.4643 57.5122 34.1449 59.0655C35.2567 59.5449 36.4453 59.8134 37.6338 60.0627C40.1834 60.5997 42.7329 61.0407 45.3017 61.3859C45.3975 61.3859 45.5125 61.4051 45.6084 61.4243C45.7617 57.2245 46.8352 53.0823 49.0589 49.5153V49.5345Z" fill="#DFB880"/>
  <path d="M63.1103 57.4163C62.6502 58.3943 63.2637 59.6217 63.7812 60.4846C63.9921 60.8298 64.2221 61.1942 64.5289 61.4819C65.449 62.3448 67.0976 62.1147 68.2478 62.1339C69.6088 62.153 70.9507 62.038 72.2926 61.8079C74.938 61.386 77.5259 60.5997 80.0755 59.7943C81.9733 59.219 83.8711 58.6245 85.7689 58.0492C87.3792 57.5506 88.9894 57.0519 90.5805 56.4958C92.9959 55.6328 95.3729 54.6356 97.6541 53.4658C98.4401 53.0823 99.2261 52.6412 99.7628 51.9508C100.875 50.5317 100.338 47.8086 98.1909 48.1921C92.0374 49.2852 85.8839 50.3783 79.7304 51.4906C76.1074 52.1426 72.5035 52.7755 68.9379 53.6768C67.7877 53.9644 66.5225 54.463 65.6024 55.2493C64.8547 55.8821 63.8771 56.3232 63.2828 57.1287C63.2061 57.2245 63.1678 57.3204 63.1103 57.4163V57.4163Z" fill="#FCD9BA"/>
  <path d="M98.6128 47.5017C97.7118 48.1154 97.6735 48.8825 97.6543 49.9564C97.6543 50.4358 97.6543 50.9344 97.6926 51.4138C97.7501 52.3535 97.8077 52.8905 98.6703 53.3124C99.9738 53.9452 101.45 54.1178 102.868 54.3479C103.731 54.4822 104.651 54.6548 105.533 54.5972C106.357 54.5589 107.143 54.6548 107.948 54.4055C108.236 54.3096 108.562 54.1753 108.773 53.9644C109.06 53.6767 109.156 53.3507 108.639 53.4082C107.738 53.5041 106.779 53.4466 105.897 53.2932C105.667 53.2548 104.594 53.1014 105.073 52.8138C105.303 52.6795 105.744 52.8138 105.993 52.7946C106.415 52.7946 106.856 52.7562 107.277 52.737C108.14 52.6987 108.984 52.6603 109.846 52.622C110.153 52.622 110.613 52.5645 110.824 52.296C110.977 52.085 111.035 51.6631 110.766 51.4905C110.651 51.4138 110.498 51.4138 110.345 51.4138C108.715 51.3755 107.105 51.6823 105.495 51.3179C105.265 51.2604 104.824 51.0303 105.188 50.8385C105.303 50.781 105.437 50.781 105.571 50.7618C107.009 50.7235 108.447 50.6851 109.885 50.6276C110.306 50.6276 110.92 50.6851 111.226 50.3591C111.744 49.8221 111.054 49.3427 110.517 49.3427C109.52 49.3427 108.504 49.4194 107.508 49.4002C106.76 49.4002 105.897 49.4002 105.226 49.0551C105.38 48.9592 105.571 48.9592 105.763 48.9592C106.492 48.9592 107.201 48.9592 107.91 48.9016C108.562 48.8441 109.252 48.8825 109.885 48.7482C110.325 48.6523 110.862 48.0387 110.21 47.7894C110.057 47.7318 109.865 47.7318 109.693 47.7318C108.255 47.7894 106.817 47.9236 105.399 47.7702C104.862 47.7127 104.191 47.6168 103.769 47.2332C103.98 46.6771 105.092 46.6579 105.552 46.3703C106.223 45.9484 106.664 45.4114 106.568 44.5101C106.492 43.7814 105.38 44.5676 105.073 44.7786C104.057 45.4306 102.964 45.8141 101.833 46.236C100.76 46.6196 99.6863 46.888 98.6895 47.5209C98.6511 47.5401 98.632 47.5592 98.5936 47.5784L98.6128 47.5017Z" fill="#FCD9BA"/>
  <path d="M50.4766 49.6303C49.2114 47.5208 47.6586 45.5647 45.9142 43.8388C45.4158 43.3402 44.8982 42.8799 44.3614 42.4197C44.3039 42.3622 44.1889 42.3622 44.1122 42.3813C44.0547 42.3813 43.978 42.458 44.0547 42.5156C45.9142 44.1073 47.6011 45.9483 49.0005 47.9619C49.4031 48.518 49.7673 49.0933 50.1315 49.6878C50.2082 49.8029 50.5724 49.7645 50.4958 49.6303H50.4766Z" fill="#99A558"/>
  <path d="M48.8093 48.9015C46.9499 47.981 45.0137 47.1948 43.0393 46.5619C41.0648 45.9291 39.0328 45.4497 36.9625 45.1237C35.7931 44.9319 34.6237 44.8168 33.4544 44.7209C33.3969 44.7209 33.2627 44.7401 33.2627 44.8168C33.2627 44.8935 33.3969 44.9127 33.4544 44.9127C35.5247 45.0661 37.4992 45.3538 39.5312 45.814C41.5248 46.2743 43.4802 46.8688 45.378 47.6167C46.4515 48.0386 47.5058 48.4988 48.541 49.0166C48.6176 49.055 48.7327 49.055 48.8093 49.0166C48.8668 48.9783 48.886 48.9015 48.8093 48.8632V48.9015Z" fill="#99A558"/>
  <path d="M45.4544 62.2297C45.4161 62.8242 45.3202 63.4187 45.186 63.994L40.5086 63.0159C38.8984 62.6708 37.2689 62.3448 35.6587 61.9996C34.7769 61.8078 33.8759 61.5968 33.0133 61.3284C32.9366 61.3092 32.8216 61.3092 32.7641 61.3667C32.7065 61.4242 32.7641 61.4818 32.8216 61.501C34.3743 61.9996 36.0037 62.2872 37.5948 62.6324C39.2434 62.9776 40.8728 63.3228 42.5214 63.668C43.4416 63.8597 44.3617 64.0515 45.2819 64.2433C45.3586 64.2433 45.4928 64.2433 45.5119 64.1474C45.6461 63.5146 45.7611 62.8817 45.7995 62.2489C45.7995 62.1146 45.4352 62.0954 45.4352 62.2489L45.4544 62.2297Z" fill="#99A558"/>
  <path d="M36.9626 42.7265C38.017 42.8415 39.0329 43.0525 40.0489 43.3401C40.8157 43.5703 41.5825 43.8004 42.3685 43.9922C42.426 43.8771 42.4835 43.7429 42.5218 43.6278C42.7519 42.8415 42.3493 42.4388 42.2151 41.6526C42.0618 40.6362 42.0809 39.6006 42.0234 38.5842C41.9084 36.6282 41.5633 34.442 39.5697 33.5215C37.7102 32.4668 33.5696 32.4284 32.2469 34.231C31.4801 35.2858 31.5376 36.7816 31.4417 38.0089C31.3075 39.4664 31.2884 40.9814 31.0967 42.4388C33.052 42.4388 35.0073 42.5347 36.9626 42.7457V42.7265Z" fill="#FCD9BA"/>
  <path d="M40.7202 39.7923C41.1803 39.9073 41.6595 40.0032 42.1196 39.9265C41.9471 38.2965 41.9662 36.5897 41.2953 35.0555C39.8576 34.4227 38.324 33.8282 37.0396 35.2473C35.161 37.5294 39.0333 39.3512 40.7202 39.7923V39.7923Z" fill="#E6C1A0"/>
  <path d="M27.1287 32.1216C26.1127 30.7408 25.3842 29.1683 25.0967 27.4616C24.8091 25.7356 25.1542 24.3932 25.5951 22.7632C26.1702 20.6537 28.1255 19.0045 29.985 18.0073C33.493 16.1279 38.343 15.8594 41.0651 19.273C42.4069 20.9797 42.6178 22.955 43.3654 24.8727C43.6338 25.5439 44.1705 25.8507 44.7648 26.1959C45.4357 26.6178 46.1067 27.0205 46.7776 27.4424C46.9502 27.5574 47.1227 27.6533 47.2569 27.8067C47.6978 28.3245 47.1035 29.0149 46.7585 29.4176C46.145 30.1464 46.2792 31.3353 46.4326 32.2175C46.6243 33.2722 46.9693 34.3078 46.8543 35.3817C46.816 35.7269 46.7201 36.0721 46.5284 36.3405C46.1259 36.935 45.3591 37.146 44.7265 37.4528C44.1322 37.7405 43.4996 37.9322 42.8478 38.0281C41.506 38.2582 40.1257 38.1432 38.8414 37.7788C37.9404 37.5295 37.0778 37.146 36.2918 36.6666C35.5825 36.2255 34.7007 35.6502 34.2215 34.9598C33.8381 34.4037 33.0521 34.1927 32.4579 34.5379C32.2086 34.6913 32.2662 34.9214 31.9403 35.0173C31.6527 35.1132 31.116 34.9406 30.8476 34.8639C29.3332 34.4612 28.0872 33.3297 27.167 32.1024L27.1287 32.1216Z" fill="#FCD9BA"/>
  <path d="M38.9952 25.5438C38.8418 25.2945 39.1294 24.7192 39.2444 24.489C39.4361 24.048 39.7812 23.6836 40.1645 23.4151C40.5479 23.1466 41.1039 22.7823 41.5831 22.8398C41.909 22.8782 42.2349 23.2042 42.0048 23.4918C41.794 23.7603 41.123 23.9712 40.8163 24.0863C40.5479 24.1822 40.2412 24.2397 39.992 24.4123C39.7428 24.5657 39.5703 24.815 39.3786 25.0452C39.2444 25.2178 39.1102 25.3903 38.976 25.5629L38.9952 25.5438Z" fill="#B36332"/>
  <path d="M42.9821 31.3735C43.0971 31.2968 43.2313 31.2584 43.3655 31.2393C43.5188 31.2393 43.6722 31.2393 43.8256 31.2776C44.1323 31.3351 44.439 31.3735 44.7457 31.431C44.8991 31.4502 45.0524 31.4886 45.1866 31.5461C45.8384 31.8529 45.7042 32.7351 45.0908 32.9652C44.8607 33.0611 44.6115 33.0611 44.3623 33.0419C43.6914 32.9844 43.0204 32.6967 42.8287 31.9872C42.7712 31.757 42.7904 31.5077 43.0013 31.3735H42.9821Z" fill="#E9B8A2"/>
  <path d="M27.0904 41.25C27.2629 40.3295 27.4354 39.409 27.5121 38.4693C27.6463 36.4365 27.2246 34.3846 26.3236 32.5819C25.9019 31.719 25.3651 30.9327 24.9625 30.0505C23.9657 27.8068 24.0232 25.1604 24.9625 22.8783C26.3811 19.4265 29.1607 17.6238 32.4579 16.2047C33.8765 15.591 35.41 15.0349 36.9436 15.15C39.589 15.3417 40.3942 17.5471 39.474 19.8675C39.0523 20.9414 38.343 21.8811 37.7487 22.8783C36.6752 24.6618 36.081 26.4836 35.8318 28.5164C35.6017 30.4341 35.8318 32.371 36.0235 34.3079C36.3302 37.2803 36.5794 40.3103 36.081 43.2635C35.5826 46.1785 31.8828 47.9236 29.2566 48.1153C28.6431 48.1537 27.9914 48.1153 27.5121 47.7702C26.3428 46.9072 26.592 44.6635 26.7453 43.4361C26.8412 42.7074 26.9754 41.9595 27.1287 41.2308L27.0904 41.25Z" fill="#B36332"/>
  <path d="M35.7933 28.5547C35.3524 28.3054 34.8156 28.2862 34.2789 28.6698C33.7996 29.0149 33.5312 29.6286 33.5121 30.2231C33.4929 30.8176 33.6846 31.4121 33.953 31.949C34.068 32.1792 34.2022 32.3901 34.3747 32.5819C34.9306 33.1955 36.1383 34.0585 37.001 33.7517C37.4994 33.5599 37.6336 33.0997 37.7294 32.5435C37.7677 32.2942 37.7294 32.0449 37.6911 31.7956C37.5185 30.9135 37.0585 30.3382 36.6942 29.5711C36.4834 29.13 36.1575 28.7465 35.7741 28.5355L35.7933 28.5547Z" fill="#FCD9BA"/>
  <path d="M42.4452 26.6369C42.4452 26.6369 42.3685 26.5219 42.311 26.4643C42.1769 26.3685 42.0235 26.2917 41.851 26.2726C41.5826 26.2342 41.3142 26.3109 41.0842 26.4452C40.7391 26.6753 40.5666 27.0205 40.279 27.3081C40.1449 27.4424 39.9915 27.5574 39.7998 27.615C39.8573 27.6725 39.934 27.6917 40.0107 27.7108C40.4707 27.7876 40.7391 27.4424 40.9883 27.1355C41.1225 26.9821 41.2567 26.8287 41.4484 26.7328C41.7551 26.5986 41.966 26.6945 42.2727 26.7328C42.4452 26.752 42.4836 26.7136 42.4452 26.6369V26.6369Z" fill="#4B575E"/>
  <path d="M35.8695 20.5772C35.8695 19.9443 35.8312 19.3115 35.7353 18.6978C35.7162 18.5636 35.352 18.5444 35.3711 18.6978C35.7162 20.884 35.3711 23.1661 34.4318 25.1797C34.1634 25.7358 33.8567 26.2728 33.4925 26.7906C33.4158 26.9056 33.7609 27.0015 33.8375 26.8864C35.1219 25.0646 35.8504 22.8209 35.8695 20.5772Z" fill="#98491F"/>
  <path d="M32.1699 21.536C32.1699 21.4017 31.7865 21.4017 31.8057 21.536C31.9399 23.1469 31.5373 24.7769 30.6938 26.1385C30.4446 26.522 30.1762 26.8864 29.8504 27.2316C29.7353 27.3658 30.0804 27.4233 30.1762 27.3275C31.3072 26.1193 31.9974 24.5468 32.1699 22.9167C32.2082 22.4565 32.2274 21.9962 32.1699 21.536V21.536Z" fill="#98491F"/>
  <path d="M61.5384 27.4234C61.2892 26.3112 60.6374 25.3523 59.9282 24.4702C59.2189 23.588 58.4521 22.6867 57.3786 22.2265C56.7843 21.9772 56.1326 21.8621 55.5 21.9772C55.4425 21.9772 55.3466 22.0155 55.3658 22.1114C55.4041 22.1881 55.5383 22.1881 55.5958 22.1881C56.6693 21.9963 57.6853 22.5716 58.4329 23.262C58.8355 23.6264 59.1805 24.0483 59.5064 24.4702C59.8515 24.8921 60.1774 25.3331 60.4457 25.7934C60.7525 26.292 61.0208 26.8481 61.1359 27.4234C61.1742 27.5577 61.5384 27.5577 61.5001 27.4234H61.5384Z" fill="#98491F"/>
  <path d="M57.3782 26.5989C57.0906 26.2537 56.7647 25.9277 56.4005 25.6592C56.3238 25.6017 56.228 25.6017 56.1513 25.6208C56.0938 25.6208 56.0171 25.6976 56.0938 25.7551C57.3398 26.7139 58.1833 28.1714 58.3942 29.7247C58.4517 30.1658 58.4708 30.6069 58.4133 31.048C58.4133 31.1822 58.7775 31.2014 58.7775 31.048C58.9309 29.4563 58.3942 27.8262 57.3782 26.5989V26.5989Z" fill="#98491F"/>
  <path d="M32.3234 41.461C31.7483 42.8033 30.5982 43.9156 29.2179 44.4142C28.8154 44.5676 28.3553 44.7019 27.9527 44.4909C27.8761 44.4526 27.761 44.4526 27.6844 44.4909C27.6269 44.5293 27.6077 44.5868 27.6844 44.6443C28.0869 44.8745 28.5662 44.8361 29.0071 44.7211C29.4096 44.6252 29.793 44.4526 30.1381 44.2608C30.8474 43.8773 31.48 43.3403 31.9784 42.6883C32.2468 42.3239 32.496 41.9404 32.6685 41.5185C32.726 41.3842 32.3618 41.3459 32.3043 41.461H32.3234Z" fill="#98491F"/>
  <path d="M213.766 9.40479C214.533 9.07878 215.338 8.90619 216.162 8.88701C215.28 8.36923 214.053 8.44594 213.248 9.09796C213.191 9.15549 213.114 9.19384 213.037 9.19384C212.98 9.19384 212.942 9.15549 212.884 9.11713C212.52 8.84865 212.271 8.48429 211.964 8.15828C211.293 7.44873 210.622 6.75836 209.913 6.08716C210.124 7.19943 210.641 8.25417 211.408 9.09796C211.351 9.04043 210.296 9.21302 210.124 9.21302C209.625 9.21302 209.108 9.13631 208.628 9.04043C208.628 9.38561 208.954 9.65409 209.299 9.74998C209.625 9.84586 209.99 9.82668 210.335 9.90339C210.718 9.99928 211.063 10.2294 211.312 10.5362C211.351 10.5746 211.389 10.6321 211.37 10.6897C211.37 10.8047 211.216 10.8622 211.082 10.8622C210.526 10.9198 209.951 10.9773 209.395 11.0157C208.859 11.0732 208.283 11.1499 207.938 11.5526C207.804 11.7252 207.708 11.917 207.632 12.1279C207.133 13.3361 206.443 14.3908 205.964 15.599C205.446 16.8838 204.833 18.1112 204.162 19.3385C203.548 20.4508 202.552 21.6206 202.13 22.8096C202.092 22.9246 202.187 23.0397 202.302 23.078C202.417 23.1164 202.532 23.078 202.667 23.078C203.165 23.0205 203.702 23.0972 204.162 23.3082C203.433 23.4232 202.705 23.5958 202.015 23.8451C200.807 24.267 200.769 26.1464 201.421 27.086C202.763 29.0421 206.481 26.76 207.843 25.8779C209.204 24.9957 210.43 23.941 211.485 22.7328C211.849 22.3301 212.347 21.8315 212.635 21.3713C212.846 21.0261 212.75 20.7576 212.539 20.2782C212.213 19.5686 211.37 18.2262 210.622 17.8811C211.581 18.3221 212.539 18.7632 213.325 19.4727C213.344 19.4727 213.363 19.5111 213.402 19.5111C213.44 19.5111 213.459 19.4727 213.478 19.4536C213.977 18.6098 214.437 17.9002 214.705 16.9606C214.954 16.0976 215.357 14.8703 215.3 13.9881C215.242 13.1635 214.264 12.032 213.459 11.8595C214.418 12.0704 215.53 12.2622 216.316 11.6677C215.05 11.5718 213.881 10.7088 213.402 9.53903C213.517 9.4815 213.651 9.42397 213.766 9.36644V9.40479Z" fill="#9DCAD4"/>
  <path d="M213.823 2.13673C213.555 3.78596 213.229 5.43519 212.826 7.06524C212.424 8.69529 211.945 10.3062 211.389 11.8787C210.833 13.4512 210.181 14.9854 209.452 16.4812C208.724 17.9578 207.881 19.3961 206.941 20.7385C206.002 22.0809 204.948 23.3657 203.797 24.5355C203.644 24.689 203.51 24.8232 203.356 24.9766C203.28 25.0533 203.356 25.1492 203.452 25.1684C203.548 25.2067 203.721 25.2067 203.797 25.1109C204.986 23.9602 206.079 22.6945 207.056 21.3521C208.034 20.0098 208.897 18.5715 209.663 17.0948C210.43 15.6182 211.101 14.084 211.676 12.5115C212.27 10.9198 212.769 9.30895 213.191 7.6789C213.612 6.04885 213.957 4.39962 214.245 2.7504C214.283 2.53945 214.322 2.3285 214.341 2.13673C214.379 1.96414 213.862 1.94496 213.823 2.13673V2.13673Z" fill="white"/>
  <path d="M122.016 178.769C122.054 178.27 122.016 177.791 121.786 177.35C121.69 178.136 121.441 178.884 121.077 179.593C121.038 178.654 120.943 177.637 120.425 176.813C119.85 175.911 118.623 175.739 117.684 175.393C117.473 175.317 117.166 174.991 116.955 175.01C116.917 175.509 116.974 176.026 117.013 176.525C117.032 176.947 116.994 177.484 117.089 177.886C116.898 177.177 116.649 176.467 116.342 175.796C116.073 175.24 115.652 174.32 115.115 173.955C114.885 173.802 114.597 173.744 114.329 173.533C114.022 173.303 113.716 173.054 113.409 172.805C112.834 172.306 112.297 171.788 111.818 171.213C111.396 170.733 111.051 170.177 110.687 169.64C110.495 169.353 110.303 169.065 110.073 168.797C109.997 168.701 109.728 168.24 109.632 168.24C109.556 168.24 109.498 168.298 109.46 168.375C109.422 168.451 109.422 168.528 109.422 168.605C109.422 169.046 109.422 169.506 109.402 169.947C109.249 169.487 109.076 169.027 108.846 168.605C108.616 168.183 108.31 167.78 107.888 167.531C107.639 167.377 107.006 167.608 106.757 167.684C104.016 168.547 105.07 171.29 105.952 173.265C106.259 173.974 106.604 174.665 106.968 175.336C107.313 175.969 107.562 176.563 108.214 176.889C108.961 177.254 109.824 177.254 110.61 177.503C110.323 177.714 109.92 177.733 109.556 177.714C109.191 177.714 108.808 177.676 108.482 177.829C108.425 178.328 108.655 178.155 108.942 178.366C109.268 178.615 109.537 179.075 109.824 179.363C110.131 179.689 110.457 179.977 110.802 180.264C110.993 180.437 111.569 181.012 111.818 181.012C112.067 181.012 112.642 181.473 112.891 181.607C114.693 182.431 116.649 182.642 118.355 181.396C118.259 182.125 118.144 182.853 118.048 183.582C118.815 182.738 119.581 181.914 120.291 181.032C120.425 181.626 120.693 182.182 121.077 182.662C120.943 182.508 121.077 181.607 121.077 181.396C121.633 181.664 121.92 182.662 122.112 183.179C122.361 182.297 122.054 181.358 121.748 180.495C122.553 180.149 123.377 179.823 124.182 179.478C123.3 179.171 122.246 179.478 121.652 180.169C121.786 179.727 121.901 179.248 121.939 178.769H122.016Z" fill="#9DCAD4"/>
  <path d="M126.099 180.801C124.681 180.801 123.243 180.667 121.844 180.36C120.463 180.073 119.083 179.612 117.799 179.056C116.476 178.481 115.23 177.771 114.041 176.947C112.872 176.122 111.799 175.182 110.821 174.147C109.843 173.111 108.962 171.961 108.233 170.733C108.137 170.58 108.041 170.426 107.965 170.273C107.869 170.12 107.37 170.177 107.466 170.35C108.176 171.615 109.038 172.824 110.016 173.917C110.994 175.01 112.086 175.988 113.256 176.87C114.425 177.733 115.69 178.481 117.013 179.114C118.336 179.727 119.735 180.226 121.153 180.571C122.591 180.916 124.067 181.108 125.543 181.146C125.716 181.146 125.908 181.146 126.08 181.146C126.157 181.146 126.329 181.108 126.329 181.012C126.329 180.897 126.157 180.878 126.08 180.878L126.099 180.801Z" fill="#F2FFFC"/>
  <path d="M207.911 175.793C207.489 175.525 207.048 175.333 206.55 175.333C207.201 175.793 207.757 176.349 208.198 177.001C207.355 176.599 206.396 176.196 205.438 176.273C204.364 176.349 203.655 177.366 202.888 178.037C202.716 178.19 202.294 178.305 202.217 178.516C202.639 178.785 203.137 178.977 203.598 179.168C203.981 179.341 204.422 179.629 204.844 179.725C204.115 179.552 203.387 179.437 202.639 179.418C202.026 179.399 201.01 179.341 200.454 179.648C200.204 179.782 200.013 180.012 199.725 180.146C199.38 180.319 199.016 180.472 198.652 180.626C197.962 180.914 197.233 181.124 196.505 181.297C195.872 181.45 195.239 181.489 194.588 181.566C194.243 181.604 193.898 181.642 193.572 181.719C193.457 181.738 192.92 181.757 192.882 181.853C192.843 181.911 192.882 182.007 192.92 182.064C192.958 182.122 193.035 182.16 193.112 182.198C193.495 182.409 193.898 182.62 194.281 182.85C193.802 182.774 193.323 182.697 192.843 182.716C192.364 182.716 191.866 182.812 191.444 183.061C191.195 183.196 191.099 183.886 191.06 184.135C190.543 186.973 193.457 187.319 195.604 187.453C196.37 187.51 197.137 187.53 197.904 187.53C198.633 187.53 199.265 187.568 199.859 187.146C200.53 186.667 200.933 185.9 201.527 185.324C201.585 185.689 201.412 186.034 201.22 186.36C201.029 186.686 200.837 186.993 200.818 187.357C201.22 187.625 201.182 187.357 201.508 187.204C201.872 187.031 202.409 187.012 202.812 186.878C203.233 186.743 203.655 186.609 204.058 186.437C204.288 186.341 205.074 186.111 205.189 185.88C205.304 185.65 205.994 185.363 206.205 185.19C207.777 183.963 208.869 182.352 208.562 180.261L210.364 181.546C209.981 180.472 209.598 179.399 209.157 178.363C209.732 178.536 210.364 178.555 210.959 178.44C210.767 178.478 210.019 177.941 209.847 177.826C210.345 177.462 211.342 177.673 211.917 177.749C211.246 177.116 210.288 176.944 209.368 176.81C209.444 175.927 209.54 175.045 209.617 174.182C208.946 174.815 208.697 175.889 209.042 176.752C208.697 176.426 208.332 176.1 207.949 175.832L207.911 175.793Z" fill="#9DCAD4"/>
  <path d="M211.61 173.147C210.958 174.413 210.153 175.602 209.252 176.695C208.351 177.788 207.316 178.785 206.204 179.667C205.073 180.568 203.865 181.336 202.581 182.007C201.316 182.659 199.974 183.177 198.594 183.56C197.214 183.944 195.795 184.193 194.357 184.27C194.185 184.27 193.993 184.27 193.821 184.289C193.629 184.289 193.456 184.768 193.648 184.768C195.105 184.73 196.562 184.519 197.98 184.174C199.399 183.829 200.779 183.311 202.102 182.678C203.425 182.045 204.671 181.278 205.84 180.396C207.009 179.514 208.102 178.497 209.06 177.404C210.038 176.292 210.901 175.084 211.61 173.78C211.706 173.626 211.783 173.454 211.859 173.3C211.898 173.224 211.955 173.07 211.859 173.013C211.763 172.955 211.648 173.109 211.61 173.166V173.147Z" fill="white"/>
  <path d="M17.9457 94.0516C18.0608 94.8571 17.9457 95.6817 17.6582 96.4488C17.6582 96.3721 18.3291 96.0844 18.425 96.0077C18.6934 95.8159 18.9234 95.5666 19.1534 95.3365C19.556 94.9338 19.7285 94.5502 19.9586 94.0133C20.3036 94.7228 20.687 95.394 21.1088 96.0461C21.4921 95.5091 21.3963 94.6845 21.0512 94.1475C20.7637 93.7065 20.3228 93.3229 20.2461 92.8051C20.2269 92.6709 20.2461 92.5366 20.3228 92.4408C20.3803 92.3832 20.4762 92.3641 20.5528 92.3449C21.0704 92.2298 21.6072 92.1339 22.1439 92.0764C21.5305 91.8079 20.7637 91.9038 20.2269 92.3257C20.6103 91.5394 20.7254 90.408 20.3995 89.6026C20.2845 89.3341 20.1503 89.0848 20.0161 88.8355C19.9394 88.7012 19.8435 88.5478 19.7669 88.4136C19.7669 89.2957 19.7477 90.1587 19.7285 91.0408C19.5368 90.197 19.4026 89.3916 19.0001 88.6054C19.0001 88.8738 18.9809 89.1231 18.9042 89.3916C18.7892 89.8519 18.54 90.2929 18.2141 90.6381C18.1566 89.8327 17.9457 88.6054 17.3898 87.9725C16.9489 87.4931 16.163 87.2246 15.6262 86.8411C15.4729 86.726 15.262 86.4959 15.0895 86.4767C15.1086 86.9561 15.2428 87.4547 15.3195 87.9342C15.3962 88.4136 15.4537 88.893 15.5495 89.3533C15.3195 88.3944 15.1086 87.4356 14.8786 86.4767C14.8019 86.1123 14.4377 85.9014 14.1693 85.6713C13.8626 85.3836 13.5751 85.0959 13.2683 84.8083C11.5047 83.0056 10.0287 80.9345 8.16919 79.2278C7.47908 78.5949 6.65478 77.9813 5.71547 78.0004C2.47579 78.0388 4.69947 82.2577 5.35124 83.5426C5.5046 83.8494 5.73464 84.1946 6.02218 84.4056C6.19471 84.5206 6.40558 84.5782 6.59727 84.6357C7.68995 84.9617 8.78262 85.3644 9.81779 85.8439C8.80179 85.7863 7.7858 85.7288 6.7698 85.6713C6.69312 85.6713 6.63561 85.6713 6.57811 85.7096C6.48226 85.7863 6.84648 86.2658 6.92316 86.3616C7.09569 86.6493 7.26821 86.9178 7.44074 87.2054C7.80497 87.7616 8.16919 88.3177 8.55259 88.8547C9.31938 89.9286 10.1437 90.9641 11.0063 91.9613C11.2939 92.2873 11.5814 92.6134 11.8881 92.9202C12.2523 93.3037 12.6166 93.7256 13.0383 94.0516C13.345 94.2818 13.8818 94.3009 14.246 94.3201C15.2045 94.3585 16.1821 94.0708 16.9681 93.4955C17.0448 93.5722 16.9681 93.7065 16.9106 93.8023C16.6997 94.1283 16.4505 94.4352 16.1821 94.7228C16.4122 94.7995 16.6422 94.7228 16.8722 94.7228C17.1023 94.7228 17.3515 94.6461 17.5432 94.5119C17.6582 94.4352 17.9457 94.2626 17.9266 94.1092L17.9457 94.0516Z" fill="#9DCAD5"/>
  <path d="M25.8439 94.5887C24.4062 94.2052 23.0068 93.7257 21.6458 93.1504C20.2847 92.5751 18.962 91.9039 17.6968 91.1368C16.4316 90.3697 15.2239 89.526 14.0737 88.5863C12.9235 87.6466 11.8309 86.6494 10.834 85.5563C9.83721 84.4824 8.89789 83.3318 8.05442 82.1236C7.9394 81.9702 7.84355 81.8168 7.72854 81.6634C7.67103 81.5675 7.51767 81.5483 7.42182 81.5675C7.36431 81.5675 7.17261 81.6442 7.24929 81.7401C8.07359 82.9866 8.99374 84.1756 9.99056 85.2878C10.9874 86.4001 12.0609 87.4357 13.2111 88.3945C14.3613 89.3534 15.5881 90.2547 16.8533 91.0409C18.1185 91.8272 19.4412 92.5368 20.8023 93.1504C22.1825 93.7641 23.5819 94.2819 25.0196 94.6846C25.1922 94.7421 25.3838 94.7805 25.5564 94.838C25.6714 94.8572 25.8248 94.8764 25.9014 94.7805C25.9781 94.7038 25.9014 94.6079 25.8056 94.5887H25.8439Z" fill="#F2FFFC"/>
</svg>
