<svg width="196" height="136" viewBox="0 0 196 136" fill="none"
  xmlns="http://www.w3.org/2000/svg">
  <path d="M125.457 135.98C125.829 135.98 126.201 136.005 126.572 136.031C126.944 136.056 127.329 136.082 127.701 136.031C128.047 135.992 128.393 135.89 128.701 135.725C129.239 135.457 129.278 134.475 129.162 133.952C128.931 132.843 128.47 131.81 128.316 130.662C128.29 130.509 128.265 130.33 128.124 130.254C128.06 130.228 127.983 130.216 127.919 130.216C127.534 130.216 127.149 130.216 126.765 130.203C126.354 130.203 125.918 130.203 125.534 130.369C125.085 130.585 124.777 131.019 124.547 131.453C124.226 132.052 124.072 132.485 123.444 132.753C122.752 133.059 122.085 133.416 121.393 133.735C120.803 134.016 120.2 134.296 119.611 134.564C119.29 134.717 118.97 134.87 118.649 135.01C118.405 135.125 117.931 135.24 117.764 135.444C117.187 136.145 119.905 136.196 120.264 136.171C121.277 136.094 122.252 135.941 123.265 135.929C123.995 135.929 124.726 135.929 125.457 135.941V135.98Z" fill="#FCD9BA"/>
  <path d="M122.072 108.485C122.162 109.671 122.239 110.87 122.393 112.069C122.675 114.262 122.931 116.456 123.162 118.649C123.649 123.1 124.046 127.55 124.354 132.014C124.444 133.251 124.982 133.225 126.034 133.353C126.777 133.442 127.841 133.557 128.316 132.83C128.713 132.205 128.624 131.006 128.713 130.279C128.803 129.476 128.893 128.672 128.97 127.869C129.239 125.178 129.457 122.488 129.624 119.797C129.777 117.285 129.765 114.785 129.944 112.273C130.136 109.557 130.226 106.828 130.226 104.099C130.226 101.497 130.2 98.2452 128.765 95.9498C127.636 94.1389 124.367 93.9221 122.828 95.2994C120.354 97.5311 121.546 103.499 121.88 106.445C121.957 107.121 122.008 107.797 122.059 108.473L122.072 108.485Z" fill="#FCD9BA"/>
  <path d="M141.881 58.3047C141.138 57.5523 140.138 57.1059 139.099 56.8126C137.663 57.514 136.24 58.2281 134.766 58.8403C133.214 59.4906 131.599 60.0517 129.932 60.294C127.137 66.6575 124.752 73.2122 122.791 79.869C120.381 88.0178 118.688 96.5747 118.522 105.081C118.893 105.068 119.278 105.055 119.65 105.042C120.073 105.03 120.496 105.017 120.919 104.991C120.919 104.991 120.919 104.991 120.932 104.991C121.099 104.991 121.265 104.979 121.432 104.979C122.252 104.953 123.073 104.915 123.893 104.889C124.265 104.877 124.637 104.864 125.009 104.851C125.06 104.851 125.124 104.851 125.176 104.851C125.291 104.851 125.406 104.851 125.522 104.838C126.688 104.8 127.855 104.749 129.035 104.711C129.112 104.711 129.189 104.711 129.265 104.711C129.432 104.711 129.612 104.698 129.778 104.698C129.945 104.698 130.124 104.698 130.317 104.698C130.996 104.723 131.714 104.749 131.971 104.239C132.214 103.78 131.919 102.275 131.983 101.688C131.983 101.676 131.983 101.65 131.983 101.637C132.176 99.9413 132.676 98.2835 133.176 96.6512C134.086 93.6671 134.996 90.6831 135.907 87.699C136.522 85.6714 137.445 83.7457 138.24 81.7436C138.407 81.3228 138.561 80.902 138.714 80.4811C138.932 79.8435 139.163 79.2059 139.381 78.5683C139.573 78.0072 139.766 77.446 139.958 76.8722C140.048 76.6171 140.138 76.3493 140.214 76.0943C140.24 76.005 140.279 75.9158 140.304 75.8137C141.279 72.8424 142.138 69.8201 142.676 66.7468C142.856 65.7393 142.997 64.7191 143.086 63.6862C143.253 61.9518 143.24 60.039 142.176 58.6617C142.074 58.5342 141.971 58.4067 141.856 58.2919L141.881 58.3047Z" fill="#DFB880"/>
  <path d="M177.189 117.361C177.305 117.017 177.433 116.66 177.561 116.315C177.689 115.958 177.831 115.614 177.895 115.244C177.959 114.9 177.959 114.543 177.895 114.198C177.792 113.599 176.869 113.293 176.318 113.242C175.177 113.14 174.048 113.28 172.907 113.089C172.753 113.063 172.574 113.051 172.459 113.153C172.407 113.204 172.382 113.267 172.369 113.344C172.253 113.701 172.138 114.071 172.01 114.428C171.882 114.823 171.753 115.231 171.818 115.639C171.894 116.137 172.228 116.545 172.574 116.889C173.061 117.374 173.42 117.642 173.51 118.317C173.6 119.057 173.753 119.809 173.856 120.549C173.946 121.199 174.048 121.837 174.138 122.487C174.189 122.832 174.241 123.189 174.292 123.533C174.33 123.788 174.292 124.286 174.459 124.502C174.959 125.255 175.818 122.679 175.895 122.334C176.125 121.353 176.254 120.383 176.536 119.414C176.741 118.713 176.959 118.024 177.189 117.336V117.361Z" fill="#FCD9BA"/>
  <path d="M152.163 104.507C153.176 105.157 154.163 105.82 155.228 106.432C157.151 107.542 159.061 108.664 160.959 109.812C164.805 112.12 168.613 114.505 172.369 116.966C173.408 117.642 173.715 117.208 174.459 116.456C174.985 115.933 175.715 115.142 175.421 114.326C175.164 113.625 174.151 112.974 173.626 112.477C173.036 111.916 172.446 111.367 171.844 110.806C169.856 108.97 167.843 107.159 165.792 105.399C163.869 103.754 161.869 102.249 159.971 100.579C157.92 98.7808 155.792 97.0464 153.599 95.4141C151.51 93.8456 148.907 91.8944 146.202 91.6394C144.061 91.4354 141.92 93.8966 142.086 95.9497C142.368 99.2526 147.856 101.931 150.42 103.448C151.01 103.792 151.587 104.162 152.151 104.532L152.163 104.507Z" fill="#FCD9BA"/>
  <path d="M156.908 93.5395C156.882 93.463 156.856 93.3865 156.831 93.3099C156.42 92.0602 156.023 90.7977 155.664 89.5225C154.946 86.9847 154.331 84.4215 153.818 81.8328C152.818 76.7318 152.254 71.5415 152.113 66.3513C152.036 63.329 152.113 60.2429 151.382 57.2843C150.946 55.4607 150.433 53.3566 149.1 52.0176C146.561 53.3948 143.933 54.6191 141.279 55.805C139.394 56.6467 137.574 57.6159 135.689 58.4576C135.689 58.4831 135.689 58.4958 135.689 58.5213V58.5468C135.689 58.7381 135.689 58.9294 135.689 59.1334C135.689 59.6308 135.689 60.1409 135.689 60.6382C135.689 61.1483 135.702 61.6457 135.715 62.1558C135.817 65.6627 136.138 69.1696 136.625 72.651C136.702 73.2121 136.792 73.786 136.881 74.3471C136.933 74.6404 136.971 74.9337 137.022 75.227C137.022 75.2525 137.022 75.278 137.022 75.2908C137.381 77.4587 137.792 79.6138 138.266 81.769C139.753 88.617 141.74 95.3758 143.843 101.994C144.24 103.231 144.971 103.537 145.843 103.372C146.048 103.333 146.253 103.27 146.471 103.193C146.625 103.142 146.766 103.066 146.92 103.002C146.946 102.989 146.984 102.976 147.01 102.964C148.202 102.364 149.433 101.344 150.279 100.859C150.279 100.859 150.279 100.859 150.292 100.859C150.638 100.655 150.997 100.464 151.343 100.26C151.407 100.222 151.471 100.183 151.523 100.158L151.946 99.9157C152.702 99.4821 153.446 99.0485 154.164 98.5894C154.51 98.3599 154.869 98.1431 155.228 97.9391H155.241C155.382 97.8498 155.523 97.7733 155.664 97.7095C155.907 97.582 156.164 97.48 156.42 97.3907C157.215 97.1229 157.728 96.8041 157.651 95.8987C157.6 95.1718 157.138 94.3301 156.869 93.616L156.908 93.5395Z" fill="#DFB880"/>
  <path d="M148.6 56.5194C148.446 55.1932 148.293 53.8542 148.113 52.5279C147.946 52.6172 147.793 52.6937 147.626 52.783C148.241 57.6289 148.703 62.4876 149.203 67.3462C150.011 75.1252 150.972 82.9297 152.947 90.5174C153.6 93.0041 154.357 95.4653 155.254 97.8756H155.267C155.408 97.7863 155.549 97.7098 155.69 97.646C153.639 92.0987 152.305 86.2836 151.37 80.443C150.087 72.5237 149.485 64.5025 148.587 56.5322L148.6 56.5194Z" fill="#DFB880"/>
  <path d="M147.523 84.2686C146.703 80.1368 145.998 75.9795 145.395 71.8094C144.792 67.6139 144.305 63.4184 143.933 59.1973C143.805 57.718 143.69 56.226 143.587 54.7467C143.421 54.8232 143.254 54.8997 143.087 54.9762C143.151 55.8817 143.215 56.7998 143.292 57.7053C143.639 61.9263 144.1 66.1346 144.677 70.3302C145.254 74.5257 145.934 78.7085 146.728 82.8658C147.459 86.6533 148.228 90.4535 149.331 94.1517C149.934 96.1793 150.652 98.1815 151.536 100.107L151.959 99.8648C151.305 98.4238 150.741 96.9445 150.254 95.4524C149.062 91.8053 148.254 88.0433 147.51 84.2813L147.523 84.2686Z" fill="#DFB880"/>
  <path d="M141.831 84.2304C141.267 81.4376 140.767 78.6321 140.331 75.8138C139.613 71.1464 139.087 66.4662 138.754 61.7606C138.639 60.2176 138.549 58.6618 138.485 57.106C138.318 57.1825 138.151 57.2717 137.985 57.3483C138.177 61.5948 138.536 65.8414 139.036 70.0624C138.959 70.0624 138.895 70.1007 138.869 70.1517C138.177 71.5162 137.51 72.9062 136.882 74.2962C135.254 77.9179 133.882 81.6544 132.754 85.4674C131.215 90.6831 130.138 96.0391 129.574 101.446C129.459 102.517 129.369 103.601 129.292 104.673C129.459 104.673 129.638 104.66 129.805 104.66C130.049 101.229 130.484 97.8117 131.113 94.4323C132.126 89.038 133.626 83.733 135.613 78.6066C136.062 77.4588 136.536 76.3111 137.023 75.1762C137.677 73.6714 138.382 72.1793 139.113 70.7128C139.164 71.0826 139.203 71.4397 139.254 71.8095C139.472 73.4928 139.715 75.1761 139.985 76.8595C140.908 82.6618 142.126 88.4259 143.626 94.1135C144.434 97.1613 145.28 100.235 146.472 103.155C146.626 103.104 146.767 103.027 146.921 102.964C145.921 100.49 145.164 97.9265 144.472 95.3505C143.472 91.6778 142.587 87.9668 141.831 84.2304V84.2304Z" fill="#DFB880"/>
  <path d="M127.972 69.1698C129.1 65.9434 130.408 62.768 132.1 59.8095C131.883 59.8732 131.677 59.937 131.459 59.988C130.023 62.5385 128.87 65.242 127.87 67.9965C126.652 71.3249 125.587 74.7171 124.613 78.122C122.626 85.0338 121.126 92.1369 120.857 99.3293C120.792 101.217 120.805 103.117 120.921 105.004C120.921 105.004 120.921 105.004 120.933 105.004C121.1 105.004 121.267 104.991 121.433 104.991C121.126 99.9924 121.51 94.9424 122.357 89.9945C123.562 82.9169 125.587 75.9413 127.959 69.1698H127.972Z" fill="#DFB880"/>
  <path d="M135.69 60.6129C135.985 59.7457 136.28 58.8913 136.575 58.0241C136.37 58.1262 136.164 58.2154 135.947 58.3174C135.857 58.5852 135.767 58.8403 135.677 59.1081C133.434 65.6118 131.228 72.1411 129.395 78.7851C127.408 86.0157 125.869 93.3994 125.254 100.885C125.151 102.211 125.062 103.525 125.023 104.851C125.074 104.851 125.139 104.851 125.19 104.851C125.305 104.851 125.421 104.851 125.536 104.838C125.703 100.26 126.241 95.6948 127.049 91.1804C128.395 83.7203 130.472 76.4131 132.793 69.208C133.716 66.3387 134.69 63.4822 135.664 60.6256L135.69 60.6129Z" fill="#DFB880"/>
  <path d="M127.472 21.9347C126.754 20.7488 125.459 20.1239 124.1 20.0984C123.779 20.0984 123.484 20.1366 123.215 20.2132C122.959 20.4172 122.728 20.634 122.497 20.8635C121.946 21.5649 121.471 22.3173 121.061 23.1207C120.907 23.414 120.766 23.7073 120.625 24.0134C120.664 24.0899 120.677 24.1919 120.625 24.2939C119.907 25.7987 119.292 27.3545 118.753 28.9231C117.394 32.1239 116.638 35.6691 115.907 39.0612C115.189 42.3514 113.792 44.8253 111.779 47.5161C110.369 49.4035 108.945 51.3036 107.535 53.1909C106.881 54.0709 106.394 55.0145 107.586 55.5756C108.368 55.9455 109.369 56.022 110.228 56.0475C111.971 56.0857 112.612 55.869 113.946 54.6702C115.664 53.1272 117.176 51.3673 118.535 49.4927C121.253 45.7308 123.33 41.548 125.151 37.3014C125.907 35.5416 126.818 33.667 127.151 31.7796C127.497 29.8285 127.92 27.9029 128.113 25.9262C128.254 24.4342 128.292 23.2865 127.484 21.9347H127.472Z" fill="#FCD9BA"/>
  <path d="M127.472 21.9346C127.061 21.2588 126.433 20.7359 125.702 20.4299C125.292 20.2513 124.869 20.2131 124.446 20.111C124.164 20.0473 123.664 19.805 123.395 19.856C123.138 19.907 122.92 20.0855 122.728 20.2641C121.446 21.4883 120.651 23.1206 119.946 24.7402C118.254 28.5914 116.792 32.5447 115.574 36.5744C115.51 36.804 115.433 37.0463 115.523 37.2758C115.651 37.5819 116.292 37.6074 116.574 37.7222C117.548 38.1047 118.497 38.5383 119.446 38.9719C119.882 39.1759 120.33 39.38 120.766 39.5585C121.113 39.6988 121.484 39.8263 121.843 39.9283C122.459 40.1196 123.087 40.2854 123.715 40.4767C124.215 39.431 124.677 38.3725 125.138 37.3013C125.895 35.5415 126.805 33.6669 127.138 31.7795C127.485 29.8284 127.908 27.9028 128.1 25.9262C128.241 24.4341 128.279 23.2864 127.472 21.9346V21.9346Z" fill="#99A558"/>
  <path d="M150.627 52.362C150.166 50.9975 149.704 49.633 149.243 48.2685C148.307 45.5522 147.358 42.836 146.383 40.1197C144.845 35.8476 143.242 31.5883 141.588 27.3418C141.294 26.6786 141.012 26.0283 140.717 25.3651C140.088 23.9496 139.524 22.4831 138.729 21.1568C137.986 19.9198 137.037 18.7084 135.896 17.8029C134.819 16.9485 133.511 16.4894 132.319 15.8391C130.421 15.5075 128.421 15.7371 126.652 16.5532C125.421 17.1143 124.421 18.0325 123.614 19.1419C122.062 21.2716 121.255 24.1154 121.049 26.5129C120.716 30.3768 121.588 34.2408 122.447 38.0283C123.319 41.854 124.191 45.6925 124.973 49.5437C125.37 51.5076 125.742 53.4715 126.075 55.4481C126.383 57.2462 126.28 59.6947 126.947 61.378C127.242 62.1176 128.101 62.3089 129.024 62.3472C129.691 62.3727 130.383 62.3089 130.934 62.3217C132.652 62.3217 134.357 62.2196 136.063 61.9773C139.46 61.4928 142.781 60.4981 145.883 59.057C147.871 58.1261 150.23 57.0039 151.807 55.4736C151.102 54.8232 150.935 53.2674 150.64 52.3748L150.627 52.362Z" fill="#99A558"/>
  <path d="M103.458 50.4236C103.458 50.4236 103.369 50.4619 103.33 50.4874C99.625 52.26 97.189 56.5448 95.0608 59.8859C91.3427 65.7393 87.599 71.6692 85.4708 78.2494C84.6759 80.7362 86.1374 82.0751 88.0734 83.4142C90.4068 85.0337 92.8556 86.513 95.5095 87.5459C97.8301 88.4514 100.305 89.0252 102.805 89.0252C105.01 89.0252 107.484 89.089 109.471 88.0305C111.754 86.8063 113.202 84.4726 114.331 82.1517C116.459 77.7903 117.485 73.2505 118.831 68.6724C118.869 68.5321 118.908 68.3918 118.997 68.277C119.215 67.9837 119.638 67.971 119.997 67.9327C122.254 67.7414 124.305 66.1729 125.215 64.1325C126.331 61.5948 124.908 59.7329 123.074 57.9858C120.728 55.7414 118.215 53.6755 115.561 51.7881C111.882 49.1867 107.561 48.5235 103.446 50.4236H103.458Z" fill="#FAEAEA"/>
  <path d="M132.305 15.839C131.549 15.431 129.946 15.686 129.126 15.8135C128.177 15.9666 126.985 16.2344 126.138 16.6934C124.459 17.5989 123.818 20.4554 123.856 22.2025C123.869 22.8401 124.074 23.6053 124.702 23.7455C125.331 23.8858 125.843 23.2865 126.241 22.7891C127.831 20.8125 130.087 19.499 131.933 17.7519C132.459 17.2546 133.164 16.3236 132.305 15.8518V15.839Z" fill="#FCD9BA"/>
  <path d="M130.588 15.2014C130.203 14.6785 129.754 14.1812 129.459 13.6073C128.998 12.7019 128.639 11.7455 128.049 10.9165C127.639 10.3554 127.088 9.8581 126.447 9.6158C125.69 9.32249 125.19 9.6158 124.626 10.1004C123.485 11.0568 122.459 12.4213 122.395 13.9644C122.395 14.3214 122.434 14.6785 122.511 15.0228C122.626 15.5074 122.805 15.9793 122.998 16.4383C123.331 17.2418 123.69 18.0324 124.075 18.8103C124.69 20.0473 125.267 20.7742 126.754 20.1876C127.344 19.958 127.857 19.5627 128.37 19.1801C129.395 18.3895 130.242 17.5096 131.28 16.7444C131.37 16.6806 131.46 16.6169 131.485 16.5149C131.588 16.1705 130.78 15.4692 130.588 15.2141V15.2014Z" fill="#FCD9BA"/>
  <path d="M124.306 18.5298C124.229 18.6191 124.152 18.7083 124.075 18.7976C123.69 18.0197 123.331 17.2291 122.998 16.4257C122.805 15.9666 122.626 15.4947 122.511 15.0101C122.575 14.9591 122.652 14.9081 122.716 14.8571C123.408 14.347 124.293 13.4926 125.229 14.0027C126.254 14.5638 125.741 16.2599 125.37 17.0633C125.126 17.5861 124.665 18.058 124.318 18.5043L124.306 18.5298Z" fill="#E6C1A0"/>
  <path d="M118.023 6.19819C118.023 6.19819 118.01 6.2492 117.998 6.27471C117.934 6.46599 117.985 6.74655 117.946 6.96334C117.908 7.23114 117.895 7.49894 117.921 7.76674C117.959 8.25133 118.331 8.67216 118.369 9.15676C118.382 9.37355 118.28 9.57759 118.203 9.78162C118.113 10.0239 118.023 10.2662 117.908 10.4958C117.69 10.9804 117.434 11.4394 117.151 11.8858C116.946 12.1918 116.728 12.5362 116.78 12.8932C116.857 13.4798 117.498 13.5946 117.972 13.7221C118.485 13.8624 118.652 14.5128 118.741 14.9464C118.869 15.5457 118.908 16.1578 119.062 16.7572C119.254 17.4968 119.639 18.109 120.485 18.1217C121.677 18.1345 122.857 17.7774 123.882 17.178C124.677 16.7062 125.382 16.0941 125.985 15.3927C126.498 14.7933 127.306 14.2832 127.601 13.5308C127.908 12.7529 128.639 12.804 129.293 12.3576C129.972 11.8985 130.408 11.0314 130.652 10.2917C130.934 9.47557 131.037 8.6084 131.152 7.74124C131.254 6.88682 131.357 6.00691 131.113 5.178C130.819 4.20881 130.062 3.43092 129.177 2.90807C128.293 2.38522 127.293 2.09191 126.293 1.84961C125.203 1.58181 124.203 1.35227 123.075 1.51805C122.28 1.63282 121.562 1.90062 120.818 2.15567C120.126 2.39797 119.6 2.95908 119.177 3.54569C118.626 4.33634 118.305 5.26727 118.023 6.18544V6.19819Z" fill="#FCD9BA"/>
  <path d="M128.075 14.347C127.844 14.2068 127.639 14.0282 127.46 13.8242C127.088 13.3906 126.819 12.8677 126.549 12.3704C126.421 12.1154 126.28 11.8731 126.075 11.669C125.78 11.3757 125.37 11.2354 125.011 11.0059C123.434 9.99845 123.985 7.84329 122.96 6.44052C122.511 5.84116 121.831 5.40758 121.088 5.29281C120.421 5.17803 119.703 5.2928 119.075 5.03776C117.767 4.47665 116.934 2.76782 118.216 1.76038C118.652 1.42882 119.139 1.16102 119.665 1.00799C120.113 0.867713 120.588 0.803951 120.998 0.58716C121.639 0.268349 122.101 -0.369272 122.78 -0.624321C123.152 -0.764598 123.562 -0.764598 123.96 -0.77735C124.614 -0.77735 125.28 -0.790103 125.883 -0.547806C126.319 -0.369272 126.691 -0.0759667 127.114 0.128072C128.101 0.612664 129.37 0.638169 130.05 1.49258C130.588 2.16846 130.55 3.12489 130.793 3.9538C131.075 4.91023 131.729 5.70088 132.242 6.56805C132.742 7.43521 133.114 8.49366 132.729 9.41184C132.524 9.90918 132.127 10.3173 131.909 10.8146C131.678 11.3757 131.678 12.0006 131.396 12.5489C131.127 13.0718 130.729 13.3396 130.319 13.7477C129.883 14.1812 129.639 14.6403 128.921 14.6148C128.614 14.6148 128.319 14.5001 128.062 14.347H128.075Z" fill="#553A12"/>
  <path d="M118.498 8.21327C118.498 8.21327 118.523 8.124 118.536 8.07299C118.703 7.74143 119.241 7.79244 119.549 7.80519C119.959 7.8307 120.344 7.99648 120.69 8.18777C121.036 8.3663 121.383 8.62135 121.472 8.99117C121.472 9.01667 121.472 9.02943 121.472 9.05493C121.408 9.1697 120.895 8.86365 120.806 8.82539C120.69 8.77438 120.562 8.73612 120.434 8.71062C119.972 8.59584 119.485 8.53208 119.011 8.59584C118.908 8.6086 118.806 8.6341 118.703 8.59584C118.524 8.54483 118.459 8.3663 118.485 8.20052L118.498 8.21327Z" fill="#553A12"/>
  <path d="M123.177 11.3247C123.177 11.3247 123.177 11.2992 123.177 11.2864C122.985 10.1642 123.921 8.06004 125.357 8.67215C125.857 8.88894 126.203 9.39904 126.28 9.93464C126.434 10.9803 125.613 12.7274 124.382 12.7657C123.639 12.7912 123.28 11.9495 123.164 11.3247H123.177Z" fill="#FCD9BA"/>
  <path d="M120.472 13.5436C120.472 13.5436 120.447 13.5436 120.447 13.5563C120.28 13.6584 120.113 13.7604 119.96 13.8624C119.844 13.9389 119.729 14.0027 119.613 14.0792C119.344 14.245 119.357 14.5383 119.46 14.8061C119.575 15.1249 119.998 15.1121 120.28 14.9846C120.396 14.9336 120.485 14.8698 120.588 14.7933C120.857 14.5765 121.101 14.296 121.19 13.9517C121.242 13.7604 121.267 13.5819 121.075 13.4671C120.883 13.3523 120.665 13.4161 120.485 13.5181L120.472 13.5436Z" fill="#E9B8A2"/>
  <path d="M119.985 9.94759C119.972 9.80731 119.933 9.67979 119.856 9.61603C119.805 9.56502 119.715 9.53951 119.639 9.53951C119.408 9.52676 119.267 9.65428 119.228 9.84557C119.203 9.96034 119.228 10.0879 119.228 10.2026C119.254 10.3302 119.292 10.4577 119.356 10.5725C119.395 10.6362 119.433 10.6745 119.497 10.7127C119.78 10.8403 119.946 10.649 119.959 10.4194C119.959 10.3174 119.985 10.1261 119.959 9.96034L119.985 9.94759Z" fill="#553A12"/>
  <path d="M121.255 3.87733C120.767 3.87733 120.255 3.85183 119.832 3.58403C119.421 3.32898 119.28 2.86989 119.19 2.42356C119.165 2.32154 118.921 2.33429 118.934 2.42356C118.985 2.67861 119.037 2.9209 119.152 3.15045C119.267 3.36724 119.434 3.54577 119.652 3.68605C120.126 3.97935 120.716 4.00486 121.255 4.01761C121.293 4.01761 121.383 4.00486 121.383 3.9411C121.383 3.87733 121.293 3.87733 121.255 3.86458V3.87733Z" fill="#412409"/>
  <path d="M123.114 2.14289C123.114 2.14289 122.998 2.09188 122.96 2.09188C122.678 2.13013 122.37 2.13013 122.126 2.00261C121.909 1.88784 121.742 1.6838 121.716 1.4415C121.716 1.33948 121.447 1.35223 121.46 1.4415C121.485 1.73481 121.703 1.98986 121.973 2.11738C122.306 2.28316 122.691 2.28316 123.05 2.23215C123.088 2.23215 123.165 2.1939 123.139 2.14289H123.114Z" fill="#412409"/>
  <path d="M131.691 7.01435C131.652 6.92509 131.396 6.95059 131.447 7.05261C131.793 7.86876 131.665 8.8252 131.152 9.53933C131.114 9.59034 131.217 9.61585 131.242 9.6286C131.293 9.6286 131.37 9.6286 131.396 9.57759C131.935 8.8507 132.037 7.85601 131.691 7.01435V7.01435Z" fill="#412409"/>
  <path d="M129.562 7.51183C129.511 7.43531 129.268 7.46082 129.319 7.55009C129.691 8.1622 129.191 8.79982 128.793 9.24616C128.716 9.33542 128.96 9.38643 129.011 9.32267C129.242 9.06762 129.485 8.78707 129.614 8.45551C129.729 8.14945 129.742 7.80513 129.562 7.52458V7.51183Z" fill="#412409"/>
  <path d="M124.139 63.38C122.933 63.3545 121.715 63.3162 120.51 63.2907C119.908 63.278 119.305 63.2652 118.702 63.2525C118.177 63.2525 117.625 63.2397 117.151 63.4693C116.715 63.6861 116.382 64.0559 116.061 64.4257C115.702 64.8465 115.356 65.2546 115.023 65.6882C114.356 66.5554 113.843 67.4863 113.51 68.5192C112.843 70.5341 112.741 72.6765 112.369 74.7424C111.984 76.9103 111.42 79.0527 110.702 81.1314C109.984 83.21 109.1 85.2249 108.061 87.1633C107.933 87.3928 107.805 87.6351 107.676 87.8647C107.625 87.9539 107.882 87.9794 107.92 87.9029C108.984 86.0156 109.895 84.0389 110.651 82.0113C111.407 79.9837 111.997 77.905 112.433 75.8009C112.651 74.7552 112.805 73.7095 112.959 72.651C113.1 71.6181 113.241 70.5724 113.484 69.5522C113.728 68.532 114.087 67.5373 114.651 66.6319C114.946 66.16 115.279 65.7137 115.638 65.2801C115.959 64.8848 116.292 64.4767 116.651 64.1069C116.818 63.9284 117.01 63.7626 117.228 63.635C117.472 63.4948 117.728 63.431 117.997 63.4055C118.561 63.3545 119.138 63.4055 119.702 63.4183C120.895 63.4438 122.087 63.482 123.28 63.5075L124.164 63.533C124.164 63.533 124.292 63.5203 124.292 63.4565C124.292 63.3928 124.203 63.3928 124.164 63.38H124.139Z" fill="#DFB880"/>
  <path d="M99.3813 81.5779C98.7787 80.1241 98.33 78.6066 98.0223 77.0635C97.7274 75.5205 97.5736 73.952 97.5864 72.3834C97.5864 71.4907 97.6505 70.6108 97.7531 69.7309C97.7531 69.6416 97.5095 69.6289 97.4967 69.7309C97.3172 71.2994 97.2915 72.8935 97.4197 74.462C97.5479 76.0306 97.83 77.5991 98.2659 79.1167C98.5095 79.9711 98.8044 80.8128 99.1377 81.6289C99.1762 81.7182 99.4326 81.6927 99.3813 81.5907V81.5779Z" fill="#DFB880"/>
  <path d="M115.753 66.7468C115.753 66.7468 115.792 66.7468 115.779 66.7723C115.458 67.1931 115.035 67.5119 114.599 67.7797C114.381 67.92 114.15 68.0348 113.92 68.1623C113.766 68.2516 113.574 68.3919 113.574 68.5832C113.574 68.7617 113.753 68.851 113.907 68.8765C114.702 69.0167 115.535 68.2516 116.202 67.8945C117.702 67.0911 118.92 65.9051 120.022 64.6299C120.189 64.4386 120.356 64.2473 120.458 64.005C120.497 63.903 120.535 63.801 120.599 63.7117C120.663 63.6097 120.766 63.5332 120.869 63.4694C121.42 63.0741 122.099 62.6788 122.253 61.9519C122.279 61.8371 122.279 61.7223 122.279 61.6076C122.24 60.9317 121.753 60.3196 121.125 60.039C120.317 59.682 119.445 59.8605 118.74 60.3451C118.676 60.3833 118.612 60.4344 118.535 60.4344C118.458 60.4344 118.394 60.4216 118.317 60.3961C117.945 60.2941 117.535 60.3451 117.151 60.4216C115.74 60.6894 114.394 61.174 112.997 61.5056C112.766 61.5566 112.509 61.6331 112.343 61.7989C111.881 62.2452 112.535 62.462 112.92 62.462C113.535 62.462 114.317 62.2452 114.881 62.5768C114.74 62.8828 114.215 63.1506 113.932 63.3292C113.586 63.5459 113.215 63.7372 112.868 63.9668C112.548 64.1708 112.227 64.3621 111.881 64.5279C111.497 64.7064 111.073 64.8467 110.714 65.0762C110.586 65.1655 110.368 65.3313 110.368 65.5098C110.381 65.8924 111.163 65.8924 111.407 65.8414C111.753 65.7649 112.061 65.5863 112.368 65.4206C112.881 65.1272 113.42 64.8722 113.894 64.5534C114.099 64.4259 113.932 64.7064 113.856 64.7702C113.766 64.8467 113.65 64.8977 113.548 64.9742C113.33 65.1272 113.125 65.293 112.907 65.4461C112.484 65.7521 112.035 66.0327 111.535 66.2112C111.253 66.3132 110.945 66.3897 110.676 66.53C110.471 66.632 110.304 66.8616 110.484 67.0656C110.663 67.2697 110.997 67.3589 111.266 67.3589C111.509 67.3589 111.804 67.3079 112.022 67.1931C112.24 67.0784 112.471 66.9891 112.702 66.8743C113.227 66.6065 113.689 66.2495 114.176 65.9306C114.279 65.8669 114.574 65.6246 114.612 65.8541C114.65 66.0327 114.42 66.224 114.291 66.326C113.881 66.6575 113.445 66.9508 112.971 67.1804C112.74 67.2952 112.497 67.4099 112.253 67.4992C112.061 67.5757 111.779 67.6012 111.612 67.716C111.407 67.8563 111.561 68.0986 111.702 68.2133C111.907 68.3664 112.176 68.4301 112.42 68.4174C112.779 68.4046 113.112 68.2516 113.432 68.0858C113.868 67.869 114.304 67.6267 114.727 67.3589C114.881 67.2569 115.022 67.1166 115.163 67.0019C115.253 66.9253 115.343 66.8616 115.445 66.7978C115.484 66.7723 115.535 66.7341 115.586 66.7213C115.586 66.7213 115.65 66.7213 115.676 66.7213L115.753 66.7468Z" fill="#FCD9BA"/>
  <path d="M121.164 63.1378C121.356 63.0613 121.548 62.972 121.741 62.87C121.818 62.87 121.907 62.87 121.997 62.8445C122.792 62.6532 123.728 61.6458 124.356 61.1612C127.831 58.5087 131.126 55.5374 134.151 52.3493C134.677 51.8009 135.19 51.2271 135.497 50.5384C136.023 49.3652 135.536 47.8477 134.831 46.8275C134.19 45.8965 132.715 45.7563 131.69 45.9093C129.151 46.2919 127.908 48.2557 126.549 50.2324C124.202 53.6628 121.266 56.6596 118.843 60.0517C118.6 60.396 118.343 60.7659 118.266 61.1867C118.023 62.5129 120.023 63.5969 121.138 63.1251L121.164 63.1378Z" fill="#FCD9BA"/>
  <path d="M136.651 47.6181C136.69 47.4141 136.728 47.1973 136.767 46.9805C137.023 45.5395 137.254 44.0857 137.523 42.6575C138.023 39.9922 138.562 37.3397 138.869 34.6362C139.087 32.6723 139.151 30.6957 139.28 28.7318C139.382 27.0357 139.459 25.2886 139.164 23.6053C138.895 22.1133 138.305 20.6085 136.921 19.8179C136.741 19.7158 136.728 19.5373 136.805 19.397C135.998 19.0527 135.087 18.9889 134.203 19.193C132.741 19.5245 132.1 20.736 131.6 22.0623C131.472 22.3938 131.356 22.7382 131.254 23.0697C129.831 27.5458 129.933 32.379 129.869 37.0846C129.818 41.2929 129.613 45.4885 129.279 49.6713C129.177 50.9465 129.138 51.5459 130.408 52.1963C131.305 52.6426 132.395 52.7446 133.331 52.3748C134.254 52.005 134.985 51.2526 135.498 50.4109C136.01 49.5693 136.331 48.6128 136.626 47.6692C136.626 47.6564 136.626 47.6309 136.639 47.6181H136.651Z" fill="#FCD9BA"/>
  <path d="M130.754 37.8115C131.292 37.8115 131.83 37.7987 132.369 37.7987C132.959 37.7987 133.561 37.7987 134.151 37.7987C134.766 37.7987 135.382 37.8242 136.01 37.837C136.613 37.8497 137.202 37.8752 137.805 37.9135C138.228 37.939 138.638 37.9645 139.049 37.99C139.203 37.1994 139.331 36.4087 139.459 35.6181C139.754 33.7179 140.177 31.6776 140.036 29.7774C139.895 27.8008 139.831 25.8369 139.523 23.8603C139.292 22.381 139.049 21.2461 137.92 20.1494C136.933 19.1802 135.523 18.8869 134.19 19.1929C132.728 19.5245 132.087 20.736 131.587 22.0622C131.459 22.3938 131.343 22.7381 131.241 23.0697C129.818 27.5458 129.92 32.3789 129.856 37.0846C129.856 37.3269 129.856 37.5819 129.856 37.8242C130.151 37.8242 130.459 37.7987 130.754 37.7987V37.8115Z" fill="#99A558"/>
  <path d="M139.319 29.4077C139.319 30.4917 139.319 31.5756 139.28 32.6596C139.255 33.7308 139.204 34.8147 139.127 35.8859C139.088 36.498 139.05 37.0974 138.998 37.7095C138.998 37.7988 139.242 37.8115 139.255 37.7095C139.345 36.6256 139.409 35.5544 139.46 34.4704C139.511 33.3992 139.55 32.3152 139.563 31.244C139.563 30.6319 139.575 30.0198 139.563 29.4204C139.563 29.3184 139.306 29.3184 139.306 29.4204L139.319 29.4077Z" fill="#67762E"/>
  <path d="M132.728 19.7668C132.728 19.7668 132.6 19.7668 132.575 19.8179C131.895 20.6978 131.369 21.6797 130.959 22.7254C130.549 23.7711 130.28 24.8551 130.074 25.9518C129.869 27.074 129.741 28.1962 129.651 29.3312C129.549 30.6192 129.472 31.9199 129.421 33.2207C129.357 34.5724 129.331 35.9369 129.305 37.2887C129.305 37.4545 129.305 37.6202 129.305 37.786C129.305 37.888 129.562 37.888 129.562 37.786C129.562 36.4343 129.6 35.0825 129.651 33.7307C129.703 32.4172 129.78 31.091 129.869 29.7775C129.959 28.6425 130.062 27.5203 130.254 26.3981C130.433 25.2886 130.69 24.1919 131.075 23.1335C131.446 22.1005 131.934 21.0931 132.575 20.1877C132.651 20.0729 132.741 19.9709 132.818 19.8561C132.857 19.8051 132.754 19.7796 132.728 19.7668V19.7668Z" fill="#67762E"/>
  <path d="M123.036 39.6861C122.51 38.0155 122.087 36.3194 121.767 34.5978C121.446 32.8763 121.241 31.1419 121.138 29.3949C121.074 28.4257 121.061 27.4437 121.061 26.4618C121.061 26.3598 120.805 26.3598 120.805 26.4618C120.792 28.2089 120.882 29.9687 121.087 31.703C121.292 33.4374 121.587 35.1717 121.997 36.8678C122.228 37.8242 122.497 38.7679 122.792 39.7116C122.818 39.8008 123.074 39.7753 123.036 39.6733V39.6861Z" fill="#67762E"/>
  <path d="M23.2768 59.2738C23.3537 59.6436 23.5717 59.7966 24.2384 59.8604C26.0974 60.0389 28.0077 59.8221 29.8539 59.5798C33.5463 59.0952 37.3157 58.2918 41.0209 59.0315C40.3542 57.0549 39.9183 55.0145 39.726 52.9486C39.585 51.482 39.5209 49.888 38.5978 48.7275C38.1234 48.1282 37.4567 47.7073 36.7644 47.3758C34.7515 46.4193 32.4565 46.1643 30.2257 46.2918C28.3282 46.3938 26.3794 46.7891 24.8153 47.8603C23.7768 48.5745 22.7255 49.735 22.5332 51.0102C22.2896 52.5915 22.8409 54.1856 23.0845 55.7286C23.2383 56.6468 23.2768 57.565 23.2511 58.4831C23.2511 58.8147 23.2511 59.057 23.2768 59.2483V59.2738Z" fill="#FCD9BA"/>
  <path d="M16.7886 104.086C17.1476 103.576 17.5194 103.078 17.8912 102.581C18.9681 101.153 20.1477 99.8774 21.5451 98.7424C22.7631 97.7605 24.5196 96.0899 26.1991 96.6128C27.5453 97.0336 28.7633 97.8497 29.6479 98.9465C29.9556 99.3418 30.2377 99.7881 30.2762 100.285C30.3018 100.681 30.1864 101.063 30.0326 101.433C29.1095 103.792 26.8145 105.718 25.1735 107.618C23.2247 109.875 21.2759 112.132 19.3271 114.377C15.3783 118.942 11.4423 123.508 7.49345 128.086C6.90369 128.774 6.4806 128.953 5.77545 128.519C4.82671 127.933 4.08309 127.435 4.37798 126.313C4.68568 125.127 5.53185 123.89 6.07033 122.794C7.21139 120.447 8.37809 118.113 9.6089 115.805C11.7628 111.763 14.0962 107.797 16.763 104.06L16.7886 104.086Z" fill="#FCD9BA"/>
  <path d="M9.94221 135.278C9.59605 135.138 9.24989 134.857 9.00629 134.615C7.7242 133.34 6.45493 132.052 5.00617 130.968C4.03179 130.241 2.98047 129.603 2.18558 128.698C1.98044 128.468 1.68556 128.086 1.73685 127.767C1.78813 127.435 2.15994 127.117 2.41635 126.925C3.01894 126.453 3.76255 126.224 4.40359 125.803C4.66001 125.637 4.99335 125.382 5.31387 125.382C5.59593 125.382 5.98056 125.548 6.23698 125.675C6.60878 125.854 6.96777 126.096 7.26265 126.39C7.59599 126.721 7.69856 127.014 7.77548 127.474C7.86523 127.984 8.09601 128.494 8.21139 129.004C8.3396 129.552 8.42935 130.101 8.54474 130.649C8.77551 131.746 9.08322 132.868 9.76272 133.773C10.0191 134.118 10.3397 134.436 10.5063 134.832C10.5576 134.946 10.5833 135.087 10.532 135.189C10.4679 135.329 10.2627 135.38 10.1089 135.342C10.0448 135.329 9.98068 135.304 9.91657 135.278H9.94221Z" fill="#FCD9BA"/>
  <path d="M23.6603 66.4661C22.1346 70.8529 21.8654 75.5713 21.609 80.2132C21.2628 86.5001 20.9038 92.7998 20.5577 99.0868C20.532 99.5586 20.5192 100.081 20.8013 100.464C20.9936 100.719 21.3013 100.872 21.5962 101.012C23.0449 101.676 24.5834 102.135 26.1604 102.364C27.3784 102.543 28.8143 102.517 29.6092 101.574C30.34 100.706 30.7246 98.9465 30.9426 97.837C31.3016 96.0772 31.5965 94.3046 31.9298 92.5448C32.5837 89.0124 33.2247 85.4799 33.8529 81.9475C34.1093 80.5065 34.3658 79.0655 34.5196 77.6117C34.9555 73.5819 34.8658 69.3099 34.7119 65.2929C34.6606 64.0941 34.5453 62.7934 33.7632 61.8752C32.3657 60.2684 29.2118 60.3322 27.4553 61.2758C25.4937 62.3215 24.3783 64.4512 23.6731 66.4661H23.6603Z" fill="#FCD9BA"/>
  <path d="M35.2634 62.1047C35.1993 64.3491 35.1352 66.5935 35.0711 68.838C35.0454 69.5521 35.0326 70.2662 35.007 70.9804C34.9557 72.8805 34.8916 74.7806 34.8403 76.6807C34.8147 77.4076 34.8018 78.1217 34.7762 78.8486C34.6865 82.126 34.5839 85.3906 34.4941 88.668C33.9557 88.668 33.4172 88.668 32.8787 88.668C28.417 88.6425 23.9426 88.3747 19.5065 87.9411C19.9168 84.1026 20.2373 80.2514 20.4296 76.4001C20.5835 73.5564 20.6732 70.6998 20.9809 67.8688C21.1348 66.4915 21.3271 65.1142 21.5963 63.7497C22.0066 61.7349 22.84 59.8985 23.3656 57.9346C23.7246 57.9601 24.0708 57.9984 24.4169 58.0494C24.7631 58.0877 25.0964 58.1387 25.4426 58.1769C25.6862 58.2024 25.9298 58.2279 26.1734 58.2534C27.2503 58.3555 28.3273 58.4065 29.4043 58.4065C29.494 58.4065 29.5837 58.4065 29.6735 58.4065H29.7376C31.2761 58.4065 32.8146 58.2407 34.3403 58.0749C34.3788 58.0749 34.4172 58.0749 34.4557 58.0622C34.6993 58.432 34.8916 58.8273 35.0198 59.2609C35.3019 60.1791 35.2762 61.1482 35.2378 62.1047H35.2634Z" fill="#9DCAD4"/>
  <path d="M37.7513 108.128C37.4692 104.851 37.5974 101.561 38.5205 98.2451C38.8411 97.0846 38.9693 96.549 40.0847 96.141C41.3027 95.6946 42.6617 95.5543 43.9438 95.7839C44.4438 95.8732 44.9438 96.0262 45.3028 96.3705C45.5848 96.6511 45.7515 97.0209 45.8926 97.3907C46.5464 99.1378 46.6746 101.051 46.6746 102.9C46.6746 105.068 46.5849 107.236 46.649 109.429C46.7131 111.89 46.7772 114.351 46.8413 116.813C46.9695 121.735 47.0977 126.658 47.2259 131.58C47.2516 132.753 46.9567 133.289 45.8028 133.442C44.3156 133.646 43.2514 134.054 42.8412 132.269C41.7129 127.435 40.5847 122.602 39.4565 117.769C38.7 114.543 38.0205 111.342 37.7385 108.128H37.7513Z" fill="#FCD9BA"/>
  <path d="M53.5076 135.941C53.1486 136.056 52.6999 136.082 52.3537 136.069C50.546 135.967 48.7382 135.839 46.9305 135.992C45.7253 136.094 44.5074 136.311 43.3022 136.158C42.9945 136.12 42.5201 136.043 42.3406 135.75C42.1611 135.469 42.2252 134.985 42.2893 134.679C42.4304 133.926 42.8278 133.263 43.033 132.524C43.1099 132.23 43.1868 131.809 43.4432 131.605C43.6612 131.427 44.0458 131.299 44.3279 131.223C44.7253 131.108 45.1484 131.057 45.5715 131.083C46.0459 131.108 46.3279 131.261 46.6741 131.542C47.0844 131.861 47.5972 132.09 48.0203 132.396C48.4818 132.715 48.9177 133.072 49.3665 133.404C50.2768 134.079 51.2511 134.704 52.3666 134.921C52.7896 135.01 53.2384 135.036 53.6358 135.214C53.7512 135.265 53.8666 135.342 53.9051 135.469C53.9563 135.622 53.841 135.788 53.6999 135.865C53.6358 135.89 53.5845 135.916 53.5076 135.941V135.941Z" fill="#FCD9BA"/>
  <path d="M31.4681 68.7998C31.3399 70.8402 31.0707 73.1101 31.4938 75.1123C32.0835 77.8668 32.7887 80.6086 33.4297 83.3503C34.699 88.7319 35.9682 94.1261 37.2375 99.5077C37.4683 100.464 37.7632 102.109 38.6991 102.67C39.776 103.295 42.212 102.925 43.3915 102.785C44.6223 102.645 45.9942 102.237 46.507 101.114C46.9814 100.082 46.8788 98.2834 46.8019 97.1612C46.6737 95.3759 46.507 93.5905 46.3532 91.7924C46.0455 88.2218 45.7249 84.6383 45.3916 81.0676C45.2634 79.6139 45.1223 78.1473 44.8916 76.7063C44.2505 72.702 43.0197 68.6085 41.8017 64.77C41.4428 63.6223 40.9812 62.3981 39.9812 61.7222C38.2119 60.5362 35.1862 61.4289 33.7374 62.8062C32.122 64.3365 31.6091 66.6829 31.4681 68.8126V68.7998Z" fill="#FCD9BA"/>
  <path d="M46.9563 87.1379C45.5332 87.3674 44.0972 87.5842 42.6613 87.8138C42.0587 87.903 41.4689 88.005 40.8664 88.0943C40.2894 88.1836 39.6997 88.2728 39.1227 88.3749C37.3534 88.6554 35.5713 88.936 33.7892 88.8722C33.4046 88.8595 32.9943 88.8212 32.7123 88.5661C32.4815 88.3621 32.3789 88.0433 32.302 87.75C31.4558 84.6894 31.3661 81.361 30.9814 78.2112C30.366 73.1102 29.7891 67.9582 29.5455 62.819C29.507 62.1049 29.4814 61.3907 29.4558 60.6766C29.4301 59.9242 29.4173 59.1718 29.4045 58.4194C29.5199 58.4194 29.6353 58.4194 29.7378 58.4194C31.2763 58.4194 32.8148 58.2536 34.3405 58.0878C35.8534 57.9221 37.3662 57.718 38.8919 57.5267C39.6612 57.4247 40.4304 57.3227 41.1869 57.2334C43.7382 65.5353 45.046 74.0411 46.5075 82.5725C46.5845 83.0443 46.9947 87.1506 46.9435 87.1506L46.9563 87.1379Z" fill="#9DCAD4"/>
  <path d="M29.0454 78.2749C28.789 77.5735 27.9813 76.9231 27.2377 77.446C26.7761 77.7775 26.9428 78.4662 27.1992 78.9508C27.353 79.3461 27.6607 79.6649 28.0967 79.7287C28.4941 79.7924 29.0069 79.6904 29.1351 79.2568C29.2249 78.938 29.1608 78.581 29.0454 78.2749V78.2749Z" fill="#1A8B93"/>
  <path d="M35.738 68.9911C35.4816 68.7616 35.0457 68.7998 34.7636 68.9274H34.7252C34.7252 68.9274 34.6867 68.9656 34.6611 68.9784C34.4816 69.0039 34.3149 69.0804 34.2123 69.2207C33.9559 69.565 33.8021 69.9986 33.8149 70.4321C33.8149 70.9805 34.379 71.1463 34.8662 71.0315C35.3021 70.9167 35.5714 70.5469 35.7252 70.1388C35.8406 69.82 36.0201 69.2589 35.738 68.9911Z" fill="#1A8B93"/>
  <path d="M24.8787 65.8413C24.5197 65.6883 23.8787 65.7776 23.8658 66.1219C23.8658 66.9636 24.2889 67.869 25.2505 67.8307C25.4556 67.8307 25.8531 67.767 25.8659 67.4864C25.9172 66.7723 25.5838 65.9434 24.8659 65.8413H24.8787Z" fill="#1A8B93"/>
  <path d="M30.0452 60.6638C29.8914 60.6255 29.6863 60.6255 29.5068 60.6638C29.2503 60.6638 28.9939 60.7276 28.9042 60.8806C28.6734 61.2504 28.5324 61.6457 28.4683 62.0793C28.4426 62.2323 28.417 62.4236 28.4811 62.5767C28.5837 62.7807 28.8657 62.8572 29.0708 62.87C30.0581 62.9465 30.3401 61.7222 30.417 60.9571C30.4427 60.7786 30.1606 60.6765 30.0324 60.651L30.0452 60.6638Z" fill="#1A8B93"/>
  <path d="M36.9052 59.1334C36.7513 58.8911 36.4051 58.8529 36.1359 58.8911C36.0077 58.9039 35.7 59.0187 35.6744 59.1844C35.5974 59.2354 35.5461 59.312 35.559 59.4012C35.6231 60.0133 35.7385 61.0208 36.3923 61.3013C36.6231 61.4034 37.3154 61.5181 37.4308 61.1483C37.6616 60.3832 37.3154 59.7455 36.9052 59.1079V59.1334Z" fill="#1A8B93"/>
  <path d="M42.1738 63.9668C41.8789 63.801 41.2507 63.8265 41.1096 64.107C40.8147 64.6809 40.2763 66.0072 41.3019 66.1602C41.8148 66.2367 42.1738 66.0454 42.3661 65.5736C42.5327 65.1655 42.6097 64.7447 42.6225 64.3111C42.6225 64.107 42.4174 64.005 42.1738 63.9795V63.9668Z" fill="#1A8B93"/>
  <path d="M41.1867 74.0921C41.0585 73.7223 40.7893 73.1229 40.3662 73.0209C40.0969 72.9571 39.7251 72.9444 39.52 73.1484C39.3661 73.1994 39.2379 73.3015 39.2379 73.4417C39.1866 74.3854 39.8533 75.7882 41.02 75.2398C41.5072 75.0103 41.3277 74.4874 41.1867 74.0921V74.0921Z" fill="#1A8B93"/>
  <path d="M45.5073 80.7233C45.1996 80.5448 44.5714 80.5831 44.4688 80.8764C44.3406 81.2589 44.2508 81.6543 44.2508 82.0623C44.2508 82.2409 44.2252 82.5087 44.3149 82.6872C44.4175 82.8785 44.6867 82.9423 44.8791 82.955C45.3406 82.9933 45.6868 82.8147 45.7765 82.3557C45.8534 81.9221 45.8791 81.4757 45.8791 81.0422C45.8791 80.8636 45.6868 80.7743 45.5073 80.7361V80.7233Z" fill="#1A8B93"/>
  <path d="M37.5716 82.3684C37.4818 82.1644 37.3793 81.9604 37.187 81.8456C36.9177 81.6798 36.61 81.7053 36.3151 81.7691C36.1741 81.7946 36.0203 81.9093 36.0074 82.0624C36.0074 82.1261 36.0074 82.1771 36.0074 82.2409C36.0074 82.2792 36.0074 82.3047 36.0203 82.3429C35.9177 82.9295 36.1613 83.5417 36.6357 83.9115C36.8921 84.1155 37.7383 84.2175 37.7895 83.7457C37.8408 83.2738 37.7639 82.802 37.5716 82.3812V82.3684Z" fill="#1A8B93"/>
  <path d="M42.6611 87.8137C42.0586 87.903 41.4688 88.005 40.8662 88.0943C40.9047 87.9795 40.9688 87.8647 41.0457 87.75C41.0457 87.75 41.0457 87.7372 41.0457 87.7245C41.1226 87.4056 41.4047 87.1761 41.738 87.1123C42.0201 87.0613 42.4945 87.0996 42.6355 87.4056C42.6868 87.5204 42.6868 87.6607 42.6611 87.8137V87.8137Z" fill="#1A8B93"/>
  <path d="M30.3404 86.2961C30.0327 86.1176 29.2122 86.0921 29.0199 86.4492C28.8276 86.5129 28.7122 86.6405 28.7891 86.819C28.9942 87.3163 29.084 87.8774 29.5712 88.1963C29.8789 88.4003 30.2507 88.4513 30.5969 88.3238C30.9174 88.2218 30.9815 87.9412 30.9815 87.6352C30.9815 87.1506 30.7763 86.5512 30.3404 86.2961V86.2961Z" fill="#1A8B93"/>
  <path d="M22.6351 82.2026C22.6351 82.0496 22.4941 81.9603 22.3403 81.9093C22.2633 81.5777 21.3018 81.5267 21.1223 81.871C20.8274 82.4831 20.4043 83.8349 21.3659 84.0644C21.8402 84.1792 22.3146 84.0007 22.4685 83.5416C22.6223 83.108 22.6736 82.6489 22.6351 82.1898V82.2026Z" fill="#1A8B93"/>
  <path d="M22.7122 71.6691C22.5327 71.3758 21.7891 71.3886 21.5583 71.6053C21.3147 71.6436 21.1096 71.7456 21.0968 71.9497C21.0455 72.7913 21.1352 74.1813 22.3404 73.9901C23.3661 73.837 23.084 72.3067 22.7122 71.6819V71.6691Z" fill="#1A8B93"/>
  <path d="M29.8786 70.9167C29.7119 70.6872 29.3785 70.6362 29.1221 70.6744C29.0708 70.6744 28.9939 70.6999 28.917 70.7382C28.7375 70.7637 28.5837 70.853 28.5324 70.9805C28.3657 71.4651 28.2888 71.9879 28.3529 72.498C28.4298 73.0464 28.8401 73.2887 29.3914 73.1994C29.9298 73.1102 30.0581 72.6256 30.1222 72.1537C30.1863 71.7201 30.1222 71.2738 29.8657 70.9167H29.8786Z" fill="#1A8B93"/>
  <path d="M26.1858 58.2536C26.1473 58.3684 26.096 58.4831 26.0576 58.5852C25.8524 59.057 25.5832 59.5671 25.0191 59.6564C24.7498 59.6946 24.4037 59.6564 24.1985 59.4778C23.9934 59.2993 24.0575 59.057 24.1088 58.8275C24.1729 58.5469 24.2883 58.2919 24.4421 58.0623C24.7883 58.1006 25.1216 58.1516 25.4678 58.1898C25.7114 58.2153 25.955 58.2409 26.1986 58.2664L26.1858 58.2536Z" fill="#1A8B93"/>
  <path d="M35.7636 76.5406C35.5328 76.464 35.1867 76.464 34.9687 76.6171C34.8405 76.6681 34.7507 76.7446 34.7251 76.8466C34.443 77.1399 34.1866 77.446 33.9687 77.7903C33.8533 77.9561 33.6866 78.1729 33.6994 78.3897C33.6994 78.6575 33.9558 78.7977 34.1738 78.8615C35.2251 79.1421 35.8405 77.9306 35.9431 77.0506C35.9559 77.0379 35.9687 77.0251 35.9944 76.9996C36.1995 76.8084 35.9687 76.6043 35.7764 76.5406H35.7636Z" fill="#1A8B93"/>
  <path d="M35.4046 75.7499C35.3149 77.4077 35.2123 79.0655 35.0841 80.7106C34.9687 82.3556 34.8277 84.0007 34.6738 85.633C34.5841 86.5639 34.4943 87.4821 34.4046 88.413C34.4046 88.5278 34.6995 88.5278 34.7123 88.413C34.879 86.768 35.0328 85.1101 35.1739 83.4651C35.3149 81.82 35.4303 80.175 35.5457 78.5427C35.6098 77.6117 35.661 76.6808 35.7123 75.7499C35.7123 75.6351 35.4046 75.6351 35.4046 75.7499V75.7499Z" fill="#1A8B93"/>
  <path d="M40.8277 59.2992C40.8277 59.2992 40.6867 59.2227 40.6354 59.2355C39.5072 59.4778 38.3789 59.6818 37.2379 59.8348C36.1096 60.0006 34.9686 60.1154 33.8275 60.2047C32.6865 60.2939 31.5326 60.3322 30.3915 60.3449C29.2505 60.3449 28.0966 60.3194 26.9555 60.2557C25.8145 60.1919 24.6606 60.0771 23.5324 59.9369C23.3913 59.9241 23.2503 59.8986 23.1093 59.8858C23.058 59.8858 22.9426 59.8858 22.9169 59.9496C22.8913 60.0134 22.9811 60.0516 23.0195 60.0516C24.1606 60.2047 25.3145 60.3322 26.4812 60.4087C27.635 60.4852 28.7889 60.5235 29.9428 60.5362C31.0967 60.5362 32.2506 60.498 33.4044 60.4214C34.5583 60.3449 35.7122 60.2302 36.8661 60.0771C38.0071 59.9241 39.1482 59.7328 40.2892 59.5033C40.4303 59.4778 40.5713 59.4395 40.7252 59.414C40.7764 59.414 40.8534 59.3757 40.8277 59.312V59.2992Z" fill="#1A8B93"/>
  <path d="M33.6869 59.8987C33.6997 59.8349 33.5715 59.8094 33.533 59.8094C33.2253 59.8094 33.1484 60.6893 33.0971 60.9061C32.9689 61.4289 32.8279 61.9518 32.674 62.4619C32.3663 63.4948 32.0202 64.515 31.6996 65.5352C31.4945 66.1856 31.3022 66.8487 31.2766 67.5374C31.2766 67.6904 31.2766 67.8434 31.3535 67.9709C31.456 68.1112 31.9304 68.1367 31.9689 67.9454C31.9689 67.8944 31.9945 67.8562 31.9945 67.8052C32.1997 67.5884 32.2766 67.2568 32.3407 66.9635C32.4817 66.4151 32.6099 65.8668 32.7253 65.3184C32.9689 64.209 33.1869 63.0868 33.3664 61.9646C33.4689 61.3269 33.5587 60.6893 33.6484 60.0517C33.6484 60.0389 33.6484 60.0262 33.6356 60.0134C33.6356 59.9752 33.6484 59.9369 33.6612 59.8987H33.6869Z" fill="#1A8B93"/>
  <path d="M37.4433 61.786C37.5202 61.1866 37.5843 60.5873 37.6484 59.9879C37.6741 59.8094 37.6484 59.4651 37.392 59.6181C37.2638 59.6946 37.2253 59.9242 37.1869 60.0517C37.0971 60.396 37.0971 60.7658 37.033 61.1101C36.6356 63.3291 35.7125 65.6117 35.6996 67.8689C35.6996 68.0602 35.8022 68.4938 36.0843 68.328C36.2894 68.2132 36.3792 67.7031 36.4304 67.4991C36.9048 65.6245 37.1869 63.7116 37.4305 61.786H37.4433Z" fill="#1A8B93"/>
  <path d="M52.6363 27.1376C52.5466 26.1685 52.3286 25.1865 51.7773 24.3959C50.4952 22.5723 47.8669 22.2407 46.3156 20.6339C44.5079 18.7465 44.4822 15.4309 42.3411 14.0026C41.8668 13.4288 41.2514 12.9697 40.5334 12.7402C39.6231 12.4469 38.6359 12.5106 37.6872 12.5871C36.6871 12.6636 35.6743 12.7147 34.6871 12.5106C34.046 12.3831 33.4178 12.1535 32.8793 11.7965C32.187 11.1844 31.546 10.4957 30.7895 9.97288C28.3023 8.2513 24.6227 8.5191 22.4303 10.585L21.7252 10.9548C20.0841 11.873 20.1226 14.0537 20.3533 15.635C20.8149 18.6828 21.2893 21.8071 22.7637 24.5106C25.033 28.6679 29.4433 31.3842 34.0717 32.4682C38.7 33.5521 43.5591 33.1823 48.2516 32.3916C49.4567 32.1876 50.7388 31.9198 51.5978 31.0526C52.585 30.058 52.7773 28.5149 52.6491 27.1249L52.6363 27.1376ZM34.9179 13.1355C34.3794 12.9442 33.905 12.6381 33.4691 12.2938C33.6742 12.3831 33.8794 12.4468 34.0845 12.5106C35.0589 12.7912 36.0846 12.8167 37.0974 12.7657C38.0333 12.7147 38.9949 12.5744 39.9308 12.7402C40.3667 12.8167 40.777 12.9697 41.1616 13.1992C41.3924 13.3395 41.6104 13.5181 41.8027 13.6966C39.7257 12.7912 37.1102 13.9261 34.9307 13.1227L34.9179 13.1355Z" fill="#B36332"/>
  <path d="M34.9939 34.5469C38.9043 34.7255 42.8147 34.6362 46.7122 34.4194C46.7507 34.4194 46.7763 34.4194 46.8148 34.4194C47.5712 34.3302 48.3405 34.2281 49.0969 34.1644C49.1995 34.1516 49.302 34.1389 49.4046 34.1261C51.2252 33.8583 53.0329 33.5268 54.815 33.1059C55.1099 33.0039 55.4048 32.8891 55.6997 32.7744C56.0074 32.6468 56.3279 32.5193 56.5715 32.2898C57.1356 31.7414 57.0715 30.8232 56.9176 30.0581C56.7766 29.344 56.7894 28.413 56.1227 28.0049C55.5458 27.6479 54.6996 27.7371 54.0458 27.7754C46.2763 28.26 38.4812 26.1814 30.7374 26.9082C29.1348 27.0613 28.1989 28.8976 28.0578 30.4152C27.9424 31.6904 28.3912 32.8509 29.1604 33.7946C31.0579 34.2919 33.0323 34.4704 34.9939 34.5597V34.5469Z" fill="#FCD9BA"/>
  <path d="M34.9948 34.5469C37.0333 34.6361 39.0718 34.6616 41.1103 34.6234C41.3155 32.1111 42.0206 29.6372 43.0463 27.3035C38.9436 26.9082 34.8409 26.5128 30.7511 26.8954C29.1485 27.0484 28.2125 28.8848 28.0715 30.4023C27.9561 31.6776 28.4048 32.838 29.1741 33.7817C31.0716 34.2791 33.046 34.4576 35.0076 34.5469H34.9948Z" fill="#DFB880"/>
  <path d="M18.9556 41.2164C19.7633 46.4449 20.8146 51.6479 22.0839 56.7872C28.7251 55.1421 35.5458 54.2367 42.3793 54.0836C43.2896 54.0581 45.1743 54.3259 45.6871 53.4205C46.0846 52.7191 45.2897 50.7935 45.0845 50.0921C44.0589 46.6362 42.6229 43.3078 40.9434 40.107C39.2382 36.8679 37.2894 34.0113 34.9432 31.193C33.9688 30.0198 32.9432 28.8593 31.7252 27.9412C30.4687 26.9847 29.1225 26.1558 27.5327 26.4109C25.6353 26.7169 23.9557 27.2015 22.1864 27.9922C17.9555 29.905 18.1094 35.4013 18.6607 39.2143C18.7504 39.8774 18.853 40.5406 18.9556 41.2037V41.2164Z" fill="#DFB880"/>
  <path d="M91.7139 12.5616C89.919 9.74334 88.201 6.49147 84.3035 7.00157C80.6367 7.49891 76.5981 9.66682 73.3929 11.4139C66.4952 15.1759 60.4438 20.4681 55.8154 26.8061C54.3154 28.8465 52.982 31.0016 51.8025 33.2461C50.7384 35.2865 48.9691 37.7349 50.1614 40.0049C51.3153 42.211 52.7641 44.2642 54.4308 46.1005C56.0206 47.8476 58.136 49.5182 60.5079 49.2759C61.3925 49.1866 62.2259 48.8295 63.0208 48.4215C68.4568 45.5777 71.8928 40.0941 75.0083 34.8274C75.4186 34.126 75.8545 33.4118 76.4827 32.889C77.2007 32.2896 78.1366 31.9963 79.0341 31.703C85.4061 29.6626 91.637 27.1504 97.6372 24.2046C97.8808 24.0898 98.1372 23.9495 98.2654 23.72C98.4962 23.2992 98.2398 22.8018 97.9833 22.3937C95.8935 19.1164 93.8037 15.839 91.7139 12.5616V12.5616Z" fill="#FAEAEA"/>
  <path d="M95.6372 23.7839C92.6114 24.9316 89.5857 26.0921 86.4959 27.0612C84.9574 27.5458 83.406 27.9922 81.8291 28.3747C80.2393 28.7573 78.6367 29.0379 77.0341 29.2929C76.3289 29.4077 75.6238 29.5607 74.9699 29.854C74.4314 30.0963 73.9314 30.4151 73.4699 30.7722C72.4826 31.5501 71.6878 32.532 70.9826 33.5522C70.2262 34.6617 69.5595 35.8349 68.8672 36.9826C68.021 38.3854 67.1363 39.7627 66.2132 41.1144C64.6106 43.4736 62.9183 45.9348 60.4951 47.5289C60.2131 47.7202 59.9054 47.8987 59.6105 48.0517C59.4823 48.1155 59.713 48.192 59.79 48.1538C62.2772 46.8403 64.0721 44.5831 65.6491 42.3259C66.5722 40.9996 67.4697 39.6479 68.3287 38.2834C69.0979 37.0591 69.8031 35.8094 70.5723 34.5852C71.8801 32.4938 73.534 30.3004 76.0597 29.6245C76.8546 29.4077 77.6879 29.3312 78.4956 29.1909C79.2905 29.0634 80.0854 28.8976 80.8675 28.7318C82.4317 28.3875 83.983 27.9794 85.5087 27.5076C88.5985 26.5766 91.6242 25.4544 94.6371 24.3067C95.0089 24.1664 95.3807 24.0262 95.7525 23.8859C95.9064 23.8221 95.7269 23.7329 95.6243 23.7711L95.6372 23.7839Z" fill="#DFB880"/>
  <path d="M72.5976 18.9507C72.5976 18.9507 72.4693 18.9507 72.4309 18.9762C71.4565 19.7031 70.5077 20.4555 69.6359 21.2971C68.7769 22.126 67.9949 23.0442 67.3795 24.0644C67.0333 24.6383 66.7512 25.2504 66.5461 25.888C66.5076 25.99 66.7641 26.0028 66.7897 25.9263C67.1615 24.804 67.7641 23.7711 68.5077 22.8402C69.2513 21.8965 70.1359 21.0676 71.059 20.2897C71.5847 19.8561 72.1104 19.448 72.6617 19.04C72.7129 19.0017 72.6617 18.9634 72.6232 18.9507H72.5976Z" fill="#DFB880"/>
  <path d="M35.3153 40.4002C34.0973 40.2855 32.8793 40.2217 31.6613 40.0559C29.9433 39.8136 28.2253 39.5203 26.533 39.176C25.7381 39.0102 24.9432 38.8317 24.1996 38.5129C21.738 37.4799 19.7123 34.5979 20.6354 31.8689C21.0328 30.6829 22.097 29.8667 23.1867 29.3184C24.4688 28.668 26.4432 29.1654 27.7382 29.5607C29.2382 30.007 30.6485 30.6956 32.0716 31.3205C33.2768 31.8434 34.5076 32.3152 35.7512 32.7488C36.9692 33.1696 38.3538 33.3992 39.5077 33.9603C40.5975 34.4959 41.8283 34.5596 43.0335 34.6999C44.4566 34.8657 45.8797 34.955 47.3028 34.9932C47.9695 35.006 48.7388 35.0187 48.7772 35.7966C48.8157 36.5745 48.8157 37.3524 48.7772 38.1303C48.7388 38.921 48.5977 39.8136 47.9182 40.2345C47.6362 40.413 47.29 40.464 46.9567 40.515C43.4309 41.0124 39.8411 41.0251 36.3153 40.5278C35.9692 40.4768 35.623 40.4385 35.2897 40.413L35.3153 40.4002Z" fill="#FCD9BA"/>
  <path d="M34.1874 32.1622C33.4822 31.8944 32.7771 31.6011 32.0847 31.3078C30.6488 30.6829 29.2385 30.007 27.7513 29.5479C26.4564 29.1526 24.4819 28.6553 23.1999 29.3056C22.1101 29.854 21.0459 30.6701 20.6485 31.8561C19.7254 34.5979 21.7511 37.4672 24.2127 38.5001C24.9563 38.8189 25.7512 38.9975 26.5461 39.1633C28.2513 39.5203 29.9565 39.8136 31.6745 40.0432C31.7386 40.0432 31.8155 40.0559 31.8796 40.0687C31.9822 37.2759 32.7001 34.5214 34.1874 32.1494V32.1622Z" fill="#DFB880"/>
  <path d="M43.585 37.4035C43.2773 38.0538 43.6876 38.87 44.0337 39.4438C44.1748 39.6734 44.3286 39.9157 44.5338 40.107C45.1492 40.6808 46.2518 40.5278 47.021 40.5406C47.9313 40.5533 48.8288 40.4768 49.7262 40.3238C51.4955 40.0432 53.2263 39.5204 54.9315 38.9848C56.2008 38.6022 57.47 38.2069 58.7393 37.8243C59.8163 37.4927 60.8932 37.1612 61.9573 36.7913C63.5728 36.2175 65.1626 35.5543 66.6882 34.7765C67.2139 34.5214 67.7396 34.2281 68.0985 33.769C68.8422 32.8253 68.4832 31.0145 67.0472 31.2695C62.9317 31.9964 58.8162 32.7233 54.7007 33.463C52.2776 33.8965 49.8672 34.3174 47.4826 34.9167C46.7133 35.108 45.8671 35.4396 45.2517 35.9624C44.7517 36.3833 44.0978 36.6766 43.7004 37.2122C43.6491 37.2759 43.6235 37.3397 43.585 37.4035V37.4035Z" fill="#FCD9BA"/>
  <path d="M67.3295 30.8104C66.7269 31.2184 66.7013 31.7285 66.6885 32.4427C66.6885 32.7615 66.6885 33.093 66.7141 33.4119C66.7526 34.0367 66.791 34.3938 67.368 34.6743C68.2398 35.0952 69.227 35.2099 70.1758 35.363C70.7527 35.4522 71.3681 35.567 71.9579 35.5288C72.5092 35.5033 73.0348 35.567 73.5733 35.4012C73.7656 35.3375 73.9836 35.2482 74.1246 35.1079C74.3169 34.9166 74.381 34.6999 74.0348 34.7381C73.4323 34.8019 72.7912 34.7636 72.2015 34.6616C72.0476 34.6361 71.3296 34.5341 71.6502 34.3428C71.804 34.2535 72.0989 34.3428 72.2656 34.33C72.5476 34.33 72.8425 34.3045 73.1246 34.2918C73.7015 34.2663 74.2656 34.2408 74.8426 34.2153C75.0477 34.2153 75.3554 34.177 75.4964 33.9985C75.599 33.8582 75.6375 33.5776 75.458 33.4629C75.381 33.4119 75.2785 33.4119 75.1759 33.4119C74.0861 33.3864 73.0092 33.5904 71.9322 33.3481C71.7784 33.3098 71.4835 33.1568 71.7271 33.0293C71.804 32.991 71.8938 32.991 71.9835 32.9783C72.9451 32.9528 73.9066 32.9273 74.8682 32.889C75.1503 32.889 75.5605 32.9273 75.7657 32.7105C76.1118 32.3534 75.6503 32.0346 75.2913 32.0346C74.6246 32.0346 73.9451 32.0856 73.2784 32.0729C72.7784 32.0729 72.2015 32.0729 71.7527 31.8433C71.8553 31.7795 71.9835 31.7795 72.1117 31.7795C72.5989 31.7795 73.0733 31.7795 73.5477 31.7413C73.9836 31.703 74.4451 31.7285 74.8682 31.6393C75.1631 31.5755 75.5221 31.1674 75.0862 31.0016C74.9836 30.9634 74.8554 30.9634 74.74 30.9634C73.7784 31.0016 72.8169 31.0909 71.8681 30.9889C71.5091 30.9506 71.0604 30.8869 70.7783 30.6318C70.9194 30.262 71.663 30.2493 71.9707 30.058C72.4194 29.7774 72.7143 29.4203 72.6502 28.821C72.5989 28.3364 71.8553 28.8592 71.6502 28.9995C70.9707 29.4331 70.2399 29.6881 69.4834 29.9687C68.7655 30.2238 68.0475 30.4023 67.3808 30.8231C67.3552 30.8359 67.3423 30.8486 67.3167 30.8614L67.3295 30.8104Z" fill="#FCD9BA"/>
  <path d="M35.1355 32.2259C34.2893 30.8232 33.2508 29.5224 32.0841 28.3747C31.7508 28.0431 31.4046 27.7371 31.0456 27.431C31.0072 27.3928 30.9302 27.3928 30.8789 27.4055C30.8405 27.4055 30.7892 27.4565 30.8405 27.4948C32.0841 28.5532 33.2124 29.7775 34.1483 31.1165C34.4175 31.4863 34.6611 31.8689 34.9047 32.2642C34.956 32.3407 35.1996 32.3152 35.1483 32.2259H35.1355Z" fill="#99A558"/>
  <path d="M34.0205 31.7413C32.7769 31.1292 31.482 30.6063 30.1615 30.1855C28.8409 29.7647 27.4819 29.4459 26.0972 29.2291C25.3152 29.1016 24.5331 29.025 23.751 28.9613C23.7125 28.9613 23.6228 28.974 23.6228 29.025C23.6228 29.076 23.7125 29.0888 23.751 29.0888C25.1357 29.1908 26.4562 29.3821 27.8152 29.6882C29.1486 29.9942 30.4563 30.3895 31.7256 30.8869C32.4436 31.1674 33.1487 31.4735 33.841 31.8178C33.8923 31.8433 33.9693 31.8433 34.0205 31.8178C34.059 31.7923 34.0718 31.7413 34.0205 31.7158V31.7413Z" fill="#99A558"/>
  <path d="M31.7765 40.6043C31.7509 40.9996 31.6868 41.3949 31.5971 41.7775L28.4688 41.1271C27.3918 40.8976 26.302 40.6808 25.2251 40.4512C24.6353 40.3237 24.0327 40.1834 23.4558 40.0049C23.4045 39.9922 23.3276 39.9922 23.2891 40.0304C23.2507 40.0687 23.2891 40.1069 23.3276 40.1197C24.3661 40.4512 25.4559 40.6425 26.52 40.8721C27.6226 41.1016 28.7124 41.3312 29.815 41.5607C30.4304 41.6882 31.0458 41.8158 31.6612 41.9433C31.7124 41.9433 31.8022 41.9433 31.815 41.8795C31.9048 41.4587 31.9817 41.0379 32.0073 40.617C32.0073 40.5278 31.7637 40.515 31.7637 40.617L31.7765 40.6043Z" fill="#99A558"/>
  <path d="M26.0973 27.635C26.8024 27.7115 27.4819 27.8517 28.1614 28.043C28.6743 28.1961 29.1871 28.3491 29.7128 28.4766C29.7512 28.4001 29.7897 28.3108 29.8153 28.2343C29.9692 27.7115 29.6999 27.4437 29.6102 26.9208C29.5076 26.2449 29.5204 25.5563 29.482 24.8804C29.4051 23.5797 29.1743 22.1259 27.8409 21.5138C26.5973 20.8124 23.828 20.7869 22.9433 21.9856C22.4305 22.687 22.469 23.6817 22.4048 24.4979C22.3151 25.467 22.3023 26.4745 22.1741 27.4437C23.4818 27.4437 24.7895 27.5074 26.0973 27.6477V27.635Z" fill="#FCD9BA"/>
  <path d="M28.6103 25.6839C28.918 25.7604 29.2385 25.8242 29.5462 25.7732C29.4308 24.6892 29.4436 23.5543 28.9949 22.5341C28.0333 22.1132 27.0076 21.7179 26.1486 22.6616C24.8922 24.1791 27.482 25.3906 28.6103 25.6839V25.6839Z" fill="#E6C1A0"/>
  <path d="M19.5205 20.5829C18.841 19.6648 18.3538 18.6191 18.1615 17.4841C17.9692 16.3364 18.1999 15.4437 18.4948 14.3598C18.8795 12.957 20.1872 11.8603 21.4308 11.1972C23.777 9.94742 27.0207 9.76889 28.8413 12.0388C29.7387 13.1738 29.8798 14.4873 30.3798 15.7625C30.5593 16.2089 30.9183 16.4129 31.3157 16.6424C31.7644 16.923 32.2132 17.1908 32.6619 17.4714C32.7773 17.5479 32.8927 17.6116 32.9824 17.7137C33.2773 18.058 32.8799 18.5171 32.6491 18.7849C32.2388 19.2694 32.3286 20.0601 32.4311 20.6467C32.5593 21.3481 32.7901 22.0367 32.7132 22.7509C32.6875 22.9804 32.6234 23.2099 32.4952 23.3885C32.226 23.7838 31.7132 23.9241 31.2901 24.1281C30.8926 24.3194 30.4695 24.4469 30.0336 24.5107C29.1362 24.6637 28.2131 24.5872 27.3541 24.3449C26.7515 24.1791 26.1745 23.9241 25.6489 23.6053C25.1745 23.312 24.5847 22.9294 24.2642 22.4703C24.0078 22.1005 23.4821 21.9602 23.0847 22.1898C22.918 22.2918 22.9565 22.4448 22.7385 22.5086C22.5462 22.5723 22.1872 22.4576 22.0077 22.4065C20.9949 22.1387 20.1615 21.3863 19.5461 20.5702L19.5205 20.5829Z" fill="#FCD9BA"/>
  <path d="M27.4567 16.2089C27.3542 16.0431 27.5465 15.6606 27.6234 15.5075C27.7516 15.2142 27.9824 14.9719 28.2388 14.7934C28.4952 14.6149 28.867 14.3726 29.1876 14.4108C29.4055 14.4363 29.6235 14.6531 29.4696 14.8444C29.3286 15.0229 28.8799 15.1632 28.6747 15.2397C28.4952 15.3035 28.2901 15.3418 28.1234 15.4565C27.9568 15.5585 27.8414 15.7243 27.7132 15.8774C27.6234 15.9921 27.5337 16.1069 27.4439 16.2217L27.4567 16.2089Z" fill="#B36332"/>
  <path d="M30.1234 20.0857C30.2003 20.0347 30.2901 20.0092 30.3798 19.9964C30.4824 19.9964 30.585 19.9964 30.6875 20.0219C30.8927 20.0602 31.0978 20.0857 31.3029 20.1239C31.4055 20.1367 31.5081 20.1622 31.5978 20.2004C32.0337 20.4045 31.944 20.9911 31.5337 21.1441C31.3798 21.2079 31.2132 21.2079 31.0465 21.1951C30.5978 21.1569 30.149 20.9656 30.0208 20.4937C29.9824 20.3407 29.9952 20.1749 30.1362 20.0857H30.1234Z" fill="#E9B8A2"/>
  <path d="M19.4945 26.6531C19.6099 26.041 19.7253 25.4289 19.7766 24.804C19.8663 23.4523 19.5843 22.0878 18.9817 20.889C18.6996 20.3152 18.3406 19.7923 18.0714 19.2057C17.4047 17.7137 17.4432 15.9538 18.0714 14.4363C19.0201 12.1409 20.8792 10.9421 23.0844 9.99845C24.0331 9.59037 25.0588 9.22055 26.0844 9.29707C27.8537 9.42459 28.3922 10.8911 27.7768 12.4342C27.4947 13.1483 27.0204 13.7732 26.6229 14.4363C25.905 15.6223 25.5075 16.8338 25.3408 18.1855C25.187 19.4608 25.3408 20.7487 25.469 22.0367C25.6742 24.0134 25.8408 26.0283 25.5075 27.9921C25.1742 29.9305 22.6997 31.091 20.9433 31.2185C20.533 31.244 20.0971 31.2185 19.7766 30.9889C18.9945 30.4151 19.1612 28.9231 19.2637 28.1069C19.3278 27.6223 19.4176 27.125 19.5202 26.6404L19.4945 26.6531Z" fill="#B36332"/>
  <path d="M25.3147 18.2111C25.0198 18.0453 24.6608 18.0325 24.3018 18.2876C23.9813 18.5171 23.8018 18.9252 23.789 19.3205C23.7761 19.7159 23.9044 20.1112 24.0838 20.4683C24.1608 20.6213 24.2505 20.7616 24.3659 20.8891C24.7377 21.2972 25.5454 21.871 26.1224 21.667C26.4557 21.5395 26.5455 21.2334 26.6096 20.8636C26.6352 20.6978 26.6096 20.532 26.5839 20.3662C26.4685 19.7796 26.1608 19.397 25.9172 18.887C25.7762 18.5936 25.5583 18.3386 25.3018 18.1983L25.3147 18.2111Z" fill="#FCD9BA"/>
  <path d="M29.7642 16.9358C29.7642 16.9358 29.7129 16.8592 29.6745 16.821C29.5847 16.7572 29.4822 16.7062 29.3668 16.6935C29.1873 16.668 29.0078 16.719 28.8539 16.8082C28.6232 16.9613 28.5078 17.1908 28.3155 17.3821C28.2257 17.4714 28.1231 17.5479 27.9949 17.5861C28.0334 17.6244 28.0847 17.6371 28.136 17.6499C28.4437 17.7009 28.6232 17.4714 28.7898 17.2673C28.8796 17.1653 28.9693 17.0633 29.0975 16.9995C29.3027 16.9102 29.4437 16.974 29.6488 16.9995C29.7642 17.0123 29.7899 16.9868 29.7642 16.9358V16.9358Z" fill="#4B575E"/>
  <path d="M25.3662 12.906C25.3662 12.4852 25.3405 12.0643 25.2764 11.6563C25.2636 11.567 25.02 11.5542 25.0328 11.6563C25.2636 13.11 25.0328 14.6276 24.4046 15.9666C24.2251 16.3364 24.02 16.6935 23.7764 17.0378C23.7251 17.1143 23.9559 17.1781 24.0071 17.1015C24.8661 15.8901 25.3533 14.398 25.3662 12.906Z" fill="#98491F"/>
  <path d="M22.8915 13.5437C22.8915 13.4544 22.6351 13.4544 22.6479 13.5437C22.7376 14.6149 22.4684 15.6989 21.9043 16.6043C21.7376 16.8593 21.5581 17.1016 21.3402 17.3312C21.2632 17.4204 21.494 17.4587 21.5581 17.3949C22.3146 16.5915 22.7761 15.5458 22.8915 14.4619C22.9171 14.1558 22.93 13.8498 22.8915 13.5437V13.5437Z" fill="#98491F"/>
  <path d="M42.5331 17.4587C42.3665 16.7191 41.9305 16.0815 41.4562 15.4948C40.9818 14.9082 40.469 14.3089 39.751 14.0028C39.3535 13.837 38.9176 13.7605 38.4946 13.837C38.4561 13.837 38.392 13.8625 38.4048 13.9263C38.4304 13.9773 38.5202 13.9773 38.5587 13.9773C39.2766 13.8498 39.9561 14.2324 40.4561 14.6914C40.7254 14.9337 40.9562 15.2143 41.1741 15.4948C41.4049 15.7754 41.6228 16.0687 41.8023 16.3748C42.0075 16.7063 42.187 17.0761 42.2639 17.4587C42.2895 17.548 42.5331 17.548 42.5075 17.4587H42.5331Z" fill="#98491F"/>
  <path d="M39.7511 16.9104C39.5587 16.6808 39.3408 16.464 39.0972 16.2855C39.0459 16.2472 38.9818 16.2472 38.9305 16.26C38.8921 16.26 38.8408 16.311 38.8921 16.3492C39.7254 16.9869 40.2895 17.9561 40.4306 18.989C40.469 19.2823 40.4819 19.5756 40.4434 19.8689C40.4434 19.9582 40.687 19.9709 40.687 19.8689C40.7896 18.8105 40.4306 17.7265 39.7511 16.9104V16.9104Z" fill="#98491F"/>
  <path d="M22.9941 26.7934C22.6095 27.6861 21.8403 28.4258 20.9172 28.7573C20.6479 28.8593 20.3402 28.9486 20.071 28.8083C20.0197 28.7828 19.9428 28.7828 19.8915 28.8083C19.853 28.8338 19.8402 28.8721 19.8915 28.9103C20.1607 29.0634 20.4812 29.0379 20.7761 28.9614C21.0454 28.8976 21.3018 28.7828 21.5326 28.6553C22.0069 28.4002 22.43 28.0432 22.7634 27.6096C22.9429 27.3673 23.1095 27.1123 23.2249 26.8317C23.2634 26.7424 23.0198 26.7169 22.9813 26.7934H22.9941Z" fill="#98491F"/>
  <path d="M183.32 13.3779C183.833 13.1611 184.371 13.0463 184.922 13.0335C184.333 12.6892 183.512 12.7402 182.974 13.1738C182.935 13.2121 182.884 13.2376 182.833 13.2376C182.794 13.2376 182.768 13.2121 182.73 13.1866C182.486 13.008 182.32 12.7657 182.115 12.549C181.666 12.0771 181.217 11.618 180.743 11.1717C180.884 11.9113 181.23 12.6127 181.743 13.1738C181.704 13.1356 180.999 13.2503 180.884 13.2503C180.55 13.2503 180.204 13.1993 179.884 13.1356C179.884 13.3651 180.102 13.5436 180.333 13.6074C180.55 13.6712 180.794 13.6584 181.025 13.7094C181.281 13.7732 181.512 13.9262 181.679 14.1303C181.704 14.1558 181.73 14.194 181.717 14.2323C181.717 14.3088 181.615 14.347 181.525 14.347C181.153 14.3853 180.768 14.4236 180.397 14.4491C180.038 14.4873 179.653 14.5383 179.422 14.8061C179.332 14.9209 179.268 15.0484 179.217 15.1887C178.884 15.9921 178.422 16.6935 178.102 17.4969C177.756 18.3513 177.345 19.1675 176.897 19.9836C176.486 20.7233 175.82 21.5012 175.538 22.2918C175.512 22.3683 175.576 22.4448 175.653 22.4703C175.73 22.4958 175.807 22.4703 175.896 22.4703C176.23 22.4321 176.589 22.4831 176.897 22.6234C176.409 22.6999 175.922 22.8147 175.461 22.9804C174.653 23.261 174.627 24.5107 175.063 25.1356C175.961 26.4363 178.448 24.9188 179.358 24.3322C180.268 23.7456 181.089 23.0442 181.794 22.2408C182.038 21.973 182.371 21.6414 182.563 21.3354C182.704 21.1058 182.64 20.9273 182.499 20.6085C182.281 20.1366 181.717 19.244 181.217 19.0144C181.858 19.3077 182.499 19.601 183.025 20.0729C183.038 20.0729 183.051 20.0984 183.076 20.0984C183.102 20.0984 183.115 20.0729 183.127 20.0601C183.461 19.499 183.769 19.0272 183.948 18.4023C184.115 17.8285 184.384 17.0123 184.345 16.4257C184.307 15.8773 183.653 15.1249 183.115 15.0102C183.756 15.1504 184.499 15.278 185.025 14.8826C184.179 14.8189 183.397 14.245 183.076 13.4671C183.153 13.4289 183.243 13.3906 183.32 13.3524V13.3779Z" fill="#9DCAD4"/>
  <path d="M183.358 8.54478C183.179 9.64149 182.961 10.7382 182.691 11.8222C182.422 12.9061 182.102 13.9773 181.73 15.023C181.358 16.0687 180.922 17.0889 180.435 18.0836C179.948 19.0655 179.384 20.022 178.755 20.9146C178.127 21.8073 177.422 22.6617 176.653 23.4396C176.55 23.5416 176.46 23.6309 176.358 23.7329C176.307 23.7839 176.358 23.8477 176.422 23.8604C176.486 23.886 176.602 23.886 176.653 23.8222C177.448 23.057 178.178 22.2154 178.832 21.3227C179.486 20.43 180.063 19.4736 180.576 18.4917C181.089 17.5097 181.538 16.4895 181.922 15.4438C182.32 14.3854 182.653 13.3142 182.935 12.2302C183.217 11.1463 183.448 10.0496 183.64 8.95286C183.666 8.81258 183.691 8.67231 183.704 8.54478C183.73 8.43001 183.384 8.41726 183.358 8.54478V8.54478Z" fill="white"/>
  <path d="M95.6891 118.101C95.7148 117.769 95.6892 117.45 95.5353 117.157C95.4712 117.68 95.3045 118.177 95.0609 118.649C95.0353 118.024 94.9712 117.348 94.625 116.8C94.2404 116.201 93.4199 116.086 92.7916 115.856C92.6506 115.805 92.4455 115.589 92.3044 115.601C92.2788 115.933 92.3173 116.277 92.3429 116.609C92.3557 116.889 92.3301 117.246 92.3942 117.514C92.266 117.042 92.0993 116.57 91.8942 116.124C91.7147 115.754 91.4326 115.142 91.0736 114.9C90.9198 114.798 90.7275 114.76 90.548 114.619C90.3428 114.466 90.1377 114.301 89.9326 114.135C89.5479 113.803 89.189 113.459 88.8684 113.076C88.5864 112.758 88.3556 112.388 88.112 112.031C87.9838 111.839 87.8556 111.648 87.7017 111.47C87.6505 111.406 87.471 111.1 87.4069 111.1C87.3556 111.1 87.3171 111.138 87.2915 111.189C87.2658 111.24 87.2658 111.291 87.2658 111.342C87.2658 111.635 87.2658 111.941 87.253 112.235C87.1504 111.929 87.0351 111.623 86.8812 111.342C86.7274 111.061 86.5222 110.794 86.2402 110.628C86.0735 110.526 85.6504 110.679 85.4837 110.73C83.6503 111.304 84.3555 113.127 84.9453 114.441C85.1504 114.913 85.3812 115.372 85.6248 115.818C85.8555 116.239 86.0222 116.634 86.4581 116.851C86.9581 117.093 87.5351 117.093 88.0607 117.259C87.8684 117.399 87.5992 117.412 87.3556 117.399C87.112 117.399 86.8556 117.374 86.6376 117.476C86.5991 117.807 86.753 117.693 86.9453 117.833C87.1633 117.999 87.3428 118.305 87.5351 118.496C87.7402 118.713 87.9582 118.904 88.1889 119.095C88.3171 119.21 88.7018 119.593 88.8684 119.593C89.0351 119.593 89.4197 119.899 89.5864 119.988C90.7916 120.536 92.0993 120.677 93.2404 119.848C93.1763 120.332 93.0993 120.817 93.0352 121.302C93.5481 120.741 94.0609 120.192 94.5353 119.606C94.625 120.001 94.8045 120.371 95.0609 120.69C94.9712 120.587 95.0609 119.988 95.0609 119.848C95.4327 120.026 95.625 120.69 95.7533 121.034C95.9199 120.447 95.7148 119.822 95.5097 119.248C96.0481 119.019 96.5994 118.802 97.1379 118.573C96.5482 118.369 95.843 118.573 95.4456 119.032C95.5353 118.738 95.6122 118.42 95.6379 118.101H95.6891Z" fill="#9DCAD4"/>
  <path d="M98.4202 119.453C97.4714 119.453 96.5099 119.363 95.5739 119.159C94.6508 118.968 93.7277 118.662 92.8687 118.292C91.9841 117.91 91.1507 117.438 90.3558 116.889C89.5738 116.341 88.8558 115.716 88.2019 115.027C87.5481 114.339 86.9583 113.574 86.4711 112.758C86.407 112.656 86.3429 112.554 86.2916 112.452C86.2275 112.349 85.8942 112.388 85.9583 112.503C86.4327 113.344 87.0096 114.148 87.6635 114.874C88.3173 115.601 89.0481 116.252 89.8302 116.838C90.6123 117.412 91.4584 117.91 92.3431 118.33C93.2277 118.738 94.1636 119.07 95.1124 119.3C96.074 119.529 97.0612 119.657 98.0484 119.682C98.1638 119.682 98.292 119.682 98.4074 119.682C98.4586 119.682 98.574 119.657 98.574 119.593C98.574 119.516 98.4586 119.504 98.4074 119.504L98.4202 119.453Z" fill="#F2FFFC"/>
  <path d="M193.32 128.417C193.038 128.239 192.744 128.111 192.41 128.111C192.846 128.417 193.218 128.787 193.513 129.221C192.949 128.953 192.308 128.685 191.667 128.736C190.949 128.787 190.474 129.463 189.961 129.91C189.846 130.012 189.564 130.088 189.513 130.228C189.795 130.407 190.128 130.534 190.436 130.662C190.692 130.777 190.987 130.968 191.269 131.032C190.782 130.917 190.295 130.84 189.795 130.828C189.384 130.815 188.705 130.777 188.333 130.981C188.166 131.07 188.038 131.223 187.846 131.312C187.615 131.427 187.372 131.529 187.128 131.631C186.666 131.822 186.179 131.963 185.692 132.077C185.269 132.179 184.846 132.205 184.41 132.256C184.179 132.281 183.948 132.307 183.73 132.358C183.654 132.371 183.295 132.383 183.269 132.447C183.243 132.486 183.269 132.549 183.295 132.588C183.32 132.626 183.371 132.651 183.423 132.677C183.679 132.817 183.948 132.957 184.205 133.11C183.884 133.059 183.564 133.008 183.243 133.021C182.923 133.021 182.589 133.085 182.307 133.251C182.141 133.34 182.077 133.799 182.051 133.965C181.705 135.852 183.653 136.082 185.089 136.171C185.602 136.209 186.115 136.222 186.628 136.222C187.115 136.222 187.538 136.247 187.936 135.967C188.384 135.648 188.654 135.138 189.051 134.755C189.09 134.998 188.974 135.227 188.846 135.444C188.718 135.661 188.59 135.865 188.577 136.107C188.846 136.286 188.82 136.107 189.038 136.005C189.282 135.89 189.641 135.878 189.91 135.788C190.192 135.699 190.474 135.61 190.743 135.495C190.897 135.431 191.423 135.278 191.5 135.125C191.577 134.972 192.038 134.781 192.179 134.666C193.231 133.85 193.962 132.779 193.756 131.389L194.962 132.243C194.705 131.529 194.449 130.815 194.154 130.126C194.538 130.241 194.962 130.254 195.359 130.177C195.231 130.203 194.731 129.846 194.615 129.769C194.949 129.527 195.615 129.667 196 129.718C195.551 129.297 194.91 129.183 194.295 129.093C194.346 128.507 194.41 127.92 194.462 127.346C194.013 127.767 193.846 128.481 194.077 129.055C193.846 128.838 193.603 128.622 193.346 128.443L193.32 128.417Z" fill="#9DCAD4"/>
  <path d="M195.795 126.658C195.359 127.499 194.82 128.29 194.218 129.017C193.615 129.744 192.923 130.407 192.179 130.993C191.423 131.593 190.615 132.103 189.756 132.549C188.91 132.983 188.012 133.327 187.089 133.582C186.166 133.837 185.217 134.003 184.256 134.054C184.14 134.054 184.012 134.054 183.897 134.067C183.769 134.067 183.653 134.386 183.781 134.386C184.756 134.36 185.73 134.22 186.679 133.99C187.628 133.761 188.551 133.416 189.435 132.996C190.32 132.575 191.153 132.065 191.935 131.478C192.718 130.891 193.448 130.216 194.089 129.489C194.743 128.749 195.32 127.946 195.795 127.078C195.859 126.976 195.91 126.862 195.961 126.76C195.987 126.709 196.025 126.607 195.961 126.568C195.897 126.53 195.82 126.632 195.795 126.67V126.658Z" fill="white"/>
  <path d="M0.609695 74.5129C-0.351872 74.2578 -1.2878 73.939 -2.19808 73.5565C-3.10836 73.1739 -3.993 72.7276 -4.83918 72.2175C-5.68536 71.7074 -6.49308 71.1462 -7.26233 70.5214C-8.03158 69.8965 -8.76237 69.2334 -9.42906 68.5065C-10.0957 67.7924 -10.724 67.0272 -11.2881 66.2238C-11.365 66.1218 -11.4291 66.0198 -11.506 65.9178C-11.5445 65.854 -11.6471 65.8412 -11.7112 65.854C-11.7496 65.854 -11.8778 65.905 -11.8266 65.9688C-11.2753 66.7977 -10.6599 67.5883 -9.99318 68.328C-9.32649 69.0676 -8.60852 69.7562 -7.83927 70.3939C-7.07002 71.0315 -6.24948 71.6308 -5.4033 72.1537C-4.55712 72.6765 -3.67248 73.1484 -2.7622 73.5565C-1.83909 73.9645 -0.903169 74.3089 0.0583973 74.5767C0.173785 74.6149 0.301994 74.6404 0.417382 74.6787C0.494307 74.6914 0.596875 74.7042 0.648158 74.6404C0.699442 74.5894 0.648158 74.5256 0.584053 74.5129H0.609695Z" fill="#F2FFFC"/>
</svg>
