<svg width="139" height="164" viewBox="0 0 139 164" fill="none"
  xmlns="http://www.w3.org/2000/svg">
  <path d="M81.1524 95.4094C80.0427 93.924 78.5735 92.7056 76.9124 92.2872C79.1174 91.6113 81.4354 91.2417 83.756 90.9886C84.5944 90.8914 84.5912 89.5655 83.7391 89.6664C79.1886 90.1551 74.6767 91.0804 70.9372 93.6784C72.1374 90.5062 73.1229 87.2461 73.9162 83.8992C74.525 81.2991 75.0669 78.6953 75.6398 76.0977C75.7613 76.1671 75.9127 76.1844 76.0665 76.157C78.9661 75.6357 81.5589 74.26 83.6354 72.1751C84.2329 71.572 83.3083 70.6298 82.6972 71.2367C80.8154 73.1218 78.5139 74.3299 75.9107 74.8361C77.1345 69.363 78.5207 63.9482 80.9304 58.818C81.5697 57.4558 82.2661 56.1146 83.0096 54.8118C83.297 54.3081 84.6829 52.6465 84.8961 52.4343C86.5808 50.7936 88.9209 50.0221 91.2878 50.4748C92.1164 50.6368 92.4605 49.3479 91.6183 49.1896C89.7166 48.8297 87.7756 49.1036 86.1078 49.948C89.5843 45.0467 93.7979 40.6697 98.5998 36.997C99.273 36.4831 98.3348 35.5447 97.6616 36.0585C91.4004 40.8558 86.0912 46.8297 82.1283 53.6525C81.7665 54.2866 81.4182 54.9169 81.0874 55.5571C80.978 55.0225 80.8996 54.4942 80.8435 53.9671C80.8223 53.7823 80.7496 52.4973 80.752 52.2914C80.7439 51.0548 80.8623 49.7982 81.0687 48.4883C81.4074 46.3213 81.5973 44.2535 80.7577 42.1739C80.4422 41.3951 79.1562 41.732 79.4754 42.5244C80.5348 45.167 79.7349 47.7386 79.4424 50.4502C79.4153 50.6995 79.4018 50.9451 79.3883 51.1907C78.1113 49.9783 76.4848 49.1767 74.8508 48.4284C74.0816 48.0815 73.4186 49.223 74.1916 49.5836C75.9918 50.4037 77.8304 51.2573 79.0803 52.7996C79.1895 52.931 79.4144 53.566 79.4318 53.7371C79.5528 54.9575 79.8089 56.163 80.1867 57.3573C77.3111 63.3845 75.5843 69.7794 74.1875 76.3627C72.3527 84.9642 70.323 93.2818 66.1609 101.119C65.6368 102.098 65.0903 103.076 64.5227 104.03C64.707 100.681 63.827 97.3003 63.0525 94.0374C62.9717 93.715 62.8959 93.3838 62.8151 93.0614C62.7678 92.8617 62.1811 90.5811 62.1215 90.3628C61.0837 86.5121 59.8364 82.726 58.1872 79.079C57.8358 78.3027 56.6925 78.9744 57.0402 79.737C58.3293 82.6028 59.3666 85.5666 60.2451 88.5665C58.4741 86.7268 56.2667 85.1676 54.0057 85.4777C53.171 85.5886 53.1829 86.9194 54.0226 86.7999C56.3555 86.4848 58.8722 88.8538 60.5503 90.9168C60.6471 91.0297 60.806 91.3161 60.9562 91.5976C61.1065 91.879 61.3289 92.5586 61.3748 92.7C61.4519 93.0088 61.5252 93.304 61.6023 93.6128C62.567 97.5714 63.7823 101.777 62.977 105.831C62.9016 106.225 62.3181 107.55 62.1322 107.836C58.7227 112.902 54.7251 117.586 50.3651 121.857C49.144 123.048 47.8932 124.211 46.6261 125.342C46.4662 125.481 42.9093 128.505 42.7828 128.606C41.5542 129.609 40.3044 130.588 39.0423 131.549C39.4125 130.355 39.6897 129.063 39.9966 127.799C40.0659 127.516 40.7332 125.237 40.8311 125.005C41.4912 123.263 42.474 121.763 44.2311 120.843C44.9875 120.446 44.3208 119.294 43.5731 119.696C42.0603 120.49 41.0798 121.623 40.3809 122.929C40.0529 121.889 39.3603 121.045 38.6802 120.219C38.1341 119.562 37.1956 120.501 37.7418 121.158C38.3425 121.88 38.9903 122.642 39.1893 123.584C39.295 124.105 39.2829 124.651 39.2671 125.183C39.2597 125.398 39.0211 126.724 38.9109 127.179C38.5099 128.769 38.156 130.398 37.5689 131.871C37.5119 132.011 37.2814 132.374 37.0472 132.724C36.813 133.074 36.0443 133.775 35.8348 133.921C33.1257 135.863 30.3545 137.713 27.5287 139.497C26.8095 139.95 27.4676 141.097 28.1867 140.644C34.2797 136.787 40.2088 132.571 45.6985 127.875C45.8349 127.757 46.4139 127.327 46.6581 127.202C46.9805 127.041 47.3253 126.88 47.3985 126.853C50.9006 125.72 54.0648 128.286 56.3137 130.801C56.8834 131.437 57.8218 130.499 57.2522 129.863C55.8472 128.29 54.0913 126.747 52.1311 125.904C52.9497 125.842 53.777 125.784 54.5794 125.689C57.4817 125.365 60.1566 124.451 62.6452 122.935C63.373 122.487 62.715 121.34 61.9872 121.788C58.3169 124.023 54.7659 124.253 50.5986 124.696C50.0715 124.752 49.5481 124.821 49.0322 124.919C54.5577 119.816 59.5532 114.17 63.7173 107.842C63.8066 107.766 63.8698 107.676 63.9132 107.539C64.0842 107.28 64.2503 107.029 64.4126 106.765C66.2864 103.805 67.9245 100.733 69.3343 97.5765C69.4161 97.3929 69.9316 96.4896 70.2439 96.1037C70.5612 95.7091 70.9046 95.3293 71.0918 95.1829C71.3212 95.0029 71.5679 94.8328 71.8146 94.6628C72.0986 94.4679 73.1761 93.9315 73.6077 93.8209C74.0988 93.6866 74.652 93.5648 74.9198 93.4989C76.9302 93.0228 78.8039 94.4606 79.9967 96.0624C80.497 96.7394 81.6526 96.0863 81.1437 95.4044L81.1524 95.4094Z" fill="#202B15"/>
  <path d="M107.664 43.448C102.452 45.6202 97.2609 43.1758 93.2787 39.7633C93.2787 39.7633 93.2701 39.7583 93.2614 39.7534C93.0505 39.6791 92.842 39.5601 92.6472 39.3568C92.6137 39.3147 92.5715 39.2675 92.533 39.2341C92.3642 39.0456 92.2091 38.8535 92.0626 38.6663C92.003 38.6092 91.9521 38.5571 91.8963 38.5138C91.6754 38.2956 91.545 38.06 91.4866 37.8194C88.8497 33.4015 90.9665 27.8163 95.1274 24.8024C97.5067 23.0746 100.375 22.0634 103.334 22.4277C106.461 22.8192 109.203 24.672 112.299 25.138C112.65 25.1886 112.997 25.2257 113.351 25.2317C113.655 25.2439 113.945 25.3405 114.201 25.4979C114.728 25.8449 115.061 26.4723 114.866 27.1559C113.235 32.9604 114.394 40.6338 107.659 43.4567L107.664 43.448Z" fill="#AEBD7A"/>
  <path d="M107.664 43.4481C102.452 45.6203 97.261 43.1759 93.2788 39.7634C93.2788 39.7634 93.2702 39.7584 93.2615 39.7535C93.0506 39.6792 92.8421 39.5602 92.6473 39.3569C92.6138 39.3147 92.5716 39.2676 92.5331 39.2342C93.7355 35.5335 96.5072 32.3716 100.165 30.844C102.884 29.7126 105.981 30.0756 108.605 28.7061C110.196 27.8754 111.447 26.6319 112.304 25.1294C112.655 25.1801 113.002 25.2171 113.356 25.2231C113.66 25.2353 113.95 25.3319 114.206 25.4893C114.733 25.8363 115.066 26.4637 114.871 27.1473C113.24 32.9518 114.399 40.6252 107.664 43.4481Z" fill="#768C4D"/>
  <path d="M107.664 43.4481C102.452 45.6202 97.261 43.1758 93.2788 39.7633C93.2788 39.7633 93.2702 39.7584 93.2615 39.7534C96.132 38.0526 99.6628 37.2122 103.112 36.5554C106.163 35.9708 109.232 35.2932 111.451 32.9787C113.38 30.9708 114.282 28.342 114.209 25.5835C114.207 25.5475 114.208 25.5252 114.214 25.4942C114.742 25.8412 115.074 26.4687 114.88 27.1522C113.248 32.9567 114.407 40.6301 107.673 43.453L107.664 43.4481Z" fill="#30421F"/>
  <path d="M73.3952 52.169C71.223 56.076 66.9701 58.8071 62.5434 56.6377C60.1799 55.473 58.1992 53.456 56.9973 51.1236C55.6253 48.4638 55.6471 45.379 54.2838 42.7242C54.2068 42.5766 54.1782 42.4451 54.172 42.3149C54.1656 42.1041 54.2437 41.9068 54.3776 41.7529C54.535 41.578 54.7706 41.4476 55.0459 41.409C55.3349 41.3667 55.6152 41.3194 55.8831 41.2535C56.2502 41.1752 56.6185 41.0745 56.9744 40.9552C57.4394 40.6449 57.9217 40.3445 58.4078 40.0577C62.1884 37.8515 66.6716 36.5529 70.7758 38.8032C75.0973 41.1774 75.7948 46.6531 74.0346 50.8874C73.9986 50.9705 73.9578 51.0623 73.9218 51.1454C73.7682 51.4953 73.5972 51.8352 73.4176 52.1702L73.3952 52.169Z" fill="#30421F"/>
  <path d="M73.3951 52.169C70.9982 53.4032 68.3878 54.3658 65.6723 53.6566C62.7223 52.8941 61.2908 50.3386 60.3715 47.6723C59.9541 46.4669 59.703 45.414 58.6706 44.5599C57.5525 43.634 56.0824 43.0829 54.7438 42.5837C54.5329 42.5094 54.3456 42.414 54.1632 42.3099C54.1569 42.0991 54.2349 41.9018 54.3688 41.7479C54.5262 41.573 54.7618 41.4426 55.0371 41.404C55.3261 41.3617 55.6064 41.3144 55.8743 41.2485C56.2414 41.1702 56.6097 41.0695 56.9656 40.9502C57.4306 40.6399 57.9129 40.3395 58.399 40.0527C62.1796 37.8465 66.6628 36.5479 70.7671 38.7982C75.0885 41.1724 75.786 46.6481 74.0258 50.8824C73.9899 50.9655 73.949 51.0573 73.9131 51.1404C73.7594 51.4903 73.5885 51.8302 73.4088 52.1652L73.3951 52.169Z" fill="#768C4D"/>
  <path d="M73.8996 51.1442C70.8324 51.5353 67.5495 49.7423 66.62 46.6903C65.9031 44.3352 68.041 41.2146 65.2941 39.8542C63.5981 39.0129 60.712 39.2886 58.3905 40.0477C62.1711 37.8416 66.6542 36.543 70.7585 38.7932C75.0799 41.1674 75.7775 46.6432 74.0173 50.8774C73.9813 50.9605 73.9404 51.0523 73.9045 51.1355L73.8996 51.1442Z" fill="#AEBD7A"/>
  <path d="M107.802 91.9085C107.654 91.9854 107.511 92.0538 107.368 92.1444C104.093 94.029 102.75 97.8339 99.9436 100.25C97.5037 102.347 94.382 102.753 91.3464 101.838C87.033 100.539 82.9899 96.7692 82.1913 92.4792C82.0594 91.7822 82.0094 91.0629 82.0673 90.336C82.172 89.0026 82.6227 87.6479 83.4878 86.3339C84.6384 83.3291 86.969 80.8596 89.9564 79.7206C89.9564 79.7206 89.9613 79.7119 89.9836 79.7131C91.0588 79.302 92.2097 79.0607 93.4203 79.0377C93.4426 79.039 93.4649 79.0402 93.4922 79.0327C96.2855 78.9804 99.0917 79.9947 101.217 81.8181C101.59 82.1342 101.923 82.4974 102.225 82.8768C104.2 85.3279 105.003 88.8029 107.801 90.3767C108.357 90.6939 108.414 91.6018 107.802 91.9085Z" fill="#202B15"/>
  <path d="M107.801 91.9084C107.654 91.9854 107.511 92.0537 107.367 92.1443C106.496 91.6127 105.972 91.4629 104.776 91.9435C103.521 92.4478 102.335 93.0141 100.999 93.2765C98.1638 93.8461 95.4583 93.2807 92.8108 92.2304C90.5665 91.341 87.7984 89.6345 85.2981 90.142C83.8805 90.4268 82.8329 91.3142 82.1873 92.4656C82.0555 91.7686 82.0055 91.0492 82.0634 90.3223C82.1681 88.9889 82.6188 87.6342 83.4839 86.3202C84.6346 83.3154 86.9651 80.8459 89.9525 79.7068C89.9525 79.7068 89.9574 79.6982 89.9797 79.6994C91.1257 79.3862 92.2815 79.1363 93.4164 79.024C93.4387 79.0253 93.461 79.0265 93.4883 79.019C96.2816 78.9667 99.0878 79.981 101.213 81.8044C101.586 82.1205 101.92 82.4837 102.221 82.8631C104.196 85.3142 104.999 88.7892 107.797 90.3629C108.353 90.6802 108.41 91.5881 107.798 91.8948L107.801 91.9084Z" fill="#5E6D3C"/>
  <path d="M96.6847 88.2467C94.0383 89.0507 91.4171 88.4989 88.7465 88.1952C86.0982 87.8927 83.7035 88.6792 82.0634 90.3223C82.1681 88.9889 82.6188 87.6342 83.4839 86.3202C84.6346 83.3154 86.9651 80.8459 89.9525 79.7068C89.9525 79.7068 89.9574 79.6982 89.9797 79.6994C91.0549 79.2883 92.2058 79.047 93.4164 79.024C93.4387 79.0253 93.461 79.0265 93.4883 79.019C96.2816 78.9667 99.0878 79.981 101.213 81.8044C101.586 82.1205 101.92 82.4837 102.221 82.8631C101.44 85.503 99.3535 87.444 96.6984 88.243L96.6847 88.2467Z" fill="#98A36C"/>
  <path d="M85.0572 128.876C81.8523 133.886 76.8551 138.668 71.134 137.556C65.8384 136.525 60.8906 131.94 59.9773 126.56C59.704 125.828 59.5436 125.08 59.4725 124.337C59.4301 123.968 59.4237 123.596 59.4397 123.225C59.5838 119.058 62.6602 115.161 66.9399 113.815C70.3404 112.739 74.0332 113.35 77.1747 114.947C80.4377 116.614 82.6348 119.744 85.7279 121.567C86.1659 121.829 86.6275 122.069 87.1138 122.266C87.8408 122.566 87.8624 123.476 87.6097 124.08C86.9767 125.573 86.1192 127.237 85.0658 128.881L85.0572 128.876Z" fill="#30421F"/>
  <path d="M85.0569 128.876C81.8521 133.886 76.8548 138.668 71.1338 137.556C65.8382 136.525 60.8904 131.94 59.9771 126.56C59.7038 125.828 59.5434 125.08 59.4723 124.337C59.4299 123.968 59.4235 123.596 59.4395 123.225C63.0803 121.687 67.2652 121.658 71.1421 123.156C73.962 124.248 76.5824 125.628 79.6929 125.1C82.1386 124.688 84.1485 123.406 85.7277 121.567C86.1657 121.829 86.6272 122.069 87.1136 122.266C87.8406 122.566 87.8622 123.476 87.6095 124.08C86.9764 125.573 86.119 127.236 85.0656 128.88L85.0569 128.876Z" fill="#768C4D"/>
  <path d="M85.0567 128.876C81.8518 133.886 76.8546 138.668 71.1335 137.556C65.8379 136.525 60.8901 131.94 59.9768 126.56C59.7035 125.828 59.5431 125.08 59.472 124.337C61.5448 124.519 63.5693 125.006 65.5282 125.79C68.6223 127.026 70.7073 129.184 73.4357 130.959C77.6085 133.675 81.3641 131.109 85.0517 128.884L85.0567 128.876Z" fill="#AEBD7A"/>
  <path d="M63.8709 144.936C61.6266 143.966 59.0181 143.917 56.7676 142.978C56.1548 142.72 55.563 142.405 55.0132 141.976C53.286 140.645 52.563 138.644 52.6722 136.495C52.7912 134.088 54.358 129.95 56.7922 128.772C56.843 128.743 56.9075 128.711 56.9621 128.696C57.54 128.45 58.1663 128.382 58.83 128.53C59.1165 128.532 59.4018 128.557 59.6821 128.59C60.2564 128.653 60.8233 128.77 61.3642 128.952C63.3404 129.584 65.0404 130.923 66.0127 132.952C66.6833 134.359 66.9632 135.947 66.7569 137.499C66.542 139.126 65.4699 140.702 65.1657 142.324C65.0605 142.852 65.0447 143.384 65.1715 143.928C65.3468 144.731 64.5806 145.226 63.8759 144.927L63.8709 144.936Z" fill="#202B15"/>
  <path d="M63.8714 144.936C61.6271 143.966 59.0186 143.917 56.7681 142.978C56.1552 142.72 55.5634 142.405 55.0137 141.976C53.2864 140.645 52.5635 138.644 52.6727 136.495C52.7917 134.088 54.3585 129.95 56.7927 128.772C56.8435 128.743 56.908 128.711 56.9626 128.696C57.5404 128.45 58.1668 128.382 58.8304 128.53C59.117 128.532 59.4022 128.557 59.6826 128.59C60.2569 128.653 60.8238 128.77 61.3647 128.952C62.2905 129.872 63.0155 131.022 63.4541 132.412C64.1772 134.736 63.4813 136.803 63.2865 139.121C63.1904 140.299 64.1882 141.375 65.1612 142.333C65.056 142.86 65.0402 143.392 65.167 143.937C65.3424 144.739 64.5761 145.234 63.8714 144.936Z" fill="#5E6D3C"/>
  <path d="M56.7681 142.978C56.1552 142.72 55.5634 142.405 55.0137 141.976C53.2864 140.645 52.5634 138.644 52.6726 136.495C52.7917 134.088 54.3585 129.95 56.7926 128.772C56.8435 128.743 56.9079 128.711 56.9625 128.696C57.5404 128.45 58.1667 128.382 58.8304 128.53C59.1169 128.532 59.4022 128.557 59.6825 128.59C60.7053 129.946 61.3884 131.533 61.3918 133.262C61.4098 136.842 58.3012 138.556 57.4161 141.701C57.2762 142.208 57.047 142.63 56.7631 142.986L56.7681 142.978Z" fill="#98A36C"/>
  <path d="M39.9966 120.131C39.9495 120.173 39.8987 120.201 39.8429 120.239C38.825 120.993 37.6296 121.635 36.3375 122.164C33.9454 123.148 31.5883 122.275 29.7467 120.66C28.8608 120.154 28.0455 119.505 27.5452 118.666C27.1853 118.288 26.8775 117.859 26.6379 117.412C25.9477 116.361 25.6009 115.012 25.6126 113.66C25.6282 112.725 25.6934 111.703 25.8429 110.694C26.011 109.593 26.2721 108.51 26.6735 107.564C27.2966 106.089 28.5786 105.175 29.6745 104.142C30.0228 103.673 30.3711 103.204 30.7119 102.708C30.7565 102.629 30.8222 102.575 30.8879 102.52C30.9871 102.346 31.0862 102.173 31.1853 101.999C31.2597 101.869 31.3551 101.762 31.4531 101.691C31.5597 101.545 31.696 101.427 31.861 101.36C32.0123 101.297 32.1834 101.279 32.3683 101.339C34.9722 102.203 37.6841 103.14 39.614 105.186C41.2646 106.934 42.4727 109.316 43.0433 111.645C43.9769 115.436 42.5544 118.171 39.9879 120.126L39.9966 120.131Z" fill="#202B15"/>
  <path d="M39.9966 120.131C39.9495 120.173 39.8987 120.201 39.8429 120.239C38.8249 120.993 37.6296 121.635 36.3374 122.164C33.9453 123.148 31.5882 122.275 29.7467 120.66C28.8608 120.154 28.0455 119.505 27.5452 118.666C27.1853 118.288 26.8775 117.859 26.6378 117.412C25.9476 116.361 25.6008 115.012 25.6125 113.66C25.6281 112.725 25.6933 111.703 25.8429 110.694C26.011 109.593 26.2721 108.51 26.6734 107.565C27.2965 106.089 28.5786 105.175 29.6745 104.142C30.0228 103.673 30.371 103.204 30.7119 102.708C30.7565 102.629 30.8222 102.575 30.8879 102.52C30.987 102.347 31.0862 102.173 31.1853 101.999C31.2596 101.869 31.3551 101.762 31.453 101.691C31.5596 101.545 31.696 101.427 31.8609 101.36C34.3182 103.833 35.2762 107.097 34.8267 110.79C34.3143 115.057 36.5845 117.999 39.9879 120.126L39.9966 120.131Z" fill="#5E6D3C"/>
  <path d="M39.8434 120.239C38.8254 120.993 37.6301 121.635 36.3379 122.164C33.9458 123.148 31.5887 122.275 29.7472 120.66C28.8613 120.154 28.046 119.505 27.5457 118.666C27.1858 118.288 26.878 117.859 26.6383 117.412C25.9481 116.361 25.6014 115.012 25.613 113.66C25.6286 112.725 25.6938 111.703 25.8434 110.694C28.8392 111.356 31.6852 112.543 33.7058 114.974C34.6974 116.162 35.3704 117.444 36.6497 118.37C37.6449 119.088 38.7268 119.694 39.8434 120.239Z" fill="#98A36C"/>
  <path d="M45.8731 121.677C44.4059 121.887 43.1491 121.285 42.0212 120.457C41.6465 120.186 41.2953 119.893 40.9491 119.592C40.8126 119.468 40.6848 119.349 40.5433 119.234C39.2316 118.082 37.683 116.841 37.9858 114.919C38.2775 113.036 39.7288 110.836 40.9907 109.472C41.6812 108.726 42.4289 108.324 43.2065 108.031C44.2767 107.628 45.4152 107.449 46.5362 106.937C47.0644 106.617 47.61 106.307 48.1506 106.005C48.4693 105.83 48.798 105.879 49.0486 106.045L49.066 106.055C49.1268 106.09 49.1876 106.125 49.2335 106.186C49.3403 106.281 49.4098 106.401 49.4421 106.546C49.5005 106.706 49.5043 106.881 49.4511 107.035C49.461 107.098 49.4784 107.189 49.4847 107.238C49.5245 107.411 49.5543 107.601 49.5668 107.78C49.5793 107.88 49.5607 107.973 49.5596 108.076C49.7459 108.677 49.8616 109.342 50.0827 109.802C50.5198 110.731 51.0623 111.616 51.3345 112.612C52.2902 116.082 49.6212 121.122 45.8831 121.659L45.8731 121.677Z" fill="#30421F"/>
  <path d="M46.1919 117.023C44.8938 118.067 43.0115 119.065 42.0212 120.457C41.6465 120.186 41.2953 119.893 40.9491 119.592C40.8126 119.468 40.6848 119.349 40.5433 119.234C39.2316 118.082 37.683 116.841 37.9858 114.919C38.2775 113.036 39.7288 110.836 40.9907 109.472C41.6812 108.726 42.4289 108.324 43.2065 108.031C44.2767 107.628 45.4152 107.449 46.5362 106.937C47.0644 106.617 47.61 106.307 48.1506 106.005C48.4693 105.83 48.798 105.879 49.0486 106.045L49.066 106.055C49.1268 106.09 49.1876 106.125 49.2335 106.186C49.2411 106.374 49.235 106.566 49.1979 106.752C48.9247 108.542 49.4516 110.363 49.1413 112.178C48.805 114.139 47.7292 115.782 46.1919 117.023Z" fill="#768C4D"/>
  <path d="M44.6338 116.767C43.7489 118.035 42.2634 118.822 40.9403 119.587C40.8038 119.463 40.676 119.344 40.5345 119.229C39.2229 118.077 37.6742 116.836 37.9771 114.914C38.2688 113.031 39.72 110.831 40.982 109.467C41.6724 108.721 42.4202 108.319 43.1977 108.026C45.563 110.216 46.5511 113.992 44.6251 116.762L44.6338 116.767Z" fill="#AEBD7A"/>
  <path d="M58.7796 78.6458C58.5465 78.8928 58.3097 79.1261 58.0643 79.3545C56.3361 80.9703 54.2232 82.2515 52.1499 83.2214C47.4613 85.4044 42.704 84.2783 39.457 80.203C38.0992 78.507 37.2646 76.5799 36.7488 74.5584C36.0067 71.6018 35.9492 68.4142 35.9636 65.3828C35.7351 64.8148 35.4929 64.2506 35.2594 63.6913C35.0173 63.1271 35.6049 62.6219 36.1047 62.5733C36.2846 62.5608 36.4694 62.5396 36.6455 62.5135C39.6928 62.0765 42.3511 60.1624 45.458 59.7824C48.1593 59.4473 50.9242 59.8278 53.4488 60.8311C57.8059 62.5578 62.2757 66.5481 62.0056 71.6213C61.862 74.3948 60.582 76.7385 58.7609 78.6583L58.7796 78.6458Z" fill="#202B15"/>
  <path d="M58.7799 78.6458C58.5469 78.8927 58.3101 79.126 58.0646 79.3544C56.3364 80.9703 54.2236 82.2515 52.1502 83.2213C47.4617 85.4044 42.7043 84.2782 39.4574 80.203C38.0995 78.5069 37.2649 76.5798 36.7491 74.5584C36.007 71.6018 35.9495 68.4141 35.964 65.3827C35.7354 64.8147 35.4933 64.2505 35.2598 63.6912C35.0176 63.127 35.6052 62.6219 36.1051 62.5732C36.2849 62.5607 36.4697 62.5395 36.6458 62.5134C36.7315 62.5853 36.8034 62.6609 36.8792 62.7502C39.0276 65.3004 41.5117 64.6801 44.5159 64.9439C47.5562 65.2052 50.2199 66.4491 52.5491 68.4002C55.7469 71.0887 57.5511 74.7666 58.7799 78.6458Z" fill="#5E6D3C"/>
  <path d="M58.0595 79.3632C56.3313 80.9791 54.2185 82.2603 52.1451 83.2301C47.4566 85.4132 42.6992 84.287 39.4523 80.2117C38.0944 78.5157 37.2599 76.5886 36.744 74.5671C37.4663 75.3593 38.2122 76.1304 39.1724 76.4251C41.5952 77.163 44.3652 75.3358 46.3677 74.268C48.8824 72.9283 51.7325 72.4132 54.2575 74.0615C56.2725 75.3727 57.0935 77.3841 58.0546 79.3719L58.0595 79.3632Z" fill="#98A36C"/>
  <path d="M51.9048 101.849C50.3663 103.112 48.4586 103.187 46.5546 102.952C45.4159 102.809 44.2833 102.554 43.2227 102.375C39.4591 101.747 35.7699 100.908 32.6207 98.6382C32.3191 98.4201 32.2148 98.1187 32.2357 97.8198C32.2468 97.6995 32.2802 97.5804 32.3223 97.4662C32.8162 90.9318 33.9916 83.3241 40.92 80.6462C46.2561 78.5794 51.7095 80.0797 54.4966 84.7791C54.6766 85.0085 54.8467 85.2552 55.0031 85.5057C55.1471 85.7376 55.2861 85.9781 55.4066 86.2311C55.7257 86.8622 55.9704 87.5431 56.137 88.2599C56.4255 89.5298 56.4509 90.7764 56.2817 91.9809C56.1882 95.7156 54.7402 99.4833 51.8974 101.822L51.9048 101.849Z" fill="#30421F"/>
  <path d="M51.9053 101.849C50.3667 103.113 48.4591 103.187 46.555 102.952C45.4163 102.809 44.2837 102.554 43.2231 102.375C39.4596 101.747 35.7703 100.908 32.6211 98.6383C32.3196 98.4201 32.2152 98.1188 32.2361 97.8198C34.9642 96.5904 37.8163 95.3051 40.0119 93.2536C42.0896 91.3076 43.1772 88.5547 45.3778 86.7364C48.3484 84.2752 51.7023 84.4508 55.0072 85.5194C55.1512 85.7513 55.2903 85.9918 55.4107 86.2448C55.7298 86.8759 55.9745 87.5568 56.1411 88.2736C56.4296 89.5435 56.4551 90.7901 56.2858 91.9946C56.1923 95.7293 54.7444 99.497 51.9015 101.835L51.9053 101.849Z" fill="#768C4D"/>
  <path d="M51.9049 101.849C50.3663 103.113 48.4587 103.187 46.5547 102.952C46.3497 102.363 46.2997 101.724 46.4916 101.085C47.2172 98.644 45.5777 96.7757 45.4139 94.3794C45.2351 91.7673 46.3252 89.2116 48.3771 87.5732C50.6956 85.7301 53.0918 85.5663 55.424 86.241C55.7432 86.8722 55.9879 87.553 56.1545 88.2698C56.4429 89.5398 56.4684 90.7863 56.2991 91.9908C56.2056 95.7255 54.7577 99.4933 51.9149 101.832L51.9049 101.849Z" fill="#AEBD7A"/>
  <path d="M93.8332 111.823C91.9365 111.455 90.0874 111.931 88.1884 111.929C86.576 111.93 84.941 111.688 83.3965 111.187C80.9018 110.373 77.975 108.864 76.9342 106.29C75.83 103.564 77.1837 99.8805 78.2863 97.3434C78.3581 97.1771 78.4436 97.0072 78.5242 96.8459C78.5661 96.4899 78.6565 96.15 78.8039 95.8311C78.9575 95.4813 79.1633 95.1612 79.4062 94.8968C79.5537 94.7392 79.7137 94.6002 79.8897 94.4935C79.953 94.4029 80.0335 94.3222 80.1315 94.2514C84.0434 91.6942 89.2731 92.5373 92.2606 96.1191C93.7736 97.9267 94.6381 100.205 94.7597 102.554C94.8411 104.086 94.5926 105.59 94.519 107.091C94.4527 108.297 94.4893 109.504 94.8844 110.708C94.8931 110.713 94.8918 110.735 94.9043 110.754C95.1229 111.42 94.4485 111.956 93.8319 111.846L93.8332 111.823Z" fill="#AEBD7A"/>
  <path d="M94.8942 110.691C90.5765 110.61 87.4229 107.117 85.2329 103.369C84.1354 101.499 83.4606 99.1106 81.9949 97.5027C81.1038 96.522 79.9984 96.0178 78.8088 95.8225C78.9624 95.4726 79.1682 95.1525 79.4111 94.8882C79.5586 94.7306 79.7186 94.5916 79.8946 94.4848C79.9578 94.3942 80.0384 94.3136 80.1364 94.2428C84.0483 91.6856 89.278 92.5286 92.2655 96.1104C93.7784 97.918 94.643 100.196 94.7645 102.545C94.846 104.077 94.5975 105.582 94.5239 107.083C94.4576 108.288 94.4942 109.495 94.8893 110.699L94.8942 110.691Z" fill="#768C4D"/>
  <path d="M94.5284 107.074C93.1228 106.49 91.9129 105.524 90.8927 104.204C89.4504 102.334 88.8426 99.9487 87.3482 98.1287C85.3536 95.7123 82.4036 94.8692 79.3983 94.8696C79.5458 94.712 79.7057 94.573 79.8818 94.4663C79.945 94.3757 80.0256 94.295 80.1235 94.2242C84.0354 91.667 89.2652 92.5101 92.2527 96.0919C93.7656 97.8995 94.6301 100.178 94.7517 102.527C94.8332 104.058 94.5847 105.563 94.5111 107.064L94.5284 107.074Z" fill="#30421F"/>
  <path d="M82.8379 43.0273C82.5937 43.1527 82.3419 43.2509 82.0765 43.3527C81.7975 43.4583 81.4924 43.549 81.1923 43.631C76.0357 45.0404 68.4338 43.0277 66.2581 38.2052C63.9533 33.1247 66.8023 28.4756 70.3167 24.8395C71.0059 24.116 71.7287 23.4346 72.4403 22.793C73.0896 21.5746 74.9015 21.204 76.3705 21.8581C76.6112 21.9609 76.8556 22.0774 77.1 22.1938C79.7513 23.4191 82.832 25.1428 84.4841 27.4328C87.4719 31.5789 88.2829 40.3663 82.8429 43.0186L82.8379 43.0273Z" fill="#AEBD7A"/>
  <path d="M82.0763 43.3527C81.7973 43.4583 81.4922 43.549 81.1921 43.631C76.0355 45.0404 68.4336 43.0277 66.2579 38.2052C63.953 33.1247 66.8021 28.4756 70.3165 24.8395C71.0057 24.116 71.7285 23.4346 72.4401 22.793C73.0894 21.5746 74.9013 21.204 76.3702 21.8581C76.6109 21.9609 76.8553 22.0774 77.0998 22.1938C76.3951 24.2557 76.3367 26.3755 77.3685 28.3805C78.4811 30.5468 80.3933 32.1793 81.5195 34.3419C83.1113 37.4034 83.0211 40.4262 82.0775 43.3304L82.0763 43.3527Z" fill="#768C4D"/>
  <path d="M81.1924 43.631C76.0358 45.0404 68.4339 43.0277 66.2582 38.2051C63.9533 33.1247 66.8024 28.4756 70.3168 24.8395C70.4534 25.2053 70.5244 25.6257 70.5159 26.1045C70.4611 27.9961 70.497 30.1121 71.5522 31.7736C72.6645 33.5367 74.926 34.1135 76.5787 35.2525C79.3917 37.2033 80.7292 40.327 81.2061 43.6273L81.1924 43.631Z" fill="#30421F"/>
  <path d="M113.167 55.2122C111.651 57.9281 108.043 60.5782 105.293 61.887C102.598 63.1586 99.6884 63.3748 96.9478 62.1446C92.2408 60.0224 88.8793 55.26 89.3976 50.317C89.4013 50.25 89.4099 50.1744 89.4223 50.1123C89.4494 49.863 89.4902 49.61 89.5447 49.3532C89.5409 49.2589 89.5284 49.1597 89.5433 49.053C90.2243 42.2915 97.3003 39.6978 103.139 41.8554C105.145 42.5972 106.961 43.7721 108.577 45.1778C109.612 46.0678 110.57 47.0521 111.463 48.0687C112.762 49.5465 113.849 51.2725 113.769 53.1268C113.736 53.8103 113.546 54.5075 113.153 55.2159L113.167 55.2122Z" fill="#202B15"/>
  <path d="M113.783 53.1232C110.502 56.2705 105.956 58.3852 101.528 56.6412C97.8148 55.1784 93.7199 49.6635 89.4113 50.3133C89.4149 50.2464 89.4236 50.1707 89.436 50.1087C89.4631 49.8593 89.5039 49.6063 89.5583 49.3495C89.5546 49.2552 89.5421 49.156 89.5569 49.0493C90.238 42.2878 97.314 39.6942 103.152 41.8517C105.158 42.5936 106.975 43.7684 108.59 45.1741C109.625 46.0641 110.583 47.0484 111.477 48.065C112.775 49.5428 113.863 51.2688 113.783 53.1232Z" fill="#5E6D3C"/>
  <path d="M108.59 45.1742C106.39 48.2018 103.127 50.2886 99.3665 50.8252C97.046 51.1589 94.8441 50.7197 92.5753 50.2769C91.5296 50.0716 90.4057 49.8216 89.4408 50.1C89.468 49.8507 89.5088 49.5976 89.5632 49.3408C89.5595 49.2466 89.547 49.1474 89.5618 49.0407C90.2428 42.2792 97.3189 39.6855 103.157 41.843C105.163 42.5849 106.98 43.7598 108.595 45.1655L108.59 45.1742Z" fill="#98A36C"/>
  <path d="M94.0235 77.9198C91.2899 78.1098 88.2657 77.6389 86.1697 75.7634C85.0553 74.7704 83.9061 73.5965 82.9925 72.2921C82.573 71.6957 82.2092 71.0621 81.9186 70.4012C81.6268 69.7625 81.4131 69.0879 81.3122 68.3971C80.8729 65.6363 81.9393 62.7792 83.8918 60.8308C88.2902 56.4326 95.0518 57.3555 100.038 60.0977C100.325 60.1807 100.582 60.3157 100.833 60.4595C101.259 60.3799 101.733 60.4776 102.178 60.847C102.388 61.0242 102.543 61.2164 102.649 61.4148C102.806 61.7236 102.851 62.0485 102.798 62.3636C102.762 62.6079 102.664 62.8399 102.54 63.0571C102.558 63.1476 102.58 63.2294 102.589 63.315C102.928 66.2718 101.45 70.1723 100.2 72.7864C98.955 75.3918 97.0821 77.685 94.0198 77.9062L94.0235 77.9198Z" fill="#30421F"/>
  <path d="M100.144 66.8129C98.3745 68.6012 95.9166 69.5589 93.4087 69.6359C91.0397 69.7116 88.6552 68.7652 86.32 69.4475C84.8405 69.8811 83.5697 70.9175 82.9974 72.2834C82.5779 71.6871 82.2141 71.0534 81.9235 70.3925C81.6317 69.7539 81.418 69.0792 81.3171 68.3884C80.8778 65.6276 81.9442 62.7705 83.8967 60.8221C88.2951 56.424 95.0567 57.3469 100.043 60.0891C100.33 60.172 100.587 60.3071 100.838 60.4508C101.264 60.3712 101.738 60.4689 102.183 60.8383C102.393 61.0156 102.548 61.2077 102.654 61.4061C102.811 61.7149 102.856 62.0399 102.803 62.3549C102.6 62.711 102.393 63.0534 102.181 63.4046C102.145 63.5683 102.095 63.7358 102.032 63.907C101.615 64.9814 100.942 65.979 100.14 66.7993L100.144 66.8129Z" fill="#768C4D"/>
  <path d="M102.657 61.4198C101.409 62.538 99.8825 63.2558 98.0246 63.485C95.3866 63.8101 92.6837 63.442 90.0295 63.7349C87.7498 63.9768 84.9517 64.1991 83.4594 66.1683C82.5422 67.372 82.1238 68.8718 81.9274 70.4062C81.6356 69.7675 81.4219 69.0929 81.321 68.4021C80.8817 65.6413 81.9481 62.7842 83.9006 60.8358C88.299 56.4376 95.0606 57.3605 100.047 60.1027C100.334 60.1857 100.59 60.3207 100.842 60.4645C101.268 60.3849 101.742 60.4826 102.187 60.852C102.397 61.0292 102.552 61.2214 102.657 61.4198Z" fill="#AEBD7A"/>
</svg>
