<svg width="154" height="144" viewBox="0 0 154 144" fill="none"
  xmlns="http://www.w3.org/2000/svg">
  <g clip-path="url(#clip0_225_34120)">
    <path d="M33.8365 113.815C32.3555 123.86 27.0762 135.27 23.5809 135C19.8389 134.663 18.365 121.321 18.9089 111.819C19.6402 100.121 23.8233 85.3791 27.6716 84.8189C31.676 84.1681 35.8736 99.6901 33.8365 113.815Z" fill="#3B622C"/>
    <path d="M23.8278 135.065C25.6305 126.296 26.9396 117.395 27.5334 108.699C27.7615 105.853 27.8335 103.097 27.9054 100.342C27.9867 99.0417 28.0679 97.742 28.0586 96.2859C28.1462 92.4772 27.987 88.6027 27.9185 84.8844L27.5155 84.9092C27.6747 88.7837 27.7433 92.5019 27.6557 96.3107C27.665 97.7668 27.5837 99.0665 27.5025 100.366C27.4305 103.122 27.2024 105.968 27.1304 108.724C26.3805 117.51 25.2275 126.321 23.4249 135.09L23.8278 135.065Z" fill="#A7BC68"/>
    <path d="M22.8612 91.3219L28.1208 96.0078L27.8808 96.2775L22.6211 91.5916L22.8612 91.3219Z" fill="#A7BC68"/>
    <path d="M21.8846 94.3103L27.8787 100.063L27.5038 100.454L21.5097 94.7012L21.8846 94.3103Z" fill="#A7BC68"/>
    <path d="M11.8626 117.801C16.0453 125.284 23.4407 132.71 26.3355 131.403C29.2302 130.097 26.4151 119.036 23.0363 111.727C19.0706 102.859 11.26 92.3096 8.05067 93.1264C4.6631 93.9885 5.97105 107.333 11.8626 117.801Z" fill="#608437"/>
    <path d="M25.8006 131.539C21.712 125.172 18.1128 118.489 15.094 111.849C14.1471 109.621 13.0674 107.616 12.2988 105.342C11.8481 104.317 11.3974 103.292 10.9466 102.267C9.81816 99.3251 8.64428 96.2046 7.69409 93.2172L8.05067 93.1264C9.00086 96.1139 10.1747 99.2344 11.3032 102.176C11.7993 103.38 12.2501 104.405 12.6554 105.252C13.5568 107.302 14.5037 109.53 15.4506 111.759C18.5148 118.577 22.2469 125.036 26.1572 131.449L25.8006 131.539Z" fill="#A7BC68"/>
    <path d="M13.7421 96.8891L11.0073 102.105L11.3332 102.276L14.068 97.0602L13.7421 96.8891Z" fill="#A7BC68"/>
    <path d="M15.1743 98.8985L12.1655 105.212L12.6637 105.449L15.6725 99.1364L15.1743 98.8985Z" fill="#A7BC68"/>
    <path d="M133.243 117.638C130.939 123.389 129.736 130.946 131.796 131.931C133.856 132.916 138.9 126.479 141.636 121.382C144.941 115.157 147.562 106.192 145.613 104.664C143.663 103.137 136.686 109.632 133.243 117.638Z" fill="#608437"/>
    <path d="M131.406 131.625C133.251 126.46 135.487 121.6 137.917 116.893C138.792 115.375 139.667 113.857 140.389 112.534C140.848 111.949 141.264 111.016 141.723 110.431C142.903 108.523 144.237 106.42 145.418 104.512L145.808 104.817C144.627 106.725 143.293 108.828 142.113 110.737C141.654 111.322 141.39 112.06 140.779 112.84C139.904 114.358 139.182 115.681 138.307 117.199C135.877 121.906 133.641 126.766 131.796 131.931L131.406 131.625Z" fill="#A7BC68"/>
    <path d="M145.816 109.388L141.667 110.116L141.753 110.604L145.901 109.876L145.816 109.388Z" fill="#A7BC68"/>
    <path d="M145.355 111.091L140.511 112.132L140.667 112.859L145.511 111.817L145.355 111.091Z" fill="#A7BC68"/>
    <path d="M154 133.752C154 136.999 125.68 145.295 98.0684 140.606C89.9265 139.163 85.6785 137.359 77.1826 138.081C66.2087 138.802 60.8987 142.409 49.2168 141.688C44.9688 141.327 44.9688 140.966 37.1809 139.523C14.5251 135.195 0.365201 136.638 0.0112041 134.113C-0.342793 132.309 7.79914 129.785 9.21512 129.424C23.375 125.096 33.9949 127.62 50.6328 129.063C60.5447 129.785 67.2707 129.785 77.1826 130.145C97.7144 130.145 101.254 128.702 116.122 129.063C130.636 128.702 154 130.867 154 133.752Z" fill="#E9D7AA"/>
    <path d="M60.0227 60.779C58.9007 61.3322 57.8173 61.9626 56.7469 62.6187C56.3471 62.8632 55.9214 63.1591 55.8441 63.6094C55.7151 64.2912 56.2181 65.2304 56.4502 65.8479C56.7082 66.5555 57.0048 67.6105 57.5465 68.1637C57.9334 68.5754 58.733 67.9707 59.0425 67.6491C60.6289 66.0409 62.1378 64.3813 63.5952 62.6573C63.6726 62.5673 64.9763 62.6187 65.3247 62.2712C66.4196 61.179 65.3376 61.555 65.3247 61.4521C65.3247 61.0404 63.8273 61.2036 63.7887 60.8047C63.75 60.4702 63.6339 59.7626 63.3115 59.5954C63.1051 59.4925 62.873 59.5697 62.6537 59.6469C61.7638 59.9814 60.8868 60.3673 60.0356 60.7919L60.0227 60.779Z" fill="#FCD9BA"/>
    <path d="M62.992 59.21C62.73 59.8911 63.008 60.334 63.4175 60.9256C63.61 61.1926 63.8025 61.4596 64.0102 61.7175C64.4165 62.2182 64.6609 62.4853 65.2835 62.3836C66.2572 62.228 67.142 61.7541 68.0147 61.3286C68.5487 61.0631 69.1194 60.8067 69.5892 60.435C70.0254 60.0935 70.5045 59.84 70.8522 59.3862C70.9833 59.2259 71.0992 59.0232 71.1357 58.8263C71.1782 58.5537 71.1048 58.3294 70.8363 58.5712C70.3849 58.9733 69.8204 59.3084 69.2742 59.5709C69.1399 59.6403 68.4747 59.9632 68.6271 59.6151C68.6941 59.4516 68.9932 59.3462 69.1244 59.2374C69.3501 59.0621 69.5881 58.8899 69.8139 58.7146C70.2776 58.3671 70.7322 58.0045 71.1959 57.657C71.3576 57.5301 71.6016 57.3337 71.6076 57.1034C71.6136 56.9247 71.4699 56.6699 71.2593 56.6816C71.1678 56.6845 71.0762 56.7388 70.9969 56.7962C70.0785 57.4033 69.3068 58.2016 68.2662 58.6237C68.1197 58.69 67.7871 58.7227 67.8998 58.4806C67.9456 58.4019 68.0096 58.3535 68.0767 58.2931C68.8578 57.716 69.6388 57.1389 70.4198 56.5618C70.6425 56.3986 71.0179 56.1964 71.0695 55.8875C71.1547 55.3938 70.5716 55.3896 70.2726 55.5981C69.7082 55.9847 69.1987 56.4109 68.6221 56.7945C68.201 57.0754 67.7373 57.4229 67.2154 57.4855C67.258 57.3674 67.3679 57.2919 67.4747 57.2285C67.8804 56.9566 68.2649 56.6665 68.6401 56.3613C68.9818 56.0863 69.3723 55.8235 69.6712 55.512C69.8817 55.2943 69.9271 54.7521 69.4724 54.8572C69.3625 54.8812 69.2649 54.9598 69.1703 55.0263C68.3984 55.6186 67.6571 56.2442 66.7997 56.7121C66.4702 56.8871 66.0674 57.0954 65.6889 57.0522C65.5909 56.6673 66.195 56.2261 66.3321 55.8871C66.5454 55.3998 66.5726 54.9302 66.1694 54.4689C65.8455 54.1047 65.5379 54.9675 65.4434 55.1885C65.1356 55.9483 64.6782 56.5806 64.2147 57.2371C63.7694 57.8724 63.2784 58.4319 62.9675 59.1524C62.9614 59.1766 62.9554 59.2008 62.9493 59.2251L62.992 59.21Z" fill="#FCD9BA"/>
    <path d="M35.3243 105.332C36.1286 107.792 36.9612 110.257 37.8522 112.692C38.9518 115.71 40.147 118.687 41.3385 121.651C41.8711 122.984 42.4036 124.317 42.9362 125.65C43.654 127.439 44.379 129.252 45.5532 130.763C46.2744 131.68 47.1797 132.491 48.2313 133.019C48.7793 133.29 49.3977 133.34 49.935 133.574C51.0575 134.068 51.8964 134.51 53.1191 133.864C54.0499 133.369 54.6944 132.394 54.9633 131.419C55.3817 129.893 55.1585 128.284 54.9213 126.719L53.4705 116.907C53.19 115.006 52.906 113.093 52.3333 111.249C51.9873 110.143 52.0749 108.156 51.5925 107.09C51.1303 102.871 50.3888 99.0241 48.2312 95.8283C47.1578 94.249 43.2222 94.8017 42.0143 93.3145C41.2683 92.4043 39.8797 90.0587 38.5545 90.0244C37.9468 90.0116 37.3805 90.2814 36.8656 90.59C35.6183 91.3367 34.5203 92.3216 33.6317 93.4739C33.0928 94.1643 32.6357 94.9517 32.5667 95.8283C32.5169 96.5389 32.7292 97.2276 32.9379 97.904C33.7174 100.371 34.4881 102.854 35.2924 105.314L35.3243 105.332Z" fill="#62838F"/>
    <path d="M19.1906 131.448C19.1906 131.448 19.2773 131.423 19.3145 131.413C20.07 131.196 19.8954 130.268 19.9341 129.613C19.9816 128.943 20.0044 128.28 19.9988 127.612C19.9954 127.09 20.1162 126.626 19.4608 126.587C17.7339 126.506 15.9897 126.55 14.2504 126.473C13.3826 126.44 12.5251 126.351 11.6642 126.25C11.0388 126.174 10.7063 126.323 10.6872 126.999C10.6595 127.784 10.6615 128.44 10.8339 129.221C10.9936 129.913 10.9632 130.967 11.7893 131.226C12.2165 131.358 12.68 131.198 13.1209 131.192C13.7248 131.193 14.3287 131.194 14.9361 131.208C16.167 131.243 17.4087 131.316 18.6451 131.417C18.824 131.433 19.0029 131.448 19.1711 131.427L19.1906 131.448Z" fill="#FCD9BA"/>
    <path d="M7.88451 136.702C7.88451 136.702 7.86141 136.668 7.84545 136.659L9.14014 125.009C9.22157 125.012 9.29941 125.003 9.38084 125.007C9.55608 125.01 9.74728 125.022 9.9173 125.054C10.6026 125.152 11.253 125.407 11.8189 125.835C11.9414 125.933 12.0674 126.045 12.0768 126.216C12.0897 126.4 11.9698 126.542 11.8659 126.692C11.4729 127.233 11.2029 128.061 11.3678 128.724C11.4683 129.164 11.7013 129.552 11.9696 129.877C12.0904 130.017 12.2272 130.165 12.3056 130.343C12.3876 130.534 12.383 130.75 12.3181 130.943C12.1322 131.505 11.608 131.963 11.2785 132.446C10.9014 132.997 10.5634 133.589 10.2697 134.196C10.0165 134.711 9.80749 135.239 9.50635 135.728C9.32318 136.021 8.98488 136.52 8.60858 136.749C8.3701 136.897 8.10823 136.919 7.87216 136.705L7.88451 136.702Z" fill="#98BCB5"/>
    <path d="M7.88405 136.702C7.88405 136.702 7.86095 136.668 7.845 136.659L9.13931 125.01C9.22072 125.014 9.29854 125.005 9.37995 125.008C9.55515 125.012 9.7463 125.024 9.91628 125.055L8.60438 136.736C8.36595 136.885 8.10414 136.907 7.86812 136.693L7.88405 136.702Z" fill="white"/>
    <path d="M9.85784 134.259C9.9817 134.224 10.0414 134.059 10.0994 133.935C10.4357 133.289 10.811 132.686 11.2306 132.097C11.4722 131.773 11.7138 131.449 11.975 131.146C12.0138 131.095 12.033 131.022 12.0151 130.96C12.0044 130.923 11.9705 130.852 11.9317 130.904C11.4306 131.49 10.9774 132.102 10.5757 132.753C10.3748 133.079 10.1863 133.401 10.0174 133.744C9.98218 133.808 9.94889 133.925 9.88174 133.971C9.8022 134.021 9.71522 133.952 9.66016 133.901C9.56959 133.819 9.23535 133.406 9.08509 133.489C8.86409 133.606 9.2316 133.903 9.31143 133.947C9.37887 133.995 9.44631 134.042 9.51376 134.09C9.60433 134.171 9.72161 134.298 9.85426 134.247L9.85784 134.259Z" fill="white"/>
    <path d="M9.87161 127.292C10.6296 127.222 11.4098 126.905 11.886 126.232C11.9248 126.18 11.9281 126.099 11.9102 126.037C11.8959 125.987 11.8392 125.977 11.8127 126.025C11.3666 126.662 10.6163 126.945 9.8991 127.016C9.7964 127.032 9.78131 127.305 9.87161 127.292Z" fill="white"/>
    <path d="M11.8197 132.088C11.8197 132.088 11.839 132.016 11.8442 131.987C11.837 131.963 11.8387 131.922 11.8191 131.901C11.6912 131.737 11.5633 131.572 11.4389 131.421C11.3999 131.378 11.3575 131.417 11.3399 131.449C11.3223 131.481 11.3207 131.521 11.3155 131.55C11.3226 131.574 11.3334 131.612 11.3405 131.636C11.4684 131.801 11.5964 131.965 11.7207 132.117C11.7598 132.159 11.8021 132.12 11.8197 132.088Z" fill="#62838F"/>
    <path d="M11.4082 132.662C11.4082 132.662 11.4343 132.52 11.4076 132.474C11.2956 132.319 11.1748 132.179 11.0541 132.04C11.0469 132.015 11.0186 132.01 11.0062 132.013C10.9815 132.021 10.9639 132.052 10.9551 132.068C10.9375 132.1 10.9358 132.141 10.9306 132.169C10.9377 132.194 10.9361 132.235 10.9556 132.256C11.0888 132.392 11.1972 132.535 11.3092 132.69C11.3482 132.732 11.3906 132.694 11.4082 132.662Z" fill="#62838F"/>
    <path d="M10.9631 133.352C10.9631 133.352 11.0054 133.313 11.0142 133.297C11.0318 133.266 11.0334 133.225 11.0387 133.197C11.0315 133.172 11.0332 133.131 11.0136 133.11C10.9 132.995 10.7864 132.88 10.6692 132.753C10.662 132.729 10.6337 132.723 10.6213 132.727C10.5965 132.734 10.5789 132.766 10.5701 132.782C10.5525 132.814 10.5509 132.854 10.5457 132.883C10.5528 132.907 10.5512 132.948 10.5707 132.969C10.6844 133.084 10.798 133.199 10.9152 133.326C10.9223 133.35 10.9507 133.356 10.9631 133.352Z" fill="#62838F"/>
    <path d="M10.649 134.032C10.649 134.032 10.6751 133.89 10.6484 133.844C10.5328 133.677 10.3961 133.528 10.2382 133.399C10.2346 133.387 10.1975 133.398 10.1887 133.414C10.1639 133.421 10.1499 133.465 10.1447 133.493C10.1342 133.55 10.1309 133.631 10.17 133.673C10.2055 133.703 10.241 133.733 10.2765 133.763C10.2837 133.788 10.312 133.793 10.3315 133.815C10.3315 133.815 10.3387 133.839 10.351 133.836C10.4132 133.912 10.4754 133.988 10.5252 134.067C10.5519 134.113 10.6066 134.071 10.6242 134.039L10.649 134.032Z" fill="#62838F"/>
    <path d="M14.2291 131.624C14.1426 132.346 13.7666 133.968 14.0785 134.629C14.3156 135.124 15.0592 135.005 15.628 135.069C17.3343 135.263 19.014 134.808 20.7253 134.88C21.9725 134.924 23.1869 135.273 24.4183 135.402C27.5671 135.759 30.7227 134.84 33.8986 134.827C35.2006 134.829 36.4571 135.044 37.7505 135.156C38.9748 135.26 40.2781 135.128 41.5126 135.082C44.095 135.011 46.6827 134.912 49.2557 134.67C51.3205 134.479 53.8636 134.272 54.4412 131.908C54.6408 131.114 54.4381 130.274 54.2214 129.478C53.9885 128.58 53.7556 127.682 53.3528 126.846C52.4938 125.082 51.0016 124.236 49.083 124.144C47.1803 124.059 45.2678 124.219 43.3676 124.376C36.5938 124.939 29.8964 125.534 23.0852 125.41C20.9116 125.364 18.7273 125.28 16.5653 125.552C15.7243 125.659 15.3812 125.865 15.24 126.629C15.0795 127.466 14.8287 128.315 14.6434 129.159C14.4598 129.962 14.3241 130.792 14.2255 131.611L14.2291 131.624Z" fill="#62838F"/>
    <path d="M46.7181 131.228C46.7181 131.228 46.7195 131.094 46.6964 131.06C46.0796 130.273 45.484 129.465 44.9308 128.619C44.3688 127.789 43.8528 126.932 43.358 126.056C43.0234 125.456 42.7011 124.851 42.4036 124.24C42.3965 124.215 42.3858 124.178 42.3662 124.157C42.238 123.899 42.1097 123.641 41.9903 123.367C41.5698 122.47 41.1953 121.545 40.8421 120.602C40.4888 119.658 40.1851 118.7 39.9097 117.748C39.8739 117.624 39.8382 117.5 39.806 117.389C39.7953 117.352 39.7578 117.269 39.7083 117.283C39.6587 117.297 39.6713 117.387 39.6821 117.424C39.9486 118.393 40.24 119.354 40.5844 120.314C40.9289 121.274 41.307 122.21 41.7222 123.136C41.8719 123.468 42.0252 123.813 42.1873 124.141C40.3649 124.289 38.555 124.434 36.7415 124.566C34.8873 124.696 33.0331 124.826 31.1841 124.928C29.3191 125.021 27.4505 125.102 25.5837 125.142C23.7416 125.175 21.8975 125.155 20.0483 125.163C19.1502 125.167 18.2593 125.195 17.3667 125.263C16.9736 125.296 16.5645 125.319 16.1608 125.408C15.8847 125.474 15.5661 125.579 15.3772 125.807C15.2872 125.914 15.2167 126.041 15.1869 126.17C15.1712 126.255 15.2939 126.448 15.3361 126.315C15.5025 125.637 16.4837 125.597 17.0327 125.547C17.9465 125.458 18.8622 125.423 19.785 125.413C21.6023 125.387 23.4128 125.43 25.2389 125.388C27.0686 125.359 28.9 125.289 30.7242 125.194C32.5484 125.099 34.3815 124.988 36.2074 124.853C38.0492 124.726 39.8715 124.578 41.7062 124.427C41.9152 124.407 42.1118 124.391 42.3243 124.383C42.5736 124.875 42.8229 125.366 43.0847 125.853C43.5707 126.745 44.0903 127.615 44.6434 128.461C45.1966 129.307 45.7834 130.13 46.4002 130.917C46.4819 131.015 46.5513 131.115 46.633 131.212C46.6561 131.246 46.704 131.272 46.7305 131.225L46.7181 131.228Z" fill="#553A12"/>
    <path d="M54.9677 79.7163C54.4003 78.597 53.8715 77.452 53.3814 76.307C52.8913 75.1491 52.4399 73.9783 52.0143 72.7947C51.5887 71.6111 51.2018 70.4146 50.8149 69.2182C50.4409 68.0217 50.0798 66.8124 49.7444 65.603C49.3962 64.3937 49.0738 63.1843 48.7385 61.9621C48.6998 61.8077 48.6611 61.6533 48.6095 61.499C48.5837 61.4218 48.3387 61.4346 48.3644 61.5376C48.6869 62.7469 49.0222 63.9691 49.3575 65.1785C49.6928 66.3878 50.054 67.5971 50.4151 68.8065C50.7891 70.003 51.176 71.1994 51.5887 72.3959C52.0014 73.5795 52.4528 74.7503 52.93 75.9082C53.4072 77.066 53.9231 78.211 54.4905 79.3303C54.555 79.4719 54.6324 79.6134 54.7098 79.7549C54.7485 79.8321 54.9935 79.8064 54.9548 79.7163H54.9677Z" fill="#62838F"/>
    <path d="M53.033 85.2227C51.8206 86.059 50.5567 86.8052 49.2412 87.4613C47.9257 88.1174 46.5587 88.6835 45.1658 89.1595C43.7729 89.6227 42.3542 89.9958 40.9097 90.2788C39.4653 90.549 37.995 90.7291 36.5247 90.8063C35.0545 90.8835 33.5842 90.8577 32.114 90.7162C31.9334 90.7034 31.7528 90.6776 31.5723 90.6648C31.5336 90.6648 31.4433 90.6648 31.4175 90.7162C31.3917 90.7677 31.4691 90.7934 31.5078 90.8063C32.991 90.9735 34.4741 91.025 35.9702 90.9735C37.4533 90.9221 38.9365 90.7806 40.4068 90.5233C41.877 90.2659 43.3215 89.9186 44.7402 89.4683C46.1588 89.018 47.5388 88.4776 48.8801 87.8344C50.2214 87.1911 51.524 86.4578 52.7621 85.6344C52.9169 85.5315 53.0717 85.4286 53.2135 85.3256C53.3296 85.2485 53.1104 85.1841 53.033 85.2227V85.2227Z" fill="#62838F"/>
    <path d="M55.509 55.7354C55.509 55.7354 55.3929 55.6968 55.3414 55.7097C54.1032 56.0056 53.1231 56.919 52.3363 57.8839C51.498 58.9389 50.7758 60.1096 50.3244 61.3833C50.0794 62.1037 49.9117 62.8371 49.8601 63.5961C49.8601 63.6862 50.1052 63.6862 50.1052 63.5961C50.1954 62.2581 50.6468 60.9845 51.2917 59.8137C51.6141 59.2348 51.9881 58.6687 52.3879 58.1412C52.7619 57.6523 53.1875 57.1763 53.6647 56.7775C54.1935 56.3401 54.7868 55.9798 55.4574 55.8255C55.4961 55.8255 55.5348 55.774 55.4961 55.7354H55.509Z" fill="#62838F"/>
    <path d="M49.0732 49.187C48.1962 48.8011 47.2934 48.4666 46.3777 48.2093C45.4749 47.952 44.5593 47.7461 43.6436 47.6432C43.1922 47.5917 42.7408 47.5531 42.2894 47.5403C42.0056 47.6303 41.7348 47.7204 41.4511 47.8233C39.4004 48.5438 37.4917 48.9555 35.944 50.5508C35.944 50.5894 35.9182 50.628 35.9053 50.6666C35.2605 52.8537 37.8786 54.2431 39.6971 54.3332C40.9223 54.3975 42.1475 54.1145 43.3598 53.8829C46.2101 53.3425 49.2409 53.0467 51.5753 51.3227C51.7171 51.2198 51.8719 51.0911 51.8848 50.911C51.8848 50.911 51.8848 50.8981 51.8848 50.8853C51.601 50.6794 51.3431 50.4479 51.0981 50.2163C50.4532 49.8432 49.7826 49.4958 49.099 49.1999L49.0732 49.187Z" fill="#62838F"/>
    <path d="M51.3822 50.7567C53.3812 50.7567 51.9368 52.5192 50.9437 52.9824C49.1381 53.8315 47.2809 54.5906 45.4496 55.3882C42.5993 56.6362 39.633 57.9098 36.5119 57.8326C35.7252 57.8069 35.0287 56.3145 34.7321 55.6841C34.2807 54.7192 34.0099 53.6643 33.9583 52.6093C33.8809 51.1941 34.4097 49.9462 35.7639 49.3672C36.8988 48.8784 38.2659 49.3415 39.4137 49.5088C41.5933 49.8175 43.7085 50.4222 45.8752 50.7824C47.023 50.9754 48.1837 51.1041 49.3445 51.0783C49.7443 51.0783 50.6471 50.821 51.3564 50.7696L51.3822 50.7567Z" fill="white"/>
    <path d="M38.4852 49.6371C38.4852 49.6371 38.3692 49.6371 38.3305 49.6886C37.7501 50.5377 37.5309 51.5669 37.1826 52.5318C37.0924 52.7762 37.0021 53.0207 36.886 53.2523C36.7699 53.5096 36.6281 53.7669 36.5249 54.0242C36.3056 54.5259 36.2025 55.0791 36.1509 55.6195C36.0993 56.2499 36.1251 56.8803 36.1509 57.4978C36.1509 57.5879 36.4088 57.5879 36.3959 57.4978C36.3443 56.4043 36.2927 55.2721 36.6797 54.23C36.8731 53.7154 37.1568 53.2394 37.3503 52.7248C37.5309 52.2488 37.6727 51.7599 37.8404 51.271C38.021 50.7306 38.2402 50.2032 38.5626 49.7272C38.5884 49.6757 38.511 49.65 38.4723 49.6371H38.4852Z" fill="#62838F"/>
    <path d="M48.8286 52.519C48.8286 52.519 48.6996 52.4933 48.6481 52.519C47.1133 53.3553 45.5528 54.2044 43.8504 54.6804C43.3732 54.809 42.896 54.912 42.393 54.9763C42.3543 54.9763 42.2898 55.0149 42.3027 55.0663C42.3285 55.1178 42.4188 55.1178 42.4575 55.1178C44.2373 54.8862 45.901 54.1529 47.4744 53.3424C47.9258 53.1108 48.3772 52.8664 48.8157 52.6219C48.8673 52.5962 48.8544 52.5576 48.8157 52.519H48.8286Z" fill="#62838F"/>
    <path d="M55.6123 54.526C57.1471 58.2827 58.5529 62.1037 59.8039 65.9633C60.6809 68.6651 61.7255 71.1995 62.7831 73.8112C63.7762 76.2556 64.6016 78.8673 66.4072 80.8614C67.0262 81.5433 67.7485 82.1222 68.4191 82.7398C70.1602 84.3222 71.6692 86.1491 73.1652 87.9631C73.565 88.452 74.068 89.4297 73.1652 89.6098C72.572 89.7256 71.6434 89.3139 71.0243 89.2753C69.683 89.1724 68.3417 89.1724 67.0004 89.1338C66.0461 89.1081 65.1691 88.5935 64.2534 88.3362C61.7384 87.6414 59.4428 86.059 57.8048 84.0391C56.412 82.3281 55.1738 80.4755 54.1421 78.5199C53.6262 77.5422 53.1619 76.5386 52.7492 75.5094C52.3881 74.6088 52.2849 73.6954 51.9496 72.8077C50.2343 68.2405 48.4932 63.8534 48.4029 58.8874C48.3771 57.6266 48.4674 56.3272 48.9704 55.1693C49.4089 54.1787 50.1956 53.3167 51.2402 52.9308C51.6658 52.7764 52.143 52.5319 52.5557 52.4033C54.155 51.9273 55.0707 53.2138 55.5994 54.5003L55.6123 54.526Z" fill="#98BCB5"/>
    <path d="M41.5994 95.2425C41.7253 95.521 41.9552 95.7613 42.2071 95.9142C43.5702 96.7388 44.9005 94.7455 45.6067 93.8663C46.5045 92.7468 47.4023 91.6273 48.3001 90.5023C48.4534 90.3112 48.6176 90.1146 48.8421 90.0108C49.1049 89.8907 49.2855 89.9835 49.5538 90.06C50.1176 90.2184 50.6979 90.3057 51.2618 90.1146C51.4206 90.06 51.6012 89.9398 51.5684 89.776C51.0209 89.5903 50.4954 89.3282 49.937 89.1698C49.1487 88.9405 48.437 88.9623 47.7855 89.4702C47.0957 90.0054 46.406 90.5296 45.6833 91.0211C44.4461 91.8566 43.2746 92.7905 42.1633 93.7844C41.9279 93.9974 41.687 94.2213 41.572 94.5162C41.4735 94.7674 41.5008 95.0186 41.6049 95.2479L41.5994 95.2425Z" fill="#F79974"/>
    <path d="M45.8236 100.095C48.4159 100.005 51.0211 99.8896 53.6134 99.7095C56.8248 99.4907 60.0232 99.1691 63.2088 98.8475C64.6404 98.7059 66.0719 98.5644 67.5035 98.4229C69.4252 98.2299 71.3726 98.0369 73.1524 97.3294C74.2358 96.8919 75.2675 96.2487 76.0672 95.3867C76.4799 94.9364 76.6991 94.3575 77.0731 93.9072C77.8598 92.968 78.5176 92.2861 78.2339 90.9353C78.0146 89.906 77.2537 89.0183 76.3896 88.4909C75.0354 87.6675 73.4233 87.4359 71.8498 87.2301L61.9965 85.9049C60.0877 85.6476 58.166 85.3903 56.2315 85.4289C55.0708 85.4546 53.91 85.5833 52.7493 85.7505C48.9189 86.2909 45.14 87.1657 41.4644 88.3493C39.6459 88.9412 37.8661 89.6101 36.0992 90.3563C35.0158 90.8195 32.3719 91.5013 31.9721 92.7622C31.7916 93.3411 31.8948 93.9586 32.0495 94.5376C32.4235 95.9399 33.0684 97.265 33.9325 98.4358C34.4484 99.1434 35.0803 99.7995 35.9057 100.108C36.5764 100.353 37.2986 100.34 38.008 100.327C40.6003 100.263 43.2055 100.211 45.7978 100.121L45.8236 100.095Z" fill="#62838F"/>
    <path d="M57.3277 61.2805C57.1987 59.5565 57.031 57.8068 56.5023 56.1601C56.038 54.732 55.2512 53.3554 54.1163 52.3776C54.0905 52.3776 54.0647 52.3648 54.0518 52.3391C53.9744 52.2619 53.8842 52.1975 53.8068 52.1203C53.8068 52.1203 53.8068 52.1203 53.7939 52.1075C53.7294 52.056 53.6649 52.0045 53.5875 51.9531C53.033 51.5671 52.4268 51.2712 51.8851 50.8724C51.6014 50.6666 51.3434 50.435 51.0984 50.2034C50.4535 49.8303 49.7829 49.4829 49.0994 49.187C48.2224 48.8011 47.3196 48.4666 46.4039 48.2093C45.5011 47.952 44.5854 47.7461 43.6697 47.6432C43.2183 47.5917 42.7669 47.5531 42.3155 47.5403C42.0318 47.6303 41.7609 47.7204 41.4772 47.8233C39.4266 48.5438 37.5178 48.9555 35.9702 50.5508C35.9186 50.6022 35.8541 50.6666 35.8025 50.7309C34.3838 52.2876 33.4681 54.2303 32.7072 56.1987C30.6308 61.5764 30.3599 68.0219 30.1278 73.7727C29.8698 80.1025 30.1794 86.4451 30.7339 92.7491C30.7726 93.1608 30.8371 93.6239 31.1724 93.8684C31.3659 94.0099 31.6109 94.0485 31.856 94.0742C32.5137 94.1514 33.1844 94.19 33.8421 94.2157C35.8154 94.2672 37.7886 94.1128 39.749 93.9198C44.3145 93.4696 49.1638 92.7234 52.5945 89.6871C53.3038 89.0567 53.9357 88.3363 54.5677 87.6287C54.903 87.2427 55.2512 86.8568 55.4447 86.3936C55.9219 85.2872 55.535 84.0264 55.3286 82.8299C54.6064 78.8417 55.909 74.8791 56.786 71.0324C57.1213 69.54 57.5082 67.8933 57.5985 66.3751C57.6888 64.7155 57.4695 62.9658 57.3535 61.3191L57.3277 61.2805Z" fill="#98BCB5"/>
    <path d="M74.1538 123.871C74.1538 123.871 74.132 123.784 74.1227 123.746C73.9334 122.984 72.9986 123.121 72.3454 123.057C71.6766 122.982 71.0141 122.933 70.3452 122.912C69.8232 122.895 69.364 122.756 69.3003 123.408C69.1566 125.127 69.1379 126.869 68.9973 128.601C68.9333 129.465 68.813 130.317 68.6802 131.172C68.5822 131.793 68.7191 132.13 69.3942 132.176C70.1787 132.235 70.835 132.26 71.623 132.119C72.3202 131.987 73.3735 132.06 73.6625 131.246C73.8101 130.825 73.6672 130.356 73.6773 129.916C73.7003 129.314 73.7232 128.711 73.7587 128.106C73.839 126.879 73.9568 125.644 74.1028 124.414C74.125 124.237 74.1472 124.059 74.1318 123.89L74.1538 123.871Z" fill="#FCD9BA"/>
    <path d="M79.8778 134.174C79.8778 134.174 79.8465 134.2 79.8392 134.217L68.0931 133.988C68.0888 133.907 68.0725 133.83 68.0682 133.749C68.0548 133.574 68.0488 133.383 68.0642 133.211C68.097 132.52 68.2902 131.85 68.6625 131.248C68.7495 131.117 68.8485 130.982 69.0186 130.957C69.2008 130.927 69.3534 131.034 69.5133 131.123C70.0907 131.465 70.942 131.659 71.5875 131.434C72.0169 131.294 72.3825 131.027 72.6812 130.731C72.8089 130.598 72.9439 130.448 73.1144 130.354C73.297 130.255 73.5126 130.24 73.7111 130.287C74.2897 130.421 74.7969 130.901 75.3101 131.185C75.8948 131.51 76.5181 131.792 77.1512 132.029C77.6888 132.234 78.2362 132.394 78.7519 132.649C79.0622 132.805 79.5921 133.096 79.8558 133.45C80.0268 133.673 80.0732 133.932 79.8825 134.186L79.8778 134.174Z" fill="#98BCB5"/>
    <path d="M79.8782 134.173C79.8782 134.173 79.8469 134.199 79.8396 134.216L68.0919 133.987C68.0876 133.906 68.0713 133.829 68.067 133.748C68.0537 133.573 68.0476 133.382 68.063 133.21L79.8442 133.453C80.0153 133.677 80.0616 133.935 79.8709 134.19L79.8782 134.173Z" fill="white"/>
    <path d="M77.2551 132.43C77.208 132.31 77.0383 132.266 76.9094 132.219C76.2337 131.944 75.5965 131.626 74.9692 131.262C74.6234 131.052 74.2777 130.841 73.9511 130.609C73.8963 130.575 73.8222 130.562 73.7622 130.586C73.7262 130.6 73.659 130.64 73.7138 130.674C74.3454 131.119 74.9989 131.513 75.6861 131.854C76.0298 132.024 76.3687 132.182 76.7269 132.318C76.7937 132.348 76.9132 132.37 76.9655 132.433C77.0225 132.507 76.9621 132.6 76.9163 132.659C76.8439 132.757 76.4636 133.126 76.5609 133.268C76.6985 133.477 76.9593 133.085 76.9957 133.002C77.0368 132.93 77.0779 132.859 77.119 132.788C77.1914 132.69 77.307 132.562 77.2432 132.435L77.2551 132.43Z" fill="white"/>
    <path d="M70.3011 133.061C70.1596 132.315 69.7694 131.569 69.0543 131.157C68.9995 131.123 68.9181 131.127 68.8582 131.15C68.8103 131.169 68.8051 131.226 68.8552 131.248C69.5322 131.634 69.8844 132.353 70.0237 133.059C70.0494 133.159 70.3221 133.15 70.3011 133.061Z" fill="white"/>
    <path d="M74.9062 130.68C74.9062 130.68 74.832 130.667 74.8033 130.664C74.7793 130.674 74.7386 130.676 74.7193 130.697C74.5676 130.839 74.4158 130.982 74.2761 131.119C74.2375 131.162 74.2804 131.201 74.3139 131.215C74.3473 131.23 74.388 131.228 74.4167 131.23C74.4408 131.221 74.4768 131.207 74.5008 131.198C74.6525 131.055 74.8042 130.913 74.9439 130.775C74.9825 130.733 74.9396 130.694 74.9062 130.68Z" fill="#62838F"/>
    <path d="M75.5168 131.035C75.5168 131.035 75.3732 131.022 75.3299 131.053C75.1855 131.178 75.0578 131.311 74.9301 131.444C74.9061 131.453 74.9035 131.482 74.9082 131.494C74.9177 131.518 74.9511 131.533 74.9678 131.54C75.0013 131.554 75.042 131.552 75.0707 131.555C75.0947 131.546 75.1354 131.544 75.1547 131.522C75.2777 131.377 75.4101 131.256 75.5546 131.131C75.5931 131.088 75.5503 131.05 75.5168 131.035Z" fill="#62838F"/>
    <path d="M76.2473 131.413C76.2473 131.413 76.2044 131.374 76.1877 131.367C76.1543 131.352 76.1135 131.354 76.0848 131.352C76.0608 131.361 76.0201 131.363 76.0008 131.384C75.8971 131.508 75.7934 131.631 75.6777 131.76C75.6537 131.769 75.6511 131.798 75.6559 131.81C75.6653 131.834 75.6987 131.848 75.7155 131.856C75.7489 131.87 75.7896 131.868 75.8183 131.871C75.8423 131.861 75.8831 131.859 75.9023 131.838C76.006 131.714 76.1097 131.591 76.2254 131.463C76.2494 131.453 76.252 131.425 76.2473 131.413Z" fill="#62838F"/>
    <path d="M76.9545 131.661C76.9545 131.661 76.8109 131.648 76.7676 131.679C76.6111 131.809 76.4762 131.959 76.3626 132.128C76.3506 132.132 76.3648 132.168 76.3815 132.176C76.3909 132.2 76.4364 132.21 76.4651 132.212C76.5225 132.217 76.604 132.213 76.6425 132.171C76.6691 132.133 76.6957 132.094 76.7222 132.056C76.7462 132.047 76.7488 132.018 76.7681 131.997C76.7681 131.997 76.7921 131.988 76.7874 131.976C76.8572 131.907 76.9271 131.838 77.0016 131.781C77.0449 131.751 76.9973 131.7 76.9639 131.685L76.9545 131.661Z" fill="#62838F"/>
    <path d="M74.1788 128.829C74.8974 128.943 76.5059 129.383 77.1784 129.098C77.6819 128.881 77.5896 128.135 77.6751 127.57C77.9315 125.877 77.5378 124.184 77.6724 122.48C77.7623 121.239 78.1552 120.042 78.3294 118.819C78.8011 115.694 77.9978 112.511 78.1008 109.344C78.1502 108.046 78.4119 106.801 78.5707 105.516C78.7199 104.299 78.6349 102.995 78.6341 101.762C78.6578 99.1844 78.6534 96.6004 78.5053 94.0253C78.3905 91.959 78.2766 89.4152 75.9342 88.7455C75.1471 88.515 74.2999 88.6838 73.4964 88.8683C72.5897 89.0649 71.6831 89.2615 70.8324 89.63C69.0371 90.4165 68.1374 91.8709 67.9744 93.7802C67.8207 95.674 67.9108 97.5873 67.9977 99.4881C68.3128 106.264 68.6624 112.966 68.29 119.752C68.1639 121.917 68.0004 124.092 68.1931 126.259C68.2696 127.101 68.4627 127.452 69.2217 127.623C70.0526 127.816 70.8927 128.1 71.7298 128.318C72.5263 128.533 73.351 128.701 74.1663 128.832L74.1788 128.829Z" fill="#62838F"/>
    <path d="M48.2747 44.4241C48.2747 44.4241 48.2788 44.4363 48.2829 44.4485C48.2829 44.4485 48.287 44.4607 48.2911 44.4729C48.3778 45.2177 48.277 45.9705 48.3107 46.7193C48.3149 46.7722 48.3191 46.8251 48.3232 46.878C48.348 47.114 48.381 47.3745 48.414 47.635C48.4841 48.1274 48.5215 48.6442 48.3999 49.0918C48.3066 49.4214 48.1033 49.7063 47.8999 49.9911C47.5135 50.5404 47.1556 51.0938 46.7814 51.6391C46.5659 51.9687 46.3139 52.4326 45.8696 52.4447C45.6414 52.4528 45.4293 52.3877 45.2173 52.3225C44.2752 52.0253 43.3291 51.7159 42.4196 51.3129C41.7833 51.036 41.1797 50.8162 40.8815 50.3726C40.7181 50.1284 40.6442 49.8272 40.7047 49.3999C40.9263 47.6704 41.1398 45.9572 41.3614 44.2277C41.4501 43.5603 41.3998 42.6406 41.7005 42.0384C41.9199 41.5989 42.4696 41.1717 42.84 40.8584C43.4425 40.3458 44.0052 40.4435 44.6985 40.6878C46.0402 41.1641 47.4314 42.0311 48.0245 43.3538C48.0326 43.3782 48.0408 43.4026 48.049 43.427C48.184 43.7486 48.266 44.0741 48.2991 44.416L48.2747 44.4241Z" fill="#FCD9BA"/>
    <path d="M48.2778 44.4221C48.2778 44.4221 48.2819 44.4343 48.286 44.4465C48.286 44.4465 48.2901 44.4587 48.2942 44.4709C48.3809 45.2157 48.2801 45.9685 48.3139 46.7173C48.1997 46.701 48.0651 46.6644 47.9347 46.64C47.0416 46.4079 45.4184 45.7809 45.7712 44.5641C46.0388 43.6607 47.2044 43.49 48.0031 43.3599C48.0113 43.3843 48.0195 43.4087 48.0277 43.4331C48.1627 43.7547 48.2447 44.0802 48.2778 44.4221Z" fill="#C1AC76"/>
    <path d="M48.1897 33.8567C48.1897 33.8567 48.2265 33.8852 48.2469 33.9055C48.3898 34.0479 48.4757 34.3043 48.586 34.4711C48.7371 34.6787 48.8679 34.9066 48.9619 35.1467C49.146 35.5739 49.0202 36.0908 49.2042 36.5181C49.2819 36.7093 49.4615 36.8395 49.6166 36.9779C49.7962 37.1488 49.984 37.3034 50.1839 37.454C50.5757 37.7714 50.996 38.0521 51.4367 38.3125C51.7386 38.4834 52.0854 38.6665 52.2 39.0083C52.3801 39.5455 51.8954 39.924 51.5533 40.2415C51.1827 40.5955 51.3344 41.21 51.4327 41.6251C51.5843 42.1989 51.8296 42.7279 51.9567 43.3098C52.1167 44.0301 52.0604 44.7138 51.3474 45.1005C50.3451 45.6377 49.1793 45.8494 48.054 45.7763C47.1692 45.7316 46.3045 45.5038 45.4887 45.1783C44.783 44.8975 43.8818 44.804 43.3022 44.2913C42.7022 43.7582 42.0911 44.1245 41.353 44.031C40.5742 43.9375 39.8192 43.3882 39.2926 42.8714C38.6926 42.2976 38.2147 41.6018 37.7408 40.9181C37.2711 40.2467 36.8014 39.5346 36.6536 38.7288C36.473 37.7847 36.7775 36.7876 37.2983 35.9493C37.8232 35.1231 38.544 34.4353 39.277 33.7841C40.0753 33.0841 40.8287 32.4533 41.8517 32.0992C42.573 31.859 43.3027 31.7653 44.0527 31.6513C44.7539 31.5536 45.4473 31.7977 46.0593 32.1232C46.8834 32.5545 47.5488 33.2015 48.1938 33.8689L48.1897 33.8567Z" fill="#FCD9BA"/>
    <path d="M39.6381 45.1194C40.1564 45.4897 40.7153 45.8192 41.3759 45.8436C41.857 45.8598 42.1705 45.579 42.4187 45.1843C42.671 44.8017 42.8703 44.3825 43.0247 43.9512C43.2197 43.3977 43.329 42.8321 43.5118 42.2827C43.6743 41.7943 44.1223 41.4687 44.3786 41.017C45.2736 39.4705 43.8446 37.8836 44.0953 36.2395C44.1963 35.5274 44.6032 34.8762 45.1775 34.4407C45.6989 34.05 46.3632 33.8424 46.7662 33.3419C47.6251 32.2959 47.5861 30.4769 46.0487 30.1881C45.539 30.0864 45.0089 30.0865 44.4953 30.176C44.0592 30.2534 43.6191 30.3999 43.1747 30.4122C42.4816 30.4122 41.8125 30.0786 41.1318 30.156C40.7527 30.2008 40.4022 30.3717 40.0641 30.5386C39.5059 30.8194 38.9354 31.1043 38.5365 31.5764C38.2434 31.9182 38.0563 32.3333 37.7959 32.6915C37.1813 33.5339 36.1098 34.1078 35.9113 35.1374C35.7492 35.9513 36.2069 36.7488 36.371 37.5627C36.5638 38.5027 36.3571 39.4672 36.2971 40.4235C36.2494 41.3758 36.4139 42.4338 37.1404 43.0605C37.5363 43.39 38.0542 43.5568 38.4542 43.8986C38.9032 44.2649 39.1811 44.8101 39.6585 45.1397L39.6381 45.1194Z" fill="#553A12"/>
    <path d="M48.6757 35.7842C48.6757 35.7842 48.6104 35.7109 48.5777 35.6947C48.2879 35.4789 47.8519 35.7598 47.6034 35.9105C47.2733 36.1018 47.0127 36.4193 46.8051 36.7328C46.5935 37.034 46.4064 37.4085 46.4965 37.7586C46.5047 37.783 46.5088 37.7952 46.517 37.8196C46.619 37.8807 46.9243 37.4126 46.9813 37.3393C47.0586 37.2457 47.1523 37.1602 47.246 37.0747C47.5922 36.7694 47.9671 36.5088 48.391 36.3541C48.4888 36.3215 48.5866 36.289 48.6599 36.2238C48.7821 36.1017 48.7615 35.9185 48.6798 35.7964L48.6757 35.7842Z" fill="#553A12"/>
    <path d="M46.0001 41.031C46.0001 41.031 45.9919 41.0066 45.9878 40.9944C45.6522 39.9527 43.9422 38.5815 42.9816 39.7291C42.6396 40.1279 42.5792 40.718 42.7592 41.2144C43.0825 42.1788 44.5597 43.3018 45.6109 42.789C46.2547 42.4797 46.1802 41.6089 46.0001 41.031V41.031Z" fill="#FCD9BA"/>
    <path d="M48.2583 38.0665C48.2174 37.9444 48.1765 37.8223 48.2253 37.7247C48.2578 37.6596 48.3067 37.6026 48.3759 37.566C48.5551 37.452 48.7346 37.5009 48.853 37.6514C48.9224 37.7368 48.9755 37.8548 49.0001 37.9687C49.037 38.0786 49.0534 38.2088 49.0536 38.3309C49.0496 38.4001 49.0293 38.4611 48.9927 38.514C48.8014 38.7541 48.5893 38.6483 48.4627 38.4734C48.4055 38.3838 48.3156 38.2374 48.2502 38.0828L48.2583 38.0665Z" fill="#553A12"/>
    <path d="M44.4344 33.3054C44.8377 33.0897 45.2735 32.8497 45.5134 32.4305C45.7452 32.0276 45.6671 31.592 45.536 31.1606C45.5032 31.0629 45.7273 30.9611 45.756 31.0466C45.8338 31.2786 45.8871 31.5188 45.8875 31.763C45.8879 32.0072 45.8271 32.2311 45.705 32.4346C45.4367 32.8904 44.9479 33.1752 44.4875 33.4235C44.4509 33.4357 44.3653 33.4641 44.3489 33.4153C44.3325 33.3664 44.3977 33.3176 44.4303 33.2932L44.4344 33.3054Z" fill="#725223"/>
    <path d="M42.0923 32.6482C42.0923 32.6482 42.1697 32.5546 42.2063 32.5424C42.4631 32.4569 42.7198 32.3308 42.8744 32.1028C43.0005 31.9115 43.0653 31.6591 42.9794 31.4434C42.9507 31.3579 43.1585 31.248 43.1994 31.3294C43.3017 31.594 43.2288 31.9034 43.0701 32.1192C42.8667 32.4041 42.5407 32.5669 42.2147 32.6889C42.178 32.7011 42.1128 32.7093 42.0964 32.6604L42.0923 32.6482Z" fill="#725223"/>
    <path d="M36.9664 40.5273C36.9622 40.4338 37.178 40.3484 37.1985 40.4501C37.265 41.2963 37.7917 42.0572 38.542 42.4317C38.5909 42.4561 38.534 42.5293 38.4973 42.5415C38.4526 42.57 38.3915 42.5903 38.3425 42.5659C37.5719 42.1711 37.0329 41.3736 36.9623 40.5151L36.9664 40.5273Z" fill="#725223"/>
    <path d="M39.0011 40.0256C39.0132 39.9401 39.229 39.8547 39.2333 39.9483C39.1894 40.6278 39.8991 40.9616 40.4251 41.1529C40.5353 41.1977 40.3521 41.3401 40.2746 41.3116C39.9647 41.1976 39.6343 41.0633 39.3813 40.8354C39.1487 40.6278 38.9811 40.3308 39.0133 40.0215L39.0011 40.0256Z" fill="#725223"/>
    <path d="M50.4431 42.3171C49.9784 42.5125 49.4155 42.3742 49.0684 42.0282C49.0072 41.9671 48.783 42.0689 48.8484 42.1422C49.2608 42.5614 49.9379 42.6753 50.4881 42.4514C50.5248 42.4392 50.6104 42.4107 50.5899 42.3496C50.5735 42.3008 50.4797 42.3049 50.4472 42.3293L50.4431 42.3171Z" fill="#C1AC76"/>
    <path d="M54.7268 80.2316C54.1593 79.1123 53.6305 77.9673 53.1404 76.8222C52.6503 75.6644 52.199 74.4936 51.7733 73.31C51.3477 72.1264 50.9608 70.9299 50.5739 69.7334C50.1999 68.537 49.8388 67.3276 49.5035 66.1183C49.1552 64.9089 48.8328 63.6996 48.4975 62.4774C48.4588 62.323 48.4201 62.1686 48.3685 62.0142C48.3427 61.937 48.0977 61.9499 48.1235 62.0528C48.4459 63.2622 48.7812 64.4844 49.1166 65.6937C49.4519 66.9031 49.813 68.1124 50.1741 69.3218C50.5481 70.5182 50.935 71.7147 51.3477 72.9112C51.7605 74.0948 52.2118 75.2655 52.689 76.4234C53.1662 77.5813 53.6821 78.7263 54.2496 79.8456C54.3141 79.9871 54.3915 80.1286 54.4688 80.2702C54.5075 80.3473 54.7526 80.3216 54.7139 80.2316H54.7268Z" fill="#62838F"/>
    <path d="M52.792 85.7382C51.5797 86.5745 50.3158 87.3207 49.0003 87.9768C47.6848 88.6329 46.3177 89.199 44.9248 89.675C43.5319 90.1382 42.1132 90.5113 40.6688 90.7943C39.2243 91.0645 37.754 91.2446 36.2838 91.3218C34.8135 91.399 33.3432 91.3732 31.873 91.2317C31.6924 91.2189 31.5119 91.1931 31.3313 91.1803C31.2926 91.1803 31.2023 91.1803 31.1765 91.2317C31.1507 91.2832 31.2281 91.3089 31.2668 91.3218C32.75 91.489 34.2331 91.5405 35.7292 91.489C37.2124 91.4376 38.6955 91.2961 40.1658 91.0388C41.6361 90.7814 43.0805 90.4341 44.4992 89.9838C45.9179 89.5335 47.2979 88.9932 48.6392 88.3499C49.9804 87.7066 51.283 86.9733 52.5212 86.1499C52.6759 86.047 52.8307 85.9441 52.9726 85.8411C53.0886 85.764 52.8694 85.6996 52.792 85.7382V85.7382Z" fill="#62838F"/>
    <path d="M55.2683 56.2509C55.2683 56.2509 55.1522 56.2123 55.1006 56.2252C53.8625 56.5211 52.8823 57.4345 52.0956 58.3994C51.2573 59.4544 50.5351 60.6251 50.0837 61.8988C49.8386 62.6192 49.671 63.3526 49.6194 64.1116C49.6194 64.2017 49.8644 64.2017 49.8644 64.1116C49.9547 62.7736 50.4061 61.5 51.051 60.3292C51.3734 59.7503 51.7474 59.1842 52.1472 58.6567C52.5212 58.1678 52.9468 57.6918 53.424 57.293C53.9528 56.8556 54.5461 56.4953 55.2167 56.341C55.2554 56.341 55.2941 56.2895 55.2554 56.2509H55.2683Z" fill="#62838F"/>
    <path d="M48.8315 49.0409C47.9545 48.655 47.0517 48.3205 46.136 48.0632C45.2332 47.8059 44.3176 47.6 43.4019 47.4971C42.9505 47.4456 42.4991 47.407 42.0477 47.3942C41.7639 47.4842 41.4931 47.5743 41.2094 47.6772C39.1587 48.3977 37.25 48.8093 35.7023 50.4047C35.7023 50.4432 35.6765 50.4818 35.6636 50.5204C35.0188 52.7075 37.6369 54.097 39.4554 54.1871C40.6806 54.2514 41.9058 53.9683 43.1181 53.7368C45.9684 53.1964 48.9992 52.9005 51.3336 51.1766C51.4754 51.0737 51.6302 50.945 51.6431 50.7649C51.6431 50.7649 51.6431 50.752 51.6431 50.7391C51.3593 50.5333 51.1014 50.3017 50.8564 50.0702C50.2115 49.6971 49.5409 49.3497 48.8573 49.0538L48.8315 49.0409Z" fill="#62838F"/>
    <path d="M51.141 50.6103C53.14 50.6103 51.6956 52.3729 50.7025 52.836C48.8969 53.6852 47.0397 54.4442 45.2083 55.2419C42.3581 56.4898 39.3918 57.7635 36.2707 57.6863C35.484 57.6605 34.7875 56.1682 34.4909 55.5378C34.0395 54.5729 33.7687 53.5179 33.7171 52.463C33.6397 51.0478 34.1685 49.7998 35.5227 49.2209C36.6576 48.732 38.0247 49.1952 39.1725 49.3624C41.3521 49.6712 43.4672 50.2758 45.6339 50.6361C46.7818 50.8291 47.9425 50.9577 49.1033 50.932C49.5031 50.932 50.4059 50.6747 51.1152 50.6232L51.141 50.6103Z" fill="white"/>
    <path d="M38.2438 49.491C38.2438 49.491 38.1277 49.491 38.089 49.5424C37.5087 50.3916 37.2894 51.4208 36.9412 52.3857C36.8509 52.6301 36.7606 52.8746 36.6446 53.1061C36.5285 53.3635 36.3866 53.6207 36.2834 53.8781C36.0642 54.3798 35.961 54.933 35.9094 55.4734C35.8578 56.1038 35.8836 56.7342 35.9094 57.3517C35.9094 57.4418 36.1674 57.4418 36.1545 57.3517C36.1029 56.2581 36.0513 55.126 36.4382 54.0839C36.6317 53.5693 36.9154 53.0933 37.1088 52.5787C37.2894 52.1026 37.4313 51.6138 37.5989 51.1249C37.7795 50.5845 37.9987 50.0571 38.3212 49.581C38.347 49.5296 38.2696 49.5038 38.2309 49.491H38.2438Z" fill="#62838F"/>
    <path d="M48.5872 52.3729C48.5872 52.3729 48.4582 52.3472 48.4066 52.3729C46.8718 53.2091 45.3113 54.0583 43.6089 54.5343C43.1317 54.6629 42.6545 54.7658 42.1515 54.8302C42.1128 54.8302 42.0484 54.8688 42.0612 54.9202C42.087 54.9717 42.1773 54.9717 42.216 54.9717C43.9958 54.7401 45.6595 54.0068 47.233 53.1963C47.6844 52.9647 48.1358 52.7203 48.5743 52.4758C48.6258 52.4501 48.613 52.4115 48.5743 52.3729H48.5872Z" fill="#62838F"/>
    <path d="M100.043 36.3279C100.14 34.0426 100.25 31.7679 100.396 29.4889C100.535 27.2476 100.502 21.9088 103.41 21.2119C104.16 21.0257 105.005 21.2197 105.602 21.7117C106.513 22.4604 106.775 23.7377 106.877 24.9115C107.021 26.5328 106.981 28.1635 106.93 29.7955C106.808 33.8321 106.626 37.8758 106.407 41.9116C106.301 43.8069 106.183 45.7035 105.764 47.5499C105.716 47.7635 105.657 47.9905 105.505 48.1551C105.321 48.3601 105.022 48.4198 104.747 48.4767C103.909 48.6487 103.07 48.8086 102.218 48.86C101.657 48.8893 100.833 49.0719 100.312 48.8154C99.6364 48.4915 99.803 47.7261 99.8118 47.0771C99.8231 45.1075 99.8451 43.1243 99.8927 41.1504C99.9335 39.5318 99.9878 37.9238 100.053 36.3024L100.043 36.3279Z" fill="#FCD9BA"/>
    <path d="M104.53 45.2604C103.929 44.9521 103.194 44.8552 102.541 44.9321C99.9689 45.2594 99.4658 48.7663 99.2197 50.8248C98.5864 56.2298 98.2896 61.6809 98.0518 67.1127C98.0118 67.9121 98.1292 68.9008 99.0938 68.9706C99.7866 69.0235 100.606 68.6948 100.778 67.9776C101.582 64.7288 102.28 61.4189 103.285 58.2196C104.271 55.0594 105.014 51.8176 105.57 48.549C105.683 47.851 105.794 47.1289 105.579 46.4573C105.401 45.8913 104.998 45.4865 104.513 45.2256L104.53 45.2604Z" fill="#FCD9BA"/>
    <path d="M101.822 71.338C101.769 71.1975 101.692 71.072 101.627 70.933C101.434 70.5522 101.298 70.1281 101.235 69.6954C101.216 69.5387 101.237 69.4018 101.23 69.2436C101.204 69.0266 101.153 68.8003 101.104 68.5982C100.979 68.1606 100.777 67.8053 100.491 67.46C100.248 67.1707 99.788 67.1149 99.4224 67.1335C98.5219 67.1906 98.0365 67.749 97.8506 68.4555C97.2342 70.8021 97.8906 73.4391 99.1746 75.4764C99.2344 75.5671 99.3078 75.6685 99.433 75.6905C99.5703 75.711 99.7054 75.6095 99.7515 75.4818C99.7991 75.3662 99.7712 75.235 99.7448 75.1158C99.7948 75.33 99.9507 75.5073 100.183 75.6022C100.532 75.7567 100.566 75.4226 100.501 75.1857C100.376 74.6503 100.266 74.1375 100.131 73.6155C99.9951 73.0935 99.9008 72.5055 99.8712 71.9466C99.8496 71.5579 99.828 71.1692 99.8789 70.772C99.9087 70.6096 99.8985 70.3173 100.145 70.325C100.268 70.3349 100.377 70.42 100.462 70.52C100.588 70.6518 100.693 70.8107 100.773 70.9724C100.869 71.1567 100.941 71.356 101.047 71.5269C101.154 71.6978 101.308 71.863 101.51 71.9126C101.89 72.0146 101.933 71.655 101.838 71.3727C101.835 71.3486 101.833 71.3245 101.819 71.3138L101.822 71.338Z" fill="#FCD9BA"/>
    <path d="M100.409 24.2304C99.4894 26.2948 99.1662 28.8393 98.8262 30.7255C98.129 34.561 97.8196 38.4609 97.5088 42.3488C97.9662 42.3805 98.6536 42.593 99.0889 42.5418C99.9875 42.7783 101.026 42.6439 101.956 42.73C103.764 42.8839 105.575 42.952 107.384 42.9101C107.228 39.9453 107.472 36.9334 107.511 33.9579C107.552 30.8965 107.545 27.8408 107.488 24.7787C107.478 24.0829 107.454 23.3643 107.241 22.7048C107.028 22.0452 106.597 21.4112 105.962 21.1192C105.12 20.7415 103.554 20.8769 102.742 21.3638C101.689 22.0012 100.953 23.0293 100.421 24.229L100.409 24.2304Z" fill="#FFFDF8"/>
    <path d="M100.992 117.388C100.992 117.388 101.009 117.289 101.025 117.237C101.249 116.353 102.155 116.56 102.768 116.522C103.411 116.475 104.063 116.457 104.704 116.458C105.203 116.454 105.667 116.334 105.689 117.098C105.74 119.128 105.682 121.158 105.733 123.188C105.751 124.205 105.827 125.206 105.907 126.22C105.964 126.943 105.813 127.333 105.176 127.347C104.416 127.365 103.775 127.364 103.022 127.144C102.354 126.946 101.332 126.978 101.089 125.995C100.959 125.499 101.129 124.961 101.146 124.437C101.156 123.727 101.165 123.016 101.146 122.314C101.127 120.872 101.076 119.424 100.981 117.989C100.969 117.788 100.952 117.573 100.987 117.374L100.992 117.388Z" fill="#FCD9BA"/>
    <path d="M95.5617 131.122C95.5617 131.122 95.599 131.143 95.6177 131.153L107.991 127.828C107.965 127.741 107.968 127.646 107.939 127.545C107.893 127.338 107.848 127.131 107.788 126.928C107.562 126.16 107.163 125.443 106.584 124.857C106.455 124.738 106.307 124.608 106.122 124.615C105.922 124.627 105.783 124.793 105.65 124.926C105.134 125.455 104.297 125.905 103.54 125.828C103.042 125.785 102.574 125.576 102.165 125.302C101.989 125.181 101.812 125.059 101.605 124.994C101.38 124.918 101.16 124.967 100.942 125.078C100.361 125.39 99.9639 126.057 99.5066 126.521C98.9714 127.04 98.409 127.519 97.8008 127.949C97.2992 128.316 96.756 128.648 96.2859 129.069C95.9874 129.33 95.5157 129.798 95.343 130.274C95.2284 130.575 95.2562 130.881 95.5287 131.116L95.5617 131.122Z" fill="#62838F"/>
    <path d="M95.5608 131.122C95.5608 131.122 95.5981 131.143 95.6168 131.153L107.991 127.827C107.965 127.74 107.968 127.645 107.938 127.544C107.893 127.337 107.848 127.13 107.788 126.927L95.3709 130.265C95.2563 130.566 95.2841 130.873 95.5566 131.108L95.5608 131.122Z" fill="#4A565D"/>
    <path d="M97.8262 128.461C97.8454 128.314 98.0197 128.215 98.1322 128.12C98.7707 127.634 99.3634 127.098 99.9145 126.528C100.225 126.201 100.516 125.864 100.803 125.512C100.848 125.452 100.92 125.431 100.996 125.424C101.04 125.412 101.118 125.467 101.069 125.513C100.53 126.175 99.9481 126.801 99.3208 127.378C99.0122 127.657 98.6849 127.926 98.3534 128.181C98.29 128.231 98.1647 128.283 98.1429 128.368C98.0922 128.462 98.1983 128.556 98.2628 128.616C98.3689 128.711 98.8711 129.036 98.8131 129.21C98.723 129.488 98.3461 129.111 98.273 129.022C98.2187 128.944 98.1499 128.87 98.071 128.814C97.9649 128.719 97.8215 128.604 97.8364 128.442L97.8262 128.461Z" fill="#4A565D"/>
    <path d="M105.384 127.364C105.324 126.469 105.517 125.532 106.151 124.874C106.2 124.828 106.287 124.803 106.353 124.815C106.419 124.827 106.436 124.885 106.387 124.931C105.787 125.547 105.619 126.461 105.676 127.294C105.682 127.418 105.385 127.473 105.389 127.378L105.384 127.364Z" fill="#4A565D"/>
    <path d="M99.8139 125.866C99.8139 125.866 99.8858 125.845 99.929 125.832C99.9578 125.824 100.005 125.825 100.028 125.85C100.219 125.967 100.429 126.095 100.619 126.212C100.675 126.243 100.645 126.299 100.592 126.33C100.563 126.339 100.52 126.351 100.477 126.364C100.448 126.372 100.415 126.366 100.377 126.346C100.187 126.229 99.977 126.101 99.7862 125.984C99.7302 125.953 99.7606 125.897 99.8139 125.866Z" fill="white"/>
    <path d="M99.2769 126.432C99.2769 126.432 99.4165 126.375 99.4869 126.402C99.6735 126.504 99.85 126.626 100.026 126.747C100.045 126.757 100.068 126.782 100.043 126.805C100.052 126.834 100.013 126.861 99.9843 126.87C99.9555 126.878 99.9124 126.891 99.8692 126.903C99.8404 126.912 99.7972 126.924 99.77 126.885C99.5936 126.764 99.4171 126.642 99.2305 126.54C99.1745 126.509 99.2049 126.453 99.2582 126.421L99.2769 126.432Z" fill="white"/>
    <path d="M98.6102 127.036C98.6102 127.036 98.6406 126.979 98.6694 126.971C98.6982 126.963 98.7413 126.95 98.7845 126.937C98.8133 126.929 98.8565 126.916 98.8837 126.955C99.0271 127.071 99.1849 127.182 99.3283 127.297C99.3326 127.312 99.3699 127.332 99.3454 127.355C99.3539 127.384 99.315 127.411 99.2862 127.42C99.2574 127.428 99.2142 127.441 99.1711 127.453C99.1423 127.462 99.0991 127.474 99.0719 127.435C98.9285 127.32 98.7707 127.209 98.6273 127.093C98.6086 127.083 98.5857 127.058 98.6102 127.036Z" fill="white"/>
    <path d="M97.9386 127.516C97.9386 127.516 98.0826 127.474 98.1487 127.486C98.3539 127.599 98.549 127.731 98.7052 127.889C98.7095 127.904 98.718 127.933 98.7079 127.952C98.6978 127.97 98.6589 127.997 98.6301 128.006C98.5725 128.023 98.4862 128.048 98.4403 127.999C98.3987 127.963 98.3571 127.928 98.3156 127.893C98.2969 127.883 98.274 127.858 98.2553 127.848C98.2553 127.848 98.2367 127.838 98.218 127.828C98.1205 127.762 98.0416 127.706 97.9339 127.659C97.8779 127.628 97.9083 127.572 97.9616 127.541L97.9386 127.516Z" fill="white"/>
    <path d="M126.811 104.806C126.811 104.806 126.742 104.732 126.705 104.711C126.086 104.043 126.754 103.391 127.062 102.845C127.38 102.28 127.716 101.725 128.057 101.185C128.338 100.756 128.471 100.308 129.123 100.715C130.845 101.784 132.502 102.951 134.224 104.02C135.085 104.554 135.966 105.051 136.843 105.534C137.477 105.883 137.732 106.217 137.395 106.772C137.008 107.42 136.652 107.965 136.07 108.482C135.546 108.934 135.023 109.811 134.065 109.478C133.577 109.306 133.23 108.873 132.799 108.574C132.213 108.179 131.628 107.784 131.028 107.394C129.814 106.617 128.576 105.862 127.332 105.141C127.145 105.038 126.973 104.932 126.811 104.806V104.806Z" fill="#FCD9BA"/>
    <path d="M135.322 116.925C135.322 116.925 135.365 116.912 135.379 116.908L139.303 104.654C139.303 104.654 139.139 104.576 139.05 104.539C138.854 104.455 138.661 104.386 138.454 104.32C137.683 104.09 136.868 104.03 136.074 104.2C135.901 104.25 135.714 104.305 135.615 104.444C135.524 104.612 135.573 104.834 135.629 105.022C135.795 105.744 135.701 106.7 135.235 107.292C134.927 107.681 134.509 107.961 134.066 108.154C133.873 108.242 133.661 108.319 133.5 108.461C133.324 108.607 133.231 108.823 133.209 109.065C133.154 109.726 133.501 110.427 133.627 111.067C133.778 111.793 133.872 112.536 133.904 113.282C133.935 113.918 133.933 114.547 134.022 115.166C134.075 115.56 134.22 116.21 134.51 116.612C134.696 116.872 134.962 117.03 135.322 116.925V116.925Z" fill="#62838F"/>
    <path d="M135.322 116.925C135.322 116.925 135.365 116.912 135.379 116.908L139.303 104.654C139.303 104.654 139.139 104.576 139.05 104.539C138.854 104.455 138.661 104.385 138.454 104.32L134.525 116.608C134.711 116.868 134.976 117.026 135.336 116.921L135.322 116.925Z" fill="#4A565D"/>
    <path d="M134.327 113.552C134.202 113.447 134.223 113.252 134.199 113.117C134.135 112.318 134.01 111.521 133.827 110.741C133.728 110.298 133.6 109.864 133.457 109.434C133.436 109.361 133.444 109.281 133.493 109.235C133.513 109.197 133.591 109.143 133.612 109.216C133.884 110.032 134.084 110.87 134.222 111.711C134.284 112.133 134.341 112.541 134.37 112.957C134.377 113.034 134.354 113.166 134.408 113.245C134.467 113.338 134.596 113.3 134.672 113.293C134.802 113.255 135.356 113.014 135.461 113.157C135.638 113.388 135.122 113.492 135.017 113.507C134.926 113.518 134.821 113.533 134.735 113.558C134.605 113.596 134.418 113.651 134.298 113.56L134.327 113.552Z" fill="#4A565D"/>
    <path d="M137.515 106.594C136.746 106.158 136.061 105.478 135.854 104.564C135.837 104.506 135.869 104.402 135.918 104.356C135.967 104.31 136.019 104.327 136.022 104.389C136.212 105.245 136.884 105.882 137.597 106.287C137.695 106.353 137.59 106.635 137.511 106.579L137.515 106.594Z" fill="#4A565D"/>
    <path d="M133.242 110.456C133.242 110.456 133.25 110.375 133.27 110.338C133.28 110.319 133.3 110.282 133.325 110.259C133.528 110.152 133.75 110.056 133.953 109.949C134.01 109.932 134.042 109.986 134.04 110.033C134.049 110.062 134.033 110.114 134.013 110.152C134.007 110.185 133.982 110.208 133.958 110.231C133.755 110.337 133.533 110.434 133.33 110.54C133.272 110.557 133.241 110.504 133.242 110.456Z" fill="white"/>
    <path d="M133.421 111.222C133.421 111.222 133.455 111.07 133.508 111.039C133.697 110.937 133.89 110.849 134.087 110.775C134.116 110.767 134.13 110.762 134.153 110.787C134.162 110.816 134.17 110.845 134.179 110.874C134.187 110.903 134.171 110.955 134.151 110.992C134.141 111.011 134.121 111.048 134.096 111.071C133.899 111.145 133.706 111.233 133.517 111.335C133.46 111.352 133.428 111.298 133.43 111.251L133.421 111.222Z" fill="white"/>
    <path d="M133.576 112.119C133.576 112.119 133.559 112.062 133.55 112.033C133.542 112.004 133.558 111.952 133.578 111.914C133.588 111.896 133.608 111.858 133.633 111.835C133.806 111.785 133.984 111.701 134.157 111.65C134.186 111.642 134.2 111.638 134.223 111.663C134.232 111.691 134.24 111.72 134.249 111.749C134.257 111.778 134.241 111.83 134.221 111.868C134.211 111.886 134.191 111.924 134.166 111.947C133.993 111.997 133.815 112.081 133.642 112.132C133.613 112.14 133.599 112.144 133.576 112.119Z" fill="white"/>
    <path d="M133.6 112.947C133.6 112.947 133.634 112.795 133.687 112.764C133.886 112.643 134.098 112.565 134.332 112.512C134.361 112.504 134.384 112.528 134.388 112.543C134.397 112.572 134.41 112.615 134.399 112.634C134.388 112.7 134.347 112.775 134.29 112.792C134.232 112.809 134.189 112.822 134.131 112.838C134.103 112.847 134.074 112.855 134.059 112.859L134.045 112.864C134.045 112.864 134.016 112.872 134.002 112.876C133.901 112.906 133.809 112.964 133.702 113.027C133.649 113.058 133.613 112.99 133.615 112.942L133.6 112.947Z" fill="white"/>
    <path d="M95.4503 82.2082C95.1006 83.7259 94.8788 85.2534 94.6655 86.8097C94.5213 87.8584 93.96 89.0292 94.818 89.9259C95.2721 90.4062 95.9051 90.6454 96.5397 90.837C98.2453 91.3754 100.064 91.6607 101.824 91.4285C103.598 91.192 105.328 90.4338 106.53 89.1067C108.063 87.4155 108.584 85.0458 109.461 82.9332C110.009 81.6092 110.72 80.3631 111.431 79.1171C112.687 76.9095 113.943 74.7019 115.333 72.5806C115.993 71.5853 116.894 70.6138 117.419 69.5323C117.884 68.5628 118.34 67.5645 118.852 66.5969C120.498 63.4886 122.451 60.4636 123.251 56.9742C123.963 53.8248 123.675 50.5126 123.04 47.3491C122.463 44.4359 121.426 41.3428 118.974 39.702C118.389 39.3072 117.691 39.0083 117 39.1007C116.475 39.1757 116.01 39.4534 115.568 39.7558C113.439 41.2283 111.767 43.086 110.52 45.3225C109.919 46.4107 108.962 47.3514 108.271 48.4027C107.557 49.4769 106.906 50.6108 106.303 51.7466C103.883 56.4182 102.328 61.4811 100.619 66.4474C100.503 66.7959 100.387 67.1445 100.252 67.4827C98.5468 72.3538 96.5915 77.1722 95.4418 82.1793L95.4503 82.2082Z" fill="#98BCB5"/>
    <path d="M133.203 104.429C132.631 105.618 132.078 106.818 131.484 107.982C131.358 107.925 131.246 107.864 131.12 107.806C129.801 107.202 128.472 106.616 127.143 106.03C124.433 104.842 121.714 103.673 118.974 102.541C114.328 100.614 109.604 98.8999 105.055 96.7724C103.349 95.9668 101.63 95.1177 100.183 93.9215C99.3146 93.2008 98.5269 92.3307 98.1969 91.2637C97.5613 89.1067 98.7373 87.1584 100.486 85.9859C102.428 84.678 105.787 85.4714 107.847 86.2048C109.978 86.9649 111.621 88.245 113.536 89.3354C115.679 90.5635 117.792 91.8476 119.874 93.1877C122.519 94.8979 125.084 96.71 127.595 98.601C129.646 100.155 131.761 101.658 133.778 103.253C133.58 103.642 133.401 104.04 133.207 104.443L133.203 104.429Z" fill="#98BCB5"/>
    <path d="M103.49 121.709C102.627 121.804 101.75 121.904 100.883 121.985C100.865 121.817 100.837 121.668 100.809 121.519C100.543 120.087 100.263 118.659 99.9827 117.231C99.4055 114.317 98.7996 111.412 98.1461 108.505C97.0564 103.586 95.7466 98.7162 94.8913 93.7447C94.5595 91.8758 94.2852 89.9901 94.4291 88.0919C94.5189 86.9646 94.7755 85.8198 95.4739 84.9547C96.8664 83.21 99.1406 83.0788 101.109 83.8709C103.288 84.7427 104.581 87.9657 105.157 90.0779C105.753 92.2625 105.665 94.3489 105.858 96.5417C106.084 99.0077 106.249 101.476 106.337 103.951C106.451 107.095 106.455 110.239 106.336 113.389C106.247 116.057 106.233 118.767 106.064 121.427C105.215 121.518 104.353 121.614 103.509 121.719L103.49 121.709Z" fill="#98BCB5"/>
    <path d="M105.461 97.0232C104.193 96.5923 103.008 95.9642 101.887 95.2384C100.763 94.4981 99.6642 93.6872 98.6738 92.7661C97.6419 91.8099 96.8333 90.7098 96.4466 89.3444C96.0413 87.9688 96.0058 86.4692 96.0865 85.0457C96.1687 83.5745 96.4823 82.1457 96.8806 80.7392C97.3034 79.3099 97.7449 77.8908 98.2007 76.4675C99.1065 73.6541 100.078 70.8528 101.106 68.0823C102.144 65.2931 103.238 62.5347 104.407 59.8174C104.556 59.4749 104.691 59.1365 104.844 58.8084C104.901 58.6818 105.039 58.9401 105.003 59.0294C103.861 61.6761 102.76 64.3579 101.743 67.0621C100.713 69.7704 99.7383 72.5096 98.8341 75.2754C98.3798 76.651 97.9442 78.0369 97.523 79.4186C97.1018 80.8003 96.6661 82.1862 96.4474 83.6187C96.2202 85.0222 96.1811 86.4808 96.3477 87.8948C96.4374 88.6236 96.5932 89.3645 96.8843 90.0342C97.1568 90.6937 97.5645 91.2821 98.0315 91.806C98.9195 92.8043 100.027 93.644 101.117 94.4259C102.184 95.183 103.306 95.8612 104.504 96.3753C104.808 96.5064 105.127 96.6333 105.437 96.7312C105.541 96.7639 105.583 97.0661 105.475 97.019L105.461 97.0232Z" fill="#62838F"/>
    <path d="M120.958 31.3396C122.44 37.5638 123.419 43.8706 124.185 50.1926C124.573 53.36 124.892 56.5366 125.211 59.7133C125.344 60.996 125.293 62.3108 125.407 63.5678C125.485 64.3728 126.187 65.6411 125.468 66.2947C125.168 66.5606 124.729 66.5995 124.327 66.6121C118.608 66.6615 113.611 62.7523 108.194 60.7777C106.413 60.1278 103.092 59.6531 102.426 57.7682C101.996 56.5402 102.159 54.7461 102.039 53.4546C101.91 52.0168 101.79 50.5918 101.674 49.1452C101.217 43.5052 100.842 37.8472 100.697 32.1997C100.623 29.4256 100.281 25.7105 102.052 23.4649C104.065 20.898 107.16 19.7162 110.268 19.0599C113.537 18.3675 116.357 20.6615 118.049 23.3977C119.538 25.8171 120.302 28.5886 120.949 31.3267L120.958 31.3396Z" fill="white"/>
    <path d="M103.435 51.5219C104.478 52.037 105.521 52.5521 106.581 53.0377C107.64 53.5233 108.716 53.9794 109.811 54.385C110.894 54.7992 112.006 55.1753 113.125 55.5096C114.236 55.8315 115.367 56.103 116.509 56.3118C117.642 56.5083 118.796 56.6544 119.943 56.7132C120.094 56.7178 120.232 56.731 120.383 56.7355C120.458 56.7378 120.443 56.8214 120.394 56.856C120.361 56.9151 120.27 56.9423 120.203 56.9523C119.043 56.9022 117.873 56.7857 116.727 56.5978C115.581 56.4099 114.459 56.1507 113.336 55.8373C112.213 55.524 111.11 55.1602 110.014 54.7546C108.919 54.349 107.831 53.9015 106.759 53.4246C105.688 52.9476 104.641 52.4534 103.598 51.9383C103.458 51.871 103.34 51.8073 103.201 51.74C103.091 51.6887 103.322 51.4914 103.41 51.5392L103.435 51.5219Z" fill="#98BCB5"/>
    <path d="M111.456 49.9348C111.456 49.9348 111.579 49.8485 111.646 49.8385C113.439 49.9228 115.18 49.4047 116.83 48.7848C117.295 48.6066 117.761 48.4284 118.218 48.238C118.255 48.212 118.347 48.1848 118.365 48.2634C118.375 48.3298 118.296 48.4026 118.251 48.4162C116.568 49.0953 114.839 49.7879 113.022 50.0123C112.513 50.075 111.99 50.0922 111.483 50.0799C111.408 50.0776 111.423 49.9939 111.464 49.9471L111.456 49.9348Z" fill="#98BCB5"/>
    <path d="M103.099 3.63414C103.099 3.63414 103.104 3.58007 103.102 3.54641C103.175 2.5932 103.803 1.74793 104.609 1.25353C105.414 0.759124 106.38 0.555517 107.326 0.500975C108.352 0.436779 109.063 0.700858 110.015 0.935993C110.865 1.14113 111.765 0.973622 112.619 1.12466C113.73 1.30684 114.738 2.04561 115.246 3.05864C115.6 3.76043 115.715 4.55847 115.951 5.32522C116.179 6.07876 116.543 6.86112 117.239 7.25384C117.791 7.5709 118.438 7.59457 119.045 7.79501C121.036 8.4239 122.853 11.2165 123.262 13.1635C123.442 14.0469 123.414 15.1131 122.726 15.6639C122.381 15.9394 121.936 16.0634 121.62 16.358C121.116 16.8414 121.083 17.6179 120.965 18.3031C120.639 20.0678 119.316 21.6394 117.61 22.1462C115.884 22.6471 113.85 21.9726 112.863 20.4645C112.229 19.5032 111.753 17.8688 111.951 16.7088C112.133 15.6437 112.645 14.5869 111.48 13.7797C110.988 13.447 110.385 13.3475 109.881 13.0557C109.129 12.6245 108.649 11.7858 108.504 10.9349C108.359 10.0839 108.501 9.19556 108.781 8.36966C108.953 7.84431 109.17 7.27686 108.953 6.75891C108.451 5.60404 106.723 6.07126 105.739 5.871C104.599 5.63596 103.128 5.04891 103.174 3.64496L103.099 3.63414Z" fill="#B36332"/>
    <path d="M104.052 26.6008C104.174 26.6436 104.32 26.6149 104.436 26.5704C105.343 26.2855 106.257 25.6674 107.107 25.2216C108.139 24.6672 109.123 24.0181 110.141 23.4182C110.87 22.9838 111.589 22.4829 112.387 22.2007C112.919 22.0126 113.1 21.3753 113.095 20.8676C113.097 20.7385 113.074 20.6267 113.039 20.5235C112.914 20.1352 112.621 19.9011 112.342 19.5292C111.481 18.4309 110.641 17.3361 109.817 16.2119C109.323 15.5331 108.821 14.8421 108.331 14.1425C108.185 13.9338 107.979 13.456 107.703 13.4296C107.501 13.4055 107.135 13.7518 106.957 13.8396C106.92 13.8655 102.791 15.7918 102.778 15.8004C102.309 15.9995 101.588 16.1549 101.467 16.6408C101.448 16.7453 101.438 16.8622 101.486 17.0108C101.991 18.7592 103.85 19.7286 104.43 21.4251C104.514 21.677 104.573 21.9461 104.595 22.2411C104.694 23.4875 104.016 24.6534 103.796 25.8662C103.742 26.1589 103.762 26.529 104.048 26.6217L104.052 26.6008Z" fill="#FCD9BA"/>
    <path d="M104.435 21.4049C105.795 20.9505 106.815 19.7469 107.187 18.3556C107.293 17.9533 107.367 17.4269 107.353 16.9069C107.333 16.4828 107.258 16.06 107.076 15.7482C106.701 15.1331 105.853 15.2125 105.225 15.2115C104.329 15.1964 103.402 15.5318 102.615 15.9344C102.221 16.1357 101.844 16.3616 101.484 16.612C101.465 16.7165 101.455 16.8334 101.504 16.982C102.009 18.7304 103.868 19.6998 104.447 21.3963L104.435 21.4049Z" fill="#CB9C7B"/>
    <path d="M108.823 14.1321C108.514 15.5344 108.003 16.9125 107.18 18.107C106.381 19.2842 105.187 20.5545 103.704 20.7288C102.243 20.9068 100.843 19.9094 99.8753 18.9219C99.1116 18.1209 98.4108 17.3308 98.0065 16.2794C97.7475 15.6198 97.5715 14.9207 97.2877 14.2783C97.1128 13.8706 96.9132 13.4801 96.726 13.0809C96.4594 12.4632 96.2719 11.8268 96.0883 11.1695C95.985 10.7849 95.8693 10.409 95.8328 10.0144C95.7685 9.47484 95.8148 8.8035 96.0777 8.30989C96.3369 7.83719 96.4826 7.334 96.6912 6.84175C97.1846 5.67634 97.9852 4.60731 99.0991 3.95926C99.6951 3.59888 100.382 3.39445 101.07 3.24408C101.724 3.09871 102.383 2.98651 103.041 3.05751C103.658 3.12123 104.235 3.33995 104.792 3.60912C105.709 4.04834 106.56 4.60572 107.223 5.36764C108.265 6.54052 108.476 8.00057 108.838 9.46519C109.204 10.963 109.158 12.5835 108.81 14.1408L108.823 14.1321Z" fill="#FCD9BA"/>
    <path d="M100.47 12.6097C100.47 12.6097 100.482 12.6011 100.495 12.5924C100.732 12.5366 100.89 13.157 100.926 13.3142C101.016 13.6533 101.052 13.9937 101.054 14.3392C101.062 14.7718 100.961 15.2073 100.96 15.6277C100.949 16.1649 101.641 16.2309 102.055 16.2164C102.272 16.211 102.163 16.3969 102 16.4009C101.619 16.4104 101.108 16.3649 100.81 16.0976C100.661 15.9639 100.632 15.7649 100.645 15.5731C100.658 15.3272 100.703 15.0763 100.716 14.8304C100.738 14.4677 100.74 14.1014 100.687 13.7365C100.655 13.5583 100.613 13.3678 100.56 13.186C100.511 13.0374 100.365 12.8288 100.404 12.6738C100.412 12.632 100.449 12.6061 100.486 12.5802L100.47 12.6097Z" fill="#CB9C7B"/>
    <path d="M97.3467 13.8101C97.3467 13.8101 97.3305 13.8397 97.3267 13.8606C97.3143 13.8693 97.2829 13.9824 97.2409 13.9752C97.2237 13.9506 97.2065 13.926 97.2017 13.8929C97.1816 13.706 97.2244 13.53 97.2672 13.3541C97.3776 12.9849 97.4797 12.3763 97.7601 12.1444C98.0815 11.8658 98.4646 11.8112 98.9389 11.8426C99.2432 11.8627 99.6249 11.5839 99.692 12.0486C99.7074 12.2023 99.592 12.3009 99.4718 12.3664C99.3268 12.4491 99.0318 12.4011 99.0318 12.4011C99.0318 12.4011 98.606 12.2421 98.1713 12.4008C97.8976 12.5007 97.7691 12.6822 97.624 12.9468C97.5027 13.1679 97.4315 13.6415 97.3467 13.8101C97.3829 13.7301 97.3105 13.8902 97.3467 13.8101Z" fill="#B36332"/>
    <path d="M105.474 10.9035C105.288 10.5584 104.525 9.94956 104.196 9.8495C103.452 9.65575 102.706 10.1108 102.017 10.4444C101.756 10.5716 101.542 10.9766 101.925 11.1294C102.035 11.1808 102.156 11.1695 102.277 11.1581C102.553 11.1304 102.705 10.5986 103.094 10.4084C103.486 10.2167 103.78 10.093 104.196 10.2249C104.522 10.3282 104.658 10.6866 104.882 10.7684C105.046 10.8184 105.329 10.9862 105.474 10.9035Z" fill="#B36332"/>
    <path d="M103.721 12.0609C103.79 11.9219 103.948 11.8846 104.095 11.9101C104.216 11.8987 104.338 11.9415 104.432 12.0224C104.564 12.1315 104.654 12.2874 104.687 12.4656C104.723 12.6229 104.726 12.7852 104.666 12.9365C104.602 13.1088 104.445 13.2002 104.27 13.2129C104.27 13.2129 104.27 13.2129 104.249 13.2092C104.228 13.2056 104.194 13.2106 104.165 13.1947C104.165 13.1947 104.123 13.1874 104.102 13.1838C104.06 13.1765 104.03 13.1606 103.988 13.1533C103.832 13.0614 103.715 12.8687 103.67 12.6991C103.647 12.5873 103.645 12.4792 103.643 12.371C103.65 12.2751 103.656 12.1791 103.693 12.0992L103.721 12.0609Z" fill="#4A565D"/>
    <path d="M99.104 13.6348C99.1516 13.492 99.3138 13.4339 99.456 13.4261C99.5771 13.4148 99.703 13.4367 99.8004 13.4967C99.9569 13.5885 100.048 13.7444 100.105 13.9053C100.154 14.054 100.178 14.2199 100.151 14.3662C100.108 14.5421 99.9558 14.6667 99.7802 14.6794C99.7802 14.6794 99.7802 14.6794 99.7678 14.688C99.743 14.7053 99.7135 14.6893 99.6925 14.6857C99.6925 14.6857 99.6591 14.6907 99.6381 14.6871C99.5961 14.6798 99.5541 14.6725 99.5245 14.6566C99.3432 14.582 99.2229 14.4102 99.157 14.237C99.1216 14.1338 99.0986 14.022 99.0966 13.9138C99.0822 13.8143 99.0888 13.7184 99.125 13.6384L99.104 13.6348Z" fill="#4A565D"/>
    <path d="M95.7526 9.68766C95.6203 8.86669 95.5635 8.04797 95.8206 7.22977C96.1052 6.3193 96.6637 5.51025 97.3464 4.85212C98.4896 3.74539 99.9278 2.98097 101.469 2.60115C103.206 2.15817 105.253 2.63166 106.687 3.67828C107.777 4.4712 108.606 5.62863 109.081 6.88649C109.556 8.14436 109.682 9.53583 109.556 10.8836C109.506 11.3386 109.366 11.9291 109.012 12.2668C108.559 12.6736 108.482 11.9053 108.277 11.6649C108.119 11.4648 107.639 10.8856 107.409 11.137C107.331 11.2097 107.245 11.3242 107.132 11.2938C107.069 11.2828 107.026 11.2215 106.992 11.1724C106.682 10.7305 106.681 10.2018 106.463 9.73268C106.301 9.37036 106.114 8.97124 105.895 8.63119C105.632 8.22977 105.268 7.78924 104.874 7.51599C104.497 7.26729 103.955 7.15176 103.514 7.07534C102.552 6.88702 101.54 6.9164 100.58 7.07356C99.5663 7.23207 98.5465 7.54062 97.6997 8.14873C97.241 8.46823 96.8721 8.88954 96.486 9.28633C96.2601 9.51677 96.0475 9.79267 95.8167 9.98992C95.8024 9.89037 95.7879 9.79085 95.765 9.67902L95.7526 9.68766Z" fill="#B36332"/>
    <path d="M109.646 10.8539C109.773 11.1671 109.83 11.5112 109.824 11.8444C109.819 12.523 109.298 14.913 108.141 14.1301C107.527 13.7 107.406 12.5791 107.334 11.8982C107.249 11.1177 107.577 9.84816 108.592 9.98102C108.995 10.0293 109.344 10.3161 109.538 10.6734C109.573 10.7225 109.603 10.7925 109.625 10.8503L109.646 10.8539Z" fill="#FCD9BA"/>
    <path d="M110.036 2.92196C111.186 2.58999 112.522 2.58756 113.47 3.44207C113.733 3.6704 113.941 3.95068 114.085 4.27007C114.108 4.30867 114.117 4.40934 114.05 4.41489C113.984 4.42044 113.928 4.33038 113.904 4.29178C113.431 3.23571 112.152 2.90214 111.089 3.00378C110.775 3.03656 110.451 3.11068 110.148 3.18989C110.043 3.2189 109.918 2.95879 110.036 2.92196V2.92196Z" fill="#98491F"/>
    <path d="M102.923 2.54005C102.923 2.54005 103.047 2.45369 103.114 2.4437C104.282 2.45203 105.432 2.85627 106.349 3.58684C106.443 3.66777 106.224 3.85637 106.139 3.78773C105.231 3.06942 104.114 2.66023 102.955 2.66417C102.88 2.66189 102.895 2.57822 102.944 2.54368L102.923 2.54005Z" fill="#98491F"/>
    <path d="M107.771 8.43665C107.781 7.13367 107.252 5.87746 106.311 4.98111C106.238 4.90384 106.465 4.72752 106.558 4.80843C107.5 5.70478 108.042 7.00644 108.033 8.30943C108.03 8.38441 107.976 8.43985 107.918 8.46211C107.893 8.47938 107.769 8.51164 107.771 8.43665V8.43665Z" fill="#98491F"/>
    <path d="M96.7631 7.4714C96.7128 6.55672 97.0519 5.6448 97.7013 4.9916C97.7508 4.95706 97.8376 4.89661 97.8844 4.93707C97.9436 4.9689 97.8864 5.04528 97.8578 5.08346C97.2742 5.67256 96.9676 6.52538 97.0244 7.34414C97.0264 7.45234 96.7737 7.59188 96.7631 7.4714Z" fill="#98491F"/>
    <path d="M98.4855 5.74145C98.4855 5.74145 98.5837 5.61827 98.6419 5.59601C98.6877 5.58238 98.763 5.58468 98.7516 5.6474C98.6984 5.94012 98.7415 6.23877 98.8676 6.49788C98.902 6.54697 98.8448 6.62331 98.7867 6.64558C98.7495 6.67148 98.6417 6.72831 98.6197 6.67058C98.4764 6.38693 98.4409 6.04644 98.4979 5.73281L98.4855 5.74145Z" fill="#98491F"/>
    <path d="M112.082 23.2921C112.281 22.8715 112.516 22.4994 112.822 22.2784C114.598 20.9424 116.803 22.7495 117.767 24.2336C119.08 26.2779 118.448 29.7609 118.173 32.0088C117.937 33.9511 117.502 35.7975 117.27 37.7188C117.093 39.1755 116.279 40.8128 115.688 42.1618C115.063 43.5914 114.167 45.2754 112.677 46.258C112.181 46.5785 110.786 47.7603 110.213 47.8966C109.182 48.1229 109.521 47.6707 108.49 47.897C108.087 47.9846 107.467 46.7467 107.202 46.4579C106.954 46.1933 106.857 44.167 106.929 43.8017C107.261 41.8637 107.103 41.9104 107.477 39.979C108.164 36.2896 110.599 33.2784 110.946 29.5574C111.053 28.2619 111.16 26.9664 111.435 25.6971C111.564 25.0504 111.766 24.0924 112.112 23.3075L112.082 23.2921Z" fill="#F7D2B1"/>
    <path d="M116.291 19.2599C119.337 20.4239 120.212 24.2606 120.699 27.1224C121.286 30.4839 121.574 33.8954 121.568 37.3149C121.566 38.3687 121.375 39.651 120.396 40.0251C120.107 40.1413 119.772 40.1427 119.458 40.1475C118.441 40.1608 117.432 40.1862 116.405 40.1332C115.473 40.0846 114.54 39.9819 113.607 39.8792C112.283 39.7262 110.968 39.5853 109.631 39.4412C108.253 39.2904 107.847 38.9367 107.717 37.4428C107.627 36.4178 107.884 35.4575 107.984 34.4621C108.178 32.6424 108.363 30.8105 108.556 28.9907C108.705 27.5727 108.854 26.1546 109.141 24.7474C109.365 23.5886 109.698 22.4252 110.348 21.4402C111.73 19.3543 114.25 18.4787 116.27 19.2566L116.291 19.2599Z" fill="white"/>
    <path d="M117.364 40.0899C117.364 40.0899 117.469 39.9772 117.535 39.9661C118.137 39.9203 118.743 39.9076 119.348 39.8408C119.853 39.7906 120.416 39.7172 120.827 39.3836C121.235 39.0709 121.335 38.5379 121.36 38.0579C121.387 37.5028 121.351 36.9379 121.345 36.3884C121.278 34.0547 121.057 31.7399 120.781 29.4274C120.628 28.1343 120.454 26.8379 120.293 25.5327C120.277 25.4334 120.539 25.2809 120.552 25.4012C120.701 26.5861 120.859 27.7832 121.008 28.9681C121.145 30.1619 121.282 31.3557 121.377 32.5429C121.481 33.7422 121.564 34.9383 121.592 36.1366C121.603 36.7192 121.636 37.305 121.626 37.8844C121.606 38.3975 121.523 38.9007 121.176 39.2983C120.805 39.7136 120.246 39.8951 119.713 39.9839C119.135 40.087 118.528 40.0998 117.918 40.1335C117.755 40.1403 117.6 40.1591 117.437 40.1659C117.371 40.177 117.336 40.1285 117.367 40.0689L117.364 40.0899Z" fill="#98BCB5"/>
    <path d="M107.813 38.7581C107.676 38.414 107.642 38.0322 107.638 37.6659C107.64 37.2576 107.664 36.8526 107.709 36.4509C107.871 34.6907 108.021 32.9394 108.174 31.1672C108.262 30.1806 108.341 29.1819 108.441 28.1865C108.446 28.0905 108.718 27.9501 108.702 28.109L108.239 33.3177L108.005 35.9055C107.969 36.3193 107.932 36.7332 107.909 37.1382C107.888 37.5222 107.889 37.9095 107.968 38.2768C108.048 38.6442 108.22 39.0369 108.566 39.2307C108.903 39.4125 109.294 39.3338 109.647 39.4857C109.757 39.5353 109.542 39.7275 109.44 39.69C109.126 39.5657 108.772 39.6179 108.449 39.4814C108.135 39.357 107.924 39.0659 107.813 38.7581Z" fill="#98BCB5"/>
    <path d="M114.715 37.6968C115.6 36.9853 116.322 36.0765 116.854 35.0841C117.401 34.0618 117.748 32.9437 117.957 31.8147C118.073 31.1768 118.139 30.5201 118.159 29.8779C118.16 29.8029 118.213 29.7466 118.271 29.7233C118.295 29.7057 118.419 29.6714 118.418 29.7464C118.383 30.9348 118.197 32.1212 117.834 33.2691C117.475 34.396 116.963 35.4668 116.225 36.4054C115.812 36.9432 115.334 37.417 114.812 37.8302C114.775 37.8567 114.68 37.9065 114.645 37.858C114.61 37.8095 114.687 37.7354 114.724 37.7089L114.715 37.6968Z" fill="#98BCB5"/>
    <path d="M112.306 31.2536C112.73 30.782 113.079 30.2343 113.345 29.6735C113.377 29.6139 113.45 29.5609 113.517 29.5498C113.583 29.5387 113.618 29.5873 113.587 29.6469C113.29 30.2673 112.916 30.8326 112.464 31.3428C112.415 31.3782 112.329 31.44 112.282 31.4004C112.222 31.3695 112.278 31.2922 112.306 31.2536Z" fill="#98BCB5"/>
    <path d="M101.089 24.4689C102.119 29.0683 103.146 33.6889 104.177 38.2883C104.472 39.6179 104.77 40.9264 105.21 42.2228C105.631 43.4951 106.184 44.7432 106.674 45.9823C106.933 46.62 107.216 47.3147 107.777 47.7053C108.307 48.0809 109.021 48.1284 109.654 47.9714C110.287 47.8143 110.847 47.4859 111.398 47.1454C111.727 46.9344 112.067 46.7145 112.342 46.4314C113.179 45.5521 112.954 44.3397 112.667 43.2689C112.349 42.1078 111.839 41.0161 111.351 39.9274C109.811 36.565 108.293 33.2057 106.754 29.8434C105.983 28.1351 105.2 26.4359 104.428 24.7276C103.829 23.4194 103.506 21.4098 101.67 21.9652C101.244 22.0979 100.983 22.5224 100.915 22.9527C100.847 23.383 100.947 23.8372 101.042 24.2584C101.054 24.3245 101.067 24.3907 101.08 24.4569L101.089 24.4689Z" fill="#F7D2B1"/>
    <path d="M104.523 23.4853C104.222 24.1295 103.748 24.2232 103.092 24.302C102.786 24.3444 102.491 24.3778 102.188 24.3991C101.592 24.4328 101.258 24.4391 100.931 23.9098C100.427 23.0979 100.168 22.1382 99.9156 21.2117C99.7539 20.6522 99.5647 20.0566 99.5141 19.4699C99.4697 18.9163 99.3326 18.4139 99.4176 17.8572C99.4457 17.6465 99.4949 17.4388 99.6137 17.2732C99.7593 17.0685 99.966 16.9691 99.9724 17.3241C99.99 17.9169 100.119 18.5576 100.29 19.1291C100.325 19.2735 100.533 19.9684 100.665 19.6223C100.73 19.4598 100.616 19.186 100.596 19.0115C100.569 18.7287 100.543 18.4459 100.516 18.1631C100.462 17.5974 100.409 17.0318 100.346 16.4542C100.32 16.2466 100.308 15.9337 100.457 15.7831C100.583 15.6506 100.838 15.5901 100.966 15.7585C101.021 15.8307 101.04 15.93 101.059 16.0292C101.228 17.0943 101.19 18.1835 101.567 19.2242C101.623 19.3716 101.812 19.6453 101.888 19.3985C101.92 19.3172 101.91 19.23 101.9 19.1427C101.801 18.195 101.693 17.2352 101.594 16.2875C101.555 16.0137 101.47 15.6045 101.639 15.3817C101.928 14.9933 102.29 15.4203 102.341 15.7603C102.435 16.4282 102.486 17.09 102.579 17.7579C102.653 18.2513 102.728 18.82 102.994 19.244C103.041 19.1326 103.025 19.0123 102.999 18.8799C102.923 18.4076 102.879 17.9292 102.835 17.4508C102.811 17.1469 102.511 15.9346 102.98 15.883C103.133 15.8618 103.27 15.967 103.361 16.0873C103.453 16.2076 103.475 16.361 103.51 16.5054C103.649 17.2334 103.677 17.9886 103.804 18.7257C103.865 19.0777 103.991 19.4176 104.073 19.7726C104.095 19.8508 104.307 20.6751 104.319 20.666C104.406 20.5817 104.413 20.4433 104.43 20.3169C104.503 19.694 104.575 19.071 105.007 18.5742C105.054 18.538 105.096 18.4688 105.162 18.4567C105.231 18.4235 105.306 18.4235 105.379 18.4444C106.024 18.6003 105.596 19.1513 105.479 19.5426C105.298 20.0964 105.186 20.6923 105.077 21.2671C104.934 22.0195 104.871 22.7297 104.571 23.4491C104.559 23.4581 104.553 23.5002 104.541 23.5093L104.523 23.4853Z" fill="#F7D2B1"/>
    <path d="M115.953 5.32447C115.718 4.55781 115.602 3.75982 115.249 3.05818L110.018 9.67028C110.162 10.5212 110.725 11.4238 111.477 11.8547C111.981 12.1463 110.985 13.4484 111.477 13.7809C112.642 14.5876 112.13 15.6446 111.948 16.7097C111.749 17.8698 112.224 19.5041 112.858 20.4651C113.845 21.9727 115.879 22.6464 117.606 22.1448C119.312 21.6372 120.637 20.0651 120.963 18.3003C121.082 17.615 121.115 16.8385 121.619 16.3549C121.936 16.0601 122.381 15.9359 122.725 15.6603C123.415 15.1092 123.442 14.043 123.263 13.1597C122.855 11.2128 121.039 8.421 119.047 7.79295C118.44 7.59277 117.793 7.56937 117.241 7.25255C116.544 6.86012 116.181 6.07792 115.953 5.32447Z" fill="#B36332"/>
    <path d="M111.987 10.5299C112.746 10.405 113.466 10.8727 113.905 11.4808C114.458 12.2511 114.514 13.2349 114.463 14.1375C114.405 15.0939 114.199 16.0566 114.369 17.0005C114.533 17.8971 115.066 18.6942 115.833 19.1891C116.641 19.6977 117.669 19.8432 118.576 19.5774C118.69 19.5374 118.812 19.8142 118.711 19.8474C117.905 20.08 117.018 20.0159 116.237 19.6624C115.423 19.2751 114.756 18.5784 114.418 17.7349C114.046 16.8239 114.097 15.854 114.202 14.891C114.301 13.9482 114.433 12.9382 114.054 12.0474C113.743 11.2916 112.948 10.6753 112.115 10.8202C112.008 10.84 111.9 10.5566 112.027 10.5436L111.987 10.5299Z" fill="#98491F"/>
    <path d="M64.5037 57.0549C64.5037 56.757 64.7626 56.5252 65.0587 56.558L67.544 56.8334C67.7973 56.8615 67.9889 57.0756 67.9889 57.3304V58.2558C67.9889 58.5537 67.73 58.7856 67.4339 58.7527L64.9486 58.4773C64.6953 58.4492 64.5037 58.2351 64.5037 57.9803V57.0549Z" fill="#7BBAED"/>
    <path d="M69.4375 58.1745L67.9728 58.6615L66.5538 58.5042L68.0007 56.9005L69.4375 58.1745Z" fill="#7BBAED" stroke="#7BBAED" stroke-width="0.3" stroke-linejoin="round"/>
    <path d="M70.3125 56.8033C70.3125 56.4622 69.9784 56.2212 69.6547 56.3288L68.3312 56.7689C68.1269 56.8369 67.989 57.028 67.989 57.2434V58.121C67.989 58.4622 68.323 58.7031 68.6467 58.5955L69.9703 58.1554C70.1746 58.0875 70.3125 57.8963 70.3125 57.681V56.8033Z" fill="#A0D0F6"/>
    <path d="M67.0338 56.0303L69.3951 56.2659L67.9728 56.7302L65.433 56.4681L67.0338 56.0303Z" fill="#EFEFEF" stroke="#E2E2E2" stroke-width="0.3"/>
    <mask id="mask0_225_34120" style="mask-type:alpha" maskUnits="userSpaceOnUse" x="65" y="53" width="5" height="4">
      <path d="M65.883 54.2552C65.8704 53.9502 66.1317 53.7053 66.4353 53.7376L68.9333 54.003C69.1798 54.0292 69.37 54.2321 69.3802 54.4797L69.4448 56.0432C69.4574 56.3482 69.1961 56.5931 68.8926 56.5608L66.3945 56.2954C66.148 56.2692 65.9578 56.0664 65.9476 55.8187L65.883 54.2552Z" fill="#7BBAED"/>
    </mask>
    <g mask="url(#mask0_225_34120)">
      <rect width="0.309728" height="0.386363" transform="matrix(0.999168 -0.0407969 0.0413527 0.999145 67.325 55.3947)" fill="#FEDC92"/>
      <path d="M68.1961 53.9673L66.842 54.0226L66.6486 54.0305L66.2777 54.4323L67.4943 55.7362L68.5989 54.3376L68.1961 53.9673Z" fill="#FFEFD4"/>
      <path d="M66.6646 54.4162L66.4712 54.4241L67.4863 55.5429L68.4056 54.3451L68.2122 54.353L67.4783 55.3498L66.6646 54.4162Z" fill="#FED379"/>
      <ellipse cx="0.193588" cy="0.193188" rx="0.193588" ry="0.193188" transform="matrix(0.999168 -0.0407966 0.041353 0.999145 67.2847 55.3575)" fill="#FDC67C"/>
      <path d="M68.2121 54.3531L66.6646 54.4163L67.4783 55.3499L68.2121 54.3531Z" fill="#FEE5AC"/>
      <path d="M67.6318 54.3768L67.2449 54.3926L67.0755 54.9796L67.1421 55.0542L67.4464 54.5777L67.7859 55.0279L67.8492 54.948L67.6318 54.3768Z" fill="#FCD578"/>
      <path d="M67.9998 56.4884C68.0106 56.7486 67.8078 56.9694 67.5454 56.9801C67.2831 56.9908 67.0627 56.7874 67.0519 56.5271C67.0411 56.2668 67.244 56.0461 67.5063 56.0354C67.7687 56.0247 67.9891 56.2281 67.9998 56.4884Z" stroke="#FED88C" stroke-width="0.6"/>
      <path d="M68.0039 56.5075C68.0148 56.7698 67.8103 56.9919 67.5464 57.0027C67.2825 57.0135 67.0604 56.8088 67.0496 56.5465C67.0387 56.2841 67.2431 56.062 67.507 56.0512C67.771 56.0404 67.993 56.2451 68.0039 56.5075Z" stroke="#FDC267" stroke-width="0.4"/>
    </g>
  </g>
  <defs>
    <clipPath id="clip0_225_34120">
      <rect width="154" height="144" fill="white"/>
    </clipPath>
  </defs>
</svg>
