<svg width="190" height="181" viewBox="0 0 190 181" fill="none"
  xmlns="http://www.w3.org/2000/svg">
  <g clip-path="url(#clip0_86_5503)">
    <path d="M88.9232 81.8071C87.502 82.5112 86.1297 83.3136 84.7738 84.1486C84.2674 84.4597 83.7283 84.8363 83.6303 85.4094C83.4669 86.2772 84.104 87.4726 84.3981 88.2585C84.7248 89.1591 85.1005 90.5018 85.7866 91.2059C86.2767 91.7298 87.2896 90.9602 87.6817 90.5509C89.691 88.5041 91.6024 86.3919 93.4484 84.1977C93.5464 84.0831 95.1977 84.1486 95.639 83.7063C97.0259 82.3162 95.6554 82.7947 95.639 82.6638C95.639 82.1398 93.7424 82.3475 93.6934 81.8399C93.6444 81.4142 93.4974 80.5136 93.089 80.3007C92.8276 80.1697 92.5335 80.268 92.2558 80.3662C91.1286 80.7919 90.0177 81.2832 88.9395 81.8235L88.9232 81.8071Z" fill="#FCD9BA"/>
    <path d="M92.6845 79.8103C92.3525 80.6772 92.7048 81.2409 93.2234 81.9938C93.4672 82.3336 93.711 82.6734 93.9742 83.0017C94.4889 83.639 94.7984 83.9789 95.5871 83.8494C96.8203 83.6513 97.9412 83.0482 99.0466 82.5067C99.723 82.1688 100.446 81.8425 101.041 81.3694C101.593 80.9348 102.2 80.6121 102.641 80.0346C102.807 79.8306 102.954 79.5725 103 79.322C103.054 78.9751 102.961 78.6896 102.621 78.9973C102.049 79.509 101.334 79.9356 100.642 80.2697C100.472 80.358 99.6292 80.7689 99.8222 80.3259C99.9072 80.1178 100.286 79.9836 100.452 79.8451C100.738 79.6221 101.04 79.4029 101.326 79.1798C101.913 78.7376 102.489 78.276 103.076 77.8338C103.281 77.6722 103.59 77.4222 103.598 77.1292C103.605 76.9017 103.423 76.5775 103.156 76.5923C103.04 76.596 102.924 76.6651 102.824 76.7382C101.661 77.5109 100.683 78.5269 99.3651 79.0641C99.1796 79.1485 98.7582 79.1901 98.901 78.8819C98.959 78.7818 99.0401 78.7202 99.1251 78.6433C100.114 77.9088 101.104 77.1743 102.093 76.4398C102.375 76.2322 102.851 75.9748 102.916 75.5816C103.024 74.9533 102.285 74.948 101.907 75.2133C101.192 75.7054 100.546 76.2478 99.8159 76.736C99.2826 77.0935 98.6952 77.5358 98.0341 77.6155C98.0881 77.4652 98.2272 77.3691 98.3625 77.2884C98.8765 76.9424 99.3634 76.5732 99.8387 76.1847C100.272 75.8347 100.766 75.5002 101.145 75.1038C101.411 74.8267 101.469 74.1366 100.893 74.2704C100.754 74.301 100.63 74.401 100.51 74.4856C99.5326 75.2394 98.5936 76.0357 97.5076 76.6311C97.0901 76.8539 96.58 77.119 96.1005 77.064C95.9764 76.5741 96.7416 76.0127 96.9153 75.5812C97.1855 74.9609 97.2199 74.3633 96.7091 73.7762C96.299 73.3127 95.9092 74.4108 95.7895 74.692C95.3997 75.6591 94.8203 76.4638 94.2332 77.2994C93.6692 78.108 93.0472 78.8201 92.6535 79.737C92.6458 79.7678 92.638 79.7986 92.6303 79.8295L92.6845 79.8103Z" fill="#FCD9BA"/>
    <path d="M57.6386 138.511C58.6574 141.641 59.712 144.779 60.8406 147.878C62.2334 151.719 63.7473 155.508 65.2566 159.281C65.9312 160.978 66.6058 162.674 67.2804 164.371C68.1896 166.647 69.1078 168.955 70.5952 170.877C71.5088 172.045 72.6554 173.077 73.9875 173.749C74.6816 174.094 75.4649 174.157 76.1455 174.455C77.5673 175.084 78.6299 175.646 80.1787 174.824C81.3576 174.194 82.174 172.953 82.5147 171.713C83.0446 169.771 82.7619 167.722 82.4615 165.73L80.6238 153.242C80.2685 150.823 79.9087 148.388 79.1834 146.042C78.745 144.635 78.856 142.105 78.2449 140.748C77.6595 135.379 76.7202 130.483 73.9873 126.415C72.6276 124.405 67.6426 125.109 66.1126 123.216C65.1676 122.058 63.4087 119.072 61.7301 119.029C60.9604 119.012 60.2431 119.356 59.5909 119.748C58.011 120.699 56.6202 121.952 55.4946 123.419C54.8121 124.298 54.233 125.3 54.1457 126.415C54.0826 127.32 54.3515 128.196 54.6159 129.057C55.6032 132.197 56.5794 135.357 57.5982 138.488L57.6386 138.511Z" fill="#62838F"/>
    <path d="M37.1993 171.737C37.1993 171.737 37.3092 171.705 37.3564 171.692C38.3145 171.414 38.0952 170.235 38.1458 169.403C38.2076 168.551 38.2379 167.708 38.2323 166.859C38.2292 166.196 38.3833 165.606 37.5527 165.557C35.364 165.458 33.153 165.519 30.9486 165.424C29.8487 165.385 28.7621 165.273 27.671 165.146C26.8785 165.052 26.4567 165.242 26.4309 166.101C26.394 167.099 26.3951 167.933 26.6119 168.926C26.8128 169.804 26.7719 171.144 27.8183 171.471C28.3595 171.638 28.9474 171.434 29.5063 171.425C30.2717 171.425 31.0372 171.425 31.8071 171.441C33.3672 171.483 34.9409 171.573 36.5079 171.699C36.7346 171.718 36.9614 171.738 37.1746 171.71L37.1993 171.737Z" fill="#FCD9BA"/>
    <path d="M22.8628 178.437C22.8628 178.437 22.8336 178.394 22.8134 178.383L24.4839 163.559C24.5872 163.564 24.686 163.552 24.7893 163.556C25.0117 163.56 25.2542 163.575 25.4699 163.615C26.3391 163.738 27.1637 164.062 27.8808 164.604C28.0359 164.729 28.1956 164.87 28.207 165.088C28.2231 165.322 28.0706 165.502 27.9383 165.694C27.4384 166.384 27.0938 167.437 27.3015 168.28C27.4279 168.839 27.7227 169.333 28.0623 169.746C28.2153 169.923 28.3884 170.111 28.4875 170.338C28.5911 170.58 28.5847 170.855 28.5019 171.1C28.2648 171.816 27.5985 172.4 27.1793 173.015C26.6996 173.716 26.2693 174.471 25.8952 175.243C25.5726 175.899 25.3062 176.572 24.923 177.193C24.6899 177.567 24.2594 178.203 23.7814 178.494C23.4785 178.684 23.1462 178.712 22.8472 178.441L22.8628 178.437Z" fill="#98BCB5"/>
    <path d="M22.864 178.437C22.864 178.437 22.8348 178.394 22.8145 178.383L24.4853 163.558C24.5886 163.562 24.6874 163.55 24.7908 163.555C25.0132 163.558 25.2558 163.573 25.4715 163.613L23.7783 178.479C23.4753 178.669 23.1429 178.697 22.8438 178.425L22.864 178.437Z" fill="white"/>
    <path d="M25.3763 175.326C25.5334 175.281 25.6094 175.072 25.6833 174.914C26.111 174.092 26.5882 173.325 27.1215 172.575C27.4285 172.162 27.7355 171.75 28.0673 171.365C28.1166 171.299 28.1412 171.207 28.1186 171.129C28.1051 171.081 28.0623 170.992 28.013 171.057C27.3765 171.803 26.8005 172.582 26.2898 173.411C26.0344 173.825 25.7947 174.235 25.5798 174.672C25.535 174.753 25.4925 174.901 25.4073 174.96C25.3063 175.023 25.1963 174.936 25.1266 174.871C25.012 174.768 24.5893 174.243 24.3986 174.349C24.1182 174.499 24.5834 174.875 24.6844 174.931C24.7698 174.991 24.8552 175.052 24.9406 175.112C25.0552 175.215 25.2035 175.376 25.3718 175.311L25.3763 175.326Z" fill="white"/>
    <path d="M25.3967 166.461C26.357 166.37 27.3461 165.965 27.951 165.11C28.0003 165.045 28.0046 164.941 27.9821 164.863C27.964 164.8 27.8922 164.787 27.8586 164.847C27.2919 165.658 26.3409 166.018 25.4322 166.11C25.302 166.131 25.2823 166.477 25.3967 166.461Z" fill="white"/>
    <path d="M27.8657 172.564C27.8657 172.564 27.8902 172.471 27.8969 172.435C27.8879 172.404 27.8901 172.352 27.8654 172.325C27.7034 172.117 27.5414 171.908 27.3839 171.715C27.3344 171.661 27.2806 171.711 27.2582 171.752C27.2358 171.792 27.2336 171.844 27.2269 171.88C27.2359 171.911 27.2495 171.958 27.2585 171.99C27.4205 172.199 27.5824 172.407 27.7399 172.6C27.7894 172.654 27.8433 172.604 27.8657 172.564Z" fill="#62838F"/>
    <path d="M27.3444 173.294C27.3444 173.294 27.3779 173.114 27.3442 173.055C27.2024 172.858 27.0494 172.681 26.8965 172.503C26.8875 172.472 26.8515 172.465 26.8358 172.47C26.8044 172.479 26.7819 172.52 26.7707 172.54C26.7483 172.58 26.7461 172.632 26.7394 172.668C26.7485 172.7 26.7463 172.751 26.771 172.778C26.9397 172.951 27.077 173.133 27.2187 173.33C27.2682 173.384 27.322 173.334 27.3444 173.294Z" fill="#62838F"/>
    <path d="M26.7804 174.173C26.7804 174.173 26.8342 174.123 26.8454 174.103C26.8678 174.062 26.87 174.01 26.8767 173.974C26.8677 173.943 26.8699 173.891 26.8451 173.864C26.7012 173.719 26.5573 173.573 26.4089 173.411C26.3998 173.38 26.3639 173.373 26.3482 173.378C26.3167 173.387 26.2943 173.428 26.2831 173.448C26.2607 173.488 26.2585 173.54 26.2519 173.576C26.2609 173.608 26.2587 173.659 26.2834 173.686C26.4274 173.832 26.5713 173.978 26.7197 174.139C26.7287 174.171 26.7647 174.177 26.7804 174.173Z" fill="#62838F"/>
    <path d="M26.3827 175.037C26.3827 175.037 26.4162 174.857 26.3824 174.799C26.2362 174.586 26.063 174.397 25.8629 174.234C25.8584 174.218 25.8113 174.232 25.8 174.252C25.7686 174.261 25.7507 174.317 25.744 174.353C25.7306 174.425 25.7263 174.529 25.7757 174.582C25.8207 174.621 25.8657 174.659 25.9107 174.697C25.9197 174.728 25.9556 174.735 25.9804 174.762C25.9804 174.762 25.9894 174.793 26.0051 174.789C26.0838 174.885 26.1626 174.982 26.2256 175.083C26.2593 175.141 26.3289 175.087 26.3513 175.046L26.3827 175.037Z" fill="#62838F"/>
    <path d="M30.9091 172.007C30.7982 172.924 30.3186 174.986 30.7125 175.826C31.0119 176.454 31.9543 176.301 32.6748 176.382C34.8363 176.625 36.9652 176.044 39.1332 176.132C40.7132 176.186 42.2512 176.626 43.8111 176.788C47.7997 177.235 51.7995 176.061 55.8233 176.038C57.4728 176.038 59.0643 176.31 60.7028 176.449C62.2537 176.579 63.9052 176.408 65.4693 176.348C68.7413 176.253 72.0199 176.122 75.2803 175.809C77.8967 175.563 81.119 175.295 81.8553 172.291C82.1097 171.281 81.8546 170.215 81.5816 169.204C81.2883 168.063 80.9949 166.923 80.4862 165.861C79.4014 163.622 77.5124 162.551 75.0818 162.436C72.6714 162.333 70.2479 162.54 67.8402 162.743C59.2571 163.471 50.7706 164.239 42.1414 164.096C39.3877 164.041 36.6204 163.939 33.8808 164.288C32.815 164.426 32.3799 164.688 32.1995 165.66C31.9946 166.723 31.6752 167.803 31.4388 168.875C31.2046 169.896 31.0311 170.951 30.9046 171.991L30.9091 172.007Z" fill="#62838F"/>
    <path d="M72.0706 171.443C72.0706 171.443 72.0725 171.272 72.0433 171.23C71.2629 170.229 70.5095 169.204 69.8098 168.129C69.0989 167.074 68.4463 165.986 67.8206 164.873C67.3974 164.109 66.9899 163.342 66.6139 162.565C66.6049 162.534 66.5913 162.486 66.5666 162.459C66.4045 162.132 66.2424 161.804 66.0914 161.456C65.5599 160.315 65.0867 159.141 64.6404 157.942C64.1941 156.743 63.8106 155.525 63.463 154.315C63.4179 154.157 63.3728 154 63.3321 153.859C63.3186 153.811 63.2713 153.706 63.2085 153.724C63.1457 153.742 63.1616 153.857 63.1751 153.904C63.5115 155.135 63.8793 156.357 64.3144 157.576C64.7496 158.796 65.2273 159.986 65.7521 161.162C65.9413 161.584 66.135 162.022 66.3399 162.44C64.0309 162.63 61.7376 162.816 59.4399 162.987C57.0904 163.155 54.741 163.323 52.3983 163.455C50.0353 163.576 47.6678 163.681 45.3025 163.735C42.9686 163.779 40.6324 163.756 38.2894 163.769C37.1516 163.775 36.0228 163.811 34.8919 163.9C34.3937 163.942 33.8754 163.972 33.3639 164.086C33.0139 164.17 32.6102 164.304 32.3705 164.594C32.2563 164.73 32.1668 164.892 32.1289 165.056C32.1089 165.164 32.2641 165.409 32.3177 165.24C32.5295 164.378 33.7727 164.325 34.4683 164.261C35.6262 164.147 36.7863 164.102 37.9555 164.087C40.2581 164.052 42.5517 164.104 44.8654 164.048C47.1836 164.009 49.504 163.917 51.8153 163.794C54.1267 163.671 56.4492 163.527 58.7627 163.353C61.0964 163.189 63.4054 162.998 65.7301 162.803C65.9948 162.778 66.2439 162.757 66.5132 162.747C66.8284 163.371 67.1436 163.996 67.4745 164.615C68.0891 165.749 68.7462 166.853 69.4459 167.928C70.1456 169.003 70.8879 170.048 71.6682 171.049C71.7717 171.172 71.8594 171.3 71.9628 171.423C71.9921 171.466 72.0527 171.499 72.0863 171.439L72.0706 171.443Z" fill="#553A12"/>
    <path d="M82.5203 105.909C81.8015 104.485 81.1317 103.027 80.5109 101.57C79.8901 100.096 79.3184 98.6064 78.7793 97.1C78.2402 95.5936 77.7501 94.0708 77.26 92.548C76.7862 91.0252 76.3288 89.4861 75.9041 87.9469C75.463 86.4077 75.0546 84.8686 74.6298 83.313C74.5808 83.1165 74.5318 82.92 74.4665 82.7236C74.4338 82.6253 74.1234 82.6417 74.1561 82.7727C74.5645 84.3118 74.9892 85.8674 75.414 87.4065C75.8387 88.9457 76.2961 90.4849 76.7536 92.024C77.2273 93.5468 77.7174 95.0696 78.2402 96.5924C78.7629 98.0988 79.3347 99.5889 79.9391 101.063C80.5436 102.536 81.197 103.993 81.9158 105.418C81.9975 105.598 82.0955 105.778 82.1935 105.958C82.2425 106.057 82.5529 106.024 82.5039 105.909H82.5203Z" fill="#62838F"/>
    <path d="M80.0695 112.917C78.5339 113.982 76.9329 114.931 75.2666 115.767C73.6003 116.602 71.8687 117.322 70.1043 117.928C68.34 118.517 66.543 118.992 64.7134 119.352C62.8837 119.696 61.0214 119.926 59.159 120.024C57.2967 120.122 55.4344 120.089 53.572 119.909C53.3433 119.893 53.1146 119.86 52.8859 119.844C52.8369 119.844 52.7226 119.844 52.6899 119.909C52.6572 119.975 52.7552 120.007 52.8042 120.024C54.6829 120.237 56.5616 120.302 58.4566 120.237C60.3353 120.171 62.2139 119.991 64.0763 119.664C65.9386 119.336 67.7683 118.894 69.5652 118.321C71.3622 117.748 73.1102 117.06 74.8092 116.241C76.5082 115.423 78.1581 114.489 79.7264 113.441C79.9224 113.31 80.1185 113.179 80.2982 113.048C80.4452 112.95 80.1675 112.868 80.0695 112.917V112.917Z" fill="#62838F"/>
    <path d="M83.2061 75.3881C83.2061 75.3881 83.059 75.339 82.9937 75.3554C81.4254 75.732 80.1839 76.8945 79.1873 78.1226C78.1255 79.4653 77.2107 80.9553 76.6389 82.5763C76.3285 83.4933 76.1161 84.4266 76.0508 85.3927C76.0508 85.5073 76.3612 85.5073 76.3612 85.3927C76.4755 83.6898 77.0473 82.0687 77.8641 80.5787C78.2725 79.8419 78.7463 79.1214 79.2527 78.4501C79.7264 77.8278 80.2655 77.222 80.87 76.7144C81.5398 76.1577 82.2912 75.6992 83.1407 75.5027C83.1897 75.5027 83.2387 75.4372 83.1897 75.3881H83.2061Z" fill="#62838F"/>
    <path d="M75.0535 67.0539C73.9426 66.5626 72.7991 66.1369 71.6392 65.8094C70.4957 65.482 69.3358 65.22 68.1759 65.089C67.6042 65.0235 67.0324 64.9744 66.4606 64.958C66.1012 65.0726 65.7582 65.1872 65.3988 65.3182C62.8013 66.2352 60.3835 66.7591 58.4232 68.7895C58.4232 68.8386 58.3905 68.8877 58.3742 68.9369C57.5574 71.7205 60.8736 73.4889 63.177 73.6035C64.729 73.6854 66.2809 73.3251 67.8165 73.0304C71.4269 72.3427 75.2659 71.9661 78.2227 69.772C78.4024 69.641 78.5985 69.4772 78.6148 69.248C78.6148 69.248 78.6148 69.2316 78.6148 69.2152C78.2554 68.9532 77.9287 68.6585 77.6183 68.3638C76.8015 67.8889 75.952 67.4468 75.0862 67.0702L75.0535 67.0539Z" fill="#62838F"/>
    <path d="M77.9782 69.0516C80.5104 69.0516 78.6807 71.2948 77.4228 71.8843C75.1357 72.965 72.7833 73.931 70.4635 74.9462C66.8532 76.5345 63.0959 78.1555 59.1425 78.0573C58.146 78.0246 57.2638 76.1252 56.8881 75.3228C56.3163 74.0948 55.9733 72.7521 55.9079 71.4094C55.8099 69.6083 56.4797 68.02 58.195 67.2832C59.6326 66.6609 61.3642 67.2504 62.8182 67.4633C65.579 67.8563 68.2582 68.6258 71.0026 69.0843C72.4566 69.3299 73.9268 69.4937 75.3971 69.4609C75.9035 69.4609 77.0471 69.1334 77.9456 69.0679L77.9782 69.0516Z" fill="white"/>
    <path d="M61.6423 67.6266C61.6423 67.6266 61.4953 67.6267 61.4463 67.6922C60.7111 68.7728 60.4334 70.0828 59.9923 71.3108C59.878 71.6219 59.7636 71.9331 59.6166 72.2278C59.4696 72.5553 59.2899 72.8827 59.1592 73.2102C58.8815 73.8488 58.7508 74.5529 58.6854 75.2406C58.6201 76.0429 58.6528 76.8453 58.6854 77.6312C58.6854 77.7458 59.0122 77.7458 58.9958 77.6312C58.9305 76.2394 58.8651 74.7985 59.3552 73.4722C59.6003 72.8172 59.9597 72.2114 60.2047 71.5564C60.4334 70.9506 60.6131 70.3284 60.8255 69.7062C61.0542 69.0185 61.3319 68.3471 61.7403 67.7413C61.773 67.6758 61.675 67.643 61.626 67.6266H61.6423Z" fill="#62838F"/>
    <path d="M74.7439 71.2946C74.7439 71.2946 74.5806 71.2618 74.5152 71.2946C72.5712 72.3589 70.5945 73.4396 68.4381 74.0454C67.8337 74.2092 67.2292 74.3402 66.5921 74.422C66.5431 74.422 66.4614 74.4711 66.4778 74.5366C66.5104 74.6021 66.6248 74.6022 66.6738 74.6022C68.9282 74.3074 71.0356 73.3741 73.0286 72.3425C73.6004 72.0478 74.1722 71.7367 74.7276 71.4256C74.7929 71.3928 74.7766 71.3437 74.7276 71.2946H74.7439Z" fill="#62838F"/>
    <path d="M83.3365 73.849C85.2805 78.6302 87.0612 83.4933 88.6458 88.4056C89.7567 91.8441 91.0799 95.0698 92.4195 98.3937C93.6774 101.505 94.7229 104.829 97.01 107.367C97.7941 108.235 98.7089 108.971 99.5584 109.757C101.764 111.771 103.675 114.096 105.57 116.405C106.077 117.027 106.714 118.272 105.57 118.501C104.819 118.648 103.642 118.125 102.858 118.075C101.159 117.944 99.4604 117.944 97.7614 117.895C96.5526 117.863 95.4417 117.208 94.2818 116.88C91.0962 115.996 88.1884 113.982 86.1137 111.411C84.3494 109.233 82.7811 106.876 81.4742 104.387C80.8207 103.142 80.2326 101.865 79.7099 100.555C79.2524 99.4089 79.1218 98.2464 78.697 97.1166C76.5243 91.3038 74.3189 85.7202 74.2045 79.3998C74.1719 77.7952 74.2862 76.1414 74.9233 74.6677C75.4788 73.4069 76.4753 72.3099 77.7985 71.8186C78.3376 71.6221 78.9421 71.311 79.4648 71.1473C81.4905 70.5414 82.6504 72.1789 83.3202 73.8163L83.3365 73.849Z" fill="#98BCB5"/>
    <path d="M65.587 125.67C65.7465 126.024 66.0378 126.33 66.3568 126.525C68.0834 127.574 69.7684 125.037 70.663 123.918C71.8002 122.493 72.9374 121.069 74.0746 119.637C74.2688 119.394 74.4768 119.143 74.7611 119.011C75.094 118.858 75.3228 118.977 75.6626 119.074C76.3768 119.275 77.1119 119.387 77.8261 119.143C78.0272 119.074 78.256 118.921 78.2144 118.712C77.521 118.476 76.8553 118.143 76.148 117.941C75.1495 117.649 74.248 117.677 73.4228 118.323C72.5491 119.004 71.6754 119.672 70.76 120.297C69.1929 121.361 67.7089 122.549 66.3013 123.814C66.0031 124.085 65.698 124.37 65.5524 124.745C65.4276 125.065 65.4622 125.385 65.594 125.677L65.587 125.67Z" fill="#F79974"/>
    <path d="M70.9376 131.846C74.2212 131.732 77.5211 131.584 80.8047 131.355C84.8725 131.077 88.9239 130.667 92.9589 130.258C94.7722 130.078 96.5856 129.898 98.3989 129.718C100.833 129.472 103.3 129.226 105.554 128.326C106.926 127.769 108.233 126.95 109.246 125.853C109.769 125.28 110.047 124.543 110.52 123.97C111.517 122.775 112.35 121.907 111.991 120.188C111.713 118.878 110.749 117.748 109.655 117.077C107.939 116.029 105.897 115.734 103.904 115.472L91.4233 113.786C89.0055 113.458 86.5714 113.131 84.121 113.18C82.6507 113.213 81.1805 113.376 79.7102 113.589C74.8583 114.277 70.0718 115.39 65.416 116.897C63.1126 117.65 60.8582 118.501 58.6201 119.451C57.2478 120.041 53.8989 120.908 53.3925 122.513C53.1638 123.25 53.2945 124.036 53.4905 124.773C53.9643 126.557 54.7811 128.244 55.8756 129.734C56.529 130.635 57.3295 131.47 58.375 131.863C59.2245 132.174 60.1394 132.157 61.0379 132.141C64.3214 132.059 67.6214 131.994 70.905 131.879L70.9376 131.846Z" fill="#62838F"/>
    <path d="M85.5094 82.4455C85.346 80.2514 85.1336 78.0245 84.4638 75.9286C83.8757 74.1111 82.8792 72.3591 81.4416 71.1147C81.4089 71.1147 81.3763 71.0983 81.3599 71.0655C81.2619 70.9673 81.1476 70.8854 81.0496 70.7872C81.0496 70.7872 81.0496 70.7872 81.0332 70.7708C80.9515 70.7053 80.8699 70.6398 80.7718 70.5743C80.0694 70.0831 79.3016 69.7065 78.6154 69.1989C78.2561 68.9369 77.9293 68.6422 77.6189 68.3474C76.8021 67.8726 75.9526 67.4305 75.0868 67.0539C73.9759 66.5627 72.8324 66.1369 71.6725 65.8095C70.529 65.482 69.3691 65.22 68.2092 65.089C67.6375 65.0235 67.0657 64.9744 66.4939 64.958C66.1345 65.0726 65.7915 65.1872 65.4321 65.3182C62.8346 66.2352 60.4168 66.7591 58.4565 68.7895C58.3911 68.855 58.3095 68.9369 58.2441 69.0188C56.4471 71 55.2873 73.4725 54.3234 75.9778C51.6933 82.8221 51.3502 91.0255 51.0562 98.3447C50.7294 106.401 51.1215 114.473 51.824 122.497C51.873 123.02 51.9547 123.61 52.3794 123.921C52.6244 124.101 52.9348 124.15 53.2452 124.183C54.0784 124.281 54.9279 124.33 55.761 124.363C58.2605 124.429 60.7599 124.232 63.243 123.987C69.0261 123.413 75.1685 122.464 79.5139 118.599C80.4124 117.797 81.2129 116.88 82.0134 115.98C82.4381 115.488 82.8792 114.997 83.1243 114.408C83.7287 113 83.2386 111.395 82.9772 109.872C82.0624 104.796 83.7124 99.7529 84.8232 94.8571C85.248 92.9577 85.7381 90.8618 85.8524 88.9297C85.9668 86.8174 85.6891 84.5905 85.542 82.4946L85.5094 82.4455Z" fill="#98BCB5"/>
    <path d="M106.836 162.104C106.836 162.104 106.808 161.993 106.797 161.945C106.558 160.976 105.372 161.152 104.544 161.071C103.695 160.979 102.855 160.917 102.007 160.892C101.345 160.871 100.762 160.695 100.68 161.525C100.494 163.712 100.467 165.927 100.284 168.13C100.201 169.229 100.047 170.313 99.8763 171.4C99.7507 172.19 99.9236 172.619 100.78 172.676C101.775 172.75 102.607 172.779 103.607 172.598C104.492 172.429 105.828 172.519 106.196 171.483C106.384 170.948 106.204 170.352 106.218 169.792C106.248 169.026 106.279 168.26 106.325 167.49C106.43 165.93 106.582 164.358 106.77 162.794C106.798 162.568 106.827 162.342 106.808 162.128L106.836 162.104Z" fill="#FCD9BA"/>
    <path d="M114.073 175.2C114.073 175.2 114.033 175.234 114.024 175.255L99.1402 174.995C99.1349 174.892 99.1145 174.795 99.1092 174.691C99.0928 174.469 99.0856 174.226 99.1056 174.008C99.149 173.13 99.3955 172.277 99.8689 171.512C99.9795 171.345 100.105 171.173 100.321 171.141C100.552 171.102 100.745 171.237 100.947 171.351C101.678 171.784 102.756 172.027 103.575 171.74C104.119 171.561 104.583 171.221 104.963 170.843C105.125 170.674 105.296 170.484 105.513 170.364C105.744 170.237 106.017 170.218 106.269 170.277C107.002 170.445 107.643 171.054 108.293 171.413C109.033 171.825 109.822 172.182 110.623 172.482C111.304 172.741 111.997 172.943 112.65 173.266C113.043 173.462 113.714 173.831 114.047 174.28C114.263 174.564 114.321 174.892 114.079 175.216L114.073 175.2Z" fill="#98BCB5"/>
    <path d="M114.073 175.201C114.073 175.201 114.034 175.234 114.024 175.256L99.1425 174.996C99.1373 174.893 99.1168 174.796 99.1116 174.692C99.0951 174.47 99.088 174.227 99.1079 174.009L114.032 174.287C114.248 174.57 114.306 174.899 114.064 175.222L114.073 175.201Z" fill="white"/>
    <path d="M110.752 172.995C110.692 172.842 110.477 172.786 110.314 172.728C109.458 172.379 108.65 171.976 107.856 171.515C107.418 171.248 106.98 170.981 106.566 170.687C106.497 170.644 106.403 170.628 106.327 170.658C106.281 170.676 106.196 170.727 106.265 170.77C107.065 171.334 107.893 171.835 108.763 172.265C109.199 172.481 109.628 172.681 110.082 172.854C110.167 172.891 110.319 172.919 110.385 172.999C110.457 173.093 110.38 173.211 110.322 173.287C110.23 173.411 109.746 173.882 109.869 174.062C110.043 174.328 110.375 173.828 110.421 173.722C110.474 173.631 110.526 173.541 110.578 173.45C110.67 173.326 110.817 173.162 110.737 173.001L110.752 172.995Z" fill="white"/>
    <path d="M101.942 173.801C101.765 172.851 101.271 171.902 100.364 171.38C100.295 171.337 100.191 171.343 100.115 171.372C100.054 171.396 100.048 171.469 100.111 171.497C100.97 171.986 101.415 172.901 101.59 173.799C101.623 173.927 101.969 173.914 101.942 173.801Z" fill="white"/>
    <path d="M107.776 170.771C107.776 170.771 107.683 170.756 107.646 170.752C107.616 170.764 107.564 170.767 107.54 170.794C107.347 170.975 107.155 171.157 106.977 171.332C106.928 171.386 106.982 171.435 107.025 171.453C107.067 171.472 107.119 171.469 107.155 171.472C107.185 171.461 107.231 171.443 107.262 171.431C107.454 171.249 107.647 171.068 107.824 170.893C107.873 170.839 107.819 170.79 107.776 170.771Z" fill="#62838F"/>
    <path d="M108.55 171.224C108.55 171.224 108.368 171.207 108.313 171.247C108.13 171.406 107.967 171.576 107.805 171.745C107.775 171.757 107.772 171.793 107.777 171.808C107.789 171.839 107.832 171.857 107.853 171.867C107.895 171.885 107.947 171.882 107.983 171.886C108.014 171.874 108.065 171.871 108.09 171.844C108.246 171.659 108.414 171.505 108.597 171.345C108.646 171.291 108.592 171.242 108.55 171.224Z" fill="#62838F"/>
    <path d="M109.475 171.704C109.475 171.704 109.421 171.655 109.4 171.646C109.357 171.628 109.306 171.63 109.269 171.627C109.239 171.639 109.187 171.642 109.163 171.669C109.031 171.826 108.899 171.984 108.752 172.147C108.722 172.159 108.719 172.195 108.725 172.21C108.737 172.241 108.779 172.259 108.8 172.269C108.842 172.287 108.894 172.284 108.93 172.288C108.961 172.276 109.012 172.273 109.037 172.246C109.169 172.088 109.3 171.931 109.447 171.768C109.478 171.756 109.481 171.72 109.475 171.704Z" fill="#62838F"/>
    <path d="M110.371 172.021C110.371 172.021 110.189 172.005 110.134 172.044C109.935 172.21 109.764 172.4 109.62 172.615C109.604 172.621 109.622 172.667 109.643 172.676C109.655 172.706 109.713 172.719 109.749 172.722C109.822 172.729 109.925 172.723 109.974 172.669C110.008 172.62 110.042 172.572 110.076 172.524C110.106 172.512 110.109 172.475 110.134 172.448C110.134 172.448 110.164 172.436 110.158 172.421C110.247 172.333 110.336 172.246 110.43 172.173C110.485 172.134 110.425 172.07 110.383 172.051L110.371 172.021Z" fill="#62838F"/>
    <path d="M106.821 168.408C107.732 168.552 109.773 169.108 110.627 168.745C111.266 168.468 111.15 167.519 111.26 166.8C111.588 164.645 111.092 162.492 111.266 160.324C111.382 158.744 111.883 157.22 112.106 155.664C112.711 151.686 111.697 147.638 111.834 143.608C111.899 141.956 112.233 140.373 112.437 138.737C112.629 137.189 112.523 135.529 112.524 133.96C112.559 130.681 112.558 127.393 112.375 124.117C112.233 121.488 112.094 118.251 109.122 117.403C108.124 117.112 107.048 117.328 106.028 117.564C104.878 117.816 103.727 118.068 102.646 118.538C100.367 119.542 99.2223 121.394 99.0119 123.824C98.8134 126.234 98.9242 128.668 99.031 131.087C99.4184 139.708 99.8496 148.234 99.3645 156.87C99.2005 159.625 98.9889 162.392 99.2295 165.149C99.325 166.221 99.5694 166.666 100.532 166.882C101.586 167.127 102.652 167.486 103.714 167.762C104.724 168.034 105.77 168.247 106.805 168.412L106.821 168.408Z" fill="#62838F"/>
    <path d="M74.0522 60.9855C74.0522 60.9855 74.0574 61.001 74.0626 61.0165C74.0626 61.0165 74.0677 61.0321 74.0729 61.0476C74.1813 61.9947 74.052 62.9526 74.0933 63.905C74.0984 63.9723 74.1036 64.0396 74.1088 64.1069C74.1398 64.4071 74.1811 64.7383 74.2224 65.0696C74.3102 65.6958 74.3566 66.3532 74.2015 66.9228C74.0826 67.3423 73.8241 67.7051 73.5657 68.0678C73.0746 68.7673 72.6196 69.472 72.144 70.1664C71.8701 70.5861 71.5495 71.1767 70.9861 71.193C70.6967 71.2038 70.4279 71.1214 70.1592 71.0389C68.9652 70.6628 67.7661 70.2711 66.6135 69.7602C65.8072 69.4094 65.0423 69.131 64.665 68.5673C64.4583 68.257 64.3653 67.874 64.4429 67.3304C64.7274 65.1299 65.0016 62.9502 65.2861 60.7497C65.3999 59.9006 65.3379 58.7308 65.7205 57.9641C65.9997 57.4046 66.6975 56.86 67.1679 56.4608C67.9329 55.8074 68.6462 55.9306 69.5249 56.2399C71.2253 56.8431 72.9878 57.9432 73.7371 59.6245C73.7474 59.6555 73.7577 59.6866 73.7681 59.7176C73.9386 60.1263 74.0419 60.5403 74.0832 60.9751L74.0522 60.9855Z" fill="#FCD9BA"/>
    <path d="M74.0494 60.9879C74.0494 60.9879 74.0546 61.0034 74.0598 61.0189C74.0598 61.0189 74.0649 61.0345 74.0701 61.05C74.1785 61.9971 74.0492 62.9549 74.0905 63.9073C73.9458 63.8868 73.7752 63.8405 73.6098 63.8097C72.4779 63.5163 70.4209 62.7221 70.8707 61.1737C71.212 60.024 72.6902 59.8045 73.7033 59.6373C73.7136 59.6684 73.7239 59.6994 73.7343 59.7305C73.9048 60.1392 74.0081 60.5531 74.0494 60.9879Z" fill="#C1AC76"/>
    <path d="M73.9455 47.541C73.9455 47.541 73.992 47.5772 74.0178 47.603C74.1987 47.784 74.3073 48.11 74.4468 48.322C74.638 48.5858 74.8034 48.8755 74.9223 49.1808C75.1549 49.724 74.9948 50.3816 75.2274 50.9249C75.3256 51.1681 75.553 51.3335 75.7494 51.5092C75.9768 51.7264 76.2145 51.9228 76.4678 52.114C76.9639 52.5171 77.4962 52.8737 78.0543 53.2043C78.4367 53.4212 78.876 53.6536 79.0207 54.0883C79.2482 54.7713 78.6333 55.2535 78.1993 55.6578C77.7291 56.1088 77.9204 56.8902 78.0445 57.4181C78.2357 58.1477 78.5459 58.8203 78.7062 59.5603C78.9078 60.4763 78.8356 61.3461 77.9313 61.839C76.6602 62.5239 75.1823 62.7949 73.7561 62.7034C72.6347 62.6479 71.5392 62.3593 70.5056 61.9465C69.6116 61.5904 68.4696 61.4727 67.7357 60.8214C66.976 60.1442 66.2009 60.611 65.2656 60.4931C64.2786 60.3753 63.3225 59.6776 62.6558 59.021C61.8961 58.2921 61.2914 57.4076 60.6919 56.5387C60.0975 55.6853 59.5032 54.7801 59.317 53.7553C59.0895 52.5547 59.4769 51.2859 60.1382 50.2187C60.8047 49.1671 61.7193 48.2911 62.6493 47.4617C63.662 46.5701 64.6179 45.7666 65.9149 45.3146C66.8295 45.0081 67.7545 44.8878 68.7053 44.7417C69.5941 44.6164 70.4726 44.9259 71.2478 45.3391C72.2917 45.8865 73.1341 46.7085 73.9506 47.5565L73.9455 47.541Z" fill="#FCD9BA"/>
    <path d="M63.0897 61.8759C63.7461 62.3461 64.4541 62.7646 65.2912 62.7946C65.901 62.8146 66.2989 62.4569 66.6141 61.9544C66.9344 61.4674 67.1875 60.9338 67.3838 60.3849C67.6318 59.6805 67.7712 58.9608 68.0037 58.2617C68.2103 57.6402 68.7787 57.2254 69.1042 56.6504C70.2408 54.6818 68.432 52.6652 68.7521 50.5734C68.8812 49.6673 69.3978 48.8384 70.1264 48.2836C70.7878 47.7859 71.6301 47.5208 72.1416 46.8835C73.2318 45.5517 73.185 43.2378 71.2368 42.8726C70.5908 42.744 69.9191 42.7448 69.268 42.8595C68.715 42.9586 68.157 43.1456 67.5937 43.1618C66.7152 43.1629 65.8677 42.7395 65.0047 42.8389C64.5241 42.8964 64.0797 43.1144 63.6508 43.3272C62.9429 43.6852 62.2195 44.0485 61.7131 44.6496C61.3411 45.0849 61.1035 45.6132 60.7728 46.0692C59.9926 47.1417 58.6336 47.8733 58.3806 49.1833C58.174 50.2189 58.7529 51.2328 58.9597 52.2679C59.2027 53.4634 58.9393 54.6906 58.8619 55.9072C58.8001 57.1186 59.0069 58.4643 59.9269 59.2604C60.4282 59.6791 61.0845 59.8905 61.591 60.3247C62.1594 60.7899 62.5109 61.4832 63.1156 61.9017L63.0897 61.8759Z" fill="#553A12"/>
    <path d="M74.552 49.9952C74.552 49.9952 74.4693 49.9022 74.428 49.8815C74.0611 49.6077 73.5083 49.9655 73.1932 50.1573C72.7747 50.4011 72.4441 50.8052 72.1807 51.204C71.9121 51.5873 71.6745 52.0638 71.7882 52.5087C71.7985 52.5397 71.8037 52.5552 71.814 52.5863C71.9432 52.6638 72.3306 52.0681 72.4029 51.9749C72.5011 51.8557 72.6199 51.7469 72.7387 51.6381C73.1778 51.2494 73.6531 50.9176 74.1904 50.7202C74.3144 50.6787 74.4384 50.6371 74.5314 50.5542C74.6864 50.3987 74.6605 50.1659 74.5572 50.0108L74.552 49.9952Z" fill="#553A12"/>
    <path d="M71.1628 56.6712C71.1628 56.6712 71.1524 56.6402 71.1473 56.6247C70.7233 55.2999 68.5578 53.5579 67.3384 55.0193C66.9043 55.5272 66.8269 56.2779 67.0544 56.9092C67.4628 58.1357 69.3337 59.5622 70.6669 58.9082C71.4834 58.5138 71.3902 57.4061 71.1628 56.6712V56.6712Z" fill="#FCD9BA"/>
    <path d="M74.0213 52.9009C73.9696 52.7457 73.9179 52.5904 73.9799 52.4661C74.0212 52.3832 74.0832 52.3106 74.1711 52.2639C74.3985 52.1187 74.6259 52.1806 74.7758 52.3719C74.8636 52.4805 74.9308 52.6306 74.9619 52.7755C75.0084 52.9152 75.0291 53.0809 75.0291 53.2362C75.024 53.3242 74.9981 53.4019 74.9516 53.4693C74.7087 53.775 74.44 53.6408 74.2797 53.4183C74.2074 53.3045 74.0936 53.1183 74.0109 52.9217L74.0213 52.9009Z" fill="#553A12"/>
    <path d="M69.1752 46.8409C69.6868 46.5658 70.2398 46.2597 70.5448 45.7261C70.8394 45.2133 70.7413 44.6597 70.5759 44.1113C70.5346 43.9871 70.8189 43.8573 70.855 43.9659C70.9532 44.2608 71.0203 44.5661 71.0203 44.8766C71.0203 45.1872 70.9427 45.4719 70.7877 45.731C70.4465 46.3111 69.8264 46.6743 69.2424 46.9909C69.1959 47.0065 69.0873 47.0429 69.0667 46.9808C69.046 46.9187 69.1287 46.8565 69.17 46.8254L69.1752 46.8409Z" fill="#62838F"/>
    <path d="M66.2096 46.0045C66.2096 46.0045 66.3077 45.8853 66.3543 45.8697C66.6798 45.7606 67.0054 45.5997 67.2017 45.3096C67.3619 45.0662 67.4446 44.7452 67.3362 44.4711C67.3 44.3625 67.5635 44.2224 67.6152 44.3258C67.7443 44.662 67.6513 45.0554 67.4498 45.33C67.1914 45.6926 66.778 45.9002 66.3646 46.056C66.3181 46.0716 66.2354 46.0821 66.2147 46.02L66.2096 46.0045Z" fill="#62838F"/>
    <path d="M59.7185 56.034C59.7133 55.9149 59.9874 55.8057 60.0132 55.9351C60.0959 57.012 60.7628 57.9793 61.7142 58.4542C61.7762 58.4852 61.7038 58.5785 61.6573 58.5941C61.6004 58.6304 61.5228 58.6564 61.4608 58.6255C60.4835 58.1246 59.8011 57.1108 59.7133 56.0184L59.7185 56.034Z" fill="#62838F"/>
    <path d="M62.2957 55.3954C62.3112 55.2867 62.5852 55.1776 62.5903 55.2966C62.5334 56.1613 63.4328 56.5845 64.0996 56.8268C64.2392 56.8836 64.0065 57.0651 63.9083 57.029C63.5155 56.8846 63.0968 56.7144 62.7763 56.4249C62.4817 56.1613 62.2698 55.7837 62.3112 55.3902L62.2957 55.3954Z" fill="#62838F"/>
    <path d="M76.7891 58.3091C76.2002 58.5582 75.4872 58.3831 75.048 57.9438C74.9705 57.8662 74.6863 57.996 74.769 58.089C75.2909 58.6214 76.1485 58.7653 76.846 58.4798C76.8925 58.4642 77.001 58.4278 76.9751 58.3502C76.9545 58.2882 76.8356 58.2935 76.7943 58.3246L76.7891 58.3091Z" fill="#C1AC76"/>
    <path d="M82.215 106.565C81.4962 105.141 80.8264 103.683 80.2056 102.226C79.5848 100.752 79.0131 99.2623 78.474 97.7559C77.9349 96.2494 77.4448 94.7267 76.9547 93.2039C76.4809 91.6811 76.0235 90.1419 75.5988 88.6028C75.1577 87.0636 74.7493 85.5244 74.3245 83.9689C74.2755 83.7724 74.2265 83.5759 74.1612 83.3794C74.1285 83.2812 73.8181 83.2976 73.8508 83.4285C74.2592 84.9677 74.6839 86.5233 75.1087 88.0624C75.5334 89.6016 75.9908 91.1408 76.4483 92.6799C76.922 94.2027 77.4121 95.7255 77.9349 97.2483C78.4576 98.7547 79.0294 100.245 79.6338 101.718C80.2383 103.192 80.8917 104.649 81.6105 106.074C81.6922 106.254 81.7902 106.434 81.8882 106.614C81.9373 106.712 82.2476 106.68 82.1986 106.565H82.215Z" fill="#62838F"/>
    <path d="M79.7642 113.574C78.2286 114.638 76.6276 115.588 74.9613 116.423C73.295 117.258 71.5634 117.978 69.799 118.584C68.0347 119.173 66.2377 119.648 64.4081 120.009C62.5784 120.352 60.7161 120.582 58.8537 120.68C56.9914 120.778 55.1291 120.745 53.2667 120.565C53.038 120.549 52.8093 120.516 52.5806 120.5C52.5316 120.5 52.4173 120.5 52.3846 120.565C52.3519 120.631 52.4499 120.663 52.4989 120.68C54.3776 120.893 56.2563 120.958 58.1513 120.893C60.03 120.827 61.9086 120.647 63.771 120.32C65.6333 119.992 67.463 119.55 69.2599 118.977C71.0569 118.404 72.8049 117.716 74.5039 116.897C76.2029 116.079 77.8528 115.145 79.4211 114.097C79.6171 113.966 79.8132 113.835 79.9929 113.705C80.1399 113.606 79.8622 113.524 79.7642 113.574V113.574Z" fill="#62838F"/>
    <path d="M82.9008 76.0442C82.9008 76.0442 82.7537 75.9951 82.6884 76.0115C81.1201 76.3881 79.8786 77.5506 78.882 78.7787C77.8202 80.1214 76.9054 81.6114 76.3336 83.2324C76.0232 84.1494 75.8108 85.0827 75.7455 86.0488C75.7455 86.1634 76.0559 86.1634 76.0559 86.0488C76.1702 84.3459 76.742 82.7248 77.5588 81.2348C77.9672 80.498 78.441 79.7775 78.9474 79.1062C79.4211 78.4839 79.9602 77.8781 80.5647 77.3705C81.2345 76.8138 81.9859 76.3553 82.8354 76.1588C82.8844 76.1588 82.9334 76.0933 82.8844 76.0442H82.9008Z" fill="#62838F"/>
    <path d="M74.7478 66.8679C73.6369 66.3767 72.4934 65.9509 71.3335 65.6235C70.19 65.296 69.0301 65.034 67.8702 64.903C67.2984 64.8375 66.7267 64.7884 66.1549 64.772C65.7955 64.8866 65.4524 65.0012 65.093 65.1322C62.4956 66.0492 60.0778 66.5731 58.1175 68.6035C58.1175 68.6527 58.0848 68.7018 58.0685 68.7509C57.2516 71.5345 60.5679 73.3029 62.8713 73.4175C64.4233 73.4994 65.9752 73.1391 67.5108 72.8444C71.1211 72.1567 74.9601 71.7801 77.917 69.586C78.0967 69.455 78.2927 69.2912 78.3091 69.062C78.3091 69.062 78.3091 69.0456 78.3091 69.0292C77.9497 68.7673 77.623 68.4725 77.3126 68.1778C76.4958 67.703 75.6463 67.2609 74.7805 66.8842L74.7478 66.8679Z" fill="#62838F"/>
    <path d="M77.6729 68.8654C80.2051 68.8654 78.3754 71.1086 77.1175 71.6981C74.8304 72.7788 72.478 73.7449 70.1582 74.7601C66.5479 76.3483 62.7906 77.9694 58.8372 77.8711C57.8407 77.8384 56.9585 75.939 56.5828 75.1367C56.011 73.9086 55.668 72.5659 55.6026 71.2233C55.5046 69.4221 56.1744 67.8338 57.8897 67.097C59.3273 66.4748 61.0589 67.0643 62.5129 67.2771C65.2737 67.6701 67.9529 68.4397 70.6973 68.8982C72.1513 69.1438 73.6215 69.3075 75.0918 69.2748C75.5982 69.2748 76.7418 68.9473 77.6403 68.8818L77.6729 68.8654Z" fill="white"/>
    <path d="M61.3366 67.4407C61.3366 67.4407 61.1895 67.4407 61.1405 67.5062C60.4054 68.5869 60.1277 69.8968 59.6866 71.1248C59.5723 71.4359 59.4579 71.7471 59.3109 72.0418C59.1638 72.3693 58.9841 72.6968 58.8535 73.0242C58.5757 73.6628 58.4451 74.3669 58.3797 75.0546C58.3144 75.857 58.347 76.6593 58.3797 77.4452C58.3797 77.5599 58.7064 77.5599 58.6901 77.4452C58.6247 76.0534 58.5594 74.6125 59.0495 73.2862C59.2945 72.6313 59.6539 72.0254 59.899 71.3705C60.1277 70.7646 60.3074 70.1424 60.5198 69.5202C60.7485 68.8325 61.0262 68.1611 61.4346 67.5553C61.4673 67.4898 61.3692 67.457 61.3202 67.4407H61.3366Z" fill="#62838F"/>
    <path d="M74.4382 71.1086C74.4382 71.1086 74.2748 71.0759 74.2095 71.1086C72.2655 72.1729 70.2888 73.2536 68.1324 73.8595C67.528 74.0232 66.9235 74.1542 66.2864 74.2361C66.2374 74.2361 66.1557 74.2852 66.172 74.3507C66.2047 74.4162 66.3191 74.4162 66.3681 74.4162C68.6225 74.1214 70.7299 73.1881 72.7229 72.1565C73.2947 71.8618 73.8664 71.5507 74.4219 71.2396C74.4872 71.2069 74.4709 71.1577 74.4219 71.1086H74.4382Z" fill="#62838F"/>
    <path d="M139.611 50.6896C139.735 47.7813 139.876 44.8865 140.063 41.9862C140.24 39.1338 140.201 32.34 143.89 31.451C144.841 31.2136 145.912 31.4599 146.67 32.0856C147.823 33.0377 148.155 34.663 148.284 36.1567C148.465 38.2198 148.414 40.295 148.347 42.3719C148.191 47.5088 147.957 52.6548 147.676 57.7909C147.54 60.2028 147.389 62.6165 146.857 64.9665C146.796 65.2382 146.721 65.5271 146.528 65.7367C146.295 65.9978 145.915 66.0739 145.566 66.1465C144.504 66.3659 143.44 66.57 142.359 66.636C141.648 66.6737 140.603 66.9067 139.943 66.5805C139.086 66.1689 139.298 65.1947 139.309 64.3689C139.325 61.8623 139.354 59.3386 139.416 56.8266C139.469 54.7668 139.539 52.7205 139.622 50.6571L139.611 50.6896Z" fill="#FCD9BA"/>
    <path d="M145.31 62.0567C144.549 61.6648 143.617 61.542 142.789 61.6403C139.527 62.0585 138.887 66.5216 138.574 69.1412C137.767 76.0197 137.387 82.9564 137.082 89.8688C137.031 90.886 137.179 92.1441 138.402 92.2323C139.28 92.2992 140.319 91.8803 140.538 90.9676C141.559 86.8327 142.446 82.6204 143.723 78.5485C144.975 74.5263 145.919 70.4006 146.626 66.2408C146.771 65.3525 146.911 64.4335 146.639 63.579C146.415 62.859 145.903 62.3441 145.289 62.0125L145.31 62.0567Z" fill="#FCD9BA"/>
    <path d="M141.871 95.2444C141.803 95.0658 141.707 94.9061 141.624 94.7293C141.38 94.2448 141.208 93.7052 141.128 93.1547C141.104 92.9553 141.13 92.7811 141.122 92.5798C141.09 92.3036 141.025 92.0158 140.963 91.7586C140.804 91.2019 140.549 90.7499 140.186 90.3107C139.879 89.9427 139.295 89.872 138.832 89.8959C137.69 89.9692 137.075 90.6801 136.838 91.5793C136.055 94.5658 136.886 97.9207 138.512 100.512C138.588 100.628 138.681 100.757 138.839 100.785C139.014 100.811 139.185 100.681 139.243 100.519C139.304 100.372 139.269 100.205 139.235 100.053C139.298 100.326 139.496 100.551 139.79 100.672C140.233 100.868 140.276 100.443 140.194 100.142C140.036 99.4603 139.897 98.8078 139.725 98.1437C139.554 97.4796 139.435 96.7315 139.398 96.0203C139.371 95.5257 139.343 95.0311 139.408 94.5256C139.446 94.3189 139.433 93.947 139.745 93.9566C139.902 93.9691 140.039 94.0773 140.148 94.2045C140.307 94.3722 140.44 94.5742 140.542 94.7799C140.663 95.0145 140.755 95.268 140.889 95.4854C141.024 95.7028 141.219 95.9129 141.475 95.9759C141.957 96.1054 142.012 95.6477 141.892 95.2886C141.888 95.2579 141.885 95.2272 141.867 95.2137L141.871 95.2444Z" fill="#FCD9BA"/>
    <path d="M140.083 35.2943C138.916 37.9218 138.504 41.1597 138.072 43.5601C137.186 48.4411 136.791 53.4037 136.394 58.3511C136.974 58.3912 137.845 58.6611 138.397 58.5956C139.536 58.896 140.852 58.7241 142.031 58.8331C144.323 59.0277 146.618 59.1131 148.912 59.0586C148.717 55.2861 149.027 51.4535 149.078 47.6672C149.133 43.7716 149.126 39.8834 149.055 35.9871C149.044 35.1017 149.014 34.1874 148.745 33.3483C148.475 32.5092 147.929 31.7028 147.124 31.3317C146.057 30.8516 144.072 31.025 143.042 31.6451C141.707 32.4569 140.773 33.7656 140.098 35.2925L140.083 35.2943Z" fill="#FFFDF8"/>
    <path d="M140.819 153.858C140.819 153.858 140.841 153.732 140.862 153.665C141.147 152.541 142.293 152.804 143.072 152.754C143.886 152.695 144.712 152.671 145.524 152.672C146.156 152.666 146.746 152.513 146.773 153.485C146.836 156.068 146.761 158.652 146.824 161.235C146.846 162.529 146.941 163.802 147.042 165.093C147.113 166.013 146.922 166.51 146.115 166.527C145.151 166.551 144.338 166.55 143.385 166.271C142.538 166.02 141.243 166.061 140.936 164.811C140.771 164.179 140.987 163.495 141.009 162.828C141.022 161.924 141.034 161.019 141.01 160.126C140.988 158.291 140.924 156.449 140.805 154.623C140.79 154.367 140.769 154.093 140.814 153.84L140.819 153.858Z" fill="#FCD9BA"/>
    <path d="M133.936 171.335C133.936 171.335 133.984 171.361 134.007 171.374L149.683 167.138C149.65 167.027 149.654 166.906 149.617 166.777C149.559 166.514 149.502 166.25 149.426 165.993C149.14 165.016 148.636 164.105 147.903 163.36C147.739 163.208 147.552 163.043 147.317 163.052C147.064 163.067 146.888 163.279 146.72 163.448C146.065 164.121 145.005 164.694 144.045 164.596C143.415 164.542 142.823 164.276 142.305 163.929C142.081 163.774 141.858 163.62 141.596 163.537C141.31 163.441 141.031 163.503 140.756 163.645C140.02 164.041 139.516 164.89 138.936 165.481C138.258 166.141 137.546 166.751 136.775 167.298C136.139 167.765 135.451 168.188 134.855 168.724C134.477 169.055 133.879 169.652 133.66 170.256C133.515 170.639 133.549 171.029 133.894 171.328L133.936 171.335Z" fill="#62838F"/>
    <path d="M133.937 171.336C133.937 171.336 133.984 171.362 134.008 171.375L149.682 167.139C149.65 167.029 149.654 166.908 149.616 166.779C149.559 166.516 149.502 166.252 149.426 165.995L133.697 170.247C133.552 170.629 133.587 171.019 133.932 171.318L133.937 171.336Z" fill="#4A565D"/>
    <path d="M136.806 167.949C136.831 167.761 137.052 167.636 137.194 167.514C138.003 166.896 138.755 166.214 139.453 165.488C139.847 165.072 140.216 164.643 140.58 164.195C140.637 164.119 140.728 164.092 140.825 164.083C140.88 164.067 140.979 164.138 140.917 164.196C140.233 165.038 139.496 165.836 138.701 166.57C138.309 166.925 137.895 167.268 137.474 167.592C137.394 167.655 137.235 167.722 137.208 167.83C137.143 167.949 137.278 168.07 137.359 168.146C137.494 168.266 138.13 168.679 138.056 168.901C137.942 169.255 137.464 168.775 137.372 168.662C137.303 168.563 137.216 168.468 137.116 168.398C136.982 168.277 136.8 168.13 136.819 167.925L136.806 167.949Z" fill="#4A565D"/>
    <path d="M146.38 166.551C146.304 165.413 146.549 164.22 147.354 163.382C147.416 163.324 147.525 163.292 147.609 163.307C147.693 163.323 147.714 163.396 147.652 163.455C146.891 164.239 146.677 165.403 146.75 166.462C146.757 166.62 146.381 166.691 146.385 166.57L146.38 166.551Z" fill="#4A565D"/>
    <path d="M139.325 164.645C139.325 164.645 139.416 164.618 139.471 164.602C139.507 164.591 139.568 164.594 139.597 164.625C139.838 164.774 140.104 164.936 140.345 165.085C140.416 165.124 140.378 165.195 140.31 165.235C140.274 165.246 140.219 165.262 140.164 165.278C140.128 165.289 140.086 165.282 140.039 165.255C139.797 165.106 139.532 164.944 139.29 164.796C139.219 164.756 139.257 164.685 139.325 164.645Z" fill="white"/>
    <path d="M138.645 165.366C138.645 165.366 138.822 165.294 138.911 165.327C139.148 165.458 139.371 165.612 139.594 165.766C139.618 165.779 139.647 165.811 139.616 165.84C139.627 165.877 139.578 165.911 139.541 165.922C139.505 165.933 139.45 165.949 139.395 165.965C139.359 165.976 139.304 165.992 139.27 165.942C139.046 165.788 138.823 165.634 138.586 165.503C138.515 165.464 138.554 165.392 138.621 165.353L138.645 165.366Z" fill="white"/>
    <path d="M137.8 166.134C137.8 166.134 137.839 166.063 137.875 166.052C137.912 166.041 137.967 166.025 138.021 166.009C138.058 165.998 138.113 165.982 138.147 166.032C138.329 166.179 138.528 166.32 138.71 166.466C138.715 166.485 138.763 166.511 138.732 166.54C138.742 166.577 138.693 166.612 138.657 166.622C138.62 166.633 138.565 166.649 138.511 166.665C138.474 166.676 138.42 166.692 138.385 166.642C138.204 166.496 138.004 166.354 137.822 166.208C137.798 166.195 137.769 166.163 137.8 166.134Z" fill="white"/>
    <path d="M136.95 166.746C136.95 166.746 137.132 166.692 137.216 166.707C137.476 166.851 137.723 167.018 137.921 167.22C137.926 167.239 137.937 167.275 137.924 167.299C137.911 167.323 137.862 167.358 137.826 167.368C137.753 167.39 137.643 167.422 137.585 167.359C137.533 167.315 137.48 167.27 137.427 167.226C137.404 167.212 137.375 167.181 137.351 167.168C137.351 167.168 137.327 167.155 137.304 167.142C137.18 167.058 137.08 166.988 136.944 166.928C136.873 166.889 136.911 166.817 136.979 166.777L136.95 166.746Z" fill="white"/>
    <path d="M173.519 137.846C173.519 137.846 173.432 137.751 173.385 137.725C172.601 136.875 173.448 136.046 173.838 135.35C174.242 134.631 174.669 133.925 175.102 133.237C175.457 132.692 175.627 132.122 176.452 132.639C178.633 133.998 180.731 135.481 182.912 136.839C184.003 137.519 185.119 138.15 186.23 138.764C187.033 139.207 187.356 139.633 186.929 140.339C186.438 141.164 185.987 141.857 185.248 142.515C184.585 143.09 183.921 144.207 182.708 143.784C182.089 143.566 181.65 143.014 181.103 142.635C180.362 142.133 179.621 141.631 178.861 141.135C177.323 140.147 175.755 139.188 174.179 138.272C173.943 138.141 173.724 138.005 173.519 137.846V137.846Z" fill="#FCD9BA"/>
    <path d="M184.296 153.266C184.296 153.266 184.35 153.25 184.369 153.244L189.35 137.648C189.35 137.648 189.143 137.549 189.03 137.502C188.781 137.395 188.537 137.307 188.275 137.224C187.298 136.931 186.265 136.855 185.259 137.072C185.04 137.136 184.803 137.206 184.676 137.383C184.561 137.598 184.624 137.879 184.694 138.119C184.903 139.038 184.784 140.254 184.193 141.008C183.803 141.503 183.273 141.859 182.711 142.105C182.466 142.217 182.198 142.316 181.994 142.497C181.771 142.682 181.653 142.957 181.624 143.266C181.554 144.107 181.993 144.998 182.152 145.812C182.344 146.736 182.462 147.682 182.502 148.631C182.541 149.44 182.538 150.241 182.65 151.029C182.717 151.529 182.9 152.356 183.268 152.868C183.503 153.199 183.84 153.4 184.296 153.266V153.266Z" fill="#62838F"/>
    <path d="M184.296 153.265C184.296 153.265 184.351 153.249 184.369 153.244L189.351 137.647C189.351 137.647 189.143 137.548 189.03 137.502C188.781 137.395 188.537 137.307 188.275 137.224L183.286 152.862C183.522 153.193 183.858 153.394 184.314 153.26L184.296 153.265Z" fill="#4A565D"/>
    <path d="M183.04 148.972C182.882 148.839 182.908 148.591 182.878 148.42C182.798 147.402 182.64 146.388 182.408 145.396C182.283 144.832 182.121 144.279 181.941 143.732C181.914 143.64 181.923 143.537 181.985 143.479C182.011 143.431 182.11 143.362 182.137 143.454C182.481 144.494 182.734 145.56 182.908 146.629C182.987 147.167 183.059 147.686 183.096 148.215C183.104 148.313 183.074 148.482 183.143 148.582C183.218 148.7 183.382 148.651 183.478 148.643C183.643 148.595 184.345 148.288 184.478 148.469C184.703 148.763 184.048 148.896 183.915 148.915C183.8 148.929 183.667 148.948 183.557 148.98C183.393 149.028 183.156 149.098 183.003 148.983L183.04 148.972Z" fill="#4A565D"/>
    <path d="M187.08 140.116C186.106 139.563 185.238 138.698 184.977 137.534C184.955 137.46 184.996 137.328 185.058 137.27C185.12 137.211 185.185 137.232 185.189 137.311C185.429 138.401 186.28 139.211 187.184 139.725C187.307 139.809 187.175 140.168 187.075 140.098L187.08 140.116Z" fill="#4A565D"/>
    <path d="M181.668 145.033C181.668 145.033 181.677 144.93 181.703 144.882C181.716 144.858 181.741 144.811 181.772 144.782C182.03 144.646 182.311 144.523 182.568 144.387C182.641 144.366 182.681 144.434 182.679 144.495C182.69 144.531 182.669 144.598 182.644 144.645C182.636 144.687 182.605 144.717 182.574 144.746C182.317 144.882 182.036 145.004 181.778 145.14C181.705 145.162 181.666 145.093 181.668 145.033Z" fill="white"/>
    <path d="M181.894 146.007C181.894 146.007 181.937 145.815 182.004 145.775C182.243 145.644 182.488 145.532 182.738 145.439C182.774 145.428 182.793 145.422 182.822 145.454C182.832 145.491 182.843 145.528 182.854 145.564C182.865 145.601 182.844 145.667 182.819 145.715C182.806 145.739 182.78 145.786 182.749 145.815C182.499 145.909 182.255 146.021 182.016 146.152C181.943 146.173 181.903 146.105 181.905 146.044L181.894 146.007Z" fill="white"/>
    <path d="M182.09 147.15C182.09 147.15 182.069 147.076 182.058 147.039C182.047 147.002 182.068 146.936 182.093 146.889C182.106 146.865 182.132 146.817 182.163 146.788C182.382 146.724 182.608 146.617 182.827 146.553C182.863 146.542 182.881 146.537 182.911 146.568C182.921 146.605 182.932 146.642 182.943 146.679C182.954 146.715 182.933 146.781 182.908 146.829C182.895 146.853 182.869 146.9 182.838 146.929C182.619 146.994 182.393 147.101 182.174 147.165C182.138 147.176 182.119 147.181 182.09 147.15Z" fill="white"/>
    <path d="M182.121 148.203C182.121 148.203 182.164 148.01 182.232 147.97C182.484 147.816 182.752 147.717 183.049 147.649C183.085 147.638 183.114 147.67 183.12 147.688C183.131 147.725 183.147 147.78 183.134 147.804C183.119 147.889 183.068 147.984 182.995 148.005C182.922 148.027 182.867 148.043 182.794 148.064C182.758 148.075 182.721 148.086 182.703 148.091L182.685 148.097C182.685 148.097 182.648 148.107 182.63 148.113C182.502 148.15 182.385 148.225 182.25 148.305C182.183 148.344 182.138 148.258 182.14 148.197L182.121 148.203Z" fill="white"/>
    <path d="M133.79 109.097C133.345 111.029 133.063 112.973 132.792 114.954C132.608 116.289 131.896 117.779 132.982 118.92C133.557 119.531 134.358 119.835 135.162 120.078C137.322 120.762 139.626 121.124 141.855 120.826C144.102 120.524 146.294 119.557 147.819 117.867C149.762 115.714 150.424 112.697 151.537 110.008C152.232 108.322 153.133 106.735 154.035 105.149C155.628 102.338 157.221 99.5273 158.984 96.8263C159.821 95.559 160.963 94.3217 161.629 92.9447C162.218 91.7105 162.797 90.4395 163.446 89.2075C165.534 85.25 168.01 81.3983 169.027 76.9565C169.932 72.9476 169.57 68.7322 168.768 64.7065C168.039 60.9992 166.729 57.0633 163.624 54.9772C162.883 54.4752 162 54.0953 161.124 54.2135C160.459 54.3095 159.869 54.6633 159.309 55.0486C156.611 56.9246 154.492 59.2903 152.911 62.1379C152.148 63.5233 150.935 64.7215 150.059 66.0601C149.153 67.4279 148.328 68.8717 147.564 70.3178C144.494 76.2656 142.519 82.7107 140.351 89.033C140.203 89.4767 140.056 89.9204 139.885 90.351C137.721 96.552 135.24 102.686 133.779 109.06L133.79 109.097Z" fill="#98BCB5"/>
    <path d="M181.592 137.345C180.867 138.86 180.166 140.387 179.412 141.87C179.252 141.797 179.11 141.719 178.95 141.646C177.28 140.878 175.597 140.133 173.915 139.389C170.483 137.879 167.039 136.393 163.57 134.955C157.686 132.507 151.704 130.329 145.943 127.625C143.783 126.601 141.606 125.522 139.775 124.001C138.675 123.084 137.678 121.978 137.261 120.62C136.458 117.875 137.949 115.394 140.165 113.901C142.627 112.234 146.881 113.241 149.49 114.173C152.188 115.138 154.268 116.766 156.693 118.152C159.406 119.714 162.082 121.346 164.718 123.05C168.067 125.224 171.315 127.528 174.493 129.933C177.091 131.909 179.768 133.821 182.322 135.849C182.071 136.343 181.843 136.851 181.597 137.364L181.592 137.345Z" fill="#98BCB5"/>
    <path d="M143.967 159.352C142.873 159.475 141.761 159.602 140.662 159.706C140.639 159.492 140.603 159.303 140.567 159.113C140.232 157.291 139.878 155.473 139.524 153.656C138.795 149.949 138.029 146.251 137.203 142.552C135.825 136.293 134.169 130.096 133.089 123.77C132.67 121.392 132.323 118.992 132.508 116.576C132.622 115.141 132.949 113.684 133.835 112.582C135.602 110.361 138.486 110.192 140.98 111.198C143.742 112.306 145.379 116.407 146.107 119.094C146.862 121.874 146.748 124.53 146.99 127.32C147.275 130.458 147.482 133.6 147.592 136.75C147.734 140.751 147.737 144.753 147.583 148.761C147.468 152.157 147.447 155.605 147.23 158.992C146.155 159.108 145.061 159.23 143.99 159.365L143.967 159.352Z" fill="#98BCB5"/>
    <path d="M146.466 127.931C144.859 127.384 143.357 126.585 141.937 125.663C140.512 124.722 139.12 123.691 137.866 122.519C136.558 121.303 135.534 119.904 135.045 118.167C134.533 116.417 134.489 114.508 134.592 112.697C134.698 110.824 135.097 109.006 135.603 107.215C136.14 105.396 136.701 103.59 137.28 101.778C138.431 98.1969 139.665 94.6311 140.97 91.1044C142.289 87.554 143.678 84.0428 145.162 80.5837C145.351 80.1476 145.522 79.7169 145.717 79.2993C145.788 79.1381 145.964 79.4667 145.918 79.5803C144.467 82.9496 143.07 86.3634 141.779 89.8056C140.47 93.2532 139.232 96.7399 138.084 100.26C137.507 102.011 136.953 103.776 136.418 105.534C135.883 107.293 135.33 109.057 135.051 110.88C134.762 112.667 134.711 114.523 134.921 116.322C135.034 117.249 135.231 118.192 135.599 119.044C135.944 119.883 136.461 120.632 137.052 121.298C138.177 122.568 139.58 123.635 140.961 124.629C142.313 125.592 143.734 126.454 145.253 127.107C145.639 127.274 146.043 127.435 146.436 127.56C146.567 127.601 146.62 127.986 146.484 127.926L146.466 127.931Z" fill="#62838F"/>
    <path d="M166.125 44.3306C167.996 52.2509 169.231 60.2769 170.194 68.3224C170.682 72.3533 171.083 76.3961 171.485 80.4389C171.651 82.0713 171.585 83.7447 171.729 85.3444C171.827 86.3689 172.714 87.9824 171.803 88.815C171.423 89.1537 170.866 89.2037 170.356 89.2203C163.111 89.289 156.783 84.3187 149.921 81.8112C147.665 80.986 143.458 80.3851 142.616 77.9869C142.072 76.4244 142.281 74.1407 142.13 72.4972C141.968 70.6673 141.818 68.8538 141.672 67.0127C141.099 59.8349 140.629 52.634 140.452 45.4464C140.36 41.9157 139.932 37.1877 142.178 34.3277C144.731 31.0586 148.654 29.5512 152.592 28.7127C156.735 27.8281 160.307 30.7448 162.447 34.2255C164.331 37.3033 165.296 40.8299 166.113 44.3142L166.125 44.3306Z" fill="white"/>
    <path d="M143.913 70.0344C145.234 70.6889 146.555 71.3434 147.896 71.9603C149.238 72.5772 150.6 73.1565 151.987 73.6716C153.359 74.1976 154.767 74.6751 156.185 75.0993C157.592 75.5079 159.024 75.8522 160.471 76.1167C161.907 76.3656 163.368 76.5504 164.822 76.624C165.013 76.6296 165.189 76.6463 165.38 76.652C165.475 76.6548 165.456 76.7612 165.393 76.8052C165.352 76.8805 165.236 76.9153 165.151 76.9281C163.681 76.8654 162.199 76.7184 160.748 76.4805C159.296 76.2425 157.875 75.9138 156.452 75.5162C155.03 75.1186 153.632 74.6568 152.245 74.1417C150.857 73.6267 149.479 73.0583 148.122 72.4524C146.765 71.8465 145.439 71.2187 144.118 70.5642C143.941 70.4787 143.792 70.3978 143.615 70.3123C143.476 70.247 143.769 69.9958 143.881 70.0564L143.913 70.0344Z" fill="#98BCB5"/>
    <path d="M154.071 68.0086C154.071 68.0086 154.228 67.8987 154.313 67.8859C156.584 67.9913 158.788 67.3305 160.879 66.5401C161.469 66.313 162.058 66.0859 162.637 65.8431C162.684 65.8101 162.8 65.7754 162.823 65.8754C162.835 65.9598 162.736 66.0525 162.678 66.0699C160.546 66.9354 158.357 67.8183 156.056 68.1056C155.41 68.1858 154.748 68.2083 154.106 68.1931C154.011 68.1903 154.03 68.0838 154.082 68.0242L154.071 68.0086Z" fill="#98BCB5"/>
    <path d="M143.486 9.08895C143.486 9.08895 143.492 9.02012 143.49 8.97729C143.583 7.76403 144.38 6.68758 145.402 6.0575C146.423 5.42742 147.648 5.16727 148.846 5.09687C150.147 5.0141 151.048 5.34946 152.253 5.64773C153.33 5.90792 154.471 5.69379 155.554 5.88514C156.961 6.11584 158.237 7.05504 158.881 8.34383C159.328 9.23666 159.474 10.2522 159.771 11.2278C160.06 12.1867 160.52 13.182 161.402 13.6811C162.101 14.0841 162.921 14.1135 163.69 14.368C166.213 15.1663 168.513 18.7186 169.028 21.1963C169.256 22.3204 169.22 23.6774 168.347 24.3792C167.91 24.7301 167.346 24.8884 166.944 25.2637C166.306 25.8795 166.263 26.8678 166.113 27.74C165.698 29.9863 164.019 31.9879 161.857 32.6347C159.668 33.274 157.092 32.4176 155.842 30.4993C155.039 29.2765 154.439 27.1968 154.691 25.7202C154.923 24.3645 155.572 23.0189 154.096 21.9928C153.473 21.5699 152.709 21.4439 152.071 21.073C151.119 20.525 150.51 19.458 150.328 18.3752C150.145 17.2923 150.326 16.1615 150.682 15.1101C150.9 14.4413 151.176 13.7188 150.901 13.0598C150.267 11.5905 148.076 12.187 146.83 11.9331C145.385 11.6352 143.521 10.8895 143.58 9.10264L143.486 9.08895Z" fill="#B36332"/>
    <path d="M144.686 38.3085C144.84 38.3628 145.025 38.3262 145.173 38.2694C146.322 37.9059 147.48 37.1184 148.557 36.5502C149.865 35.8436 151.113 35.0167 152.404 34.2522C153.327 33.6986 154.239 33.0605 155.25 32.7006C155.925 32.4606 156.154 31.6494 156.149 31.0033C156.151 30.839 156.122 30.6968 156.077 30.5655C155.92 30.0716 155.549 29.7739 155.196 29.301C154.106 27.9042 153.043 26.512 152 25.0821C151.375 24.2189 150.74 23.3401 150.12 22.4503C149.935 22.1849 149.675 21.5771 149.325 21.5438C149.07 21.5133 148.605 21.9545 148.379 22.0663C148.332 22.0993 143.1 24.5549 143.084 24.5659C142.489 24.8197 141.575 25.0182 141.422 25.6367C141.398 25.7698 141.384 25.9184 141.446 26.1075C142.084 28.3319 144.438 29.5635 145.17 31.7219C145.276 32.0422 145.351 32.3846 145.379 32.76C145.502 34.3461 144.643 35.8304 144.362 37.374C144.294 37.7465 144.318 38.2174 144.681 38.3352L144.686 38.3085Z" fill="#FCD9BA"/>
    <path d="M145.174 31.6947C146.898 31.1151 148.191 29.5824 148.664 27.8114C148.798 27.2993 148.893 26.6294 148.876 25.9676C148.85 25.4279 148.756 24.89 148.527 24.4934C148.052 23.711 146.977 23.813 146.182 23.8124C145.047 23.7941 143.872 24.2218 142.874 24.735C142.374 24.9916 141.897 25.2795 141.441 25.5985C141.417 25.7316 141.404 25.8802 141.465 26.0694C142.103 28.2937 144.458 29.5254 145.19 31.6837L145.174 31.6947Z" fill="#CB9C7B"/>
    <path d="M150.735 22.4322C150.342 24.2171 149.694 25.9715 148.65 27.4925C147.636 28.9914 146.122 30.6093 144.243 30.8327C142.392 31.0608 140.62 29.7928 139.394 28.5372C138.428 27.5186 137.541 26.5138 137.029 25.1761C136.702 24.337 136.48 23.4474 136.121 22.6303C135.9 22.1115 135.647 21.6147 135.41 21.107C135.073 20.3211 134.836 19.5114 134.605 18.675C134.474 18.1857 134.328 17.7074 134.282 17.2053C134.201 16.5187 134.26 15.6643 134.594 15.0358C134.923 14.434 135.108 13.7935 135.373 13.1668C135.999 11.6831 137.015 10.3218 138.427 9.49592C139.182 9.03666 140.052 8.77578 140.924 8.5837C141.753 8.39801 142.588 8.25454 143.422 8.34421C144.203 8.42465 144.934 8.70241 145.64 9.04438C146.8 9.60239 147.878 10.3108 148.717 11.2798C150.037 12.7714 150.303 14.6293 150.759 16.4928C151.222 18.3986 151.162 20.461 150.72 22.4432L150.735 22.4322Z" fill="#FCD9BA"/>
    <path d="M140.158 20.501C140.158 20.501 140.174 20.49 140.189 20.479C140.49 20.4076 140.69 21.1972 140.736 21.3973C140.849 21.8289 140.894 22.2622 140.896 22.7019C140.906 23.2526 140.778 23.807 140.776 24.3422C140.762 25.026 141.638 25.1093 142.163 25.0904C142.438 25.0833 142.299 25.32 142.093 25.3253C141.61 25.3378 140.962 25.2804 140.585 24.9404C140.397 24.7705 140.361 24.5171 140.377 24.273C140.393 23.96 140.451 23.6406 140.467 23.3275C140.496 22.8659 140.499 22.3996 140.432 21.9351C140.391 21.7083 140.339 21.4659 140.271 21.2345C140.21 21.0454 140.025 20.78 140.075 20.5827C140.084 20.5294 140.131 20.4964 140.179 20.4634L140.158 20.501Z" fill="#CB9C7B"/>
    <path d="M136.199 22.0287C136.199 22.0287 136.178 22.0663 136.174 22.0929C136.158 22.1039 136.118 22.2479 136.065 22.2387C136.043 22.2075 136.021 22.1762 136.015 22.134C135.99 21.8963 136.044 21.6725 136.099 21.4486C136.239 20.9789 136.369 20.2046 136.724 19.9094C137.132 19.5546 137.617 19.4848 138.217 19.5242C138.603 19.5495 139.086 19.1945 139.171 19.7855C139.19 19.981 139.044 20.1066 138.892 20.19C138.708 20.2953 138.334 20.2346 138.334 20.2346C138.334 20.2346 137.795 20.0327 137.245 20.235C136.898 20.3624 136.735 20.5935 136.551 20.9302C136.397 21.2116 136.307 21.814 136.199 22.0287C136.245 21.9268 136.153 22.1305 136.199 22.0287Z" fill="#B36332"/>
    <path d="M146.495 18.3272C146.259 17.8884 145.293 17.1144 144.877 16.9875C143.935 16.7417 142.989 17.3215 142.116 17.7466C141.785 17.9088 141.513 18.4244 141.999 18.6184C142.138 18.6837 142.291 18.6691 142.445 18.6546C142.794 18.619 142.987 17.9422 143.48 17.6997C143.977 17.4555 144.35 17.2978 144.877 17.4652C145.29 17.5962 145.462 18.0521 145.744 18.156C145.952 18.2195 146.311 18.4326 146.495 18.3272Z" fill="#B36332"/>
    <path d="M144.275 19.8029C144.362 19.6259 144.563 19.5783 144.749 19.6106C144.902 19.596 145.057 19.6503 145.175 19.7532C145.342 19.8919 145.457 20.0902 145.498 20.317C145.544 20.5171 145.548 20.7236 145.471 20.9163C145.39 21.1356 145.191 21.252 144.969 21.2684C144.969 21.2684 144.969 21.2684 144.942 21.2638C144.915 21.2592 144.873 21.2655 144.836 21.2453C144.836 21.2453 144.782 21.2361 144.756 21.2315C144.703 21.2223 144.665 21.2021 144.612 21.1928C144.414 21.0761 144.266 20.831 144.21 20.6152C144.181 20.4729 144.178 20.3353 144.176 20.1976C144.184 20.0755 144.193 19.9534 144.239 19.8516L144.275 19.8029Z" fill="#4A565D"/>
    <path d="M138.426 21.8061C138.487 21.6244 138.692 21.5502 138.873 21.5402C139.026 21.5256 139.186 21.5533 139.309 21.6296C139.507 21.7463 139.622 21.9447 139.694 22.1494C139.756 22.3385 139.786 22.5496 139.752 22.7359C139.698 22.9598 139.504 23.1185 139.282 23.1348C139.282 23.1348 139.282 23.1348 139.266 23.1458C139.235 23.1678 139.197 23.1476 139.171 23.143C139.171 23.143 139.129 23.1494 139.102 23.1448C139.049 23.1356 138.996 23.1263 138.958 23.1061C138.728 23.0114 138.576 22.7928 138.493 22.5725C138.448 22.4412 138.419 22.2989 138.417 22.1612C138.399 22.0346 138.407 21.9125 138.453 21.8107L138.426 21.8061Z" fill="#4A565D"/>
    <path d="M134.179 16.7891C134.012 15.7445 133.941 14.7028 134.267 13.6613C134.629 12.5024 135.337 11.4723 136.203 10.634C137.652 9.22449 139.475 8.25023 141.428 7.76529C143.629 7.19977 146.222 7.80018 148.037 9.13055C149.417 10.1384 150.466 11.6104 151.067 13.2106C151.667 14.8108 151.825 16.5814 151.664 18.2967C151.6 18.8757 151.422 19.6273 150.974 20.0574C150.4 20.5755 150.303 19.598 150.043 19.2921C149.843 19.0378 149.236 18.3012 148.945 18.6213C148.846 18.7139 148.737 18.8598 148.593 18.8211C148.513 18.8073 148.459 18.7292 148.415 18.6668C148.024 18.1048 148.023 17.432 147.747 16.8353C147.543 16.3744 147.306 15.8667 147.028 15.4342C146.696 14.9236 146.235 14.3634 145.736 14.0161C145.259 13.7 144.572 13.5536 144.014 13.4568C142.796 13.2181 141.513 13.2566 140.298 13.4575C139.013 13.6603 137.721 14.054 136.647 14.8287C136.066 15.2358 135.598 15.7723 135.108 16.2777C134.822 16.5711 134.552 16.9225 134.26 17.1737C134.242 17.047 134.223 16.9204 134.194 16.7781L134.179 16.7891Z" fill="#B36332"/>
    <path d="M151.781 18.2652C151.942 18.6636 152.013 19.1014 152.005 19.5255C151.999 20.3892 151.336 23.4313 149.871 22.4362C149.093 21.8895 148.94 20.4631 148.851 19.5966C148.744 18.6034 149.161 16.9873 150.447 17.1554C150.957 17.2163 151.398 17.5811 151.645 18.0356C151.688 18.098 151.727 18.1871 151.755 18.2606L151.781 18.2652Z" fill="#FCD9BA"/>
    <path d="M152.273 8.17323C153.731 7.74958 155.423 7.7451 156.623 8.83154C156.957 9.12183 157.22 9.47829 157.401 9.88459C157.431 9.93368 157.443 10.0618 157.358 10.0689C157.273 10.076 157.203 9.96149 157.173 9.9124C156.574 8.56897 154.955 8.14581 153.607 8.27625C153.209 8.3183 152.799 8.41296 152.415 8.51407C152.281 8.5511 152.123 8.22022 152.273 8.17323V8.17323Z" fill="#98491F"/>
    <path d="M143.264 7.68675C143.264 7.68675 143.421 7.57672 143.506 7.56393C144.985 7.57333 146.442 8.08659 147.603 9.01543C147.721 9.11832 147.445 9.35858 147.337 9.27131C146.186 8.35808 144.772 7.83847 143.304 7.84469C143.208 7.84186 143.228 7.73537 143.29 7.69136L143.264 7.68675Z" fill="#98491F"/>
    <path d="M149.403 15.1897C149.417 13.5309 148.747 11.9322 147.555 10.7921C147.463 10.6938 147.751 10.4691 147.87 10.572C149.061 11.7121 149.748 13.3686 149.734 15.0274C149.731 15.1229 149.663 15.1935 149.589 15.2219C149.558 15.2439 149.399 15.2851 149.403 15.1897V15.1897Z" fill="#98491F"/>
    <path d="M135.459 13.9612C135.397 12.7975 135.827 11.6369 136.65 10.8052C136.713 10.7612 136.823 10.6842 136.882 10.7356C136.957 10.776 136.885 10.8733 136.848 10.9219C136.109 11.672 135.719 12.7574 135.791 13.7991C135.793 13.9367 135.473 14.1145 135.459 13.9612Z" fill="#98491F"/>
    <path d="M137.643 11.7596C137.643 11.7596 137.768 11.6027 137.841 11.5743C137.899 11.5569 137.995 11.5598 137.98 11.6396C137.913 12.0122 137.967 12.3923 138.126 12.7219C138.17 12.7844 138.097 12.8816 138.024 12.91C137.977 12.943 137.84 13.0154 137.812 12.942C137.631 12.5811 137.586 12.1478 137.659 11.7486L137.643 11.7596Z" fill="#98491F"/>
    <path d="M154.859 34.0955C155.111 33.5602 155.408 33.0867 155.796 32.8055C158.045 31.1059 160.839 33.407 162.06 35.2965C163.724 37.8991 162.926 42.3321 162.578 45.1932C162.281 47.6652 161.73 50.0152 161.437 52.4606C161.214 54.3146 160.183 56.3983 159.436 58.115C158.644 59.9344 157.511 62.0774 155.623 63.3273C154.995 63.7351 153.229 65.2387 152.503 65.412C151.198 65.6995 151.626 65.1241 150.321 65.4116C149.81 65.5229 149.025 63.947 148.689 63.5793C148.375 63.2425 148.251 60.6632 148.342 60.1983C148.761 57.7318 148.561 57.7911 149.034 55.333C149.903 50.6373 152.986 46.8057 153.424 42.0696C153.558 40.4207 153.693 38.7718 154.041 37.1564C154.204 36.3333 154.459 35.114 154.897 34.1151L154.859 34.0955Z" fill="#F7D2B1"/>
    <path d="M160.19 28.9651C164.049 30.4481 165.159 35.3318 165.777 38.9744C166.522 43.253 166.888 47.5952 166.883 51.9475C166.881 53.2887 166.64 54.9208 165.399 55.3964C165.033 55.5442 164.608 55.5459 164.211 55.5518C162.923 55.5682 161.646 55.6001 160.344 55.5322C159.164 55.4699 157.983 55.3387 156.801 55.2076C155.124 55.0123 153.457 54.8324 151.765 54.6483C150.018 54.4558 149.505 54.0053 149.339 52.1039C149.225 50.7993 149.55 49.5772 149.676 48.3104C149.921 45.9943 150.154 43.6628 150.398 41.3468C150.586 39.542 150.774 37.7371 151.137 35.9462C151.421 34.4714 151.842 32.9908 152.664 31.7375C154.413 29.0833 157.605 27.97 160.164 28.961L160.19 28.9651Z" fill="white"/>
    <path d="M161.556 55.4754C161.556 55.4754 161.689 55.332 161.773 55.3179C162.535 55.2596 163.303 55.2436 164.069 55.1586C164.709 55.0949 165.422 55.0015 165.943 54.5769C166.46 54.179 166.585 53.5006 166.617 52.8897C166.652 52.1832 166.606 51.4642 166.598 50.7648C166.513 47.7946 166.233 44.8485 165.883 41.9052C165.689 40.2594 165.469 38.6095 165.264 36.9482C165.244 36.8219 165.576 36.6278 165.592 36.7808C165.781 38.289 165.982 39.8126 166.171 41.3207C166.345 42.8401 166.518 44.3595 166.639 45.8706C166.77 47.397 166.875 48.9192 166.911 50.4444C166.925 51.1859 166.967 51.9315 166.955 52.6689C166.929 53.3219 166.824 53.9625 166.385 54.4684C165.915 54.9969 165.207 55.2278 164.532 55.3408C163.799 55.472 163.03 55.4882 162.257 55.531C162.051 55.5396 161.856 55.5636 161.649 55.5722C161.565 55.5863 161.52 55.5246 161.56 55.4487L161.556 55.4754Z" fill="#98BCB5"/>
    <path d="M149.458 53.7806C149.284 53.3426 149.241 52.8567 149.236 52.3904C149.239 51.8708 149.27 51.3553 149.326 50.8441C149.531 48.6039 149.721 46.375 149.914 44.1194C150.026 42.8638 150.125 41.5927 150.252 40.3259C150.259 40.2037 150.603 40.025 150.583 40.2272L149.997 46.8564L149.701 50.15C149.655 50.6767 149.609 51.2034 149.579 51.7188C149.553 52.2076 149.554 52.7005 149.655 53.1681C149.755 53.6356 149.974 54.1354 150.412 54.3822C150.839 54.6135 151.334 54.5134 151.781 54.7068C151.921 54.7699 151.648 55.0145 151.519 54.9668C151.121 54.8085 150.673 54.8749 150.264 54.7011C149.866 54.5428 149.599 54.1723 149.458 53.7806Z" fill="#98BCB5"/>
    <path d="M158.201 52.4299C159.321 51.5245 160.236 50.3679 160.909 49.1047C161.602 47.8036 162.042 46.3806 162.306 44.9436C162.453 44.1317 162.536 43.296 162.561 42.4786C162.563 42.3831 162.63 42.3114 162.703 42.2819C162.734 42.2594 162.892 42.2158 162.89 42.3113C162.846 43.8238 162.611 45.3338 162.151 46.7948C161.696 48.2291 161.048 49.5919 160.112 50.7865C159.589 51.4709 158.984 52.0739 158.323 52.5997C158.276 52.6335 158.157 52.6968 158.112 52.6351C158.067 52.5733 158.165 52.4791 158.212 52.4453L158.201 52.4299Z" fill="#98BCB5"/>
    <path d="M155.149 44.2293C155.685 43.6291 156.128 42.9321 156.465 42.2184C156.504 42.1425 156.598 42.0751 156.682 42.0609C156.766 42.0468 156.811 42.1086 156.771 42.1844C156.395 42.9741 155.921 43.6936 155.349 44.3429C155.287 44.3879 155.178 44.4666 155.118 44.4161C155.042 44.3769 155.113 44.2785 155.149 44.2293Z" fill="#98BCB5"/>
    <path d="M140.946 35.596C142.248 41.4498 143.546 47.3305 144.848 53.1843C145.222 54.8765 145.599 56.5419 146.155 58.1917C146.687 59.8109 147.388 61.3992 148.008 62.9762C148.335 63.7876 148.694 64.6717 149.403 65.1685C150.075 65.6462 150.979 65.7062 151.782 65.5058C152.584 65.3055 153.294 64.887 153.991 64.4532C154.408 64.1845 154.841 63.9043 155.188 63.5437C156.25 62.4239 155.965 60.8808 155.603 59.518C155.201 58.0403 154.556 56.651 153.937 55.2656C151.989 50.9868 150.068 46.7118 148.12 42.433C147.144 40.2591 146.153 38.0968 145.177 35.9229C144.419 34.2581 144.011 31.7004 141.684 32.4085C141.144 32.5779 140.813 33.1183 140.727 33.6661C140.64 34.2139 140.767 34.792 140.886 35.328C140.902 35.4122 140.918 35.4964 140.934 35.5807L140.946 35.596Z" fill="#F7D2B1"/>
    <path d="M145.288 34.3408C144.907 35.1609 144.305 35.2805 143.475 35.3813C143.087 35.4355 142.713 35.4782 142.329 35.5056C141.574 35.5488 141.151 35.5571 140.737 34.8837C140.099 33.8507 139.772 32.6295 139.453 31.4505C139.248 30.7385 139.009 29.9807 138.945 29.234C138.889 28.5295 138.716 27.8902 138.824 27.1816C138.86 26.9135 138.922 26.6491 139.073 26.4382C139.258 26.1775 139.52 26.0508 139.527 26.5027C139.549 27.2571 139.713 28.0725 139.929 28.7997C139.972 28.9835 140.236 29.8678 140.403 29.4271C140.485 29.2202 140.341 28.8719 140.316 28.6498C140.283 28.2899 140.249 27.93 140.215 27.5701C140.148 26.8502 140.081 26.1304 140.002 25.3953C139.969 25.1311 139.954 24.7328 140.143 24.5411C140.302 24.3723 140.625 24.2953 140.787 24.5095C140.856 24.6013 140.88 24.7276 140.904 24.8539C141.118 26.2093 141.07 27.5956 141.546 28.9199C141.617 29.1074 141.856 29.4556 141.952 29.1414C141.993 29.038 141.981 28.9269 141.969 28.8159C141.844 27.6098 141.707 26.3884 141.582 25.1822C141.533 24.8338 141.426 24.3131 141.64 24.0294C142.006 23.5349 142.464 24.078 142.529 24.5107C142.647 25.3607 142.712 26.203 142.83 27.053C142.923 27.6809 143.017 28.4045 143.354 28.944C143.413 28.8022 143.393 28.6491 143.361 28.4806C143.264 27.8795 143.209 27.2707 143.154 26.6619C143.124 26.2752 142.745 24.7325 143.339 24.6665C143.533 24.6394 143.706 24.7732 143.821 24.9262C143.937 25.0792 143.966 25.2744 144.009 25.4582C144.185 26.3847 144.22 27.3458 144.381 28.2838C144.457 28.7317 144.617 29.1643 144.721 29.616C144.748 29.7155 145.017 30.7644 145.032 30.7529C145.141 30.6455 145.151 30.4693 145.173 30.3085C145.265 29.5156 145.357 28.7228 145.904 28.0901C145.965 28.044 146.017 27.9559 146.101 27.9404C146.188 27.8982 146.284 27.8981 146.375 27.9247C147.193 28.1226 146.65 28.8242 146.502 29.3223C146.272 30.0273 146.13 30.7857 145.992 31.5174C145.809 32.475 145.73 33.379 145.349 34.2948C145.334 34.3063 145.326 34.3599 145.311 34.3714L145.288 34.3408Z" fill="#F7D2B1"/>
    <path d="M159.768 11.2287C159.47 10.253 159.324 9.23738 158.877 8.34438L152.25 16.7598C152.433 17.8427 153.146 18.9916 154.099 19.5399C154.737 19.9111 153.476 21.5682 154.099 21.9914C155.575 23.0181 154.926 24.3635 154.695 25.7191C154.443 27.1956 155.045 29.2755 155.847 30.4987C157.098 32.4174 159.674 33.2748 161.862 32.6365C164.023 31.9904 165.701 29.9895 166.115 27.7434C166.265 26.8713 166.307 25.883 166.945 25.2674C167.346 24.8923 167.91 24.7342 168.347 24.3835C169.22 23.6821 169.255 22.325 169.027 21.2008C168.511 18.723 166.21 15.1698 163.687 14.3705C162.918 14.1157 162.099 14.0859 161.4 13.6827C160.517 13.1832 160.057 12.1877 159.768 11.2287Z" fill="#B36332"/>
    <path d="M154.744 17.8539C155.706 17.6948 156.618 18.2902 157.174 19.0641C157.874 20.0444 157.945 21.2966 157.88 22.4453C157.807 23.6626 157.546 24.8878 157.762 26.0891C157.969 27.2303 158.644 28.2448 159.616 28.8747C160.639 29.5219 161.942 29.7072 163.09 29.3688C163.235 29.318 163.389 29.6702 163.262 29.7125C162.241 30.0085 161.117 29.9269 160.128 29.477C159.097 28.9841 158.252 28.0974 157.824 27.0239C157.353 25.8644 157.417 24.6299 157.551 23.4043C157.675 22.2044 157.842 20.9189 157.363 19.7852C156.969 18.8232 155.962 18.0389 154.907 18.2233C154.771 18.2484 154.634 17.8878 154.796 17.8713L154.744 17.8539Z" fill="#98491F"/>
    <path d="M94.5989 76.9154C94.5989 76.6173 94.8581 76.3855 95.1543 76.4185L98.569 76.7988C98.8221 76.827 99.0136 77.041 99.0136 77.2957V78.7478C99.0136 79.0458 98.7545 79.2777 98.4583 79.2447L95.0436 78.8644C94.7904 78.8362 94.5989 78.6222 94.5989 78.3675V76.9154Z" fill="#7BBAED"/>
    <path d="M100.928 78.5088L98.9974 79.1538L97.1127 78.9439L99.0254 76.8138L100.928 78.5088Z" fill="#7BBAED" stroke="#7BBAED" stroke-width="0.3" stroke-linejoin="round"/>
    <path d="M101.957 76.5592C101.957 76.2178 101.622 75.9768 101.298 76.0849L99.3552 76.7342C99.1512 76.8023 99.0136 76.9933 99.0136 77.2084V78.6123C99.0136 78.9538 99.3482 79.1948 99.672 79.0866L101.615 78.4374C101.819 78.3692 101.957 78.1782 101.957 77.9631V76.5592Z" fill="#A0D0F6"/>
    <path d="M97.8002 75.722L100.991 76.0418L98.9973 76.6957L95.5554 76.3389L97.8002 75.722Z" fill="#EFEFEF" stroke="#E2E2E2" stroke-width="0.3"/>
    <mask id="mask0_86_5503" style="mask-type:alpha" maskUnits="userSpaceOnUse" x="96" y="72" width="5" height="5">
      <path d="M96.3394 73.3475C96.327 73.0424 96.5885 72.7974 96.8922 72.8297L100.325 73.1954C100.571 73.2216 100.761 73.4244 100.771 73.6719L100.864 75.9364C100.877 76.2416 100.615 76.4866 100.311 76.4543L96.8785 76.0886C96.6322 76.0623 96.4422 75.8596 96.4321 75.612L96.3394 73.3475Z" fill="#7BBAED"/>
    </mask>
    <g mask="url(#mask0_86_5503)">
      <rect width="0.392505" height="0.491581" transform="matrix(0.999145 -0.0413363 0.0408143 0.999167 98.1724 74.9545)" fill="#FEDC92"/>
      <path d="M99.2766 73.1378L97.561 73.2085L97.3159 73.2186L96.8459 73.7299L98.3869 75.3883L99.7869 73.6087L99.2766 73.1378Z" fill="#FFEFD4"/>
      <path d="M97.3363 73.7098L97.0912 73.72L98.3768 75.1426L99.542 73.6186L99.2969 73.6287L98.3667 74.897L97.3363 73.7098Z" fill="#FED379"/>
      <ellipse rx="0.245305" ry="0.245782" transform="matrix(0.999145 -0.0413366 0.040814 0.999167 98.3767 75.1428)" fill="#FDC67C"/>
      <path d="M99.2966 73.6287L97.336 73.7098L98.3665 74.897L99.2966 73.6287Z" fill="#FEE5AC"/>
      <path d="M98.5613 73.6591L98.0711 73.6793L97.8561 74.4262L97.9406 74.5211L98.3263 73.9148L98.7563 74.4873L98.8365 74.3856L98.5613 73.6591Z" fill="#FCD578"/>
      <path d="M99.1076 76.3428C99.123 76.7203 98.8302 77.0379 98.4548 77.0535C98.0795 77.069 97.7617 76.7766 97.7463 76.3991C97.7309 76.0216 98.0237 75.7039 98.3991 75.6884C98.7744 75.6728 99.0922 75.9652 99.1076 76.3428Z" stroke="#FED88C" stroke-width="0.6"/>
      <path d="M99.0862 76.3683C99.1011 76.733 98.8182 77.0402 98.4552 77.0552C98.0921 77.0702 97.7851 76.7874 97.7702 76.4227C97.7553 76.058 98.0382 75.7508 98.4013 75.7358C98.7643 75.7208 99.0713 76.0036 99.0862 76.3683Z" stroke="#FDC267" stroke-width="0.4"/>
    </g>
  </g>
  <defs>
    <clipPath id="clip0_86_5503">
      <rect width="190" height="180" fill="white" transform="translate(0 0.222534)"/>
    </clipPath>
  </defs>
</svg>
