<svg width="274" height="282" viewBox="0 0 274 282" fill="none"
  xmlns="http://www.w3.org/2000/svg">
  <path d="M107.815 122.267C105.765 123.281 103.786 124.435 101.831 125.636C101.1 126.084 100.323 126.626 100.182 127.45C99.946 128.699 100.865 130.419 101.289 131.55C101.76 132.845 102.302 134.777 103.291 135.79C103.998 136.544 105.459 135.437 106.024 134.848C108.922 131.903 111.678 128.864 114.34 125.707C114.482 125.542 116.863 125.636 117.5 125C119.5 123 117.523 123.688 117.5 123.5C117.5 122.746 114.764 123.045 114.694 122.315C114.623 121.702 114.411 120.406 113.822 120.1C113.445 119.912 113.021 120.053 112.621 120.194C110.995 120.807 109.393 121.514 107.838 122.291L107.815 122.267Z" fill="#FCD9BA"/>
  <path d="M113.239 119.394C112.76 120.642 113.268 121.453 114.016 122.536C114.367 123.025 114.719 123.514 115.099 123.986C115.841 124.903 116.287 125.392 117.425 125.206C119.203 124.921 120.819 124.053 122.414 123.274C123.389 122.788 124.431 122.318 125.29 121.638C126.086 121.012 126.962 120.548 127.597 119.717C127.836 119.424 128.048 119.052 128.114 118.692C128.192 118.193 128.058 117.782 127.568 118.225C126.743 118.961 125.712 119.575 124.714 120.055C124.469 120.183 123.254 120.774 123.532 120.136C123.655 119.837 124.201 119.644 124.44 119.445C124.853 119.124 125.288 118.808 125.7 118.487C126.547 117.851 127.377 117.187 128.224 116.551C128.52 116.318 128.966 115.959 128.977 115.537C128.987 115.21 128.725 114.743 128.34 114.765C128.173 114.77 128.006 114.869 127.861 114.974C126.183 116.086 124.774 117.548 122.873 118.321C122.605 118.442 121.998 118.502 122.204 118.059C122.287 117.915 122.404 117.826 122.527 117.715C123.953 116.659 125.38 115.602 126.807 114.545C127.214 114.246 127.899 113.876 127.994 113.31C128.149 112.406 127.084 112.399 126.538 112.78C125.507 113.488 124.576 114.269 123.523 114.971C122.754 115.486 121.907 116.122 120.953 116.237C121.031 116.02 121.232 115.882 121.427 115.766C122.168 115.268 122.87 114.737 123.556 114.178C124.18 113.674 124.893 113.193 125.439 112.623C125.824 112.224 125.907 111.231 125.076 111.424C124.875 111.468 124.697 111.612 124.524 111.733C123.114 112.818 121.76 113.964 120.194 114.82C119.592 115.141 118.856 115.522 118.165 115.443C117.986 114.738 119.089 113.931 119.34 113.31C119.73 112.417 119.779 111.557 119.043 110.713C118.451 110.046 117.889 111.626 117.717 112.03C117.154 113.422 116.319 114.58 115.472 115.782C114.659 116.945 113.762 117.97 113.194 119.289C113.183 119.333 113.172 119.378 113.161 119.422L113.239 119.394Z" fill="#FCD9BA"/>
  <path d="M62.6992 203.851C64.1683 208.356 65.6893 212.87 67.3169 217.329C69.3254 222.855 71.5085 228.306 73.6851 233.735C74.658 236.176 75.6308 238.617 76.6036 241.058C77.9148 244.333 79.239 247.654 81.384 250.419C82.7014 252.099 84.355 253.584 86.276 254.551C87.277 255.047 88.4066 255.139 89.3881 255.567C91.4384 256.472 92.9708 257.281 95.2043 256.098C96.9045 255.191 98.0818 253.406 98.5731 251.622C99.3373 248.827 98.9297 245.88 98.4964 243.014L95.8462 225.047C95.3339 221.566 94.815 218.062 93.769 214.686C93.1368 212.662 93.2968 209.023 92.4157 207.07C91.5714 199.345 90.2169 192.301 86.2758 186.449C84.315 183.557 77.126 184.569 74.9196 181.846C73.5569 180.179 71.0203 175.883 68.5996 175.821C67.4896 175.797 66.4551 176.291 65.5146 176.856C63.2362 178.224 61.2305 180.027 59.6073 182.137C58.623 183.402 57.788 184.843 57.662 186.449C57.571 187.75 57.9588 189.011 58.3401 190.25C59.7639 194.767 61.1717 199.314 62.6409 203.819L62.6992 203.851Z" fill="#62838F"/>
  <path d="M33.2254 251.666C33.2254 251.666 33.3838 251.62 33.4517 251.6C34.8327 251.203 34.5151 249.504 34.587 248.307C34.675 247.08 34.7176 245.867 34.7085 244.643C34.7032 243.689 34.9247 242.841 33.7272 242.769C30.5718 242.623 27.3845 242.708 24.2064 242.569C22.6206 242.511 21.054 242.349 19.4809 242.165C18.3383 242.028 17.7305 242.302 17.6943 243.538C17.6424 244.975 17.645 246.175 17.9587 247.605C18.2495 248.87 18.1921 250.798 19.7011 251.271C20.4815 251.512 21.3288 251.219 22.1345 251.207C23.238 251.208 24.3415 251.209 25.4515 251.233C27.7007 251.296 29.9694 251.427 32.2285 251.609C32.5554 251.638 32.8823 251.666 33.1897 251.627L33.2254 251.666Z" fill="#FCD9BA"/>
  <path d="M12.5621 261.295C12.5621 261.295 12.52 261.234 12.4908 261.218L14.8784 239.887C15.0272 239.893 15.1696 239.877 15.3184 239.883C15.6388 239.889 15.9884 239.911 16.2991 239.968C17.5519 240.147 18.7405 240.613 19.7745 241.394C19.9982 241.575 20.2284 241.778 20.2452 242.092C20.2686 242.429 20.0491 242.688 19.8588 242.964C19.1393 243.955 18.6442 245.471 18.9445 246.684C19.1275 247.489 19.5529 248.2 20.0428 248.795C20.2634 249.05 20.5132 249.321 20.6563 249.648C20.8059 249.997 20.797 250.392 20.6781 250.745C20.3373 251.774 19.378 252.615 18.7747 253.499C18.0844 254.507 17.4654 255.593 16.9274 256.704C16.4634 257.646 16.0804 258.615 15.529 259.509C15.1936 260.047 14.5742 260.961 13.8859 261.38C13.4496 261.653 12.9708 261.692 12.5396 261.302L12.5621 261.295Z" fill="#98BCB5"/>
  <path d="M12.5624 261.295C12.5624 261.295 12.5202 261.234 12.491 261.218L14.8786 239.887C15.0275 239.893 15.1698 239.877 15.3187 239.883C15.639 239.889 15.9886 239.911 16.2994 239.968L13.8796 261.357C13.4433 261.63 12.9645 261.67 12.5332 261.279L12.5624 261.295Z" fill="white"/>
  <path d="M16.1776 256.822C16.404 256.757 16.5134 256.455 16.6197 256.229C17.2352 255.046 17.9221 253.941 18.69 252.862C19.132 252.269 19.5741 251.676 20.0518 251.121C20.1228 251.027 20.1581 250.894 20.1255 250.781C20.1059 250.713 20.0442 250.584 19.9732 250.678C19.0565 251.751 18.2272 252.873 17.492 254.065C17.1243 254.661 16.7794 255.251 16.4701 255.879C16.4056 255.996 16.3446 256.21 16.2218 256.294C16.0763 256.385 15.9175 256.259 15.817 256.166C15.6516 256.017 15.0416 255.261 14.7669 255.414C14.3628 255.628 15.0339 256.171 15.1797 256.251C15.3028 256.338 15.426 256.425 15.5491 256.512C15.7145 256.661 15.9286 256.893 16.1711 256.799L16.1776 256.822Z" fill="white"/>
  <path d="M16.2042 244.065C17.5889 243.936 19.0147 243.354 19.8858 242.122C19.9568 242.028 19.963 241.879 19.9303 241.766C19.9043 241.676 19.8007 241.656 19.7523 241.744C18.9361 242.911 17.5652 243.428 16.2549 243.56C16.0672 243.59 16.0392 244.088 16.2042 244.065Z" fill="white"/>
  <path d="M19.7643 252.847C19.7643 252.847 19.7996 252.714 19.8092 252.662C19.7962 252.617 19.7993 252.542 19.7636 252.504C19.53 252.203 19.2963 251.903 19.0692 251.625C18.9978 251.547 18.9203 251.619 18.8881 251.677C18.8559 251.735 18.8528 251.81 18.8432 251.862C18.8562 251.907 18.8758 251.975 18.8889 252.02C19.1225 252.321 19.3561 252.621 19.5832 252.899C19.6546 252.976 19.7321 252.905 19.7643 252.847Z" fill="#62838F"/>
  <path d="M19.0125 253.897C19.0125 253.897 19.0605 253.638 19.0118 253.554C18.8073 253.269 18.5867 253.014 18.3661 252.759C18.3531 252.714 18.3013 252.704 18.2786 252.711C18.2333 252.724 18.2011 252.782 18.185 252.811C18.1528 252.869 18.1497 252.944 18.1401 252.996C18.1531 253.041 18.15 253.115 18.1857 253.154C18.4289 253.403 18.6269 253.664 18.8314 253.949C18.9028 254.026 18.9803 253.955 19.0125 253.897Z" fill="#62838F"/>
  <path d="M18.1989 255.161C18.1989 255.161 18.2764 255.09 18.2925 255.061C18.3247 255.002 18.3278 254.928 18.3374 254.876C18.3244 254.831 18.3274 254.756 18.2918 254.718C18.0842 254.508 17.8767 254.298 17.6626 254.065C17.6495 254.02 17.5977 254.011 17.5751 254.017C17.5298 254.03 17.4976 254.088 17.4815 254.118C17.4492 254.176 17.4462 254.25 17.4366 254.302C17.4496 254.347 17.4465 254.422 17.4822 254.461C17.6898 254.67 17.8973 254.88 18.1114 255.113C18.1244 255.158 18.1762 255.168 18.1989 255.161Z" fill="#62838F"/>
  <path d="M17.6251 256.405C17.6251 256.405 17.6731 256.146 17.6244 256.062C17.4134 255.755 17.1636 255.484 16.8751 255.248C16.8686 255.226 16.8007 255.245 16.7846 255.274C16.7393 255.287 16.7136 255.368 16.704 255.42C16.6848 255.524 16.6786 255.673 16.75 255.75C16.8148 255.805 16.8797 255.86 16.9445 255.915C16.9576 255.96 17.0094 255.97 17.045 256.008C17.045 256.008 17.0581 256.054 17.0807 256.047C17.1943 256.186 17.3078 256.325 17.3988 256.47C17.4475 256.554 17.5476 256.477 17.5799 256.418L17.6251 256.405Z" fill="#62838F"/>
  <path d="M24.1584 252.022C23.9995 253.342 23.3101 256.311 23.879 257.52C24.3114 258.425 25.67 258.206 26.709 258.323C29.8261 258.676 32.8953 257.841 36.0216 257.97C38.2999 258.049 40.518 258.685 42.7675 258.92C48.5193 259.567 54.2856 257.882 60.0877 257.853C62.4662 257.855 64.7614 258.248 67.1241 258.45C69.3606 258.639 71.7418 258.394 73.9971 258.309C78.715 258.176 83.4424 257.991 88.1434 257.544C91.9159 257.192 96.562 256.81 97.6206 252.485C97.9864 251.031 97.6174 249.495 97.2227 248.039C96.7985 246.396 96.3743 244.753 95.6396 243.224C94.0729 239.998 91.3481 238.454 87.8431 238.287C84.3673 238.136 80.873 238.431 77.4013 238.72C65.0258 239.76 52.7895 240.857 40.3464 240.641C36.3757 240.559 32.3853 240.409 28.4352 240.91C26.8985 241.107 26.2715 241.484 26.0124 242.882C25.718 244.414 25.2586 245.968 24.9189 247.512C24.5823 248.982 24.3331 250.5 24.1519 251.999L24.1584 252.022Z" fill="#62838F"/>
  <path d="M83.5123 251.252C83.5123 251.252 83.515 251.006 83.4728 250.945C82.3468 249.504 81.2595 248.028 80.2498 246.48C79.224 244.961 78.2821 243.394 77.3791 241.79C76.7683 240.691 76.1802 239.586 75.6374 238.468C75.6243 238.422 75.6048 238.354 75.5691 238.316C75.3351 237.844 75.1011 237.372 74.8832 236.871C74.116 235.228 73.4327 233.537 72.7883 231.811C72.1438 230.084 71.59 228.331 71.0879 226.588C71.0226 226.362 70.9574 226.135 70.8988 225.932C70.8792 225.864 70.8109 225.712 70.7203 225.738C70.6298 225.764 70.6528 225.929 70.6724 225.997C71.1583 227.769 71.6896 229.528 72.3179 231.284C72.9463 233.04 73.636 234.754 74.3936 236.448C74.6668 237.055 74.9464 237.686 75.2422 238.287C71.9129 238.56 68.6063 238.826 65.2931 239.069C61.9055 239.309 58.5179 239.55 55.1399 239.738C51.7327 239.91 48.319 240.06 44.9084 240.136C41.543 240.198 38.1743 240.163 34.7959 240.18C33.1552 240.187 31.5276 240.239 29.8969 240.365C29.1786 240.425 28.4312 240.469 27.6938 240.632C27.1892 240.753 26.6071 240.945 26.2618 241.363C26.0972 241.558 25.9682 241.791 25.9137 242.027C25.8849 242.183 26.109 242.535 26.1861 242.292C26.4909 241.052 28.2834 240.977 29.2864 240.884C30.9559 240.722 32.6288 240.657 34.3147 240.637C37.6348 240.588 40.9422 240.665 44.2783 240.587C47.621 240.531 50.9668 240.401 54.2995 240.225C57.6323 240.05 60.9811 239.845 64.3169 239.595C67.6819 239.362 71.0112 239.089 74.3631 238.81C74.7449 238.774 75.104 238.744 75.4923 238.73C75.9473 239.629 76.4023 240.527 76.8799 241.419C77.7669 243.052 78.7152 244.642 79.725 246.19C80.7347 247.737 81.8058 249.243 82.9318 250.684C83.0811 250.862 83.2077 251.046 83.3569 251.224C83.3991 251.285 83.4866 251.333 83.5349 251.246L83.5123 251.252Z" fill="#553A12"/>
  <path d="M98.5811 156.945C97.5445 154.895 96.5786 152.799 95.6834 150.702C94.7882 148.582 93.9636 146.438 93.1862 144.27C92.4087 142.103 91.702 139.912 90.9952 137.721C90.312 135.53 89.6524 133.316 89.0399 131.101C88.4038 128.887 87.8148 126.672 87.2023 124.434C87.1316 124.151 87.0609 123.869 86.9667 123.586C86.9196 123.445 86.472 123.468 86.5191 123.657C87.1081 125.871 87.7206 128.109 88.3331 130.324C88.9456 132.538 89.6053 134.753 90.2649 136.967C90.9481 139.158 91.6549 141.349 92.4087 143.54C93.1626 145.708 93.9872 147.851 94.8588 149.972C95.7305 152.092 96.6729 154.189 97.7094 156.238C97.8272 156.497 97.9686 156.757 98.1099 157.016C98.1806 157.157 98.6282 157.11 98.5575 156.945H98.5811Z" fill="#62838F"/>
  <path d="M95.0474 167.028C92.8329 168.56 90.5241 169.926 88.1211 171.127C85.7182 172.329 83.2209 173.365 80.6766 174.237C78.1323 175.085 75.5408 175.768 72.9023 176.287C70.2637 176.781 67.578 177.111 64.8923 177.253C62.2067 177.394 59.521 177.347 56.8353 177.088C56.5055 177.064 56.1757 177.017 55.8458 176.994C55.7752 176.994 55.6102 176.994 55.5631 177.088C55.516 177.182 55.6574 177.229 55.728 177.253C58.4373 177.559 61.1465 177.653 63.8793 177.559C66.5886 177.465 69.2978 177.206 71.9835 176.734C74.6692 176.263 77.3077 175.627 79.8992 174.803C82.4906 173.978 85.0114 172.989 87.4615 171.811C89.9116 170.633 92.291 169.29 94.5526 167.782C94.8353 167.594 95.118 167.405 95.3772 167.217C95.5892 167.075 95.1887 166.958 95.0474 167.028V167.028Z" fill="#62838F"/>
  <path d="M99.5706 113.032C99.5706 113.032 99.3586 112.961 99.2644 112.985C97.0027 113.527 95.2123 115.199 93.7752 116.966C92.2439 118.898 90.9246 121.042 90.1001 123.374C89.6525 124.693 89.3462 126.036 89.252 127.426C89.252 127.591 89.6996 127.591 89.6996 127.426C89.8645 124.976 90.689 122.644 91.867 120.5C92.4559 119.44 93.1391 118.403 93.8694 117.437C94.5526 116.542 95.3301 115.67 96.2017 114.94C97.1677 114.139 98.2513 113.48 99.4764 113.197C99.5471 113.197 99.6177 113.103 99.5471 113.032H99.5706Z" fill="#62838F"/>
  <path d="M87.814 101.041C86.212 100.334 84.5629 99.7216 82.8902 99.2504C81.2411 98.7793 79.5685 98.4023 77.8958 98.2139C77.0713 98.1196 76.2467 98.0489 75.4222 98.0254C74.9039 98.1903 74.4091 98.3552 73.8908 98.5437C70.145 99.863 66.6583 100.617 63.8313 103.538C63.8313 103.609 63.7842 103.679 63.7606 103.75C62.5827 107.755 67.3651 110.299 70.6869 110.464C72.9249 110.582 75.163 110.064 77.3775 109.64C82.584 108.65 88.1202 108.108 92.3844 104.952C92.6435 104.763 92.9262 104.528 92.9498 104.198C92.9498 104.198 92.9498 104.174 92.9498 104.151C92.4315 103.774 91.9603 103.35 91.5127 102.926C90.3348 102.242 89.1097 101.606 87.8611 101.064L87.814 101.041Z" fill="#62838F"/>
  <path d="M92.0316 103.915C95.6831 103.915 93.0446 107.143 91.2306 107.991C87.9324 109.546 84.5399 110.936 81.1946 112.396C75.9881 114.681 70.5697 117.014 64.8685 116.872C63.4314 116.825 62.1592 114.092 61.6174 112.938C60.7928 111.171 60.2981 109.239 60.2039 107.308C60.0625 104.716 61.0284 102.431 63.5021 101.371C65.5752 100.476 68.0724 101.324 70.1692 101.63C74.1506 102.195 78.0142 103.303 81.972 103.962C84.0687 104.316 86.189 104.551 88.3093 104.504C89.0396 104.504 90.6887 104.033 91.9844 103.939L92.0316 103.915Z" fill="white"/>
  <path d="M68.4728 101.865C68.4728 101.865 68.2608 101.865 68.1901 101.959C67.13 103.514 66.7295 105.399 66.0934 107.166C65.9285 107.613 65.7636 108.061 65.5515 108.485C65.3395 108.956 65.0804 109.427 64.8919 109.898C64.4914 110.817 64.3029 111.83 64.2087 112.82C64.1145 113.974 64.1616 115.128 64.2087 116.259C64.2087 116.424 64.6799 116.424 64.6563 116.259C64.5621 114.257 64.4678 112.184 65.1746 110.275C65.528 109.333 66.0463 108.461 66.3997 107.519C66.7295 106.647 66.9886 105.752 67.2949 104.857C67.6247 103.867 68.0252 102.902 68.6142 102.03C68.6613 101.936 68.5199 101.889 68.4493 101.865H68.4728Z" fill="#62838F"/>
  <path d="M87.3671 107.142C87.3671 107.142 87.1315 107.095 87.0373 107.142C84.2338 108.674 81.3832 110.228 78.2735 111.1C77.4018 111.336 76.5301 111.524 75.6113 111.642C75.5407 111.642 75.4229 111.713 75.4464 111.807C75.4935 111.901 75.6585 111.901 75.7291 111.901C78.9802 111.477 82.0193 110.134 84.8934 108.65C85.718 108.226 86.5425 107.778 87.3435 107.331C87.4378 107.284 87.4142 107.213 87.3435 107.142H87.3671Z" fill="#62838F"/>
  <path d="M99.7585 110.817C102.562 117.697 105.13 124.693 107.415 131.761C109.017 136.708 110.925 141.349 112.857 146.132C114.671 150.608 116.179 155.39 119.477 159.042C120.608 160.291 121.927 161.351 123.152 162.482C126.333 165.379 129.089 168.725 131.822 172.046C132.552 172.942 133.471 174.732 131.822 175.062C130.738 175.274 129.042 174.52 127.911 174.449C125.461 174.261 123.011 174.261 120.561 174.19C118.817 174.143 117.215 173.201 115.543 172.73C110.949 171.457 106.755 168.56 103.763 164.861C101.219 161.728 98.9575 158.335 97.0728 154.754C96.1305 152.964 95.2824 151.126 94.5285 149.242C93.8689 147.592 93.6804 145.92 93.0679 144.294C89.9346 135.931 86.7542 127.897 86.5893 118.804C86.5421 116.495 86.7071 114.116 87.6258 111.995C88.4268 110.181 89.8639 108.603 91.7722 107.896C92.5496 107.614 93.4213 107.166 94.1751 106.93C97.0964 106.059 98.7691 108.415 99.735 110.77L99.7585 110.817Z" fill="#98BCB5"/>
  <path d="M74.1618 185.376C74.3918 185.886 74.8118 186.326 75.2718 186.606C77.7618 188.116 80.1918 184.466 81.4818 182.856C83.1218 180.806 84.7618 178.756 86.4018 176.696C86.6818 176.346 86.9818 175.986 87.3918 175.796C87.8718 175.576 88.2018 175.746 88.6918 175.886C89.7218 176.176 90.7818 176.336 91.8118 175.986C92.1018 175.886 92.4318 175.666 92.3718 175.366C91.3718 175.026 90.4118 174.546 89.3918 174.256C87.9518 173.836 86.6518 173.876 85.4618 174.806C84.2018 175.786 82.9418 176.746 81.6218 177.646C79.3618 179.176 77.2218 180.886 75.1918 182.706C74.7618 183.096 74.3218 183.506 74.1118 184.046C73.9318 184.506 73.9818 184.966 74.1718 185.386L74.1618 185.376Z" fill="#F79974"/>
  <path d="M81.8781 194.263C86.6134 194.098 91.3722 193.886 96.1075 193.556C101.974 193.155 107.816 192.566 113.635 191.977C116.25 191.718 118.865 191.459 121.48 191.2C124.99 190.847 128.548 190.493 131.799 189.197C133.778 188.396 135.662 187.219 137.123 185.64C137.877 184.816 138.277 183.755 138.961 182.931C140.398 181.211 141.599 179.962 141.081 177.489C140.68 175.604 139.29 173.979 137.712 173.013C135.238 171.505 132.294 171.081 129.419 170.704L111.421 168.277C107.934 167.806 104.424 167.335 100.89 167.406C98.7696 167.453 96.6493 167.688 94.5291 167.995C87.5321 168.984 80.6295 170.586 73.9153 172.754C70.5935 173.837 67.3424 175.062 64.1149 176.429C62.136 177.277 57.3064 178.525 56.5761 180.834C56.2463 181.894 56.4348 183.025 56.7175 184.085C57.4007 186.653 58.5786 189.08 60.157 191.224C61.0994 192.519 62.2538 193.721 63.7615 194.286C64.9866 194.734 66.3058 194.71 67.6016 194.687C72.3368 194.569 77.0957 194.475 81.831 194.31L81.8781 194.263Z" fill="#62838F"/>
  <path d="M102.892 123.186C102.656 120.029 102.35 116.825 101.384 113.81C100.536 111.195 99.0986 108.674 97.0254 106.883C96.9783 106.883 96.9312 106.86 96.9076 106.813C96.7663 106.671 96.6014 106.554 96.46 106.412C96.46 106.412 96.46 106.412 96.4365 106.389C96.3187 106.294 96.2009 106.2 96.0595 106.106C95.0465 105.399 93.9392 104.857 92.9498 104.127C92.4315 103.75 91.9603 103.326 91.5127 102.902C90.3348 102.219 89.1097 101.583 87.8611 101.041C86.2591 100.334 84.61 99.7216 82.9374 99.2504C81.2883 98.7793 79.6156 98.4023 77.9429 98.2139C77.1184 98.1196 76.2938 98.0489 75.4693 98.0254C74.951 98.1903 74.4563 98.3552 73.938 98.5437C70.1922 99.863 66.7055 100.617 63.8784 103.538C63.7842 103.632 63.6664 103.75 63.5722 103.868C60.9807 106.719 59.3081 110.276 57.9181 113.88C54.1252 123.728 53.6305 135.531 53.2064 146.061C52.7352 157.652 53.3006 169.267 54.3137 180.81C54.3843 181.564 54.5021 182.412 55.1146 182.86C55.468 183.119 55.9156 183.19 56.3633 183.237C57.5647 183.378 58.7898 183.449 59.9913 183.496C63.5957 183.59 67.2002 183.308 70.7811 182.954C79.1209 182.13 87.9789 180.763 94.2455 175.203C95.5412 174.049 96.6956 172.73 97.85 171.434C98.4625 170.727 99.0986 170.021 99.452 169.172C100.324 167.146 99.6169 164.838 99.2399 162.647C97.9207 155.343 100.3 148.087 101.902 141.043C102.515 138.311 103.221 135.295 103.386 132.515C103.551 129.476 103.151 126.272 102.939 123.257L102.892 123.186Z" fill="#98BCB5"/>
  <path d="M133.638 237.798C133.638 237.798 133.598 237.638 133.581 237.57C133.236 236.175 131.527 236.427 130.333 236.31C129.111 236.175 127.9 236.086 126.677 236.048C125.723 236.017 124.884 235.764 124.766 236.958C124.501 240.105 124.464 243.293 124.204 246.464C124.085 248.046 123.864 249.606 123.62 251.17C123.44 252.307 123.69 252.925 124.924 253.008C126.357 253.115 127.557 253.158 128.998 252.899C130.273 252.657 132.198 252.788 132.727 251.298C132.998 250.527 132.738 249.669 132.757 248.864C132.8 247.761 132.843 246.658 132.909 245.55C133.057 243.305 133.275 241.043 133.544 238.792C133.585 238.467 133.625 238.141 133.598 237.833L133.638 237.798Z" fill="#FCD9BA"/>
  <path d="M144.084 256.652C144.084 256.652 144.026 256.7 144.013 256.731L122.553 256.335C122.545 256.187 122.516 256.046 122.508 255.898C122.484 255.578 122.473 255.228 122.502 254.913C122.563 253.649 122.917 252.422 123.599 251.32C123.758 251.081 123.939 250.833 124.25 250.787C124.583 250.732 124.861 250.927 125.153 251.091C126.208 251.715 127.763 252.067 128.942 251.655C129.727 251.398 130.396 250.909 130.942 250.366C131.175 250.122 131.422 249.848 131.734 249.676C132.068 249.494 132.462 249.466 132.824 249.552C133.881 249.796 134.807 250.673 135.744 251.191C136.812 251.785 137.95 252.3 139.106 252.733C140.088 253.107 141.088 253.398 142.029 253.864C142.596 254.148 143.564 254.68 144.045 255.327C144.357 255.736 144.441 256.209 144.092 256.674L144.084 256.652Z" fill="#98BCB5"/>
  <path d="M144.084 256.652C144.084 256.652 144.027 256.7 144.014 256.73L122.553 256.335C122.546 256.186 122.516 256.046 122.508 255.897C122.484 255.578 122.474 255.228 122.502 254.913L144.023 255.335C144.336 255.744 144.42 256.217 144.071 256.683L144.084 256.652Z" fill="white"/>
  <path d="M139.293 253.469C139.207 253.25 138.897 253.169 138.662 253.084C137.427 252.581 136.263 252 135.117 251.336C134.486 250.951 133.854 250.566 133.258 250.141C133.157 250.079 133.022 250.057 132.912 250.1C132.846 250.125 132.723 250.199 132.824 250.261C133.977 251.074 135.171 251.795 136.427 252.417C137.054 252.727 137.673 253.016 138.328 253.266C138.45 253.319 138.669 253.36 138.764 253.474C138.868 253.611 138.757 253.78 138.674 253.889C138.541 254.068 137.845 254.745 138.023 255.005C138.274 255.387 138.751 254.668 138.818 254.516C138.893 254.385 138.969 254.254 139.044 254.124C139.176 253.945 139.388 253.71 139.271 253.478L139.293 253.469Z" fill="white"/>
  <path d="M126.59 254.627C126.333 253.26 125.621 251.895 124.314 251.142C124.213 251.08 124.065 251.088 123.955 251.13C123.867 251.165 123.858 251.27 123.949 251.31C125.187 252.014 125.829 253.331 126.083 254.623C126.13 254.807 126.629 254.789 126.59 254.627Z" fill="white"/>
  <path d="M135.003 250.267C135.003 250.267 134.867 250.244 134.815 250.239C134.771 250.257 134.696 250.261 134.661 250.3C134.384 250.56 134.106 250.821 133.851 251.073C133.78 251.151 133.859 251.221 133.92 251.248C133.981 251.275 134.055 251.271 134.107 251.276C134.151 251.259 134.217 251.233 134.261 251.216C134.538 250.955 134.816 250.694 135.071 250.443C135.142 250.364 135.064 250.294 135.003 250.267Z" fill="#62838F"/>
  <path d="M136.118 250.918C136.118 250.918 135.855 250.894 135.776 250.95C135.512 251.18 135.279 251.424 135.045 251.667C135.001 251.684 134.996 251.737 135.005 251.758C135.022 251.802 135.083 251.829 135.114 251.842C135.175 251.869 135.249 251.865 135.302 251.87C135.346 251.853 135.42 251.849 135.455 251.81C135.68 251.544 135.922 251.323 136.187 251.093C136.257 251.015 136.179 250.944 136.118 250.918Z" fill="#62838F"/>
  <path d="M137.452 251.609C137.452 251.609 137.374 251.539 137.343 251.526C137.282 251.499 137.208 251.503 137.155 251.498C137.112 251.515 137.037 251.519 137.002 251.558C136.812 251.784 136.623 252.01 136.411 252.245C136.367 252.262 136.362 252.315 136.371 252.337C136.388 252.381 136.449 252.407 136.48 252.421C136.541 252.447 136.615 252.444 136.668 252.448C136.711 252.431 136.786 252.427 136.821 252.388C137.011 252.162 137.201 251.936 137.412 251.701C137.456 251.684 137.461 251.631 137.452 251.609Z" fill="#62838F"/>
  <path d="M138.744 252.065C138.744 252.065 138.482 252.041 138.403 252.098C138.117 252.336 137.87 252.61 137.662 252.919C137.64 252.928 137.666 252.994 137.696 253.007C137.714 253.051 137.797 253.069 137.849 253.074C137.954 253.083 138.103 253.075 138.173 252.997C138.222 252.928 138.27 252.858 138.319 252.788C138.363 252.771 138.368 252.719 138.403 252.679C138.403 252.679 138.447 252.662 138.438 252.64C138.566 252.514 138.694 252.388 138.83 252.284C138.909 252.228 138.822 252.136 138.761 252.109L138.744 252.065Z" fill="#62838F"/>
  <path d="M133.649 246.872C134.963 247.081 137.903 247.883 139.133 247.361C140.054 246.963 139.886 245.597 140.043 244.564C140.515 241.462 139.797 238.363 140.046 235.244C140.212 232.971 140.932 230.779 141.252 228.54C142.119 222.817 140.654 216.99 140.847 211.191C140.939 208.815 141.419 206.536 141.711 204.183C141.986 201.955 141.832 199.566 141.833 197.309C141.879 192.59 141.875 187.859 141.608 183.144C141.401 179.361 141.196 174.704 136.914 173.481C135.475 173.06 133.926 173.37 132.456 173.709C130.798 174.07 129.14 174.432 127.584 175.107C124.301 176.55 122.654 179.214 122.353 182.71C122.07 186.177 122.232 189.68 122.388 193.161C122.955 205.567 123.585 217.836 122.895 230.262C122.661 234.227 122.359 238.208 122.708 242.175C122.847 243.718 123.2 244.359 124.587 244.671C126.106 245.023 127.642 245.542 129.172 245.94C130.628 246.333 132.136 246.639 133.626 246.878L133.649 246.872Z" fill="#62838F"/>
  <path d="M86.3618 92.3142C86.3618 92.3142 86.3693 92.3366 86.3768 92.3589C86.3768 92.3589 86.3842 92.3813 86.3917 92.4036C86.5491 93.7669 86.3637 95.1452 86.4242 96.5159C86.4318 96.6128 86.4393 96.7096 86.4468 96.8065C86.4918 97.2386 86.5517 97.7153 86.6116 98.1921C86.7389 99.0934 86.8066 100.039 86.5836 100.859C86.4127 101.463 86.0405 101.984 85.6684 102.506C84.9613 103.512 84.3064 104.526 83.6217 105.525C83.2273 106.128 82.7659 106.978 81.9539 107.001C81.5367 107.016 81.1493 106.897 80.7618 106.778C79.0405 106.236 77.3117 105.671 75.6499 104.934C74.4874 104.428 73.3845 104.027 72.8402 103.215C72.5419 102.768 72.4074 102.217 72.5186 101.435C72.9262 98.2683 73.319 95.1316 73.7266 91.9652C73.8897 90.7433 73.7991 89.0596 74.3497 87.9567C74.7514 87.1518 75.7566 86.3689 76.4342 85.7948C77.5361 84.8554 78.5644 85.0335 79.8311 85.4797C82.2827 86.3496 84.8242 87.9348 85.9061 90.3553C85.921 90.3999 85.9359 90.4446 85.9509 90.4893C86.1971 91.0777 86.3465 91.6736 86.4065 92.2993L86.3618 92.3142Z" fill="#FCD9BA"/>
  <path d="M86.3627 92.3141C86.3627 92.3141 86.3702 92.3364 86.3776 92.3588C86.3776 92.3588 86.3851 92.3811 86.3926 92.4035C86.5499 93.7667 86.3646 95.145 86.4251 96.5158C86.2165 96.4861 85.9706 96.4192 85.7322 96.3747C84.1004 95.9512 81.1345 94.8059 81.7812 92.5779C82.2718 90.9237 84.4022 90.6094 85.8622 90.37C85.8772 90.4147 85.8921 90.4594 85.907 90.5041C86.1533 91.0925 86.3027 91.6883 86.3627 92.3141Z" fill="#C1AC76"/>
  <path d="M86.2081 72.9672C86.2081 72.9672 86.2751 73.0193 86.3124 73.0566C86.5733 73.3171 86.7301 73.7864 86.9314 74.0917C87.2073 74.4714 87.446 74.8885 87.6177 75.3279C87.9534 76.1099 87.7231 77.0562 88.0589 77.8382C88.2007 78.1883 88.5286 78.4265 88.8119 78.6796C89.1399 78.9922 89.4828 79.2751 89.848 79.5505C90.5636 80.1311 91.3313 80.6446 92.1362 81.1209C92.6877 81.4334 93.3212 81.7682 93.5302 82.3939C93.8586 83.377 92.9726 84.0705 92.3472 84.652C91.6697 85.3006 91.9461 86.4253 92.1254 87.1851C92.4017 88.2354 92.8494 89.2035 93.081 90.2687C93.3725 91.5871 93.269 92.8388 91.9657 93.5474C90.1337 94.532 88.0033 94.9208 85.9471 94.7881C84.3304 94.7073 82.7507 94.2912 81.2604 93.6962C79.9712 93.183 78.3246 93.0127 77.2661 92.0748C76.1703 91.0996 75.0533 91.7708 73.7048 91.6004C72.2817 91.43 70.9028 90.4252 69.9411 89.4797C68.8453 88.43 67.9728 87.1566 67.1078 85.9056C66.2502 84.677 65.3926 83.3738 65.1234 81.8989C64.7945 80.1708 65.352 78.3452 66.3045 76.8098C67.2645 75.2969 68.5823 74.0369 69.9225 72.8441C71.3818 71.5617 72.7593 70.4061 74.6288 69.7567C75.9471 69.3163 77.2805 69.144 78.6512 68.9345C79.9324 68.7548 81.1992 69.2009 82.3171 69.7962C83.8225 70.5849 85.0376 71.7686 86.2155 72.9896L86.2081 72.9672Z" fill="#FCD9BA"/>
  <path d="M70.5692 93.5915C71.5158 94.2688 72.5368 94.8716 73.7437 94.9154C74.6228 94.9447 75.1961 94.4302 75.6501 93.7073C76.1115 93.0067 76.476 92.2391 76.7586 91.4492C77.1155 90.4358 77.3159 89.4001 77.6505 88.3942C77.9479 87.5 78.767 86.9034 79.2358 86.0762C80.8729 83.2441 78.2634 80.3404 78.7233 77.3303C78.9087 76.0265 79.6529 74.834 80.7028 74.0362C81.6559 73.3203 82.87 72.9396 83.6069 72.0228C85.1775 70.1071 85.1082 66.777 82.2993 66.25C81.3679 66.0643 80.3994 66.065 79.4608 66.2295C78.6638 66.3716 77.8594 66.6403 77.0474 66.6632C75.7809 66.6641 74.5587 66.054 73.3147 66.1964C72.6219 66.2788 71.9814 66.5921 71.3633 66.898C70.343 67.4127 69.3003 67.9349 68.5708 68.7996C68.0349 69.4257 67.6927 70.1859 67.2163 70.8418C66.0924 72.3847 64.1338 73.4364 63.77 75.3215C63.473 76.8117 64.3084 78.2713 64.6074 79.7611C64.9587 81.4817 64.58 83.2476 64.4694 84.9984C64.3812 86.7417 64.6805 88.6785 66.0073 89.8249C66.7303 90.4279 67.6767 90.7327 68.4072 91.358C69.2271 92.0279 69.7344 93.0259 70.6064 93.6287L70.5692 93.5915Z" fill="#553A12"/>
  <path d="M87.0887 76.4975C87.0887 76.4975 86.9694 76.3634 86.9098 76.3337C86.3806 75.9392 85.5838 76.4538 85.1296 76.7297C84.5264 77.0803 84.0499 77.6617 83.6704 78.2356C83.2834 78.7871 82.9411 79.4728 83.1055 80.1134C83.1204 80.158 83.1279 80.1804 83.1428 80.225C83.3291 80.3367 83.8873 79.4796 83.9915 79.3454C84.1329 79.174 84.3042 79.0174 84.4754 78.8608C85.1083 78.3017 85.7933 77.8244 86.5679 77.5408C86.7467 77.4811 86.9254 77.4214 87.0595 77.3021C87.2828 77.0784 87.2453 76.7432 87.0962 76.5198L87.0887 76.4975Z" fill="#553A12"/>
  <path d="M82.2011 86.1041C82.2011 86.1041 82.1861 86.0594 82.1787 86.0371C81.5665 84.1303 78.4433 81.6218 76.6865 83.7239C76.0612 84.4544 75.9502 85.5347 76.2786 86.4433C76.8683 88.2086 79.5666 90.2629 81.488 89.3229C82.6647 88.756 82.5296 87.1618 82.2011 86.1041V86.1041Z" fill="#FCD9BA"/>
  <path d="M86.3248 80.6774C86.2502 80.4539 86.1756 80.2305 86.2648 80.0516C86.3244 79.9324 86.4137 79.828 86.5403 79.7609C86.8679 79.5521 87.1958 79.6413 87.412 79.9168C87.5388 80.0731 87.6358 80.2891 87.6806 80.4976C87.7478 80.6987 87.7778 80.9371 87.7779 81.1606C87.7705 81.2873 87.7334 81.3991 87.6664 81.496C87.3165 81.9357 86.929 81.7423 86.6978 81.4221C86.5934 81.2583 86.4294 80.9902 86.31 80.7072L86.3248 80.6774Z" fill="#553A12"/>
  <path d="M79.3378 71.9587C80.0751 71.5633 80.872 71.1233 81.311 70.3556C81.7351 69.6178 81.593 68.8207 81.3541 68.0312C81.2944 67.8525 81.704 67.6659 81.7563 67.8223C81.8981 68.2469 81.9953 68.6864 81.9956 69.1334C81.9959 69.5804 81.8844 69.9902 81.6611 70.3628C81.17 71.1975 80.2764 71.7196 79.4348 72.1746C79.3678 72.197 79.2114 72.2493 79.1815 72.1599C79.1517 72.0705 79.2708 71.9811 79.3304 71.9363L79.3378 71.9587Z" fill="#62838F"/>
  <path d="M75.0601 70.7552C75.0601 70.7552 75.2015 70.5837 75.2686 70.5614C75.7378 70.4046 76.207 70.1734 76.4898 69.756C76.7205 69.4057 76.8394 68.9437 76.6827 68.5489C76.6304 68.3925 77.0102 68.1911 77.0848 68.3401C77.2714 68.8242 77.1377 69.3905 76.8474 69.7855C76.4753 70.3073 75.8795 70.6056 75.2836 70.8295C75.2166 70.8519 75.0974 70.8669 75.0676 70.7775L75.0601 70.7552Z" fill="#62838F"/>
  <path d="M65.6987 85.1844C65.6911 85.013 66.0858 84.8563 66.1232 85.0425C66.2435 86.592 67.2054 87.9845 68.5767 88.669C68.6661 88.7136 68.5619 88.8478 68.4949 88.8702C68.4129 88.9224 68.3012 88.9597 68.2118 88.9151C66.8033 88.1934 65.8189 86.7339 65.6912 85.162L65.6987 85.1844Z" fill="#62838F"/>
  <path d="M69.4148 84.2656C69.437 84.1092 69.8318 83.9524 69.8393 84.1238C69.7582 85.368 71.0549 85.978 72.0162 86.3275C72.2174 86.4093 71.8823 86.6703 71.7407 86.6182C71.1744 86.41 70.5708 86.1645 70.1086 85.7477C69.6837 85.368 69.3779 84.8244 69.4371 84.2582L69.4148 84.2656Z" fill="#62838F"/>
  <path d="M90.3159 88.4597C89.4668 88.8179 88.4386 88.5653 87.8049 87.9325C87.6931 87.8208 87.2835 88.0073 87.4027 88.1413C88.1557 88.9082 89.3925 89.1159 90.398 88.7055C90.465 88.6831 90.6214 88.6309 90.5841 88.5192C90.5542 88.4298 90.3829 88.4373 90.3233 88.4821L90.3159 88.4597Z" fill="#C1AC76"/>
  <path d="M98.1417 157.889C97.1051 155.839 96.1392 153.742 95.2439 151.646C94.3487 149.525 93.5242 147.381 92.7467 145.214C91.9693 143.047 91.2625 140.856 90.5558 138.665C89.8726 136.474 89.2129 134.259 88.6004 132.045C87.9643 129.83 87.3754 127.616 86.7628 125.378C86.6922 125.095 86.6215 124.812 86.5273 124.53C86.4801 124.388 86.0325 124.412 86.0796 124.6C86.6686 126.815 87.2811 129.053 87.8937 131.267C88.5062 133.482 89.1658 135.696 89.8255 137.911C90.5087 140.102 91.2154 142.293 91.9693 144.484C92.7232 146.651 93.5477 148.795 94.4194 150.915C95.2911 153.036 96.2334 155.132 97.27 157.182C97.3878 157.441 97.5291 157.7 97.6705 157.959C97.7412 158.101 98.1888 158.054 98.1181 157.889H98.1417Z" fill="#62838F"/>
  <path d="M94.6069 167.972C92.3924 169.504 90.0837 170.87 87.6807 172.072C85.2777 173.273 82.7805 174.31 80.2362 175.181C77.6919 176.029 75.1004 176.713 72.4618 177.231C69.8233 177.726 67.1376 178.055 64.4519 178.197C61.7662 178.338 59.0805 178.291 56.3949 178.032C56.065 178.008 55.7352 177.961 55.4054 177.938C55.3347 177.938 55.1698 177.938 55.1227 178.032C55.0756 178.126 55.2169 178.173 55.2876 178.197C57.9969 178.503 60.7061 178.597 63.4389 178.503C66.1481 178.409 68.8574 178.15 71.5431 177.678C74.2287 177.207 76.8673 176.571 79.4588 175.747C82.0502 174.922 84.571 173.933 87.0211 172.755C89.4712 171.577 91.8506 170.234 94.1122 168.726C94.3949 168.538 94.6776 168.349 94.9368 168.161C95.1488 168.019 94.7483 167.902 94.6069 167.972V167.972Z" fill="#62838F"/>
  <path d="M99.1302 113.976C99.1302 113.976 98.9182 113.905 98.8239 113.929C96.5623 114.471 94.7719 116.143 93.3348 117.91C91.8035 119.842 90.4842 121.986 89.6596 124.318C89.212 125.638 88.9058 126.98 88.8115 128.37C88.8115 128.535 89.2591 128.535 89.2591 128.37C89.424 125.92 90.2486 123.588 91.4265 121.444C92.0155 120.384 92.6987 119.347 93.429 118.381C94.1122 117.486 94.8896 116.615 95.7613 115.884C96.7272 115.083 97.8109 114.424 99.036 114.141C99.1066 114.141 99.1773 114.047 99.1066 113.976H99.1302Z" fill="#62838F"/>
  <path d="M87.3726 100.773C85.7706 100.067 84.1215 99.454 82.4488 98.9829C80.7997 98.5117 79.1271 98.1348 77.4544 97.9463C76.6298 97.8521 75.8053 97.7814 74.9807 97.7578C74.4625 97.9227 73.9677 98.0876 73.4494 98.2761C69.7036 99.5954 66.2169 100.349 63.3899 103.271C63.3899 103.341 63.3428 103.412 63.3192 103.483C62.1413 107.488 66.9237 110.032 70.2455 110.197C72.4835 110.315 74.7216 109.796 76.9361 109.372C82.1426 108.383 87.6788 107.841 91.9429 104.684C92.2021 104.496 92.4848 104.26 92.5084 103.93C92.5084 103.93 92.5084 103.907 92.5084 103.883C91.9901 103.506 91.5189 103.082 91.0713 102.658C89.8933 101.975 88.6683 101.339 87.4197 100.797L87.3726 100.773Z" fill="#62838F"/>
  <path d="M91.5911 103.647C95.2427 103.647 92.6041 106.875 90.7901 107.723C87.4919 109.278 84.0995 110.668 80.7542 112.128C75.5477 114.414 70.1292 116.746 64.428 116.605C62.991 116.557 61.7188 113.825 61.1769 112.67C60.3524 110.903 59.8577 108.972 59.7634 107.04C59.6221 104.448 60.588 102.163 63.0616 101.103C65.1348 100.208 67.632 101.056 69.7287 101.362C73.7101 101.928 77.5737 103.035 81.5316 103.694C83.6283 104.048 85.7486 104.283 87.8689 104.236C88.5992 104.236 90.2483 103.765 91.544 103.671L91.5911 103.647Z" fill="white"/>
  <path d="M68.0324 101.597C68.0324 101.597 67.8204 101.597 67.7497 101.692C66.6895 103.247 66.289 105.131 65.653 106.898C65.4881 107.346 65.3231 107.793 65.1111 108.217C64.8991 108.689 64.6399 109.16 64.4515 109.631C64.051 110.55 63.8625 111.563 63.7683 112.552C63.674 113.707 63.7212 114.861 63.7683 115.992C63.7683 116.157 64.2394 116.157 64.2159 115.992C64.1216 113.989 64.0274 111.916 64.7342 110.008C65.0876 109.066 65.6058 108.194 65.9592 107.252C66.289 106.38 66.5482 105.485 66.8545 104.589C67.1843 103.6 67.5848 102.634 68.1737 101.762C68.2208 101.668 68.0795 101.621 68.0088 101.597H68.0324Z" fill="#62838F"/>
  <path d="M86.9267 106.875C86.9267 106.875 86.6911 106.828 86.5968 106.875C83.7934 108.406 80.9428 109.961 77.833 110.833C76.9614 111.068 76.0897 111.257 75.1709 111.374C75.1002 111.374 74.9824 111.445 75.006 111.539C75.0531 111.634 75.218 111.634 75.2887 111.634C78.5398 111.209 81.5788 109.867 84.453 108.382C85.2776 107.958 86.1021 107.511 86.9031 107.063C86.9973 107.016 86.9738 106.945 86.9031 106.875H86.9267Z" fill="#62838F"/>
  <path d="M180.916 77.4949C181.093 73.3103 181.295 69.1451 181.564 64.9721C181.818 60.868 181.76 51.0925 187.076 49.8149C188.448 49.4737 189.991 49.8285 191.083 50.729C192.746 52.0994 193.224 54.438 193.411 56.5873C193.673 59.556 193.6 62.5418 193.505 65.5303C193.281 72.9215 192.946 80.3257 192.543 87.7157C192.348 91.1861 192.131 94.659 191.366 98.0401C191.278 98.4311 191.17 98.8467 190.892 99.1482C190.556 99.5238 190.008 99.6333 189.505 99.7375C187.974 100.053 186.44 100.346 184.883 100.441C183.859 100.495 182.352 100.829 181.401 100.36C180.165 99.7672 180.47 98.3657 180.487 97.1774C180.508 93.5708 180.55 89.9395 180.638 86.3251C180.713 83.3614 180.813 80.4171 180.932 77.4481L180.916 77.4949Z" fill="#FCD9BA"/>
  <path d="M189.123 93.8507C188.026 93.2865 186.683 93.1095 185.489 93.2506C180.788 93.8512 179.867 100.273 179.416 104.042C178.256 113.939 177.71 123.92 177.273 133.866C177.2 135.33 177.414 137.14 179.176 137.267C180.443 137.364 181.94 136.762 182.255 135.448C183.725 129.499 185.003 123.438 186.842 117.58C188.645 111.793 190.005 105.857 191.022 99.8716C191.23 98.5935 191.432 97.2713 191.04 96.0417C190.716 95.0055 189.979 94.2644 189.093 93.7871L189.123 93.8507Z" fill="#FCD9BA"/>
  <path d="M184.169 141.602C184.072 141.345 183.933 141.115 183.813 140.86C183.462 140.163 183.213 139.387 183.097 138.595C183.063 138.308 183.101 138.057 183.089 137.767C183.042 137.37 182.948 136.956 182.859 136.586C182.63 135.784 182.262 135.134 181.739 134.502C181.296 133.972 180.455 133.87 179.786 133.904C178.141 134.009 177.253 135.032 176.913 136.326C175.786 140.623 176.984 145.451 179.329 149.18C179.439 149.347 179.573 149.532 179.801 149.572C180.052 149.61 180.299 149.424 180.384 149.19C180.471 148.978 180.42 148.738 180.372 148.52C180.463 148.912 180.748 149.237 181.171 149.41C181.81 149.693 181.872 149.081 181.753 148.648C181.526 147.667 181.325 146.728 181.078 145.773C180.83 144.817 180.658 143.74 180.604 142.717C180.565 142.005 180.526 141.294 180.619 140.566C180.673 140.269 180.655 139.734 181.105 139.748C181.331 139.766 181.528 139.922 181.685 140.105C181.915 140.346 182.106 140.637 182.253 140.933C182.427 141.27 182.56 141.635 182.754 141.948C182.948 142.261 183.23 142.563 183.599 142.654C184.293 142.841 184.372 142.182 184.199 141.665C184.194 141.621 184.189 141.577 184.164 141.557L184.169 141.602Z" fill="#FCD9BA"/>
  <path d="M181.59 55.3434C179.909 59.1238 179.317 63.7828 178.694 67.2365C177.419 74.2596 176.851 81.4003 176.281 88.519C177.117 88.5769 178.373 88.9657 179.168 88.8716C180.81 89.3043 182.708 89.0575 184.407 89.2148C187.712 89.4957 191.02 89.6194 194.327 89.5418C194.044 84.1134 194.49 78.5987 194.563 73.1505C194.639 67.5451 194.628 61.9502 194.525 56.3437C194.509 55.0697 194.465 53.7541 194.076 52.5465C193.687 51.339 192.9 50.1785 191.739 49.6442C190.201 48.953 187.34 49.2017 185.854 50.0937C183.931 51.2612 182.585 53.144 181.612 55.3408L181.59 55.3434Z" fill="#FFFDF8"/>
  <path d="M182.654 225.931C182.654 225.931 182.686 225.749 182.715 225.654C183.125 224.036 184.779 224.414 185.901 224.344C187.075 224.258 188.265 224.225 189.437 224.226C190.348 224.218 191.197 223.997 191.237 225.397C191.329 229.113 191.222 232.831 191.314 236.548C191.347 238.41 191.485 240.242 191.631 242.1C191.734 243.423 191.458 244.137 190.294 244.162C188.904 244.196 187.733 244.195 186.358 243.792C185.138 243.431 183.27 243.49 182.827 241.69C182.589 240.781 182.899 239.797 182.932 238.837C182.949 237.536 182.967 236.235 182.932 234.949C182.899 232.31 182.806 229.659 182.634 227.031C182.612 226.663 182.582 226.269 182.646 225.904L182.654 225.931Z" fill="#FCD9BA"/>
  <path d="M172.731 251.079C172.731 251.079 172.799 251.116 172.833 251.135L195.437 245.043C195.39 244.884 195.396 244.709 195.341 244.523C195.259 244.145 195.176 243.766 195.067 243.395C194.654 241.989 193.926 240.677 192.868 239.605C192.633 239.386 192.363 239.149 192.024 239.162C191.659 239.183 191.406 239.488 191.163 239.732C190.219 240.7 188.69 241.524 187.307 241.383C186.398 241.304 185.543 240.922 184.796 240.421C184.474 240.199 184.152 239.977 183.774 239.858C183.362 239.719 182.96 239.809 182.562 240.012C181.502 240.583 180.775 241.804 179.939 242.654C178.962 243.604 177.934 244.482 176.823 245.269C175.906 245.941 174.914 246.55 174.055 247.32C173.509 247.797 172.647 248.655 172.332 249.526C172.122 250.077 172.173 250.638 172.671 251.068L172.731 251.079Z" fill="#62838F"/>
  <path d="M172.731 251.079C172.731 251.079 172.799 251.117 172.833 251.135L195.437 245.043C195.39 244.884 195.396 244.709 195.341 244.524C195.258 244.145 195.176 243.766 195.067 243.395L172.384 249.511C172.175 250.062 172.225 250.623 172.723 251.053L172.731 251.079Z" fill="#4A565D"/>
  <path d="M176.868 246.205C176.904 245.936 177.222 245.756 177.428 245.58C178.594 244.69 179.677 243.71 180.684 242.665C181.251 242.067 181.784 241.45 182.309 240.806C182.391 240.695 182.522 240.657 182.662 240.645C182.74 240.621 182.885 240.723 182.795 240.807C181.808 242.018 180.746 243.166 179.599 244.222C179.035 244.734 178.437 245.226 177.832 245.692C177.716 245.784 177.487 245.88 177.447 246.035C177.354 246.207 177.548 246.38 177.666 246.489C177.86 246.663 178.777 247.257 178.671 247.577C178.506 248.086 177.818 247.395 177.684 247.233C177.585 247.089 177.459 246.953 177.315 246.852C177.122 246.678 176.86 246.467 176.887 246.171L176.868 246.205Z" fill="#4A565D"/>
  <path d="M190.675 244.195C190.565 242.557 190.918 240.841 192.078 239.636C192.167 239.552 192.325 239.506 192.446 239.528C192.567 239.55 192.598 239.656 192.508 239.74C191.411 240.869 191.104 242.543 191.209 244.067C191.218 244.295 190.677 244.396 190.683 244.222L190.675 244.195Z" fill="#4A565D"/>
  <path d="M180.501 241.453C180.501 241.453 180.632 241.414 180.711 241.391C180.763 241.375 180.85 241.379 180.892 241.424C181.241 241.638 181.623 241.872 181.972 242.086C182.074 242.142 182.019 242.245 181.921 242.302C181.869 242.318 181.79 242.341 181.711 242.364C181.658 242.38 181.598 242.369 181.53 242.331C181.181 242.117 180.798 241.883 180.45 241.669C180.348 241.613 180.403 241.51 180.501 241.453Z" fill="white"/>
  <path d="M179.52 242.489C179.52 242.489 179.775 242.386 179.904 242.434C180.244 242.622 180.567 242.844 180.889 243.066C180.923 243.085 180.965 243.13 180.92 243.172C180.936 243.225 180.865 243.275 180.812 243.291C180.76 243.306 180.681 243.329 180.602 243.352C180.549 243.368 180.47 243.391 180.421 243.319C180.098 243.097 179.776 242.875 179.435 242.687C179.333 242.631 179.388 242.528 179.486 242.47L179.52 242.489Z" fill="white"/>
  <path d="M178.302 243.595C178.302 243.595 178.357 243.492 178.41 243.477C178.462 243.461 178.541 243.438 178.62 243.415C178.673 243.399 178.752 243.376 178.801 243.448C179.063 243.659 179.352 243.862 179.613 244.073C179.621 244.1 179.689 244.138 179.645 244.18C179.66 244.233 179.589 244.282 179.537 244.298C179.484 244.313 179.405 244.336 179.326 244.359C179.274 244.375 179.195 244.398 179.145 244.326C178.883 244.115 178.595 243.912 178.333 243.701C178.299 243.682 178.257 243.637 178.302 243.595Z" fill="white"/>
  <path d="M177.075 244.475C177.075 244.475 177.338 244.398 177.459 244.42C177.833 244.627 178.19 244.867 178.475 245.158C178.483 245.185 178.498 245.237 178.48 245.272C178.461 245.306 178.39 245.356 178.338 245.371C178.233 245.402 178.075 245.448 177.991 245.358C177.915 245.294 177.839 245.23 177.763 245.166C177.729 245.147 177.687 245.101 177.653 245.083C177.653 245.083 177.619 245.064 177.585 245.045C177.407 244.925 177.263 244.823 177.066 244.737C176.964 244.68 177.019 244.578 177.117 244.52L177.075 244.475Z" fill="white"/>
  <path d="M229.813 202.892C229.813 202.892 229.687 202.756 229.619 202.718C228.489 201.495 229.709 200.301 230.272 199.301C230.853 198.266 231.469 197.25 232.092 196.261C232.605 195.476 232.849 194.656 234.039 195.401C237.185 197.357 240.211 199.492 243.356 201.448C244.929 202.426 246.538 203.335 248.14 204.218C249.299 204.857 249.765 205.469 249.149 206.485C248.441 207.672 247.791 208.669 246.727 209.616C245.77 210.444 244.814 212.049 243.064 211.44C242.172 211.126 241.539 210.333 240.75 209.787C239.681 209.064 238.612 208.342 237.516 207.627C235.299 206.205 233.037 204.824 230.764 203.505C230.423 203.317 230.109 203.121 229.813 202.892V202.892Z" fill="#FCD9BA"/>
  <path d="M245.356 225.08C245.356 225.08 245.435 225.057 245.461 225.049L252.637 202.61C252.637 202.61 252.338 202.467 252.176 202.4C251.816 202.246 251.465 202.119 251.087 201.999C249.678 201.578 248.189 201.468 246.738 201.78C246.422 201.872 246.081 201.972 245.898 202.228C245.732 202.536 245.822 202.941 245.924 203.286C246.226 204.608 246.055 206.358 245.202 207.443C244.64 208.155 243.877 208.668 243.067 209.021C242.714 209.182 242.327 209.324 242.032 209.584C241.711 209.851 241.541 210.246 241.501 210.69C241.399 211.901 242.033 213.183 242.263 214.354C242.539 215.684 242.71 217.045 242.768 218.41C242.825 219.575 242.821 220.728 242.982 221.861C243.08 222.581 243.343 223.771 243.874 224.508C244.214 224.984 244.699 225.273 245.356 225.08V225.08Z" fill="#62838F"/>
  <path d="M245.356 225.08C245.356 225.08 245.435 225.057 245.461 225.049L252.637 202.609C252.637 202.609 252.338 202.467 252.176 202.399C251.816 202.246 251.465 202.119 251.087 201.999L243.9 224.5C244.24 224.976 244.725 225.265 245.382 225.072L245.356 225.08Z" fill="#4A565D"/>
  <path d="M243.542 218.903C243.314 218.711 243.352 218.354 243.308 218.108C243.192 216.644 242.964 215.185 242.63 213.757C242.449 212.946 242.215 212.151 241.955 211.363C241.916 211.231 241.93 211.083 242.02 210.999C242.057 210.93 242.199 210.831 242.238 210.963C242.734 212.459 243.099 213.993 243.351 215.532C243.464 216.305 243.569 217.052 243.622 217.814C243.634 217.954 243.592 218.197 243.691 218.341C243.798 218.511 244.035 218.442 244.174 218.429C244.41 218.36 245.423 217.918 245.614 218.179C245.938 218.602 244.995 218.793 244.803 218.821C244.637 218.841 244.445 218.868 244.288 218.914C244.051 218.984 243.709 219.084 243.489 218.919L243.542 218.903Z" fill="#4A565D"/>
  <path d="M249.367 206.162C247.962 205.365 246.711 204.12 246.333 202.445C246.302 202.339 246.361 202.149 246.45 202.065C246.54 201.981 246.634 202.011 246.639 202.125C246.986 203.693 248.214 204.859 249.516 205.599C249.695 205.72 249.504 206.237 249.36 206.135L249.367 206.162Z" fill="#4A565D"/>
  <path d="M241.562 213.235C241.562 213.235 241.575 213.087 241.612 213.018C241.631 212.984 241.668 212.915 241.713 212.873C242.084 212.678 242.489 212.501 242.86 212.306C242.965 212.275 243.023 212.373 243.02 212.461C243.035 212.514 243.006 212.609 242.969 212.677C242.958 212.738 242.914 212.78 242.869 212.822C242.498 213.017 242.092 213.194 241.721 213.389C241.616 213.42 241.559 213.322 241.562 213.235Z" fill="white"/>
  <path d="M241.889 214.637C241.889 214.637 241.95 214.36 242.048 214.302C242.393 214.115 242.745 213.954 243.105 213.819C243.158 213.803 243.184 213.796 243.226 213.841C243.242 213.894 243.257 213.947 243.273 214C243.288 214.053 243.259 214.148 243.222 214.216C243.204 214.251 243.167 214.319 243.122 214.361C242.762 214.496 242.409 214.657 242.064 214.845C241.959 214.876 241.902 214.777 241.905 214.69L241.889 214.637Z" fill="white"/>
  <path d="M242.171 216.281C242.171 216.281 242.14 216.175 242.125 216.122C242.109 216.069 242.138 215.974 242.175 215.905C242.194 215.871 242.231 215.802 242.276 215.76C242.591 215.668 242.917 215.514 243.233 215.422C243.286 215.406 243.312 215.399 243.354 215.444C243.369 215.497 243.385 215.55 243.4 215.603C243.416 215.656 243.387 215.751 243.35 215.819C243.331 215.854 243.294 215.922 243.249 215.964C242.934 216.057 242.608 216.21 242.292 216.303C242.24 216.318 242.213 216.326 242.171 216.281Z" fill="white"/>
  <path d="M242.216 217.796C242.216 217.796 242.278 217.518 242.375 217.461C242.738 217.239 243.125 217.097 243.554 217C243.606 216.984 243.648 217.029 243.656 217.056C243.671 217.109 243.695 217.189 243.676 217.223C243.655 217.344 243.581 217.481 243.476 217.512C243.37 217.543 243.292 217.566 243.186 217.597C243.134 217.613 243.081 217.628 243.055 217.636L243.029 217.643C243.029 217.643 242.976 217.659 242.95 217.667C242.766 217.721 242.597 217.828 242.402 217.943C242.305 218 242.24 217.875 242.243 217.788L242.216 217.796Z" fill="white"/>
  <path d="M172.502 161.523C171.862 164.303 171.456 167.101 171.065 169.952C170.801 171.872 169.774 174.017 171.342 175.659C172.171 176.538 173.328 176.976 174.488 177.326C177.605 178.311 180.929 178.833 184.145 178.406C187.388 177.972 190.55 176.582 192.75 174.151C195.553 171.052 196.506 166.712 198.111 162.842C199.112 160.417 200.413 158.134 201.713 155.851C204.01 151.807 206.307 147.763 208.85 143.877C210.057 142.054 211.705 140.274 212.665 138.293C213.515 136.517 214.348 134.688 215.284 132.916C218.296 127.221 221.867 121.68 223.332 115.288C224.636 109.52 224.111 103.454 222.952 97.6599C221.899 92.3247 220.007 86.6601 215.525 83.6566C214.456 82.9339 213.181 82.3868 211.917 82.5565C210.958 82.6943 210.108 83.2031 209.3 83.7573C205.408 86.4556 202.351 89.859 200.07 93.9561C198.97 95.9495 197.22 97.6731 195.958 99.599C194.651 101.567 193.461 103.644 192.359 105.725C187.932 114.282 185.086 123.556 181.96 132.653C181.747 133.292 181.535 133.93 181.289 134.55C178.168 143.472 174.591 152.299 172.487 161.47L172.502 161.523Z" fill="#98BCB5"/>
  <path d="M241.491 202.196C240.446 204.375 239.434 206.573 238.347 208.707C238.117 208.602 237.912 208.489 237.681 208.384C235.271 207.278 232.843 206.205 230.414 205.133C225.462 202.959 220.492 200.819 215.485 198.748C206.994 195.223 198.361 192.086 190.048 188.192C186.93 186.717 183.788 185.163 181.145 182.973C179.558 181.654 178.119 180.061 177.517 178.107C176.356 174.157 178.507 170.587 181.703 168.439C185.255 166.042 191.394 167.493 195.159 168.835C199.052 170.226 202.054 172.569 205.554 174.565C209.47 176.813 213.331 179.164 217.137 181.617C221.969 184.748 226.657 188.065 231.244 191.527C234.993 194.371 238.858 197.123 242.544 200.044C242.181 200.755 241.853 201.485 241.499 202.223L241.491 202.196Z" fill="#98BCB5"/>
  <path d="M187.204 233.839C185.627 234.014 184.024 234.197 182.44 234.346C182.407 234.039 182.355 233.766 182.304 233.493C181.819 230.871 181.308 228.256 180.797 225.642C179.744 220.306 178.639 214.987 177.446 209.664C175.458 200.658 173.067 191.741 171.507 182.638C170.902 179.216 170.402 175.763 170.666 172.287C170.831 170.223 171.301 168.127 172.578 166.542C175.124 163.346 179.28 163.105 182.876 164.554C186.858 166.149 189.22 172.05 190.27 175.917C191.359 179.917 191.196 183.738 191.547 187.753C191.96 192.268 192.259 196.788 192.419 201.32C192.625 207.077 192.631 212.835 192.411 218.602C192.247 223.488 192.219 228.45 191.908 233.322C190.357 233.489 188.781 233.664 187.238 233.858L187.204 233.839Z" fill="#98BCB5"/>
  <path d="M190.806 188.633C188.489 187.845 186.323 186.695 184.277 185.367C182.222 184.012 180.215 182.528 178.406 180.842C176.521 179.092 175.044 177.078 174.338 174.578C173.598 172.06 173.534 169.314 173.683 166.707C173.834 164.013 174.408 161.397 175.136 158.821C175.91 156.204 176.718 153.605 177.552 150.999C179.209 145.846 180.987 140.716 182.867 135.643C184.765 130.535 186.766 125.483 188.904 120.507C189.176 119.88 189.423 119.26 189.703 118.659C189.806 118.427 190.06 118.9 189.993 119.064C187.904 123.911 185.89 128.822 184.032 133.774C182.147 138.734 180.364 143.75 178.71 148.815C177.879 151.334 177.082 153.872 176.311 156.403C175.541 158.933 174.744 161.471 174.343 164.094C173.927 166.664 173.855 169.335 174.158 171.924C174.321 173.258 174.606 174.615 175.137 175.841C175.635 177.049 176.38 178.126 177.233 179.085C178.855 180.912 180.877 182.449 182.869 183.88C184.818 185.266 186.868 186.507 189.058 187.447C189.614 187.687 190.196 187.919 190.763 188.098C190.952 188.158 191.029 188.712 190.832 188.625L190.806 188.633Z" fill="#62838F"/>
  <path d="M219.136 68.353C221.839 79.7495 223.623 91.2978 225.018 102.874C225.723 108.674 226.304 114.49 226.885 120.307C227.126 122.656 227.032 125.064 227.24 127.365C227.382 128.839 228.662 131.161 227.348 132.359C226.801 132.846 225.998 132.917 225.263 132.941C214.816 133.036 205.689 125.881 195.794 122.269C192.541 121.081 186.474 120.214 185.258 116.763C184.473 114.515 184.773 111.229 184.555 108.864C184.32 106.231 184.102 103.622 183.891 100.973C183.061 90.6458 182.379 80.2851 182.12 69.9437C181.986 64.8638 181.365 58.0611 184.602 53.9476C188.281 49.2455 193.936 47.079 199.615 45.8749C205.588 44.6045 210.739 48.8029 213.828 53.8121C216.546 58.2414 217.939 63.3159 219.12 68.3295L219.136 68.353Z" fill="white"/>
  <path d="M187.116 105.323C189.021 106.265 190.926 107.208 192.861 108.096C194.796 108.985 196.76 109.819 198.761 110.561C200.74 111.318 202.77 112.006 204.815 112.617C206.844 113.206 208.909 113.702 210.996 114.084C213.066 114.443 215.173 114.709 217.27 114.816C217.545 114.824 217.798 114.848 218.074 114.857C218.211 114.861 218.183 115.014 218.093 115.077C218.034 115.185 217.866 115.235 217.744 115.254C215.625 115.163 213.488 114.95 211.395 114.607C209.301 114.264 207.252 113.79 205.2 113.217C203.149 112.645 201.134 111.979 199.133 111.237C197.132 110.496 195.145 109.677 193.187 108.804C191.23 107.932 189.317 107.028 187.412 106.085C187.158 105.962 186.942 105.846 186.687 105.723C186.487 105.629 186.908 105.267 187.07 105.355L187.116 105.323Z" fill="#98BCB5"/>
  <path d="M201.766 102.412C201.766 102.412 201.992 102.254 202.114 102.236C205.389 102.389 208.568 101.439 211.583 100.303C212.434 99.9765 213.284 99.6499 214.119 99.301C214.187 99.2535 214.354 99.2035 214.387 99.3475C214.405 99.469 214.262 99.6023 214.178 99.6273C211.104 100.872 207.946 102.141 204.628 102.553C203.697 102.668 202.742 102.7 201.816 102.678C201.679 102.674 201.707 102.521 201.782 102.435L201.766 102.412Z" fill="#98BCB5"/>
  <path d="M186.501 17.6343C186.501 17.6343 186.509 17.5353 186.506 17.4737C186.639 15.7281 187.788 14.1798 189.261 13.2738C190.733 12.3679 192.498 11.9943 194.226 11.8937C196.101 11.7753 197.4 12.2584 199.139 12.6882C200.691 13.0632 202.337 12.7558 203.897 13.0317C205.927 13.3644 207.767 14.7164 208.695 16.5711C209.341 17.8559 209.551 19.3172 209.981 20.721C210.397 22.1007 211.061 23.5331 212.334 24.2517C213.342 24.8318 214.523 24.8747 215.633 25.2413C219.271 26.3913 222.589 31.5036 223.333 35.0686C223.661 36.6861 223.611 38.6386 222.352 39.6478C221.723 40.1524 220.909 40.3798 220.331 40.9196C219.411 41.8052 219.349 43.2271 219.133 44.4819C218.536 47.7136 216.117 50.5925 213 51.5219C209.845 52.4404 206.13 51.2068 204.327 48.4461C203.169 46.6863 202.302 43.6937 202.665 41.5694C202.998 39.619 203.934 37.6833 201.805 36.2061C200.906 35.5973 199.805 35.4156 198.885 34.8816C197.511 34.0926 196.634 32.5571 196.37 30.999C196.105 29.4409 196.367 27.8141 196.879 26.3015C197.193 25.3393 197.59 24.3001 197.193 23.3518C196.278 21.2374 193.12 22.0943 191.323 21.7284C189.24 21.2988 186.551 20.225 186.637 17.6541L186.501 17.6343Z" fill="#B36332"/>
  <path d="M188.235 59.6822C188.459 59.7604 188.725 59.7078 188.938 59.6262C190.595 59.1038 192.265 57.9714 193.817 57.1544C195.703 56.1384 197.501 54.9493 199.362 53.8501C200.694 53.054 202.008 52.1364 203.466 51.6191C204.439 51.2742 204.77 50.1071 204.761 49.1774C204.764 48.941 204.722 48.7363 204.658 48.5474C204.431 47.8367 203.896 47.4082 203.387 46.7275C201.814 44.717 200.28 42.7132 198.775 40.6552C197.874 39.4128 196.957 38.148 196.062 36.8673C195.795 36.4853 195.421 35.6105 194.915 35.5624C194.547 35.5184 193.878 36.1529 193.552 36.3137C193.484 36.3611 185.94 39.8915 185.918 39.9073C185.06 40.2722 183.743 40.5572 183.522 41.4471C183.487 41.6385 183.468 41.8524 183.557 42.1246C184.478 45.3255 187.873 47.0991 188.93 50.205C189.084 50.6661 189.192 51.1588 189.232 51.6989C189.41 53.9812 188.172 56.1165 187.768 58.3373C187.671 58.8733 187.706 59.5508 188.228 59.7205L188.235 59.6822Z" fill="#FCD9BA"/>
  <path d="M188.937 50.1669C191.423 49.3338 193.287 47.1292 193.968 44.5813C194.161 43.8446 194.297 42.8807 194.272 41.9285C194.235 41.1519 194.099 40.3779 193.768 39.807C193.083 38.6811 191.533 38.8272 190.386 38.8259C188.75 38.7989 187.056 39.4136 185.616 40.1515C184.897 40.5204 184.208 40.9343 183.551 41.3931C183.517 41.5845 183.498 41.7985 183.586 42.0706C184.508 45.2715 187.903 47.0451 188.96 50.1511L188.937 50.1669Z" fill="#CB9C7B"/>
  <path d="M196.955 36.8446C196.39 39.4125 195.456 41.9364 193.951 44.1242C192.491 46.2804 190.307 48.6073 187.599 48.9278C184.929 49.2548 182.373 47.4294 180.606 45.6221C179.211 44.1559 177.931 42.7097 177.194 40.7848C176.721 39.5772 176.4 38.2971 175.882 37.1212C175.563 36.3747 175.199 35.6598 174.857 34.9291C174.37 33.7981 174.028 32.6329 173.693 31.4294C173.505 30.7253 173.294 30.0371 173.227 29.3146C173.11 28.3267 173.195 27.0974 173.676 26.1933C174.15 25.3275 174.417 24.406 174.798 23.5045C175.7 21.3701 177.164 19.412 179.199 18.2245C180.288 17.5642 181.543 17.1893 182.8 16.9134C183.995 16.6467 185.2 16.4408 186.402 16.5703C187.528 16.6865 188.583 17.0865 189.601 17.579C191.274 18.3825 192.829 19.4025 194.039 20.7971C195.943 22.944 196.327 25.6173 196.986 28.2989C197.655 31.0413 197.57 34.0086 196.933 36.8604L196.955 36.8446Z" fill="#FCD9BA"/>
  <path d="M181.699 34.0617C181.699 34.0617 181.722 34.0459 181.745 34.03C182.179 33.9275 182.467 35.0636 182.533 35.3515C182.697 35.9724 182.762 36.5958 182.765 37.2284C182.779 38.0208 182.595 38.8183 182.593 39.5882C182.572 40.572 183.836 40.6923 184.593 40.6655C184.99 40.6554 184.79 40.9958 184.492 41.0034C183.796 41.0211 182.862 40.9381 182.318 40.4488C182.046 40.2042 181.994 39.8397 182.018 39.4884C182.041 39.0381 182.124 38.5786 182.147 38.1283C182.188 37.4641 182.192 36.7933 182.096 36.125C182.036 35.7987 181.961 35.45 181.864 35.117C181.775 34.8449 181.508 34.463 181.579 34.1791C181.593 34.1025 181.661 34.055 181.729 34.0076L181.699 34.0617Z" fill="#CB9C7B"/>
  <path d="M175.993 36.2597C175.993 36.2597 175.963 36.3138 175.956 36.3521C175.934 36.3679 175.876 36.5751 175.799 36.5618C175.768 36.5169 175.737 36.472 175.728 36.4112C175.691 36.0691 175.77 35.747 175.848 35.4249C176.05 34.7489 176.237 33.6347 176.749 33.21C177.336 32.6996 178.036 32.5994 178.903 32.6565C179.458 32.6931 180.156 32.1825 180.278 33.0331C180.306 33.3144 180.095 33.4951 179.875 33.615C179.611 33.7666 179.072 33.679 179.072 33.679C179.072 33.679 178.294 33.3881 177.5 33.679C177 33.8621 176.765 34.1945 176.5 34.679C176.278 35.0839 176.148 35.9508 175.993 36.2597C176.059 36.1132 175.927 36.4062 175.993 36.2597Z" fill="#B36332"/>
  <path d="M190.839 30.9356C190.499 30.3039 189.105 29.1897 188.506 29.0068C187.146 28.6526 185.783 29.4863 184.525 30.0976C184.047 30.3308 183.655 31.0725 184.356 31.352C184.556 31.446 184.778 31.4251 184.999 31.4042C185.503 31.3533 185.78 30.3795 186.491 30.0309C187.207 29.6797 187.745 29.453 188.506 29.6942C189.101 29.8829 189.349 30.539 189.757 30.6887C190.057 30.7802 190.575 31.0871 190.839 30.9356Z" fill="#B36332"/>
  <path d="M187.639 33.0571C187.764 32.8024 188.053 32.734 188.322 32.7806C188.543 32.7597 188.766 32.8379 188.937 32.986C189.178 33.1857 189.343 33.4711 189.403 33.7974C189.469 34.0853 189.474 34.3825 189.364 34.6597C189.248 34.9752 188.96 35.1426 188.64 35.166C188.64 35.166 188.639 35.166 188.601 35.1593C188.563 35.1527 188.502 35.1618 188.448 35.1327C188.448 35.1327 188.371 35.1195 188.333 35.1128C188.256 35.0995 188.202 35.0704 188.125 35.0571C187.839 34.889 187.627 34.5362 187.545 34.2258C187.503 34.021 187.499 33.8229 187.496 33.6248C187.508 33.4492 187.52 33.2736 187.586 33.1271L187.639 33.0571Z" fill="#4A565D"/>
  <path d="M179.204 35.9389C179.291 35.6775 179.587 35.5708 179.847 35.5566C180.068 35.5357 180.298 35.5757 180.476 35.6855C180.762 35.8535 180.928 36.139 181.032 36.4336C181.121 36.7057 181.165 37.0095 181.116 37.2775C181.038 37.5996 180.759 37.8278 180.438 37.8512C180.438 37.8512 180.438 37.8512 180.416 37.867C180.37 37.8987 180.316 37.8695 180.278 37.8629C180.278 37.8629 180.217 37.8721 180.179 37.8654C180.102 37.8521 180.025 37.8388 179.971 37.8097C179.64 37.6733 179.421 37.3587 179.3 37.0416C179.236 36.8527 179.194 36.648 179.19 36.4499C179.164 36.2676 179.176 36.092 179.242 35.9455L179.204 35.9389Z" fill="#4A565D"/>
  <ellipse cx="186.796" cy="43.8428" rx="1.74097" ry="1.762" transform="rotate(-15.57 186.796 43.8428)" fill="#4E3A3A"/>
  <path d="M173.08 28.7162C172.839 27.2131 172.736 25.714 173.206 24.2157C173.727 22.5484 174.748 21.0665 175.995 19.861C178.085 17.8336 180.713 16.4328 183.529 15.7362C186.703 14.9237 190.441 15.7891 193.06 17.7044C195.05 19.1554 196.564 21.274 197.431 23.5769C198.297 25.8797 198.526 28.4274 198.295 30.8954C198.203 31.7286 197.947 32.8098 197.301 33.4285C196.473 34.1736 196.333 32.767 195.958 32.3268C195.669 31.9607 194.794 30.9006 194.374 31.361C194.231 31.4942 194.074 31.7039 193.867 31.6482C193.752 31.6283 193.673 31.516 193.61 31.4261C193.045 30.6172 193.043 29.6492 192.646 28.7904C192.351 28.1271 192.009 27.3964 191.608 26.7739C191.129 26.0391 190.465 25.2328 189.745 24.7328C189.056 24.2777 188.066 24.0666 187.261 23.927C185.504 23.5829 183.655 23.6375 181.901 23.926C180.049 24.217 178.186 24.7827 176.638 25.8969C175.8 26.4822 175.126 27.254 174.42 27.9808C174.007 28.4029 173.619 28.9082 173.197 29.2696C173.171 29.0873 173.145 28.9051 173.103 28.7004L173.08 28.7162Z" fill="#B36332"/>
  <path d="M198.462 30.8455C198.694 31.4189 198.797 32.0489 198.785 32.659C198.776 33.9017 197.822 38.2785 195.709 36.8458C194.587 36.0587 194.367 34.0063 194.237 32.7595C194.082 31.3304 194.683 29.0055 196.537 29.248C197.273 29.336 197.909 29.861 198.265 30.5151C198.327 30.605 198.383 30.7332 198.423 30.8389L198.462 30.8455Z" fill="#FCD9BA"/>
  <path d="M199.173 16.3235C201.275 15.7148 203.715 15.7093 205.446 17.2732C205.927 17.6911 206.306 18.2042 206.569 18.7889C206.612 18.8595 206.629 19.0439 206.506 19.0541C206.384 19.0643 206.283 18.8994 206.239 18.8288C205.375 16.8954 203.04 16.2856 201.097 16.4725C200.523 16.5328 199.931 16.6688 199.377 16.814C199.185 16.8672 198.957 16.3911 199.173 16.3235V16.3235Z" fill="#98491F"/>
  <path d="M186.18 15.6238C186.18 15.6238 186.407 15.4655 186.529 15.4472C188.662 15.4615 190.763 16.2009 192.438 17.5379C192.609 17.686 192.21 18.0316 192.055 17.9059C190.395 16.5913 188.356 15.8429 186.238 15.851C186.1 15.8469 186.128 15.6937 186.219 15.6304L186.18 15.6238Z" fill="#98491F"/>
  <path d="M195.034 26.4201C195.053 24.0338 194.087 21.7336 192.368 20.0927C192.235 19.9512 192.65 19.6282 192.821 19.7763C194.54 21.4171 195.53 23.8006 195.512 26.1869C195.507 26.3242 195.409 26.4258 195.303 26.4666C195.257 26.4983 195.029 26.5574 195.034 26.4201V26.4201Z" fill="#98491F"/>
  <path d="M174.926 24.6526C174.835 22.978 175.455 21.3081 176.642 20.1117C176.733 20.0484 176.891 19.9377 176.977 20.0117C177.085 20.07 176.98 20.2098 176.928 20.2798C175.861 21.3588 175.301 22.9204 175.404 24.4194C175.407 24.6175 174.946 24.8732 174.926 24.6526Z" fill="#98491F"/>
  <path d="M178.074 21.4849C178.074 21.4849 178.254 21.2593 178.36 21.2184C178.444 21.1934 178.582 21.1976 178.561 21.3125C178.463 21.8485 178.542 22.3954 178.772 22.8697C178.835 22.9596 178.73 23.0994 178.624 23.1402C178.556 23.1877 178.359 23.2919 178.319 23.1862C178.057 22.6669 177.993 22.0434 178.097 21.4691L178.074 21.4849Z" fill="#98491F"/>
  <path d="M202.905 53.622C203.269 52.8518 203.697 52.1705 204.257 51.7658C207.501 49.32 211.53 52.63 213.289 55.3481C215.689 59.092 214.537 65.47 214.034 69.5865C213.605 73.1431 212.81 76.5243 212.386 80.0425C212.064 82.71 210.578 85.7081 209.5 88.1782C208.357 90.7959 206.722 93.8794 204 95.6782C203.094 96.265 200.547 98.4287 199.5 98.6782C197.617 99.0922 198.236 98.2643 196.353 98.6782C195.616 98.8385 194.484 96.5714 194 96.0425C193.547 95.558 193.369 91.8472 193.5 91.1782C194.105 87.6295 193.817 87.7149 194.5 84.1782C195.753 77.4222 200.201 71.9089 200.833 65.0948C201.027 62.7225 201.222 60.3501 201.724 58.026C201.959 56.8417 202.328 55.0874 202.96 53.6502L202.905 53.622Z" fill="#F7D2B1"/>
  <path d="M210.593 46.2395C216.158 48.3721 217.758 55.3982 218.648 60.6388C219.722 66.7946 220.248 73.0418 220.239 79.3037C220.236 81.2333 219.888 83.5816 218.098 84.2662C217.57 84.4788 216.958 84.4814 216.385 84.49C214.527 84.514 212.686 84.5601 210.808 84.4629C209.107 84.3735 207.403 84.1851 205.699 83.9967C203.28 83.7161 200.877 83.4577 198.436 83.1932C195.918 82.9167 195.177 82.2688 194.938 79.5331C194.775 77.6562 195.243 75.8978 195.425 74.0751C195.779 70.7428 196.116 67.3883 196.469 64.056C196.74 61.4593 197.011 58.8626 197.535 56.2858C197.945 54.1638 198.553 52.0336 199.738 50.2301C202.262 46.4109 206.866 44.8083 210.555 46.2335L210.593 46.2395Z" fill="white"/>
  <path d="M212.558 84.3823C212.558 84.3823 212.75 84.176 212.871 84.1557C213.97 84.0718 215.078 84.0486 216.183 83.9263C217.105 83.8346 218.133 83.7002 218.885 83.0893C219.63 82.5168 219.811 81.5407 219.858 80.6617C219.907 79.6453 219.842 78.6108 219.83 77.6045C219.708 73.3311 219.303 69.0923 218.8 64.8576C218.52 62.4898 218.202 60.1159 217.907 57.7258C217.878 57.5439 218.358 57.2647 218.381 57.4849C218.653 59.6547 218.942 61.8468 219.215 64.0167C219.465 66.2028 219.715 68.3888 219.889 70.5628C220.078 72.759 220.229 74.9491 220.281 77.1435C220.302 78.2103 220.362 79.2831 220.344 80.344C220.307 81.2836 220.155 82.2052 219.522 82.9332C218.844 83.6935 217.823 84.0258 216.85 84.1884C215.793 84.3773 214.685 84.4006 213.57 84.4622C213.272 84.4746 212.991 84.5092 212.693 84.5216C212.571 84.5419 212.507 84.453 212.564 84.3439L212.558 84.3823Z" fill="#98BCB5"/>
  <path d="M195.112 81.9436C194.861 81.3134 194.799 80.6143 194.792 79.9435C194.797 79.1959 194.841 78.4543 194.923 77.7187C195.218 74.4956 195.491 71.2887 195.771 68.0433C195.931 66.2368 196.076 64.408 196.258 62.5853C196.268 62.4095 196.764 62.1523 196.735 62.4433L195.89 71.9813L195.462 76.72C195.396 77.4778 195.33 78.2356 195.287 78.9772C195.249 79.6804 195.251 80.3896 195.396 81.0623C195.541 81.7351 195.856 82.4541 196.488 82.8091C197.103 83.142 197.817 82.9979 198.462 83.2761C198.664 83.3669 198.27 83.7188 198.084 83.6503C197.511 83.4225 196.864 83.5181 196.274 83.2681C195.7 83.0403 195.315 82.5072 195.112 81.9436Z" fill="#98BCB5"/>
  <path d="M207.719 80.0003C209.335 78.6976 210.655 77.0335 211.626 75.216C212.625 73.344 213.259 71.2966 213.64 69.2292C213.852 68.0611 213.972 66.8587 214.009 65.6826C214.012 65.5452 214.108 65.4421 214.213 65.3996C214.258 65.3672 214.485 65.3044 214.482 65.4418C214.419 67.6181 214.08 69.7905 213.417 71.8925C212.76 73.9562 211.825 75.9169 210.477 77.6357C209.722 78.6204 208.849 79.4881 207.896 80.2446C207.829 80.2932 207.656 80.3844 207.592 80.2955C207.528 80.2067 207.668 80.0711 207.735 80.0225L207.719 80.0003Z" fill="#98BCB5"/>
  <path d="M203.319 68.2014C204.093 67.3379 204.732 66.3351 205.217 65.3082C205.274 65.199 205.408 65.1019 205.53 65.0816C205.652 65.0613 205.716 65.1502 205.659 65.2593C205.116 66.3954 204.432 67.4306 203.607 68.3649C203.518 68.4296 203.361 68.5429 203.274 68.4702C203.165 68.4138 203.268 68.2722 203.319 68.2014Z" fill="#98BCB5"/>
  <path d="M182.833 55.779C184.713 64.2013 186.587 72.6623 188.467 81.0846C189.006 83.5193 189.55 85.9154 190.352 88.2892C191.121 90.6189 192.131 92.9043 193.026 95.1733C193.498 96.3408 194.016 97.6129 195.039 98.328C196.008 99.0155 197.311 99.1021 198.469 98.8142C199.626 98.5263 200.649 97.9245 201.654 97.3006C202.256 96.9142 202.879 96.5112 203.38 95.9927C204.91 94.3819 204.499 92.1619 203.976 90.201C203.396 88.0749 202.465 86.076 201.573 84.0825C198.762 77.9259 195.991 71.7748 193.181 65.6181C191.772 62.4902 190.342 59.3789 188.934 56.251C187.84 53.8555 187.251 50.1757 183.896 51.1936C183.118 51.4369 182.641 52.2143 182.516 53.0024C182.391 53.7905 182.575 54.6222 182.747 55.3934C182.77 55.5146 182.793 55.6358 182.816 55.757L182.833 55.779Z" fill="#F7D2B1"/>
  <path d="M189.101 53.9754C188.551 55.1552 187.684 55.327 186.486 55.4717C185.926 55.5495 185.388 55.6108 184.833 55.6501C183.745 55.712 183.135 55.7237 182.538 54.7547C181.618 53.2682 181.145 51.5111 180.685 49.8146C180.389 48.7901 180.044 47.6997 179.952 46.6253C179.871 45.6116 179.621 44.6918 179.777 43.6722C179.828 43.2865 179.918 42.9061 180.135 42.6028C180.401 42.2278 180.779 42.0456 180.79 42.6958C180.822 43.7812 181.058 44.9544 181.37 46.0009C181.433 46.2653 181.813 47.5377 182.055 46.9037C182.173 46.6061 181.965 46.1048 181.929 45.7853C181.88 45.2674 181.832 44.7496 181.783 44.2317C181.685 43.196 181.588 42.1603 181.474 41.1026C181.427 40.7224 181.405 40.1495 181.677 39.8736C181.906 39.6309 182.372 39.5201 182.606 39.8284C182.706 39.9605 182.741 40.1423 182.775 40.3241C183.084 42.2742 183.015 44.2688 183.703 46.1743C183.804 46.4442 184.149 46.9453 184.288 46.4933C184.347 46.3444 184.329 46.1847 184.311 46.0249C184.131 44.2895 183.933 42.5321 183.753 40.7967C183.682 40.2954 183.527 39.5462 183.837 39.1381C184.363 38.4267 185.025 39.2083 185.118 39.8308C185.289 41.0538 185.382 42.2658 185.553 43.4888C185.687 44.3923 185.823 45.4335 186.309 46.2098C186.395 46.0058 186.365 45.7854 186.319 45.5431C186.179 44.6782 186.1 43.8022 186.02 42.9262C185.977 42.3698 185.429 40.1501 186.286 40.0553C186.566 40.0164 186.815 40.209 186.982 40.4292C187.149 40.6494 187.19 40.9303 187.253 41.1947C187.507 42.5277 187.558 43.9106 187.79 45.2602C187.9 45.9048 188.131 46.5272 188.28 47.1772C188.32 47.3204 188.708 48.8296 188.729 48.8131C188.887 48.6586 188.902 48.4051 188.932 48.1736C189.065 47.0329 189.198 45.8922 189.986 44.9821C190.074 44.9159 190.15 44.7891 190.27 44.7669C190.396 44.7061 190.534 44.706 190.666 44.7444C191.845 45.0295 191.063 46.0388 190.849 46.7553C190.518 47.7695 190.313 48.8607 190.114 49.9133C189.851 51.2911 189.737 52.5916 189.188 53.9092C189.166 53.9257 189.156 54.0028 189.134 54.0193L189.101 53.9754Z" fill="#F7D2B1"/>
  <path d="M209.981 20.721C209.551 19.3172 209.341 17.8559 208.695 16.5711L199.139 28.679C199.403 30.2371 200.432 31.89 201.805 32.679C202.725 33.213 200.906 35.5973 201.805 36.2061C203.934 37.6833 202.998 39.619 202.665 41.5694C202.302 43.6937 203.169 46.6863 204.327 48.4461C206.13 51.2068 209.845 52.4404 213 51.5219C216.117 50.5925 218.536 47.7136 219.133 44.4819C219.349 43.2271 219.411 41.8052 220.331 40.9196C220.909 40.3798 221.723 40.1524 222.352 39.6478C223.611 38.6386 223.661 36.6861 223.333 35.0686C222.589 31.5036 219.271 26.3913 215.633 25.2413C214.523 24.8747 213.342 24.8318 212.334 24.2517C211.061 23.5331 210.397 22.1007 209.981 20.721Z" fill="#B36332"/>
  <path d="M202.736 30.2531C204.123 30.0243 205.438 30.8809 206.239 31.9944C207.249 33.4049 207.352 35.2064 207.258 36.8592C207.152 38.6106 206.776 40.3734 207.087 42.1018C207.386 43.7438 208.36 45.2034 209.761 46.1096C211.237 47.0408 213.116 47.3074 214.772 46.8206C214.98 46.7474 215.203 47.2541 215.019 47.3151C213.547 47.7409 211.926 47.6235 210.5 46.9762C209.013 46.267 207.794 44.9913 207.177 43.4467C206.497 41.7785 206.591 40.0024 206.783 38.239C206.963 36.5126 207.204 34.6631 206.512 33.0318C205.944 31.6478 204.492 30.5193 202.971 30.7846C202.774 30.8208 202.577 30.3019 202.81 30.2782L202.736 30.2531Z" fill="#98491F"/>
  <path d="M116 114.984C116 114.686 116.259 114.454 116.555 114.487L121.922 115.083C122.175 115.111 122.366 115.325 122.366 115.58V118.111C122.366 118.409 122.107 118.641 121.811 118.608L116.445 118.012C116.192 117.983 116 117.769 116 117.515V114.984Z" fill="#7BBAED"/>
  <path d="M125.256 117.548L122.351 118.517L119.491 118.199L122.379 114.99L125.256 117.548Z" fill="#7BBAED" stroke="#7BBAED" stroke-width="0.3" stroke-linejoin="round"/>
  <path d="M126.61 114.412C126.61 114.07 126.276 113.829 125.952 113.937L122.708 115.019C122.504 115.087 122.366 115.278 122.366 115.493V117.976C122.366 118.317 122.7 118.558 123.024 118.45L126.268 117.369C126.473 117.301 126.61 117.11 126.61 116.895V114.412Z" fill="#A0D0F6"/>
  <path d="M120.611 113.445L125.535 113.938L122.35 114.98L117.023 114.429L120.611 113.445Z" fill="#EFEFEF" stroke="#E2E2E2" stroke-width="0.3"/>
  <mask id="mask0_158_974" style="mask-type:alpha" maskUnits="userSpaceOnUse" x="118" y="109" width="8" height="6">
    <path d="M118.499 109.841C118.487 109.535 118.748 109.29 119.052 109.323L124.446 109.897C124.693 109.923 124.883 110.126 124.893 110.373L125.045 114.075C125.058 114.38 124.796 114.625 124.493 114.593L119.098 114.019C118.852 113.993 118.662 113.79 118.652 113.542L118.499 109.841Z" fill="#7BBAED"/>
  </mask>
  <g mask="url(#mask0_158_974)">
    <rect x="121.153" y="112.408" width="0.565906" height="0.707382" transform="rotate(-2.35403 121.153 112.408)" fill="#FEDC92"/>
    <path d="M122.745 109.794L120.271 109.896L119.918 109.91L119.24 110.646L121.462 113.033L123.481 110.472L122.745 109.794Z" fill="#FFEFD4"/>
    <path d="M119.947 110.617L119.594 110.631L121.448 112.679L123.128 110.486L122.774 110.501L121.433 112.326L119.947 110.617Z" fill="#FED379"/>
    <circle cx="121.448" cy="112.679" r="0.353691" transform="rotate(-2.35403 121.448 112.679)" fill="#FDC67C"/>
    <path d="M122.773 110.501L119.946 110.617L121.432 112.326L122.773 110.501Z" fill="#FEE5AC"/>
    <path d="M121.713 110.544L121.007 110.573L120.697 111.648L120.819 111.785L121.375 110.912L121.995 111.736L122.11 111.59L121.713 110.544Z" fill="#FCD578"/>
    <circle cx="121.52" cy="114.446" r="1.11476" transform="rotate(-2.35403 121.52 114.446)" stroke="#FED88C" stroke-width="0.6"/>
    <circle cx="121.522" cy="114.481" r="1.03792" transform="rotate(-2.35403 121.522 114.481)" stroke="#FDC267" stroke-width="0.4"/>
  </g>
</svg>
