<svg width="199" height="198" viewBox="0 0 199 198" fill="none"
  xmlns="http://www.w3.org/2000/svg">
  <path d="M73.8083 79.8499C74.665 80.5583 75.7388 81.564 76.956 81.176C77.2716 81.067 77.5157 80.89 77.7124 80.6831C77.8437 80.6565 77.9818 80.5909 78.0885 80.5105C78.1339 80.4628 78.1793 80.4151 78.2323 80.3594C78.2996 80.2567 78.3585 80.1309 78.3856 79.9749C79.8017 72.0955 77.0933 64.4913 72.9112 57.8795C71.3173 55.3493 69.5762 52.8305 67.6683 50.4713C66.8189 49.4366 65.9389 48.4182 65.0139 47.4631C61.8156 44.1347 57.96 41.5297 54.1593 38.9465C53.4323 38.4523 52.515 39.3375 52.7436 40.085C52.7857 40.216 52.8203 40.3549 52.8624 40.4859C55.7464 50.1204 58.7351 59.8998 64.0934 68.4932C66.7318 72.7133 69.9457 76.6626 73.8004 79.8424L73.8083 79.8499Z" fill="#30421F"/>
  <path d="M78.0807 80.5031C78.1261 80.4554 78.1715 80.4076 78.2245 80.3519C78.2918 80.2493 78.3507 80.1235 78.3778 79.9675C79.7939 72.0881 77.0855 64.4838 72.9034 57.872C71.3095 55.3418 69.5684 52.8231 67.6605 50.4639C66.8111 49.4292 65.9311 48.4108 65.0061 47.4557C61.8078 44.1273 57.9522 41.5222 54.1515 38.9391C53.4245 38.4449 52.5072 39.3301 52.7358 40.0776C52.7779 40.2086 52.8125 40.3475 52.8547 40.4784C56.2437 42.443 59.3432 45.8593 60.6609 49.4449C62.0112 53.0918 61.9417 57.1008 63.1534 60.7978C65.8191 68.8613 71.8378 75.0073 78.0652 80.5035L78.0807 80.5031Z" fill="#768C4D"/>
  <path d="M78.2242 80.3522C78.2915 80.2495 78.3504 80.1238 78.3775 79.9678C79.7937 72.0884 77.0852 64.4841 72.9031 57.8723C71.3092 55.3421 69.5681 52.8233 67.6602 50.4641C65.3126 55.2917 65.0603 60.975 67.1667 65.9619C68.5124 69.1197 70.7832 71.7027 72.9613 74.3035C74.6827 76.3491 76.4343 78.3627 78.2086 80.3525L78.2242 80.3522Z" fill="#AEBD7A"/>
  <path d="M54.0838 87.5945C56.5621 87.6328 58.9901 86.9113 61.0605 85.5621C61.2592 85.4328 61.4578 85.3035 61.6481 85.1512C63.5614 83.7282 65.7377 81.3434 65.9464 78.8453L65.9539 78.8373C65.9663 78.7128 65.9094 78.6132 65.8075 78.577C65.7757 78.5467 65.7291 78.5479 65.6826 78.5491C65.5819 78.5594 65.4967 78.5693 65.4191 78.5712C65.3877 78.5565 65.3411 78.5577 65.2945 78.5589C60.494 79.4335 57.2152 83.0577 54.2859 86.6808C54.1425 86.8475 54.0071 87.0218 53.8642 87.204C53.7213 87.3862 53.882 87.5996 54.0841 87.61L54.0838 87.5945Z" fill="#758B4C"/>
  <path d="M54.0838 87.5944C56.5621 87.6327 58.9902 86.9112 61.0606 85.562C61.2593 85.4327 61.4579 85.3034 61.6482 85.1511C63.5615 83.7281 65.7378 81.3433 65.9464 78.8452L65.954 78.8372C65.9664 78.7127 65.9095 78.6131 65.8076 78.5769C64.2192 78.718 63.1928 79.5904 61.9741 80.8405C59.9233 82.9658 57.3026 85.8977 54.278 86.6731C54.1347 86.8398 53.9993 87.0141 53.8563 87.1963C53.7134 87.3786 53.8741 87.592 54.0763 87.6024L54.0838 87.5944Z" fill="#93A350"/>
  <path d="M61.0605 85.5618C61.2591 85.4325 61.4578 85.3032 61.6481 85.1509C63.5613 83.7279 65.7376 81.3431 65.9463 78.845C63.3422 79.9748 60.6221 82.6606 61.0525 85.5542L61.0605 85.5618Z" fill="#C7D288"/>
  <path d="M61.1179 78.2993C61.2735 78.3109 61.4446 78.3221 61.6078 78.3257C61.6854 78.3238 61.7554 78.3297 61.8331 78.3278C61.9728 78.3242 62.0707 78.2053 62.0751 78.0732C62.1722 74.8478 60.6016 71.7035 59.0337 68.9707C58.9279 68.7792 58.8146 68.5957 58.7008 68.3967C58.0119 67.257 57.231 66.1662 56.3522 65.1944L56.3363 65.1792C55.9209 64.7238 55.4909 64.2998 55.0301 63.8921C54.1007 63.0691 53.0658 62.373 51.9102 61.8198C51.6794 61.6004 51.4256 61.3894 51.1797 61.1859C50.9967 61.0119 50.714 61.1977 50.7665 61.4293C52.1772 67.4666 53.075 77.7881 61.1023 78.2997L61.1179 78.2993Z" fill="#758B4C"/>
  <path d="M61.1181 78.2992C61.2737 78.3108 61.4449 78.322 61.608 78.3257C61.6857 78.3237 61.7557 78.3297 61.8333 78.3277C61.973 78.3242 62.0709 78.2052 62.0754 78.0731C62.1724 74.8478 60.6019 71.7035 59.034 68.9707C58.9282 68.7792 58.8148 68.5957 58.7011 68.3966C58.0122 67.2569 57.2313 66.1661 56.3524 65.1943C56.3524 65.1943 56.3525 65.1943 56.3445 65.1868C55.9292 64.7313 55.4911 64.2997 55.0383 63.8996C55.4733 66.3581 54.5143 68.9762 55.6592 71.5644C56.8698 74.2907 58.7666 76.5181 61.1261 78.3068L61.1181 78.2992Z" fill="#93A350"/>
  <path d="M61.6081 78.3256C61.6081 78.3256 61.7558 78.3297 61.8334 78.3277C61.9731 78.3242 62.071 78.2052 62.0755 78.0731C62.1725 74.8478 60.602 71.7034 59.0341 68.9706C58.9283 68.7792 58.8149 68.5956 58.7012 68.3966C56.9826 71.6862 59.0531 75.8663 61.6002 78.3181L61.6081 78.3256Z" fill="#C7D288"/>
  <path d="M76.5086 81.6298C76.6041 81.7206 76.7223 81.7875 76.8405 81.8544C76.9901 81.9361 77.1393 82.0022 77.2953 82.0293C79.4526 82.5805 81.3867 78.6021 82.346 77.2265C84.6552 73.9531 86.6914 70.3292 87.3356 66.3213C88.0137 62.1183 87.5265 57.8982 86.8992 53.6661C86.2421 49.1784 85.4298 44.6947 85.7128 40.2222C86.3356 39.3599 85.017 38.1973 84.1368 39.0117C84.1216 39.0276 84.1065 39.0435 84.0914 39.0594C77.8173 44.926 73.6681 52.8279 72.6808 61.3876C72.2416 65.2118 72.4245 69.0668 73.1877 72.8373C73.6049 74.9003 74.2071 76.912 74.994 78.8568C75.3666 79.7716 75.7073 80.9589 76.5162 81.6219L76.5086 81.6298Z" fill="#0A342E"/>
  <path d="M76.5083 81.6298C76.6038 81.7205 76.722 81.7874 76.8401 81.8543C76.9897 81.936 77.139 82.0021 77.295 82.0292C79.4523 82.5804 81.3864 78.602 82.3457 77.2264C84.6548 73.953 86.6911 70.3291 87.3353 66.3212C88.0134 62.1182 87.5262 57.8981 86.8988 53.666C86.2418 49.1784 85.4295 44.6946 85.7125 40.2221C86.3352 39.3598 85.0167 38.1972 84.1364 39.0116C84.1213 39.0275 84.1062 39.0434 84.091 39.0593C83.9606 43.1165 85.1616 47.0001 83.1543 50.8484C82.0431 52.9733 80.7162 55.1658 79.052 56.9164C77.6147 58.4282 76.0557 59.7335 75.1018 61.6292C72.1438 67.4974 73.2751 75.6929 76.5159 81.6218L76.5083 81.6298Z" fill="#265337"/>
  <path d="M77.3024 82.037C79.4597 82.5882 81.3938 78.6097 82.3531 77.2342C84.6622 73.9607 86.6985 70.3369 87.3427 66.3289C88.0208 62.1259 87.5336 57.9058 86.9062 53.6737C86.2944 56.1976 84.6898 58.1563 82.7356 60.419C80.5549 62.936 78.4811 65.9938 77.1841 69.0631C75.4119 73.3015 75.8214 77.8264 77.3024 82.037Z" fill="#A5BA80"/>
  <path d="M73.7291 105.014C75.7075 104.016 77.7885 103.086 79.7888 102.034C81.2605 101.266 82.6916 100.43 84.018 99.4494C86.5034 97.6159 88.4775 95.2207 90.2706 92.7291C90.9081 91.8354 92.1906 90.343 92.2038 89.0225C92.207 88.8438 92.1868 88.6579 92.1359 88.4883C92.0508 88.1954 91.8886 87.9199 91.6025 87.6631C91.2922 87.3681 90.9475 87.2525 90.6212 87.2453C90.3804 87.2436 89.6695 87.3858 89.5238 87.4594C85.9325 89.1655 82.1426 91.0009 79.6456 94.217C77.1263 97.4725 76.1665 101.286 73.1117 104.245C73.0284 104.332 72.9763 104.419 72.9711 104.52C72.9256 104.871 73.3609 105.194 73.7366 105.006L73.7291 105.014Z" fill="#758B4C"/>
  <path d="M73.7291 105.014C75.7075 104.016 77.7886 103.086 79.7889 102.034C81.2606 101.266 82.6916 100.43 84.0181 99.4494C86.5035 97.6159 88.4776 95.2207 90.2706 92.7291C90.9082 91.8354 92.1906 90.343 92.2038 89.0225C92.2071 88.8438 92.1869 88.6579 92.136 88.4883C88.5352 89.8219 85.5124 92.2048 82.9925 95.1264C81.5137 96.8412 80.3107 98.7122 79.0058 100.547C77.3708 102.84 75.6506 103.917 72.9715 104.536C72.926 104.886 73.3613 105.209 73.7371 105.021L73.7291 105.014Z" fill="#93A350"/>
  <path d="M79.7809 102.042C81.2525 101.274 82.6836 100.438 84.0101 99.4573C86.4954 97.6239 88.4696 95.2286 90.2626 92.737C90.9001 91.8434 92.1826 90.351 92.1958 89.0304C89.5731 90.0364 87.6743 92.0337 86.0322 94.3506C84.0595 97.1108 82.1768 99.7444 79.7888 102.049L79.7809 102.042Z" fill="#C7D288"/>
  <path d="M110.774 98.6331C111.004 98.8214 111.226 98.9866 111.463 99.1515C112.34 99.7428 113.273 100.115 114.259 100.098C114.259 100.098 114.29 100.097 114.306 100.097C114.523 100.091 114.729 99.9387 114.777 99.7123C114.931 99.0405 115.054 98.3695 115.161 97.6834C116.415 89.5441 114.525 80.5213 111.271 73.1249C109.211 68.4398 105.823 64.6891 102.283 61.0664C101.438 60.2025 100.578 59.3545 99.6954 58.5303C96.8153 55.8074 93.7461 53.2834 90.4885 50.9894C90.204 50.7946 89.9441 50.9565 89.8417 51.2076C89.7461 51.4197 89.7842 51.6983 90.0214 51.8632C90.0611 51.901 90.1005 51.9233 90.1479 51.9532C90.1717 51.9759 90.1725 52.0069 90.1888 52.0376C92.9174 55.5254 93.5195 60.294 94.3111 64.5763C95.1113 70.73 96.8237 76.7208 99.4588 82.3466C99.5518 82.6471 99.6906 82.9154 99.8601 83.1674C100.064 83.5739 100.254 83.9962 100.466 84.4102C102.246 87.8443 104.363 91.0991 106.784 94.1132C107.835 95.4146 109.196 97.3295 110.79 98.6482L110.774 98.6331Z" fill="#30421F"/>
  <path d="M110.774 98.6331C111.004 98.8214 111.226 98.9866 111.463 99.1515C112.34 99.7428 113.273 100.115 114.259 100.098C114.259 100.098 114.29 100.097 114.306 100.097C114.523 100.091 114.729 99.9387 114.777 99.7123C114.931 99.0405 115.054 98.3695 115.161 97.6834C116.415 89.5441 114.525 80.5213 111.271 73.1249C109.211 68.4398 105.823 64.6891 102.283 61.0664C101.438 60.2025 100.578 59.3545 99.6954 58.5303C96.8153 55.8074 93.7461 53.2834 90.4885 50.9894C90.204 50.7946 89.9441 50.9565 89.8417 51.2076C90.4648 51.5879 91.0732 51.9997 91.6816 52.4114C94.7277 54.9438 96.0711 58.9326 97.1232 62.7656C98.2779 66.9689 99.3976 71.0177 101.904 74.6431C104.492 78.3752 108.01 81.447 110.268 85.3972C112.73 89.6916 111.925 94.1075 110.782 98.6406L110.774 98.6331Z" fill="#768C4D"/>
  <path d="M111.462 99.1513C114.678 91.1954 115.93 81.7203 108.928 75.3818C105.987 72.7225 102.639 70.555 100.968 66.7997C99.7989 64.1733 99.5181 61.3614 99.6875 58.5381C100.563 59.3702 101.438 60.2023 102.276 61.0742C105.823 64.6889 109.21 68.4396 111.263 73.1327C114.509 80.5215 116.4 89.5598 115.153 97.6912C114.879 98.5058 114.581 99.3132 114.259 100.098L111.462 99.1513Z" fill="#AEBD7A"/>
  <path d="M113.612 100.573C114.5 100.1 115.366 99.6043 116.223 99.1011C116.453 99.0021 116.667 98.8724 116.865 98.7121C119.557 97.0598 122.111 95.1857 124.433 93.0458C127.477 90.243 129.002 86.9816 130.318 83.1275C131.844 78.6856 134.582 75.1528 136.588 70.9706C136.854 70.4202 137.057 69.8559 137.252 69.2841C137.663 68.0079 137.979 66.6874 138.554 65.4769C138.679 65.202 138.828 64.9497 138.985 64.705C139.104 64.5156 139.247 64.3333 139.375 64.167C140.722 62.4478 142.777 61.4173 144.816 60.6591C145.162 60.5338 145.31 60.2505 145.318 59.9552C145.437 59.7503 145.493 59.5003 145.426 59.3001C145.366 59.092 145.199 58.9176 144.895 58.8864C135.82 57.8034 128.023 63.328 122.953 70.4144C119.66 75.0252 116.998 80.3267 114.926 85.5978C113.387 89.5275 112.885 93.6251 112.617 97.7789C112.595 98.1522 112.574 98.5255 112.552 98.8988C112.53 99.2566 112.508 99.6144 112.494 99.9797C112.462 100.571 113.16 100.84 113.62 100.596L113.612 100.573Z" fill="#0A342E"/>
  <path d="M113.612 100.573C114.501 100.1 115.366 99.6045 116.223 99.1014C116.453 99.0023 116.668 98.8727 116.865 98.7123C119.557 97.06 122.112 95.186 124.434 93.046C127.477 90.2432 129.002 86.9818 130.318 83.1277C131.844 78.6858 134.582 75.153 136.589 70.9708C136.854 70.4205 137.057 69.8562 137.253 69.2843C137.663 68.0081 137.979 66.6877 138.554 65.4772C138.679 65.2022 138.828 64.95 138.985 64.7052C138.797 64.6323 138.586 64.5988 138.369 64.6043C138.699 64.4484 139.037 64.3001 139.375 64.1673C140.722 62.448 142.777 61.4176 144.816 60.6593C145.162 60.5341 145.31 60.2508 145.319 59.9554C145.438 59.7505 145.493 59.5006 145.426 59.3004C145.349 59.3023 145.263 59.3123 145.171 59.3301C136.678 60.9816 126.298 66.3229 124.24 75.531C123.723 77.8427 123.815 80.2479 123.346 82.574C122.836 85.1186 121.533 87.3493 120.095 89.4669C118.066 92.4615 115.777 95.8898 112.602 97.7795C112.58 98.1528 112.558 98.5261 112.537 98.8994C112.515 99.2572 112.493 99.615 112.479 99.9804C112.447 100.571 113.145 100.841 113.605 100.596L113.612 100.573Z" fill="#265337"/>
  <path d="M113.611 100.573C114.5 100.1 115.365 99.6043 116.222 99.1012C116.453 99.0021 116.667 98.8725 116.865 98.7121C119.557 97.0598 122.111 95.1858 124.433 93.0458C127.476 90.243 129.002 86.9816 130.317 83.1275C131.844 78.6856 134.581 75.1528 136.588 70.9706C136.854 70.4203 137.057 69.856 137.252 69.2841C134.006 69.9098 130.798 71.1015 128.675 73.7645C126.244 76.8158 126.42 80.6944 125.852 84.3509C124.748 91.3604 119.309 97.1127 112.559 98.8909C112.537 99.2487 112.515 99.6065 112.501 99.9718C112.469 100.563 113.167 100.833 113.627 100.588L113.611 100.573Z" fill="#A5BA80"/>
  <path d="M64.9246 132.122C67.3126 131.044 70.3846 131.526 72.9329 131.57C75.5199 131.605 78.1148 131.649 80.7093 131.676C82.271 131.707 83.8399 131.714 85.4076 131.674C88.559 131.61 91.7056 131.359 94.7852 130.606C103.63 128.425 111.017 122.647 117.581 116.587C117.679 116.483 117.755 116.388 117.798 116.278C119.746 114.676 121.344 112.469 121.762 109.942C121.971 108.671 121.402 107.388 120.37 107.119C120.323 107.105 120.276 107.091 120.23 107.092C120.167 107.062 120.112 107.025 120.041 107.003C120.033 106.996 120.018 106.996 119.994 106.989C115.103 105.505 110.033 105.548 105.018 106.234C100.197 106.907 95.2328 107.763 90.78 109.801C85.9818 111.996 81.2402 115.199 77.1937 118.563C72.5995 122.376 69.1065 127.357 63.9036 130.439C63.8809 130.463 63.8423 130.472 63.8196 130.496C62.8276 131.189 63.8192 132.631 64.9251 132.137L64.9246 132.122Z" fill="#0A342E"/>
  <path d="M64.9246 132.122C67.3126 131.044 70.3846 131.526 72.9329 131.57C75.5199 131.605 78.1148 131.649 80.7093 131.676C82.271 131.707 83.8399 131.714 85.4076 131.674C88.559 131.61 91.7056 131.359 94.7852 130.606C103.63 128.425 111.017 122.647 117.581 116.587C117.679 116.483 117.755 116.388 117.798 116.278C119.746 114.676 121.344 112.469 121.762 109.942C121.971 108.671 121.402 107.388 120.37 107.119C120.099 107.118 119.811 107.118 119.532 107.125C115.728 107.175 111.867 107.73 108.303 108.69C102.68 110.192 98.4963 114.592 94.2173 118.28C85.8799 125.472 75.3752 133.255 63.8196 130.496C62.8276 131.189 63.8192 132.631 64.9251 132.137L64.9246 132.122Z" fill="#265337"/>
  <path d="M85.4073 131.674C88.5587 131.61 91.7053 131.359 94.7848 130.606C103.629 128.425 111.016 122.647 117.581 116.587C117.679 116.483 117.754 116.388 117.798 116.278C119.746 114.676 121.344 112.469 121.762 109.942C121.97 108.671 121.402 107.388 120.37 107.119C120.323 107.105 120.276 107.091 120.23 107.092C120.167 107.062 120.111 107.025 120.041 107.003C120.033 106.996 120.017 106.996 119.994 106.989C119.84 107.024 119.686 107.075 119.531 107.125C117.79 107.682 116.098 108.618 114.411 109.18C110.739 110.43 107.675 112.744 104.788 115.272C98.391 120.885 93.1151 127.837 85.3997 131.682L85.4073 131.674Z" fill="#A5BA80"/>
  <path d="M107.867 130.454C108.031 130.504 108.233 130.483 108.385 130.355C111.131 128.088 114.468 125.852 117.236 123.212C118.988 121.545 120.51 119.704 121.497 117.598C122.33 115.83 124.147 110.301 122.084 108.552L122.052 108.521C122.018 108.398 121.945 108.283 121.858 108.2C121.611 107.965 121.205 107.867 120.773 107.987C120.67 107.919 120.538 107.899 120.391 107.942C116.429 109.098 112.738 113.012 111.084 116.712C109.233 120.89 109.781 125.699 107.601 129.777C107.431 130.1 107.616 130.367 107.875 130.446L107.867 130.454Z" fill="#758B4C"/>
  <path d="M107.867 130.454C108.032 130.504 108.233 130.483 108.385 130.355C111.131 128.088 114.469 125.853 117.236 123.212C118.988 121.545 120.51 119.704 121.498 117.598C122.331 115.83 124.148 110.301 122.084 108.552L122.053 108.521C122.018 108.398 121.946 108.283 121.858 108.2C118.605 110.061 115.99 112.938 114.589 116.499C113.582 119.056 113.662 121.889 112.482 124.388C111.384 126.707 109.662 128.63 107.867 130.454Z" fill="#93A350"/>
  <path d="M117.228 123.204C118.979 121.537 120.502 119.697 121.489 117.591C122.322 115.822 124.139 110.294 122.076 108.544C117.221 111.866 116.427 117.625 117.235 123.196L117.228 123.204Z" fill="#C7D288"/>
  <path d="M136.12 125.864C139.882 118.912 141.906 111.126 141.916 103.212C141.917 99.865 141.5 96.5905 140.858 93.3295C140.671 92.3635 140.46 91.4059 140.234 90.4331C139.37 86.6885 138.498 82.9052 136.98 79.3713C136.838 78.9788 136.68 78.5867 136.507 78.195C136.431 77.9562 136.34 77.7177 136.272 77.4865C136.144 77.0315 135.437 77.0261 135.325 77.4949C135.295 77.5578 135.266 77.6362 135.26 77.7062C135.254 77.7607 135.247 77.8153 135.241 77.8698C135.235 77.9243 135.22 77.9713 135.221 78.0178C135.139 78.4238 135.056 78.8297 134.973 79.2356C133.709 84.8513 131.135 90.2515 130.565 95.9506C129.599 100.153 128.922 104.403 129.063 108.717C129.167 111.937 129.781 115.02 130.829 118.077C131.282 119.386 131.697 120.765 132.342 121.999C132.782 122.827 133.382 123.518 133.974 124.202C134.23 124.506 134.486 124.811 134.727 125.131C134.904 125.375 135.081 125.619 135.236 125.887C135.43 126.208 135.919 126.188 136.089 125.865L136.12 125.864Z" fill="#30421F"/>
  <path d="M136.12 125.864C139.882 118.912 141.906 111.126 141.916 103.212C141.917 99.865 141.5 96.5905 140.858 93.3295C140.671 92.3635 140.46 91.4059 140.234 90.4331C139.37 86.6885 138.498 82.9052 136.98 79.3713C136.838 78.9788 136.68 78.5867 136.507 78.195C136.431 77.9562 136.34 77.7177 136.272 77.4865C136.144 77.0315 135.437 77.0261 135.325 77.4949C135.295 77.5578 135.266 77.6362 135.26 77.7062C135.254 77.7607 135.247 77.8153 135.241 77.8698C138.188 85.3981 133.918 93.1245 133.264 100.713C132.903 104.869 133.91 108.781 134.719 112.822C135.458 116.554 135.922 120.798 133.989 124.202C134.246 124.506 134.502 124.81 134.743 125.13C134.92 125.374 135.097 125.618 135.251 125.886C135.446 126.208 135.934 126.187 136.105 125.865L136.12 125.864Z" fill="#768C4D"/>
  <path d="M136.121 125.864C139.882 118.912 141.906 111.126 141.916 103.212C141.917 99.8649 141.5 96.5905 140.858 93.3295C139.675 97.5219 137.355 101.603 136.99 105.892C136.464 112.102 139.202 119.946 134.751 125.122C134.928 125.366 135.105 125.61 135.259 125.878C135.453 126.2 135.942 126.179 136.113 125.857L136.121 125.864Z" fill="#AEBD7A"/>
  <path d="M135.092 126.069C135.336 126.179 135.594 126.243 135.882 126.259C136.566 126.303 137.4 126.111 138.364 125.846C141.757 124.906 145.167 123.694 148.294 122.046C151.62 120.3 153.35 118.082 154.954 114.865C155.028 114.708 155.117 114.55 155.198 114.385C155.774 113.206 156.414 112.102 157.157 111.082C159.025 108.464 161.433 106.361 164.383 104.787C164.422 104.763 164.436 104.732 164.467 104.715L164.49 104.692C164.49 104.692 164.527 104.652 164.535 104.644C164.854 104.356 164.745 103.722 164.234 103.797C156.911 104.743 148.228 104.683 141.93 109.028C137.572 112.035 132.8 118.011 133.767 123.703C133.995 125.056 134.44 125.767 135.108 126.084L135.092 126.069Z" fill="#0A342E"/>
  <path d="M135.093 126.069C135.336 126.179 135.594 126.242 135.882 126.258C136.567 126.303 137.4 126.111 138.365 125.846C141.758 124.906 145.167 123.694 148.294 122.046C151.621 120.3 153.351 118.082 154.955 114.865C155.028 114.708 155.117 114.55 155.199 114.385C155.775 113.206 156.415 112.102 157.158 111.082C152.82 108.776 147.523 108.724 143.095 111.134C137.755 114.042 134.905 120.164 135.109 126.084L135.093 126.069Z" fill="#265337"/>
  <path d="M135.89 126.251C136.574 126.295 137.408 126.103 138.372 125.838C141.766 124.898 145.175 123.686 148.302 122.038C151.628 120.292 153.358 118.074 154.962 114.857C152.738 116.575 150.514 117.067 147.67 116.075C145.468 115.299 143.394 114.979 141.274 116.205C138.235 117.952 135.995 122.412 135.898 126.258L135.89 126.251Z" fill="#A5BA80"/>
  <path d="M84.807 163.856C86.7879 162.346 88.7769 160.843 90.7582 159.348C95.1326 156.054 99.5224 152.759 103.801 149.342C106.625 147.089 109.008 144.613 110.848 141.499C112.471 138.756 114.447 135.817 115.277 132.713C115.391 132.275 115.146 131.815 114.76 131.6C114.689 131.563 114.611 131.534 114.54 131.512C114.47 131.506 114.408 131.492 114.353 131.47C114.242 131.364 114.076 131.283 113.866 131.265C113.57 131.226 113.275 131.202 112.971 131.187C105.396 130.757 97.4373 136.324 92.7839 141.793C90.084 144.967 87.994 148.616 86.6963 152.578C86.0258 154.622 85.4921 156.554 84.5084 158.497C83.7612 159.968 83.2139 161.356 83.3184 163.031C83.3298 163.178 83.3803 163.333 83.4535 163.463C83.7216 163.93 84.3348 164.225 84.807 163.856Z" fill="#30421F"/>
  <path d="M84.8076 163.855C86.7886 162.345 88.7775 160.843 90.7589 159.348C95.1332 156.054 99.5231 152.759 103.801 149.342C106.625 147.089 109.009 144.613 110.849 141.499C112.472 138.755 114.448 135.817 115.278 132.713C115.391 132.275 115.147 131.815 114.761 131.6C114.69 131.563 114.612 131.533 114.541 131.512C114.471 131.506 114.409 131.492 114.354 131.47C114.242 131.364 114.077 131.283 113.867 131.265C113.571 131.226 113.275 131.202 112.972 131.187C110.345 134.189 107.658 137.254 104.689 139.9C101.78 142.497 98.0855 142.893 94.6701 144.494C91.1087 146.153 89.5578 149.314 87.8885 152.711C86.943 154.63 86.1073 156.592 85.4523 158.636C84.9207 160.342 84.5074 162.116 83.4458 163.439C83.7139 163.906 84.3271 164.202 84.7993 163.832L84.8076 163.855Z" fill="#768C4D"/>
  <path d="M90.7658 159.34C95.1402 156.046 99.5301 152.751 103.808 149.334C106.632 147.08 109.016 144.605 110.855 141.491C112.479 138.747 114.455 135.809 115.285 132.704C115.398 132.267 115.154 131.807 114.768 131.591C112.914 133.51 111.393 135.715 109.795 137.922C108.594 139.583 107.339 141.254 105.813 142.636C103.862 144.401 101.497 145.168 99.1149 146.16C93.6504 148.418 90.1785 153.616 90.7579 159.333L90.7658 159.34Z" fill="#AEBD7A"/>
  <path d="M110.594 144.985C110.68 145.038 110.783 145.089 110.869 145.142C113.691 146.763 116.558 148.384 119.653 149.447C122.403 150.395 125.262 150.765 128.143 151.05C128.462 151.08 128.766 151.112 129.077 151.135C132.058 151.409 134.871 151.462 137.753 150.581C139.841 149.946 142.06 149.253 143.327 147.458C143.91 146.83 144.492 146.202 145.066 145.566C145.399 145.216 145.303 144.807 145.048 144.565C145.014 144.457 144.927 144.374 144.832 144.298C144.791 144.23 144.728 144.169 144.649 144.125C144.593 144.072 144.537 144.019 144.466 143.966C144.411 143.929 144.34 143.892 144.277 143.862C143.222 143.268 142.152 142.751 141.054 142.328C137.14 140.773 132.988 140.265 128.688 140.979C122.826 141.935 117.129 144.517 111.095 143.614C110.276 143.487 109.822 144.555 110.578 144.986L110.594 144.985Z" fill="#30421F"/>
  <path d="M110.871 145.141C113.692 146.763 116.56 148.383 119.654 149.447C122.404 150.395 125.264 150.765 128.144 151.049C128.463 151.08 128.767 151.111 129.078 151.135C132.06 151.409 134.872 151.462 137.754 150.581C139.843 149.946 142.062 149.253 143.329 147.458C143.911 146.83 144.493 146.202 145.067 145.566C145.4 145.216 145.304 144.807 145.05 144.565C145.016 144.457 144.928 144.373 144.833 144.298C144.793 144.229 144.729 144.169 144.65 144.124C144.595 144.071 144.539 144.018 144.468 143.966C144.412 143.928 144.342 143.891 144.279 143.862C143.223 143.267 142.154 142.751 141.056 142.328C137.555 142.075 134.031 142.77 130.797 144.467C127.631 146.123 124.993 148.357 121.268 148.451C117.542 148.545 114.061 146.901 110.855 145.142L110.871 145.141Z" fill="#768C4D"/>
  <path d="M128.143 151.049C128.462 151.08 128.766 151.111 129.077 151.135C132.059 151.409 134.871 151.462 137.753 150.581C139.842 149.946 142.061 149.253 143.328 147.458C143.91 146.83 144.492 146.202 145.066 145.566C145.399 145.216 145.303 144.807 145.049 144.565C145.015 144.457 144.927 144.374 144.832 144.298C144.792 144.229 144.728 144.169 144.649 144.124C144.594 144.071 144.538 144.018 144.467 143.966C144.411 143.928 144.341 143.891 144.278 143.862C141.785 143.568 139.254 143.903 136.865 144.935C134.691 145.867 133.152 147.358 131.421 148.924C130.419 149.835 129.319 150.546 128.143 151.049Z" fill="#AEBD7A"/>
  <path d="M145.4 143.716C145.4 143.716 145.431 143.716 145.447 143.715C148.32 143.068 150.37 140.912 151.901 138.504C152.394 137.731 152.838 136.881 153.298 136.015C153.876 134.929 154.485 133.826 155.214 132.868C155.965 131.87 156.86 131.009 158.027 130.467C158.043 130.482 158.066 130.474 158.082 130.489C158.379 130.59 158.515 130.113 158.217 130.012C158.186 129.997 158.155 129.998 158.123 129.983C158.099 129.96 158.06 129.954 158.021 129.947C157.982 129.94 157.951 129.941 157.912 129.934C157.857 129.912 157.795 129.898 157.748 129.884C157.724 129.861 157.685 129.854 157.646 129.847C154.184 129.298 151.509 131.618 149.333 134.018C147.12 136.474 145.056 139.314 145.095 142.699C145.098 142.823 145.101 142.947 145.105 143.072C145.108 143.211 145.127 143.351 145.131 143.49C145.141 143.575 145.182 143.66 145.244 143.689C145.284 143.727 145.339 143.734 145.401 143.732L145.4 143.716Z" fill="#758B4C"/>
  <path d="M145.401 143.717C145.401 143.717 145.432 143.716 145.447 143.715C148.32 143.068 150.37 140.912 151.901 138.504C152.394 137.731 152.838 136.881 153.298 136.015C153.876 134.929 154.485 133.826 155.214 132.868C149.856 132.561 147.058 138.005 145.512 142.58C145.476 142.697 145.439 142.799 145.404 142.917C145.272 142.928 145.172 142.985 145.105 143.072C145.108 143.211 145.127 143.351 145.131 143.49C145.141 143.576 145.182 143.66 145.245 143.689C145.284 143.727 145.339 143.734 145.401 143.732L145.401 143.717Z" fill="#93A350"/>
  <path d="M145.4 143.717C145.4 143.717 145.431 143.716 145.447 143.715C148.32 143.068 150.37 140.912 151.901 138.504C152.394 137.731 152.838 136.881 153.298 136.015C152.812 136.159 152.344 136.365 151.909 136.664C151.015 137.269 150.554 138.088 149.963 138.965C148.789 140.742 147.563 142 145.519 142.588C145.388 142.63 145.25 142.664 145.111 142.699C145.114 142.823 145.117 142.947 145.12 143.071C145.124 143.211 145.143 143.35 145.146 143.49C145.156 143.575 145.197 143.66 145.26 143.689C145.307 143.703 145.362 143.725 145.416 143.732L145.4 143.717Z" fill="#C7D288"/>
  <path d="M67.2542 93.1168C68.2931 91.817 69.6284 90.5717 71.1153 89.4857C69.3588 90.0427 67.6344 90.6454 65.918 91.2557C65.0177 91.5814 64.6086 90.1472 65.5015 89.8296C71.9052 87.5553 78.5222 85.4233 85.2997 85.3373C84.3825 84.9955 83.4581 84.6772 82.5261 84.3668C73.3383 81.2675 63.8078 79.3573 54.215 78.0544C53.2642 77.9231 53.6162 76.4853 54.559 76.609C66.3259 78.2064 78.1028 80.8131 89.1261 85.2484C89.4791 85.387 92.2972 86.5816 92.5957 86.7138C97.0804 88.705 101.426 91.0337 105.572 93.7479C113.16 98.7048 119.614 104.855 125.207 111.975C129.155 117.001 133.12 122.104 136.71 127.426C136.864 127.647 137.986 129.351 138.115 129.549C139.166 131.169 140.178 132.813 141.137 134.482C145.792 142.588 149.078 151.545 149.223 160.985C149.24 161.939 147.749 161.977 147.733 161.022C147.559 149.828 142.982 139.902 137.05 130.718C136.937 130.534 136.342 129.742 136.031 129.447C135.872 129.295 135.697 129.129 135.531 128.986C135.395 128.857 134.811 128.483 134.568 128.373C134.379 128.285 134.183 128.204 134.073 128.176C130.714 127.057 126.37 127.594 123.251 128.294C119.374 129.169 115.837 130.881 112.675 133.252C111.913 133.831 111.15 132.545 111.912 131.982C115.723 129.121 120.125 127.232 124.844 126.491C127.845 126.027 131.373 125.806 134.41 126.754C131.751 122.938 128.932 119.243 126.176 115.624C120.466 108.134 114.207 101.412 106.399 96.0645C101.863 92.9641 97.0277 90.3062 92.0241 88.064C91.2935 87.733 88.423 86.9281 87.723 86.8836C85.0624 86.7024 82.4113 86.8937 79.7972 87.317C79.4413 87.3726 78.5469 87.6282 78.4156 87.6548C74.7625 88.4538 70.6705 91.2443 68.3595 94.1373C67.7571 94.8825 66.6904 93.8533 67.2853 93.1161L67.2542 93.1168Z" fill="#0A342E"/>
  <path d="M108.398 174.225C108.694 174.536 109.246 174.273 109.235 173.854C109.171 172.233 108.599 170.81 108.234 169.251C107.851 167.63 107.943 166.035 108.206 164.452C108.311 163.72 108.479 162.985 108.639 162.259C109.406 158.807 110.637 155.584 112.087 152.402C112.47 151.569 112.867 150.721 113.273 149.879C116.018 144.187 118.649 137.357 114.743 131.538C114.703 131.485 114.671 131.439 114.616 131.417C114.497 131.319 114.357 131.307 114.226 131.334C113.872 131.148 113.483 131.127 113.066 131.246C110.582 131.899 107.177 136.979 106.517 138.199C105.159 140.696 102.492 144.568 102.353 147.981C102.044 149.565 102.101 151.226 102.127 152.872C102.173 155.309 102.352 157.751 102.715 160.157C103.459 165.015 104.951 170.569 108.414 174.24L108.398 174.225Z" fill="#0A342E"/>
  <path d="M108.197 164.444C108.31 163.719 108.47 162.977 108.63 162.251C109.397 158.799 110.628 155.576 112.078 152.394C112.461 151.562 112.858 150.713 113.264 149.872C116.009 144.18 118.64 137.349 114.734 131.53C114.694 131.477 114.662 131.431 114.607 131.409C114.488 131.311 114.348 131.299 114.217 131.326C113.862 131.141 113.474 131.119 113.057 131.239C108.115 135.402 104.652 142.487 104.025 148.738C103.716 151.853 104.31 155.068 105.709 157.883C106.691 159.862 107.992 161.266 108.16 163.607C108.183 163.901 108.19 164.181 108.205 164.452L108.197 164.444Z" fill="#265337"/>
  <path d="M112.079 152.395C112.461 151.562 112.859 150.713 113.265 149.872C116.01 144.18 118.641 137.35 114.735 131.531C114.695 131.477 114.663 131.432 114.608 131.41C111.734 133.222 109.743 136.48 108.598 139.724C106.954 144.432 109.03 148.845 112.071 152.387L112.079 152.395Z" fill="#A5BA80"/>
  <path d="M32.1189 117.295C32.6869 117.032 33.1917 116.724 33.6642 116.371C34.4914 115.915 35.3357 115.521 36.1963 115.157C37.9943 114.397 39.8583 113.791 41.7227 113.2C43.248 112.711 44.7817 112.245 46.2748 111.711C50.9542 110.039 54.7218 107.319 58.4856 104.141C62.1431 101.058 65.9173 97.678 67.6104 93.0766C67.9956 92.034 68.7282 90.2914 67.7101 89.3386C67.6623 89.2932 67.6146 89.2478 67.5592 89.2104C67.4598 88.9644 67.245 88.7602 66.8713 88.723C66.6222 88.6983 66.373 88.6735 66.1084 88.6491C65.9838 88.6367 65.8517 88.6323 65.7195 88.6279C58.5005 88.1425 51.3772 90.2175 45.724 94.8414C42.475 97.4941 39.8267 100.869 38.0511 104.665C36.4081 108.178 35.6381 112.43 32.4668 114.778C32.0074 115.038 31.5484 115.314 31.0978 115.612C30.013 116.323 30.9832 117.836 32.1113 117.303L32.1189 117.295Z" fill="#0A342E"/>
  <path d="M36.1949 115.142C37.993 114.382 39.857 113.775 41.7214 113.185C43.2467 112.696 44.7803 112.23 46.2734 111.695C50.9528 110.024 54.7205 107.303 58.4843 104.125C62.1417 101.043 65.9159 97.6625 67.6091 93.061C67.9943 92.0184 68.7268 90.2759 67.7087 89.3231C67.661 89.2777 67.6132 89.2323 67.5579 89.1949C67.4585 88.9489 67.2437 88.7447 66.87 88.7075C66.6208 88.6827 66.3717 88.658 66.107 88.6336C65.8364 88.6793 65.5582 88.7329 65.2875 88.7786C58.9128 90.0503 53.532 92.8578 48.7651 97.8242C46.1019 100.61 44.4395 103.665 42.3764 106.839C41.0981 108.805 39.5835 110.637 38.1787 112.513C37.5249 113.376 36.9037 114.301 36.187 115.134L36.1949 115.142Z" fill="#265337"/>
  <path d="M41.7227 113.185C43.248 112.696 44.7816 112.23 46.2747 111.695C50.9541 110.024 54.7217 107.304 58.4855 104.125C62.143 101.043 65.9172 97.6626 67.6103 93.0612C67.9956 92.0186 68.7281 90.276 67.71 89.3232C67.6622 89.2779 67.6145 89.2325 67.5592 89.195C67.4598 88.949 67.2449 88.7448 66.8712 88.7076C66.6221 88.6829 66.373 88.6581 66.1083 88.6337C65.9837 88.6214 65.8516 88.6169 65.7195 88.6125C65.5734 88.6706 65.4273 88.7286 65.2892 88.7942C60.6422 90.8299 56.6048 94.5509 54.1751 98.8914C53.0978 100.821 52.5602 102.901 51.1765 104.691C49.9732 106.243 48.6366 107.745 47.2666 109.154C45.8588 110.603 44.3164 111.954 42.4905 112.839C42.2298 112.97 41.9687 113.085 41.7151 113.193L41.7227 113.185Z" fill="#A5BA80"/>
  <path d="M56.2877 125.335C56.5527 125.375 56.8222 125.283 57.0249 125.006C59.2276 122.131 61.4307 119.272 63.6259 116.405C64.6632 115.043 65.8481 113.685 66.8834 112.246C67.7085 111.091 68.4547 109.892 68.9658 108.605C70.6596 104.338 71.2262 98.1807 69.3166 93.9111C69.1686 93.5887 68.9394 93.4314 68.6903 93.4066C68.536 93.1387 68.3518 92.9182 68.1298 92.7374C67.6858 92.3759 67.0836 92.2125 66.2633 92.3264C65.9461 92.3732 65.6066 92.4595 65.283 92.5609C62.195 93.5941 59.0563 97.2303 57.0834 99.3692C54.2267 102.486 53.7623 105.619 53.9905 109.729C54.2538 114.615 54.7881 119.471 55.3149 124.335C55.3661 124.823 55.8121 125.262 56.2793 125.312L56.2877 125.335Z" fill="#30421F"/>
  <path d="M56.2879 125.335C56.5529 125.375 56.8224 125.283 57.0251 125.006C59.2278 122.131 61.4309 119.272 63.6261 116.405C64.6634 115.043 65.8483 113.685 66.8836 112.246C67.7087 111.091 68.4549 109.892 68.966 108.605C70.6598 104.338 71.2264 98.1807 69.3168 93.9111C69.1688 93.5887 68.9396 93.4314 68.6905 93.4066C68.5362 93.1387 68.352 92.9182 68.13 92.7374C67.6859 92.3758 67.0838 92.2124 66.2635 92.3264C65.9463 92.3732 65.6068 92.4595 65.2832 92.5608C61.2954 95.4807 58.412 99.6928 57.993 104.93C57.6988 108.649 59.3944 111.519 60.1043 115.027C60.7964 118.442 58.4166 122.299 56.2871 125.304L56.2879 125.335Z" fill="#768C4D"/>
  <path d="M66.8841 112.261C67.7092 111.107 68.4554 109.907 68.9665 108.621C70.6603 104.353 71.2269 98.1961 69.3173 93.9266C69.1693 93.6041 68.9401 93.4468 68.691 93.4221C68.5367 93.1542 68.3525 92.9336 68.1304 92.7528C65.0062 94.8121 63.1161 98.3779 63.5545 102.203C63.7822 104.147 64.5243 105.852 65.6974 107.407C66.9911 109.121 67.1983 110.56 66.8841 112.261Z" fill="#A5BA80"/>
  <path d="M10.3166 80.8728C19.5697 81.6406 28.809 83.0923 38.1143 82.8492C42.507 82.7382 46.9126 82.2152 51.1703 81.0669C52.5201 80.6989 54.2877 80.2737 55.0631 78.996C55.4953 78.8919 55.8202 78.5342 55.8152 78.0295C55.8054 77.6415 55.7502 77.3012 55.6337 76.9935C55.5339 76.7319 55.3959 76.4947 55.2121 76.2897C55.1083 76.1758 54.9889 76.0623 54.862 75.9568C54.8489 75.7475 54.7503 75.5325 54.5438 75.3513C41.1109 63.7625 22.4656 69.3206 9.80426 79.0374C9.7127 79.1019 9.63705 79.1814 9.58488 79.2682C9.4495 79.4425 9.37658 79.6307 9.3582 79.8253C9.30906 80.3391 9.68659 80.8343 10.3401 80.8799L10.3166 80.8728Z" fill="#0A342E"/>
  <path d="M10.3171 80.8728C19.5702 81.6406 28.8095 83.0922 38.1148 82.8492C42.5075 82.7382 46.9131 82.2152 51.1708 81.0669C52.5206 80.6989 54.2882 80.2737 55.0636 78.996C55.4958 78.8918 55.8207 78.5342 55.8157 78.0295C55.8059 77.6414 55.7507 77.3011 55.6342 76.9935C55.5344 76.7319 55.3964 76.4947 55.2126 76.2896C49.4457 71.8069 42.3265 71.2802 35.5183 73.8365C31.2564 75.4353 27.1608 77.1619 22.6977 78.1756C19.7018 78.8571 15.8265 79.7783 12.2844 79.7436C11.3798 79.5956 10.4748 79.4321 9.56984 79.2686C9.43447 79.4428 9.36158 79.6311 9.3432 79.8257C9.29406 80.3395 9.67158 80.8347 10.3251 80.8803L10.3171 80.8728Z" fill="#265337"/>
  <path d="M10.3161 80.8728C19.5692 81.6407 28.8085 83.0923 38.1137 82.8493C42.5064 82.7383 46.912 82.2153 51.1698 81.067C52.5195 80.6989 54.2872 80.2737 55.0626 78.9961C55.4948 78.8919 55.8197 78.5343 55.8147 78.0296C55.8049 77.6415 55.7497 77.3012 55.6332 76.9936C49.7332 72.7783 41.9183 76.983 35.2669 78.3705C30.7398 79.3081 25.9892 79.7 21.3878 80.1581C17.344 80.5554 13.3087 80.6729 9.33462 79.8337C9.28548 80.3475 9.663 80.8428 10.3165 80.8884L10.3161 80.8728Z" fill="#A5BA80"/>
</svg>
