<svg width="169" height="223" viewBox="0 0 169 223" fill="none"
  xmlns="http://www.w3.org/2000/svg">
  <path d="M9.8051 212.234C9.62115 212.491 9.41881 212.748 9.21647 213.006C8.77499 213.557 8.35191 214.292 8.92215 214.954C9.05091 215.101 9.23486 215.211 9.40042 215.321C10.78 216.13 12.362 216.534 13.9071 216.92C14.551 217.086 15.2868 217.343 15.949 217.306C16.0593 217.306 16.1697 217.288 16.2617 217.233C16.4272 217.141 16.4824 216.92 16.464 216.718C16.4456 216.516 16.3353 216.351 16.2617 216.167C15.5443 214.605 15.949 213.116 16.7032 211.682C17.2366 210.69 17.7517 209.679 18.2667 208.668C20.4189 204.478 22.4791 200.232 24.4474 195.95C24.9624 194.829 25.4775 193.652 25.4039 192.439C25.3303 191.318 24.7601 190.326 24.0243 189.536C22.7551 188.176 19.9039 186.871 18.5426 188.929C17.6965 190.216 17.1446 191.686 16.6112 193.138C15.765 195.141 15.0844 197.255 14.3486 199.295C13.5576 201.5 12.7667 203.724 12.0309 205.948C11.663 207.069 11.2951 208.172 10.9456 209.293C10.7432 209.955 10.5593 210.635 10.2834 211.278C10.1546 211.609 9.97065 211.903 9.76831 212.197L9.8051 212.234Z" fill="#FCD9BA"/>
  <path d="M22.5527 222.213C22.0929 222.269 21.4858 222.085 21.0444 221.993C19.9958 221.754 19.0025 221.35 18.0276 220.945L14.3302 219.383C13.9807 219.236 13.4473 219.126 13.153 218.887C12.8219 218.63 12.4908 218.317 12.1596 218.023C12.0493 217.931 11.9389 217.839 11.8285 217.747C11.5526 217.545 10.9272 217.049 10.5961 217.27C10.4857 217.343 10.4121 217.435 10.3386 217.545C10.3018 217.582 10.2834 217.619 10.2466 217.674L7.00909 216.314C7.00909 216.314 7.04588 216.204 7.06428 216.148C7.17465 215.891 7.22983 215.652 7.48736 215.487C7.52415 215.468 7.56094 215.432 7.59773 215.413C7.63452 215.376 7.63452 215.34 7.65291 215.303C7.65291 215.285 7.65291 215.248 7.65291 215.229C7.6897 215.046 7.78168 214.862 7.85526 214.678C8.09439 214.127 8.37031 213.575 8.7566 213.097C8.94055 212.859 9.1245 212.583 9.38203 212.436C9.8235 212.179 9.95227 212.473 10.2098 212.785C10.78 213.447 11.5342 213.98 12.362 214.292C13.1898 214.605 14.0911 214.696 14.9557 214.586C15.25 214.549 15.6363 214.219 15.9122 214.347C16.2433 214.494 16.3353 215.101 16.4824 215.376C16.8135 215.983 17.1814 216.571 17.5861 217.122C18.4139 218.244 19.4256 219.236 20.5661 220.082C20.9156 220.339 21.2651 220.578 21.6146 220.817C21.9273 221.037 22.4056 221.276 22.6447 221.57C22.7367 221.68 22.8103 221.809 22.8287 221.938C22.8654 222.122 22.7919 222.269 22.5343 222.305L22.5527 222.213Z" fill="#4B575E"/>
  <path d="M22.8471 221.846C22.6447 221.754 22.3872 221.717 22.1481 221.662C21.541 221.515 20.9524 221.35 20.3638 221.166C19.2049 220.78 18.0644 220.339 16.9239 219.879C16.8503 219.843 16.7584 219.824 16.6848 219.787C15.8938 219.475 15.1212 219.144 14.367 218.758C13.5945 218.372 12.9322 217.913 12.2332 217.435C11.9757 217.27 11.7182 217.104 11.4423 216.939C11.7182 216.737 12.0677 216.608 12.4172 216.645C12.8954 216.681 13.3553 216.92 13.7784 217.086C14.2383 217.288 14.6981 217.49 15.1212 217.766C15.3236 217.894 15.5259 218.041 15.7466 218.152C15.9122 218.244 16.1329 218.354 16.3353 218.317C16.4457 218.299 16.5376 218.207 16.6296 218.152C16.74 218.078 16.8503 218.005 16.9423 217.913C17.1447 217.747 17.347 217.582 17.5493 217.398C17.6045 217.361 17.4574 217.27 17.4022 217.306C17.2182 217.472 17.0527 217.619 16.8503 217.766C16.6848 217.894 16.5008 218.041 16.2985 218.152C16.1697 218.225 16.041 218.188 15.9122 218.133C15.7834 218.078 15.6547 218.005 15.5443 217.931C15.342 217.803 15.1396 217.674 14.9373 217.545C14.5142 217.306 14.0543 217.104 13.5945 216.92C13.1714 216.755 12.7483 216.534 12.2884 216.516C11.9205 216.516 11.5526 216.626 11.2583 216.847C10.0994 216.185 8.84859 215.652 7.59774 215.229C7.59774 215.266 7.57934 215.303 7.54255 215.34C7.52416 215.376 7.46897 215.395 7.43218 215.413C7.17466 215.597 7.11947 215.818 7.0091 216.075C6.99071 216.13 6.97231 216.185 6.95392 216.24L10.1914 217.6C10.1914 217.6 10.2466 217.527 10.2834 217.472C10.357 217.361 10.4305 217.27 10.5409 217.196C10.8904 216.975 11.5158 217.472 11.7734 217.674C11.8837 217.766 11.9941 217.858 12.1045 217.95C12.4356 218.244 12.7667 218.556 13.0978 218.813C13.3921 219.034 13.9256 219.163 14.2751 219.31L17.9724 220.872C18.9474 221.295 19.9591 221.699 20.9892 221.919C21.4307 222.03 22.0561 222.195 22.4976 222.14C22.7551 222.103 22.8287 221.956 22.7919 221.772L22.8471 221.846Z" fill="#4B575E"/>
  <path d="M16.5928 215.303C16.5928 215.303 16.556 215.248 16.5376 215.229C16.4824 215.174 16.3904 215.156 16.3169 215.174C16.0961 215.229 15.8754 215.321 15.6546 215.413C15.6363 215.413 15.6179 215.45 15.6179 215.468C15.6179 215.505 15.6546 215.524 15.673 215.542C15.7098 215.56 15.7466 215.597 15.7834 215.597C15.8202 215.597 15.857 215.597 15.8938 215.597C16.1145 215.505 16.3353 215.432 16.556 215.358C16.5744 215.358 16.5928 215.321 16.5928 215.303V215.303Z" fill="#3C3C71"/>
  <path d="M17.0159 215.983C17.0159 215.983 16.9791 215.928 16.9607 215.909C16.9055 215.873 16.8135 215.818 16.74 215.854C16.5376 215.928 16.3353 216.02 16.1329 216.13C16.1145 216.13 16.1145 216.185 16.1329 216.204C16.1329 216.24 16.1881 216.259 16.2065 216.277C16.2617 216.314 16.3537 216.332 16.4273 216.295C16.4456 216.295 16.464 216.277 16.4824 216.259C16.648 216.167 16.8135 216.093 16.9791 216.038C16.9975 216.038 17.0159 216.001 17.0159 215.983V215.983Z" fill="#3C3C71"/>
  <path d="M6.29169 213.575C6.29169 213.575 8.49907 214.145 8.62783 214.182C8.84857 214.237 9.05091 214.274 9.25326 214.329C9.38202 214.366 9.51078 214.384 9.62115 214.421C9.76831 214.458 9.87868 214.476 9.97065 214.513C10.1362 214.568 10.3018 214.605 10.4673 214.66C11.5526 214.991 12.6195 215.321 13.6864 215.689C13.76 215.707 13.8336 215.744 13.9071 215.762C14.1095 215.836 14.3118 215.909 14.5142 215.983C15.7098 216.406 16.8135 216.884 18.1012 217.196C18.1931 217.214 18.3771 217.012 18.6162 216.645C19.5176 215.266 21.2467 211.774 21.541 211.296C22.4424 209.863 23.3253 208.392 24.1899 206.922C24.8337 205.819 25.4775 204.698 26.1029 203.577C26.2133 203.393 26.3053 203.21 26.4156 203.026C28.016 200.14 29.5612 197.218 31.0511 194.296C31.1983 194.02 31.3455 193.744 31.4742 193.469C31.5662 193.285 31.6582 193.101 31.7685 192.917C33.4425 189.738 35.1716 186.595 36.7535 183.379C36.8455 183.195 36.9375 183.011 37.0295 182.809C37.8756 181.063 38.685 179.28 39.384 177.461C39.4944 177.185 39.5679 176.909 39.6047 176.652C39.7519 175.733 39.5128 174.943 39.1817 173.95C39.1081 173.711 39.0161 173.491 38.9057 173.27C38.6114 172.59 38.2251 171.947 37.7653 171.359C36.9007 170.219 35.7602 169.282 34.5094 168.694C34.2518 168.565 33.9759 168.455 33.7 168.363C33.7 168.363 33.6632 168.363 33.6448 168.345C32.7067 168.032 31.7317 167.738 30.7384 167.683C30.2234 167.665 29.8003 167.554 29.3956 167.444C29.1013 167.371 28.807 167.279 28.5494 167.223C28.1999 167.168 27.8504 167.168 27.4825 167.315C27.2618 167.389 27.0411 167.536 26.8203 167.72C26.7651 167.756 26.7283 167.793 26.6732 167.848C25.2016 169.19 24.4474 171.285 23.7668 173.105C23.73 173.215 23.6932 173.307 23.6564 173.417C23.2701 174.428 22.8838 175.421 22.4791 176.413C22.4056 176.597 22.3136 176.799 22.24 176.983C20.9524 180.107 19.5544 183.176 18.2115 186.264C18.1196 186.448 18.046 186.65 17.9724 186.834C17.0711 188.929 16.1881 191.043 15.3971 193.156C14.9557 194.333 14.4958 195.509 14.0359 196.685C13.9623 196.887 13.8704 197.071 13.7968 197.273C12.3436 200.875 10.7984 204.423 9.12449 207.915C9.03252 208.098 8.94054 208.282 8.84857 208.484C8.05759 210.138 7.24822 211.774 6.40206 213.41C6.36527 213.483 6.32848 213.539 6.29169 213.612V213.575Z" fill="#273A2F"/>
  <path d="M21.3938 131.348C21.3938 135.575 21.5226 139.82 21.7617 144.048C21.7617 144.25 21.7801 144.47 21.7985 144.672C21.8537 145.555 21.9089 146.437 21.964 147.319C22.1664 150.278 22.5343 153.255 22.7918 156.233C22.7918 156.435 22.8286 156.656 22.847 156.858C22.9574 158.163 23.0126 159.468 23.0309 160.772C23.0677 163.419 23.1965 166.084 23.3621 168.731C23.3621 168.933 23.3804 169.153 23.3988 169.355C23.5092 171.248 23.638 173.123 23.7483 175.016C23.7483 175.31 23.7851 175.586 23.8403 175.825C24.0978 177.497 24.8888 177.92 26.2684 178.233C26.5444 178.288 26.8203 178.343 27.133 178.416C27.225 178.416 27.3169 178.453 27.4089 178.471C28.5862 178.71 29.7819 178.802 30.9775 178.876C30.9775 178.876 30.9775 178.876 31.0143 178.876C31.235 178.876 31.4742 178.913 31.6949 178.931C31.7685 178.931 31.8421 178.931 31.9157 178.931C33.5528 179.06 35.2819 179.207 36.9006 178.821C37.1398 178.766 37.3605 178.692 37.5813 178.618C37.6548 178.6 37.71 178.563 37.7836 178.545C39.6599 177.81 39.6783 176.523 39.7886 174.502C39.807 174.024 39.8438 173.527 39.8622 173.05C39.9358 171.818 39.991 170.605 40.0462 169.374C40.0462 169.172 40.0646 168.951 40.083 168.749C40.2485 164.926 40.3957 161.085 40.506 157.244C40.506 157.042 40.506 156.858 40.506 156.674C40.506 156.453 40.506 156.251 40.506 156.031C40.6164 152.079 40.69 148.146 40.7452 144.195C40.7452 143.992 40.7452 143.772 40.7452 143.57C40.7452 143.147 40.7452 142.724 40.7452 142.302C40.8004 138.865 40.8371 135.446 40.8739 132.009C40.8739 131.807 40.8739 131.587 40.8739 131.384C40.9107 128.499 40.9291 125.613 40.9659 122.728C40.9659 122.268 40.9659 121.809 40.9659 121.35C40.9659 120.32 40.9659 119.273 40.9843 118.243C40.9843 117.949 41.0211 117.563 41.0579 117.159C41.1683 116.093 41.297 114.788 41.0027 114.09C40.8923 113.814 40.6716 113.63 40.3957 113.52C40.2117 113.447 40.0094 113.391 39.7886 113.373C39.6967 113.373 39.5863 113.355 39.4943 113.336C38.8689 113.299 38.1699 113.336 37.618 113.336C37.4157 113.336 37.2134 113.318 37.0294 113.299C36.7351 113.299 36.4408 113.263 36.1465 113.263C34.6013 113.189 33.0561 113.116 31.4926 113.042C31.1983 113.042 30.9039 113.005 30.6096 113.005C28.5862 112.914 26.5628 112.803 24.5393 112.711C24.245 112.711 23.9507 112.693 23.6564 112.675C23.3069 112.675 22.9574 112.638 22.6263 112.619C22.0376 113.888 22.148 115.578 21.9824 117.196C21.8905 118.207 21.7985 119.199 21.7249 120.21C21.7249 120.412 21.6881 120.633 21.6881 120.835C21.4674 124.106 21.357 127.396 21.3386 130.686C21.3386 130.888 21.3386 131.109 21.3386 131.311L21.3938 131.348Z" fill="#273A2F"/>
  <path d="M39.0896 131.366C39.0896 131.568 39.1264 131.789 39.1448 131.991C39.2184 132.91 39.3104 133.847 39.4023 134.766C39.6782 137.321 40.1565 139.857 40.7819 142.357C40.8923 142.779 41.0027 143.202 41.113 143.625C41.1682 143.827 41.2234 144.048 41.2786 144.25C41.5729 145.334 41.904 146.4 42.2535 147.466C43.1733 150.352 44.2402 153.2 45.3071 156.031C45.3806 156.251 45.4726 156.453 45.5462 156.674C47.0546 160.644 48.5997 164.614 49.8506 168.694C49.9242 168.896 49.9794 169.117 50.0345 169.319C50.1449 169.686 50.2553 170.072 50.3656 170.458C50.6416 171.432 50.8991 172.406 51.2118 173.38C51.5797 174.502 52.0028 175.604 52.5914 176.615C52.8857 177.111 53.1801 177.479 53.4928 177.755C53.7687 177.994 54.063 178.159 54.3941 178.288C55.1115 178.545 55.9393 178.527 57.0062 178.49C57.2821 178.49 57.558 178.471 57.8523 178.435C58.1467 178.416 58.441 178.38 58.7353 178.343C59.3607 178.269 59.9677 178.177 60.5748 178.067C61.2554 177.957 62.1567 178.049 62.9293 177.975C63.242 177.938 63.5363 177.883 63.7939 177.791C63.8123 177.791 63.8307 177.773 63.8675 177.755C63.8675 177.755 63.8675 177.755 63.9042 177.755C64.8056 177.332 65.2839 175.954 65.4862 175.09C65.5782 174.704 65.6517 174.336 65.6885 173.95C65.7621 173.197 65.7621 172.425 65.7437 171.653C65.7069 170.752 65.6518 169.852 65.5782 168.951C65.5782 168.749 65.5414 168.528 65.523 168.326C65.3022 166.066 64.9895 163.805 64.6952 161.563C64.4929 159.964 64.2721 158.383 64.033 156.803C63.9962 156.6 63.9594 156.38 63.941 156.178C63.7203 154.744 63.4628 153.311 63.2052 151.895C62.8006 149.653 62.5062 147.374 62.2119 145.114C62.1935 144.893 62.1567 144.691 62.1383 144.489C61.844 142.173 61.5497 139.876 61.1082 137.578C60.8139 136.089 60.538 134.582 60.2437 133.094C60.2069 132.892 60.1701 132.671 60.1149 132.469C59.8206 130.998 59.5263 129.51 59.232 128.039C58.4778 124.4 57.6684 120.78 56.7119 117.196C55.7921 113.814 55.4978 113.152 52.0212 113.152C49.4091 113.152 46.797 113.152 44.2034 113.152C43.8723 113.152 40.0829 112.895 39.9726 113.152C39.9174 113.263 39.8806 113.373 39.8438 113.483C39.7702 113.685 39.715 113.888 39.6599 114.108C39.5863 114.421 39.5311 114.751 39.4943 115.064C39.2736 116.773 39.108 118.482 39.016 120.21C39.016 120.412 38.9976 120.633 38.9792 120.835C38.7953 124.364 38.8505 127.892 39.0896 131.44V131.366Z" fill="#273A2F"/>
  <path d="M52.3523 217.067C52.2787 217.38 52.1684 217.692 52.0764 217.986C51.8556 218.666 51.7269 219.493 52.5179 219.916C52.7018 220.008 52.9041 220.045 53.1065 220.082C54.7068 220.339 56.3624 220.137 57.9627 219.934C58.6433 219.843 59.4343 219.824 60.0413 219.549C60.1517 219.512 60.2437 219.457 60.3173 219.365C60.446 219.218 60.4092 218.979 60.3173 218.813C60.2253 218.648 60.0597 218.519 59.931 218.372C58.6801 217.159 58.5146 215.634 58.6985 214.035C58.8273 212.914 58.956 211.793 59.0664 210.671C59.5631 205.985 59.9494 201.28 60.2437 196.593C60.3173 195.362 60.3725 194.075 59.8574 192.972C59.3791 191.962 58.4594 191.226 57.4845 190.767C55.7921 189.958 52.5914 189.775 52.0764 192.182C51.7453 193.689 51.7821 195.27 51.8005 196.814C51.7269 198.982 51.874 201.188 51.9292 203.375C51.9844 205.728 52.058 208.08 52.1868 210.414C52.2419 211.59 52.3155 212.767 52.3891 213.925C52.4443 214.623 52.5179 215.321 52.4995 216.02C52.4995 216.369 52.4259 216.718 52.3523 217.067V217.067Z" fill="#FCD9BA"/>
  <path d="M68.0983 221.754C67.6936 221.975 67.0314 222.03 66.5715 222.085C65.5046 222.25 64.4009 222.232 63.3156 222.195L59.232 222.085C58.8457 222.085 58.3122 222.158 57.9443 222.048C57.5213 221.919 57.1166 221.754 56.6935 221.607C56.5647 221.552 56.4176 221.515 56.2888 221.46C55.9577 221.368 55.1851 221.129 54.946 221.46C54.8724 221.57 54.8356 221.68 54.7988 221.809C54.7988 221.864 54.7804 221.901 54.762 221.956L51.1934 221.846C51.1934 221.846 51.1934 221.736 51.1934 221.68C51.1934 221.405 51.1566 221.166 51.3406 220.909C51.359 220.872 51.3958 220.835 51.4142 220.798C51.4142 220.762 51.4142 220.706 51.4142 220.67C51.4142 220.651 51.4142 220.615 51.4142 220.596C51.3774 220.394 51.3958 220.21 51.4142 220.008C51.4326 219.401 51.5061 218.795 51.6901 218.207C51.7821 217.931 51.8556 217.6 52.0396 217.361C52.3707 216.957 52.5914 217.178 52.9593 217.38C53.7503 217.784 54.6517 218.005 55.5346 218.005C56.436 218.005 57.3189 217.766 58.0915 217.343C58.349 217.196 58.6066 216.755 58.9009 216.773C59.2688 216.792 59.5815 217.325 59.8206 217.527C60.3541 217.968 60.9243 218.372 61.5129 218.74C62.7086 219.475 64.033 220.045 65.4126 220.412C65.8357 220.523 66.2588 220.615 66.6819 220.706C67.0682 220.798 67.6016 220.835 67.9327 221.037C68.0615 221.111 68.1719 221.203 68.2454 221.313C68.3374 221.46 68.3374 221.644 68.0983 221.754V221.754Z" fill="#4B575E"/>
  <path d="M68.2455 221.313C68.0063 221.313 67.7672 221.368 67.5281 221.405C66.9026 221.497 66.2772 221.552 65.6518 221.589C64.4193 221.662 63.1685 221.644 61.936 221.625C61.844 221.625 61.7705 221.625 61.6785 221.625C60.8139 221.625 59.9678 221.589 59.1032 221.515C58.2387 221.442 57.4293 221.239 56.5831 221.056C56.2704 220.982 55.9761 220.927 55.6634 220.89C55.8473 220.596 56.1233 220.357 56.4728 220.247C56.9326 220.1 57.4661 220.155 57.9443 220.173C58.4594 220.173 58.9745 220.21 59.4711 220.302C59.7103 220.339 59.9494 220.412 60.2069 220.431C60.3909 220.449 60.6484 220.467 60.8139 220.357C60.9059 220.302 60.9795 220.192 61.0347 220.1C61.1083 219.99 61.1818 219.879 61.2554 219.769C61.4026 219.549 61.5313 219.31 61.6417 219.071C61.6785 219.016 61.5129 218.997 61.4762 219.034C61.3658 219.254 61.2554 219.457 61.1267 219.659C61.0163 219.843 60.8875 220.045 60.7588 220.21C60.6668 220.32 60.538 220.339 60.3909 220.32C60.2437 220.32 60.1149 220.302 59.9678 220.265C59.7286 220.229 59.4895 220.173 59.2504 220.137C58.7537 220.063 58.2571 220.045 57.7604 220.045C57.3005 220.045 56.8223 220.008 56.3808 220.155C56.0129 220.284 55.7186 220.523 55.5162 220.835C54.1734 220.633 52.7938 220.596 51.451 220.651C51.451 220.688 51.451 220.743 51.451 220.78C51.451 220.817 51.4142 220.853 51.3774 220.89C51.1934 221.147 51.2302 221.386 51.2302 221.662C51.2302 221.717 51.2302 221.772 51.2302 221.828L54.7988 221.938C54.7988 221.938 54.8172 221.846 54.8356 221.791C54.8724 221.662 54.9092 221.552 54.9828 221.442C55.2219 221.111 55.9945 221.35 56.3256 221.442C56.4728 221.478 56.6015 221.533 56.7303 221.589C57.1534 221.736 57.5765 221.901 57.9811 222.03C58.349 222.14 58.8825 222.048 59.2688 222.066L63.3524 222.177C64.4377 222.213 65.523 222.213 66.6083 222.066C67.0682 221.993 67.712 221.938 68.1351 221.736C68.3742 221.607 68.3742 221.442 68.2822 221.295L68.2455 221.313Z" fill="#4B575E"/>
  <path d="M59.9126 217.472C59.9126 217.472 59.8574 217.417 59.839 217.417C59.7654 217.398 59.6735 217.398 59.5999 217.435C59.4159 217.582 59.232 217.729 59.048 217.894C59.0297 217.913 59.0113 217.931 59.0297 217.968C59.0297 217.986 59.0848 218.023 59.1032 218.023C59.14 218.023 59.1952 218.041 59.232 218.023C59.2688 218.023 59.3056 218.023 59.3424 217.986C59.5079 217.821 59.6919 217.674 59.8942 217.527C59.9126 217.527 59.931 217.49 59.9126 217.453V217.472Z" fill="#3C3C71"/>
  <path d="M60.5564 217.95C60.5564 217.95 60.5012 217.894 60.4828 217.894C60.4092 217.876 60.3173 217.876 60.2437 217.913C60.0781 218.06 59.9126 218.225 59.7838 218.391C59.7838 218.409 59.7838 218.446 59.7838 218.464C59.8022 218.483 59.8574 218.501 59.8758 218.501C59.9494 218.501 60.0413 218.501 60.0781 218.446C60.0781 218.446 60.1149 218.409 60.1149 218.391C60.2253 218.262 60.3541 218.115 60.5012 218.005C60.5196 218.005 60.538 217.968 60.5196 217.931L60.5564 217.95Z" fill="#3C3C71"/>
  <path d="M51.1566 215.836C51.1566 216.057 51.1566 216.259 51.1566 216.461C51.1934 217.582 51.3038 218.666 51.5245 219.677C51.9844 219.457 52.4443 219.365 52.9409 219.273C53.0697 219.254 53.1985 219.236 53.3272 219.218C53.4928 219.199 53.6583 219.163 53.8055 219.144C53.8607 219.144 53.8975 219.144 53.9527 219.126C54.2654 219.071 54.5229 219.034 54.6885 219.034C55.038 218.997 55.4058 218.979 55.7554 218.96C56.0497 218.942 56.344 218.924 56.6383 218.905C57.3557 218.85 58.0915 218.813 58.8273 218.777C59.0296 218.777 59.2504 218.758 59.4527 218.74C60.0046 218.721 60.4644 218.74 60.8323 218.74C61.2002 218.74 61.4945 218.74 61.7153 218.611C62.028 218.446 62.2119 218.06 62.3039 217.27C62.3039 217.233 62.3039 217.214 62.3039 217.178C62.3223 216.975 62.3591 216.773 62.3775 216.571C62.5982 214.623 62.819 212.675 63.0397 210.708C63.242 208.889 63.4444 207.069 63.6283 205.25C63.6467 205.047 63.6651 204.827 63.7019 204.625C63.7755 204 63.8307 203.375 63.8859 202.75C64.0698 201.004 64.2354 199.276 64.3825 197.53C64.4929 196.244 64.6033 194.957 64.7136 193.671C64.7136 193.469 64.7504 193.248 64.7688 193.046C65.0815 189.039 65.3391 185.033 65.5046 181.008C65.5046 180.806 65.5046 180.585 65.523 180.383C65.5966 178.233 65.6518 176.082 65.6702 173.932C65.6702 172.995 65.6702 172.057 65.6702 171.12C65.6702 170.293 65.3391 169.558 64.824 168.951C64.6401 168.731 64.4193 168.528 64.1802 168.345C63.7203 167.995 63.1869 167.738 62.635 167.573C62.5063 167.536 62.3775 167.499 62.2487 167.481C62.0832 167.444 61.9176 167.426 61.7521 167.407C61.1818 167.352 60.5932 167.371 60.023 167.407C59.1952 167.444 58.3858 167.518 57.6316 167.701C57.3373 167.775 57.0614 167.848 56.7855 167.959C56.5095 168.069 56.2336 168.198 55.9577 168.363C55.8105 168.455 55.645 168.528 55.4794 168.584C54.4677 168.951 53.2537 168.859 52.4075 169.337C52.3707 169.355 52.3339 169.374 52.2971 169.392C51.3038 170.035 51.1934 171.322 51.2118 172.443C51.2118 172.737 51.2118 173.05 51.2118 173.344C51.2118 175.604 51.2302 177.847 51.2486 180.107C51.2486 180.309 51.2486 180.53 51.2486 180.732C51.267 184.555 51.2854 188.378 51.3038 192.201C51.3038 192.403 51.3038 192.623 51.3038 192.825C51.3038 193.928 51.3038 195.013 51.3038 196.115C51.3038 198.725 51.3222 201.317 51.3406 203.926C51.3406 204.129 51.3406 204.331 51.3406 204.551C51.3406 205.746 51.3406 206.941 51.3406 208.135C51.3406 210.506 51.0647 213.245 51.1015 215.836H51.1566Z" fill="#273A2F"/>
  <path d="M21.1731 121.386C21.1731 122.801 21.1731 124.235 21.1731 125.65C21.1731 125.889 21.1731 126.165 21.357 126.349C21.541 126.532 21.8537 126.532 22.1112 126.514C34.123 125.852 46.2084 125.191 57.9075 122.452C56.3072 114.862 54.7252 107.271 53.1249 99.6623C53.0513 99.2947 52.9593 98.9087 52.7202 98.6331C52.15 97.9714 48.9309 98.4309 48.0295 98.4125C46.1348 98.3574 44.2218 98.3022 42.3271 98.2838C38.5194 98.2471 34.73 98.2838 30.9223 98.5779C28.2183 98.7801 23.5828 98.2839 22.4055 101.151C21.0075 104.551 21.4674 109.146 21.3386 112.803C21.2466 115.67 21.1731 118.519 21.1547 121.386H21.1731Z" fill="#273A2F"/>
  <path d="M44.5345 105.874C44.5345 105.746 44.185 105.746 44.185 105.874C44.185 108.356 44.185 110.837 44.185 113.318C44.185 114.568 44.185 115.799 44.1666 117.049C44.1666 117.6 44.185 118.17 44.0378 118.703C43.9091 119.144 43.6516 119.512 43.3021 119.769C42.9342 120.045 42.4927 120.21 42.0512 120.375C41.6649 120.522 41.2786 120.651 40.9107 120.817C40.782 120.449 40.8004 120.063 40.782 119.677C40.782 119.199 40.7636 118.721 40.7452 118.243C40.7268 117.269 40.7084 116.314 40.6716 115.34C40.6348 113.41 40.5796 111.48 40.5428 109.55L40.4692 106.297C40.4692 106.168 40.1014 106.168 40.1197 106.297C40.1565 108.245 40.2117 110.175 40.2485 112.123C40.2853 114.071 40.3405 116.001 40.3773 117.949C40.3773 118.501 40.3957 119.052 40.4141 119.585C40.4141 120.063 40.4141 120.578 40.6164 121.037C40.6532 121.129 40.8371 121.129 40.9107 121.074C41.6833 120.669 42.5663 120.504 43.3204 120.045C43.6883 119.824 44.0011 119.53 44.2034 119.162C44.4609 118.703 44.4977 118.152 44.4977 117.637C44.5161 116.387 44.5161 115.156 44.5345 113.906C44.5345 112.656 44.5345 111.388 44.5345 110.138C44.5345 108.723 44.5345 107.308 44.5345 105.893V105.874Z" fill="#FFFDF8"/>
  <path d="M45.675 123.684C44.5713 125.669 43.6515 127.764 42.9341 129.914C42.2167 132.064 41.7201 134.288 41.4258 136.549C41.2602 137.817 41.1682 139.085 41.1498 140.372C41.1498 140.5 41.4993 140.5 41.4993 140.372C41.5361 138.111 41.8121 135.851 42.2903 133.645C42.7686 131.421 43.4492 129.252 44.3321 127.176C44.8288 125.999 45.399 124.86 46.0245 123.739C46.0981 123.61 45.7485 123.573 45.675 123.684V123.684Z" fill="#FFFDF8"/>
  <path d="M6.58597 122.342C5.37191 120.155 5.35352 117.104 4.96723 114.66C4.52575 111.848 4.10267 109.017 3.69799 106.205C3.07256 101.794 2.208 97.3465 2.11603 92.8988C2.09763 91.6858 2.09763 90.436 2.52072 89.3149C3.16454 87.624 4.83846 86.3559 6.65955 86.1905C8.03917 86.0618 9.45557 86.5764 10.4673 87.5138C11.571 88.5614 11.1295 90.2706 11.1847 91.6674C11.3318 96.4092 11.479 101.169 11.6262 105.911C11.7365 109.201 11.8285 112.491 11.7549 115.762C11.7181 117.398 11.6262 119.034 11.479 120.669C11.3686 121.901 11.5894 123.059 10.2282 123.537C8.95891 123.978 7.28498 123.592 6.58597 122.342V122.342Z" fill="#FCD9BA"/>
  <path d="M11.9389 120.688C11.295 119.824 10.5225 119.824 9.47395 119.861C8.99569 119.861 8.51742 119.916 8.03916 119.971C7.10102 120.081 6.56757 120.173 6.21807 121.019C5.64783 122.342 5.55586 123.812 5.4087 125.227C5.31672 126.091 5.18796 127.01 5.27993 127.874C5.37191 128.683 5.29833 129.473 5.59264 130.263C5.70301 130.557 5.85017 130.851 6.07091 131.054C6.36523 131.311 6.69633 131.403 6.62276 130.888C6.4756 130.006 6.49399 129.05 6.62276 128.168C6.64115 127.948 6.75152 126.882 7.06423 127.341C7.21139 127.562 7.11942 128.003 7.13781 128.242C7.1746 128.664 7.21139 129.087 7.24818 129.51C7.32176 130.355 7.41373 131.201 7.48731 132.046C7.5241 132.359 7.57929 132.8 7.85521 133.002C8.07595 133.149 8.49903 133.186 8.64619 132.91C8.71977 132.781 8.71977 132.634 8.70137 132.506C8.64619 130.888 8.27829 129.308 8.57261 127.69C8.6094 127.451 8.83013 127.01 9.03248 127.359C9.10606 127.47 9.10606 127.598 9.12445 127.727C9.23482 129.142 9.34519 130.557 9.45556 131.973C9.49235 132.377 9.45556 133.002 9.78667 133.296C10.3385 133.792 10.78 133.075 10.7616 132.542C10.7248 131.55 10.596 130.557 10.5592 129.565C10.5409 128.811 10.4673 127.984 10.7984 127.286C10.9088 127.433 10.9088 127.635 10.9271 127.801C10.9455 128.517 11.0007 129.216 11.0927 129.932C11.1663 130.576 11.1847 131.256 11.3502 131.881C11.4606 132.322 12.086 132.8 12.3252 132.156C12.3803 131.991 12.3619 131.826 12.3435 131.642C12.2148 130.227 12.0124 128.811 12.1044 127.396C12.1412 126.863 12.1964 126.202 12.5459 125.76C13.0977 125.944 13.1897 127.047 13.484 127.47C13.9255 128.113 14.4773 128.536 15.3603 128.389C16.0777 128.278 15.2315 127.212 15.0292 126.918C14.3302 125.944 13.8887 124.878 13.4288 123.776C12.9874 122.728 12.6747 121.68 12.0124 120.725C11.994 120.688 11.9757 120.669 11.9573 120.633L11.9389 120.688Z" fill="#FCD9BA"/>
  <path d="M11.6262 58.7874C11.3319 59.302 11.0559 59.835 10.8168 60.368C9.58434 62.9778 8.83016 65.7898 7.92881 68.5282C7.54252 69.6861 7.13783 70.844 6.5308 71.91C6.05254 72.737 5.4823 73.509 5.05922 74.3728C3.82676 76.9275 4.21305 80.0151 3.07257 82.6066C2.75986 83.305 2.35518 83.9299 2.07925 84.6466C1.71136 85.6023 1.60099 86.6316 1.49062 87.6608C1.32507 89.3149 1.14112 90.9506 0.975563 92.6047C0.8468 93.781 0.975563 95.0308 0.975563 96.207C0.975563 96.6114 0.993958 97.0525 1.28828 97.3098C1.61938 97.6038 2.11604 97.5119 2.53912 97.4017C4.58095 96.8503 6.47562 95.8211 8.62781 95.7292C9.62113 95.6924 13.5024 96.1519 13.6864 94.847C13.76 94.2956 13.2817 93.8361 13.1162 93.3031C12.9138 92.6231 13.2817 91.9063 13.7232 91.3366C14.1647 90.7668 14.6981 90.2522 14.9188 89.5722C15.3603 88.2305 14.4774 86.5948 15.2683 85.4369C15.5995 84.9407 16.1697 84.665 16.556 84.2239C17.4941 83.1763 17.2734 81.5773 17.4757 80.1805C17.7516 78.214 18.8921 76.5047 19.7751 74.722C22.5343 69.1899 23.1965 61.5626 19.7751 56.1592C19.0577 55.0197 17.8436 52.7223 16.2065 53.7515C14.2566 54.9829 12.7667 56.7841 11.6078 58.7874H11.6262Z" fill="#FFFDF8"/>
  <path d="M92.1772 6.16828C90.1721 8.6862 88.9581 11.976 87.5049 14.8432C85.8861 18.0595 84.249 21.2758 82.6302 24.4738C81.3058 27.0836 79.9814 29.6934 78.3994 32.1562C77.8476 33.02 77.2406 33.8838 76.4312 34.5271C74.7573 35.8504 71.483 35.685 69.7539 34.5087C68.9629 33.9757 67.5281 32.873 67.5833 31.8254C67.6569 30.4286 69.4044 28.7377 70.2321 27.7085C76.5048 19.9342 83.1453 12.2885 88.7557 4.01793C89.4363 3.02547 90.4481 2.033 91.4966 1.46325C91.8461 1.27946 92.1404 1.02216 92.4715 0.875125C92.913 0.672956 93.4096 0.617819 93.8695 0.562682C95.01 0.434029 96.1688 0.41565 97.3093 0.489166C97.8244 0.525924 98.7073 0.544303 99.112 0.930262C99.7926 1.57353 98.5602 1.88597 98.1003 1.97787C98.2475 2.033 98.3946 2.10652 98.4682 2.23517C98.5234 2.36382 98.4866 2.52924 98.413 2.63951C98.3394 2.74978 98.2107 2.84168 98.0819 2.91519C97.5668 3.24602 96.9966 3.5217 96.4448 3.77901C95.4147 4.27524 94.2006 4.49579 93.2441 5.1023C92.8026 5.37798 92.4347 5.74556 92.122 6.1499L92.1772 6.16828Z" fill="#FCD9BA"/>
  <path d="M52.941 59.596C54.0631 60.2577 55.1116 61.0664 56.3072 61.6177C56.3992 61.6545 56.5096 61.7096 56.6016 61.6729C56.7119 61.6361 56.7855 61.5442 56.8407 61.4523C61.0531 54.7807 66.7371 49.1016 71.8693 43.0917C72.6418 42.1727 73.4328 41.2722 74.1318 40.2981C74.8124 39.3424 75.4195 38.3315 76.2656 37.5412C76.9094 36.9531 77.682 36.4936 78.1235 35.7585C78.7489 34.7293 78.2707 33.6265 77.4613 32.9465C76.4128 32.0827 75.5666 31.2372 74.6653 30.208C73.4144 28.7745 71.8693 27.6533 70.3425 26.5506C70.1034 26.3852 69.8642 26.2014 69.5883 26.1279C68.7238 25.889 67.896 26.6976 67.5281 27.5063C67.1418 28.3334 66.9578 29.2707 66.2956 29.8956C65.7806 30.3918 65.0632 30.594 64.4745 30.9616C62.8006 32.0092 62.2856 34.0492 61.0531 35.4828C59.5815 37.192 57.5397 38.111 55.6634 39.2689C53.7504 40.4635 51.7637 41.5479 49.6851 42.4484C49.2068 42.6506 48.7102 42.8712 48.3791 43.2571C47.8088 43.9188 47.8272 44.8745 47.7904 45.7383C47.6801 48.9362 46.0429 51.785 46.0797 55.0197C46.0981 56.9495 46.1349 59.4674 48.8021 58.8058C50.1818 58.4566 50.9543 58.4933 52.2972 59.1917C52.5179 59.302 52.7386 59.4306 52.941 59.5593V59.596Z" fill="#FFFDF8"/>
  <path d="M24.337 106.26C23.6748 106.26 22.9942 106.26 22.332 106.26C22.1112 106.26 21.8905 106.26 21.7065 106.15C21.3202 105.93 21.2834 105.378 21.3018 104.937C21.9825 89.5722 20.5109 74.0971 16.9055 59.1366C16.5192 57.5008 15.8386 55.2402 16.5008 53.6045C17.0342 52.2812 18.561 51.7482 19.7383 51.013C23.0677 48.9178 26.3788 46.8226 29.7083 44.7274C31.1799 43.7901 32.7066 42.8528 34.399 42.4668C38.0411 41.6398 41.7569 43.5328 45.491 43.4777C47.7904 43.4409 50.2185 42.6874 52.2787 43.6798C53.1985 44.1209 53.9343 44.8561 54.6333 45.6096C55.1667 46.1978 55.7002 46.8043 56.0129 47.5394C56.3256 48.2746 56.3992 49.0833 56.5647 49.8552C56.8591 51.2336 57.4293 52.5385 57.6868 53.9169C58.2203 56.8576 57.2269 60.2026 56.9878 63.1616C56.7119 66.4882 56.5463 69.8148 56.436 73.1414C56.2888 77.6075 56.2888 82.1287 56.0681 86.6316C55.8473 91.4469 55.6266 96.2622 55.4059 101.077C55.3323 102.897 55.2403 106.058 52.8674 106.187C50.9543 106.279 49.0045 106.187 47.0914 106.187C39.4943 106.205 31.9157 106.224 24.3186 106.242L24.337 106.26Z" fill="#FFFDF8"/>
  <path d="M42.7134 48.0908C42.5846 49.7081 42.4559 51.3071 42.3087 52.9245C42.2351 53.7515 42.1616 54.5786 42.0696 55.3873C41.996 56.0673 42.0696 57.0781 41.7753 57.6846C40.598 57.3538 39.4759 55.6446 38.6481 54.7991C36.5143 52.6304 33.9207 50.9579 31.4925 49.12C31.143 48.8627 30.7935 48.5686 30.4992 48.2378C30.2417 47.9254 30.021 47.5762 29.9658 47.1902C29.8738 46.6572 30.0394 46.1059 30.2233 45.5912C30.5728 44.7091 31.0695 43.9188 31.3638 43.0182C31.6765 42.0625 31.9524 41.1068 32.1916 40.1327C32.5227 38.8278 32.7618 37.1737 33.4976 36.0158C33.8839 35.4277 34.7116 34.913 35.2819 34.5087C36.22 33.8654 36.9926 34.086 37.9307 34.5455C39.807 35.4277 41.6833 36.898 42.2903 38.9197C42.4375 39.3791 42.4927 39.8754 42.4927 40.3532C42.4927 40.3532 42.4927 40.3716 42.4927 40.39C42.4927 40.39 42.4927 40.39 42.4927 40.4084C42.4375 41.6949 42.1064 42.9631 42.1616 44.2496C42.1616 44.5988 42.2351 44.8928 42.3271 45.1685C42.4191 45.4626 42.5478 45.7383 42.6766 46.0691C42.9157 46.6756 42.7318 47.4108 42.6766 48.054L42.7134 48.0908Z" fill="#FCD9BA"/>
  <path d="M42.5111 40.4451C42.4559 41.7317 42.1248 42.9998 42.1799 44.2863C42.1799 44.6355 42.2535 44.9296 42.3455 45.2053C40.4692 45.8853 38.3722 43.9188 37.8756 42.2646C37.4893 41.0333 38.0411 39.7467 39.3839 39.5262C40.0094 39.4343 40.5244 39.6548 41.113 39.7467C41.4442 39.8019 41.7017 39.7467 41.996 39.9489C42.1983 40.0775 42.3639 40.243 42.5111 40.4084V40.4451Z" fill="#DEA978"/>
  <path d="M47.7904 28.1679C47.7904 28.1679 47.8088 28.2415 47.8272 28.2598C47.9375 28.5171 47.9007 28.9031 47.9559 29.1972C48.0295 29.5648 48.0847 29.914 48.0847 30.2815C48.0847 30.9616 47.6248 31.5497 47.6432 32.2297C47.6432 32.5238 47.8088 32.7995 47.9375 33.0568C48.0847 33.3692 48.2502 33.7 48.4158 34.0125C48.7653 34.6374 49.1516 35.2439 49.5931 35.832C49.9058 36.2363 50.2369 36.659 50.2185 37.1553C50.1817 37.964 49.3171 38.1845 48.6917 38.4234C48.0111 38.6807 47.864 39.5629 47.772 40.1878C47.6616 41.0149 47.68 41.8419 47.5329 42.6874C47.3489 43.7166 46.889 44.5988 45.7486 44.7091C44.1298 44.8561 42.4927 44.4885 41.0395 43.7901C39.899 43.2387 38.8873 42.4668 38.0043 41.5846C37.2317 40.8127 36.0913 40.2062 35.613 39.2137C35.1163 38.1845 34.123 38.3315 33.1849 37.7985C32.21 37.2472 31.5293 36.1077 31.1063 35.1336C30.6464 34.0492 30.3889 32.873 30.1497 31.7151C29.9106 30.5572 29.6715 29.381 29.929 28.2231C30.2233 26.8814 31.1614 25.7235 32.3203 24.9149C33.4608 24.1062 34.8036 23.61 36.1281 23.1689C37.5812 22.691 38.9241 22.2683 40.4508 22.3786C41.5361 22.4521 42.5295 22.7278 43.578 23.0034C44.5529 23.2608 45.3255 23.9592 45.9509 24.7311C46.7787 25.7419 47.3121 26.9733 47.7904 28.2047V28.1679Z" fill="#FCD9BA"/>
  <path d="M30.2969 38.2764C30.7752 39.0483 31.327 39.7835 32.1732 40.1878C32.7986 40.4819 33.3688 40.2613 33.9023 39.8938C34.4541 39.5262 34.9508 39.0851 35.3923 38.6072C35.9441 38.0007 36.404 37.3023 36.9558 36.6774C37.4525 36.1261 38.2067 35.9423 38.7953 35.4828C40.8371 33.939 39.8438 31.0718 41.0763 29.0501C41.6097 28.1863 42.4927 27.5247 43.486 27.2858C44.3873 27.0652 45.3623 27.1571 46.19 26.716C47.9007 25.8154 48.8573 23.3894 46.9994 22.158C46.374 21.7353 45.675 21.4412 44.9576 21.2758C44.3322 21.1288 43.6883 21.092 43.0997 20.8531C42.1984 20.4855 41.4993 19.6585 40.5612 19.4012C40.0462 19.2541 39.4759 19.2909 38.9425 19.3276C38.0595 19.3828 37.1398 19.4563 36.3488 19.8423C35.7786 20.1363 35.3003 20.5774 34.7484 20.9082C33.4608 21.6802 31.7501 21.8456 30.9039 23.077C30.2417 24.0511 30.4073 25.356 30.1681 26.5138C29.8922 27.8555 29.0828 28.995 28.4942 30.2264C27.9056 31.4578 27.5193 32.9465 28.1447 34.1595C28.4758 34.8211 29.0644 35.3174 29.4139 35.979C29.8002 36.7142 29.8554 37.578 30.2969 38.2764V38.2764Z" fill="#553A12"/>
  <path d="M47.3489 30.9616C47.3489 30.9616 47.3121 30.8329 47.2754 30.7778C47.0178 30.3367 46.282 30.4653 45.8773 30.5205C45.3255 30.594 44.8288 30.8697 44.369 31.1637C43.9275 31.4578 43.4676 31.8254 43.394 32.34C43.394 32.3767 43.394 32.3951 43.394 32.4319C43.486 32.5789 44.1666 32.1194 44.2586 32.0459C44.4058 31.9724 44.5897 31.8989 44.7553 31.8438C45.3807 31.6416 46.0245 31.4946 46.6683 31.5313C46.8155 31.5313 46.9626 31.5497 47.0914 31.5129C47.3305 31.421 47.4041 31.1821 47.3489 30.9616V30.9616Z" fill="#553A12"/>
  <path d="M41.3338 35.7217C41.3338 35.7217 41.3338 35.685 41.3338 35.6666C41.4809 34.1044 39.9726 31.3475 38.0779 32.34C37.4157 32.6892 37.011 33.4243 36.9558 34.1595C36.8638 35.6114 38.1699 37.8904 39.8254 37.8169C40.8371 37.7618 41.2234 36.5855 41.3154 35.7217H41.3338Z" fill="#FCD9BA"/>
  <path d="M45.5278 33.7552C45.5278 33.5714 45.5646 33.3876 45.675 33.2957C45.7485 33.2222 45.8589 33.1854 45.9509 33.167C46.2636 33.1119 46.4659 33.2957 46.5395 33.5346C46.5763 33.7 46.5763 33.8654 46.5579 34.0308C46.5579 34.1963 46.5027 34.38 46.4292 34.5455C46.3924 34.6374 46.3372 34.6925 46.2452 34.7476C45.8773 34.9498 45.6382 34.7109 45.583 34.3984C45.5646 34.2514 45.5094 33.9941 45.5278 33.7735V33.7552Z" fill="#553A12"/>
  <path d="M43.1548 25.356C43.817 25.2824 44.5161 25.2089 45.0495 24.8046C45.583 24.4003 45.7117 23.7754 45.7853 23.1505C45.7853 23.0218 46.1532 23.0034 46.1348 23.1137C46.098 23.4629 46.0428 23.8121 45.9141 24.1246C45.7853 24.437 45.5646 24.6943 45.307 24.8965C44.7 25.356 43.909 25.4479 43.1548 25.5214C43.0996 25.5214 42.9709 25.5214 42.9709 25.4479C42.9709 25.3743 43.0813 25.3376 43.1364 25.3376L43.1548 25.356Z" fill="#63848F"/>
  <path d="M40.4324 23.2056C40.4324 23.2056 40.5796 23.1137 40.6348 23.1137C41.021 23.1137 41.4257 23.1137 41.7568 22.8932C42.0328 22.7094 42.2535 22.4153 42.2535 22.0845C42.2535 21.9558 42.603 21.9375 42.603 22.0661C42.603 22.4705 42.3271 22.838 41.9776 23.0402C41.5545 23.2975 41.021 23.3343 40.5428 23.3159C40.4876 23.3159 40.3956 23.2791 40.414 23.2056H40.4324Z" fill="#63848F"/>
  <path d="M29.3219 30.7594C29.3587 30.6491 29.7082 30.6491 29.6714 30.7778C29.3035 31.9173 29.5611 33.2222 30.3521 34.1411C30.4072 34.1963 30.2785 34.2514 30.2417 34.2698C30.1681 34.2882 30.0761 34.2698 30.0209 34.2146C29.2116 33.2773 28.954 31.9356 29.3403 30.7594H29.3219Z" fill="#63848F"/>
  <path d="M32.2651 31.2005C32.3203 31.0902 32.6698 31.1086 32.6146 31.2189C32.1732 32.0827 32.9273 32.9097 33.516 33.4611C33.6447 33.5714 33.3136 33.6633 33.2217 33.5897C32.8722 33.2589 32.5227 32.9097 32.3203 32.4686C32.1364 32.0643 32.0812 31.5864 32.2835 31.1821L32.2651 31.2005Z" fill="#63848F"/>
  <path d="M46.7235 39.9673C46.8154 39.6548 46.7602 39.3791 46.4475 39.2321C46.3372 39.177 46.2268 39.1586 46.1164 39.1218C45.7853 39.0116 45.4542 38.8461 45.1967 38.6072C44.8656 38.3132 44.4057 38.4051 44.3321 38.9197C44.2585 39.3791 44.6264 39.7467 44.9576 40.0224C45.4542 40.4451 46.4659 40.8678 46.7235 39.9856V39.9673Z" fill="white"/>
  <path d="M45.7118 51.1233L44.7368 50.8293L44.277 50.6822C44.1482 50.6455 44.001 50.6087 43.8723 50.5536C43.7251 50.4984 43.7435 50.3698 43.7803 50.2411C43.8355 50.0757 43.9091 49.9103 43.9643 49.7449C44.0746 49.4325 44.2034 49.1384 44.3138 48.8443C44.4425 48.5319 44.5713 48.2011 44.6817 47.8886C44.792 47.6313 44.9392 47.3189 44.9024 47.0248C44.8656 46.7491 44.6449 46.5653 44.4425 46.3815C44.2034 46.1794 43.9459 45.9588 43.7067 45.7567C43.1365 45.2788 42.5663 44.8009 41.996 44.3047C41.9408 44.2496 41.8305 44.2496 41.7569 44.268C41.7017 44.268 41.6281 44.3415 41.7017 44.3966C42.2167 44.8377 42.7318 45.2604 43.2469 45.7015C43.5044 45.9221 43.7619 46.1426 44.0194 46.3448C44.2218 46.5286 44.5161 46.7124 44.5713 47.0064C44.6265 47.3189 44.4241 47.6497 44.3138 47.9438L43.9459 48.8995C43.8355 49.2119 43.7067 49.506 43.5964 49.8184C43.5044 50.039 43.2836 50.3882 43.5044 50.6087C43.6148 50.7006 43.7619 50.7374 43.8907 50.7925L44.4425 50.9579C44.7736 51.0682 45.1047 51.1601 45.4542 51.2704C45.3439 51.8034 45.1047 52.2996 44.8656 52.7958C44.6265 53.3288 44.3689 53.8802 44.1298 54.4132C43.6332 55.4975 43.1365 56.6003 42.6398 57.6846C42.4191 58.1625 42.1984 58.6587 41.9776 59.1366C41.9776 59.1182 41.9776 59.0814 41.9224 59.0631C40.6716 58.2911 39.4023 57.5376 38.1147 56.8392C36.8271 56.1408 35.521 55.4792 34.1966 54.8543C33.4792 54.5051 32.7434 54.1926 32.0076 53.8618L32.8906 52.0239C32.8906 52.0239 32.817 51.9136 32.7618 51.8952C31.5661 51.6379 30.3889 51.2704 29.2484 50.8109C28.9541 50.7006 28.6782 50.572 28.4022 50.4433C28.1631 50.333 27.9424 50.2044 27.9056 49.9103C27.8872 49.6346 27.9791 49.3222 28.0527 49.0649C28.1263 48.7524 28.1999 48.44 28.2735 48.1275C28.439 47.4108 28.6046 46.694 28.7701 45.9772C28.7885 45.8669 28.439 45.8302 28.4206 45.9772C28.2735 46.6388 28.1263 47.2821 27.9791 47.9438C27.9056 48.2746 27.832 48.6054 27.7584 48.9362C27.6848 49.2303 27.5929 49.5427 27.5745 49.8368C27.5745 50.1125 27.7216 50.333 27.9608 50.4617C28.2183 50.6087 28.5126 50.719 28.7885 50.8293C29.3772 51.0682 29.9842 51.2887 30.5912 51.4909C31.235 51.6931 31.8789 51.8769 32.5227 52.0239L31.6581 53.8434C31.6581 53.8434 31.6581 53.9169 31.6949 53.9353C33.0561 54.5234 34.3806 55.13 35.705 55.7916C37.011 56.4532 38.2987 57.1516 39.5679 57.8684C40.2485 58.2544 40.9107 58.6587 41.5729 59.0631C41.5729 59.0631 41.5729 59.0631 41.5545 59.0814C41.5177 59.1733 41.8305 59.2285 41.8856 59.2836C42.3455 59.5961 42.5662 58.6403 42.695 58.3463C42.9709 57.7398 43.2469 57.1149 43.5412 56.5084C44.093 55.2954 44.6449 54.1007 45.1967 52.8877C45.4542 52.318 45.7302 51.7482 45.8589 51.1233C45.8589 51.0866 45.8037 51.0498 45.767 51.0314L45.7118 51.1233Z" fill="#4B575E"/>
  <path d="M21.2466 69.3369C20.658 67.7563 19.9406 66.2309 19.1312 64.7606C18.3219 63.2902 17.4021 61.8934 16.372 60.5518C15.8018 59.7982 15.1947 59.0814 14.5693 58.383C14.4957 58.2911 14.1462 58.3463 14.2566 58.4749C15.3787 59.7247 16.4088 61.048 17.3285 62.4264C18.2483 63.8232 19.076 65.2752 19.7934 66.7822C20.1981 67.6277 20.566 68.4915 20.8971 69.3737C20.9339 69.484 21.3018 69.4656 21.2466 69.3185V69.3369Z" fill="#4B575E"/>
  <path d="M56.2704 51.2887C56.1785 49.4141 56.0497 47.5394 55.8658 45.6831C55.7738 44.7274 55.5898 43.7717 55.1484 42.9263C55.0932 42.816 54.7437 42.8528 54.7989 42.9814C55.1851 43.735 55.3691 44.5804 55.4611 45.4075C55.5714 46.308 55.6266 47.227 55.7002 48.1459C55.8474 50.0206 55.9393 51.8952 56.0129 53.7883C56.0497 54.8543 56.0865 55.9202 56.0865 56.9862C56.0865 57.1149 56.436 57.1149 56.436 56.9862C56.3992 55.0932 56.344 53.2002 56.2337 51.3071L56.2704 51.2887Z" fill="#4B575E"/>
  <path d="M12.3436 92.1637C10.173 91.2815 7.78165 91.3182 5.50069 91.5388C4.83847 91.6123 4.19465 91.6858 3.55083 91.7593C3.49565 91.7593 3.40368 91.8144 3.42207 91.888C3.45886 91.9615 3.58762 91.9615 3.64281 91.9615C5.86858 91.6858 8.13115 91.3917 10.3569 91.8145C10.9823 91.9247 11.5894 92.1085 12.178 92.3474C12.2516 92.3842 12.362 92.3658 12.4171 92.3107C12.4723 92.2555 12.4171 92.2004 12.362 92.182L12.3436 92.1637Z" fill="#4B575E"/>
  <path d="M11.2583 86.3375C10.0442 85.4369 8.71977 84.665 7.34016 84.0769C6.95387 83.9115 6.54918 83.7461 6.1445 83.599C6.07092 83.5807 5.96055 83.5807 5.90537 83.6358C5.85018 83.6909 5.90537 83.7461 5.96055 83.7644C7.34016 84.2607 8.68298 84.9223 9.91544 85.7126C10.2649 85.9332 10.6144 86.1721 10.9455 86.4294C11.0191 86.4845 11.1111 86.4845 11.1847 86.4662C11.2399 86.4662 11.3134 86.3926 11.2399 86.3375H11.2583Z" fill="#4B575E"/>
  <path d="M70.9679 38.6807C70.5448 37.5412 70.1217 36.4201 69.6986 35.2806C69.4963 34.7109 69.2756 34.1411 69.0732 33.5898C68.8893 33.0935 68.7237 32.5973 68.4846 32.1194C68.2454 31.6232 67.9695 31.1453 67.5648 30.7594C67.5097 30.7043 67.3993 30.7043 67.3257 30.7226C67.2705 30.741 67.1969 30.7961 67.2705 30.8513C68.0063 31.5497 68.3374 32.5422 68.6685 33.4795C69.0916 34.6006 69.4963 35.7217 69.9194 36.8245C70.1585 37.4677 70.3976 38.0926 70.6368 38.7359C70.6736 38.8462 71.0415 38.8278 70.9863 38.6807H70.9679Z" fill="#4B575E"/>
  <path d="M65.3942 41.1251C65.3942 40.5003 65.3575 39.8938 65.3391 39.2689C65.3391 39.1402 64.9712 39.1402 64.9896 39.2689C65.0631 41.456 65.0815 43.6615 65.0631 45.8669C65.0631 46.4918 65.0631 47.0983 65.0447 47.7232C65.0447 47.8519 65.3942 47.8519 65.3942 47.7232C65.431 45.5361 65.431 43.3306 65.3942 41.1251Z" fill="#4B575E"/>
  <path d="M43.0997 63.2719C43.0997 63.2719 42.8974 63.1248 42.7686 63.0881C42.5111 63.0145 42.2168 63.0145 41.9776 63.1432C41.4994 63.3637 41.4258 64.0622 41.7569 64.4297C41.9408 64.6503 42.2352 64.7605 42.5111 64.7422C42.8054 64.7422 43.0445 64.5951 43.2285 64.3746C43.486 64.0254 43.4308 63.5292 43.0997 63.2719Z" fill="#4B575E"/>
  <path d="M43.0997 73.7846C43.0997 73.7846 42.8974 73.6376 42.7686 73.6008C42.5111 73.5273 42.2168 73.5273 41.9776 73.656C41.4994 73.8765 41.4258 74.5749 41.7569 74.9425C41.9408 75.1631 42.2352 75.2733 42.5111 75.255C42.8054 75.255 43.0445 75.1079 43.2285 74.8874C43.486 74.5382 43.4308 74.0419 43.0997 73.7846Z" fill="#4B575E"/>
  <path d="M43.0997 84.2974C43.0997 84.2974 42.8974 84.1504 42.7686 84.1136C42.5111 84.0401 42.2168 84.0401 41.9776 84.1688C41.4994 84.3893 41.4258 85.0877 41.7569 85.4553C41.9408 85.6759 42.2352 85.7861 42.5111 85.7678C42.8054 85.7678 43.0445 85.6207 43.2285 85.4002C43.486 85.051 43.4308 84.5547 43.0997 84.2974Z" fill="#4B575E"/>
  <path d="M43.0997 94.8286C43.0997 94.8286 42.8974 94.6816 42.7686 94.6448C42.5111 94.5713 42.2168 94.5713 41.9776 94.7C41.4994 94.9205 41.4258 95.6189 41.7569 95.9865C41.9408 96.207 42.2352 96.3173 42.5111 96.2989C42.8054 96.2989 43.0445 96.1519 43.2285 95.9313C43.486 95.5821 43.4308 95.0859 43.0997 94.8286Z" fill="#4B575E"/>
  <path d="M26.6915 102.199C25.6062 100.397 24.7784 98.4125 24.2634 96.3724C24.1162 95.7843 23.9875 95.1962 23.8955 94.6081C23.8771 94.461 23.5276 94.4794 23.546 94.6081C23.8955 96.7216 24.5577 98.7617 25.4958 100.673C25.7534 101.206 26.0477 101.739 26.3604 102.254C26.434 102.364 26.7835 102.327 26.7099 102.199H26.6915Z" fill="#4B575E"/>
  <path d="M54.6885 92.8804C54.5781 94.4059 54.3758 95.913 54.0998 97.4017C54.0263 97.8244 53.9343 98.2655 53.8423 98.6882C53.8239 98.8168 54.1734 98.8352 54.1918 98.6882C54.5045 97.1995 54.7437 95.6924 54.9092 94.1853C54.946 93.7442 55.0012 93.3215 55.0196 92.8804C55.0196 92.7518 54.6701 92.7518 54.6701 92.8804H54.6885Z" fill="#4B575E"/>
  <path d="M55.4243 107.896C55.4243 107.896 55.2403 108.043 55.13 108.098C54.9276 108.172 54.7069 108.19 54.5045 108.19C51.1383 108.264 47.772 108.117 44.4058 108.117H22.2768C21.8537 108.117 21.2099 108.356 20.842 108.061C20.7316 107.97 20.7132 107.804 20.6948 107.657C20.6213 106.518 20.6213 105.378 20.6948 104.257C20.6948 104.092 20.7132 103.926 20.8052 103.779C21.0995 103.375 22.8286 103.779 23.3437 103.779H50.6968C51.7085 103.779 52.7386 103.724 53.7503 103.761C54.1734 103.761 54.8908 103.687 55.2771 103.871C55.6266 104.036 55.5898 104.202 55.6082 104.606C55.645 105.415 56.1785 107.198 55.4427 107.914L55.4243 107.896Z" fill="#4B575E"/>
  <path d="M44.5529 106.021C44.5529 105.249 44.7921 103.614 43.6884 103.448C43.5412 103.43 43.394 103.448 43.2469 103.448C43.1181 103.448 43.0078 103.467 42.879 103.485C42.8054 103.485 42.7134 103.485 42.6399 103.54C42.4927 103.632 42.5479 103.889 42.7134 103.908C43.0078 103.963 43.2285 104.22 43.3573 104.478C43.6516 105.084 43.5596 105.801 43.578 106.463C43.578 106.738 43.578 107.032 43.4676 107.29C43.3756 107.547 43.1549 107.786 42.8974 107.859C42.6766 107.933 42.3639 107.896 42.2536 108.098C42.2536 108.135 42.2352 108.153 42.2352 108.19C42.2352 108.264 42.3455 108.3 42.4191 108.3C42.6766 108.337 42.9342 108.374 43.1917 108.392C43.3573 108.411 43.5228 108.429 43.6884 108.411C43.9459 108.374 44.185 108.227 44.3322 108.006C44.6817 107.51 44.5161 106.536 44.5161 105.966L44.5529 106.021Z" fill="white"/>
  <path d="M39.2736 104.165C39.2736 103.981 39.2552 103.779 39.0897 103.651C38.9425 103.522 38.7218 103.522 38.5562 103.595C38.5378 103.595 38.5195 103.614 38.5195 103.632C38.4827 103.632 38.4643 103.669 38.4459 103.706C38.3723 105.213 38.2987 106.701 38.2435 108.209C38.2435 108.282 38.3723 108.3 38.4275 108.3C38.5562 108.3 38.7034 108.3 38.8322 108.3C38.9057 108.3 38.9977 108.282 39.0161 108.209C39.1817 107.326 39.2736 106.407 39.292 105.507C39.292 105.066 39.292 104.606 39.2736 104.165V104.165Z" fill="white"/>
  <path d="M37.4158 106.224C37.2318 105.764 36.68 105.158 36.4776 104.955C35.9074 104.386 35.3371 104 34.5278 104.036C33.4977 104.092 32.4859 104.202 31.4742 104.349C30.3154 104.514 29.1381 104.717 27.9976 104.955C26.9491 105.158 25.9558 105.305 24.9625 105.672C24.8521 105.709 24.7233 105.764 24.6865 105.893C24.6497 106.003 24.7233 106.113 24.7785 106.205C24.9809 106.554 25.0544 106.94 25.1464 107.345C25.2936 108.061 25.4039 108.833 25.6247 109.55C25.8454 110.249 26.1765 110.083 26.8019 109.918C30.1498 109.036 33.4977 108.172 36.8455 107.271C37.0111 107.234 37.1766 107.179 37.3054 107.069C37.5261 106.885 37.5261 106.499 37.4158 106.242V106.224Z" fill="#4B575E"/>
  <path d="M34.0127 103.853C33.4057 103.889 32.7986 103.945 32.1916 104.036C31.603 104.128 30.9959 104.257 30.4073 104.386C29.1932 104.643 27.9608 104.9 26.7467 105.158C26.1213 105.286 25.4959 105.433 24.9072 105.672C24.8889 105.672 24.8521 105.672 24.8521 105.672C24.8521 105.672 24.8521 105.672 24.8337 105.691C24.5761 105.93 24.7417 106.334 24.8337 106.628C24.9624 107.069 25.0728 107.51 25.1464 107.951C25.1464 108.025 25.3303 108.006 25.3303 107.951C25.2751 107.547 25.1832 107.161 25.0728 106.775C24.9808 106.481 24.7417 106.021 25.0176 105.764C25.5511 105.544 26.1213 105.397 26.6915 105.286C27.2802 105.158 27.8872 105.029 28.4758 104.919C29.6531 104.661 30.8488 104.404 32.0444 104.184C32.7251 104.073 33.3873 103.981 34.0679 103.945C34.1782 103.945 34.1782 103.834 34.0679 103.853H34.0127Z" fill="#4B575E"/>
  <path d="M28.4942 107.271C28.4942 107.271 28.4942 107.087 28.4942 107.014C28.4758 106.922 28.4207 106.867 28.3471 106.812C28.2551 106.757 28.1263 106.738 28.016 106.757C27.832 106.775 27.6849 106.885 27.6297 107.069C27.5929 107.253 27.7033 107.418 27.8504 107.528C27.9792 107.62 28.1447 107.62 28.2919 107.547C28.3287 107.528 28.3655 107.492 28.4023 107.455C28.4391 107.418 28.4758 107.381 28.4942 107.345C28.4942 107.345 28.5126 107.308 28.5126 107.29L28.4942 107.271Z" fill="#4B575E"/>
  <path d="M33.3505 106.113C33.3505 106.113 33.2769 106.003 33.2217 105.966C33.1298 105.911 33.0378 105.911 32.9274 105.911C32.8538 105.911 32.7619 105.948 32.7067 106.003C32.6147 106.058 32.5411 106.168 32.5779 106.279C32.5779 106.334 32.6147 106.389 32.6515 106.444C32.6883 106.499 32.7619 106.536 32.8354 106.554C32.9826 106.591 33.1849 106.573 33.2769 106.444C33.3505 106.352 33.3873 106.224 33.3505 106.113V106.113Z" fill="#4B575E"/>
  <path d="M38.1331 106.04C38.1331 106.04 38.1331 105.948 38.0963 105.93C38.0963 105.911 38.0595 105.893 38.0411 105.874C38.0044 105.856 37.986 105.838 37.9492 105.819C37.8756 105.801 37.802 105.782 37.7284 105.801C37.6549 105.801 37.5813 105.838 37.5445 105.911C37.5445 105.911 37.5261 105.93 37.5261 105.948C37.5261 105.966 37.5077 105.985 37.5077 106.021C37.5077 106.04 37.5077 106.077 37.5077 106.095C37.5077 106.095 37.5077 106.113 37.5261 106.113C37.5261 106.132 37.5261 106.15 37.5445 106.187C37.5629 106.242 37.6181 106.279 37.6548 106.297C37.802 106.371 38.0227 106.352 38.0963 106.205C38.0963 106.187 38.0963 106.15 38.1147 106.132C38.1147 106.113 38.1147 106.077 38.1147 106.058L38.1331 106.04Z" fill="#4B575E"/>
  <path d="M43.9459 105.985C43.9459 105.911 43.8723 105.856 43.7988 105.819C43.7252 105.782 43.6332 105.782 43.5596 105.764C43.4677 105.764 43.3757 105.764 43.2837 105.764C43.1365 105.764 43.0078 105.782 42.8606 105.819C42.8422 105.819 42.8238 105.819 42.787 105.838C42.787 105.838 42.7686 105.838 42.7503 105.838C42.6583 105.838 42.5663 105.893 42.5295 105.966C42.4927 106.04 42.5111 106.132 42.5663 106.187C42.6767 106.334 42.9158 106.334 43.0814 106.352C43.2653 106.352 43.4309 106.352 43.6148 106.297C43.7068 106.279 43.7804 106.242 43.8539 106.205C43.9275 106.168 43.9827 106.095 43.9643 106.003L43.9459 105.985Z" fill="white"/>
  <path d="M102.589 152.484C102.515 158.585 101.816 164.724 100.97 170.697C99.4799 181.357 96.9782 191.851 93.5016 202.033C101.945 201.592 110.149 205.121 118.611 205.084C120.671 205.084 122.768 204.845 124.644 204.018C126.575 203.173 128.213 201.776 130.071 200.747C133.897 198.633 138.514 198.284 142.855 198.964C145.706 199.405 148.594 200.287 151.427 199.773C153.579 199.387 154.572 198.909 156.062 197.236C158.288 194.737 161.047 192.715 164.101 191.318C165.168 190.841 167.338 190.234 167.081 188.837C166.952 188.084 164.377 186.191 163.825 185.511C150.36 167.995 140.132 148.017 133.768 126.863C132.922 124.033 132.131 121.147 130.714 118.538C129.574 116.424 128.047 114.549 126.539 112.693C126.079 112.123 125.601 111.535 124.957 111.186C123.504 110.377 121.885 111.002 120.358 110.653C118.978 110.34 118.114 109.366 116.679 109.109C114.269 108.686 111.749 109.642 109.873 111.223C107.978 112.785 106.617 114.88 105.421 117.03C101.43 124.143 100.326 132.285 101.706 140.335C102.386 144.323 102.644 148.403 102.589 152.484V152.484Z" fill="#E4DECF"/>
  <path d="M103.324 213.796C103.141 212.215 103.545 210.488 103.545 208.925C103.545 206.922 103.214 204.864 103.067 202.86C102.754 198.835 102.423 194.792 102.11 190.767C101.89 187.863 101.651 184.959 101.743 182.055C101.89 176.652 103.141 171.34 104.373 166.066C105.09 162.978 104.888 158.107 109.137 158.457C112.209 158.714 118.611 158.144 118.243 162.5C117.912 166.507 116.808 170.421 115.833 174.336C114.233 180.806 113.019 187.385 111.988 193.965C111.05 199.901 110.922 206.408 109.432 212.179C109.211 213.024 109.192 214.458 108.512 215.082C108.126 215.45 107.574 215.579 107.059 215.652C106.396 215.744 106.12 215.56 105.55 215.34C104.888 215.082 104.06 215.468 103.582 214.788C103.435 214.586 103.38 214.329 103.361 214.072C103.361 213.98 103.343 213.888 103.324 213.796V213.796Z" fill="#FCD9BA"/>
  <path d="M119.751 147.999C119.328 151.822 118.905 155.645 118.463 159.468C118.095 162.684 116.918 164.081 113.405 164.117C111.308 164.136 109.229 164.026 107.151 163.768C106.488 163.695 105.771 163.566 105.311 163.088C104.851 162.61 104.759 161.912 104.686 161.25C103.766 153.164 102.828 145.077 101.908 136.99C101.209 130.815 100.492 124.584 101.191 118.409C101.945 111.719 110.774 108.797 116.679 110.157C117.838 110.432 119.917 110.726 120.855 111.498C123.338 113.557 122.565 119.273 122.326 122.03C121.554 130.704 120.689 139.361 119.751 148.017V147.999Z" fill="#FCD9BA"/>
  <path d="M114.122 221.313C113.129 221.57 111.124 221.736 110.37 220.89C109.542 219.971 108.751 218.997 107.666 218.354C106.433 217.6 105.035 216.957 103.674 216.461C103.012 216.204 101.43 215.836 101.467 214.917C101.503 213.906 102.276 213.392 102.736 212.583C103.067 212.013 103.361 211.517 103.913 211.131C104.667 210.653 105.642 210.524 106.507 210.708C107.261 210.874 108.346 211.315 108.806 211.995C109.303 212.767 109.634 213.796 110.057 214.623C111.032 216.498 112.099 218.317 113.497 219.898C113.865 220.32 114.196 220.725 114.122 221.313V221.313Z" fill="#FCD9BA"/>
  <path d="M116.881 222.177C117.01 222.14 117.139 222.066 117.176 221.975C117.231 221.791 117.065 221.644 116.9 221.552C115.87 220.927 114.821 220.063 113.57 220.045C112.908 220.045 112.264 220.192 111.62 220.339C111.124 220.467 110.738 220.725 110.241 220.431C109.965 220.265 109.744 220.008 109.523 219.769C107.647 217.711 104.851 216.626 102.405 215.395C102.018 215.211 101.632 215.009 101.227 214.88C101.025 214.807 100.768 214.77 100.602 214.935C100.492 215.046 100.473 215.229 100.492 215.395C100.584 216.369 101.448 217.141 101.798 218.041C102.166 218.979 102.202 220.026 102.294 221.019C102.331 221.35 102.625 221.515 102.938 221.515C103.38 221.515 103.416 221.313 103.435 220.909C103.508 219.879 103.38 218.832 103.656 217.821C103.748 217.49 104.079 217.067 104.465 217.104C104.943 217.141 105.679 217.766 106.084 218.023C106.58 218.336 107.077 218.666 107.555 219.016C108.457 219.677 109.156 220.541 109.799 221.442C109.928 221.625 110.057 221.754 110.186 221.864L111.345 221.919H111.657L116.477 222.195H116.495C116.495 222.195 116.716 222.195 116.845 222.14L116.881 222.177Z" fill="#42703A"/>
  <path d="M152.843 211.94C151.923 210.653 151.427 208.944 150.673 207.565C149.716 205.819 148.41 204.165 147.306 202.511C145.062 199.148 142.836 195.766 140.592 192.403C138.992 189.977 137.373 187.551 136.03 184.978C133.547 180.181 132.039 174.924 130.549 169.723C129.684 166.672 127.146 162.518 131.027 160.754C133.823 159.486 139.157 155.884 140.96 159.872C142.616 163.548 143.554 167.499 144.602 171.377C146.534 178.508 148.686 185.584 151.114 192.55C152.328 196.042 153.616 199.497 154.995 202.934C155.878 205.139 159.3 210.01 157.019 211.774C156.485 212.179 156.154 212.16 155.547 212.234C154.848 212.326 154.315 213.061 153.561 212.712C153.34 212.601 153.156 212.399 153.009 212.197C152.954 212.123 152.898 212.05 152.843 211.976V211.94Z" fill="#FCD9BA"/>
  <path d="M138.33 148.367C139.231 152.116 140.114 155.847 140.979 159.596C141.714 162.739 141.071 164.448 137.778 165.68C135.828 166.396 133.805 166.985 131.781 167.444C131.137 167.591 130.42 167.72 129.831 167.426C129.243 167.132 128.912 166.507 128.617 165.9C125.03 158.604 121.425 151.289 117.838 143.992C115.097 138.424 112.338 132.781 110.921 126.735C109.395 120.173 116.716 114.457 122.731 113.741C123.908 113.612 125.968 113.189 127.109 113.612C130.144 114.715 131.34 120.357 132.039 123.022C134.228 131.458 136.343 139.894 138.367 148.367H138.33Z" fill="#FCD9BA"/>
  <path d="M165.922 213.281C165.186 213.98 163.512 215.101 162.445 214.733C161.268 214.329 160.109 213.869 158.858 213.814C157.424 213.759 155.878 213.869 154.444 214.09C153.745 214.2 152.181 214.623 151.776 213.814C151.316 212.914 151.74 212.087 151.758 211.168C151.758 210.506 151.795 209.936 152.071 209.33C152.512 208.539 153.285 207.951 154.131 207.694C154.867 207.474 156.044 207.326 156.761 207.694C157.571 208.117 158.362 208.87 159.134 209.385C160.882 210.543 162.721 211.627 164.708 212.326C165.223 212.509 165.72 212.712 165.94 213.263L165.922 213.281Z" fill="#FCD9BA"/>
  <path d="M168.755 212.693C168.847 212.601 168.939 212.473 168.92 212.381C168.884 212.197 168.663 212.142 168.46 212.142C167.265 212.087 165.904 211.848 164.818 212.436C164.248 212.748 163.751 213.189 163.255 213.63C162.887 213.98 162.685 214.402 162.096 214.384C161.765 214.384 161.47 214.255 161.158 214.145C158.527 213.263 155.547 213.667 152.825 213.778C152.402 213.796 151.96 213.814 151.537 213.906C151.316 213.943 151.077 214.035 151.022 214.255C150.967 214.421 151.041 214.586 151.151 214.715C151.703 215.524 152.843 215.781 153.579 216.387C154.37 217.031 154.904 217.931 155.455 218.758C155.639 219.034 155.989 219.034 156.265 218.887C156.651 218.685 156.577 218.483 156.412 218.115C155.989 217.178 155.363 216.332 155.106 215.303C155.032 214.972 155.106 214.439 155.474 214.292C155.915 214.09 156.853 214.292 157.332 214.292C157.92 214.329 158.509 214.366 159.098 214.439C160.201 214.586 161.231 214.991 162.225 215.468C162.427 215.56 162.611 215.615 162.776 215.652C162.776 215.652 163.825 215.156 163.825 215.138L164.101 215.009L168.442 212.895C168.442 212.895 168.626 212.767 168.718 212.675L168.755 212.693Z" fill="#42703A"/>
  <path d="M110.462 68.8958C111.933 70.8256 114.049 72.1489 115.557 74.0603C116.477 75.2182 117.488 76.2842 118.592 77.2766C122.271 80.5849 128.194 83.1395 132.848 80.1621C133.97 79.4454 134.908 78.4529 136.086 77.8648C138.109 76.8539 140.592 77.1847 142.634 76.229C146.571 74.3911 148.171 68.3077 147.233 64.4297C146.957 63.2718 146.644 62.0588 145.908 61.1215C145.081 60.0739 143.811 59.5041 142.579 59.0263C141.347 58.5484 140.04 58.1073 139.029 57.2619C137.484 55.9754 137.888 54.7807 137.704 53.1083C137.539 51.5828 136.435 49.8735 135.276 48.9362C132.793 46.9145 129.022 47.2637 126.428 45.3891C124.46 43.9555 123.687 41.5846 122.602 39.5262C121.462 37.3942 119.567 35.7033 117.341 34.766C115.41 33.9573 112.89 34.8028 111.069 35.6482C107.187 37.4493 104.373 41.1435 103.895 45.4258C103.711 47.0064 104.079 48.6238 104.005 50.2227C103.968 51.0866 103.803 51.9504 103.784 52.8142C103.729 55.9019 105.605 58.1257 106.599 60.8826C107.629 63.7497 108.585 66.4698 110.462 68.9326V68.8958Z" fill="#B36332"/>
  <path d="M127.642 96.8135C126.962 94.461 126.833 91.9982 126.723 89.5722C126.557 85.4921 126.447 81.4119 126.428 77.3318C126.428 75.2917 126.428 73.2516 126.465 71.2116C126.502 69.2083 126.171 67.2968 125.968 65.3303C125.858 64.154 126.244 63.0329 127.661 63.1432C128.36 63.1983 128.985 63.5843 129.482 64.0621C131.34 65.8265 131.744 68.5834 132.057 71.1197C132.554 75.016 133.602 79.0778 133.602 82.9741C133.602 87.1645 134.853 91.502 135.938 95.5086C136.361 97.0892 136.693 98.5779 136.012 100.122C135.699 100.82 135.166 101.427 134.54 101.868C133.216 102.823 131.892 103.246 130.696 102.088C129.224 100.655 128.231 98.7985 127.661 96.8319L127.642 96.8135Z" fill="#FCD9BA"/>
  <path d="M131.763 94.4059C130.843 94.8653 130.07 95.674 129.592 96.5378C127.698 99.9747 131.524 103.724 133.841 105.856C139.893 111.462 146.276 116.7 152.714 121.864C153.671 122.618 154.977 123.371 155.934 122.25C156.614 121.46 156.945 120.155 156.228 119.309C152.972 115.413 149.551 111.609 146.552 107.528C143.572 103.503 140.28 99.6806 136.785 96.0967C136.049 95.3248 135.258 94.5529 134.246 94.2037C133.382 93.9096 132.535 94.0383 131.8 94.4059H131.763Z" fill="#FCD9BA"/>
  <path d="M157.644 119.126C158.73 119.107 159.815 119.218 160.845 119.622C161.618 119.934 162.317 120.412 162.96 120.945C163.2 121.147 165.352 122.857 164.524 123.114C164.395 123.151 164.266 123.114 164.138 123.096C163.88 123.04 163.641 122.967 163.383 122.912C163.383 123.077 163.255 123.206 163.089 123.243C162.924 123.279 162.776 123.206 162.629 123.151C162.077 122.893 161.599 122.452 161.029 122.232C160.679 122.085 160.312 122.03 159.925 121.974C159.079 121.846 158.086 121.588 157.258 121.864C157.148 121.901 157.037 121.956 156.982 122.048C156.927 122.177 156.982 122.324 157.092 122.452C157.571 123.114 158.196 123.39 158.969 123.518C159.245 123.555 160.256 123.647 160.385 123.959C160.587 124.474 157.479 124.823 157.092 124.75C156.393 124.603 155.75 124.235 155.161 123.831C154.756 123.555 154.352 123.261 154.002 122.893C153.377 122.25 152.696 121.276 153.303 120.412C153.745 119.787 154.591 119.456 155.308 119.346C156.081 119.236 156.872 119.144 157.663 119.126H157.644Z" fill="#FCD9BA"/>
  <path d="M133.179 67.0579C134.081 68.1055 134.927 69.2083 135.791 70.2926C136.509 71.2116 137.226 72.1305 137.741 73.1597C138.33 74.3176 138.661 75.6041 139.249 76.762C139.691 77.6258 140.298 78.3978 141.015 79.0594C141.144 79.1881 141.291 79.3167 141.328 79.5005C141.328 79.6292 141.31 79.7578 141.255 79.8681C140.629 81.4854 139.139 83.1395 137.557 83.9115C135.791 84.7936 133.731 84.7753 132.002 85.7494C130.769 86.4478 129.813 87.6056 128.507 88.1938C127.035 88.837 125.233 88.7084 123.963 89.6825C124.019 89.6273 124.203 88.4143 124.294 88.1754C124.497 87.6791 124.718 87.2564 124.865 86.7234C126.06 82.4228 126.907 77.9934 127.127 73.5273C127.238 71.3035 127.164 69.0796 126.925 66.8557C126.796 65.6979 126.612 62.3713 128.746 62.9778C129.188 63.1064 129.537 63.3821 129.887 63.6762C131.082 64.687 132.149 65.8265 133.179 67.0212V67.0579Z" fill="#FFFDF8"/>
  <path d="M139.783 151.491C138.863 153.255 137.612 154.836 136.785 156.637C134.43 161.82 135.957 168.069 133.878 173.38C131.34 179.887 124.074 183.434 120.855 189.646C119.567 192.127 118.923 195.031 116.9 196.942C112.798 200.784 105.918 198.302 100.657 200.306C99.5535 200.728 98.5234 201.353 97.4013 201.758C93.0785 203.301 88.3878 201.28 84.249 199.295C87.7072 177.773 90.4112 156.141 92.3795 134.435C93.1521 125.963 93.8327 117.398 96.1136 109.183C97.2173 105.213 98.6153 100.839 100.915 97.3649C102 95.7475 103.067 94.0567 103.564 92.1636C104.097 90.1419 103.656 88.4143 103.472 86.411C103.269 84.2055 102.717 82.0368 102.239 79.8681C101.761 77.6994 100.694 75.0344 100.694 72.8105C100.142 70.2742 99.5719 67.7196 99.4983 65.1097C99.4063 61.9669 100.786 57.5743 103.895 56.104C105.844 55.1851 107.923 56.1408 109.744 56.9495C109.818 56.9862 109.873 57.0046 109.947 57.0414C110.112 57.1149 110.296 57.1884 110.462 57.2619C112.687 58.1809 115.079 58.6771 117.452 59.063C118.298 59.1917 119.07 59.449 119.806 59.7247C120.928 60.1474 122.014 60.6804 123.264 61.048C123.596 61.1399 123.927 61.2318 124.258 61.342C124.626 61.4523 124.994 61.5442 125.361 61.6545C127.826 62.3896 131.137 63.474 131.101 66.5249C131.101 67.8298 130.641 69.098 130.494 70.3845C130.236 72.7003 130.917 75.016 130.917 77.3502C130.917 82.0368 128.213 86.2456 127.017 90.7668C124.57 100.03 127.624 110.396 130.825 119.126C131.266 120.302 131.708 121.497 132.186 122.673C134.136 127.58 136.251 132.414 138.109 137.358C139.066 139.894 139.949 142.449 140.703 145.04C141.438 147.595 140.979 149.12 139.728 151.491H139.783Z" fill="#FFFDF8"/>
  <path d="M124.276 64.7973C124.111 65.8633 123.871 66.8925 123.632 67.8298C123.32 69.1164 122.897 70.3661 122.382 71.5975C122.253 71.91 120.726 74.722 120.781 74.7771C116.587 70.164 112.908 65.0914 109.799 59.6696C109.524 59.1733 108.825 57.8133 109.211 57.2619C109.321 57.1149 109.524 57.0046 109.781 56.9495C109.855 56.9862 109.91 57.0046 109.983 57.0414C110.149 57.1149 110.333 57.1884 110.498 57.2619C112.724 58.1809 115.116 58.6771 117.488 59.063C118.335 59.1917 119.107 59.449 119.843 59.7247C120.965 60.1474 122.05 60.6804 123.301 61.048C123.632 61.1399 123.963 61.2318 124.295 61.342C124.57 62.4448 124.442 63.6946 124.276 64.8157V64.7973Z" fill="#FCD9BA"/>
  <path d="M90.1905 52.8326C90.3928 54.1926 91.055 55.424 91.5701 56.6922C92.4163 58.7874 92.8577 61.048 92.8393 63.3086C92.8393 64.8341 92.637 66.4146 93.1705 67.8298C93.5567 68.8774 94.3109 69.7229 94.9364 70.6418C95.9113 72.057 96.6471 73.6192 97.6588 75.016C98.6705 76.4128 100.032 77.6626 101.706 78.0118C101.135 73.1046 102.166 68.1055 101.503 63.1983C101.209 60.9561 100.547 58.7874 99.903 56.637C99.3511 54.8359 98.7809 53.0164 97.9347 51.3439C97.4564 50.4065 96.8678 49.506 96.0768 48.8259C95.1755 48.0356 92.545 46.2529 91.4229 47.374C90.9447 47.8335 90.7239 48.9178 90.54 49.5243C90.2089 50.5903 90.0249 51.7298 90.1905 52.8509V52.8326Z" fill="#E4DECF"/>
  <path d="M83.5316 42.7241C84.2674 45.0582 85.5366 47.1718 86.8059 49.2487C88.9397 52.7407 91.1286 56.1775 93.3912 59.5777C94.5133 61.2869 95.6538 62.9778 96.831 64.6503C97.9715 66.2676 98.7809 67.8298 99.6271 69.6494C99.811 70.0537 100.032 70.4948 100.4 70.7521C101.246 71.3586 102.441 70.7888 103.251 70.1272C105.348 68.3628 106.746 65.8265 107.224 63.1248C107.445 61.8934 107.684 60.0739 107.187 58.8793C106.635 57.5376 104.962 56.3062 103.95 55.2953C100.841 52.2077 97.9715 48.8627 95.3962 45.3156C94.0902 43.5144 92.8394 41.6581 91.6805 39.7651C90.7607 38.2396 90.2273 36.3282 88.6453 35.3358C87.9831 34.9314 87.2105 34.7292 86.438 34.7109C84.8192 34.6557 83.458 35.0417 83.1269 36.6774C82.7038 38.6991 82.9062 40.7759 83.5316 42.7241V42.7241Z" fill="#FCD9BA"/>
  <path d="M88.2958 42.4301C87.2841 42.5587 86.1804 42.3198 85.2975 41.8603C81.8025 40.0775 82.9061 34.8211 83.6235 31.7518C85.5182 23.7202 87.8912 15.8356 90.3745 7.95104C90.7424 6.79316 91.423 5.43311 92.821 5.83745C93.8327 6.13152 94.826 7.01371 94.7156 8.11645C94.1822 13.1523 93.4648 18.2249 93.244 23.2975C93.0233 28.2966 92.3979 33.3141 91.5149 38.2396C91.331 39.2872 91.1102 40.3716 90.448 41.217C89.8962 41.9338 89.1236 42.3014 88.2958 42.4117V42.4301Z" fill="#FCD9BA"/>
  <path d="M90.6688 2.87843C91.1103 1.88596 91.7541 0.893499 92.7474 0.470782C93.4464 0.176718 94.219 0.195097 94.9732 0.268613C95.5986 0.32375 96.2056 0.415645 96.8127 0.544298C97.0702 0.599435 97.3277 0.672951 97.4933 0.856741C97.7324 1.1508 97.622 1.5919 97.4381 1.92272C97.0518 2.6395 96.408 3.1725 96.0217 3.88928C95.4698 4.9185 95.5434 6.16827 95.3963 7.34453C95.3043 8.13483 95.0835 8.92512 94.7892 9.66028C94.6053 10.1198 94.3661 10.5609 93.9982 10.9101C93.428 11.4247 92.6186 11.6085 91.8461 11.5349C91.239 11.4798 90.0618 11.2776 89.7674 10.6895C89.4363 10.0279 89.5099 8.81485 89.5283 8.07969C89.5283 6.27855 89.933 4.49578 90.6688 2.86005V2.87843Z" fill="#FCD9BA"/>
  <path d="M94.0902 0.489153C93.7591 0.581048 93.5016 0.764838 93.2625 1.00377C93.0049 1.24269 92.7658 1.5 92.5635 1.77568C92.1404 2.32705 91.7909 2.93356 91.5333 3.57683C91.515 3.65034 91.6805 3.65034 91.6989 3.59521C91.938 2.9887 92.2691 2.40057 92.6554 1.88596C92.8578 1.62865 93.0601 1.38972 93.2993 1.1508C93.5384 0.91187 93.7959 0.672943 94.127 0.581048C94.2374 0.54429 94.1638 0.470774 94.0718 0.489153H94.0902Z" fill="#DEA978"/>
  <path d="M95.7458 0.617813C94.4765 1.20594 93.7775 2.45571 93.1153 3.63197C93.0785 3.68711 93.2625 3.70549 93.2809 3.65035C93.9063 2.51085 94.6053 1.27946 95.8194 0.709708C95.9297 0.654571 95.801 0.599434 95.7274 0.636192L95.7458 0.617813Z" fill="#DEA978"/>
  <path d="M97.0334 1.09566C96.0401 1.72055 95.4699 2.76815 94.9548 3.779C94.918 3.83413 95.102 3.85251 95.1204 3.79738C95.6354 2.82329 96.1873 1.77569 97.1622 1.16918C97.2542 1.11404 97.0886 1.07728 97.0334 1.09566V1.09566Z" fill="#DEA978"/>
  <path d="M104.962 54.7807C102.533 51.4541 99.3879 48.5503 96.4815 46.3632C97.0334 46.7859 97.0518 48.2746 97.0886 48.8995C97.1438 50.0206 97.015 51.1233 96.6839 52.1893C96.3528 53.2553 95.8009 54.2845 95.6906 55.3873C95.5434 56.8208 96.1136 58.1992 96.5183 59.5777C97.2541 62.1507 97.3829 64.8892 96.9046 67.5174C96.7391 68.4547 96.4815 69.3921 96.5367 70.3478C96.5919 71.3035 96.9414 72.2224 97.3645 73.0862C98.2107 74.8322 99.3879 76.5599 101.246 77.3134C101.853 77.5523 102.46 77.7913 103.085 78.0486C103.508 77.6075 104.023 76.8723 104.557 76.5782C104.943 76.3577 105.458 76.3945 105.9 76.2658C106.783 76.0453 107.298 75.5858 107.537 74.6852C108.273 72.0386 108.769 69.3553 108.99 66.6168C109.34 62.408 107.592 58.3279 104.98 54.7624L104.962 54.7807Z" fill="#FFFDF8"/>
  <path d="M130.457 74.0236L130.144 69.6861C130.144 69.5575 129.776 69.5575 129.795 69.6861C129.886 70.9726 129.978 72.2592 130.07 73.5273C130.162 74.7955 130.273 76.0636 130.31 77.3318C130.346 78.5448 130.291 79.7578 130.07 80.9524C129.868 82.1103 129.537 83.2498 129.132 84.3526C128.691 85.6023 128.157 86.8153 127.624 88.0284C127.569 88.157 127.918 88.1938 127.973 88.0651C128.948 85.9148 129.868 83.7093 130.346 81.3935C130.586 80.2173 130.696 79.0043 130.696 77.8096C130.696 76.5415 130.567 75.255 130.475 73.9868L130.457 74.0236Z" fill="#E4DECF"/>
  <path d="M132.995 68.6201L131.524 73.4171C131.377 73.8765 131.248 74.3176 131.101 74.7771C131.064 74.9241 131.413 74.9425 131.45 74.8139L132.922 70.0169C133.069 69.5575 133.198 69.1164 133.345 68.6569C133.382 68.5099 133.032 68.4915 132.995 68.6201Z" fill="#E4DECF"/>
  <path d="M103.564 61.7648C101.798 61.3604 100.381 60.1658 99.1488 58.8976C98.7993 58.5301 98.4498 58.1625 98.1003 57.7765C98.0267 57.6846 97.6772 57.7581 97.8059 57.8868C99.02 59.2285 100.308 60.6069 101.945 61.4339C102.405 61.6545 102.883 61.8383 103.38 61.9486C103.453 61.9486 103.564 61.9669 103.619 61.9118C103.674 61.8567 103.619 61.8015 103.545 61.7831L103.564 61.7648Z" fill="#E4DECF"/>
  <path d="M102.276 67.6093C102.276 67.6093 102.092 67.5542 102.037 67.5909C100.97 67.9217 99.8294 67.9401 98.7625 67.6644C98.6889 67.646 98.5785 67.6644 98.5233 67.7012C98.4682 67.7563 98.5233 67.8115 98.5969 67.8298C99.7926 68.1423 101.043 68.1239 102.221 67.7563C102.276 67.7379 102.331 67.6828 102.276 67.6277V67.6093Z" fill="#E4DECF"/>
  <path d="M106.635 71.3035C106.065 72.4246 105.513 73.5641 104.943 74.6852C104.667 75.255 104.373 75.8063 104.097 76.3761C103.95 76.6518 103.821 76.9458 103.674 77.2215C103.6 77.3502 103.545 77.4972 103.472 77.6258C103.416 77.7361 103.361 77.8464 103.269 77.9199C103.159 78.0302 103.03 78.0118 102.883 77.975C102.717 77.9199 102.552 77.8648 102.386 77.8096C102.055 77.6994 101.724 77.5891 101.375 77.4788C101.301 77.4604 101.191 77.4788 101.135 77.5156C101.08 77.5707 101.135 77.6258 101.209 77.6442C101.522 77.7545 101.853 77.8464 102.166 77.9567C102.46 78.0486 102.791 78.1956 103.104 78.1772C103.38 78.1772 103.582 78.0118 103.711 77.7913C103.876 77.5156 104.005 77.2215 104.134 76.9458C104.741 75.7512 105.329 74.5382 105.936 73.3435C106.268 72.6635 106.617 72.0019 106.948 71.3218C107.003 71.1932 106.654 71.1748 106.599 71.2851L106.635 71.3035Z" fill="#E4DECF"/>
  <path d="M104.189 91.2815C105.09 91.5204 105.992 91.7593 106.893 91.9982C107.353 92.1085 107.794 92.2188 108.254 92.3291C108.696 92.4393 109.174 92.4945 109.597 92.6415C110.02 92.7701 110.48 92.8253 110.94 92.8988C111.455 92.9907 111.952 93.0826 112.467 93.1561C113.865 93.3583 115.281 93.4686 116.697 93.4869C117.415 93.4869 118.132 93.5053 118.868 93.5421C119.585 93.5788 120.303 93.634 121.02 93.6891C122.621 93.8178 124.239 94.0015 125.84 94.2221C125.913 94.2221 126.024 94.2221 126.06 94.1486C126.097 94.0751 125.987 94.0383 125.932 94.0199C124.515 93.8178 123.08 93.6707 121.646 93.5421C120.211 93.4134 118.776 93.3031 117.341 93.2848C116.624 93.2848 115.906 93.2848 115.189 93.2296C114.508 93.1929 113.828 93.1194 113.147 93.0275C112.154 92.8988 111.179 92.7334 110.204 92.5312C110.793 91.888 111.363 91.2447 111.933 90.583C112.835 89.5171 113.699 88.4327 114.508 87.2932C115.336 86.1537 116.109 84.9958 116.845 83.8012C117.58 82.6249 118.279 81.4119 118.923 80.1622C119.567 78.9124 120.174 77.6626 120.726 76.3761C120.799 76.2107 120.855 76.0636 120.928 75.8982C120.983 75.7696 120.634 75.7328 120.579 75.8431C120.045 77.1296 119.457 78.3978 118.813 79.6292C118.187 80.8789 117.507 82.0919 116.771 83.2866C116.054 84.4812 115.281 85.6391 114.49 86.7602C113.681 87.8997 112.835 89.0025 111.933 90.0868C111.271 90.8955 110.572 91.6858 109.873 92.4393C109.579 92.3842 109.284 92.3107 109.008 92.2555C107.463 91.9063 105.936 91.502 104.41 91.0793C104.336 91.0609 104.226 91.0609 104.171 91.116C104.115 91.1712 104.171 91.2263 104.226 91.2447L104.189 91.2815Z" fill="#E4DECF"/>
  <path d="M129.537 116.479C128.452 114.715 126.98 113.226 125.233 112.105C124.313 111.517 123.338 111.021 122.529 110.285C121.811 109.624 121.259 108.815 120.763 107.951C120.266 107.087 119.843 106.168 119.346 105.305C118.85 104.422 118.261 103.595 117.58 102.86C116.881 102.107 116.109 101.427 115.263 100.857C114.398 100.269 113.442 99.8277 112.54 99.2763C112.08 99.0006 111.657 98.7066 111.271 98.339C110.921 97.9898 110.609 97.6038 110.333 97.1811C109.873 96.4643 109.542 95.6924 109.248 94.9021C109.91 95.141 110.59 95.3616 111.289 95.527C112.743 95.8762 114.233 96.0049 115.704 96.0784C117.212 96.1519 118.739 96.207 120.266 96.2805L124.883 96.4827C125.067 96.4827 125.269 96.4827 125.453 96.5011C125.509 96.5011 125.637 96.4827 125.637 96.4092C125.637 96.3357 125.509 96.3173 125.453 96.3173L120.836 96.1151C119.309 96.0416 117.783 95.9865 116.256 95.913C114.766 95.8394 113.276 95.7475 111.823 95.4351C110.48 95.141 109.192 94.6264 107.905 94.1853C106.635 93.7442 105.311 93.3583 103.95 93.3031C103.784 93.3031 103.619 93.3031 103.435 93.3031C103.38 93.3031 103.251 93.3215 103.251 93.395C103.251 93.4685 103.38 93.4869 103.435 93.4869C104.796 93.4502 106.102 93.7994 107.371 94.2221C107.849 94.3875 108.328 94.5529 108.788 94.7183C109.358 96.2989 110.094 97.8244 111.473 98.872C112.319 99.5152 113.294 99.9563 114.214 100.489C115.097 101.004 115.925 101.629 116.661 102.346C117.396 103.062 118.059 103.871 118.61 104.753C119.144 105.599 119.567 106.481 120.045 107.363C120.505 108.227 121.002 109.072 121.664 109.826C122.363 110.635 123.246 111.204 124.147 111.756C124.607 112.031 125.067 112.307 125.509 112.619C125.932 112.914 126.336 113.244 126.704 113.575C127.477 114.274 128.157 115.046 128.746 115.891C128.893 116.093 129.022 116.314 129.151 116.534C129.224 116.644 129.574 116.608 129.5 116.479H129.537Z" fill="#E4DECF"/>
  <path d="M121.075 144.819C121.075 144.544 121.039 144.268 121.02 144.011C121.02 143.882 120.652 143.882 120.671 144.011C120.818 146.143 120.91 148.293 120.947 150.425C120.965 152.557 120.947 154.689 120.818 156.821C120.708 158.953 120.542 161.103 120.303 163.217C120.064 165.349 119.769 167.462 119.402 169.576C119.034 171.69 118.611 173.785 118.114 175.862C118.059 176.137 117.985 176.395 117.912 176.67C117.875 176.817 118.224 176.836 118.261 176.725C118.776 174.667 119.218 172.572 119.604 170.477C119.99 168.363 120.321 166.231 120.56 164.099C120.818 161.967 121.002 159.835 121.131 157.703C121.259 155.553 121.315 153.402 121.315 151.252C121.315 149.12 121.241 146.97 121.094 144.838L121.075 144.819Z" fill="#E4DECF"/>
  <path d="M101.043 153.274C100.694 155.516 100.289 157.758 99.8478 160.001C99.4063 162.243 98.9096 164.448 98.3762 166.672C98.0635 167.922 97.7507 169.153 97.4196 170.403C97.3829 170.55 97.7324 170.568 97.7691 170.458C98.3578 168.253 98.9096 166.029 99.4063 163.805C99.9029 161.581 100.363 159.357 100.767 157.115C101.007 155.847 101.209 154.579 101.411 153.292C101.43 153.164 101.08 153.145 101.062 153.292L101.043 153.274Z" fill="#E4DECF"/>
  <path d="M121.554 62.6653C121.167 62.8675 120.616 62.7021 120.192 62.7388C118.831 62.8124 117.47 62.8307 116.109 62.8675C115.079 62.8859 113.883 63.0329 112.871 62.7388C112.595 62.6653 112.154 62.6837 111.933 62.5734C111.878 62.5551 111.823 62.4999 111.768 62.4448C111.455 62.3161 111.179 62.114 111.032 61.8199C110.885 61.5074 110.903 61.1215 110.958 60.7723C111.087 59.9085 111.381 59.0814 111.473 58.2176C111.565 57.2987 111.62 56.3797 111.62 55.4791C111.62 54.744 111.584 54.0272 111.51 53.292C111.455 52.759 111.234 52.0239 111.676 51.6012C112.099 51.2152 112.908 51.3622 113.442 51.3071C114.453 51.1785 115.539 50.9579 116.55 50.9763C116.845 50.9763 117.139 51.0682 117.433 51.1601C117.599 51.2152 117.783 51.252 117.948 51.2887C118.022 51.2887 118.114 51.3255 118.187 51.3439C118.353 51.3806 118.519 51.4174 118.666 51.4725C118.739 51.4909 118.813 51.5093 118.886 51.5277C119.015 51.5644 119.162 51.6195 119.291 51.6563C119.457 51.7114 119.604 51.7666 119.714 51.8217C119.88 51.9136 119.99 52.0423 120.101 52.318C120.45 53.292 120.505 54.5051 120.708 55.5343C120.8 55.9938 120.873 56.4532 120.965 56.8943C121.241 58.3279 121.499 59.7431 121.774 61.1766C121.866 61.6912 122.106 62.408 121.535 62.6837L121.554 62.6653Z" fill="#FCD9BA"/>
  <path d="M121.002 56.8943C120.376 57.3722 119.567 57.6662 118.831 57.7581C117.36 57.9235 115.814 57.3906 114.748 56.343C114.398 56.0121 113.993 55.5159 113.699 55.0013C113.46 54.5602 113.276 54.1007 113.276 53.678C113.276 52.8326 114.177 52.3915 114.784 52.0055C115.557 51.5093 116.532 51.2703 117.452 51.1601C117.617 51.2152 117.801 51.252 117.967 51.2887C118.04 51.2887 118.132 51.3255 118.206 51.3439C118.371 51.3806 118.537 51.4174 118.684 51.4725C118.758 51.4909 118.831 51.5093 118.905 51.5277C119.034 51.5644 119.181 51.6195 119.31 51.6563C119.457 51.7114 119.585 51.7666 119.733 51.8217C119.898 51.9136 120.009 52.0423 120.119 52.318C120.468 53.292 120.524 54.5051 120.726 55.5343C120.818 55.9938 120.891 56.4532 120.983 56.8943H121.002Z" fill="#DEA978"/>
  <path d="M111.05 52.465C112.209 53.8802 113.662 55.1116 115.373 55.8651C117.084 56.6186 119.843 56.4716 121.204 54.9645C122.161 53.8985 122.786 52.7958 123.081 51.3622C123.172 50.866 123.228 50.3514 123.264 49.8552C123.393 48.3848 123.375 46.8778 123.062 45.4258C122.952 44.8928 122.805 44.3598 122.639 43.8269C122.271 42.6874 121.793 41.5846 121.223 40.5554C120.744 39.6916 120.303 38.791 119.567 38.1294C118.187 36.8428 116.366 35.9606 114.453 36.0158C113.626 36.0342 112.835 36.2731 112.062 36.5488C111.345 36.8061 110.609 37.1185 110.02 37.6147C109.468 38.0742 109.027 38.6624 108.641 39.2689C108.015 40.2797 107.537 41.3824 107.353 42.5403C107.059 44.3598 107.758 45.9404 108.346 47.6313C108.953 49.3957 109.891 51.013 111.087 52.465H111.05Z" fill="#FCD9BA"/>
  <path d="M117.801 45.4993C117.801 45.4993 117.783 45.4993 117.764 45.4993C117.488 45.5912 117.746 46.308 117.801 46.4918C117.911 46.8778 118.095 47.2453 118.316 47.5945C118.592 48.0356 118.942 48.4032 119.217 48.8259C119.549 49.3589 118.923 49.8552 118.5 50.1125C118.279 50.2411 118.5 50.3514 118.666 50.2595C119.052 50.039 119.53 49.6714 119.659 49.2119C119.714 48.973 119.622 48.7708 119.493 48.587C119.328 48.3481 119.125 48.1275 118.96 47.907C118.702 47.5578 118.482 47.1902 118.316 46.7859C118.224 46.5837 118.151 46.3815 118.114 46.161C118.077 45.9772 118.095 45.6831 117.948 45.5545C117.911 45.5177 117.856 45.4993 117.819 45.5177L117.801 45.4993Z" fill="#DEA978"/>
  <path d="M121.977 43.6063C121.977 43.6063 122.014 43.6247 122.032 43.6247C122.05 43.6247 122.161 43.7166 122.179 43.6614C122.179 43.6247 122.179 43.5879 122.161 43.5512C122.05 43.349 121.885 43.2203 121.719 43.0917C121.351 42.8344 121.002 42.669 120.579 42.6506C120.082 42.6138 119.604 42.7057 119.107 42.8344C118.85 42.9079 118.279 43.0733 118.537 43.5512C118.629 43.7166 118.813 43.735 118.96 43.6982C119.144 43.6614 119.328 43.6063 119.512 43.5144C119.751 43.3858 119.99 43.2387 120.266 43.1652C120.542 43.0917 120.818 43.1101 121.094 43.1652C121.315 43.2203 121.517 43.3122 121.719 43.4225C121.811 43.4776 121.903 43.5328 121.977 43.5695V43.6063Z" fill="#B36332"/>
  <path d="M111.4 46.4367C111.381 45.9772 111.97 45.3707 112.264 45.0766C112.908 44.4334 113.754 44.029 114.656 43.9555C114.987 43.9371 115.447 44.2128 115.152 44.5988C115.06 44.709 114.932 44.7826 114.803 44.8193C114.508 44.948 114.177 45.0399 113.846 45.095C113.405 45.1685 112.926 45.1685 112.522 45.3891C112.283 45.5361 112.099 45.7383 111.933 45.9404C111.804 46.0875 111.602 46.4183 111.4 46.4183V46.4367Z" fill="#B36332"/>
  <path d="M114.122 46.1058C113.975 46.0139 113.791 46.0691 113.662 46.1794C113.533 46.2529 113.442 46.3632 113.386 46.4918C113.313 46.6756 113.331 46.8961 113.405 47.0799C113.46 47.2453 113.57 47.4108 113.717 47.5394C113.883 47.6681 114.104 47.6681 114.288 47.5394C114.288 47.5394 114.288 47.5394 114.306 47.521C114.324 47.521 114.361 47.4843 114.38 47.4659C114.38 47.4659 114.416 47.4291 114.435 47.4291C114.472 47.3924 114.49 47.3556 114.527 47.3189C114.637 47.1167 114.619 46.8778 114.527 46.6756C114.49 46.5469 114.416 46.4367 114.343 46.3264C114.288 46.2345 114.214 46.1426 114.122 46.0875V46.1058Z" fill="#1A8B93"/>
  <path d="M120.432 44.9663C120.284 44.8561 120.1 44.8928 119.953 44.9847C119.825 45.0399 119.714 45.1501 119.659 45.2788C119.567 45.4626 119.567 45.6831 119.604 45.8669C119.641 46.0507 119.714 46.2161 119.861 46.3631C120.008 46.5102 120.229 46.5286 120.432 46.4367C120.432 46.4367 120.432 46.4367 120.45 46.4367C120.487 46.4367 120.505 46.3999 120.524 46.3815C120.524 46.3815 120.56 46.3631 120.579 46.3448C120.616 46.308 120.652 46.2896 120.671 46.2529C120.799 46.0691 120.799 45.8118 120.763 45.6096C120.744 45.481 120.689 45.3523 120.616 45.242C120.56 45.1501 120.505 45.0399 120.413 44.9847L120.432 44.9663Z" fill="#1A8B93"/>
  <path d="M116.937 38.2396C117.286 38.2764 117.654 38.3683 118.003 38.4969C119.53 39.0851 120.965 40.39 121.756 41.8052C121.958 42.1727 122.253 42.4852 122.492 42.8344C122.639 43.0366 123.172 43.5879 123.154 43.8268C123.154 43.2203 122.97 42.4668 122.841 41.8603C122.676 41.1251 122.437 40.4084 122.106 39.7283C121.462 38.3683 120.524 37.1553 119.365 36.2179C118.831 35.7768 118.408 35.7952 117.783 35.685C117.102 35.5747 116.422 35.4828 115.741 35.4276C114.858 35.3725 113.938 35.299 113.074 35.4644C112.228 35.6114 111.437 35.9423 110.646 36.2547C109.891 36.5671 109.1 36.898 108.53 37.5045C107.776 38.2948 107.537 39.4159 107.39 40.4635C107.316 40.9597 107.077 41.3273 107.003 41.8235C106.948 42.1911 107.003 42.5771 107.003 42.9447C106.93 45.095 105.55 47.2821 104.778 49.2303C104.023 51.1417 103.508 53.2737 104.189 55.2218C104.612 56.4165 105.458 57.4089 106.065 58.5117C107.482 61.0112 107.758 63.9886 107.794 66.8557C107.794 67.9401 107.794 69.0612 108.181 70.0721C108.677 71.4321 109.818 72.4613 111.05 73.2333C112.117 73.8949 113.313 74.4279 114.582 74.4463C115.851 74.4647 117.157 73.8949 117.801 72.8105C118.077 72.3327 118.151 71.8181 118.353 71.3218C118.537 70.8807 118.868 70.5499 119.107 70.1272C119.622 69.2083 119.751 68.0688 119.549 67.0395C119.236 65.5325 118.316 64.2275 117.268 63.088C116.366 62.114 115.318 61.2318 114.766 60.0188C114.214 58.7874 114.233 57.3906 114.085 56.0673C113.901 54.4867 113.442 52.9428 112.724 51.5093C111.97 49.9654 110.719 48.3848 110.646 46.6021C110.572 44.948 110.719 43.0733 111.381 41.5295C112.246 39.5262 114.766 37.9456 116.937 38.2029V38.2396Z" fill="#B36332"/>
  <path d="M119.291 51.3255C119.126 51.2703 118.942 51.252 118.813 51.2336C118.298 51.1785 116.642 50.866 116.514 51.6195C116.458 51.8952 116.771 52.1525 116.955 52.2996C117.304 52.5753 117.672 52.7223 118.132 52.7039C118.758 52.7039 119.31 52.465 119.659 51.9504C119.898 51.5828 119.622 51.399 119.291 51.3071V51.3255Z" fill="#E9B8A2"/>
  <path d="M110.296 43.0917C110.186 42.9079 110.057 42.7425 109.873 42.6322C109.652 42.5036 109.376 42.4484 109.174 42.3014C108.898 42.0992 108.732 41.7684 108.457 41.5846C108.089 41.3273 107.61 41.3824 107.187 41.5295C106.764 41.6949 106.341 41.8971 105.936 42.0625C105.587 42.2095 105.329 42.4852 105.274 42.8711C105.274 42.9814 105.274 43.0917 105.219 43.202C105.146 43.4225 104.998 43.4041 104.851 43.5144C104.741 43.6063 104.63 43.7533 104.557 43.882C104.373 44.2128 104.336 44.6355 104.391 45.0215C104.465 45.4626 104.226 46.0875 104.483 46.4734C104.538 46.5653 104.63 46.6388 104.704 46.7307C104.925 47.0616 104.741 47.5394 104.888 47.9254C105.072 48.4216 106.065 48.5135 106.525 48.6054C106.819 48.6789 107.059 48.6054 107.334 48.5319C107.721 48.4216 108.309 48.5319 108.622 48.293C108.806 48.1459 108.861 47.907 109.008 47.7416C109.211 47.4843 109.56 47.3924 109.873 47.2637C110.186 47.1351 110.48 46.8778 110.462 46.5469C110.462 46.3815 110.37 46.2529 110.314 46.0875C110.222 45.7934 110.278 45.4626 110.314 45.1685C110.406 44.709 110.517 44.2679 110.48 43.8085C110.48 43.5512 110.388 43.3122 110.278 43.0917H110.296Z" fill="#E9B8A2"/>
  <path d="M110.186 43.4593C110.186 43.8636 109.91 44.1577 109.689 44.4701C109.652 44.5253 109.615 44.5804 109.579 44.6539C109.192 44.3782 108.953 43.9371 108.953 43.4777C108.953 43.3306 108.953 43.202 108.935 43.0549C108.898 42.9263 108.806 42.8344 108.769 42.7057C108.696 42.4484 108.751 42.1911 108.641 41.9338C108.622 41.8787 108.438 41.8971 108.475 41.9706C108.549 42.1176 108.549 42.2646 108.567 42.4117C108.291 42.3749 108.052 42.5036 107.794 42.6138C107.647 42.6874 107.482 42.7425 107.316 42.6874C107.151 42.6322 107.003 42.5403 106.838 42.5219C106.304 42.4117 105.716 42.6506 105.421 43.1101C105.385 43.1101 105.348 43.1101 105.348 43.1468C105.256 43.3306 105.127 43.5144 104.98 43.6614C104.87 43.7901 104.741 43.9004 104.649 44.029C104.557 44.1577 104.483 44.3047 104.502 44.4701C104.502 44.6355 104.594 44.8009 104.649 44.948C104.722 45.1134 104.796 45.2788 104.796 45.481C104.796 45.6648 104.759 45.8485 104.814 46.014C104.851 46.161 104.962 46.2529 105.09 46.3448C105.274 46.4551 105.403 46.5653 105.477 46.7675C105.329 46.7859 105.182 46.841 105.035 46.9145C104.998 46.9329 105.017 46.9697 105.035 46.988C105.072 47.0064 105.127 46.988 105.164 46.988C105.458 46.841 105.789 46.8043 106.102 46.9145C106.378 47.0064 106.599 47.2637 106.911 47.2453C107.224 47.2453 107.482 47.0248 107.776 46.9329C108.089 46.8226 108.42 46.8043 108.714 46.9697C108.714 46.9697 108.714 46.9697 108.732 46.9697C108.585 47.0432 108.438 47.0799 108.273 47.1351C108.052 47.2086 107.831 47.3005 107.61 47.4291C107.224 47.6497 106.893 48.0173 106.819 48.4767C106.819 48.5319 106.985 48.5319 107.003 48.4767C107.077 48.0173 107.408 47.6864 107.794 47.4659C108.015 47.3372 108.254 47.2637 108.493 47.1718C108.696 47.0983 108.898 47.0248 109.082 46.8961C109.413 46.6388 109.505 46.2161 109.523 45.8118C109.523 45.5729 109.523 45.3156 109.597 45.0766C109.652 44.8745 109.744 44.6907 109.855 44.5253C110.075 44.1944 110.388 43.8636 110.388 43.4409C110.388 43.3674 110.204 43.3858 110.204 43.4409L110.186 43.4593ZM106.396 42.669C106.562 42.5587 106.746 42.5955 106.948 42.669C107.095 42.7241 107.224 42.7976 107.371 42.7976C107.5 42.7976 107.61 42.7793 107.739 42.7241C107.978 42.6322 108.254 42.4117 108.53 42.4852C108.53 42.4852 108.549 42.4852 108.567 42.4852C108.567 42.5771 108.585 42.6506 108.622 42.7241C108.677 42.8711 108.769 42.9814 108.788 43.1468C108.788 43.2939 108.788 43.4409 108.788 43.5879C108.788 43.6247 108.788 43.6798 108.806 43.7166C108.585 43.7166 108.383 43.8085 108.217 43.9555C107.997 44.1577 107.868 44.4334 107.813 44.7274V44.7642C107.739 44.6723 107.537 44.6355 107.408 44.6355C107.353 44.6355 107.077 44.6723 107.059 44.7274C107.114 44.5069 107.334 44.3782 107.482 44.2312C107.629 44.0842 107.739 43.8269 107.61 43.6431C107.537 43.5512 107.426 43.5328 107.371 43.4409C107.298 43.349 107.316 43.202 107.243 43.1101C107.114 42.9447 106.893 42.9263 106.691 42.9263C106.525 42.9263 106.341 42.9263 106.194 43.0182C106.212 43.0182 106.231 42.8895 106.249 42.8711C106.268 42.816 106.286 42.7609 106.323 42.7241C106.36 42.6874 106.396 42.6506 106.433 42.6322L106.396 42.669ZM106.856 44.8928C106.783 44.9663 106.709 45.0399 106.635 45.1134H106.599C106.415 45.0766 106.231 45.0215 106.065 44.948C105.973 44.9112 105.918 44.8745 105.9 44.7642C105.9 44.6907 105.9 44.5988 105.9 44.5069C105.9 44.4334 105.936 44.3415 105.992 44.2863C106.047 44.2312 106.12 44.1944 106.194 44.1944C106.36 44.1577 106.544 44.1761 106.691 44.2496C106.801 44.3047 106.893 44.4334 106.893 44.562C106.893 44.6539 106.819 44.8377 106.893 44.9112L106.856 44.8928ZM106.856 44.1944C106.672 44.0658 106.433 44.0474 106.231 44.0658C106.028 44.0842 105.808 44.1577 105.734 44.3598C105.697 44.4517 105.697 44.562 105.697 44.6539C105.697 44.7642 105.697 44.8561 105.789 44.9296C105.881 45.0031 106.028 45.0582 106.139 45.095C106.268 45.1318 106.396 45.1685 106.525 45.1869C106.488 45.2237 106.452 45.2604 106.415 45.3156C106.341 45.3891 106.249 45.4626 106.157 45.4993C106.028 45.5545 105.881 45.5361 105.734 45.4993C105.55 45.4626 105.293 45.4074 105.256 45.1869C105.219 44.9663 105.366 44.7826 105.44 44.5988C105.477 44.5069 105.495 44.4334 105.495 44.3415C105.495 44.2312 105.477 44.1209 105.495 44.0106C105.532 43.8452 105.642 43.7166 105.771 43.6063C105.881 43.496 105.992 43.3858 106.065 43.2571C106.102 43.2571 106.139 43.2571 106.157 43.2387C106.304 43.0366 106.617 43.0549 106.838 43.0917C106.967 43.1285 107.059 43.202 107.095 43.3306C107.132 43.4593 107.151 43.5328 107.261 43.6063C107.371 43.6798 107.463 43.735 107.463 43.9004C107.463 44.0474 107.371 44.1577 107.261 44.2679C107.187 44.3415 107.095 44.415 107.022 44.4885C107.003 44.3782 106.93 44.2679 106.838 44.1944H106.856ZM106.396 46.9145C106.268 46.841 106.12 46.7859 105.955 46.7675C105.844 46.7491 105.734 46.7491 105.624 46.7675C105.624 46.7675 105.624 46.7675 105.624 46.7491C105.569 46.5837 105.477 46.4551 105.329 46.3632C105.182 46.2713 105.017 46.1977 104.98 45.9956C104.943 45.8302 104.98 45.6648 104.98 45.481C104.98 45.3156 104.925 45.1501 104.87 45.0031C104.796 44.8377 104.704 44.6723 104.686 44.4885C104.686 44.3047 104.759 44.1577 104.888 44.0106C104.998 43.882 105.127 43.7533 105.237 43.6247C105.348 43.496 105.421 43.3674 105.513 43.2203C105.55 43.2203 105.587 43.2203 105.587 43.1836C105.734 42.9079 105.992 42.7057 106.286 42.6322C106.176 42.7057 106.102 42.816 106.065 42.963C106.01 43.1468 105.936 43.2939 105.808 43.4225C105.697 43.5512 105.569 43.6614 105.477 43.7901C105.366 43.9739 105.385 44.1393 105.385 44.3415C105.385 44.6907 104.888 45.1685 105.329 45.4442C105.495 45.5545 105.716 45.5912 105.918 45.6096C106.12 45.628 106.323 45.5912 106.488 45.481C106.691 45.3523 106.819 45.1501 106.985 44.9847C107.095 44.8745 107.261 44.7458 107.426 44.7458C107.574 44.7458 107.739 44.8193 107.794 44.9664C107.85 45.1134 107.794 45.3523 107.776 45.4993C107.739 45.8669 107.666 46.2529 107.408 46.5469C107.206 46.7859 106.948 46.9513 106.635 47.0248C106.562 46.988 106.507 46.9329 106.433 46.9145H106.396ZM109.431 44.9664C109.358 45.1869 109.358 45.4258 109.34 45.6464C109.321 46.0875 109.303 46.6021 108.898 46.8594C108.88 46.8594 108.861 46.8778 108.843 46.8961C108.843 46.8961 108.843 46.8961 108.824 46.8778C108.549 46.7124 108.217 46.694 107.905 46.7675C107.739 46.8043 107.592 46.8594 107.445 46.9145C107.279 46.988 107.095 47.1167 106.893 47.1167C106.838 47.1167 106.783 47.1167 106.727 47.0799C107.003 47.0064 107.243 46.8594 107.426 46.6572C107.684 46.3999 107.813 46.0507 107.868 45.7015C107.923 45.2972 107.923 44.8928 108.052 44.5069C108.162 44.1761 108.457 43.8085 108.843 43.8085C108.953 44.1944 109.192 44.5253 109.542 44.7274C109.505 44.8009 109.468 44.8745 109.45 44.948L109.431 44.9664Z" fill="#67762E"/>
  <path d="M117.967 67.7563C117.728 66.672 117.176 65.6243 116.514 64.7238C116.127 64.2092 115.686 63.7129 115.207 63.2902C115.152 63.2351 115.042 63.2351 114.968 63.2535C114.913 63.2718 114.84 63.327 114.913 63.3821C115.759 64.1356 116.458 65.0362 116.973 66.0287C117.452 66.9476 117.82 67.9952 117.728 69.0428C117.691 69.5942 117.507 70.1272 117.121 70.5499C117.01 70.6786 117.341 70.7337 117.433 70.6418C118.151 69.8515 118.206 68.7304 117.967 67.7379V67.7563Z" fill="#F49D6E"/>
  <path d="M114.619 66.2676C114.564 66.1573 114.214 66.1757 114.269 66.3228C114.656 67.2417 114.361 68.3812 113.662 69.0796C113.46 69.2818 113.221 69.4288 112.963 69.5391C112.89 69.5758 112.908 69.6494 112.963 69.6861C113.037 69.7229 113.147 69.7229 113.221 69.6861C114.196 69.2634 114.821 68.1974 114.803 67.1498C114.803 66.8557 114.729 66.5433 114.619 66.2676Z" fill="#F49D6E"/>
  <path d="M134.835 50.6271C134.209 50.0022 133.437 49.506 132.591 49.2303C131.634 48.8995 130.641 48.7892 129.647 48.6605C128.544 48.5135 127.422 48.3481 126.428 47.7783C126.355 47.7416 126.244 47.7416 126.171 47.7783C126.116 47.8151 126.097 47.8702 126.171 47.9254C127.918 48.9362 129.997 48.7524 131.91 49.2487C132.775 49.4876 133.584 49.8735 134.265 50.4801C134.908 51.0682 135.442 51.785 135.791 52.5753C136.178 53.4574 136.362 54.4499 136.251 55.4056C136.251 55.5343 136.601 55.5527 136.601 55.4056C136.785 53.6412 136.067 51.8585 134.835 50.6271V50.6271Z" fill="#F49D6E"/>
  <path d="M130.972 52.4834C130.714 52.1525 130.402 51.8769 130.071 51.6563C129.96 51.5828 129.647 51.6747 129.813 51.8033C130.972 52.5936 131.616 54.0088 131.579 55.3872C131.579 55.7916 131.505 56.1775 131.377 56.5451C131.321 56.6922 131.671 56.7105 131.726 56.6003C132.204 55.2218 131.892 53.6412 130.972 52.5017V52.4834Z" fill="#F49D6E"/>
  <path d="M144.216 67.5725C144.179 66.4698 143.775 65.4038 143.278 64.4297C142.965 63.8416 142.616 63.2718 142.266 62.7021C142.193 62.5918 141.843 62.6286 141.917 62.7572C143.039 64.5584 144.253 66.5984 143.738 68.8039C143.609 69.3553 143.37 69.8699 143.002 70.311C142.892 70.4397 143.223 70.5132 143.315 70.4029C143.977 69.6126 144.234 68.5834 144.198 67.5725H144.216Z" fill="#F49D6E"/>
  <path d="M91.8645 4.80823C92.5635 4.62444 93.2441 4.312 93.8327 3.8709C94.0902 3.68711 94.3846 3.44818 94.6973 3.55846C94.9732 3.66873 95.0652 4.01793 94.9732 4.29362C94.8812 4.5693 94.6605 4.77147 94.4397 4.97364C94.0902 5.26771 93.704 5.56177 93.3545 5.85583C93.0417 6.11314 92.7474 6.38882 92.5267 6.70127C92.3427 6.95857 92.214 7.25264 92.0484 7.52832C91.7357 8.02456 91.331 8.30024 90.8895 8.64944C90.4665 8.98026 90.0618 9.49488 89.8226 9.97273C89.7859 10.0462 89.7491 10.1198 89.6755 10.1565C89.6203 10.1749 89.5467 10.1749 89.4915 10.1565C89.0133 10.1014 88.5718 9.8257 88.3143 9.42136C88.0383 8.99864 87.9832 8.35538 87.8912 7.85915C87.744 7.08723 88.0567 6.13152 88.4246 5.4515C88.7925 4.75309 89.3076 4.12821 89.933 3.6136C90.0434 3.5217 90.1905 3.44818 90.3009 3.54008C90.3377 3.57684 90.3561 3.61359 90.3745 3.66873C90.4849 4.01793 90.5216 4.77147 90.9447 4.90013C91.0919 4.95526 91.2574 4.93688 91.423 4.90013C91.5885 4.88175 91.7725 4.84499 91.938 4.78985L91.8645 4.80823Z" fill="#FCD9BA"/>
</svg>
