<svg width="245" height="325" viewBox="0 0 245 325" fill="none"
  xmlns="http://www.w3.org/2000/svg">
  <g clip-path="url(#clip0_121_652)">
    <path d="M12.957 310.291C12.6888 310.666 12.3937 311.042 12.0986 311.418C11.4548 312.222 10.8378 313.295 11.6694 314.261C11.8572 314.475 12.1255 314.636 12.3669 314.797C14.3788 315.977 16.6858 316.568 18.9392 317.131C19.8781 317.372 20.9511 317.748 21.9169 317.694C22.0778 317.694 22.2388 317.667 22.3729 317.587C22.6143 317.453 22.6948 317.131 22.668 316.836C22.6412 316.541 22.4802 316.299 22.3729 316.031C21.3267 313.751 21.9169 311.578 23.0167 309.486C23.7947 308.038 24.5458 306.562 25.2969 305.087C28.4355 298.971 31.44 292.775 34.3104 286.525C35.0615 284.889 35.8126 283.172 35.7053 281.402C35.598 279.766 34.7664 278.317 33.6934 277.164C31.8424 275.179 27.6844 273.275 25.6993 276.279C24.4653 278.156 23.6605 280.302 22.8826 282.421C21.6486 285.345 20.6561 288.43 19.583 291.407C18.4295 294.626 17.276 297.872 16.203 301.117C15.6665 302.754 15.1299 304.363 14.6202 305.999C14.3252 306.965 14.0569 307.957 13.6545 308.896C13.4667 309.379 13.1985 309.808 12.9034 310.237L12.957 310.291Z" fill="#FCD9BA"/>
    <path d="M31.5472 324.856C30.8766 324.936 29.9913 324.668 29.3475 324.534C27.8184 324.185 26.3698 323.595 24.948 323.005L19.5561 320.725C19.0464 320.511 18.2684 320.35 17.8392 320.001C17.3563 319.625 16.8735 319.169 16.3906 318.74C16.2297 318.606 16.0687 318.472 15.9078 318.338C15.5054 318.043 14.5933 317.319 14.1104 317.64C13.9495 317.748 13.8422 317.882 13.7349 318.043C13.6812 318.096 13.6544 318.15 13.6007 318.231L8.87939 316.246C8.87939 316.246 8.93305 316.085 8.95987 316.004C9.12083 315.629 9.2013 315.28 9.57687 315.039C9.63052 315.012 9.68417 314.958 9.73782 314.931C9.79147 314.878 9.79147 314.824 9.8183 314.77C9.8183 314.744 9.8183 314.69 9.8183 314.663C9.87195 314.395 10.0061 314.127 10.1134 313.858C10.4621 313.054 10.8645 312.249 11.4278 311.552C11.6961 311.203 11.9644 310.8 12.3399 310.586C12.9837 310.21 13.1715 310.64 13.5471 311.096C14.3787 312.061 15.4785 312.839 16.6857 313.295C17.8929 313.751 19.2073 313.885 20.4681 313.724C20.8974 313.671 21.4607 313.188 21.8631 313.376C22.3459 313.59 22.4801 314.475 22.6947 314.878C23.1775 315.763 23.7141 316.621 24.3042 317.426C25.5114 319.062 26.9868 320.511 28.65 321.744C29.1597 322.12 29.6694 322.469 30.1791 322.817C30.6351 323.139 31.3326 323.488 31.6813 323.917C31.8155 324.078 31.9228 324.266 31.9496 324.454C32.0032 324.722 31.8959 324.936 31.5204 324.99L31.5472 324.856Z" fill="#4B575E"/>
    <path d="M31.9763 324.32C31.6812 324.185 31.3057 324.132 30.9569 324.051C30.0717 323.837 29.2133 323.595 28.3548 323.327C26.6648 322.764 25.0016 322.12 23.3384 321.449C23.2311 321.396 23.097 321.369 22.9897 321.315C21.8362 320.859 20.7095 320.376 19.6096 319.813C18.4829 319.25 17.5172 318.579 16.4978 317.882C16.1223 317.64 15.7467 317.399 15.3443 317.158C15.7467 316.863 16.2564 316.675 16.7661 316.728C17.4636 316.782 18.1342 317.131 18.7512 317.372C19.4218 317.667 20.0925 317.962 20.7095 318.365C21.0046 318.552 21.2997 318.767 21.6216 318.928C21.863 319.062 22.1849 319.223 22.48 319.169C22.6409 319.143 22.7751 319.008 22.9092 318.928C23.0702 318.821 23.2311 318.713 23.3652 318.579C23.6603 318.338 23.9554 318.096 24.2505 317.828C24.331 317.775 24.1164 317.64 24.0359 317.694C23.7676 317.936 23.5262 318.15 23.2311 318.365C22.9897 318.552 22.7214 318.767 22.4263 318.928C22.2386 319.035 22.0508 318.982 21.863 318.901C21.6752 318.821 21.4874 318.713 21.3265 318.606C21.0314 318.418 20.7363 318.231 20.4412 318.043C19.8242 317.694 19.1536 317.399 18.4829 317.131C17.8659 316.889 17.249 316.568 16.5783 316.541C16.0418 316.541 15.5053 316.702 15.0761 317.024C13.386 316.058 11.5619 315.28 9.73773 314.663C9.73773 314.717 9.71091 314.77 9.65725 314.824C9.63043 314.878 9.54995 314.904 9.4963 314.931C9.12074 315.2 9.04026 315.521 8.87931 315.897C8.85248 315.977 8.82565 316.058 8.79883 316.138L13.5202 318.123C13.5202 318.123 13.6006 318.016 13.6543 317.936C13.7616 317.775 13.8689 317.64 14.0299 317.533C14.5395 317.211 15.4516 317.936 15.8272 318.231C15.9881 318.365 16.1491 318.499 16.3101 318.633C16.7929 319.062 17.2758 319.518 17.7586 319.894C18.1879 320.216 18.9658 320.403 19.4755 320.618L24.8675 322.898C26.2892 323.515 27.7647 324.105 29.2669 324.427C29.9107 324.588 30.8228 324.829 31.4666 324.749C31.8422 324.695 31.9495 324.48 31.8958 324.212L31.9763 324.32Z" fill="#4B575E"/>
    <path d="M22.8554 314.771C22.8554 314.771 22.8017 314.69 22.7749 314.663C22.6944 314.583 22.5603 314.556 22.453 314.583C22.1311 314.663 21.8092 314.797 21.4872 314.932C21.4604 314.932 21.4336 314.985 21.4336 315.012C21.4336 315.066 21.4872 315.092 21.5141 315.119C21.5677 315.146 21.6214 315.2 21.675 315.2C21.7287 315.2 21.7823 315.2 21.836 315.2C22.1579 315.066 22.4798 314.958 22.8017 314.851C22.8285 314.851 22.8554 314.797 22.8554 314.771Z" fill="#3C3C71"/>
    <path d="M23.4723 315.763C23.4723 315.763 23.4187 315.682 23.3918 315.656C23.3114 315.602 23.1772 315.521 23.0699 315.575C22.7748 315.682 22.4798 315.816 22.1847 315.977C22.1578 315.977 22.1578 316.058 22.1847 316.085C22.1847 316.138 22.2651 316.165 22.292 316.192C22.3725 316.246 22.5066 316.272 22.6139 316.219C22.6407 316.219 22.6675 316.192 22.6944 316.165C22.9358 316.031 23.1772 315.924 23.4187 315.843C23.4455 315.843 23.4723 315.79 23.4723 315.763Z" fill="#3C3C71"/>
    <path d="M7.83301 312.249C7.83301 312.249 11.0521 313.08 11.2399 313.134C11.5618 313.215 11.8569 313.268 12.152 313.349C12.3397 313.402 12.5275 313.429 12.6885 313.483C12.9031 313.536 13.064 313.563 13.1982 313.617C13.4396 313.697 13.681 313.751 13.9225 313.832C15.5052 314.314 17.0611 314.797 18.617 315.334C18.7243 315.36 18.8316 315.414 18.9389 315.441C19.234 315.548 19.5291 315.656 19.8241 315.763C21.5678 316.38 23.1774 317.077 25.0552 317.533C25.1893 317.56 25.4576 317.265 25.8063 316.728C27.1208 314.717 29.6424 309.62 30.0716 308.923C31.3861 306.831 32.6737 304.685 33.9345 302.539C34.8734 300.929 35.8123 299.293 36.7244 297.657C36.8853 297.389 37.0195 297.121 37.1804 296.852C39.5143 292.641 41.7676 288.376 43.9405 284.111C44.1551 283.709 44.3697 283.306 44.5575 282.904C44.6917 282.636 44.8258 282.368 44.9867 282.099C47.4279 277.459 49.9495 272.872 52.2565 268.178C52.3907 267.91 52.5248 267.642 52.6589 267.347C53.8929 264.798 55.0732 262.196 56.0926 259.541C56.2536 259.139 56.3609 258.736 56.4145 258.361C56.6291 257.02 56.2804 255.866 55.7975 254.418C55.6902 254.069 55.5561 253.747 55.3951 253.425C54.9659 252.433 54.4026 251.494 53.7319 250.636C52.4711 248.973 50.8079 247.605 48.9838 246.746C48.6082 246.558 48.2058 246.397 47.8034 246.263C47.8034 246.263 47.7498 246.263 47.723 246.237C46.3549 245.781 44.9331 245.351 43.4845 245.271C42.7334 245.244 42.1164 245.083 41.5262 244.922C41.097 244.815 40.6678 244.681 40.2922 244.6C39.7825 244.52 39.2728 244.52 38.7363 244.734C38.4144 244.842 38.0925 245.056 37.7706 245.325C37.6901 245.378 37.6365 245.432 37.556 245.512C35.4099 247.47 34.3101 250.528 33.3175 253.184C33.2639 253.345 33.2102 253.479 33.1566 253.64C32.5932 255.115 32.0299 256.564 31.4397 258.012C31.3324 258.28 31.1983 258.575 31.091 258.844C29.2132 263.404 27.1744 267.883 25.2161 272.389C25.082 272.658 24.9747 272.953 24.8674 273.221C23.5529 276.279 22.2653 279.363 21.1118 282.448C20.468 284.165 19.7973 285.882 19.1267 287.598C19.0194 287.893 18.8852 288.162 18.7779 288.457C16.6587 293.714 14.4053 298.891 11.9642 303.987C11.8301 304.256 11.6959 304.524 11.5618 304.819C10.4083 307.233 9.22795 309.62 7.99396 312.008C7.94031 312.115 7.88666 312.195 7.83301 312.303V312.249Z" fill="#273A2F"/>
    <path d="M29.8568 192.241C29.8568 198.41 30.0446 204.607 30.3934 210.776C30.3934 211.071 30.4202 211.393 30.447 211.688C30.5275 212.975 30.608 214.263 30.6884 215.551C30.9835 219.869 31.52 224.215 31.8956 228.56C31.8956 228.855 31.9493 229.177 31.9761 229.472C32.137 231.376 32.2175 233.281 32.2443 235.185C32.298 239.048 32.4858 242.937 32.7272 246.8C32.7272 247.095 32.754 247.417 32.7809 247.712C32.9418 250.475 33.1296 253.211 33.2905 255.973C33.2905 256.403 33.3442 256.805 33.4247 257.154C33.8002 259.595 34.9537 260.212 36.9657 260.668C37.3681 260.748 37.7705 260.828 38.2265 260.936C38.3606 260.936 38.4947 260.989 38.6289 261.016C40.3457 261.365 42.0894 261.499 43.8331 261.606C43.8331 261.606 43.8331 261.606 43.8867 261.606C44.2086 261.606 44.5574 261.66 44.8793 261.687C44.9866 261.687 45.0939 261.687 45.2012 261.687C47.5887 261.875 50.1103 262.089 52.471 261.526C52.8197 261.445 53.1416 261.338 53.4635 261.231C53.5708 261.204 53.6513 261.15 53.7586 261.124C56.4949 260.051 56.5217 258.173 56.6826 255.222C56.7095 254.525 56.7631 253.801 56.7899 253.103C56.8972 251.306 56.9777 249.536 57.0582 247.739C57.0582 247.444 57.085 247.122 57.1119 246.827C57.3533 241.247 57.5679 235.641 57.7288 230.035C57.7288 229.74 57.7288 229.472 57.7288 229.204C57.7288 228.882 57.7288 228.587 57.7288 228.265C57.8898 222.498 57.9971 216.758 58.0776 210.991C58.0776 210.696 58.0776 210.374 58.0776 210.079C58.0776 209.462 58.0776 208.845 58.0776 208.228C58.1581 203.212 58.2117 198.223 58.2654 193.207C58.2654 192.912 58.2654 192.59 58.2654 192.295C58.319 188.083 58.3458 183.872 58.3995 179.661C58.3995 178.99 58.3995 178.32 58.3995 177.649C58.3995 176.147 58.3995 174.618 58.4263 173.116C58.4263 172.687 58.48 172.123 58.5336 171.533C58.6946 169.978 58.8824 168.073 58.4531 167.054C58.2922 166.651 57.9703 166.383 57.5679 166.222C57.2996 166.115 57.0045 166.035 56.6826 166.008C56.5485 166.008 56.3876 165.981 56.2534 165.954C55.3413 165.9 54.322 165.954 53.5172 165.954C53.2221 165.954 52.927 165.927 52.6588 165.9C52.2296 165.9 51.8003 165.847 51.3711 165.847C49.1178 165.739 46.8644 165.632 44.5842 165.525C44.155 165.525 43.7258 165.471 43.2966 165.471C40.3457 165.337 37.3949 165.176 34.4441 165.042C34.0148 165.042 33.5856 165.015 33.1564 164.988C32.6467 164.988 32.137 164.935 31.6542 164.908C30.7957 166.759 30.9567 169.227 30.7153 171.587C30.5811 173.062 30.447 174.511 30.3397 175.986C30.3397 176.281 30.2861 176.603 30.2861 176.898C29.9641 181.673 29.8032 186.474 29.7764 191.275C29.7764 191.57 29.7764 191.892 29.7764 192.187L29.8568 192.241Z" fill="#273A2F"/>
    <path d="M55.6634 192.268C55.6634 192.563 55.7171 192.885 55.7439 193.18C55.8512 194.521 55.9853 195.889 56.1194 197.23C56.5218 200.958 57.2193 204.66 58.1314 208.308C58.2923 208.925 58.4533 209.542 58.6142 210.159C58.6947 210.454 58.7752 210.776 58.8557 211.071C59.2849 212.653 59.7678 214.209 60.2774 215.765C61.6187 219.976 63.1746 224.134 64.7305 228.265C64.8378 228.587 64.972 228.882 65.0793 229.204C67.279 234.997 69.5323 240.791 71.3565 246.746C71.4638 247.041 71.5443 247.363 71.6248 247.658C71.7857 248.195 71.9467 248.758 72.1076 249.321C72.51 250.743 72.8856 252.164 73.3416 253.586C73.8781 255.222 74.4951 256.832 75.3535 258.307C75.7828 259.031 76.212 259.568 76.668 259.97C77.0704 260.319 77.4996 260.56 77.9825 260.748C79.0287 261.123 80.2358 261.097 81.7917 261.043C82.1941 261.043 82.5965 261.016 83.0257 260.962C83.4549 260.936 83.8841 260.882 84.3134 260.828C85.2254 260.721 86.1107 260.587 86.9959 260.426C87.9885 260.265 89.303 260.399 90.4296 260.292C90.8857 260.238 91.3149 260.158 91.6905 260.024C91.7173 260.024 91.7441 259.997 91.7978 259.97C91.7978 259.97 91.7978 259.97 91.8514 259.97C93.1659 259.353 93.8633 257.341 94.1584 256.081C94.2925 255.517 94.3999 254.981 94.4535 254.418C94.5608 253.318 94.5608 252.191 94.534 251.065C94.4803 249.75 94.3999 248.436 94.2926 247.122C94.2926 246.827 94.2389 246.505 94.2121 246.21C93.8902 242.91 93.4341 239.611 93.0049 236.339C92.7098 234.005 92.3879 231.698 92.0392 229.391C91.9855 229.096 91.9319 228.774 91.9051 228.479C91.5831 226.387 91.2076 224.295 90.832 222.229C90.2419 218.957 89.8126 215.631 89.3834 212.332C89.3566 212.01 89.303 211.715 89.2761 211.42C88.8469 208.04 88.4177 204.687 87.7739 201.334C87.3447 199.161 86.9423 196.962 86.5131 194.789C86.4594 194.494 86.4058 194.172 86.3253 193.877C85.8961 191.731 85.4669 189.559 85.0377 187.413C83.9378 182.102 82.7575 176.817 81.3625 171.587C80.0212 166.651 79.592 165.686 74.5219 165.686C70.7127 165.686 66.9034 165.686 63.121 165.686C62.6381 165.686 57.112 165.31 56.951 165.686C56.8706 165.847 56.8169 166.008 56.7633 166.169C56.656 166.464 56.5755 166.759 56.495 167.081C56.3877 167.537 56.3072 168.019 56.2536 168.475C55.9317 170.97 55.6902 173.464 55.5561 175.986C55.5561 176.281 55.5293 176.603 55.5025 176.898C55.2342 182.048 55.3147 187.198 55.6634 192.375V192.268Z" fill="#273A2F"/>
    <path d="M75.0051 317.345C74.8978 317.801 74.7368 318.257 74.6027 318.686C74.2808 319.679 74.093 320.886 75.2465 321.503C75.5148 321.637 75.8099 321.691 76.105 321.744C78.4388 322.12 80.8531 321.825 83.187 321.53C84.1795 321.396 85.333 321.369 86.2183 320.966C86.3792 320.913 86.5134 320.832 86.6207 320.698C86.8085 320.484 86.7548 320.135 86.6207 319.893C86.4866 319.652 86.2451 319.464 86.0573 319.25C84.2332 317.479 83.9917 315.253 84.26 312.919C84.4478 311.283 84.6356 309.647 84.7965 308.011C85.5208 301.171 86.0842 294.304 86.5134 287.464C86.6207 285.667 86.7012 283.789 85.95 282.18C85.2526 280.704 83.9113 279.631 82.4895 278.961C80.0215 277.781 75.3538 277.512 74.6027 281.026C74.1199 283.226 74.1735 285.533 74.2003 287.786C74.093 290.951 74.3076 294.17 74.3881 297.362C74.4686 300.795 74.5759 304.229 74.7637 307.635C74.8442 309.352 74.9515 311.068 75.0588 312.758C75.1392 313.778 75.2465 314.797 75.2197 315.816C75.2197 316.326 75.1124 316.836 75.0051 317.345Z" fill="#FCD9BA"/>
    <path d="M97.9678 324.185C97.3777 324.507 96.4119 324.588 95.7413 324.668C94.1854 324.909 92.5758 324.883 90.9931 324.829L85.0378 324.668C84.4745 324.668 83.6965 324.775 83.16 324.614C82.543 324.427 81.9528 324.185 81.3358 323.971C81.1481 323.89 80.9335 323.837 80.7457 323.756C80.2628 323.622 79.1361 323.273 78.7874 323.756C78.6801 323.917 78.6264 324.078 78.5728 324.266C78.5728 324.346 78.546 324.4 78.5191 324.48L73.3149 324.319C73.3149 324.319 73.3149 324.158 73.3149 324.078C73.3149 323.676 73.2613 323.327 73.5295 322.951C73.5564 322.898 73.61 322.844 73.6368 322.79C73.6368 322.737 73.6368 322.656 73.6368 322.603C73.6368 322.576 73.6368 322.522 73.6368 322.495C73.5832 322.2 73.61 321.932 73.6368 321.637C73.6637 320.752 73.771 319.867 74.0392 319.008C74.1734 318.606 74.2807 318.123 74.5489 317.774C75.0318 317.184 75.3537 317.506 75.8902 317.801C77.0437 318.391 78.3582 318.713 79.6458 318.713C80.9603 318.713 82.2479 318.365 83.3746 317.748C83.7502 317.533 84.1257 316.889 84.5549 316.916C85.0915 316.943 85.5475 317.721 85.8962 318.016C86.6742 318.66 87.5058 319.25 88.3642 319.786C90.1079 320.859 92.0393 321.691 94.0513 322.227C94.6683 322.388 95.2853 322.522 95.9022 322.656C96.4656 322.79 97.2435 322.844 97.7264 323.139C97.9142 323.246 98.0751 323.381 98.1824 323.541C98.3166 323.756 98.3166 324.024 97.9678 324.185Z" fill="#4B575E"/>
    <path d="M98.1825 323.541C97.8338 323.541 97.485 323.622 97.1363 323.675C96.2242 323.809 95.3121 323.89 94.4001 323.944C92.6027 324.051 90.7786 324.024 88.9812 323.997C88.8471 323.997 88.7398 323.997 88.6057 323.997C87.3449 323.997 86.1109 323.944 84.8501 323.836C83.5893 323.729 82.4089 323.434 81.1749 323.166C80.7189 323.058 80.2897 322.978 79.8337 322.924C80.1019 322.495 80.5043 322.146 81.014 321.986C81.6846 321.771 82.4626 321.851 83.1601 321.878C83.9112 321.878 84.6623 321.932 85.3866 322.066C85.7353 322.12 86.0841 322.227 86.4596 322.254C86.7279 322.281 87.1034 322.307 87.3449 322.146C87.479 322.066 87.5863 321.905 87.6668 321.771C87.7741 321.61 87.8814 321.449 87.9887 321.288C88.2033 320.966 88.3911 320.618 88.552 320.269C88.6057 320.188 88.3643 320.162 88.3106 320.215C88.1496 320.537 87.9887 320.832 87.8009 321.127C87.64 321.395 87.4522 321.69 87.2644 321.932C87.1303 322.093 86.9425 322.12 86.7279 322.093C86.5133 322.093 86.3255 322.066 86.1109 322.012C85.7621 321.959 85.4134 321.878 85.0647 321.825C84.3404 321.717 83.6161 321.69 82.8918 321.69C82.2211 321.69 81.5237 321.637 80.8799 321.851C80.3433 322.039 79.9141 322.388 79.619 322.844C77.6608 322.549 75.6488 322.495 73.6905 322.576C73.6905 322.629 73.6905 322.71 73.6905 322.763C73.6905 322.817 73.6369 322.871 73.5832 322.924C73.315 323.3 73.3686 323.649 73.3686 324.051C73.3686 324.131 73.3686 324.212 73.3686 324.292L78.5728 324.453C78.5728 324.453 78.5997 324.319 78.6265 324.239C78.6801 324.051 78.7338 323.89 78.8411 323.729C79.1898 323.246 80.3165 323.595 80.7994 323.729C81.014 323.783 81.2018 323.863 81.3896 323.944C82.0065 324.158 82.6235 324.4 83.2137 324.587C83.7502 324.748 84.5282 324.614 85.0915 324.641L91.0468 324.802C92.6296 324.856 94.2123 324.856 95.795 324.641C96.4656 324.534 97.4046 324.453 98.0215 324.158C98.3703 323.97 98.3703 323.729 98.2361 323.514L98.1825 323.541Z" fill="#4B575E"/>
    <path d="M86.0302 317.935C86.0302 317.935 85.9497 317.855 85.9229 317.855C85.8156 317.828 85.6815 317.828 85.5742 317.882C85.3059 318.096 85.0376 318.311 84.7694 318.552C84.7426 318.579 84.7157 318.606 84.7426 318.659C84.7426 318.686 84.823 318.74 84.8499 318.74C84.9035 318.74 84.984 318.767 85.0376 318.74C85.0913 318.74 85.1449 318.74 85.1986 318.686C85.44 318.445 85.7083 318.23 86.0034 318.016C86.0302 318.016 86.057 317.962 86.0302 317.908V317.935Z" fill="#3C3C71"/>
    <path d="M86.9695 318.633C86.9695 318.633 86.889 318.552 86.8622 318.552C86.7549 318.525 86.6207 318.525 86.5134 318.579C86.272 318.794 86.0306 319.035 85.8428 319.277C85.8428 319.303 85.8428 319.357 85.8428 319.384C85.8696 319.411 85.9501 319.437 85.9769 319.437C86.0842 319.437 86.2183 319.437 86.272 319.357C86.272 319.357 86.3256 319.303 86.3256 319.277C86.4866 319.089 86.6744 318.874 86.889 318.713C86.9158 318.713 86.9426 318.66 86.9158 318.606L86.9695 318.633Z" fill="#3C3C71"/>
    <path d="M73.2612 315.548C73.2612 315.87 73.2612 316.165 73.2612 316.46C73.3148 318.096 73.4758 319.679 73.7977 321.154C74.4683 320.832 75.139 320.698 75.8633 320.564C76.0511 320.537 76.2388 320.51 76.4266 320.484C76.6681 320.457 76.9095 320.403 77.1241 320.376C77.2046 320.376 77.2582 320.376 77.3387 320.349C77.7947 320.269 78.1703 320.215 78.4117 320.215C78.9214 320.162 79.4579 320.135 79.9676 320.108C80.3968 320.081 80.8261 320.054 81.2553 320.028C82.3015 319.947 83.3745 319.894 84.4475 319.84C84.7426 319.84 85.0645 319.813 85.3596 319.786C86.1644 319.759 86.835 319.786 87.3715 319.786C87.9081 319.786 88.3373 319.786 88.6592 319.598C89.1152 319.357 89.3835 318.794 89.5176 317.64C89.5176 317.587 89.5176 317.56 89.5176 317.506C89.5444 317.211 89.5981 316.916 89.6249 316.621C89.9468 313.778 90.2687 310.934 90.5906 308.064C90.8857 305.409 91.1808 302.753 91.4491 300.098C91.4759 299.803 91.5027 299.481 91.5564 299.186C91.6637 298.274 91.7442 297.362 91.8246 296.45C92.0929 293.902 92.3343 291.38 92.5489 288.832C92.7099 286.954 92.8708 285.077 93.0318 283.199C93.0318 282.904 93.0854 282.582 93.1123 282.287C93.5683 276.44 93.9439 270.592 94.1853 264.718C94.1853 264.423 94.1853 264.101 94.2121 263.806C94.3194 260.667 94.3999 257.529 94.4267 254.391C94.4267 253.023 94.4267 251.655 94.4267 250.287C94.4267 249.08 93.9439 248.007 93.1928 247.122C92.9245 246.8 92.6026 246.505 92.2538 246.236C91.5832 245.727 90.8053 245.351 90.0005 245.11C89.8127 245.056 89.6249 245.003 89.4371 244.976C89.1957 244.922 88.9543 244.895 88.7128 244.868C87.8812 244.788 87.0228 244.815 86.1912 244.868C84.9841 244.922 83.8037 245.029 82.7039 245.298C82.2746 245.405 81.8723 245.512 81.4699 245.673C81.0675 245.834 80.6651 246.022 80.2627 246.263C80.0481 246.397 79.8067 246.505 79.5652 246.585C78.0898 247.122 76.3193 246.987 75.0853 247.685C75.0317 247.712 74.978 247.739 74.9244 247.765C73.4758 248.704 73.3148 250.582 73.3417 252.218C73.3417 252.647 73.3417 253.103 73.3417 253.532C73.3417 256.832 73.3685 260.104 73.3953 263.403C73.3953 263.698 73.3953 264.02 73.3953 264.315C73.4221 269.895 73.449 275.474 73.4758 281.053C73.4758 281.348 73.4758 281.67 73.4758 281.965C73.4758 283.575 73.4758 285.157 73.4758 286.767C73.4758 290.576 73.5026 294.358 73.5294 298.167C73.5294 298.462 73.5294 298.757 73.5294 299.079C73.5294 300.822 73.5294 302.566 73.5294 304.309C73.5294 307.769 73.1271 311.766 73.1807 315.548H73.2612Z" fill="#273A2F"/>
    <path d="M29.5351 177.703C29.5351 179.768 29.5351 181.86 29.5351 183.926C29.5351 184.274 29.5351 184.677 29.8034 184.945C30.0716 185.213 30.5277 185.213 30.9032 185.186C48.4205 184.221 66.045 183.255 83.1062 179.258C80.7724 168.18 78.4654 157.102 76.1315 145.997C76.0242 145.461 75.8901 144.898 75.5414 144.495C74.7098 143.53 70.0153 144.2 68.7008 144.173C65.9377 144.093 63.1479 144.012 60.3848 143.986C54.8319 143.932 49.3057 143.986 43.7528 144.415C39.8094 144.71 33.0493 143.986 31.3325 148.17C29.2937 153.132 29.9643 159.838 29.7766 165.176C29.6424 169.361 29.5351 173.518 29.5083 177.703H29.5351Z" fill="#273A2F"/>
    <path d="M63.6037 155.064C63.6037 154.876 63.094 154.876 63.094 155.064C63.094 158.685 63.094 162.306 63.094 165.927C63.094 167.751 63.094 169.548 63.0672 171.372C63.0672 172.177 63.094 173.009 62.8794 173.786C62.6916 174.43 62.3161 174.967 61.8064 175.342C61.2699 175.745 60.6261 175.986 59.9822 176.227C59.4189 176.442 58.8556 176.63 58.319 176.871C58.1313 176.335 58.1581 175.771 58.1313 175.208C58.1313 174.511 58.1044 173.813 58.0776 173.116C58.0508 171.694 58.024 170.299 57.9703 168.878C57.9166 166.061 57.8362 163.245 57.7825 160.428L57.6752 155.681C57.6752 155.493 57.1387 155.493 57.1655 155.681C57.2192 158.524 57.2997 161.34 57.3533 164.184C57.407 167.027 57.4874 169.843 57.5411 172.687C57.5411 173.491 57.5679 174.296 57.5947 175.074C57.5947 175.771 57.5947 176.522 57.8898 177.193C57.9435 177.327 58.2117 177.327 58.319 177.247C59.4457 176.657 60.7334 176.415 61.8332 175.745C62.3697 175.423 62.8258 174.993 63.1209 174.457C63.4964 173.786 63.5501 172.982 63.5501 172.231C63.5769 170.407 63.5769 168.609 63.6037 166.786C63.6037 164.962 63.6037 163.111 63.6037 161.287C63.6037 159.221 63.6037 157.156 63.6037 155.091V155.064Z" fill="#FFFDF8"/>
    <path d="M65.2671 181.056C63.6576 183.952 62.3163 187.01 61.2701 190.149C60.2239 193.287 59.4996 196.533 59.0704 199.832C58.8289 201.683 58.6948 203.534 58.668 205.411C58.668 205.599 59.1777 205.599 59.1777 205.411C59.2313 202.112 59.6337 198.813 60.3312 195.594C61.0286 192.348 62.0212 189.183 63.3088 186.152C64.0331 184.435 64.8647 182.772 65.7768 181.136C65.8841 180.948 65.3744 180.895 65.2671 181.056Z" fill="#FFFDF8"/>
    <path d="M8.26248 179.098C6.49198 175.906 6.46515 171.453 5.90181 167.885C5.25799 163.781 4.641 159.651 4.05083 155.547C3.13875 149.109 1.87794 142.618 1.74381 136.126C1.71698 134.356 1.71698 132.532 2.33398 130.896C3.27288 128.428 5.71403 126.577 8.36978 126.336C10.3817 126.148 12.4473 126.899 13.9227 128.267C15.5323 129.796 14.8885 132.291 14.9689 134.329C15.1835 141.25 15.3981 148.197 15.6127 155.117C15.7737 159.919 15.9078 164.72 15.8005 169.495C15.7469 171.882 15.6127 174.269 15.3981 176.657C15.2372 178.454 15.5591 180.144 13.574 180.841C11.723 181.485 9.28186 180.922 8.26248 179.098Z" fill="#FCD9BA"/>
    <path d="M16.0686 176.683C15.1297 175.423 14.003 175.423 12.4739 175.476C11.7765 175.476 11.079 175.557 10.3815 175.637C9.01342 175.798 8.23547 175.932 7.72578 177.166C6.89418 179.097 6.76005 181.243 6.54545 183.309C6.41132 184.569 6.22354 185.911 6.35767 187.171C6.4918 188.351 6.38449 189.505 6.81371 190.658C6.97466 191.087 7.18927 191.517 7.51118 191.812C7.94039 192.187 8.42325 192.321 8.31595 191.57C8.10134 190.283 8.12817 188.888 8.31595 187.6C8.34278 187.279 8.50373 185.723 8.95977 186.393C9.17438 186.715 9.04025 187.359 9.06707 187.708C9.12072 188.325 9.17438 188.942 9.22803 189.559C9.33533 190.792 9.46946 192.026 9.57676 193.26C9.63041 193.716 9.71089 194.36 10.1133 194.655C10.4352 194.87 11.0522 194.923 11.2668 194.521C11.3741 194.333 11.3741 194.119 11.3473 193.931C11.2668 191.57 10.7303 189.263 11.1595 186.903C11.2131 186.554 11.535 185.911 11.8301 186.42C11.9374 186.581 11.9374 186.769 11.9643 186.957C12.1252 189.022 12.2862 191.087 12.4471 193.153C12.5008 193.743 12.4471 194.655 12.93 195.084C13.7348 195.808 14.3786 194.762 14.3518 193.984C14.2981 192.536 14.1103 191.087 14.0567 189.639C14.0298 188.539 13.9225 187.332 14.4054 186.313C14.5664 186.528 14.5664 186.823 14.5932 187.064C14.62 188.11 14.7005 189.129 14.8346 190.175C14.9419 191.114 14.9687 192.107 15.2102 193.019C15.3711 193.663 16.2832 194.36 16.6319 193.421C16.7124 193.18 16.6856 192.938 16.6588 192.67C16.471 190.605 16.1759 188.539 16.31 186.474C16.3637 185.696 16.4442 184.73 16.9539 184.087C17.7586 184.355 17.8928 185.964 18.322 186.581C18.9658 187.52 19.7706 188.137 21.0582 187.922C22.1044 187.761 20.8704 186.206 20.5753 185.776C19.556 184.355 18.9121 182.799 18.2415 181.19C17.5977 179.661 17.1416 178.132 16.1759 176.737C16.1491 176.683 16.1223 176.656 16.0954 176.603L16.0686 176.683Z" fill="#FCD9BA"/>
    <path d="M15.6127 86.3422C15.1835 87.0933 14.7811 87.8712 14.4323 88.6491C12.635 92.458 11.5351 96.562 10.2207 100.559C9.65734 102.249 9.06717 103.938 8.18192 105.494C7.48445 106.701 6.65285 107.828 6.03585 109.088C4.23853 112.817 4.80187 117.323 3.13867 121.105C2.68263 122.125 2.09246 123.037 1.69008 124.083C1.15356 125.478 0.992605 126.98 0.831651 128.482C0.590218 130.896 0.321961 133.283 0.0805283 135.697C-0.107252 137.414 0.0805283 139.238 0.0805283 140.955C0.0805283 141.545 0.107354 142.189 0.536567 142.564C1.01943 142.993 1.74373 142.859 2.36072 142.698C5.33838 141.894 8.10144 140.391 11.2401 140.257C12.6887 140.204 18.3489 140.874 18.6172 138.97C18.7245 138.165 18.027 137.494 17.7856 136.717C17.4905 135.724 18.027 134.678 18.6708 133.846C19.3146 133.015 20.0926 132.264 20.4145 131.271C21.0583 129.313 19.7707 126.926 20.9242 125.236C21.407 124.512 22.2386 124.11 22.802 123.466C24.1701 121.937 23.8482 119.603 24.1433 117.565C24.5457 114.695 26.2089 112.2 27.4965 109.598C31.5204 101.524 32.4861 90.3926 27.4965 82.5065C26.4503 80.8434 24.6798 77.4905 22.2923 78.9926C19.4488 80.7898 17.2759 83.4185 15.5858 86.3422H15.6127Z" fill="#FFFDF8"/>
    <path d="M133.083 9.54675C130.159 13.2216 128.388 18.0229 126.269 22.2074C123.908 26.9015 121.521 31.5956 119.16 36.2629C117.229 40.0718 115.297 43.8807 112.99 47.4751C112.185 48.7358 111.3 49.9965 110.12 50.9353C107.679 52.8666 102.904 52.6251 100.382 50.9085C99.2285 50.1306 97.1361 48.5212 97.2166 46.9922C97.3239 44.9537 99.8724 42.4859 101.08 40.9838C110.227 29.6375 119.911 18.4789 128.093 6.40841C129.086 4.95994 130.561 3.51148 132.09 2.67995C132.6 2.41172 133.029 2.03619 133.512 1.8216C134.156 1.52655 134.88 1.44608 135.551 1.36561C137.214 1.17784 138.904 1.15102 140.567 1.25831C141.318 1.31196 142.606 1.33878 143.196 1.90207C144.189 2.84089 142.391 3.29689 141.721 3.43101C141.935 3.51148 142.15 3.61877 142.257 3.80654C142.338 3.9943 142.284 4.23571 142.177 4.39665C142.069 4.55759 141.882 4.69171 141.694 4.799C140.943 5.28182 140.111 5.68417 139.306 6.0597C137.804 6.78393 136.034 7.10582 134.639 7.99099C133.995 8.39334 133.458 8.92981 133.002 9.51992L133.083 9.54675Z" fill="#FCD9BA"/>
    <path d="M75.8634 87.5224C77.4997 88.4881 79.0288 89.6683 80.7725 90.473C80.9066 90.5267 81.0676 90.6071 81.2017 90.5535C81.3626 90.4998 81.47 90.3657 81.5504 90.2316C87.6935 80.4947 95.9827 72.2063 103.467 63.435C104.594 62.0938 105.747 60.7795 106.767 59.3578C107.759 57.963 108.644 56.4877 109.878 55.3343C110.817 54.476 111.944 53.8054 112.588 52.7325C113.5 51.2304 112.802 49.621 111.622 48.6285C110.093 47.3678 108.859 46.1339 107.545 44.6318C105.72 42.5396 103.467 40.9033 101.241 39.2939C100.892 39.0525 100.543 38.7843 100.141 38.677C98.8799 38.3283 97.6727 39.5085 97.1362 40.6888C96.5729 41.8958 96.3046 43.2638 95.3389 44.1758C94.5878 44.9 93.5416 45.1951 92.6831 45.7316C90.242 47.2605 89.4909 50.2379 87.6935 52.3301C85.5475 54.8247 82.5698 56.1659 79.8336 57.8557C77.0437 59.5993 74.1465 61.1818 71.1152 62.4962C70.4177 62.7912 69.6934 63.1131 69.2106 63.6764C68.379 64.6421 68.4058 66.0369 68.3521 67.2976C68.1912 71.9649 65.8037 76.1225 65.8573 80.8434C65.8842 83.6599 65.9378 87.3347 69.8276 86.369C71.8395 85.8594 72.9662 85.913 74.9245 86.9323C75.2464 87.0933 75.5683 87.281 75.8634 87.4688V87.5224Z" fill="#FFFDF8"/>
    <path d="M34.1491 155.627C33.1834 155.627 32.1908 155.627 31.2251 155.627C30.9032 155.627 30.5813 155.627 30.313 155.466C29.7497 155.144 29.696 154.339 29.7228 153.696C30.7154 131.271 28.5693 108.686 23.3115 86.8518C22.7481 84.4645 21.7556 81.1652 22.7213 78.7779C23.4993 76.8467 25.7258 76.0688 27.4426 74.9958C32.2981 71.938 37.1268 68.8801 41.9822 65.8222C44.1283 64.4542 46.3548 63.0862 48.8228 62.523C54.1343 61.3159 59.5531 64.0787 64.9988 63.9982C68.352 63.9446 71.893 62.8448 74.8975 64.2933C76.2388 64.9371 77.3118 66.01 78.3312 67.1098C79.1091 67.9681 79.8871 68.8533 80.3431 69.9262C80.7992 70.9992 80.9065 72.1794 81.1479 73.306C81.5771 75.3177 82.4087 77.2222 82.7843 79.2339C83.5622 83.5257 82.1136 88.4076 81.7649 92.7261C81.3625 97.5812 81.1211 102.436 80.9601 107.291C80.7455 113.809 80.7455 120.408 80.4236 126.98C80.1017 134.007 79.7798 141.035 79.4579 148.063C79.3506 150.718 79.2164 155.332 75.7559 155.52C72.966 155.654 70.1225 155.52 67.3326 155.52C56.2536 155.547 45.2013 155.573 34.1223 155.6L34.1491 155.627Z" fill="#FFFDF8"/>
    <path d="M60.9483 70.731C60.7605 73.0914 60.5728 75.4251 60.3581 77.7855C60.2508 78.9926 60.1435 80.1996 60.0094 81.3799C59.9021 82.3723 60.0094 83.8476 59.5802 84.7328C57.8633 84.25 56.227 81.7554 55.0198 80.5215C51.908 77.3564 48.1256 74.9154 44.5846 72.2331C44.0749 71.8576 43.5652 71.4284 43.136 70.9456C42.7604 70.4896 42.4385 69.9799 42.358 69.4166C42.2239 68.6388 42.4653 67.8341 42.7336 67.083C43.2433 65.7955 43.9676 64.6421 44.3968 63.3277C44.8528 61.9329 45.2552 60.5381 45.604 59.1164C46.0868 57.212 46.4356 54.7979 47.5086 53.108C48.0719 52.2496 49.2791 51.4986 50.1107 50.9085C51.4788 49.9697 52.6055 50.2915 53.9736 50.9621C56.7098 52.2496 59.4461 54.3955 60.3313 57.3461C60.5459 58.0167 60.6264 58.7409 60.6264 59.4383C60.6264 59.4383 60.6264 59.4651 60.6264 59.492C60.6264 59.492 60.6264 59.492 60.6264 59.5188C60.5459 61.3964 60.0631 63.2472 60.1435 65.1249C60.1435 65.6345 60.2508 66.0637 60.385 66.4661C60.5191 66.8952 60.7069 67.2976 60.8947 67.7804C61.2434 68.6656 60.9751 69.7385 60.8947 70.6773L60.9483 70.731Z" fill="#FCD9BA"/>
    <path d="M60.6533 59.5724C60.5728 61.4501 60.0899 63.3009 60.1704 65.1785C60.1704 65.6882 60.2777 66.1173 60.4118 66.5197C57.6756 67.5122 54.6175 64.6421 53.8932 62.228C53.3298 60.4308 54.1346 58.5531 56.0929 58.2313C57.005 58.0971 57.7561 58.419 58.6145 58.5531C59.0974 58.6336 59.4729 58.5531 59.9022 58.8482C60.1972 59.036 60.4387 59.2774 60.6533 59.5188V59.5724Z" fill="#DEA978"/>
    <path d="M68.3525 41.6544C68.3525 41.6544 68.3793 41.7617 68.4061 41.7885C68.5671 42.164 68.5134 42.7273 68.5939 43.1565C68.7012 43.693 68.7817 44.2026 68.7817 44.7391C68.7817 45.7315 68.1111 46.5899 68.1379 47.5824C68.1379 48.0115 68.3793 48.4139 68.5671 48.7894C68.7817 49.2454 69.0231 49.7282 69.2646 50.1842C69.7743 51.0962 70.3376 51.9814 70.9814 52.8397C71.4374 53.4299 71.9203 54.0468 71.8935 54.771C71.8398 55.9513 70.579 56.2731 69.6669 56.6218C68.6744 56.9974 68.4598 58.2849 68.3257 59.1969C68.1647 60.4039 68.1915 61.611 67.9769 62.8449C67.7087 64.347 67.038 65.6345 65.3748 65.7955C63.0142 66.01 60.6267 65.4736 58.5074 64.4543C56.8442 63.6496 55.3688 62.523 54.0812 61.2355C52.9545 60.1089 51.2913 59.2237 50.5938 57.7752C49.8695 56.2731 48.4209 56.4877 47.0528 55.7098C45.631 54.9051 44.6385 53.2421 44.0215 51.8204C43.3508 50.2379 42.9753 48.5212 42.6265 46.8313C42.2778 45.1414 41.9291 43.4247 42.3046 41.7348C42.7338 39.7767 44.102 38.0869 45.792 36.9066C47.4552 35.7264 49.4135 35.0022 51.3449 34.3584C53.4642 33.661 55.4224 33.0441 57.649 33.205C59.2317 33.3123 60.6803 33.7146 62.2094 34.117C63.6311 34.4925 64.7578 35.5118 65.6699 36.6384C66.8771 38.1137 67.655 39.9109 68.3525 41.708V41.6544Z" fill="#FCD9BA"/>
    <path d="M42.8409 56.4073C43.5384 57.5339 44.3432 58.6068 45.5772 59.1969C46.4892 59.6261 47.3208 59.3042 48.0988 58.7677C48.9036 58.2313 49.6279 57.5875 50.2717 56.8901C51.0765 56.0049 51.7471 54.9856 52.5519 54.0736C53.2762 53.2689 54.376 53.0007 55.2345 52.3301C58.2121 50.0769 56.7635 45.8925 58.5608 42.9419C59.3388 41.6812 60.6264 40.7156 62.075 40.3669C63.3895 40.045 64.8113 40.1791 66.0184 39.5353C68.5132 38.221 69.9082 34.6803 67.1988 32.8831C66.2867 32.2662 65.2673 31.837 64.2211 31.5956C63.309 31.381 62.3701 31.3274 61.5117 30.9787C60.1972 30.4422 59.1778 29.2352 57.8097 28.8596C57.0586 28.645 56.227 28.6987 55.4491 28.7523C54.1614 28.8328 52.8201 28.9401 51.6666 29.5034C50.835 29.9326 50.1375 30.5763 49.3328 31.0591C47.455 32.1857 44.9602 32.4271 43.7262 34.2243C42.7605 35.6459 43.0019 37.5504 42.6532 39.2403C42.2508 41.1984 41.0704 42.8614 40.212 44.6586C39.3536 46.4558 38.7902 48.6285 39.7023 50.3988C40.1852 51.3645 41.0436 52.0887 41.5533 53.0543C42.1166 54.1273 42.1971 55.388 42.8409 56.4073Z" fill="#553A12"/>
    <path d="M67.7085 45.7316C67.7085 45.7316 67.6548 45.5438 67.6012 45.4634C67.2256 44.8196 66.1526 45.0074 65.5624 45.0878C64.7576 45.1951 64.0333 45.5975 63.3627 46.0266C62.7189 46.4558 62.0482 46.9923 61.9409 47.7433C61.9409 47.797 61.9409 47.8238 61.9409 47.8775C62.075 48.0921 63.0676 47.4215 63.2017 47.3142C63.4163 47.2069 63.6846 47.0996 63.926 47.0191C64.8381 46.7241 65.777 46.5095 66.7159 46.5631C66.9305 46.5631 67.1451 46.5899 67.3329 46.5363C67.6816 46.4022 67.7889 46.0535 67.7085 45.7316Z" fill="#553A12"/>
    <path d="M58.9366 52.6788C58.9366 52.6788 58.9366 52.6251 58.9366 52.5983C59.1512 50.3183 56.9515 46.2948 54.1885 47.7432C53.2227 48.2529 52.6326 49.3258 52.5521 50.3988C52.418 52.5178 54.3226 55.8439 56.7369 55.7366C58.2123 55.6562 58.7757 53.9395 58.9098 52.6788H58.9366Z" fill="#FCD9BA"/>
    <path d="M65.0528 49.8088C65.0528 49.5405 65.1064 49.2723 65.2674 49.1382C65.3747 49.0309 65.5356 48.9772 65.6698 48.9504C66.1258 48.8699 66.4209 49.1382 66.5282 49.4869C66.5818 49.7283 66.5818 49.9697 66.555 50.2111C66.555 50.4525 66.4745 50.7208 66.3672 50.9622C66.3136 51.0963 66.2331 51.1767 66.099 51.2572C65.5625 51.5523 65.2137 51.2036 65.1332 50.7476C65.1064 50.533 65.0259 50.1575 65.0528 49.8356V49.8088Z" fill="#553A12"/>
    <path d="M61.5925 37.5504C62.5582 37.4431 63.5776 37.3358 64.3555 36.7457C65.1335 36.1556 65.3213 35.2436 65.4286 34.3316C65.4286 34.1438 65.9651 34.117 65.9383 34.2779C65.8846 34.7876 65.8041 35.2972 65.6163 35.7532C65.4286 36.2092 65.1067 36.5847 64.7311 36.8798C63.8458 37.5504 62.6923 37.6845 61.5925 37.7918C61.512 37.7918 61.3242 37.7918 61.3242 37.6845C61.3242 37.5772 61.4852 37.5236 61.5657 37.5236L61.5925 37.5504Z" fill="#63848F"/>
    <path d="M57.6221 34.412C57.6221 34.412 57.8367 34.2779 57.9172 34.2779C58.4805 34.2779 59.0707 34.2779 59.5536 33.956C59.956 33.6878 60.2779 33.2586 60.2779 32.7758C60.2779 32.588 60.7876 32.5612 60.7876 32.749C60.7876 33.3391 60.3852 33.8756 59.8755 34.1706C59.2585 34.5461 58.4805 34.5998 57.7831 34.573C57.7026 34.573 57.5685 34.5193 57.5953 34.412H57.6221Z" fill="#63848F"/>
    <path d="M41.4194 45.4364C41.473 45.2755 41.9827 45.2755 41.9291 45.4632C41.3926 47.1263 41.7681 49.0307 42.9216 50.3719C43.0021 50.4524 42.8143 50.5328 42.7607 50.5597C42.6534 50.5865 42.5192 50.5597 42.4388 50.4792C41.2584 49.1112 40.8829 47.1531 41.4462 45.4364H41.4194Z" fill="#63848F"/>
    <path d="M45.7113 46.0802C45.7918 45.9192 46.3015 45.9461 46.221 46.107C45.5772 47.3677 46.6771 48.5747 47.5355 49.3795C47.7233 49.5404 47.2404 49.6745 47.1063 49.5672C46.5966 49.0844 46.0869 48.5748 45.7918 47.931C45.5236 47.3409 45.4431 46.6435 45.7382 46.0533L45.7113 46.0802Z" fill="#63848F"/>
    <path d="M66.7966 58.875C66.9307 58.419 66.8503 58.0166 66.3942 57.8021C66.2333 57.7216 66.0723 57.6948 65.9114 57.6411C65.4285 57.4802 64.9456 57.2388 64.5701 56.8901C64.0872 56.4609 63.4166 56.595 63.3093 57.3461C63.202 58.0166 63.7385 58.5531 64.2213 58.9555C64.9456 59.5724 66.421 60.1893 66.7966 58.9018V58.875Z" fill="white"/>
    <path d="M65.3208 75.1568L63.8991 74.7276L63.2284 74.513C63.0406 74.4594 62.826 74.4057 62.6383 74.3253C62.4237 74.2448 62.4505 74.057 62.5041 73.8693C62.5846 73.6279 62.6919 73.3865 62.7724 73.145C62.9333 72.689 63.1211 72.2599 63.2821 71.8307C63.4699 71.3747 63.6576 70.8919 63.8186 70.4359C63.9796 70.0603 64.1942 69.6043 64.1405 69.1752C64.0869 68.7728 63.7649 68.5046 63.4699 68.2364C63.1211 67.9413 62.7456 67.6194 62.3968 67.3244C61.5652 66.627 60.7336 65.9295 59.902 65.2053C59.8216 65.1248 59.6606 65.1248 59.5533 65.1517C59.4728 65.1517 59.3655 65.259 59.4728 65.3394C60.2239 65.9832 60.9751 66.6001 61.7262 67.2439C62.1017 67.5658 62.4773 67.8877 62.8529 68.1827C63.148 68.4509 63.5772 68.7192 63.6576 69.1484C63.7381 69.6044 63.443 70.0872 63.2821 70.5163L62.7456 71.9112C62.5846 72.3672 62.3968 72.7963 62.2359 73.2523C62.1017 73.5742 61.7798 74.0839 62.1017 74.4057C62.2627 74.5399 62.4773 74.5935 62.6651 74.674L63.4699 74.9154C63.9527 75.0763 64.4356 75.2104 64.9453 75.3714C64.7843 76.1493 64.4356 76.8735 64.0869 77.5977C63.7381 78.3756 63.3626 79.1803 63.0138 79.9582C62.2895 81.5408 61.5652 83.1502 60.8409 84.7328C60.519 85.4302 60.1971 86.1544 59.8752 86.8518C59.8752 86.825 59.8752 86.7713 59.7947 86.7445C57.9706 85.6179 56.1196 84.5182 54.2418 83.4989C52.364 82.4796 50.4593 81.5139 48.5279 80.6019C47.4817 80.0923 46.4087 79.6363 45.3356 79.1535L46.6233 76.4711C46.6233 76.4711 46.516 76.3102 46.4355 76.2834C44.6918 75.9079 42.975 75.3714 41.3118 74.7008C40.8825 74.5399 40.4802 74.3521 40.0778 74.1643C39.729 74.0034 39.4071 73.8156 39.3535 73.3865C39.3266 72.9841 39.4608 72.5281 39.5681 72.1526C39.6754 71.6966 39.7827 71.2406 39.89 70.7846C40.1314 69.7385 40.3729 68.6924 40.6143 67.6462C40.6411 67.4853 40.1314 67.4317 40.1046 67.6462C39.89 68.6119 39.6754 69.5507 39.4608 70.5163C39.3535 70.9992 39.2462 71.482 39.1389 71.9648C39.0316 72.394 38.8974 72.85 38.8706 73.2792C38.8706 73.6815 39.0852 74.0034 39.4339 74.1912C39.8095 74.4057 40.2387 74.5667 40.6411 74.7276C41.4995 75.0763 42.3848 75.3982 43.27 75.6933C44.2089 75.9883 45.1478 76.2566 46.0867 76.4711L44.8259 79.1267C44.8259 79.1267 44.8259 79.234 44.8796 79.2608C46.8647 80.1191 48.7962 81.0043 50.7276 81.9699C52.6322 82.9356 54.51 83.9549 56.361 85.001C57.3536 85.5643 58.3193 86.1544 59.285 86.7445C59.285 86.7445 59.285 86.7445 59.2582 86.7713C59.2046 86.9055 59.6606 86.9859 59.7411 87.0664C60.4117 87.5224 60.7336 86.1276 60.9214 85.6984C61.3238 84.8132 61.7262 83.9012 62.1554 83.0161C62.9602 81.2457 63.7649 79.5022 64.5697 77.7318C64.9453 76.9003 65.3477 76.0688 65.5354 75.1568C65.5354 75.1032 65.455 75.0495 65.4013 75.0227L65.3208 75.1568Z" fill="#4B575E"/>
    <path d="M29.6429 101.739C28.7845 99.4321 27.7383 97.2057 26.558 95.0599C25.3776 92.914 24.0363 90.8754 22.5341 88.9173C21.7025 87.8175 20.8172 86.7714 19.9052 85.7521C19.7979 85.618 19.2882 85.6985 19.4491 85.8863C21.0855 87.7103 22.5877 89.6415 23.929 91.6533C25.2703 93.6919 26.4775 95.8109 27.5237 98.0104C28.1139 99.2443 28.6504 100.505 29.1332 101.793C29.1869 101.953 29.7234 101.927 29.6429 101.712V101.739Z" fill="#4B575E"/>
    <path d="M80.7191 75.3982C80.585 72.6622 80.3972 69.9262 80.1289 67.2171C79.9948 65.8223 79.7265 64.4274 79.0827 63.1936C79.0022 63.0326 78.4926 63.0863 78.573 63.274C79.1364 64.3738 79.4046 65.6077 79.5388 66.8147C79.6997 68.1291 79.7802 69.4702 79.8875 70.8114C80.1021 73.5474 80.2362 76.2834 80.3435 79.0462C80.3972 80.602 80.4508 82.1577 80.4508 83.7135C80.4508 83.9012 80.9605 83.9012 80.9605 83.7135C80.9069 80.9507 80.8264 78.1879 80.6654 75.425L80.7191 75.3982Z" fill="#4B575E"/>
    <path d="M16.659 135.054C13.4936 133.766 10.0062 133.82 6.67982 134.142C5.71409 134.249 4.77519 134.356 3.83629 134.464C3.75581 134.464 3.62168 134.544 3.64851 134.651C3.70216 134.759 3.88994 134.759 3.97042 134.759C7.21634 134.356 10.5159 133.927 13.7618 134.544C14.6739 134.705 15.5592 134.973 16.4176 135.322C16.5249 135.376 16.6858 135.349 16.7663 135.268C16.8468 135.188 16.7663 135.107 16.6858 135.08L16.659 135.054Z" fill="#4B575E"/>
    <path d="M15.0765 126.551C13.306 125.236 11.3745 124.11 9.36256 123.251C8.79922 123.01 8.20905 122.768 7.61889 122.554C7.51158 122.527 7.35063 122.527 7.27015 122.608C7.18967 122.688 7.27015 122.768 7.35063 122.795C9.36256 123.52 11.3208 124.485 13.1182 125.639C13.6279 125.96 14.1376 126.309 14.6204 126.685C14.7277 126.765 14.8619 126.765 14.9692 126.738C15.0496 126.738 15.1569 126.631 15.0496 126.551H15.0765Z" fill="#4B575E"/>
    <path d="M102.153 56.9974C101.536 55.3343 100.919 53.6981 100.302 52.0351C100.007 51.2035 99.685 50.372 99.3899 49.5673C99.1216 48.8431 98.8802 48.1189 98.5315 47.4214C98.1827 46.6972 97.7803 45.9998 97.1902 45.4365C97.1097 45.356 96.9487 45.356 96.8414 45.3829C96.761 45.4097 96.6537 45.4902 96.761 45.5706C97.834 46.5899 98.3169 48.0384 98.7997 49.4064C99.4167 51.0426 100.007 52.6788 100.624 54.2882C100.973 55.2271 101.321 56.1391 101.67 57.0779C101.724 57.2388 102.26 57.212 102.18 56.9974H102.153Z" fill="#4B575E"/>
    <path d="M94.0247 60.565C94.0247 59.653 93.9711 58.7678 93.9443 57.8558C93.9443 57.668 93.4077 57.668 93.4346 57.8558C93.5419 61.0478 93.5687 64.2666 93.5419 67.4854C93.5419 68.3974 93.5419 69.2826 93.515 70.1946C93.515 70.3823 94.0247 70.3823 94.0247 70.1946C94.0784 67.0026 94.0784 63.7838 94.0247 60.565Z" fill="#4B575E"/>
    <path d="M61.5119 92.8871C61.5119 92.8871 61.2168 92.6725 61.029 92.6189C60.6535 92.5116 60.2243 92.5116 59.8755 92.6994C59.1781 93.0212 59.0708 94.0405 59.5536 94.577C59.8219 94.8989 60.2511 95.0598 60.6535 95.033C61.0827 95.033 61.4314 94.8184 61.6997 94.4965C62.0753 93.9869 61.9948 93.2626 61.5119 92.8871Z" fill="#4B575E"/>
    <path d="M61.5119 108.23C61.5119 108.23 61.2168 108.016 61.029 107.962C60.6535 107.855 60.2243 107.855 59.8755 108.042C59.1781 108.364 59.0708 109.384 59.5536 109.92C59.8219 110.242 60.2511 110.403 60.6535 110.376C61.0827 110.376 61.4314 110.161 61.6997 109.84C62.0753 109.33 61.9948 108.606 61.5119 108.23Z" fill="#4B575E"/>
    <path d="M61.5119 123.573C61.5119 123.573 61.2168 123.359 61.029 123.305C60.6535 123.198 60.2243 123.198 59.8755 123.385C59.1781 123.707 59.0708 124.727 59.5536 125.263C59.8219 125.585 60.2511 125.746 60.6535 125.719C61.0827 125.719 61.4314 125.504 61.6997 125.183C62.0753 124.673 61.9948 123.949 61.5119 123.573Z" fill="#4B575E"/>
    <path d="M61.5119 138.943C61.5119 138.943 61.2168 138.728 61.029 138.675C60.6535 138.567 60.2243 138.568 59.8755 138.755C59.1781 139.077 59.0708 140.096 59.5536 140.633C59.8219 140.955 60.2511 141.116 60.6535 141.089C61.0827 141.089 61.4314 140.874 61.6997 140.552C62.0753 140.043 61.9948 139.319 61.5119 138.943Z" fill="#4B575E"/>
    <path d="M37.5834 149.699C36.0006 147.07 34.7935 144.173 34.0423 141.196C33.8277 140.338 33.64 139.479 33.5058 138.621C33.479 138.406 32.9693 138.433 32.9961 138.621C33.5058 141.706 34.4716 144.683 35.8397 147.473C36.2152 148.251 36.6444 149.029 37.1005 149.78C37.2078 149.94 37.7175 149.887 37.6102 149.699H37.5834Z" fill="#4B575E"/>
    <path d="M78.4118 136.1C78.2508 138.326 77.9557 140.525 77.5533 142.698C77.446 143.315 77.3119 143.959 77.1778 144.576C77.151 144.764 77.6606 144.79 77.6875 144.576C78.1435 142.403 78.4922 140.204 78.7337 138.004C78.7873 137.36 78.8678 136.743 78.8946 136.1C78.8946 135.912 78.3849 135.912 78.3849 136.1H78.4118Z" fill="#4B575E"/>
    <path d="M79.4849 158.014C79.4849 158.014 79.2166 158.229 79.0557 158.309C78.7606 158.417 78.4387 158.444 78.1436 158.444C73.2345 158.551 68.3254 158.336 63.4162 158.336H31.1448C30.5278 158.336 29.5889 158.685 29.0524 158.256C28.8915 158.122 28.8646 157.88 28.8378 157.666C28.7305 156.003 28.7305 154.34 28.8378 152.703C28.8378 152.462 28.8646 152.221 28.9988 152.006C29.428 151.416 31.9496 152.006 32.7007 152.006H72.5907C74.0661 152.006 75.5683 151.925 77.0438 151.979C77.6607 151.979 78.707 151.872 79.2703 152.14C79.78 152.381 79.7263 152.623 79.7532 153.213C79.8068 154.393 80.5848 156.995 79.5117 158.041L79.4849 158.014Z" fill="#4B575E"/>
    <path d="M63.631 155.278C63.631 154.152 63.9798 151.765 62.3702 151.523C62.1556 151.496 61.941 151.523 61.7264 151.523C61.5386 151.523 61.3777 151.55 61.1899 151.577C61.0826 151.577 60.9485 151.577 60.8411 151.657C60.6265 151.791 60.707 152.167 60.9484 152.194C61.3777 152.274 61.6996 152.65 61.8874 153.025C62.3166 153.91 62.1824 154.957 62.2093 155.922C62.2093 156.325 62.2093 156.754 62.0483 157.129C61.9142 157.505 61.5923 157.853 61.2167 157.961C60.8948 158.068 60.4388 158.014 60.2778 158.309C60.2778 158.363 60.251 158.39 60.251 158.444C60.251 158.551 60.4119 158.605 60.5192 158.605C60.8948 158.658 61.2704 158.712 61.6459 158.739C61.8874 158.765 62.1288 158.792 62.3702 158.765C62.7458 158.712 63.0945 158.497 63.3091 158.175C63.8188 157.451 63.5774 156.029 63.5774 155.198L63.631 155.278Z" fill="white"/>
    <path d="M55.9319 152.569C55.9319 152.301 55.9051 152.006 55.6637 151.818C55.4491 151.63 55.1272 151.63 54.8857 151.738C54.8589 151.738 54.8321 151.765 54.8321 151.791C54.7784 151.791 54.7516 151.845 54.7248 151.899C54.6175 154.098 54.5102 156.271 54.4297 158.47C54.4297 158.578 54.6175 158.605 54.6979 158.605C54.8857 158.605 55.1003 158.605 55.2881 158.605C55.3954 158.605 55.5295 158.578 55.5564 158.47C55.7978 157.183 55.9319 155.842 55.9588 154.527C55.9588 153.884 55.9588 153.213 55.9319 152.569Z" fill="white"/>
    <path d="M53.2224 155.573C52.9542 154.903 52.1494 154.018 51.8543 153.723C51.0227 152.891 50.1911 152.328 49.0108 152.381C47.5085 152.462 46.0331 152.623 44.5577 152.837C42.8677 153.079 41.1508 153.374 39.4876 153.723C37.9585 154.018 36.51 154.232 35.0614 154.769C34.9004 154.822 34.7126 154.903 34.659 155.091C34.6053 155.252 34.7126 155.413 34.7931 155.547C35.0882 156.056 35.1955 156.62 35.3296 157.21C35.5442 158.256 35.7052 159.382 36.0271 160.428C36.349 161.448 36.8319 161.206 37.7439 160.965C42.6262 159.677 47.5085 158.417 52.3908 157.102C52.6323 157.049 52.8737 156.968 53.0615 156.807C53.3834 156.539 53.3834 155.976 53.2224 155.6V155.573Z" fill="#4B575E"/>
    <path d="M48.2598 152.113C47.3746 152.167 46.4893 152.247 45.6041 152.382C44.7456 152.516 43.8604 152.703 43.002 152.891C41.2314 153.267 39.4341 153.642 37.6636 154.018C36.7515 154.206 35.8395 154.42 34.981 154.769C34.9542 154.769 34.9006 154.769 34.9006 154.769C34.9006 154.769 34.9006 154.769 34.8737 154.796C34.4982 155.144 34.7396 155.735 34.8737 156.164C35.0615 156.807 35.2225 157.451 35.3298 158.095C35.3298 158.202 35.598 158.175 35.598 158.095C35.5176 157.505 35.3834 156.942 35.2225 156.378C35.0883 155.949 34.7396 155.279 35.142 154.903C35.9199 154.581 36.7515 154.367 37.5831 154.206C38.4416 154.018 39.3268 153.83 40.1852 153.669C41.9021 153.294 43.6458 152.918 45.3894 152.596C46.382 152.435 47.3477 152.301 48.3403 152.247C48.5012 152.247 48.5012 152.087 48.3403 152.113H48.2598Z" fill="#4B575E"/>
    <path d="M40.2121 157.102C40.2121 157.102 40.2121 156.834 40.2121 156.727C40.1853 156.593 40.1048 156.512 39.9975 156.432C39.8634 156.351 39.6756 156.325 39.5147 156.351C39.2464 156.378 39.0318 156.539 38.9513 156.807C38.8977 157.076 39.0586 157.317 39.2732 157.478C39.461 157.612 39.7024 157.612 39.917 157.505C39.9707 157.478 40.0243 157.424 40.078 157.371C40.1316 157.317 40.1853 157.263 40.2121 157.21C40.2121 157.21 40.239 157.156 40.239 157.129L40.2121 157.102Z" fill="#4B575E"/>
    <path d="M47.2941 155.412C47.2941 155.412 47.1868 155.252 47.1063 155.198C46.9722 155.117 46.8381 155.117 46.6771 155.117C46.5698 155.117 46.4357 155.171 46.3552 155.252C46.2211 155.332 46.1138 155.493 46.1674 155.654C46.1674 155.734 46.2211 155.815 46.2747 155.895C46.3284 155.976 46.4357 156.029 46.543 156.056C46.7576 156.11 47.0527 156.083 47.1868 155.895C47.2941 155.761 47.3478 155.573 47.2941 155.412Z" fill="#4B575E"/>
    <path d="M54.2685 155.305C54.2685 155.305 54.2685 155.171 54.2149 155.144C54.2149 155.117 54.1612 155.091 54.1344 155.064C54.0807 155.037 54.0539 155.01 54.0003 154.983C53.893 154.956 53.7857 154.93 53.6784 154.956C53.5711 154.956 53.4637 155.01 53.4101 155.117C53.4101 155.117 53.3833 155.144 53.3833 155.171C53.3833 155.198 53.3564 155.225 53.3564 155.278C53.3564 155.305 53.3564 155.359 53.3564 155.386C53.3564 155.386 53.3564 155.412 53.3833 155.412C53.3833 155.439 53.3833 155.466 53.4101 155.52C53.4369 155.6 53.5174 155.654 53.5711 155.681C53.7857 155.788 54.1076 155.761 54.2149 155.547C54.2149 155.52 54.2149 155.466 54.2417 155.439C54.2417 155.412 54.2417 155.359 54.2417 155.332L54.2685 155.305Z" fill="#4B575E"/>
    <path d="M62.7458 155.225C62.7458 155.117 62.6385 155.037 62.5312 154.983C62.4239 154.93 62.2898 154.93 62.1825 154.903C62.0484 154.903 61.9142 154.903 61.7801 154.903C61.5655 154.903 61.3777 154.93 61.1631 154.983C61.1363 154.983 61.1095 154.983 61.0558 155.01C61.0558 155.01 61.029 155.01 61.0022 155.01C60.868 155.01 60.7339 155.091 60.6803 155.198C60.6266 155.305 60.6534 155.439 60.7339 155.52C60.8949 155.734 61.2436 155.734 61.485 155.761C61.7533 155.761 61.9947 155.761 62.263 155.681C62.3971 155.654 62.5044 155.6 62.6117 155.547C62.719 155.493 62.7995 155.386 62.7727 155.252L62.7458 155.225Z" fill="white"/>
    <path d="M148.266 223.088C148.159 231.993 147.139 240.952 145.905 249.67C143.733 265.228 140.084 280.544 135.014 295.404C147.327 294.76 159.291 299.91 171.631 299.857C174.636 299.857 177.694 299.508 180.43 298.301C183.247 297.067 185.634 295.028 188.344 293.526C193.924 290.442 200.657 289.932 206.988 290.924C211.146 291.568 215.357 292.856 219.489 292.105C222.627 291.541 224.076 290.844 226.249 288.403C229.495 284.755 233.518 281.805 237.972 279.766C239.527 279.069 242.693 278.183 242.317 276.145C242.13 275.045 238.374 272.282 237.569 271.29C217.933 245.727 203.018 216.57 193.736 185.696C192.502 181.565 191.348 177.354 189.283 173.545C187.62 170.461 185.393 167.725 183.193 165.015C182.523 164.184 181.825 163.325 180.886 162.816C178.767 161.636 176.406 162.548 174.18 162.038C172.168 161.582 170.907 160.16 168.815 159.785C165.3 159.168 161.625 160.563 158.889 162.869C156.126 165.149 154.141 168.207 152.397 171.346C146.576 181.726 144.967 193.609 146.978 205.358C147.971 211.178 148.347 217.133 148.266 223.088Z" fill="#E4DECF"/>
    <path d="M149.339 312.571C149.071 310.264 149.661 307.743 149.661 305.463C149.661 302.539 149.178 299.535 148.963 296.611C148.507 290.737 148.024 284.836 147.568 278.961C147.247 274.723 146.898 270.485 147.032 266.247C147.247 258.361 149.071 250.609 150.868 242.911C151.914 238.404 151.619 231.296 157.816 231.806C162.296 232.181 171.631 231.35 171.095 237.707C170.612 243.554 169.002 249.268 167.58 254.981C165.247 264.423 163.476 274.026 161.974 283.629C160.606 292.293 160.418 301.788 158.245 310.211C157.923 311.444 157.896 313.537 156.904 314.449C156.34 314.985 155.536 315.173 154.785 315.28C153.819 315.414 153.416 315.146 152.585 314.824C151.619 314.449 150.412 315.012 149.715 314.02C149.5 313.724 149.419 313.349 149.393 312.973C149.393 312.839 149.366 312.705 149.339 312.571Z" fill="#FCD9BA"/>
    <path d="M173.295 216.543C172.678 222.122 172.061 227.702 171.417 233.281C170.88 237.975 169.163 240.014 164.04 240.067C160.981 240.094 157.95 239.933 154.919 239.558C153.953 239.45 152.907 239.263 152.236 238.565C151.566 237.868 151.432 236.848 151.324 235.883C149.983 224.081 148.615 212.278 147.274 200.476C146.254 191.463 145.208 182.37 146.227 173.357C147.327 163.594 160.204 159.329 168.815 161.314C170.505 161.716 173.536 162.145 174.904 163.272C178.526 166.276 177.399 174.618 177.05 178.642C175.923 191.302 174.663 203.936 173.295 216.57V216.543Z" fill="#FCD9BA"/>
    <path d="M165.085 323.542C163.637 323.917 160.713 324.159 159.613 322.925C158.406 321.584 157.252 320.162 155.67 319.223C153.872 318.124 151.834 317.185 149.848 316.461C148.883 316.085 146.576 315.548 146.629 314.207C146.683 312.732 147.81 311.981 148.48 310.801C148.963 309.969 149.392 309.245 150.197 308.682C151.297 307.984 152.719 307.797 153.98 308.065C155.079 308.306 156.662 308.95 157.333 309.942C158.057 311.069 158.54 312.571 159.157 313.778C160.579 316.514 162.135 319.17 164.173 321.476C164.71 322.093 165.193 322.684 165.085 323.542Z" fill="#FCD9BA"/>
    <path d="M169.11 324.803C169.297 324.749 169.485 324.642 169.539 324.508C169.619 324.239 169.378 324.025 169.136 323.891C167.634 322.979 166.105 321.718 164.281 321.691C163.315 321.691 162.376 321.906 161.437 322.12C160.713 322.308 160.15 322.684 159.425 322.254C159.023 322.013 158.701 321.637 158.379 321.289C155.643 318.285 151.566 316.702 147.998 314.905C147.434 314.637 146.871 314.341 146.281 314.154C145.986 314.046 145.61 313.993 145.369 314.234C145.208 314.395 145.181 314.663 145.208 314.905C145.342 316.326 146.603 317.453 147.112 318.767C147.649 320.135 147.703 321.664 147.837 323.113C147.89 323.596 148.32 323.837 148.776 323.837C149.419 323.837 149.473 323.542 149.5 322.952C149.607 321.45 149.419 319.921 149.822 318.445C149.956 317.963 150.439 317.346 151.002 317.399C151.7 317.453 152.773 318.365 153.363 318.741C154.087 319.197 154.811 319.679 155.509 320.189C156.823 321.155 157.843 322.415 158.782 323.73C158.969 323.998 159.157 324.186 159.345 324.347L161.035 324.427H161.491L168.519 324.829H168.546C168.546 324.829 168.868 324.829 169.056 324.749L169.11 324.803Z" fill="#FFFCF5"/>
    <path d="M221.554 309.861C220.213 307.984 219.488 305.489 218.388 303.478C216.994 300.929 215.089 298.515 213.479 296.101C210.207 291.192 206.961 286.257 203.688 281.348C201.354 277.807 198.993 274.267 197.035 270.512C193.414 263.511 191.214 255.839 189.041 248.248C187.78 243.795 184.078 237.733 189.738 235.158C193.816 233.307 201.595 228.05 204.224 233.871C206.639 239.235 208.007 245.002 209.536 250.662C212.353 261.07 215.491 271.397 219.032 281.563C220.803 286.659 222.681 291.702 224.693 296.718C225.98 299.937 230.97 307.045 227.643 309.62C226.865 310.21 226.383 310.183 225.497 310.291C224.478 310.425 223.7 311.498 222.6 310.988C222.278 310.827 222.01 310.532 221.795 310.237C221.715 310.13 221.634 310.022 221.554 309.915V309.861Z" fill="#FCD9BA"/>
    <path d="M200.389 217.079C201.703 222.551 202.991 227.997 204.251 233.469C205.324 238.055 204.386 240.55 199.584 242.347C196.74 243.393 193.789 244.252 190.839 244.922C189.9 245.137 188.853 245.324 187.995 244.895C187.137 244.466 186.654 243.554 186.224 242.669C180.993 232.02 175.736 221.344 170.505 210.695C166.508 202.568 162.484 194.333 160.418 185.508C158.192 175.932 168.868 167.59 177.64 166.544C179.357 166.356 182.362 165.739 184.025 166.356C188.451 167.966 190.195 176.201 191.214 180.09C194.406 192.402 197.491 204.714 200.442 217.079H200.389Z" fill="#FCD9BA"/>
    <path d="M240.628 311.82C239.554 312.839 237.113 314.475 235.557 313.939C233.841 313.349 232.151 312.678 230.326 312.598C228.234 312.517 225.981 312.678 223.888 313C222.869 313.161 220.589 313.778 219.998 312.598C219.328 311.283 219.945 310.076 219.972 308.735C219.972 307.769 220.025 306.938 220.428 306.053C221.072 304.899 222.198 304.041 223.432 303.665C224.505 303.344 226.222 303.129 227.268 303.665C228.449 304.282 229.602 305.382 230.729 306.133C233.277 307.823 235.96 309.406 238.857 310.425C239.608 310.693 240.332 310.988 240.654 311.793L240.628 311.82Z" fill="#FCD9BA"/>
    <path d="M244.759 310.961C244.893 310.827 245.027 310.64 245 310.505C244.946 310.237 244.624 310.157 244.329 310.157C242.586 310.076 240.601 309.728 239.018 310.586C238.186 311.042 237.462 311.686 236.738 312.329C236.201 312.839 235.906 313.456 235.048 313.429C234.565 313.429 234.136 313.241 233.679 313.08C229.843 311.793 225.498 312.383 221.527 312.544C220.91 312.571 220.267 312.598 219.65 312.732C219.328 312.785 218.979 312.919 218.898 313.241C218.818 313.483 218.925 313.724 219.086 313.912C219.891 315.092 221.554 315.468 222.627 316.353C223.781 317.292 224.559 318.606 225.363 319.813C225.632 320.215 226.141 320.215 226.544 320.001C227.107 319.706 227 319.411 226.758 318.874C226.141 317.506 225.229 316.272 224.854 314.77C224.746 314.287 224.854 313.51 225.39 313.295C226.034 313 227.402 313.295 228.1 313.295C228.958 313.349 229.817 313.402 230.675 313.51C232.285 313.724 233.787 314.314 235.235 315.012C235.53 315.146 235.799 315.226 236.04 315.28C236.04 315.28 237.569 314.556 237.569 314.529L237.972 314.341L244.302 311.256C244.302 311.256 244.571 311.069 244.705 310.935L244.759 310.961Z" fill="#FFFDF8"/>
    <path d="M159.747 101.095C161.893 103.912 164.978 105.843 167.178 108.632C168.519 110.322 169.995 111.878 171.604 113.327C176.969 118.155 185.607 121.883 192.394 117.538C194.031 116.492 195.399 115.043 197.116 114.185C200.066 112.71 203.688 113.192 206.666 111.798C212.406 109.115 214.74 100.237 213.372 94.577C212.97 92.8871 212.514 91.1167 211.441 89.7487C210.233 88.2198 208.382 87.3883 206.585 86.6909C204.788 85.9935 202.883 85.3497 201.408 84.1158C199.154 82.2382 199.745 80.4947 199.476 78.0537C199.235 75.8274 197.625 73.3328 195.935 71.9648C192.314 69.0142 186.815 69.5239 183.032 66.7879C180.162 64.6957 179.035 61.2355 177.452 58.2312C175.789 55.1197 173.026 52.652 169.78 51.284C166.963 50.1037 163.288 51.3376 160.633 52.5715C154.972 55.2002 150.868 60.5917 150.171 66.8416C149.902 69.1484 150.439 71.5088 150.331 73.8425C150.278 75.1032 150.036 76.3639 150.01 77.6246C149.929 82.1309 152.665 85.3765 154.114 89.4C155.616 93.5845 157.011 97.5544 159.747 101.149V101.095Z" fill="#B36332"/>
    <path d="M184.802 141.84C183.81 138.407 183.622 134.812 183.461 131.272C183.22 125.317 183.059 119.362 183.032 113.407C183.032 110.43 183.032 107.452 183.086 104.475C183.139 101.551 182.656 98.7615 182.361 95.8914C182.2 94.1747 182.764 92.5385 184.829 92.6994C185.849 92.7799 186.761 93.3432 187.485 94.0406C190.194 96.6157 190.785 100.639 191.241 104.341C191.965 110.027 193.494 115.955 193.494 121.642C193.494 127.758 195.318 134.088 196.901 139.935C197.518 142.242 198.001 144.415 197.008 146.668C196.552 147.687 195.774 148.573 194.862 149.216C192.931 150.611 190.999 151.228 189.256 149.538C187.109 147.446 185.661 144.737 184.829 141.867L184.802 141.84Z" fill="#FCD9BA"/>
    <path d="M190.812 138.326C189.47 138.997 188.344 140.177 187.646 141.437C184.883 146.453 190.463 151.925 193.843 155.037C202.669 163.218 211.977 170.863 221.366 178.4C222.761 179.5 224.666 180.6 226.061 178.963C227.053 177.81 227.536 175.906 226.49 174.672C221.742 168.985 216.752 163.433 212.38 157.478C208.034 151.604 203.232 146.024 198.135 140.794C197.062 139.667 195.909 138.541 194.433 138.031C193.172 137.602 191.938 137.79 190.865 138.326H190.812Z" fill="#FCD9BA"/>
    <path d="M228.555 174.403C230.138 174.377 231.721 174.538 233.223 175.128C234.35 175.584 235.369 176.281 236.308 177.059C236.657 177.354 239.795 179.849 238.588 180.224C238.4 180.278 238.213 180.224 238.025 180.197C237.649 180.117 237.301 180.01 236.925 179.929C236.925 180.17 236.737 180.358 236.496 180.412C236.254 180.466 236.04 180.358 235.825 180.278C235.02 179.902 234.323 179.258 233.491 178.937C232.982 178.722 232.445 178.642 231.882 178.561C230.648 178.373 229.199 177.998 227.992 178.4C227.831 178.454 227.67 178.534 227.59 178.668C227.509 178.856 227.59 179.071 227.751 179.258C228.448 180.224 229.36 180.626 230.487 180.814C230.889 180.868 232.365 181.002 232.552 181.458C232.847 182.209 228.314 182.719 227.751 182.611C226.731 182.397 225.792 181.86 224.934 181.27C224.344 180.868 223.754 180.439 223.244 179.902C222.332 178.963 221.339 177.542 222.224 176.281C222.868 175.369 224.102 174.886 225.148 174.725C226.275 174.564 227.429 174.43 228.582 174.403H228.555Z" fill="#FCD9BA"/>
    <path d="M192.877 98.4127C194.192 99.9417 195.426 101.551 196.686 103.134C197.733 104.475 198.779 105.816 199.53 107.318C200.388 109.008 200.871 110.886 201.73 112.576C202.374 113.836 203.259 114.963 204.305 115.928C204.493 116.116 204.707 116.304 204.761 116.572C204.761 116.76 204.734 116.948 204.654 117.109C203.742 119.469 201.569 121.883 199.262 123.01C196.686 124.297 193.682 124.271 191.16 125.692C189.363 126.711 187.968 128.401 186.063 129.26C183.917 130.198 181.288 130.011 179.438 131.432C179.518 131.352 179.786 129.582 179.92 129.233C180.215 128.509 180.537 127.892 180.752 127.114C182.496 120.837 183.73 114.373 184.052 107.855C184.212 104.609 184.105 101.363 183.756 98.1177C183.569 96.4278 183.3 91.5728 186.412 92.4579C187.056 92.6457 187.566 93.0481 188.075 93.4772C189.819 94.9525 191.375 96.6156 192.877 98.3591V98.4127Z" fill="#FFFDF8"/>
    <path d="M202.508 221.639C201.166 224.215 199.342 226.521 198.135 229.15C194.701 236.714 196.928 245.834 193.897 253.586C190.195 263.082 179.598 268.259 174.904 277.325C173.026 280.946 172.087 285.184 169.136 287.974C163.154 293.58 153.121 289.959 145.449 292.882C143.84 293.499 142.337 294.411 140.701 295.001C134.397 297.255 127.556 294.304 121.521 291.407C126.564 259.997 130.507 228.426 133.378 196.747C134.504 184.382 135.497 171.882 138.823 159.892C140.433 154.098 142.471 147.714 145.825 142.644C147.407 140.284 148.963 137.816 149.688 135.053C150.466 132.103 149.822 129.581 149.553 126.658C149.258 123.439 148.454 120.274 147.756 117.109C147.059 113.943 145.503 110.054 145.503 106.808C144.698 103.107 143.866 99.3783 143.759 95.5694C143.625 90.9826 145.637 84.5718 150.17 82.4259C153.014 81.0848 156.045 82.4796 158.701 83.6598C158.808 83.7135 158.889 83.7403 158.996 83.7939C159.238 83.9012 159.506 84.0085 159.747 84.1158C162.993 85.457 166.481 86.1812 169.941 86.7445C171.175 86.9323 172.302 87.3078 173.375 87.7101C175.011 88.3271 176.594 89.105 178.418 89.6414C178.901 89.7755 179.384 89.9097 179.867 90.0706C180.403 90.2315 180.94 90.3657 181.476 90.5266C185.071 91.5995 189.899 93.1821 189.846 97.6348C189.846 99.5393 189.175 101.39 188.961 103.268C188.585 106.647 189.578 110.027 189.578 113.434C189.578 120.274 185.634 126.416 183.89 133.015C180.323 146.534 184.776 161.662 189.443 174.403C190.087 176.12 190.731 177.864 191.429 179.58C194.272 186.742 197.357 193.797 200.066 201.012C201.461 204.714 202.749 208.442 203.849 212.224C204.922 215.953 204.251 218.179 202.427 221.639H202.508Z" fill="#FFFDF8"/>
    <path d="M179.894 95.1135C179.652 96.6693 179.303 98.1714 178.955 99.5394C178.499 101.417 177.882 103.241 177.13 105.038C176.943 105.494 174.716 109.598 174.797 109.679C168.68 102.946 163.315 95.5427 158.782 87.6298C158.379 86.9055 157.36 84.9206 157.923 84.1159C158.084 83.9013 158.379 83.7404 158.755 83.6599C158.862 83.7136 158.943 83.7404 159.05 83.794C159.291 83.9013 159.56 84.0086 159.801 84.1159C163.047 85.4571 166.534 86.1813 169.995 86.7446C171.229 86.9324 172.356 87.3079 173.429 87.7102C175.065 88.3272 176.648 89.1051 178.472 89.6415C178.955 89.7756 179.438 89.9098 179.92 90.0707C180.323 91.6801 180.135 93.5041 179.894 95.1403V95.1135Z" fill="#FCD9BA"/>
    <path d="M130.185 77.6514C130.48 79.6363 131.446 81.4335 132.197 83.2843C133.431 86.3422 134.075 89.6414 134.048 92.9407C134.048 95.1671 133.753 97.4739 134.531 99.5393C135.095 101.068 136.194 102.302 137.106 103.643C138.528 105.709 139.601 107.989 141.077 110.027C142.552 112.066 144.537 113.89 146.978 114.399C146.147 107.238 147.649 99.9416 146.683 92.7798C146.254 89.5073 145.288 86.3422 144.349 83.2038C143.545 80.5751 142.713 77.9196 141.479 75.4787C140.782 74.1107 139.923 72.7963 138.77 71.8039C137.455 70.6505 133.619 68.0486 131.983 69.6848C131.285 70.3554 130.963 71.938 130.695 72.8232C130.212 74.3789 129.944 76.042 130.185 77.6782V77.6514Z" fill="#E4DECF"/>
    <path d="M120.474 62.8986C121.547 66.3052 123.398 69.3898 125.249 72.4209C128.361 77.5173 131.553 82.5333 134.853 87.4956C136.489 89.9902 138.152 92.458 139.869 94.8989C141.533 97.2594 142.713 99.5394 143.947 102.195C144.215 102.785 144.537 103.429 145.074 103.804C146.308 104.689 148.051 103.858 149.232 102.892C152.29 100.317 154.328 96.6156 155.026 92.6726C155.348 90.8754 155.697 88.2199 154.972 86.4764C154.167 84.5182 151.726 82.7211 150.251 81.2458C145.717 76.7395 141.533 71.8576 137.777 66.6807C135.872 64.052 134.048 61.3428 132.358 58.58C131.017 56.3537 130.239 53.564 127.932 52.1156C126.966 51.5254 125.839 51.2304 124.713 51.2036C122.352 51.1231 120.367 51.6864 119.884 54.0737C119.267 57.0242 119.562 60.0553 120.474 62.8986Z" fill="#FCD9BA"/>
    <path d="M127.422 62.4694C125.947 62.6572 124.337 62.3085 123.05 61.6379C117.953 59.036 119.562 51.3645 120.609 46.885C123.372 35.1632 126.832 23.6559 130.454 12.1487C130.99 10.4588 131.983 8.47387 134.021 9.06398C135.497 9.49316 136.946 10.7807 136.785 12.3901C136.007 19.7397 134.96 27.143 134.638 34.5462C134.317 41.8422 133.405 49.165 132.117 56.3537C131.849 57.8826 131.527 59.4652 130.561 60.6991C129.756 61.7452 128.63 62.2816 127.422 62.4426V62.4694Z" fill="#FCD9BA"/>
    <path d="M130.883 4.74538C131.527 3.29692 132.466 1.84845 133.914 1.23151C134.934 0.802339 136.06 0.829162 137.16 0.936456C138.072 1.01693 138.958 1.15104 139.843 1.33881C140.218 1.41928 140.594 1.52657 140.835 1.79481C141.184 2.22398 141.023 2.86774 140.755 3.35056C140.192 4.39668 139.253 5.17456 138.689 6.22067C137.885 7.72278 137.992 9.54677 137.777 11.2635C137.643 12.4169 137.321 13.5703 136.892 14.6432C136.624 15.3138 136.275 15.9576 135.739 16.4672C134.907 17.2183 133.727 17.4865 132.6 17.3792C131.715 17.2987 129.998 17.0037 129.569 16.1453C129.086 15.1797 129.193 13.4093 129.22 12.3364C129.22 9.70771 129.81 7.10584 130.883 4.71856V4.74538Z" fill="#FCD9BA"/>
    <path d="M135.872 1.25838C135.39 1.3925 135.014 1.66074 134.665 2.00944C134.29 2.35814 133.941 2.73367 133.646 3.13602C133.029 3.94073 132.519 4.8259 132.144 5.76472C132.117 5.87201 132.358 5.87201 132.385 5.79154C132.734 4.90637 133.217 4.04802 133.78 3.29696C134.075 2.92144 134.37 2.57273 134.719 2.22403C135.068 1.87532 135.443 1.52662 135.926 1.3925C136.087 1.33885 135.98 1.23156 135.846 1.25838H135.872Z" fill="#DEA978"/>
    <path d="M138.287 1.44617C136.436 2.30452 135.417 4.12851 134.451 5.84521C134.397 5.92568 134.666 5.9525 134.692 5.87203C135.604 4.20898 136.624 2.41181 138.394 1.58028C138.555 1.49981 138.367 1.41934 138.26 1.47299L138.287 1.44617Z" fill="#DEA978"/>
    <path d="M140.164 2.14357C138.716 3.05557 137.884 4.5845 137.133 6.05979C137.079 6.14026 137.348 6.16709 137.374 6.08662C138.126 4.66498 138.93 3.13604 140.352 2.25087C140.486 2.1704 140.245 2.11675 140.164 2.14357Z" fill="#DEA978"/>
    <path d="M151.727 80.4947C148.186 75.6397 143.598 71.4016 139.36 68.2096C140.165 68.8265 140.192 70.9992 140.245 71.9112C140.326 73.5475 140.138 75.1569 139.655 76.7126C139.172 78.2684 138.367 79.7705 138.206 81.3799C137.992 83.4721 138.823 85.4839 139.414 87.4956C140.487 91.2509 140.674 95.2476 139.977 99.0833C139.736 100.451 139.36 101.819 139.44 103.214C139.521 104.609 140.031 105.95 140.648 107.211C141.882 109.759 143.598 112.28 146.308 113.38C147.193 113.729 148.078 114.078 148.99 114.453C149.607 113.809 150.359 112.736 151.136 112.307C151.7 111.985 152.451 112.039 153.095 111.851C154.382 111.529 155.134 110.859 155.482 109.544C156.555 105.682 157.28 101.766 157.601 97.769C158.111 91.6264 155.563 85.6716 151.753 80.4679L151.727 80.4947Z" fill="#FFFDF8"/>
    <path d="M188.907 108.579L188.451 102.248C188.451 102.061 187.915 102.061 187.942 102.248C188.076 104.126 188.21 106.004 188.344 107.855C188.478 109.705 188.639 111.556 188.693 113.407C188.746 115.177 188.666 116.948 188.344 118.691C188.049 120.381 187.566 122.044 186.976 123.654C186.332 125.478 185.554 127.248 184.776 129.018C184.696 129.206 185.205 129.26 185.286 129.072C186.708 125.934 188.049 122.715 188.746 119.335C189.095 117.618 189.256 115.848 189.256 114.104C189.256 112.254 189.068 110.376 188.934 108.525L188.907 108.579Z" fill="#E4DECF"/>
    <path d="M192.609 100.693L190.463 107.694C190.249 108.364 190.061 109.008 189.846 109.679C189.793 109.893 190.302 109.92 190.356 109.732L192.502 102.731C192.717 102.061 192.904 101.417 193.119 100.746C193.173 100.532 192.663 100.505 192.609 100.693Z" fill="#E4DECF"/>
    <path d="M149.688 90.6876C147.113 90.0975 145.047 88.354 143.25 86.5032C142.74 85.9667 142.231 85.4302 141.721 84.8669C141.614 84.7328 141.104 84.8401 141.292 85.0279C143.062 86.986 144.94 88.9977 147.327 90.2048C147.998 90.5267 148.696 90.7949 149.42 90.9559C149.527 90.9559 149.688 90.9827 149.769 90.9022C149.849 90.8217 149.769 90.7413 149.661 90.7144L149.688 90.6876Z" fill="#E4DECF"/>
    <path d="M147.81 99.2174C147.81 99.2174 147.542 99.1369 147.461 99.1906C145.905 99.6734 144.242 99.7002 142.686 99.2978C142.579 99.271 142.418 99.2978 142.337 99.3515C142.257 99.432 142.337 99.5124 142.445 99.5393C144.188 99.9953 146.013 99.9684 147.729 99.432C147.81 99.4051 147.89 99.3247 147.81 99.2442V99.2174Z" fill="#E4DECF"/>
    <path d="M154.168 104.609C153.336 106.245 152.531 107.908 151.7 109.545C151.298 110.376 150.868 111.181 150.466 112.012C150.251 112.415 150.064 112.844 149.849 113.246C149.742 113.434 149.661 113.649 149.554 113.836C149.473 113.997 149.393 114.158 149.259 114.265C149.098 114.426 148.91 114.4 148.695 114.346C148.454 114.265 148.213 114.185 147.971 114.105C147.488 113.944 147.005 113.783 146.496 113.622C146.388 113.595 146.227 113.622 146.147 113.675C146.066 113.756 146.147 113.836 146.254 113.863C146.71 114.024 147.193 114.158 147.649 114.319C148.078 114.453 148.561 114.668 149.017 114.641C149.42 114.641 149.715 114.4 149.903 114.078C150.144 113.675 150.332 113.246 150.52 112.844C151.405 111.1 152.263 109.33 153.148 107.586C153.631 106.594 154.141 105.628 154.624 104.636C154.704 104.448 154.195 104.421 154.114 104.582L154.168 104.609Z" fill="#E4DECF"/>
    <path d="M150.6 133.766C151.915 134.115 153.229 134.464 154.544 134.812C155.214 134.973 155.858 135.134 156.529 135.295C157.173 135.456 157.87 135.536 158.487 135.751C159.104 135.939 159.775 136.019 160.445 136.127C161.196 136.261 161.921 136.395 162.672 136.502C164.711 136.797 166.776 136.958 168.842 136.985C169.888 136.985 170.934 137.012 172.007 137.065C173.053 137.119 174.1 137.2 175.146 137.28C177.48 137.468 179.84 137.736 182.174 138.058C182.281 138.058 182.442 138.058 182.496 137.951C182.55 137.843 182.389 137.79 182.308 137.763C180.243 137.468 178.15 137.253 176.058 137.065C173.965 136.878 171.873 136.717 169.781 136.69C168.734 136.69 167.688 136.69 166.642 136.609C165.649 136.556 164.657 136.448 163.664 136.314C162.216 136.127 160.794 135.885 159.372 135.59C160.231 134.651 161.062 133.712 161.894 132.747C163.208 131.191 164.469 129.608 165.649 127.945C166.857 126.282 167.983 124.593 169.056 122.849C170.129 121.132 171.149 119.362 172.088 117.538C173.027 115.714 173.912 113.89 174.717 112.012C174.824 111.771 174.904 111.556 175.012 111.315C175.092 111.127 174.582 111.074 174.502 111.234C173.724 113.112 172.866 114.963 171.927 116.76C171.015 118.584 170.022 120.354 168.949 122.098C167.903 123.841 166.776 125.531 165.623 127.168C164.442 128.831 163.208 130.44 161.894 132.023C160.928 133.203 159.909 134.356 158.889 135.456C158.46 135.376 158.031 135.268 157.629 135.188C155.375 134.678 153.149 134.088 150.922 133.471C150.815 133.444 150.654 133.444 150.573 133.525C150.493 133.605 150.573 133.686 150.654 133.712L150.6 133.766Z" fill="#E4DECF"/>
    <path d="M187.566 170.541C185.983 167.966 183.837 165.793 181.289 164.157C179.947 163.299 178.526 162.574 177.345 161.501C176.299 160.536 175.494 159.356 174.77 158.095C174.046 156.834 173.429 155.493 172.704 154.232C171.98 152.945 171.122 151.738 170.129 150.665C169.11 149.565 167.983 148.573 166.749 147.741C165.488 146.883 164.093 146.239 162.779 145.434C162.108 145.032 161.491 144.603 160.928 144.066C160.418 143.557 159.962 142.993 159.56 142.376C158.889 141.33 158.406 140.204 157.977 139.05C158.943 139.399 159.935 139.721 160.955 139.962C163.074 140.472 165.247 140.66 167.393 140.767C169.593 140.874 171.819 140.955 174.046 141.062L180.779 141.357C181.047 141.357 181.342 141.357 181.611 141.384C181.691 141.384 181.879 141.357 181.879 141.25C181.879 141.142 181.691 141.116 181.611 141.116L174.877 140.821C172.651 140.713 170.424 140.633 168.198 140.525C166.025 140.418 163.852 140.284 161.733 139.828C159.774 139.399 157.897 138.648 156.019 138.004C154.168 137.36 152.236 136.797 150.251 136.717C150.01 136.717 149.768 136.717 149.5 136.717C149.42 136.717 149.232 136.743 149.232 136.851C149.232 136.958 149.42 136.985 149.5 136.985C151.485 136.931 153.39 137.441 155.241 138.058C155.938 138.299 156.636 138.541 157.306 138.782C158.138 141.089 159.211 143.315 161.223 144.844C162.457 145.783 163.879 146.427 165.22 147.205C166.508 147.956 167.715 148.868 168.788 149.914C169.861 150.96 170.827 152.14 171.631 153.428C172.409 154.661 173.026 155.949 173.724 157.236C174.395 158.497 175.119 159.731 176.085 160.831C177.104 162.011 178.392 162.843 179.706 163.647C180.377 164.05 181.047 164.452 181.691 164.908C182.308 165.337 182.898 165.82 183.435 166.303C184.561 167.322 185.554 168.449 186.412 169.683C186.627 169.978 186.815 170.299 187.003 170.621C187.11 170.782 187.62 170.729 187.512 170.541H187.566Z" fill="#E4DECF"/>
    <path d="M175.226 211.903C175.226 211.5 175.172 211.098 175.145 210.722C175.145 210.535 174.609 210.535 174.636 210.722C174.85 213.834 174.984 216.972 175.038 220.084C175.065 223.195 175.038 226.307 174.85 229.418C174.689 232.53 174.448 235.668 174.099 238.753C173.75 241.864 173.321 244.949 172.785 248.034C172.248 251.118 171.631 254.176 170.907 257.207C170.826 257.61 170.719 257.985 170.612 258.388C170.558 258.602 171.068 258.629 171.122 258.468C171.873 255.464 172.516 252.406 173.08 249.348C173.643 246.263 174.126 243.152 174.475 240.04C174.85 236.929 175.119 233.817 175.306 230.706C175.494 227.567 175.575 224.429 175.575 221.291C175.575 218.179 175.467 215.041 175.253 211.929L175.226 211.903Z" fill="#E4DECF"/>
    <path d="M146.013 224.241C145.503 227.514 144.913 230.786 144.269 234.059C143.625 237.331 142.901 240.55 142.123 243.796C141.667 245.62 141.211 247.417 140.728 249.241C140.674 249.455 141.184 249.482 141.238 249.321C142.096 246.103 142.901 242.857 143.625 239.611C144.35 236.366 145.02 233.12 145.61 229.848C145.959 227.997 146.254 226.146 146.549 224.268C146.576 224.08 146.066 224.054 146.04 224.268L146.013 224.241Z" fill="#E4DECF"/>
    <path d="M175.923 92.0019C175.36 92.297 174.555 92.0556 173.938 92.1092C171.953 92.2165 169.968 92.2434 167.983 92.297C166.481 92.3238 164.737 92.5384 163.262 92.1092C162.859 92.0019 162.215 92.0288 161.893 91.8678C161.813 91.841 161.733 91.7605 161.652 91.6801C161.196 91.4923 160.794 91.1972 160.579 90.7681C160.364 90.3121 160.391 89.7488 160.472 89.2391C160.66 87.9784 161.089 86.7714 161.223 85.5107C161.357 84.1695 161.437 82.8283 161.437 81.514C161.437 80.441 161.384 79.3949 161.276 78.322C161.196 77.5441 160.874 76.4712 161.518 75.8542C162.135 75.291 163.315 75.5055 164.093 75.4251C165.569 75.2373 167.151 74.9154 168.627 74.9422C169.056 74.9422 169.485 75.0764 169.914 75.2105C170.156 75.291 170.424 75.3446 170.666 75.3982C170.773 75.3982 170.907 75.4519 171.014 75.4787C171.256 75.5324 171.497 75.586 171.712 75.6665C171.819 75.6933 171.926 75.7201 172.034 75.747C172.221 75.8006 172.436 75.8811 172.624 75.9347C172.865 76.0152 173.08 76.0957 173.241 76.1761C173.482 76.3102 173.643 76.498 173.804 76.9004C174.314 78.322 174.394 80.0923 174.689 81.5945C174.824 82.265 174.931 82.9356 175.065 83.5794C175.467 85.6716 175.843 87.737 176.245 89.8292C176.379 90.5803 176.728 91.6264 175.897 92.0288L175.923 92.0019Z" fill="#FCD9BA"/>
    <path d="M175.118 83.5794C174.206 84.2768 173.026 84.7059 171.953 84.8401C169.807 85.0815 167.554 84.3036 165.998 82.7747C165.488 82.2918 164.898 81.5676 164.469 80.8165C164.12 80.1728 163.852 79.5022 163.852 78.8853C163.852 77.6514 165.166 77.0076 166.051 76.4443C167.178 75.7201 168.6 75.3714 169.941 75.2104C170.182 75.2909 170.451 75.3446 170.692 75.3982C170.799 75.3982 170.934 75.4519 171.041 75.4787C171.282 75.5323 171.524 75.586 171.738 75.6664C171.846 75.6933 171.953 75.7201 172.06 75.7469C172.248 75.8006 172.463 75.881 172.65 75.9347C172.865 76.0152 173.053 76.0956 173.267 76.1761C173.509 76.3102 173.67 76.498 173.831 76.9003C174.34 78.322 174.421 80.0923 174.716 81.5944C174.85 82.265 174.957 82.9356 175.092 83.5794H175.118Z" fill="#DEA978"/>
    <path d="M160.606 77.1149C162.296 79.1803 164.415 80.9775 166.91 82.0772C169.405 83.177 173.428 82.9624 175.414 80.7629C176.808 79.2071 177.721 77.5977 178.15 75.5055C178.284 74.7813 178.364 74.0302 178.418 73.306C178.606 71.1601 178.579 68.9606 178.123 66.8415C177.962 66.0637 177.747 65.2858 177.506 64.5079C176.969 62.8448 176.272 61.2354 175.44 59.7333C174.743 58.4726 174.099 57.1583 173.026 56.1926C171.014 54.315 168.358 53.0275 165.568 53.1079C164.361 53.1348 163.208 53.4835 162.081 53.8858C161.035 54.2613 159.962 54.7173 159.103 55.4416C158.299 56.1122 157.655 56.9705 157.092 57.8557C156.179 59.331 155.482 60.9404 155.214 62.6303C154.784 65.2858 155.804 67.5926 156.662 70.0603C157.548 72.6354 158.916 74.9958 160.659 77.1149H160.606Z" fill="#FCD9BA"/>
    <path d="M170.451 66.9489C170.451 66.9489 170.424 66.9489 170.397 66.9489C169.995 67.083 170.37 68.1291 170.451 68.3973C170.612 68.9606 170.88 69.4971 171.202 70.0067C171.604 70.6505 172.114 71.187 172.516 71.8039C172.999 72.5818 172.087 73.306 171.47 73.6815C171.148 73.8693 171.47 74.0302 171.712 73.8961C172.275 73.5742 172.972 73.0378 173.16 72.3672C173.241 72.0185 173.107 71.7234 172.919 71.4552C172.677 71.1065 172.382 70.7846 172.141 70.4627C171.765 69.9531 171.443 69.4166 171.202 68.8265C171.068 68.5314 170.961 68.2364 170.907 67.9145C170.853 67.6463 170.88 67.2171 170.665 67.0293C170.612 66.9757 170.531 66.9489 170.478 66.9757L170.451 66.9489Z" fill="#DEA978"/>
    <path d="M176.54 64.186C176.54 64.186 176.594 64.2129 176.621 64.2129C176.648 64.2129 176.809 64.347 176.835 64.2665C176.835 64.2129 176.835 64.1592 176.809 64.1056C176.648 63.8105 176.406 63.6227 176.165 63.435C175.628 63.0595 175.119 62.818 174.502 62.7912C173.777 62.7376 173.08 62.8717 172.356 63.0595C171.98 63.1667 171.148 63.4082 171.524 64.1056C171.658 64.347 171.926 64.3738 172.141 64.3202C172.409 64.2665 172.677 64.186 172.946 64.0519C173.294 63.8642 173.643 63.6496 174.046 63.5423C174.448 63.435 174.85 63.4618 175.253 63.5423C175.575 63.6227 175.87 63.7569 176.165 63.9178C176.299 63.9983 176.433 64.0787 176.54 64.1324V64.186Z" fill="#B36332"/>
    <path d="M161.115 68.3169C161.089 67.6463 161.947 66.7611 162.376 66.3319C163.315 65.3931 164.549 64.803 165.864 64.6957C166.346 64.6689 167.017 65.0712 166.588 65.6345C166.454 65.7955 166.266 65.9028 166.078 65.9564C165.649 66.1442 165.166 66.2783 164.683 66.3588C164.039 66.4661 163.342 66.4661 162.752 66.7879C162.403 67.0025 162.135 67.2976 161.893 67.5927C161.706 67.8072 161.41 68.2901 161.115 68.2901V68.3169Z" fill="#B36332"/>
    <path d="M165.086 67.8341C164.871 67.7 164.603 67.7804 164.415 67.9414C164.227 68.0487 164.093 68.2096 164.013 68.3974C163.905 68.6656 163.932 68.9875 164.039 69.2557C164.12 69.4971 164.281 69.7385 164.496 69.9263C164.737 70.1141 165.059 70.1141 165.327 69.9263C165.327 69.9263 165.327 69.9263 165.354 69.8995C165.381 69.8995 165.434 69.8458 165.461 69.819C165.461 69.819 165.515 69.7654 165.542 69.7654C165.595 69.7117 165.622 69.6581 165.676 69.6044C165.837 69.3094 165.81 68.9607 165.676 68.6656C165.622 68.4778 165.515 68.3169 165.408 68.156C165.327 68.0218 165.22 67.8877 165.086 67.8073V67.8341Z" fill="#1A8B93"/>
    <path d="M174.287 66.1709C174.072 66.01 173.804 66.0636 173.59 66.1977C173.402 66.2782 173.241 66.4391 173.16 66.6269C173.026 66.8951 173.026 67.217 173.08 67.4853C173.134 67.7535 173.241 67.9949 173.455 68.2095C173.67 68.4241 173.992 68.4509 174.287 68.3168C174.287 68.3168 174.287 68.3168 174.314 68.3168C174.368 68.3168 174.394 68.2631 174.421 68.2363C174.421 68.2363 174.475 68.2095 174.502 68.1827C174.555 68.129 174.609 68.1022 174.636 68.0485C174.824 67.7803 174.824 67.4048 174.77 67.1097C174.743 66.922 174.663 66.7342 174.555 66.5733C174.475 66.4391 174.394 66.2782 174.26 66.1977L174.287 66.1709Z" fill="#1A8B93"/>
    <path d="M169.19 56.3536C169.7 56.4072 170.236 56.5413 170.746 56.7291C172.973 57.5875 175.065 59.4919 176.218 61.5573C176.514 62.0938 176.943 62.5498 177.292 63.0594C177.506 63.3545 178.284 64.1592 178.257 64.5079C178.257 63.6227 177.989 62.523 177.801 61.6378C177.56 60.5649 177.211 59.5187 176.728 58.5263C175.789 56.5413 174.421 54.771 172.731 53.403C171.953 52.7592 171.336 52.7861 170.424 52.6251C169.432 52.4642 168.439 52.3301 167.446 52.2496C166.159 52.1691 164.818 52.0618 163.557 52.3032C162.323 52.5178 161.169 53.0007 160.016 53.4567C158.916 53.9127 157.762 54.3955 156.931 55.2806C155.831 56.4341 155.482 58.0703 155.268 59.5992C155.16 60.3234 154.811 60.8599 154.704 61.5841C154.624 62.1206 154.704 62.6839 154.704 63.2204C154.597 66.3587 152.585 69.5507 151.458 72.394C150.358 75.1836 149.607 78.2951 150.6 81.1384C151.217 82.8819 152.451 84.3304 153.336 85.9398C155.402 89.5878 155.804 93.9332 155.858 98.1176C155.858 99.7002 155.858 101.336 156.421 102.812C157.145 104.797 158.809 106.299 160.606 107.425C162.162 108.391 163.905 109.169 165.756 109.196C167.607 109.223 169.512 108.391 170.451 106.808C170.853 106.111 170.961 105.36 171.256 104.636C171.524 103.992 172.007 103.509 172.356 102.892C173.107 101.551 173.294 99.888 172.999 98.3859C172.543 96.1863 171.202 94.2819 169.673 92.6188C168.359 91.1972 166.829 89.9097 166.025 88.1393C165.22 86.3422 165.247 84.3036 165.032 82.3723C164.764 80.0655 164.093 77.8123 163.047 75.7201C161.947 73.4669 160.123 71.1601 160.016 68.5582C159.908 66.1441 160.123 63.4081 161.089 61.155C162.35 58.2312 166.025 55.9244 169.19 56.2999V56.3536Z" fill="#B36332"/>
    <path d="M172.624 75.4519C172.383 75.3714 172.114 75.3446 171.927 75.3178C171.175 75.2373 168.761 74.7813 168.573 75.8811C168.493 76.2834 168.949 76.6589 169.217 76.8735C169.727 77.2759 170.263 77.4905 170.934 77.4636C171.846 77.4636 172.651 77.1149 173.161 76.3639C173.509 75.8274 173.107 75.5592 172.624 75.4251V75.4519Z" fill="#E9B8A2"/>
    <path d="M159.506 63.4349C159.345 63.1667 159.158 62.9253 158.889 62.7643C158.567 62.5766 158.165 62.4961 157.87 62.2815C157.467 61.9865 157.226 61.5036 156.824 61.2354C156.287 60.8599 155.59 60.9403 154.973 61.1549C154.356 61.3963 153.739 61.6914 153.149 61.9328C152.639 62.1474 152.263 62.5498 152.183 63.113C152.183 63.274 152.183 63.4349 152.102 63.5959C151.995 63.9177 151.78 63.8909 151.566 64.0519C151.405 64.186 151.244 64.4006 151.137 64.5883C150.868 65.0712 150.815 65.6881 150.895 66.2514C151.002 66.8951 150.654 67.8071 151.029 68.3704C151.11 68.5046 151.244 68.6118 151.351 68.746C151.673 69.2288 151.405 69.9262 151.619 70.4895C151.888 71.2137 153.336 71.3478 154.007 71.4819C154.436 71.5892 154.785 71.482 155.187 71.3747C155.751 71.2137 156.609 71.3747 157.065 71.026C157.333 70.8114 157.414 70.4627 157.628 70.2213C157.924 69.8457 158.433 69.7116 158.889 69.5238C159.345 69.3361 159.775 68.9606 159.748 68.4777C159.748 68.2363 159.614 68.0486 159.533 67.8071C159.399 67.378 159.479 66.8951 159.533 66.466C159.667 65.7954 159.828 65.1516 159.775 64.481C159.775 64.1055 159.64 63.7568 159.479 63.4349H159.506Z" fill="#E9B8A2"/>
    <path d="M159.345 63.9714C159.345 64.5615 158.943 64.9907 158.621 65.4467C158.567 65.5271 158.513 65.6076 158.46 65.7149C157.896 65.3125 157.548 64.6688 157.548 63.9982C157.548 63.7836 157.548 63.5958 157.521 63.3813C157.467 63.1935 157.333 63.0594 157.279 62.8716C157.172 62.4961 157.253 62.1206 157.092 61.745C157.065 61.6646 156.797 61.6914 156.85 61.7987C156.958 62.0133 156.958 62.2279 156.984 62.4424C156.582 62.3888 156.233 62.5766 155.858 62.7375C155.643 62.8448 155.402 62.9253 155.16 62.8448C154.919 62.7643 154.704 62.6302 154.463 62.6034C153.685 62.4424 152.826 62.7911 152.397 63.4617C152.344 63.4617 152.29 63.4617 152.29 63.5154C152.156 63.7836 151.968 64.0518 151.753 64.2664C151.592 64.4542 151.405 64.6151 151.27 64.8029C151.136 64.9907 151.029 65.2053 151.056 65.4467C151.056 65.6881 151.19 65.9295 151.27 66.1441C151.378 66.3855 151.485 66.6269 151.485 66.922C151.485 67.1902 151.431 67.4584 151.512 67.6998C151.566 67.9144 151.727 68.0485 151.914 68.1827C152.183 68.3436 152.37 68.5045 152.478 68.7996C152.263 68.8264 152.048 68.9069 151.834 69.0142C151.78 69.041 151.807 69.0946 151.834 69.1215C151.887 69.1483 151.968 69.1215 152.022 69.1215C152.451 68.9069 152.934 68.8532 153.39 69.0142C153.792 69.1483 154.114 69.5238 154.57 69.497C155.026 69.497 155.402 69.1751 155.831 69.041C156.287 68.8801 156.77 68.8532 157.199 69.0946C157.199 69.0946 157.199 69.0946 157.226 69.0946C157.011 69.2019 156.797 69.2556 156.555 69.3361C156.233 69.4434 155.911 69.5775 155.589 69.7652C155.026 70.0871 154.543 70.6236 154.436 71.2942C154.436 71.3746 154.677 71.3746 154.704 71.2942C154.811 70.6236 155.294 70.1408 155.858 69.8189C156.18 69.6311 156.528 69.5238 156.877 69.3897C157.172 69.2824 157.467 69.1751 157.736 68.9874C158.218 68.6118 158.353 67.9949 158.379 67.4048C158.379 67.0561 158.379 66.6805 158.487 66.3318C158.567 66.0368 158.701 65.7685 158.862 65.5271C159.184 65.0443 159.64 64.5615 159.64 63.9446C159.64 63.8373 159.372 63.8641 159.372 63.9446L159.345 63.9714ZM153.819 62.818C154.06 62.657 154.329 62.7107 154.624 62.818C154.838 62.8984 155.026 63.0057 155.241 63.0057C155.428 63.0057 155.589 62.9789 155.777 62.8984C156.126 62.7643 156.528 62.4424 156.931 62.5497C156.931 62.5497 156.958 62.5497 156.984 62.5497C156.984 62.6838 157.011 62.7911 157.065 62.8984C157.145 63.113 157.279 63.274 157.306 63.5154C157.306 63.73 157.306 63.9446 157.306 64.1591C157.306 64.2128 157.306 64.2933 157.333 64.3469C157.011 64.3469 156.716 64.481 156.475 64.6956C156.153 64.9907 155.965 65.393 155.885 65.8222V65.8758C155.777 65.7417 155.482 65.6881 155.294 65.6881C155.214 65.6881 154.812 65.7417 154.785 65.8222C154.865 65.5003 155.187 65.3125 155.402 65.098C155.616 64.8834 155.777 64.5078 155.589 64.2396C155.482 64.1055 155.321 64.0787 155.241 63.9446C155.133 63.8104 155.16 63.5958 155.053 63.4617C154.865 63.2203 154.543 63.1935 154.248 63.1935C154.007 63.1935 153.738 63.1935 153.524 63.3276C153.551 63.3276 153.578 63.1399 153.604 63.113C153.631 63.0326 153.658 62.9521 153.712 62.8984C153.765 62.8448 153.819 62.7911 153.873 62.7643L153.819 62.818ZM154.49 66.0636C154.382 66.1709 154.275 66.2782 154.168 66.3855H154.114C153.846 66.3318 153.578 66.2514 153.336 66.1441C153.202 66.0904 153.121 66.0368 153.095 65.8758C153.095 65.7685 153.095 65.6344 153.095 65.5003C153.095 65.393 153.148 65.2589 153.229 65.1784C153.309 65.098 153.417 65.0443 153.524 65.0443C153.765 64.9907 154.034 65.0175 154.248 65.1248C154.409 65.2053 154.543 65.393 154.543 65.5808C154.543 65.7149 154.436 65.9831 154.543 66.0904L154.49 66.0636ZM154.49 65.0443C154.221 64.8565 153.873 64.8297 153.578 64.8565C153.282 64.8834 152.961 64.9907 152.853 65.2857C152.8 65.4198 152.8 65.5808 152.8 65.7149C152.8 65.8758 152.8 66.01 152.934 66.1172C153.068 66.2245 153.282 66.305 153.443 66.3587C153.631 66.4123 153.819 66.4659 154.007 66.4928C153.953 66.5464 153.899 66.6001 153.846 66.6805C153.738 66.7878 153.604 66.8951 153.47 66.9488C153.282 67.0292 153.068 67.0024 152.853 66.9488C152.585 66.8951 152.209 66.8147 152.156 66.4928C152.102 66.1709 152.317 65.9027 152.424 65.6344C152.478 65.5003 152.504 65.393 152.504 65.2589C152.504 65.098 152.478 64.937 152.504 64.7761C152.558 64.5347 152.719 64.3469 152.907 64.186C153.068 64.025 153.229 63.8641 153.336 63.6763C153.39 63.6763 153.443 63.6763 153.47 63.6495C153.685 63.3544 154.141 63.3813 154.463 63.4349C154.651 63.4886 154.785 63.5958 154.838 63.7836C154.892 63.9714 154.919 64.0787 155.08 64.186C155.241 64.2933 155.375 64.3737 155.375 64.6151C155.375 64.8297 155.241 64.9907 155.08 65.1516C154.972 65.2589 154.838 65.3662 154.731 65.4735C154.704 65.3125 154.597 65.1516 154.463 65.0443H154.49ZM153.819 69.0142C153.631 68.9069 153.417 68.8264 153.175 68.7996C153.014 68.7728 152.853 68.7728 152.692 68.7996C152.692 68.7996 152.692 68.7996 152.692 68.7728C152.612 68.5314 152.478 68.3436 152.263 68.2095C152.048 68.0754 151.807 67.9681 151.753 67.673C151.7 67.4316 151.753 67.1902 151.753 66.922C151.753 66.6805 151.673 66.4391 151.592 66.2245C151.485 65.9831 151.351 65.7417 151.324 65.4735C151.324 65.2053 151.431 64.9907 151.619 64.7761C151.78 64.5883 151.968 64.4006 152.129 64.2128C152.29 64.025 152.397 63.8373 152.531 63.6227C152.585 63.6227 152.639 63.6227 152.639 63.569C152.853 63.1667 153.229 62.8716 153.658 62.7643C153.497 62.8716 153.39 63.0326 153.336 63.2471C153.256 63.5154 153.148 63.73 152.961 63.9177C152.8 64.1055 152.612 64.2664 152.478 64.4542C152.317 64.7224 152.344 64.9638 152.344 65.2589C152.344 65.7685 151.619 66.466 152.263 66.8683C152.504 67.0292 152.826 67.0829 153.121 67.1097C153.417 67.1365 153.712 67.0829 153.953 66.922C154.248 66.7342 154.436 66.4391 154.677 66.1977C154.838 66.0368 155.08 65.849 155.321 65.849C155.536 65.849 155.777 65.9563 155.858 66.1709C155.938 66.3855 155.858 66.7342 155.831 66.9488C155.777 67.4852 155.67 68.0485 155.294 68.4777C154.999 68.8264 154.624 69.0678 154.168 69.1751C154.06 69.1215 153.98 69.041 153.873 69.0142H153.819ZM158.245 66.1709C158.138 66.4928 158.138 66.8415 158.111 67.1634C158.084 67.8071 158.057 68.5582 157.467 68.9337C157.44 68.9337 157.414 68.9605 157.387 68.9874C157.387 68.9874 157.387 68.9874 157.36 68.9605C156.958 68.7191 156.475 68.6923 156.019 68.7996C155.777 68.8532 155.563 68.9337 155.348 69.0142C155.107 69.1215 154.838 69.3092 154.543 69.3092C154.463 69.3092 154.382 69.3092 154.302 69.2556C154.704 69.1483 155.053 68.9337 155.321 68.6386C155.697 68.2631 155.885 67.7535 155.965 67.2438C156.045 66.6537 156.045 66.0636 156.233 65.5003C156.394 65.0175 156.823 64.481 157.387 64.481C157.548 65.0443 157.896 65.5271 158.406 65.8222C158.353 65.9295 158.299 66.0368 158.272 66.1441L158.245 66.1709Z" fill="#67762E"/>
    <path d="M170.693 99.432C170.344 97.8494 169.539 96.3205 168.573 95.0062C168.01 94.2551 167.366 93.5309 166.669 92.9139C166.588 92.8335 166.427 92.8335 166.32 92.8603C166.239 92.8871 166.132 92.9676 166.239 93.048C167.473 94.1478 168.493 95.4621 169.244 96.9106C169.941 98.2518 170.478 99.7807 170.344 101.31C170.29 102.114 170.022 102.892 169.459 103.509C169.298 103.697 169.78 103.777 169.915 103.643C170.961 102.49 171.041 100.854 170.693 99.4052V99.432Z" fill="#F49D6E"/>
    <path d="M165.81 97.2592C165.73 97.0983 165.22 97.1251 165.301 97.3397C165.864 98.6809 165.435 100.344 164.415 101.363C164.12 101.658 163.772 101.873 163.396 102.034C163.289 102.087 163.315 102.195 163.396 102.248C163.503 102.302 163.664 102.302 163.772 102.248C165.193 101.631 166.105 100.076 166.079 98.5467C166.079 98.1176 165.971 97.6616 165.81 97.2592Z" fill="#F49D6E"/>
    <path d="M195.292 74.4326C194.38 73.5206 193.253 72.7964 192.019 72.394C190.624 71.9112 189.175 71.7503 187.727 71.5625C186.117 71.3479 184.481 71.1065 183.032 70.275C182.925 70.2213 182.764 70.2213 182.657 70.275C182.576 70.3286 182.549 70.4091 182.657 70.4896C185.205 71.9649 188.236 71.6966 191.026 72.4208C192.287 72.7696 193.468 73.3328 194.46 74.218C195.399 75.0764 196.177 76.1225 196.687 77.2759C197.25 78.5634 197.518 80.0119 197.357 81.4067C197.357 81.5945 197.867 81.6213 197.867 81.4067C198.135 78.8316 197.089 76.2298 195.292 74.4326Z" fill="#F49D6E"/>
    <path d="M189.659 77.1418C189.283 76.659 188.827 76.2566 188.344 75.9348C188.183 75.8275 187.727 75.9616 187.969 76.1493C189.659 77.3028 190.597 79.3682 190.544 81.3799C190.544 81.97 190.436 82.5333 190.249 83.0698C190.168 83.2844 190.678 83.3112 190.758 83.1503C191.456 81.1385 191 78.8317 189.659 77.1686V77.1418Z" fill="#F49D6E"/>
    <path d="M208.973 99.1637C208.919 97.5543 208.329 95.9985 207.605 94.5769C207.149 93.7185 206.639 92.887 206.129 92.0555C206.022 91.8946 205.512 91.9482 205.62 92.136C207.256 94.7647 209.027 97.7421 208.275 100.961C208.088 101.766 207.739 102.517 207.202 103.16C207.041 103.348 207.524 103.455 207.658 103.295C208.624 102.141 209 100.639 208.946 99.1637H208.973Z" fill="#F49D6E"/>
    <path d="M132.627 7.56186C133.646 7.29363 134.639 6.83763 135.497 6.19387C135.873 5.92564 136.302 5.57693 136.758 5.73787C137.16 5.89881 137.295 6.40846 137.16 6.81081C137.026 7.21316 136.704 7.50822 136.383 7.80327C135.873 8.23245 135.309 8.66162 134.8 9.0908C134.344 9.46633 133.915 9.86868 133.593 10.3247C133.324 10.7002 133.137 11.1294 132.895 11.5317C132.439 12.256 131.849 12.6583 131.205 13.168C130.588 13.6508 129.998 14.4018 129.649 15.0992C129.596 15.2065 129.542 15.3138 129.435 15.3675C129.354 15.3943 129.247 15.3943 129.166 15.3675C128.469 15.287 127.825 14.8847 127.45 14.2945C127.047 13.6776 126.967 12.7388 126.833 12.0146C126.618 10.888 127.074 9.49315 127.61 8.50068C128.147 7.48139 128.898 6.5694 129.81 5.81834C129.971 5.68422 130.186 5.57693 130.347 5.71105C130.4 5.76469 130.427 5.81834 130.454 5.89881C130.615 6.40846 130.669 7.50822 131.286 7.69598C131.5 7.77645 131.742 7.74963 131.983 7.69598C132.225 7.66916 132.493 7.61551 132.734 7.53504L132.627 7.56186Z" fill="#FCD9BA"/>
  </g>
  <defs>
    <clipPath id="clip0_121_652">
      <rect width="245" height="324" fill="white" transform="translate(0 0.882812)"/>
    </clipPath>
  </defs>
</svg>
