<svg width="114" height="165" viewBox="0 0 114 165" fill="none"
  xmlns="http://www.w3.org/2000/svg">
  <g clip-path="url(#clip0_121_45)">
    <path d="M102.38 50.888C102.215 49.9311 100.722 50.2703 100.886 51.2395C104.145 70.7466 107.498 91.1092 101.952 110.521C100.623 115.163 98.682 119.424 96.5377 123.739C94.5145 127.837 93.82 131.972 92.9018 136.382C91.0479 145.338 87.1455 153.712 81.601 161.036C81.0071 161.816 82.3066 162.63 82.9005 161.85C88.3267 154.67 92.2486 146.445 94.1833 137.677C94.7264 135.241 95.0207 132.745 95.6264 130.311C96.2761 127.705 97.4313 125.341 98.638 122.941C100.725 118.809 102.441 114.552 103.649 110.091C108.92 90.6439 105.627 70.37 102.368 50.8876L102.38 50.888Z" fill="#9BB55E"/>
    <path d="M129.811 118.467C127.418 121.032 125.124 123.675 122.939 126.396C122.254 127.247 121.582 128.098 120.922 128.975C118.467 132.204 116.414 135.757 113.862 138.921C111.585 141.737 108.492 142.918 105.136 143.397C101.276 143.944 97.062 143.564 93.3073 143.645C92.2524 143.667 91.8699 142.492 92.2758 141.705C92.4382 141.39 92.6131 141.076 92.788 140.761C93.2181 139.999 93.6723 139.263 94.1757 138.554C94.203 138.493 94.255 138.446 94.2949 138.385C94.3014 138.213 94.3575 138.054 94.4522 137.873C97.5758 131.866 102.605 126.905 108.778 123.914C111.845 122.412 115.075 121.607 118.402 120.904C121.98 120.162 125.548 119.394 128.098 116.625C129.222 115.42 130.934 117.287 129.836 118.468L129.811 118.467Z" fill="#B5C780"/>
    <path d="M113.471 127.251C110.487 127.855 107.576 128.87 104.865 130.225C100.748 132.268 97.1151 135.12 94.1507 138.553C93.4608 139.552 92.8191 140.602 92.2633 141.705C91.8699 142.492 92.24 143.667 93.2948 143.645C100.314 143.5 108.967 144.973 113.849 138.921C116.401 135.769 118.454 132.216 120.91 128.974C121.57 128.11 122.242 127.246 122.926 126.395C119.768 126.635 116.581 126.627 113.471 127.251ZM97.9354 143.029C98.0662 142.885 98.1975 142.73 98.3405 142.599C98.3734 142.724 98.4194 142.837 98.4909 142.938C98.3015 142.968 98.1243 143.011 97.9354 143.029Z" fill="#A7BC68"/>
    <path d="M113.467 132.708C111.469 131.46 109.36 132.159 107.367 133.097C104.353 134.515 101.691 136.218 98.536 137.383C96.4872 138.146 94.3258 139.238 92.7755 140.761C92.6006 141.075 92.4257 141.39 92.2633 141.704C91.8699 142.492 92.24 143.667 93.2948 143.645C97.0496 143.563 101.264 143.943 105.124 143.396C105.999 142.491 106.837 141.547 107.638 140.601C110.392 139.087 112.796 137.214 113.99 134.16C114.198 133.637 113.921 132.997 113.454 132.72L113.467 132.708Z" fill="#9BB55E"/>
    <path d="M165.457 96.0597C164.812 96.196 164.18 96.3081 163.537 96.3951C159.616 96.9026 155.719 96.4231 151.762 96.2008C151.036 96.1612 150.297 96.1335 149.544 96.1176C145.242 96.0922 140.772 96.826 137.932 100.3C137.761 100.516 137.542 100.644 137.326 100.722C137.223 100.805 137.095 100.874 136.955 100.918C136.522 101.433 136.088 101.96 135.654 102.487C135.47 102.714 135.237 102.891 134.983 102.98C131.706 106.71 127.95 109.841 122.574 109.997C116.343 110.184 108.958 109.709 105.046 104.278C104.831 103.986 104.779 103.7 104.851 103.444C104.648 102.856 104.876 102.111 105.476 101.837C105.598 101.607 105.805 101.43 106.073 101.329C106.203 101.198 106.357 101.105 106.547 101.05C106.588 100.977 106.64 100.918 106.692 100.858C106.784 100.763 106.887 100.68 107.015 100.611L121.67 92.9245C121.99 92.7636 122.298 92.5899 122.618 92.429C126.944 90.1588 131.299 87.7786 136.054 86.4628C140.288 85.3003 145.171 84.9277 149.142 87.1138C154.367 89.989 158.812 93.9215 165.212 93.5687C166.683 93.488 166.823 95.7651 165.457 96.0597Z" fill="#E0E7CA"/>
    <path d="M163.525 96.3948C159.604 96.9023 155.707 96.4228 151.75 96.2004C146.842 95.9177 141.259 96.227 137.92 100.3C137.749 100.516 137.53 100.643 137.314 100.722C137.211 100.804 137.083 100.874 136.943 100.918C136.51 101.432 136.076 101.959 135.642 102.486C135.458 102.714 135.225 102.891 134.971 102.98C131.694 106.709 127.938 109.84 122.562 109.997C116.331 110.183 108.946 109.709 105.034 104.278C104.819 103.986 104.767 103.7 104.839 103.443C104.703 103.055 104.758 102.601 104.985 102.251C105.104 102.07 106.81 100.739 107.028 100.624L121.683 92.9374C126.273 91.6649 130.949 90.4326 135.711 89.9443C140.661 89.4384 145.265 90.1295 150.048 91.4077C154.533 92.6006 158.001 95.4717 162.646 96.0779C162.996 96.1157 163.293 96.238 163.55 96.3958L163.525 96.3948Z" fill="#C3D299"/>
    <path d="M149.532 96.1172C145.769 96.0873 141.871 96.6573 139.056 99.12C138.653 99.4753 137.333 100.883 136.67 101.512C135.512 102.617 133.938 104.102 133.663 104.388C130.687 107.462 127.235 109.851 122.55 109.984C116.319 110.17 108.934 109.696 105.022 104.265C104.807 103.973 104.755 103.687 104.827 103.43C104.624 102.842 110.041 100.922 110.295 100.832C117.035 98.4304 123.301 95.3069 130.645 94.5203C134.5 94.1092 138.54 93.8037 142.423 93.9617C144.879 94.0537 147.252 95.0193 149.532 96.1172Z" fill="#D0DBAE"/>
    <path d="M163.915 68.5665C163.01 69.2858 158.358 72.2229 158.1 72.3984C157.804 72.6095 157.495 72.8079 157.186 73.0185C155.771 73.9533 154.307 74.8368 152.845 75.6957C150.92 76.8212 148.972 77.9211 147.083 79.1097C146.62 79.4011 146.17 79.6929 145.744 80.0103C141.247 83.1754 138.264 87.1011 135.07 91.6363C131.876 96.1591 127.861 99.5028 123.051 102.311C120.793 103.621 118.359 104.629 115.708 104.702C115.558 104.697 115.42 104.704 115.269 104.698C115.044 104.69 114.831 104.682 114.619 104.649C113.294 104.501 112.107 104.049 110.907 103.596C109.811 103.358 108.713 103.205 107.586 103.138C107.498 103.135 107.411 103.12 107.337 103.092C107.234 103.15 107.12 103.183 107.006 103.203C106.956 103.201 106.905 103.224 106.855 103.222C106.83 103.221 106.818 103.221 106.805 103.22C106.479 103.22 106.147 103.035 105.943 102.781C105.881 102.754 105.808 102.714 105.746 102.674C105.489 102.517 105.324 102.239 105.35 101.857C105.355 101.734 105.36 101.61 105.39 101.476C105.393 101.402 105.395 101.34 105.41 101.267C105.446 100.972 105.521 100.666 105.619 100.385C105.624 100.237 105.681 100.079 105.748 99.9457C105.748 99.9457 105.749 99.9334 105.749 99.9211C105.749 99.9211 105.749 99.9211 105.75 99.9088C105.778 99.8234 105.818 99.7508 105.872 99.6664C105.899 99.618 105.938 99.5824 105.964 99.5464C106.071 99.3775 106.202 99.2219 106.345 99.0915C106.384 99.0559 106.436 99.0084 106.501 98.9491C106.708 98.7717 106.994 98.5108 107.085 98.4278C107.512 98.0734 107.928 97.7062 108.355 97.3395C109.406 96.4158 110.471 95.4556 111.525 94.4702C114.698 91.4777 117.744 88.2211 120.18 84.8182C121.57 82.8948 122.394 80.9995 124.404 79.5809C126.48 78.1029 128.881 76.9829 131.215 75.9838C141.454 71.614 152.66 70.256 163.182 66.7117C164.288 66.3333 164.794 67.8833 163.902 68.5907L163.915 68.5665Z" fill="#9BB55E"/>
    <path d="M157.187 73.0063C153.906 75.1799 150.412 76.9998 147.072 79.0847C141.803 82.3938 138.558 86.6307 135.046 91.6107C131.852 96.1335 127.837 99.4773 123.027 102.285C120.769 103.596 118.335 104.603 115.685 104.677C113.914 104.721 112.391 104.158 110.87 103.583C109.774 103.344 108.676 103.192 107.549 103.125C107.461 103.121 107.374 103.106 107.3 103.078C107.197 103.136 107.083 103.169 106.97 103.189C106.353 102.907 105.844 102.419 105.473 101.602C105.427 101.489 105.381 101.377 105.36 101.265C105.242 100.729 105.399 100.241 105.712 99.9074C106.065 99.5255 106.638 99.3247 107.285 99.4478C107.375 99.3894 107.49 99.3443 107.604 99.3116C112.363 97.8725 116.254 94.8328 119.973 91.6878C123.653 88.5785 127.322 85.444 131.266 82.6409C138.756 77.3284 147.136 73.358 156.488 72.906C156.74 72.8907 156.964 72.9238 157.149 73.0172L157.187 73.0063Z" fill="#A7BC68"/>
    <path d="M152.845 75.6834C150.921 76.8089 148.973 77.9089 147.084 79.0975C146.621 79.3888 146.171 79.6806 145.745 79.998C141.247 83.1632 138.264 87.0888 135.07 91.624C131.877 96.1468 127.862 99.4905 123.051 102.298C120.794 103.609 118.359 104.616 115.709 104.69C115.559 104.684 115.42 104.692 115.27 104.686C115.057 104.678 114.857 104.658 114.657 104.638C114.657 104.638 114.632 104.637 114.619 104.637C113.707 104.541 112.851 104.287 112.021 103.996C111.649 103.871 110.907 103.584 109.844 103.482C108.819 103.382 107.464 103.393 106.644 103.177C106.358 103.105 105.591 102.817 105.398 102.266C105.058 101.29 105.312 100.547 105.567 100.1C105.715 99.8334 106.228 99.2106 106.371 99.0678C106.41 99.0322 106.462 98.9848 106.527 98.9255C106.603 98.916 106.678 98.9065 106.766 98.9097C106.979 98.9177 107.656 98.9431 107.831 98.9497C113.04 98.9103 118.198 95.8687 122.679 93.4808C127.046 91.138 130.502 87.9585 134.295 84.8658C137.919 81.9148 141.998 79.8699 146.331 78.0938C148.497 77.2119 150.651 76.3296 152.871 75.672L152.845 75.6834Z" fill="#B5C780"/>
    <path d="M133.204 28.2628C132.87 28.8059 132.524 29.3485 132.177 29.8911C130.655 32.3282 129.134 34.753 127.6 37.1896C127.453 37.4187 127.306 37.6601 127.159 37.8892C125.424 40.664 123.766 43.4046 121.226 45.5443C116.367 49.6466 110.218 52.3547 103.928 53.4401C103.575 53.5009 103.139 53.4105 102.899 53.1052C102.851 53.054 102.815 53.0033 102.792 52.9407C102.57 52.8459 102.375 52.7028 102.294 52.5022C102.248 52.3894 102.202 52.2889 102.168 52.1888C102.042 51.8754 102.005 51.516 102.167 51.2257C102.453 49.9523 102.923 48.7846 103.529 47.6837C104.419 46.0256 105.617 44.5271 106.938 43.1073C109.252 40.6258 111.781 38.0907 114.613 36.1842C119.865 32.6522 127.32 32.2526 131.464 27.1604C132.266 26.1657 133.912 27.1163 133.205 28.2505L133.204 28.2628Z" fill="#E0E7CA"/>
    <path d="M132.177 29.891C130.509 32.5572 128.84 35.2233 127.159 37.889C125.424 40.6638 123.766 43.4045 121.226 45.5441C116.367 49.6464 110.218 52.3545 103.928 53.4399C103.511 53.5107 102.978 53.3549 102.792 52.9529C102.57 52.8581 102.374 52.715 102.294 52.5144C102.248 52.4015 102.202 52.301 102.168 52.201C102.041 51.8876 102.005 51.5281 102.166 51.2378C102.452 49.9645 102.923 48.7968 103.529 47.6959C103.686 47.5166 103.856 47.3378 104.038 47.1717C104.879 46.1414 105.979 45.2689 107.091 44.3846C109.82 42.215 112.509 39.7723 115.631 38.1607C118.305 36.7793 122.105 36.823 124.364 34.8086C125.403 33.8721 125.84 32.5797 127.061 31.8106C128.308 31.0177 129.901 31.0157 131.042 30.046C131.418 29.7267 131.857 29.7185 132.189 29.9038L132.177 29.891Z" fill="#D0DBAE"/>
    <path d="M127.6 37.1896C127.453 37.4187 127.306 37.6602 127.159 37.8892C125.424 40.664 123.765 43.4047 121.226 45.5443C116.367 49.6466 110.217 52.3547 103.928 53.4401C103.574 53.501 103.139 53.4106 102.899 53.1053C102.772 52.8165 102.698 52.4557 102.701 52.0236C102.679 49.6028 105.356 48.8265 106.874 47.4758C109.041 45.5691 110.74 43.7561 113.446 42.5487C115.743 41.5235 118.2 40.8995 120.601 40.1252C123.027 39.3395 125.336 38.3148 127.6 37.1896Z" fill="#C3D299"/>
    <path d="M102.707 51.5423C102.709 52.1598 102.698 52.7891 102.7 53.4065C102.699 53.4311 102.697 53.4681 102.696 53.4928L102.696 53.5175C102.695 53.5298 102.695 53.5421 102.694 53.5544C102.693 53.5791 102.693 53.5914 102.667 53.6152C102.653 53.6517 102.626 53.6877 102.588 53.711C102.484 53.8182 102.318 53.8861 102.155 53.8676C102.043 53.8634 101.919 53.8094 101.835 53.7198C101.461 53.323 101.086 52.9386 100.699 52.5413C100.578 52.4256 100.47 52.2981 100.349 52.1824C100.168 51.9904 99.974 51.8103 99.7929 51.6183C99.7326 51.5543 99.6843 51.5031 99.624 51.4391C99.3186 51.2178 99.0137 50.9841 98.7343 50.739C97.9615 50.2656 97.2537 49.7328 96.5854 49.1522C96.1695 48.8649 93.4223 46.1691 93.122 45.8121C92.3881 44.9697 91.7183 44.0926 91.1641 43.1458C90.4599 42.1811 89.8574 41.183 89.3556 40.1765C87.6756 36.7921 86.3728 32.7181 86.3819 28.7921C86.3624 28.6432 86.3429 28.4943 86.3234 28.3454C86.0292 25.8156 86.5871 23.3177 86.5315 20.7844C86.4707 18.0535 85.7659 15.4342 84.6039 12.9582C84.5231 12.77 84.5175 12.5846 84.5611 12.4257C84.5031 12.3 84.4581 12.1625 84.413 12.025C84.2752 11.6865 84.4997 11.3862 84.7786 11.3103C84.9438 11.2547 85.1308 11.2864 85.2501 11.4514C85.4135 11.4452 85.5866 11.5134 85.6794 11.7144C85.7375 11.8401 85.8085 11.9539 85.8665 12.0795C85.8907 12.1051 85.9143 12.143 85.9259 12.1682C86.1125 12.2122 86.2712 12.3293 86.3757 12.5554C87.2331 14.452 88.9814 15.3448 90.5274 16.6127C91.684 17.5574 92.6717 18.6563 93.6465 19.767C94.1886 20.3677 94.7047 20.992 95.2209 21.6164C96.9243 23.7051 98.4728 25.9116 99.7522 28.2684C101.49 31.4574 102.74 34.9244 103.182 38.5216C103.607 41.9207 103.128 45.3352 102.788 48.7179C102.776 49.3595 102.765 50.0011 102.765 50.6555C102.76 50.7912 102.755 50.9268 102.75 51.0624C102.75 51.0624 102.749 51.0994 102.747 51.1364C102.743 51.2597 102.738 51.383 102.733 51.5186L102.707 51.5423Z" fill="#9BB55E"/>
    <path d="M102.721 51.1602C102.746 51.4945 102.859 52.8322 102.709 53.4933L102.708 53.518C102.708 53.5303 102.707 53.5427 102.707 53.555C102.706 53.5796 102.705 53.592 102.679 53.6157C102.531 53.8941 102.076 53.9759 101.847 53.7203C101.473 53.3236 101.099 52.9391 100.712 52.5419C100.086 51.1602 99.7757 49.741 98.7573 48.4558C97.7742 47.2336 96.7772 46.048 95.8971 44.7556C93.9935 41.9802 92.5025 38.9116 91.6833 35.6583C90.6794 31.6449 90.6365 27.433 89.9732 23.3706C89.2908 19.147 86.6904 15.2096 84.8002 11.4099C84.7886 11.3848 84.777 11.3597 84.7653 11.3345C84.9305 11.279 85.1176 11.3107 85.2369 11.4757C85.4002 11.4695 85.5733 11.5377 85.6662 11.7387C85.7242 11.8644 85.7952 11.9781 85.8532 12.1038C85.8774 12.1294 85.901 12.1673 85.9126 12.1924C86.0992 12.2365 86.258 12.3536 86.3624 12.5797C87.2198 14.4763 88.9681 15.369 90.5141 16.637C91.6707 17.5817 92.6585 18.6806 93.6332 19.7913C95.9442 22.4091 98.0719 25.2299 99.7389 28.2927C101.476 31.4817 102.727 34.9487 103.169 38.5459C103.594 41.9449 103.114 45.3594 102.774 48.7421C102.75 49.3833 102.751 50.0254 102.752 50.6798C102.747 50.8154 102.742 50.9511 102.737 51.0867C102.737 51.0867 102.735 51.1237 102.734 51.1607L102.721 51.1602Z" fill="#A7BC68"/>
    <path d="M102.707 51.5423C102.709 52.1597 102.698 52.789 102.7 53.4064C102.699 53.4311 102.697 53.468 102.696 53.4927L102.696 53.5174C102.695 53.5297 102.695 53.542 102.694 53.5544C102.693 53.579 102.693 53.5913 102.667 53.6151C102.653 53.6516 102.626 53.6876 102.588 53.7109C102.447 53.792 102.295 53.8357 102.155 53.8675C102.043 53.8633 101.919 53.8093 101.835 53.7197C101.461 53.3229 101.086 52.9385 100.699 52.5412C100.578 52.4255 100.47 52.298 100.349 52.1824C100.657 48.6626 99.2533 45.5973 97.8545 42.4087C96.7329 39.8602 95.8638 37.2718 95.2503 34.5571C94.2714 30.2113 93.7969 25.798 95.1954 21.6277C96.8988 23.7165 98.4473 25.9229 99.7267 28.2797C101.464 31.4687 102.714 34.9357 103.157 38.5329C103.582 41.932 103.102 45.3465 102.762 48.7292C102.751 49.3708 102.739 50.0124 102.74 50.6668C102.735 50.8025 102.73 50.9381 102.724 51.0737C102.724 51.0737 102.723 51.1107 102.722 51.1477C102.717 51.271 102.712 51.3943 102.707 51.5299L102.707 51.5423Z" fill="#B5C780"/>
    <path d="M103.428 83.1779C102.02 82.2485 100.544 81.4647 99.0267 80.7657C95.7826 79.2736 92.3623 78.133 89.159 76.5559C84.8967 74.4453 80.9308 71.7902 77.3198 68.7039C75.2652 67.6145 73.3312 66.3196 71.6348 64.7126C68.3988 61.6651 66.0439 57.5393 63.6121 53.7934C62.338 52.6344 60.9461 51.6068 59.3937 50.8449C56.5473 49.4541 53.3666 49.2855 50.2434 49.2548C49.7041 49.247 49.3908 48.9019 49.3184 48.4917C49.1564 48.1276 49.1851 47.6965 49.5595 47.4142C49.9595 47.1205 50.346 46.851 50.7316 46.6062C50.7966 46.5469 50.8741 46.488 50.9637 46.442C50.9887 46.443 51.0022 46.4188 51.0272 46.4197C51.5794 46.0823 52.1288 45.8189 52.6885 45.6177C53.0314 45.5071 53.3734 45.4211 53.714 45.3721C53.7521 45.3612 53.7901 45.3503 53.8282 45.3394C58.4422 43.759 63.3525 43.9801 67.6863 45.8588C71.1141 46.8022 74.4269 48.4697 77.5578 50.3033C79.3381 51.3455 81.066 52.4474 82.7331 53.4977C85.2213 55.0726 87.8755 56.5673 90.0208 58.5862C92.1785 60.6055 93.6106 63.2398 94.9318 65.8204C96.3936 68.6657 98.1022 71.2856 99.7315 74.0136C101.207 76.4889 101.843 79.9329 104.509 81.4651C104.533 81.4784 104.546 81.4912 104.57 81.5168C105.558 82.2576 104.534 83.812 103.403 83.177L103.428 83.1779Z" fill="#9BB55E"/>
    <path d="M103.428 83.178C102.02 82.2486 100.544 81.4647 99.0267 80.7658C95.4795 78.6573 91.7063 76.8861 89.2337 73.5585C86.0806 69.304 83.7168 64.7458 80.0612 60.8429C72.7736 53.0751 63.2663 47.6194 52.713 45.631C53.056 45.5204 53.398 45.4345 53.7386 45.3855C53.7766 45.3746 53.8147 45.3636 53.8527 45.3527C58.4667 43.7724 63.3771 43.9935 67.7109 45.8721C73.1008 47.3583 78.1736 50.6105 82.7577 53.511C85.2458 55.0859 87.9001 56.5806 90.0453 58.5995C92.2031 60.6189 93.6352 63.2531 94.9563 65.8338C96.4181 68.679 98.1268 71.2989 99.7561 74.027C101.232 76.5023 101.868 79.9463 104.533 81.4785C105.635 82.2112 104.57 83.8382 103.428 83.178Z" fill="#A7BC68"/>
    <path d="M104.582 81.5297C104.091 82.2397 103.2 82.5891 102.322 81.8895C95.9025 76.7471 90.1412 71.4441 86.0168 64.3134C83.777 60.4636 81.8719 56.3917 79.6187 52.5661C79.401 52.348 79.1708 52.1295 78.954 51.8868C78.4713 51.3748 78.0141 50.8515 77.5699 50.3162C79.3503 51.3584 81.0782 52.4603 82.7453 53.5105C85.2334 55.0855 87.8876 56.5802 90.0329 58.5991C92.1907 60.6184 93.6227 63.2527 94.9439 65.8333C96.4057 68.6786 98.1143 71.2985 99.7437 74.0265C101.219 76.5018 101.856 79.9458 104.521 81.478C104.546 81.4913 104.558 81.5041 104.582 81.5297Z" fill="#B5C780"/>
    <path d="M104.487 86.3909C104.375 86.3867 104.262 86.3825 104.15 86.3536C103.577 86.2334 103.018 86.0889 102.486 85.8961C101.011 85.3964 99.6328 84.6779 98.2039 83.97C96.0105 82.9 93.7309 82.1231 91.3561 81.5402C86.7426 80.4289 81.9993 80.103 77.32 79.409C69.8952 78.3158 62.9829 75.933 56.7698 71.9713C55.6425 71.25 54.5295 70.4798 53.4439 69.6489C52.3704 68.8308 53.1205 67.2291 54.148 67.2676C54.3707 67.0167 54.6909 66.8434 55.1295 66.8599C58.1 66.9465 61.0277 66.5007 63.7683 65.3563C65.1707 64.7668 66.4579 63.9014 67.8602 63.3119C68.2941 63.1183 68.7516 62.9626 69.2078 62.8438C70.2719 62.575 71.4042 62.494 72.5565 62.5495C78.954 61.925 85.146 64.108 90.5641 67.8547C93.8056 70.0875 97.273 72.6498 99.7038 75.7537C100.866 77.2295 101.796 78.8571 102.945 80.3324C104.011 81.6935 105.07 82.8939 105.699 84.5226C106.065 85.4747 105.492 86.3545 104.514 86.3549L104.487 86.3909Z" fill="#9BB55E"/>
    <path d="M104.487 86.3907C101.024 84.7299 98.1006 82.0398 94.6931 80.2205C90.8304 78.1619 86.7231 76.6004 82.5862 75.1612C78.09 73.5975 73.4908 71.7706 68.701 71.3441C64.7118 70.9847 60.7177 71.4277 56.7564 71.9953C55.6291 71.274 54.5161 70.5038 53.4306 69.6729C52.357 68.8548 53.1072 67.2531 54.1347 67.2916C54.3574 67.0406 54.6776 66.8674 55.1161 66.8839C58.0866 66.9705 61.0144 66.5246 63.755 65.3803C65.5907 64.6095 67.2435 63.3627 69.1944 62.8678C70.2585 62.599 71.3908 62.518 72.5431 62.5735C78.9407 61.949 85.1326 64.132 90.5508 67.8787C93.7922 70.1115 97.2597 72.6738 99.6905 75.7776C100.852 77.2535 101.783 78.8811 102.932 80.3564C103.998 81.7175 105.057 82.9178 105.686 84.5465C106.052 85.4986 105.479 86.3785 104.5 86.3789L104.487 86.3907Z" fill="#A7BC68"/>
    <path d="M104.487 86.3908C104.375 86.3865 104.262 86.3823 104.15 86.3534C103.577 86.2332 103.018 86.0887 102.486 85.8959C101.952 85.4067 101.486 84.7966 100.969 84.1722C99.6725 82.6173 98.4276 81.0149 97.1568 79.4362C94.4841 76.0888 91.4478 73.7401 87.4296 72.1449C80.7044 69.4605 73.2545 68.3663 67.8218 63.335C68.2556 63.1413 68.7132 62.9856 69.1694 62.8669C70.2334 62.5981 71.3657 62.5171 72.518 62.5726C78.9156 61.9481 85.1076 64.131 90.5257 67.8777C93.7671 70.1106 97.2346 72.6729 99.6654 75.7767C100.827 77.2525 101.757 78.8802 102.907 80.3555C103.972 81.7166 105.032 82.9169 105.661 84.5456C106.027 85.4977 105.454 86.3776 104.475 86.378L104.487 86.3908Z" fill="#C3D299"/>
    <path d="M96.0186 127.547C96.0186 127.547 95.9912 127.608 95.9653 127.632C95.5528 128.258 94.5156 128.479 93.9118 127.851C93.779 127.71 93.6342 127.557 93.5015 127.416C93.1873 127.429 92.8527 127.317 92.5751 127.023C90.9311 125.356 88.1101 125.3 86.0374 124.358C84.0014 123.442 82.078 122.197 80.1905 121.003C76.1828 118.457 73.3524 114.635 69.129 112.488C65.4969 110.636 62.9148 107.885 60.8371 104.732C58.8667 101.732 57.3626 98.3421 55.8566 95.0013C55.0572 93.2304 54.2573 91.4719 53.3916 89.7972C52.6776 88.4247 54.4075 87.4647 55.4537 88.3435C59.6531 91.7976 63.1413 95.8177 67.9443 98.5659C72.3177 101.063 77.0889 101.983 81.6988 103.86C85.9379 105.587 88.3914 108.42 90.4131 112.397C92.7508 116.979 94.6162 121.778 96.0881 126.698C96.1893 127.01 96.1406 127.305 96.0191 127.535L96.0186 127.547Z" fill="#D0DBAE"/>
    <path d="M96.0186 127.547C95.6415 128.237 94.5393 128.517 93.9118 127.851C93.7791 127.71 93.6342 127.557 93.5015 127.416C93.1873 127.429 92.8527 127.317 92.5752 127.023C90.9312 125.356 88.1101 125.3 86.0374 124.358C84.0014 123.442 82.0781 122.197 80.1905 121.003C76.1829 118.457 73.3524 114.634 69.129 112.488C62.037 108.876 58.9503 101.846 55.8566 95.0012C59.4416 95.4319 62.2171 97.709 64.7713 100.2C68.4761 103.796 72.2113 106.245 76.9512 108.337C80.7902 110.024 84.297 111.871 87.2453 114.896C90.1568 117.894 93.2541 121.295 95.1463 125.045C95.5436 125.825 95.8505 126.677 96.0191 127.535L96.0186 127.547Z" fill="#C3D299"/>
    <path d="M95.9523 127.643C95.5398 128.27 94.5026 128.49 93.8988 127.863C93.766 127.722 93.6212 127.568 93.4885 127.428C93.1743 127.441 92.8397 127.329 92.5621 127.035C90.9181 125.368 88.097 125.312 86.0243 124.37C83.9883 123.454 82.065 122.209 80.1775 121.014C76.1698 118.469 73.3393 114.646 69.1159 112.5C65.4838 110.648 62.9018 107.896 60.8241 104.744C62.1695 105.004 63.5386 105.636 64.6088 106.207C67.0194 107.507 69.3339 108.693 71.9352 109.593C74.1893 110.381 76.4583 111.108 78.588 112.201C82.5525 114.226 86.8804 117.599 89.6362 121.073C91.0495 122.867 91.7162 124.83 93.8047 126.02C94.6281 126.483 95.3874 126.98 95.9402 127.631L95.9523 127.643Z" fill="#E0E7CA"/>
    <path d="M95.6078 127.124C95.5521 127.271 95.4593 127.403 95.3299 127.509C94.7953 128.045 93.7628 128.142 93.255 127.296C93.2197 127.232 93.1714 127.181 93.1482 127.131C87.9386 124.182 83.5097 128.856 78.803 131.236C78.0095 131.651 77.1942 131.978 76.3826 132.207C74.557 132.707 72.6836 132.809 70.8612 132.556C67.64 132.126 64.5848 130.617 62.2627 128.295C61.1984 127.23 62.6739 125.692 63.8903 126.38C67.7619 128.538 71.702 126.191 74.7408 123.786C77.2228 121.842 79.4218 120.418 82.6698 120.133C87.3777 119.729 92.2066 121.453 94.9504 125.248C94.9745 125.273 94.9991 125.287 95.0358 125.313C95.3528 125.559 95.5046 125.861 95.5557 126.172C95.7437 126.512 95.7312 126.845 95.6078 127.124Z" fill="#9BB55E"/>
    <path d="M95.6079 127.125C95.2502 127.963 93.8688 128.331 93.2551 127.296C93.2198 127.233 93.1716 127.181 93.1483 127.131C87.0541 123.68 82.0242 130.665 76.3827 132.207C74.5572 132.707 72.6837 132.809 70.8613 132.556C76.2508 128.362 80.5284 121.028 88.3121 122.925C90.115 123.363 94.1457 124.958 95.6084 127.112L95.6079 127.125Z" fill="#A7BC68"/>
    <path d="M95.3425 127.51C94.808 128.045 93.7754 128.142 93.2676 127.296C93.2323 127.233 93.1841 127.182 93.1608 127.132C87.9512 124.183 83.5224 128.857 78.8157 131.236C79.2197 130.165 79.5955 129.179 80.2956 128.242C81.5892 126.537 83.5311 125.277 85.6435 124.825C86.6681 124.604 87.7986 124.572 88.8159 124.882C91.1975 124.947 93.7625 125.808 95.3425 127.51Z" fill="#B5C780"/>
  </g>
  <defs>
    <clipPath id="clip0_121_45">
      <rect width="113.204" height="164.542" fill="white"/>
    </clipPath>
  </defs>
</svg>
