<svg width="114" height="165" viewBox="0 0 114 165" fill="none"
  xmlns="http://www.w3.org/2000/svg">
  <g clip-path="url(#clip0_121_6)">
    <path d="M58.0355 50.888C58.2004 49.9311 59.6937 50.2703 59.5293 51.2395C56.2703 70.7466 52.9179 91.1092 58.4638 110.521C59.7922 115.163 61.7336 119.424 63.8779 123.739C65.9011 127.837 66.5956 131.972 67.5138 136.382C69.3677 145.338 73.2701 153.712 78.8146 161.036C79.4085 161.816 78.109 162.63 77.5151 161.85C72.0889 154.67 68.167 146.445 66.2322 137.677C65.6892 135.241 65.3949 132.745 64.7892 130.311C64.1395 127.705 62.9843 125.341 61.7776 122.941C59.6904 118.809 57.9749 114.552 56.7663 110.091C51.4952 90.6439 54.7881 70.37 58.048 50.8876L58.0355 50.888Z" fill="#9BB55E"/>
    <path d="M30.6048 118.467C32.9972 121.032 35.292 123.675 37.4769 126.396C38.1613 127.247 38.8331 128.098 39.4934 128.975C41.9482 132.204 44.0012 135.757 46.554 138.921C48.8303 141.737 51.9236 142.918 55.2792 143.397C59.1393 143.944 63.3535 143.564 67.1083 143.645C68.1632 143.667 68.5457 142.492 68.1398 141.705C67.9774 141.39 67.8025 141.076 67.6276 140.761C67.1975 139.999 66.7433 139.263 66.2399 138.554C66.2126 138.493 66.1606 138.446 66.1207 138.385C66.1142 138.213 66.0581 138.054 65.9634 137.873C62.8398 131.866 57.8105 126.905 51.6379 123.914C48.5702 122.412 45.3404 121.607 42.0141 120.904C38.4353 120.162 34.8681 119.394 32.3175 116.625C31.1933 115.42 29.4815 117.287 30.5797 118.468L30.6048 118.467Z" fill="#B5C780"/>
    <path d="M46.9447 127.251C49.9285 127.855 52.84 128.87 55.5509 130.225C59.6678 132.268 63.3005 135.12 66.2649 138.553C66.9548 139.552 67.5965 140.602 68.1523 141.705C68.5457 142.492 68.1756 143.667 67.1208 143.645C60.1013 143.5 51.4485 144.973 46.5665 138.921C44.0141 135.769 41.9612 132.216 39.5058 128.974C38.8461 128.11 38.1738 127.246 37.4894 126.395C40.6478 126.635 43.8346 126.627 46.9447 127.251V127.251ZM62.4802 143.029C62.3494 142.885 62.218 142.73 62.0751 142.599C62.0422 142.724 61.9962 142.837 61.9247 142.938C62.1141 142.968 62.2913 143.011 62.4802 143.029Z" fill="#A7BC68"/>
    <path d="M46.9484 132.708C48.9469 131.46 51.056 132.159 53.0486 133.097C56.063 134.515 58.7241 136.218 61.8796 137.383C63.9284 138.146 66.0898 139.238 67.6401 140.761C67.815 141.075 67.9899 141.39 68.1522 141.704C68.5457 142.492 68.1756 143.667 67.1208 143.645C63.366 143.563 59.1517 143.943 55.2917 143.396C54.417 142.491 53.5786 141.547 52.7778 140.601C50.0233 139.087 47.6192 137.214 46.4257 134.16C46.2178 133.637 46.495 132.997 46.9614 132.72L46.9484 132.708Z" fill="#9BB55E"/>
    <path d="M-5.04132 96.0597C-4.39629 96.196 -3.76472 96.3081 -3.12153 96.3951C0.799782 96.9026 4.69665 96.4231 8.65335 96.2008C9.37963 96.1612 10.1189 96.1335 10.8712 96.1176C15.174 96.0922 19.6434 96.826 22.4838 100.3C22.6551 100.516 22.8731 100.644 23.0894 100.722C23.1929 100.805 23.321 100.874 23.4606 100.918C23.894 101.433 24.3278 101.96 24.7616 102.487C24.9458 102.714 25.1783 102.891 25.4326 102.98C28.7093 106.71 32.4654 109.841 37.8417 109.997C44.0722 110.184 51.4575 109.709 55.3696 104.278C55.5845 103.986 55.6365 103.7 55.5641 103.444C55.768 102.856 55.5393 102.111 54.9393 101.837C54.8177 101.607 54.6103 101.43 54.343 101.329C54.2126 101.198 54.0586 101.105 53.8683 101.05C53.828 100.977 53.7755 100.918 53.7231 100.858C53.6317 100.763 53.5282 100.68 53.4002 100.611L38.7451 92.9245C38.4254 92.7636 38.1177 92.5899 37.798 92.429C33.4718 90.1588 29.1164 87.7786 24.3618 86.4628C20.1273 85.3003 15.2449 84.9277 11.274 87.1138C6.04903 89.989 1.60402 93.9215 -4.79592 93.5687C-6.26701 93.488 -6.4075 95.7651 -5.04132 96.0597V96.0597Z" fill="#E0E7CA"/>
    <path d="M-3.10954 96.3948C0.811776 96.9023 4.70863 96.4228 8.66532 96.2004C13.5734 95.9177 19.1561 96.227 22.4958 100.3C22.667 100.516 22.8851 100.643 23.1014 100.722C23.2049 100.804 23.3329 100.874 23.4726 100.918C23.906 101.432 24.3398 101.959 24.7736 102.486C24.9578 102.714 25.1903 102.891 25.4446 102.98C28.7212 106.709 32.4774 109.84 37.8536 109.997C44.0842 110.183 51.4695 109.709 55.3815 104.278C55.5964 103.986 55.6485 103.7 55.5761 103.443C55.7121 103.055 55.6575 102.601 55.4311 102.251C55.3114 102.07 53.6052 100.739 53.3875 100.624L38.7325 92.9374C34.1426 91.6649 29.4663 90.4326 24.705 89.9443C19.7549 89.4384 15.1507 90.1295 10.3678 91.4077C5.88286 92.6006 2.41442 95.4717 -2.23055 96.0779C-2.58046 96.1157 -2.87704 96.238 -3.13462 96.3958L-3.10954 96.3948Z" fill="#C3D299"/>
    <path d="M10.8832 96.1172C14.6463 96.0873 18.5449 96.6573 21.36 99.12C21.7623 99.4753 23.0824 100.883 23.7459 101.512C24.904 102.617 26.4779 104.102 26.7521 104.388C29.7282 107.462 33.1805 109.851 37.8658 109.984C44.0963 110.17 51.4816 109.696 55.3936 104.265C55.6086 103.973 55.6606 103.687 55.5882 103.43C55.792 102.842 50.3748 100.922 50.1205 100.832C43.3803 98.4304 37.1149 95.3069 29.7702 94.5203C25.9152 94.1092 21.876 93.8037 17.9921 93.9617C15.5363 94.0537 13.1633 95.0193 10.8832 96.1172V96.1172Z" fill="#D0DBAE"/>
    <path d="M-3.49986 68.5665C-2.59457 69.2858 2.05774 72.2229 2.31527 72.3984C2.61178 72.6095 2.92034 72.8079 3.22938 73.0185C4.64465 73.9533 6.10819 74.8368 7.57081 75.6957C9.49513 76.8212 11.4436 77.9211 13.3326 79.1097C13.7953 79.4011 14.2454 79.6929 14.6713 80.0103C19.1691 83.1754 22.152 87.1011 25.3459 91.6363C28.5394 96.1591 32.5545 99.5028 37.365 102.311C39.6225 103.621 42.0569 104.629 44.7072 104.702C44.8575 104.697 44.9958 104.704 45.1462 104.698C45.3717 104.69 45.5848 104.682 45.7968 104.649C47.1213 104.501 48.3089 104.049 49.5091 103.596C50.6043 103.358 51.7028 103.205 52.8296 103.138C52.9173 103.135 53.0045 103.12 53.0788 103.092C53.1813 103.15 53.2955 103.183 53.4092 103.203C53.4593 103.201 53.5104 103.224 53.5605 103.222C53.5855 103.221 53.5981 103.221 53.6106 103.22C53.9368 103.22 54.2687 103.035 54.4724 102.781C54.5342 102.754 54.608 102.714 54.6692 102.674C54.9268 102.517 55.0921 102.239 55.0652 101.857C55.0606 101.734 55.056 101.61 55.0258 101.476C55.0231 101.402 55.0207 101.34 55.0054 101.267C54.9693 100.972 54.8951 100.666 54.7967 100.385C54.7912 100.237 54.7351 100.079 54.6673 99.9457C54.6673 99.9457 54.6669 99.9334 54.6664 99.9211C54.6664 99.9211 54.6664 99.9211 54.6659 99.9088C54.6377 99.8234 54.5973 99.7508 54.5439 99.6664C54.517 99.618 54.478 99.5824 54.4516 99.5464C54.3449 99.3775 54.2136 99.2219 54.0707 99.0915C54.0317 99.0559 53.9797 99.0084 53.9148 98.9491C53.7074 98.7717 53.4215 98.5108 53.3306 98.4278C52.9032 98.0734 52.4879 97.7062 52.0601 97.3394C51.0092 96.4158 49.9443 95.4556 48.891 94.4702C45.7172 91.4777 42.6716 88.2211 40.2353 84.8182C38.8457 82.8948 38.0218 80.9995 36.0112 79.5809C33.9356 78.1029 31.5347 76.9829 29.2011 75.9838C18.9616 71.614 7.75591 70.256 -2.76632 66.7117C-3.87214 66.3333 -4.37869 67.8833 -3.4864 68.5907L-3.49986 68.5665Z" fill="#9BB55E"/>
    <path d="M3.22867 73.0063C6.50977 75.1799 10.0035 76.9998 13.344 79.0847C18.6125 82.3938 21.858 86.6307 25.3698 91.6107C28.5633 96.1335 32.5784 99.4773 37.3889 102.285C39.6464 103.596 42.0808 104.603 44.7311 104.677C46.502 104.721 48.0242 104.158 49.546 103.583C50.6412 103.344 51.7397 103.192 52.8665 103.125C52.9542 103.121 53.0414 103.106 53.1157 103.078C53.2182 103.136 53.3324 103.169 53.4461 103.189C54.0629 102.907 54.5716 102.419 54.9425 101.602C54.9884 101.489 55.0344 101.377 55.0553 101.265C55.1733 100.729 55.0169 100.241 54.7033 99.9074C54.3502 99.5255 53.778 99.3247 53.1302 99.4478C53.0402 99.3894 52.9255 99.3443 52.8114 99.3116C48.0521 97.8725 44.1613 94.8328 40.4423 91.6878C36.7623 88.5785 33.0938 85.444 29.1492 82.6409C21.6599 77.3284 13.2799 73.358 3.92758 72.906C3.67605 72.8907 3.45144 72.9238 3.26673 73.0172L3.22867 73.0063Z" fill="#A7BC68"/>
    <path d="M7.57012 75.6834C9.49444 76.8089 11.4429 77.9089 13.3319 79.0975C13.7946 79.3888 14.2447 79.6806 14.6706 79.998C19.1684 83.1632 22.1513 87.0888 25.3452 91.624C28.5387 96.1468 32.5538 99.4905 37.3643 102.298C39.6218 103.609 42.0562 104.616 44.7065 104.69C44.8568 104.684 44.9951 104.692 45.1455 104.686C45.3585 104.678 45.5585 104.658 45.7585 104.638C45.7585 104.638 45.7836 104.637 45.7961 104.637C46.7085 104.541 47.5648 104.287 48.3946 103.996C48.7663 103.871 49.5084 103.584 50.5711 103.482C51.5963 103.382 52.9518 103.393 53.7719 103.177C54.0578 103.105 54.8249 102.817 55.0176 102.266C55.3574 101.29 55.1037 100.547 54.8485 100.1C54.7005 99.8334 54.1878 99.2106 54.0445 99.0678C54.0055 99.0322 53.9535 98.9848 53.8886 98.9255C53.8129 98.916 53.7373 98.9065 53.6496 98.9097C53.4366 98.9177 52.7599 98.9431 52.5845 98.9497C47.3758 98.9103 42.2177 95.8687 37.7365 93.4808C33.37 91.138 29.9132 87.9586 26.1208 84.8658C22.4969 81.9148 18.4176 79.8699 14.0848 78.0938C11.9187 77.2119 9.76506 76.3296 7.54459 75.672L7.57012 75.6834Z" fill="#B5C780"/>
    <path d="M27.2114 28.2628C27.5454 28.8059 27.892 29.3485 28.2386 29.8911C29.7603 32.3282 31.2816 34.753 32.8159 37.1896C32.9626 37.4187 33.1096 37.6601 33.2562 37.8892C34.9914 40.664 36.65 43.4046 39.1896 45.5443C44.0487 49.6466 50.1981 52.3547 56.4875 53.4401C56.8411 53.5009 57.2768 53.4105 57.5164 53.1052C57.5646 53.054 57.6004 53.0033 57.6231 52.9407C57.8454 52.8459 58.0408 52.7028 58.1211 52.5022C58.1671 52.3894 58.2135 52.2889 58.2474 52.1888C58.3737 51.8754 58.4104 51.516 58.2489 51.2257C57.9628 49.9523 57.4924 48.7846 56.8865 47.6837C55.9962 46.0255 54.7982 44.5271 53.4777 43.1073C51.1638 40.6258 48.6345 38.0907 45.8026 36.1842C40.5508 32.6523 33.0952 32.2526 28.9518 27.1604C28.1491 26.1657 26.5034 27.1163 27.2109 28.2505L27.2114 28.2628Z" fill="#E0E7CA"/>
    <path d="M28.2386 29.891C29.9069 32.5572 31.5753 35.2233 33.2562 37.889C34.9914 40.6638 36.65 43.4045 39.1896 45.5441C44.0487 49.6464 50.1981 52.3545 56.4874 53.4399C56.9042 53.5107 57.4379 53.3549 57.6236 52.9529C57.8459 52.8581 58.0413 52.715 58.1216 52.5144C58.1675 52.4015 58.214 52.301 58.2479 52.201C58.3741 51.8876 58.4109 51.5281 58.2494 51.2378C57.9633 49.9645 57.4929 48.7968 56.887 47.6959C56.7297 47.5166 56.5599 47.3378 56.378 47.1717C55.5363 46.1414 54.4371 45.2689 53.3248 44.3846C50.596 42.215 47.9071 39.7723 44.7851 38.1607C42.1108 36.7793 38.3106 36.823 36.0518 34.8086C35.0129 33.8721 34.5755 32.5797 33.3546 31.8106C32.1078 31.0177 30.5142 31.0157 29.3737 30.046C28.9978 29.7267 28.5583 29.7185 28.2265 29.9038L28.2386 29.891Z" fill="#D0DBAE"/>
    <path d="M32.8161 37.1896C32.9627 37.4187 33.1097 37.6602 33.2564 37.8892C34.9915 40.664 36.6502 43.4047 39.1897 45.5443C44.0488 49.6466 50.1982 52.3547 56.4876 53.4401C56.8412 53.501 57.277 53.4106 57.5165 53.1053C57.6437 52.8165 57.718 52.4557 57.7143 52.0236C57.7365 49.6028 55.0599 48.8265 53.5412 47.4758C51.3743 45.5691 49.6752 43.7561 46.9698 42.5487C44.6728 41.5235 42.2152 40.8995 39.8147 40.1252C37.3887 39.3395 35.0792 38.3148 32.8161 37.1896V37.1896Z" fill="#C3D299"/>
    <path d="M57.7087 51.5423C57.7068 52.1598 57.7178 52.7891 57.7159 53.4065C57.7168 53.4311 57.7182 53.4681 57.7191 53.4928L57.7201 53.5175C57.7205 53.5298 57.721 53.5421 57.7214 53.5544C57.7224 53.5791 57.7228 53.5914 57.7488 53.6152C57.7627 53.6517 57.7892 53.6877 57.8277 53.711C57.9321 53.8182 58.0977 53.8861 58.2602 53.8676C58.3729 53.8634 58.4964 53.8094 58.5809 53.7198C58.955 53.323 59.3295 52.9386 59.7162 52.5413C59.8373 52.4256 59.9454 52.2981 60.0666 52.1824C60.2476 51.9904 60.4416 51.8103 60.6226 51.6183C60.683 51.5543 60.7312 51.5031 60.7916 51.4391C61.097 51.2178 61.4019 50.9841 61.6813 50.739C62.4541 50.2656 63.1619 49.7328 63.8302 49.1522C64.2461 48.8649 66.9933 46.1691 67.2936 45.8121C68.0275 44.9697 68.6972 44.0926 69.2515 43.1458C69.9556 42.1811 70.5582 41.183 71.06 40.1765C72.74 36.7921 74.0428 32.7181 74.0337 28.7921C74.0532 28.6432 74.0727 28.4943 74.0922 28.3454C74.3863 25.8156 73.8285 23.3177 73.8841 20.7844C73.9449 18.0535 74.6497 15.4342 75.8117 12.9582C75.8924 12.77 75.898 12.5846 75.8544 12.4257C75.9125 12.3 75.9575 12.1625 76.0026 12.025C76.1404 11.6865 75.9159 11.3862 75.637 11.3103C75.4718 11.2547 75.2847 11.2864 75.1654 11.4514C75.0021 11.4452 74.829 11.5134 74.7362 11.7144C74.6781 11.8401 74.6071 11.9539 74.5491 12.0795C74.5249 12.1051 74.5013 12.143 74.4897 12.1682C74.3031 12.2122 74.1444 12.3293 74.0399 12.5554C73.1825 14.452 71.4342 15.3448 69.8882 16.6127C68.7316 17.5574 67.7439 18.6563 66.7691 19.767C66.227 20.3677 65.7108 20.992 65.1947 21.6164C63.4912 23.7051 61.9428 25.9116 60.6634 28.2684C58.9259 31.4574 57.6756 34.9244 57.2333 38.5216C56.8086 41.9207 57.2879 45.3352 57.628 48.7179C57.6395 49.3595 57.651 50.0011 57.6504 50.6555C57.6555 50.7912 57.6606 50.9268 57.6657 51.0624C57.6657 51.0624 57.6671 51.0994 57.6684 51.1364C57.6731 51.2597 57.6777 51.383 57.6828 51.5186L57.7087 51.5423Z" fill="#9BB55E"/>
    <path d="M57.6942 51.1602C57.6691 51.4945 57.5561 52.8322 57.7064 53.4933L57.7073 53.518C57.7078 53.5303 57.7083 53.5427 57.7087 53.555C57.7096 53.5797 57.7101 53.592 57.7361 53.6157C57.8846 53.8941 58.3393 53.9759 58.5682 53.7203C58.9423 53.3236 59.3168 52.9391 59.7035 52.5419C60.3292 51.1602 60.6399 49.741 61.6583 48.4558C62.6414 47.2336 63.6384 46.048 64.5185 44.7556C66.4221 41.9802 67.9131 38.9116 68.7323 35.6583C69.7362 31.6449 69.7791 27.433 70.4424 23.3706C71.1248 19.147 73.7251 15.2096 75.6154 11.4099C75.627 11.3848 75.6386 11.3597 75.6502 11.3345C75.485 11.279 75.298 11.3107 75.1787 11.4757C75.0154 11.4695 74.8423 11.5377 74.7494 11.7387C74.6914 11.8644 74.6204 11.9781 74.5623 12.1038C74.5382 12.1294 74.5145 12.1673 74.5029 12.1924C74.3164 12.2365 74.1576 12.3536 74.0532 12.5797C73.1958 14.4763 71.4475 15.369 69.9015 16.637C68.7448 17.5817 67.7571 18.6806 66.7824 19.7913C64.4714 22.4091 62.3437 25.2299 60.6767 28.2927C58.9392 31.4817 57.6889 34.9487 57.2465 38.5459C56.8218 41.9449 57.3012 45.3594 57.6413 48.7421C57.6653 49.3833 57.6643 50.0254 57.6637 50.6798C57.6688 50.8154 57.6739 50.9511 57.6789 51.0867C57.6789 51.0867 57.6803 51.1237 57.6817 51.1607L57.6942 51.1602Z" fill="#A7BC68"/>
    <path d="M57.7087 51.5423C57.7068 52.1597 57.7178 52.789 57.7159 53.4064C57.7168 53.4311 57.7182 53.468 57.7191 53.4927L57.72 53.5174C57.7205 53.5297 57.7209 53.542 57.7214 53.5544C57.7223 53.579 57.7228 53.5913 57.7488 53.6151C57.7627 53.6516 57.7891 53.6876 57.8277 53.7109C57.9687 53.792 58.1209 53.8357 58.2601 53.8675C58.3729 53.8633 58.4964 53.8093 58.5808 53.7197C58.9549 53.3229 59.3295 52.9385 59.7161 52.5412C59.8373 52.4255 59.9454 52.298 60.0666 52.1824C59.759 48.6626 61.1623 45.5973 62.5611 42.4087C63.6827 39.8602 64.5518 37.2718 65.1653 34.5572C66.1442 30.2113 66.6187 25.798 65.2202 21.6277C63.5167 23.7165 61.9683 25.9229 60.6889 28.2797C58.9514 31.4687 57.7011 34.9357 57.2588 38.5329C56.8341 41.932 57.3134 45.3465 57.6535 48.7292C57.665 49.3708 57.6765 50.0124 57.6759 50.6668C57.681 50.8025 57.6861 50.9381 57.6912 51.0737C57.6912 51.0737 57.6925 51.1107 57.6939 51.1477C57.6986 51.271 57.7032 51.3943 57.7083 51.5299L57.7087 51.5423Z" fill="#B5C780"/>
    <path d="M56.9872 83.1779C58.3954 82.2485 59.8717 81.4647 61.3889 80.7657C64.633 79.2736 68.0533 78.133 71.2566 76.5559C75.5189 74.4453 79.4848 71.7902 83.0958 68.7039C85.1504 67.6145 87.0844 66.3196 88.7808 64.7126C92.0168 61.6651 94.3716 57.5393 96.8035 53.7934C98.0775 52.6344 99.4694 51.6068 101.022 50.8449C103.868 49.4541 107.049 49.2855 110.172 49.2548C110.711 49.247 111.025 48.9019 111.097 48.4917C111.259 48.1276 111.231 47.6965 110.856 47.4142C110.456 47.1205 110.07 46.851 109.684 46.6062C109.619 46.5469 109.541 46.488 109.452 46.442C109.427 46.443 109.413 46.4188 109.388 46.4197C108.836 46.0823 108.287 45.8189 107.727 45.6177C107.384 45.5071 107.042 45.4211 106.702 45.3721C106.664 45.3612 106.625 45.3503 106.587 45.3394C101.973 43.759 97.063 43.9801 92.7293 45.8588C89.3015 46.8022 85.9887 48.4697 82.8578 50.3033C81.0775 51.3455 79.3495 52.4474 77.6824 53.4977C75.1943 55.0726 72.5401 56.5673 70.3948 58.5862C68.2371 60.6055 66.805 63.2398 65.4838 65.8204C64.022 68.6657 62.3134 71.2856 60.6841 74.0136C59.2084 76.4889 58.5721 79.9329 55.9067 81.4651C55.8821 81.4784 55.87 81.4912 55.8459 81.5168C54.8573 82.2576 55.8817 83.812 57.0123 83.177L56.9872 83.1779Z" fill="#9BB55E"/>
    <path d="M56.9873 83.178C58.3954 82.2486 59.8717 81.4647 61.3889 80.7658C64.9361 78.6573 68.7093 76.8861 71.1819 73.5585C74.335 69.304 76.6987 64.7458 80.3544 60.8429C87.6419 53.0751 97.1493 47.6194 107.703 45.631C107.36 45.5204 107.018 45.4345 106.677 45.3855C106.639 45.3746 106.601 45.3636 106.563 45.3527C101.949 43.7724 97.0385 43.9935 92.7047 45.8721C87.3147 47.3583 82.242 50.6105 77.6579 53.511C75.1698 55.0859 72.5155 56.5806 70.3702 58.5995C68.2125 60.6189 66.7804 63.2531 65.4592 65.8338C63.9974 68.679 62.2888 71.2989 60.6595 74.027C59.1838 76.5023 58.5475 79.9463 55.8821 81.4785C54.7803 82.2112 55.8451 83.8382 56.9873 83.178V83.178Z" fill="#A7BC68"/>
    <path d="M55.8338 81.5297C56.3246 82.2397 57.2161 82.5891 58.0933 81.8895C64.5131 76.7471 70.2744 71.4441 74.3988 64.3134C76.6385 60.4636 78.5437 56.3917 80.7969 52.5661C81.0146 52.348 81.2448 52.1295 81.4616 51.8868C81.9443 51.3748 82.4015 50.8515 82.8457 50.3162C81.0653 51.3584 79.3374 52.4603 77.6703 53.5105C75.1822 55.0855 72.5279 56.5802 70.3827 58.5991C68.2249 60.6184 66.7929 63.2527 65.4717 65.8333C64.0099 68.6786 62.3012 71.2985 60.6719 74.0265C59.1963 76.5018 58.56 79.9458 55.8946 81.478C55.87 81.4913 55.8579 81.5041 55.8338 81.5297V81.5297Z" fill="#B5C780"/>
    <path d="M55.9283 86.3909C56.041 86.3867 56.1538 86.3825 56.2657 86.3536C56.8383 86.2334 57.3976 86.0889 57.9299 85.8961C59.4043 85.3964 60.7827 84.6779 62.2117 83.97C64.4051 82.9 66.6847 82.1231 69.0594 81.5402C73.6729 80.4289 78.4162 80.103 83.0956 79.409C90.5204 78.3158 97.4326 75.933 103.646 71.9713C104.773 71.25 105.886 70.4798 106.972 69.6489C108.045 68.8308 107.295 67.2291 106.268 67.2676C106.045 67.0167 105.725 66.8434 105.286 66.8599C102.316 66.9465 99.3878 66.5007 96.6472 65.3563C95.2449 64.7668 93.9577 63.9014 92.5554 63.3119C92.1215 63.1183 91.6639 62.9626 91.2078 62.8438C90.1437 62.575 89.0114 62.494 87.8591 62.5495C81.4615 61.925 75.2696 64.108 69.8514 67.8547C66.61 70.0875 63.1425 72.6498 60.7117 75.7537C59.5499 77.2295 58.6197 78.8571 57.4704 80.3324C56.4047 81.6935 55.3455 82.8939 54.7164 84.5226C54.3506 85.4747 54.9231 86.3545 55.9018 86.3549L55.9283 86.3909Z" fill="#9BB55E"/>
    <path d="M55.9282 86.3907C59.3918 84.7299 62.315 82.0398 65.7224 80.2205C69.5852 78.1619 73.6925 76.6004 77.8294 75.1612C82.3256 73.5975 86.9248 71.7706 91.7145 71.3441C95.7037 70.9847 99.6979 71.4277 103.659 71.9953C104.786 71.274 105.899 70.5038 106.985 69.6729C108.059 68.8548 107.308 67.2531 106.281 67.2916C106.058 67.0406 105.738 66.8674 105.299 66.8839C102.329 66.9705 99.4012 66.5246 96.6606 65.3803C94.8249 64.6095 93.172 63.3627 91.2212 62.8678C90.1571 62.599 89.0248 62.518 87.8725 62.5735C81.4749 61.949 75.2829 64.132 69.8648 67.8787C66.6234 70.1115 63.1559 72.6738 60.7251 75.7776C59.5633 77.2535 58.633 78.8811 57.4838 80.3564C56.4181 81.7175 55.3589 82.9178 54.7298 84.5465C54.3639 85.4986 54.9365 86.3785 55.9152 86.3789L55.9282 86.3907Z" fill="#A7BC68"/>
    <path d="M55.9282 86.3908C56.041 86.3865 56.1538 86.3823 56.2656 86.3534C56.8383 86.2332 57.3975 86.0887 57.9298 85.8959C58.4636 85.4067 58.9301 84.7966 59.4462 84.1722C60.7431 82.6173 61.988 81.0149 63.2588 79.4362C65.9315 76.0888 68.9678 73.7401 72.986 72.1449C79.7112 69.4605 87.1611 68.3663 92.5938 63.335C92.16 63.1413 91.7024 62.9856 91.2462 62.8669C90.1822 62.5981 89.0499 62.5171 87.8976 62.5726C81.5 61.9481 75.308 64.131 69.8899 67.8777C66.6485 70.1106 63.181 72.6729 60.7502 75.7767C59.5884 77.2525 58.6581 78.8802 57.5089 80.3555C56.4431 81.7166 55.3839 82.9169 54.7549 84.5456C54.389 85.4977 54.9616 86.3776 55.9403 86.378L55.9282 86.3908Z" fill="#C3D299"/>
    <path d="M64.3969 127.547C64.3969 127.547 64.4243 127.608 64.4503 127.632C64.8628 128.258 65.8999 128.479 66.5038 127.851C66.6365 127.71 66.7813 127.557 66.9141 127.416C67.2282 127.429 67.5629 127.317 67.8404 127.023C69.4844 125.356 72.3055 125.3 74.3782 124.358C76.4142 123.442 78.3375 122.197 80.2251 121.003C84.2327 118.457 87.0632 114.635 91.2866 112.488C94.9187 110.636 97.5008 107.885 99.5784 104.732C101.549 101.732 103.053 98.3421 104.559 95.0013C105.358 93.2304 106.158 91.4719 107.024 89.7972C107.738 88.4247 106.008 87.4647 104.962 88.3435C100.762 91.7976 97.2743 95.8177 92.4712 98.5659C88.0979 101.063 83.3266 101.983 78.7167 103.86C74.4777 105.587 72.0241 108.42 70.0025 112.397C67.6647 116.979 65.7993 121.778 64.3275 126.698C64.2263 127.01 64.2749 127.305 64.3965 127.535L64.3969 127.547Z" fill="#D0DBAE"/>
    <path d="M64.3969 127.547C64.7741 128.237 65.8762 128.517 66.5038 127.851C66.6365 127.71 66.7813 127.557 66.9141 127.416C67.2282 127.429 67.5628 127.317 67.8404 127.023C69.4844 125.356 72.3055 125.3 74.3782 124.358C76.4142 123.442 78.3375 122.197 80.2251 121.003C84.2327 118.457 87.0632 114.634 91.2866 112.488C98.3786 108.876 101.465 101.846 104.559 95.0012C100.974 95.4319 98.1984 97.709 95.6443 100.2C91.9395 103.796 88.2043 106.245 83.4644 108.337C79.6253 110.024 76.1185 111.871 73.1703 114.896C70.2587 117.894 67.1614 121.295 65.2693 125.045C64.8719 125.825 64.5651 126.677 64.3965 127.535L64.3969 127.547Z" fill="#C3D299"/>
    <path d="M64.4633 127.643C64.8758 128.27 65.9129 128.49 66.5168 127.863C66.6495 127.722 66.7943 127.568 66.9271 127.428C67.2413 127.441 67.5759 127.329 67.8534 127.035C69.4974 125.368 72.3185 125.312 74.3912 124.37C76.4272 123.454 78.3505 122.209 80.2381 121.014C84.2457 118.469 87.0762 114.646 91.2996 112.5C94.9317 110.648 97.5138 107.896 99.5914 104.744C98.2461 105.004 96.8769 105.636 95.8067 106.207C93.3961 107.507 91.0816 108.693 88.4804 109.593C86.2263 110.381 83.9573 111.108 81.8275 112.201C77.8631 114.226 73.5351 117.599 70.7794 121.073C69.366 122.867 68.6993 124.83 66.6108 126.02C65.7875 126.483 65.0282 126.98 64.4754 127.631L64.4633 127.643Z" fill="#E0E7CA"/>
    <path d="M64.8078 127.124C64.8635 127.271 64.9563 127.403 65.0857 127.509C65.6202 128.045 66.6528 128.142 67.1606 127.296C67.1959 127.232 67.2442 127.181 67.2674 127.131C72.477 124.182 76.9059 128.856 81.6125 131.236C82.406 131.651 83.2214 131.978 84.033 132.207C85.8585 132.707 87.732 132.809 89.5544 132.556C92.7756 132.126 95.8308 130.617 98.1529 128.295C99.2172 127.23 97.7417 125.692 96.5253 126.38C92.6537 128.538 88.7136 126.191 85.6748 123.786C83.1928 121.842 80.9938 120.418 77.7458 120.133C73.0379 119.729 68.2089 121.453 65.4652 125.248C65.4411 125.273 65.4165 125.287 65.3798 125.313C65.0628 125.559 64.911 125.861 64.8599 126.172C64.6719 126.512 64.6844 126.845 64.8078 127.124V127.124Z" fill="#9BB55E"/>
    <path d="M64.8077 127.125C65.1654 127.963 66.5468 128.331 67.1605 127.296C67.1958 127.233 67.244 127.181 67.2672 127.131C73.3615 123.68 78.3914 130.665 84.0328 132.207C85.8584 132.707 87.7319 132.809 89.5543 132.556C84.1648 128.362 79.8872 121.028 72.1035 122.925C70.3005 123.363 66.2698 124.958 64.8072 127.112L64.8077 127.125Z" fill="#A7BC68"/>
    <path d="M65.0731 127.51C65.6076 128.045 66.6402 128.142 67.148 127.296C67.1833 127.233 67.2315 127.182 67.2547 127.132C72.4644 124.183 76.8932 128.857 81.5999 131.236C81.1959 130.165 80.8201 129.179 80.12 128.242C78.8264 126.537 76.8845 125.277 74.7721 124.825C73.7475 124.604 72.617 124.572 71.5997 124.882C69.2181 124.947 66.6531 125.808 65.0731 127.51V127.51Z" fill="#B5C780"/>
  </g>
  <defs>
    <clipPath id="clip0_121_6">
      <rect width="113.204" height="164.542" fill="white"/>
    </clipPath>
  </defs>
</svg>
