<svg width="166" height="114" viewBox="0 0 166 114" fill="none"
  xmlns="http://www.w3.org/2000/svg">
  <g clip-path="url(#clip0_121_2)">
    <path d="M95.4648 91.5755L93.9967 91.8912C93.9967 91.8912 92.624 74.9782 92.9799 72.1569C91.7166 72.5957 90.8277 74.4579 90.5208 74.8835C85.804 81.3485 82.8901 83.2388 76.3805 87.9018C75.3621 88.6264 74.2184 87.0967 75.2368 86.3721C78.1655 84.2806 80.9241 81.9808 83.5022 79.5011C80.3037 80.5504 76.9606 80.9858 73.5384 80.7861C72.3029 80.7173 72.6322 78.8121 73.8544 78.8825C78.4026 79.1371 82.7285 78.1559 86.791 76.0646C86.8297 76.0466 86.8683 76.0287 86.9069 76.0107C89.3803 73.3016 91.673 70.4125 93.717 67.338C96.6616 62.9218 98.859 57.5467 102.776 53.9151C100.651 54.5153 98.5117 55.1038 96.3829 55.6642C86.2484 58.2986 75.6392 60.1299 65.1611 60.227C64.5142 60.2364 62.2974 60.3372 61.352 60.4624C60.8986 60.516 60.4199 60.586 59.9945 60.6497C59.3558 60.7386 57.7789 61.1532 57.0394 61.442C56.0653 61.8123 54.5802 62.5919 53.4722 63.2331C52.797 63.6217 51.5831 64.5439 51.3356 64.7611C48.2526 67.4482 45.3916 70.324 43.5068 74.0241C42.9458 75.1243 41.18 74.3662 41.7531 73.2512C43.4363 69.9508 45.8296 67.2513 48.489 64.7753C45.074 66.6021 41.8804 68.8726 38.9868 71.5642C38.0755 72.4104 36.9438 70.8659 37.8431 70.0346C42.9678 65.2936 48.918 61.8782 55.4925 59.7988C47.1019 58.9377 38.8969 56.7389 31.2055 52.7204C30.1206 52.1505 30.9092 50.379 32.0087 50.9607C45.4664 58.0032 60.4509 59.3202 75.3214 57.7104C65.854 51.2703 60.3602 39.6614 48.9855 36.0515C47.8132 35.6798 48.6165 33.92 49.7888 34.2917C53.012 35.3071 55.7488 36.9707 58.2344 38.946C57.1886 36.6663 56.4519 34.2427 56.0656 31.6836C55.8846 30.4564 57.8062 30.2427 57.9858 31.4567C58.6073 35.5051 60.1186 39.1529 62.5374 42.4384C62.6793 42.6365 63.8391 44.1912 64.3997 44.7828C68.2683 48.9039 71.9721 53.2594 76.7167 56.3237C76.9051 56.4491 77.5331 56.7777 77.768 56.8305C78.1551 56.919 78.6903 57.0035 79.168 57.0544C79.5643 57.1016 80.5939 57.0067 80.8206 56.9799C86.6661 56.0742 92.4704 54.7706 98.13 53.2424C104.21 51.5974 110.254 49.7419 116.275 47.795C112.805 46.2181 110.317 43.1824 107.689 40.3512C105.624 38.1382 103.38 36.1478 100.956 34.38C100.855 34.3115 100.378 34.0054 100.193 33.9198C99.9116 33.8054 99.2031 33.7414 99.0311 33.7752C97.835 33.9568 96.7396 34.328 95.6193 34.8497C94.6787 35.2831 92.7757 35.9377 92.2957 36.9074C91.736 38.0208 89.9702 37.2628 90.5419 36.1346C91.2129 34.7932 92.572 34.2298 93.868 33.5799C95.0735 32.9675 96.3019 32.4463 97.5909 32.1194C95.3151 30.737 92.9238 29.5427 90.417 28.5366C89.2765 28.0807 90.065 26.3092 91.2203 26.7769C96.7267 28.9859 101.812 32.0771 106.181 36.0853C110.06 39.6548 113.262 45.1571 118.607 46.5929C118.844 46.659 120.063 46.5686 120.389 46.4629C123.953 45.2899 127.499 44.0786 131.044 42.854C135.605 41.2811 140.144 39.6169 144.613 37.7998C138.334 36.4742 132.552 33.6935 127.578 29.5823C126.633 28.7944 127.839 27.2823 128.798 28.0685C134.067 32.4136 140.226 35.1899 146.979 36.2715C147.158 36.3041 147.626 36.2621 148.039 36.2133C148.346 36.177 149.127 35.8968 149.333 35.8052C154.215 33.6708 158.993 31.3204 163.63 28.651C164.699 28.0278 165.857 29.5559 164.774 30.1807C157.958 34.1011 150.833 37.3868 143.546 40.2754C143.417 40.331 143.224 40.421 143.019 40.5258C142.672 40.701 142.059 41.1628 141.962 41.2682C140.132 43.1494 139.413 45.7316 138.26 48.0162C137.801 48.9297 137.26 49.8394 136.6 50.6291C135.696 51.6758 134.242 52.3711 133.558 53.5799C132.954 54.6582 131.188 53.9002 131.804 52.8071C132.475 51.5999 133.378 51.0636 134.392 50.165C135.64 49.0508 136.392 47.579 137.061 46.0902C137.711 44.6708 138.31 43.2842 139.083 42.0114C136.652 42.9163 134.219 43.7946 131.755 44.6363C125.055 46.9452 118.325 49.2175 111.538 51.3221C111.236 51.4114 110.169 51.7927 109.719 52.007C108.379 52.6219 106.107 53.763 105.628 54.0882C102.892 55.9556 99.0448 61.8211 99.0448 61.8211C99.0448 61.8211 98.5384 66.2609 98.2709 69.1107C97.6886 75.313 97.2016 85.0207 97.2016 85.0207L96.0901 85.9113C96.0901 85.9113 97.4836 67.2427 96.3904 65.8782C95.2972 64.5137 94.6158 77.6265 94.6158 77.6265" fill="#274B25"/>
    <path d="M37.4117 38.5942C41.365 37.9257 45.306 37.1377 49.2524 36.4029C49.5964 36.3354 49.8319 36.1331 49.9672 35.8754C50.542 35.8209 50.8406 35.3157 50.8165 34.8218C50.8069 34.7289 50.7987 34.6493 50.7891 34.5565C50.7891 34.5565 50.7877 34.5432 50.7863 34.5299C49.9995 31.884 47.868 30.5919 45.7849 28.9852C43.3341 27.0863 41.7303 24.2414 38.5755 23.3656C33.9614 22.0848 26.7356 23.9993 23.9503 28.128C22.5823 30.1693 22.4071 32.2576 23.078 34.0446C23.6965 35.7169 25.0293 37.1169 26.7955 38.0092C27.3232 38.2825 27.9002 38.5097 28.5103 38.6659C31.4007 39.4656 34.505 39.0719 37.4357 38.5645L37.4117 38.5942Z" fill="#406A2F"/>
    <path d="M37.4117 38.5942C41.365 37.9257 45.306 37.1377 49.2524 36.4029C49.5964 36.3354 49.8319 36.1331 49.9672 35.8754C50.542 35.8209 50.8406 35.3157 50.8165 34.8218C50.8069 34.7289 50.7987 34.6493 50.7891 34.5565C50.7891 34.5565 50.7877 34.5432 50.7863 34.5299C46.5189 31.7717 41.7333 29.8795 36.6367 29.1526C32.9121 28.6396 26.4186 27.8496 23.9043 31.5973C23.3425 32.429 23.0903 33.251 23.078 34.0446C23.6965 35.7169 25.0293 37.1169 26.7955 38.0092C27.3232 38.2825 27.9002 38.5097 28.5103 38.6659C31.4007 39.4656 34.505 39.0719 37.4357 38.5645L37.4117 38.5942Z" fill="#3B622C"/>
    <path d="M37.4117 38.5942C41.365 37.9257 45.306 37.1377 49.2524 36.4029C49.5964 36.3354 49.8319 36.1331 49.9672 35.8754C50.542 35.8209 50.8406 35.3157 50.8165 34.8218C46.5638 32.9882 42.0735 31.7324 37.4324 31.2336C33.9376 30.8545 28.8308 30.29 26.8315 34.0574C26.0634 35.5042 26.1408 36.9049 26.7697 38.0255C27.2974 38.2988 27.8744 38.5259 28.4844 38.682C31.3748 39.4817 34.4792 39.0879 37.4098 38.5805L37.4117 38.5942Z" fill="#274B25"/>
    <path d="M58.3826 30.718C58.5169 30.5813 58.6379 30.4462 58.7428 30.2861C58.8491 30.1393 58.926 29.969 59.0162 29.7972C59.8181 28.0242 59.4738 25.2185 59.8158 23.5669C60.4841 20.373 61.6304 17.7537 60.723 14.4641C60.1043 12.2682 58.7399 10.0396 56.669 8.94168C54.2414 7.65772 51.8381 8.30423 50.0285 9.86075C48.8002 10.9055 47.8454 12.3744 47.331 13.9255C47.1975 14.3307 47.0933 14.7592 47.0145 15.1713C45.9048 21.6665 50.6259 26.7207 54.8255 30.9102C55.1104 31.1853 55.4239 31.2153 55.6957 31.1027C56.5613 31.5106 57.5246 31.5578 58.396 30.7164L58.3826 30.718Z" fill="#406A2F"/>
    <path d="M58.3826 30.718C58.5169 30.5813 58.6379 30.4462 58.7428 30.2861C58.8491 30.1393 58.926 29.969 59.0162 29.7972C59.3865 25.0274 58.5962 20.2605 56.4253 15.979C55.1855 13.5208 52.9808 9.95481 50.015 9.86225C48.7868 10.907 47.832 12.3759 47.3176 13.9271C47.184 14.3322 47.0799 14.7607 47.0011 15.1728C45.8915 21.668 50.6125 26.7223 54.812 30.9117C55.097 31.1868 55.4106 31.2168 55.6824 31.1042C56.548 31.5121 57.5113 31.5594 58.3826 30.718Z" fill="#3B622C"/>
    <path d="M58.3826 30.718C58.5169 30.5813 58.6379 30.4462 58.7428 30.2861C57.5833 26.5161 52.7976 13.5344 47.3188 13.9403C47.1853 14.3454 47.0811 14.7739 47.0023 15.186C45.8927 21.6812 50.6137 26.7355 54.8133 30.9249C55.0982 31.2001 55.4118 31.2301 55.6836 31.1174C56.5492 31.5253 57.5124 31.5726 58.3838 30.7312L58.3826 30.718Z" fill="#274B25"/>
    <path d="M68.1352 103.96C69.3024 103.5 70.4638 102.853 71.5939 102.034C73.628 100.559 74.8671 98.7072 75.4965 96.31C75.9912 94.439 76.3444 92.5042 76.7551 90.6029C77.0514 89.2923 77.7737 87.663 77.487 86.3274C77.3356 85.6471 76.6916 85.2935 76.0509 85.6243C76.0109 85.6291 75.9562 85.6221 75.9029 85.6284C75.5014 85.6624 75.1014 85.7097 74.6894 85.7718C74.436 85.8018 74.1826 85.8317 73.9307 85.8749C73.7973 85.8907 73.6639 85.9065 73.5439 85.9206C73.1705 85.9648 72.7971 86.0089 72.4412 86.0912C72.1745 86.1227 71.9184 86.1262 71.6531 86.171C68.9764 86.3934 66.3108 86.7219 63.6482 87.2111C60.9324 87.7066 57.628 88.124 55.5449 90.1693C51.9787 93.6654 53.7099 99.0461 56.9399 101.954C57.6555 102.608 58.3987 103.137 59.1563 103.545C62.0063 105.128 65.1146 105.163 68.1352 103.96Z" fill="#406A2F"/>
    <path d="M68.1352 103.96C69.3024 103.5 70.4638 102.853 71.5939 102.034C73.628 100.559 74.8671 98.7072 75.4965 96.31C75.9912 94.439 76.3444 92.5042 76.7551 90.6029C77.0514 89.2923 77.7737 87.663 77.487 86.3274C77.3356 85.6471 76.6916 85.2935 76.0509 85.6243C76.0109 85.6291 75.9562 85.6221 75.9029 85.6284C75.5014 85.6624 75.1014 85.7097 74.6894 85.7718C74.436 85.8018 74.1826 85.8317 73.9307 85.8749C73.7973 85.8907 73.6639 85.9065 73.5439 85.9206C68.8509 87.2675 64.1083 89.0497 60.6621 92.5316C57.7771 95.437 56.2561 100.303 59.1563 103.545C62.0063 105.128 65.1146 105.163 68.1352 103.96Z" fill="#3B622C"/>
    <path d="M68.1352 103.96C69.3024 103.5 70.4638 102.853 71.5939 102.034C73.628 100.559 74.8671 98.7072 75.4965 96.31C75.9912 94.439 76.3444 92.5042 76.7551 90.6029C77.0514 89.2923 77.7737 87.663 77.487 86.3274C77.3356 85.6471 76.6916 85.2935 76.0509 85.6243C76.0109 85.6291 75.9562 85.6221 75.9029 85.6284C75.5014 85.6624 75.1014 85.7097 74.6894 85.7718C71.6674 86.9614 68.9621 88.8654 66.8112 91.4289C64.6363 94.0221 61.5545 98.9378 63.9438 102.2C64.872 103.473 66.4369 103.986 68.123 103.975L68.1352 103.96Z" fill="#224120"/>
    <path d="M88.1599 44.935C89.4969 44.1594 90.2521 42.8484 90.8096 41.4534C91.6465 39.3674 92.328 37.4743 93.7032 35.6335C94.0593 35.1618 93.6536 34.6324 93.2186 34.6033C93.1396 34.4918 93.0219 34.3982 92.8431 34.3657C92.5534 34.3059 92.2251 34.2641 91.8982 34.2356C91.7488 34.2264 91.5993 34.2172 91.4366 34.2096C86.216 33.9806 77.3787 37.2804 81.3522 43.4569C81.9794 44.43 82.9244 45.0837 83.9699 45.4032C84.4572 45.547 84.9657 45.6346 85.4793 45.6411C86.3985 45.6533 87.3196 45.4237 88.1465 44.9366L88.1599 44.935Z" fill="#406A2F"/>
    <path d="M88.1599 44.935C89.4969 44.1594 90.2521 42.8484 90.8096 41.4534C91.6465 39.3674 92.328 37.4743 93.7032 35.6335C94.0593 35.1618 93.6536 34.6324 93.2186 34.6033C93.1396 34.4918 93.0219 34.3982 92.8431 34.3657C92.5534 34.3059 92.2251 34.2641 91.8982 34.2356C91.7488 34.2264 91.5993 34.2172 91.4366 34.2096C89.6748 34.7938 88.0125 35.688 86.6858 36.8249C84.8269 38.4275 82.9329 41.256 83.3179 43.8018C83.4118 44.4486 83.6561 44.9836 83.9828 45.4015C84.4702 45.5453 84.9787 45.6329 85.4923 45.6393C86.4114 45.6515 87.3329 45.4221 88.1599 44.935Z" fill="#3B622C"/>
    <path d="M88.1599 44.935C89.4969 44.1594 90.2521 42.8484 90.8096 41.4534C91.6465 39.3674 92.328 37.4743 93.7032 35.6335C94.0593 35.1618 93.6536 34.6324 93.2186 34.6033C93.1396 34.4918 93.0219 34.3982 92.8431 34.3657C92.5534 34.3059 92.2251 34.2641 91.8982 34.2356C90.1672 35.7694 88.6167 37.483 87.331 39.4073C86.222 41.0824 84.5764 43.5727 85.4936 45.6528C86.4128 45.665 87.3339 45.4354 88.1609 44.9483L88.1599 44.935Z" fill="#274B25"/>
    <path d="M29.3916 55.143C30.6782 54.9238 31.8294 54.4387 32.5434 53.6427C32.8719 53.295 33.1121 52.8773 33.2388 52.4058C33.4079 51.822 33.4045 51.1376 33.2008 50.3427C32.8015 48.8325 31.5004 47.7376 30.5805 46.544C29.1156 44.6495 28.2886 42.3976 26.9382 40.4358C26.9369 40.4226 26.9208 40.3976 26.9061 40.3859C26.0662 39.1828 24.9958 38.101 23.7525 37.1738C23.7512 37.1605 23.7231 37.1504 23.7084 37.1387C19.4665 33.9747 13.3541 32.5623 8.36119 34.0117C8.13822 33.9441 7.88485 33.9741 7.60794 34.1679C7.53205 34.2172 7.47086 34.2781 7.4083 34.3258C6.92725 34.5034 6.46367 34.7193 6.01615 34.9602C5.81103 35.065 5.69002 35.2001 5.62511 35.3555C4.07744 36.1829 2.97316 37.6426 2.25677 39.4593C2.24618 39.4874 2.23419 39.5022 2.23694 39.5287C2.17202 39.6841 2.1085 39.8528 2.04496 40.0214C1.37074 41.202 0.895565 42.4799 0.719648 43.9105C0.305839 47.4771 2.32119 50.1256 4.75975 52.4286C11.3865 58.6808 21.1102 56.5111 29.4141 55.1001L29.3916 55.143Z" fill="#406A2F"/>
    <path d="M32.5434 53.6427C32.8719 53.295 33.1121 52.8773 33.2388 52.4058C33.4079 51.822 33.4045 51.1376 33.2008 50.3427C32.8015 48.8325 31.5004 47.7376 30.5805 46.544C29.1156 44.6495 28.2886 42.3976 26.9382 40.4358C25.953 39.2634 24.8946 38.1666 23.7525 37.1738C23.7512 37.1605 23.7231 37.1504 23.7084 37.1387C19.4665 33.9747 13.3541 32.5623 8.36119 34.0117C8.13822 33.9441 7.88485 33.9741 7.60794 34.1679C7.53205 34.2172 7.47086 34.2781 7.4083 34.3258C6.92725 34.5034 6.46367 34.7193 6.01615 34.9602C5.81103 35.065 5.69002 35.2001 5.62511 35.3555C4.07744 36.1829 2.97316 37.6426 2.25677 39.4593C2.24618 39.4874 2.23419 39.5022 2.23694 39.5287C2.80287 43.3018 7.31917 46.3797 10.5867 47.9538C17.477 51.2747 24.7798 53.7548 32.5671 53.6131L32.5434 53.6427Z" fill="#3B622C"/>
    <path d="M33.2388 52.4058C33.4079 51.822 33.4045 51.1376 33.2008 50.3427C32.8015 48.8325 31.5004 47.7376 30.5805 46.544C29.1156 44.6495 28.2886 42.3976 26.9382 40.4358C26.9369 40.4226 26.9208 40.3976 26.9061 40.3859C26.0662 39.1828 24.9958 38.101 23.7525 37.1738C23.7512 37.1605 23.7231 37.1504 23.7084 37.1387C19.4665 33.9747 13.3541 32.5623 8.36119 34.0117C8.13822 33.9441 7.88485 33.9741 7.60794 34.1679C7.53205 34.2172 7.47086 34.2781 7.4083 34.3258C6.92725 34.5034 6.46367 34.7193 6.01615 34.9602C5.81103 35.065 5.69002 35.2001 5.62511 35.3555C5.75902 39.6495 11.7909 43.6761 14.6844 45.5495C20.2817 49.1575 26.6327 51.4412 33.2521 52.4043L33.2388 52.4058Z" fill="#224120"/>
    <path d="M14.9169 66.9641C15.2195 66.8881 15.5207 66.7988 15.8192 66.683C16.079 66.5852 16.3375 66.474 16.5813 66.3512C19.0483 65.1468 20.7581 62.7563 22.7711 60.9476C25.6995 58.3325 28.9587 56.1751 32.4431 54.3671C32.9173 54.1231 33.0412 53.6251 32.8892 53.2C32.8139 52.9941 32.6733 52.8093 32.4729 52.6987C32.5972 52.335 32.516 51.9418 32.0738 51.7121C31.9161 51.6233 31.7598 51.5478 31.6035 51.4723C25.9111 48.6406 19.3799 46.8345 13.1065 49.2138C8.52134 50.9505 4.28297 55.3851 4.95318 60.5556C5.58398 65.4756 10.3127 68.1257 14.9303 66.9625L14.9169 66.9641Z" fill="#406A2F"/>
    <path d="M14.3956 66.8911C15.1277 66.7911 15.8643 66.5971 16.5813 66.3512C19.0483 65.1468 20.7581 62.7563 22.7711 60.9476C25.6995 58.3324 28.9582 56.1743 32.4426 54.3662C32.9168 54.1222 33.0407 53.6242 32.8887 53.1991C32.8134 52.9931 32.6728 52.8084 32.4724 52.6978C32.5967 52.334 32.5155 51.9408 32.0733 51.7111C31.9156 51.6224 31.7594 51.5469 31.6031 51.4714C26.1555 50.2221 20.3313 50.6822 15.29 53.3591C11.554 55.3447 7.43179 59.8597 9.17122 64.4071C10.0584 66.7189 12.1622 67.2222 14.3943 66.8778L14.3956 66.8911Z" fill="#3B622C"/>
    <path d="M14.9169 66.9641C15.2195 66.8881 15.5207 66.7988 15.8192 66.683C16.079 66.5852 16.3375 66.474 16.5813 66.3512C19.0483 65.1468 20.7581 62.7563 22.7711 60.9476C25.6995 58.3325 28.9587 56.1751 32.4431 54.3671C32.9173 54.1231 33.0412 53.6251 32.8892 53.2C32.761 53.1346 32.6204 53.0831 32.4562 53.0623C27.7701 52.6494 23.0763 53.7279 19.0646 56.3099C16.6346 57.8726 11.9533 61.4199 12.6008 64.8074C12.8407 66.0814 13.5253 66.6986 14.3956 66.8911C14.5612 66.9252 14.7408 66.9581 14.9169 66.9641Z" fill="#274B25"/>
    <path d="M36.2149 84.9484C39.7217 81.6607 40.8196 76.6169 40.7084 71.8906C40.7076 71.6221 40.6921 71.342 40.678 71.0752C40.6567 70.6078 40.622 70.142 40.5753 69.691C40.4943 68.9084 39.6612 68.6847 39.05 69.0389C38.998 69.0584 38.9474 69.0912 38.8968 69.1241C38.8168 69.1335 38.7501 69.1414 38.6701 69.1509C32.9236 70.6222 25.3318 71.4792 21.5812 76.7156C21.2517 77.1842 20.9664 77.6879 20.7266 78.2398C19.8427 80.2643 19.6552 82.7568 20.2817 84.8981C20.7196 86.3904 21.5452 87.716 22.8005 88.6283C27.3536 91.9301 32.7919 88.1322 36.1869 84.9383L36.2149 84.9484Z" fill="#224120"/>
    <path d="M28.6822 83.6368C33.3094 80.7404 37.0974 75.9962 40.7219 71.8891C40.7211 71.6206 40.7056 71.3405 40.6914 71.0737C40.6701 70.6063 40.6354 70.1405 40.5887 69.6895C40.5077 68.9069 39.6747 68.6832 39.0634 69.0374C39.0114 69.0569 38.9608 69.0897 38.9102 69.1226C38.8302 69.132 38.7635 69.1399 38.6835 69.1494C32.937 70.6207 25.3452 71.4777 21.5946 76.7142C21.2652 77.1827 20.9798 77.6864 20.74 78.2384C19.8561 80.2628 19.6687 82.7554 20.2952 84.8966C22.7655 86.2024 26.296 85.1004 28.6675 83.6252L28.6822 83.6368Z" fill="#3B622C"/>
    <path d="M30.7561 77.9812C34.0026 76.4832 36.8812 74.1692 39.6946 71.8765C39.8344 71.7928 39.9581 71.6842 40.0672 71.5639C40.2788 71.3912 40.4784 71.2334 40.69 71.0607C40.6686 70.5933 40.6339 70.1275 40.5873 69.6765C40.5063 68.8939 39.6732 68.6702 39.062 69.0243C39.01 69.0439 38.9594 69.0767 38.9088 69.1096C38.8288 69.119 38.7621 69.1269 38.6821 69.1364C32.9356 70.6077 25.3438 71.4647 21.5932 76.7011C21.2638 77.1697 20.9784 77.6734 20.7386 78.2253C22.7324 80.7958 28.3967 79.0522 30.7547 77.968L30.7561 77.9812Z" fill="#406A2F"/>
    <path d="M41.2509 97.3499C42.394 96.3958 43.3993 95.2835 44.1686 94.2393C44.4875 93.7988 44.7678 93.3763 45.0107 92.9851C48.4871 87.056 45.4619 79.3444 44.1462 73.2835C43.9719 72.5119 43.103 72.3327 42.5943 72.6345C42.4797 72.7017 42.3813 72.7939 42.3122 72.9095C42.3122 72.9095 42.2989 72.9111 42.2856 72.9126C37.1266 75.496 32.9154 79.6725 30.6059 85.0072C29.6359 87.2432 28.8148 89.7436 29.3635 92.176C29.8865 94.4907 31.6945 97.8752 33.7777 99.0925C36.1763 100.487 38.9781 99.2566 41.2643 97.3483L41.2509 97.3499Z" fill="#406A2F"/>
    <path d="M41.2509 97.3499C42.394 96.3958 43.3993 95.2835 44.1686 94.2393C44.4875 93.7988 44.7678 93.3763 45.0107 92.9851C48.4871 87.056 45.4619 79.3444 44.1462 73.2835C43.9719 72.5119 43.103 72.3327 42.5943 72.6345C42.4958 72.7267 42.4107 72.8173 42.3122 72.9095C42.3122 72.9095 42.2885 72.9392 42.2765 72.954C38.5009 76.9045 35.6808 81.4805 35.1474 87.0215C34.8173 90.4842 34.9661 96.2265 39.2046 97.2696C39.9521 97.4497 40.6418 97.4622 41.2911 97.3452L41.2509 97.3499Z" fill="#3B622C"/>
    <path d="M44.1673 94.226C44.4862 93.7855 44.7664 93.3631 45.0094 92.9718C48.4858 87.0428 45.4605 79.3311 44.1449 73.2702C43.9706 72.4987 43.1016 72.3195 42.5929 72.6212C42.4784 72.6885 42.3799 72.7807 42.3109 72.8962C42.3109 72.8962 42.2976 72.8978 42.2842 72.8994C42.2709 72.901 42.2856 72.9127 42.2736 72.9275C40.7314 75.6339 40.1062 78.9838 39.6307 81.9535C39.1094 85.2643 38.5024 90.7468 41.1725 93.3313C42.1625 94.2884 43.237 94.4971 44.194 94.2229L44.1673 94.226Z" fill="#274B25"/>
    <path d="M66.3314 89.2704C67.3788 88.435 72.5902 84.1403 74.3192 81.0224C74.3192 81.0224 74.3179 81.0092 74.3299 80.9944C74.5581 80.5914 74.7211 80.2097 74.8054 79.8506C75.0645 79.4843 75.1029 78.9427 74.8005 78.6294C74.7666 78.432 74.6527 78.2441 74.4215 78.0968C70.6229 75.5651 65.5442 72.2717 60.5545 72.0559C59.0896 71.9873 57.6121 72.1888 56.1864 72.7601C53.9573 73.6546 52.2011 75.7285 51.2104 78.1549C50.0276 81.0739 49.9376 84.5082 51.4708 86.9317C53.0361 89.4052 56.0131 90.651 58.6837 91.5438C61.8563 92.592 63.8107 91.26 66.3167 89.2587L66.3314 89.2704Z" fill="#406A2F"/>
    <path d="M74.3192 81.0224C74.3192 81.0224 74.3179 81.0092 74.3299 80.9944C74.5581 80.5914 74.7211 80.2097 74.8054 79.8506C75.0645 79.4843 75.1029 78.9427 74.8005 78.6294C74.7666 78.432 74.6527 78.2441 74.4215 78.0968C70.6229 75.5651 65.5442 72.2717 60.5545 72.0559C59.0896 71.9873 57.6121 72.1888 56.1864 72.7601C53.9573 73.6546 52.2011 75.7285 51.2104 78.1549C51.2118 78.1681 51.2144 78.1946 51.2157 78.2078C52.0711 82.43 56.1795 85.0862 60.2919 85.4326C65.3702 85.8528 69.913 83.3154 74.3044 81.0106L74.3192 81.0224Z" fill="#3B622C"/>
    <path d="M74.3286 80.9813C74.5569 80.5783 74.7199 80.1966 74.8042 79.8375C75.0633 79.4712 75.1017 78.9296 74.7993 78.6163C74.7654 78.4189 74.6514 78.231 74.4202 78.0837C70.6217 75.552 65.543 72.2587 60.5533 72.0429C57.9349 72.5672 56.3807 75.2884 56.9233 77.923C58.5038 85.6308 69.0218 84.0923 74.3273 80.968L74.3286 80.9813Z" fill="#274B25"/>
    <path d="M79.7783 32.4191C83.3759 30.5306 86.3159 28.6794 90.3731 27.9718C90.9971 27.8712 91.4062 27.2589 91.1683 26.656C91.1628 26.6029 91.132 26.5663 91.1132 26.5148C91.0204 26.2707 90.9345 26.0929 90.8394 25.9564C90.8653 25.6849 90.7831 25.4126 90.4769 25.1937C90.243 25.02 89.9957 24.8478 89.7604 24.6607C84.9727 21.0509 79.3794 15.6566 73.103 15.6597C68.4327 15.6611 64.8593 18.9565 64.7104 23.6465C64.6114 26.7328 65.8658 29.592 68.0472 31.4959C68.8924 32.2284 69.8573 32.8126 70.9376 33.2086C71.5412 33.4326 72.166 33.6004 72.8373 33.6957C75.2502 34.055 77.6286 33.5592 79.7783 32.4191Z" fill="#406A2F"/>
    <path d="M79.7783 32.4191C83.3759 30.5306 86.3159 28.6794 90.3731 27.9718C90.9971 27.8712 91.4062 27.2589 91.1683 26.656C91.1628 26.6029 91.132 26.5663 91.1132 26.5148C91.0204 26.2707 90.9345 26.0929 90.8394 25.9564C90.8653 25.6849 90.7831 25.4126 90.4769 25.1937C90.243 25.02 89.9957 24.8478 89.7604 24.6607C85.9438 23.259 81.9471 22.4684 77.8355 22.3905C73.9668 22.3107 68.5641 22.2779 67.3731 26.9433C66.9497 28.5911 67.2491 30.1803 68.0347 31.5106C68.8799 32.2431 69.8448 32.8273 70.9251 33.2233C71.5287 33.4473 72.1535 33.6151 72.8248 33.7103C75.2377 34.0696 77.616 33.5737 79.7658 32.4335L79.7783 32.4191Z" fill="#3B622C"/>
    <path d="M79.7783 32.4191C83.3759 30.5306 86.3159 28.6794 90.3731 27.9718C90.9971 27.8712 91.4062 27.2589 91.1683 26.656C91.1628 26.6029 91.132 26.5663 91.1132 26.5148C85.6295 24.7865 71.2395 21.6531 69.8794 29.6413C69.617 31.1492 70.0794 32.3566 70.9223 33.1969C71.5259 33.4209 72.1507 33.5887 72.8219 33.6839C75.2348 34.0432 77.6132 33.5473 79.7629 32.4071L79.7783 32.4191Z" fill="#224120"/>
    <path d="M92.0222 27.3464C92.0806 27.2589 92.1391 27.1715 92.1828 27.0723C92.3991 26.6842 92.5419 26.2377 92.6299 25.7843C93.5734 20.4231 93.5377 14.6002 93.5474 12.8671C93.5658 6.39344 88.4836 -0.84683 81.1238 0.425813C78.3665 0.912805 75.6724 3.83592 74.3975 6.25564C74.375 6.29859 74.3524 6.34157 74.3299 6.38451C73.1161 8.7433 72.9286 11.2359 73.424 13.6746C73.5973 14.5671 73.8774 15.447 74.2241 16.319C76.6093 22.2803 82.2771 29.0487 89.3459 28.616C90.5165 28.8402 91.4552 28.2593 92.0355 27.3448L92.0222 27.3464Z" fill="#406A2F"/>
    <path d="M92.0222 27.3464C92.0806 27.2589 92.1391 27.1715 92.1828 27.0723C91.1852 21.2155 89.5698 15.2573 85.8809 10.5241C83.3596 7.29102 78.3876 3.07204 74.3842 6.2573C74.3617 6.30025 74.3391 6.34323 74.3166 6.38617C73.1029 8.74496 72.9154 11.2375 73.4107 13.6763C73.5841 14.5688 73.8641 15.4486 74.2108 16.3206C76.596 22.282 82.2638 29.0503 89.3326 28.6177C90.5032 28.8418 91.4419 28.2608 92.0222 27.3464Z" fill="#3B622C"/>
    <path d="M92.0222 27.3464C92.0222 27.3464 91.9873 27.2698 91.9565 27.2332C89.0324 23.1078 85.9787 18.9038 81.6685 16.1238C79.7306 14.8759 76.067 12.8656 73.4107 13.6763C73.5841 14.5688 73.8641 15.4486 74.2108 16.3206C76.596 22.282 82.2638 29.0503 89.3326 28.6177C90.5032 28.8418 91.4419 28.2608 92.0222 27.3464Z" fill="#274B25"/>
    <path d="M130.773 82.097C136.987 80.9732 141.913 72.7514 142.515 66.9606C142.88 63.4401 141.708 60.0743 140.059 57.0469C139.343 55.7353 138.441 53.6802 137.198 52.2294C136.414 51.3017 135.466 50.6216 134.35 50.5386C134.31 50.5433 134.284 50.5465 134.244 50.5512C133.933 50.5476 133.704 50.6821 133.522 50.8782C126.708 55.2146 124.026 61.7748 122.16 69.3126C121.818 70.6958 121.707 71.971 121.83 73.1647C122.017 74.9687 122.767 76.6119 124.046 78.2734C124.108 78.3466 124.171 78.4332 124.232 78.5065C126.013 80.7128 127.685 82.6499 130.746 82.1002L130.773 82.097Z" fill="#406A2F"/>
    <path d="M135.675 72.0791C136.917 69.4753 137.66 66.6083 137.822 63.7427C138.034 59.9181 136.987 56.1885 137.213 52.3755C137.208 52.3225 137.202 52.2694 137.21 52.2148C136.426 51.2871 135.478 50.607 134.362 50.524C134.322 50.5287 134.296 50.5319 134.256 50.5366C133.945 50.5331 133.716 50.6675 133.534 50.8636C126.72 55.2 124.038 61.7603 122.172 69.2981C121.83 70.6812 121.719 71.9564 121.842 73.1501C122.029 74.9541 122.779 76.5974 124.058 78.2588C128.951 81.9769 133.665 76.264 135.662 72.0807L135.675 72.0791Z" fill="#3B622C"/>
    <path d="M132.647 67.6034C134.392 62.8055 134.353 57.2113 134.914 52.204C135 51.4689 134.712 50.8988 134.269 50.5349C133.958 50.5313 133.729 50.6658 133.547 50.8619C126.734 55.1983 124.051 61.7586 122.186 69.2964C121.843 70.6795 121.732 71.9547 121.856 73.1484C122.305 73.4445 122.816 73.6928 123.414 73.8637C127.753 75.0963 131.292 71.335 132.646 67.5901L132.647 67.6034Z" fill="#224120"/>
    <path d="M149.485 64.3918C150.105 63.862 150.611 63.2785 151.004 62.6413C152.08 60.903 152.27 58.8264 151.667 56.9106C151.345 55.888 150.798 54.9053 150.02 54.044C146.834 50.5135 141.831 50.2992 137.322 50.4293C136.487 50.3132 135.639 50.212 134.781 50.1388C134.577 50.1227 134.327 50.1791 134.135 50.2824C133.879 50.42 133.686 50.6442 133.676 50.9407C133.679 50.9673 133.683 51.0071 133.686 51.0336C133.422 56.046 133.352 61.8946 137.61 65.3388C141.113 68.1471 146.168 67.1736 149.497 64.377L149.485 64.3918Z" fill="#406A2F"/>
    <path d="M151.018 62.6396C152.093 60.9014 152.283 58.8247 151.68 56.9089C151.358 55.8863 150.811 54.9037 150.033 54.0423C146.847 50.5119 141.844 50.2976 137.335 50.4277C136.5 50.3116 135.653 50.2103 134.795 50.1372C134.59 50.121 134.34 50.1775 134.148 50.2807C134.464 51.1161 134.807 51.9483 135.186 52.7493C136.715 56.046 138.783 59.0643 141.93 61.0419C144.108 62.3956 148.363 63.9872 151.031 62.6381L151.018 62.6396Z" fill="#3B622C"/>
    <path d="M150.796 57.8861C151.194 57.5571 151.483 57.2276 151.667 56.9106C151.345 55.888 150.798 54.9053 150.02 54.044C146.834 50.5135 141.831 50.2992 137.322 50.4293C136.487 50.3132 135.639 50.212 134.781 50.1388C134.577 50.1227 134.327 50.1791 134.135 50.2824C133.879 50.42 133.686 50.6442 133.676 50.9407C133.679 50.9673 133.683 51.0071 133.686 51.0336C134.165 51.6214 134.67 52.1928 135.185 52.736C136.99 54.6575 139.055 56.3468 141.489 57.4287C143.894 58.5004 148.442 59.7889 150.808 57.8712L150.796 57.8861Z" fill="#274B25"/>
    <path d="M126.705 27.1408C127.017 26.8892 127.166 26.509 126.878 26.0731C126.703 25.8119 126.541 25.5491 126.379 25.2863C126.265 25.0984 126.136 24.8987 126.009 24.7124C122.691 19.5192 119.514 13.8663 113.831 10.9934C109.855 8.96601 103.115 8.13804 100.642 12.9415C99.878 14.4281 99.5907 16.0867 99.7048 17.7112C99.808 19.2296 100.275 20.7453 101.02 22.0671C101.867 23.6049 103.107 24.895 104.636 25.7079C111.124 29.1838 118.821 25.0383 125.484 27.8625C126.12 28.1364 126.612 27.6755 126.719 27.1392L126.705 27.1408Z" fill="#224120"/>
    <path d="M126.705 27.1408C127.017 26.8892 127.166 26.509 126.878 26.0731C126.703 25.8119 126.541 25.5491 126.379 25.2863C125.968 24.9723 125.484 24.6 124.913 24.1707C118.611 19.3571 103.415 8.4383 99.6913 17.713C99.7945 19.2314 100.262 20.747 101.006 22.0688C101.854 23.6066 103.094 24.8967 104.622 25.7096C111.11 29.1855 118.807 25.0401 125.471 27.8642C126.106 28.1381 126.599 27.677 126.705 27.1408Z" fill="#3B622C"/>
    <path d="M126.705 27.1408C127.017 26.8892 127.166 26.509 126.878 26.0731C126.703 25.8119 126.541 25.5491 126.379 25.2863C126.265 25.0984 126.136 24.8987 126.009 24.7124C125.652 24.5263 125.282 24.3419 124.913 24.1707C120.814 22.1309 116.568 20.3636 112.172 19.0975C108.874 18.1447 102.966 17.1379 101.241 21.3427C101.133 21.5972 101.064 21.847 101.007 22.0819C101.855 23.6198 103.095 24.9098 104.624 25.7227C111.112 29.1986 118.808 25.0532 125.472 27.8773C126.108 28.1513 126.6 27.6902 126.706 27.154L126.705 27.1408Z" fill="#406A2F"/>
    <path d="M129.351 28.4397C129.23 27.2725 129.123 26.1038 129.029 24.9334C129.001 24.6681 128.974 24.4028 128.96 24.1359C128.728 21.2497 128.592 18.3658 128.682 15.4551C128.784 12.5295 129.123 9.41491 127.517 6.81198C124.936 2.6058 119.063 3.51447 115.55 6.21211C113.986 7.40387 112.883 8.62159 112.172 9.83346C111.758 10.5269 111.49 11.2029 111.304 11.8828C109.523 18.9273 119.461 25.6074 126.45 28.7154C126.945 29.0597 127.482 29.2916 128.219 29.4999C128.832 29.6826 129.394 28.9852 129.336 28.4281L129.351 28.4397Z" fill="#406A2F"/>
    <path d="M129.351 28.4397C129.23 27.2725 129.123 26.1038 129.029 24.9334C128.915 24.4903 128.787 24.0351 128.657 23.5671C126.267 15.0822 121.152 2.3008 113.855 8.22493C113.195 8.75945 112.642 9.29461 112.173 9.84685C111.759 10.5403 111.491 11.2164 111.305 11.8962C109.524 18.9408 119.461 25.6207 126.451 28.7284C126.946 29.0728 127.483 29.3047 128.22 29.513C128.832 29.6956 129.395 28.9981 129.337 28.441L129.351 28.4397Z" fill="#3B622C"/>
    <path d="M129.351 28.4397C129.23 27.2725 129.123 26.1038 129.029 24.9334C129.001 24.6681 128.974 24.4028 128.96 24.1359C128.859 23.9464 128.756 23.7432 128.656 23.5537C127.455 21.346 125.975 19.3056 124.19 17.4489C121.183 14.3404 116.624 10.5961 111.893 11.7057C111.683 11.7575 111.485 11.8077 111.303 11.8695C109.521 18.9141 119.459 25.594 126.448 28.7017C126.943 29.0461 127.48 29.278 128.217 29.4863C128.83 29.6689 129.392 28.9715 129.334 28.4144L129.351 28.4397Z" fill="#274B25"/>
    <path d="M111.837 101.775C113.603 101.486 115.312 100.787 116.755 99.7303C117.809 98.9613 118.736 98.0059 119.428 96.8635C122.066 92.6179 120.868 86.7847 116.862 83.9418C112.578 80.8901 108.204 82.9777 103.789 84.0096C101.694 84.4989 99.6013 84.7595 97.4984 84.1353C97.3863 84.0948 97.2635 84.0825 97.1702 84.0935C97.058 84.053 96.9605 84.0243 96.8658 84.022C96.703 84.0144 96.5444 84.0466 96.4032 84.117C96.3392 84.1514 96.2887 84.1843 96.2394 84.2303C96.2155 84.26 96.1783 84.2913 96.141 84.3225C95.6103 84.4121 95.1769 84.9198 95.2691 85.4191C95.2391 85.6509 95.2772 85.888 95.4164 86.0595C99.0549 90.8256 99.1292 97.9327 105.061 100.857C107.138 101.887 109.528 102.155 111.823 101.763L111.837 101.775Z" fill="#274B25"/>
    <path d="M111.837 101.775C113.603 101.486 115.312 100.787 116.755 99.7303C117.398 94.7268 113.46 88.7607 109.473 86.2378C107.725 85.1287 105.799 84.3896 103.803 84.008C101.707 84.4973 99.6147 84.758 97.5118 84.1338C97.3997 84.0934 97.2769 84.081 97.1835 84.0921C97.0714 84.0516 96.9739 84.0229 96.8792 84.0206C96.7192 84.0395 96.5739 84.0702 96.4166 84.1156C96.3527 84.15 96.3021 84.1829 96.2528 84.229C96.2289 84.2586 96.1916 84.2899 96.1544 84.3212C95.6237 84.4107 95.1903 84.9184 95.2825 85.4177C95.2525 85.6495 95.2905 85.8867 95.4298 86.0582C99.0681 90.8242 99.1421 97.9313 105.074 100.855C107.151 101.885 109.541 102.153 111.835 101.761L111.837 101.775Z" fill="#3B622C"/>
    <path d="M111.837 101.775C112.88 97.1135 109.923 93.1928 106.657 90.0744C103.662 87.2195 100.238 84.9126 96.2528 84.229C96.2289 84.2586 96.1916 84.2899 96.1544 84.3212C95.6237 84.4107 95.1903 84.9184 95.2825 85.4177C95.2525 85.6495 95.2905 85.8867 95.4298 86.0582C99.0681 90.8242 99.1421 97.9313 105.074 100.855C107.151 101.885 109.541 102.153 111.835 101.761L111.837 101.775Z" fill="#3B622C"/>
    <path d="M99.6123 113.122C100.1 113.011 100.596 112.845 101.105 112.677C104.061 111.63 106.578 109.869 107.863 107.542C108.922 105.644 109.173 103.372 108.19 100.79C107.241 98.2705 105.656 95.8666 103.551 94.1819C101.123 92.2401 98.1319 92.164 95.5568 90.629C95.0383 90.3143 94.3976 90.6451 94.0305 91.0107C93.9068 91.1193 93.8097 91.2248 93.7006 91.3451C93.6647 91.3896 93.6275 91.4209 93.5916 91.4654C93.2898 91.8099 93.0294 92.1629 92.8117 92.5377C92.5591 92.8361 92.3332 93.1313 92.1086 93.4398C92.0833 93.4562 92.0581 93.4727 92.0475 93.5008C91.5354 94.0312 91.1944 94.6488 90.9094 95.2867C90.4337 95.9068 90.0705 96.7016 89.7083 97.3755C89.63 97.5324 89.5518 97.6893 89.4616 97.8611C89.3939 97.9899 89.3263 98.1188 89.2453 98.2492C89.1896 98.3632 89.1458 98.4623 89.1154 98.5599C87.7235 101.544 87.1433 104.808 88.3535 107.632C90.4891 112.616 94.688 114.322 99.6242 113.107L99.6123 113.122Z" fill="#406A2F"/>
    <path d="M99.6123 113.122C100.1 113.011 100.596 112.845 101.105 112.677C104.061 111.63 106.578 109.869 107.863 107.542C108.922 105.644 109.173 103.372 108.19 100.79C107.241 98.2705 105.656 95.8666 103.551 94.1819C101.123 92.2401 98.1319 92.164 95.5568 90.629C95.0383 90.3143 94.3976 90.6451 94.0305 91.0107C93.9068 91.1193 93.8097 91.2248 93.7006 91.3451C93.6702 91.4427 93.6398 91.5402 93.6108 91.651C92.4855 95.5166 92.3105 99.5651 93.1799 103.531C93.9772 107.061 95.658 112.086 99.6136 113.135L99.6123 113.122Z" fill="#3B622C"/>
    <path d="M107.641 107.621C107.72 107.599 107.799 107.576 107.863 107.542C108.922 105.644 109.173 103.372 108.19 100.79C107.241 98.2705 105.656 95.8666 103.551 94.1819C101.123 92.2401 98.1319 92.164 95.5568 90.629C95.0383 90.3143 94.3976 90.6451 94.0305 91.0107C93.9068 91.1193 93.8097 91.2248 93.7006 91.3451C93.6647 91.3896 93.6275 91.4209 93.5916 91.4654C93.5971 91.5185 93.6039 91.5847 93.6094 91.6378C94.1577 95.762 95.3465 99.9447 97.5601 103.335C99.5955 106.438 103.794 108.922 107.641 107.621Z" fill="#274B25"/>
  </g>
  <defs>
    <clipPath id="clip0_121_2">
      <rect width="113.204" height="164.542" fill="white" transform="translate(0.665466 113.483) rotate(-90)"/>
    </clipPath>
  </defs>
</svg>
