<svg width="165" height="114" viewBox="0 0 165 114" fill="none"
  xmlns="http://www.w3.org/2000/svg">
  <g clip-path="url(#clip0_121_4)">
    <path d="M96.1302 23.5765L94.662 23.2608C94.662 23.2608 93.2893 40.1738 93.6453 42.9951C92.382 42.5562 91.4931 40.6941 91.1862 40.2685C86.4694 33.8034 83.5554 31.9131 77.0459 27.2502C76.0275 26.5256 74.8838 28.0553 75.9022 28.7798C78.8308 30.8714 81.5895 33.1711 84.1675 35.6509C80.969 34.6015 77.626 34.1661 74.2038 34.3658C72.9683 34.4346 73.2976 36.3398 74.5197 36.2694C79.068 36.0149 83.3939 36.9961 87.4564 39.0874C87.495 39.1054 87.5337 39.1233 87.5723 39.1413C90.0456 41.8504 92.3383 44.7394 94.3824 47.814C97.3269 52.2302 99.5243 57.6053 103.441 61.2368C101.316 60.6366 99.177 60.0481 97.0483 59.4877C86.9137 56.8533 76.3046 55.0221 65.8265 54.9249C65.1795 54.9156 62.9627 54.8148 62.0173 54.6896C61.5639 54.636 61.0852 54.566 60.6599 54.5023C60.0212 54.4134 58.4443 53.9987 57.7048 53.7099C56.7307 53.3397 55.2456 52.5601 54.1376 51.9189C53.4624 51.5303 52.2485 50.6081 52.001 50.3909C48.918 47.7037 46.057 44.828 44.1722 41.1278C43.6111 40.0277 41.8454 40.7858 42.4184 41.9007C44.1016 45.2011 46.4949 47.9007 49.1543 50.3766C45.7393 48.5498 42.5458 46.2793 39.6522 43.5877C38.7409 42.7416 37.6092 44.2861 38.5085 45.1174C43.6332 49.8584 49.5834 53.2738 56.1579 55.3531C47.7673 56.2143 39.5623 58.4131 31.8709 62.4315C30.786 63.0015 31.5745 64.7729 32.6741 64.1913C46.1318 57.1488 61.1162 55.8317 75.9867 57.4416C66.5194 63.8817 61.0256 75.4906 49.6509 79.1005C48.4786 79.4722 49.2818 81.2319 50.4541 80.8603C53.6773 79.8449 56.4142 78.1812 58.8998 76.206C57.854 78.4857 57.1172 80.9093 56.7309 83.4683C56.5499 84.6956 58.4716 84.9093 58.6512 83.6953C59.2726 79.6469 60.784 75.9991 63.2027 72.7135C63.3447 72.5155 64.5044 70.9608 65.0651 70.3692C68.9337 66.248 72.6375 61.8926 77.3821 58.8283C77.5705 58.7028 78.1984 58.3743 78.4334 58.3215C78.8205 58.233 79.3556 58.1485 79.8333 58.0976C80.2297 58.0504 81.2592 58.1453 81.4859 58.1721C87.3315 59.0778 93.1358 60.3814 98.7954 61.9096C104.875 63.5545 110.919 65.4101 116.94 67.357C113.47 68.9339 110.983 71.9696 108.354 74.8007C106.29 77.0137 104.045 79.0042 101.622 80.7719C101.52 80.8405 101.043 81.1466 100.859 81.2322C100.577 81.3466 99.8685 81.4105 99.6965 81.3768C98.5004 81.1952 97.405 80.824 96.2846 80.3022C95.3441 79.8688 93.4411 79.2143 92.961 78.2446C92.4013 77.1312 90.6356 77.8891 91.2072 79.0174C91.8783 80.3588 93.2373 80.9222 94.5334 81.5721C95.7389 82.1845 96.9673 82.7056 98.2563 83.0325C95.9805 84.415 93.5892 85.6092 91.0824 86.6153C89.9419 87.0713 90.7304 88.8427 91.8856 88.3751C97.3921 86.1661 102.477 83.0748 106.847 79.0666C110.726 75.4972 113.927 69.9949 119.273 68.559C119.509 68.493 120.728 68.5833 121.054 68.6891C124.618 69.8621 128.164 71.0734 131.709 72.2979C136.271 73.8709 140.809 75.5351 145.278 77.3522C138.999 78.6778 133.218 81.4584 128.243 85.5697C127.298 86.3575 128.505 87.8697 129.464 87.0834C134.732 82.7384 140.891 79.962 147.644 78.8805C147.823 78.8479 148.291 78.8898 148.705 78.9387C149.011 78.9749 149.792 79.2552 149.999 79.3467C154.88 81.4811 159.658 83.8316 164.295 86.501C165.365 87.1241 166.522 85.596 165.439 84.9713C158.623 81.0508 151.499 77.7652 144.212 74.8765C144.082 74.821 143.889 74.731 143.684 74.6262C143.338 74.451 142.724 73.9892 142.627 73.8837C140.797 72.0026 140.079 69.4204 138.925 67.1358C138.466 66.2223 137.926 65.3126 137.265 64.5229C136.361 63.4762 134.908 62.7808 134.223 61.5721C133.619 60.4937 131.853 61.2517 132.469 62.3449C133.141 63.5521 134.043 64.0884 135.057 64.987C136.305 66.1012 137.057 67.5729 137.727 69.0618C138.376 70.4812 138.975 71.8677 139.748 73.1406C137.317 72.2357 134.884 71.3574 132.42 70.5157C125.721 68.2067 118.991 65.9345 112.203 63.8299C111.902 63.7406 110.834 63.3593 110.384 63.1449C109.044 62.5301 106.773 61.3889 106.294 61.0638C103.558 59.1964 99.7102 53.3309 99.7102 53.3309C99.7102 53.3309 99.2038 48.891 98.9363 46.0412C98.354 39.839 97.867 30.1312 97.867 30.1312L96.7554 29.2407C96.7554 29.2407 98.149 47.9093 97.0558 49.2738C95.9626 50.6383 95.2811 37.5255 95.2811 37.5255" fill="#274B25"/>
    <path d="M38.0771 76.5578C42.0304 77.2263 45.9713 78.0142 49.9178 78.7491C50.2617 78.8166 50.4973 79.0189 50.6326 79.2765C51.2074 79.331 51.506 79.8363 51.4819 80.3302C51.4723 80.423 51.464 80.5026 51.4544 80.5955C51.4544 80.5955 51.4531 80.6088 51.4517 80.622C50.6648 83.268 48.5333 84.5601 46.4503 86.1668C43.9995 88.0657 42.3956 90.9105 39.2409 91.7864C34.6268 93.0672 27.4009 91.1527 24.6157 87.024C23.2477 84.9826 23.0724 82.8943 23.7433 81.1074C24.3619 79.435 25.6947 78.035 27.4609 77.1428C27.9886 76.8695 28.5655 76.6422 29.1756 76.4861C32.0661 75.6864 35.1704 76.0801 38.101 76.5875L38.0771 76.5578Z" fill="#406A2F"/>
    <path d="M38.0771 76.5578C42.0304 77.2263 45.9713 78.0142 49.9178 78.7491C50.2617 78.8166 50.4973 79.0189 50.6326 79.2765C51.2074 79.331 51.506 79.8363 51.4819 80.3302C51.4723 80.423 51.464 80.5026 51.4544 80.5955C51.4544 80.5955 51.4531 80.6088 51.4517 80.622C47.1842 83.3803 42.3987 85.2725 37.3021 85.9993C33.5775 86.5124 27.084 87.3024 24.5697 83.5547C24.0079 82.723 23.7557 81.901 23.7433 81.1074C24.3619 79.435 25.6947 78.035 27.4609 77.1428C27.9886 76.8695 28.5655 76.6422 29.1756 76.4861C32.0661 75.6864 35.1704 76.0801 38.101 76.5875L38.0771 76.5578Z" fill="#3B622C"/>
    <path d="M38.0771 76.5578C42.0304 77.2263 45.9713 78.0142 49.9178 78.7491C50.2617 78.8166 50.4973 79.0189 50.6326 79.2765C51.2074 79.331 51.506 79.8363 51.4819 80.3302C47.2292 82.1637 42.7388 83.4196 38.0978 83.9183C34.603 84.2974 29.4962 84.862 27.4969 81.0946C26.7287 79.6477 26.8062 78.2471 27.4351 77.1265C27.9628 76.8532 28.5397 76.6261 29.1498 76.4699C32.0402 75.6703 35.1446 76.064 38.0752 76.5715L38.0771 76.5578Z" fill="#274B25"/>
    <path d="M59.048 84.434C59.1823 84.5707 59.3033 84.7058 59.4082 84.8659C59.5145 85.0127 59.5914 85.183 59.6816 85.3547C60.4835 87.1278 60.1391 89.9335 60.4811 91.5851C61.1495 94.779 62.2958 97.3982 61.3884 100.688C60.7697 102.884 59.4052 105.112 57.3344 106.21C54.9068 107.494 52.5035 106.848 50.6938 105.291C49.4656 104.247 48.5108 102.778 47.9964 101.226C47.8628 100.821 47.7587 100.393 47.6798 99.9807C46.5702 93.4855 51.2913 88.4312 55.4908 84.2418C55.7758 83.9667 56.0893 83.9366 56.3611 84.0493C57.2267 83.6414 58.19 83.5941 59.0613 84.4356L59.048 84.434Z" fill="#406A2F"/>
    <path d="M59.048 84.434C59.1823 84.5707 59.3033 84.7058 59.4082 84.8659C59.5145 85.0127 59.5914 85.183 59.6816 85.3547C60.0519 90.1246 59.2615 94.8915 57.0907 99.173C55.8509 101.631 53.6461 105.197 50.6804 105.29C49.4522 104.245 48.4974 102.776 47.983 101.225C47.8494 100.82 47.7453 100.391 47.6665 99.9792C46.5568 93.484 51.2778 88.4297 55.4774 84.2403C55.7623 83.9652 56.0759 83.9351 56.3477 84.0478C57.2133 83.6399 58.1767 83.5926 59.048 84.434Z" fill="#3B622C"/>
    <path d="M59.048 84.434C59.1823 84.5707 59.3033 84.7058 59.4082 84.8659C58.2487 88.6359 53.463 101.618 47.9842 101.212C47.8506 100.807 47.7465 100.378 47.6677 99.966C46.5581 93.4707 51.2791 88.4165 55.4786 84.227C55.7636 83.9519 56.0771 83.9219 56.3489 84.0346C57.2145 83.6267 58.1778 83.5794 59.0491 84.4208L59.048 84.434Z" fill="#274B25"/>
    <path d="M68.8005 11.1916C69.9678 11.6517 71.1291 12.2992 72.2593 13.1175C74.2933 14.5931 75.5325 16.4448 76.1618 18.8419C76.6566 20.713 77.0098 22.6477 77.4205 24.5491C77.7168 25.8596 78.4391 27.489 78.1524 28.8246C78.001 29.5049 77.357 29.8584 76.7163 29.5276C76.6763 29.5229 76.6216 29.5299 76.5682 29.5236C76.1668 29.4895 75.7667 29.4423 75.3547 29.3801C75.1014 29.3502 74.848 29.3202 74.596 29.277C74.4627 29.2613 74.3293 29.2455 74.2093 29.2313C73.8359 29.1872 73.4625 29.1431 73.1066 29.0608C72.8399 29.0292 72.5838 29.0258 72.3184 28.981C69.6418 28.7586 66.9761 28.4301 64.3136 27.9409C61.5977 27.4454 58.2933 27.028 56.2103 24.9827C52.6441 21.4866 54.3753 16.1059 57.6053 13.1982C58.3209 12.5443 59.0641 12.0145 59.8217 11.6073C62.6716 10.0242 65.7799 9.9887 68.8005 11.1916Z" fill="#406A2F"/>
    <path d="M68.8005 11.1916C69.9678 11.6517 71.1291 12.2992 72.2593 13.1175C74.2933 14.5931 75.5325 16.4448 76.1618 18.8419C76.6566 20.713 77.0098 22.6477 77.4205 24.5491C77.7168 25.8596 78.4391 27.489 78.1524 28.8246C78.001 29.5049 77.357 29.8584 76.7163 29.5276C76.6763 29.5229 76.6216 29.5299 76.5682 29.5236C76.1668 29.4895 75.7667 29.4423 75.3547 29.3801C75.1014 29.3502 74.848 29.3202 74.596 29.277C74.4627 29.2613 74.3293 29.2455 74.2093 29.2313C69.5163 27.8845 64.7736 26.1022 61.3274 22.6203C58.4425 19.7149 56.9215 14.8493 59.8217 11.6073C62.6716 10.0242 65.7799 9.9887 68.8005 11.1916Z" fill="#3B622C"/>
    <path d="M68.8005 11.1916C69.9678 11.6517 71.1291 12.2992 72.2593 13.1175C74.2933 14.5931 75.5325 16.4448 76.1618 18.8419C76.6566 20.713 77.0098 22.6477 77.4205 24.5491C77.7168 25.8596 78.4391 27.489 78.1524 28.8246C78.001 29.5049 77.357 29.8584 76.7163 29.5276C76.6763 29.5229 76.6216 29.5299 76.5682 29.5236C76.1668 29.4895 75.7667 29.4423 75.3547 29.3801C72.3327 28.1905 69.6274 26.2866 67.4765 23.723C65.3017 21.1298 62.2198 16.2141 64.6092 12.952C65.5373 11.6788 67.1023 11.1656 68.7884 11.1769L68.8005 11.1916Z" fill="#224120"/>
    <path d="M88.8253 70.217C90.1623 70.9925 90.9175 72.3035 91.475 73.6986C92.3119 75.7846 92.9933 77.6777 94.3686 79.5184C94.7247 79.9902 94.319 80.5195 93.884 80.5487C93.805 80.6602 93.6873 80.7537 93.5084 80.7863C93.2188 80.8461 92.8905 80.8878 92.5636 80.9163C92.4141 80.9255 92.2647 80.9347 92.102 80.9423C86.8814 81.1714 78.0441 77.8716 82.0176 71.6951C82.6447 70.7219 83.5898 70.0683 84.6352 69.7488C85.1226 69.6049 85.6311 69.5173 86.1447 69.5109C87.0638 69.4987 87.9849 69.7283 88.8119 70.2154L88.8253 70.217Z" fill="#406A2F"/>
    <path d="M88.8253 70.217C90.1623 70.9925 90.9175 72.3035 91.475 73.6986C92.3119 75.7846 92.9933 77.6777 94.3686 79.5184C94.7247 79.9902 94.319 80.5195 93.884 80.5487C93.805 80.6602 93.6873 80.7537 93.5084 80.7863C93.2188 80.8461 92.8905 80.8878 92.5636 80.9163C92.4141 80.9255 92.2647 80.9347 92.102 80.9423C90.3401 80.3582 88.6779 79.464 87.3512 78.3271C85.4923 76.7245 83.5983 73.896 83.9832 71.3502C84.0772 70.7034 84.3215 70.1684 84.6482 69.7505C85.1355 69.6067 85.644 69.5191 86.1576 69.5127C87.0768 69.5005 87.9983 69.7299 88.8253 70.217Z" fill="#3B622C"/>
    <path d="M88.8253 70.217C90.1623 70.9925 90.9175 72.3035 91.475 73.6986C92.3119 75.7846 92.9933 77.6777 94.3686 79.5184C94.7247 79.9902 94.319 80.5195 93.884 80.5487C93.805 80.6602 93.6873 80.7537 93.5084 80.7863C93.2188 80.8461 92.8905 80.8878 92.5636 80.9163C90.8325 79.3825 89.282 77.6689 87.9963 75.7447C86.8874 74.0696 85.2418 71.5792 86.159 69.4991C87.0781 69.4869 87.9992 69.7166 88.8262 70.2037L88.8253 70.217Z" fill="#274B25"/>
    <path d="M30.057 60.0089C31.3436 60.2281 32.4948 60.7133 33.2088 61.5093C33.5373 61.8569 33.7775 62.2747 33.9042 62.7461C34.0732 63.33 34.0699 64.0143 33.8662 64.8093C33.4669 66.3195 32.1658 67.4144 31.2458 68.608C29.7809 70.5025 28.954 72.7544 27.6036 74.7161C27.6022 74.7294 27.5862 74.7544 27.5714 74.7661C26.7315 75.9692 25.6612 77.051 24.4179 77.9782C24.4165 77.9914 24.3885 78.0016 24.3738 78.0133C20.1318 81.1773 14.0194 82.5897 9.02656 81.1403C8.80359 81.2079 8.55022 81.1779 8.27331 80.984C8.19742 80.9348 8.13623 80.8739 8.07367 80.8262C7.59262 80.6485 7.12904 80.4327 6.68153 80.1918C6.4764 80.087 6.35539 79.9518 6.29048 79.7965C4.74281 78.9691 3.63853 77.5094 2.92214 75.6927C2.91155 75.6646 2.89956 75.6498 2.90231 75.6233C2.8374 75.4679 2.77387 75.2992 2.71033 75.1306C2.03611 73.95 1.56094 72.672 1.38502 71.2415C0.971209 67.6749 2.98656 65.0264 5.42512 62.7233C12.0519 56.4712 21.7756 58.6409 30.0795 60.0519L30.057 60.0089Z" fill="#406A2F"/>
    <path d="M33.2088 61.5093C33.5373 61.8569 33.7775 62.2747 33.9042 62.7461C34.0732 63.33 34.0699 64.0143 33.8662 64.8093C33.4669 66.3195 32.1658 67.4144 31.2458 68.608C29.7809 70.5025 28.954 72.7544 27.6036 74.7161C26.6184 75.8886 25.56 76.9853 24.4179 77.9782C24.4165 77.9914 24.3885 78.0016 24.3738 78.0133C20.1318 81.1773 14.0194 82.5897 9.02656 81.1403C8.80359 81.2079 8.55022 81.1779 8.27331 80.984C8.19742 80.9348 8.13623 80.8739 8.07367 80.8262C7.59262 80.6485 7.12904 80.4327 6.68153 80.1918C6.4764 80.087 6.35539 79.9518 6.29048 79.7965C4.74281 78.9691 3.63853 77.5094 2.92214 75.6927C2.91155 75.6646 2.89956 75.6498 2.90231 75.6233C3.46824 71.8502 7.98454 68.7722 11.252 67.1982C18.1424 63.8772 25.4452 61.3972 33.2325 61.5388L33.2088 61.5093Z" fill="#3B622C"/>
    <path d="M33.9042 62.7461C34.0732 63.33 34.0699 64.0143 33.8662 64.8093C33.4669 66.3195 32.1658 67.4144 31.2458 68.608C29.7809 70.5025 28.954 72.7544 27.6036 74.7161C27.6022 74.7294 27.5862 74.7544 27.5714 74.7661C26.7315 75.9692 25.6612 77.051 24.4179 77.9782C24.4165 77.9914 24.3885 78.0016 24.3738 78.0133C20.1318 81.1773 14.0194 82.5897 9.02656 81.1403C8.80359 81.2079 8.55022 81.1779 8.27331 80.984C8.19742 80.9348 8.13623 80.8739 8.07367 80.8262C7.59262 80.6485 7.12904 80.4327 6.68153 80.1918C6.4764 80.087 6.35539 79.9518 6.29048 79.7965C6.42439 75.5025 12.4563 71.4759 15.3498 69.6025C20.947 65.9945 27.2981 63.7108 33.9175 62.7477L33.9042 62.7461Z" fill="#224120"/>
    <path d="M15.5823 48.1879C15.8849 48.2639 16.1861 48.3531 16.4846 48.469C16.7444 48.5668 17.0029 48.678 17.2466 48.8007C19.7136 50.0052 21.4234 52.3957 23.4364 54.2044C26.3648 56.8195 29.6241 58.9768 33.1085 60.7849C33.5827 61.0289 33.7066 61.5269 33.5546 61.952C33.4793 62.1579 33.3387 62.3427 33.1382 62.4532C33.2626 62.817 33.1814 63.2102 32.7391 63.4399C32.5815 63.5287 32.4252 63.6042 32.2689 63.6797C26.5764 66.5113 20.0453 68.3175 13.7718 65.9382C9.18671 64.2015 4.94834 59.7668 5.61855 54.5964C6.24934 49.6763 10.9781 47.0262 15.5956 48.1894L15.5823 48.1879Z" fill="#406A2F"/>
    <path d="M15.061 48.2609C15.7931 48.3608 16.5297 48.5549 17.2466 48.8007C19.7136 50.0052 21.4234 52.3957 23.4364 54.2044C26.3649 56.8196 29.6235 58.9776 33.1079 60.7858C33.5821 61.0298 33.706 61.5278 33.5541 61.9529C33.4788 62.1588 33.3382 62.3436 33.1378 62.4542C33.2621 62.8179 33.1809 63.2112 32.7387 63.4408C32.581 63.5296 32.4247 63.6051 32.2684 63.6806C26.8208 64.9299 20.9967 64.4698 15.9554 61.7929C12.2193 59.8073 8.09716 55.2922 9.83659 50.7449C10.7238 48.433 12.8276 47.9298 15.0596 48.2742L15.061 48.2609Z" fill="#3B622C"/>
    <path d="M15.5823 48.1879C15.8849 48.2639 16.1861 48.3531 16.4846 48.469C16.7444 48.5668 17.0029 48.678 17.2466 48.8007C19.7136 50.0052 21.4234 52.3957 23.4364 54.2044C26.3648 56.8195 29.6241 58.9768 33.1085 60.7849C33.5827 61.0289 33.7066 61.5269 33.5546 61.952C33.4263 62.0174 33.2857 62.0688 33.1216 62.0897C28.4354 62.5026 23.7417 61.4241 19.7299 58.842C17.3 57.2793 12.6187 53.7321 13.2662 50.3446C13.506 49.0706 14.1907 48.4534 15.061 48.2609C15.2265 48.2268 15.4062 48.1939 15.5823 48.1879Z" fill="#274B25"/>
    <path d="M36.8803 30.2036C40.3871 33.4913 41.4849 38.5351 41.3738 43.2614C41.373 43.5299 41.3575 43.81 41.3434 44.0768C41.322 44.5442 41.2873 45.01 41.2407 45.461C41.1597 46.2436 40.3266 46.4673 39.7153 46.1131C39.6634 46.0936 39.6128 46.0607 39.5622 46.0279C39.4822 46.0185 39.4155 46.0106 39.3355 46.0011C33.589 44.5298 25.9971 43.6728 22.2466 38.4363C21.9171 37.9677 21.6318 37.4641 21.3919 36.9121C20.5081 34.8877 20.3206 32.3951 20.9471 30.2538C21.385 28.7616 22.2106 27.436 23.4658 26.5236C28.019 23.2219 33.4573 27.0198 36.8523 30.2137L36.8803 30.2036Z" fill="#224120"/>
    <path d="M29.3476 31.5151C33.9747 34.4116 37.7628 39.1557 41.3872 43.2629C41.3864 43.5313 41.3709 43.8114 41.3568 44.0783C41.3354 44.5457 41.3007 45.0115 41.2541 45.4625C41.1731 46.245 40.34 46.4688 39.7288 46.1146C39.6768 46.095 39.6262 46.0622 39.5756 46.0294C39.4956 46.0199 39.4289 46.0121 39.3489 46.0026C33.6024 44.5313 26.0106 43.6743 22.26 38.4378C21.9306 37.9692 21.6452 37.4656 21.4054 36.9136C20.5215 34.8892 20.334 32.3966 20.9606 30.2553C23.4309 28.9496 26.9614 30.0515 29.3329 31.5268L29.3476 31.5151Z" fill="#3B622C"/>
    <path d="M31.4214 37.1707C34.668 38.6688 37.5466 40.9827 40.36 43.2755C40.4998 43.3591 40.6235 43.4678 40.7326 43.5881C40.9442 43.7608 41.1438 43.9186 41.3554 44.0913C41.334 44.5587 41.2993 45.0245 41.2526 45.4755C41.1717 46.2581 40.3386 46.4818 39.7274 46.1276C39.6754 46.1081 39.6248 46.0752 39.5742 46.0424C39.4942 46.033 39.4275 46.0251 39.3475 46.0156C33.601 44.5443 26.0092 43.6873 22.2586 38.4508C21.9291 37.9823 21.6438 37.4786 21.404 36.9266C23.3977 34.3562 29.0621 36.0998 31.4201 37.184L31.4214 37.1707Z" fill="#406A2F"/>
    <path d="M41.9163 17.8021C43.0594 18.7562 44.0647 19.8685 44.834 20.9127C45.1529 21.3532 45.4331 21.7756 45.6761 22.1669C49.1525 28.096 46.1272 35.8076 44.8116 41.8685C44.6373 42.64 43.7683 42.8193 43.2596 42.5175C43.1451 42.4502 43.0466 42.3581 42.9776 42.2425C42.9776 42.2425 42.9643 42.2409 42.951 42.2393C37.792 39.6559 33.5808 35.4794 31.2712 30.1448C30.3013 27.9088 29.4802 25.4084 30.0288 22.9759C30.5518 20.6613 32.3599 17.2768 34.4431 16.0595C36.8417 14.6647 39.6434 15.8954 41.9296 17.8036L41.9163 17.8021Z" fill="#406A2F"/>
    <path d="M41.9163 17.8021C43.0594 18.7562 44.0647 19.8685 44.834 20.9127C45.1529 21.3532 45.4331 21.7756 45.6761 22.1669C49.1525 28.096 46.1272 35.8076 44.8116 41.8685C44.6373 42.64 43.7683 42.8193 43.2596 42.5175C43.1612 42.4253 43.0761 42.3347 42.9776 42.2425C42.9776 42.2425 42.9538 42.2128 42.9419 42.1979C39.1662 38.2474 36.3462 33.6715 35.8128 28.1305C35.4827 24.6678 35.6315 18.9255 39.8699 17.8824C40.6175 17.7022 41.3071 17.6898 41.9565 17.8068L41.9163 17.8021Z" fill="#3B622C"/>
    <path d="M44.8327 20.926C45.1515 21.3664 45.4318 21.7889 45.6748 22.1801C49.1512 28.1092 46.1259 35.8208 44.8103 41.8817C44.6359 42.6533 43.767 42.8325 43.2583 42.5307C43.1438 42.4635 43.0453 42.3713 42.9763 42.2557C42.9763 42.2557 42.9629 42.2542 42.9496 42.2526C42.9363 42.251 42.951 42.2393 42.939 42.2245C41.3968 39.518 40.7716 36.1681 40.296 33.1984C39.7748 29.8877 39.1678 24.4051 41.8379 21.8206C42.8278 20.8635 43.9023 20.6549 44.8593 20.9291L44.8327 20.926Z" fill="#274B25"/>
    <path d="M66.9968 25.8816C68.0442 26.717 73.2555 31.0117 74.9846 34.1296C74.9846 34.1296 74.9833 34.1428 74.9952 34.1576C75.2235 34.5605 75.3865 34.9423 75.4708 35.3013C75.7298 35.6676 75.7683 36.2093 75.4659 36.5226C75.432 36.72 75.318 36.9079 75.0868 37.0551C71.2883 39.5868 66.2096 42.8802 61.2199 43.0961C59.7549 43.1646 58.2775 42.9631 56.8518 42.3918C54.6226 41.4974 52.8665 39.4235 51.8758 36.9971C50.693 34.0781 50.603 30.6437 52.1361 28.2202C53.7014 25.7468 56.6785 24.5009 59.3491 23.6082C62.5216 22.56 64.476 23.892 66.9821 25.8933L66.9968 25.8816Z" fill="#406A2F"/>
    <path d="M74.9846 34.1296C74.9846 34.1296 74.9833 34.1428 74.9952 34.1576C75.2235 34.5605 75.3865 34.9423 75.4708 35.3013C75.7298 35.6676 75.7683 36.2093 75.4659 36.5226C75.432 36.72 75.318 36.9079 75.0868 37.0551C71.2883 39.5868 66.2096 42.8802 61.2199 43.0961C59.7549 43.1646 58.2775 42.9631 56.8518 42.3918C54.6226 41.4974 52.8665 39.4235 51.8758 36.9971C51.8771 36.9838 51.8797 36.9574 51.8811 36.9441C52.7365 32.722 56.8449 30.0658 60.9572 29.7194C66.0356 29.2992 70.5784 31.8366 74.9698 34.1413L74.9846 34.1296Z" fill="#3B622C"/>
    <path d="M74.994 34.1707C75.2223 34.5736 75.3852 34.9554 75.4696 35.3144C75.7286 35.6807 75.7671 36.2224 75.4647 36.5357C75.4307 36.7331 75.3168 36.921 75.0856 37.0682C71.2871 39.5999 66.2083 42.8933 61.2186 43.1091C58.6002 42.5848 57.0461 39.8636 57.5887 37.229C59.1692 29.5212 69.6872 31.0597 74.9926 34.184L74.994 34.1707Z" fill="#274B25"/>
    <path d="M80.4437 82.7329C84.0412 84.6214 86.9812 86.4725 91.0385 87.1802C91.6625 87.2808 92.0715 87.893 91.8336 88.496C91.8282 88.549 91.7974 88.5856 91.7785 88.6371C91.6858 88.8813 91.5999 89.0591 91.5048 89.1955C91.5306 89.4671 91.4484 89.7393 91.1423 89.9583C90.9084 90.132 90.6611 90.3042 90.4257 90.4912C85.6381 94.1011 80.0448 99.4954 73.7684 99.4923C69.0981 99.4909 65.5247 96.1954 65.3758 91.5055C65.2768 88.4192 66.5312 85.56 68.7126 83.6561C69.5578 82.9236 70.5226 82.3394 71.603 81.9434C72.2066 81.7193 72.8314 81.5515 73.5027 81.4563C75.9156 81.0969 78.294 81.5927 80.4437 82.7329Z" fill="#406A2F"/>
    <path d="M80.4437 82.7329C84.0412 84.6214 86.9812 86.4725 91.0385 87.1802C91.6625 87.2808 92.0715 87.893 91.8336 88.496C91.8282 88.549 91.7974 88.5856 91.7785 88.6371C91.6858 88.8813 91.5999 89.0591 91.5048 89.1955C91.5306 89.4671 91.4484 89.7393 91.1423 89.9583C90.9084 90.132 90.6611 90.3042 90.4257 90.4912C86.6091 91.893 82.6125 92.6835 78.5009 92.7615C74.6322 92.8413 69.2294 92.8741 68.0384 88.2087C67.615 86.5609 67.9145 84.9717 68.7001 83.6414C69.5453 82.9088 70.5102 82.3247 71.5905 81.9287C72.1941 81.7047 72.8189 81.5369 73.4902 81.4417C75.903 81.0824 78.2814 81.5783 80.4311 82.7185L80.4437 82.7329Z" fill="#3B622C"/>
    <path d="M80.4437 82.7329C84.0412 84.6214 86.9812 86.4725 91.0385 87.1802C91.6625 87.2808 92.0715 87.893 91.8336 88.496C91.8282 88.549 91.7974 88.5856 91.7785 88.6371C86.2949 90.3655 71.9048 93.4989 70.5448 85.5106C70.2824 84.0027 70.7448 82.7953 71.5877 81.9551C72.1913 81.7311 72.816 81.5633 73.4873 81.4681C75.9002 81.1088 78.2786 81.6047 80.4283 82.7449L80.4437 82.7329Z" fill="#224120"/>
    <path d="M92.6875 87.8056C92.746 87.893 92.8044 87.9805 92.8482 88.0797C93.0645 88.4677 93.2072 88.9142 93.2953 89.3677C94.2388 94.7289 94.2031 100.552 94.2127 102.285C94.2312 108.759 89.149 115.999 81.7891 114.726C79.0319 114.239 76.3378 111.316 75.0629 108.896C75.0403 108.853 75.0178 108.81 74.9952 108.767C73.7815 106.409 73.594 103.916 74.0894 101.477C74.2627 100.585 74.5428 99.705 74.8895 98.833C77.2747 92.8717 82.9425 86.1033 90.0113 86.536C91.1819 86.3118 92.1206 86.8927 92.7009 87.8071L92.6875 87.8056Z" fill="#406A2F"/>
    <path d="M92.6875 87.8056C92.746 87.893 92.8044 87.9805 92.8482 88.0797C91.8506 93.9365 90.2352 99.8947 86.5463 104.628C84.025 107.861 79.0529 112.08 75.0496 108.895C75.0271 108.852 75.0045 108.809 74.982 108.766C73.7682 106.407 73.5808 103.914 74.0761 101.476C74.2495 100.583 74.5295 99.7033 74.8762 98.8313C77.2614 92.87 82.9292 86.1016 89.998 86.5343C91.1686 86.3101 92.1073 86.8911 92.6875 87.8056Z" fill="#3B622C"/>
    <path d="M92.6875 87.8056C92.6875 87.8056 92.6527 87.8821 92.6219 87.9188C89.6978 92.0441 86.6441 96.2482 82.3339 99.0282C80.396 100.276 76.7324 102.286 74.0761 101.476C74.2495 100.583 74.5295 99.7033 74.8762 98.8313C77.2614 92.87 82.9292 86.1016 89.998 86.5343C91.1686 86.3101 92.1073 86.8911 92.6875 87.8056Z" fill="#274B25"/>
    <path d="M131.438 33.0549C137.652 34.1788 142.579 42.4006 143.181 48.1913C143.545 51.7118 142.374 55.0777 140.724 58.105C140.008 59.4167 139.107 61.4718 137.863 62.9226C137.079 63.8502 136.131 64.5304 135.016 64.6134C134.976 64.6087 134.949 64.6055 134.909 64.6008C134.598 64.6043 134.369 64.4698 134.187 64.2738C127.374 59.9374 124.691 53.3772 122.826 45.8394C122.483 44.4562 122.372 43.181 122.496 41.9872C122.682 40.1833 123.433 38.54 124.712 36.8786C124.773 36.8053 124.836 36.7188 124.898 36.6455C126.678 34.4392 128.35 32.502 131.411 33.0518L131.438 33.0549Z" fill="#406A2F"/>
    <path d="M136.34 43.0728C137.583 45.6767 138.325 48.5436 138.488 51.4092C138.699 55.2339 137.652 58.9635 137.878 62.7764C137.873 62.8295 137.867 62.8825 137.875 62.9372C137.091 63.8648 136.143 64.545 135.028 64.628C134.988 64.6233 134.961 64.6201 134.921 64.6154C134.61 64.6189 134.381 64.4844 134.199 64.2884C127.386 59.952 124.703 53.3917 122.838 45.8539C122.495 44.4707 122.384 43.1956 122.508 42.0018C122.694 40.1979 123.445 38.5546 124.723 36.8932C129.617 33.1751 134.33 38.8879 136.327 43.0713L136.34 43.0728Z" fill="#3B622C"/>
    <path d="M133.313 47.5485C135.057 52.3465 135.018 57.9407 135.58 62.9479C135.666 63.6831 135.377 64.2532 134.934 64.6171C134.624 64.6206 134.395 64.4861 134.212 64.2901C127.399 59.9537 124.717 53.3934 122.851 45.8556C122.508 44.4724 122.397 43.1973 122.521 42.0035C122.97 41.7075 123.482 41.4592 124.08 41.2882C128.419 40.0556 131.958 43.817 133.311 47.5618L133.313 47.5485Z" fill="#224120"/>
    <path d="M150.15 50.7601C150.77 51.2899 151.277 51.8735 151.67 52.5107C152.745 54.2489 152.935 56.3256 152.332 58.2414C152.01 59.264 151.463 60.2466 150.685 61.108C147.499 64.6384 142.496 64.8527 137.987 64.7227C137.152 64.8387 136.305 64.94 135.447 65.0131C135.242 65.0293 134.992 64.9728 134.8 64.8696C134.544 64.732 134.352 64.5078 134.342 64.2112C134.345 64.1847 134.349 64.1449 134.351 64.1184C134.087 59.106 134.018 53.2573 138.275 49.8132C141.778 47.0049 146.834 47.9783 150.162 50.775L150.15 50.7601Z" fill="#406A2F"/>
    <path d="M151.683 52.5123C152.758 54.2506 152.948 56.3272 152.345 58.243C152.023 59.2657 151.476 60.2483 150.699 61.1097C147.512 64.6401 142.509 64.8544 138.001 64.7243C137.165 64.8404 136.318 64.9416 135.46 65.0148C135.256 65.0309 135.005 64.9745 134.813 64.8713C135.129 64.0359 135.472 63.2037 135.852 62.4027C137.381 59.106 139.448 56.0877 142.595 54.1101C144.774 52.7564 149.028 51.1648 151.696 52.5139L151.683 52.5123Z" fill="#3B622C"/>
    <path d="M151.461 57.2659C151.859 57.5948 152.149 57.9243 152.332 58.2414C152.01 59.264 151.463 60.2466 150.685 61.108C147.499 64.6384 142.496 64.8527 137.987 64.7227C137.152 64.8387 136.305 64.94 135.447 65.0131C135.242 65.0293 134.992 64.9728 134.8 64.8696C134.544 64.732 134.352 64.5078 134.342 64.2112C134.345 64.1847 134.349 64.1449 134.351 64.1184C134.831 63.5306 135.335 62.9592 135.851 62.4159C137.656 60.4945 139.72 58.8051 142.154 57.7233C144.56 56.6515 149.107 55.363 151.473 57.2807L151.461 57.2659Z" fill="#274B25"/>
    <path d="M127.371 88.0112C127.682 88.2628 127.832 88.643 127.544 89.0789C127.368 89.3401 127.206 89.6029 127.044 89.8657C126.93 90.0536 126.801 90.2532 126.674 90.4396C123.356 95.6328 120.179 101.286 114.496 104.159C110.52 106.186 103.78 107.014 101.307 102.21C100.543 100.724 100.256 99.0653 100.37 97.4407C100.473 95.9223 100.941 94.4067 101.685 93.0849C102.532 91.5471 103.773 90.257 105.301 89.4441C111.789 85.9682 119.486 90.1136 126.15 87.2895C126.785 87.0156 127.278 87.4765 127.384 88.0127L127.371 88.0112Z" fill="#224120"/>
    <path d="M127.371 88.0112C127.682 88.2628 127.832 88.643 127.544 89.0789C127.368 89.3401 127.206 89.6029 127.044 89.8657C126.633 90.1797 126.149 90.552 125.578 90.9813C119.276 95.7949 104.081 106.714 100.357 97.439C100.46 95.9206 100.927 94.405 101.671 93.0832C102.519 91.5453 103.759 90.2553 105.288 89.4424C111.776 85.9665 119.473 90.1119 126.136 87.2878C126.772 87.0138 127.264 87.4749 127.371 88.0112Z" fill="#3B622C"/>
    <path d="M127.371 88.0112C127.682 88.2628 127.832 88.643 127.544 89.0789C127.368 89.3401 127.206 89.6029 127.044 89.8657C126.93 90.0536 126.801 90.2532 126.674 90.4396C126.317 90.6257 125.947 90.81 125.578 90.9813C121.48 93.021 117.234 94.7883 112.837 96.0544C109.54 97.0073 103.631 98.0141 101.907 93.8092C101.798 93.5547 101.729 93.305 101.673 93.07C102.52 91.5322 103.761 90.2421 105.289 89.4292C111.777 85.9533 119.474 90.0988 126.137 87.2746C126.773 87.0007 127.265 87.4617 127.372 87.9979L127.371 88.0112Z" fill="#406A2F"/>
    <path d="M130.016 86.7122C129.896 87.8795 129.788 89.0482 129.694 90.2186C129.667 90.4839 129.639 90.7492 129.625 91.0161C129.394 93.9022 129.257 96.7861 129.347 99.6969C129.449 102.622 129.788 105.737 128.183 108.34C125.601 112.546 119.729 111.637 116.215 108.94C114.651 107.748 113.549 106.53 112.837 105.319C112.423 104.625 112.156 103.949 111.97 103.269C110.188 96.2247 120.126 89.5446 127.116 86.4366C127.61 86.0923 128.147 85.8603 128.884 85.652C129.497 85.4693 130.059 86.1667 130.002 86.7238L130.016 86.7122Z" fill="#406A2F"/>
    <path d="M130.016 86.7122C129.896 87.8795 129.788 89.0482 129.694 90.2186C129.581 90.6617 129.452 91.1168 129.322 91.5849C126.933 100.07 121.817 112.851 114.52 106.927C113.86 106.393 113.308 105.857 112.839 105.305C112.424 104.612 112.157 103.936 111.971 103.256C110.189 96.2112 120.127 89.5313 127.116 86.4235C127.611 86.0792 128.148 85.8473 128.885 85.639C129.498 85.4563 130.06 86.1538 130.002 86.7109L130.016 86.7122Z" fill="#3B622C"/>
    <path d="M130.016 86.7122C129.896 87.8795 129.788 89.0482 129.694 90.2186C129.667 90.4839 129.639 90.7492 129.625 91.0161C129.524 91.2056 129.422 91.4087 129.321 91.5982C128.121 93.806 126.641 95.8464 124.856 97.7031C121.848 100.812 117.29 104.556 112.559 103.446C112.348 103.394 112.151 103.344 111.968 103.282C110.186 96.2379 120.124 89.558 127.114 86.4502C127.608 86.1059 128.145 85.874 128.882 85.6657C129.495 85.483 130.057 86.1805 130 86.7375L130.016 86.7122Z" fill="#274B25"/>
    <path d="M112.503 13.3771C114.268 13.6663 115.978 14.365 117.421 15.4217C118.475 16.1907 119.402 17.1461 120.093 18.2885C122.731 22.5341 121.534 28.3672 117.527 31.2101C113.243 34.2619 108.87 32.1742 104.455 31.1424C102.359 30.6531 100.267 30.3925 98.1638 31.0167C98.0516 31.0572 97.9289 31.0695 97.8355 31.0585C97.7234 31.0989 97.6259 31.1277 97.5312 31.1299C97.3684 31.1376 97.2097 31.1054 97.0685 31.035C97.0046 31.0006 96.954 30.9677 96.9048 30.9216C96.8809 30.8919 96.8436 30.8607 96.8064 30.8294C96.2757 30.7399 95.8423 30.2322 95.9345 29.7329C95.9045 29.5011 95.9425 29.2639 96.0818 29.0924C99.7203 24.3264 99.7946 17.2192 105.726 14.295C107.803 13.265 110.193 12.9969 112.488 13.3888L112.503 13.3771Z" fill="#274B25"/>
    <path d="M112.503 13.3771C114.268 13.6663 115.978 14.365 117.421 15.4217C118.064 20.4251 114.125 26.3912 110.138 28.9141C108.39 30.0233 106.465 30.7624 104.468 31.144C102.372 30.6546 100.28 30.394 98.1772 31.0181C98.065 31.0586 97.9423 31.0709 97.8489 31.0599C97.7367 31.1003 97.6393 31.1291 97.5445 31.1313C97.3845 31.1124 97.2392 31.0818 97.082 31.0364C97.018 31.002 96.9674 30.9691 96.9182 30.923C96.8943 30.8933 96.857 30.8621 96.8197 30.8308C96.2891 30.7412 95.8557 30.2336 95.9479 29.7342C95.9179 29.5025 95.9559 29.2653 96.0951 29.0938C99.7335 24.3278 99.8075 17.2206 105.739 14.2965C107.816 13.2666 110.206 12.9985 112.501 13.3906L112.503 13.3771Z" fill="#3B622C"/>
    <path d="M112.503 13.3771C113.546 18.0385 110.588 21.9592 107.323 25.0775C104.328 27.9324 100.903 30.2394 96.9182 30.923C96.8943 30.8933 96.857 30.8621 96.8197 30.8308C96.2891 30.7412 95.8557 30.2336 95.9479 29.7342C95.9179 29.5025 95.9559 29.2653 96.0951 29.0938C99.7335 24.3278 99.8075 17.2206 105.739 14.2965C107.816 13.2666 110.206 12.9985 112.501 13.3906L112.503 13.3771Z" fill="#3B622C"/>
    <path d="M100.278 2.02994C100.766 2.14131 101.261 2.30733 101.77 2.47491C104.726 3.52241 107.244 5.28338 108.528 7.61025C109.587 9.50768 109.838 11.7795 108.855 14.3621C107.906 16.8814 106.321 19.2854 104.216 20.97C101.788 22.9118 98.7972 22.9879 96.2222 24.523C95.7037 24.8377 95.063 24.5069 94.6959 24.1413C94.5721 24.0327 94.475 23.9271 94.366 23.8068C94.3301 23.7623 94.2929 23.7311 94.257 23.6865C93.9552 23.3421 93.6947 22.9891 93.477 22.6143C93.2245 22.3159 92.9985 22.0207 92.774 21.7122C92.7487 21.6958 92.7234 21.6793 92.7128 21.6512C92.2008 21.1208 91.8597 20.5032 91.5748 19.8653C91.099 19.2452 90.7359 18.4503 90.3737 17.7765C90.2954 17.6196 90.2172 17.4627 90.1269 17.2909C90.0593 17.1621 89.9916 17.0332 89.9106 16.9028C89.8549 16.7888 89.8112 16.6897 89.7808 16.5921C88.3888 13.6081 87.8087 10.344 89.0189 7.51985C91.1544 2.536 95.3534 0.830347 100.29 2.04479L100.278 2.02994Z" fill="#406A2F"/>
    <path d="M100.278 2.02994C100.766 2.14131 101.261 2.30733 101.77 2.47491C104.726 3.52241 107.244 5.28338 108.528 7.61025C109.587 9.50768 109.838 11.7795 108.855 14.3621C107.906 16.8814 106.321 19.2854 104.216 20.97C101.788 22.9118 98.7972 22.9879 96.2222 24.523C95.7037 24.8377 95.063 24.5069 94.6959 24.1413C94.5721 24.0327 94.475 23.9271 94.366 23.8068C94.3356 23.7093 94.3051 23.6118 94.2761 23.5009C93.1508 19.6354 92.9759 15.5869 93.8452 11.6214C94.6426 8.09057 96.3233 3.06635 100.279 2.0167L100.278 2.02994Z" fill="#3B622C"/>
    <path d="M108.307 7.53057C108.385 7.55328 108.464 7.57584 108.528 7.61025C109.587 9.50768 109.838 11.7795 108.855 14.3621C107.906 16.8814 106.321 19.2854 104.216 20.97C101.788 22.9118 98.7972 22.9879 96.2222 24.523C95.7037 24.8377 95.063 24.5069 94.6959 24.1413C94.5721 24.0327 94.475 23.9271 94.366 23.8068C94.3301 23.7623 94.2929 23.7311 94.257 23.6865C94.2625 23.6335 94.2693 23.5673 94.2748 23.5142C94.8231 19.39 96.0118 15.2073 98.2255 11.8169C100.261 8.71434 104.459 6.22999 108.307 7.53057Z" fill="#274B25"/>
  </g>
  <defs>
    <clipPath id="clip0_121_4">
      <rect width="113.204" height="164.542" fill="white" transform="translate(0.330841 113.873) rotate(-90)"/>
    </clipPath>
  </defs>
</svg>
