<svg width="129" height="173" viewBox="0 0 129 173" fill="none"
  xmlns="http://www.w3.org/2000/svg">
  <path d="M76.3242 136.859C78.3422 149.423 76.1 165.128 71.1671 166.25C66.01 167.596 58.8349 152.34 55.6958 140.897C51.884 126.987 51.6598 107.468 56.5927 105.224C61.7498 102.981 73.4093 119.359 76.3242 136.859Z" fill="#3B622C"/>
  <path d="M70.9429 166.25C69.8217 155.256 68.028 144.263 65.3373 133.494C64.4404 130.128 63.5435 126.763 62.6466 123.397C62.1982 121.827 61.7497 120.256 61.0771 118.686C59.7317 114.199 57.938 109.712 56.3684 105.224L56.8169 105C58.6106 109.487 60.1802 113.974 61.5255 118.462C61.974 120.256 62.6466 121.827 63.0951 123.173C63.992 126.314 64.8889 129.904 65.7857 133.269C68.4764 144.038 70.2702 155.032 71.3913 166.026L70.9429 166.25Z" fill="#A7BC68"/>
  <path d="M61.3013 118.91L52.5566 115.769L52.7809 115.32L61.5255 118.462L61.3013 118.91Z" fill="#A7BC68"/>
  <path d="M62.8709 123.846L52.5566 119.583L52.7809 119.135L63.0951 123.173L62.8709 123.846Z" fill="#A7BC68"/>
  <path d="M73.858 143.59C72.5127 153.462 74.5307 166.026 78.3425 166.923C82.3785 167.82 87.984 155.705 90.2263 146.506C92.9169 135.288 92.9169 120.032 89.1052 118.237C84.8449 116.442 75.6518 129.679 73.858 143.59Z" fill="#608437"/>
  <path d="M78.3425 166.923H77.894C78.5667 158.173 79.912 149.423 81.93 140.897C82.6027 138.205 83.2754 135.513 83.948 132.821C84.1723 131.699 84.6207 130.353 85.0692 129.006C86.1903 125.417 87.3114 121.827 88.6567 118.237L89.1052 118.462C87.7598 122.051 86.6387 125.641 85.5176 129.231C85.0692 130.577 84.8449 131.923 84.3965 133.045C83.7238 135.513 83.0512 138.205 82.3785 141.122C80.5847 149.423 79.2394 158.173 78.3425 166.923Z" fill="#A7BC68"/>
  <path d="M92.1473 126.099L85.2415 128.758L85.483 129.386L92.3888 126.728L92.1473 126.099Z" fill="#A7BC68"/>
  <path d="M92.007 129.135L83.9724 132.588L84.1494 133.001L92.184 129.547L92.007 129.135Z" fill="#A7BC68"/>
  <path d="M86.4145 151.442C83.2754 156.827 81.2574 164.68 83.4996 166.026C85.7418 167.596 91.7958 161.987 95.3834 157.051C99.6436 151.218 103.455 142.244 101.437 140.449C99.4194 138.43 90.8989 143.814 86.4145 151.442Z" fill="#809D4B"/>
  <path d="M83.4997 166.026L83.0513 165.801C85.5177 160.865 88.4326 156.154 91.7959 151.667C92.917 150.321 93.8139 148.75 94.935 147.404C95.3835 146.731 96.0562 146.058 96.5046 145.385C98.0742 143.59 99.6437 141.795 101.213 140L101.662 140.449C100.092 142.244 98.5226 144.038 96.953 145.833C96.5046 146.506 95.8319 147.179 95.3835 147.853C94.2624 149.199 93.3655 150.545 92.2444 151.891C88.881 156.378 86.1904 161.09 83.4997 166.026Z" fill="#A7BC68"/>
  <path d="M96.5278 145.247L96.5095 145.92L101.216 146.047L101.235 145.375L96.5278 145.247Z" fill="#A7BC68"/>
  <path d="M94.9348 147.853V147.404H100.54V147.853H94.9348Z" fill="#A7BC68"/>
  <path d="M3.00359 165.353C2.77937 167.372 13.0936 170.513 22.5109 171.186C31.2556 171.859 36.6369 170.064 49.6418 169.615C51.884 169.615 55.4716 169.391 60.1803 169.615C61.974 169.615 63.7678 169.84 65.7858 170.064C73.4094 170.737 74.7547 171.635 82.8267 172.083C87.5354 172.308 92.6925 172.308 98.9707 170.962C100.54 170.513 101.661 170.288 102.334 170.064C115.787 166.474 128.568 166.25 128.568 165.353C128.568 163.782 99.1949 163.333 76.7727 161.09C74.082 160.865 70.7187 160.417 66.01 160.641C57.7138 161.09 54.5747 162.66 47.3996 163.109C41.3456 163.558 39.3276 162.436 33.0494 161.987C24.0805 161.314 3.00359 162.436 3.00359 165.353Z" fill="#E9D7AA"/>
  <path d="M76.1872 69.8719H60.063C59.854 71.7538 59.8391 73.666 59.8241 75.563C59.7943 81.3149 59.8988 87.0364 59.9436 92.7883C59.9734 97.0376 60.496 101.257 60.5557 105.491C60.8841 109.073 61.138 112.669 61.332 116.266C61.4963 119.15 61.4366 122.109 61.8247 124.993C61.8994 125.6 62.0039 126.207 62.1233 126.799C62.1532 126.95 62.198 127.117 62.3025 127.224C62.4219 127.36 62.616 127.406 62.7802 127.436C64.1389 127.694 65.5273 127.724 66.9009 127.709C67.8862 127.709 68.8865 127.664 69.8719 127.497C71.2902 127.269 72.6638 126.783 73.9179 126.055C74.3956 125.782 75.0227 125.418 75.3213 124.917C75.6348 124.401 75.5303 123.642 75.5602 123.035C75.6199 121.563 75.6796 120.075 75.7393 118.603C75.8438 115.644 75.9334 112.685 75.9782 109.725C76.0678 105.081 75.9782 100.452 76.0379 95.8084C76.0977 91.4072 76.9934 87.1123 76.9934 82.6959C76.9934 79.7669 76.6948 76.8379 76.5455 73.924C76.4709 72.4822 76.6351 71.0101 76.1872 69.8719V69.8719Z" fill="#63848F"/>
  <path d="M72.7682 162.676C72.8279 162.934 72.9175 163.192 72.9921 163.45C73.1713 164.011 73.2758 164.724 72.6189 165.073C72.4696 165.149 72.3054 165.18 72.1411 165.21C70.8422 165.423 69.4985 165.256 68.1847 165.089C67.6323 165.013 66.9903 164.998 66.4976 164.77C66.4081 164.74 66.3334 164.694 66.2737 164.618C66.1692 164.482 66.1991 164.299 66.2737 164.163C66.3483 164.026 66.4827 163.905 66.6022 163.799C67.6174 162.782 67.7518 161.507 67.6025 160.156C67.4979 159.215 67.3934 158.274 67.3039 157.318C66.9008 153.388 66.5872 149.442 66.3483 145.496C66.2886 144.464 66.2438 143.386 66.6619 142.461C67.0501 141.611 67.7965 141.004 68.5878 140.609C69.9614 139.926 72.5592 139.774 72.9772 141.808C73.2459 143.083 73.2161 144.388 73.2011 145.693C73.2609 147.514 73.1414 149.366 73.0966 151.202C73.0518 153.175 72.9921 155.148 72.8876 157.121C72.8428 158.107 72.7831 159.094 72.7234 160.065C72.6786 160.657 72.6189 161.234 72.6338 161.826C72.6338 162.129 72.6935 162.418 72.7532 162.706L72.7682 162.676Z" fill="#FCD9BA"/>
  <path d="M59.9734 166.606C60.3018 166.788 60.8393 166.834 61.2126 166.895C62.0934 167.031 62.9743 167.016 63.8551 166.986L67.1696 166.879C67.4831 166.879 67.9161 166.94 68.2146 166.849C68.558 166.743 68.8865 166.606 69.2299 166.47C69.3344 166.424 69.4538 166.394 69.5583 166.348C69.8271 166.272 70.4541 166.075 70.6482 166.348C70.7079 166.439 70.7378 166.53 70.7677 166.637C70.7677 166.682 70.7826 166.712 70.7975 166.758L73.6939 166.667C73.6939 166.667 73.6939 166.576 73.6939 166.53C73.6939 166.288 73.7238 166.09 73.5745 165.878C73.5595 165.847 73.5297 165.817 73.5147 165.787C73.5147 165.756 73.5147 165.711 73.5147 165.68C73.5147 165.665 73.5147 165.635 73.5147 165.62C73.5446 165.453 73.5297 165.286 73.5147 165.119C73.4998 164.603 73.4401 164.102 73.2908 163.601C73.2161 163.358 73.1564 163.085 73.0071 162.888C72.7384 162.554 72.5592 162.736 72.2606 162.903C71.6187 163.252 70.8871 163.434 70.1555 163.419C69.424 163.419 68.7073 163.222 68.0803 162.858C67.8713 162.736 67.6622 162.357 67.4234 162.372C67.1248 162.387 66.871 162.827 66.6769 163.009C66.2439 163.389 65.7811 163.723 65.3033 164.026C64.318 164.648 63.243 165.119 62.1233 165.422C61.7799 165.514 61.4365 165.589 61.0931 165.665C60.7796 165.741 60.3466 165.772 60.063 165.938C59.9584 165.999 59.8689 166.09 59.8092 166.166C59.7345 166.288 59.7345 166.439 59.9286 166.546L59.9734 166.606Z" fill="#553A12"/>
  <path d="M59.8541 166.242C60.0482 166.242 60.2423 166.288 60.4513 166.318C60.9589 166.394 61.4665 166.439 61.9741 166.47C62.9744 166.53 63.9896 166.515 65.0049 166.5C65.0795 166.5 65.1392 166.5 65.2139 166.5C65.9156 166.5 66.6173 166.47 67.3041 166.409C68.0058 166.348 68.6627 166.181 69.3495 166.03C69.6033 165.969 69.8421 165.923 70.0959 165.893C69.9466 165.65 69.7078 165.453 69.439 165.362C69.0658 165.24 68.6328 165.286 68.2446 165.301C67.8266 165.301 67.4086 165.331 67.0055 165.422C66.8114 165.468 66.6173 165.514 66.4083 165.529C66.259 165.544 66.05 165.574 65.9156 165.468C65.8409 165.407 65.7812 165.331 65.7364 165.24C65.6767 165.149 65.617 165.058 65.5573 164.967C65.4378 164.785 65.3333 164.588 65.2437 164.39C65.2139 164.345 65.3483 164.315 65.3781 164.36C65.4677 164.542 65.5573 164.709 65.6618 164.891C65.7514 165.043 65.8559 165.21 65.9604 165.362C66.035 165.453 66.1395 165.468 66.259 165.453C66.3784 165.453 66.4829 165.438 66.6024 165.407C66.7964 165.377 66.9905 165.331 67.1846 165.301C67.5877 165.24 67.9908 165.225 68.3939 165.21C68.7672 165.21 69.1554 165.18 69.5137 165.301C69.8123 165.407 70.0512 165.605 70.2154 165.863C71.3053 165.696 72.425 165.65 73.5149 165.711C73.5149 165.741 73.5149 165.787 73.5149 165.817C73.5149 165.847 73.5447 165.878 73.5746 165.908C73.7239 166.121 73.694 166.318 73.694 166.561C73.694 166.606 73.694 166.652 73.694 166.697L70.7976 166.788C70.7976 166.788 70.7827 166.712 70.7678 166.667C70.7379 166.561 70.7081 166.454 70.6483 166.379C70.4543 166.105 69.8272 166.303 69.5585 166.379C69.439 166.409 69.3345 166.454 69.23 166.5C68.8866 166.621 68.5432 166.773 68.2148 166.879C67.9162 166.97 67.4832 166.895 67.1697 166.91L63.8553 167.016C62.9744 167.046 62.0935 167.062 61.2127 166.925C60.8394 166.864 60.3169 166.819 59.9735 166.637C59.7794 166.53 59.7794 166.394 59.8541 166.257V166.242Z" fill="#412409"/>
  <path d="M66.6322 163.009C66.6322 163.009 66.6769 162.964 66.6919 162.964C66.7516 162.949 66.8262 162.949 66.886 162.979C67.0353 163.1 67.1846 163.222 67.3339 163.358C67.3488 163.374 67.3637 163.389 67.3488 163.419C67.3488 163.434 67.304 163.465 67.2891 163.465C67.2592 163.465 67.2144 163.48 67.1846 163.465C67.1547 163.465 67.1248 163.465 67.095 163.434C66.9606 163.298 66.8113 163.176 66.6471 163.055C66.6322 163.055 66.6172 163.025 66.6322 162.994V163.009Z" fill="#3C3C71"/>
  <path d="M66.0947 163.419C66.0947 163.419 66.1395 163.374 66.1544 163.374C66.2142 163.359 66.2888 163.358 66.3485 163.389C66.4829 163.51 66.6173 163.647 66.7218 163.783C66.7218 163.799 66.7218 163.829 66.7218 163.844C66.7068 163.859 66.6621 163.874 66.6471 163.874C66.5874 163.874 66.5128 163.874 66.4829 163.829C66.4829 163.829 66.453 163.799 66.453 163.783C66.3635 163.662 66.259 163.556 66.1395 163.465C66.1246 163.465 66.1097 163.434 66.1246 163.404L66.0947 163.419Z" fill="#3C3C71"/>
  <path d="M61.75 121.077C62.0187 119.347 62.7503 117.708 64.5717 117.328C65.1838 117.207 65.8109 117.222 66.423 117.268C67.2442 117.313 68.0653 117.389 68.8416 117.662C69.6777 117.966 70.3645 117.951 71.2603 118.087C72.2158 118.224 73.1414 118.497 74.0223 118.892C74.4254 119.074 74.8136 119.271 75.142 119.59C76.0528 120.47 75.7094 121.714 75.6646 122.838C75.6347 123.505 75.6198 124.158 75.5899 124.826C75.5451 126.146 75.4854 127.466 75.4257 128.787C75.3809 129.97 75.3212 131.154 75.2764 132.323C75.2764 132.444 75.2764 132.566 75.2764 132.687C75.2465 133.34 75.2316 133.977 75.2018 134.63C75.1122 137.179 75.0226 139.744 74.933 142.294C74.933 142.415 74.933 142.536 74.933 142.658C74.8434 145.632 74.7539 148.607 74.6792 151.582C74.6792 151.703 74.6792 151.824 74.6792 151.946C74.6046 154.936 74.5299 157.925 74.4553 160.915C74.4553 161.037 74.4553 161.158 74.4553 161.279C74.4254 162.296 74.4105 163.298 74.3806 164.315C74.3806 164.815 73.022 164.648 71.962 164.482C71.7828 164.451 71.6037 164.421 71.4394 164.39C71.1856 164.345 70.9617 164.315 70.8422 164.299C69.7076 164.193 68.5729 164.117 67.4382 164.057C67.2591 164.057 67.0949 164.041 66.9157 164.026C66.7664 164.026 64.6016 163.981 64.6165 164.026C64.5418 162.994 64.4971 161.902 64.8852 160.915C65.2137 160.065 65.4974 159.382 65.4526 158.411C65.363 156.666 64.4075 155.133 63.6908 153.6C62.6308 151.293 62.8846 148.364 62.8697 145.89C62.8398 138.454 61.8993 131.063 61.6753 123.642C61.6455 122.868 61.6753 121.972 61.7948 121.092L61.75 121.077Z" fill="#63848F"/>
  <path d="M61.4961 69.8719H48.1488C47.7009 70.4182 47.4322 71.1315 47.2978 71.8296C47.1187 72.8313 47.1784 73.8633 47.1336 74.8801C47.0142 77.6422 46.1184 80.2829 45.5958 82.9539C45.0583 85.7464 44.5507 88.554 44.058 91.3465C43.3116 95.52 43.0428 99.7694 42.3262 103.943C41.8335 106.766 41.4304 109.604 41.087 112.457C40.7436 115.386 40.3256 118.376 40.2211 121.32C40.1912 122.337 40.1912 123.369 40.4301 124.355C40.6093 125.114 40.9974 126.313 41.7439 126.692C41.7439 126.692 41.7589 126.692 41.7738 126.692C42.5203 127.057 43.6848 126.814 44.491 126.965C45.4615 127.148 46.4468 127.299 47.4471 127.33C48.8804 127.375 50.3286 127.148 51.6872 126.677C52.4635 126.404 53.2996 126.116 53.5534 125.251C53.8222 124.325 53.9117 123.217 54.1805 122.246C54.1805 121.381 54.7329 120.242 54.9718 119.392C55.2704 118.33 55.5839 117.253 55.8526 116.175C56.0318 115.477 55.987 114.885 56.0467 114.187C56.1363 113.14 56.4946 112.047 56.7036 111.015C58.3608 103.002 59.809 94.9433 60.9437 86.8543C61.6603 81.8005 62.5113 76.6406 61.8992 71.5109C61.8246 70.9494 61.735 70.3424 61.511 69.8264L61.4961 69.8719Z" fill="#63848F"/>
  <path d="M51.2691 162.676C51.3289 162.934 51.4184 163.192 51.4931 163.45C51.6722 164.011 51.7768 164.724 51.1198 165.073C50.9705 165.149 50.8063 165.18 50.6421 165.21C49.3133 165.423 47.9547 165.256 46.626 165.089C46.0735 165.013 45.4166 164.998 44.909 164.77C44.8194 164.74 44.7448 164.694 44.6851 164.618C44.5806 164.482 44.6104 164.299 44.6851 164.163C44.7597 164.026 44.8941 163.905 45.0135 163.799C46.0586 162.782 46.193 161.507 46.0288 160.156C45.9243 159.215 45.8197 158.274 45.7152 157.318C45.3121 153.388 44.9837 149.442 44.7448 145.496C44.6851 144.464 44.6403 143.386 45.0583 142.461C45.4465 141.611 46.2079 141.004 47.0141 140.609C48.4175 139.926 51.0452 139.774 51.4782 141.808C51.7469 143.083 51.732 144.388 51.7021 145.693C51.7618 147.514 51.6424 149.366 51.5976 151.202C51.5528 153.175 51.4931 155.148 51.3886 157.121C51.3438 158.107 51.2841 159.094 51.2094 160.065C51.1646 160.657 51.1049 161.234 51.1198 161.826C51.1198 162.129 51.1796 162.418 51.2542 162.706L51.2691 162.676Z" fill="#FCD9BA"/>
  <path d="M38.2802 166.606C38.6086 166.788 39.161 166.834 39.5343 166.895C40.4152 167.031 41.3259 167.016 42.2217 166.986L45.5809 166.879C45.8944 166.879 46.3423 166.94 46.6409 166.849C46.9843 166.743 47.3277 166.606 47.686 166.47C47.8054 166.424 47.9099 166.394 48.0294 166.348C48.2981 166.272 48.9401 166.075 49.1342 166.348C49.1939 166.439 49.2238 166.53 49.2536 166.637C49.2536 166.682 49.2685 166.712 49.2835 166.758L52.2247 166.667C52.2247 166.667 52.2247 166.576 52.2247 166.53C52.2247 166.288 52.2545 166.09 52.1052 165.878C52.0903 165.847 52.0604 165.817 52.0455 165.787C52.0455 165.756 52.0455 165.711 52.0455 165.68C52.0455 165.665 52.0455 165.635 52.0455 165.62C52.0754 165.453 52.0604 165.286 52.0455 165.119C52.0306 164.603 51.9708 164.102 51.8216 163.601C51.7469 163.358 51.6872 163.085 51.5379 162.888C51.2691 162.554 51.09 162.736 50.7765 162.903C50.1345 163.252 49.388 163.434 48.6415 163.419C47.9099 163.419 47.1634 163.222 46.5364 162.858C46.3274 162.736 46.1184 162.357 45.8645 162.372C45.551 162.387 45.3121 162.827 45.1031 163.009C44.6702 163.389 44.1924 163.723 43.7147 164.026C42.7144 164.648 41.6245 165.119 40.4898 165.422C40.1464 165.514 39.7881 165.589 39.4447 165.665C39.1312 165.741 38.6833 165.772 38.3996 165.938C38.2951 165.999 38.2055 166.09 38.1458 166.166C38.0712 166.288 38.0712 166.439 38.2653 166.546L38.2802 166.606Z" fill="#553A12"/>
  <path d="M38.1607 166.242C38.3548 166.242 38.5489 166.288 38.7579 166.318C39.2655 166.394 39.7881 166.439 40.3106 166.47C41.3408 166.53 42.356 166.515 43.3862 166.5C43.4608 166.5 43.5205 166.5 43.5952 166.5C44.2969 166.5 45.0135 166.47 45.7152 166.409C46.4318 166.348 47.0888 166.181 47.7905 166.03C48.0443 165.969 48.2981 165.923 48.5519 165.893C48.4026 165.65 48.1637 165.453 47.88 165.362C47.4919 165.24 47.0738 165.286 46.6707 165.301C46.2527 165.301 45.8197 165.331 45.4166 165.422C45.2225 165.468 45.0135 165.514 44.8045 165.529C44.6552 165.544 44.4462 165.574 44.2969 165.468C44.2222 165.407 44.1625 165.331 44.1177 165.24C44.058 165.149 43.9983 165.058 43.9386 164.967C43.8191 164.785 43.7146 164.588 43.625 164.39C43.5952 164.345 43.7445 164.315 43.7594 164.36C43.849 164.542 43.9386 164.709 44.0431 164.891C44.1327 165.043 44.2372 165.21 44.3566 165.362C44.4312 165.453 44.5507 165.468 44.6701 165.453C44.7896 165.453 44.909 165.438 45.0135 165.407C45.2076 165.377 45.4166 165.331 45.6107 165.301C46.0138 165.24 46.4318 165.225 46.8499 165.21C47.2231 165.21 47.6262 165.18 47.9845 165.301C48.2831 165.407 48.537 165.605 48.6863 165.863C49.7911 165.696 50.9407 165.65 52.0455 165.711C52.0455 165.741 52.0455 165.787 52.0455 165.817C52.0455 165.847 52.0753 165.878 52.1052 165.908C52.2545 166.121 52.2246 166.318 52.2246 166.561C52.2246 166.606 52.2246 166.652 52.2246 166.697L49.2834 166.788C49.2834 166.788 49.2685 166.712 49.2536 166.667C49.2237 166.561 49.1939 166.454 49.1341 166.379C48.9251 166.105 48.2981 166.303 48.0293 166.379C47.9099 166.409 47.8054 166.454 47.686 166.5C47.3276 166.621 46.9992 166.773 46.6409 166.879C46.3423 166.97 45.8944 166.895 45.5808 166.91L42.2216 167.016C41.3258 167.046 40.43 167.062 39.5343 166.925C39.161 166.864 38.6235 166.819 38.2802 166.637C38.0861 166.53 38.0861 166.394 38.1607 166.257V166.242Z" fill="#412409"/>
  <path d="M45.0284 163.009C45.0284 163.009 45.0732 162.964 45.0881 162.964C45.1478 162.949 45.2225 162.949 45.2822 162.979C45.4464 163.1 45.5957 163.222 45.7301 163.358C45.745 163.374 45.76 163.389 45.745 163.419C45.745 163.434 45.7002 163.465 45.6853 163.465C45.6555 163.465 45.6107 163.48 45.5808 163.465C45.5509 163.465 45.5211 163.465 45.4912 163.434C45.3419 163.298 45.1926 163.176 45.0433 163.055C45.0284 163.055 45.0135 163.025 45.0284 162.994V163.009Z" fill="#3C3C71"/>
  <path d="M44.491 163.419C44.491 163.419 44.5358 163.374 44.5507 163.374C44.6104 163.359 44.7 163.358 44.7448 163.389C44.8791 163.51 45.0135 163.647 45.133 163.783C45.133 163.799 45.133 163.829 45.133 163.844C45.118 163.859 45.0732 163.874 45.0434 163.874C44.9837 163.874 44.909 163.874 44.8642 163.829C44.8642 163.829 44.8344 163.799 44.8344 163.783C44.7298 163.662 44.6253 163.556 44.5208 163.465C44.5059 163.465 44.491 163.434 44.5059 163.404L44.491 163.419Z" fill="#3C3C71"/>
  <path d="M41.8038 149.442C41.4156 142.066 40.9528 134.705 40.5497 127.345C40.4601 125.812 40.1764 124.234 40.2063 122.716C40.2362 120.758 40.9379 117.784 43.1027 117.344C43.7148 117.222 44.3419 117.237 44.954 117.283C46.1484 117.359 47.298 117.48 48.3132 118.148C49.2836 118.785 50.5228 118.831 51.5978 119.241C52.3144 119.514 53.9865 120.045 54.2553 120.834C54.4344 121.365 54.2105 122.291 54.1956 122.853C54.1657 123.52 54.1508 124.173 54.1209 124.841C54.0761 126.161 54.0164 127.481 53.9567 128.802C53.9119 129.986 53.8522 131.169 53.8074 132.338C53.8074 132.459 53.8074 132.581 53.8074 132.702C53.7775 133.355 53.7626 133.992 53.7327 134.645C53.6432 137.194 53.5536 139.759 53.464 142.309C53.464 142.43 53.464 142.552 53.464 142.673C53.3744 145.648 53.2848 148.622 53.2102 151.597C53.2102 151.718 53.2102 151.84 53.2102 151.961C53.1355 154.951 53.0609 157.941 52.9862 160.93C52.9862 161.052 52.9862 161.173 52.9862 161.295C52.9564 162.311 52.9414 163.313 52.9116 164.33C52.9116 164.831 51.553 164.664 50.493 164.497C50.3138 164.466 50.1346 164.436 49.9704 164.406C49.7166 164.36 49.4927 164.33 49.3732 164.315C48.2385 164.208 47.1039 164.133 45.9692 164.072C45.7901 164.072 45.6258 164.057 45.4467 164.041C45.2974 164.041 43.1325 163.996 43.1475 164.041C43.0579 162.721 42.9982 161.279 43.8044 160.232C44.0881 159.868 44.4464 159.58 44.6554 159.185C45.0436 158.426 44.7898 157.485 44.3419 156.757C42.8489 154.313 42.0128 152.416 41.8635 149.472L41.8038 149.442Z" fill="#63848F"/>
  <path d="M64.1833 91.2099C64.049 94.9888 63.8997 98.7526 63.7653 102.531C63.6309 106.28 63.4816 110.044 63.3473 113.792C63.2726 115.917 63.198 118.027 63.1084 120.151C63.1084 120.258 63.3921 120.258 63.3921 120.151C63.5264 116.372 63.6757 112.609 63.8101 108.83C63.9445 105.081 64.0938 101.317 64.2281 97.5688C64.3028 95.4441 64.3774 93.3346 64.467 91.2099C64.467 91.1037 64.1833 91.1037 64.1833 91.2099V91.2099Z" fill="#364B52"/>
  <path d="M45.6704 97.5992C45.3121 98.9044 44.9836 100.21 44.6701 101.515C44.3565 102.835 44.0729 104.171 43.8041 105.506C43.5354 106.826 43.2965 108.162 43.0726 109.497C42.8486 110.833 42.6545 112.169 42.4754 113.519C42.2962 114.855 42.1469 116.205 42.0126 117.556C41.9976 117.723 41.9827 117.905 41.9678 118.072C41.9678 118.178 42.2514 118.178 42.2514 118.072C42.3709 116.737 42.5202 115.386 42.6993 114.05C42.8636 112.715 43.0577 111.364 43.2816 110.029C43.4906 108.693 43.7295 107.373 43.9982 106.052C44.252 104.732 44.5357 103.397 44.8492 102.076C45.1478 100.756 45.4763 99.4507 45.8346 98.1455C45.8794 97.9786 45.9242 97.8117 45.969 97.6447C45.9988 97.5233 45.7152 97.5081 45.6853 97.5992H45.6704Z" fill="#364B52"/>
  <path d="M43.5354 143.766C43.1323 140.048 42.8038 136.329 42.5799 132.611C42.4455 130.502 42.341 128.392 42.2813 126.283C42.2813 126.176 41.9827 126.176 41.9976 126.283C42.132 130.031 42.341 133.78 42.6545 137.528C42.9681 141.246 43.3712 144.965 43.8489 148.668C44.1326 150.762 44.4312 152.856 44.7596 154.936C44.7746 155.042 45.0582 155.042 45.0433 154.936C44.4461 151.233 43.9534 147.514 43.5354 143.781V143.766Z" fill="#364B52"/>
  <path d="M65.2285 144.874C64.8851 141.732 64.6164 138.591 64.3924 135.449C64.273 133.689 64.1685 131.913 64.0789 130.153C64.0789 130.046 63.7803 130.046 63.7952 130.153C63.9445 133.324 64.1535 136.481 64.4372 139.638C64.7059 142.779 65.0493 145.921 65.4375 149.047C65.6615 150.808 65.9003 152.553 66.1541 154.298C66.1691 154.404 66.4527 154.404 66.4378 154.298C65.975 151.157 65.5719 148.015 65.2285 144.874V144.874Z" fill="#364B52"/>
  <path d="M60.406 78.917C60.406 77.278 60.3612 75.6389 60.3015 73.9847C60.2716 73.0589 60.2269 72.1332 60.1821 71.2074C60.1821 71.1012 59.8835 71.1012 59.8984 71.2074C59.988 72.8617 60.0477 74.5007 60.0925 76.1549C60.1373 77.794 60.1522 79.433 60.1373 81.0873C60.1373 81.922 60.1373 82.7567 60.1074 83.5762C59.7043 83.2423 59.2116 83.0147 58.7637 82.7263C58.495 82.5594 58.2412 82.3773 58.0322 82.1344C57.7784 81.8461 57.6589 81.4818 57.5992 81.1024C57.5395 80.6775 57.5544 80.2374 57.5544 79.7973C57.5544 79.3116 57.5544 78.8412 57.5544 78.3555C57.5544 77.3994 57.5544 76.4433 57.5544 75.5023C57.5544 74.4248 57.5544 73.3473 57.5544 72.2546C57.5544 72.1484 57.2708 72.1484 57.2708 72.2546C57.2708 74.182 57.2708 76.1246 57.2708 78.052C57.2708 78.5376 57.2708 79.0233 57.2708 79.5089C57.2708 79.9642 57.2708 80.4195 57.3006 80.8748C57.3305 81.2694 57.4201 81.6791 57.644 82.013C57.8232 82.271 58.062 82.4835 58.3158 82.6656C58.913 83.0905 59.6297 83.3485 60.1224 83.8949C60.1671 83.9556 60.3911 83.9556 60.3911 83.8494C60.4209 82.1951 60.4359 80.5561 60.4209 78.9019L60.406 78.917Z" fill="#364B52"/>
  <path d="M59.0474 90.4967C58.4502 89.3736 57.7336 88.3264 56.8975 87.3855C56.6586 87.1123 56.4048 86.8543 56.151 86.5963C56.0764 86.5204 55.8076 86.5811 55.8972 86.6722C56.7781 87.5524 57.5694 88.5389 58.2263 89.6164C58.4204 89.92 58.5846 90.2235 58.7638 90.5422C58.8085 90.6332 59.0922 90.6029 59.0474 90.4967V90.4967Z" fill="#364B52"/>
  <path d="M77.5905 29.1687C77.5905 29.1687 77.5457 29.0928 77.5159 29.0473C76.6798 27.8787 75.5899 27.0744 74.4702 26.2093C73.2161 25.2229 71.529 24.1909 70.036 23.6293C68.1399 22.9312 66.5872 21.7778 64.497 21.5653C63.2131 21.4439 61.9142 21.6109 60.6302 21.7778C58.1519 22.0965 55.7929 22.5973 53.4938 23.5838C51.2543 24.5399 49.1193 26.2549 47.2531 27.818C46.4767 28.4706 45.7302 29.1535 45.2077 30.0338C43.8939 32.2192 44.3119 34.9965 44.7001 37.5309C46.3722 48.2455 46.85 59.1118 47.1187 69.9477C47.1486 71.0252 47.3128 72.3152 48.2683 72.7402C48.5818 72.8768 48.9401 72.8919 49.2835 72.9071C52.598 73.0437 55.8975 73.1955 59.2119 73.3321C61.9142 73.4535 64.6314 73.5597 67.3337 73.4838C68.8566 73.4383 70.3794 73.3169 71.9022 73.1803C73.1862 73.0589 75.0375 73.2106 76.1722 72.5125C76.2468 72.467 76.3215 72.4215 76.3663 72.3456C76.426 72.2545 76.4558 72.1331 76.4857 72.0269C76.7096 70.8887 76.5156 69.7656 76.5753 68.6122C76.635 67.2767 76.5902 65.9411 76.5156 64.6208C76.3812 62.314 76.5902 59.9616 76.7246 57.6397C77.0232 52.7377 77.486 47.8509 78.128 42.9944C78.561 39.7011 79.0686 36.3623 78.7252 33.0387C78.5759 31.6577 78.3669 30.2918 77.5905 29.1384V29.1687Z" fill="#DFEDE5"/>
  <path d="M58.6297 34.3439C58.5998 34.2073 58.5401 34.101 58.4356 34.0252C58.3012 33.9341 58.1071 33.9189 57.9728 33.9948C57.8683 34.0403 57.8085 34.1466 57.7787 34.2528C57.7787 34.2983 57.7637 34.3439 57.7488 34.3894C57.7488 34.4501 57.7339 34.4956 57.7339 34.5563C57.7339 34.6929 57.7936 34.8143 57.913 34.875C58.0325 34.9509 58.1967 34.9509 58.3311 34.9206C58.5849 34.8447 58.7043 34.5867 58.6446 34.3287L58.6297 34.3439Z" fill="#244753"/>
  <path d="M58.6297 42.4026C58.5998 42.266 58.5401 42.1598 58.4356 42.0839C58.3012 41.9928 58.1071 41.9776 57.9728 42.0535C57.8683 42.0991 57.8085 42.2053 57.7787 42.3115C57.7787 42.3571 57.7637 42.4026 57.7488 42.4481C57.7488 42.5088 57.7339 42.5543 57.7339 42.6151C57.7339 42.7516 57.7936 42.8731 57.913 42.9338C58.0325 43.0096 58.1967 43.0096 58.3311 42.9793C58.5849 42.9034 58.7043 42.6454 58.6446 42.3874L58.6297 42.4026Z" fill="#244753"/>
  <path d="M58.6297 50.446C58.5998 50.3095 58.5401 50.2032 58.4356 50.1273C58.3012 50.0363 58.1071 50.0211 57.9728 50.097C57.8683 50.1425 57.8085 50.2488 57.7787 50.355C57.7787 50.4005 57.7637 50.446 57.7488 50.4916C57.7488 50.5523 57.7339 50.5978 57.7339 50.6585C57.7339 50.7951 57.7936 50.9165 57.913 50.9772C58.0325 51.0531 58.1967 51.0531 58.3311 51.0227C58.5849 50.9469 58.7043 50.6889 58.6446 50.4309L58.6297 50.446Z" fill="#244753"/>
  <path d="M59.1372 58.5047C59.1074 58.3681 59.0477 58.2619 58.9432 58.186C58.8088 58.095 58.6147 58.0798 58.4803 58.1557C58.3758 58.2012 58.3161 58.3074 58.2862 58.4137C58.2862 58.4592 58.2713 58.5047 58.2564 58.5503C58.2564 58.611 58.2415 58.6565 58.2415 58.7172C58.2415 58.8538 58.3012 58.9752 58.4206 59.0359C58.5401 59.1118 58.7043 59.1118 58.8387 59.0814C59.0925 59.0056 59.2119 58.7475 59.1522 58.4895L59.1372 58.5047Z" fill="#244753"/>
  <path d="M59.1372 66.5634C59.1074 66.4268 59.0477 66.3206 58.9432 66.2447C58.8088 66.1536 58.6147 66.1384 58.4803 66.2143C58.3758 66.2599 58.3161 66.3661 58.2862 66.4723C58.2862 66.5179 58.2713 66.5634 58.2564 66.6089C58.2564 66.6696 58.2415 66.7152 58.2415 66.7759C58.2415 66.9124 58.3012 67.0339 58.4206 67.0946C58.5401 67.1704 58.7043 67.1704 58.8387 67.1401C59.0925 67.0642 59.2119 66.8062 59.1522 66.5482L59.1372 66.5634Z" fill="#244753"/>
  <path d="M65.6317 22.0814C65.6317 22.1724 65.5869 22.2331 65.5421 22.309C64.5418 23.8267 62.9891 24.8586 61.7499 26.1942C60.4063 27.6511 59.4358 29.4571 57.8831 30.6712C57.5845 29.791 57.1068 28.9411 56.8231 28.0609C56.5245 27.1655 56.2856 26.2245 56.0169 25.3139C55.7482 24.4489 55.4943 23.5838 55.2256 22.7188C55.2256 22.7188 55.2256 22.6884 55.2256 22.6732C55.0017 21.96 54.7926 21.2467 54.5687 20.5182C54.5239 20.3664 54.4791 20.2298 54.4343 20.0781C54.509 19.7594 54.6135 19.4559 54.718 19.1523C54.8524 18.7881 55.0464 18.439 55.2853 18.1203C55.5839 17.832 55.9124 17.5892 56.2558 17.3615C56.4051 17.2553 56.5544 17.149 56.6887 17.0428C56.7634 16.9821 56.853 16.9214 56.9425 16.8759C57.6592 16.4054 58.2713 16.2992 58.8088 15.6314C59.3612 14.9485 60.5406 14.5691 61.3021 15.1609C61.5857 15.3886 61.7798 15.6921 61.959 15.9956C62.168 16.3447 62.3919 16.6937 62.601 17.0428C62.9742 17.6499 63.3474 18.2569 63.7207 18.864C64.3328 19.8504 64.93 20.8369 65.5421 21.8234C65.5869 21.8993 65.6317 21.9751 65.6317 22.051V22.0814Z" fill="#FCD9BA"/>
  <path d="M60.8691 19.3648C60.675 20.1691 60.0928 21.0342 59.5852 21.6564C58.7491 22.6429 57.6443 23.0375 56.3902 22.9616C55.9871 22.9313 55.5541 22.8705 55.2107 22.6733C54.9868 21.96 54.7777 21.2467 54.5538 20.5182C54.509 20.3664 54.4642 20.2299 54.4194 20.0781C54.4941 19.7594 54.5986 19.4559 54.7031 19.1523C54.8375 18.7881 55.0316 18.439 55.2704 18.1203C55.3302 18.0445 55.3899 17.9837 55.4496 17.9079C55.6735 17.665 55.9572 17.5133 56.2409 17.3463C56.4797 17.2098 56.7336 17.0732 56.9276 16.891C57.3905 16.4661 58.0922 16.4509 58.7192 16.4661C59.2866 16.4813 59.8838 16.5116 60.3466 16.8607C60.5556 17.0125 60.7049 17.2401 60.8094 17.4678C60.8841 17.6347 60.9288 17.8168 60.9587 17.9989C61.0184 18.439 60.9587 18.8943 60.8542 19.3344L60.8691 19.3648Z" fill="#E6C1A0"/>
  <path d="M61.8394 9.66707C61.6603 8.83236 61.3617 8.05837 61.1377 7.23884C60.7645 5.84261 59.6149 4.46156 58.525 3.55098C58.4205 3.45992 58.316 3.38404 58.2115 3.30815C57.3903 2.73145 56.3303 2.30651 55.3151 2.27616C54.1207 2.24581 52.8367 2.88322 51.8215 3.44474C51.0004 3.88486 50.1942 4.40086 49.5372 5.05344C49.0296 5.56944 48.5967 6.32826 48.522 7.05673C48.4474 7.70931 48.2981 8.45295 48.4623 9.07519C48.6414 9.7733 48.746 10.5169 48.9251 11.2151C49.2834 12.7023 49.7761 14.1441 50.2688 15.5859C50.6271 16.6482 51.0004 17.7257 51.5229 18.7122C52.0604 19.7442 52.8218 20.7458 53.7325 21.4743C54.5985 22.1724 56.1512 22.2787 57.2112 22.1421C58.6295 21.96 59.8239 20.67 60.5256 19.4862C61.6752 17.5284 62.3769 15.085 62.347 12.8238C62.347 12.3685 62.1977 12.0042 62.1231 11.5641C62.0186 10.9874 61.9887 10.3804 61.8842 9.80365C61.8842 9.75812 61.8693 9.7126 61.8544 9.65189L61.8394 9.66707Z" fill="#FCD9BA"/>
  <path d="M59.7195 10.001C59.4507 9.54567 59.1671 9.25732 58.6744 8.86274C57.9727 8.30121 57.1366 7.75486 56.2707 7.93697C55.9571 7.99768 55.6735 8.16462 55.3749 8.25568C54.4194 8.55921 53.5833 8.04321 52.7622 7.63345C51.956 7.23886 51.299 6.54075 50.9557 5.69087C50.9407 5.64534 50.9109 5.59981 50.8661 5.58463C50.8362 5.58463 50.7914 5.59981 50.7616 5.63016C50.3435 6.02475 50.3137 6.67733 50.3137 7.25404C50.3137 7.83074 50.3137 8.46815 49.9703 8.92344C49.6568 9.31803 49.4179 9.50014 49.3432 10.0465C49.2686 10.6687 49.2835 11.3972 48.8207 11.807C48.4325 12.1408 47.8502 12.1105 47.3426 12.0498C47.1635 12.0346 46.9843 12.0043 46.8201 11.9132C46.4319 11.6855 46.4767 11.3061 46.3423 10.9571C46.1632 10.4866 45.8496 10.1679 45.8347 9.62156C45.8347 9.24215 45.9542 8.87791 46.0587 8.51368C46.2229 7.83074 46.2677 7.13263 46.4767 6.44969C46.6857 5.76675 47.059 5.43287 47.5218 4.94722C47.895 4.56781 47.9697 4.02146 48.2235 3.56617C48.5818 2.91359 49.597 2.29135 50.2987 2.16994C50.7466 2.09406 51.1945 2.09406 51.6275 1.9423C52.1053 1.76018 52.5084 1.38077 52.9563 1.15312C54.1656 0.530892 55.5988 0.940655 56.9574 1.01654C57.5845 1.04689 58.2265 1.01654 58.8535 1.07724C59.6299 1.15312 60.4062 1.41112 61.0333 1.86642C61.6753 2.32171 62.153 3.01982 62.3173 3.79382C62.377 4.1277 62.3919 4.46158 62.4815 4.78028C62.6009 5.17487 62.8547 5.49357 63.0787 5.84263C63.4967 6.48004 64.0043 7.28439 64.0342 8.05839C64.0641 8.95379 63.9446 9.83402 63.7057 10.6991C63.5415 11.3365 63.3474 11.9739 63.1235 12.5961C63.0488 12.839 62.9294 13.1121 62.6756 13.1577C62.2277 13.2639 61.8843 12.6417 61.6006 12.3988C61.4065 12.2319 61.1677 12.1257 60.9736 11.9587C60.451 11.5338 60.1674 10.9115 59.8986 10.3045C59.8389 10.1831 59.7941 10.0768 59.7344 9.98579L59.7195 10.001Z" fill="#553A12"/>
  <path d="M60.884 10.9571C61.9888 9.56085 63.1384 11.2151 63.1981 12.414C63.2429 13.1577 63.0488 13.9013 62.8248 14.6298C62.6457 15.252 62.2575 16.1322 61.4513 15.9501C61.1378 15.8742 60.9437 15.6011 60.8093 15.3279C60.2718 14.3111 60.1375 12.8997 60.451 11.7766C60.5406 11.4883 60.6749 11.1999 60.869 10.9571H60.884Z" fill="#FCD9BA"/>
  <path d="M51.1198 11.6855C50.7167 11.8525 50.3435 12.1105 50.0598 12.4899C49.9403 12.6568 49.7911 12.8541 49.7015 13.0362C49.5522 13.3094 49.7761 13.2184 49.8956 13.1273C50.0896 12.9907 50.2539 12.8086 50.4629 12.6872C50.6719 12.5658 50.8959 12.4595 51.1198 12.3837C51.5826 12.2167 52.0753 12.1408 52.568 12.156C52.6128 12.156 52.792 12.1257 52.7472 12.0194C52.5979 11.6704 52.4336 11.6097 52.135 11.5641C51.8514 11.5186 51.5528 11.5641 51.284 11.64C51.2243 11.6552 51.1795 11.6704 51.1347 11.7007L51.1198 11.6855Z" fill="#553A12"/>
  <path d="M56.3305 10.2741C56.7933 10.1831 57.286 10.1983 57.7637 10.35C57.9728 10.4107 58.2116 10.5018 58.4057 10.608C58.6894 10.7446 58.4356 10.8053 58.2714 10.7901C58.0026 10.7901 57.7637 10.7294 57.495 10.7446C57.2263 10.7446 56.9725 10.7901 56.7187 10.8509C56.1961 10.9723 55.6885 11.1847 55.2406 11.4731C55.2107 11.5034 55.0167 11.5641 55.0017 11.4731C54.9569 11.0937 55.0614 10.9419 55.3302 10.7446C55.584 10.5473 55.8677 10.4107 56.1663 10.3349C56.226 10.3197 56.2857 10.3045 56.3454 10.2893L56.3305 10.2741Z" fill="#553A12"/>
  <path d="M52.2992 14.1138C52.2246 13.8406 52.0902 13.5219 51.7916 13.4915C51.6423 13.4764 51.493 13.5371 51.4034 13.6585C51.3736 13.6888 51.3586 13.7344 51.3437 13.7647C51.3288 13.7951 51.3138 13.8254 51.2989 13.8406C51.2243 14.0227 51.2243 14.2352 51.2989 14.4325C51.3288 14.5994 51.3885 14.736 51.5378 14.8422C51.6722 14.9333 51.8662 14.9637 52.0006 14.8726C52.0305 14.8574 52.0603 14.8271 52.0902 14.7967C52.1798 14.736 52.2544 14.6601 52.2992 14.5539C52.3589 14.4173 52.344 14.2655 52.2992 14.129V14.1138Z" fill="#553A12"/>
  <path d="M57.4204 12.5961C57.3457 12.3078 57.2114 11.9739 56.8978 11.9435C56.7485 11.9284 56.5843 11.9891 56.4947 12.1105C56.4649 12.1408 56.4499 12.1864 56.435 12.2319C56.4201 12.2623 56.4051 12.2926 56.3902 12.323C56.3156 12.5202 56.3156 12.7327 56.3902 12.93C56.4201 13.097 56.4798 13.2487 56.6291 13.355C56.7635 13.446 56.9725 13.4764 57.1068 13.3853C57.1367 13.355 57.1666 13.3246 57.1964 13.2942C57.286 13.2335 57.3756 13.1425 57.4054 13.0514C57.4652 12.9148 57.4502 12.7479 57.4054 12.6113L57.4204 12.5961Z" fill="#553A12"/>
  <path d="M53.867 16.026C53.867 15.7528 53.8969 15.4949 53.8969 15.2217C53.8969 14.6601 53.8222 14.0986 53.7028 13.5523C53.5833 13.0211 53.4191 12.4747 53.0309 12.0953C52.9563 12.0195 53.2101 11.9284 53.2847 11.9891C53.6132 12.323 53.7774 12.7783 53.9118 13.2336C54.0611 13.7496 54.1357 14.2959 54.1656 14.8271C54.1656 15.0699 54.1656 15.3279 54.1656 15.5707C54.1656 15.7984 54.1059 16.0412 54.1656 16.2537C54.2402 16.5572 54.4791 16.5724 54.7329 16.5876C55.0017 16.6179 55.2704 16.6331 55.5391 16.6634C55.7183 16.6634 55.5391 16.8304 55.4346 16.8304C55.151 16.8152 54.8673 16.7848 54.5836 16.7545C54.3895 16.7393 54.1507 16.7241 54.0014 16.5724C53.867 16.4358 53.8521 16.2233 53.8521 16.026H53.867Z" fill="#E6C1A0"/>
  <path d="M57.1516 17.3615C57.0471 17.3312 56.9426 17.316 56.9127 17.3312C56.5843 17.4222 56.3155 17.6651 56.0169 17.832C55.5989 18.0748 55.1212 18.1659 54.6434 18.1355C54.509 18.1355 54.3448 18.1052 54.2552 18.2266C54.0163 18.5453 54.718 18.8792 54.942 18.9551C55.3899 19.1068 55.9124 19.0765 56.3305 18.8792C56.644 18.7274 56.9127 18.4846 57.0919 18.1962C57.1964 18.0445 57.2561 17.8624 57.3158 17.6954C57.3905 17.4829 57.3606 17.4526 57.1367 17.3919L57.1516 17.3615Z" fill="#E9B8A2"/>
  <path d="M55.4944 7.43613C54.942 7.40577 54.3896 7.32989 53.9118 7.01119C53.4639 6.72284 53.1355 6.26754 52.8219 5.82743C52.7771 5.76672 52.7025 5.76672 52.6428 5.76672C52.6129 5.76672 52.5084 5.81225 52.5383 5.87296C52.8817 6.34343 53.24 6.82907 53.7327 7.1326C54.2552 7.46648 54.8823 7.54236 55.4944 7.58789C55.5392 7.58789 55.6437 7.57272 55.6437 7.51201C55.6437 7.4513 55.5392 7.43613 55.4944 7.43613V7.43613Z" fill="#412409"/>
  <path d="M56.9575 6.40415C56.9575 6.40415 56.8082 6.35862 56.7634 6.37379C56.1363 6.60144 55.4048 6.51038 54.8673 6.10062C54.8076 6.05509 54.7329 6.05509 54.6732 6.07026C54.6284 6.07026 54.5687 6.13097 54.6284 6.1765C55.2853 6.66214 56.1662 6.78356 56.9276 6.51038C56.9724 6.4952 57.0172 6.44967 56.9724 6.40415H56.9575Z" fill="#412409"/>
  <path d="M61.1678 3.58133C60.8543 3.15639 60.4213 2.71628 59.854 2.80733C59.8092 2.80733 59.7346 2.85286 59.7495 2.91357C59.7794 2.97427 59.8839 2.97427 59.9287 2.97427C60.1526 2.94392 60.3467 3.08051 60.5109 3.2171C60.6901 3.36886 60.8394 3.56615 60.9737 3.76345C61.2574 4.15803 61.4814 4.59815 61.4814 5.09897C61.4814 5.20521 61.765 5.20521 61.765 5.09897C61.765 4.53744 61.4963 4.03662 61.1529 3.59651L61.1678 3.58133Z" fill="#412409"/>
  <path d="M62.4217 24.5855C62.0485 25.0104 61.6304 25.3898 61.2124 25.7693C60.7794 26.1487 60.3017 26.5129 59.8986 26.9227C59.4358 27.378 59.2417 28.0761 58.9879 28.6528C58.6893 29.3509 58.3757 30.049 58.0771 30.7623C58.5848 30.7623 59.0177 30.4132 59.3611 30.0338C59.7493 29.6241 60.0777 29.1839 60.3763 28.7135C60.6003 28.3341 61.0034 28.0305 61.4662 28.2127C61.8693 28.3796 62.0186 28.8804 62.3322 29.1839C62.3769 29.2295 62.4367 29.275 62.4964 29.2902C62.6009 29.3054 62.6905 29.2447 62.7651 29.1839C63.1832 28.8652 63.5564 28.501 63.9147 28.1368C65.2733 26.7557 66.4976 25.2533 67.6024 23.6597C67.7815 23.3866 68.1249 23.0072 68.1697 22.6733C68.2145 22.3697 67.8263 22.1573 67.5875 22.0055C67.05 21.6413 66.4976 21.2619 65.9601 20.8976C65.8108 20.7914 65.6466 20.6852 65.4823 20.6396C65.2435 20.5789 65.0942 20.7307 64.9449 20.9128C64.3925 21.6261 63.8251 22.3546 63.3623 23.1286C63.1831 23.4473 63.004 23.7811 62.8099 24.0847C62.6905 24.2668 62.5561 24.4489 62.4068 24.6007L62.4217 24.5855Z" fill="#DFEDE5"/>
  <path d="M67.9905 22.8402C67.2888 23.7508 66.5721 24.6462 65.8704 25.5568C65.5271 25.9969 65.1687 26.4522 64.8253 26.8923C64.482 27.3324 64.1386 27.7877 63.7653 28.1823C63.407 28.5769 63.0039 28.9108 62.5709 29.2143C62.2126 28.8197 61.8245 28.41 61.4213 28.0609C61.2123 27.894 60.9884 27.7422 60.7346 27.636C60.4509 27.5146 60.1523 27.4235 59.8686 27.3173C59.8089 27.3021 59.7193 27.3021 59.6746 27.3476C59.6298 27.3931 59.6746 27.4387 59.7193 27.4538C59.9881 27.5449 60.2717 27.636 60.5405 27.7574C60.7943 27.8636 61.0033 28.0154 61.2123 28.1975C61.6453 28.5617 62.0335 28.9867 62.4067 29.3964C62.4366 29.4268 62.5112 29.442 62.5859 29.4268C62.6157 29.4268 62.6605 29.4268 62.6755 29.4116C63.0935 29.1233 63.4966 28.8045 63.8549 28.4403C64.2431 28.0457 64.5715 27.6208 64.9149 27.1807C65.6166 26.2701 66.3333 25.3747 67.035 24.4641C67.4381 23.9481 67.8412 23.4321 68.2443 22.9313C68.3339 22.825 68.0651 22.7643 67.9905 22.8554V22.8402Z" fill="#63848F"/>
  <path d="M57.3455 28.2582C57.3455 28.3493 57.3455 28.4403 57.3754 28.5466C57.4948 29.3964 57.7337 30.2463 58.0622 31.0355C57.8233 31.0355 57.6292 30.8382 57.4799 30.6409C56.9126 29.8972 56.6886 28.9563 56.4348 28.0457C56.405 27.9243 56.3602 27.7877 56.2557 27.7118C55.9869 27.5297 55.2852 28.4555 55.1061 28.6528C54.7179 29.0625 54.2999 29.4875 53.7474 29.6696C53.5683 29.7303 53.1801 27.0289 53.1503 26.7709C53.001 25.7086 52.9562 24.631 52.986 23.5535C52.986 23.4928 52.986 23.4169 53.0159 23.3562C53.0457 23.3107 53.0905 23.2652 53.1204 23.2348C53.5683 22.8706 54.0162 22.567 54.5686 22.4153C54.7179 22.3698 54.8821 22.3546 55.0016 22.4153C55.1359 22.4912 55.1956 22.6581 55.2404 22.8099C55.4644 23.5232 55.7182 24.2365 56.0168 24.9194C56.2557 25.4809 56.4945 26.0273 56.9126 26.4977C57.3903 27.0289 57.3008 27.636 57.3306 28.2582H57.3455Z" fill="#DFEDE5"/>
  <path d="M57.0023 27.1503C57.0023 27.1503 56.8679 27.0896 56.8231 27.0896C56.196 27.1655 55.7481 27.6967 55.3301 28.1064C54.8524 28.5617 54.3895 29.017 53.9118 29.4571C53.6281 28.0761 53.3295 26.6799 53.2698 25.2684C53.2549 24.8587 53.2549 24.4337 53.2698 24.024C53.2698 23.9177 52.9861 23.9177 52.9861 24.024C52.8965 25.4809 53.1205 26.9227 53.3892 28.3493C53.4639 28.759 53.5535 29.1688 53.643 29.5785C53.643 29.6241 53.7028 29.6392 53.7475 29.6544C53.7475 29.6848 53.7923 29.7 53.8222 29.7151C53.8819 29.7303 53.9715 29.7303 54.0163 29.6848L55.4943 28.2734C55.7183 28.0609 55.9422 27.8333 56.1811 27.636C56.3901 27.4538 56.629 27.2869 56.8977 27.2566C56.9425 27.2566 57.0172 27.211 57.0023 27.1503V27.1503Z" fill="#63848F"/>
  <path d="M0 95.8539C2.12004 96.8555 4.44909 97.2653 6.76322 97.584C8.30099 97.7813 8.52494 97.8268 8.71903 96.2484C8.88325 94.8522 8.94297 93.4408 9.00269 92.0446C9.16692 88.5237 9.33115 85.0027 9.49538 81.4666C9.71932 76.5039 9.9582 71.5413 9.91341 66.5786C9.88355 62.5568 9.62975 58.3985 7.80831 54.832C7.24097 53.709 6.56913 53.7697 6.27053 54.7562C5.91222 55.9399 5.8525 57.5031 5.58376 58.7627C4.97164 61.7525 4.38937 64.7422 3.8519 67.732C2.79188 73.6356 1.89609 79.5848 1.1496 85.5339C0.716632 88.9638 0.343386 92.4088 0.0149298 95.8539H0Z" fill="#67762E"/>
  <path d="M7.67393 39.9895C5.49417 48.5793 4.85219 57.7914 4.31472 66.6544C3.73245 76.0335 3.62794 85.5035 4.21021 94.8825C6.91251 95.3682 9.48044 96.0208 12.3022 96.2788C15.8107 96.5975 19.3341 96.8403 22.8426 96.9921C21.708 78.4617 21.2452 59.8858 21.4691 41.3099C21.5139 37.4854 21.6781 32.5227 19.0206 29.4419C15.9152 25.8451 12.1081 30.8988 10.4061 33.5395C9.13705 35.5125 8.25619 37.713 7.67393 39.9895V39.9895Z" fill="#67762E"/>
  <path d="M33.0099 21.9296C33.8758 21.3377 34.6671 20.6396 35.3688 19.8504C35.6973 19.4862 35.9511 19.0309 36.2944 18.6666C36.7125 18.2265 37.1156 17.7864 37.4888 17.3008C37.8024 16.891 37.9964 16.4509 38.3249 16.0411C38.5339 15.7831 38.7429 15.5403 38.9072 15.252C39.2953 14.5538 39.3103 13.704 39.2953 12.8996C39.2953 11.989 39.2506 11.0784 39.0266 10.1982C38.5638 8.27081 36.5483 6.57105 34.8761 5.73635C34.5327 5.55424 34.1595 5.40247 33.7862 5.31141C33.0248 5.1293 32.2186 5.19 31.4422 5.25071C28.8445 5.46318 26.1123 6.64694 25.0373 9.22693C24.4551 10.6232 24.3804 12.1863 24.6492 13.6888C24.9179 15.1761 25.5002 16.5875 26.1869 17.923C26.2467 18.0292 26.2915 18.1355 26.3064 18.2569C26.3064 18.3935 26.2616 18.5149 26.2019 18.6363C25.4255 20.3512 24.4103 22.0055 24.2461 23.8873C24.2013 24.3881 24.2162 24.9041 24.4551 25.3443C24.5894 25.6023 24.7985 25.7996 25.0224 25.9817C25.3807 26.27 25.7838 26.5128 26.2317 26.5736C28.1875 26.8771 27.4709 24.0087 29.0833 23.7356C30.4867 23.4927 31.8454 22.7643 33.0248 21.9296H33.0099Z" fill="#B36332"/>
  <path d="M42.6096 74.8801C42.9978 76.1397 43.1023 77.5056 43.1919 78.7956C43.4158 81.9674 43.5203 85.1393 43.5054 88.3112C43.5054 91.3009 42.953 94.2451 42.4603 97.1894C41.3704 103.579 40.1014 109.922 38.6532 116.236C38.4143 117.283 38.1605 118.345 37.5932 119.256C36.4585 121.031 34.0548 121.836 32.099 121.092C31.5615 120.88 31.0241 120.546 30.7703 120.015C30.5911 119.635 30.5612 119.18 30.5463 118.755C30.4269 114.764 30.6807 110.757 30.6658 106.766C30.6658 99.3748 29.77 92.0142 28.6801 84.7144C28.1575 81.2541 26.9482 77.7484 27.4708 74.2123C27.7246 72.467 28.5159 70.7369 29.9342 69.7049C31.0539 68.9006 32.4424 68.6122 33.801 68.506C34.8162 68.4149 35.8763 68.4301 36.8467 68.7791C37.8321 69.1282 38.6681 69.796 39.4445 70.5093C40.5045 71.4957 41.6541 72.6339 42.2662 73.9695C42.4006 74.2578 42.5051 74.5462 42.5947 74.8497L42.6096 74.8801Z" fill="#FCD9BA"/>
  <path d="M39.3698 115.462C39.4892 116.327 39.4743 117.222 39.4743 118.087C39.3996 127.208 38.474 136.299 36.9959 145.283C36.4435 148.607 35.8165 151.931 35.0998 155.224C35.0401 155.497 34.9804 155.77 34.8162 155.983C34.4429 156.468 33.3381 156.043 32.7857 156.043C31.8899 156.028 31.0837 156.484 30.9941 155.254C30.5313 147.924 29.9938 140.624 29.4862 133.309C29.1727 128.832 28.7845 124.37 29.3071 119.893C29.74 116.236 31.1733 111.546 35.5925 111.273C37.0407 111.182 38.3545 112.351 38.9219 113.716C39.1607 114.278 39.2951 114.87 39.3698 115.462Z" fill="#FCD9BA"/>
  <path d="M36.6375 164.998C36.5032 165.347 36.115 165.62 35.8463 165.847C35.4879 166.181 35.1147 166.5 34.7414 166.819C34.6519 166.895 34.5623 166.97 34.4429 166.986C34.3533 166.986 34.2637 166.986 34.1741 166.955C33.3679 166.728 32.5766 166.5 31.7704 166.272C30.6805 165.969 30.0983 165.438 30.158 164.254C30.1729 163.996 30.1878 163.738 30.2028 163.465C30.2924 162.023 30.3819 160.566 30.4715 159.124C30.576 157.637 30.6805 156.134 31.0986 154.708C31.4718 153.403 32.2332 153.114 33.4724 152.856C33.6516 152.826 33.8307 152.78 34.0099 152.811C34.189 152.841 34.3533 152.932 34.4876 153.038C35.055 153.479 35.2341 154.177 35.1147 154.86C34.9654 155.755 35.0848 156.711 35.2341 157.607C35.2789 157.865 35.3237 158.107 35.3834 158.365C35.7268 160.02 36.2643 161.644 36.5778 163.313C36.5778 163.328 36.5778 163.358 36.5778 163.374C36.6674 163.859 36.7868 164.497 36.6077 164.967L36.6375 164.998Z" fill="#FCD9BA"/>
  <path d="M36.6375 164.998C36.5032 165.347 36.115 165.62 35.8463 165.847C35.4879 166.181 35.1147 166.5 34.7414 166.819C34.6519 166.895 34.5623 166.97 34.4429 166.986C34.3533 166.986 34.2637 166.986 34.1741 166.955C33.3679 166.728 32.5766 166.5 31.7704 166.272C30.6805 165.969 30.0983 165.438 30.158 164.254C30.1729 163.996 30.1878 163.738 30.2028 163.465C30.7104 163.495 31.2628 163.692 31.5763 163.783C32.2482 163.981 32.9349 164.117 33.6217 164.148C33.98 164.148 34.3383 164.132 34.6817 164.057C35.3536 163.92 35.9657 163.616 36.5927 163.374C36.6823 163.859 36.8018 164.497 36.6226 164.967L36.6375 164.998Z" fill="#B14B4D"/>
  <path d="M35.294 154.404C35.4731 154.404 35.6224 154.45 35.7269 154.571C35.9359 154.829 35.8016 155.391 35.6523 155.634C35.3238 156.165 34.3534 156.074 33.8159 156.074C33.0097 156.074 32.2184 155.998 31.4271 155.846C31.0539 155.77 30.7702 155.846 30.6359 155.452C30.5313 155.178 30.606 154.784 30.6359 154.495C30.6657 153.919 31.9198 154.344 32.2931 154.389C33.0843 154.465 33.8906 154.48 34.6968 154.45C34.861 154.45 35.0999 154.389 35.3089 154.404H35.294Z" fill="#B14B4D"/>
  <path d="M24.3803 159.109C24.2907 159.746 24.0966 160.354 23.7383 160.885C23.2456 161.613 22.9022 162.493 22.514 163.298C22.6186 163.085 22.4245 162.448 22.4095 162.205C22.3797 161.826 22.3647 161.446 22.3647 161.052C22.3647 160.278 22.4095 159.488 22.514 158.73C22.6783 157.591 22.7828 156.241 23.8279 155.558C23.8727 155.527 23.9174 155.497 23.9772 155.512C24.0518 155.512 24.0817 155.588 24.1115 155.664C24.5445 156.605 24.5296 157.683 24.44 158.714C24.44 158.851 24.4101 158.988 24.3952 159.124L24.3803 159.109Z" fill="#FFF4E4"/>
  <path d="M29.1131 74.6979C28.919 73.5294 28.6951 72.3456 28.1128 71.3288C25.8285 67.3829 19.0355 67.4284 16.7661 71.2984C15.1388 74.0605 15.4971 77.6877 15.4672 80.981C15.3627 90.0109 17.0797 98.449 19.3191 107.145C20.2597 110.833 21.2152 114.521 22.1558 118.209C22.3947 119.165 22.6783 120.166 23.4099 120.819C24.1564 121.487 25.2015 121.623 26.1869 121.654C27.8291 121.699 29.5909 121.441 30.8151 120.333C32.338 118.952 32.6365 116.676 32.7411 114.612C33.3383 101.348 31.3675 87.7648 29.128 74.7131L29.1131 74.6979Z" fill="#FCD9BA"/>
  <path d="M21.5736 121.73C21.3198 122.61 21.0809 123.49 20.8868 124.386C20.1403 127.861 19.8567 131.427 19.6178 134.963C19.3043 139.456 19.0206 143.963 19.2147 148.455C19.3043 150.55 19.7671 152.72 19.7372 154.799C19.7074 156.317 19.6029 158.001 21.2451 158.715C22.4395 159.231 23.3204 158.457 23.5742 157.303C24.2759 154.025 24.9776 150.732 25.6793 147.454C26.8438 141.99 28.0084 136.527 29.4416 131.139C30.1433 128.483 31.1436 125.873 31.8005 123.217C32.0394 122.215 32.0842 121.198 32.338 120.182C32.6665 118.876 32.98 117.556 32.98 116.205C32.98 115.143 32.6515 113.914 31.6811 113.519C30.0836 112.851 29.4118 111.349 27.2917 111.698C25.754 111.956 24.1565 113.322 23.7235 114.87C23.0815 117.177 22.2604 119.423 21.5885 121.714L21.5736 121.73Z" fill="#FCD9BA"/>
  <path d="M16.5273 164.39C16.602 164.755 16.9454 165.089 17.1693 165.362C17.4829 165.741 17.7815 166.121 18.095 166.515C18.1696 166.606 18.2443 166.697 18.3637 166.728C18.4533 166.758 18.5429 166.743 18.6325 166.728C19.4536 166.637 20.2897 166.546 21.1108 166.47C22.2305 166.348 22.9024 165.938 23.0218 164.755C23.0517 164.497 23.0815 164.239 23.1114 163.981C23.2607 162.539 23.41 161.097 23.5593 159.655C23.7086 158.183 23.843 156.681 23.6638 155.194C23.4996 153.843 22.7979 153.433 21.6184 152.978C21.4542 152.917 21.275 152.841 21.0959 152.841C20.9167 152.841 20.7376 152.902 20.5883 152.978C19.9612 153.312 19.6626 153.979 19.6626 154.662C19.6626 155.573 19.3939 156.499 19.0953 157.349C19.0057 157.591 18.9161 157.834 18.8265 158.062C18.2144 159.64 17.4231 161.143 16.8409 162.736V162.797C16.6468 163.267 16.4228 163.874 16.5273 164.36V164.39Z" fill="#FCD9BA"/>
  <path d="M16.5273 164.39C16.6019 164.755 16.9453 165.089 17.1693 165.362C17.4828 165.741 17.7814 166.121 18.0949 166.515C18.1696 166.606 18.2442 166.697 18.3637 166.728C18.4532 166.758 18.5428 166.743 18.6324 166.728C19.4535 166.637 20.2896 166.546 21.1107 166.47C22.2305 166.348 22.9023 165.938 23.0218 164.755C23.0516 164.497 23.0815 164.239 23.1113 163.981C22.6037 163.935 22.0364 164.026 21.7079 164.072C21.0212 164.148 20.3045 164.178 19.6327 164.072C19.2744 164.026 18.931 163.935 18.6025 163.799C17.9755 163.556 17.4081 163.146 16.8259 162.797C16.6617 163.267 16.4377 163.874 16.5273 164.36V164.39Z" fill="#B14B4D"/>
  <path d="M19.7821 153.752C19.6179 153.721 19.4387 153.752 19.3193 153.843C19.0655 154.055 19.1103 154.647 19.2297 154.905C19.4686 155.482 20.439 155.558 20.9765 155.664C21.7678 155.801 22.574 155.861 23.3653 155.846C23.7535 155.846 24.0222 155.937 24.2163 155.588C24.3656 155.33 24.3507 154.936 24.3805 154.647C24.4402 154.086 23.1413 154.283 22.7681 154.253C21.9619 154.192 21.1706 154.071 20.3942 153.904C20.23 153.873 20.0061 153.782 19.7971 153.752H19.7821Z" fill="#B14B4D"/>
  <path d="M32.771 107.631C32.5769 104.808 32.3679 102 32.1738 99.1775C31.9499 96.0208 31.7259 92.8641 31.502 89.7226C31.502 89.6164 31.2034 89.6164 31.2183 89.7226C31.6214 95.3227 32.0245 100.923 32.4276 106.538C32.6217 109.346 32.8158 112.153 32.6217 114.976C32.4276 117.708 31.9648 120.424 31.4423 123.111C30.8451 126.176 30.1434 129.212 29.3372 132.217C29.3073 132.338 29.591 132.353 29.6208 132.262C30.3375 129.606 30.9645 126.935 31.5169 124.249C32.0693 121.532 32.5769 118.801 32.8307 116.038C33.0995 113.231 32.995 110.438 32.8009 107.631H32.771Z" fill="#E6C1A0"/>
  <path d="M38.937 61.8132C35.5032 62.314 32.0245 62.572 28.5608 62.6024C27.1275 62.6024 25.7689 62.6479 24.3506 62.7996C23.3503 62.9059 21.8722 63.1487 21.066 62.2988C19.0206 60.1741 18.2293 56.9871 17.5276 53.967C16.4079 49.0802 15.2732 44.2086 14.1535 39.3218C13.6608 37.2122 13.183 35.042 13.4518 32.887C13.7355 30.6105 14.9 28.85 16.811 28.0457C18.7967 27.211 20.9316 27.3172 22.9173 26.5432C23.7982 26.1942 24.6044 25.6326 25.5151 25.3291C26.59 24.9801 27.7247 24.9952 28.8295 25.0104C29.6059 25.0104 30.3822 25.0408 31.1287 25.2229C32.0394 25.4505 32.8904 25.9058 33.7713 26.27C34.8313 26.7102 35.9361 26.9985 37.0559 27.1351C38.8325 27.3476 40.848 27.2565 42.132 28.6224C43.4906 30.049 43.1771 32.4165 43.0726 34.3135C42.8188 38.4112 42.8486 42.5543 42.4903 46.6823C42.1171 51.0228 41.5796 55.348 40.9078 59.643C40.8032 60.3411 40.639 61.1302 40.0866 61.4945C39.8328 61.6614 39.5193 61.7221 39.2207 61.7676C39.146 61.7676 39.0565 61.798 38.9818 61.798L38.937 61.8132Z" fill="#FCD9BA"/>
  <path d="M35.1896 21.1253C35.1896 21.2467 35.1597 21.3529 35.1448 21.4591C35.1299 21.5805 35.115 21.702 35.1 21.8234C34.9955 22.567 34.8313 23.3107 34.6671 24.0391C34.6372 24.1757 34.6073 24.3123 34.5775 24.4489C34.4282 25.1318 34.2938 25.7996 34.2042 26.4825C34.0848 27.3172 34.0549 28.1519 34.1445 29.0018C34.1445 29.0929 34.1594 29.1839 34.1147 29.2598C33.8907 29.6544 32.1887 29.3964 31.7856 29.3205C30.6957 29.1232 29.6058 28.8956 28.5309 28.6527C27.8591 28.501 27.1872 28.3492 26.5154 28.1975C26.1421 28.1064 25.0373 28.0305 24.903 27.6815C24.7537 27.302 25.2314 26.1335 25.321 25.7237C25.4703 25.0408 25.6196 24.3427 25.7689 23.6597C26.0675 22.2787 26.381 20.8976 26.6796 19.5166C26.9483 18.2873 27.665 18.7577 28.5458 18.8488L32.8755 19.3648C34.04 19.5014 35.324 19.4862 35.1747 21.1101L35.1896 21.1253Z" fill="#FCD9BA"/>
  <path d="M35.1449 21.4592C35.13 21.5806 35.115 21.702 35.1001 21.8234C34.9956 22.567 34.8314 23.3107 34.6672 24.0391C33.9356 24.8739 32.7711 25.4354 31.8006 25.5416C30.3226 25.6934 28.8744 24.8587 28.0831 23.599C27.8741 23.2652 27.6501 22.7947 27.5008 22.3242C27.3814 21.9296 27.3366 21.5199 27.4113 21.186C27.5605 20.503 28.3518 20.3209 28.9192 20.1236C29.7254 19.8353 30.651 19.8505 31.4871 19.9871C32.4426 20.1388 33.3533 20.4575 34.264 20.7762C34.5029 20.8673 34.7567 20.9432 34.9359 21.1253C35.0255 21.2163 35.1001 21.3377 35.1598 21.4592H35.1449Z" fill="#E6C1A0"/>
  <path d="M26.4558 19.1068C26.829 20.5789 27.471 22.0055 28.4713 23.1589C29.4865 24.3123 31.5618 25.1622 33.0697 24.5096C34.1297 24.0391 34.9807 23.4321 35.6824 22.4608C35.9213 22.1269 36.1303 21.7627 36.3393 21.3984C37.3695 19.5773 37.907 17.7864 38.3399 15.7376C38.6983 14.0075 38.549 12.5809 37.6084 11.0785C36.832 9.83401 35.9064 8.55919 34.5776 7.96731C33.9655 7.69413 33.2937 7.60308 32.6367 7.54237C32.0097 7.48167 31.3677 7.46649 30.7705 7.61825C30.2032 7.77002 29.6806 8.05837 29.188 8.37707C28.3817 8.90825 27.6502 9.57601 27.1127 10.3804C26.2766 11.6552 26.2468 13.0818 26.0975 14.5387C25.9332 16.0715 26.0825 17.6043 26.4558 19.1068Z" fill="#FCD9BA"/>
  <path d="M35.8166 10.2589C36.1749 10.5169 36.4884 10.8053 36.7124 11.124C37.0558 11.5944 37.3544 12.0953 37.5335 12.6416C37.9665 13.9771 37.8471 15.5707 37.8769 16.9517C37.9964 16.9972 38.1158 16.8607 38.1755 16.7392C39.1758 14.5994 39.1609 11.9587 38.1755 9.80363C37.9366 9.28764 37.638 9.13587 37.2051 8.83234C36.7423 8.49846 36.2944 8.17976 35.8017 7.89141C35.1746 7.52717 34.5326 7.14776 33.8459 6.93529C33.189 6.738 32.4872 6.69247 31.8005 6.64694C31.1286 6.60141 30.4419 6.57106 29.8148 6.79871C28.9787 7.11741 28.4114 7.84588 27.9187 8.57434C27.6948 8.9234 27.3812 9.10552 27.1424 9.4394C26.9632 9.6974 26.8736 10.0009 26.7243 10.2741C26.575 10.5625 26.3362 10.7749 26.157 11.0481C25.3508 12.2319 24.8432 13.6129 24.6939 15.0395C24.664 15.4037 24.4998 15.9804 24.6939 16.3143C25.1268 16.9669 25.4105 15.8438 25.5598 15.5858C26.1719 14.5387 27.1125 13.7343 27.9187 12.8541C28.7996 11.8828 29.6357 10.8356 30.3971 9.7581C30.4717 9.65187 30.5464 9.56081 30.6509 9.50011C30.7405 9.45458 30.845 9.45458 30.9495 9.45458C31.8005 9.45458 32.6515 9.45458 33.5025 9.45458C34.234 9.45458 35.085 9.78846 35.7718 10.2741L35.8166 10.2589Z" fill="#B36332"/>
  <path d="M26.4706 14.8877C26.4706 14.8877 26.3512 14.7663 26.2915 14.7208C26.0377 14.5387 25.7241 14.4325 25.4106 14.4932C24.9329 14.5842 24.6044 15.0547 24.4999 15.5403C24.2759 16.6179 24.7686 17.9079 25.5301 18.6515C25.8137 18.9398 26.2318 19.1827 26.605 19.0157C26.8737 18.8943 27.0081 18.606 27.0678 18.3176C27.2619 17.4222 27.2321 16.3143 26.8588 15.4645C26.7692 15.252 26.6349 15.0547 26.4856 14.8877H26.4706Z" fill="#FCD9BA"/>
  <path d="M33.428 15.9046C33.428 15.9046 33.413 15.9046 33.3981 15.9046C33.1592 15.9046 33.1592 16.5268 33.1592 16.6785C33.1592 17.0124 33.1741 17.3463 33.2488 17.665C33.3384 18.0748 33.5175 18.4542 33.6071 18.8639C33.7265 19.3648 33.0995 19.5924 32.7113 19.6683C32.5023 19.7138 32.6516 19.8656 32.8009 19.8352C33.1592 19.7594 33.622 19.6076 33.846 19.2889C33.9505 19.1219 33.9356 18.9398 33.8908 18.7577C33.8161 18.5301 33.7265 18.3024 33.6668 18.0748C33.5623 17.7409 33.4877 17.3918 33.4727 17.0276C33.4727 16.8455 33.4727 16.6634 33.4727 16.4813C33.4877 16.3295 33.5773 16.1018 33.5026 15.9653C33.4877 15.9349 33.4429 15.9046 33.413 15.8894L33.428 15.9046Z" fill="#E6C1A0"/>
  <path d="M37.2946 16.0411C37.2946 16.0411 37.3095 16.0715 37.3244 16.0866C37.3394 16.1018 37.3991 16.2081 37.429 16.1777C37.4588 16.1625 37.4588 16.117 37.4588 16.0866C37.4439 15.8894 37.3543 15.7224 37.2647 15.5706C37.0557 15.2216 36.8168 14.9484 36.4884 14.7511C36.0853 14.5083 35.6523 14.3717 35.2044 14.2655C34.9655 14.2048 34.4281 14.0834 34.4729 14.5538C34.4729 14.7056 34.6371 14.7967 34.7714 14.8422C34.9357 14.9029 35.1148 14.9332 35.294 14.9484C35.5478 14.9636 35.8016 14.9484 36.0405 15.0091C36.2943 15.0698 36.5182 15.2064 36.7123 15.3582C36.8766 15.4948 37.0109 15.6465 37.1453 15.8135C37.205 15.8894 37.2498 15.9652 37.3095 16.0411H37.2946Z" fill="#B36332"/>
  <path d="M28.3069 14.7512C28.4263 14.3869 29.0832 14.0834 29.4117 13.9468C30.1134 13.6433 30.9196 13.5674 31.6512 13.7799C31.9348 13.8558 32.2036 14.2048 31.8453 14.4173C31.7407 14.478 31.6213 14.4932 31.5019 14.4932C31.2182 14.4932 30.9345 14.4932 30.6658 14.4173C30.2926 14.3414 29.9044 14.2048 29.5311 14.2655C29.2923 14.3111 29.0832 14.4173 28.8892 14.5235C28.7399 14.5994 28.486 14.7967 28.3218 14.7512H28.3069Z" fill="#B36332"/>
  <path d="M31.0987 15.4796C31.0091 15.3582 30.8449 15.3582 30.7254 15.4037C30.606 15.4189 30.5015 15.4948 30.4418 15.5858C30.3373 15.7224 30.2925 15.8894 30.2925 16.0563C30.2925 16.2081 30.3223 16.3598 30.397 16.4964C30.4866 16.6482 30.6657 16.6937 30.83 16.6634C30.83 16.6634 30.83 16.6634 30.8598 16.6634C30.8897 16.6634 30.9046 16.6482 30.9345 16.633C30.9494 16.633 30.9643 16.633 30.9793 16.6178C31.0091 16.6027 31.039 16.5875 31.0688 16.5571C31.2032 16.4357 31.248 16.2384 31.2629 16.0563C31.2629 15.9501 31.2629 15.8438 31.2181 15.7376C31.2032 15.6465 31.1584 15.5555 31.1136 15.4948L31.0987 15.4796Z" fill="#1A8B93"/>
  <path d="M36.1152 16.2536C36.0406 16.1322 35.8764 16.1019 35.742 16.1474C35.6226 16.1474 35.5181 16.2081 35.4285 16.284C35.309 16.4054 35.2493 16.5723 35.2344 16.7241C35.2195 16.8759 35.2344 17.0276 35.2941 17.1794C35.3688 17.3463 35.533 17.407 35.6972 17.3919C35.6972 17.3919 35.7121 17.3919 35.7271 17.3919C35.7569 17.3919 35.7719 17.3918 35.8017 17.3767C35.8167 17.3767 35.8316 17.3767 35.8465 17.3615C35.8764 17.3615 35.9212 17.3311 35.951 17.316C36.1003 17.2097 36.175 17.0124 36.2048 16.8455C36.2048 16.7393 36.2048 16.633 36.2048 16.5268C36.2048 16.4357 36.175 16.3447 36.1302 16.2688L36.1152 16.2536Z" fill="#1A8B93"/>
  <path d="M33.4428 20.6548C33.3383 20.6396 33.2039 20.6548 33.0695 20.7003C32.7411 20.8065 32.3678 20.8065 32.0543 20.6699C31.8304 20.5789 31.6363 20.4271 31.4123 20.3664C31.0092 20.2602 30.6658 20.5333 30.9047 20.9431C31.3825 21.7626 32.8605 21.9144 33.5025 21.2618C33.816 20.9431 33.7115 20.7155 33.4577 20.6699L33.4428 20.6548Z" fill="#E9B8A2"/>
  <path d="M22.8726 88.3112C23.9625 88.6906 25.0524 89.07 26.1422 89.4494C27.1425 89.7985 27.9488 89.8136 28.9938 89.844C31.293 89.9199 33.5773 89.7681 35.8765 89.7681C37.8472 89.7681 39.818 89.8288 41.7887 89.7681C42.4755 89.7529 43.1772 89.7226 43.8938 89.7681C43.849 89.4949 43.8192 89.2369 43.8042 89.0548C43.6549 86.3079 43.5206 83.561 43.3713 80.814C43.0428 74.4248 42.0425 68.0355 41.5797 61.6311C41.4005 59.2787 41.2662 56.9264 40.7735 54.6196C40.5197 53.3903 38.3847 54.0125 37.4292 54.0277C35.9064 54.058 34.3984 54.1036 32.8756 54.1643C31.2781 54.225 29.6806 54.2857 28.0981 54.4981C27.5457 54.574 26.9932 54.6651 26.4408 54.7713C25.0076 55.0749 23.6042 55.5301 22.2008 56.0006C21.7081 56.1675 21.2005 56.3345 20.7824 56.6228C19.394 57.6093 18.8117 59.6885 18.0204 61.1302C17.0052 62.9818 16.3035 64.985 15.7511 67.0187C13.7057 74.6524 13.422 82.7566 14.9299 90.5269C16.4379 90.3448 17.6621 90.4662 18.8714 89.3583C19.3641 88.903 19.7821 88.3112 20.4092 88.0683C21.1706 87.7648 22.0067 88.038 22.783 88.296C22.8129 88.296 22.8278 88.3112 22.8577 88.3263L22.8726 88.3112Z" fill="#FFF4E4"/>
  <path d="M39.2506 36.3168C36.9216 36.2409 34.6373 35.816 32.368 35.3455C30.1136 34.875 27.7995 34.3894 25.6794 33.4788C23.8878 32.72 22.2605 31.6576 20.7526 30.4132C19.8269 29.6544 18.7968 28.7134 18.2742 27.5752C17.7815 27.6966 17.2888 27.8332 16.7962 28.0457C14.8851 28.85 13.7206 30.6257 13.437 32.8869C13.1682 35.042 13.6609 37.2122 14.1387 39.3217C15.2584 44.2085 16.3931 49.0802 17.5128 53.967C18.2145 56.9871 18.9909 60.1741 21.0512 62.2988C21.8574 63.1335 23.3354 62.8907 24.3357 62.7996C25.7541 62.6479 27.1127 62.6175 28.5459 62.6023C32.0097 62.572 35.4883 62.314 38.9222 61.8132C38.9968 61.8132 39.0864 61.7828 39.1611 61.7828C39.4597 61.7373 39.7732 61.6917 40.027 61.5096C40.5794 61.1454 40.7436 60.3562 40.8481 59.6581C41.5349 55.3632 42.0575 51.0379 42.4307 46.6975C42.7293 43.2676 42.7592 39.8225 42.9085 36.4079C41.6842 36.3623 40.46 36.3623 39.2357 36.3168H39.2506Z" fill="#FFF4E4"/>
  <path d="M29.5612 62.7845C33.1294 62.2836 36.6976 61.798 40.2808 61.2972C41.1019 61.1758 40.7884 60.2196 40.8033 59.5974C40.8332 58.6716 41.0273 58.0342 39.9523 58.0191C33.846 57.9584 27.7546 57.5941 21.6782 56.9264C20.454 56.7898 19.1849 56.6532 18.0055 56.9719C17.0201 57.2299 16.184 57.8825 15.7511 58.8234C15.1539 60.0679 14.4223 62.3747 15.9601 63.2549C16.5125 63.5736 17.1545 63.6343 17.7815 63.6647C21.6483 63.8771 25.5152 63.346 29.3521 62.8148C29.4268 62.8148 29.5014 62.7996 29.5761 62.7845H29.5612Z" fill="#FCD9BA"/>
  <path d="M18.095 29.0018C17.9606 28.6528 17.7068 28.1975 17.3187 28.0609C16.9156 27.9243 16.3333 28.1823 15.9451 28.3341C14.5268 28.8652 13.407 30.1097 12.7501 31.4604C12.1231 32.7352 11.8394 34.1618 11.7797 35.5884C11.7349 36.5293 11.7797 37.4551 11.8096 38.396C12.0335 44.0872 12.2574 49.7328 12.8248 55.4088C13.0189 57.3817 13.2279 59.385 14.0042 61.2062C14.2879 61.8739 14.6761 62.5569 15.2434 63.0121C15.8555 63.4978 16.8409 63.4371 17.5874 63.4523C18.0502 63.4523 18.513 63.4674 18.946 63.3157C19.588 63.0728 20.0508 62.4961 20.2897 61.8436C20.6182 60.9633 20.4539 60.0679 20.3643 59.1422C20.2748 58.1709 20.1703 57.1844 20.0658 56.2131C19.8418 54.2857 19.5731 52.3735 19.3043 50.4613C18.9609 47.9723 18.6176 45.4682 18.2742 42.9793C18.0353 41.2188 17.7815 39.4432 17.8561 37.6524C17.9606 34.7082 19.2745 31.9157 18.1099 29.0018H18.095Z" fill="#FCD9BA"/>
  <path d="M38.2054 11.4882C38.0412 10.8053 37.7725 10.1224 37.4141 9.5153C37.2499 9.24212 37.0409 8.96895 36.7871 8.77165C36.5333 8.57436 36.2496 8.43777 35.951 8.34671C35.309 8.14942 34.6372 8.14942 33.9803 8.19495C33.1293 8.25566 32.2783 8.39224 31.4571 8.63507C31.4123 8.63507 31.3676 8.69577 31.4124 8.7413C31.4571 8.78683 31.5467 8.78683 31.6064 8.77165C32.3081 8.57436 33.0248 8.43777 33.7414 8.37707C34.3685 8.31636 35.0254 8.30119 35.6375 8.43777C35.9212 8.49848 36.2048 8.61989 36.4437 8.78683C36.6975 8.96895 36.9065 9.21177 37.0857 9.46977C37.444 10.0313 37.6978 10.6687 37.877 11.3061C38.086 12.0649 38.1756 12.8389 38.1457 13.6281C38.1457 13.7343 38.4294 13.7343 38.4294 13.6281C38.4592 12.8996 38.3697 12.1863 38.2054 11.4882V11.4882Z" fill="#98491F"/>
  <path d="M33.2486 6.69247C32.5171 6.5407 31.7407 6.70764 31.1435 7.16293C31.0838 7.20846 31.1435 7.25399 31.1883 7.26917C31.248 7.29952 31.3376 7.26917 31.3824 7.23882C31.89 6.84423 32.5469 6.70764 33.174 6.84423C33.2188 6.84423 33.3233 6.84423 33.3532 6.78352C33.383 6.72282 33.2934 6.69247 33.2486 6.67729V6.69247Z" fill="#98491F"/>
  <path d="M28.5756 9.84915C28.1277 10.8356 27.4708 11.6855 26.6347 12.3533C26.575 12.3988 26.6347 12.4443 26.6795 12.4595C26.7393 12.4747 26.8288 12.4595 26.8736 12.4291C27.7097 11.7462 28.3965 10.866 28.8444 9.87951C28.8892 9.77327 28.6055 9.74292 28.5607 9.83398L28.5756 9.84915Z" fill="#98491F"/>
  <path d="M35.7273 87.2033C33.9656 86.9908 32.2039 86.7632 30.4571 86.4597C28.7103 86.1561 26.9934 85.7616 25.3063 85.2152C24.3657 84.8965 23.4401 84.5323 22.5592 84.1073C22.4995 84.077 22.4099 84.077 22.3502 84.1073C22.3054 84.1377 22.2905 84.1984 22.3502 84.2136C23.9626 84.9876 25.6497 85.5491 27.3815 85.9892C29.1283 86.4293 30.89 86.7177 32.6667 86.9757C33.667 87.1123 34.6524 87.2337 35.6527 87.3703C35.7124 87.3703 35.802 87.3703 35.8318 87.3096C35.8617 87.2488 35.7721 87.2185 35.7273 87.2033Z" fill="#C3B8A8"/>
  <path d="M31.8902 82.7718C30.7257 82.62 29.5612 82.4076 28.4265 82.0889C28.098 81.9978 27.7696 81.9068 27.456 81.8005C27.3963 81.7853 27.3067 81.7853 27.262 81.8309C27.2172 81.8764 27.262 81.9219 27.3068 81.9371C28.4563 82.3013 29.6209 82.5745 30.8153 82.7718C31.1437 82.8325 31.4871 82.878 31.8156 82.9236C31.8753 82.9236 31.9649 82.9236 31.9947 82.8629C32.0246 82.8022 31.935 82.7718 31.8902 82.7566V82.7718Z" fill="#C3B8A8"/>
  <path d="M36.4885 67.7775C35.1747 67.8231 33.8609 67.7927 32.5471 67.6713C31.2332 67.5499 29.9343 67.3374 28.6504 67.0491C27.9188 66.8821 27.2022 66.6848 26.5005 66.4724C26.4408 66.4572 26.3512 66.4572 26.3064 66.5027C26.2616 66.5482 26.3064 66.5938 26.3512 66.609C27.6202 67.0035 28.9191 67.3071 30.2329 67.5347C31.5468 67.7624 32.8755 67.8989 34.2043 67.9445C34.9657 67.9748 35.7122 67.9748 36.4736 67.9445C36.5184 67.9445 36.6229 67.9293 36.6229 67.8686C36.6229 67.8079 36.5184 67.7927 36.4736 67.7927L36.4885 67.7775Z" fill="#C3B8A8"/>
  <path d="M19.1402 83.561C19.1402 83.561 19.0058 83.5154 18.9461 83.5306C17.7666 83.8342 16.632 84.2743 15.5421 84.8206C15.4824 84.851 15.4973 84.9117 15.5421 84.9269C15.6018 84.9572 15.6914 84.9572 15.7511 84.9269C16.8111 84.3805 17.9308 83.9556 19.0954 83.652C19.1402 83.652 19.185 83.5913 19.1402 83.5458V83.561Z" fill="#C3B8A8"/>
  <path d="M15.6315 52.7832C15.9152 52.7377 16.8408 52.7528 16.9155 52.4038C17.0499 51.8271 15.7062 51.7967 15.3926 51.7816C15.109 51.7816 14.6163 51.645 14.676 51.2504C14.7208 50.9772 15.0642 50.9013 15.3329 50.871C15.6763 50.8406 16.0346 50.8254 16.378 50.8254C16.602 50.8254 16.8408 50.8254 17.0648 50.8558C17.6769 50.9317 18.2144 51.2504 18.7519 51.5539C19.1699 51.7967 19.6029 51.9788 20.006 52.2217C20.5285 52.5252 20.9017 52.935 21.3347 53.3447C21.3795 53.3903 21.4392 53.4358 21.4989 53.4813C21.6333 53.6027 21.7826 53.7241 21.8573 53.8607C22.1409 54.3312 22.0812 55.1507 22.0066 55.6667C21.9618 56.0006 21.8722 56.3345 21.693 56.6228C21.3496 57.1692 20.7077 57.5334 20.0358 57.7307C19.6327 57.8521 19.2147 57.8976 18.7966 57.9432C18.3786 57.9887 17.9307 58.0646 17.4977 58.0646C16.7065 58.0646 15.9152 58.3529 15.109 58.3985C14.3476 58.444 13.5712 58.3681 12.8844 58.0342C12.7799 57.9887 12.6605 57.9128 12.6008 57.8066C12.541 57.7004 12.556 57.5486 12.6306 57.4575C12.8546 57.1692 13.5115 57.3816 13.8101 57.412C14.2281 57.4575 14.6611 57.4575 15.0791 57.412C15.2583 57.3968 15.4374 57.3665 15.6017 57.2906C15.7808 57.2147 15.8704 57.1692 15.8256 56.9719C15.8107 56.896 15.0493 57.0781 14.9746 57.0933C14.6014 57.154 14.2281 57.1692 13.8399 57.154C12.9889 57.1236 11.7647 57.0174 11.2123 56.2738C10.9734 55.9399 11.1078 55.606 11.5407 55.606C11.7348 55.606 11.8692 55.6667 12.0334 55.7274C12.2275 55.8033 12.4664 55.8185 12.6754 55.8488C13.0934 55.9095 13.5115 55.9399 13.9295 55.9399C14.258 55.9399 14.5864 55.9095 14.9149 55.864C15.0194 55.864 15.736 55.8033 15.5867 55.5757C15.527 55.4846 15.3031 55.5757 15.2284 55.5757C14.9746 55.5757 14.7208 55.5757 14.467 55.5757C13.9594 55.5757 13.4667 55.5453 12.9591 55.4998C12.2424 55.4391 11.5258 55.3177 10.8988 54.9686C10.7793 54.8927 10.645 54.8168 10.5554 54.6954C10.4658 54.574 10.421 54.4223 10.4509 54.2857C10.4957 54.0884 10.7047 53.9518 10.8988 53.9214C11.1078 53.8911 11.3019 53.9518 11.496 54.0125C12.1379 54.2098 12.7501 54.3615 13.4219 54.4223C13.9444 54.483 14.4968 54.483 15.0194 54.3615C15.109 54.3464 15.6166 54.2553 15.4673 54.058C15.4374 54.0277 15.3628 54.0277 15.318 54.0277C14.8701 53.9366 14.3923 54.0277 13.9444 53.9973C13.392 53.9518 12.8546 53.8759 12.3022 53.7697C12.0334 53.709 11.7647 53.6483 11.5407 53.4965C11.3168 53.3599 10.9137 52.8894 11.2869 52.677C11.3765 52.6314 11.4661 52.6163 11.5706 52.6163C11.9588 52.6163 12.347 52.7073 12.7351 52.768C13.6757 52.935 14.6461 52.935 15.6017 52.7984L15.6315 52.7832Z" fill="#FCD9BA"/>
  <path d="M26.4855 53.0413C26.9931 52.9957 27.5156 52.935 28.0232 52.8895C33.1292 52.3887 38.2352 51.8879 43.3412 51.3415C45.2672 51.129 48.716 50.5827 49.8656 52.6011C50.4777 53.6787 50.5673 55.0901 50.2388 56.2587C49.8357 57.7156 49.0743 58.1102 47.6112 58.2923C45.0731 58.6262 42.5052 58.5958 39.9522 58.5655C33.6966 58.4896 27.3962 58.3985 21.2451 57.2148C19.8566 56.9568 19.5431 54.4678 20.618 53.6787C21.3794 53.1323 23.4398 53.3144 24.3654 53.2234C25.0671 53.1475 25.7688 53.0868 26.4855 53.0109V53.0413Z" fill="#FCD9BA"/>
  <path d="M41.8482 58.5199C40.4896 58.4895 39.131 58.4895 37.7724 58.4744C36.4138 58.4744 35.0701 58.444 33.7115 58.4288C32.3529 58.3985 30.9943 58.3529 29.6356 58.2771C28.277 58.2012 26.9333 58.0798 25.5896 57.928C24.246 57.7611 22.9023 57.5486 21.5885 57.2754C21.4242 57.2451 21.26 57.1995 21.0958 57.1692C21.036 57.1692 20.9763 57.2147 21.036 57.2451C19.0504 57.9432 16.9602 58.3681 14.87 58.4592C14.3176 58.4895 13.7354 58.4592 13.2128 58.2315C13.183 58.2315 13.1382 58.2164 13.1083 58.2315C13.0934 58.2467 13.0784 58.2771 13.1083 58.2922C13.5711 58.5047 14.0787 58.5654 14.5714 58.5502C15.094 58.5502 15.6314 58.4895 16.154 58.444C17.2289 58.3226 18.3039 58.1253 19.349 57.8521C19.9611 57.7004 20.5583 57.5182 21.1406 57.3058C21.1406 57.3058 21.1555 57.3058 21.1704 57.2906C22.4544 57.579 23.7384 57.7914 25.0372 57.9584C26.3809 58.1405 27.7246 58.2619 29.0832 58.3529C30.4418 58.444 31.8005 58.4895 33.1442 58.5351C34.5028 58.5654 35.8614 58.5806 37.22 58.5958C38.5786 58.5958 39.9522 58.6109 41.3108 58.6413C41.475 58.6413 41.6392 58.6413 41.8184 58.6413C41.908 58.6413 41.908 58.5654 41.8184 58.5654L41.8482 58.5199Z" fill="#E6C1A0"/>
  <path d="M15.6314 56.8809C15.1686 56.9567 14.7057 57.063 14.2429 57.1085C13.9742 57.1389 13.7054 57.1389 13.4367 57.1085C13.3173 57.1085 13.2128 57.063 13.0933 57.0478C13.0187 57.0478 12.9291 57.0478 12.8843 57.1085C12.8395 57.1692 12.9739 57.1844 13.0037 57.154C13.0485 57.1085 13.1829 57.154 13.2277 57.154C13.3322 57.1692 13.4367 57.1844 13.5263 57.1844C13.7204 57.1844 13.8995 57.1844 14.0936 57.1844C14.4818 57.154 14.855 57.0933 15.2432 57.0326C15.3328 57.0174 15.4224 57.0023 15.512 56.9871C15.5567 56.9871 15.6015 56.9719 15.6463 56.9567C15.6463 56.9567 15.6911 56.9567 15.706 56.9567C15.7508 56.9567 15.7658 56.9871 15.7508 57.0478C15.706 57.1996 15.5269 57.2603 15.3925 57.3058C15.0491 57.412 14.6759 57.4727 14.3176 57.4727C13.8995 57.4727 13.4815 57.3969 13.0933 57.2451C13.0336 57.2299 12.9291 57.2754 13.0187 57.321C13.81 57.6245 14.7207 57.6549 15.5269 57.3665C15.6612 57.321 15.8255 57.2451 15.8852 57.0933C15.9598 56.9264 15.7807 56.8809 15.6463 56.896L15.6314 56.8809Z" fill="#E6C1A0"/>
  <path d="M15.3926 55.4695C14.9745 55.4695 14.5714 55.4998 14.1534 55.5454C13.9145 55.5757 13.6906 55.5757 13.4517 55.5454C13.2277 55.515 13.0038 55.4695 12.7798 55.4543C12.6903 55.4543 12.6903 55.5302 12.7798 55.5302C13.1232 55.5302 13.4517 55.6516 13.7951 55.6516C13.9742 55.6516 14.1384 55.6213 14.3176 55.6061C14.4968 55.5909 14.6908 55.5606 14.87 55.5606C15.0492 55.5606 15.2283 55.5454 15.4075 55.5454C15.4373 55.5454 15.5269 55.5302 15.4971 55.5909C15.4821 55.6213 15.3926 55.6364 15.3627 55.6516C15.2731 55.682 15.1985 55.7123 15.1089 55.7427C14.7804 55.8489 14.437 55.9096 14.0787 55.9248C13.6906 55.9248 13.3024 55.8793 12.9142 55.773C12.8843 55.773 12.8395 55.773 12.8097 55.773C12.7948 55.8034 12.8097 55.8185 12.8396 55.8337C13.586 56.0614 14.3773 56.0614 15.1238 55.8337C15.2134 55.8034 15.303 55.773 15.3926 55.7427C15.4672 55.7123 15.5717 55.6971 15.6165 55.6213C15.721 55.4695 15.4373 55.4695 15.3776 55.4695H15.3926Z" fill="#E6C1A0"/>
  <path d="M15.5418 54.0885C14.6311 53.7394 13.6308 54.134 12.735 53.8001C12.6753 53.7849 12.5708 53.8305 12.6603 53.876C13.5561 54.2099 14.5266 53.8305 15.4224 54.1492C15.3029 54.2857 15.064 54.3009 14.8998 54.3313C14.6609 54.3768 14.437 54.4223 14.1981 54.4527C13.9443 54.483 13.7203 54.4223 13.4815 54.3768C13.2426 54.3313 13.0037 54.2857 12.7798 54.225C12.7051 54.225 12.6454 54.2857 12.735 54.3009C13.0037 54.3616 13.2575 54.4072 13.5263 54.4679C13.795 54.5286 14.0339 54.5589 14.3026 54.5134C14.5714 54.4679 14.8252 54.4223 15.0939 54.3768C15.2731 54.3464 15.4821 54.3161 15.5866 54.1492C15.5866 54.134 15.5716 54.1036 15.5567 54.1036L15.5418 54.0885Z" fill="#E6C1A0"/>
  <path d="M19.4535 51.9032C18.8563 51.5845 18.2591 51.2658 17.6022 51.0685C17.2886 50.9623 16.9602 50.9016 16.6466 50.8712C16.3033 50.8409 15.9449 50.8712 15.6016 50.8712C15.303 50.8712 14.8999 50.8257 14.661 51.0685C14.646 51.0837 14.661 51.0989 14.661 51.114C14.5863 51.2051 14.5565 51.3265 14.6013 51.4327C14.661 51.6149 14.8401 51.7211 15.0193 51.7514C15.2582 51.8122 15.512 51.7818 15.7509 51.8273C16.0047 51.8729 16.2585 51.9336 16.5123 51.9943C16.6168 52.0246 16.7213 52.0701 16.7512 52.2067C16.7661 52.3281 16.7064 52.4496 16.6019 52.5254C16.4227 52.6772 16.154 52.7379 15.93 52.7986C15.4373 52.92 14.9297 52.9352 14.4221 52.9352C14.1384 52.9352 13.8548 52.92 13.5711 52.8593C13.2725 52.7986 12.9739 52.7227 12.6753 52.6469C12.6454 52.6469 12.6007 52.6469 12.5708 52.6469C12.5559 52.6772 12.5708 52.6924 12.6007 52.7076C13.1232 52.829 13.6457 52.9959 14.1832 53.0111C14.437 53.0111 14.6908 53.0111 14.9596 52.9807C15.2134 52.9807 15.4672 52.9504 15.721 52.9049C15.9748 52.8593 16.2137 52.7986 16.4526 52.7076C16.6317 52.6317 16.8407 52.5254 16.8855 52.313C16.9303 52.1005 16.7661 51.9639 16.5869 51.9184C16.3331 51.8425 16.0793 51.797 15.8255 51.7514C15.6762 51.7211 15.5418 51.7059 15.3925 51.7059C15.2432 51.7059 15.0939 51.7059 14.9596 51.6452C14.8551 51.5997 14.7506 51.5086 14.7356 51.372C14.7207 51.2658 14.7655 51.1444 14.87 51.0989C14.8999 51.0989 14.8849 51.0685 14.87 51.0533C14.9596 50.9926 15.0641 50.9775 15.1686 50.9775C15.3328 50.9775 15.4821 50.9775 15.6463 50.9775C15.9748 50.9775 16.3033 50.9471 16.6317 50.9775C17.2588 51.0382 17.841 51.2506 18.4084 51.5086C18.7368 51.6604 19.0503 51.8273 19.3639 51.9943C19.4087 52.0246 19.543 51.9791 19.4684 51.9336L19.4535 51.9032Z" fill="#E6C1A0"/>
  <path d="M42.0723 94.0175C42.1321 94.4121 42.2067 94.837 42.5202 95.0798C42.789 95.2923 43.1622 95.2923 43.5205 95.2923C45.551 95.2468 47.5815 95.2012 49.6268 95.1557C49.9404 95.1557 50.2838 95.1405 50.5525 94.9584C51.0153 94.6549 51.075 94.0175 51.09 93.456C51.1198 92.8337 51.1646 85.9892 51.1646 85.9892C52.2097 85.7919 53.2548 85.6098 54.2849 85.4125C53.2846 74.88 52.2993 64.3476 51.299 53.8C50.8362 48.8222 50.3584 43.8443 49.3133 38.9575C48.6564 35.8767 47.7009 32.72 45.6406 30.3525C43.3264 27.6966 40.2509 26.7709 36.8768 26.6039C36.6976 28.7134 37.6979 31.0354 38.0562 33.0994C38.8774 37.9255 39.37 42.8123 39.6836 47.7143C40.3106 57.6093 40.2061 67.5347 40.6391 77.4449C40.878 82.9842 41.2811 88.5236 42.0723 94.0175Z" fill="#67762E"/>
  <path d="M50.1642 67.0339C49.8506 61.2365 49.5072 55.4391 49.134 49.6417C48.925 46.394 48.701 43.131 48.4771 39.8833C48.4771 39.7771 48.1785 39.7771 48.1934 39.8833C48.5965 45.6807 48.9698 51.4781 49.3281 57.2754C49.6715 63.0728 49.9999 68.8702 50.2836 74.6676C50.4478 77.9305 50.5971 81.1783 50.7464 84.4412C50.7464 84.5474 51.045 84.5474 51.0301 84.4412C50.7763 78.6438 50.4777 72.8313 50.1642 67.0339V67.0339Z" fill="#495E22"/>
  <path d="M45.3419 44.1023C45.2075 43.6774 44.8791 43.3435 44.5656 43.04C43.8041 42.3419 42.983 41.7044 42.132 41.1277C42.6695 39.3369 43.2069 37.5613 43.7593 35.7705C44.0132 34.9206 44.3118 34.0859 44.4909 33.2208C44.6551 32.4317 44.5954 31.6425 44.3118 30.8837C43.9833 30.0338 43.4458 29.2902 42.9233 28.5617C42.8636 28.4706 42.5799 28.5162 42.6396 28.6072C43.5653 29.8669 44.5058 31.2631 44.252 32.9173C44.1177 33.8127 43.7892 34.6778 43.5354 35.5277C43.2667 36.4079 43.0129 37.2729 42.7441 38.1532C42.4455 39.1396 42.1469 40.1413 41.8483 41.1277C41.8483 41.1581 41.8483 41.1885 41.8782 41.2036C42.6545 41.7196 43.401 42.2963 44.1027 42.9186C44.4163 43.2069 44.7596 43.4953 44.9687 43.8898C45.1777 44.2996 45.1478 44.7549 45.103 45.2102C44.8791 47.2287 44.6253 49.2471 44.3715 51.2504C43.8489 55.257 43.2667 59.2484 42.5948 63.2246C42.2216 65.4707 41.8334 67.7168 41.4154 69.9477C41.4004 70.054 41.6841 70.0691 41.699 69.9477C42.4455 65.8956 43.1323 61.8435 43.7444 57.7611C44.3565 53.709 44.8791 49.6569 45.3419 45.5896C45.4016 45.0888 45.4912 44.5576 45.3419 44.072V44.1023Z" fill="#495E22"/>
  <path d="M10.7495 37.5765C9.91347 41.4768 9.18191 45.4075 8.53992 49.3382C7.91287 53.2537 7.3754 57.1996 6.94243 61.1454C6.50947 65.1217 6.18101 69.0979 5.94213 73.0893C5.71818 77.0503 5.58381 81.0265 5.55396 85.0027C5.55396 87.006 5.55396 88.9941 5.58381 90.9974C5.59874 91.9991 5.6286 93.0007 5.65846 93.9872C5.65846 94.3059 5.61367 94.7156 5.89734 94.9129C6.03171 95.004 6.19594 95.0343 6.34524 95.0799C6.59904 95.1406 6.85285 95.2013 7.09173 95.2772C7.55455 95.3986 8.01738 95.52 8.49513 95.6414C8.59964 95.6718 8.82359 95.5503 8.64443 95.5048C8.18161 95.3834 7.71878 95.262 7.24103 95.1406C7.00215 95.0799 6.7782 95.0192 6.53932 94.9585C6.28552 94.8978 6.00185 94.8522 5.95706 94.5487C5.88241 94.0934 5.9272 93.6078 5.91227 93.1525C5.91227 92.6668 5.88241 92.166 5.88241 91.6804C5.83762 89.7226 5.82269 87.7648 5.83762 85.8071C5.85255 81.8764 5.97199 77.9305 6.18101 73.9999C6.39003 70.0843 6.70355 66.184 7.10666 62.2837C7.50976 58.3682 8.01738 54.4678 8.6295 50.5675C9.2267 46.6975 9.9284 42.8427 10.7346 39.0031C10.8391 38.5174 10.9287 38.047 11.0332 37.5613C11.0481 37.4702 10.7645 37.4551 10.7495 37.5613V37.5765Z" fill="#495E22"/>
  <path d="M11.4065 31.8853C11.4065 31.8853 11.4662 31.7487 11.4512 31.6729C11.4512 31.5666 11.3617 31.4604 11.2721 31.4149C11.1676 31.3693 11.0631 31.3693 10.9436 31.3845C10.1374 31.4907 9.68952 32.2192 9.71938 33.0084C9.71938 33.0539 9.71938 33.0994 9.70445 33.1298C9.68952 33.1601 9.64473 33.1753 9.59995 33.2057C9.28642 33.3423 9.03261 33.6154 8.89824 33.9341C8.86838 34.01 8.70416 34.9206 8.7788 34.8903C8.48021 35.0117 8.21147 35.042 8.0771 35.3607C7.89794 35.7857 7.94273 36.3017 8.16668 36.6962C7.53963 37.1515 7.59935 38.3808 8.16668 38.8665C8.27119 38.9575 8.40556 39.0031 8.525 38.9575C8.6743 38.912 8.76387 38.7602 8.82359 38.5933C8.89824 38.3656 8.91317 38.1228 8.88331 37.8952C8.89824 38.0014 9.376 38.2746 9.46558 38.3201C9.64474 38.3808 9.86868 38.3656 9.98812 38.2291C10.0478 38.1532 10.0777 38.0621 10.1076 37.9559C10.227 37.4551 10.1374 36.9239 10.0478 36.4231C10.1374 36.6204 10.3912 36.6962 10.5853 36.6204C10.7794 36.5445 10.9138 36.3472 10.9735 36.1347C11.078 35.725 11.0481 35.2393 10.869 34.8599C10.9287 34.8447 11.0034 34.8295 11.0631 34.7992C11.6752 34.526 11.3467 33.9038 11.2721 33.4333C11.1825 32.9173 11.2422 32.3861 11.4214 31.9005L11.4065 31.8853Z" fill="#FCD9BA"/>
  <path d="M10.6898 34.7385C10.1374 34.2984 9.82386 33.6003 9.85371 32.887C9.85371 32.8111 9.6447 32.7959 9.6447 32.887C9.61484 33.6154 9.94329 34.3439 10.5106 34.7992C10.5554 34.8296 10.6151 34.8447 10.6599 34.8144C10.6898 34.8144 10.7346 34.7689 10.7047 34.7385H10.6898Z" fill="#E6C1A0"/>
  <path d="M9.94335 36.4535C9.40588 36.1955 9.15207 35.6188 9.00277 35.0724C8.98784 34.9965 8.76389 35.0117 8.79375 35.1028C8.94305 35.6795 9.22672 36.2714 9.77912 36.5445C9.82391 36.5597 9.88363 36.5749 9.92842 36.5445C9.95828 36.5294 9.97321 36.4838 9.92842 36.4535H9.94335Z" fill="#E6C1A0"/>
  <path d="M9.09225 38.0318C8.73393 37.7586 8.48012 37.3792 8.33082 36.9543C8.30097 36.8784 8.09195 36.8936 8.12181 36.9846C8.27111 37.4248 8.53984 37.8193 8.89816 38.0925C8.94295 38.1229 9.00267 38.1229 9.04746 38.1077C9.07732 38.1077 9.12211 38.0622 9.09225 38.0318V38.0318Z" fill="#E6C1A0"/>
  <path d="M41.8035 38.2139C41.8035 38.2139 41.8035 38.2595 41.7886 38.2443C41.2362 37.9863 40.7734 37.5765 40.3553 37.1364C40.1463 36.9088 39.9522 36.6811 39.7581 36.4535C39.6238 36.3017 39.4147 36.1196 39.1908 36.1499C38.9818 36.1955 38.9221 36.4231 38.937 36.6052C38.9668 37.5462 40.0269 38.3353 40.5942 39.0031C41.8632 40.5207 43.5055 41.6438 45.2224 42.6151C45.4763 42.7668 45.745 42.9034 46.0287 42.9641C46.1481 42.9945 46.2825 42.9945 46.4019 43.0552C46.5363 43.1159 46.6408 43.207 46.7453 43.3132C47.8352 44.3452 48.94 45.3772 50.0299 46.4092C50.3135 46.6672 50.5823 46.9404 50.8659 47.1984C51.0749 47.3957 51.3437 47.7751 51.6274 47.8661C52.0603 48.0179 52.553 47.5778 52.8815 47.3349C53.2846 47.0314 53.5682 46.6065 53.8519 46.1815C54.0012 45.9539 54.1505 45.7263 54.2998 45.4986C54.897 44.6032 53.7623 43.9051 53.18 43.3436C52.0454 42.266 50.9107 41.1733 49.776 40.0958C49.7163 40.0351 49.6417 39.9744 49.6268 39.8833C49.5969 39.8075 49.6268 39.7164 49.6268 39.6253C49.6566 39.17 49.4924 38.7148 49.3132 38.2898C48.6712 36.7418 47.8053 35.3001 47.1036 33.7672C46.9842 33.5092 46.8498 33.2361 46.6109 33.0843C45.9988 32.6745 45.8943 33.4637 45.9839 33.919C46.1182 34.6323 46.5661 35.4822 46.3273 36.1955C45.9391 36.1044 45.5061 35.5732 45.2523 35.3001C44.9238 34.951 44.6103 34.5868 44.2819 34.2377C43.9833 33.919 43.6697 33.6003 43.4159 33.2361C43.1173 32.8263 42.8635 32.3862 42.5201 32.022C42.4007 31.8854 42.1469 31.6881 41.9528 31.7336C41.5198 31.8398 41.7139 32.7352 41.8334 33.0084C41.9976 33.3878 42.2813 33.7065 42.55 34.0101C42.9979 34.5261 43.4309 35.0724 43.9086 35.5581C44.1027 35.7554 43.7444 35.6339 43.6548 35.5581C43.5354 35.467 43.4607 35.3456 43.3562 35.2545C43.1323 35.0421 42.8934 34.8448 42.6694 34.6323C42.2215 34.2225 41.7886 33.7672 41.4751 33.2361C41.281 32.9325 41.1317 32.5987 40.9077 32.3255C40.7435 32.1282 40.43 31.9764 40.2508 32.2344C40.0567 32.4924 40.0418 32.9022 40.1164 33.2057C40.1762 33.4941 40.3105 33.8128 40.4897 34.0404C40.6688 34.2681 40.8331 34.5109 41.0122 34.7385C41.4452 35.2697 41.9528 35.725 42.4306 36.2106C42.5351 36.3169 42.8785 36.5901 42.6247 36.6963C42.4306 36.7873 42.1469 36.5597 42.0125 36.4535C41.5348 36.0741 41.1018 35.6339 40.7286 35.1483C40.5345 34.9055 40.3553 34.6627 40.1911 34.4047C40.0717 34.2074 39.9671 33.8887 39.8029 33.7217C39.5939 33.5244 39.355 33.7521 39.2505 33.9494C39.1161 34.2225 39.1161 34.5412 39.1908 34.8296C39.2953 35.2394 39.5491 35.5884 39.8029 35.9071C40.1612 36.3624 40.5345 36.8025 40.9376 37.2123C41.0869 37.3641 41.281 37.4855 41.4452 37.6372C41.5497 37.7283 41.6542 37.8193 41.7438 37.9104C41.7737 37.9408 41.8483 38.0015 41.8632 38.047C41.8632 38.047 41.8632 38.1077 41.8632 38.1532L41.8035 38.2139Z" fill="#FCD9BA"/>
  <path d="M61.0332 46.3788C59.8239 45.6807 58.6295 44.9674 57.4351 44.2238C56.405 43.5712 55.3599 43.0097 54.3745 42.3115C53.5981 41.7652 52.8218 41.0367 51.8364 40.9912C51.508 40.9912 51.1646 41.0215 50.8959 40.8091C50.448 40.4448 50.1941 39.8681 49.5522 40.3993C48.5967 41.2037 47.7307 42.1294 46.8648 43.04C46.7603 43.1462 46.6558 43.2677 46.6259 43.4042C46.5214 43.8899 47.5068 44.0568 47.5814 44.5121C47.6262 44.7549 47.462 45.0129 47.4769 45.2558C47.4918 45.6352 47.671 46.0449 47.895 46.3485C48.1936 46.7582 48.6414 47.0314 48.9251 47.4563C49.2237 47.8965 49.5223 48.1696 49.9403 48.5187C50.9108 49.3079 51.8812 50.1122 52.8517 50.8862C54.7776 52.4342 56.7334 53.967 58.734 55.424C60.4957 56.6988 62.2873 57.9281 64.1386 59.0815C65.2136 59.7492 66.2288 60.5687 67.4232 61.0089C68.1995 61.2972 69.0057 61.1151 69.797 61.0089C70.7077 60.8723 71.5737 60.508 72.3052 59.9313C72.9622 59.4002 73.4847 58.7172 73.8281 57.9432C74.1267 57.2603 74.5746 56.4863 74.4103 55.7123C74.3357 55.3784 74.1864 55.0749 74.0072 54.7865C73.5295 54.0125 72.8576 53.36 72.0664 52.9047C71.2602 52.4342 70.5883 51.7209 69.812 51.2049C68.1547 50.1122 66.3482 49.2775 64.6014 48.3517C63.3623 47.8661 62.1679 47.0466 61.0183 46.3788H61.0332Z" fill="#DFEDE5"/>
  <path d="M75.4852 28.0761C75.3956 28.0761 75.2911 28.1064 75.2015 28.1216C73.8578 28.4706 72.7232 29.791 72.0812 30.9596C71.2451 32.4469 70.8868 34.1618 70.5434 35.8312C69.364 41.5375 68.2591 47.2742 66.4825 52.8136C66.0346 54.1946 65.7509 55.3025 66.9453 56.2434C68.1546 57.1844 69.5282 58.3074 71.066 58.5958C71.5736 58.6869 72.111 58.6868 72.5888 58.8538C72.753 58.9145 72.9023 58.9752 73.0815 58.9904C73.5294 58.9904 73.8429 58.5503 74.0669 58.1557C76.0227 54.5437 77.232 50.5675 78.0083 46.5457C78.8295 42.3267 79.3371 37.9255 79.1281 33.6154C79.0684 32.4013 78.9489 31.1417 78.3816 30.0642C77.8441 29.0473 76.6646 27.9698 75.4852 28.0761V28.0761Z" fill="#DFEDE5"/>
  <path d="M73.4547 54.7106C73.0666 53.2385 71.7229 52.3128 70.5136 51.5691C69.4535 50.9317 68.3935 50.2943 67.3335 49.6721C67.8113 48.7463 68.1994 47.775 68.513 46.7734C68.8713 45.6655 69.14 44.5273 69.364 43.389C69.5879 42.2204 69.782 41.0519 69.9612 39.8833C70.1403 38.7147 70.3195 37.5461 70.5285 36.3775C70.7375 35.2089 70.9913 34.0555 71.3198 32.9021C71.3646 32.7655 71.3944 32.629 71.4392 32.4924C71.4691 32.371 71.1854 32.3558 71.1555 32.4468C70.8122 33.5699 70.5434 34.7233 70.3195 35.8767C70.0955 37.0453 69.9164 38.2139 69.7372 39.3825C69.5581 40.551 69.3789 41.7348 69.1699 42.9034C68.9609 44.0568 68.7071 45.195 68.3637 46.3181C68.0352 47.426 67.6172 48.5035 67.0946 49.5355C66.5572 49.2168 66.0197 48.8981 65.4673 48.5794L60.3314 45.5137L55.2254 42.4633C54.8074 42.2053 54.3744 41.9624 53.9564 41.7044C53.5831 41.4768 53.1949 41.2643 52.7769 41.1429C52.0006 40.9153 51.0301 41.067 50.3732 40.4903C50.2388 40.3689 50.1343 40.2172 50.0597 40.0502C50.0149 39.9592 49.7312 39.9743 49.776 40.0957C50.0746 40.8697 50.9853 41.0519 51.687 41.1277C52.1499 41.1884 52.5828 41.2492 53.0158 41.4313C53.4338 41.6134 53.8369 41.8714 54.2251 42.099C55.9271 43.1159 57.6291 44.1327 59.3311 45.1495C61.0481 46.1663 62.7501 47.1831 64.467 48.2151C65.736 48.9739 66.9901 49.7176 68.2592 50.4764C68.7071 50.7344 69.155 51.0076 69.5879 51.2656C70.842 52.0244 72.335 52.8136 72.977 54.225C73.0516 54.3919 73.1114 54.5589 73.1561 54.741C73.186 54.832 73.4697 54.8169 73.4398 54.6954L73.4547 54.7106Z" fill="#63848F"/>
  <path d="M77.2619 28.926C75.9182 28.6832 74.4998 29.1233 73.4995 30.049C73.2159 30.307 72.977 30.6106 72.768 30.9293C72.7083 31.0203 72.9919 31.0659 73.0516 30.9748C73.7235 29.8973 74.9029 29.1688 76.1421 29.0474C76.4855 29.017 76.8438 29.0322 77.1872 29.0929C77.232 29.0929 77.3365 29.0929 77.3664 29.0322C77.3962 28.9715 77.3066 28.9412 77.2619 28.926V28.926Z" fill="#63848F"/>
  <path d="M76.5602 51.1442C76.172 52.2521 75.7839 53.3448 75.3509 54.4375C74.9329 55.515 74.5148 56.5925 74.0371 57.6397C73.8131 58.1254 73.5742 58.611 73.2458 59.0208C72.9621 59.385 72.6187 59.7037 72.2306 59.9769C71.4243 60.5384 70.4838 60.8116 69.5133 60.8116C68.4085 60.8116 67.3037 60.4473 66.2735 60.0376C65.7659 59.8251 65.2732 59.5823 64.7955 59.3091C64.3028 59.0208 63.84 58.6869 63.3772 58.3682C62.4366 57.7156 61.4811 57.063 60.5405 56.3952C59.5999 55.7275 58.6892 55.0294 57.7785 54.3161C55.9122 52.8743 54.046 51.4326 52.1798 49.9908C51.9558 49.8087 51.7319 49.6417 51.493 49.4596C51.4333 49.4141 51.3586 49.4141 51.2989 49.4293C51.2541 49.4444 51.1944 49.5052 51.2541 49.5355C53.1652 51.0076 55.0762 52.4949 57.0021 53.967C57.9427 54.6955 58.8683 55.4239 59.8239 56.1069C60.7794 56.805 61.7647 57.4728 62.7352 58.1405C63.6758 58.7931 64.6014 59.4457 65.6316 59.9313C66.6468 60.4018 67.7367 60.766 68.8564 60.9026C69.8716 61.024 70.8869 60.9026 71.8125 60.4322C72.6635 60.0072 73.3801 59.3395 73.8728 58.5199C74.1565 58.0343 74.3804 57.5183 74.6044 56.9871C74.8433 56.4408 75.0672 55.8792 75.2912 55.3177C75.7241 54.225 76.1422 53.1171 76.5453 51.9941C76.6498 51.7057 76.7394 51.4326 76.8439 51.1442C76.8887 51.0228 76.605 51.0076 76.5602 51.1139V51.1442Z" fill="#63848F"/>
  <path d="M50.3584 41.6286C50.1494 41.8411 49.9703 42.0839 49.806 42.3268C49.6269 42.5696 49.4328 42.8124 49.2238 43.04C48.8057 43.4802 48.3578 43.8747 47.895 44.2693C47.8502 44.3149 47.895 44.3604 47.9398 44.3756C47.9995 44.3907 48.0891 44.3907 48.1339 44.3452C48.5967 43.9506 49.0446 43.556 49.4626 43.1159C49.6717 42.9035 49.8508 42.6606 50.03 42.4178C50.2091 42.175 50.3734 41.917 50.5973 41.7045C50.7018 41.6135 50.4182 41.5528 50.3435 41.6286H50.3584Z" fill="#63848F"/>
</svg>
