<svg width="116" height="173" viewBox="0 0 116 173" fill="none"
  xmlns="http://www.w3.org/2000/svg">
  <path d="M0.00331821 165.353C-0.203819 167.372 9.32448 170.513 18.0242 171.186C26.1026 171.859 31.0739 170.064 43.0878 169.615C45.1592 169.615 48.4734 169.391 52.8232 169.615C54.4803 169.615 56.1374 169.84 58.0017 170.064C65.0443 170.737 66.2871 171.635 73.7441 172.083C78.0939 172.308 82.8581 172.308 88.6579 170.962C90.1079 170.513 91.1436 170.288 91.765 170.064C104.193 166.474 116 166.25 116 165.353C116 163.782 88.8651 163.333 68.1514 161.09C65.6657 160.865 62.5587 160.417 58.2088 160.641C50.5447 161.09 47.6448 162.66 41.0164 163.109C35.4237 163.558 33.5595 162.436 27.7597 161.987C19.4742 161.314 0.00331821 162.436 0.00331821 165.353Z" fill="#E9D7AA"/>
  <path d="M86.1872 69.8719H70.063C69.854 71.7538 69.8391 73.666 69.8241 75.563C69.7943 81.3149 69.8988 87.0364 69.9436 92.7883C69.9734 97.0376 70.496 101.257 70.5557 105.491C70.8841 109.073 71.138 112.669 71.332 116.266C71.4963 119.15 71.4366 122.109 71.8247 124.993C71.8994 125.6 72.0039 126.207 72.1233 126.799C72.1532 126.95 72.198 127.117 72.3025 127.224C72.4219 127.36 72.616 127.406 72.7802 127.436C74.1389 127.694 75.5273 127.724 76.9009 127.709C77.8862 127.709 78.8865 127.664 79.8719 127.497C81.2902 127.269 82.6638 126.783 83.9179 126.055C84.3956 125.782 85.0227 125.418 85.3213 124.917C85.6348 124.401 85.5303 123.642 85.5602 123.035C85.6199 121.563 85.6796 120.075 85.7393 118.603C85.8438 115.644 85.9334 112.685 85.9782 109.725C86.0678 105.081 85.9782 100.452 86.0379 95.8084C86.0977 91.4072 86.9934 87.1123 86.9934 82.6959C86.9934 79.7669 86.6948 76.8379 86.5455 73.924C86.4709 72.4822 86.6351 71.0101 86.1872 69.8719V69.8719Z" fill="#63848F"/>
  <path d="M82.7682 162.676C82.8279 162.934 82.9175 163.192 82.9921 163.45C83.1713 164.011 83.2758 164.724 82.6189 165.073C82.4696 165.149 82.3054 165.18 82.1411 165.21C80.8422 165.423 79.4985 165.256 78.1847 165.089C77.6323 165.013 76.9903 164.998 76.4976 164.77C76.4081 164.74 76.3334 164.694 76.2737 164.618C76.1692 164.482 76.1991 164.299 76.2737 164.163C76.3483 164.026 76.4827 163.905 76.6022 163.799C77.6174 162.782 77.7518 161.507 77.6025 160.156C77.4979 159.215 77.3934 158.274 77.3039 157.318C76.9008 153.388 76.5872 149.442 76.3483 145.496C76.2886 144.464 76.2438 143.386 76.6619 142.461C77.0501 141.611 77.7965 141.004 78.5878 140.609C79.9614 139.926 82.5592 139.774 82.9772 141.808C83.2459 143.083 83.2161 144.388 83.2011 145.693C83.2609 147.514 83.1414 149.366 83.0966 151.202C83.0518 153.175 82.9921 155.148 82.8876 157.121C82.8428 158.107 82.7831 159.094 82.7234 160.065C82.6786 160.657 82.6189 161.234 82.6338 161.826C82.6338 162.129 82.6935 162.418 82.7532 162.706L82.7682 162.676Z" fill="#FCD9BA"/>
  <path d="M69.9734 166.606C70.3018 166.788 70.8393 166.834 71.2126 166.895C72.0934 167.031 72.9743 167.016 73.8551 166.986L77.1696 166.879C77.4831 166.879 77.9161 166.94 78.2146 166.849C78.558 166.743 78.8865 166.606 79.2299 166.47C79.3344 166.424 79.4538 166.394 79.5583 166.348C79.8271 166.272 80.4541 166.075 80.6482 166.348C80.7079 166.439 80.7378 166.53 80.7677 166.637C80.7677 166.682 80.7826 166.712 80.7975 166.758L83.6939 166.667C83.6939 166.667 83.6939 166.576 83.6939 166.53C83.6939 166.288 83.7238 166.09 83.5745 165.878C83.5595 165.847 83.5297 165.817 83.5147 165.787C83.5147 165.756 83.5147 165.711 83.5147 165.68C83.5147 165.665 83.5147 165.635 83.5147 165.62C83.5446 165.453 83.5297 165.286 83.5147 165.119C83.4998 164.603 83.4401 164.102 83.2908 163.601C83.2161 163.358 83.1564 163.085 83.0071 162.888C82.7384 162.554 82.5592 162.736 82.2606 162.903C81.6187 163.252 80.8871 163.434 80.1555 163.419C79.424 163.419 78.7073 163.222 78.0803 162.858C77.8713 162.736 77.6622 162.357 77.4234 162.372C77.1248 162.387 76.871 162.827 76.6769 163.009C76.2439 163.389 75.7811 163.723 75.3033 164.026C74.318 164.648 73.243 165.119 72.1233 165.422C71.7799 165.514 71.4365 165.589 71.0931 165.665C70.7796 165.741 70.3466 165.772 70.063 165.938C69.9584 165.999 69.8689 166.09 69.8092 166.166C69.7345 166.288 69.7345 166.439 69.9286 166.546L69.9734 166.606Z" fill="#553A12"/>
  <path d="M69.8541 166.242C70.0482 166.242 70.2423 166.288 70.4513 166.318C70.9589 166.394 71.4665 166.439 71.9741 166.47C72.9744 166.53 73.9896 166.515 75.0049 166.5C75.0795 166.5 75.1392 166.5 75.2139 166.5C75.9156 166.5 76.6173 166.47 77.3041 166.409C78.0058 166.348 78.6627 166.181 79.3495 166.03C79.6033 165.969 79.8421 165.923 80.0959 165.893C79.9466 165.65 79.7078 165.453 79.439 165.362C79.0658 165.24 78.6328 165.286 78.2446 165.301C77.8266 165.301 77.4086 165.331 77.0055 165.422C76.8114 165.468 76.6173 165.514 76.4083 165.529C76.259 165.544 76.05 165.574 75.9156 165.468C75.8409 165.407 75.7812 165.331 75.7364 165.24C75.6767 165.149 75.617 165.058 75.5573 164.967C75.4378 164.785 75.3333 164.588 75.2437 164.39C75.2139 164.345 75.3483 164.315 75.3781 164.36C75.4677 164.542 75.5573 164.709 75.6618 164.891C75.7514 165.043 75.8559 165.21 75.9604 165.362C76.035 165.453 76.1395 165.468 76.259 165.453C76.3784 165.453 76.4829 165.438 76.6024 165.407C76.7964 165.377 76.9905 165.331 77.1846 165.301C77.5877 165.24 77.9908 165.225 78.3939 165.21C78.7672 165.21 79.1554 165.18 79.5137 165.301C79.8123 165.407 80.0512 165.605 80.2154 165.863C81.3053 165.696 82.425 165.65 83.5149 165.711C83.5149 165.741 83.5149 165.787 83.5149 165.817C83.5149 165.847 83.5447 165.878 83.5746 165.908C83.7239 166.121 83.694 166.318 83.694 166.561C83.694 166.606 83.694 166.652 83.694 166.697L80.7976 166.788C80.7976 166.788 80.7827 166.712 80.7678 166.667C80.7379 166.561 80.7081 166.454 80.6483 166.379C80.4543 166.105 79.8272 166.303 79.5585 166.379C79.439 166.409 79.3345 166.454 79.23 166.5C78.8866 166.621 78.5432 166.773 78.2148 166.879C77.9162 166.97 77.4832 166.895 77.1697 166.91L73.8553 167.016C72.9744 167.046 72.0935 167.062 71.2127 166.925C70.8394 166.864 70.3169 166.819 69.9735 166.637C69.7794 166.53 69.7794 166.394 69.8541 166.257V166.242Z" fill="#412409"/>
  <path d="M76.6322 163.009C76.6322 163.009 76.6769 162.964 76.6919 162.964C76.7516 162.949 76.8262 162.949 76.886 162.979C77.0353 163.1 77.1846 163.222 77.3339 163.358C77.3488 163.374 77.3637 163.389 77.3488 163.419C77.3488 163.434 77.304 163.465 77.2891 163.465C77.2592 163.465 77.2144 163.48 77.1846 163.465C77.1547 163.465 77.1248 163.465 77.095 163.434C76.9606 163.298 76.8113 163.176 76.6471 163.055C76.6322 163.055 76.6172 163.025 76.6322 162.994V163.009Z" fill="#3C3C71"/>
  <path d="M76.0947 163.419C76.0947 163.419 76.1395 163.374 76.1544 163.374C76.2142 163.359 76.2888 163.358 76.3485 163.389C76.4829 163.51 76.6173 163.647 76.7218 163.783C76.7218 163.799 76.7218 163.829 76.7218 163.844C76.7068 163.859 76.6621 163.874 76.6471 163.874C76.5874 163.874 76.5128 163.874 76.4829 163.829C76.4829 163.829 76.453 163.799 76.453 163.783C76.3635 163.662 76.259 163.556 76.1395 163.465C76.1246 163.465 76.1097 163.434 76.1246 163.404L76.0947 163.419Z" fill="#3C3C71"/>
  <path d="M71.75 121.077C72.0187 119.347 72.7503 117.708 74.5717 117.328C75.1838 117.207 75.8109 117.222 76.423 117.268C77.2442 117.313 78.0653 117.389 78.8416 117.662C79.6777 117.966 80.3645 117.951 81.2603 118.087C82.2158 118.224 83.1414 118.497 84.0223 118.892C84.4254 119.074 84.8136 119.271 85.142 119.59C86.0528 120.47 85.7094 121.714 85.6646 122.838C85.6347 123.505 85.6198 124.158 85.5899 124.826C85.5451 126.146 85.4854 127.466 85.4257 128.787C85.3809 129.97 85.3212 131.154 85.2764 132.323C85.2764 132.444 85.2764 132.566 85.2764 132.687C85.2465 133.34 85.2316 133.977 85.2018 134.63C85.1122 137.179 85.0226 139.744 84.933 142.294C84.933 142.415 84.933 142.536 84.933 142.658C84.8434 145.632 84.7539 148.607 84.6792 151.582C84.6792 151.703 84.6792 151.824 84.6792 151.946C84.6046 154.936 84.5299 157.925 84.4553 160.915C84.4553 161.037 84.4553 161.158 84.4553 161.279C84.4254 162.296 84.4105 163.298 84.3806 164.315C84.3806 164.815 83.022 164.648 81.962 164.482C81.7828 164.451 81.6037 164.421 81.4394 164.39C81.1856 164.345 80.9617 164.315 80.8422 164.299C79.7076 164.193 78.5729 164.117 77.4382 164.057C77.2591 164.057 77.0949 164.041 76.9157 164.026C76.7664 164.026 74.6016 163.981 74.6165 164.026C74.5418 162.994 74.4971 161.902 74.8852 160.915C75.2137 160.065 75.4974 159.382 75.4526 158.411C75.363 156.666 74.4075 155.133 73.6908 153.6C72.6308 151.293 72.8846 148.364 72.8697 145.89C72.8398 138.454 71.8993 131.063 71.6753 123.642C71.6455 122.868 71.6753 121.972 71.7948 121.092L71.75 121.077Z" fill="#63848F"/>
  <path d="M71.4961 69.8719H58.1488C57.7009 70.4182 57.4322 71.1315 57.2978 71.8296C57.1187 72.8313 57.1784 73.8633 57.1336 74.8801C57.0142 77.6422 56.1184 80.2829 55.5958 82.9539C55.0583 85.7464 54.5507 88.554 54.058 91.3465C53.3116 95.52 53.0428 99.7694 52.3262 103.943C51.8335 106.766 51.4304 109.604 51.087 112.457C50.7436 115.386 50.3256 118.376 50.2211 121.32C50.1912 122.337 50.1912 123.369 50.4301 124.355C50.6093 125.114 50.9974 126.313 51.7439 126.692C51.7439 126.692 51.7589 126.692 51.7738 126.692C52.5203 127.057 53.6848 126.814 54.491 126.965C55.4615 127.148 56.4468 127.299 57.4471 127.33C58.8804 127.375 60.3286 127.148 61.6872 126.677C62.4635 126.404 63.2996 126.116 63.5534 125.251C63.8222 124.325 63.9117 123.217 64.1805 122.246C64.1805 121.381 64.7329 120.242 64.9718 119.392C65.2704 118.33 65.5839 117.253 65.8526 116.175C66.0318 115.477 65.987 114.885 66.0467 114.187C66.1363 113.14 66.4946 112.047 66.7036 111.015C68.3608 103.002 69.809 94.9433 70.9437 86.8543C71.6603 81.8005 72.5113 76.6406 71.8992 71.5109C71.8246 70.9494 71.735 70.3424 71.511 69.8264L71.4961 69.8719Z" fill="#63848F"/>
  <path d="M61.2691 162.676C61.3289 162.934 61.4184 163.192 61.4931 163.45C61.6722 164.011 61.7768 164.724 61.1198 165.073C60.9705 165.149 60.8063 165.18 60.6421 165.21C59.3133 165.423 57.9547 165.256 56.626 165.089C56.0735 165.013 55.4166 164.998 54.909 164.77C54.8194 164.74 54.7448 164.694 54.6851 164.618C54.5806 164.482 54.6104 164.299 54.6851 164.163C54.7597 164.026 54.8941 163.905 55.0135 163.799C56.0586 162.782 56.193 161.507 56.0288 160.156C55.9243 159.215 55.8197 158.274 55.7152 157.318C55.3121 153.388 54.9837 149.442 54.7448 145.496C54.6851 144.464 54.6403 143.386 55.0583 142.461C55.4465 141.611 56.2079 141.004 57.0141 140.609C58.4175 139.926 61.0452 139.774 61.4782 141.808C61.7469 143.083 61.732 144.388 61.7021 145.693C61.7618 147.514 61.6424 149.366 61.5976 151.202C61.5528 153.175 61.4931 155.148 61.3886 157.121C61.3438 158.107 61.2841 159.094 61.2094 160.065C61.1646 160.657 61.1049 161.234 61.1198 161.826C61.1198 162.129 61.1796 162.418 61.2542 162.706L61.2691 162.676Z" fill="#FCD9BA"/>
  <path d="M48.2802 166.606C48.6086 166.788 49.161 166.834 49.5343 166.895C50.4152 167.031 51.3259 167.016 52.2217 166.986L55.5809 166.879C55.8944 166.879 56.3423 166.94 56.6409 166.849C56.9843 166.743 57.3277 166.606 57.686 166.47C57.8054 166.424 57.9099 166.394 58.0294 166.348C58.2981 166.272 58.9401 166.075 59.1342 166.348C59.1939 166.439 59.2238 166.53 59.2536 166.637C59.2536 166.682 59.2685 166.712 59.2835 166.758L62.2247 166.667C62.2247 166.667 62.2247 166.576 62.2247 166.53C62.2247 166.288 62.2545 166.09 62.1052 165.878C62.0903 165.847 62.0604 165.817 62.0455 165.787C62.0455 165.756 62.0455 165.711 62.0455 165.68C62.0455 165.665 62.0455 165.635 62.0455 165.62C62.0754 165.453 62.0604 165.286 62.0455 165.119C62.0306 164.603 61.9708 164.102 61.8216 163.601C61.7469 163.358 61.6872 163.085 61.5379 162.888C61.2691 162.554 61.09 162.736 60.7765 162.903C60.1345 163.252 59.388 163.434 58.6415 163.419C57.9099 163.419 57.1634 163.222 56.5364 162.858C56.3274 162.736 56.1184 162.357 55.8645 162.372C55.551 162.387 55.3121 162.827 55.1031 163.009C54.6702 163.389 54.1924 163.723 53.7147 164.026C52.7144 164.648 51.6245 165.119 50.4898 165.422C50.1464 165.514 49.7881 165.589 49.4447 165.665C49.1312 165.741 48.6833 165.772 48.3996 165.938C48.2951 165.999 48.2055 166.09 48.1458 166.166C48.0712 166.288 48.0712 166.439 48.2653 166.546L48.2802 166.606Z" fill="#553A12"/>
  <path d="M48.1607 166.242C48.3548 166.242 48.5489 166.288 48.7579 166.318C49.2655 166.394 49.7881 166.439 50.3106 166.47C51.3408 166.53 52.356 166.515 53.3862 166.5C53.4608 166.5 53.5205 166.5 53.5952 166.5C54.2969 166.5 55.0135 166.47 55.7152 166.409C56.4318 166.348 57.0888 166.181 57.7905 166.03C58.0443 165.969 58.2981 165.923 58.5519 165.893C58.4026 165.65 58.1637 165.453 57.88 165.362C57.4919 165.24 57.0738 165.286 56.6707 165.301C56.2527 165.301 55.8197 165.331 55.4166 165.422C55.2225 165.468 55.0135 165.514 54.8045 165.529C54.6552 165.544 54.4462 165.574 54.2969 165.468C54.2222 165.407 54.1625 165.331 54.1177 165.24C54.058 165.149 53.9983 165.058 53.9386 164.967C53.8191 164.785 53.7146 164.588 53.625 164.39C53.5952 164.345 53.7445 164.315 53.7594 164.36C53.849 164.542 53.9386 164.709 54.0431 164.891C54.1327 165.043 54.2372 165.21 54.3566 165.362C54.4312 165.453 54.5507 165.468 54.6701 165.453C54.7896 165.453 54.909 165.438 55.0135 165.407C55.2076 165.377 55.4166 165.331 55.6107 165.301C56.0138 165.24 56.4318 165.225 56.8499 165.21C57.2231 165.21 57.6262 165.18 57.9845 165.301C58.2831 165.407 58.537 165.605 58.6863 165.863C59.7911 165.696 60.9407 165.65 62.0455 165.711C62.0455 165.741 62.0455 165.787 62.0455 165.817C62.0455 165.847 62.0753 165.878 62.1052 165.908C62.2545 166.121 62.2246 166.318 62.2246 166.561C62.2246 166.606 62.2246 166.652 62.2246 166.697L59.2834 166.788C59.2834 166.788 59.2685 166.712 59.2536 166.667C59.2237 166.561 59.1939 166.454 59.1341 166.379C58.9251 166.105 58.2981 166.303 58.0293 166.379C57.9099 166.409 57.8054 166.454 57.686 166.5C57.3276 166.621 56.9992 166.773 56.6409 166.879C56.3423 166.97 55.8944 166.895 55.5808 166.91L52.2216 167.016C51.3258 167.046 50.43 167.062 49.5343 166.925C49.161 166.864 48.6235 166.819 48.2802 166.637C48.0861 166.53 48.0861 166.394 48.1607 166.257V166.242Z" fill="#412409"/>
  <path d="M55.0284 163.009C55.0284 163.009 55.0732 162.964 55.0881 162.964C55.1478 162.949 55.2225 162.949 55.2822 162.979C55.4464 163.1 55.5957 163.222 55.7301 163.358C55.745 163.374 55.76 163.389 55.745 163.419C55.745 163.434 55.7002 163.465 55.6853 163.465C55.6555 163.465 55.6107 163.48 55.5808 163.465C55.5509 163.465 55.5211 163.465 55.4912 163.434C55.3419 163.298 55.1926 163.176 55.0433 163.055C55.0284 163.055 55.0135 163.025 55.0284 162.994V163.009Z" fill="#3C3C71"/>
  <path d="M54.491 163.419C54.491 163.419 54.5358 163.374 54.5507 163.374C54.6104 163.359 54.7 163.358 54.7448 163.389C54.8791 163.51 55.0135 163.647 55.133 163.783C55.133 163.799 55.133 163.829 55.133 163.844C55.118 163.859 55.0732 163.874 55.0434 163.874C54.9837 163.874 54.909 163.874 54.8642 163.829C54.8642 163.829 54.8344 163.799 54.8344 163.783C54.7298 163.662 54.6253 163.556 54.5208 163.465C54.5059 163.465 54.491 163.434 54.5059 163.404L54.491 163.419Z" fill="#3C3C71"/>
  <path d="M51.8038 149.442C51.4156 142.066 50.9528 134.705 50.5497 127.345C50.4601 125.812 50.1764 124.234 50.2063 122.716C50.2362 120.758 50.9379 117.784 53.1027 117.344C53.7148 117.222 54.3419 117.237 54.954 117.283C56.1484 117.359 57.298 117.48 58.3132 118.148C59.2836 118.785 60.5228 118.831 61.5978 119.241C62.3144 119.514 63.9865 120.045 64.2553 120.834C64.4344 121.365 64.2105 122.291 64.1956 122.853C64.1657 123.52 64.1508 124.173 64.1209 124.841C64.0761 126.161 64.0164 127.481 63.9567 128.802C63.9119 129.986 63.8522 131.169 63.8074 132.338C63.8074 132.459 63.8074 132.581 63.8074 132.702C63.7775 133.355 63.7626 133.992 63.7327 134.645C63.6432 137.194 63.5536 139.759 63.464 142.309C63.464 142.43 63.464 142.552 63.464 142.673C63.3744 145.648 63.2848 148.622 63.2102 151.597C63.2102 151.718 63.2102 151.84 63.2102 151.961C63.1355 154.951 63.0609 157.941 62.9862 160.93C62.9862 161.052 62.9862 161.173 62.9862 161.295C62.9564 162.311 62.9414 163.313 62.9116 164.33C62.9116 164.831 61.553 164.664 60.493 164.497C60.3138 164.466 60.1346 164.436 59.9704 164.406C59.7166 164.36 59.4927 164.33 59.3732 164.315C58.2385 164.208 57.1039 164.133 55.9692 164.072C55.7901 164.072 55.6258 164.057 55.4467 164.041C55.2974 164.041 53.1325 163.996 53.1475 164.041C53.0579 162.721 52.9982 161.279 53.8044 160.232C54.0881 159.868 54.4464 159.58 54.6554 159.185C55.0436 158.426 54.7898 157.485 54.3419 156.757C52.8489 154.313 52.0128 152.416 51.8635 149.472L51.8038 149.442Z" fill="#63848F"/>
  <path d="M74.1833 91.2099C74.049 94.9888 73.8997 98.7526 73.7653 102.531C73.6309 106.28 73.4816 110.044 73.3473 113.792C73.2726 115.917 73.198 118.027 73.1084 120.151C73.1084 120.258 73.3921 120.258 73.3921 120.151C73.5264 116.372 73.6757 112.609 73.8101 108.83C73.9445 105.081 74.0938 101.317 74.2281 97.5688C74.3028 95.4441 74.3774 93.3346 74.467 91.2099C74.467 91.1037 74.1833 91.1037 74.1833 91.2099V91.2099Z" fill="#364B52"/>
  <path d="M55.6704 97.5992C55.3121 98.9044 54.9836 100.21 54.6701 101.515C54.3565 102.835 54.0729 104.171 53.8041 105.506C53.5354 106.826 53.2965 108.162 53.0726 109.497C52.8486 110.833 52.6545 112.169 52.4754 113.519C52.2962 114.855 52.1469 116.205 52.0126 117.556C51.9976 117.723 51.9827 117.905 51.9678 118.072C51.9678 118.178 52.2514 118.178 52.2514 118.072C52.3709 116.737 52.5202 115.386 52.6993 114.05C52.8636 112.715 53.0577 111.364 53.2816 110.029C53.4906 108.693 53.7295 107.373 53.9982 106.052C54.252 104.732 54.5357 103.397 54.8492 102.076C55.1478 100.756 55.4763 99.4507 55.8346 98.1455C55.8794 97.9786 55.9242 97.8117 55.969 97.6447C55.9988 97.5233 55.7152 97.5081 55.6853 97.5992H55.6704Z" fill="#364B52"/>
  <path d="M53.5354 143.766C53.1323 140.048 52.8038 136.329 52.5799 132.611C52.4455 130.502 52.341 128.392 52.2813 126.283C52.2813 126.176 51.9827 126.176 51.9976 126.283C52.132 130.031 52.341 133.78 52.6545 137.528C52.9681 141.246 53.3712 144.965 53.8489 148.668C54.1326 150.762 54.4312 152.856 54.7596 154.936C54.7746 155.042 55.0582 155.042 55.0433 154.936C54.4461 151.233 53.9534 147.514 53.5354 143.781V143.766Z" fill="#364B52"/>
  <path d="M75.2285 144.874C74.8851 141.732 74.6164 138.591 74.3924 135.449C74.273 133.689 74.1685 131.913 74.0789 130.153C74.0789 130.046 73.7803 130.046 73.7952 130.153C73.9445 133.324 74.1535 136.481 74.4372 139.638C74.7059 142.779 75.0493 145.921 75.4375 149.047C75.6615 150.808 75.9003 152.553 76.1541 154.298C76.1691 154.404 76.4527 154.404 76.4378 154.298C75.975 151.157 75.5719 148.015 75.2285 144.874V144.874Z" fill="#364B52"/>
  <path d="M70.406 78.917C70.406 77.278 70.3612 75.6389 70.3015 73.9847C70.2716 73.0589 70.2269 72.1332 70.1821 71.2074C70.1821 71.1012 69.8835 71.1012 69.8984 71.2074C69.988 72.8617 70.0477 74.5007 70.0925 76.1549C70.1373 77.794 70.1522 79.433 70.1373 81.0873C70.1373 81.922 70.1373 82.7567 70.1074 83.5762C69.7043 83.2423 69.2116 83.0147 68.7637 82.7263C68.495 82.5594 68.2412 82.3773 68.0322 82.1344C67.7784 81.8461 67.6589 81.4818 67.5992 81.1024C67.5395 80.6775 67.5544 80.2374 67.5544 79.7973C67.5544 79.3116 67.5544 78.8412 67.5544 78.3555C67.5544 77.3994 67.5544 76.4433 67.5544 75.5023C67.5544 74.4248 67.5544 73.3473 67.5544 72.2546C67.5544 72.1484 67.2708 72.1484 67.2708 72.2546C67.2708 74.182 67.2708 76.1246 67.2708 78.052C67.2708 78.5376 67.2708 79.0233 67.2708 79.5089C67.2708 79.9642 67.2708 80.4195 67.3006 80.8748C67.3305 81.2694 67.4201 81.6791 67.644 82.013C67.8232 82.271 68.062 82.4835 68.3158 82.6656C68.913 83.0905 69.6297 83.3485 70.1224 83.8949C70.1671 83.9556 70.3911 83.9556 70.3911 83.8494C70.4209 82.1951 70.4359 80.5561 70.4209 78.9019L70.406 78.917Z" fill="#364B52"/>
  <path d="M69.0474 90.4967C68.4502 89.3736 67.7336 88.3264 66.8975 87.3855C66.6586 87.1123 66.4048 86.8543 66.151 86.5963C66.0764 86.5204 65.8076 86.5811 65.8972 86.6722C66.7781 87.5524 67.5694 88.5389 68.2263 89.6164C68.4204 89.92 68.5846 90.2235 68.7638 90.5422C68.8085 90.6332 69.0922 90.6029 69.0474 90.4967V90.4967Z" fill="#364B52"/>
  <path d="M87.5905 29.1687C87.5905 29.1687 87.5457 29.0928 87.5159 29.0473C86.6798 27.8787 85.5899 27.0744 84.4702 26.2093C83.2161 25.2229 81.529 24.1909 80.036 23.6293C78.1399 22.9312 76.5872 21.7778 74.497 21.5653C73.2131 21.4439 71.9142 21.6109 70.6302 21.7778C68.1519 22.0965 65.7929 22.5973 63.4938 23.5838C61.2543 24.5399 59.1193 26.2549 57.2531 27.818C56.4767 28.4706 55.7302 29.1535 55.2077 30.0338C53.8939 32.2192 54.3119 34.9965 54.7001 37.5309C56.3722 48.2455 56.85 59.1118 57.1187 69.9477C57.1486 71.0252 57.3128 72.3152 58.2683 72.7402C58.5818 72.8768 58.9401 72.8919 59.2835 72.9071C62.598 73.0437 65.8975 73.1955 69.2119 73.3321C71.9142 73.4535 74.6314 73.5597 77.3337 73.4838C78.8566 73.4383 80.3794 73.3169 81.9022 73.1803C83.1862 73.0589 85.0375 73.2106 86.1722 72.5125C86.2468 72.467 86.3215 72.4215 86.3663 72.3456C86.426 72.2545 86.4558 72.1331 86.4857 72.0269C86.7096 70.8887 86.5156 69.7656 86.5753 68.6122C86.635 67.2767 86.5902 65.9411 86.5156 64.6208C86.3812 62.314 86.5902 59.9616 86.7246 57.6397C87.0232 52.7377 87.486 47.8509 88.128 42.9944C88.561 39.7011 89.0686 36.3623 88.7252 33.0387C88.5759 31.6577 88.3669 30.2918 87.5905 29.1384V29.1687Z" fill="#DFEDE5"/>
  <path d="M68.6297 34.3439C68.5998 34.2073 68.5401 34.101 68.4356 34.0252C68.3012 33.9341 68.1071 33.9189 67.9728 33.9948C67.8683 34.0403 67.8085 34.1466 67.7787 34.2528C67.7787 34.2983 67.7637 34.3439 67.7488 34.3894C67.7488 34.4501 67.7339 34.4956 67.7339 34.5563C67.7339 34.6929 67.7936 34.8143 67.913 34.875C68.0325 34.9509 68.1967 34.9509 68.3311 34.9206C68.5849 34.8447 68.7043 34.5867 68.6446 34.3287L68.6297 34.3439Z" fill="#244753"/>
  <path d="M68.6297 42.4026C68.5998 42.266 68.5401 42.1598 68.4356 42.0839C68.3012 41.9928 68.1071 41.9776 67.9728 42.0535C67.8683 42.0991 67.8085 42.2053 67.7787 42.3115C67.7787 42.3571 67.7637 42.4026 67.7488 42.4481C67.7488 42.5088 67.7339 42.5543 67.7339 42.6151C67.7339 42.7516 67.7936 42.8731 67.913 42.9338C68.0325 43.0096 68.1967 43.0096 68.3311 42.9793C68.5849 42.9034 68.7043 42.6454 68.6446 42.3874L68.6297 42.4026Z" fill="#244753"/>
  <path d="M68.6297 50.446C68.5998 50.3095 68.5401 50.2032 68.4356 50.1273C68.3012 50.0363 68.1071 50.0211 67.9728 50.097C67.8683 50.1425 67.8085 50.2488 67.7787 50.355C67.7787 50.4005 67.7637 50.446 67.7488 50.4916C67.7488 50.5523 67.7339 50.5978 67.7339 50.6585C67.7339 50.7951 67.7936 50.9165 67.913 50.9772C68.0325 51.0531 68.1967 51.0531 68.3311 51.0227C68.5849 50.9469 68.7043 50.6889 68.6446 50.4309L68.6297 50.446Z" fill="#244753"/>
  <path d="M69.1372 58.5047C69.1074 58.3681 69.0477 58.2619 68.9432 58.186C68.8088 58.095 68.6147 58.0798 68.4803 58.1557C68.3758 58.2012 68.3161 58.3074 68.2862 58.4137C68.2862 58.4592 68.2713 58.5047 68.2564 58.5503C68.2564 58.611 68.2415 58.6565 68.2415 58.7172C68.2415 58.8538 68.3012 58.9752 68.4206 59.0359C68.5401 59.1118 68.7043 59.1118 68.8387 59.0814C69.0925 59.0056 69.2119 58.7475 69.1522 58.4895L69.1372 58.5047Z" fill="#244753"/>
  <path d="M69.1372 66.5634C69.1074 66.4268 69.0477 66.3206 68.9432 66.2447C68.8088 66.1536 68.6147 66.1384 68.4803 66.2143C68.3758 66.2599 68.3161 66.3661 68.2862 66.4723C68.2862 66.5179 68.2713 66.5634 68.2564 66.6089C68.2564 66.6696 68.2415 66.7152 68.2415 66.7759C68.2415 66.9124 68.3012 67.0339 68.4206 67.0946C68.5401 67.1704 68.7043 67.1704 68.8387 67.1401C69.0925 67.0642 69.2119 66.8062 69.1522 66.5482L69.1372 66.5634Z" fill="#244753"/>
  <path d="M75.6317 22.0814C75.6317 22.1724 75.5869 22.2331 75.5421 22.309C74.5418 23.8267 72.9891 24.8586 71.7499 26.1942C70.4063 27.6511 69.4358 29.4571 67.8831 30.6712C67.5845 29.791 67.1068 28.9411 66.8231 28.0609C66.5245 27.1655 66.2856 26.2245 66.0169 25.3139C65.7482 24.4489 65.4943 23.5838 65.2256 22.7188C65.2256 22.7188 65.2256 22.6884 65.2256 22.6732C65.0017 21.96 64.7926 21.2467 64.5687 20.5182C64.5239 20.3664 64.4791 20.2298 64.4343 20.0781C64.509 19.7594 64.6135 19.4559 64.718 19.1523C64.8524 18.7881 65.0464 18.439 65.2853 18.1203C65.5839 17.832 65.9124 17.5892 66.2558 17.3615C66.4051 17.2553 66.5544 17.149 66.6887 17.0428C66.7634 16.9821 66.853 16.9214 66.9425 16.8759C67.6592 16.4054 68.2713 16.2992 68.8088 15.6314C69.3612 14.9485 70.5406 14.5691 71.3021 15.1609C71.5857 15.3886 71.7798 15.6921 71.959 15.9956C72.168 16.3447 72.3919 16.6937 72.601 17.0428C72.9742 17.6499 73.3474 18.2569 73.7207 18.864C74.3328 19.8504 74.93 20.8369 75.5421 21.8234C75.5869 21.8993 75.6317 21.9751 75.6317 22.051V22.0814Z" fill="#FCD9BA"/>
  <path d="M70.8691 19.3648C70.675 20.1691 70.0928 21.0342 69.5852 21.6564C68.7491 22.6429 67.6443 23.0375 66.3902 22.9616C65.9871 22.9313 65.5541 22.8705 65.2107 22.6733C64.9868 21.96 64.7777 21.2467 64.5538 20.5182C64.509 20.3664 64.4642 20.2299 64.4194 20.0781C64.4941 19.7594 64.5986 19.4559 64.7031 19.1523C64.8375 18.7881 65.0316 18.439 65.2704 18.1203C65.3302 18.0445 65.3899 17.9837 65.4496 17.9079C65.6735 17.665 65.9572 17.5133 66.2409 17.3463C66.4797 17.2098 66.7336 17.0732 66.9276 16.891C67.3905 16.4661 68.0922 16.4509 68.7192 16.4661C69.2866 16.4813 69.8838 16.5116 70.3466 16.8607C70.5556 17.0125 70.7049 17.2401 70.8094 17.4678C70.8841 17.6347 70.9288 17.8168 70.9587 17.9989C71.0184 18.439 70.9587 18.8943 70.8542 19.3344L70.8691 19.3648Z" fill="#E6C1A0"/>
  <path d="M71.8394 9.66707C71.6603 8.83236 71.3617 8.05837 71.1377 7.23884C70.7645 5.84261 69.6149 4.46156 68.525 3.55098C68.4205 3.45992 68.316 3.38404 68.2115 3.30815C67.3903 2.73145 66.3303 2.30651 65.3151 2.27616C64.1207 2.24581 62.8367 2.88322 61.8215 3.44474C61.0004 3.88486 60.1942 4.40086 59.5372 5.05344C59.0296 5.56944 58.5967 6.32826 58.522 7.05673C58.4474 7.70931 58.2981 8.45295 58.4623 9.07519C58.6414 9.7733 58.746 10.5169 58.9251 11.2151C59.2834 12.7023 59.7761 14.1441 60.2688 15.5859C60.6271 16.6482 61.0004 17.7257 61.5229 18.7122C62.0604 19.7442 62.8218 20.7458 63.7325 21.4743C64.5985 22.1724 66.1512 22.2787 67.2112 22.1421C68.6295 21.96 69.8239 20.67 70.5256 19.4862C71.6752 17.5284 72.3769 15.085 72.347 12.8238C72.347 12.3685 72.1977 12.0042 72.1231 11.5641C72.0186 10.9874 71.9887 10.3804 71.8842 9.80365C71.8842 9.75812 71.8693 9.7126 71.8544 9.65189L71.8394 9.66707Z" fill="#FCD9BA"/>
  <path d="M69.7195 10.001C69.4507 9.54567 69.1671 9.25732 68.6744 8.86274C67.9727 8.30121 67.1366 7.75486 66.2707 7.93697C65.9571 7.99768 65.6735 8.16462 65.3749 8.25568C64.4194 8.55921 63.5833 8.04321 62.7622 7.63345C61.956 7.23886 61.299 6.54075 60.9557 5.69087C60.9407 5.64534 60.9109 5.59981 60.8661 5.58463C60.8362 5.58463 60.7914 5.59981 60.7616 5.63016C60.3435 6.02475 60.3137 6.67733 60.3137 7.25404C60.3137 7.83074 60.3137 8.46815 59.9703 8.92344C59.6568 9.31803 59.4179 9.50014 59.3432 10.0465C59.2686 10.6687 59.2835 11.3972 58.8207 11.807C58.4325 12.1408 57.8502 12.1105 57.3426 12.0498C57.1635 12.0346 56.9843 12.0043 56.8201 11.9132C56.4319 11.6855 56.4767 11.3061 56.3423 10.9571C56.1632 10.4866 55.8496 10.1679 55.8347 9.62156C55.8347 9.24215 55.9542 8.87791 56.0587 8.51368C56.2229 7.83074 56.2677 7.13263 56.4767 6.44969C56.6857 5.76675 57.059 5.43287 57.5218 4.94722C57.895 4.56781 57.9697 4.02146 58.2235 3.56617C58.5818 2.91359 59.597 2.29135 60.2987 2.16994C60.7466 2.09406 61.1945 2.09406 61.6275 1.9423C62.1053 1.76018 62.5084 1.38077 62.9563 1.15312C64.1656 0.530892 65.5988 0.940655 66.9574 1.01654C67.5845 1.04689 68.2265 1.01654 68.8535 1.07724C69.6299 1.15312 70.4062 1.41112 71.0333 1.86642C71.6753 2.32171 72.153 3.01982 72.3173 3.79382C72.377 4.1277 72.3919 4.46158 72.4815 4.78028C72.6009 5.17487 72.8547 5.49357 73.0787 5.84263C73.4967 6.48004 74.0043 7.28439 74.0342 8.05839C74.0641 8.95379 73.9446 9.83402 73.7057 10.6991C73.5415 11.3365 73.3474 11.9739 73.1235 12.5961C73.0488 12.839 72.9294 13.1121 72.6756 13.1577C72.2277 13.2639 71.8843 12.6417 71.6006 12.3988C71.4065 12.2319 71.1677 12.1257 70.9736 11.9587C70.451 11.5338 70.1674 10.9115 69.8986 10.3045C69.8389 10.1831 69.7941 10.0768 69.7344 9.98579L69.7195 10.001Z" fill="#553A12"/>
  <path d="M70.884 10.9571C71.9888 9.56085 73.1384 11.2151 73.1981 12.414C73.2429 13.1577 73.0488 13.9013 72.8248 14.6298C72.6457 15.252 72.2575 16.1322 71.4513 15.9501C71.1378 15.8742 70.9437 15.6011 70.8093 15.3279C70.2718 14.3111 70.1375 12.8997 70.451 11.7766C70.5406 11.4883 70.6749 11.1999 70.869 10.9571H70.884Z" fill="#FCD9BA"/>
  <path d="M61.1198 11.6855C60.7167 11.8525 60.3435 12.1105 60.0598 12.4899C59.9403 12.6568 59.7911 12.8541 59.7015 13.0362C59.5522 13.3094 59.7761 13.2184 59.8956 13.1273C60.0896 12.9907 60.2539 12.8086 60.4629 12.6872C60.6719 12.5658 60.8959 12.4595 61.1198 12.3837C61.5826 12.2167 62.0753 12.1408 62.568 12.156C62.6128 12.156 62.792 12.1257 62.7472 12.0194C62.5979 11.6704 62.4336 11.6097 62.135 11.5641C61.8514 11.5186 61.5528 11.5641 61.284 11.64C61.2243 11.6552 61.1795 11.6704 61.1347 11.7007L61.1198 11.6855Z" fill="#553A12"/>
  <path d="M66.3305 10.2741C66.7933 10.1831 67.286 10.1983 67.7637 10.35C67.9728 10.4107 68.2116 10.5018 68.4057 10.608C68.6894 10.7446 68.4356 10.8053 68.2714 10.7901C68.0026 10.7901 67.7637 10.7294 67.495 10.7446C67.2263 10.7446 66.9725 10.7901 66.7187 10.8509C66.1961 10.9723 65.6885 11.1847 65.2406 11.4731C65.2107 11.5034 65.0167 11.5641 65.0017 11.4731C64.9569 11.0937 65.0614 10.9419 65.3302 10.7446C65.584 10.5473 65.8677 10.4107 66.1663 10.3349C66.226 10.3197 66.2857 10.3045 66.3454 10.2893L66.3305 10.2741Z" fill="#553A12"/>
  <path d="M62.2992 14.1138C62.2246 13.8406 62.0902 13.5219 61.7916 13.4915C61.6423 13.4764 61.493 13.5371 61.4034 13.6585C61.3736 13.6888 61.3586 13.7344 61.3437 13.7647C61.3288 13.7951 61.3138 13.8254 61.2989 13.8406C61.2243 14.0227 61.2243 14.2352 61.2989 14.4325C61.3288 14.5994 61.3885 14.736 61.5378 14.8422C61.6722 14.9333 61.8662 14.9637 62.0006 14.8726C62.0305 14.8574 62.0603 14.8271 62.0902 14.7967C62.1798 14.736 62.2544 14.6601 62.2992 14.5539C62.3589 14.4173 62.344 14.2655 62.2992 14.129V14.1138Z" fill="#553A12"/>
  <path d="M67.4204 12.5961C67.3457 12.3078 67.2114 11.9739 66.8978 11.9435C66.7485 11.9284 66.5843 11.9891 66.4947 12.1105C66.4649 12.1408 66.4499 12.1864 66.435 12.2319C66.4201 12.2623 66.4051 12.2926 66.3902 12.323C66.3156 12.5202 66.3156 12.7327 66.3902 12.93C66.4201 13.097 66.4798 13.2487 66.6291 13.355C66.7635 13.446 66.9725 13.4764 67.1068 13.3853C67.1367 13.355 67.1666 13.3246 67.1964 13.2942C67.286 13.2335 67.3756 13.1425 67.4054 13.0514C67.4652 12.9148 67.4502 12.7479 67.4054 12.6113L67.4204 12.5961Z" fill="#553A12"/>
  <path d="M63.867 16.026C63.867 15.7528 63.8969 15.4949 63.8969 15.2217C63.8969 14.6601 63.8222 14.0986 63.7028 13.5523C63.5833 13.0211 63.4191 12.4747 63.0309 12.0953C62.9563 12.0195 63.2101 11.9284 63.2847 11.9891C63.6132 12.323 63.7774 12.7783 63.9118 13.2336C64.0611 13.7496 64.1357 14.2959 64.1656 14.8271C64.1656 15.0699 64.1656 15.3279 64.1656 15.5707C64.1656 15.7984 64.1059 16.0412 64.1656 16.2537C64.2402 16.5572 64.4791 16.5724 64.7329 16.5876C65.0017 16.6179 65.2704 16.6331 65.5391 16.6634C65.7183 16.6634 65.5391 16.8304 65.4346 16.8304C65.151 16.8152 64.8673 16.7848 64.5836 16.7545C64.3895 16.7393 64.1507 16.7241 64.0014 16.5724C63.867 16.4358 63.8521 16.2233 63.8521 16.026H63.867Z" fill="#E6C1A0"/>
  <path d="M67.1516 17.3615C67.0471 17.3312 66.9426 17.316 66.9127 17.3312C66.5843 17.4222 66.3155 17.6651 66.0169 17.832C65.5989 18.0748 65.1212 18.1659 64.6434 18.1355C64.509 18.1355 64.3448 18.1052 64.2552 18.2266C64.0163 18.5453 64.718 18.8792 64.942 18.9551C65.3899 19.1068 65.9124 19.0765 66.3305 18.8792C66.644 18.7274 66.9127 18.4846 67.0919 18.1962C67.1964 18.0445 67.2561 17.8624 67.3158 17.6954C67.3905 17.4829 67.3606 17.4526 67.1367 17.3919L67.1516 17.3615Z" fill="#E9B8A2"/>
  <path d="M65.4944 7.43613C64.942 7.40577 64.3896 7.32989 63.9118 7.01119C63.4639 6.72284 63.1355 6.26754 62.8219 5.82743C62.7771 5.76672 62.7025 5.76672 62.6428 5.76672C62.6129 5.76672 62.5084 5.81225 62.5383 5.87296C62.8817 6.34343 63.24 6.82907 63.7327 7.1326C64.2552 7.46648 64.8823 7.54236 65.4944 7.58789C65.5392 7.58789 65.6437 7.57272 65.6437 7.51201C65.6437 7.4513 65.5392 7.43613 65.4944 7.43613V7.43613Z" fill="#412409"/>
  <path d="M66.9575 6.40415C66.9575 6.40415 66.8082 6.35862 66.7634 6.37379C66.1363 6.60144 65.4048 6.51038 64.8673 6.10062C64.8076 6.05509 64.7329 6.05509 64.6732 6.07026C64.6284 6.07026 64.5687 6.13097 64.6284 6.1765C65.2853 6.66214 66.1662 6.78356 66.9276 6.51038C66.9724 6.4952 67.0172 6.44967 66.9724 6.40415H66.9575Z" fill="#412409"/>
  <path d="M71.1678 3.58133C70.8543 3.15639 70.4213 2.71628 69.854 2.80733C69.8092 2.80733 69.7346 2.85286 69.7495 2.91357C69.7794 2.97427 69.8839 2.97427 69.9287 2.97427C70.1526 2.94392 70.3467 3.08051 70.5109 3.2171C70.6901 3.36886 70.8394 3.56615 70.9737 3.76345C71.2574 4.15803 71.4814 4.59815 71.4814 5.09897C71.4814 5.20521 71.765 5.20521 71.765 5.09897C71.765 4.53744 71.4963 4.03662 71.1529 3.59651L71.1678 3.58133Z" fill="#412409"/>
  <path d="M72.4217 24.5855C72.0485 25.0104 71.6304 25.3898 71.2124 25.7693C70.7794 26.1487 70.3017 26.5129 69.8986 26.9227C69.4358 27.378 69.2417 28.0761 68.9879 28.6528C68.6893 29.3509 68.3757 30.049 68.0771 30.7623C68.5848 30.7623 69.0177 30.4132 69.3611 30.0338C69.7493 29.6241 70.0777 29.1839 70.3763 28.7135C70.6003 28.3341 71.0034 28.0305 71.4662 28.2127C71.8693 28.3796 72.0186 28.8804 72.3322 29.1839C72.3769 29.2295 72.4367 29.275 72.4964 29.2902C72.6009 29.3054 72.6905 29.2447 72.7651 29.1839C73.1832 28.8652 73.5564 28.501 73.9147 28.1368C75.2733 26.7557 76.4976 25.2533 77.6024 23.6597C77.7815 23.3866 78.1249 23.0072 78.1697 22.6733C78.2145 22.3697 77.8263 22.1573 77.5875 22.0055C77.05 21.6413 76.4976 21.2619 75.9601 20.8976C75.8108 20.7914 75.6466 20.6852 75.4823 20.6396C75.2435 20.5789 75.0942 20.7307 74.9449 20.9128C74.3925 21.6261 73.8251 22.3546 73.3623 23.1286C73.1831 23.4473 73.004 23.7811 72.8099 24.0847C72.6905 24.2668 72.5561 24.4489 72.4068 24.6007L72.4217 24.5855Z" fill="#DFEDE5"/>
  <path d="M77.9905 22.8402C77.2888 23.7508 76.5721 24.6462 75.8704 25.5568C75.5271 25.9969 75.1687 26.4522 74.8253 26.8923C74.482 27.3324 74.1386 27.7877 73.7653 28.1823C73.407 28.5769 73.0039 28.9108 72.5709 29.2143C72.2126 28.8197 71.8245 28.41 71.4213 28.0609C71.2123 27.894 70.9884 27.7422 70.7346 27.636C70.4509 27.5146 70.1523 27.4235 69.8686 27.3173C69.8089 27.3021 69.7193 27.3021 69.6746 27.3476C69.6298 27.3931 69.6746 27.4387 69.7193 27.4538C69.9881 27.5449 70.2717 27.636 70.5405 27.7574C70.7943 27.8636 71.0033 28.0154 71.2123 28.1975C71.6453 28.5617 72.0335 28.9867 72.4067 29.3964C72.4366 29.4268 72.5112 29.442 72.5859 29.4268C72.6157 29.4268 72.6605 29.4268 72.6755 29.4116C73.0935 29.1233 73.4966 28.8045 73.8549 28.4403C74.2431 28.0457 74.5715 27.6208 74.9149 27.1807C75.6166 26.2701 76.3333 25.3747 77.035 24.4641C77.4381 23.9481 77.8412 23.4321 78.2443 22.9313C78.3339 22.825 78.0651 22.7643 77.9905 22.8554V22.8402Z" fill="#63848F"/>
  <path d="M67.3455 28.2582C67.3455 28.3493 67.3455 28.4403 67.3754 28.5466C67.4948 29.3964 67.7337 30.2463 68.0622 31.0355C67.8233 31.0355 67.6292 30.8382 67.4799 30.6409C66.9126 29.8972 66.6886 28.9563 66.4348 28.0457C66.405 27.9243 66.3602 27.7877 66.2557 27.7118C65.9869 27.5297 65.2852 28.4555 65.1061 28.6528C64.7179 29.0625 64.2999 29.4875 63.7474 29.6696C63.5683 29.7303 63.1801 27.0289 63.1503 26.7709C63.001 25.7086 62.9562 24.631 62.986 23.5535C62.986 23.4928 62.986 23.4169 63.0159 23.3562C63.0457 23.3107 63.0905 23.2652 63.1204 23.2348C63.5683 22.8706 64.0162 22.567 64.5686 22.4153C64.7179 22.3698 64.8821 22.3546 65.0016 22.4153C65.1359 22.4912 65.1956 22.6581 65.2404 22.8099C65.4644 23.5232 65.7182 24.2365 66.0168 24.9194C66.2557 25.4809 66.4945 26.0273 66.9126 26.4977C67.3903 27.0289 67.3008 27.636 67.3306 28.2582H67.3455Z" fill="#DFEDE5"/>
  <path d="M67.0023 27.1503C67.0023 27.1503 66.8679 27.0896 66.8231 27.0896C66.196 27.1655 65.7481 27.6967 65.3301 28.1064C64.8524 28.5617 64.3895 29.017 63.9118 29.4571C63.6281 28.0761 63.3295 26.6799 63.2698 25.2684C63.2549 24.8587 63.2549 24.4337 63.2698 24.024C63.2698 23.9177 62.9861 23.9177 62.9861 24.024C62.8965 25.4809 63.1205 26.9227 63.3892 28.3493C63.4639 28.759 63.5535 29.1688 63.643 29.5785C63.643 29.6241 63.7028 29.6392 63.7475 29.6544C63.7475 29.6848 63.7923 29.7 63.8222 29.7151C63.8819 29.7303 63.9715 29.7303 64.0163 29.6848L65.4943 28.2734C65.7183 28.0609 65.9422 27.8333 66.1811 27.636C66.3901 27.4538 66.629 27.2869 66.8977 27.2566C66.9425 27.2566 67.0172 27.211 67.0023 27.1503V27.1503Z" fill="#63848F"/>
  <path d="M10 95.8539C12.12 96.8555 14.4491 97.2653 16.7632 97.584C18.301 97.7813 18.5249 97.8268 18.719 96.2484C18.8833 94.8522 18.943 93.4408 19.0027 92.0446C19.1669 88.5237 19.3311 85.0027 19.4954 81.4666C19.7193 76.5039 19.9582 71.5413 19.9134 66.5786C19.8836 62.5568 19.6297 58.3985 17.8083 54.832C17.241 53.709 16.5691 53.7697 16.2705 54.7562C15.9122 55.9399 15.8525 57.5031 15.5838 58.7627C14.9716 61.7525 14.3894 64.7422 13.8519 67.732C12.7919 73.6356 11.8961 79.5848 11.1496 85.5339C10.7166 88.9638 10.3434 92.4088 10.0149 95.8539H10Z" fill="#67762E"/>
  <path d="M17.6739 39.9895C15.4942 48.5793 14.8522 57.7914 14.3147 66.6544C13.7325 76.0335 13.6279 85.5035 14.2102 94.8825C16.9125 95.3682 19.4804 96.0208 22.3022 96.2788C25.8107 96.5975 29.3341 96.8403 32.8426 96.9921C31.708 78.4617 31.2452 59.8858 31.4691 41.3099C31.5139 37.4854 31.6781 32.5227 29.0206 29.4419C25.9152 25.8451 22.1081 30.8988 20.4061 33.5395C19.1371 35.5125 18.2562 37.713 17.6739 39.9895V39.9895Z" fill="#67762E"/>
  <path d="M43.0099 21.9296C43.8758 21.3377 44.6671 20.6396 45.3688 19.8504C45.6973 19.4862 45.9511 19.0309 46.2944 18.6666C46.7125 18.2265 47.1156 17.7864 47.4888 17.3008C47.8024 16.891 47.9964 16.4509 48.3249 16.0411C48.5339 15.7831 48.7429 15.5403 48.9072 15.252C49.2953 14.5538 49.3103 13.704 49.2953 12.8996C49.2953 11.989 49.2506 11.0784 49.0266 10.1982C48.5638 8.27081 46.5483 6.57105 44.8761 5.73635C44.5327 5.55424 44.1595 5.40247 43.7862 5.31141C43.0248 5.1293 42.2186 5.19 41.4422 5.25071C38.8445 5.46318 36.1123 6.64694 35.0373 9.22693C34.4551 10.6232 34.3804 12.1863 34.6492 13.6888C34.9179 15.1761 35.5002 16.5875 36.1869 17.923C36.2467 18.0292 36.2915 18.1355 36.3064 18.2569C36.3064 18.3935 36.2616 18.5149 36.2019 18.6363C35.4255 20.3512 34.4103 22.0055 34.2461 23.8873C34.2013 24.3881 34.2162 24.9041 34.4551 25.3443C34.5894 25.6023 34.7985 25.7996 35.0224 25.9817C35.3807 26.27 35.7838 26.5128 36.2317 26.5736C38.1875 26.8771 37.4709 24.0087 39.0833 23.7356C40.4867 23.4927 41.8454 22.7643 43.0248 21.9296H43.0099Z" fill="#B36332"/>
  <path d="M52.6096 74.8801C52.9978 76.1397 53.1023 77.5056 53.1919 78.7956C53.4158 81.9674 53.5203 85.1393 53.5054 88.3112C53.5054 91.3009 52.953 94.2451 52.4603 97.1894C51.3704 103.579 50.1014 109.922 48.6532 116.236C48.4143 117.283 48.1605 118.345 47.5932 119.256C46.4585 121.031 44.0548 121.836 42.099 121.092C41.5615 120.88 41.0241 120.546 40.7703 120.015C40.5911 119.635 40.5612 119.18 40.5463 118.755C40.4269 114.764 40.6807 110.757 40.6658 106.766C40.6658 99.3748 39.77 92.0142 38.6801 84.7144C38.1575 81.2541 36.9482 77.7484 37.4708 74.2123C37.7246 72.467 38.5159 70.7369 39.9342 69.7049C41.0539 68.9006 42.4424 68.6122 43.801 68.506C44.8162 68.4149 45.8763 68.4301 46.8467 68.7791C47.8321 69.1282 48.6681 69.796 49.4445 70.5093C50.5045 71.4957 51.6541 72.6339 52.2662 73.9695C52.4006 74.2578 52.5051 74.5462 52.5947 74.8497L52.6096 74.8801Z" fill="#FCD9BA"/>
  <path d="M49.3698 115.462C49.4892 116.327 49.4743 117.222 49.4743 118.087C49.3996 127.208 48.474 136.299 46.9959 145.283C46.4435 148.607 45.8165 151.931 45.0998 155.224C45.0401 155.497 44.9804 155.77 44.8162 155.983C44.4429 156.468 43.3381 156.043 42.7857 156.043C41.8899 156.028 41.0837 156.484 40.9941 155.254C40.5313 147.924 39.9938 140.624 39.4862 133.309C39.1727 128.832 38.7845 124.37 39.3071 119.893C39.74 116.236 41.1733 111.546 45.5925 111.273C47.0407 111.182 48.3545 112.351 48.9219 113.716C49.1607 114.278 49.2951 114.87 49.3698 115.462Z" fill="#FCD9BA"/>
  <path d="M46.6375 164.998C46.5032 165.347 46.115 165.62 45.8463 165.847C45.4879 166.181 45.1147 166.5 44.7414 166.819C44.6519 166.895 44.5623 166.97 44.4429 166.986C44.3533 166.986 44.2637 166.986 44.1741 166.955C43.3679 166.728 42.5766 166.5 41.7704 166.272C40.6805 165.969 40.0983 165.438 40.158 164.254C40.1729 163.996 40.1878 163.738 40.2028 163.465C40.2924 162.023 40.3819 160.566 40.4715 159.124C40.576 157.637 40.6805 156.134 41.0986 154.708C41.4718 153.403 42.2332 153.114 43.4724 152.856C43.6516 152.826 43.8307 152.78 44.0099 152.811C44.189 152.841 44.3533 152.932 44.4876 153.038C45.055 153.479 45.2341 154.177 45.1147 154.86C44.9654 155.755 45.0848 156.711 45.2341 157.607C45.2789 157.865 45.3237 158.107 45.3834 158.365C45.7268 160.02 46.2643 161.644 46.5778 163.313C46.5778 163.328 46.5778 163.358 46.5778 163.374C46.6674 163.859 46.7868 164.497 46.6077 164.967L46.6375 164.998Z" fill="#FCD9BA"/>
  <path d="M46.6375 164.998C46.5032 165.347 46.115 165.62 45.8463 165.847C45.4879 166.181 45.1147 166.5 44.7414 166.819C44.6519 166.895 44.5623 166.97 44.4429 166.986C44.3533 166.986 44.2637 166.986 44.1741 166.955C43.3679 166.728 42.5766 166.5 41.7704 166.272C40.6805 165.969 40.0983 165.438 40.158 164.254C40.1729 163.996 40.1878 163.738 40.2028 163.465C40.7104 163.495 41.2628 163.692 41.5763 163.783C42.2482 163.981 42.9349 164.117 43.6217 164.148C43.98 164.148 44.3383 164.132 44.6817 164.057C45.3536 163.92 45.9657 163.616 46.5927 163.374C46.6823 163.859 46.8018 164.497 46.6226 164.967L46.6375 164.998Z" fill="#B14B4D"/>
  <path d="M45.294 154.404C45.4731 154.404 45.6224 154.45 45.7269 154.571C45.9359 154.829 45.8016 155.391 45.6523 155.634C45.3238 156.165 44.3534 156.074 43.8159 156.074C43.0097 156.074 42.2184 155.998 41.4271 155.846C41.0539 155.77 40.7702 155.846 40.6359 155.452C40.5313 155.178 40.606 154.784 40.6359 154.495C40.6657 153.919 41.9198 154.344 42.2931 154.389C43.0843 154.465 43.8906 154.48 44.6968 154.45C44.861 154.45 45.0999 154.389 45.3089 154.404H45.294Z" fill="#B14B4D"/>
  <path d="M34.3803 159.109C34.2907 159.746 34.0966 160.354 33.7383 160.885C33.2456 161.613 32.9022 162.493 32.514 163.298C32.6186 163.085 32.4245 162.448 32.4095 162.205C32.3797 161.826 32.3647 161.446 32.3647 161.052C32.3647 160.278 32.4095 159.488 32.514 158.73C32.6783 157.591 32.7828 156.241 33.8279 155.558C33.8727 155.527 33.9174 155.497 33.9772 155.512C34.0518 155.512 34.0817 155.588 34.1115 155.664C34.5445 156.605 34.5296 157.683 34.44 158.714C34.44 158.851 34.4101 158.988 34.3952 159.124L34.3803 159.109Z" fill="#FFF4E4"/>
  <path d="M39.1131 74.6979C38.919 73.5294 38.6951 72.3456 38.1128 71.3288C35.8285 67.3829 29.0355 67.4284 26.7661 71.2984C25.1388 74.0605 25.4971 77.6877 25.4672 80.981C25.3627 90.0109 27.0797 98.449 29.3191 107.145C30.2597 110.833 31.2152 114.521 32.1558 118.209C32.3947 119.165 32.6783 120.166 33.4099 120.819C34.1564 121.487 35.2015 121.623 36.1869 121.654C37.8291 121.699 39.5909 121.441 40.8151 120.333C42.338 118.952 42.6365 116.676 42.7411 114.612C43.3383 101.348 41.3675 87.7648 39.128 74.7131L39.1131 74.6979Z" fill="#FCD9BA"/>
  <path d="M31.5736 121.73C31.3198 122.61 31.0809 123.49 30.8868 124.386C30.1403 127.861 29.8567 131.427 29.6178 134.963C29.3043 139.456 29.0206 143.963 29.2147 148.455C29.3043 150.55 29.7671 152.72 29.7372 154.799C29.7074 156.317 29.6029 158.001 31.2451 158.715C32.4395 159.231 33.3204 158.457 33.5742 157.303C34.2759 154.025 34.9776 150.732 35.6793 147.454C36.8438 141.99 38.0084 136.527 39.4416 131.139C40.1433 128.483 41.1436 125.873 41.8005 123.217C42.0394 122.215 42.0842 121.198 42.338 120.182C42.6665 118.876 42.98 117.556 42.98 116.205C42.98 115.143 42.6515 113.914 41.6811 113.519C40.0836 112.851 39.4118 111.349 37.2917 111.698C35.754 111.956 34.1565 113.322 33.7235 114.87C33.0815 117.177 32.2604 119.423 31.5885 121.714L31.5736 121.73Z" fill="#FCD9BA"/>
  <path d="M26.5273 164.39C26.602 164.755 26.9454 165.089 27.1693 165.362C27.4829 165.741 27.7815 166.121 28.095 166.515C28.1696 166.606 28.2443 166.697 28.3637 166.728C28.4533 166.758 28.5429 166.743 28.6325 166.728C29.4536 166.637 30.2897 166.546 31.1108 166.47C32.2305 166.348 32.9024 165.938 33.0218 164.755C33.0517 164.497 33.0815 164.239 33.1114 163.981C33.2607 162.539 33.41 161.097 33.5593 159.655C33.7086 158.183 33.843 156.681 33.6638 155.194C33.4996 153.843 32.7979 153.433 31.6184 152.978C31.4542 152.917 31.275 152.841 31.0959 152.841C30.9167 152.841 30.7376 152.902 30.5883 152.978C29.9612 153.312 29.6626 153.979 29.6626 154.662C29.6626 155.573 29.3939 156.499 29.0953 157.349C29.0057 157.591 28.9161 157.834 28.8265 158.062C28.2144 159.64 27.4231 161.143 26.8409 162.736V162.797C26.6468 163.267 26.4228 163.874 26.5273 164.36V164.39Z" fill="#FCD9BA"/>
  <path d="M26.5273 164.39C26.6019 164.755 26.9453 165.089 27.1693 165.362C27.4828 165.741 27.7814 166.121 28.0949 166.515C28.1696 166.606 28.2442 166.697 28.3637 166.728C28.4532 166.758 28.5428 166.743 28.6324 166.728C29.4535 166.637 30.2896 166.546 31.1107 166.47C32.2305 166.348 32.9023 165.938 33.0218 164.755C33.0516 164.497 33.0815 164.239 33.1113 163.981C32.6037 163.935 32.0364 164.026 31.7079 164.072C31.0212 164.148 30.3045 164.178 29.6327 164.072C29.2744 164.026 28.931 163.935 28.6025 163.799C27.9755 163.556 27.4081 163.146 26.8259 162.797C26.6617 163.267 26.4377 163.874 26.5273 164.36V164.39Z" fill="#B14B4D"/>
  <path d="M29.7821 153.752C29.6179 153.721 29.4387 153.752 29.3193 153.843C29.0655 154.055 29.1103 154.647 29.2297 154.905C29.4686 155.482 30.439 155.558 30.9765 155.664C31.7678 155.801 32.574 155.861 33.3653 155.846C33.7535 155.846 34.0222 155.937 34.2163 155.588C34.3656 155.33 34.3507 154.936 34.3805 154.647C34.4402 154.086 33.1413 154.283 32.7681 154.253C31.9619 154.192 31.1706 154.071 30.3942 153.904C30.23 153.873 30.0061 153.782 29.7971 153.752H29.7821Z" fill="#B14B4D"/>
  <path d="M42.771 107.631C42.5769 104.808 42.3679 102 42.1738 99.1775C41.9499 96.0208 41.7259 92.8641 41.502 89.7226C41.502 89.6164 41.2034 89.6164 41.2183 89.7226C41.6214 95.3227 42.0245 100.923 42.4276 106.538C42.6217 109.346 42.8158 112.153 42.6217 114.976C42.4276 117.708 41.9648 120.424 41.4423 123.111C40.8451 126.176 40.1434 129.212 39.3372 132.217C39.3073 132.338 39.591 132.353 39.6208 132.262C40.3375 129.606 40.9645 126.935 41.5169 124.249C42.0693 121.532 42.5769 118.801 42.8307 116.038C43.0995 113.231 42.995 110.438 42.8009 107.631H42.771Z" fill="#E6C1A0"/>
  <path d="M48.937 61.8132C45.5032 62.314 42.0245 62.572 38.5608 62.6024C37.1275 62.6024 35.7689 62.6479 34.3506 62.7996C33.3503 62.9059 31.8722 63.1487 31.066 62.2988C29.0206 60.1741 28.2293 56.9871 27.5276 53.967C26.4079 49.0802 25.2732 44.2086 24.1535 39.3218C23.6608 37.2122 23.183 35.042 23.4518 32.887C23.7355 30.6105 24.9 28.85 26.811 28.0457C28.7967 27.211 30.9316 27.3172 32.9173 26.5432C33.7982 26.1942 34.6044 25.6326 35.5151 25.3291C36.59 24.9801 37.7247 24.9952 38.8295 25.0104C39.6059 25.0104 40.3822 25.0408 41.1287 25.2229C42.0394 25.4505 42.8904 25.9058 43.7713 26.27C44.8313 26.7102 45.9361 26.9985 47.0559 27.1351C48.8325 27.3476 50.848 27.2565 52.132 28.6224C53.4906 30.049 53.1771 32.4165 53.0726 34.3135C52.8188 38.4112 52.8486 42.5543 52.4903 46.6823C52.1171 51.0228 51.5796 55.348 50.9078 59.643C50.8032 60.3411 50.639 61.1302 50.0866 61.4945C49.8328 61.6614 49.5193 61.7221 49.2207 61.7676C49.146 61.7676 49.0565 61.798 48.9818 61.798L48.937 61.8132Z" fill="#FCD9BA"/>
  <path d="M45.1896 21.1253C45.1896 21.2467 45.1597 21.3529 45.1448 21.4591C45.1299 21.5805 45.115 21.702 45.1 21.8234C44.9955 22.567 44.8313 23.3107 44.6671 24.0391C44.6372 24.1757 44.6073 24.3123 44.5775 24.4489C44.4282 25.1318 44.2938 25.7996 44.2042 26.4825C44.0848 27.3172 44.0549 28.1519 44.1445 29.0018C44.1445 29.0929 44.1594 29.1839 44.1147 29.2598C43.8907 29.6544 42.1887 29.3964 41.7856 29.3205C40.6957 29.1232 39.6058 28.8956 38.5309 28.6527C37.8591 28.501 37.1872 28.3492 36.5154 28.1975C36.1421 28.1064 35.0373 28.0305 34.903 27.6815C34.7537 27.302 35.2314 26.1335 35.321 25.7237C35.4703 25.0408 35.6196 24.3427 35.7689 23.6597C36.0675 22.2787 36.381 20.8976 36.6796 19.5166C36.9483 18.2873 37.665 18.7577 38.5458 18.8488L42.8755 19.3648C44.04 19.5014 45.324 19.4862 45.1747 21.1101L45.1896 21.1253Z" fill="#FCD9BA"/>
  <path d="M45.1449 21.4592C45.13 21.5806 45.115 21.702 45.1001 21.8234C44.9956 22.567 44.8314 23.3107 44.6672 24.0391C43.9356 24.8739 42.7711 25.4354 41.8006 25.5416C40.3226 25.6934 38.8744 24.8587 38.0831 23.599C37.8741 23.2652 37.6501 22.7947 37.5008 22.3242C37.3814 21.9296 37.3366 21.5199 37.4113 21.186C37.5605 20.503 38.3518 20.3209 38.9192 20.1236C39.7254 19.8353 40.651 19.8505 41.4871 19.9871C42.4426 20.1388 43.3533 20.4575 44.264 20.7762C44.5029 20.8673 44.7567 20.9432 44.9359 21.1253C45.0255 21.2163 45.1001 21.3377 45.1598 21.4592H45.1449Z" fill="#E6C1A0"/>
  <path d="M36.4558 19.1068C36.829 20.5789 37.471 22.0055 38.4713 23.1589C39.4865 24.3123 41.5618 25.1622 43.0697 24.5096C44.1297 24.0391 44.9807 23.4321 45.6824 22.4608C45.9213 22.1269 46.1303 21.7627 46.3393 21.3984C47.3695 19.5773 47.907 17.7864 48.3399 15.7376C48.6983 14.0075 48.549 12.5809 47.6084 11.0785C46.832 9.83401 45.9064 8.55919 44.5776 7.96731C43.9655 7.69413 43.2937 7.60308 42.6367 7.54237C42.0097 7.48167 41.3677 7.46649 40.7705 7.61825C40.2032 7.77002 39.6806 8.05837 39.188 8.37707C38.3817 8.90825 37.6502 9.57601 37.1127 10.3804C36.2766 11.6552 36.2468 13.0818 36.0975 14.5387C35.9332 16.0715 36.0825 17.6043 36.4558 19.1068Z" fill="#FCD9BA"/>
  <path d="M45.8166 10.2589C46.1749 10.5169 46.4884 10.8053 46.7124 11.124C47.0558 11.5944 47.3544 12.0953 47.5335 12.6416C47.9665 13.9771 47.8471 15.5707 47.8769 16.9517C47.9964 16.9972 48.1158 16.8607 48.1755 16.7392C49.1758 14.5994 49.1609 11.9587 48.1755 9.80363C47.9366 9.28764 47.638 9.13587 47.2051 8.83234C46.7423 8.49846 46.2944 8.17976 45.8017 7.89141C45.1746 7.52717 44.5326 7.14776 43.8459 6.93529C43.189 6.738 42.4872 6.69247 41.8005 6.64694C41.1286 6.60141 40.4419 6.57106 39.8148 6.79871C38.9787 7.11741 38.4114 7.84588 37.9187 8.57434C37.6948 8.9234 37.3812 9.10552 37.1424 9.4394C36.9632 9.6974 36.8736 10.0009 36.7243 10.2741C36.575 10.5625 36.3362 10.7749 36.157 11.0481C35.3508 12.2319 34.8432 13.6129 34.6939 15.0395C34.664 15.4037 34.4998 15.9804 34.6939 16.3143C35.1268 16.9669 35.4105 15.8438 35.5598 15.5858C36.1719 14.5387 37.1125 13.7343 37.9187 12.8541C38.7996 11.8828 39.6357 10.8356 40.3971 9.7581C40.4717 9.65187 40.5464 9.56081 40.6509 9.50011C40.7405 9.45458 40.845 9.45458 40.9495 9.45458C41.8005 9.45458 42.6515 9.45458 43.5025 9.45458C44.234 9.45458 45.085 9.78846 45.7718 10.2741L45.8166 10.2589Z" fill="#B36332"/>
  <path d="M36.4706 14.8877C36.4706 14.8877 36.3512 14.7663 36.2915 14.7208C36.0377 14.5387 35.7241 14.4325 35.4106 14.4932C34.9329 14.5842 34.6044 15.0547 34.4999 15.5403C34.2759 16.6179 34.7686 17.9079 35.5301 18.6515C35.8137 18.9398 36.2318 19.1827 36.605 19.0157C36.8737 18.8943 37.0081 18.606 37.0678 18.3176C37.2619 17.4222 37.2321 16.3143 36.8588 15.4645C36.7692 15.252 36.6349 15.0547 36.4856 14.8877H36.4706Z" fill="#FCD9BA"/>
  <path d="M43.428 15.9046C43.428 15.9046 43.413 15.9046 43.3981 15.9046C43.1592 15.9046 43.1592 16.5268 43.1592 16.6785C43.1592 17.0124 43.1741 17.3463 43.2488 17.665C43.3384 18.0748 43.5175 18.4542 43.6071 18.8639C43.7265 19.3648 43.0995 19.5924 42.7113 19.6683C42.5023 19.7138 42.6516 19.8656 42.8009 19.8352C43.1592 19.7594 43.622 19.6076 43.846 19.2889C43.9505 19.1219 43.9356 18.9398 43.8908 18.7577C43.8161 18.5301 43.7265 18.3024 43.6668 18.0748C43.5623 17.7409 43.4877 17.3918 43.4727 17.0276C43.4727 16.8455 43.4727 16.6634 43.4727 16.4813C43.4877 16.3295 43.5773 16.1018 43.5026 15.9653C43.4877 15.9349 43.4429 15.9046 43.413 15.8894L43.428 15.9046Z" fill="#E6C1A0"/>
  <path d="M47.2946 16.0411C47.2946 16.0411 47.3095 16.0715 47.3244 16.0866C47.3394 16.1018 47.3991 16.2081 47.429 16.1777C47.4588 16.1625 47.4588 16.117 47.4588 16.0866C47.4439 15.8894 47.3543 15.7224 47.2647 15.5706C47.0557 15.2216 46.8168 14.9484 46.4884 14.7511C46.0853 14.5083 45.6523 14.3717 45.2044 14.2655C44.9655 14.2048 44.4281 14.0834 44.4729 14.5538C44.4729 14.7056 44.6371 14.7967 44.7714 14.8422C44.9357 14.9029 45.1148 14.9332 45.294 14.9484C45.5478 14.9636 45.8016 14.9484 46.0405 15.0091C46.2943 15.0698 46.5182 15.2064 46.7123 15.3582C46.8766 15.4948 47.0109 15.6465 47.1453 15.8135C47.205 15.8894 47.2498 15.9652 47.3095 16.0411H47.2946Z" fill="#B36332"/>
  <path d="M38.3069 14.7512C38.4263 14.3869 39.0832 14.0834 39.4117 13.9468C40.1134 13.6433 40.9196 13.5674 41.6512 13.7799C41.9348 13.8558 42.2036 14.2048 41.8453 14.4173C41.7407 14.478 41.6213 14.4932 41.5019 14.4932C41.2182 14.4932 40.9345 14.4932 40.6658 14.4173C40.2926 14.3414 39.9044 14.2048 39.5311 14.2655C39.2923 14.3111 39.0832 14.4173 38.8892 14.5235C38.7399 14.5994 38.486 14.7967 38.3218 14.7512H38.3069Z" fill="#B36332"/>
  <path d="M41.0987 15.4796C41.0091 15.3582 40.8449 15.3582 40.7254 15.4037C40.606 15.4189 40.5015 15.4948 40.4418 15.5858C40.3373 15.7224 40.2925 15.8894 40.2925 16.0563C40.2925 16.2081 40.3223 16.3598 40.397 16.4964C40.4866 16.6482 40.6657 16.6937 40.83 16.6634C40.83 16.6634 40.83 16.6634 40.8598 16.6634C40.8897 16.6634 40.9046 16.6482 40.9345 16.633C40.9494 16.633 40.9643 16.633 40.9793 16.6178C41.0091 16.6027 41.039 16.5875 41.0688 16.5571C41.2032 16.4357 41.248 16.2384 41.2629 16.0563C41.2629 15.9501 41.2629 15.8438 41.2181 15.7376C41.2032 15.6465 41.1584 15.5555 41.1136 15.4948L41.0987 15.4796Z" fill="#1A8B93"/>
  <path d="M46.1152 16.2536C46.0406 16.1322 45.8764 16.1019 45.742 16.1474C45.6226 16.1474 45.5181 16.2081 45.4285 16.284C45.309 16.4054 45.2493 16.5723 45.2344 16.7241C45.2195 16.8759 45.2344 17.0276 45.2941 17.1794C45.3688 17.3463 45.533 17.407 45.6972 17.3919C45.6972 17.3919 45.7121 17.3919 45.7271 17.3919C45.7569 17.3919 45.7719 17.3918 45.8017 17.3767C45.8167 17.3767 45.8316 17.3767 45.8465 17.3615C45.8764 17.3615 45.9212 17.3311 45.951 17.316C46.1003 17.2097 46.175 17.0124 46.2048 16.8455C46.2048 16.7393 46.2048 16.633 46.2048 16.5268C46.2048 16.4357 46.175 16.3447 46.1302 16.2688L46.1152 16.2536Z" fill="#1A8B93"/>
  <path d="M43.4428 20.6548C43.3383 20.6396 43.2039 20.6548 43.0695 20.7003C42.7411 20.8065 42.3678 20.8065 42.0543 20.6699C41.8304 20.5789 41.6363 20.4271 41.4123 20.3664C41.0092 20.2602 40.6658 20.5333 40.9047 20.9431C41.3825 21.7626 42.8605 21.9144 43.5025 21.2618C43.816 20.9431 43.7115 20.7155 43.4577 20.6699L43.4428 20.6548Z" fill="#E9B8A2"/>
  <path d="M32.8726 88.3112C33.9625 88.6906 35.0524 89.07 36.1422 89.4494C37.1425 89.7985 37.9488 89.8136 38.9938 89.844C41.293 89.9199 43.5773 89.7681 45.8765 89.7681C47.8472 89.7681 49.818 89.8288 51.7887 89.7681C52.4755 89.7529 53.1772 89.7226 53.8938 89.7681C53.849 89.4949 53.8192 89.2369 53.8042 89.0548C53.6549 86.3079 53.5206 83.561 53.3713 80.814C53.0428 74.4248 52.0425 68.0355 51.5797 61.6311C51.4005 59.2787 51.2662 56.9264 50.7735 54.6196C50.5197 53.3903 48.3847 54.0125 47.4292 54.0277C45.9064 54.058 44.3984 54.1036 42.8756 54.1643C41.2781 54.225 39.6806 54.2857 38.0981 54.4981C37.5457 54.574 36.9932 54.6651 36.4408 54.7713C35.0076 55.0749 33.6042 55.5301 32.2008 56.0006C31.7081 56.1675 31.2005 56.3345 30.7824 56.6228C29.394 57.6093 28.8117 59.6885 28.0204 61.1302C27.0052 62.9818 26.3035 64.985 25.7511 67.0187C23.7057 74.6524 23.422 82.7566 24.9299 90.5269C26.4379 90.3448 27.6621 90.4662 28.8714 89.3583C29.3641 88.903 29.7821 88.3112 30.4092 88.0683C31.1706 87.7648 32.0067 88.038 32.783 88.296C32.8129 88.296 32.8278 88.3112 32.8577 88.3263L32.8726 88.3112Z" fill="#FFF4E4"/>
  <path d="M49.2506 36.3168C46.9216 36.2409 44.6373 35.816 42.368 35.3455C40.1136 34.875 37.7995 34.3894 35.6794 33.4788C33.8878 32.72 32.2605 31.6576 30.7526 30.4132C29.8269 29.6544 28.7968 28.7134 28.2742 27.5752C27.7815 27.6966 27.2888 27.8332 26.7962 28.0457C24.8851 28.85 23.7206 30.6257 23.437 32.8869C23.1682 35.042 23.6609 37.2122 24.1387 39.3217C25.2584 44.2085 26.3931 49.0802 27.5128 53.967C28.2145 56.9871 28.9909 60.1741 31.0512 62.2988C31.8574 63.1335 33.3354 62.8907 34.3357 62.7996C35.7541 62.6479 37.1127 62.6175 38.5459 62.6023C42.0097 62.572 45.4883 62.314 48.9222 61.8132C48.9968 61.8132 49.0864 61.7828 49.1611 61.7828C49.4597 61.7373 49.7732 61.6917 50.027 61.5096C50.5794 61.1454 50.7436 60.3562 50.8481 59.6581C51.5349 55.3632 52.0575 51.0379 52.4307 46.6975C52.7293 43.2676 52.7592 39.8225 52.9085 36.4079C51.6842 36.3623 50.46 36.3623 49.2357 36.3168H49.2506Z" fill="#FFF4E4"/>
  <path d="M39.5612 62.7845C43.1294 62.2836 46.6976 61.798 50.2808 61.2972C51.1019 61.1758 50.7884 60.2196 50.8033 59.5974C50.8332 58.6716 51.0273 58.0342 49.9523 58.0191C43.846 57.9584 37.7546 57.5941 31.6782 56.9264C30.454 56.7898 29.1849 56.6532 28.0055 56.9719C27.0201 57.2299 26.184 57.8825 25.7511 58.8234C25.1539 60.0679 24.4223 62.3747 25.9601 63.2549C26.5125 63.5736 27.1545 63.6343 27.7815 63.6647C31.6483 63.8771 35.5152 63.346 39.3521 62.8148C39.4268 62.8148 39.5014 62.7996 39.5761 62.7845H39.5612Z" fill="#FCD9BA"/>
  <path d="M28.095 29.0018C27.9606 28.6528 27.7068 28.1975 27.3187 28.0609C26.9156 27.9243 26.3333 28.1823 25.9451 28.3341C24.5268 28.8652 23.407 30.1097 22.7501 31.4604C22.1231 32.7352 21.8394 34.1618 21.7797 35.5884C21.7349 36.5293 21.7797 37.4551 21.8096 38.396C22.0335 44.0872 22.2574 49.7328 22.8248 55.4088C23.0189 57.3817 23.2279 59.385 24.0042 61.2062C24.2879 61.8739 24.6761 62.5569 25.2434 63.0121C25.8555 63.4978 26.8409 63.4371 27.5874 63.4523C28.0502 63.4523 28.513 63.4674 28.946 63.3157C29.588 63.0728 30.0508 62.4961 30.2897 61.8436C30.6182 60.9633 30.4539 60.0679 30.3643 59.1422C30.2748 58.1709 30.1703 57.1844 30.0658 56.2131C29.8418 54.2857 29.5731 52.3735 29.3043 50.4613C28.9609 47.9723 28.6176 45.4682 28.2742 42.9793C28.0353 41.2188 27.7815 39.4432 27.8561 37.6524C27.9606 34.7082 29.2745 31.9157 28.1099 29.0018H28.095Z" fill="#FCD9BA"/>
  <path d="M48.2054 11.4882C48.0412 10.8053 47.7725 10.1224 47.4141 9.5153C47.2499 9.24212 47.0409 8.96895 46.7871 8.77165C46.5333 8.57436 46.2496 8.43777 45.951 8.34671C45.309 8.14942 44.6372 8.14942 43.9803 8.19495C43.1293 8.25566 42.2783 8.39224 41.4571 8.63507C41.4123 8.63507 41.3676 8.69577 41.4124 8.7413C41.4571 8.78683 41.5467 8.78683 41.6064 8.77165C42.3081 8.57436 43.0248 8.43777 43.7414 8.37707C44.3685 8.31636 45.0254 8.30119 45.6375 8.43777C45.9212 8.49848 46.2048 8.61989 46.4437 8.78683C46.6975 8.96895 46.9065 9.21177 47.0857 9.46977C47.444 10.0313 47.6978 10.6687 47.877 11.3061C48.086 12.0649 48.1756 12.8389 48.1457 13.6281C48.1457 13.7343 48.4294 13.7343 48.4294 13.6281C48.4592 12.8996 48.3697 12.1863 48.2054 11.4882V11.4882Z" fill="#98491F"/>
  <path d="M43.2486 6.69247C42.5171 6.5407 41.7407 6.70764 41.1435 7.16293C41.0838 7.20846 41.1435 7.25399 41.1883 7.26917C41.248 7.29952 41.3376 7.26917 41.3824 7.23882C41.89 6.84423 42.5469 6.70764 43.174 6.84423C43.2188 6.84423 43.3233 6.84423 43.3532 6.78352C43.383 6.72282 43.2934 6.69247 43.2486 6.67729V6.69247Z" fill="#98491F"/>
  <path d="M38.5756 9.84915C38.1277 10.8356 37.4708 11.6855 36.6347 12.3533C36.575 12.3988 36.6347 12.4443 36.6795 12.4595C36.7393 12.4747 36.8288 12.4595 36.8736 12.4291C37.7097 11.7462 38.3965 10.866 38.8444 9.87951C38.8892 9.77327 38.6055 9.74292 38.5607 9.83398L38.5756 9.84915Z" fill="#98491F"/>
  <path d="M45.7273 87.2033C43.9656 86.9908 42.2039 86.7632 40.4571 86.4597C38.7103 86.1561 36.9934 85.7616 35.3063 85.2152C34.3657 84.8965 33.4401 84.5323 32.5592 84.1073C32.4995 84.077 32.4099 84.077 32.3502 84.1073C32.3054 84.1377 32.2905 84.1984 32.3502 84.2136C33.9626 84.9876 35.6497 85.5491 37.3815 85.9892C39.1283 86.4293 40.89 86.7177 42.6667 86.9757C43.667 87.1123 44.6524 87.2337 45.6527 87.3703C45.7124 87.3703 45.802 87.3703 45.8318 87.3096C45.8617 87.2488 45.7721 87.2185 45.7273 87.2033Z" fill="#C3B8A8"/>
  <path d="M41.8902 82.7718C40.7257 82.62 39.5612 82.4076 38.4265 82.0889C38.098 81.9978 37.7696 81.9068 37.456 81.8005C37.3963 81.7853 37.3067 81.7853 37.262 81.8309C37.2172 81.8764 37.262 81.9219 37.3068 81.9371C38.4563 82.3013 39.6209 82.5745 40.8153 82.7718C41.1437 82.8325 41.4871 82.878 41.8156 82.9236C41.8753 82.9236 41.9649 82.9236 41.9947 82.8629C42.0246 82.8022 41.935 82.7718 41.8902 82.7566V82.7718Z" fill="#C3B8A8"/>
  <path d="M46.4885 67.7775C45.1747 67.8231 43.8609 67.7927 42.5471 67.6713C41.2332 67.5499 39.9343 67.3374 38.6504 67.0491C37.9188 66.8821 37.2022 66.6848 36.5005 66.4724C36.4408 66.4572 36.3512 66.4572 36.3064 66.5027C36.2616 66.5482 36.3064 66.5938 36.3512 66.609C37.6202 67.0035 38.9191 67.3071 40.2329 67.5347C41.5468 67.7624 42.8755 67.8989 44.2043 67.9445C44.9657 67.9748 45.7122 67.9748 46.4736 67.9445C46.5184 67.9445 46.6229 67.9293 46.6229 67.8686C46.6229 67.8079 46.5184 67.7927 46.4736 67.7927L46.4885 67.7775Z" fill="#C3B8A8"/>
  <path d="M29.1402 83.561C29.1402 83.561 29.0058 83.5154 28.9461 83.5306C27.7666 83.8342 26.632 84.2743 25.5421 84.8206C25.4824 84.851 25.4973 84.9117 25.5421 84.9269C25.6018 84.9572 25.6914 84.9572 25.7511 84.9269C26.8111 84.3805 27.9308 83.9556 29.0954 83.652C29.1402 83.652 29.185 83.5913 29.1402 83.5458V83.561Z" fill="#C3B8A8"/>
  <path d="M25.6315 52.7832C25.9152 52.7377 26.8408 52.7528 26.9155 52.4038C27.0499 51.8271 25.7062 51.7967 25.3926 51.7816C25.109 51.7816 24.6163 51.645 24.676 51.2504C24.7208 50.9772 25.0642 50.9013 25.3329 50.871C25.6763 50.8406 26.0346 50.8254 26.378 50.8254C26.602 50.8254 26.8408 50.8254 27.0648 50.8558C27.6769 50.9317 28.2144 51.2504 28.7519 51.5539C29.1699 51.7967 29.6029 51.9788 30.006 52.2217C30.5285 52.5252 30.9017 52.935 31.3347 53.3447C31.3795 53.3903 31.4392 53.4358 31.4989 53.4813C31.6333 53.6027 31.7826 53.7241 31.8573 53.8607C32.1409 54.3312 32.0812 55.1507 32.0066 55.6667C31.9618 56.0006 31.8722 56.3345 31.693 56.6228C31.3496 57.1692 30.7077 57.5334 30.0358 57.7307C29.6327 57.8521 29.2147 57.8976 28.7966 57.9432C28.3786 57.9887 27.9307 58.0646 27.4977 58.0646C26.7065 58.0646 25.9152 58.3529 25.109 58.3985C24.3476 58.444 23.5712 58.3681 22.8844 58.0342C22.7799 57.9887 22.6605 57.9128 22.6008 57.8066C22.541 57.7004 22.556 57.5486 22.6306 57.4575C22.8546 57.1692 23.5115 57.3816 23.8101 57.412C24.2281 57.4575 24.6611 57.4575 25.0791 57.412C25.2583 57.3968 25.4374 57.3665 25.6017 57.2906C25.7808 57.2147 25.8704 57.1692 25.8256 56.9719C25.8107 56.896 25.0493 57.0781 24.9746 57.0933C24.6014 57.154 24.2281 57.1692 23.8399 57.154C22.9889 57.1236 21.7647 57.0174 21.2123 56.2738C20.9734 55.9399 21.1078 55.606 21.5407 55.606C21.7348 55.606 21.8692 55.6667 22.0334 55.7274C22.2275 55.8033 22.4664 55.8185 22.6754 55.8488C23.0934 55.9095 23.5115 55.9399 23.9295 55.9399C24.258 55.9399 24.5864 55.9095 24.9149 55.864C25.0194 55.864 25.736 55.8033 25.5867 55.5757C25.527 55.4846 25.3031 55.5757 25.2284 55.5757C24.9746 55.5757 24.7208 55.5757 24.467 55.5757C23.9594 55.5757 23.4667 55.5453 22.9591 55.4998C22.2424 55.4391 21.5258 55.3177 20.8988 54.9686C20.7793 54.8927 20.645 54.8168 20.5554 54.6954C20.4658 54.574 20.421 54.4223 20.4509 54.2857C20.4957 54.0884 20.7047 53.9518 20.8988 53.9214C21.1078 53.8911 21.3019 53.9518 21.496 54.0125C22.1379 54.2098 22.7501 54.3615 23.4219 54.4223C23.9444 54.483 24.4968 54.483 25.0194 54.3615C25.109 54.3464 25.6166 54.2553 25.4673 54.058C25.4374 54.0277 25.3628 54.0277 25.318 54.0277C24.8701 53.9366 24.3923 54.0277 23.9444 53.9973C23.392 53.9518 22.8546 53.8759 22.3022 53.7697C22.0334 53.709 21.7647 53.6483 21.5407 53.4965C21.3168 53.3599 20.9137 52.8894 21.2869 52.677C21.3765 52.6314 21.4661 52.6163 21.5706 52.6163C21.9588 52.6163 22.347 52.7073 22.7351 52.768C23.6757 52.935 24.6461 52.935 25.6017 52.7984L25.6315 52.7832Z" fill="#FCD9BA"/>
  <path d="M36.4855 53.0413C36.9931 52.9957 37.5156 52.935 38.0232 52.8895C43.1292 52.3887 48.2352 51.8879 53.3412 51.3415C55.2672 51.129 58.716 50.5827 59.8656 52.6011C60.4777 53.6787 60.5673 55.0901 60.2388 56.2587C59.8357 57.7156 59.0743 58.1102 57.6112 58.2923C55.0731 58.6262 52.5052 58.5958 49.9522 58.5655C43.6966 58.4896 37.3962 58.3985 31.2451 57.2148C29.8566 56.9568 29.5431 54.4678 30.618 53.6787C31.3794 53.1323 33.4398 53.3144 34.3654 53.2234C35.0671 53.1475 35.7688 53.0868 36.4855 53.0109V53.0413Z" fill="#FCD9BA"/>
  <path d="M51.8482 58.5199C50.4896 58.4895 49.131 58.4895 47.7724 58.4744C46.4138 58.4744 45.0701 58.444 43.7115 58.4288C42.3529 58.3985 40.9943 58.3529 39.6356 58.2771C38.277 58.2012 36.9333 58.0798 35.5896 57.928C34.246 57.7611 32.9023 57.5486 31.5885 57.2754C31.4242 57.2451 31.26 57.1995 31.0958 57.1692C31.036 57.1692 30.9763 57.2147 31.036 57.2451C29.0504 57.9432 26.9602 58.3681 24.87 58.4592C24.3176 58.4895 23.7354 58.4592 23.2128 58.2315C23.183 58.2315 23.1382 58.2164 23.1083 58.2315C23.0934 58.2467 23.0784 58.2771 23.1083 58.2922C23.5711 58.5047 24.0787 58.5654 24.5714 58.5502C25.094 58.5502 25.6314 58.4895 26.154 58.444C27.2289 58.3226 28.3039 58.1253 29.349 57.8521C29.9611 57.7004 30.5583 57.5182 31.1406 57.3058C31.1406 57.3058 31.1555 57.3058 31.1704 57.2906C32.4544 57.579 33.7384 57.7914 35.0372 57.9584C36.3809 58.1405 37.7246 58.2619 39.0832 58.3529C40.4418 58.444 41.8005 58.4895 43.1442 58.5351C44.5028 58.5654 45.8614 58.5806 47.22 58.5958C48.5786 58.5958 49.9522 58.6109 51.3108 58.6413C51.475 58.6413 51.6392 58.6413 51.8184 58.6413C51.908 58.6413 51.908 58.5654 51.8184 58.5654L51.8482 58.5199Z" fill="#E6C1A0"/>
  <path d="M25.6314 56.8809C25.1686 56.9567 24.7057 57.063 24.2429 57.1085C23.9742 57.1389 23.7054 57.1389 23.4367 57.1085C23.3173 57.1085 23.2128 57.063 23.0933 57.0478C23.0187 57.0478 22.9291 57.0478 22.8843 57.1085C22.8395 57.1692 22.9739 57.1844 23.0037 57.154C23.0485 57.1085 23.1829 57.154 23.2277 57.154C23.3322 57.1692 23.4367 57.1844 23.5263 57.1844C23.7204 57.1844 23.8995 57.1844 24.0936 57.1844C24.4818 57.154 24.855 57.0933 25.2432 57.0326C25.3328 57.0174 25.4224 57.0023 25.512 56.9871C25.5567 56.9871 25.6015 56.9719 25.6463 56.9567C25.6463 56.9567 25.6911 56.9567 25.706 56.9567C25.7508 56.9567 25.7658 56.9871 25.7508 57.0478C25.706 57.1996 25.5269 57.2603 25.3925 57.3058C25.0491 57.412 24.6759 57.4727 24.3176 57.4727C23.8995 57.4727 23.4815 57.3969 23.0933 57.2451C23.0336 57.2299 22.9291 57.2754 23.0187 57.321C23.81 57.6245 24.7207 57.6549 25.5269 57.3665C25.6612 57.321 25.8255 57.2451 25.8852 57.0933C25.9598 56.9264 25.7807 56.8809 25.6463 56.896L25.6314 56.8809Z" fill="#E6C1A0"/>
  <path d="M25.3926 55.4695C24.9745 55.4695 24.5714 55.4998 24.1534 55.5454C23.9145 55.5757 23.6906 55.5757 23.4517 55.5454C23.2277 55.515 23.0038 55.4695 22.7798 55.4543C22.6903 55.4543 22.6903 55.5302 22.7798 55.5302C23.1232 55.5302 23.4517 55.6516 23.7951 55.6516C23.9742 55.6516 24.1384 55.6213 24.3176 55.6061C24.4968 55.5909 24.6908 55.5606 24.87 55.5606C25.0492 55.5606 25.2283 55.5454 25.4075 55.5454C25.4373 55.5454 25.5269 55.5302 25.4971 55.5909C25.4821 55.6213 25.3926 55.6364 25.3627 55.6516C25.2731 55.682 25.1985 55.7123 25.1089 55.7427C24.7804 55.8489 24.437 55.9096 24.0787 55.9248C23.6906 55.9248 23.3024 55.8793 22.9142 55.773C22.8843 55.773 22.8395 55.773 22.8097 55.773C22.7948 55.8034 22.8097 55.8185 22.8396 55.8337C23.586 56.0614 24.3773 56.0614 25.1238 55.8337C25.2134 55.8034 25.303 55.773 25.3926 55.7427C25.4672 55.7123 25.5717 55.6971 25.6165 55.6213C25.721 55.4695 25.4373 55.4695 25.3776 55.4695H25.3926Z" fill="#E6C1A0"/>
  <path d="M25.5418 54.0885C24.6311 53.7394 23.6308 54.134 22.735 53.8001C22.6753 53.7849 22.5708 53.8305 22.6603 53.876C23.5561 54.2099 24.5266 53.8305 25.4224 54.1492C25.3029 54.2857 25.064 54.3009 24.8998 54.3313C24.6609 54.3768 24.437 54.4223 24.1981 54.4527C23.9443 54.483 23.7203 54.4223 23.4815 54.3768C23.2426 54.3313 23.0037 54.2857 22.7798 54.225C22.7051 54.225 22.6454 54.2857 22.735 54.3009C23.0037 54.3616 23.2575 54.4072 23.5263 54.4679C23.795 54.5286 24.0339 54.5589 24.3026 54.5134C24.5714 54.4679 24.8252 54.4223 25.0939 54.3768C25.2731 54.3464 25.4821 54.3161 25.5866 54.1492C25.5866 54.134 25.5716 54.1036 25.5567 54.1036L25.5418 54.0885Z" fill="#E6C1A0"/>
  <path d="M29.4535 51.9032C28.8563 51.5845 28.2591 51.2658 27.6022 51.0685C27.2886 50.9623 26.9602 50.9016 26.6466 50.8712C26.3033 50.8409 25.9449 50.8712 25.6016 50.8712C25.303 50.8712 24.8999 50.8257 24.661 51.0685C24.646 51.0837 24.661 51.0989 24.661 51.114C24.5863 51.2051 24.5565 51.3265 24.6013 51.4327C24.661 51.6149 24.8401 51.7211 25.0193 51.7514C25.2582 51.8122 25.512 51.7818 25.7509 51.8273C26.0047 51.8729 26.2585 51.9336 26.5123 51.9943C26.6168 52.0246 26.7213 52.0701 26.7512 52.2067C26.7661 52.3281 26.7064 52.4496 26.6019 52.5254C26.4227 52.6772 26.154 52.7379 25.93 52.7986C25.4373 52.92 24.9297 52.9352 24.4221 52.9352C24.1384 52.9352 23.8548 52.92 23.5711 52.8593C23.2725 52.7986 22.9739 52.7227 22.6753 52.6469C22.6454 52.6469 22.6007 52.6469 22.5708 52.6469C22.5559 52.6772 22.5708 52.6924 22.6007 52.7076C23.1232 52.829 23.6457 52.9959 24.1832 53.0111C24.437 53.0111 24.6908 53.0111 24.9596 52.9807C25.2134 52.9807 25.4672 52.9504 25.721 52.9049C25.9748 52.8593 26.2137 52.7986 26.4526 52.7076C26.6317 52.6317 26.8407 52.5254 26.8855 52.313C26.9303 52.1005 26.7661 51.9639 26.5869 51.9184C26.3331 51.8425 26.0793 51.797 25.8255 51.7514C25.6762 51.7211 25.5418 51.7059 25.3925 51.7059C25.2432 51.7059 25.0939 51.7059 24.9596 51.6452C24.8551 51.5997 24.7506 51.5086 24.7356 51.372C24.7207 51.2658 24.7655 51.1444 24.87 51.0989C24.8999 51.0989 24.8849 51.0685 24.87 51.0533C24.9596 50.9926 25.0641 50.9775 25.1686 50.9775C25.3328 50.9775 25.4821 50.9775 25.6463 50.9775C25.9748 50.9775 26.3033 50.9471 26.6317 50.9775C27.2588 51.0382 27.841 51.2506 28.4084 51.5086C28.7368 51.6604 29.0503 51.8273 29.3639 51.9943C29.4087 52.0246 29.543 51.9791 29.4684 51.9336L29.4535 51.9032Z" fill="#E6C1A0"/>
  <path d="M52.0723 94.0175C52.1321 94.4121 52.2067 94.837 52.5202 95.0798C52.789 95.2923 53.1622 95.2923 53.5205 95.2923C55.551 95.2468 57.5815 95.2012 59.6268 95.1557C59.9404 95.1557 60.2838 95.1405 60.5525 94.9584C61.0153 94.6549 61.075 94.0175 61.09 93.456C61.1198 92.8337 61.1646 85.9892 61.1646 85.9892C62.2097 85.7919 63.2548 85.6098 64.2849 85.4125C63.2846 74.88 62.2993 64.3476 61.299 53.8C60.8362 48.8222 60.3584 43.8443 59.3133 38.9575C58.6564 35.8767 57.7009 32.72 55.6406 30.3525C53.3264 27.6966 50.2509 26.7709 46.8768 26.6039C46.6976 28.7134 47.6979 31.0354 48.0562 33.0994C48.8774 37.9255 49.37 42.8123 49.6836 47.7143C50.3106 57.6093 50.2061 67.5347 50.6391 77.4449C50.878 82.9842 51.2811 88.5236 52.0723 94.0175Z" fill="#67762E"/>
  <path d="M60.1642 67.0339C59.8506 61.2365 59.5072 55.4391 59.134 49.6417C58.925 46.394 58.701 43.131 58.4771 39.8833C58.4771 39.7771 58.1785 39.7771 58.1934 39.8833C58.5965 45.6807 58.9698 51.4781 59.3281 57.2754C59.6715 63.0728 59.9999 68.8702 60.2836 74.6676C60.4478 77.9305 60.5971 81.1783 60.7464 84.4412C60.7464 84.5474 61.045 84.5474 61.0301 84.4412C60.7763 78.6438 60.4777 72.8313 60.1642 67.0339V67.0339Z" fill="#495E22"/>
  <path d="M55.3419 44.1023C55.2075 43.6774 54.8791 43.3435 54.5656 43.04C53.8041 42.3419 52.983 41.7044 52.132 41.1277C52.6695 39.3369 53.2069 37.5613 53.7593 35.7705C54.0132 34.9206 54.3118 34.0859 54.4909 33.2208C54.6551 32.4317 54.5954 31.6425 54.3118 30.8837C53.9833 30.0338 53.4458 29.2902 52.9233 28.5617C52.8636 28.4706 52.5799 28.5162 52.6396 28.6072C53.5653 29.8669 54.5058 31.2631 54.252 32.9173C54.1177 33.8127 53.7892 34.6778 53.5354 35.5277C53.2667 36.4079 53.0129 37.2729 52.7441 38.1532C52.4455 39.1396 52.1469 40.1413 51.8483 41.1277C51.8483 41.1581 51.8483 41.1885 51.8782 41.2036C52.6545 41.7196 53.401 42.2963 54.1027 42.9186C54.4163 43.2069 54.7596 43.4953 54.9687 43.8898C55.1777 44.2996 55.1478 44.7549 55.103 45.2102C54.8791 47.2287 54.6253 49.2471 54.3715 51.2504C53.8489 55.257 53.2667 59.2484 52.5948 63.2246C52.2216 65.4707 51.8334 67.7168 51.4154 69.9477C51.4004 70.054 51.6841 70.0691 51.699 69.9477C52.4455 65.8956 53.1323 61.8435 53.7444 57.7611C54.3565 53.709 54.8791 49.6569 55.3419 45.5896C55.4016 45.0888 55.4912 44.5576 55.3419 44.072V44.1023Z" fill="#495E22"/>
  <path d="M20.7495 37.5765C19.9135 41.4768 19.1819 45.4075 18.5399 49.3382C17.9129 53.2537 17.3754 57.1996 16.9424 61.1454C16.5095 65.1217 16.181 69.0979 15.9421 73.0893C15.7182 77.0503 15.5838 81.0265 15.554 85.0027C15.554 87.006 15.554 88.9941 15.5838 90.9974C15.5987 91.9991 15.6286 93.0007 15.6585 93.9872C15.6585 94.3059 15.6137 94.7156 15.8973 94.9129C16.0317 95.004 16.1959 95.0343 16.3452 95.0799C16.599 95.1406 16.8529 95.2013 17.0917 95.2772C17.5546 95.3986 18.0174 95.52 18.4951 95.6414C18.5996 95.6718 18.8236 95.5503 18.6444 95.5048C18.1816 95.3834 17.7188 95.262 17.241 95.1406C17.0021 95.0799 16.7782 95.0192 16.5393 94.9585C16.2855 94.8978 16.0019 94.8522 15.9571 94.5487C15.8824 94.0934 15.9272 93.6078 15.9123 93.1525C15.9123 92.6668 15.8824 92.166 15.8824 91.6804C15.8376 89.7226 15.8227 87.7648 15.8376 85.8071C15.8526 81.8764 15.972 77.9305 16.181 73.9999C16.39 70.0843 16.7036 66.184 17.1067 62.2837C17.5098 58.3682 18.0174 54.4678 18.6295 50.5675C19.2267 46.6975 19.9284 42.8427 20.7346 39.0031C20.8391 38.5174 20.9287 38.047 21.0332 37.5613C21.0481 37.4702 20.7645 37.4551 20.7495 37.5613V37.5765Z" fill="#495E22"/>
  <path d="M21.4065 31.8853C21.4065 31.8853 21.4662 31.7487 21.4512 31.6729C21.4512 31.5666 21.3617 31.4604 21.2721 31.4149C21.1676 31.3693 21.0631 31.3693 20.9436 31.3845C20.1374 31.4907 19.6895 32.2192 19.7194 33.0084C19.7194 33.0539 19.7194 33.0994 19.7045 33.1298C19.6895 33.1601 19.6447 33.1753 19.5999 33.2057C19.2864 33.3423 19.0326 33.6154 18.8982 33.9341C18.8684 34.01 18.7042 34.9206 18.7788 34.8903C18.4802 35.0117 18.2115 35.042 18.0771 35.3607C17.8979 35.7857 17.9427 36.3017 18.1667 36.6962C17.5396 37.1515 17.5993 38.3808 18.1667 38.8665C18.2712 38.9575 18.4056 39.0031 18.525 38.9575C18.6743 38.912 18.7639 38.7602 18.8236 38.5933C18.8982 38.3656 18.9132 38.1228 18.8833 37.8952C18.8982 38.0014 19.376 38.2746 19.4656 38.3201C19.6447 38.3808 19.8687 38.3656 19.9881 38.2291C20.0478 38.1532 20.0777 38.0621 20.1076 37.9559C20.227 37.4551 20.1374 36.9239 20.0478 36.4231C20.1374 36.6204 20.3912 36.6962 20.5853 36.6204C20.7794 36.5445 20.9138 36.3472 20.9735 36.1347C21.078 35.725 21.0481 35.2393 20.869 34.8599C20.9287 34.8447 21.0034 34.8295 21.0631 34.7992C21.6752 34.526 21.3467 33.9038 21.2721 33.4333C21.1825 32.9173 21.2422 32.3861 21.4214 31.9005L21.4065 31.8853Z" fill="#FCD9BA"/>
  <path d="M20.6898 34.7385C20.1374 34.2984 19.8239 33.6003 19.8537 32.887C19.8537 32.8111 19.6447 32.7959 19.6447 32.887C19.6148 33.6154 19.9433 34.3439 20.5106 34.7992C20.5554 34.8296 20.6151 34.8447 20.6599 34.8144C20.6898 34.8144 20.7346 34.7689 20.7047 34.7385H20.6898Z" fill="#E6C1A0"/>
  <path d="M19.9434 36.4535C19.4059 36.1955 19.1521 35.6188 19.0028 35.0724C18.9878 34.9965 18.7639 35.0117 18.7938 35.1028C18.9431 35.6795 19.2267 36.2714 19.7791 36.5445C19.8239 36.5597 19.8836 36.5749 19.9284 36.5445C19.9583 36.5294 19.9732 36.4838 19.9284 36.4535H19.9434Z" fill="#E6C1A0"/>
  <path d="M19.0922 38.0318C18.7339 37.7586 18.4801 37.3792 18.3308 36.9543C18.301 36.8784 18.0919 36.8936 18.1218 36.9846C18.2711 37.4248 18.5398 37.8193 18.8982 38.0925C18.9429 38.1229 19.0027 38.1229 19.0475 38.1077C19.0773 38.1077 19.1221 38.0622 19.0922 38.0318V38.0318Z" fill="#E6C1A0"/>
  <path d="M51.8035 38.2139C51.8035 38.2139 51.8035 38.2595 51.7886 38.2443C51.2362 37.9863 50.7734 37.5765 50.3553 37.1364C50.1463 36.9088 49.9522 36.6811 49.7581 36.4535C49.6238 36.3017 49.4147 36.1196 49.1908 36.1499C48.9818 36.1955 48.9221 36.4231 48.937 36.6052C48.9668 37.5462 50.0269 38.3353 50.5942 39.0031C51.8632 40.5207 53.5055 41.6438 55.2224 42.6151C55.4763 42.7668 55.745 42.9034 56.0287 42.9641C56.1481 42.9945 56.2825 42.9945 56.4019 43.0552C56.5363 43.1159 56.6408 43.207 56.7453 43.3132C57.8352 44.3452 58.94 45.3772 60.0299 46.4092C60.3135 46.6672 60.5823 46.9404 60.8659 47.1984C61.0749 47.3957 61.3437 47.7751 61.6274 47.8661C62.0603 48.0179 62.553 47.5778 62.8815 47.3349C63.2846 47.0314 63.5682 46.6065 63.8519 46.1815C64.0012 45.9539 64.1505 45.7263 64.2998 45.4986C64.897 44.6032 63.7623 43.9051 63.18 43.3436C62.0454 42.266 60.9107 41.1733 59.776 40.0958C59.7163 40.0351 59.6417 39.9744 59.6268 39.8833C59.5969 39.8075 59.6268 39.7164 59.6268 39.6253C59.6566 39.17 59.4924 38.7148 59.3132 38.2898C58.6712 36.7418 57.8053 35.3001 57.1036 33.7672C56.9842 33.5092 56.8498 33.2361 56.6109 33.0843C55.9988 32.6745 55.8943 33.4637 55.9839 33.919C56.1182 34.6323 56.5661 35.4822 56.3273 36.1955C55.9391 36.1044 55.5061 35.5732 55.2523 35.3001C54.9238 34.951 54.6103 34.5868 54.2819 34.2377C53.9833 33.919 53.6697 33.6003 53.4159 33.2361C53.1173 32.8263 52.8635 32.3862 52.5201 32.022C52.4007 31.8854 52.1469 31.6881 51.9528 31.7336C51.5198 31.8398 51.7139 32.7352 51.8334 33.0084C51.9976 33.3878 52.2813 33.7065 52.55 34.0101C52.9979 34.5261 53.4309 35.0724 53.9086 35.5581C54.1027 35.7554 53.7444 35.6339 53.6548 35.5581C53.5354 35.467 53.4607 35.3456 53.3562 35.2545C53.1323 35.0421 52.8934 34.8448 52.6694 34.6323C52.2215 34.2225 51.7886 33.7672 51.4751 33.2361C51.281 32.9325 51.1317 32.5987 50.9077 32.3255C50.7435 32.1282 50.43 31.9764 50.2508 32.2344C50.0567 32.4924 50.0418 32.9022 50.1164 33.2057C50.1762 33.4941 50.3105 33.8128 50.4897 34.0404C50.6688 34.2681 50.8331 34.5109 51.0122 34.7385C51.4452 35.2697 51.9528 35.725 52.4306 36.2106C52.5351 36.3169 52.8785 36.5901 52.6247 36.6963C52.4306 36.7873 52.1469 36.5597 52.0125 36.4535C51.5348 36.0741 51.1018 35.6339 50.7286 35.1483C50.5345 34.9055 50.3553 34.6627 50.1911 34.4047C50.0717 34.2074 49.9671 33.8887 49.8029 33.7217C49.5939 33.5244 49.355 33.7521 49.2505 33.9494C49.1161 34.2225 49.1161 34.5412 49.1908 34.8296C49.2953 35.2394 49.5491 35.5884 49.8029 35.9071C50.1612 36.3624 50.5345 36.8025 50.9376 37.2123C51.0869 37.3641 51.281 37.4855 51.4452 37.6372C51.5497 37.7283 51.6542 37.8193 51.7438 37.9104C51.7737 37.9408 51.8483 38.0015 51.8632 38.047C51.8632 38.047 51.8632 38.1077 51.8632 38.1532L51.8035 38.2139Z" fill="#FCD9BA"/>
  <path d="M71.0332 46.3788C69.8239 45.6807 68.6295 44.9674 67.4351 44.2238C66.405 43.5712 65.3599 43.0097 64.3745 42.3115C63.5981 41.7652 62.8218 41.0367 61.8364 40.9912C61.508 40.9912 61.1646 41.0215 60.8959 40.8091C60.448 40.4448 60.1941 39.8681 59.5522 40.3993C58.5967 41.2037 57.7307 42.1294 56.8648 43.04C56.7603 43.1462 56.6558 43.2677 56.6259 43.4042C56.5214 43.8899 57.5068 44.0568 57.5814 44.5121C57.6262 44.7549 57.462 45.0129 57.4769 45.2558C57.4918 45.6352 57.671 46.0449 57.895 46.3485C58.1936 46.7582 58.6414 47.0314 58.9251 47.4563C59.2237 47.8965 59.5223 48.1696 59.9403 48.5187C60.9108 49.3079 61.8812 50.1122 62.8517 50.8862C64.7776 52.4342 66.7334 53.967 68.734 55.424C70.4957 56.6988 72.2873 57.9281 74.1386 59.0815C75.2136 59.7492 76.2288 60.5687 77.4232 61.0089C78.1995 61.2972 79.0057 61.1151 79.797 61.0089C80.7077 60.8723 81.5737 60.508 82.3052 59.9313C82.9622 59.4002 83.4847 58.7172 83.8281 57.9432C84.1267 57.2603 84.5746 56.4863 84.4103 55.7123C84.3357 55.3784 84.1864 55.0749 84.0072 54.7865C83.5295 54.0125 82.8576 53.36 82.0664 52.9047C81.2602 52.4342 80.5883 51.7209 79.812 51.2049C78.1547 50.1122 76.3482 49.2775 74.6014 48.3517C73.3623 47.8661 72.1679 47.0466 71.0183 46.3788H71.0332Z" fill="#DFEDE5"/>
  <path d="M85.4852 28.0761C85.3956 28.0761 85.2911 28.1064 85.2015 28.1216C83.8578 28.4706 82.7232 29.791 82.0812 30.9596C81.2451 32.4469 80.8868 34.1618 80.5434 35.8312C79.364 41.5375 78.2591 47.2742 76.4825 52.8136C76.0346 54.1946 75.7509 55.3025 76.9453 56.2434C78.1546 57.1844 79.5282 58.3074 81.066 58.5958C81.5736 58.6869 82.111 58.6868 82.5888 58.8538C82.753 58.9145 82.9023 58.9752 83.0815 58.9904C83.5294 58.9904 83.8429 58.5503 84.0669 58.1557C86.0227 54.5437 87.232 50.5675 88.0083 46.5457C88.8295 42.3267 89.3371 37.9255 89.1281 33.6154C89.0684 32.4013 88.9489 31.1417 88.3816 30.0642C87.8441 29.0473 86.6646 27.9698 85.4852 28.0761V28.0761Z" fill="#DFEDE5"/>
  <path d="M83.4547 54.7106C83.0666 53.2385 81.7229 52.3128 80.5136 51.5691C79.4535 50.9317 78.3935 50.2943 77.3335 49.6721C77.8113 48.7463 78.1994 47.775 78.513 46.7734C78.8713 45.6655 79.14 44.5273 79.364 43.389C79.5879 42.2204 79.782 41.0519 79.9612 39.8833C80.1403 38.7147 80.3195 37.5461 80.5285 36.3775C80.7375 35.2089 80.9913 34.0555 81.3198 32.9021C81.3646 32.7655 81.3944 32.629 81.4392 32.4924C81.4691 32.371 81.1854 32.3558 81.1555 32.4468C80.8122 33.5699 80.5434 34.7233 80.3195 35.8767C80.0955 37.0453 79.9164 38.2139 79.7372 39.3825C79.5581 40.551 79.3789 41.7348 79.1699 42.9034C78.9609 44.0568 78.7071 45.195 78.3637 46.3181C78.0352 47.426 77.6172 48.5035 77.0946 49.5355C76.5572 49.2168 76.0197 48.8981 75.4673 48.5794L70.3314 45.5137L65.2254 42.4633C64.8074 42.2053 64.3744 41.9624 63.9564 41.7044C63.5831 41.4768 63.1949 41.2643 62.7769 41.1429C62.0006 40.9153 61.0301 41.067 60.3732 40.4903C60.2388 40.3689 60.1343 40.2172 60.0597 40.0502C60.0149 39.9592 59.7312 39.9743 59.776 40.0957C60.0746 40.8697 60.9853 41.0519 61.687 41.1277C62.1499 41.1884 62.5828 41.2492 63.0158 41.4313C63.4338 41.6134 63.8369 41.8714 64.2251 42.099C65.9271 43.1159 67.6291 44.1327 69.3311 45.1495C71.0481 46.1663 72.7501 47.1831 74.467 48.2151C75.736 48.9739 76.9901 49.7176 78.2592 50.4764C78.7071 50.7344 79.155 51.0076 79.5879 51.2656C80.842 52.0244 82.335 52.8136 82.977 54.225C83.0516 54.3919 83.1114 54.5589 83.1561 54.741C83.186 54.832 83.4697 54.8169 83.4398 54.6954L83.4547 54.7106Z" fill="#63848F"/>
  <path d="M87.2619 28.926C85.9182 28.6832 84.4998 29.1233 83.4995 30.049C83.2159 30.307 82.977 30.6106 82.768 30.9293C82.7083 31.0203 82.9919 31.0659 83.0516 30.9748C83.7235 29.8973 84.9029 29.1688 86.1421 29.0474C86.4855 29.017 86.8438 29.0322 87.1872 29.0929C87.232 29.0929 87.3365 29.0929 87.3664 29.0322C87.3962 28.9715 87.3066 28.9412 87.2619 28.926V28.926Z" fill="#63848F"/>
  <path d="M86.5602 51.1442C86.172 52.2521 85.7839 53.3448 85.3509 54.4375C84.9329 55.515 84.5148 56.5925 84.0371 57.6397C83.8131 58.1254 83.5742 58.611 83.2458 59.0208C82.9621 59.385 82.6187 59.7037 82.2306 59.9769C81.4243 60.5384 80.4838 60.8116 79.5133 60.8116C78.4085 60.8116 77.3037 60.4473 76.2735 60.0376C75.7659 59.8251 75.2732 59.5823 74.7955 59.3091C74.3028 59.0208 73.84 58.6869 73.3772 58.3682C72.4366 57.7156 71.4811 57.063 70.5405 56.3952C69.5999 55.7275 68.6892 55.0294 67.7785 54.3161C65.9122 52.8743 64.046 51.4326 62.1798 49.9908C61.9558 49.8087 61.7319 49.6417 61.493 49.4596C61.4333 49.4141 61.3586 49.4141 61.2989 49.4293C61.2541 49.4444 61.1944 49.5052 61.2541 49.5355C63.1652 51.0076 65.0762 52.4949 67.0021 53.967C67.9427 54.6955 68.8683 55.4239 69.8239 56.1069C70.7794 56.805 71.7647 57.4728 72.7352 58.1405C73.6758 58.7931 74.6014 59.4457 75.6316 59.9313C76.6468 60.4018 77.7367 60.766 78.8564 60.9026C79.8716 61.024 80.8869 60.9026 81.8125 60.4322C82.6635 60.0072 83.3801 59.3395 83.8728 58.5199C84.1565 58.0343 84.3804 57.5183 84.6044 56.9871C84.8433 56.4408 85.0672 55.8792 85.2912 55.3177C85.7241 54.225 86.1422 53.1171 86.5453 51.9941C86.6498 51.7057 86.7394 51.4326 86.8439 51.1442C86.8887 51.0228 86.605 51.0076 86.5602 51.1139V51.1442Z" fill="#63848F"/>
  <path d="M60.3584 41.6286C60.1494 41.8411 59.9703 42.0839 59.806 42.3268C59.6269 42.5696 59.4328 42.8124 59.2238 43.04C58.8057 43.4802 58.3578 43.8747 57.895 44.2693C57.8502 44.3149 57.895 44.3604 57.9398 44.3756C57.9995 44.3907 58.0891 44.3907 58.1339 44.3452C58.5967 43.9506 59.0446 43.556 59.4626 43.1159C59.6717 42.9035 59.8508 42.6606 60.03 42.4178C60.2091 42.175 60.3734 41.917 60.5973 41.7045C60.7018 41.6135 60.4182 41.5528 60.3435 41.6286H60.3584Z" fill="#63848F"/>
</svg>
