<svg width="102" height="161" viewBox="0 0 102 161" fill="none"
  xmlns="http://www.w3.org/2000/svg">
  <path d="M98.7864 155.628C98.7864 157.647 80.8487 162.808 63.3593 159.891C58.2022 158.994 55.5116 157.872 50.1303 158.32C43.1794 158.769 39.816 161.013 32.4167 160.564C29.726 160.34 29.726 160.115 24.7931 159.218C10.4429 156.526 1.47399 157.423 1.24977 155.853C1.02555 154.731 6.18267 153.16 7.07956 152.936C16.0485 150.244 22.7751 151.814 33.3136 152.712C39.5918 153.16 43.852 153.16 50.1303 153.385C63.1351 153.385 65.3774 152.487 74.7947 152.712C83.9878 152.712 98.7864 153.833 98.7864 155.628Z" fill="#E9D7AA"/>
  <path d="M25.5407 153.966C25.4553 154.28 25.2278 154.622 24.986 154.879C24.3318 155.606 23.8483 156.448 23.0804 157.061C23.0093 157.118 22.9524 157.161 22.867 157.189C22.7959 157.203 22.739 157.189 22.6679 157.161C22.6111 157.146 22.5684 157.118 22.5257 157.089C21.3169 156.419 20.0654 155.72 19.1552 154.565C18.8566 154.18 18.7428 153.88 18.757 153.624C18.7855 153.082 19.397 152.796 20.0512 152.597C21.6867 152.126 23.4501 152.269 25.0145 152.982C25.5265 153.224 25.6402 153.581 25.5407 153.952V153.966Z" fill="#4B575E"/>
  <path d="M25.5407 153.966C25.4553 154.28 25.2278 154.622 24.986 154.879C24.3318 155.606 23.8483 156.448 23.0804 157.061C23.0093 157.118 22.9524 157.161 22.867 157.189C22.7959 157.203 22.739 157.189 22.6679 157.161C22.6111 157.146 22.5684 157.118 22.5257 157.089C21.3169 156.419 20.0654 155.72 19.1552 154.565C18.8566 154.18 18.7428 153.88 18.757 153.624C18.8139 153.681 18.8566 153.738 18.885 153.766C19.1695 154.066 19.4681 154.337 19.781 154.593C20.4209 155.107 21.132 155.506 21.8715 155.791C22.156 155.906 22.4688 155.991 22.7533 155.906C23.2652 155.734 23.763 155.235 24.2181 154.921C24.6021 154.65 25.0003 154.365 25.3842 154.094C25.4269 154.066 25.4838 154.023 25.5407 153.966V153.966Z" fill="#4B575E"/>
  <path d="M12.0731 72.1127C12.0447 73.5675 12.1158 74.951 12.1727 76.0777C12.9406 92.2087 14.1352 108.183 14.1352 124.357C14.2206 128.45 14.2917 132.558 14.377 136.651C14.4339 139.375 14.4197 142.099 14.505 144.823C14.5477 146.107 14.6614 147.405 14.633 148.689C14.6188 149.987 14.633 151.299 15.017 152.554C15.1165 152.882 15.2445 153.21 15.4721 153.452C16.0551 154.094 17.0649 154.023 17.9181 153.895C20.0371 153.566 22.1704 153.167 24.3036 153.338C25.3133 153.424 26.323 153.638 27.347 153.666C28.3567 153.695 27.8589 152.796 27.8589 152.126C27.8732 151.028 27.9016 149.929 27.9301 148.831C27.9727 146.635 28.0296 144.438 28.0723 142.242C28.1718 137.849 28.2572 133.442 28.3567 129.049C28.5416 120.249 28.7265 111.463 28.9256 102.663C28.9824 100.11 29.0393 97.5572 29.0962 95.0185C29.2669 87.2453 29.4233 79.458 28.9256 71.6991C28.7833 69.4313 28.5416 67.0495 27.2901 65.1526C25.1711 61.9577 20.0229 60.8025 16.5102 62.1859C12.9122 63.5979 12.1585 68.1335 12.0873 72.127L12.0731 72.1127Z" fill="#99A558"/>
  <path d="M41.2697 105.872C41.2697 105.972 41.2697 106.086 41.2413 106.186C41.2128 106.457 41.1986 106.728 41.1559 106.999C40.9426 108.739 40.5017 110.465 40.004 112.176C39.6485 113.389 39.2503 114.587 38.8947 115.742C34.9127 128.379 30.9307 141.015 26.9345 153.652C25.6545 150.6 24.6733 147.405 24.0191 144.153C23.052 139.347 22.7818 134.383 23.3933 129.52C23.8769 125.598 24.9292 121.761 25.555 117.867C25.9532 115.385 26.1665 112.947 26.2518 110.522C26.2803 109.852 26.2945 109.181 26.2945 108.511C26.3229 105.872 26.2092 103.234 26.0385 100.524C25.3274 89.2136 25.3559 77.7607 22.796 66.7215C22.3978 65.0242 22.0281 63.0132 23.2084 61.7438C24.0475 60.8453 25.3985 60.6741 26.6216 60.6313C28.7833 60.56 30.9591 60.7027 33.0924 61.0735C36.0646 61.5869 35.8371 64.6249 36.2922 67.1066C36.8753 70.2729 37.4157 73.4392 37.9134 76.6055C38.8947 82.8382 39.7196 89.0995 40.3737 95.3893C40.7293 98.7696 41.4546 102.478 41.2555 105.872H41.2697Z" fill="#99A558"/>
  <path d="M12.3432 68.0621C12.329 68.1477 12.3148 68.2333 12.2863 68.3189C11.9166 70.2871 12.0019 72.3409 12.5139 74.2806C18.7856 72.6547 25.427 72.4407 31.784 73.6531C32.9928 73.8813 34.4007 74.1095 35.3109 73.2822C36.989 71.7704 36.5339 68.3759 36.278 66.4219C35.8513 63.1415 35.3393 59.8754 34.742 56.6235C34.6851 56.3525 34.6283 56.053 34.4007 55.8961C34.2443 55.782 34.0594 55.7678 33.8745 55.7392C29.3663 55.2686 24.7728 55.183 20.293 55.8961C18.6291 56.1529 16.2115 56.1956 15.5146 57.8644C14.7609 59.69 14.32 62.0718 13.5805 64.0258C13.097 65.3522 12.5992 66.6787 12.3148 68.0621H12.3432Z" fill="#99A558"/>
  <path d="M36.0505 68.4757C35.4247 67.6342 34.9127 66.7214 34.4719 65.7658C34.031 64.7959 33.6755 63.7976 33.3484 62.7849C33.1635 62.2287 32.9928 61.6582 32.8222 61.1019C33.4764 61.0877 34.1448 61.1019 34.799 61.1305C34.8416 61.1305 34.9412 61.1162 34.9412 61.0591C34.9412 61.0021 34.8416 60.9878 34.799 60.9878C32.4951 60.8452 30.2054 61.1305 27.9158 61.3729C27.9158 61.2018 27.9158 61.0164 27.9158 60.8452C27.9158 59.804 27.9442 58.7486 27.9584 57.7074C27.9584 57.6076 27.6882 57.6076 27.6882 57.7074C27.674 58.934 27.6598 60.1749 27.6456 61.4014C27.4607 61.4157 27.2616 61.4442 27.0767 61.4585C26.2803 61.5441 25.4839 61.6011 24.6875 61.6296C24.6448 60.9593 24.6164 60.3032 24.5737 59.6329C24.5169 58.7058 24.4457 57.7787 24.3604 56.8517C24.3604 56.7518 24.076 56.7518 24.0902 56.8517C24.2324 58.4491 24.3462 60.0322 24.4315 61.6296C24.0191 61.6439 23.6067 61.6582 23.1943 61.6582C21.8859 61.6582 20.5775 61.6297 19.2691 61.5583C17.8043 61.487 16.3253 61.4014 14.8605 61.3159C14.8178 61.3159 14.7183 61.3301 14.7183 61.3872C14.7183 61.4442 14.8178 61.4585 14.8605 61.4585C16.112 61.5298 17.3635 61.6154 18.6007 61.6724C18.6434 62.9561 18.4443 64.2254 18.0887 65.452C17.9039 66.0653 17.6905 66.6786 17.4488 67.2634C17.207 67.8339 16.9368 68.3901 16.5386 68.8608C16.0977 69.3885 15.5431 69.7879 14.9885 70.2015C14.9316 70.2443 14.9885 70.287 15.0311 70.3013C15.088 70.3298 15.1733 70.3013 15.216 70.2728C15.7138 69.9162 16.2115 69.5454 16.6239 69.089C17.0506 68.6326 17.3635 68.0906 17.6052 67.5201C18.1314 66.3363 18.5154 65.0812 18.7287 63.7976C18.8425 63.0987 18.8994 62.3713 18.8709 61.6582C20.1509 61.7295 21.4308 61.7723 22.7107 61.7723C23.2796 61.7723 23.8627 61.7723 24.4315 61.7437C24.4315 61.7437 24.4315 61.7438 24.4315 61.758C24.5168 63.4125 24.5737 65.0669 24.6164 66.7214C24.6306 67.6485 24.6448 68.5755 24.6448 69.5026C24.6448 69.6024 24.8297 69.5739 24.8866 69.5597C25.3133 69.3742 25.7399 69.1746 26.1665 68.9892C26.5079 68.8323 26.8634 68.7039 27.162 68.49C27.4465 68.3045 27.7025 68.0478 27.802 67.7055C27.8589 67.5058 27.8589 67.3062 27.8731 67.0922C27.8731 66.864 27.8731 66.6216 27.8731 66.3934C27.8873 64.7532 27.9158 63.113 27.93 61.4728C28.7833 61.3872 29.6224 61.2873 30.4756 61.2018C31.1725 61.1447 31.8693 61.0877 32.552 61.0591C32.8648 62.0718 33.1635 63.0844 33.519 64.0828C33.8746 65.0812 34.287 66.0511 34.799 66.9781C35.0834 67.4916 35.4105 67.9908 35.7518 68.4614C35.7945 68.5185 35.8656 68.5185 35.9225 68.5185C35.9509 68.5185 36.0505 68.4757 36.022 68.4186L36.0505 68.4757ZM27.6313 63.1985C27.6313 64.1113 27.6029 65.0384 27.6029 65.9512C27.6029 66.4076 27.6029 66.864 27.5887 67.3062C27.5887 67.5058 27.546 67.7198 27.4607 67.8909C27.3896 68.0336 27.2758 68.1619 27.1478 68.276C26.8492 68.5328 26.451 68.6896 26.0954 68.8465L24.9293 69.3742C24.9293 67.7768 24.9008 66.1652 24.8439 64.5677C24.8155 63.6264 24.7728 62.6993 24.7159 61.758C25.3559 61.7295 25.9817 61.6867 26.6216 61.6296C26.9629 61.6011 27.3185 61.5583 27.6598 61.5298C27.6598 62.0861 27.6598 62.6423 27.6456 63.1985H27.6313Z" fill="#67762E"/>
  <path d="M29.2384 75.1363C29.2384 75.1363 29.0962 75.1078 29.0393 75.1363C28.314 75.5927 27.6313 76.1062 26.9772 76.6624C26.9061 76.6054 26.7212 76.6339 26.7354 76.7195C26.8634 86.361 26.9914 96.0168 27.1336 105.658L27.5318 134.455C27.6029 139.874 27.674 145.28 27.7593 150.7C27.7593 150.814 28.0295 150.799 28.0295 150.7C27.9016 141.058 27.7736 131.402 27.6313 121.761C27.5034 112.162 27.3754 102.563 27.2331 92.9646C27.162 87.6161 27.0909 82.2676 27.0198 76.9192H27.034C27.7309 76.3201 28.4704 75.7639 29.2526 75.2647C29.2953 75.2362 29.2953 75.1934 29.2526 75.1506L29.2384 75.1363Z" fill="#67762E"/>
  <path d="M48.0819 77.5468C48.2952 77.3757 48.3521 77.0334 48.1245 76.3488C46.617 71.7562 45.1238 67.1636 43.6163 62.5711C42.9764 60.6171 41.9666 58.5348 41.9809 56.4667C41.9951 54.256 41.5826 52.031 41.3551 49.8488C41.2982 49.2498 41.2413 48.6508 41.1844 48.0375C40.9 44.8854 40.6583 41.7334 40.0894 38.6242C39.6485 36.228 39.037 31.2361 35.8798 30.8653C34.9839 30.7512 34.0311 31.0935 33.4053 31.7496C32.4525 32.748 32.3245 34.2741 32.3671 35.6575C32.424 37.5687 32.6942 39.4657 32.9787 41.3626C33.3058 43.559 33.9031 45.8553 34.0168 48.066C34.2586 53.0437 35.2114 57.7218 36.9038 62.4142C38.1837 65.9513 39.7196 69.4029 41.3551 72.7974C42.1231 74.409 43.0332 75.9779 44.0145 77.4755C44.2563 77.8321 44.4269 77.8463 44.8251 77.8321C45.2802 77.8321 45.7211 77.8321 46.162 77.7608C46.9299 77.6324 47.7405 77.8321 48.0961 77.5468H48.0819Z" fill="#F7D2B1"/>
  <path d="M33.5332 55.2971C34.5003 55.2971 44.5975 54.2702 44.498 53.7996C43.1327 47.524 41.4404 41.3055 39.4494 35.2011C39.0369 33.9175 38.5534 32.5768 37.5437 31.7068C37.0886 31.3074 36.534 31.0222 35.9935 30.7369C35.5385 30.4945 35.0549 30.252 34.543 30.195C31.8267 29.8241 31.4427 34.9872 31.3716 36.7558C31.2862 38.8809 31.5707 40.9917 31.8693 43.1026C32.168 45.2135 32.5235 47.3386 32.8079 49.4495C33.0639 51.4177 33.1635 53.3717 33.5475 55.3257L33.5332 55.2971Z" fill="#FFFDF8"/>
  <path d="M14.1776 45.4845C15.9695 43.3593 17.5908 40.6352 18.8992 38.182C19.6813 36.713 21.0751 35.629 21.8003 34.1314C22.5825 32.5198 22.355 30.6086 22.099 28.8257C21.8288 26.8575 21.5159 24.9463 21.5017 22.9781C21.4875 20.9813 21.5301 18.9703 21.6155 16.9735C21.6581 16.0607 21.715 15.0053 21.1888 14.2066C20.8048 13.6218 20.0795 12.9657 19.3827 12.8088C18.373 12.5806 18.0601 14.0782 17.6903 14.7485C17.1073 15.8468 16.7517 17.0306 16.4957 18.2429C15.9695 20.6675 15.7847 23.2063 14.7465 25.474C14.0923 26.9003 13.111 28.1839 11.888 29.1823C10.4232 30.3661 8.53172 31.2789 7.84909 33.0475C7.39401 34.2455 7.59311 35.6861 6.86781 36.7557C6.54072 37.2407 6.05719 37.583 5.61632 37.9681C3.82442 39.5227 2.65826 41.7762 2.43072 44.1438C2.30272 45.4845 2.53027 46.9963 3.56843 47.8663C4.36483 48.5224 5.45989 48.665 6.49805 48.6222C9.01525 48.5367 12.4995 47.4812 14.1776 45.4845V45.4845Z" fill="#B36332"/>
  <path d="M7.55042 48.0232C7.97706 45.3704 8.41793 42.7318 8.90146 40.0932C9.37077 37.4974 10.0676 31.2646 13.5377 30.851C14.4336 30.7369 15.3864 31.0792 16.0122 31.7353C16.965 32.7337 17.093 34.2598 17.0504 35.6433C16.9935 37.5544 16.7233 39.4514 16.4388 41.3483C15.742 46.0407 14.974 50.7331 14.1634 55.4112C13.7794 57.6077 13.3812 59.8041 12.6417 61.9007C12.5564 62.1432 12.4568 62.3999 12.2577 62.5711C12.016 62.785 11.6604 62.8135 11.3333 62.842C10.3378 62.9276 9.34232 62.9989 8.34682 62.9419C7.69263 62.8991 6.71135 62.9989 6.1425 62.6281C5.40298 62.1574 5.70163 61.2874 5.80118 60.5315C6.08561 58.2352 6.38426 55.9247 6.71135 53.6284C6.98156 51.7457 7.26599 49.8773 7.56464 47.9947L7.55042 48.0232Z" fill="#F7D2B1"/>
  <path d="M11.5325 59.0625C10.8783 58.6203 10.0392 58.4064 9.27124 58.4064C6.24207 58.4349 5.17546 62.457 4.6066 64.8245C3.12757 71.043 2.03252 77.3614 1.00857 83.6654C0.852136 84.5925 0.852136 85.7621 1.96141 85.976C2.75781 86.1329 3.75331 85.8619 4.05196 85.0489C5.43145 81.3692 6.69716 77.6038 8.30418 74.0097C9.88276 70.4583 11.1911 66.7785 12.2862 63.0417C12.5137 62.243 12.7413 61.4158 12.5848 60.6028C12.4568 59.9182 12.0444 59.3905 11.5182 59.0197L11.5325 59.0625Z" fill="#F7D2B1"/>
  <path d="M4.80577 89.1138C4.76311 88.9426 4.692 88.7857 4.63512 88.6146C4.46446 88.1439 4.36491 87.6305 4.35069 87.117C4.35069 86.9316 4.39335 86.7747 4.40757 86.5893C4.40757 86.3326 4.37913 86.0616 4.35069 85.8191C4.26536 85.2914 4.08048 84.8492 3.79605 84.4071C3.55428 84.0363 3.02809 83.9079 2.60145 83.8794C1.54906 83.8223 0.909093 84.4071 0.596221 85.2058C-0.441946 87.8587 -0.043745 91.025 1.16508 93.578C1.22197 93.6921 1.29307 93.8204 1.43529 93.8632C1.59172 93.906 1.76238 93.8062 1.83349 93.6635C1.9046 93.5352 1.89037 93.3783 1.87615 93.2357C1.9046 93.4924 2.06103 93.7206 2.31702 93.8632C2.701 94.0914 2.78633 93.7063 2.74366 93.4211C2.67255 92.7793 2.61567 92.166 2.53034 91.5384C2.44501 90.9109 2.41657 90.212 2.45923 89.5559C2.48768 89.0995 2.51612 88.6431 2.62989 88.1867C2.68678 88.0013 2.71522 87.659 2.99965 87.7018C3.14186 87.7303 3.25563 87.8444 3.34096 87.9728C3.46896 88.1439 3.56851 88.3436 3.63961 88.5433C3.72494 88.7715 3.78183 89.0139 3.88138 89.2279C3.98093 89.4418 4.13736 89.6557 4.36491 89.7413C4.79155 89.9125 4.8911 89.4989 4.81999 89.1566C4.81999 89.128 4.81999 89.0995 4.80577 89.0852V89.1138Z" fill="#F7D2B1"/>
  <path d="M9.64098 33.9602C8.28994 36.2423 7.56465 39.1661 6.91046 41.3198C5.57364 45.6984 4.67769 50.2054 3.78174 54.6981C4.30793 54.7979 5.07589 55.1402 5.58786 55.1402C6.59759 55.5396 7.82063 55.5253 8.88724 55.7535C10.9636 56.1814 13.0541 56.5094 15.1589 56.7091C15.3864 53.229 16.0833 49.7489 16.5384 46.2831C17.0077 42.7175 17.4201 39.1518 17.7757 35.5719C17.861 34.759 17.9321 33.9175 17.7757 33.1188C17.6192 32.32 17.2068 31.5213 16.5099 31.0935C15.5855 30.5372 13.751 30.4802 12.7413 30.9366C11.4329 31.5356 10.4374 32.6338 9.6552 33.9602H9.64098Z" fill="#FFFDF8"/>
  <path d="M38.8378 40.2358C38.6244 41.8047 38.3116 43.3735 38.1125 44.8426C37.6858 47.8948 37.2307 50.947 36.7188 53.9849C36.5197 55.183 36.5055 56.3668 36.1499 57.5506C36.0788 57.793 35.9935 58.0498 35.7944 58.2209C35.5811 58.4063 35.2824 58.4348 35.0122 58.4634C34.0025 58.549 32.9927 58.606 31.983 58.6631C27.1051 58.934 22.2271 59.1908 17.3349 59.0767C16.7803 59.0767 16.2114 59.0339 15.7279 58.7772C14.8604 58.2922 14.576 57.2083 14.3769 56.2384C13.4525 51.6458 13.4382 46.6254 11.561 42.3038C11.2197 41.5051 10.9068 40.8348 10.3095 40.2072C9.42779 39.2802 9.32824 38.3674 9.31402 37.0552C9.27135 32.6338 13.8222 29.7242 17.5767 28.5832C18.4869 28.3122 19.4113 28.0983 20.3499 27.9414C22.1418 27.6419 23.9763 27.5706 25.7967 27.6704C27.3468 27.756 28.9112 27.8986 30.4187 28.3265C30.4755 28.3408 30.5324 28.355 30.5751 28.3693C33.1776 29.1395 36.6477 30.2234 38.0556 32.7479C38.6244 33.7748 38.8093 34.9729 38.9373 36.1424C39.0938 37.4688 38.9942 38.8523 38.8093 40.25L38.8378 40.2358Z" fill="#FFFDF8"/>
  <path d="M30.0916 28.3122C30.0631 28.4549 30.0347 28.5975 29.992 28.7544C29.7787 29.496 29.352 30.2234 29.025 30.7226C28.4134 31.6497 27.8161 32.5767 27.2046 33.5038C26.6357 34.3738 26.1096 35.5434 25.3843 36.285C24.7585 36.9411 24.8012 36.3421 24.3603 35.6575C23.8768 34.9016 23.4501 34.1314 22.9808 33.3612C22.2413 32.1203 21.4876 30.8795 20.7481 29.6387C20.4921 29.1965 20.1081 28.5404 20.0085 27.9414C21.8004 27.6419 23.635 27.5706 25.4554 27.6704C27.0055 27.756 28.5699 27.8986 30.0773 28.3265L30.0916 28.3122Z" fill="#FCD9BA"/>
  <path d="M31.4711 28.9826C31.4711 28.8828 31.1867 28.8828 31.2009 28.9826C31.2435 30.3803 31.2293 31.7638 31.1867 33.1615C31.1867 33.5038 31.1582 33.8461 31.144 34.1884C31.144 34.3596 31.1298 34.545 31.1155 34.7162C31.1155 34.8017 31.1155 34.873 31.1013 34.9586C31.1013 35.0299 31.1013 35.1155 31.0871 35.1868C31.0871 35.2154 31.0729 35.2439 31.0444 35.2581C31.0444 35.2581 31.0444 35.2581 31.016 35.2581C30.9449 35.2296 30.8738 35.1868 30.8027 35.1583C30.6605 35.087 30.5182 35.0014 30.376 34.9158C30.0916 34.7447 29.8072 34.5735 29.5227 34.4024C29.2099 34.2027 28.9112 34.003 28.6126 33.7891C28.3281 33.6037 28.0295 33.4183 27.674 33.4468C27.6313 33.4468 27.5317 33.4468 27.5317 33.5181C27.5317 33.5752 27.6313 33.5894 27.674 33.5894C27.9868 33.5752 28.257 33.7748 28.4988 33.946C28.7832 34.1457 29.0677 34.3311 29.3521 34.5165C29.6365 34.7019 29.9352 34.873 30.2338 35.0442C30.3903 35.1298 30.5325 35.2154 30.6889 35.3009C30.8169 35.3722 30.9591 35.4293 31.1155 35.415C31.2578 35.4008 31.3431 35.3009 31.3715 35.1583C31.4 35.0014 31.4 34.816 31.4142 34.6591C31.4426 34.3025 31.4569 33.9317 31.4711 33.5752C31.4995 32.8478 31.528 32.1346 31.528 31.4072C31.528 30.5943 31.528 29.7813 31.4995 28.9683L31.4711 28.9826Z" fill="#63848F"/>
  <path d="M22.6111 33.5894C22.6111 33.5894 22.4688 33.5609 22.412 33.5894C21.2316 34.1599 20.0654 34.7447 18.885 35.3152L18.5011 32.7907C18.3731 31.9207 18.2024 31.0507 18.1597 30.1664C18.1313 29.6672 18.1597 29.168 18.2593 28.6831C18.2735 28.5833 18.0033 28.569 17.9891 28.6831C17.8184 29.5389 17.8895 30.4231 18.0033 31.2932C18.1171 32.1774 18.2735 33.0617 18.4015 33.946C18.4868 34.4595 18.5579 34.9586 18.6433 35.4721C18.6575 35.5719 18.8139 35.5577 18.885 35.5291L22.6253 33.7035C22.6253 33.7035 22.6679 33.618 22.6253 33.5894H22.6111Z" fill="#63848F"/>
  <path d="M25.6972 39.8934C25.6687 39.8079 25.6261 39.7223 25.555 39.651C25.3558 39.4513 24.9719 39.4228 24.7728 39.6225C24.7017 39.6652 24.659 39.708 24.6163 39.7793C24.5452 39.8934 24.531 40.0503 24.531 40.1787C24.531 40.3356 24.531 40.5067 24.5737 40.6636C24.5879 40.7492 24.6163 40.8348 24.6448 40.9061C24.6732 41.0345 24.7017 41.1628 24.787 41.2769C24.8865 41.391 25.0572 41.4481 25.2136 41.4338C25.3843 41.4196 25.4981 41.3197 25.5692 41.1771C25.7541 40.849 25.9105 40.25 25.6972 39.8792V39.8934Z" fill="#63848F"/>
  <path d="M25.6972 46.7252C25.6687 46.6397 25.6261 46.5541 25.555 46.4828C25.3558 46.2831 24.9719 46.2546 24.7728 46.4542C24.7017 46.497 24.659 46.5398 24.6163 46.6111C24.5452 46.7252 24.531 46.8821 24.531 47.0105C24.531 47.1674 24.531 47.3385 24.5737 47.4954C24.5879 47.581 24.6163 47.6666 24.6448 47.7379C24.6732 47.8662 24.7017 47.9946 24.787 48.1087C24.8865 48.2228 25.0572 48.2799 25.2136 48.2656C25.3843 48.2513 25.4981 48.1515 25.5692 48.0089C25.7541 47.6808 25.9105 47.0818 25.6972 46.711V46.7252Z" fill="#63848F"/>
  <path d="M25.6972 53.557C25.6687 53.4715 25.6261 53.3859 25.555 53.3146C25.3558 53.1149 24.9719 53.0864 24.7728 53.286C24.7017 53.3288 24.659 53.3716 24.6163 53.4429C24.5452 53.557 24.531 53.7139 24.531 53.8423C24.531 53.9992 24.531 54.1703 24.5737 54.3272C24.5879 54.4128 24.6163 54.4984 24.6448 54.5697C24.6732 54.698 24.7017 54.8264 24.787 54.9405C24.8865 55.0546 25.0572 55.1117 25.2136 55.0974C25.3843 55.0831 25.4981 54.9833 25.5692 54.8407C25.7541 54.5126 25.9105 53.9136 25.6972 53.5428V53.557Z" fill="#63848F"/>
  <path d="M39.0367 37.2121C38.4394 38.239 37.8564 39.2659 37.259 40.3071C37.0884 40.6066 36.9177 40.8919 36.7471 41.1914C36.6902 41.2912 36.9604 41.3197 37.0173 41.2342C37.6146 40.2073 38.1977 39.1803 38.795 38.1392L39.3069 37.2549C39.3638 37.1551 39.0936 37.1265 39.0367 37.2121V37.2121Z" fill="#63848F"/>
  <path d="M36.2637 43.0883V54.5697C36.2637 54.6695 36.5339 54.6695 36.5339 54.5697V43.0883C36.5339 42.9885 36.2637 42.9885 36.2637 43.0883Z" fill="#63848F"/>
  <path d="M13.4239 44.5859C12.4995 43.4734 11.6605 42.2896 10.921 41.0488C10.7076 40.6922 10.5085 40.3356 10.3094 39.9791C10.2668 39.8935 9.99656 39.922 10.0392 40.0219C10.7361 41.3055 11.5325 42.5463 12.4142 43.7159C12.656 44.0439 12.912 44.3577 13.1679 44.6715C13.2248 44.7428 13.495 44.7 13.4097 44.6002L13.4239 44.5859Z" fill="#63848F"/>
  <path d="M13.8221 52.302C13.751 51.1182 13.6656 49.9487 13.5661 48.7649C13.5092 48.0945 13.4665 47.4242 13.4096 46.7538C13.4096 46.654 13.1252 46.654 13.1394 46.7538C13.239 47.9376 13.3243 49.1214 13.4096 50.3052C13.495 51.489 13.5661 52.6586 13.6514 53.8424C13.6941 54.5127 13.7367 55.183 13.7652 55.8534C13.7652 55.9532 14.0496 55.9532 14.0354 55.8534C13.9643 54.6696 13.8932 53.4858 13.8221 52.302Z" fill="#63848F"/>
  <path d="M21.0325 29.767L29.608 29.439C29.5511 29.1252 29.5085 28.8114 29.4658 28.4977C29.4374 28.1411 29.4231 27.7845 29.4231 27.4137C29.4231 26.615 29.48 25.8163 29.48 25.0176C29.48 24.604 29.5369 24.0335 29.4231 23.6056C29.4089 23.5343 29.3805 23.463 29.352 23.4059C29.1672 23.0066 28.8543 22.6215 28.4987 22.3647C27.5032 21.4662 25.8109 21.0526 24.5025 21.238C23.891 21.3236 23.2937 21.4947 22.8386 21.9369C22.3977 22.3647 22.4262 23.1349 22.3124 23.7197C22.0564 24.9748 21.7293 26.2156 21.3311 27.428C21.2174 27.7703 21.1036 28.1126 20.9756 28.4406C20.876 28.7259 20.7907 28.9113 20.8476 29.2108C20.8903 29.3962 20.9472 29.5816 21.0325 29.767V29.767Z" fill="#FCD9BA"/>
  <path d="M29.4801 25.0319C29.4801 25.8306 29.4232 26.6293 29.4232 27.428C29.1388 27.3852 28.8828 27.2711 28.6268 27.1427C27.5033 26.5722 25.0288 24.6896 26.7069 23.3489C27.6882 22.6215 28.5841 23.0494 29.4232 23.6199C29.537 24.0478 29.4801 24.6183 29.4801 25.0319Z" fill="#E6C1A0"/>
  <path d="M19.1979 20.4678C18.5437 19.4124 18.1029 18.2286 18.0033 16.9735C17.8895 15.7184 18.2166 14.7485 18.6291 13.5932C19.1695 12.0957 20.6627 11.0117 22.0707 10.3984C24.7158 9.24315 28.2428 9.31446 30.0062 11.9388C30.888 13.2509 30.9306 14.6915 31.3573 16.132C31.5137 16.6312 31.8835 16.8736 32.2817 17.1732C32.7367 17.5155 33.2061 17.8435 33.6611 18.1858C33.7749 18.2714 33.9029 18.357 33.9882 18.4853C34.2727 18.8847 33.8034 19.3411 33.5332 19.6263C33.0496 20.1113 33.0781 20.9955 33.1492 21.6374C33.2203 22.4075 33.4194 23.192 33.2772 23.9622C33.2345 24.2046 33.1492 24.4471 32.9927 24.6468C32.7367 24.9748 32.1821 25.1317 31.7839 25.2315C31.2719 25.3742 30.7315 25.4027 30.2053 25.4169C29.4232 25.4169 28.7263 25.3884 27.9868 25.1602C27.2757 24.9463 26.5931 24.6182 25.9673 24.2046C25.4269 23.8481 24.9292 23.4202 24.4172 23.0351C23.9763 22.707 23.4786 22.2506 22.8955 22.5359C22.6964 22.6357 22.7248 22.7926 22.4973 22.8497C22.284 22.9067 21.9142 22.7498 21.7151 22.6785C20.6485 22.2934 19.8094 21.4092 19.2121 20.4678H19.1979Z" fill="#FCD9BA"/>
  <path d="M26.9485 22.7213C26.9485 22.7213 26.9485 22.8069 26.9485 22.8497C26.92 23.1349 26.8347 23.4202 26.664 23.6341C26.5503 23.791 26.3938 23.9051 26.2232 24.005C25.7254 24.3045 25.1992 24.3615 24.673 24.1048C24.4882 24.0192 24.2891 23.9051 24.218 23.7197C24.1753 23.6341 24.1753 23.5486 24.1753 23.4487C24.1753 22.8639 24.5451 23.1777 24.8437 23.3631C25.1424 23.5628 25.569 23.5628 25.8819 23.3631C26.1947 23.1635 26.3796 22.8069 26.3796 22.4361C26.3796 22.0652 26.1947 21.7087 25.9103 21.4805C25.8108 21.3949 25.7112 21.3379 25.6117 21.238C25.5121 21.1382 25.4552 21.0241 25.4694 20.8957C25.4979 20.4821 26.0241 20.5106 26.2516 20.6818C26.4792 20.8529 26.7067 21.1382 26.8063 21.4092C26.9627 21.8228 27.0196 22.2649 26.9911 22.7071L26.9485 22.7213Z" fill="#EAC056"/>
  <path d="M28.4701 16.3602C28.3705 16.1748 28.5981 15.7754 28.6692 15.6185C28.8256 15.319 29.0674 15.0766 29.3376 14.9054C29.6078 14.7343 29.9918 14.5061 30.3189 14.5916C30.5464 14.6487 30.7455 14.9054 30.5749 15.0908C30.4184 15.2762 29.9633 15.3761 29.75 15.4331C29.5651 15.4759 29.3518 15.5044 29.1812 15.6043C29.0105 15.7041 28.8683 15.861 28.7403 16.0179C28.6407 16.132 28.5554 16.2604 28.4417 16.3602H28.4701Z" fill="#B36332"/>
  <path d="M30.1626 16.9307C30.1626 16.9307 30.191 16.9022 30.2195 16.9022C30.2195 16.9022 30.2195 16.9022 30.2337 16.9022C30.3048 16.8736 30.3901 16.9022 30.4612 16.9164C30.5323 16.9307 30.5892 16.9877 30.6461 17.0305C30.8594 17.2159 30.8879 17.4869 30.8736 17.7579C30.8736 17.815 30.8736 17.8863 30.8452 17.9433C30.8452 17.9433 30.8452 17.9433 30.8452 17.9576C30.8452 17.9576 30.8452 17.9719 30.8452 17.9861C30.8452 18.0432 30.8168 18.0717 30.7741 18.1002C30.7457 18.1145 30.7172 18.143 30.6888 18.1573C30.6034 18.1858 30.4897 18.1715 30.4043 18.1287C30.319 18.086 30.2763 18.0146 30.2479 17.9291C30.1199 17.6296 29.9777 17.2587 30.1768 16.9592L30.1626 16.9307Z" fill="#1A8B93"/>
  <path d="M14.2345 24.0049C14.2345 24.0049 14.3483 23.8909 14.4052 23.8338C15.5998 22.6357 16.4815 20.9385 16.965 19.3126C17.5054 17.4584 17.2495 15.4046 18.1312 13.636C19.8662 10.1845 24.5877 8.08788 28.2142 9.68529C29.6363 10.3128 29.1386 12.1812 28.9395 13.365C28.6551 14.991 28.1289 16.5741 27.5885 18.143C26.3796 21.6231 24.5735 24.9605 22.4118 27.9414C20.7622 30.2377 18.3303 32.1489 15.3864 32.1204C12.1724 32.0776 9.39921 33.0902 7.35132 35.7145C7.47931 32.7622 8.60281 29.8526 10.5227 27.5991C11.6462 26.287 13.0115 25.203 14.2345 23.9907V24.0049Z" fill="#B36332"/>
  <path d="M25.5834 19.1842C25.0857 20.7103 24.3462 22.1651 23.436 23.4915C22.5258 24.8037 21.4166 25.9875 20.1793 27.0002C19.4682 27.5707 18.7287 28.0841 17.9323 28.5262C17.8754 28.5548 17.8896 28.5976 17.9323 28.6404C17.9892 28.6689 18.0745 28.6689 18.1314 28.6404C19.5393 27.8416 20.8335 26.8433 21.957 25.6737C23.0805 24.5042 24.0333 23.192 24.787 21.7515C25.2137 20.9385 25.5692 20.0971 25.8536 19.2413C25.8963 19.1272 25.6119 19.1129 25.5834 19.1985V19.1842Z" fill="#98491F"/>
  <path d="M20.037 22.9353C19.3828 24.0763 18.4868 25.0747 17.4202 25.8449C17.1216 26.0588 16.8087 26.2585 16.4816 26.4297C16.4247 26.4582 16.4389 26.501 16.4816 26.5438C16.5385 26.5723 16.6238 26.5723 16.6807 26.5438C17.8611 25.9019 18.885 25.0034 19.6814 23.9337C19.909 23.6342 20.1081 23.3061 20.3072 22.9781C20.3641 22.8783 20.0939 22.8497 20.037 22.9353V22.9353Z" fill="#98491F"/>
  <path d="M21.0183 11.8247C21.0183 11.8247 20.8761 11.8247 20.8334 11.8532C19.8948 12.5806 19.1979 13.6218 18.8851 14.7628C18.7997 15.0908 18.7429 15.4189 18.7002 15.7469C18.7002 15.8468 18.9704 15.861 18.9704 15.7469C19.07 14.5774 19.5677 13.4506 20.3499 12.5949C20.5632 12.3524 20.805 12.1242 21.0752 11.9245C21.1321 11.8818 21.0752 11.839 21.0325 11.8247H21.0183Z" fill="#98491F"/>
  <path d="M31.926 22.051C31.926 22.051 31.798 22.0082 31.7411 22.0225C31.3287 22.1366 30.8736 21.9226 30.6603 21.5518C30.6318 21.4948 30.5465 21.4948 30.4896 21.4948C30.4612 21.4948 30.3616 21.5375 30.3901 21.5946C30.6887 22.0938 31.3287 22.3077 31.8691 22.1508C31.9118 22.1508 31.9544 22.0938 31.9118 22.051H31.926Z" fill="#C6AE8A"/>
  <path d="M51.225 78.445C50.2153 77.9601 49.1913 77.4323 48.3949 76.6194C48.1532 76.3769 47.9114 75.892 47.5985 75.7493C47.243 75.5925 46.6884 75.7208 46.3328 75.8349C45.892 75.9776 45.4795 76.2058 45.0956 76.4625C44.7542 76.6907 44.4414 76.9474 44.228 77.2897C43.7161 78.1597 44.356 79.258 44.5694 80.1137C44.8253 81.0978 45.3515 81.9679 45.892 82.8236C46.3755 83.5938 46.9586 84.4068 47.8261 84.5922C48.2243 84.6777 48.6367 84.1928 48.978 84.0074C49.6038 83.6508 50.2579 83.2657 50.5993 82.6239C50.6846 82.467 50.7415 82.2816 50.7415 82.0962C50.7415 81.811 50.5708 81.5685 50.457 81.3118C50.2153 80.7841 49.874 79.3721 50.8837 79.7571C51.2108 79.8855 51.5379 80.0139 51.865 80.128C52.0356 80.185 52.2205 80.2563 52.3769 80.1708C52.5618 80.0709 52.5903 79.8142 52.5334 79.6145C52.3769 79.0725 51.8507 78.7302 51.3388 78.4735C51.2961 78.4592 51.2677 78.4307 51.225 78.4165V78.445Z" fill="#F7D2B1"/>
  <path d="M50.585 76.6622C50.5423 76.4625 50.4854 76.2771 50.3717 76.1202C50.2579 75.9633 50.0872 75.8492 49.9308 75.7494C49.3335 75.3928 48.6366 75.1789 47.9398 75.1503C47.2714 75.1218 46.7879 75.3357 46.3897 75.8777C46.0768 76.3056 45.8492 76.7905 45.6217 77.2612C45.2519 78.0456 44.868 78.8443 44.5551 79.6573C44.2991 80.3134 43.7871 81.7539 44.868 81.8395C44.9248 82.0962 44.9248 82.3529 45.0528 82.5811C45.1666 82.8093 45.4084 83.009 45.6644 82.9948C45.6928 82.9948 45.7355 82.9948 45.7639 82.9948C45.8066 83.0233 45.8208 83.0946 45.8208 83.1374C45.8208 83.3371 45.8919 83.5367 46.0341 83.6936C46.1621 83.8505 46.3754 83.9361 46.5745 83.9076C46.6314 84.1215 46.6883 84.3212 46.8021 84.5066C46.9585 84.7348 47.3852 85.0343 47.6838 85.02C47.9398 85.02 47.9113 84.7919 47.9682 84.6064C48.3238 83.6794 48.6224 82.738 48.8642 81.7682C48.9353 81.5114 48.9637 81.2547 49.2908 81.2405C49.7744 81.2119 50.2152 81.6683 50.5423 81.9536C50.6845 82.082 51.2534 82.6952 51.4383 82.5811C51.5094 82.5384 51.5378 82.4385 51.552 82.3529C51.6089 81.8965 51.4952 81.4972 51.3672 81.0693C50.9974 79.7999 50.7414 78.4878 50.6561 77.1614C50.6561 76.9902 50.6276 76.8048 50.5992 76.6336L50.585 76.6622Z" fill="#FCD9BA"/>
  <path d="M50.2295 83.3228C50.2295 83.3228 50.2295 83.2657 50.2295 83.2372C50.2295 83.1801 50.2295 83.1231 50.2437 83.066C50.3148 82.9234 50.5282 82.9519 50.6704 82.9091C50.8979 82.8521 51.0259 82.6096 51.0117 82.3814C51.0117 82.1675 50.8837 81.9678 50.7699 81.7681C50.4855 81.2832 49.8455 80.3989 49.1345 80.5416C49.0349 80.5701 48.9211 80.6129 48.8643 80.6984C48.7931 80.7983 48.7931 80.9124 48.8216 81.0265C48.85 81.2547 48.9496 81.4829 49.0918 81.6826C48.9211 81.4401 48.5656 81.2119 48.2954 81.1406C48.0252 81.0693 47.6128 81.1121 47.627 81.4972C47.627 81.654 47.7265 81.7967 47.8261 81.925C47.9399 82.0962 48.0679 82.2673 48.1816 82.4385C48.0963 82.3814 48.011 82.3244 47.9256 82.2673C47.7976 82.1818 47.6697 82.1104 47.5274 82.0534C47.3852 82.0106 47.2288 81.9963 47.0866 82.0534C46.3897 82.3386 47.1577 83.2372 47.4137 83.5367C47.243 83.4083 46.9586 83.5938 46.9444 83.7934C46.9444 84.0074 47.1008 84.1785 47.2572 84.3069C47.4137 84.4352 47.5985 84.5494 47.7834 84.6492C47.9541 84.7348 48.1532 84.8061 48.3523 84.7776C48.5514 84.7348 48.722 84.5494 48.6794 84.3782C49.106 84.4638 49.5753 84.0787 49.5469 83.6651C49.8171 83.7506 50.1442 83.551 50.2153 83.2942L50.2295 83.3228Z" fill="#F7D2B1"/>
  <path d="M76.6527 144.524C76.6953 145.266 76.7522 145.979 77.0224 146.649C77.0793 146.792 77.1504 146.934 77.2215 147.063C77.3068 147.205 77.3922 147.334 77.4917 147.476C77.5344 147.533 77.5913 147.59 77.6482 147.662C78.4588 148.575 80.0374 148.888 81.2462 148.289C81.9715 147.918 82.4835 147.319 82.7679 146.649C82.7963 146.592 82.8248 146.535 82.839 146.464C83.351 145.094 83.1519 143.454 82.9528 142.057C82.9385 141.928 82.9101 141.8 82.8959 141.671C82.6683 140.317 82.3128 138.962 82.1706 137.592C82.0853 136.751 82.0853 135.895 81.8151 135.082C81.3457 133.613 79.7814 132.615 77.9753 133.285C77.7335 133.371 77.5059 133.485 77.3495 133.656C77.2073 133.813 77.122 134.012 77.0651 134.198C76.4962 135.895 76.6527 137.664 76.738 139.389C76.7807 140.431 76.7095 141.458 76.6527 142.499C76.6242 143.169 76.61 143.839 76.6527 144.524V144.524Z" fill="#B36332"/>
  <path d="M77.0224 145.865C77.1219 145.665 77.3495 145.537 77.577 145.437C77.8046 145.337 78.0606 145.237 78.1885 145.037C78.2739 144.895 78.2881 144.738 78.2881 144.581C78.2881 144.41 78.2881 144.239 78.2881 144.068C78.2881 143.711 78.2881 143.354 78.2881 142.998C78.2881 142.285 78.3023 141.572 78.3165 140.859C78.3165 140.502 78.3165 140.145 78.3165 139.803C78.3165 139.475 78.3165 139.147 78.1459 138.847C77.8614 138.291 77.2215 137.906 77.0366 137.307C77.0082 137.236 77.2357 137.222 77.2499 137.279C77.4206 137.806 77.9468 138.177 78.2597 138.648C78.4445 138.919 78.5156 139.233 78.5299 139.532C78.5441 139.874 78.5299 140.231 78.5299 140.573C78.5299 141.301 78.5156 142.014 78.5014 142.741C78.5014 143.098 78.5014 143.454 78.5014 143.811C78.5014 143.996 78.5014 144.182 78.5014 144.353C78.5014 144.51 78.5014 144.667 78.473 144.824C78.4445 144.966 78.3734 145.109 78.2454 145.209C78.1459 145.294 78.0179 145.351 77.8899 145.423C77.6339 145.537 77.3353 145.636 77.2357 145.879C77.2073 145.936 76.9939 145.922 77.0224 145.85V145.865Z" fill="#C46A39"/>
  <path d="M82.6683 145.836C82.5545 145.636 82.2986 145.537 82.071 145.465C81.8435 145.38 81.5733 145.308 81.4168 145.123C81.3173 144.995 81.2888 144.838 81.2604 144.681C81.2319 144.51 81.2177 144.339 81.1893 144.167C81.1466 143.811 81.0897 143.454 81.0471 143.098C80.9475 142.385 80.8622 141.686 80.7626 140.973C80.72 140.616 80.6631 140.274 80.6204 139.917C80.5778 139.603 80.5493 139.275 80.6773 138.962C80.8906 138.391 81.4737 137.949 81.5875 137.336C81.6017 137.264 81.3884 137.264 81.3742 137.336C81.2746 137.878 80.7911 138.291 80.5351 138.79C80.3787 139.076 80.3502 139.389 80.3787 139.703C80.4071 140.046 80.464 140.388 80.5066 140.73C80.6062 141.443 80.6915 142.156 80.7911 142.884C80.8337 143.24 80.8906 143.597 80.9333 143.953C80.9617 144.139 80.976 144.31 81.0044 144.495C81.0186 144.652 81.0328 144.809 81.0897 144.966C81.1324 145.109 81.2177 145.237 81.3599 145.337C81.4737 145.408 81.6017 145.465 81.7439 145.508C81.9999 145.608 82.3128 145.679 82.455 145.907C82.4977 145.965 82.711 145.936 82.6683 145.865V145.836Z" fill="#C46A39"/>
  <path d="M77.9752 144.923C78.9849 144.053 80.5777 144.267 81.7723 144.709C81.8861 144.752 81.8576 144.838 81.7723 144.881C81.6585 144.938 81.4879 144.923 81.3741 144.881C80.4212 144.524 79.2551 144.339 78.4587 145.037C78.3307 145.152 77.7903 145.066 77.9752 144.909V144.923Z" fill="#FFFDF8"/>
  <path d="M77.9325 143.825C78.1743 143.64 78.4303 143.454 78.7147 143.312C79.0134 143.169 79.3262 143.169 79.6818 143.169C80.3502 143.169 81.0186 143.24 81.6159 143.497C81.7297 143.54 81.7012 143.625 81.6159 143.668C81.5163 143.725 81.3315 143.711 81.2177 143.668C80.7768 143.469 80.2791 143.426 79.7671 143.412C79.4969 143.412 79.2694 143.383 79.0276 143.511C78.8 143.625 78.6009 143.782 78.4018 143.925C78.2596 144.039 77.7334 143.954 77.9183 143.797L77.9325 143.825Z" fill="#FFFDF8"/>
  <path d="M77.5771 146.792C77.6909 147.077 77.8616 147.362 78.1033 147.619C78.7717 148.375 80.0659 148.632 81.0614 148.132C81.6587 147.833 82.0853 147.334 82.3129 146.777C81.9005 146.635 81.3885 146.578 80.9903 146.521C80.6632 146.478 80.3219 146.435 79.9948 146.421C79.3548 146.392 78.7006 146.464 78.0891 146.635C77.9753 146.663 77.7905 146.72 77.5914 146.777L77.5771 146.792Z" fill="#FFFDF8"/>
  <path d="M77.9752 142.385C78.2312 142.285 78.4445 142.114 78.7289 142.028C79.0134 141.942 79.312 141.9 79.6107 141.885C80.2648 141.857 80.9048 142.042 81.4879 142.256C81.6017 142.299 81.5732 142.385 81.4879 142.427C81.3741 142.484 81.2035 142.47 81.0897 142.427C80.6204 142.256 80.1084 142.114 79.5964 142.128C79.3689 142.128 79.1413 142.185 78.9422 142.271C78.7431 142.356 78.5725 142.484 78.3734 142.556C78.2596 142.599 78.089 142.613 77.9752 142.556C77.8899 142.513 77.8614 142.427 77.9752 142.385V142.385Z" fill="#FFFDF8"/>
  <path d="M77.9325 141.215C78.3876 140.858 78.8427 140.587 79.4827 140.559C80.1369 140.53 80.791 140.673 81.3599 140.916C81.4737 140.958 81.4452 141.044 81.3599 141.087C81.2604 141.144 81.0755 141.129 80.9617 141.087C80.5351 140.901 80.0658 140.801 79.5822 140.801C79.0845 140.801 78.7432 141.058 78.4018 141.329C78.2596 141.443 77.7334 141.358 77.9183 141.201L77.9325 141.215Z" fill="#FFFDF8"/>
  <path d="M76.6526 144.524C76.6953 145.266 76.7521 145.979 77.0224 146.649C77.0792 146.792 77.1504 146.934 77.2215 147.063C77.3068 147.205 77.3921 147.334 77.4917 147.476C77.5343 147.533 77.5912 147.59 77.6481 147.662C78.4587 148.575 80.0373 148.888 81.2461 148.289C81.9714 147.919 82.4834 147.319 82.7678 146.649C82.7963 146.592 82.8247 146.535 82.8389 146.464C83.3509 145.095 83.1518 143.454 82.9527 142.057C82.9385 141.928 82.91 141.8 82.8958 141.672C82.8674 141.686 82.8532 141.714 82.8674 141.743C83.2514 143.198 83.0665 144.695 82.5403 146.107C82.3127 146.706 82.0283 147.305 81.5021 147.776C81.431 147.833 81.3599 147.904 81.2888 147.947C81.2319 147.947 81.1892 147.961 81.1466 147.99C80.9048 148.161 80.5777 148.175 80.2791 148.204C79.952 148.232 79.6249 148.247 79.2978 148.218C78.9423 148.19 78.6863 148.004 78.4018 147.833C78.345 147.776 78.3023 147.719 78.2454 147.662C77.8188 147.148 77.4917 146.578 77.2783 145.979C76.8659 144.866 76.7806 143.668 76.6668 142.499C76.6384 143.169 76.6242 143.839 76.6668 144.524H76.6526Z" fill="#FFFDF8"/>
  <path d="M86.4939 68.5756C88.0867 70.0589 88.8404 72.2268 89.2386 74.3662C90.9452 83.4372 88.2147 93.307 86.6361 102.221C84.7304 112.947 84.0051 123.886 84.4886 134.783C84.6024 137.378 85.3277 139.404 82.4408 140.16C80.1653 140.759 77.6908 140.188 75.458 139.646C75.0029 139.532 74.5194 139.404 74.1923 139.061C73.8937 138.748 73.7941 138.305 73.6946 137.878C69.6841 119.479 72.8413 100.595 72.3862 81.9825C72.3009 78.3027 70.9783 71.0145 74.1212 68.1763C77.0793 65.4949 83.6923 65.9798 86.4797 68.5756H86.4939Z" fill="#63848F"/>
  <path d="M73.311 156.062C73.311 156.134 73.2825 156.205 73.2399 156.291C73.0408 156.704 72.5003 156.776 72.0168 156.776C70.7938 156.776 69.5707 156.776 68.3477 156.776C67.793 156.776 67.1957 156.776 66.7122 156.533C66.5842 156.476 66.4136 156.39 66.314 156.305C66.2856 156.276 66.2571 156.248 66.2429 156.219C66.1434 156.034 66.1434 155.849 66.186 155.663C66.186 155.663 66.186 155.663 66.186 155.649C66.3709 154.879 66.5984 154.08 66.7833 153.295C67.0251 152.311 67.4944 151.299 68.4472 150.857C69.1156 150.557 69.8836 150.514 70.5947 150.7C70.9218 150.785 71.2489 150.914 71.4764 151.156C71.9457 151.641 72.2159 152.468 72.4435 153.096C72.671 153.709 72.799 154.322 72.9697 154.95C73.0692 155.335 73.3536 155.635 73.2967 156.062H73.311Z" fill="#B36332"/>
  <path d="M68.0344 154.051C68.1766 153.937 68.3188 153.837 68.4326 153.723C68.5322 153.624 68.6033 153.495 68.6175 153.367C68.6317 153.224 68.6175 153.082 68.5748 152.953C68.5179 152.668 68.4611 152.368 68.4042 152.083C68.3473 151.869 68.2904 151.641 68.2335 151.427H68.4326C68.5891 151.969 68.717 152.525 68.8024 153.082C68.8308 153.224 68.8308 153.353 68.8024 153.495C68.7597 153.624 68.6602 153.723 68.5606 153.823C68.4468 153.923 68.3046 154.023 68.1766 154.123C68.0344 154.237 67.8922 154.351 67.75 154.451C67.7215 154.479 67.6504 154.479 67.6078 154.465C67.5793 154.465 67.5367 154.437 67.5793 154.408C67.7358 154.28 67.8922 154.166 68.0486 154.037L68.0344 154.051Z" fill="#C46A39"/>
  <path d="M70.7934 151.427H70.9925C70.9356 151.641 70.8787 151.869 70.8218 152.083C70.7507 152.368 70.6938 152.654 70.6511 152.953C70.6227 153.096 70.5942 153.224 70.6085 153.367C70.6085 153.495 70.6938 153.609 70.7934 153.723C70.9071 153.837 71.0636 153.952 71.1916 154.051C71.348 154.18 71.5044 154.294 71.6609 154.422C71.6893 154.451 71.6609 154.465 71.6324 154.479C71.5898 154.479 71.5329 154.479 71.4902 154.465C71.348 154.351 71.2058 154.237 71.0636 154.137C70.9356 154.037 70.8076 153.937 70.6796 153.837C70.5658 153.738 70.4805 153.638 70.4378 153.509C70.3952 153.367 70.4094 153.238 70.4378 153.096C70.5231 152.54 70.6511 151.983 70.8076 151.441L70.7934 151.427Z" fill="#C46A39"/>
  <path d="M68.1624 151.584C69.0868 151.313 70.0681 151.299 70.9925 151.555C71.0494 151.57 71.1489 151.613 71.1205 151.712C71.0921 151.798 70.9498 151.812 70.893 151.798C70.0539 151.57 69.1864 151.555 68.3473 151.798C68.2762 151.826 68.1482 151.826 68.0913 151.755C68.0344 151.684 68.0913 151.598 68.1624 151.584V151.584Z" fill="#FFFDF8"/>
  <path d="M68.1623 152.269C69.1151 152.04 70.0964 152.055 71.035 152.311C71.1061 152.326 71.163 152.397 71.1061 152.483C71.0493 152.568 70.9355 152.554 70.8502 152.54C69.9969 152.311 69.1151 152.297 68.2618 152.511C68.1907 152.525 68.0627 152.511 68.0343 152.44C68.0059 152.34 68.1054 152.297 68.1623 152.283V152.269Z" fill="#FFFDF8"/>
  <path d="M68.1623 153.595C69.1151 153.367 70.0964 153.381 71.035 153.638C71.1061 153.652 71.163 153.723 71.1061 153.809C71.0493 153.895 70.9355 153.88 70.8502 153.866C69.9969 153.638 69.1151 153.624 68.2618 153.838C68.1907 153.852 68.0627 153.838 68.0343 153.766C68.0059 153.666 68.1054 153.624 68.1623 153.609V153.595Z" fill="#FFFDF8"/>
  <path d="M67.9774 153.01C68.9729 152.725 69.9968 152.668 71.0066 152.882C71.0634 152.882 71.163 152.939 71.1345 153.039C71.1061 153.124 70.9639 153.139 70.907 153.124C69.9968 152.925 69.0724 152.953 68.1623 153.224C68.0912 153.253 67.9632 153.267 67.9063 153.181C67.8494 153.11 67.9063 153.025 67.9774 153.01V153.01Z" fill="#FFFDF8"/>
  <path d="M67.4086 154.907C68.6743 154.351 70.0538 154.08 71.3622 154.665C71.8172 154.864 72.2297 155.164 72.6279 155.463C72.9834 155.72 72.9692 156.148 72.5568 156.362C72.3292 156.49 72.059 156.49 71.803 156.49C70.5089 156.49 69.2147 156.433 67.9206 156.276C67.6788 156.276 67.4086 156.205 67.1953 156.134C66.9393 156.062 66.7117 156.062 66.4415 156.062C66.4131 156.062 66.3704 156.062 66.342 156.048C66.2993 156.02 66.2993 155.948 66.2993 155.891C66.2993 155.777 66.2993 155.549 66.3704 155.449C66.4273 155.364 66.5695 155.307 66.6691 155.264C66.9108 155.135 67.1668 155.007 67.4086 154.893V154.907Z" fill="#FFFDF8"/>
  <path d="M73.2963 155.72C73.2963 155.734 73.2963 155.749 73.2963 155.763C73.2963 155.763 73.2963 155.763 73.2963 155.777C73.2963 155.777 73.2963 155.791 73.2963 155.806C73.2963 155.806 73.2963 155.82 73.2963 155.834C73.2963 155.906 73.2963 155.963 73.2963 156.034C73.2963 156.105 73.2678 156.177 73.2252 156.262C73.0261 156.676 72.4857 156.747 72.0021 156.747C70.7791 156.747 69.556 156.747 68.333 156.747C67.7784 156.747 67.1811 156.747 66.6975 156.505C66.5695 156.448 66.3989 156.362 66.2993 156.276C66.2709 156.248 66.2424 156.219 66.2282 156.191C66.1429 156.034 66.1287 155.863 66.1571 155.706H73.2821L73.2963 155.72Z" fill="#FFFDF8"/>
  <path d="M61.9476 101.579C62.7013 113.474 63.4408 125.384 64.1946 137.279C64.2657 138.505 64.3368 139.732 64.4221 140.958C64.4932 142.099 64.2657 143.212 64.5217 144.367C64.6639 144.995 64.8914 145.594 64.9768 146.236C65.119 147.205 64.9199 148.189 64.863 149.159C64.7919 150.628 65.0336 152.083 65.2754 153.538C65.3039 153.709 65.3465 153.895 65.4603 154.009C65.6452 154.18 66.2567 153.966 66.4558 153.866C68.6459 152.768 71.2769 152.611 73.5665 153.424C73.8367 153.524 74.1212 153.624 74.3914 153.567C74.9033 153.452 75.1878 152.696 75.2304 152.226C75.2873 151.698 75.1024 151.185 75.0029 150.671C74.8607 149.844 74.9602 149.002 75.0598 148.175C75.5149 144.367 75.8277 140.573 76.0126 136.751C76.1548 133.998 76.2117 131.246 76.1264 128.493C75.8704 121.219 75.586 113.874 75.4011 106.557C75.1451 96.0882 75.7566 85.6052 76.4961 75.165C76.6099 73.6389 76.7095 72.0842 76.3397 70.6009C75.97 69.1176 75.0171 67.6913 73.595 67.1494C72.9834 66.9212 72.3293 66.8641 71.6751 66.8213C67.6788 66.6217 63 66.5646 61.2223 70.6722C59.6722 74.2664 60.4686 78.3883 60.7103 82.1536C61.1227 88.6289 61.521 95.0898 61.9334 101.565L61.9476 101.579Z" fill="#63848F"/>
  <path d="M75.7423 96.9011C75.8134 92.8648 75.913 88.8285 76.041 84.8064C76.041 84.7066 75.7708 84.7066 75.7708 84.8064C75.5574 91.9948 75.4152 99.1831 75.3441 106.357C75.273 113.503 75.2872 120.663 75.3726 127.808C75.4152 131.845 75.4863 135.881 75.5859 139.903C75.5859 140.003 75.8703 140.003 75.8561 139.903C75.6854 132.715 75.5859 125.526 75.5717 118.338C75.5574 111.192 75.6143 104.032 75.7423 96.8869V96.9011Z" fill="#4B575E"/>
  <path d="M85.2852 46.5257C85.2852 46.7824 85.2852 47.0249 85.2852 47.2816C85.2852 47.8664 85.2709 48.4511 85.2567 49.0359C85.2141 51.8028 85.1572 54.5698 85.0434 57.3367C85.0434 57.5935 85.0292 57.8502 85.015 58.0927C84.8585 61.4444 84.6168 64.7818 84.1759 68.0907C84.1474 68.3475 84.1048 68.6042 84.0763 68.8467C83.863 70.3442 83.6212 71.8275 83.3368 73.3109C77.4776 73.0113 71.6041 72.94 65.7449 73.1112C65.7449 71.8133 65.7449 70.5154 65.7449 69.2317C65.7449 68.975 65.7449 68.7326 65.7449 68.4758C65.7449 65.0956 65.7733 61.7011 65.7733 58.3209C65.7733 58.0641 65.7733 57.8217 65.7733 57.5649C65.7733 54.2275 65.8018 50.9043 65.8018 47.5668C65.8018 47.3101 65.8018 47.0677 65.8018 46.8109C65.8018 46.5827 65.8018 46.3403 65.8018 46.1121C65.8018 43.445 65.816 40.7636 65.9724 38.1107C65.9724 37.854 66.0009 37.5973 66.0151 37.3548C66.2 34.5879 66.5413 31.8495 67.1812 29.1538C67.2097 29.0255 67.2523 28.8971 67.2808 28.7687C67.3519 28.4977 67.423 28.2268 67.4941 27.9558C67.8781 26.6008 68.3901 25.2887 69.1438 24.1191C69.2576 23.9337 69.3713 23.7768 69.4851 23.6057C70.8219 21.7515 72.3294 21.0955 74.6048 20.8815C77.3354 20.6105 79.5539 18.9275 81.6729 21.7087C81.8578 21.9512 82.0142 22.2079 82.1707 22.4647C82.6684 23.3347 82.9671 24.3188 83.2373 25.2887C83.4221 25.9305 83.5786 26.5866 83.735 27.2284C83.7919 27.4851 83.8488 27.7276 83.9057 27.9843C84.5172 30.8796 84.8727 33.832 85.0718 36.7986C85.0861 37.0553 85.1003 37.2978 85.1145 37.5545C85.2852 40.5354 85.2994 43.5305 85.2709 46.5114L85.2852 46.5257Z" fill="#FFFDF8"/>
  <path d="M69.3998 46.7538L65.8302 46.8109C65.8302 47.0676 65.8302 47.3101 65.8302 47.5668C70.4522 47.4955 75.0884 47.4242 79.7103 47.3529C81.5734 47.3243 83.4364 47.2958 85.2994 47.2673C85.2994 47.0106 85.2994 46.7681 85.2994 46.5114C79.9948 46.5969 74.7044 46.6683 69.3998 46.7538ZM85.1429 37.5545C85.1429 37.2977 85.1145 37.0553 85.1003 36.7985C78.9993 36.9697 72.9125 37.1551 66.8115 37.3263C66.5555 37.3263 66.2995 37.3405 66.0435 37.3405C66.0293 37.5972 66.0151 37.8397 66.0009 38.0964C69.8691 37.9823 73.7516 37.8825 77.6198 37.7684C80.1228 37.6971 82.64 37.6258 85.1429 37.5545V37.5545ZM68.3616 57.6077C67.5083 57.6077 66.6408 57.5792 65.7875 57.5649C65.7875 57.8216 65.7875 58.0641 65.7875 58.3208C70.0966 58.4207 74.42 58.4064 78.7291 58.2923C80.8196 58.2352 82.9244 58.1782 85.015 58.0926C85.015 57.8359 85.0434 57.5792 85.0434 57.3367C79.4828 57.5506 73.9222 57.679 68.3616 57.6077V57.6077ZM65.7591 68.4758C65.7591 68.7325 65.7591 68.975 65.7591 69.2317C69.1438 69.1319 72.5427 69.032 75.9274 68.9607C78.6437 68.9037 81.36 68.8609 84.0763 68.8466C84.1048 68.5899 84.1474 68.3474 84.1759 68.0907C78.0891 68.105 72.0023 68.2904 65.9155 68.4758C65.8586 68.4758 65.8018 68.4758 65.7449 68.4758H65.7591ZM74.1213 28.1411C77.3922 28.0413 80.6774 28.0841 83.9483 27.9843C83.8915 27.7275 83.8346 27.4708 83.7777 27.2283C80.9618 27.2996 78.1602 27.2996 75.3444 27.3567C73.5525 27.3852 71.7748 27.4708 69.9829 27.6562C69.158 27.7418 68.3474 27.8559 67.5226 27.9557C67.4514 28.2267 67.3661 28.4977 67.3092 28.7687C67.8354 28.6974 68.3616 28.6261 68.8878 28.569C70.6228 28.3408 72.3579 28.2125 74.1213 28.1554V28.1411Z" fill="#63848F"/>
  <path d="M82.2134 22.4647C81.8436 23.1065 81.2463 23.6342 80.6206 23.9765C79.6108 24.547 78.4589 24.7609 77.3212 24.9464C75.6857 25.2173 73.9934 25.417 72.3863 25.0747C72.173 25.0319 71.9739 24.9749 71.7748 24.9178C70.95 24.6611 70.1536 24.219 69.5278 23.6057C70.8646 21.7515 72.3721 21.0955 74.6476 20.8815C77.3781 20.6105 79.5966 18.9275 81.7156 21.7087C81.9005 21.9512 82.0569 22.2079 82.2134 22.4647V22.4647Z" fill="#FCD9BA"/>
  <path d="M50.6985 76.3202C50.8407 76.092 50.9545 75.8495 51.0967 75.5928C51.8078 74.3092 52.5188 73.0255 53.2157 71.7134C54.6094 69.1176 55.932 66.4933 57.2119 63.8404C58.435 61.3017 59.5585 58.6631 60.2553 55.9247C60.5824 54.6268 60.5824 53.6569 59.5016 52.7013C58.5914 51.9026 57.2404 51.8028 56.06 52.0738C54.9365 52.3305 53.8414 52.901 53.173 53.8423C52.6895 54.5269 52.462 55.3542 52.2344 56.1529C51.0967 60.3033 49.959 64.4537 48.935 68.6327C48.4657 70.5153 48.0249 72.4408 47.2285 74.2093C46.944 74.8369 46.6596 75.4787 46.6169 76.1633C46.6169 76.2204 46.6169 76.2917 46.6454 76.3487C46.6738 76.4058 46.7307 76.4343 46.7734 76.4771C47.9253 77.2188 49.8452 77.7322 50.6985 76.3202V76.3202Z" fill="#FCD9BA"/>
  <path d="M62.4596 45.1849C62.2321 48.0089 62.033 50.8472 61.8339 53.6712C61.7343 55.1117 61.6348 56.5522 61.521 57.9928C61.4357 59.091 61.4783 60.1321 60.6819 60.9879C60.5824 61.0877 60.4686 61.1876 60.3264 61.2161C60.17 61.2589 59.9993 61.2018 59.8429 61.1305C58.7336 60.6456 58.3354 59.6472 57.5959 58.8057C56.9559 58.0783 55.932 57.8787 54.9791 57.8359C54.0547 57.7931 53.2583 57.8929 52.4193 58.2637C51.95 58.4777 51.5802 58.4206 51.3669 57.8787C51.0967 57.2083 51.2531 56.4381 51.5233 55.7678C51.8078 55.0974 52.206 54.4842 52.4619 53.8138C52.789 52.9438 52.8744 51.9882 52.8317 51.0469C52.7748 49.9486 52.5757 48.7791 53.0735 47.795C53.3152 47.3243 53.6992 46.9392 53.9694 46.4686C54.8085 44.971 54.197 43.1882 54.4814 41.5765C54.6378 40.7207 54.9507 39.922 55.1071 39.0663C55.292 38.0536 55.4769 37.041 55.676 36.0283C56.2164 33.2614 56.6004 29.6815 58.2216 27.2854C59.3594 25.6024 61.3077 22.9923 63.6542 23.5914C63.8107 23.6341 63.9813 23.7055 64.0809 23.8338C64.1946 24.005 64.1804 24.2332 64.1662 24.4329C63.9244 26.9288 63.7111 29.4105 63.4836 31.9065C63.3271 33.7606 63.4409 35.5149 63.2276 37.3833C62.9289 39.9648 62.6872 42.5749 62.4738 45.1707L62.4596 45.1849Z" fill="#99A558"/>
  <path d="M60.3122 56.9088C60.0704 65.1526 60.3549 73.4392 59.8998 81.6544C59.914 81.6544 59.9282 81.6544 59.9424 81.6544H69.1153C68.8593 78.3455 68.9304 75.0081 69.0868 71.6991C69.3002 67.0067 69.3997 62.3143 69.5561 57.6219C69.7126 52.8582 69.869 48.0945 70.0255 43.3308C70.1819 38.6812 70.4379 34.0316 70.4805 29.382C70.4805 28.0841 70.4521 26.8005 70.5659 25.5168C70.6654 24.4186 70.3383 23.2491 70.9925 22.2507C71.4334 21.5518 72.2298 21.181 73.0262 20.9528C74.7896 20.4393 76.5816 20.0257 78.4303 19.9116C78.9281 19.8831 79.4543 19.8688 79.8951 20.1113C80.3076 20.3395 80.592 20.7531 80.8195 21.1667C81.9999 23.2633 82.1421 25.6452 82.1706 27.9985C82.199 31.5642 82.5119 35.2011 82.3128 38.724C82.0141 44.3292 81.5875 49.9201 81.2746 55.5253C80.9618 61.0878 80.6489 66.7072 81.0044 72.2839C81.1609 74.7941 81.4311 77.3329 81.1751 79.8573C81.1182 80.4706 81.0471 81.0839 80.976 81.683H91.1159C91.0874 81.4262 90.8172 81.1695 90.7461 80.8985C90.6466 80.4564 90.5897 79.9857 90.5612 79.515C90.4901 78.4739 90.547 77.3899 90.5044 76.4058C89.8786 62.9704 89.3951 49.3496 92.4243 36.2423C92.9078 34.16 93.69 31.4928 93.6615 29.0825C93.6331 27.5564 93.2349 26.23 92.3247 25.0176C91.4572 23.8624 89.9497 23.2348 88.6698 22.6072C85.7686 21.181 82.6683 20.1683 79.4969 19.6121C78.6437 19.4695 77.7193 19.1272 76.8802 19.0701C76.2118 19.0273 75.3869 19.2698 74.7328 19.3982C73.0546 19.7262 71.4476 20.311 69.8406 20.8957L62.801 23.4345C62.3032 23.6199 61.7912 23.791 61.3788 24.1191C60.1842 25.0176 60.2269 26.3868 59.8571 27.6847C59.4305 29.1823 59.4874 30.4802 59.6865 32.0491C60.7246 40.3071 60.554 48.665 60.3122 56.9659V56.9088Z" fill="#99A558"/>
  <path d="M79.8808 21.4234C79.7102 21.6374 79.4542 21.78 79.2124 21.9084C77.065 23.0351 74.5478 23.5058 72.1301 23.2205C72.0021 23.2063 71.8599 23.1777 71.7604 23.0922C71.675 23.0209 71.6324 22.8925 71.5897 22.7784C71.3764 22.1223 71.1346 21.452 70.9071 20.7959C70.4804 19.555 70.0822 18.2857 69.8974 17.002C69.8974 16.9878 69.8974 16.9592 69.8974 16.945C69.8405 16.5599 69.8263 16.1891 69.8831 15.804C70.1107 14.1495 71.3906 12.7803 72.7416 11.8675C73.4243 11.4111 73.9931 11.1258 74.8038 11.5252C75.7993 12.0101 76.5388 12.5949 77.0223 13.5933C77.5769 14.7343 78.1316 15.8753 78.6578 17.0306C78.9138 17.6011 79.1697 18.1858 79.4257 18.7706C79.6391 19.2555 80.0088 19.6834 80.1226 20.1969C80.2221 20.6105 80.1795 21.0811 79.9093 21.4234H79.8808Z" fill="#FCD9BA"/>
  <path d="M72.372 19.8546C72.2013 20.0685 72.0165 20.2825 71.7889 20.4536C71.6609 20.5392 71.5187 20.6248 71.3765 20.6818C71.2201 20.7532 71.0636 20.7959 70.9072 20.8102C70.4805 19.5694 70.0823 18.3 69.8975 17.0163C70.0112 16.888 70.1677 16.7881 70.4094 16.6455C71.1632 16.1891 72.1302 15.5758 72.9835 16.1463C74.2635 16.9878 73.0546 19.0131 72.372 19.8546V19.8546Z" fill="#E6C1A0"/>
  <path d="M64.7635 7.81694C64.7635 7.81694 64.7493 7.87399 64.7351 7.90251C64.6782 8.11645 64.7351 8.41597 64.7209 8.64417C64.6924 8.92942 64.6924 9.22894 64.7209 9.51419C64.7777 10.0419 65.1902 10.4698 65.247 10.9975C65.2755 11.24 65.1617 11.4539 65.0906 11.6821C65.0053 11.9531 64.92 12.2098 64.8062 12.4665C64.5929 12.9943 64.3369 13.5077 64.0524 13.9926C63.8533 14.3349 63.6258 14.7058 63.6969 15.0909C63.8107 15.7184 64.5075 15.8183 65.0053 15.9324C65.5599 16.075 65.759 16.7453 65.887 17.216C66.0577 17.8578 66.1146 18.5139 66.3137 19.1557C66.5554 19.9544 66.9963 20.5962 67.8922 20.5677C69.1722 20.5392 70.4094 20.097 71.476 19.3982C72.3151 18.8562 73.0404 18.1573 73.6377 17.3871C74.1639 16.7168 74.9887 16.132 75.2732 15.3048C75.5718 14.449 76.354 14.4633 77.0366 13.9641C77.7335 13.4364 78.1744 12.4808 78.4019 11.6821C78.6721 10.7836 78.7432 9.84223 78.8285 8.91516C78.8996 7.98809 78.985 7.03249 78.6721 6.16248C78.3166 5.13557 77.4633 4.3226 76.4962 3.79488C75.5292 3.26717 74.4483 2.99618 73.3675 2.78224C72.1871 2.53977 71.1063 2.3401 69.9117 2.5683C69.0726 2.72519 68.3189 3.03896 67.5225 3.35274C66.783 3.63799 66.2568 4.26555 65.8301 4.92163C65.2755 5.80591 64.9768 6.80429 64.7066 7.81694H64.7635Z" fill="#FCD9BA"/>
  <path d="M79.3547 14.0782C79.056 14.7343 78.7005 15.3618 78.0605 15.7469C77.6054 16.0322 77.1361 15.9181 76.681 15.6899C76.2259 15.4474 75.7851 15.1622 75.4011 14.8199C74.9033 14.392 74.4767 13.8928 73.9932 13.4507C73.5523 13.0513 72.955 12.9943 72.443 12.6947C70.708 11.6678 71.22 9.32876 70.0538 7.85972C69.5561 7.23216 68.8023 6.80428 68.0059 6.70444C67.2806 6.61887 66.5269 6.77576 65.8443 6.50477C64.4221 5.94853 63.4551 4.15144 64.7919 3.01043C65.2328 2.62534 65.759 2.32582 66.2994 2.14041C66.7687 1.96926 67.2664 1.88368 67.7073 1.62696C68.3757 1.25613 68.845 0.542999 69.5561 0.243484C69.9543 0.0723329 70.3809 0.0580703 70.8076 0.0295451C71.5044 -0.0132428 72.2155 -0.041768 72.8839 0.186434C73.3532 0.357585 73.7656 0.6571 74.2349 0.871039C75.3015 1.3417 76.6668 1.32744 77.4348 2.21172C78.0463 2.92485 78.0463 3.95176 78.3449 4.83604C78.6863 5.86295 79.4258 6.69018 80.0089 7.58873C80.5919 8.50153 81.0186 9.62828 80.6488 10.6409C80.4497 11.1972 80.0373 11.6393 79.8382 12.1813C79.6107 12.7946 79.6391 13.4649 79.3689 14.0639L79.3547 14.0782Z" fill="#553A12"/>
  <path d="M65.3608 9.97058C65.3608 9.97058 65.3751 9.87075 65.4035 9.82796C65.5742 9.45713 66.143 9.49992 66.4701 9.49992C66.911 9.49992 67.3234 9.67107 67.7074 9.85648C68.0771 10.0419 68.4611 10.2844 68.5891 10.6837C68.5891 10.7122 68.5891 10.7265 68.5891 10.755C68.5322 10.8691 67.9634 10.5696 67.878 10.5411C67.75 10.484 67.6078 10.4555 67.4798 10.427C66.9821 10.3271 66.4559 10.2701 65.9581 10.3557C65.8444 10.3699 65.7306 10.3985 65.631 10.3699C65.4462 10.3271 65.3608 10.1417 65.3751 9.95632L65.3608 9.97058Z" fill="#553A12"/>
  <path d="M70.4948 13.1226C70.4948 13.1226 70.4948 13.0941 70.4948 13.0798C70.2388 11.8675 71.1489 9.57121 72.7133 10.1702C73.2679 10.3842 73.6519 10.9119 73.7657 11.4967C73.979 12.6234 73.1684 14.5346 71.86 14.6344C71.0636 14.6915 70.6512 13.7929 70.4948 13.1369V13.1226Z" fill="#FCD9BA"/>
  <path d="M67.0389 11.9674C67.0104 11.8247 66.9678 11.6821 66.8824 11.6108C66.8255 11.568 66.7402 11.5395 66.6549 11.5395C66.4131 11.5395 66.2709 11.6821 66.2282 11.8818C66.214 12.0102 66.2282 12.1385 66.2567 12.2669C66.2851 12.3952 66.3278 12.5379 66.3989 12.652C66.4416 12.709 66.4842 12.7661 66.5553 12.7946C66.8682 12.923 67.0246 12.709 67.0389 12.4523C67.0389 12.3382 67.0531 12.1385 67.0389 11.9531V11.9674Z" fill="#553A12"/>
  <path d="M68.1055 5.17831C67.5793 5.17831 67.0389 5.19257 66.5696 4.92158C66.1145 4.66486 65.9581 4.17993 65.8443 3.695C65.8159 3.59516 65.5457 3.60942 65.5741 3.695C65.631 3.96599 65.7021 4.23698 65.8443 4.47944C65.9723 4.70764 66.1714 4.89306 66.399 5.03568C66.9252 5.3352 67.5509 5.3352 68.134 5.32094C68.1766 5.32094 68.2762 5.29241 68.262 5.23536C68.262 5.17831 68.1624 5.16405 68.1198 5.16405L68.1055 5.17831Z" fill="#412409"/>
  <path d="M70.0396 3.22439C70.0396 3.22439 69.9116 3.16734 69.8689 3.1816C69.5703 3.23865 69.2432 3.25292 68.973 3.12455C68.7312 3.01045 68.5463 2.79651 68.5037 2.53979C68.4894 2.43995 68.2192 2.45421 68.2335 2.53979C68.2761 2.85356 68.5179 3.11029 68.8023 3.23865C69.1578 3.39554 69.5703 3.38128 69.9542 3.32423C69.9969 3.32423 70.068 3.28144 70.0396 3.22439V3.22439Z" fill="#412409"/>
  <path d="M79.4117 8.10219C79.369 8.01661 79.0988 8.04514 79.1415 8.15924C79.5397 9.01499 79.4543 10.0562 78.9282 10.8549C78.8997 10.9119 78.9993 10.9404 79.0277 10.9404C79.0846 10.9404 79.1557 10.9404 79.1984 10.8834C79.7388 10.0704 79.8099 9.00073 79.4117 8.11645V8.10219Z" fill="#412409"/>
  <path d="M77.1504 8.72972C77.0935 8.64415 76.8233 8.68693 76.8802 8.78677C77.3068 9.42859 76.7948 10.1417 76.3966 10.6409C76.3113 10.7407 76.5815 10.7835 76.6384 10.7122C76.8802 10.427 77.1219 10.1132 77.2357 9.75663C77.3495 9.42859 77.3353 9.0435 77.1504 8.74398V8.72972Z" fill="#412409"/>
  <path d="M66.9111 16.8452C66.84 16.674 66.7973 16.4173 66.9395 16.3032C67.1102 16.1748 67.423 16.1606 67.6221 16.0179C67.8213 15.8753 67.9777 15.6899 68.1626 15.5473C68.575 15.2335 68.7883 15.5045 68.7314 15.9324C68.6888 16.2319 68.4897 16.5029 68.2906 16.7168C67.935 17.0876 67.1955 17.5298 66.8969 16.8452H66.9111Z" fill="#E9B8A2"/>
  <path d="M99.8622 80.8985C99.7484 80.6275 99.6204 80.3707 99.464 80.1283C99.208 79.7004 98.8524 79.3296 98.3974 79.1156C97.9423 78.9017 97.4019 78.8589 96.961 79.0728C96.7477 79.1727 96.577 79.3296 96.4064 79.4865C95.5246 80.2994 95.0411 81.526 94.9131 82.7098C94.7993 83.808 94.8562 85.1059 95.3397 86.1043C95.3966 86.2327 95.5673 86.4609 95.6668 86.2612C95.6953 86.2041 95.6526 86.09 95.6668 86.033C95.6953 85.705 95.9513 85.3769 96.2784 85.6907C96.4206 85.8333 96.4632 86.0473 96.4348 86.2327C96.3921 86.5179 96.2499 86.6891 96.1077 86.9173C96.0935 86.9458 96.065 86.9743 96.065 87.0171C96.0508 87.0884 96.0935 87.174 96.1504 87.2168C96.2784 87.3166 96.4775 87.4735 96.6339 87.4878C97.089 87.5306 97.5441 87.0742 97.7432 86.7033C97.7432 86.8602 97.8569 86.9886 97.9992 87.0314C98.1414 87.0742 98.2978 87.0314 98.44 86.9743C98.8098 86.8174 99.0942 86.4751 99.1795 86.0758C99.4213 86.2327 99.7484 86.2327 99.9902 86.0758C100.232 85.9189 100.374 85.6336 100.346 85.3484C100.346 85.3769 100.616 85.22 100.644 85.1915C100.744 85.1059 100.815 84.9918 100.858 84.8635C100.929 84.6353 100.943 84.3215 100.943 84.079C100.943 83.3801 100.715 82.7098 100.431 82.0823C100.246 81.6972 100.09 81.2978 99.9191 80.8985H99.8622Z" fill="#FCD9BA"/>
  <path d="M99.1369 81.3549C99.8196 79.6006 99.5351 77.3186 99.592 75.4359C99.6489 73.2823 99.6773 71.1286 99.6916 68.975C99.7342 64.6677 99.6916 60.3461 99.6062 56.0388C99.5494 53.3717 96.6055 54.042 94.842 54.5698C94.0741 54.798 92.9933 55.126 92.6235 55.9247C92.268 56.6949 92.5951 58.007 92.6662 58.8343C93.0217 62.3999 93.3915 65.9798 93.747 69.5455C93.9888 72.0129 94.2447 74.4946 94.6287 76.9478C94.8278 78.1744 95.0554 79.3867 95.3256 80.599C95.5389 81.5118 95.482 82.3961 96.5486 82.6243C97.5441 82.824 98.753 82.3676 99.1512 81.3692L99.1369 81.3549Z" fill="#FCD9BA"/>
  <path d="M96.3352 85.7193C96.065 85.2059 95.5673 84.7637 95.5957 84.1362C95.5957 84.0363 95.3255 84.0363 95.3255 84.1362C95.3113 84.7637 95.7664 85.2059 96.0508 85.705C96.1219 85.8191 96.1788 85.9618 96.193 86.0901C96.2073 86.2185 96.193 86.3469 96.1504 86.4752C96.065 86.7177 95.937 86.9459 95.9939 87.2026C96.0082 87.3025 96.2926 87.3025 96.2641 87.2026C96.2072 86.9316 96.3495 86.7034 96.4206 86.461C96.4917 86.2042 96.4632 85.9618 96.3352 85.7193Z" fill="#C6AE8A"/>
  <path d="M89.9357 45.185C89.9357 46.0407 89.9357 46.8965 89.9641 47.7522C90.021 49.3211 90.3054 50.8757 90.7889 52.3733C91.0023 53.0151 91.3009 53.6284 91.4573 54.2845C91.8129 55.8391 91.2583 57.3938 91.2298 58.9341C91.2298 59.4904 91.2014 60.6599 91.756 61.0165C92.1115 61.2447 93.0075 61.102 93.4199 61.0592C94.8847 60.9309 96.3495 60.8025 97.8143 60.6742C98.5965 60.6028 99.8907 61.0022 100.516 60.3889C101.256 59.6615 101.185 58.0213 100.886 57.137C100.73 56.6806 100.488 56.267 100.374 55.7963C99.9191 54.0848 101.1 52.1451 100.317 50.562C100.132 50.1769 99.8338 49.8488 99.6062 49.478C99.0374 48.5509 98.9663 47.4385 98.9094 46.383C98.8525 45.4132 98.7245 44.4433 98.6676 43.4877C98.5254 41.0203 97.8428 38.4673 97.3735 36.0426C96.8331 33.2757 96.4491 29.6958 94.8278 27.2997C93.6901 25.6167 91.7418 23.0066 89.3952 23.6056C89.2388 23.6484 89.0681 23.7197 88.9686 23.8481C88.8548 24.0193 88.869 24.2475 88.8833 24.4471C89.125 26.9431 89.3384 29.4248 89.5659 31.9207C89.7223 33.7749 89.6086 35.5292 89.8219 37.3976C90.1205 39.9648 89.9925 42.5749 89.9499 45.185H89.9357Z" fill="#99A558"/>
  <path d="M67.6648 29.7528C67.8781 29.5817 68.1057 29.4105 68.319 29.2394C68.7598 28.8971 69.2007 28.569 69.6274 28.2267C69.6842 28.1839 69.6273 28.1411 69.5847 28.1269C68.9732 27.8987 68.3616 27.6847 67.7643 27.4565C67.4515 27.3424 67.1386 27.2283 66.8399 27.1142C66.7119 27.0714 66.5697 27.0144 66.4417 26.9716C66.3137 26.9288 66.2142 26.8575 66.2284 26.7006C66.2426 26.558 66.3422 26.4154 66.3991 26.287C66.4702 26.1444 66.5413 25.9875 66.6124 25.8449C66.7546 25.5739 66.8826 25.3029 67.0248 25.0461C67.3093 24.5042 67.6221 23.9622 67.935 23.4345C68.2905 22.8354 68.6603 22.2507 69.03 21.6659C69.0869 21.5803 68.8167 21.5375 68.7598 21.6231C68.0488 22.6928 67.3946 23.8053 66.7973 24.932C66.6551 25.203 66.4986 25.4883 66.3564 25.7735C66.2853 25.9162 66.2142 26.0731 66.1431 26.2157C66.072 26.344 66.0009 26.4867 65.9582 26.6293C65.8729 26.9288 66.1289 27.0429 66.3564 27.1285C66.6693 27.2426 66.9822 27.3567 67.3093 27.4851C67.9777 27.7275 68.6603 27.9842 69.3287 28.2267C68.9589 28.512 68.5892 28.7972 68.2194 29.0825C68.0203 29.2394 67.8212 29.382 67.6221 29.5389C67.4372 29.6815 67.2381 29.8099 67.0817 29.9667C66.9253 30.1094 66.8399 30.2805 66.8257 30.4945C66.8115 30.7227 66.8684 30.9509 66.9111 31.1791C67.0106 31.664 67.0959 32.1489 67.1955 32.6339C67.5937 34.5878 68.0203 36.5275 68.4896 38.4673C68.7456 39.5512 69.0158 40.6209 69.3003 41.6906C69.3287 41.7762 69.5989 41.7619 69.5705 41.6478C69.0727 39.7509 68.6176 37.8397 68.1768 35.9285C67.9634 34.9729 67.7501 34.0031 67.551 33.0332C67.4515 32.5625 67.3519 32.0776 67.2666 31.6069C67.2239 31.3645 67.167 31.1363 67.1244 30.8938C67.0817 30.6799 67.0533 30.4517 67.1528 30.252C67.2666 30.0381 67.4941 29.8954 67.6648 29.7528V29.7528Z" fill="#495E22"/>
  <path d="M85.6406 28.9113C85.4415 28.7402 85.214 28.5833 85.0007 28.4264C84.574 28.1126 84.1332 27.8131 83.6781 27.5421C84.0763 27.1428 84.4745 26.7577 84.8727 26.3583C85.0718 26.1586 85.2709 25.959 85.47 25.7593C85.6549 25.5739 85.854 25.4027 86.0246 25.1888C86.1668 25.0034 86.2522 24.8037 86.2095 24.5612C86.1526 24.3045 86.0104 24.0906 85.8824 23.8624C85.6122 23.3774 85.3278 22.9068 85.0291 22.4361C84.702 21.9084 84.3465 21.3949 83.9909 20.8957C83.9483 20.8387 83.8772 20.8387 83.8203 20.8387C83.7918 20.8387 83.6923 20.8815 83.7207 20.9385C84.3465 21.8085 84.9296 22.7071 85.47 23.6484C85.598 23.8766 85.7544 24.1048 85.854 24.3473C85.9677 24.5897 85.9819 24.8179 85.8397 25.0462C85.7117 25.2458 85.5126 25.4027 85.3562 25.5739C85.1571 25.7735 84.958 25.9732 84.7589 26.1729C84.3038 26.615 83.863 27.0714 83.4079 27.5136C83.3794 27.5421 83.4079 27.5849 83.4363 27.5992C83.863 27.8559 84.2612 28.1411 84.6736 28.4264C84.8727 28.569 85.0576 28.7116 85.2567 28.8543C85.4131 28.9826 85.5837 29.0967 85.7117 29.2679C86.0246 29.6672 85.8824 30.1664 85.7686 30.6086L85.3989 32.0776C84.9011 34.0601 84.4034 36.0426 83.9056 38.0394L83.0665 41.3768C83.0381 41.4909 83.3083 41.5052 83.3368 41.4196C83.8487 39.3943 84.3607 37.369 84.8585 35.3438C85.1144 34.3311 85.3704 33.3185 85.6264 32.3201C85.7544 31.8066 85.8824 31.3074 86.0104 30.794C86.1242 30.3661 86.309 29.8669 86.1099 29.4248C86.0246 29.2251 85.854 29.0539 85.6833 28.9113H85.6406Z" fill="#495E22"/>
  <path d="M59.6012 38.4388C58.6342 37.0981 57.8947 35.5862 57.4111 34.0031C57.2689 33.5467 57.1551 33.0903 57.0698 32.6196C57.0556 32.5055 56.7712 32.5198 56.7996 32.6196C57.1267 34.2598 57.724 35.843 58.5631 37.2978C58.8048 37.7114 59.0608 38.0965 59.331 38.4816C59.3737 38.5386 59.4448 38.5386 59.5017 38.5386C59.5301 38.5386 59.6297 38.4958 59.6012 38.4388Z" fill="#495E22"/>
  <path d="M60.5398 53.1863C60.5114 50.6761 60.5114 48.1801 60.5398 45.6699C60.554 44.2579 60.5825 42.8459 60.6251 41.4339C60.6251 41.334 60.3549 41.334 60.3549 41.4339C60.298 43.9441 60.2554 46.4686 60.2554 48.9931C60.2554 51.5033 60.2838 53.9992 60.3407 56.5095C60.3691 57.9215 60.4118 59.3335 60.4687 60.7455C60.4687 60.8453 60.7531 60.8453 60.7389 60.7455C60.6394 58.2352 60.5825 55.7108 60.554 53.2005L60.5398 53.1863Z" fill="#495E22"/>
  <path d="M96.065 32.9761C95.9654 33.5467 95.7237 34.0886 95.4677 34.6021C95.1832 35.1583 94.8846 35.686 94.6002 36.2423C93.9886 37.369 93.3913 38.4958 92.7798 39.6225C92.4385 40.2501 92.0972 40.8919 91.7559 41.5194C91.699 41.6193 91.9692 41.6478 92.0261 41.5622L93.8464 38.1677C94.4437 37.041 95.0552 35.9285 95.6525 34.8018C95.9512 34.2313 96.2214 33.6322 96.3352 32.9904C96.3494 32.8906 96.0792 32.8763 96.065 32.9904V32.9761Z" fill="#495E22"/>
  <path d="M99.0515 55.5967C98.2694 55.5396 97.5156 55.7393 96.7477 55.8249C95.9797 55.8962 95.2117 55.7964 94.4722 55.6252C94.0456 55.5254 93.6189 55.4113 93.1923 55.2972C93.1354 55.2829 93.0501 55.2829 93.0074 55.3257C92.9648 55.3685 93.0074 55.4113 93.0501 55.4255C93.8038 55.6252 94.5718 55.8391 95.3397 55.9247C95.7237 55.9675 96.1219 55.996 96.5201 55.9818C96.9041 55.9675 97.2881 55.8962 97.6721 55.8391C98.0987 55.7678 98.5396 55.6965 98.9662 55.7393C99.0231 55.7393 99.1084 55.7393 99.1369 55.6823C99.1653 55.6252 99.08 55.5967 99.0373 55.5824L99.0515 55.5967Z" fill="#495E22"/>
  <path d="M96.9184 49.2783C96.1362 49.806 95.3256 50.2909 94.4865 50.7473C94.4296 50.7759 94.4438 50.8187 94.4865 50.8614C94.5434 50.89 94.6287 50.89 94.6856 50.8614C95.5247 50.4193 96.3353 49.9344 97.1175 49.3924C97.2455 49.3068 97.0037 49.2355 96.9184 49.2783Z" fill="#495E22"/>
  <path d="M57.9231 55.6252C56.9134 54.584 55.4201 54.0563 53.9838 54.1561C53.5713 54.1847 53.1731 54.256 52.7749 54.3843C52.7323 54.3986 52.6896 54.4414 52.7323 54.4842C52.7749 54.527 52.8745 54.527 52.9172 54.5127C54.1971 54.0848 55.6334 54.2845 56.7854 54.9834C57.1125 55.183 57.4111 55.4255 57.6813 55.6965C57.7524 55.7678 58.0084 55.7108 57.9231 55.6252Z" fill="#495E22"/>
  <path d="M57.1694 48.337C56.9703 48.2086 56.7712 48.0945 56.5579 47.9947C56.1454 47.7807 55.7188 47.5811 55.2922 47.4242C55.2353 47.4099 55.1499 47.4099 55.1073 47.4527C55.0646 47.4955 55.1073 47.5383 55.1499 47.5525C55.5481 47.7094 55.9321 47.8806 56.3019 48.066C56.4868 48.1658 56.6716 48.2657 56.8423 48.3655C56.9845 48.4511 57.2263 48.5509 57.2405 48.7363C57.2547 48.8362 57.5249 48.8362 57.5107 48.7363C57.4823 48.5367 57.3116 48.4226 57.1552 48.337H57.1694Z" fill="#495E22"/>
  <path d="M68.4185 47.6096C68.4185 47.6096 68.3759 47.6096 68.3617 47.6096C68.2621 47.5811 68.1626 47.5668 68.0488 47.5668C67.7786 47.5811 67.5937 47.7237 67.5652 47.9947C67.5368 48.2229 67.5652 48.4511 67.7643 48.608C67.9777 48.7649 68.3048 48.7792 68.5323 48.6508C68.703 48.551 68.7883 48.3513 68.7883 48.1516C68.7883 47.8949 68.6461 47.6952 68.4043 47.6239L68.4185 47.6096Z" fill="#495E22"/>
  <path d="M67.807 55.4683C67.807 55.4683 67.7643 55.4683 67.7501 55.4683C67.6505 55.4397 67.551 55.4255 67.4372 55.4255C67.167 55.4397 66.9821 55.5824 66.9537 55.8534C66.9252 56.0816 66.9537 56.3098 67.1528 56.4667C67.3661 56.6235 67.6932 56.6378 67.935 56.5094C68.1056 56.4096 68.1909 56.2099 68.1909 56.0102C68.1909 55.7535 68.0487 55.5538 67.807 55.4825V55.4683Z" fill="#495E22"/>
  <path d="M67.807 63.3413C67.807 63.3413 67.7643 63.3413 67.7501 63.3413C67.6505 63.3127 67.551 63.2985 67.4372 63.2985C67.167 63.3127 66.9821 63.4553 66.9537 63.7263C66.9252 63.9545 66.9537 64.1827 67.1528 64.3396C67.3661 64.4965 67.6932 64.5108 67.935 64.3824C68.1056 64.2826 68.1909 64.0829 68.1909 63.8832C68.1909 63.6265 68.0487 63.4268 67.807 63.3555V63.3413Z" fill="#495E22"/>
  <path d="M67.807 71.2C67.807 71.2 67.7643 71.2 67.7501 71.2C67.6505 71.1714 67.551 71.1572 67.4372 71.1572C67.167 71.1714 66.9821 71.3141 66.9537 71.585C66.9252 71.8132 66.9537 72.0414 67.1528 72.1983C67.3661 72.3552 67.6932 72.3695 67.935 72.2411C68.1056 72.1413 68.1909 71.9416 68.1909 71.7419C68.1909 71.4852 68.0487 71.2855 67.807 71.2142V71.2Z" fill="#495E22"/>
</svg>
