<svg width="160" height="141" viewBox="0 0 160 141" fill="none"
  xmlns="http://www.w3.org/2000/svg">
  <path d="M153 133.931C153 136.017 118.058 138.567 96.1419 138.335C91.1797 138.335 85.3905 138.103 76.5 138.799C67.1959 139.494 65.7486 140.421 55.6176 140.885C49.8284 141.117 43.6257 141.117 35.9757 139.726C34.1149 139.262 32.6676 139.031 31.8405 138.799C15.5067 135.09 0 134.858 0 133.931C0 132.308 35.7689 131.845 63.0608 129.527C66.1622 129.295 70.504 128.831 76.2932 129.063C86.4243 129.527 90.146 131.149 98.8297 131.613C106.066 132.077 108.547 130.918 116.197 130.454C135.012 129.063 153 132.308 153 133.931Z" fill="#E9D7AA"/>
  <path d="M107.66 136.757C108.029 136.757 108.399 136.783 108.769 136.808C109.138 136.834 109.521 136.859 109.89 136.808C110.235 136.77 110.579 136.668 110.885 136.502C111.42 136.234 111.458 135.252 111.344 134.729C111.114 133.62 110.655 132.587 110.502 131.439C110.477 131.286 110.451 131.108 110.311 131.031C110.247 131.006 110.171 130.993 110.107 130.993C109.725 130.993 109.342 130.993 108.96 130.98C108.552 130.98 108.118 130.98 107.736 131.146C107.29 131.363 106.984 131.796 106.754 132.23C106.436 132.829 106.283 133.263 105.658 133.531C104.97 133.837 104.307 134.194 103.619 134.513C103.032 134.793 102.433 135.074 101.847 135.342C101.528 135.495 101.209 135.648 100.891 135.788C100.648 135.903 100.177 136.017 100.011 136.221C99.4374 136.923 102.14 136.974 102.497 136.948C103.504 136.872 104.473 136.719 105.48 136.706C106.206 136.706 106.933 136.706 107.66 136.719V136.757Z" fill="#FCD9BA"/>
  <path d="M104.294 109.263C104.383 110.449 104.46 111.648 104.613 112.846C104.893 115.04 105.148 117.233 105.378 119.426C105.862 123.877 106.257 128.328 106.563 132.791C106.652 134.028 107.188 134.003 108.233 134.13C108.972 134.219 110.03 134.334 110.502 133.607C110.897 132.982 110.808 131.784 110.897 131.057C110.986 130.253 111.076 129.45 111.152 128.646C111.42 125.956 111.637 123.265 111.802 120.574C111.955 118.062 111.943 115.563 112.121 113.05C112.312 110.334 112.401 107.605 112.401 104.876C112.401 102.274 112.376 99.0226 110.948 96.7272C109.826 94.9163 106.576 94.6995 105.046 96.0768C102.586 98.3085 103.771 104.277 104.103 107.222C104.179 107.898 104.23 108.574 104.281 109.25L104.294 109.263Z" fill="#FCD9BA"/>
  <path d="M123.99 59.0821C123.25 58.3297 122.256 57.8834 121.223 57.5901C119.796 58.2915 118.381 59.0056 116.915 59.6177C115.372 60.2681 113.766 60.8292 112.109 61.0715C109.33 67.435 106.959 73.9897 105.009 80.6465C102.612 88.7953 100.929 97.3522 100.764 105.858C101.133 105.845 101.516 105.833 101.885 105.82C102.306 105.807 102.727 105.794 103.147 105.769C103.147 105.769 103.147 105.769 103.16 105.769C103.326 105.769 103.492 105.756 103.657 105.756C104.473 105.731 105.289 105.692 106.105 105.667C106.475 105.654 106.844 105.641 107.214 105.628C107.265 105.628 107.329 105.628 107.38 105.628C107.494 105.628 107.609 105.628 107.724 105.616C108.884 105.577 110.044 105.526 111.217 105.488C111.293 105.488 111.37 105.488 111.446 105.488C111.612 105.488 111.79 105.475 111.956 105.475C112.122 105.475 112.3 105.475 112.491 105.475C113.167 105.501 113.881 105.526 114.136 105.016C114.378 104.557 114.085 103.052 114.149 102.466C114.149 102.453 114.149 102.428 114.149 102.415C114.34 100.719 114.837 99.061 115.334 97.4287C116.239 94.4446 117.144 91.4605 118.049 88.4765C118.661 86.4488 119.579 84.5232 120.369 82.5211C120.535 82.1003 120.688 81.6794 120.841 81.2586C121.058 80.621 121.287 79.9834 121.504 79.3457C121.695 78.7846 121.886 78.2235 122.078 77.6497C122.167 77.3946 122.256 77.1268 122.333 76.8718C122.358 76.7825 122.396 76.6932 122.422 76.5912C123.391 73.6199 124.245 70.5976 124.78 67.5242C124.959 66.5168 125.099 65.4966 125.188 64.4636C125.354 62.7293 125.341 60.8165 124.283 59.4392C124.181 59.3117 124.079 59.1841 123.964 59.0694L123.99 59.0821Z" fill="#DFB880"/>
  <path d="M159.096 118.138C159.211 117.794 159.338 117.437 159.466 117.093C159.593 116.736 159.733 116.391 159.797 116.022C159.861 115.677 159.861 115.32 159.797 114.976C159.695 114.377 158.777 114.07 158.229 114.019C157.095 113.917 155.973 114.058 154.838 113.866C154.685 113.841 154.507 113.828 154.392 113.93C154.341 113.981 154.316 114.045 154.303 114.121C154.188 114.479 154.073 114.848 153.946 115.205C153.818 115.601 153.691 116.009 153.755 116.417C153.831 116.914 154.163 117.322 154.507 117.667C154.991 118.151 155.348 118.419 155.437 119.095C155.527 119.835 155.68 120.587 155.782 121.327C155.871 121.977 155.973 122.615 156.062 123.265C156.113 123.609 156.164 123.966 156.215 124.311C156.253 124.566 156.215 125.063 156.381 125.28C156.878 126.032 157.732 123.456 157.808 123.112C158.038 122.13 158.165 121.161 158.446 120.192C158.65 119.49 158.867 118.802 159.096 118.113V118.138Z" fill="#FCD9BA"/>
  <path d="M134.213 105.284C135.22 105.934 136.202 106.598 137.26 107.21C139.172 108.319 141.071 109.441 142.958 110.589C146.782 112.897 150.568 115.282 154.303 117.743C155.336 118.419 155.642 117.985 156.381 117.233C156.904 116.71 157.63 115.92 157.337 115.103C157.082 114.402 156.075 113.752 155.553 113.254C154.966 112.693 154.38 112.145 153.781 111.584C151.805 109.747 149.803 107.937 147.764 106.177C145.852 104.532 143.863 103.027 141.976 101.356C139.937 99.5582 137.821 97.8239 135.641 96.1916C133.563 94.623 130.975 92.6719 128.286 92.4169C126.157 92.2128 124.028 94.674 124.194 96.7272C124.474 100.03 129.93 102.708 132.48 104.226C133.066 104.57 133.64 104.94 134.2 105.31L134.213 105.284Z" fill="#FCD9BA"/>
  <path d="M138.93 94.317C138.905 94.2404 138.879 94.1639 138.854 94.0874C138.446 92.8377 138.051 91.5752 137.694 90.2999C136.98 87.7622 136.368 85.199 135.858 82.6102C134.864 77.5093 134.303 72.319 134.163 67.1288C134.086 64.1064 134.163 61.0204 133.436 58.0618C133.003 56.2382 132.493 54.134 131.167 52.795C128.643 54.1723 126.03 55.3965 123.391 56.5825C121.517 57.4242 119.707 58.3934 117.833 59.235C117.833 59.2605 117.833 59.2733 117.833 59.2988V59.3243C117.833 59.5156 117.833 59.7069 117.833 59.9109C117.833 60.4082 117.833 60.9183 117.833 61.4157C117.833 61.9258 117.846 62.4231 117.858 62.9332C117.96 66.4401 118.279 69.9471 118.764 73.4285C118.84 73.9896 118.929 74.5634 119.019 75.1245C119.07 75.4179 119.108 75.7112 119.159 76.0045C119.159 76.03 119.159 76.0555 119.159 76.0682C119.516 78.2361 119.924 80.3913 120.395 82.5465C121.874 89.3945 123.85 96.1533 125.94 102.772C126.336 104.009 127.062 104.315 127.929 104.149C128.133 104.111 128.337 104.047 128.554 103.971C128.707 103.92 128.847 103.843 129 103.779C129.025 103.767 129.064 103.754 129.089 103.741C130.275 103.142 131.498 102.121 132.34 101.637C132.34 101.637 132.34 101.637 132.352 101.637C132.697 101.433 133.054 101.242 133.398 101.037C133.462 100.999 133.525 100.961 133.576 100.935L133.997 100.693C134.749 100.26 135.488 99.826 136.202 99.3669C136.546 99.1374 136.903 98.9206 137.26 98.7166H137.273C137.413 98.6273 137.553 98.5508 137.694 98.487C137.936 98.3595 138.191 98.2575 138.446 98.1682C139.236 97.9004 139.746 97.5816 139.67 96.6762C139.619 95.9493 139.16 95.1076 138.892 94.3935L138.93 94.317Z" fill="#DFB880"/>
  <path d="M130.67 57.2969C130.517 55.9706 130.364 54.6316 130.186 53.3054C130.02 53.3946 129.867 53.4711 129.701 53.5604C130.313 58.4063 130.772 63.265 131.269 68.1237C132.072 75.9027 133.029 83.7071 134.992 91.2948C135.642 93.7816 136.394 96.2428 137.286 98.653H137.299C137.439 98.5637 137.579 98.4872 137.72 98.4235C135.68 92.8761 134.354 87.061 133.424 81.2204C132.149 73.3012 131.55 65.2799 130.657 57.3096L130.67 57.2969Z" fill="#DFB880"/>
  <path d="M129.599 85.046C128.784 80.9143 128.082 76.757 127.483 72.5869C126.884 68.3914 126.4 64.1958 126.03 59.9748C125.903 58.4955 125.788 57.0035 125.686 55.5242C125.52 55.6007 125.354 55.6772 125.189 55.7537C125.252 56.6591 125.316 57.5773 125.393 58.4827C125.737 62.7038 126.196 66.9121 126.769 71.1076C127.343 75.3032 128.019 79.486 128.809 83.6433C129.536 87.4307 130.3 91.231 131.397 94.9292C131.996 96.9568 132.71 98.9589 133.589 100.885L134.01 100.642C133.36 99.2012 132.799 97.722 132.315 96.2299C131.129 92.5827 130.326 88.8208 129.587 85.0588L129.599 85.046Z" fill="#DFB880"/>
  <path d="M122.092 88.2394C121.548 85.9496 121.065 83.6493 120.645 81.3386C119.953 77.5118 119.446 73.6745 119.124 69.8164C119.013 68.5512 118.927 67.2756 118.865 66C118.704 66.0627 118.661 67.4373 118.5 67.5C118.685 70.9818 118.914 73.1622 119.396 76.6231C119.322 76.6231 119.26 76.6544 119.236 76.6962C118.568 77.815 117.925 78.9547 117.319 80.0944C115.749 83.0638 114.426 86.1273 113.338 89.2536C111.855 93.53 110.816 97.9215 110.272 102.355C110.161 103.233 110.074 104.122 110 105C110.161 105 110.334 104.99 110.495 104.99C110.729 102.177 111.15 99.3748 111.756 96.604C112.732 92.1812 114.179 87.8316 116.095 83.6284C116.528 82.6874 116.985 81.7464 117.455 80.8158C118.086 79.582 118.766 78.3587 119.471 77.1563C119.52 77.4595 119.557 77.7523 119.607 78.0555C119.817 79.4357 120.052 80.8158 120.311 82.196C121.201 86.9534 122.376 91.6794 123.823 96.3426C124.601 98.8416 125.417 101.361 126.567 103.756C126.716 103.714 126.852 103.651 127 103.599C126.036 101.571 125.306 99.4689 124.639 97.3568C123.674 94.3456 122.821 91.303 122.092 88.2394Z" fill="#715225"/>
  <path d="M110.16 69.9472C111.282 66.7208 112.582 63.5455 114.265 60.5869C114.048 60.6507 113.844 60.7144 113.627 60.7655C112.2 63.3159 111.053 66.0195 110.058 68.774C108.847 72.1024 107.789 75.4945 106.82 78.8994C104.844 85.8112 103.353 92.9143 103.085 100.107C103.022 101.994 103.034 103.894 103.149 105.782C103.149 105.782 103.149 105.782 103.162 105.782C103.327 105.782 103.493 105.769 103.659 105.769C103.353 100.77 103.735 95.7199 104.577 90.7719C105.775 83.6943 107.789 76.7187 110.147 69.9472H110.16Z" fill="#DFB880"/>
  <path d="M117.834 61.3904C118.127 60.5232 118.42 59.6688 118.714 58.8016C118.51 58.9037 118.306 58.9929 118.089 59.0949C118 59.3627 117.91 59.6178 117.821 59.8856C115.59 66.3893 113.398 72.9186 111.575 79.5626C109.599 86.7932 108.069 94.1769 107.457 101.663C107.356 102.989 107.266 104.302 107.228 105.629C107.279 105.629 107.343 105.629 107.394 105.629C107.508 105.629 107.623 105.629 107.738 105.616C107.904 101.038 108.439 96.4723 109.242 91.958C110.581 84.4978 112.646 77.1906 114.953 69.9855C115.871 67.1162 116.84 64.2597 117.808 61.4031L117.834 61.3904Z" fill="#DFB880"/>
  <path d="M109.662 22.7122C108.948 21.5262 107.661 20.9014 106.31 20.8759C105.991 20.8759 105.698 20.9141 105.43 20.9906C105.175 21.1947 104.946 21.4115 104.716 21.641C104.168 22.3424 103.696 23.0948 103.289 23.8982C103.136 24.1915 102.995 24.4848 102.855 24.7909C102.893 24.8674 102.906 24.9694 102.855 25.0714C102.141 26.5762 101.529 28.132 100.994 29.7005C99.6428 32.9014 98.8907 36.4466 98.1641 39.8387C97.4502 43.1288 96.0607 45.6028 94.0593 48.2936C92.6571 50.1809 91.2421 52.0811 89.8399 53.9684C89.1898 54.8483 88.7054 55.792 89.8909 56.3531C90.6685 56.7229 91.6628 56.7995 92.5169 56.825C94.2506 56.8632 94.8879 56.6464 96.2137 55.4477C97.9219 53.9047 99.4261 52.1448 100.777 50.2702C103.48 46.5082 105.545 42.3254 107.355 38.0789C108.107 36.319 109.012 34.4444 109.344 32.5571C109.688 30.606 110.109 28.6803 110.3 26.7037C110.44 25.2117 110.478 24.064 109.675 22.7122H109.662Z" fill="#FCD9BA"/>
  <path d="M109.663 22.7121C109.255 22.0362 108.63 21.5134 107.903 21.2073C107.495 21.0288 107.075 20.9905 106.654 20.8885C106.374 20.8248 105.877 20.5825 105.609 20.6335C105.354 20.6845 105.137 20.863 104.946 21.0415C103.671 22.2658 102.881 23.8981 102.18 25.5176C100.497 29.3689 99.0438 33.3221 97.8328 37.3519C97.7691 37.5814 97.6926 37.8237 97.7818 38.0533C97.9093 38.3593 98.5467 38.3848 98.8271 38.4996C99.7959 38.8822 100.739 39.3158 101.683 39.7494C102.116 39.9534 102.562 40.1574 102.996 40.336C103.34 40.4762 103.709 40.6038 104.066 40.7058C104.678 40.8971 105.303 41.0629 105.928 41.2541C106.425 40.2084 106.884 39.15 107.342 38.0788C108.095 36.319 109 34.4443 109.331 32.557C109.675 30.6059 110.096 28.6803 110.287 26.7036C110.427 25.2116 110.466 24.0639 109.663 22.7121Z" fill="#99A558"/>
  <path d="M132.686 53.1395C132.227 51.775 131.768 50.4105 131.309 49.046C130.378 46.3297 129.435 43.6135 128.466 40.8972C126.936 36.6251 125.343 32.3658 123.699 28.1193C123.405 27.4561 123.125 26.8058 122.832 26.1426C122.207 24.7271 121.646 23.2606 120.856 21.9343C120.116 20.6973 119.173 19.4859 118.039 18.5804C116.968 17.726 115.668 17.2669 114.482 16.6166C112.595 16.285 110.607 16.5145 108.848 17.3307C107.624 17.8918 106.63 18.81 105.826 19.9194C104.284 22.0491 103.481 24.8929 103.277 27.2904C102.946 31.1543 103.812 35.0183 104.666 38.8058C105.533 42.6315 106.4 46.47 107.178 50.3212C107.573 52.2851 107.943 54.249 108.274 56.2256C108.58 58.0237 108.478 60.4722 109.141 62.1555C109.434 62.8951 110.288 63.0864 111.206 63.1247C111.869 63.1502 112.557 63.0864 113.105 63.0992C114.813 63.0992 116.509 62.9972 118.204 62.7549C121.582 62.2703 124.884 61.2756 127.969 59.8346C129.945 58.9036 132.29 57.7814 133.858 56.2511C133.157 55.6007 132.991 54.045 132.698 53.1523L132.686 53.1395Z" fill="#99A558"/>
  <path d="M85.7866 51.2011C85.7866 51.2011 85.6974 51.2394 85.6591 51.2649C81.9751 53.0375 79.5531 57.3223 77.437 60.6634C73.7402 66.5168 70.0179 72.4467 67.9018 79.0269C67.1115 81.5137 68.5647 82.8527 70.4896 84.1917C72.8096 85.8112 75.2444 87.2905 77.8831 88.3235C80.1904 89.2289 82.6507 89.8027 85.1365 89.8027C87.3291 89.8027 89.7893 89.8665 91.7652 88.808C94.0343 87.5838 95.4747 85.2501 96.5965 82.9292C98.7126 78.5678 99.7324 74.028 101.071 69.4499C101.109 69.3096 101.147 69.1693 101.237 69.0545C101.453 68.7612 101.874 68.7485 102.231 68.7102C104.475 68.5189 106.514 66.9504 107.419 64.91C108.528 62.3723 107.113 60.5104 105.29 58.7633C102.958 56.5189 100.459 54.453 97.8203 52.5656C94.1617 49.9641 89.8658 49.301 85.7739 51.2011H85.7866Z" fill="#FAEAEA"/>
  <path d="M114.468 16.6165C113.716 16.2084 112.123 16.4635 111.307 16.591C110.364 16.744 109.178 17.0118 108.337 17.4709C106.667 18.3763 106.03 21.2329 106.068 22.98C106.081 23.6176 106.284 24.3827 106.909 24.523C107.534 24.6633 108.044 24.0639 108.439 23.5666C110.02 21.5899 112.263 20.2764 114.099 18.5294C114.621 18.032 115.323 17.1011 114.468 16.6293V16.6165Z" fill="#FCD9BA"/>
  <path d="M112.761 15.9788C112.378 15.456 111.932 14.9586 111.639 14.3847C111.18 13.4793 110.823 12.5229 110.237 11.694C109.829 11.1329 109.281 10.6355 108.643 10.3932C107.891 10.0999 107.394 10.3932 106.833 10.8778C105.699 11.8343 104.679 13.1988 104.615 14.7418C104.615 15.0989 104.653 15.456 104.73 15.8003C104.844 16.2849 105.023 16.7567 105.214 17.2158C105.546 18.0192 105.902 18.8098 106.285 19.5877C106.897 20.8247 107.47 21.5516 108.949 20.965C109.536 20.7355 110.045 20.3401 110.555 19.9576C111.575 19.1669 112.416 18.287 113.449 17.5218C113.538 17.4581 113.628 17.3943 113.653 17.2923C113.755 16.948 112.952 16.2466 112.761 15.9916V15.9788Z" fill="#FCD9BA"/>
  <path d="M106.514 19.3072C106.438 19.3965 106.361 19.4858 106.285 19.575C105.903 18.7971 105.546 18.0065 105.214 17.2031C105.023 16.744 104.844 16.2722 104.73 15.7876C104.793 15.7366 104.87 15.6856 104.934 15.6345C105.622 15.1244 106.502 14.27 107.432 14.7801C108.452 15.3412 107.942 17.0373 107.572 17.8407C107.33 18.3636 106.871 18.8354 106.527 19.2817L106.514 19.3072Z" fill="#E6C1A0"/>
  <path d="M100.268 6.97566C100.268 6.97566 100.255 7.02667 100.243 7.05217C100.179 7.24346 100.23 7.52401 100.192 7.74081C100.153 8.00861 100.141 8.27641 100.166 8.54421C100.204 9.0288 100.574 9.44963 100.612 9.93422C100.625 10.151 100.523 10.3551 100.447 10.5591C100.357 10.8014 100.268 11.0437 100.153 11.2732C99.9368 11.7578 99.6818 12.2169 99.4014 12.6632C99.1974 12.9693 98.9807 13.3136 99.0317 13.6707C99.1082 14.2573 99.7456 14.3721 100.217 14.4996C100.727 14.6399 100.893 15.2902 100.982 15.7238C101.11 16.3232 101.148 16.9353 101.301 17.5347C101.492 18.2743 101.874 18.8864 102.716 18.8992C103.901 18.9119 105.074 18.5549 106.094 17.9555C106.884 17.4837 107.585 16.8715 108.184 16.1702C108.694 15.5708 109.497 15.0607 109.791 14.3083C110.097 13.5304 110.823 13.5814 111.473 13.1351C112.149 12.676 112.582 11.8088 112.825 11.0692C113.105 10.253 113.207 9.38587 113.322 8.5187C113.424 7.66429 113.526 6.78437 113.283 5.95547C112.99 4.98628 112.238 4.20838 111.359 3.68553C110.479 3.16268 109.485 2.86938 108.49 2.62708C107.407 2.35928 106.413 2.12974 105.291 2.29552C104.5 2.41029 103.787 2.67809 103.047 2.93314C102.359 3.17543 101.836 3.73654 101.416 4.32315C100.867 5.1138 100.549 6.04473 100.268 6.96291V6.97566Z" fill="#FCD9BA"/>
  <path d="M110.263 15.1245C110.033 14.9842 109.829 14.8057 109.651 14.6016C109.281 14.1681 109.013 13.6452 108.746 13.1479C108.618 12.8928 108.478 12.6505 108.274 12.4465C107.981 12.1532 107.573 12.0129 107.216 11.7834C105.648 10.7759 106.196 8.62076 105.176 7.21799C104.73 6.61863 104.055 6.18504 103.315 6.07027C102.652 5.9555 101.938 6.07027 101.314 5.81522C100.014 5.25412 99.1849 3.54529 100.46 2.53785C100.893 2.20629 101.378 1.93848 101.9 1.78546C102.346 1.64518 102.818 1.58142 103.226 1.36463C103.863 1.04581 104.322 0.408193 104.998 0.153145C105.368 0.0128681 105.775 0.0128681 106.171 0.000115668C106.821 0.000115668 107.484 -0.0126367 108.083 0.229659C108.516 0.408193 108.886 0.701499 109.306 0.905538C110.288 1.39013 111.55 1.41564 112.226 2.27005C112.761 2.94593 112.723 3.90236 112.965 4.73127C113.245 5.6877 113.896 6.47835 114.406 7.34552C114.903 8.21268 115.272 9.27113 114.89 10.1893C114.686 10.6867 114.291 11.0947 114.074 11.5921C113.845 12.1532 113.845 12.778 113.564 13.3264C113.296 13.8493 112.901 14.1171 112.493 14.5251C112.06 14.9587 111.818 15.4178 111.104 15.3923C110.798 15.3923 110.505 15.2775 110.25 15.1245H110.263Z" fill="#553A12"/>
  <path d="M100.74 8.99077C100.74 8.99077 100.766 8.9015 100.778 8.85049C100.944 8.51893 101.479 8.56994 101.785 8.58269C102.193 8.60819 102.576 8.77398 102.92 8.96526C103.264 9.1438 103.608 9.39885 103.697 9.76867C103.697 9.79417 103.697 9.80692 103.697 9.83243C103.634 9.9472 103.124 9.64114 103.035 9.60288C102.92 9.55187 102.792 9.51362 102.665 9.48811C102.206 9.37334 101.722 9.30958 101.25 9.37334C101.148 9.38609 101.046 9.4116 100.944 9.37334C100.766 9.32233 100.702 9.1438 100.727 8.97801L100.74 8.99077Z" fill="#553A12"/>
  <path d="M105.393 12.1021C105.393 12.1021 105.393 12.0766 105.393 12.0639C105.202 10.9417 106.132 8.8375 107.56 9.44962C108.057 9.66641 108.401 10.1765 108.478 10.7121C108.631 11.7578 107.815 13.5049 106.591 13.5431C105.852 13.5687 105.495 12.727 105.38 12.1021H105.393Z" fill="#FCD9BA"/>
  <path d="M102.703 14.3211C102.703 14.3211 102.678 14.3211 102.678 14.3338C102.512 14.4358 102.346 14.5379 102.193 14.6399C102.079 14.7164 101.964 14.7801 101.849 14.8567C101.581 15.0224 101.594 15.3158 101.696 15.5836C101.811 15.9024 102.232 15.8896 102.512 15.7621C102.627 15.7111 102.716 15.6473 102.818 15.5708C103.086 15.354 103.328 15.0735 103.417 14.7291C103.468 14.5379 103.494 14.3593 103.302 14.2445C103.111 14.1298 102.894 14.1935 102.716 14.2956L102.703 14.3211Z" fill="#E9B8A2"/>
  <path d="M102.218 10.7251C102.206 10.5848 102.167 10.4573 102.091 10.3935C102.04 10.3425 101.951 10.317 101.874 10.317C101.645 10.3042 101.504 10.4317 101.466 10.623C101.441 10.7378 101.466 10.8653 101.466 10.9801C101.492 11.1076 101.53 11.2352 101.594 11.3499C101.632 11.4137 101.67 11.4519 101.734 11.4902C102.014 11.6177 102.18 11.4264 102.193 11.1969C102.193 11.0949 102.218 10.9036 102.193 10.7378L102.218 10.7251Z" fill="#553A12"/>
  <path d="M103.481 4.6548C102.997 4.6548 102.487 4.6293 102.066 4.36149C101.658 4.10645 101.518 3.64736 101.429 3.20102C101.403 3.099 101.161 3.11176 101.174 3.20102C101.225 3.45607 101.276 3.69837 101.391 3.92791C101.505 4.1447 101.671 4.32324 101.888 4.46351C102.359 4.75682 102.946 4.78232 103.481 4.79508C103.519 4.79508 103.609 4.78232 103.609 4.71856C103.609 4.6548 103.519 4.6548 103.481 4.64205V4.6548Z" fill="#412409"/>
  <path d="M105.329 2.92041C105.329 2.92041 105.215 2.8694 105.176 2.8694C104.896 2.90766 104.59 2.90766 104.348 2.78014C104.131 2.66536 103.965 2.46132 103.94 2.21903C103.94 2.11701 103.672 2.12976 103.685 2.21903C103.711 2.51233 103.927 2.76738 104.195 2.89491C104.526 3.06069 104.909 3.06069 105.266 3.00968C105.304 3.00968 105.38 2.97142 105.355 2.92041H105.329Z" fill="#412409"/>
  <path d="M113.858 7.79182C113.819 7.70255 113.564 7.72806 113.615 7.83008C113.96 8.64623 113.832 9.60266 113.322 10.3168C113.284 10.3678 113.386 10.3933 113.411 10.4061C113.462 10.4061 113.539 10.4061 113.564 10.3551C114.1 9.62817 114.202 8.63348 113.858 7.79182Z" fill="#412409"/>
  <path d="M111.741 8.28932C111.69 8.21281 111.448 8.23831 111.499 8.32758C111.869 8.9397 111.371 9.57732 110.976 10.0237C110.9 10.1129 111.142 10.1639 111.193 10.1002C111.422 9.84512 111.665 9.56457 111.792 9.233C111.907 8.92695 111.92 8.58263 111.741 8.30208V8.28932Z" fill="#412409"/>
  <path d="M106.348 64.1576C105.15 64.1321 103.939 64.0938 102.741 64.0683C102.142 64.0555 101.542 64.0428 100.943 64.03C100.421 64.03 99.8724 64.0173 99.4008 64.2468C98.9674 64.4636 98.6359 64.8334 98.3172 65.2033C97.9603 65.6241 97.6161 66.0322 97.2847 66.4657C96.6218 67.3329 96.1119 68.2638 95.7805 69.2968C95.1176 71.3117 95.0156 73.4541 94.6459 75.52C94.2635 77.6879 93.7026 79.8303 92.9888 81.9089C92.2749 83.9876 91.3953 86.0025 90.3628 87.9408C90.2353 88.1704 90.1078 88.4127 89.9803 88.6422C89.9294 88.7315 90.1843 88.757 90.2225 88.6805C91.2806 86.7931 92.1857 84.8165 92.9378 82.7889C93.6899 80.7612 94.2763 78.6826 94.7097 76.5784C94.9264 75.5327 95.0794 74.487 95.2323 73.4286C95.3726 72.3956 95.5128 71.3499 95.755 70.3297C95.9972 69.3095 96.3541 68.3149 96.915 67.4094C97.2082 66.9376 97.5396 66.4913 97.8966 66.0577C98.2153 65.6623 98.5467 65.2543 98.9036 64.8844C99.0693 64.7059 99.2606 64.5401 99.4773 64.4126C99.7195 64.2723 99.9744 64.2086 100.242 64.1831C100.803 64.1321 101.377 64.1831 101.938 64.1958C103.123 64.2213 104.309 64.2596 105.494 64.2851L106.374 64.3106C106.374 64.3106 106.501 64.2978 106.501 64.2341C106.501 64.1703 106.412 64.1703 106.374 64.1576H106.348Z" fill="#DFB880"/>
  <path d="M81.7327 82.3555C81.1335 80.9017 80.6874 79.3842 80.3814 77.8411C80.0882 76.2981 79.9353 74.7295 79.948 73.161C79.948 72.2683 80.0118 71.3884 80.1137 70.5085C80.1137 70.4192 79.8715 70.4064 79.8588 70.5085C79.6803 72.077 79.6548 73.6711 79.7823 75.2396C79.9098 76.8082 80.1902 78.3767 80.6236 79.8942C80.8658 80.7487 81.159 81.5903 81.4905 82.4065C81.5287 82.4957 81.7837 82.4702 81.7327 82.3682V82.3555Z" fill="#DFB880"/>
  <path d="M98.0109 67.5244C98.0109 67.5244 98.0492 67.5244 98.0364 67.5499C97.7178 67.9707 97.2971 68.2895 96.8637 68.5573C96.647 68.6976 96.4175 68.8124 96.188 68.9399C96.0351 69.0292 95.8439 69.1694 95.8439 69.3607C95.8439 69.5392 96.0223 69.6285 96.1753 69.654C96.9656 69.7943 97.7942 69.0291 98.4571 68.6721C99.9486 67.8687 101.16 66.6827 102.256 65.4075C102.422 65.2162 102.587 65.0249 102.689 64.7826C102.728 64.6806 102.766 64.5785 102.83 64.4893C102.893 64.3873 102.995 64.3108 103.097 64.247C103.645 63.8517 104.321 63.4563 104.474 62.7294C104.499 62.6147 104.499 62.4999 104.499 62.3851C104.461 61.7093 103.977 61.0971 103.352 60.8166C102.549 60.4595 101.682 60.638 100.981 61.1226C100.917 61.1609 100.854 61.2119 100.777 61.2119C100.701 61.2119 100.637 61.1992 100.56 61.1737C100.191 61.0716 99.7829 61.1226 99.4004 61.1992C97.9982 61.467 96.6597 61.9515 95.2702 62.2831C95.0408 62.3341 94.7858 62.4106 94.6201 62.5764C94.1612 63.0228 94.8113 63.2395 95.1937 63.2395C95.8056 63.2395 96.5832 63.0228 97.1441 63.3543C97.0039 63.6604 96.4812 63.9282 96.2008 64.1067C95.8566 64.3235 95.4869 64.5148 95.1428 64.7443C94.8241 64.9484 94.5054 65.1397 94.1612 65.3054C93.7788 65.484 93.3581 65.6242 93.0012 65.8538C92.8737 65.9431 92.657 66.1088 92.657 66.2874C92.6697 66.6699 93.4473 66.67 93.6895 66.6189C94.0337 66.5424 94.3397 66.3639 94.6456 66.1981C95.1555 65.9048 95.6909 65.6498 96.1626 65.3309C96.3665 65.2034 96.2008 65.484 96.1243 65.5477C96.0351 65.6243 95.9203 65.6753 95.8184 65.7518C95.6017 65.9048 95.3977 66.0706 95.181 66.2236C94.7603 66.5297 94.3142 66.8102 93.817 66.9888C93.5366 67.0908 93.2306 67.1673 92.9629 67.3076C92.759 67.4096 92.5932 67.6391 92.7717 67.8432C92.9502 68.0472 93.2816 68.1365 93.5493 68.1365C93.7915 68.1365 94.0847 68.0855 94.3014 67.9707C94.5181 67.8559 94.7476 67.7667 94.977 67.6519C95.4997 67.3841 95.9586 67.027 96.443 66.7082C96.545 66.6444 96.8382 66.4021 96.8764 66.6317C96.9147 66.8102 96.6852 67.0015 96.5577 67.1035C96.1498 67.4351 95.7164 67.7284 95.2447 67.9579C95.0153 68.0727 94.7731 68.1875 94.5309 68.2768C94.3397 68.3533 94.0592 68.3788 93.8935 68.4935C93.6895 68.6338 93.8425 68.8761 93.9827 68.9909C94.1867 69.1439 94.4544 69.2077 94.6966 69.1949C95.0535 69.1822 95.385 69.0291 95.7036 68.8634C96.1371 68.6466 96.5705 68.4043 96.9912 68.1365C97.1441 68.0345 97.2843 67.8942 97.4246 67.7794C97.5138 67.7029 97.603 67.6391 97.705 67.5754C97.7433 67.5499 97.7942 67.5116 97.8452 67.4989C97.8452 67.4989 97.909 67.4989 97.9345 67.4989L98.0109 67.5244Z" fill="#FCD9BA"/>
  <path d="M103.391 63.9154C103.582 63.8389 103.773 63.7496 103.964 63.6476C104.041 63.6476 104.13 63.6476 104.219 63.6221C105.01 63.4308 105.94 62.4233 106.565 61.9388C110.019 59.2862 113.296 56.3149 116.304 53.1268C116.827 52.5785 117.337 52.0046 117.642 51.316C118.165 50.1428 117.681 48.6252 116.98 47.605C116.342 46.6741 114.876 46.5338 113.856 46.6868C111.332 47.0694 110.096 49.0333 108.745 51.0099C106.412 54.4403 103.493 57.4371 101.083 60.8293C100.841 61.1736 100.586 61.5434 100.51 61.9643C100.268 63.2905 102.256 64.3745 103.365 63.9026L103.391 63.9154Z" fill="#FCD9BA"/>
  <path d="M118.79 48.3957C118.828 48.1916 118.866 47.9748 118.904 47.7581C119.159 46.317 119.389 44.8633 119.657 43.435C120.154 40.7697 120.689 38.1172 120.995 35.4137C121.212 33.4498 121.275 31.4732 121.403 29.5093C121.505 27.8133 121.581 26.0662 121.288 24.3829C121.021 22.8908 120.434 21.386 119.057 20.5954C118.879 20.4934 118.866 20.3148 118.943 20.1746C118.14 19.8302 117.235 19.7665 116.355 19.9705C114.902 20.3021 114.264 21.5136 113.767 22.8398C113.64 23.1714 113.525 23.5157 113.423 23.8473C112.008 28.3234 112.11 33.1565 112.046 37.8622C111.995 42.0705 111.791 46.266 111.46 50.4488C111.358 51.7241 111.32 52.3234 112.582 52.9738C113.474 53.4201 114.558 53.5222 115.488 53.1523C116.406 52.7825 117.133 52.0301 117.642 51.1885C118.152 50.3468 118.471 49.3904 118.764 48.4467C118.764 48.4339 118.764 48.4084 118.777 48.3957H118.79Z" fill="#FCD9BA"/>
  <path d="M112.926 38.589C113.461 38.589 113.996 38.5763 114.532 38.5763C115.118 38.5763 115.717 38.5763 116.304 38.5763C116.916 38.5763 117.527 38.6018 118.152 38.6145C118.751 38.6273 119.338 38.6528 119.937 38.691C120.357 38.7165 120.765 38.742 121.173 38.7675C121.326 37.9769 121.454 37.1862 121.581 36.3956C121.874 34.4955 122.295 32.4551 122.155 30.555C122.015 28.5784 121.951 26.6145 121.645 24.6379C121.415 23.1586 121.173 22.0236 120.051 20.9269C119.07 19.9577 117.668 19.6644 116.342 19.9705C114.889 20.302 114.251 21.5135 113.754 22.8398C113.627 23.1713 113.512 23.5156 113.41 23.8472C111.995 28.3233 112.097 33.1565 112.033 37.8621C112.033 38.1044 112.033 38.3595 112.033 38.6018C112.326 38.6018 112.632 38.5763 112.926 38.5763V38.589Z" fill="#99A558"/>
  <path d="M121.442 30.1852C121.442 31.2691 121.442 32.3531 121.404 33.437C121.378 34.5082 121.327 35.5922 121.251 36.6634C121.213 37.2755 121.174 37.8749 121.123 38.487C121.123 38.5763 121.366 38.589 121.378 38.487C121.467 37.403 121.531 36.3318 121.582 35.2479C121.633 34.1767 121.671 33.0927 121.684 32.0215C121.684 31.4094 121.697 30.7973 121.684 30.1979C121.684 30.0959 121.429 30.0959 121.429 30.1979L121.442 30.1852Z" fill="#67762E"/>
  <path d="M114.889 20.5443C114.889 20.5443 114.762 20.5443 114.736 20.5953C114.061 21.4752 113.538 22.4572 113.13 23.5029C112.722 24.5486 112.454 25.6325 112.25 26.7292C112.046 27.8515 111.919 28.9737 111.83 30.1086C111.728 31.3966 111.651 32.6974 111.6 33.9981C111.537 35.3499 111.511 36.7144 111.486 38.0661C111.486 38.2319 111.486 38.3977 111.486 38.5635C111.486 38.6655 111.741 38.6655 111.741 38.5635C111.741 37.2117 111.779 35.86 111.83 34.5082C111.881 33.1947 111.957 31.8685 112.046 30.555C112.136 29.42 112.238 28.2978 112.429 27.1756C112.607 26.0661 112.862 24.9694 113.245 23.911C113.614 22.878 114.099 21.8706 114.736 20.9651C114.813 20.8504 114.902 20.7483 114.978 20.6336C115.017 20.5826 114.915 20.5571 114.889 20.5443Z" fill="#67762E"/>
  <path d="M105.252 40.4636C104.729 38.793 104.309 37.0969 103.99 35.3753C103.671 33.6538 103.467 31.9194 103.365 30.1724C103.302 29.2032 103.289 28.2212 103.289 27.2393C103.289 27.1373 103.034 27.1373 103.034 27.2393C103.021 28.9864 103.11 30.7462 103.314 32.4805C103.518 34.2149 103.812 35.9492 104.219 37.6453C104.449 38.6017 104.717 39.5454 105.01 40.4891C105.035 40.5783 105.29 40.5528 105.252 40.4508V40.4636Z" fill="#67762E"/>
  <path d="M26.0637 60.0513C26.1402 60.4211 26.3569 60.5741 27.0198 60.6379C28.8682 60.8164 30.7675 60.5996 32.6032 60.3573C36.2745 59.8727 40.0223 59.0693 43.7063 59.809C43.0434 57.8324 42.61 55.792 42.4188 53.7261C42.2786 52.2595 42.2148 50.6655 41.297 49.505C40.8254 48.9056 40.1625 48.4848 39.4741 48.1533C37.4727 47.1968 35.1909 46.9418 32.9729 47.0693C31.0862 47.1713 29.1486 47.5666 27.5934 48.6378C26.5608 49.352 25.5155 50.5125 25.3243 51.7877C25.0821 53.369 25.6303 54.9631 25.8725 56.5061C26.0255 57.4243 26.0637 58.3424 26.0382 59.2606C26.0382 59.5922 26.0382 59.8345 26.0637 60.0258V60.0513Z" fill="#FCD9BA"/>
  <path d="M19.6124 104.863C19.9694 104.353 20.339 103.856 20.7087 103.358C21.7795 101.93 22.9523 100.655 24.3418 99.5199C25.5528 98.538 27.2992 96.8674 28.9691 97.3902C30.3076 97.8111 31.5186 98.6272 32.3982 99.7239C32.7042 100.119 32.9846 100.566 33.0229 101.063C33.0483 101.458 32.9336 101.841 32.7806 102.211C31.8628 104.57 29.581 106.495 27.9493 108.396C26.0117 110.653 24.0741 112.91 22.1364 115.154C18.2102 119.72 14.2967 124.285 10.3705 128.863C9.78407 129.552 9.3634 129.73 8.66229 129.297C7.71897 128.71 6.97961 128.213 7.2728 127.091C7.57874 125.905 8.42008 124.668 8.95548 123.571C10.09 121.225 11.25 118.891 12.4738 116.583C14.6154 112.54 16.9354 108.574 19.5869 104.838L19.6124 104.863Z" fill="#FCD9BA"/>
  <path d="M12.8052 136.056C12.461 135.915 12.1168 135.635 11.8746 135.392C10.5998 134.117 9.33782 132.829 7.89735 131.745C6.92854 131.018 5.88324 130.381 5.09289 129.475C4.88893 129.246 4.59573 128.863 4.64672 128.544C4.69771 128.213 5.06739 127.894 5.32235 127.703C5.92148 127.231 6.66084 127.001 7.29821 126.581C7.55317 126.415 7.8846 126.16 8.20329 126.16C8.48374 126.16 8.86616 126.325 9.12111 126.453C9.49079 126.632 9.84772 126.874 10.1409 127.167C10.4724 127.499 10.5743 127.792 10.6508 128.251C10.7401 128.761 10.9695 129.271 11.0842 129.781C11.2117 130.33 11.3009 130.878 11.4157 131.426C11.6451 132.523 11.9511 133.645 12.6267 134.551C12.8816 134.895 13.2003 135.214 13.366 135.609C13.417 135.724 13.4425 135.864 13.3915 135.966C13.3278 136.107 13.1238 136.158 12.9709 136.119C12.9071 136.107 12.8434 136.081 12.7797 136.056H12.8052Z" fill="#FCD9BA"/>
  <path d="M26.4449 67.2435C24.928 71.6304 24.6603 76.3487 24.4053 80.9906C24.0611 87.2776 23.7042 93.5773 23.36 99.8642C23.3345 100.336 23.3218 100.859 23.6022 101.241C23.7934 101.497 24.0994 101.65 24.3926 101.79C25.8331 102.453 27.3628 102.912 28.9307 103.142C30.1417 103.32 31.5695 103.295 32.3598 102.351C33.0864 101.484 33.4688 99.724 33.6855 98.6145C34.0425 96.8547 34.3357 95.0821 34.6671 93.3222C35.3172 89.7898 35.9546 86.2574 36.5792 82.725C36.8342 81.2839 37.0891 79.8429 37.2421 78.3891C37.6755 74.3594 37.5863 70.0873 37.4333 66.0703C37.3823 64.8716 37.2676 63.5708 36.49 62.6526C35.1005 61.0458 31.9646 61.1096 30.2182 62.0533C28.2678 63.099 27.1588 65.2286 26.4577 67.2435H26.4449Z" fill="#FCD9BA"/>
  <path d="M37.9817 62.8821C37.9179 65.1266 37.8542 67.371 37.7905 69.6154C37.765 70.3296 37.7522 71.0437 37.7267 71.7578C37.6757 73.6579 37.612 75.5581 37.561 77.4582C37.5355 78.1851 37.5228 78.8992 37.4973 79.6261C37.408 82.9035 37.3061 86.1681 37.2168 89.4455C36.6814 89.4455 36.146 89.4455 35.6106 89.4455C31.1745 89.4199 26.7256 89.1521 22.3149 88.7186C22.7229 84.8801 23.0416 81.0289 23.2328 77.1776C23.3857 74.3338 23.475 71.4773 23.7809 68.6462C23.9339 67.269 24.1251 65.8917 24.3928 64.5272C24.8007 62.5123 25.6293 60.676 26.152 58.7121C26.5089 58.7376 26.8531 58.7759 27.1973 58.8269C27.5414 58.8651 27.8729 58.9161 28.2171 58.9544C28.4593 58.9799 28.7015 59.0054 28.9437 59.0309C30.0145 59.1329 31.0853 59.1839 32.156 59.1839C32.2453 59.1839 32.3345 59.1839 32.4237 59.1839H32.4875C34.0172 59.1839 35.5469 59.0182 37.0639 58.8524C37.1021 58.8524 37.1403 58.8524 37.1786 58.8396C37.4208 59.2094 37.612 59.6048 37.7395 60.0384C38.0199 60.9565 37.9944 61.9257 37.9562 62.8821H37.9817Z" fill="#9DCAD4"/>
  <path d="M40.4554 108.906C40.175 105.628 40.3025 102.338 41.2203 99.0226C41.539 97.8622 41.6664 97.3266 42.7755 96.9185C43.9865 96.4722 45.3377 96.3319 46.6125 96.5614C47.1096 96.6507 47.6068 96.8037 47.9637 97.148C48.2442 97.4286 48.4099 97.7984 48.5501 98.1682C49.2002 99.9153 49.3277 101.828 49.3277 103.677C49.3277 105.845 49.2385 108.013 49.3022 110.207C49.366 112.668 49.4297 115.129 49.4934 117.59C49.6209 122.513 49.7484 127.435 49.8759 132.357C49.9014 133.531 49.6082 134.066 48.4609 134.219C46.9822 134.423 45.9241 134.831 45.5162 133.046C44.3944 128.213 43.2726 123.38 42.1509 118.547C41.3987 115.32 40.7231 112.119 40.4427 108.906H40.4554Z" fill="#FCD9BA"/>
  <path d="M56.1216 136.719C55.7647 136.834 55.3185 136.859 54.9743 136.846C53.1769 136.744 51.3795 136.617 49.5821 136.77C48.3838 136.872 47.1728 137.089 45.9745 136.936C45.6686 136.897 45.1969 136.821 45.0185 136.528C44.84 136.247 44.9038 135.762 44.9675 135.456C45.1077 134.704 45.5029 134.041 45.7069 133.301C45.7833 133.008 45.8598 132.587 46.1148 132.383C46.3315 132.204 46.7139 132.077 46.9944 132C47.3895 131.886 47.8102 131.835 48.2309 131.86C48.7025 131.886 48.983 132.039 49.3272 132.319C49.7351 132.638 50.245 132.868 50.6656 133.174C51.1246 133.492 51.558 133.85 52.0041 134.181C52.9092 134.857 53.878 135.482 54.9871 135.699C55.4077 135.788 55.8539 135.813 56.2491 135.992C56.3638 136.043 56.4785 136.119 56.5168 136.247C56.5678 136.4 56.453 136.566 56.3128 136.642C56.2491 136.668 56.1981 136.693 56.1216 136.719Z" fill="#FCD9BA"/>
  <path d="M34.208 69.5773C34.0806 71.6177 33.8129 73.8876 34.2335 75.8898C34.8199 78.6443 35.521 81.3861 36.1584 84.1278C37.4204 89.5094 38.6824 94.9036 39.9444 100.285C40.1739 101.242 40.4671 102.887 41.3977 103.448C42.4684 104.073 44.8905 103.703 46.0633 103.563C47.287 103.422 48.651 103.014 49.1609 101.892C49.6326 100.859 49.5306 99.0609 49.4541 97.9387C49.3266 96.1534 49.1609 94.368 49.0079 92.5699C48.702 88.9993 48.3833 85.4158 48.0519 81.8451C47.9244 80.3914 47.7842 78.9248 47.5547 77.4838C46.9173 73.4795 45.6936 69.386 44.4826 65.5475C44.1256 64.3998 43.6667 63.1756 42.6724 62.4997C40.9132 61.3137 37.9048 62.2064 36.4644 63.5837C34.8582 65.114 34.3483 67.4604 34.208 69.5901V69.5773Z" fill="#FCD9BA"/>
  <path d="M49.6076 87.9154C48.1927 88.1449 46.7649 88.3617 45.3372 88.5913C44.7381 88.6805 44.1517 88.7825 43.5526 88.8718C42.9789 88.9611 42.3925 89.0503 41.8189 89.1524C40.0597 89.4329 38.2878 89.7135 36.5159 89.6497C36.1335 89.637 35.7256 89.5987 35.4451 89.3436C35.2157 89.1396 35.1137 88.8208 35.0372 88.5275C34.1959 85.4669 34.1066 82.1385 33.7242 78.9887C33.1123 73.8877 32.5387 68.7357 32.2965 63.5965C32.2582 62.8824 32.2327 62.1682 32.2072 61.4541C32.1817 60.7017 32.169 59.9493 32.1562 59.1969C32.271 59.1969 32.3857 59.1969 32.4877 59.1969C34.0174 59.1969 35.5471 59.0311 37.0641 58.8653C38.5683 58.6996 40.0725 58.4955 41.5894 58.3042C42.3543 58.2022 43.1191 58.1002 43.8712 58.0109C46.408 66.3128 47.7083 74.8186 49.1615 83.35C49.238 83.8218 49.6459 87.9281 49.5949 87.9281L49.6076 87.9154Z" fill="#9DCAD4"/>
  <path d="M31.7992 79.0524C31.5443 78.351 30.7412 77.7006 30.0018 78.2235C29.5429 78.555 29.7086 79.2437 29.9636 79.7283C30.1165 80.1236 30.4225 80.4424 30.8559 80.5062C31.2511 80.5699 31.761 80.4679 31.8884 80.0343C31.9777 79.7155 31.9139 79.3584 31.7992 79.0524Z" fill="#1A8B93"/>
  <path d="M38.4536 69.7686C38.1987 69.5391 37.7653 69.5773 37.4848 69.7049H37.4466C37.4466 69.7049 37.4083 69.7431 37.3828 69.7559C37.2044 69.7814 37.0387 69.8579 36.9367 69.9982C36.6817 70.3425 36.5288 70.7761 36.5415 71.2096C36.5415 71.758 37.1024 71.9238 37.5868 71.809C38.0202 71.6942 38.2879 71.3244 38.4409 70.9163C38.5556 70.5975 38.7341 70.0364 38.4536 69.7686Z" fill="#1A8B93"/>
  <path d="M27.6565 66.6188C27.2995 66.4658 26.6622 66.5551 26.6494 66.8994C26.6494 67.7411 27.0701 68.6465 28.0261 68.6082C28.2301 68.6082 28.6253 68.5445 28.638 68.2639C28.689 67.5498 28.3576 66.7209 27.6437 66.6188H27.6565Z" fill="#1A8B93"/>
  <path d="M32.7934 61.4413C32.6405 61.403 32.4365 61.403 32.258 61.4413C32.0031 61.4413 31.7481 61.5051 31.6589 61.6581C31.4295 62.0279 31.2892 62.4232 31.2255 62.8568C31.2 63.0098 31.1745 63.2011 31.2382 63.3542C31.3402 63.5582 31.6207 63.6347 31.8246 63.6475C32.8062 63.724 33.0866 62.4997 33.1631 61.7346C33.1886 61.5561 32.9082 61.454 32.7807 61.4285L32.7934 61.4413Z" fill="#1A8B93"/>
  <path d="M39.6141 59.9109C39.4612 59.6686 39.117 59.6303 38.8493 59.6686C38.7218 59.6813 38.4159 59.7961 38.3904 59.9619C38.3139 60.0129 38.2629 60.0894 38.2756 60.1787C38.3394 60.7908 38.4541 61.7982 39.1042 62.0788C39.3337 62.1808 40.022 62.2956 40.1368 61.9257C40.3662 61.1606 40.022 60.523 39.6141 59.8854V59.9109Z" fill="#1A8B93"/>
  <path d="M44.8525 64.7442C44.5593 64.5785 43.9347 64.604 43.7944 64.8845C43.5012 65.4584 42.9658 66.7846 43.9856 66.9377C44.4955 67.0142 44.8525 66.8229 45.0437 66.351C45.2094 65.943 45.2859 65.5221 45.2986 65.0886C45.2986 64.8845 45.0947 64.7825 44.8525 64.757V64.7442Z" fill="#1A8B93"/>
  <path d="M43.871 74.8695C43.7436 74.4997 43.4759 73.9004 43.0552 73.7983C42.7875 73.7346 42.4178 73.7218 42.2139 73.9259C42.0609 73.9769 41.9334 74.0789 41.9334 74.2192C41.8824 75.1628 42.5453 76.5656 43.7053 76.0173C44.1897 75.7877 44.0113 75.2649 43.871 74.8695Z" fill="#1A8B93"/>
  <path d="M48.1669 81.5008C47.861 81.3223 47.2364 81.3605 47.1344 81.6538C47.0069 82.0364 46.9177 82.4317 46.9177 82.8398C46.9177 83.0183 46.8922 83.2861 46.9814 83.4647C47.0834 83.656 47.3511 83.7197 47.5423 83.7325C48.0012 83.7707 48.3454 83.5922 48.4346 83.1331C48.5111 82.6995 48.5366 82.2532 48.5366 81.8196C48.5366 81.6411 48.3454 81.5518 48.1669 81.5136V81.5008Z" fill="#1A8B93"/>
  <path d="M40.2767 83.1459C40.1875 82.9419 40.0855 82.7378 39.8943 82.623C39.6266 82.4573 39.3206 82.4828 39.0274 82.5465C38.8872 82.572 38.7342 82.6868 38.7215 82.8398C38.7215 82.9036 38.7215 82.9546 38.7215 83.0184C38.7215 83.0566 38.7215 83.0821 38.7342 83.1204C38.6323 83.707 38.8745 84.3191 39.3461 84.6889C39.6011 84.893 40.4424 84.995 40.4934 84.5232C40.5444 84.0513 40.4679 83.5795 40.2767 83.1586V83.1459Z" fill="#1A8B93"/>
  <path d="M45.3371 88.5912C44.738 88.6805 44.1516 88.7825 43.5525 88.8718C43.5907 88.757 43.6545 88.6422 43.731 88.5275C43.731 88.5275 43.731 88.5147 43.731 88.502C43.8074 88.1831 44.0879 87.9536 44.4193 87.8898C44.6998 87.8388 45.1714 87.8771 45.3117 88.1831C45.3626 88.2979 45.3626 88.4382 45.3371 88.5912Z" fill="#1A8B93"/>
  <path d="M33.0869 87.0736C32.781 86.895 31.9651 86.8695 31.7739 87.2266C31.5827 87.2904 31.468 87.4179 31.5445 87.5964C31.7484 88.0938 31.8377 88.6549 32.3221 88.9737C32.628 89.1777 32.9977 89.2287 33.3419 89.1012C33.6606 88.9992 33.7243 88.7186 33.7243 88.4126C33.7243 87.928 33.5203 87.3286 33.0869 87.0736Z" fill="#1A8B93"/>
  <path d="M25.4257 82.9801C25.4257 82.8271 25.2855 82.7378 25.1325 82.6868C25.056 82.3552 24.0999 82.3042 23.9215 82.6485C23.6283 83.2606 23.2076 84.6124 24.1637 84.8419C24.6353 84.9567 25.107 84.7782 25.26 84.3191C25.4129 83.8855 25.4639 83.4264 25.4257 82.9673V82.9801Z" fill="#1A8B93"/>
  <path d="M25.5023 72.4466C25.3239 72.1533 24.5845 72.1661 24.3551 72.3828C24.1129 72.4211 23.9089 72.5231 23.8962 72.7272C23.8452 73.5688 23.9344 74.9588 25.1327 74.7676C26.1525 74.6145 25.872 73.0842 25.5023 72.4594V72.4466Z" fill="#1A8B93"/>
  <path d="M32.6277 71.6942C32.462 71.4647 32.1305 71.4136 31.8756 71.4519C31.8246 71.4519 31.7481 71.4774 31.6716 71.5157C31.4932 71.5412 31.3402 71.6304 31.2892 71.758C31.1235 72.2426 31.047 72.7654 31.1107 73.2755C31.1872 73.8239 31.5952 74.0662 32.1433 73.9769C32.6787 73.8876 32.8062 73.403 32.8699 72.9312C32.9336 72.4976 32.8699 72.0513 32.615 71.6942H32.6277Z" fill="#1A8B93"/>
  <path d="M28.9559 59.0311C28.9177 59.1458 28.8667 59.2606 28.8285 59.3626C28.6245 59.8345 28.3568 60.3446 27.7959 60.4338C27.5282 60.4721 27.184 60.4338 26.9801 60.2553C26.7761 60.0768 26.8398 59.8345 26.8908 59.6049C26.9546 59.3244 27.0693 59.0693 27.2223 58.8398C27.5665 58.878 27.8979 58.9291 28.2421 58.9673C28.4843 58.9928 28.7265 59.0183 28.9687 59.0438L28.9559 59.0311Z" fill="#1A8B93"/>
  <path d="M38.4791 77.318C38.2496 77.2415 37.9054 77.2415 37.6887 77.3945C37.5613 77.4455 37.472 77.5221 37.4465 77.6241C37.1661 77.9174 36.9111 78.2234 36.6944 78.5678C36.5797 78.7335 36.414 78.9503 36.4267 79.1671C36.4267 79.4349 36.6817 79.5752 36.8984 79.639C37.9437 79.9195 38.5556 78.708 38.6575 77.8281C38.6703 77.8154 38.683 77.8026 38.7085 77.7771C38.9125 77.5858 38.683 77.3818 38.4918 77.318H38.4791Z" fill="#1A8B93"/>
  <path d="M38.1222 76.5273C38.033 78.1851 37.931 79.8429 37.8036 81.488C37.6888 83.1331 37.5486 84.7781 37.3956 86.4104C37.3064 87.3414 37.2172 88.2595 37.1279 89.1905C37.1279 89.3052 37.4211 89.3052 37.4339 89.1905C37.5996 87.5454 37.7526 85.8876 37.8928 84.2425C38.033 82.5975 38.1477 80.9524 38.2625 79.3201C38.3262 78.3892 38.3772 77.4582 38.4282 76.5273C38.4282 76.4125 38.1222 76.4125 38.1222 76.5273Z" fill="#1A8B93"/>
  <path d="M43.5142 60.0767C43.5142 60.0767 43.374 60.0002 43.323 60.0129C42.2013 60.2552 41.0795 60.4592 39.9449 60.6123C38.8232 60.7781 37.6886 60.8928 36.5541 60.9821C35.4196 61.0714 34.2723 61.1096 33.1377 61.1224C32.0032 61.1224 30.8559 61.0969 29.7214 61.0331C28.5869 60.9693 27.4396 60.8546 26.3178 60.7143C26.1776 60.7015 26.0374 60.676 25.8971 60.6633C25.8462 60.6633 25.7314 60.6633 25.7059 60.727C25.6804 60.7908 25.7697 60.8291 25.8079 60.8291C26.9424 60.9821 28.0897 61.1096 29.2497 61.1861C30.397 61.2626 31.5443 61.3009 32.6916 61.3137C33.8389 61.3137 34.9861 61.2754 36.1334 61.1989C37.2807 61.1224 38.428 61.0076 39.5753 60.8546C40.7098 60.7015 41.8443 60.5103 42.9788 60.2807C43.1191 60.2552 43.2593 60.2169 43.4123 60.1914C43.4633 60.1914 43.5397 60.1532 43.5142 60.0894V60.0767Z" fill="#1A8B93"/>
  <path d="M36.4141 60.6761C36.4269 60.6123 36.2994 60.5868 36.2611 60.5868C35.9552 60.5868 35.8787 61.4667 35.8277 61.6835C35.7003 62.2064 35.56 62.7292 35.4071 63.2393C35.1011 64.2722 34.7569 65.2924 34.4382 66.3126C34.2343 66.963 34.0431 67.6261 34.0176 68.3148C34.0176 68.4678 34.0176 68.6208 34.0941 68.7483C34.196 68.8886 34.6677 68.9141 34.7059 68.7228C34.7059 68.6718 34.7314 68.6336 34.7314 68.5826C34.9354 68.3658 35.0119 68.0342 35.0756 67.7409C35.2158 67.1926 35.3433 66.6442 35.4581 66.0958C35.7003 64.9864 35.917 63.8642 36.0954 62.742C36.1974 62.1043 36.2866 61.4667 36.3759 60.8291C36.3759 60.8163 36.3759 60.8036 36.3631 60.7908C36.3631 60.7526 36.3759 60.7143 36.3886 60.6761H36.4141Z" fill="#1A8B93"/>
  <path d="M40.1492 62.5634C40.2257 61.9641 40.2894 61.3647 40.3532 60.7653C40.3787 60.5868 40.3532 60.2425 40.0982 60.3955C39.9707 60.472 39.9325 60.7016 39.8942 60.8291C39.805 61.1734 39.805 61.5432 39.7413 61.8875C39.3461 64.1065 38.4283 66.3891 38.4155 68.6463C38.4155 68.8376 38.5175 69.2712 38.798 69.1054C39.0019 68.9906 39.0911 68.4805 39.1421 68.2765C39.6138 66.4019 39.8942 64.489 40.1364 62.5634H40.1492Z" fill="#1A8B93"/>
  <path d="M55.2552 27.9151C55.166 26.9459 54.9492 25.964 54.4011 25.1733C53.1263 23.3497 50.5131 23.0182 48.9706 21.4113C47.1732 19.524 47.1477 16.2084 45.0189 14.7801C44.5472 14.2062 43.9354 13.7471 43.2215 13.5176C42.3164 13.2243 41.3349 13.288 40.3915 13.3646C39.3972 13.4411 38.3902 13.4921 37.4086 13.288C36.7712 13.1605 36.1466 12.931 35.6112 12.5739C34.9228 11.9618 34.2855 11.2732 33.5334 10.7503C31.0603 9.02874 27.4018 9.29654 25.222 11.3624L24.5209 11.7323C22.8892 12.6504 22.9274 14.8311 23.1569 16.4124C23.6158 19.4602 24.0874 22.5846 25.5534 25.2881C27.8097 29.4454 32.1949 32.1616 36.7967 33.2456C41.3986 34.3296 46.2299 33.9597 50.8955 33.1691C52.0938 32.965 53.3685 32.6972 54.2226 31.8301C55.2042 30.8354 55.3954 29.2923 55.2679 27.9023L55.2552 27.9151ZM37.6381 13.9129C37.1027 13.7216 36.631 13.4156 36.1976 13.0713C36.4016 13.1605 36.6055 13.2243 36.8095 13.288C37.7783 13.5686 38.7981 13.5941 39.8052 13.5431C40.7357 13.4921 41.6918 13.3518 42.6224 13.5176C43.0558 13.5941 43.4637 13.7471 43.8461 13.9767C44.0756 14.117 44.2923 14.2955 44.4835 14.474C42.4184 13.5686 39.8179 14.7036 37.6508 13.9002L37.6381 13.9129Z" fill="#B36332"/>
  <path d="M37.7139 35.3244C41.6019 35.5029 45.4899 35.4137 49.3651 35.1969C49.4034 35.1969 49.4288 35.1969 49.4671 35.1969C50.2192 35.1076 50.984 35.0056 51.7362 34.9418C51.8381 34.9291 51.9401 34.9163 52.0421 34.9036C53.8522 34.6358 55.6497 34.3042 57.4216 33.8834C57.7148 33.7814 58.0079 33.6666 58.3011 33.5518C58.6071 33.4243 58.9258 33.2968 59.168 33.0672C59.7289 32.5189 59.6651 31.6007 59.5122 30.8356C59.3719 30.1214 59.3847 29.1905 58.7218 28.7824C58.1482 28.4253 57.3068 28.5146 56.6567 28.5529C48.9317 29.0375 41.1812 26.9588 33.4817 27.6857C31.8882 27.8387 30.9577 29.6751 30.8174 31.1926C30.7027 32.4679 31.1489 33.6283 31.9137 34.572C33.8004 35.0694 35.7635 35.2479 37.7139 35.3372V35.3244Z" fill="#FCD9BA"/>
  <path d="M37.7143 35.3243C39.7411 35.4136 41.768 35.4391 43.7949 35.4008C43.9988 32.8886 44.6999 30.4146 45.7197 28.0809C41.6405 27.6856 37.5613 27.2903 33.4948 27.6728C31.9014 27.8259 30.9708 29.6622 30.8306 31.1798C30.7159 32.455 31.162 33.6155 31.9269 34.5591C33.8135 35.0565 35.7767 35.235 37.727 35.3243H37.7143Z" fill="#DFB880"/>
  <path d="M21.7671 41.9939C22.5702 47.2224 23.6155 52.4254 24.8776 57.5646C31.4808 55.9195 38.2625 55.0141 45.0569 54.8611C45.962 54.8356 47.8359 55.1034 48.3458 54.198C48.741 53.4966 47.9506 51.5709 47.7467 50.8696C46.7268 47.4137 45.2991 44.0853 43.6292 40.8844C41.9338 37.6453 39.9961 34.7888 37.6633 31.9705C36.6945 30.7972 35.6747 29.6368 34.4637 28.7186C33.2144 27.7622 31.876 26.9333 30.2953 27.1883C28.4086 27.4944 26.7387 27.979 24.9795 28.7696C20.7728 30.6825 20.9258 36.1788 21.474 39.9917C21.5632 40.6549 21.6652 41.318 21.7671 41.9811V41.9939Z" fill="#DFB880"/>
  <path d="M94.1092 13.339C92.3246 10.5207 90.6164 7.26887 86.7411 7.77897C83.0953 8.27631 79.0799 10.4442 75.893 12.1913C69.0348 15.9533 63.018 21.2455 58.4161 27.5835C56.9246 29.6239 55.5989 31.779 54.4261 34.0235C53.3681 36.0639 51.6089 38.5123 52.7944 40.7823C53.9417 42.9884 55.3822 45.0416 57.0394 46.8779C58.6201 48.625 60.7234 50.2956 63.0817 50.0533C63.9613 49.964 64.7899 49.6069 65.5802 49.1989C70.9852 46.3551 74.4015 40.8715 77.4992 35.6048C77.9071 34.9034 78.3405 34.1893 78.9651 33.6664C79.679 33.067 80.6096 32.7737 81.5019 32.4804C87.8374 30.44 94.0327 27.9278 99.9986 24.982C100.241 24.8672 100.496 24.7269 100.623 24.4974C100.853 24.0766 100.598 23.5792 100.343 23.1712C98.2649 19.8938 96.1871 16.6164 94.1092 13.339Z" fill="#FAEAEA"/>
  <path d="M98.01 24.5613C95.0016 25.709 91.9932 26.8695 88.921 27.8386C87.3913 28.3232 85.8489 28.7696 84.2809 29.1521C82.7002 29.5347 81.1068 29.8153 79.5133 30.0703C78.8122 30.1851 78.1111 30.3381 77.461 30.6314C76.9256 30.8737 76.4284 31.1925 75.9695 31.5496C74.988 32.3275 74.1976 33.3094 73.4965 34.3296C72.7444 35.4391 72.0815 36.6123 71.3932 37.76C70.5518 39.1628 69.6722 40.5401 68.7544 41.8918C67.161 44.251 65.4783 46.7122 63.069 48.3063C62.7886 48.4976 62.4826 48.6761 62.1894 48.8291C62.0619 48.8929 62.2914 48.9694 62.3679 48.9312C64.8409 47.6177 66.6256 45.3605 68.1935 43.1033C69.1113 41.7771 70.0037 40.4253 70.8578 39.0608C71.6226 37.8365 72.3237 36.5868 73.0886 35.3626C74.3888 33.2712 76.0333 31.0778 78.5445 30.4019C79.3349 30.1851 80.1635 30.1086 80.9666 29.9683C81.7569 29.8408 82.5473 29.675 83.3249 29.5092C84.8801 29.1649 86.4225 28.7568 87.9395 28.285C91.0116 27.3541 94.02 26.2318 97.0157 25.0841C97.3854 24.9438 97.7551 24.8036 98.1248 24.6633C98.2777 24.5995 98.0993 24.5103 97.9973 24.5485L98.01 24.5613Z" fill="#DFB880"/>
  <path d="M75.1023 19.728C75.1023 19.728 74.9748 19.728 74.9366 19.7535C73.9677 20.4804 73.0244 21.2328 72.1576 22.0745C71.3035 22.9034 70.5259 23.8216 69.914 24.8418C69.5698 25.4156 69.2894 26.0277 69.0854 26.6653C69.0472 26.7674 69.3022 26.7801 69.3276 26.7036C69.6973 25.5814 70.2965 24.5484 71.0358 23.6175C71.7752 22.6738 72.6548 21.8449 73.5726 21.067C74.0952 20.6335 74.6179 20.2254 75.166 19.8173C75.217 19.779 75.166 19.7408 75.1278 19.728H75.1023Z" fill="#DFB880"/>
  <path d="M38.0333 41.1777C36.8223 41.0629 35.6113 40.9991 34.4003 40.8334C32.6921 40.5911 30.9839 40.2978 29.3012 39.9534C28.5109 39.7877 27.7205 39.6091 26.9812 39.2903C24.5336 38.2574 22.5195 35.3753 23.4374 32.6463C23.8325 31.4603 24.8906 30.6442 25.9741 30.0958C27.2489 29.4454 29.212 29.9428 30.4995 30.3381C31.991 30.7844 33.3932 31.4731 34.8082 32.0979C36.0064 32.6208 37.2302 33.0926 38.4667 33.5262C39.6777 33.9471 41.0545 34.1766 42.2018 34.7377C43.2853 35.2733 44.5091 35.3371 45.7073 35.4773C47.1223 35.6431 48.5373 35.7324 49.9523 35.7706C50.6151 35.7834 51.38 35.7962 51.4182 36.5741C51.4565 37.3519 51.4565 38.1298 51.4182 38.9077C51.38 39.6984 51.2398 40.5911 50.5641 41.0119C50.2837 41.1904 49.9395 41.2414 49.6081 41.2925C46.1025 41.7898 42.5332 41.8025 39.0276 41.3052C38.6834 41.2542 38.3392 41.2159 38.0078 41.1904L38.0333 41.1777Z" fill="#FCD9BA"/>
  <path d="M36.912 32.9397C36.2108 32.6719 35.5097 32.3786 34.8214 32.0853C33.3936 31.4604 31.9914 30.7845 30.5127 30.3254C29.2252 29.9301 27.2621 29.4327 25.9873 30.0831C24.9038 30.6315 23.8457 31.4476 23.4505 32.6336C22.5327 35.3754 24.5468 38.2447 26.9944 39.2776C27.7337 39.5964 28.5241 39.775 29.3144 39.9407C31.0098 40.2978 32.7053 40.5911 34.4134 40.8207C34.4772 40.8207 34.5537 40.8334 34.6174 40.8462C34.7194 38.0534 35.4332 35.2989 36.912 32.9269V32.9397Z" fill="#DFB880"/>
  <path d="M46.2557 38.1809C45.9498 38.8313 46.3577 39.6474 46.7019 40.2213C46.8421 40.4509 46.9951 40.6931 47.199 40.8844C47.8109 41.4583 48.9072 41.3053 49.6721 41.318C50.5771 41.3308 51.4695 41.2543 52.3618 41.1012C54.121 40.8207 55.8419 40.2978 57.5373 39.7622C58.7993 39.3796 60.0613 38.9843 61.3233 38.6017C62.3941 38.2702 63.4649 37.9386 64.5229 37.5688C66.1291 36.9949 67.7098 36.3318 69.2268 35.5539C69.7494 35.2989 70.2721 35.0056 70.629 34.5465C71.3684 33.6028 71.0115 31.792 69.5837 32.047C65.4918 32.7739 61.3998 33.5008 57.3078 34.2404C54.8986 34.674 52.502 35.0948 50.131 35.6942C49.3661 35.8855 48.5248 36.217 47.9129 36.7399C47.4157 37.1607 46.7656 37.454 46.3704 37.9896C46.3195 38.0534 46.294 38.1172 46.2557 38.1809Z" fill="#FCD9BA"/>
  <path d="M69.8644 31.5879C69.2653 31.9959 69.2398 32.506 69.2271 33.2202C69.2271 33.539 69.2271 33.8705 69.2525 34.1894C69.2908 34.8142 69.329 35.1713 69.9027 35.4518C70.7695 35.8727 71.7511 35.9874 72.6944 36.1405C73.268 36.2297 73.8799 36.3445 74.4663 36.3063C75.0144 36.2808 75.5371 36.3445 76.0725 36.1787C76.2637 36.115 76.4804 36.0257 76.6206 35.8854C76.8118 35.6941 76.8756 35.4774 76.5314 35.5156C75.9323 35.5794 75.2949 35.5411 74.7085 35.4391C74.5555 35.4136 73.8417 35.3116 74.1604 35.1203C74.3133 35.031 74.6065 35.1203 74.7722 35.1075C75.0527 35.1075 75.3459 35.082 75.6263 35.0693C76.2 35.0438 76.7609 35.0183 77.3345 34.9928C77.5385 34.9928 77.8444 34.9545 77.9846 34.776C78.0866 34.6357 78.1248 34.3551 77.9464 34.2404C77.8699 34.1894 77.7679 34.1894 77.6659 34.1894C76.5824 34.1638 75.5116 34.3679 74.4408 34.1256C74.2878 34.0873 73.9946 33.9343 74.2368 33.8068C74.3133 33.7685 74.4026 33.7685 74.4918 33.7558C75.4479 33.7303 76.4039 33.7048 77.36 33.6665C77.6404 33.6665 78.0484 33.7048 78.2523 33.488C78.5965 33.1309 78.1376 32.8121 77.7807 32.8121C77.1178 32.8121 76.4422 32.8631 75.7793 32.8503C75.2821 32.8503 74.7085 32.8503 74.2623 32.6208C74.3643 32.557 74.4918 32.557 74.6193 32.557C75.1037 32.557 75.5753 32.557 76.047 32.5188C76.4804 32.4805 76.9393 32.506 77.36 32.4168C77.6532 32.353 78.0101 31.9449 77.5767 31.7791C77.4747 31.7409 77.3472 31.7409 77.2325 31.7409C76.2764 31.7791 75.3204 31.8684 74.3771 31.7664C74.0201 31.7281 73.574 31.6644 73.2935 31.4093C73.4337 31.0395 74.1731 31.0268 74.479 30.8355C74.9252 30.5549 75.2184 30.1978 75.1547 29.5985C75.1037 29.1139 74.3643 29.6367 74.1604 29.777C73.4847 30.2106 72.7581 30.4656 72.006 30.7462C71.2922 31.0012 70.5783 31.1798 69.9154 31.6006C69.8899 31.6134 69.8772 31.6261 69.8517 31.6389L69.8644 31.5879Z" fill="#FCD9BA"/>
  <path d="M37.8546 33.0034C37.0133 31.6006 35.9807 30.2999 34.8207 29.1522C34.4893 28.8206 34.1451 28.5145 33.7882 28.2085C33.7499 28.1702 33.6734 28.1702 33.6224 28.183C33.5842 28.183 33.5332 28.234 33.5842 28.2722C34.8207 29.3307 35.9425 30.5549 36.8731 31.8939C37.1408 32.2638 37.383 32.6463 37.6252 33.0417C37.6762 33.1182 37.9184 33.0927 37.8674 33.0034H37.8546Z" fill="#715225"/>
  <path d="M36.746 32.5187C35.5095 31.9066 34.222 31.3838 32.909 30.9629C31.596 30.5421 30.2447 30.2233 28.868 30.0065C28.0904 29.879 27.3128 29.8025 26.5352 29.7387C26.4969 29.7387 26.4077 29.7515 26.4077 29.8025C26.4077 29.8535 26.4969 29.8662 26.5352 29.8662C27.9119 29.9683 29.2249 30.1595 30.5762 30.4656C31.9019 30.7717 33.2022 31.167 34.4642 31.6643C35.178 31.9449 35.8791 32.2509 36.5675 32.5953C36.6185 32.6208 36.695 32.6208 36.746 32.5953C36.7842 32.5697 36.797 32.5187 36.746 32.4932V32.5187Z" fill="#715225"/>
  <path d="M34.5148 41.3817C34.4893 41.777 34.4255 42.1724 34.3363 42.5549L31.2259 41.9046C30.1551 41.675 29.0716 41.4582 28.0008 41.2287C27.4144 41.1012 26.8153 40.9609 26.2416 40.7823C26.1906 40.7696 26.1141 40.7696 26.0759 40.8079C26.0377 40.8461 26.0759 40.8844 26.1141 40.8971C27.1467 41.2287 28.2302 41.42 29.2883 41.6495C30.3846 41.8791 31.4681 42.1086 32.5644 42.3381C33.1763 42.4657 33.7882 42.5932 34.4 42.7207C34.451 42.7207 34.5403 42.7207 34.553 42.657C34.6423 42.2361 34.7187 41.8153 34.7442 41.3945C34.7442 41.3052 34.502 41.2924 34.502 41.3945L34.5148 41.3817Z" fill="#715225"/>
  <path d="M28.868 28.4124C29.5692 28.4889 30.2448 28.6291 30.9204 28.8204C31.4303 28.9735 31.9402 29.1265 32.4628 29.254C32.5011 29.1775 32.5393 29.0882 32.5648 29.0117C32.7178 28.4889 32.4501 28.2211 32.3609 27.6982C32.2589 27.0223 32.2716 26.3337 32.2334 25.6578C32.1569 24.3571 31.9274 22.9033 30.6017 22.2912C29.3652 21.5898 26.6117 21.5643 25.7321 22.763C25.2222 23.4644 25.2605 24.4591 25.1967 25.2753C25.1075 26.2444 25.0948 27.2519 24.9673 28.2211C26.2675 28.2211 27.5678 28.2848 28.868 28.4251V28.4124Z" fill="#FCD9BA"/>
  <path d="M31.3666 26.4613C31.6726 26.5378 31.9913 26.6016 32.2972 26.5506C32.1825 25.4666 32.1952 24.3317 31.7491 23.3115C30.793 22.8906 29.7732 22.4953 28.9191 23.439C27.6699 24.9565 30.2449 26.168 31.3666 26.4613Z" fill="#E6C1A0"/>
  <path d="M22.3288 21.3604C21.6532 20.4422 21.1688 19.3965 20.9776 18.2615C20.7864 17.1138 21.0158 16.2211 21.309 15.1372C21.6915 13.7344 22.9917 12.6377 24.2282 11.9746C26.561 10.7248 29.7862 10.5463 31.5963 12.8162C32.4886 13.9512 32.6289 15.2647 33.126 16.5399C33.3045 16.9863 33.6614 17.1903 34.0566 17.4199C34.5028 17.7004 34.9489 17.9682 35.3951 18.2488C35.5098 18.3253 35.6245 18.389 35.7138 18.4911C36.007 18.8354 35.6118 19.2945 35.3823 19.5623C34.9744 20.0469 35.0636 20.8375 35.1656 21.4241C35.2931 22.1255 35.5226 22.8141 35.4461 23.5283C35.4206 23.7578 35.3568 23.9874 35.2294 24.1659C34.9617 24.5612 34.4518 24.7015 34.0311 24.9055C33.6359 25.0968 33.2152 25.2243 32.7818 25.2881C31.8895 25.4411 30.9717 25.3646 30.1176 25.1223C29.5185 24.9565 28.9448 24.7015 28.4222 24.3827C27.9505 24.0894 27.3641 23.7068 27.0454 23.2477C26.7905 22.8779 26.2678 22.7376 25.8727 22.9672C25.7069 23.0692 25.7452 23.2222 25.5285 23.286C25.3373 23.3497 24.9803 23.235 24.8019 23.184C23.7948 22.9162 22.9662 22.1638 22.3543 21.3476L22.3288 21.3604Z" fill="#FCD9BA"/>
  <path d="M30.2197 16.9863C30.1177 16.8205 30.3089 16.438 30.3854 16.2849C30.5129 15.9916 30.7424 15.7493 30.9973 15.5708C31.2523 15.3923 31.6219 15.15 31.9406 15.1882C32.1573 15.2137 32.374 15.4305 32.2211 15.6218C32.0808 15.8004 31.6347 15.9406 31.4307 16.0171C31.2523 16.0809 31.0483 16.1192 30.8826 16.2339C30.7169 16.336 30.6021 16.5017 30.4747 16.6548C30.3854 16.7695 30.2962 16.8843 30.207 16.9991L30.2197 16.9863Z" fill="#B36332"/>
  <path d="M32.8711 20.8631C32.9475 20.8121 33.0368 20.7866 33.126 20.7738C33.228 20.7738 33.33 20.7738 33.432 20.7993C33.6359 20.8376 33.8399 20.8631 34.0438 20.9013C34.1458 20.9141 34.2478 20.9396 34.337 20.9778C34.7704 21.1819 34.6812 21.7685 34.2733 21.9215C34.1203 21.9853 33.9546 21.9853 33.7889 21.9725C33.3427 21.9343 32.8966 21.743 32.7691 21.2711C32.7308 21.1181 32.7436 20.9523 32.8838 20.8631H32.8711Z" fill="#E9B8A2"/>
  <path d="M22.3029 27.4306C22.4177 26.8184 22.5324 26.2063 22.5834 25.5815C22.6726 24.2297 22.3922 22.8652 21.793 21.6665C21.5126 21.0926 21.1556 20.5698 20.8879 19.9831C20.2251 18.4911 20.2633 16.7313 20.8879 15.2137C21.8313 12.9183 23.6797 11.7196 25.8722 10.7759C26.8156 10.3678 27.8354 9.99799 28.8552 10.0745C30.6143 10.202 31.1497 11.6686 30.5378 13.2116C30.2574 13.9257 29.7857 14.5506 29.3906 15.2137C28.6767 16.3997 28.2815 17.6112 28.1158 18.9629C27.9628 20.2382 28.1158 21.5262 28.2433 22.8142C28.4472 24.7908 28.613 26.8057 28.2815 28.7696C27.9501 30.7079 25.4898 31.8684 23.7434 31.9959C23.3355 32.0214 22.9021 31.9959 22.5834 31.7664C21.8058 31.1925 21.9715 29.7005 22.0735 28.8843C22.1372 28.3997 22.2264 27.9024 22.3284 27.4178L22.3029 27.4306Z" fill="#B36332"/>
  <path d="M28.0899 18.9885C27.7967 18.8227 27.4397 18.81 27.0828 19.065C26.7641 19.2946 26.5856 19.7026 26.5729 20.098C26.5602 20.4933 26.6876 20.8886 26.8661 21.2457C26.9426 21.3987 27.0318 21.539 27.1465 21.6665C27.5162 22.0746 28.3193 22.6485 28.893 22.4444C29.2244 22.3169 29.3136 22.0108 29.3774 21.641C29.4029 21.4752 29.3774 21.3095 29.3519 21.1437C29.2371 20.5571 28.9312 20.1745 28.689 19.6644C28.5488 19.3711 28.3321 19.116 28.0771 18.9758L28.0899 18.9885Z" fill="#FCD9BA"/>
  <path d="M32.5138 17.7132C32.5138 17.7132 32.4628 17.6366 32.4246 17.5984C32.3353 17.5346 32.2334 17.4836 32.1186 17.4709C31.9402 17.4454 31.7617 17.4964 31.6087 17.5856C31.3793 17.7387 31.2645 17.9682 31.0733 18.1595C30.9841 18.2488 30.8821 18.3253 30.7546 18.3635C30.7929 18.4018 30.8439 18.4145 30.8949 18.4273C31.2008 18.4783 31.3793 18.2488 31.545 18.0447C31.6342 17.9427 31.7235 17.8407 31.8509 17.7769C32.0549 17.6877 32.1951 17.7514 32.3991 17.7769C32.5138 17.7897 32.5393 17.7642 32.5138 17.7132Z" fill="#4B575E"/>
  <path d="M28.141 13.6834C28.141 13.2626 28.1155 12.8418 28.0518 12.4337C28.039 12.3444 27.7968 12.3317 27.8096 12.4337C28.039 13.8875 27.8096 15.405 27.185 16.744C27.0065 17.1138 26.8025 17.4709 26.5603 17.8152C26.5093 17.8917 26.7388 17.9555 26.7898 17.879C27.6439 16.6675 28.1283 15.1755 28.141 13.6834Z" fill="#98491F"/>
  <path d="M25.6804 14.3212C25.6804 14.2319 25.4255 14.2319 25.4382 14.3212C25.5275 15.3924 25.2598 16.4763 24.6989 17.3817C24.5332 17.6368 24.3547 17.8791 24.138 18.1086C24.0615 18.1979 24.291 18.2362 24.3547 18.1724C25.1068 17.369 25.5657 16.3233 25.6804 15.2393C25.7059 14.9333 25.7187 14.6272 25.6804 14.3212Z" fill="#98491F"/>
  <path d="M45.2099 18.2361C45.0442 17.4965 44.6107 16.8589 44.1391 16.2722C43.6674 15.6856 43.1575 15.0863 42.4437 14.7802C42.0485 14.6144 41.6151 14.5379 41.1944 14.6144C41.1562 14.6144 41.0924 14.6399 41.1052 14.7037C41.1307 14.7547 41.2199 14.7547 41.2581 14.7547C41.972 14.6272 42.6476 15.0098 43.1448 15.4688C43.4125 15.7111 43.6419 15.9917 43.8586 16.2722C44.0881 16.5528 44.3048 16.8461 44.4833 17.1522C44.6872 17.4837 44.8657 17.8535 44.9422 18.2361C44.9677 18.3254 45.2099 18.3254 45.1844 18.2361H45.2099Z" fill="#98491F"/>
  <path d="M42.4437 17.6878C42.2524 17.4582 42.0357 17.2415 41.7935 17.0629C41.7425 17.0247 41.6788 17.0247 41.6278 17.0374C41.5896 17.0374 41.5386 17.0884 41.5896 17.1267C42.4182 17.7643 42.9791 18.7335 43.1193 19.7664C43.1575 20.0597 43.1703 20.353 43.132 20.6464C43.132 20.7356 43.3742 20.7484 43.3742 20.6464C43.4762 19.5879 43.1193 18.5039 42.4437 17.6878Z" fill="#98491F"/>
  <path d="M25.7826 27.5709C25.4002 28.4636 24.6353 29.2032 23.7175 29.5348C23.4498 29.6368 23.1439 29.726 22.8762 29.5858C22.8252 29.5603 22.7487 29.5603 22.6977 29.5858C22.6595 29.6113 22.6467 29.6495 22.6977 29.6878C22.9654 29.8408 23.2841 29.8153 23.5773 29.7388C23.845 29.675 24.0999 29.5603 24.3294 29.4327C24.801 29.1777 25.2217 28.8206 25.5531 28.387C25.7316 28.1447 25.8973 27.8897 26.0121 27.6091C26.0503 27.5199 25.8081 27.4944 25.7699 27.5709H25.7826Z" fill="#98491F"/>
  <path d="M135.191 14.1553C135.701 13.9385 136.237 13.8238 136.785 13.811C136.198 13.4667 135.383 13.5177 134.847 13.9513C134.809 13.9895 134.758 14.0151 134.707 14.0151C134.669 14.0151 134.643 13.9895 134.605 13.964C134.363 13.7855 134.197 13.5432 133.993 13.3264C133.547 12.8546 133.101 12.3955 132.629 11.9492C132.769 12.6888 133.113 13.3902 133.623 13.9513C133.585 13.913 132.884 14.0278 132.769 14.0278C132.438 14.0278 132.094 13.9768 131.775 13.913C131.775 14.1426 131.992 14.3211 132.221 14.3849C132.438 14.4486 132.68 14.4359 132.909 14.4869C133.164 14.5507 133.394 14.7037 133.56 14.9077C133.585 14.9332 133.611 14.9715 133.598 15.0097C133.598 15.0863 133.496 15.1245 133.407 15.1245C133.037 15.1628 132.655 15.201 132.285 15.2265C131.928 15.2648 131.545 15.3158 131.316 15.5836C131.227 15.6984 131.163 15.8259 131.112 15.9662C130.781 16.7696 130.322 17.471 130.003 18.2744C129.659 19.1288 129.251 19.9449 128.805 20.7611C128.397 21.5007 127.734 22.2786 127.454 23.0693C127.428 23.1458 127.492 23.2223 127.568 23.2478C127.645 23.2733 127.721 23.2478 127.81 23.2478C128.142 23.2096 128.499 23.2606 128.805 23.4008C128.32 23.4774 127.836 23.5921 127.377 23.7579C126.574 24.0385 126.548 25.2882 126.982 25.9131C127.874 27.2138 130.347 25.6963 131.252 25.1097C132.157 24.5231 132.973 23.8217 133.674 23.0183C133.917 22.7505 134.248 22.4189 134.439 22.1128C134.579 21.8833 134.516 21.7048 134.375 21.386C134.159 20.9141 133.598 20.0214 133.101 19.7919C133.738 20.0852 134.375 20.3785 134.898 20.8504C134.911 20.8504 134.924 20.8759 134.949 20.8759C134.975 20.8759 134.987 20.8504 135 20.8376C135.332 20.2765 135.637 19.8047 135.816 19.1798C135.982 18.6059 136.249 17.7898 136.211 17.2032C136.173 16.6548 135.523 15.9024 134.987 15.7876C135.625 15.9279 136.364 16.0554 136.887 15.6601C136.045 15.5964 135.268 15.0225 134.949 14.2446C135.026 14.2063 135.115 14.1681 135.191 14.1298V14.1553Z" fill="#9DCAD4"/>
  <path d="M135.229 9.32225C135.051 10.419 134.834 11.5157 134.566 12.5996C134.299 13.6836 133.98 14.7548 133.61 15.8005C133.241 16.8462 132.807 17.8664 132.323 18.8611C131.838 19.843 131.278 20.7994 130.653 21.6921C130.028 22.5848 129.327 23.4392 128.562 24.2171C128.46 24.3191 128.371 24.4084 128.269 24.5104C128.218 24.5614 128.269 24.6252 128.333 24.6379C128.397 24.6634 128.511 24.6634 128.562 24.5997C129.353 23.8345 130.079 22.9929 130.729 22.1002C131.38 21.2075 131.953 20.2511 132.463 19.2691C132.973 18.2872 133.419 17.267 133.802 16.2213C134.197 15.1629 134.528 14.0917 134.809 13.0077C135.089 11.9237 135.319 10.827 135.51 9.73033C135.535 9.59005 135.561 9.44977 135.573 9.32225C135.599 9.20748 135.255 9.19472 135.229 9.32225Z" fill="white"/>
  <path d="M78.0617 118.878C78.0872 118.547 78.0617 118.228 77.9087 117.935C77.845 118.457 77.6793 118.955 77.4371 119.427C77.4116 118.802 77.3479 118.126 77.0037 117.578C76.6212 116.978 75.8054 116.863 75.1808 116.634C75.0406 116.583 74.8366 116.366 74.6964 116.379C74.6709 116.71 74.7091 117.055 74.7346 117.386C74.7473 117.667 74.7219 118.024 74.7856 118.292C74.6581 117.82 74.4924 117.348 74.2884 116.902C74.11 116.532 73.8295 115.92 73.4726 115.677C73.3196 115.575 73.1284 115.537 72.95 115.397C72.746 115.244 72.542 115.078 72.3381 114.912C71.9556 114.581 71.5987 114.236 71.28 113.854C70.9996 113.535 70.7701 113.165 70.5279 112.808C70.4004 112.617 70.273 112.426 70.12 112.247C70.069 112.183 69.8905 111.877 69.8268 111.877C69.7758 111.877 69.7376 111.915 69.7121 111.966C69.6866 112.017 69.6866 112.068 69.6866 112.119C69.6866 112.413 69.6866 112.719 69.6738 113.012C69.5719 112.706 69.4571 112.4 69.3042 112.119C69.1512 111.839 68.9472 111.571 68.6668 111.405C68.5011 111.303 68.0804 111.456 67.9147 111.507C66.0918 112.081 66.7929 113.905 67.3793 115.218C67.5832 115.69 67.8127 116.149 68.0549 116.596C68.2843 117.016 68.4501 117.412 68.8835 117.629C69.3806 117.871 69.9543 117.871 70.4769 118.037C70.2857 118.177 70.018 118.19 69.7758 118.177C69.5336 118.177 69.2787 118.151 69.0619 118.253C69.0237 118.585 69.1767 118.47 69.3679 118.61C69.5846 118.776 69.7631 119.082 69.9543 119.274C70.1582 119.49 70.3749 119.682 70.6044 119.873C70.7319 119.988 71.1143 120.37 71.28 120.37C71.4457 120.37 71.8282 120.676 71.9939 120.766C73.1922 121.314 74.4924 121.454 75.6269 120.625C75.5632 121.11 75.4867 121.595 75.423 122.079C75.9329 121.518 76.4428 120.97 76.9144 120.383C77.0037 120.778 77.1821 121.148 77.4371 121.467C77.3479 121.365 77.4371 120.766 77.4371 120.625C77.8068 120.804 77.998 121.467 78.1255 121.811C78.2912 121.225 78.0872 120.6 77.8832 120.026C78.4186 119.796 78.9668 119.58 79.5022 119.35C78.9158 119.146 78.2147 119.35 77.8195 119.809C77.9087 119.516 77.9852 119.197 78.0107 118.878H78.0617Z" fill="#9DCAD4"/>
  <path d="M80.7771 120.23C79.8338 120.23 78.8777 120.141 77.9472 119.937C77.0294 119.745 76.1115 119.439 75.2574 119.07C74.3779 118.687 73.5493 118.215 72.7589 117.667C71.9813 117.118 71.2675 116.494 70.6173 115.805C69.9672 115.116 69.3808 114.351 68.8964 113.535C68.8327 113.433 68.7689 113.331 68.718 113.229C68.6542 113.127 68.3228 113.165 68.3865 113.28C68.8582 114.122 69.4318 114.925 70.0819 115.652C70.7321 116.379 71.4587 117.029 72.2363 117.616C73.0139 118.19 73.8552 118.687 74.7348 119.108C75.6144 119.516 76.5449 119.847 77.4883 120.077C78.4443 120.307 79.4259 120.434 80.4075 120.46C80.5222 120.46 80.6497 120.46 80.7644 120.46C80.8154 120.46 80.9301 120.434 80.9301 120.37C80.9301 120.294 80.8154 120.281 80.7644 120.281L80.7771 120.23Z" fill="#F2FFFC"/>
  <path d="M145.134 119.195C144.854 119.016 144.561 118.889 144.229 118.889C144.663 119.195 145.033 119.565 145.326 119.998C144.765 119.731 144.127 119.463 143.49 119.514C142.776 119.565 142.305 120.241 141.795 120.687C141.68 120.789 141.399 120.866 141.348 121.006C141.629 121.184 141.96 121.312 142.266 121.439C142.521 121.554 142.814 121.745 143.095 121.809C142.61 121.694 142.126 121.618 141.629 121.605C141.221 121.592 140.545 121.554 140.176 121.758C140.01 121.847 139.882 122.001 139.691 122.09C139.462 122.205 139.22 122.307 138.977 122.409C138.519 122.6 138.034 122.74 137.55 122.855C137.129 122.957 136.708 122.982 136.275 123.033C136.045 123.059 135.816 123.084 135.599 123.135C135.523 123.148 135.166 123.161 135.14 123.225C135.115 123.263 135.14 123.327 135.166 123.365C135.191 123.403 135.242 123.429 135.293 123.454C135.548 123.595 135.816 123.735 136.071 123.888C135.752 123.837 135.434 123.786 135.115 123.799C134.796 123.799 134.465 123.862 134.184 124.028C134.019 124.117 133.955 124.577 133.929 124.742C133.585 126.63 135.523 126.859 136.951 126.948C137.46 126.987 137.97 126.999 138.48 126.999C138.965 126.999 139.385 127.025 139.781 126.744C140.227 126.426 140.494 125.916 140.89 125.533C140.928 125.775 140.813 126.005 140.686 126.222C140.558 126.438 140.431 126.642 140.418 126.885C140.686 127.063 140.66 126.885 140.877 126.783C141.119 126.668 141.476 126.655 141.744 126.566C142.024 126.477 142.305 126.387 142.572 126.273C142.725 126.209 143.248 126.056 143.324 125.903C143.401 125.75 143.86 125.558 144 125.444C145.045 124.628 145.772 123.556 145.568 122.166L146.766 123.021C146.511 122.307 146.256 121.592 145.963 120.904C146.346 121.019 146.766 121.031 147.161 120.955C147.034 120.98 146.537 120.623 146.422 120.547C146.753 120.304 147.416 120.445 147.799 120.496C147.353 120.075 146.715 119.96 146.103 119.871C146.154 119.284 146.218 118.698 146.269 118.124C145.823 118.545 145.657 119.259 145.887 119.833C145.657 119.616 145.415 119.399 145.16 119.22L145.134 119.195Z" fill="#9DCAD4"/>
  <path d="M147.594 117.435C147.161 118.277 146.626 119.067 146.027 119.794C145.427 120.521 144.739 121.184 144 121.771C143.248 122.37 142.444 122.88 141.59 123.327C140.749 123.76 139.857 124.105 138.939 124.36C138.021 124.615 137.078 124.781 136.122 124.832C136.007 124.832 135.879 124.832 135.765 124.844C135.637 124.844 135.523 125.163 135.65 125.163C136.619 125.138 137.588 124.997 138.531 124.768C139.474 124.538 140.392 124.194 141.272 123.773C142.151 123.352 142.98 122.842 143.757 122.256C144.535 121.669 145.262 120.993 145.899 120.266C146.549 119.527 147.123 118.723 147.594 117.856C147.658 117.754 147.709 117.639 147.76 117.537C147.786 117.486 147.824 117.384 147.76 117.346C147.696 117.308 147.62 117.41 147.594 117.448V117.435Z" fill="white"/>
  <path d="M18.2737 74.9334C18.3502 75.469 18.2737 76.0174 18.0825 76.5275C18.0825 76.4765 18.5286 76.2852 18.5924 76.2342C18.7708 76.1066 18.9238 75.9409 19.0768 75.7878C19.3445 75.52 19.4592 75.265 19.6122 74.9079C19.8416 75.3798 20.0966 75.8261 20.377 76.2597C20.632 75.9026 20.5683 75.3542 20.3388 74.9972C20.1476 74.7039 19.8544 74.4488 19.8034 74.1045C19.7907 74.0152 19.8034 73.926 19.8544 73.8622C19.8926 73.824 19.9564 73.8112 20.0074 73.7984C20.3515 73.7219 20.7085 73.6582 21.0654 73.6199C20.6575 73.4414 20.1476 73.5051 19.7907 73.7857C20.0456 73.2628 20.1221 72.5105 19.9054 71.9748C19.8289 71.7963 19.7397 71.6305 19.6504 71.4648C19.5994 71.3755 19.5357 71.2735 19.4847 71.1842C19.4847 71.7708 19.472 72.3447 19.4592 72.9313C19.3317 72.3702 19.2425 71.8346 18.9748 71.3117C18.9748 71.4903 18.9621 71.656 18.9111 71.8346C18.8346 72.1406 18.6689 72.4339 18.4522 72.6635C18.4139 72.1279 18.2737 71.3117 17.904 70.8909C17.6108 70.5721 17.0882 70.3935 16.7312 70.1385C16.6293 70.062 16.489 69.909 16.3743 69.8962C16.3871 70.215 16.4763 70.5466 16.5273 70.8654C16.5783 71.1842 16.6165 71.503 16.6802 71.8091C16.5273 71.1715 16.3871 70.5338 16.2341 69.8962C16.1831 69.6539 15.9409 69.5136 15.7624 69.3606C15.5585 69.1693 15.3673 68.978 15.1633 68.7867C13.9905 67.588 13.009 66.2108 11.7724 65.0758C11.3135 64.655 10.7654 64.2469 10.1408 64.2596C7.98642 64.2851 9.46514 67.0907 9.89855 67.9451C10.0005 68.1491 10.1535 68.3787 10.3447 68.5189C10.4594 68.5955 10.5997 68.6337 10.7271 68.672C11.4538 68.8888 12.1804 69.1566 12.8687 69.4754C12.1931 69.4371 11.5175 69.3989 10.8419 69.3606C10.7909 69.3606 10.7526 69.3606 10.7144 69.3861C10.6507 69.4371 10.8929 69.7559 10.9439 69.8197C11.0586 70.011 11.1733 70.1895 11.288 70.3808C11.5302 70.7506 11.7724 71.1204 12.0274 71.4775C12.5373 72.1916 13.0854 72.8803 13.6591 73.5434C13.8503 73.7602 14.0415 73.977 14.2455 74.181C14.4877 74.4361 14.7299 74.7166 15.0103 74.9334C15.2143 75.0864 15.5712 75.0992 15.8134 75.112C16.4508 75.1375 17.1009 74.9462 17.6236 74.5636C17.6746 74.6146 17.6236 74.7039 17.5853 74.7676C17.4451 74.9844 17.2794 75.1885 17.1009 75.3798C17.2539 75.4308 17.4069 75.3798 17.5598 75.3798C17.7128 75.3798 17.8785 75.3287 18.006 75.2395C18.0825 75.1885 18.2737 75.0737 18.2609 74.9717L18.2737 74.9334Z" fill="#9DCAD5"/>
  <path d="M23.5262 75.2904C22.5701 75.0353 21.6395 74.7165 20.7344 74.3339C19.8294 73.9514 18.9498 73.505 18.1085 72.9949C17.2671 72.4848 16.464 71.9237 15.6992 71.2988C14.9343 70.674 14.2077 70.0109 13.5448 69.284C12.882 68.5698 12.2573 67.8047 11.6964 67.0013C11.62 66.8993 11.5562 66.7972 11.4797 66.6952C11.4415 66.6315 11.3395 66.6187 11.2758 66.6315C11.2375 66.6315 11.11 66.6825 11.161 66.7462C11.7092 67.5751 12.3211 68.3658 12.9839 69.1054C13.6468 69.8451 14.3607 70.5337 15.1255 71.1713C15.8904 71.8089 16.7062 72.4083 17.5476 72.9312C18.3889 73.454 19.2685 73.9258 20.1736 74.3339C21.0914 74.742 22.0219 75.0863 22.978 75.3541C23.0927 75.3924 23.2202 75.4179 23.3349 75.4561C23.4114 75.4689 23.5134 75.4816 23.5644 75.4179C23.6154 75.3669 23.5644 75.3031 23.5007 75.2904H23.5262Z" fill="#F2FFFC"/>
</svg>
