<svg width="192" height="228" viewBox="0 0 192 228" fill="none"
  xmlns="http://www.w3.org/2000/svg">
  <path d="M75.0763 171.966C82.3313 190.49 81.5807 216.023 71.5739 220.278C61.0667 224.534 42.5541 204.508 33.2978 187.987C22.0402 167.961 16.5364 137.922 26.2931 132.165C36.5501 125.907 65.0695 145.682 75.0763 171.966Z" fill="#809D4B"/>
  <path d="M71.8243 220.028C66.8209 203.257 60.0663 186.986 52.0608 171.716C49.5591 166.709 46.8073 161.953 44.0554 157.447C42.8045 155.195 41.3035 153.192 39.8025 150.689C35.7998 144.431 31.2967 137.922 26.5435 131.914L27.0438 131.414C31.797 137.422 36.0499 143.68 40.3028 150.188C41.8039 152.691 43.3049 154.694 44.5557 156.947C47.3076 161.453 50.0595 166.459 52.5612 171.215C60.5667 186.735 67.3212 203.006 72.3246 219.778L71.8243 220.028Z" fill="#A7BC68"/>
  <path d="M40.0525 150.689L21.0396 149.938L21.2897 149.187L40.0525 150.188V150.689Z" fill="#A7BC68"/>
  <path d="M44.3055 157.447L22.2905 155.695V155.194L44.3055 156.947V157.447Z" fill="#A7BC68"/>
  <path d="M40.0524 191.992C51.0599 198 61.3169 210.766 58.3148 216.774C55.0626 223.282 37.8009 221.029 26.5432 216.774C12.7838 211.767 -2.2264 199.502 0.275303 192.743C2.52684 185.483 24.5419 183.481 40.0524 191.992Z" fill="#3B622C"/>
  <path d="M58.3149 216.524C49.0586 210.516 39.0518 205.509 28.7948 201.254C25.5426 200.002 22.2904 198.751 19.0382 197.749C17.5371 197.249 16.0361 196.748 14.2849 196.247C9.78188 194.745 5.02863 193.744 0.275391 192.743L0.525576 192.242C5.27881 193.243 10.032 194.495 14.5351 195.747C16.2863 196.247 17.7873 196.748 19.2884 197.249C22.5406 198.25 25.7928 199.502 29.045 200.753C39.302 204.758 49.3088 210.015 58.5651 216.023L58.3149 216.524Z" fill="#A7BC68"/>
  <path d="M14.0987 195.725L4.57739 203.046L4.88225 203.443L14.4035 196.122L14.0987 195.725Z" fill="#A7BC68"/>
  <path d="M8.03061 206.01L7.53027 205.509L19.0381 197.249L19.5384 197.749L8.03061 206.01Z" fill="#A7BC68"/>
  <path d="M85.8338 190.74C78.5788 201.754 73.0751 218.276 76.5775 222.031C80.0798 226.036 92.8385 215.522 100.594 206.01C110.1 194.495 119.106 176.222 116.104 171.215C113.102 166.209 96.0907 175.22 85.8338 190.74Z" fill="#608437"/>
  <path d="M76.577 222.031L76.0767 221.78C82.0807 211.767 88.5852 202.005 95.59 193.243C97.8415 190.49 100.093 187.736 102.345 184.983C103.345 183.731 104.596 182.48 105.597 181.228C108.849 177.723 112.101 174.219 115.604 170.965L116.104 171.465C112.602 174.72 109.349 178.224 106.097 181.729C104.846 182.98 103.846 184.232 102.845 185.483C100.593 187.987 98.3418 190.74 96.0903 193.744C89.0855 202.505 82.5811 212.018 76.577 222.031Z" fill="#A7BC68"/>
  <path d="M106.028 181.312L105.924 181.802L114.488 183.625L114.592 183.135L106.028 181.312Z" fill="#A7BC68"/>
  <path d="M102.674 185.047L102.592 185.541L112.708 187.232L112.791 186.738L102.674 185.047Z" fill="#A7BC68"/>
  <path d="M57.5644 209.765C54.5623 204.258 50.3094 199.502 45.306 195.747C41.8036 193.244 38.0511 191.241 34.0483 189.739L34.2985 189.238C38.3013 190.74 42.304 192.743 45.5562 195.246C50.5596 199.001 54.8125 203.757 58.0647 209.515L57.5644 209.765Z" fill="#A7BC68"/>
  <path d="M191.906 219.778C191.906 222.031 149.627 224.784 123.109 224.534C117.105 224.534 110.1 224.284 99.3428 225.035C88.0852 225.786 86.3339 226.787 74.0756 227.287C67.0708 227.538 59.5657 227.538 50.3094 226.036C48.0579 225.535 46.3067 225.285 45.306 225.035C25.5425 221.029 6.77979 220.779 6.77979 219.778C6.77979 218.026 50.0593 217.525 83.0817 215.022C86.8343 214.771 92.0879 214.271 99.0926 214.521C111.351 215.022 115.854 216.774 126.361 217.275C135.117 217.775 138.119 216.524 147.376 216.023C170.141 214.521 191.906 218.026 191.906 219.778Z" fill="#E9D7AA"/>
  <path d="M26.8851 213.002C26.7011 213.259 26.4988 213.516 26.2964 213.774C25.8549 214.325 25.4319 215.06 26.0021 215.722C26.1309 215.869 26.3148 215.979 26.4804 216.09C27.86 216.898 29.4419 217.303 30.9871 217.689C31.6309 217.854 32.3667 218.111 33.0289 218.074C33.1393 218.074 33.2497 218.056 33.3416 218.001C33.5072 217.909 33.5624 217.688 33.544 217.486C33.5256 217.284 33.4152 217.119 33.3416 216.935C32.6242 215.373 33.0289 213.884 33.7831 212.45C34.3166 211.458 34.8316 210.447 35.3467 209.436C37.4989 205.246 39.5591 201 41.5273 196.718C42.0424 195.597 42.5575 194.421 42.4839 193.208C42.4103 192.087 41.8401 191.094 41.1043 190.304C39.835 188.944 36.9838 187.639 35.6226 189.697C34.7764 190.984 34.2246 192.454 33.6911 193.906C32.845 195.909 32.1644 198.023 31.4286 200.063C30.6376 202.269 29.8466 204.492 29.1108 206.716C28.7429 207.837 28.375 208.94 28.0255 210.061C27.8232 210.723 27.6392 211.403 27.3633 212.046C27.2346 212.377 27.0506 212.671 26.8483 212.965L26.8851 213.002Z" fill="#FCD9BA"/>
  <path d="M39.6325 222.982C39.1726 223.037 38.5656 222.853 38.1241 222.761C37.0756 222.522 36.0823 222.118 35.1074 221.714L31.41 220.151C31.0605 220.004 30.5271 219.894 30.2327 219.655C29.9016 219.398 29.5705 219.085 29.2394 218.791C29.1291 218.699 29.0187 218.607 28.9083 218.516C28.6324 218.313 28.007 217.817 27.6759 218.038C27.5655 218.111 27.4919 218.203 27.4183 218.313C27.3815 218.35 27.3631 218.387 27.3264 218.442L24.0889 217.082C24.0889 217.082 24.1257 216.972 24.1441 216.917C24.2544 216.659 24.3096 216.42 24.5671 216.255C24.6039 216.237 24.6407 216.2 24.6775 216.181C24.7143 216.145 24.7143 216.108 24.7327 216.071C24.7327 216.053 24.7327 216.016 24.7327 215.998C24.7695 215.814 24.8615 215.63 24.935 215.446C25.1742 214.895 25.4501 214.344 25.8364 213.866C26.0203 213.627 26.2043 213.351 26.4618 213.204C26.9033 212.947 27.032 213.241 27.2896 213.553C27.8598 214.215 28.614 214.748 29.4418 215.06C30.2695 215.373 31.1709 215.465 32.0354 215.354C32.3298 215.318 32.716 214.987 32.992 215.115C33.3231 215.262 33.415 215.869 33.5622 216.145C33.8933 216.751 34.2612 217.339 34.6659 217.891C35.4937 219.012 36.5054 220.004 37.6459 220.85C37.9954 221.107 38.3449 221.346 38.6944 221.585C39.0071 221.805 39.4853 222.044 39.7245 222.338C39.8164 222.449 39.89 222.577 39.9084 222.706C39.9452 222.89 39.8716 223.037 39.6141 223.074L39.6325 222.982Z" fill="#4B575E"/>
  <path d="M39.9268 222.614C39.7245 222.522 39.467 222.485 39.2278 222.43C38.6208 222.283 38.0322 222.118 37.4435 221.934C36.2846 221.548 35.1442 221.107 34.0037 220.648C33.9301 220.611 33.8381 220.592 33.7646 220.556C32.9736 220.243 32.201 219.912 31.4468 219.526C30.6742 219.14 30.012 218.681 29.313 218.203C29.0555 218.038 28.798 217.872 28.522 217.707C28.798 217.505 29.1475 217.376 29.497 217.413C29.9752 217.45 30.4351 217.689 30.8582 217.854C31.318 218.056 31.7779 218.258 32.201 218.534C32.4033 218.663 32.6057 218.81 32.8264 218.92C32.992 219.012 33.2127 219.122 33.4151 219.085C33.5254 219.067 33.6174 218.975 33.7094 218.92C33.8197 218.846 33.9301 218.773 34.0221 218.681C34.2244 218.516 34.4268 218.35 34.6291 218.166C34.6843 218.13 34.5371 218.038 34.482 218.075C34.298 218.24 34.1325 218.387 33.9301 218.534C33.7646 218.663 33.5806 218.81 33.3783 218.92C33.2495 218.993 33.1207 218.957 32.992 218.902C32.8632 218.846 32.7344 218.773 32.6241 218.699C32.4217 218.571 32.2194 218.442 32.017 218.313C31.594 218.074 31.1341 217.872 30.6742 217.689C30.2511 217.523 29.8281 217.303 29.3682 217.284C29.0003 217.284 28.6324 217.394 28.3381 217.615C27.1792 216.953 25.9284 216.42 24.6775 215.998C24.6775 216.034 24.6591 216.071 24.6223 216.108C24.6039 216.145 24.5487 216.163 24.512 216.181C24.2544 216.365 24.1992 216.586 24.0889 216.843C24.0705 216.898 24.0521 216.953 24.0337 217.009L27.2712 218.369C27.2712 218.369 27.3264 218.295 27.3632 218.24C27.4367 218.13 27.5103 218.038 27.6207 217.964C27.9702 217.744 28.5956 218.24 28.8531 218.442C28.9635 218.534 29.0739 218.626 29.1842 218.718C29.5154 219.012 29.8465 219.324 30.1776 219.582C30.4719 219.802 31.0053 219.931 31.3548 220.078L35.0522 221.64C36.0271 222.063 37.0388 222.467 38.0689 222.688C38.5104 222.798 39.1358 222.963 39.5773 222.908C39.8349 222.871 39.9084 222.724 39.8716 222.541L39.9268 222.614Z" fill="#4B575E"/>
  <path d="M33.6727 216.071C33.6727 216.071 33.6359 216.016 33.6175 215.998C33.5623 215.942 33.4703 215.924 33.3968 215.942C33.176 215.998 32.9553 216.089 32.7345 216.181C32.7161 216.181 32.6978 216.218 32.6978 216.237C32.6978 216.273 32.7345 216.292 32.7529 216.31C32.7897 216.328 32.8265 216.365 32.8633 216.365C32.9001 216.365 32.9369 216.365 32.9737 216.365C33.1944 216.273 33.4152 216.2 33.6359 216.126C33.6543 216.126 33.6727 216.089 33.6727 216.071V216.071Z" fill="#3C3C71"/>
  <path d="M34.0955 216.751C34.0955 216.751 34.0587 216.696 34.0403 216.678C33.9851 216.641 33.8931 216.586 33.8196 216.622C33.6172 216.696 33.4149 216.788 33.2125 216.898C33.1941 216.898 33.1941 216.953 33.2125 216.972C33.2125 217.008 33.2677 217.027 33.2861 217.045C33.3413 217.082 33.4333 217.1 33.5068 217.064C33.5252 217.064 33.5436 217.045 33.562 217.027C33.7276 216.935 33.8931 216.861 34.0587 216.806C34.0771 216.806 34.0955 216.77 34.0955 216.751V216.751Z" fill="#3C3C71"/>
  <path d="M23.3716 214.344C23.3716 214.344 25.579 214.913 25.7077 214.95C25.9285 215.005 26.1308 215.042 26.3332 215.097C26.4619 215.134 26.5907 215.152 26.701 215.189C26.8482 215.226 26.9586 215.244 27.0505 215.281C27.2161 215.336 27.3817 215.373 27.5472 215.428C28.6325 215.759 29.6994 216.09 30.7663 216.457C30.8399 216.476 30.9135 216.512 30.987 216.531C31.1894 216.604 31.3917 216.678 31.5941 216.751C32.7897 217.174 33.8934 217.652 35.1811 217.964C35.273 217.983 35.457 217.78 35.6961 217.413C36.5975 216.034 38.3266 212.542 38.6209 212.065C39.5222 210.631 40.4052 209.161 41.2698 207.69C41.9136 206.588 42.5574 205.466 43.1828 204.345C43.2932 204.162 43.3852 203.978 43.4955 203.794C45.0959 200.908 46.641 197.986 48.131 195.064C48.2782 194.788 48.4253 194.513 48.5541 194.237C48.6461 194.053 48.7381 193.869 48.8484 193.686C50.5224 190.506 52.2515 187.363 53.8334 184.147C53.9254 183.963 54.0174 183.779 54.1093 183.577C54.9555 181.831 55.7649 180.048 56.4639 178.229C56.5743 177.953 56.6478 177.677 56.6846 177.42C56.8318 176.501 56.5927 175.711 56.2615 174.718C56.188 174.479 56.096 174.259 55.9856 174.038C55.6913 173.358 55.305 172.715 54.8451 172.127C53.9806 170.987 52.8401 170.05 51.5893 169.462C51.3317 169.333 51.0558 169.223 50.7799 169.131C50.7799 169.131 50.7431 169.131 50.7247 169.113C49.7866 168.8 48.8116 168.506 47.8183 168.451C47.3033 168.433 46.8802 168.323 46.4755 168.212C46.1812 168.139 45.8869 168.047 45.6293 167.992C45.2798 167.937 44.9303 167.937 44.5624 168.084C44.3417 168.157 44.121 168.304 43.9002 168.488C43.845 168.525 43.8082 168.561 43.7531 168.617C42.2815 169.958 41.5273 172.053 40.8467 173.873C40.8099 173.983 40.7731 174.075 40.7363 174.185C40.35 175.196 39.9637 176.189 39.559 177.181C39.4855 177.365 39.3935 177.567 39.3199 177.751C38.0323 180.875 36.6343 183.945 35.2914 187.032C35.1995 187.216 35.1259 187.418 35.0523 187.602C34.151 189.697 33.268 191.811 32.477 193.924C32.0355 195.101 31.5757 196.277 31.1158 197.453C31.0422 197.655 30.9503 197.839 30.8767 198.041C29.4235 201.644 27.8783 205.191 26.2044 208.683C26.1124 208.867 26.0204 209.05 25.9285 209.253C25.1375 210.907 24.3281 212.542 23.482 214.178C23.4452 214.252 23.4084 214.307 23.3716 214.38V214.344Z" fill="#213C4B"/>
  <path d="M38.4736 132.116C38.4736 136.343 38.6024 140.589 38.8415 144.816C38.8415 145.018 38.8599 145.239 38.8783 145.441C38.9335 146.323 38.9887 147.205 39.0439 148.087C39.2462 151.046 39.6141 154.024 39.8716 157.001C39.8716 157.203 39.9084 157.424 39.9268 157.626C40.0372 158.931 40.0924 160.236 40.1108 161.541C40.1476 164.187 40.2763 166.852 40.4419 169.499C40.4419 169.701 40.4603 169.922 40.4787 170.124C40.589 172.017 40.7178 173.891 40.8282 175.784C40.8282 176.078 40.865 176.354 40.9202 176.593C41.1777 178.266 41.9687 178.688 43.3483 179.001C43.6242 179.056 43.9001 179.111 44.2128 179.185C44.3048 179.185 44.3968 179.221 44.4887 179.24C45.666 179.479 46.8617 179.57 48.0573 179.644C48.0573 179.644 48.0573 179.644 48.0941 179.644C48.3149 179.644 48.554 179.681 48.7747 179.699C48.8483 179.699 48.9219 179.699 48.9955 179.699C50.6326 179.828 52.3617 179.975 53.9805 179.589C54.2196 179.534 54.4404 179.46 54.6611 179.387C54.7347 179.368 54.7899 179.332 54.8634 179.313C56.7397 178.578 56.7581 177.291 56.8685 175.27C56.8869 174.792 56.9237 174.296 56.9421 173.818C57.0156 172.586 57.0708 171.373 57.126 170.142C57.126 169.94 57.1444 169.719 57.1628 169.517C57.3283 165.694 57.4755 161.853 57.5859 158.012C57.5859 157.81 57.5859 157.626 57.5859 157.442C57.5859 157.222 57.5859 157.019 57.5859 156.799C57.6962 152.847 57.7698 148.914 57.825 144.963C57.825 144.761 57.825 144.54 57.825 144.338C57.825 143.915 57.825 143.493 57.825 143.07C57.8802 139.633 57.917 136.214 57.9538 132.778C57.9538 132.575 57.9538 132.355 57.9538 132.153C57.9906 129.267 58.009 126.382 58.0457 123.496C58.0457 123.037 58.0457 122.577 58.0457 122.118C58.0457 121.088 58.0457 120.041 58.0641 119.012C58.0641 118.718 58.1009 118.332 58.1377 117.927C58.2481 116.861 58.3769 115.556 58.0825 114.858C57.9722 114.582 57.7514 114.399 57.4755 114.288C57.2916 114.215 57.0892 114.16 56.8685 114.141C56.7765 114.141 56.6661 114.123 56.5742 114.104C55.9487 114.068 55.2497 114.104 54.6979 114.104C54.4955 114.104 54.2932 114.086 54.1092 114.068C53.8149 114.068 53.5206 114.031 53.2263 114.031C51.6811 113.957 50.136 113.884 48.5724 113.81C48.2781 113.81 47.9838 113.774 47.6895 113.774C45.666 113.682 43.6426 113.571 41.6192 113.48C41.3248 113.48 41.0305 113.461 40.7362 113.443C40.3867 113.443 40.0372 113.406 39.7061 113.388C39.1175 114.656 39.2278 116.347 39.0623 117.964C38.9703 118.975 38.8783 119.967 38.8047 120.978C38.8047 121.18 38.768 121.401 38.768 121.603C38.5472 124.875 38.4369 128.164 38.4185 131.454C38.4185 131.656 38.4185 131.877 38.4185 132.079L38.4736 132.116Z" fill="#213C4B"/>
  <path d="M56.1696 132.134C56.1696 132.336 56.2064 132.557 56.2248 132.759C56.2983 133.678 56.3903 134.615 56.4823 135.534C56.7582 138.089 57.2365 140.625 57.8619 143.125C57.9723 143.548 58.0826 143.97 58.193 144.393C58.2482 144.595 58.3034 144.816 58.3586 145.018C58.6529 146.102 58.984 147.168 59.3335 148.234C60.2532 151.12 61.3201 153.968 62.387 156.799C62.4606 157.019 62.5526 157.222 62.6262 157.442C64.1345 161.412 65.6797 165.382 66.9305 169.462C67.0041 169.664 67.0593 169.885 67.1145 170.087C67.2249 170.454 67.3352 170.84 67.4456 171.226C67.7215 172.2 67.9791 173.175 68.2918 174.149C68.6597 175.27 69.0827 176.372 69.6714 177.383C69.9657 177.88 70.26 178.247 70.5727 178.523C70.8486 178.762 71.143 178.927 71.4741 179.056C72.1915 179.313 73.0192 179.295 74.0861 179.258C74.3621 179.258 74.638 179.24 74.9323 179.203C75.2266 179.184 75.5209 179.148 75.8152 179.111C76.4407 179.037 77.0477 178.946 77.6547 178.835C78.3353 178.725 79.2367 178.817 80.0093 178.743C80.322 178.707 80.6163 178.651 80.8738 178.56C80.8922 178.56 80.9106 178.541 80.9474 178.523C80.9474 178.523 80.9474 178.523 80.9842 178.523C81.8855 178.1 82.3638 176.722 82.5661 175.858C82.6581 175.472 82.7317 175.104 82.7685 174.718C82.8421 173.965 82.8421 173.193 82.8237 172.421C82.7869 171.52 82.7317 170.62 82.6581 169.719C82.6581 169.517 82.6213 169.297 82.6029 169.094C82.3822 166.834 82.0695 164.573 81.7752 162.331C81.5728 160.732 81.3521 159.151 81.113 157.571C81.0762 157.369 81.0394 157.148 81.021 156.946C80.8002 155.512 80.5427 154.079 80.2852 152.664C79.8805 150.421 79.5862 148.142 79.2919 145.882C79.2735 145.661 79.2367 145.459 79.2183 145.257C78.924 142.941 78.6297 140.644 78.1882 138.346C77.8939 136.858 77.6179 135.351 77.3236 133.862C77.2868 133.66 77.25 133.439 77.1949 133.237C76.9005 131.767 76.6062 130.278 76.3119 128.808C75.5577 125.169 74.7483 121.548 73.7918 117.964C72.8721 114.582 72.5778 113.921 69.1011 113.921C66.4891 113.921 63.877 113.921 61.2833 113.921C60.9522 113.921 57.1629 113.663 57.0525 113.921C56.9973 114.031 56.9605 114.141 56.9238 114.251C56.8502 114.454 56.795 114.656 56.7398 114.876C56.6662 115.189 56.611 115.52 56.5743 115.832C56.3535 117.541 56.188 119.251 56.096 120.978C56.096 121.18 56.0776 121.401 56.0592 121.603C55.8753 125.132 55.9304 128.661 56.1696 132.208V132.134Z" fill="#213C4B"/>
  <path d="M69.4324 217.836C69.3588 218.148 69.2484 218.46 69.1565 218.755C68.9357 219.435 68.807 220.262 69.5979 220.684C69.7819 220.776 69.9842 220.813 70.1866 220.85C71.7869 221.107 73.4425 220.905 75.0428 220.703C75.7234 220.611 76.5144 220.592 77.1214 220.317C77.2318 220.28 77.3238 220.225 77.3973 220.133C77.5261 219.986 77.4893 219.747 77.3973 219.582C77.3054 219.416 77.1398 219.288 77.0111 219.14C75.7602 217.927 75.5946 216.402 75.7786 214.803C75.9074 213.682 76.0361 212.561 76.1465 211.44C76.6432 206.753 77.0294 202.048 77.3238 197.361C77.3973 196.13 77.4525 194.843 76.9375 193.741C76.4592 192.73 75.5395 191.995 74.5645 191.535C72.8722 190.727 69.6715 190.543 69.1565 192.95C68.8254 194.457 68.8621 196.038 68.8805 197.582C68.807 199.751 68.9541 201.956 69.0093 204.143C69.0645 206.496 69.1381 208.848 69.2668 211.182C69.322 212.359 69.3956 213.535 69.4692 214.693C69.5244 215.391 69.5979 216.09 69.5795 216.788C69.5795 217.137 69.506 217.486 69.4324 217.836V217.836Z" fill="#FCD9BA"/>
  <path d="M85.1784 222.522C84.7737 222.743 84.1115 222.798 83.6516 222.853C82.5847 223.019 81.481 223 80.3957 222.963L76.3121 222.853C75.9258 222.853 75.3923 222.927 75.0244 222.816C74.6013 222.688 74.1966 222.522 73.7736 222.375C73.6448 222.32 73.4976 222.283 73.3689 222.228C73.0378 222.136 72.2652 221.897 72.0261 222.228C71.9525 222.338 71.9157 222.449 71.8789 222.577C71.8789 222.633 71.8605 222.669 71.8421 222.724L68.2735 222.614C68.2735 222.614 68.2735 222.504 68.2735 222.449C68.2735 222.173 68.2367 221.934 68.4207 221.677C68.4391 221.64 68.4759 221.603 68.4943 221.567C68.4943 221.53 68.4943 221.475 68.4943 221.438C68.4943 221.42 68.4943 221.383 68.4943 221.364C68.4575 221.162 68.4759 220.978 68.4943 220.776C68.5126 220.17 68.5862 219.563 68.7702 218.975C68.8621 218.699 68.9357 218.369 69.1197 218.13C69.4508 217.725 69.6715 217.946 70.0394 218.148C70.8304 218.552 71.7317 218.773 72.6147 218.773C73.516 218.773 74.399 218.534 75.1716 218.111C75.4291 217.964 75.6866 217.523 75.9809 217.542C76.3488 217.56 76.6616 218.093 76.9007 218.295C77.4341 218.736 78.0044 219.141 78.593 219.508C79.7887 220.243 81.1131 220.813 82.4927 221.181C82.9158 221.291 83.3389 221.383 83.762 221.475C84.1482 221.567 84.6817 221.603 85.0128 221.806C85.1416 221.879 85.2519 221.971 85.3255 222.081C85.4175 222.228 85.4175 222.412 85.1784 222.522V222.522Z" fill="#4B575E"/>
  <path d="M85.3253 222.081C85.0862 222.081 84.8471 222.136 84.6079 222.173C83.9825 222.265 83.3571 222.32 82.7317 222.357C81.4992 222.43 80.2484 222.412 79.0159 222.394C78.9239 222.394 78.8504 222.394 78.7584 222.394C77.8938 222.394 77.0477 222.357 76.1831 222.283C75.3186 222.21 74.5092 222.008 73.663 221.824C73.3503 221.75 73.056 221.695 72.7433 221.658C72.9272 221.364 73.2032 221.125 73.5527 221.015C74.0125 220.868 74.546 220.923 75.0242 220.942C75.5393 220.942 76.0544 220.978 76.551 221.07C76.7901 221.107 77.0293 221.18 77.2868 221.199C77.4708 221.217 77.7283 221.236 77.8938 221.125C77.9858 221.07 78.0594 220.96 78.1146 220.868C78.1882 220.758 78.2617 220.648 78.3353 220.537C78.4825 220.317 78.6112 220.078 78.7216 219.839C78.7584 219.784 78.5928 219.765 78.556 219.802C78.4457 220.023 78.3353 220.225 78.2065 220.427C78.0962 220.611 77.9674 220.813 77.8387 220.978C77.7467 221.089 77.6179 221.107 77.4708 221.089C77.3236 221.089 77.1948 221.07 77.0477 221.033C76.8085 220.997 76.5694 220.942 76.3303 220.905C75.8336 220.831 75.337 220.813 74.8403 220.813C74.3804 220.813 73.9022 220.776 73.4607 220.923C73.0928 221.052 72.7985 221.291 72.5961 221.603C71.2533 221.401 69.8737 221.364 68.5309 221.419C68.5309 221.456 68.5309 221.511 68.5309 221.548C68.5309 221.585 68.4941 221.622 68.4573 221.658C68.2733 221.916 68.3101 222.155 68.3101 222.43C68.3101 222.485 68.3101 222.541 68.3101 222.596L71.8787 222.706C71.8787 222.706 71.8971 222.614 71.9155 222.559C71.9523 222.43 71.9891 222.32 72.0627 222.21C72.3018 221.879 73.0744 222.118 73.4055 222.21C73.5527 222.246 73.6814 222.302 73.8102 222.357C74.2333 222.504 74.6563 222.669 75.061 222.798C75.4289 222.908 75.9624 222.816 76.3487 222.835L80.4323 222.945C81.5176 222.982 82.6029 222.982 83.6882 222.835C84.1481 222.761 84.7919 222.706 85.215 222.504C85.4541 222.375 85.4541 222.21 85.3621 222.063L85.3253 222.081Z" fill="#4B575E"/>
  <path d="M76.9926 218.24C76.9926 218.24 76.9374 218.185 76.919 218.185C76.8455 218.166 76.7535 218.166 76.6799 218.203C76.496 218.35 76.312 218.497 76.1281 218.663C76.1097 218.681 76.0913 218.699 76.1097 218.736C76.1097 218.755 76.1649 218.791 76.1832 218.791C76.22 218.791 76.2752 218.81 76.312 218.791C76.3488 218.791 76.3856 218.791 76.4224 218.755C76.5879 218.589 76.7719 218.442 76.9742 218.295C76.9926 218.295 77.011 218.258 76.9926 218.222V218.24Z" fill="#3C3C71"/>
  <path d="M77.6363 218.718C77.6363 218.718 77.5812 218.663 77.5628 218.663C77.4892 218.644 77.3972 218.644 77.3236 218.681C77.1581 218.828 76.9925 218.993 76.8638 219.159C76.8638 219.177 76.8638 219.214 76.8638 219.232C76.8822 219.251 76.9373 219.269 76.9557 219.269C77.0293 219.269 77.1213 219.269 77.1581 219.214C77.1581 219.214 77.1949 219.177 77.1949 219.159C77.3052 219.03 77.434 218.883 77.5812 218.773C77.5996 218.773 77.618 218.736 77.5996 218.699L77.6363 218.718Z" fill="#3C3C71"/>
  <path d="M68.2368 216.604C68.2368 216.825 68.2368 217.027 68.2368 217.229C68.2736 218.35 68.3839 219.434 68.6047 220.445C69.0646 220.225 69.5244 220.133 70.0211 220.041C70.1498 220.023 70.2786 220.004 70.4074 219.986C70.5729 219.967 70.7385 219.931 70.8856 219.912C70.9408 219.912 70.9776 219.912 71.0328 219.894C71.3455 219.839 71.603 219.802 71.7686 219.802C72.1181 219.765 72.486 219.747 72.8355 219.729C73.1298 219.71 73.4241 219.692 73.7184 219.673C74.4358 219.618 75.1716 219.582 75.9074 219.545C76.1098 219.545 76.3305 219.526 76.5329 219.508C77.0847 219.49 77.5446 219.508 77.9125 219.508C78.2804 219.508 78.5747 219.508 78.7954 219.379C79.1081 219.214 79.2921 218.828 79.384 218.038C79.384 218.001 79.384 217.983 79.384 217.946C79.4024 217.744 79.4392 217.541 79.4576 217.339C79.6784 215.391 79.8991 213.443 80.1198 211.476C80.3222 209.657 80.5245 207.837 80.7085 206.018C80.7269 205.816 80.7453 205.595 80.7821 205.393C80.8556 204.768 80.9108 204.143 80.966 203.518C81.15 201.772 81.3155 200.045 81.4627 198.299C81.573 197.012 81.6834 195.726 81.7938 194.439C81.7938 194.237 81.8306 194.016 81.849 193.814C82.1617 189.808 82.4192 185.801 82.5848 181.776C82.5848 181.574 82.5847 181.353 82.6031 181.151C82.6767 179.001 82.7319 176.85 82.7503 174.7C82.7503 173.763 82.7503 172.825 82.7503 171.888C82.7503 171.061 82.4192 170.326 81.9041 169.719C81.7202 169.499 81.4995 169.297 81.2603 169.113C80.8005 168.764 80.267 168.506 79.7152 168.341C79.5864 168.304 79.4576 168.267 79.3289 168.249C79.1633 168.212 78.9978 168.194 78.8322 168.175C78.262 168.12 77.6733 168.139 77.1031 168.175C76.2753 168.212 75.466 168.286 74.7118 168.469C74.4174 168.543 74.1415 168.617 73.8656 168.727C73.5897 168.837 73.3138 168.966 73.0378 169.131C72.8907 169.223 72.7251 169.297 72.5596 169.352C71.5479 169.719 70.3338 169.627 69.4876 170.105C69.4508 170.124 69.4141 170.142 69.3773 170.16C68.3839 170.804 68.2736 172.09 68.292 173.211C68.292 173.505 68.292 173.818 68.292 174.112C68.292 176.372 68.3104 178.615 68.3288 180.875C68.3288 181.077 68.3288 181.298 68.3288 181.5C68.3472 185.323 68.3655 189.146 68.3839 192.969C68.3839 193.171 68.3839 193.391 68.3839 193.594C68.3839 194.696 68.3839 195.781 68.3839 196.883C68.3839 199.493 68.4023 202.085 68.4207 204.695C68.4207 204.897 68.4207 205.099 68.4207 205.319C68.4207 206.514 68.4207 207.709 68.4207 208.903C68.4207 211.274 68.1448 214.013 68.1816 216.604H68.2368Z" fill="#213C4B"/>
  <path d="M38.2528 122.154C38.2528 123.57 38.2528 125.003 38.2528 126.418C38.2528 126.657 38.2528 126.933 38.4367 127.117C38.6207 127.301 38.9334 127.301 39.1909 127.282C51.2027 126.621 63.2881 125.959 74.9873 123.22C73.3869 115.63 71.8049 108.039 70.2046 100.43C70.131 100.063 70.039 99.6769 69.7999 99.4013C69.2297 98.7396 66.0106 99.1991 65.1092 99.1807C63.2146 99.1256 61.3015 99.0704 59.4068 99.052C55.5991 99.0153 51.8098 99.052 48.002 99.3461C45.298 99.5483 40.6625 99.052 39.4852 101.919C38.0872 105.319 38.5471 109.914 38.4183 113.571C38.3263 116.439 38.2528 119.287 38.2344 122.154H38.2528Z" fill="#213C4B"/>
  <path d="M61.6142 106.643C61.6142 106.514 61.2647 106.514 61.2647 106.643C61.2647 109.124 61.2647 111.605 61.2647 114.086C61.2647 115.336 61.2647 116.567 61.2463 117.817C61.2463 118.368 61.2647 118.938 61.1175 119.471C60.9887 119.912 60.7312 120.28 60.3817 120.537C60.0138 120.813 59.5723 120.978 59.1309 121.144C58.7446 121.291 58.3583 121.419 57.9904 121.585C57.8616 121.217 57.88 120.831 57.8616 120.445C57.8616 119.967 57.8432 119.49 57.8248 119.012C57.8064 118.038 57.788 117.082 57.7512 116.108C57.7145 114.178 57.6593 112.248 57.6225 110.318L57.5489 107.065C57.5489 106.937 57.181 106.937 57.1994 107.065C57.2362 109.014 57.2914 110.943 57.3282 112.891C57.365 114.84 57.4201 116.769 57.4569 118.718C57.4569 119.269 57.4753 119.82 57.4937 120.353C57.4937 120.831 57.4937 121.346 57.6961 121.805C57.7328 121.897 57.9168 121.897 57.9904 121.842C58.763 121.438 59.6459 121.272 60.4001 120.813C60.768 120.592 61.0807 120.298 61.2831 119.931C61.5406 119.471 61.5774 118.92 61.5774 118.405C61.5958 117.155 61.5958 115.924 61.6142 114.674C61.6142 113.424 61.6142 112.156 61.6142 110.907C61.6142 109.491 61.6142 108.076 61.6142 106.661V106.643Z" fill="#FFFDF8"/>
  <path d="M62.7546 124.452C61.6509 126.437 60.7312 128.532 60.0138 130.682C59.2964 132.833 58.7997 135.057 58.5054 137.317C58.3399 138.585 58.2479 139.854 58.2295 141.14C58.2295 141.269 58.579 141.269 58.579 141.14C58.6158 138.879 58.8917 136.619 59.37 134.413C59.8482 132.189 60.5288 130.021 61.4118 127.944C61.9085 126.768 62.4787 125.628 63.1041 124.507C63.1777 124.378 62.8282 124.342 62.7546 124.452V124.452Z" fill="#FFFDF8"/>
  <path d="M23.6657 123.11C22.4516 120.923 22.4332 117.872 22.0469 115.428C21.6055 112.616 21.1824 109.785 20.7777 106.973C20.1523 102.563 19.2877 98.1148 19.1957 93.6671C19.1773 92.4541 19.1773 91.2043 19.6004 90.0832C20.2442 88.3923 21.9182 87.1241 23.7393 86.9587C25.1189 86.8301 26.5353 87.3447 27.547 88.282C28.6507 89.3296 28.2092 91.0389 28.2644 92.4357C28.4116 97.1775 28.5587 101.938 28.7059 106.679C28.8162 109.969 28.9082 113.259 28.8346 116.531C28.7978 118.166 28.7059 119.802 28.5587 121.438C28.4483 122.669 28.6691 123.827 27.3079 124.305C26.0386 124.746 24.3647 124.36 23.6657 123.11V123.11Z" fill="#FCD9BA"/>
  <path d="M29.0187 121.456C28.3749 120.592 27.6023 120.592 26.5538 120.629C26.0755 120.629 25.5973 120.684 25.119 120.739C24.1809 120.85 23.6474 120.942 23.2979 121.787C22.7277 123.11 22.6357 124.581 22.4885 125.996C22.3966 126.86 22.2678 127.778 22.3598 128.642C22.4517 129.451 22.3782 130.241 22.6725 131.032C22.7828 131.326 22.93 131.62 23.1507 131.822C23.4451 132.079 23.7762 132.171 23.7026 131.656C23.5554 130.774 23.5738 129.819 23.7026 128.936C23.721 128.716 23.8314 127.65 24.1441 128.109C24.2912 128.33 24.1992 128.771 24.2176 129.01C24.2544 129.433 24.2912 129.855 24.328 130.278C24.4016 131.123 24.4936 131.969 24.5671 132.814C24.6039 133.127 24.6591 133.568 24.935 133.77C25.1558 133.917 25.5789 133.954 25.726 133.678C25.7996 133.55 25.7996 133.402 25.7812 133.274C25.726 131.656 25.3581 130.076 25.6524 128.459C25.6892 128.22 25.91 127.778 26.1123 128.128C26.1859 128.238 26.1859 128.367 26.2043 128.495C26.3147 129.91 26.425 131.326 26.5354 132.741C26.5722 133.145 26.5354 133.77 26.8665 134.064C27.4183 134.56 27.8598 133.844 27.8414 133.311C27.8046 132.318 27.6759 131.326 27.6391 130.333C27.6207 129.58 27.5471 128.753 27.8782 128.054C27.9886 128.201 27.9886 128.403 28.007 128.569C28.0254 129.286 28.0806 129.984 28.1725 130.701C28.2461 131.344 28.2645 132.024 28.4301 132.649C28.5404 133.09 29.1659 133.568 29.405 132.925C29.4602 132.759 29.4418 132.594 29.4234 132.41C29.2946 130.995 29.0923 129.58 29.1842 128.164C29.221 127.631 29.2762 126.97 29.6257 126.529C30.1776 126.713 30.2695 127.815 30.5639 128.238C31.0053 128.881 31.5572 129.304 32.4401 129.157C33.1575 129.047 32.3114 127.981 32.109 127.687C31.41 126.713 30.9685 125.647 30.5087 124.544C30.0672 123.496 29.7545 122.449 29.0923 121.493C29.0739 121.456 29.0555 121.438 29.0371 121.401L29.0187 121.456Z" fill="#FCD9BA"/>
  <path d="M28.7059 59.5556C28.4116 60.0702 28.1356 60.6032 27.8965 61.1362C26.6641 63.746 25.9099 66.558 25.0085 69.2965C24.6222 70.4543 24.2175 71.6122 23.6105 72.6782C23.1322 73.5052 22.562 74.2772 22.1389 75.141C20.9065 77.6957 21.2928 80.7833 20.1523 83.3748C19.8396 84.0732 19.4349 84.6981 19.159 85.4148C18.7911 86.3705 18.6807 87.3998 18.5703 88.429C18.4048 90.0831 18.2208 91.7188 18.0553 93.3729C17.9265 94.5492 18.0553 95.799 18.0553 96.9752C18.0553 97.3796 18.0737 97.8207 18.368 98.078C18.6991 98.372 19.1958 98.2801 19.6188 98.1699C21.6607 97.6185 23.5553 96.5893 25.7075 96.4974C26.7008 96.4606 30.5822 96.9201 30.7661 95.6152C30.8397 95.0638 30.3614 94.6043 30.1959 94.0713C29.9935 93.3913 30.3614 92.6745 30.8029 92.1048C31.2444 91.535 31.7778 91.0204 31.9986 90.3404C32.44 88.9987 31.5571 87.363 32.3481 86.2051C32.6792 85.7089 33.2494 85.4332 33.6357 84.9921C34.5738 83.9445 34.3531 82.3455 34.5554 80.9487C34.8314 78.9822 35.9718 77.2729 36.8548 75.4902C39.614 69.9581 40.2762 62.3308 36.8548 56.9274C36.1374 55.7879 34.9233 53.4905 33.2862 54.5197C31.3363 55.7511 29.8464 57.5523 28.6875 59.5556H28.7059Z" fill="#FFFDF8"/>
  <path d="M109.257 6.93647C107.252 9.45439 106.037 12.7442 104.584 15.6114C102.966 18.8277 101.328 22.044 99.7096 25.242C98.3852 27.8518 97.0608 30.4616 95.4788 32.9244C94.927 33.7882 94.32 34.652 93.5106 35.2953C91.8367 36.6186 88.5624 36.4531 86.8333 35.2769C86.0423 34.7439 84.6075 33.6412 84.6627 32.5936C84.7363 31.1968 86.4838 29.5059 87.3115 28.4767C93.5842 20.7023 100.225 13.0567 105.835 4.78612C106.516 3.79366 107.527 2.80119 108.576 2.23144C108.925 2.04765 109.22 1.79035 109.551 1.64331C109.992 1.44114 110.489 1.38601 110.949 1.33087C112.089 1.20222 113.248 1.18384 114.389 1.25735C114.904 1.29411 115.787 1.31249 116.191 1.69845C116.872 2.34172 115.64 2.65416 115.18 2.74605C115.327 2.80119 115.474 2.87471 115.548 3.00336C115.603 3.13201 115.566 3.29742 115.492 3.4077C115.419 3.51797 115.29 3.60987 115.161 3.68338C114.646 4.0142 114.076 4.28989 113.524 4.5472C112.494 5.04343 111.28 5.26398 110.323 5.87048C109.882 6.14617 109.514 6.51375 109.201 6.91809L109.257 6.93647Z" fill="#FCD9BA"/>
  <path d="M70.0206 60.3643C71.1427 61.0259 72.1912 61.8346 73.3868 62.386C73.4788 62.4227 73.5892 62.4778 73.6811 62.4411C73.7915 62.4043 73.8651 62.3124 73.9203 62.2205C78.1327 55.549 83.8167 49.8698 88.9489 43.8599C89.7214 42.941 90.5124 42.0404 91.2114 41.0663C91.892 40.1106 92.4991 39.0997 93.3452 38.3094C93.989 37.7213 94.7616 37.2618 95.2031 36.5267C95.8285 35.4975 95.3503 34.3947 94.5409 33.7147C93.4924 32.8509 92.6462 32.0055 91.7449 30.9762C90.494 29.5427 88.9489 28.4215 87.4221 27.3188C87.183 27.1534 86.9438 26.9696 86.6679 26.8961C85.8033 26.6572 84.9756 27.4658 84.6077 28.2745C84.2214 29.1016 84.0374 30.0389 83.3752 30.6638C82.8602 31.16 82.1428 31.3622 81.5541 31.7298C79.8802 32.7774 79.3651 34.8174 78.1327 36.251C76.6611 37.9602 74.6193 38.8792 72.743 40.0371C70.8299 41.2317 68.8433 42.3161 66.7647 43.2166C66.2864 43.4188 65.7898 43.6394 65.4587 44.0253C64.8884 44.687 64.9068 45.6427 64.87 46.5065C64.7597 49.7044 63.1225 52.5532 63.1593 55.7879C63.1777 57.7177 63.2145 60.2356 65.8817 59.574C67.2614 59.2248 68.0339 59.2615 69.3768 59.9599C69.5975 60.0702 69.8182 60.1988 70.0206 60.3275V60.3643Z" fill="#FFFDF8"/>
  <path d="M41.4166 107.028C40.7544 107.028 40.0738 107.028 39.4115 107.028C39.1908 107.028 38.9701 107.028 38.7861 106.918C38.3998 106.698 38.363 106.146 38.3814 105.705C39.062 90.3403 37.5905 74.8652 33.9851 59.9047C33.5988 58.269 32.9182 56.0084 33.5804 54.3726C34.1138 53.0493 35.6406 52.5164 36.8179 51.7812C40.1473 49.686 43.4584 47.5908 46.7879 45.4956C48.2595 44.5582 49.7862 43.6209 51.4786 43.235C55.1207 42.4079 58.8365 44.3009 62.5706 44.2458C64.87 44.209 67.2981 43.4555 69.3583 44.448C70.2781 44.8891 71.0139 45.6242 71.7129 46.3778C72.2463 46.9659 72.7798 47.5724 73.0925 48.3076C73.4052 49.0427 73.4788 49.8514 73.6443 50.6233C73.9386 52.0017 74.5089 53.3066 74.7664 54.6851C75.2999 57.6257 74.3065 60.9707 74.0674 63.9297C73.7915 67.2563 73.6259 70.5829 73.5156 73.9095C73.3684 78.3756 73.3684 82.8968 73.1477 87.3997C72.9269 92.215 72.7062 97.0303 72.4855 101.846C72.4119 103.665 72.3199 106.826 69.947 106.955C68.0339 107.047 66.084 106.955 64.171 106.955C56.5739 106.973 48.9952 106.992 41.3982 107.01L41.4166 107.028Z" fill="#FFFDF8"/>
  <path d="M59.7933 48.859C59.6646 50.4763 59.5358 52.0753 59.3887 53.6926C59.3151 54.5197 59.2415 55.3468 59.1495 56.1554C59.076 56.8355 59.1495 57.8463 58.8552 58.4528C57.6779 58.122 56.5559 56.4127 55.7281 55.5673C53.5943 53.3986 51.0006 51.7261 48.5725 49.8882C48.223 49.6309 47.8735 49.3368 47.5792 49.006C47.3217 48.6936 47.1009 48.3444 47.0457 47.9584C46.9538 47.4254 47.1193 46.874 47.3033 46.3594C47.6528 45.4772 48.1494 44.6869 48.4437 43.7864C48.7565 42.8307 49.0324 41.8749 49.2715 40.9009C49.6026 39.5959 49.8417 37.9418 50.5775 36.784C50.9638 36.1958 51.7916 35.6812 52.3618 35.2769C53.3 34.6336 54.0726 34.8542 55.0107 35.3136C56.887 36.1958 58.7632 37.6661 59.3703 39.6878C59.5174 40.1473 59.5726 40.6435 59.5726 41.1214C59.5726 41.1214 59.5726 41.1398 59.5726 41.1582C59.5726 41.1582 59.5726 41.1582 59.5726 41.1765C59.5174 42.4631 59.1863 43.7312 59.2415 45.0178C59.2415 45.367 59.3151 45.661 59.4071 45.9367C59.499 46.2308 59.6278 46.5065 59.7566 46.8373C59.9957 47.4438 59.8117 48.1789 59.7566 48.8222L59.7933 48.859Z" fill="#FCD9BA"/>
  <path d="M59.5911 41.2132C59.5359 42.4998 59.2048 43.7679 59.26 45.0545C59.26 45.4037 59.3335 45.6977 59.4255 45.9734C57.5492 46.6534 55.4522 44.6869 54.9556 43.0328C54.5693 41.8014 55.1211 40.5148 56.4639 40.2943C57.0894 40.2024 57.6044 40.4229 58.1931 40.5148C58.5242 40.57 58.7817 40.5148 59.076 40.717C59.2784 40.8457 59.4439 41.0111 59.5911 41.1765V41.2132Z" fill="#DEA978"/>
  <path d="M64.8705 28.9362C64.8705 28.9362 64.8889 29.0097 64.9072 29.0281C65.0176 29.2854 64.9808 29.6714 65.036 29.9654C65.1096 30.333 65.1648 30.6822 65.1648 31.0498C65.1648 31.7298 64.7049 32.318 64.7233 32.998C64.7233 33.292 64.8888 33.5677 65.0176 33.825C65.1648 34.1375 65.3303 34.4683 65.4959 34.7807C65.8454 35.4056 66.2317 36.0121 66.6731 36.6003C66.9859 37.0046 67.317 37.4273 67.2986 37.9236C67.2618 38.7322 66.3972 38.9528 65.7718 39.1917C65.0912 39.449 64.944 40.3312 64.8521 40.9561C64.7417 41.7831 64.7601 42.6102 64.6129 43.4556C64.429 44.4849 63.9691 45.3671 62.8286 45.4773C61.2099 45.6244 59.5727 45.2568 58.1196 44.5584C56.9791 44.007 55.9674 43.2351 55.0844 42.3529C54.3118 41.581 53.1713 40.9745 52.6931 39.982C52.1964 38.9528 51.2031 39.0998 50.265 38.5668C49.29 38.0154 48.6094 36.8759 48.1863 35.9019C47.7265 34.8175 47.4689 33.6412 47.2298 32.4834C46.9907 31.3255 46.7515 30.1492 47.0091 28.9914C47.3034 27.6497 48.2415 26.4918 49.4004 25.6831C50.5409 24.8745 51.8837 24.3782 53.2081 23.9371C54.6613 23.4593 56.0041 23.0366 57.5309 23.1468C58.6162 23.2203 59.6095 23.496 60.658 23.7717C61.633 24.029 62.4055 24.7274 63.031 25.4993C63.8587 26.5102 64.3922 27.7416 64.8705 28.973V28.9362Z" fill="#FCD9BA"/>
  <path d="M47.3768 39.0446C47.8551 39.8165 48.407 40.5517 49.2531 40.956C49.8785 41.2501 50.4488 41.0296 50.9822 40.662C51.5341 40.2944 52.0307 39.8533 52.4722 39.3754C53.0241 38.7689 53.4839 38.0705 54.0358 37.4456C54.5324 36.8943 55.2866 36.7105 55.8753 36.251C57.9171 34.7072 56.9238 31.84 58.1562 29.8184C58.6897 28.9545 59.5726 28.2929 60.5659 28.054C61.4673 27.8334 62.4422 27.9253 63.27 27.4842C64.9807 26.5837 65.9372 24.1576 64.0794 22.9262C63.4539 22.5035 62.7549 22.2095 62.0375 22.044C61.4121 21.897 60.7683 21.8602 60.1797 21.6213C59.2783 21.2537 58.5793 20.4267 57.6412 20.1694C57.1261 20.0223 56.5559 20.0591 56.0224 20.0959C55.1395 20.151 54.2197 20.2245 53.4287 20.6105C52.8585 20.9045 52.3802 21.3456 51.8284 21.6765C50.5408 22.4484 48.83 22.6138 47.9839 23.8452C47.3217 24.8193 47.4872 26.1242 47.2481 27.2821C46.9722 28.6237 46.1628 29.7632 45.5742 30.9946C44.9855 32.226 44.5992 33.7147 45.2247 34.9277C45.5558 35.5894 46.1444 36.0856 46.4939 36.7472C46.8802 37.4824 46.9354 38.3462 47.3768 39.0446V39.0446Z" fill="#553A12"/>
  <path d="M64.429 31.7298C64.429 31.7298 64.3922 31.6011 64.3554 31.546C64.0979 31.1049 63.3621 31.2335 62.9574 31.2887C62.4056 31.3622 61.9089 31.6379 61.449 31.9319C61.0076 32.226 60.5477 32.5936 60.4741 33.1082C60.4741 33.1449 60.4741 33.1633 60.4741 33.2001C60.5661 33.3471 61.2467 32.8876 61.3387 32.8141C61.4858 32.7406 61.6698 32.6671 61.8353 32.612C62.4608 32.4098 63.1046 32.2628 63.7484 32.2995C63.8956 32.2995 64.0427 32.3179 64.1715 32.2811C64.4106 32.1892 64.4842 31.9503 64.429 31.7298V31.7298Z" fill="#553A12"/>
  <path d="M58.4138 36.4899C58.4138 36.4899 58.4138 36.4531 58.4138 36.4348C58.561 34.8725 57.0526 32.1157 55.1579 33.1082C54.4957 33.4574 54.091 34.1925 54.0358 34.9277C53.9439 36.3796 55.2499 38.6586 56.9054 38.5851C57.9171 38.53 58.3034 37.3537 58.3954 36.4899H58.4138Z" fill="#FCD9BA"/>
  <path d="M62.6077 34.5234C62.6077 34.3396 62.6445 34.1558 62.7549 34.0639C62.8284 33.9904 62.9388 33.9536 63.0308 33.9353C63.3435 33.8801 63.5458 34.0639 63.6194 34.3028C63.6562 34.4683 63.6562 34.6337 63.6378 34.7991C63.6378 34.9645 63.5826 35.1483 63.5091 35.3137C63.4723 35.4056 63.4171 35.4607 63.3251 35.5159C62.9572 35.718 62.7181 35.4791 62.6629 35.1667C62.6445 35.0196 62.5893 34.7623 62.6077 34.5418V34.5234Z" fill="#553A12"/>
  <path d="M60.2352 26.1242C60.8974 26.0507 61.5964 25.9772 62.1299 25.5728C62.6633 25.1685 62.7921 24.5436 62.8657 23.9187C62.8657 23.7901 63.2336 23.7717 63.2152 23.882C63.1784 24.2312 63.1232 24.5804 62.9944 24.8928C62.8657 25.2053 62.6449 25.4626 62.3874 25.6647C61.7804 26.1242 60.9894 26.2161 60.2352 26.2896C60.18 26.2896 60.0513 26.2896 60.0513 26.2161C60.0513 26.1426 60.1616 26.1058 60.2168 26.1058L60.2352 26.1242Z" fill="#725223"/>
  <path d="M57.5125 23.9739C57.5125 23.9739 57.6596 23.882 57.7148 23.882C58.1011 23.882 58.5058 23.882 58.8369 23.6614C59.1128 23.4776 59.3336 23.1836 59.3336 22.8528C59.3336 22.7241 59.6831 22.7057 59.6831 22.8344C59.6831 23.2387 59.4072 23.6063 59.0577 23.8085C58.6346 24.0658 58.1011 24.1025 57.6229 24.0841C57.5677 24.0841 57.4757 24.0474 57.4941 23.9739H57.5125Z" fill="#725223"/>
  <path d="M46.4021 31.5277C46.4389 31.4174 46.7884 31.4174 46.7516 31.5461C46.3837 32.6856 46.6413 33.9905 47.4323 34.9094C47.4874 34.9646 47.3587 35.0197 47.3219 35.0381C47.2483 35.0565 47.1563 35.0381 47.1011 34.9829C46.2918 34.0456 46.0342 32.7039 46.4205 31.5277H46.4021Z" fill="#725223"/>
  <path d="M49.3455 31.9687C49.4006 31.8585 49.7501 31.8768 49.6949 31.9871C49.2535 32.8509 50.0077 33.678 50.5963 34.2294C50.7251 34.3396 50.394 34.4315 50.302 34.358C49.9525 34.0272 49.603 33.678 49.4006 33.2369C49.2167 32.8326 49.1615 32.3547 49.3638 31.9504L49.3455 31.9687Z" fill="#725223"/>
  <path d="M63.8037 40.7355C63.8956 40.423 63.8404 40.1473 63.5277 40.0003C63.4174 39.9452 63.307 39.9268 63.1966 39.89C62.8655 39.7797 62.5344 39.6143 62.2769 39.3754C61.9458 39.0813 61.4859 39.1732 61.4123 39.6879C61.3387 40.1473 61.7066 40.5149 62.0378 40.7906C62.5344 41.2133 63.5461 41.636 63.8037 40.7538V40.7355Z" fill="white"/>
  <path d="M62.7916 51.8915L61.8167 51.5974L61.3568 51.4504C61.228 51.4137 61.0809 51.3769 60.9521 51.3218C60.805 51.2666 60.8234 51.138 60.8601 51.0093C60.9153 50.8439 60.9889 50.6785 61.0441 50.5131C61.1545 50.2006 61.2832 49.9066 61.3936 49.6125C61.5224 49.3001 61.6511 48.9692 61.7615 48.6568C61.8719 48.3995 62.019 48.0871 61.9822 47.793C61.9454 47.5173 61.7247 47.3335 61.5224 47.1497C61.2832 46.9476 61.0257 46.727 60.7866 46.5248C60.2163 46.047 59.6461 45.5691 59.0758 45.0729C59.0207 45.0178 58.9103 45.0178 58.8367 45.0361C58.7815 45.0361 58.7079 45.1097 58.7815 45.1648C59.2966 45.6059 59.8116 46.0286 60.3267 46.4697C60.5842 46.6902 60.8417 46.9108 61.0993 47.113C61.3016 47.2968 61.5959 47.4805 61.6511 47.7746C61.7063 48.0871 61.504 48.4179 61.3936 48.7119L61.0257 49.6676C60.9153 49.9801 60.7866 50.2742 60.6762 50.5866C60.5842 50.8071 60.3635 51.1563 60.5842 51.3769C60.6946 51.4688 60.8418 51.5056 60.9705 51.5607L61.5224 51.7261C61.8535 51.8364 62.1846 51.9283 62.5341 52.0385C62.4237 52.5715 62.1846 53.0678 61.9454 53.564C61.7063 54.097 61.4488 54.6484 61.2096 55.1813C60.713 56.2657 60.2163 57.3685 59.7197 58.4528C59.4989 58.9307 59.2782 59.4269 59.0574 59.9048C59.0574 59.8864 59.0575 59.8496 59.0023 59.8312C57.7514 59.0593 56.4822 58.3058 55.1945 57.6074C53.9069 56.909 52.6009 56.2473 51.2764 55.6224C50.559 55.2732 49.8232 54.9608 49.0875 54.63L49.9704 52.7921C49.9704 52.7921 49.8968 52.6818 49.8416 52.6634C48.646 52.4061 47.4687 52.0385 46.3282 51.5791C46.0339 51.4688 45.758 51.3401 45.4821 51.2115C45.2429 51.1012 45.0222 50.9726 44.9854 50.6785C44.967 50.4028 45.059 50.0904 45.1326 49.8331C45.2061 49.5206 45.2797 49.2082 45.3533 48.8957C45.5189 48.1789 45.6844 47.4622 45.85 46.7454C45.8684 46.6351 45.5189 46.5984 45.5005 46.7454C45.3533 47.407 45.2061 48.0503 45.059 48.7119C44.9854 49.0428 44.9118 49.3736 44.8382 49.7044C44.7647 49.9985 44.6727 50.3109 44.6543 50.605C44.6543 50.8807 44.8015 51.1012 45.0406 51.2299C45.2981 51.3769 45.5924 51.4872 45.8684 51.5974C46.457 51.8364 47.064 52.0569 47.671 52.2591C48.3149 52.4613 48.9587 52.645 49.6025 52.7921L48.7379 54.6116C48.7379 54.6116 48.7379 54.6851 48.7747 54.7035C50.136 55.2916 51.4604 55.8981 52.7848 56.5598C54.0908 57.2214 55.3785 57.9198 56.6477 58.6366C57.3283 59.0226 57.9906 59.4269 58.6528 59.8312C58.6528 59.8312 58.6528 59.8312 58.6344 59.8496C58.5976 59.9415 58.9103 59.9967 58.9655 60.0518C59.4253 60.3642 59.6461 59.4085 59.7748 59.1145C60.0508 58.508 60.3267 57.8831 60.621 57.2766C61.1729 56.0635 61.7247 54.8689 62.2765 53.6559C62.5341 53.0861 62.81 52.5164 62.9388 51.8915C62.9388 51.8548 62.8836 51.818 62.8468 51.7996L62.7916 51.8915Z" fill="#4B575E"/>
  <path d="M38.3263 70.1051C37.7377 68.5245 37.0203 66.9991 36.2109 65.5287C35.4016 64.0584 34.4818 62.6616 33.4517 61.3199C32.8815 60.5664 32.2744 59.8496 31.649 59.1512C31.5754 59.0593 31.2259 59.1145 31.3363 59.2431C32.4584 60.4929 33.4885 61.8162 34.4082 63.1946C35.328 64.5914 36.1558 66.0433 36.8732 67.5504C37.2778 68.3959 37.6457 69.2597 37.9768 70.1419C38.0136 70.2521 38.3815 70.2338 38.3263 70.0867V70.1051Z" fill="#4B575E"/>
  <path d="M73.35 52.057C73.2581 50.1824 73.1293 48.3077 72.9453 46.4514C72.8534 45.4957 72.6694 44.54 72.2279 43.6946C72.1728 43.5843 71.8233 43.6211 71.8784 43.7497C72.2647 44.5032 72.4487 45.3487 72.5407 46.1757C72.651 47.0763 72.7062 47.9953 72.7798 48.9142C72.927 50.7889 73.0189 52.6635 73.0925 54.5566C73.1293 55.6225 73.1661 56.6885 73.1661 57.7545C73.1661 57.8832 73.5156 57.8832 73.5156 57.7545C73.4788 55.8615 73.4236 53.9684 73.3132 52.0754L73.35 52.057Z" fill="#4B575E"/>
  <path d="M29.4234 92.9318C27.2528 92.0497 24.8615 92.0864 22.5805 92.307C21.9183 92.3805 21.2745 92.454 20.6307 92.5275C20.5755 92.5275 20.4835 92.5826 20.5019 92.6562C20.5387 92.7297 20.6675 92.7297 20.7226 92.7297C22.9484 92.454 25.211 92.1599 27.4368 92.5826C28.0622 92.6929 28.6692 92.8767 29.2578 93.1156C29.3314 93.1524 29.4418 93.134 29.497 93.0789C29.5522 93.0237 29.497 92.9686 29.4418 92.9502L29.4234 92.9318Z" fill="#4B575E"/>
  <path d="M28.3382 87.1057C27.1241 86.2051 25.7997 85.4332 24.4201 84.845C24.0338 84.6796 23.6291 84.5142 23.2244 84.3672C23.1508 84.3488 23.0404 84.3488 22.9853 84.404C22.9301 84.4591 22.9853 84.5142 23.0404 84.5326C24.4201 85.0288 25.7629 85.6905 26.9953 86.4808C27.3448 86.7013 27.6943 86.9403 28.0254 87.1976C28.099 87.2527 28.191 87.2527 28.2646 87.2343C28.3198 87.2343 28.3933 87.1608 28.3198 87.1057H28.3382Z" fill="#4B575E"/>
  <path d="M88.0477 39.449C87.6246 38.3095 87.2015 37.1883 86.7784 36.0488C86.5761 35.4791 86.3553 34.9093 86.153 34.358C85.969 33.8617 85.8035 33.3655 85.5644 32.8877C85.3252 32.3914 85.0493 31.9136 84.6446 31.5276C84.5894 31.4725 84.4791 31.4725 84.4055 31.4909C84.3503 31.5092 84.2767 31.5644 84.3503 31.6195C85.0861 32.3179 85.4172 33.3104 85.7483 34.2477C86.1714 35.3688 86.5761 36.4899 86.9991 37.5927C87.2383 38.2359 87.4774 38.8608 87.7166 39.5041C87.7533 39.6144 88.1212 39.596 88.0661 39.449H88.0477Z" fill="#4B575E"/>
  <path d="M82.4742 41.8933C82.4742 41.2684 82.4374 40.6619 82.419 40.037C82.419 39.9084 82.0511 39.9084 82.0695 40.037C82.1431 42.2241 82.1615 44.4296 82.1431 46.6351C82.1431 47.26 82.1431 47.8665 82.1247 48.4914C82.1247 48.62 82.4742 48.62 82.4742 48.4914C82.511 46.3043 82.511 44.0988 82.4742 41.8933Z" fill="#4B575E"/>
  <path d="M60.1798 64.0401C60.1798 64.0401 59.9774 63.8931 59.8487 63.8563C59.5912 63.7828 59.2968 63.7828 59.0577 63.9114C58.5794 64.132 58.5059 64.8304 58.837 65.198C59.0209 65.4185 59.3152 65.5288 59.5912 65.5104C59.8855 65.5104 60.1246 65.3634 60.3086 65.1428C60.5661 64.7936 60.5109 64.2974 60.1798 64.0401Z" fill="#4B575E"/>
  <path d="M60.1798 74.5529C60.1798 74.5529 59.9774 74.4059 59.8487 74.3691C59.5912 74.2956 59.2968 74.2956 59.0577 74.4243C58.5794 74.6448 58.5059 75.3432 58.837 75.7108C59.0209 75.9314 59.3152 76.0416 59.5912 76.0232C59.8855 76.0232 60.1246 75.8762 60.3086 75.6557C60.5661 75.3065 60.5109 74.8102 60.1798 74.5529Z" fill="#4B575E"/>
  <path d="M60.1798 85.0657C60.1798 85.0657 59.9774 84.9187 59.8487 84.8819C59.5912 84.8084 59.2968 84.8084 59.0577 84.9371C58.5794 85.1576 58.5059 85.856 58.837 86.2236C59.0209 86.4442 59.3152 86.5544 59.5912 86.5361C59.8855 86.5361 60.1246 86.389 60.3086 86.1685C60.5661 85.8193 60.5109 85.323 60.1798 85.0657Z" fill="#4B575E"/>
  <path d="M60.1798 95.5969C60.1798 95.5969 59.9774 95.4498 59.8487 95.4131C59.5912 95.3396 59.2968 95.3396 59.0577 95.4682C58.5794 95.6888 58.5059 96.3872 58.837 96.7547C59.0209 96.9753 59.3152 97.0856 59.5912 97.0672C59.8855 97.0672 60.1246 96.9202 60.3086 96.6996C60.5661 96.3504 60.5109 95.8542 60.1798 95.5969Z" fill="#4B575E"/>
  <path d="M43.7712 102.967C42.6859 101.166 41.8582 99.1808 41.3431 97.1407C41.1959 96.5526 41.0672 95.9645 40.9752 95.3763C40.9568 95.2293 40.6073 95.2477 40.6257 95.3763C40.9752 97.4899 41.6374 99.53 42.5756 101.441C42.8331 101.974 43.1274 102.507 43.4401 103.022C43.5137 103.132 43.8632 103.096 43.7896 102.967H43.7712Z" fill="#4B575E"/>
  <path d="M71.7682 93.6486C71.6579 95.1741 71.4555 96.6811 71.1796 98.1698C71.106 98.5926 71.0141 99.0337 70.9221 99.4564C70.9037 99.585 71.2532 99.6034 71.2716 99.4564C71.5843 97.9677 71.8234 96.4606 71.989 94.9535C72.0258 94.5124 72.081 94.0897 72.0994 93.6486C72.0994 93.52 71.7499 93.52 71.7499 93.6486H71.7682Z" fill="#4B575E"/>
  <path d="M72.5039 108.664C72.5039 108.664 72.3199 108.811 72.2095 108.866C72.0072 108.94 71.7865 108.958 71.5841 108.958C68.2179 109.032 64.8516 108.885 61.4854 108.885H39.3564C38.9333 108.885 38.2895 109.124 37.9216 108.83C37.8112 108.738 37.7928 108.572 37.7744 108.425C37.7008 107.286 37.7008 106.146 37.7744 105.025C37.7744 104.86 37.7928 104.694 37.8848 104.547C38.1791 104.143 39.9082 104.547 40.4233 104.547H67.7764C68.7881 104.547 69.8182 104.492 70.8299 104.529C71.253 104.529 71.9704 104.455 72.3567 104.639C72.7062 104.805 72.6694 104.97 72.6878 105.374C72.7246 106.183 73.2581 107.966 72.5223 108.683L72.5039 108.664Z" fill="#4B575E"/>
  <path d="M61.6327 106.79C61.6327 106.018 61.8718 104.382 60.7681 104.217C60.621 104.198 60.4738 104.217 60.3267 104.217C60.1979 104.217 60.0875 104.235 59.9588 104.253C59.8852 104.253 59.7932 104.253 59.7196 104.308C59.5725 104.4 59.6277 104.658 59.7932 104.676C60.0875 104.731 60.3083 104.988 60.437 105.246C60.7313 105.852 60.6394 106.569 60.6578 107.231C60.6578 107.506 60.6578 107.8 60.5474 108.058C60.4554 108.315 60.2347 108.554 59.9772 108.628C59.7564 108.701 59.4437 108.664 59.3333 108.866C59.3333 108.903 59.3149 108.922 59.3149 108.958C59.3149 109.032 59.4253 109.069 59.4989 109.069C59.7564 109.105 60.0139 109.142 60.2715 109.16C60.437 109.179 60.6026 109.197 60.7681 109.179C61.0257 109.142 61.2648 108.995 61.412 108.775C61.7615 108.278 61.5959 107.304 61.5959 106.734L61.6327 106.79Z" fill="white"/>
  <path d="M56.3534 104.933C56.3534 104.749 56.335 104.547 56.1694 104.419C56.0222 104.29 55.8015 104.29 55.636 104.364C55.6176 104.364 55.5992 104.382 55.5992 104.4C55.5624 104.4 55.544 104.437 55.5256 104.474C55.452 105.981 55.3784 107.47 55.3232 108.977C55.3232 109.05 55.452 109.069 55.5072 109.069C55.636 109.069 55.7831 109.069 55.9119 109.069C55.9855 109.069 56.0774 109.05 56.0958 108.977C56.2614 108.094 56.3534 107.175 56.3717 106.275C56.3717 105.834 56.3717 105.374 56.3534 104.933V104.933Z" fill="white"/>
  <path d="M54.4955 106.992C54.3115 106.532 53.7597 105.926 53.5573 105.724C52.9871 105.154 52.4169 104.768 51.6075 104.805C50.5774 104.86 49.5657 104.97 48.5539 105.117C47.3951 105.283 46.2178 105.485 45.0773 105.724C44.0288 105.926 43.0355 106.073 42.0422 106.44C41.9318 106.477 41.803 106.532 41.7663 106.661C41.7295 106.771 41.803 106.881 41.8582 106.973C42.0606 107.323 42.1341 107.709 42.2261 108.113C42.3733 108.83 42.4836 109.602 42.7044 110.318C42.9251 111.017 43.2562 110.851 43.8817 110.686C47.2295 109.804 50.5774 108.94 53.9252 108.039C54.0908 108.003 54.2563 107.947 54.3851 107.837C54.6058 107.653 54.6058 107.267 54.4955 107.01V106.992Z" fill="#4B575E"/>
  <path d="M51.0922 104.621C50.4851 104.658 49.8781 104.713 49.2711 104.805C48.6824 104.897 48.0754 105.025 47.4868 105.154C46.2727 105.411 45.0403 105.668 43.8262 105.926C43.2008 106.054 42.5754 106.201 41.9867 106.44C41.9683 106.44 41.9315 106.44 41.9315 106.44C41.9315 106.44 41.9315 106.44 41.9131 106.459C41.6556 106.698 41.8212 107.102 41.9131 107.396C42.0419 107.837 42.1523 108.278 42.2259 108.719C42.2259 108.793 42.4098 108.774 42.4098 108.719C42.3546 108.315 42.2626 107.929 42.1523 107.543C42.0603 107.249 41.8212 106.79 42.0971 106.532C42.6305 106.312 43.2008 106.165 43.771 106.054C44.3597 105.926 44.9667 105.797 45.5553 105.687C46.7326 105.43 47.9282 105.172 49.1239 104.952C49.8045 104.841 50.4667 104.749 51.1473 104.713C51.2577 104.713 51.2577 104.602 51.1473 104.621H51.0922Z" fill="#4B575E"/>
  <path d="M45.5738 108.039C45.5738 108.039 45.5738 107.856 45.5738 107.782C45.5554 107.69 45.5003 107.635 45.4267 107.58C45.3347 107.525 45.2059 107.506 45.0956 107.525C44.9116 107.543 44.7645 107.653 44.7093 107.837C44.6725 108.021 44.7829 108.186 44.93 108.297C45.0588 108.389 45.2243 108.389 45.3715 108.315C45.4083 108.297 45.4451 108.26 45.4819 108.223C45.5186 108.186 45.5554 108.15 45.5738 108.113C45.5738 108.113 45.5922 108.076 45.5922 108.058L45.5738 108.039Z" fill="#4B575E"/>
  <path d="M50.4302 106.881C50.4302 106.881 50.3566 106.771 50.3014 106.734C50.2095 106.679 50.1175 106.679 50.0071 106.679C49.9335 106.679 49.8416 106.716 49.7864 106.771C49.6944 106.826 49.6208 106.937 49.6576 107.047C49.6576 107.102 49.6944 107.157 49.7312 107.212C49.768 107.267 49.8416 107.304 49.9152 107.323C50.0623 107.359 50.2647 107.341 50.3566 107.212C50.4302 107.12 50.467 106.992 50.4302 106.881V106.881Z" fill="#4B575E"/>
  <path d="M55.2128 106.808C55.2128 106.808 55.2128 106.716 55.176 106.698C55.176 106.679 55.1392 106.661 55.1209 106.643C55.0841 106.624 55.0657 106.606 55.0289 106.587C54.9553 106.569 54.8817 106.551 54.8081 106.569C54.7346 106.569 54.661 106.606 54.6242 106.679C54.6242 106.679 54.6058 106.698 54.6058 106.716C54.6058 106.734 54.5874 106.753 54.5874 106.79C54.5874 106.808 54.5874 106.845 54.5874 106.863C54.5874 106.863 54.5874 106.881 54.6058 106.881C54.6058 106.9 54.6058 106.918 54.6242 106.955C54.6426 107.01 54.6978 107.047 54.7346 107.065C54.8817 107.139 55.1025 107.12 55.176 106.973C55.176 106.955 55.176 106.918 55.1944 106.9C55.1944 106.881 55.1944 106.845 55.1944 106.826L55.2128 106.808Z" fill="#4B575E"/>
  <path d="M61.0254 106.753C61.0254 106.679 60.9518 106.624 60.8782 106.587C60.8046 106.551 60.7127 106.551 60.6391 106.532C60.5471 106.532 60.4551 106.532 60.3632 106.532C60.216 106.532 60.0872 106.551 59.9401 106.587C59.9217 106.587 59.9033 106.587 59.8665 106.606C59.8665 106.606 59.8481 106.606 59.8297 106.606C59.7377 106.606 59.6458 106.661 59.609 106.734C59.5722 106.808 59.5906 106.9 59.6458 106.955C59.7561 107.102 59.9953 107.102 60.1608 107.12C60.3448 107.12 60.5103 107.12 60.6943 107.065C60.7863 107.047 60.8598 107.01 60.9334 106.973C61.007 106.937 61.0622 106.863 61.0438 106.771L61.0254 106.753Z" fill="white"/>
  <path d="M119.668 153.252C119.595 159.353 118.896 165.492 118.049 171.465C116.559 182.125 114.058 192.62 110.581 202.801C119.024 202.36 127.228 205.889 135.69 205.852C137.75 205.852 139.847 205.613 141.724 204.786C143.655 203.941 145.292 202.544 147.15 201.515C150.976 199.401 155.593 199.052 159.934 199.732C162.786 200.173 165.674 201.055 168.506 200.541C170.659 200.155 171.652 199.677 173.142 198.005C175.368 195.505 178.127 193.483 181.18 192.087C182.247 191.609 184.418 191.002 184.16 189.605C184.032 188.852 181.456 186.959 180.904 186.279C167.439 168.764 157.212 148.786 150.847 127.631C150.001 124.801 149.21 121.915 147.794 119.306C146.653 117.192 145.127 115.317 143.618 113.461C143.158 112.891 142.68 112.303 142.036 111.954C140.583 111.145 138.964 111.77 137.438 111.421C136.058 111.109 135.193 110.135 133.759 109.877C131.349 109.455 128.829 110.41 126.952 111.991C125.058 113.553 123.697 115.648 122.501 117.799C118.509 124.911 117.406 133.053 118.785 141.103C119.466 145.091 119.723 149.172 119.668 153.252V153.252Z" fill="#E4DECF"/>
  <path d="M120.404 214.564C120.22 212.984 120.625 211.256 120.625 209.694C120.625 207.69 120.294 205.632 120.146 203.629C119.834 199.604 119.503 195.56 119.19 191.535C118.969 188.631 118.73 185.727 118.822 182.824C118.969 177.42 120.22 172.109 121.452 166.834C122.17 163.746 121.967 158.876 126.217 159.225C129.289 159.482 135.69 158.913 135.322 163.268C134.991 167.275 133.887 171.19 132.912 175.104C131.312 181.574 130.098 188.154 129.068 194.733C128.13 200.67 128.001 207.176 126.511 212.947C126.29 213.792 126.272 215.226 125.591 215.851C125.205 216.218 124.653 216.347 124.138 216.42C123.476 216.512 123.2 216.329 122.63 216.108C121.967 215.851 121.14 216.237 120.661 215.557C120.514 215.354 120.459 215.097 120.441 214.84C120.441 214.748 120.422 214.656 120.404 214.564V214.564Z" fill="#FCD9BA"/>
  <path d="M136.831 148.767C136.407 152.59 135.984 156.413 135.543 160.236C135.175 163.452 133.998 164.849 130.484 164.886C128.387 164.904 126.309 164.794 124.23 164.536C123.568 164.463 122.85 164.334 122.391 163.856C121.931 163.379 121.839 162.68 121.765 162.019C120.845 153.932 119.907 145.845 118.988 137.758C118.289 131.583 117.571 125.352 118.27 119.177C119.024 112.487 127.854 109.565 133.759 110.925C134.917 111.201 136.996 111.495 137.934 112.267C140.418 114.325 139.645 120.041 139.406 122.798C138.633 131.473 137.769 140.129 136.831 148.786V148.767Z" fill="#FCD9BA"/>
  <path d="M131.202 222.081C130.208 222.338 128.203 222.504 127.449 221.658C126.621 220.739 125.83 219.765 124.745 219.122C123.513 218.369 122.115 217.725 120.753 217.229C120.091 216.972 118.509 216.604 118.546 215.685C118.583 214.674 119.355 214.16 119.815 213.351C120.146 212.781 120.441 212.285 120.993 211.899C121.747 211.421 122.722 211.293 123.586 211.476C124.34 211.642 125.426 212.083 125.886 212.763C126.382 213.535 126.713 214.564 127.136 215.391C128.111 217.266 129.178 219.085 130.576 220.666C130.944 221.089 131.275 221.493 131.202 222.081V222.081Z" fill="#FCD9BA"/>
  <path d="M133.961 222.945C134.09 222.908 134.218 222.835 134.255 222.743C134.31 222.559 134.145 222.412 133.979 222.32C132.949 221.695 131.901 220.831 130.65 220.813C129.988 220.813 129.344 220.96 128.7 221.107C128.203 221.236 127.817 221.493 127.32 221.199C127.044 221.034 126.824 220.776 126.603 220.537C124.727 218.479 121.931 217.394 119.484 216.163C119.098 215.979 118.712 215.777 118.307 215.648C118.105 215.575 117.847 215.538 117.682 215.704C117.571 215.814 117.553 215.998 117.571 216.163C117.663 217.137 118.528 217.909 118.877 218.81C119.245 219.747 119.282 220.795 119.374 221.787C119.411 222.118 119.705 222.283 120.018 222.283C120.459 222.283 120.496 222.081 120.514 221.677C120.588 220.648 120.459 219.6 120.735 218.589C120.827 218.258 121.158 217.836 121.544 217.872C122.023 217.909 122.758 218.534 123.163 218.791C123.66 219.104 124.157 219.435 124.635 219.784C125.536 220.445 126.235 221.309 126.879 222.21C127.008 222.394 127.136 222.522 127.265 222.632L128.424 222.688H128.737L133.556 222.963H133.575C133.575 222.963 133.795 222.963 133.924 222.908L133.961 222.945Z" fill="#42703A"/>
  <path d="M169.923 212.708C169.003 211.421 168.507 209.712 167.752 208.334C166.796 206.588 165.49 204.933 164.386 203.279C162.142 199.916 159.916 196.534 157.672 193.171C156.072 190.745 154.453 188.319 153.11 185.746C150.627 180.949 149.118 175.692 147.628 170.491C146.764 167.44 144.225 163.287 148.107 161.522C150.903 160.254 156.237 156.652 158.04 160.64C159.695 164.316 160.634 168.267 161.682 172.145C163.614 179.276 165.766 186.352 168.194 193.318C169.408 196.81 170.696 200.265 172.075 203.702C172.958 205.908 176.38 210.778 174.099 212.542C173.565 212.947 173.234 212.928 172.627 213.002C171.928 213.094 171.395 213.829 170.64 213.48C170.42 213.369 170.236 213.167 170.088 212.965C170.033 212.892 169.978 212.818 169.923 212.744V212.708Z" fill="#FCD9BA"/>
  <path d="M155.409 149.135C156.311 152.884 157.194 156.615 158.058 160.364C158.794 163.507 158.15 165.216 154.857 166.448C152.908 167.165 150.884 167.753 148.861 168.212C148.217 168.359 147.5 168.488 146.911 168.194C146.322 167.9 145.991 167.275 145.697 166.668C142.11 159.372 138.504 152.057 134.917 144.761C132.177 139.192 129.417 133.549 128.001 127.503C126.474 120.941 133.795 115.226 139.811 114.509C140.988 114.38 143.048 113.957 144.188 114.38C147.224 115.483 148.419 121.125 149.118 123.79C151.307 132.226 153.423 140.662 155.446 149.135H155.409Z" fill="#FCD9BA"/>
  <path d="M183.002 214.049C182.266 214.748 180.592 215.869 179.525 215.501C178.348 215.097 177.189 214.638 175.938 214.582C174.503 214.527 172.958 214.638 171.523 214.858C170.824 214.968 169.261 215.391 168.856 214.582C168.396 213.682 168.819 212.855 168.838 211.936C168.838 211.274 168.875 210.704 169.15 210.098C169.592 209.308 170.365 208.719 171.211 208.462C171.946 208.242 173.124 208.095 173.841 208.462C174.651 208.885 175.442 209.638 176.214 210.153C177.962 211.311 179.801 212.395 181.788 213.094C182.303 213.277 182.799 213.48 183.02 214.031L183.002 214.049Z" fill="#FCD9BA"/>
  <path d="M185.834 213.461C185.926 213.369 186.018 213.241 186 213.149C185.963 212.965 185.742 212.91 185.54 212.91C184.344 212.855 182.983 212.616 181.898 213.204C181.328 213.516 180.831 213.958 180.334 214.399C179.966 214.748 179.764 215.171 179.175 215.152C178.844 215.152 178.55 215.024 178.237 214.913C175.607 214.031 172.627 214.435 169.904 214.546C169.481 214.564 169.04 214.582 168.617 214.674C168.396 214.711 168.157 214.803 168.102 215.024C168.047 215.189 168.12 215.354 168.231 215.483C168.782 216.292 169.923 216.549 170.659 217.156C171.45 217.799 171.983 218.699 172.535 219.526C172.719 219.802 173.068 219.802 173.344 219.655C173.731 219.453 173.657 219.251 173.491 218.883C173.068 217.946 172.443 217.1 172.185 216.071C172.112 215.74 172.185 215.207 172.553 215.06C172.995 214.858 173.933 215.06 174.411 215.06C175 215.097 175.588 215.134 176.177 215.207C177.281 215.354 178.311 215.759 179.304 216.237C179.507 216.328 179.691 216.384 179.856 216.42C179.856 216.42 180.905 215.924 180.905 215.906L181.18 215.777L185.522 213.663C185.522 213.663 185.706 213.535 185.798 213.443L185.834 213.461Z" fill="#42703A"/>
  <path d="M127.541 69.664C129.013 71.5938 131.128 72.9171 132.637 74.8285C133.556 75.9863 134.568 77.0523 135.672 78.0448C139.351 81.353 145.274 83.9077 149.928 80.9303C151.05 80.2135 151.988 79.2211 153.165 78.6329C155.189 77.6221 157.672 77.9529 159.714 76.9972C163.65 75.1593 165.251 69.0758 164.313 65.1979C164.037 64.04 163.724 62.827 162.988 61.8897C162.16 60.8421 160.891 60.2723 159.659 59.7944C158.426 59.3166 157.12 58.8755 156.108 58.0301C154.563 56.7435 154.968 55.5489 154.784 53.8764C154.619 52.351 153.515 50.6417 152.356 49.7044C149.873 47.6827 146.102 48.0319 143.508 46.1572C141.54 44.7237 140.767 42.3528 139.682 40.2943C138.541 38.1624 136.647 36.4715 134.421 35.5342C132.49 34.7255 129.969 35.5709 128.148 36.4164C124.267 38.2175 121.453 41.9117 120.974 46.194C120.79 47.7746 121.158 49.3919 121.085 50.9909C121.048 51.8547 120.882 52.7185 120.864 53.5823C120.809 56.67 122.685 58.8939 123.678 61.6507C124.709 64.5179 125.665 67.2379 127.541 69.7007V69.664Z" fill="#B36332"/>
  <path d="M144.722 97.5817C144.041 95.2291 143.913 92.7664 143.802 90.3403C143.637 86.2602 143.526 82.1801 143.508 78.0999C143.508 76.0598 143.508 74.0198 143.545 71.9797C143.581 69.9764 143.25 68.065 143.048 66.0984C142.938 64.9222 143.324 63.8011 144.74 63.9113C145.439 63.9665 146.065 64.3524 146.561 64.8303C148.419 66.5947 148.824 69.3515 149.137 71.8878C149.633 75.7842 150.682 79.8459 150.682 83.7423C150.682 87.9327 151.933 92.2701 153.018 96.2768C153.441 97.8573 153.772 99.346 153.092 100.89C152.779 101.588 152.245 102.195 151.62 102.636C150.296 103.592 148.971 104.014 147.775 102.856C146.304 101.423 145.311 99.5666 144.74 97.6L144.722 97.5817Z" fill="#FCD9BA"/>
  <path d="M148.842 95.1741C147.923 95.6335 147.15 96.4422 146.672 97.306C144.777 100.743 148.603 104.492 150.921 106.624C156.973 112.23 163.356 117.468 169.794 122.632C170.75 123.386 172.057 124.139 173.013 123.018C173.694 122.228 174.025 120.923 173.307 120.078C170.051 116.181 166.63 112.377 163.632 108.297C160.652 104.272 157.359 100.449 153.864 96.8649C153.128 96.093 152.337 95.3211 151.326 94.9719C150.461 94.6778 149.615 94.8065 148.879 95.1741H148.842Z" fill="#FCD9BA"/>
  <path d="M174.724 119.894C175.809 119.876 176.894 119.986 177.924 120.39C178.697 120.703 179.396 121.18 180.04 121.713C180.279 121.916 182.431 123.625 181.603 123.882C181.475 123.919 181.346 123.882 181.217 123.864C180.96 123.809 180.72 123.735 180.463 123.68C180.463 123.845 180.334 123.974 180.169 124.011C180.003 124.048 179.856 123.974 179.709 123.919C179.157 123.662 178.679 123.22 178.108 123C177.759 122.853 177.391 122.798 177.005 122.743C176.159 122.614 175.165 122.357 174.337 122.632C174.227 122.669 174.117 122.724 174.062 122.816C174.006 122.945 174.062 123.092 174.172 123.22C174.65 123.882 175.276 124.158 176.048 124.286C176.324 124.323 177.336 124.415 177.465 124.728C177.667 125.242 174.558 125.591 174.172 125.518C173.473 125.371 172.829 125.003 172.24 124.599C171.836 124.323 171.431 124.029 171.082 123.662C170.456 123.018 169.776 122.044 170.383 121.18C170.824 120.556 171.67 120.225 172.388 120.114C173.16 120.004 173.951 119.912 174.742 119.894H174.724Z" fill="#FCD9BA"/>
  <path d="M150.259 67.8261C151.16 68.8737 152.006 69.9764 152.871 71.0608C153.588 71.9798 154.306 72.8987 154.821 73.9279C155.409 75.0858 155.74 76.3723 156.329 77.5302C156.771 78.394 157.378 79.1659 158.095 79.8276C158.224 79.9562 158.371 80.0849 158.408 80.2687C158.408 80.3973 158.389 80.526 158.334 80.6363C157.709 82.2536 156.219 83.9077 154.637 84.6796C152.871 85.5618 150.811 85.5435 149.082 86.5175C147.849 87.2159 146.893 88.3738 145.586 88.962C144.115 89.6052 142.312 89.4766 141.043 90.4506C141.098 90.3955 141.282 89.1825 141.374 88.9436C141.576 88.4473 141.797 88.0246 141.944 87.4916C143.14 83.1909 143.986 78.7616 144.207 74.2955C144.317 72.0716 144.244 69.8478 144.005 67.6239C143.876 66.4661 143.692 63.1395 145.826 63.746C146.267 63.8746 146.617 64.1503 146.966 64.4444C148.162 65.4552 149.229 66.5947 150.259 67.7893V67.8261Z" fill="#FFFDF8"/>
  <path d="M156.863 152.259C155.943 154.024 154.692 155.604 153.864 157.405C151.51 162.588 153.036 168.837 150.958 174.149C148.419 180.655 141.153 184.202 137.934 190.414C136.647 192.895 136.003 195.799 133.979 197.71C129.877 201.552 122.998 199.071 117.737 201.074C116.633 201.497 115.603 202.121 114.481 202.526C110.158 204.07 105.467 202.048 101.329 200.063C104.787 178.541 107.491 156.909 109.459 135.203C110.232 126.731 110.912 118.166 113.193 109.951C114.297 105.981 115.695 101.607 117.994 98.133C119.08 96.5157 120.147 94.8248 120.643 92.9318C121.177 90.9101 120.735 89.1824 120.551 87.1791C120.349 84.9737 119.797 82.8049 119.319 80.6362C118.84 78.4675 117.774 75.8025 117.774 73.5787C117.222 71.0424 116.652 68.4877 116.578 65.8779C116.486 62.7351 117.866 58.3425 120.974 56.8722C122.924 55.9532 125.003 56.9089 126.824 57.7176C126.897 57.7544 126.953 57.7727 127.026 57.8095C127.192 57.883 127.376 57.9565 127.541 58.03C129.767 58.949 132.158 59.4452 134.531 59.8312C135.377 59.9598 136.15 60.2171 136.886 60.4928C138.008 60.9155 139.093 61.4485 140.344 61.8161C140.675 61.908 141.006 61.9999 141.337 62.1102C141.705 62.2204 142.073 62.3123 142.441 62.4226C144.906 63.1578 148.217 64.2421 148.18 67.2931C148.18 68.598 147.72 69.8661 147.573 71.1526C147.316 73.4684 147.996 75.7842 147.996 78.1183C147.996 82.8049 145.292 87.0137 144.097 91.535C141.65 100.798 144.704 111.164 147.904 119.894C148.346 121.07 148.787 122.265 149.266 123.441C151.215 128.348 153.331 133.182 155.189 138.126C156.145 140.662 157.028 143.217 157.782 145.808C158.518 148.363 158.058 149.888 156.807 152.259H156.863Z" fill="#FFFDF8"/>
  <path d="M141.356 65.5655C141.19 66.6315 140.951 67.6607 140.712 68.598C140.399 69.8845 139.976 71.1343 139.461 72.3657C139.332 72.6782 137.806 75.4901 137.861 75.5453C133.667 70.9322 129.988 65.8595 126.879 60.4377C126.603 59.9415 125.904 58.5815 126.291 58.0301C126.401 57.8831 126.603 57.7728 126.861 57.7177C126.934 57.7544 126.99 57.7728 127.063 57.8095C127.229 57.8831 127.413 57.9566 127.578 58.0301C129.804 58.949 132.195 59.4453 134.568 59.8312C135.414 59.9599 136.187 60.2172 136.923 60.4929C138.045 60.9156 139.13 61.4486 140.381 61.8162C140.712 61.9081 141.043 62 141.374 62.1102C141.65 63.213 141.521 64.4627 141.356 65.5839V65.5655Z" fill="#FCD9BA"/>
  <path d="M107.27 53.6007C107.473 54.9608 108.135 56.1921 108.65 57.4603C109.496 59.5555 109.938 61.8161 109.919 64.0767C109.919 65.6022 109.717 67.1828 110.25 68.598C110.637 69.6456 111.391 70.491 112.016 71.41C112.991 72.8251 113.727 74.3874 114.739 75.7842C115.75 77.181 117.112 78.4307 118.785 78.7799C118.215 73.8727 119.245 68.8737 118.583 63.9665C118.289 61.7242 117.627 59.5555 116.983 57.4052C116.431 55.604 115.861 53.7845 115.015 52.112C114.536 51.1747 113.948 50.2741 113.157 49.5941C112.255 48.8038 109.625 47.021 108.503 48.1421C108.025 48.6016 107.804 49.686 107.62 50.2925C107.289 51.3585 107.105 52.498 107.27 53.6191V53.6007Z" fill="#E4DECF"/>
  <path d="M100.611 43.4924C101.347 45.8265 102.616 47.9401 103.886 50.0169C106.019 53.5089 108.208 56.9458 110.471 60.3459C111.593 62.0551 112.733 63.746 113.911 65.4185C115.051 67.0359 115.861 68.5981 116.707 70.4176C116.891 70.8219 117.111 71.263 117.479 71.5203C118.326 72.1268 119.521 71.5571 120.331 70.8954C122.428 69.1311 123.826 66.5948 124.304 63.893C124.525 62.6617 124.764 60.8421 124.267 59.6475C123.715 58.3058 122.041 57.0744 121.03 56.0636C117.921 52.9759 115.051 49.6309 112.476 46.0838C111.17 44.2827 109.919 42.4264 108.76 40.5333C107.84 39.0079 107.307 37.0965 105.725 36.104C105.063 35.6997 104.29 35.4975 103.518 35.4791C101.899 35.424 100.538 35.8099 100.207 37.4457C99.7835 39.4674 99.9859 41.5442 100.611 43.4924V43.4924Z" fill="#FCD9BA"/>
  <path d="M105.376 43.1982C104.364 43.3269 103.26 43.0879 102.377 42.6285C98.8822 40.8457 99.9859 35.5893 100.703 32.52C102.598 24.4884 104.971 16.6038 107.454 8.7192C107.822 7.56133 108.503 6.20128 109.901 6.60562C110.912 6.89968 111.906 7.78187 111.795 8.88461C111.262 13.9205 110.544 18.9931 110.324 24.0657C110.103 29.0648 109.478 34.0822 108.595 39.0078C108.411 40.0554 108.19 41.1398 107.528 41.9852C106.976 42.702 106.203 43.0696 105.376 43.1798V43.1982Z" fill="#FCD9BA"/>
  <path d="M107.748 3.64662C108.19 2.65415 108.834 1.66169 109.827 1.23897C110.526 0.944906 111.298 0.963285 112.053 1.0368C112.678 1.09194 113.285 1.18383 113.892 1.31249C114.15 1.36762 114.407 1.44114 114.573 1.62493C114.812 1.91899 114.702 2.36009 114.518 2.69091C114.131 3.40769 113.487 3.94068 113.101 4.65746C112.549 5.68669 112.623 6.93646 112.476 8.11272C112.384 8.90301 112.163 9.69331 111.869 10.4285C111.685 10.8879 111.446 11.329 111.078 11.6782C110.507 12.1929 109.698 12.3766 108.926 12.3031C108.318 12.248 107.141 12.0458 106.847 11.4577C106.516 10.7961 106.589 9.58304 106.608 8.84788C106.608 7.04674 107.012 5.26397 107.748 3.62824V3.64662Z" fill="#FCD9BA"/>
  <path d="M111.17 1.2573C110.839 1.34919 110.581 1.53298 110.342 1.77191C110.084 2.01084 109.845 2.26814 109.643 2.54383C109.22 3.0952 108.87 3.7017 108.613 4.34497C108.594 4.41849 108.76 4.41848 108.778 4.36335C109.017 3.75684 109.349 3.16871 109.735 2.6541C109.937 2.39679 110.14 2.15787 110.379 1.91894C110.618 1.68001 110.875 1.44109 111.206 1.34919C111.317 1.31243 111.243 1.23892 111.151 1.2573H111.17Z" fill="#DEA978"/>
  <path d="M112.825 1.38599C111.556 1.97411 110.857 3.22389 110.195 4.40014C110.158 4.45528 110.342 4.47366 110.36 4.41852C110.986 3.27902 111.685 2.04763 112.899 1.47788C113.009 1.42274 112.88 1.36761 112.807 1.40437L112.825 1.38599Z" fill="#DEA978"/>
  <path d="M114.113 1.86379C113.119 2.48868 112.549 3.53628 112.034 4.54712C111.997 4.60226 112.181 4.62064 112.2 4.5655C112.715 3.59142 113.267 2.54381 114.242 1.93731C114.334 1.88217 114.168 1.84541 114.113 1.86379V1.86379Z" fill="#DEA978"/>
  <path d="M122.041 55.5489C119.613 52.2223 116.468 49.3184 113.561 47.1313C114.113 47.5541 114.131 49.0428 114.168 49.6676C114.223 50.7888 114.095 51.8915 113.764 52.9575C113.432 54.0235 112.881 55.0527 112.77 56.1554C112.623 57.589 113.193 58.9674 113.598 60.3459C114.334 62.9189 114.463 65.6574 113.984 68.2856C113.819 69.2229 113.561 70.1602 113.616 71.116C113.672 72.0717 114.021 72.9906 114.444 73.8544C115.29 75.6004 116.468 77.3281 118.326 78.0816C118.933 78.3205 119.54 78.5594 120.165 78.8168C120.588 78.3757 121.103 77.6405 121.637 77.3464C122.023 77.1259 122.538 77.1626 122.979 77.034C123.862 76.8134 124.377 76.354 124.617 75.4534C125.352 72.8068 125.849 70.1235 126.07 67.385C126.419 63.1762 124.672 59.0961 122.06 55.5306L122.041 55.5489Z" fill="#FFFDF8"/>
  <path d="M147.536 74.7917L147.224 70.4543C147.224 70.3256 146.856 70.3256 146.874 70.4543C146.966 71.7408 147.058 73.0273 147.15 74.2955C147.242 75.5636 147.352 76.8318 147.389 78.0999C147.426 79.313 147.371 80.526 147.15 81.7206C146.948 82.8785 146.617 84.018 146.212 85.1207C145.771 86.3705 145.237 87.5835 144.704 88.7965C144.648 88.9252 144.998 88.9619 145.053 88.8333C146.028 86.6829 146.948 84.4775 147.426 82.1617C147.665 80.9854 147.776 79.7724 147.776 78.5778C147.776 77.3096 147.647 76.0231 147.555 74.755L147.536 74.7917Z" fill="#E4DECF"/>
  <path d="M150.075 69.3883L148.604 74.1852C148.456 74.6447 148.328 75.0858 148.18 75.5453C148.144 75.6923 148.493 75.7107 148.53 75.582L150.002 70.7851C150.149 70.3256 150.277 69.8845 150.425 69.425C150.461 69.278 150.112 69.2596 150.075 69.3883Z" fill="#E4DECF"/>
  <path d="M120.643 62.533C118.877 62.1286 117.461 60.934 116.228 59.6658C115.879 59.2983 115.529 58.9307 115.18 58.5447C115.106 58.4528 114.757 58.5263 114.886 58.655C116.1 59.9967 117.387 61.3751 119.024 62.2021C119.484 62.4227 119.963 62.6065 120.459 62.7168C120.533 62.7168 120.643 62.7351 120.698 62.68C120.754 62.6249 120.698 62.5697 120.625 62.5513L120.643 62.533Z" fill="#E4DECF"/>
  <path d="M119.356 68.3774C119.356 68.3774 119.172 68.3223 119.116 68.3591C118.049 68.6899 116.909 68.7083 115.842 68.4326C115.769 68.4142 115.658 68.4326 115.603 68.4693C115.548 68.5245 115.603 68.5796 115.677 68.598C116.872 68.9104 118.123 68.8921 119.3 68.5245C119.356 68.5061 119.411 68.451 119.356 68.3958V68.3774Z" fill="#E4DECF"/>
  <path d="M123.715 72.0716C123.145 73.1927 122.593 74.3322 122.023 75.4534C121.747 76.0231 121.452 76.5745 121.176 77.1442C121.029 77.4199 120.9 77.714 120.753 77.9897C120.68 78.1183 120.625 78.2653 120.551 78.394C120.496 78.5043 120.441 78.6145 120.349 78.6881C120.238 78.7983 120.109 78.78 119.962 78.7432C119.797 78.6881 119.631 78.6329 119.466 78.5778C119.135 78.4675 118.803 78.3572 118.454 78.247C118.38 78.2286 118.27 78.247 118.215 78.2837C118.16 78.3389 118.215 78.394 118.288 78.4124C118.601 78.5227 118.932 78.6145 119.245 78.7248C119.539 78.8167 119.87 78.9637 120.183 78.9454C120.459 78.9454 120.661 78.78 120.79 78.5594C120.956 78.2837 121.084 77.9897 121.213 77.714C121.82 76.5193 122.409 75.3063 123.016 74.1117C123.347 73.4317 123.696 72.77 124.028 72.09C124.083 71.9613 123.733 71.943 123.678 72.0532L123.715 72.0716Z" fill="#E4DECF"/>
  <path d="M121.269 92.0497C122.17 92.2886 123.071 92.5275 123.973 92.7665C124.433 92.8767 124.874 92.987 125.334 93.0973C125.776 93.2076 126.254 93.2627 126.677 93.4097C127.1 93.5384 127.56 93.5935 128.02 93.667C128.535 93.7589 129.031 93.8508 129.546 93.9243C130.944 94.1265 132.361 94.2368 133.777 94.2552C134.495 94.2552 135.212 94.2735 135.948 94.3103C136.665 94.3471 137.383 94.4022 138.1 94.4573C139.7 94.586 141.319 94.7698 142.92 94.9903C142.993 94.9903 143.103 94.9903 143.14 94.9168C143.177 94.8433 143.067 94.8065 143.011 94.7882C141.595 94.586 140.16 94.439 138.725 94.3103C137.291 94.1816 135.856 94.0714 134.421 94.053C133.704 94.053 132.986 94.053 132.269 93.9979C131.588 93.9611 130.908 93.8876 130.227 93.7957C129.234 93.667 128.259 93.5016 127.284 93.2995C127.873 92.6562 128.443 92.0129 129.013 91.3513C129.914 90.2853 130.779 89.2009 131.588 88.0614C132.416 86.9219 133.189 85.7641 133.924 84.5694C134.66 83.3932 135.359 82.1802 136.003 80.9304C136.647 79.6806 137.254 78.4308 137.806 77.1443C137.879 76.9789 137.935 76.8319 138.008 76.6665C138.063 76.5378 137.714 76.501 137.659 76.6113C137.125 77.8978 136.536 79.166 135.893 80.3974C135.267 81.6472 134.587 82.8602 133.851 84.0548C133.133 85.2494 132.361 86.4073 131.57 87.5285C130.761 88.6679 129.914 89.7707 129.013 90.855C128.351 91.6637 127.652 92.454 126.953 93.2076C126.658 93.1524 126.364 93.0789 126.088 93.0238C124.543 92.6746 123.016 92.2702 121.49 91.8475C121.416 91.8291 121.306 91.8291 121.25 91.8843C121.195 91.9394 121.25 91.9945 121.306 92.0129L121.269 92.0497Z" fill="#E4DECF"/>
  <path d="M146.617 117.247C145.531 115.483 144.06 113.994 142.312 112.873C141.393 112.285 140.418 111.789 139.608 111.053C138.891 110.392 138.339 109.583 137.842 108.719C137.346 107.856 136.923 106.937 136.426 106.073C135.929 105.191 135.341 104.364 134.66 103.628C133.961 102.875 133.189 102.195 132.342 101.625C131.478 101.037 130.521 100.596 129.62 100.044C129.16 99.7688 128.737 99.4747 128.351 99.1071C128.001 98.7579 127.688 98.372 127.413 97.9493C126.953 97.2325 126.622 96.4606 126.327 95.6703C126.989 95.9092 127.67 96.1297 128.369 96.2951C129.822 96.6443 131.312 96.773 132.784 96.8465C134.292 96.92 135.819 96.9752 137.346 97.0487L141.963 97.2509C142.147 97.2509 142.349 97.2509 142.533 97.2692C142.588 97.2692 142.717 97.2509 142.717 97.1773C142.717 97.1038 142.588 97.0854 142.533 97.0854L137.916 96.8833C136.389 96.8098 134.862 96.7546 133.336 96.6811C131.846 96.6076 130.356 96.5157 128.903 96.2033C127.56 95.9092 126.272 95.3946 124.984 94.9535C123.715 94.5124 122.391 94.1264 121.03 94.0713C120.864 94.0713 120.698 94.0713 120.515 94.0713C120.459 94.0713 120.331 94.0897 120.331 94.1632C120.331 94.2367 120.459 94.2551 120.515 94.2551C121.876 94.2183 123.182 94.5675 124.451 94.9902C124.929 95.1557 125.408 95.3211 125.867 95.4865C126.438 97.0671 127.173 98.5925 128.553 99.6401C129.399 100.283 130.374 100.724 131.294 101.257C132.177 101.772 133.005 102.397 133.74 103.114C134.476 103.831 135.138 104.639 135.69 105.521C136.224 106.367 136.647 107.249 137.125 108.131C137.585 108.995 138.082 109.84 138.744 110.594C139.443 111.403 140.326 111.972 141.227 112.524C141.687 112.799 142.147 113.075 142.588 113.388C143.011 113.682 143.416 114.013 143.784 114.343C144.557 115.042 145.237 115.814 145.826 116.659C145.973 116.861 146.102 117.082 146.23 117.302C146.304 117.413 146.654 117.376 146.58 117.247H146.617Z" fill="#E4DECF"/>
  <path d="M138.155 145.588C138.155 145.312 138.118 145.036 138.1 144.779C138.1 144.65 137.732 144.65 137.75 144.779C137.897 146.911 137.989 149.061 138.026 151.193C138.045 153.325 138.026 155.457 137.897 157.589C137.787 159.721 137.621 161.871 137.382 163.985C137.143 166.117 136.849 168.231 136.481 170.344C136.113 172.458 135.69 174.553 135.193 176.63C135.138 176.905 135.065 177.163 134.991 177.438C134.954 177.586 135.304 177.604 135.34 177.494C135.856 175.435 136.297 173.34 136.683 171.245C137.07 169.131 137.401 166.999 137.64 164.867C137.897 162.735 138.081 160.603 138.21 158.471C138.339 156.321 138.394 154.171 138.394 152.02C138.394 149.888 138.32 147.738 138.173 145.606L138.155 145.588Z" fill="#E4DECF"/>
  <path d="M118.123 154.042C117.774 156.284 117.369 158.527 116.927 160.769C116.486 163.011 115.989 165.216 115.456 167.44C115.143 168.69 114.83 169.921 114.499 171.171C114.463 171.318 114.812 171.337 114.849 171.226C115.437 169.021 115.989 166.797 116.486 164.573C116.983 162.349 117.442 160.125 117.847 157.883C118.086 156.615 118.289 155.347 118.491 154.06C118.509 153.932 118.16 153.913 118.141 154.06L118.123 154.042Z" fill="#E4DECF"/>
  <path d="M138.634 63.4335C138.247 63.6357 137.695 63.4703 137.272 63.507C135.911 63.5806 134.55 63.5989 133.189 63.6357C132.159 63.6541 130.963 63.8011 129.951 63.507C129.675 63.4335 129.234 63.4519 129.013 63.3416C128.958 63.3233 128.903 63.2681 128.847 63.213C128.535 63.0843 128.259 62.8822 128.112 62.5881C127.965 62.2757 127.983 61.8897 128.038 61.5405C128.167 60.6767 128.461 59.8496 128.553 58.9858C128.645 58.0669 128.7 57.1479 128.7 56.2473C128.7 55.5122 128.664 54.7954 128.59 54.0602C128.535 53.5273 128.314 52.7921 128.755 52.3694C129.179 51.9834 129.988 52.1304 130.521 52.0753C131.533 51.9467 132.618 51.7261 133.63 51.7445C133.924 51.7445 134.219 51.8364 134.513 51.9283C134.679 51.9834 134.863 52.0202 135.028 52.0569C135.102 52.0569 135.194 52.0937 135.267 52.1121C135.433 52.1488 135.598 52.1856 135.746 52.2407C135.819 52.2591 135.893 52.2775 135.966 52.2959C136.095 52.3326 136.242 52.3878 136.371 52.4245C136.537 52.4796 136.684 52.5348 136.794 52.5899C136.96 52.6818 137.07 52.8105 137.18 53.0862C137.53 54.0602 137.585 55.2733 137.787 56.3025C137.879 56.762 137.953 57.2214 138.045 57.6625C138.321 59.0961 138.578 60.5113 138.854 61.9448C138.946 62.4594 139.185 63.1762 138.615 63.4519L138.634 63.4335Z" fill="#FCD9BA"/>
  <path d="M138.082 57.6625C137.456 58.1403 136.647 58.4344 135.911 58.5263C134.44 58.6917 132.894 58.1587 131.828 57.1111C131.478 56.7803 131.073 56.284 130.779 55.7694C130.54 55.3283 130.356 54.8689 130.356 54.4461C130.356 53.6007 131.257 53.1596 131.864 52.7737C132.637 52.2774 133.612 52.0385 134.532 51.9282C134.697 51.9834 134.881 52.0201 135.047 52.0569C135.12 52.0569 135.212 52.0936 135.286 52.112C135.451 52.1488 135.617 52.1855 135.764 52.2407C135.838 52.259 135.911 52.2774 135.985 52.2958C136.114 52.3326 136.261 52.3877 136.389 52.4245C136.537 52.4796 136.665 52.5347 136.813 52.5899C136.978 52.6818 137.088 52.8104 137.199 53.0861C137.548 54.0602 137.604 55.2732 137.806 56.3024C137.898 56.7619 137.971 57.2214 138.063 57.6625H138.082Z" fill="#DEA978"/>
  <path d="M128.13 53.2332C129.289 54.6483 130.742 55.8797 132.453 56.6333C134.164 57.3868 136.923 57.2398 138.284 55.7327C139.241 54.6667 139.866 53.564 140.16 52.1304C140.252 51.6342 140.308 51.1196 140.344 50.6233C140.473 49.153 140.455 47.6459 140.142 46.194C140.032 45.661 139.884 45.128 139.719 44.595C139.351 43.4555 138.873 42.3528 138.303 41.3236C137.824 40.4597 137.383 39.5592 136.647 38.8975C135.267 37.611 133.446 36.7288 131.533 36.7839C130.705 36.8023 129.914 37.0412 129.142 37.3169C128.424 37.5742 127.689 37.8867 127.1 38.3829C126.548 38.8424 126.107 39.4305 125.72 40.037C125.095 41.0479 124.617 42.1506 124.433 43.3085C124.138 45.128 124.837 46.7086 125.426 48.3995C126.033 50.1639 126.971 51.7812 128.167 53.2332H128.13Z" fill="#FCD9BA"/>
  <path d="M134.881 46.2676C134.881 46.2676 134.863 46.2676 134.844 46.2676C134.568 46.3595 134.826 47.0763 134.881 47.26C134.991 47.646 135.175 48.0136 135.396 48.3628C135.672 48.8039 136.021 49.1715 136.297 49.5942C136.628 50.1272 136.003 50.6234 135.58 50.8807C135.359 51.0094 135.58 51.1196 135.745 51.0277C136.132 50.8072 136.61 50.4396 136.739 49.9801C136.794 49.7412 136.702 49.539 136.573 49.3553C136.408 49.1163 136.205 48.8958 136.04 48.6752C135.782 48.326 135.562 47.9584 135.396 47.5541C135.304 47.3519 135.23 47.1498 135.194 46.9292C135.157 46.7454 135.175 46.4514 135.028 46.3227C134.991 46.286 134.936 46.2676 134.899 46.286L134.881 46.2676Z" fill="#DEA978"/>
  <path d="M139.056 44.3745C139.056 44.3745 139.093 44.3929 139.112 44.3929C139.13 44.3929 139.24 44.4848 139.259 44.4297C139.259 44.3929 139.259 44.3561 139.24 44.3194C139.13 44.1172 138.964 43.9886 138.799 43.8599C138.431 43.6026 138.081 43.4372 137.658 43.4188C137.162 43.3821 136.683 43.4739 136.187 43.6026C135.929 43.6761 135.359 43.8415 135.617 44.3194C135.709 44.4848 135.892 44.5032 136.04 44.4664C136.224 44.4297 136.408 44.3745 136.591 44.2826C136.831 44.154 137.07 44.0069 137.346 43.9334C137.622 43.8599 137.898 43.8783 138.173 43.9334C138.394 43.9886 138.597 44.0805 138.799 44.1907C138.891 44.2459 138.983 44.301 139.056 44.3378V44.3745Z" fill="#B36332"/>
  <path d="M128.479 47.2049C128.461 46.7455 129.05 46.1389 129.344 45.8449C129.988 45.2016 130.834 44.7973 131.735 44.7238C132.066 44.7054 132.526 44.9811 132.232 45.367C132.14 45.4773 132.011 45.5508 131.882 45.5876C131.588 45.7162 131.257 45.8081 130.926 45.8633C130.484 45.9368 130.006 45.9368 129.602 46.1573C129.362 46.3044 129.178 46.5065 129.013 46.7087C128.884 46.8557 128.682 47.1866 128.479 47.1866V47.2049Z" fill="#B36332"/>
  <path d="M131.202 46.874C131.055 46.7821 130.871 46.8373 130.742 46.9475C130.613 47.0211 130.521 47.1313 130.466 47.26C130.393 47.4438 130.411 47.6643 130.485 47.8481C130.54 48.0135 130.65 48.1789 130.797 48.3076C130.963 48.4362 131.184 48.4362 131.368 48.3076C131.368 48.3076 131.368 48.3076 131.386 48.2892C131.404 48.2892 131.441 48.2525 131.46 48.2341C131.46 48.2341 131.496 48.1973 131.515 48.1973C131.552 48.1606 131.57 48.1238 131.607 48.087C131.717 47.8849 131.699 47.646 131.607 47.4438C131.57 47.3151 131.496 47.2049 131.423 47.0946C131.368 47.0027 131.294 46.9108 131.202 46.8557V46.874Z" fill="#1A8B93"/>
  <path d="M137.511 45.7345C137.364 45.6242 137.18 45.661 137.033 45.7529C136.904 45.808 136.794 45.9183 136.739 46.047C136.647 46.2307 136.647 46.4513 136.684 46.6351C136.72 46.8189 136.794 46.9843 136.941 47.1313C137.088 47.2783 137.309 47.2967 137.511 47.2048C137.511 47.2048 137.511 47.2048 137.53 47.2048C137.567 47.2048 137.585 47.1681 137.603 47.1497C137.603 47.1497 137.64 47.1313 137.659 47.1129C137.695 47.0762 137.732 47.0578 137.751 47.021C137.879 46.8373 137.879 46.5799 137.843 46.3778C137.824 46.2491 137.769 46.1205 137.695 46.0102C137.64 45.9183 137.585 45.808 137.493 45.7529L137.511 45.7345Z" fill="#1A8B93"/>
  <path d="M134.016 39.0079C134.366 39.0446 134.734 39.1365 135.083 39.2652C136.61 39.8533 138.045 41.1582 138.836 42.5734C139.038 42.941 139.332 43.2534 139.572 43.6026C139.719 43.8048 140.252 44.3561 140.234 44.5951C140.234 43.9886 140.05 43.235 139.921 42.6285C139.756 41.8934 139.516 41.1766 139.185 40.4966C138.541 39.1365 137.603 37.9235 136.444 36.9862C135.911 36.5451 135.488 36.5634 134.863 36.4532C134.182 36.3429 133.501 36.251 132.821 36.1959C131.938 36.1407 131.018 36.0672 130.153 36.2326C129.307 36.3797 128.516 36.7105 127.725 37.0229C126.971 37.3354 126.18 37.6662 125.61 38.2727C124.856 39.063 124.617 40.1841 124.469 41.2317C124.396 41.7279 124.157 42.0955 124.083 42.5918C124.028 42.9593 124.083 43.3453 124.083 43.7129C124.01 45.8632 122.63 48.0503 121.857 49.9985C121.103 51.9099 120.588 54.0419 121.269 55.9901C121.692 57.1847 122.538 58.1772 123.145 59.2799C124.561 61.7794 124.837 64.7568 124.874 67.624C124.874 68.7083 124.874 69.8294 125.26 70.8403C125.757 72.2003 126.898 73.2296 128.13 74.0015C129.197 74.6631 130.393 75.1961 131.662 75.2145C132.931 75.2329 134.237 74.6631 134.881 73.5788C135.157 73.1009 135.23 72.5863 135.433 72.0901C135.617 71.649 135.948 71.3181 136.187 70.8954C136.702 69.9765 136.831 68.837 136.628 67.8077C136.316 66.3007 135.396 64.9958 134.347 63.8563C133.446 62.8822 132.398 62 131.846 60.787C131.294 59.5556 131.312 58.1588 131.165 56.8355C130.981 55.2549 130.521 53.7111 129.804 52.2775C129.05 50.7337 127.799 49.1531 127.725 47.3703C127.652 45.7162 127.799 43.8415 128.461 42.2977C129.326 40.2944 131.846 38.7138 134.016 38.9711V39.0079Z" fill="#B36332"/>
  <path d="M136.371 52.0937C136.205 52.0385 136.021 52.0202 135.893 52.0018C135.378 51.9466 133.722 51.6342 133.593 52.3877C133.538 52.6634 133.851 52.9207 134.035 53.0678C134.384 53.3435 134.752 53.4905 135.212 53.4721C135.838 53.4721 136.389 53.2332 136.739 52.7186C136.978 52.351 136.702 52.1672 136.371 52.0753V52.0937Z" fill="#E9B8A2"/>
  <path d="M127.376 43.8599C127.265 43.6761 127.136 43.5107 126.953 43.4004C126.732 43.2717 126.456 43.2166 126.253 43.0696C125.978 42.8674 125.812 42.5366 125.536 42.3528C125.168 42.0955 124.69 42.1506 124.267 42.2976C123.844 42.4631 123.421 42.6652 123.016 42.8306C122.667 42.9777 122.409 43.2534 122.354 43.6393C122.354 43.7496 122.354 43.8599 122.299 43.9701C122.225 44.1907 122.078 44.1723 121.931 44.2826C121.82 44.3745 121.71 44.5215 121.636 44.6502C121.452 44.981 121.416 45.4037 121.471 45.7897C121.544 46.2308 121.305 46.8556 121.563 47.2416C121.618 47.3335 121.71 47.407 121.784 47.4989C122.004 47.8297 121.82 48.3076 121.968 48.6935C122.151 49.1898 123.145 49.2817 123.605 49.3736C123.899 49.4471 124.138 49.3736 124.414 49.3C124.8 49.1898 125.389 49.3 125.702 49.0611C125.886 48.9141 125.941 48.6752 126.088 48.5097C126.29 48.2524 126.64 48.1605 126.953 48.0319C127.265 47.9032 127.56 47.6459 127.541 47.3151C127.541 47.1497 127.449 47.021 127.394 46.8556C127.302 46.5616 127.357 46.2308 127.394 45.9367C127.486 45.4772 127.596 45.0361 127.56 44.5766C127.56 44.3193 127.468 44.0804 127.357 43.8599H127.376Z" fill="#E9B8A2"/>
  <path d="M127.265 44.2274C127.265 44.6318 126.99 44.9258 126.769 45.2383C126.732 45.2934 126.695 45.3486 126.658 45.4221C126.272 45.1464 126.033 44.7053 126.033 44.2458C126.033 44.0988 126.033 43.9701 126.015 43.8231C125.978 43.6944 125.886 43.6026 125.849 43.4739C125.775 43.2166 125.831 42.9593 125.72 42.702C125.702 42.6468 125.518 42.6652 125.555 42.7387C125.628 42.8858 125.628 43.0328 125.647 43.1798C125.371 43.1431 125.132 43.2717 124.874 43.382C124.727 43.4555 124.561 43.5107 124.396 43.4555C124.23 43.4004 124.083 43.3085 123.918 43.2901C123.384 43.1798 122.796 43.4188 122.501 43.8782C122.464 43.8782 122.428 43.8782 122.428 43.915C122.336 44.0988 122.207 44.2826 122.06 44.4296C121.949 44.5583 121.821 44.6685 121.729 44.7972C121.637 44.9258 121.563 45.0729 121.581 45.2383C121.581 45.4037 121.673 45.5691 121.729 45.7161C121.802 45.8815 121.876 46.047 121.876 46.2491C121.876 46.4329 121.839 46.6167 121.894 46.7821C121.931 46.9292 122.041 47.021 122.17 47.1129C122.354 47.2232 122.483 47.3335 122.556 47.5357C122.409 47.554 122.262 47.6092 122.115 47.6827C122.078 47.7011 122.097 47.7378 122.115 47.7562C122.152 47.7746 122.207 47.7562 122.244 47.7562C122.538 47.6092 122.869 47.5724 123.182 47.6827C123.458 47.7746 123.678 48.0319 123.991 48.0135C124.304 48.0135 124.561 47.793 124.856 47.7011C125.168 47.5908 125.5 47.5724 125.794 47.7378C125.794 47.7378 125.794 47.7378 125.812 47.7378C125.665 47.8113 125.518 47.8481 125.352 47.9032C125.132 47.9768 124.911 48.0687 124.69 48.1973C124.304 48.4179 123.973 48.7854 123.899 49.2449C123.899 49.3 124.065 49.3 124.083 49.2449C124.157 48.7854 124.488 48.4546 124.874 48.2341C125.095 48.1054 125.334 48.0319 125.573 47.94C125.775 47.8665 125.978 47.793 126.162 47.6643C126.493 47.407 126.585 46.9843 126.603 46.5799C126.603 46.341 126.603 46.0837 126.677 45.8448C126.732 45.6426 126.824 45.4588 126.934 45.2934C127.155 44.9626 127.468 44.6318 127.468 44.2091C127.468 44.1355 127.284 44.1539 127.284 44.2091L127.265 44.2274ZM123.476 43.4371C123.642 43.3269 123.826 43.3636 124.028 43.4371C124.175 43.4923 124.304 43.5658 124.451 43.5658C124.58 43.5658 124.69 43.5474 124.819 43.4923C125.058 43.4004 125.334 43.1798 125.61 43.2534C125.61 43.2534 125.628 43.2534 125.647 43.2534C125.647 43.3452 125.665 43.4188 125.702 43.4923C125.757 43.6393 125.849 43.7496 125.867 43.915C125.867 44.062 125.867 44.2091 125.867 44.3561C125.867 44.3928 125.867 44.448 125.886 44.4847C125.665 44.4847 125.463 44.5766 125.297 44.7237C125.076 44.9258 124.948 45.2015 124.893 45.4956V45.5323C124.819 45.4405 124.617 45.4037 124.488 45.4037C124.433 45.4037 124.157 45.4405 124.138 45.4956C124.194 45.275 124.414 45.1464 124.561 44.9994C124.709 44.8523 124.819 44.595 124.69 44.4112C124.617 44.3193 124.506 44.301 124.451 44.2091C124.377 44.1172 124.396 43.9701 124.322 43.8782C124.194 43.7128 123.973 43.6944 123.77 43.6944C123.605 43.6944 123.421 43.6944 123.274 43.7863C123.292 43.7863 123.311 43.6577 123.329 43.6393C123.347 43.5842 123.366 43.529 123.403 43.4923C123.439 43.4555 123.476 43.4188 123.513 43.4004L123.476 43.4371ZM123.936 45.661C123.862 45.7345 123.789 45.808 123.715 45.8815H123.678C123.495 45.8448 123.311 45.7897 123.145 45.7161C123.053 45.6794 122.998 45.6426 122.979 45.5323C122.979 45.4588 122.979 45.3669 122.979 45.275C122.979 45.2015 123.016 45.1096 123.071 45.0545C123.127 44.9994 123.2 44.9626 123.274 44.9626C123.439 44.9258 123.623 44.9442 123.77 45.0177C123.881 45.0729 123.973 45.2015 123.973 45.3302C123.973 45.4221 123.899 45.6059 123.973 45.6794L123.936 45.661ZM123.936 44.9626C123.752 44.8339 123.513 44.8156 123.311 44.8339C123.108 44.8523 122.887 44.9258 122.814 45.128C122.777 45.2199 122.777 45.3302 122.777 45.4221C122.777 45.5323 122.777 45.6242 122.869 45.6978C122.961 45.7713 123.108 45.8264 123.219 45.8632C123.347 45.8999 123.476 45.9367 123.605 45.9551C123.568 45.9918 123.531 46.0286 123.495 46.0837C123.421 46.1572 123.329 46.2307 123.237 46.2675C123.108 46.3226 122.961 46.3043 122.814 46.2675C122.63 46.2307 122.372 46.1756 122.336 45.9551C122.299 45.7345 122.446 45.5507 122.52 45.3669C122.556 45.275 122.575 45.2015 122.575 45.1096C122.575 44.9994 122.556 44.8891 122.575 44.7788C122.612 44.6134 122.722 44.4847 122.851 44.3745C122.961 44.2642 123.071 44.1539 123.145 44.0253C123.182 44.0253 123.219 44.0253 123.237 44.0069C123.384 43.8047 123.697 43.8231 123.918 43.8599C124.046 43.8966 124.138 43.9701 124.175 44.0988C124.212 44.2274 124.23 44.301 124.341 44.3745C124.451 44.448 124.543 44.5031 124.543 44.6685C124.543 44.8156 124.451 44.9258 124.341 45.0361C124.267 45.1096 124.175 45.1831 124.102 45.2567C124.083 45.1464 124.01 45.0361 123.918 44.9626H123.936ZM123.476 47.6827C123.347 47.6092 123.2 47.554 123.035 47.5357C122.924 47.5173 122.814 47.5173 122.704 47.5357C122.704 47.5357 122.704 47.5357 122.704 47.5173C122.648 47.3519 122.556 47.2232 122.409 47.1313C122.262 47.0394 122.097 46.9659 122.06 46.7637C122.023 46.5983 122.06 46.4329 122.06 46.2491C122.06 46.0837 122.005 45.9183 121.949 45.7713C121.876 45.6059 121.784 45.4405 121.765 45.2567C121.765 45.0729 121.839 44.9258 121.968 44.7788C122.078 44.6502 122.207 44.5215 122.317 44.3929C122.428 44.2642 122.501 44.1355 122.593 43.9885C122.63 43.9885 122.667 43.9885 122.667 43.9518C122.814 43.6761 123.071 43.4739 123.366 43.4004C123.255 43.4739 123.182 43.5842 123.145 43.7312C123.09 43.915 123.016 44.062 122.887 44.1907C122.777 44.3193 122.648 44.4296 122.556 44.5583C122.446 44.7421 122.464 44.9075 122.464 45.1096C122.464 45.4588 121.968 45.9367 122.409 46.2124C122.575 46.3226 122.796 46.3594 122.998 46.3778C123.2 46.3962 123.403 46.3594 123.568 46.2491C123.77 46.1205 123.899 45.9183 124.065 45.7529C124.175 45.6426 124.341 45.514 124.506 45.514C124.653 45.514 124.819 45.5875 124.874 45.7345C124.929 45.8815 124.874 46.1205 124.856 46.2675C124.819 46.6351 124.745 47.021 124.488 47.3151C124.285 47.554 124.028 47.7194 123.715 47.793C123.642 47.7562 123.586 47.7011 123.513 47.6827H123.476ZM126.511 45.7345C126.438 45.9551 126.438 46.194 126.419 46.4145C126.401 46.8556 126.383 47.3702 125.978 47.6276C125.959 47.6276 125.941 47.6459 125.923 47.6643C125.923 47.6643 125.923 47.6643 125.904 47.6459C125.628 47.4805 125.297 47.4621 124.984 47.5357C124.819 47.5724 124.672 47.6276 124.525 47.6827C124.359 47.7562 124.175 47.8849 123.973 47.8849C123.918 47.8849 123.862 47.8849 123.807 47.8481C124.083 47.7746 124.322 47.6276 124.506 47.4254C124.764 47.1681 124.893 46.8189 124.948 46.4697C125.003 46.0653 125.003 45.661 125.132 45.275C125.242 44.9442 125.536 44.5766 125.923 44.5766C126.033 44.9626 126.272 45.2934 126.622 45.4956C126.585 45.5691 126.548 45.6426 126.53 45.7161L126.511 45.7345Z" fill="#6A4839"/>
  <path d="M135.046 68.5246C134.807 67.4402 134.255 66.3926 133.593 65.4921C133.207 64.9774 132.765 64.4812 132.287 64.0585C132.232 64.0034 132.122 64.0034 132.048 64.0217C131.993 64.0401 131.919 64.0952 131.993 64.1504C132.839 64.9039 133.538 65.8045 134.053 66.797C134.531 67.7159 134.899 68.7635 134.807 69.8111C134.77 70.3625 134.587 70.8955 134.2 71.3182C134.09 71.4468 134.421 71.502 134.513 71.4101C135.23 70.6198 135.286 69.4987 135.046 68.5062V68.5246Z" fill="#98491F"/>
  <path d="M131.699 67.0359C131.644 66.9256 131.294 66.944 131.349 67.091C131.735 68.0099 131.441 69.1494 130.742 69.8478C130.54 70.05 130.301 70.197 130.043 70.3073C129.97 70.3441 129.988 70.4176 130.043 70.4544C130.117 70.4911 130.227 70.4911 130.301 70.4544C131.276 70.0316 131.901 68.9657 131.883 67.918C131.883 67.624 131.809 67.3115 131.699 67.0359Z" fill="#98491F"/>
  <path d="M151.915 51.3954C151.289 50.7705 150.517 50.2742 149.67 49.9986C148.714 49.6677 147.721 49.5575 146.727 49.4288C145.624 49.2818 144.502 49.1164 143.508 48.5466C143.435 48.5099 143.324 48.5099 143.251 48.5466C143.195 48.5834 143.177 48.6385 143.251 48.6936C144.998 49.7045 147.077 49.5207 148.99 50.0169C149.854 50.2559 150.664 50.6418 151.344 51.2483C151.988 51.8365 152.522 52.5532 152.871 53.3435C153.257 54.2257 153.441 55.2182 153.331 56.1739C153.331 56.3026 153.681 56.3209 153.681 56.1739C153.865 54.4095 153.147 52.6267 151.915 51.3954V51.3954Z" fill="#98491F"/>
  <path d="M148.051 53.2516C147.794 52.9208 147.481 52.6451 147.15 52.4246C147.04 52.3511 146.727 52.443 146.893 52.5716C148.051 53.3619 148.695 54.7771 148.659 56.1555C148.659 56.5599 148.585 56.9458 148.456 57.3134C148.401 57.4604 148.75 57.4788 148.806 57.3685C149.284 55.9901 148.971 54.4095 148.051 53.27V53.2516Z" fill="#98491F"/>
  <path d="M161.296 68.3408C161.259 67.238 160.854 66.172 160.358 65.1979C160.045 64.6098 159.695 64.0401 159.346 63.4703C159.272 63.3601 158.923 63.3968 158.996 63.5255C160.119 65.3266 161.333 67.3667 160.818 69.5722C160.689 70.1235 160.45 70.6381 160.082 71.0792C159.971 71.2079 160.302 71.2814 160.394 71.1711C161.057 70.3808 161.314 69.3516 161.277 68.3408H161.296Z" fill="#98491F"/>
  <path d="M108.944 5.57637C109.643 5.39258 110.324 5.08014 110.912 4.63904C111.17 4.45525 111.464 4.21633 111.777 4.3266C112.053 4.43687 112.145 4.78608 112.053 5.06176C111.961 5.33745 111.74 5.53961 111.519 5.74178C111.17 6.03585 110.784 6.32991 110.434 6.62398C110.121 6.88128 109.827 7.15697 109.606 7.46941C109.422 7.72672 109.294 8.02078 109.128 8.29647C108.815 8.7927 108.411 9.06838 107.969 9.41758C107.546 9.74841 107.141 10.263 106.902 10.7409C106.865 10.8144 106.829 10.8879 106.755 10.9247C106.7 10.943 106.626 10.943 106.571 10.9247C106.093 10.8695 105.651 10.5938 105.394 10.1895C105.118 9.76679 105.063 9.12352 104.971 8.62729C104.824 7.85537 105.136 6.89966 105.504 6.21964C105.872 5.52124 106.387 4.89635 107.013 4.38174C107.123 4.28984 107.27 4.21633 107.38 4.30822C107.417 4.34498 107.436 4.38174 107.454 4.43687C107.564 4.78608 107.601 5.53961 108.024 5.66827C108.171 5.7234 108.337 5.70503 108.503 5.66827C108.668 5.64989 108.852 5.61313 109.018 5.55799L108.944 5.57637Z" fill="#FCD9BA"/>
</svg>
