<svg width="265" height="114" viewBox="0 0 265 114" fill="none"
  xmlns="http://www.w3.org/2000/svg">
  <g clip-path="url(#clip0_122_960)">
    <path d="M132.26 25.1103C133.01 25.3492 133.733 25.6111 134.483 25.85C139.065 27.3551 144.619 28.7983 149.891 28.1415C136.522 35.3798 122.169 41.8033 106.91 47.3937C106.289 47.6307 105.657 47.8538 105.025 48.0769C103.733 48.5462 102.429 49.0015 101.126 49.4568C86.4135 54.5455 69.0309 59.5474 51.6191 57.8506L51.5542 58.4882C69.0805 60.1831 86.5524 55.1769 101.32 50.042C102.256 49.7062 103.189 49.3958 104.125 49.0599C102.401 51.1492 101.272 53.8875 100.162 56.5631C99.8903 57.2327 99.6076 57.8881 99.3251 58.5437C97.1521 63.5518 93.9124 68.188 89.9736 71.9592L90.4099 72.4128C94.4042 68.5953 97.6769 63.8851 99.8967 58.7913C100.179 58.1358 100.462 57.4801 100.733 56.8106C101.98 53.7875 103.272 50.7042 105.389 48.6138C121.968 42.647 137.479 35.7028 151.857 27.788C152.906 27.2182 153.943 26.6345 154.98 26.0508C169.893 17.6203 183.552 8.1562 195.906 -2.32077C195.189 1.35806 196.636 5.4748 199.666 7.64333L200.036 7.12492C196.995 4.94244 195.655 0.642745 196.71 -2.991C200.242 -6.00263 203.642 -9.09112 206.934 -12.2542C213.759 -18.8024 220.96 -26.8085 222.708 -36.6215L222.095 -36.7185C220.394 -27.1071 213.264 -19.1844 206.523 -12.7056C203.499 -9.81304 200.391 -6.96703 197.19 -4.20722C196.857 -3.92989 196.524 -3.65255 196.188 -3.34971C182.867 8.02662 167.99 18.2245 151.677 27.1912C145.993 28.5171 139.768 26.9327 134.707 25.2661C133.971 25.0157 133.235 24.7653 132.484 24.5265C126.519 22.5161 120.357 20.4355 114.101 21.3979L114.19 22.0244C120.303 21.0872 126.392 23.1351 132.296 25.1267L132.26 25.1103Z" fill="#406A2F"/>
    <path d="M0.770592 47.239C3.48295 50.2787 7.27219 52.0947 10.9547 53.8361C12.5661 54.5948 14.2025 55.3558 15.969 55.5884C17.6991 55.8047 19.4725 55.4714 21.1643 55.0659C21.5406 54.9859 21.9196 54.8803 22.2985 54.7748C23.7336 54.3964 25.1991 53.9694 26.6394 53.54C33.0328 51.5993 39.4479 49.5705 45.6669 51.4633C50.1506 52.8175 53.7918 56.0873 58.0016 58.1364C56.4479 59.8041 54.5898 61.0951 52.5729 62.0748C50.1138 63.2828 47.4247 64.0052 44.7382 64.3288C39.8145 64.9287 34.8254 64.2991 29.9542 63.3845C26.6267 62.7714 23.3233 62.0447 20.1283 60.8777C14.0324 58.6489 8.60914 54.9262 3.24737 51.2221C1.85793 50.2786 0.302638 48.8427 0.773175 47.2135L0.770592 47.239Z" fill="#C3D299"/>
    <path d="M79.5747 55.993C80.1173 59.0193 80.6773 62.1244 80.4299 65.1783C80.4023 65.5749 80.3521 65.9436 80.288 66.3238C80.2828 66.3748 80.2777 66.4259 80.2612 66.463C79.7122 69.8617 77.8449 73.2377 74.7562 74.6433C74.0773 74.952 73.342 75.1911 72.7957 75.6927C72.305 76.1482 72.0111 76.7898 71.706 77.4174C70.1571 80.7853 68.3012 84.1755 65.3559 86.4188C62.3411 88.7199 58.5083 89.5781 54.8342 90.3743C52.6264 90.8593 50.3571 91.3257 48.1127 91.0476C45.8684 90.7695 43.6195 89.5381 42.6877 87.4663C43.3288 88.7764 44.8726 89.4514 46.3304 89.4744C47.7881 89.4973 49.1972 89.0005 50.5811 88.5013C52.7168 87.7261 54.9471 86.8955 56.5597 85.2721C59.4052 82.3883 59.6193 77.9147 60.8742 74.0681C61.1992 73.1204 61.5606 72.1891 62.0035 71.3299C62.5011 70.3085 63.0689 69.3453 63.7208 68.4288C67.4876 62.9801 73.564 59.039 79.5608 56.0046L79.5747 55.993Z" fill="#C3D299"/>
    <path d="M35.5405 18.6032C36.8926 23.0328 38.9938 27.2118 41.7115 30.9473C42.2476 31.668 42.8565 32.4213 43.6691 32.7949C43.7784 32.8439 43.8878 32.893 44.0109 32.9305C45.0464 33.2351 46.152 32.8512 47.2394 32.6457C47.9141 32.5039 48.5922 32.4526 49.2513 32.4639C53.3644 32.4693 57.3027 34.8144 60.5786 37.4313C66.251 41.9505 71.1961 47.7524 73.5026 54.6551C73.611 54.9615 73.7057 55.2796 73.8002 55.5977C73.9235 56.0086 73.9531 56.5909 73.5577 56.7335C72.6218 55.949 71.6305 55.2108 70.6088 54.5211C65.6772 51.2057 60.0227 49.0062 54.6855 46.3088C48.2632 43.0446 41.9048 38.6532 39.0416 31.9807C38.0178 29.5654 37.4841 26.9522 36.1654 24.6891C35.5938 23.6947 34.8521 22.7484 34.5449 21.6504C34.2377 20.5524 34.5226 19.1243 35.5293 18.5892L35.5405 18.6032Z" fill="#B5C780"/>
    <path d="M39.2773 18.3156C38.813 20.7566 41.2727 22.9093 43.7096 23.1672C46.1491 23.3995 48.5284 22.3513 50.8453 21.5418C54.0338 20.4032 57.4209 19.6828 60.7977 19.4378C62.6283 19.2903 64.4547 19.3098 66.268 19.4567C71.7305 19.9255 77.0077 21.7156 81.3366 25.0895C88.8537 30.9432 92.5735 40.4272 95.7121 49.5081C95.9091 50.0676 96.0982 50.7036 95.8398 51.2456C93.9586 49.8947 91.8815 48.847 89.7827 47.8874C87.2971 46.7364 84.7595 45.7222 82.3371 44.4484C81.1316 43.8186 79.9815 43.1424 78.8558 42.3528C74.6137 39.3734 71.425 35.0265 67.1526 32.0958C61.6252 28.2729 54.7524 27.0647 48.113 26.0589C45.899 25.7322 43.587 25.3704 41.7318 24.1378C39.8654 22.8913 38.5485 20.4867 39.2773 18.3156V18.3156Z" fill="#B5C780"/>
    <path d="M82.9865 68.2549C83.7764 67.8537 84.6626 67.629 85.4978 67.6571C86.3329 67.6851 87.1445 67.9426 87.7855 68.5058C88.9998 69.5486 90.1016 71.5722 91.5765 70.9272C89.7225 74.9226 87.8684 78.9182 85.9892 82.9113C85.0418 84.9843 84.0692 87.0549 82.7966 88.9554C82.6752 89.1499 82.5287 89.3419 82.396 89.5224C79.9894 92.8343 76.3731 96.0568 76.8396 100.08C76.8457 100.145 76.863 100.224 76.8691 100.289C77.3398 103.398 80.7892 105.684 83.8068 104.851C81.9061 105.688 79.8276 106.275 77.7767 106.093C75.7257 105.91 73.6737 104.865 72.6518 103.055C71.6524 101.273 71.7612 99.0815 71.9073 97.0223C72.1295 93.5925 72.4313 90.0028 74.2492 87.1113C75.0242 85.8588 76.0854 84.7881 76.824 83.5192C78.0445 81.382 78.3293 78.8338 78.7043 76.3972C79.0792 73.9605 79.6319 71.3992 81.2653 69.5717C81.7387 69.0373 82.3301 68.5915 82.9839 68.2804L82.9865 68.2549Z" fill="#B5C780"/>
    <path d="M72.0216 17.8154C72.3676 17.7839 72.7075 17.6876 73.0613 17.5796C73.6267 17.3888 74.1972 17.147 74.76 16.9816C75.5872 16.7128 76.4015 16.5714 77.1612 16.9656C78.1395 17.458 78.5448 18.5912 79.0965 19.5322C81.2549 23.1501 86.145 24.002 90.3153 23.4463C94.4855 22.8906 98.5557 21.3209 102.749 21.54C103.053 21.5432 103.355 21.5721 103.643 21.6124C103.931 21.6527 104.233 21.6814 104.507 21.7333C104.769 21.7712 105.043 21.823 105.304 21.8864C106.607 22.1779 107.884 22.6086 109.108 23.1759C109.461 23.3254 109.789 23.4724 110.125 23.659C110.512 23.8504 110.899 24.0418 111.283 24.2586C111.668 24.4755 112.04 24.6783 112.411 24.9068C113.513 25.5526 114.596 26.261 115.652 26.9925C120.612 30.4008 125.304 34.1956 129.684 38.3212C128.56 38.5103 127.441 38.6484 126.328 38.7355C125.957 38.7645 125.585 38.7936 125.214 38.8226C124.678 38.8489 124.142 38.875 123.62 38.8897C123.137 38.8952 122.64 38.9122 122.171 38.9062C122.121 38.9014 122.082 38.9107 122.046 38.8943C121.577 38.8883 121.121 38.8706 120.666 38.853C120.426 38.843 120.172 38.8445 119.909 38.8066C119.568 38.7871 119.227 38.7674 118.875 38.7339C118.319 38.7067 117.769 38.6287 117.229 38.5644C116.841 38.5145 116.452 38.4645 116.077 38.4031C115.826 38.3791 115.602 38.3322 115.365 38.2967C115.026 38.2516 114.677 38.1924 114.327 38.1334C113.754 38.0273 113.17 37.9074 112.585 37.7873C104.268 36.0552 96.1812 32.4264 88.5013 28.2955C86.6479 27.2949 84.811 26.2572 82.9992 25.2219C81.3079 24.2496 79.6193 23.2518 78.1379 21.9647C77.1933 21.1407 76.2392 20.1614 75.2417 19.3581C74.2443 18.5549 73.1897 17.9395 71.999 17.7875L72.0216 17.8154Z" fill="#809D4B"/>
    <path d="M71.1585 17.8105C71.4403 17.7859 71.7196 17.7868 71.9962 17.8131C71.7144 17.8378 71.4325 17.8624 71.1585 17.8105Z" fill="#809D4B"/>
    <path d="M149.818 28.8559C150.163 28.5925 150.521 28.3176 150.876 28.0682C151.071 27.9064 151.287 27.7724 151.493 27.6245C151.604 27.5321 151.74 27.4421 151.862 27.3636C151.737 27.4676 151.635 27.5995 151.535 27.7059C151.366 27.8701 151.195 28.0598 151.023 28.2495C150.696 28.5918 150.383 28.9225 150.079 29.2927C146.47 33.443 143.999 38.6288 143.041 44.0488C142.926 44.6816 142.836 45.3169 142.771 45.9545C142.714 46.5157 142.668 47.0908 142.611 47.6519C142.478 48.9528 142.31 50.2373 141.771 51.4093C141.214 52.6439 140.309 53.6779 139.37 54.6701C139.057 55.0009 138.733 55.3177 138.397 55.6206C129.258 64.3305 116.272 68.0512 106.874 76.5563C106.034 77.3261 105.15 78.2721 105.187 79.4088C105.276 82.2759 110.085 81.9355 111.619 84.3222C109.306 83.471 106.81 83.0529 104.339 83.1267C103.476 80.2503 103.7 77.0524 104.969 74.3146C107.122 69.6265 111.911 66.7347 114.822 62.4663C114.849 62.4432 114.866 62.4061 114.882 62.3691C115.884 60.8807 116.637 59.2268 117.58 57.6941C117.778 57.3654 117.988 57.0506 118.198 56.7358C119.529 54.7636 121.129 53.0103 122.856 51.3849C124.406 49.8842 126.084 48.4859 127.738 47.0853C131.608 43.8613 135.47 40.5979 139.34 37.3739C142.797 34.4711 146.24 31.5798 149.841 28.8838L149.818 28.8559Z" fill="#B5C780"/>
    <path d="M98.0099 4.47761C98.5698 7.2093 101.144 9.36035 103.906 9.41736C106.503 9.47156 108.94 7.86213 111.559 7.82825C113.262 7.81018 114.912 8.44377 116.586 8.70627C116.835 8.75573 117.086 8.77957 117.327 8.78957C119.076 8.94328 120.809 8.50329 122.568 8.43899C122.861 8.42828 123.179 8.41988 123.484 8.42312C123.623 8.42354 123.774 8.43795 123.914 8.43837C123.953 8.42921 123.978 8.43149 124.014 8.44784C124.204 8.45305 124.38 8.46994 124.556 8.4867C124.883 8.51784 125.196 8.56055 125.509 8.60324C125.761 8.62719 125.985 8.67414 126.222 8.70965C126.46 8.74516 126.672 8.77833 126.882 8.83694C127.131 8.8864 127.38 8.93579 127.615 8.99681C128.348 9.15673 129.089 9.35614 129.806 9.55313C131.756 10.0994 133.701 10.6967 135.63 11.3311C138.393 12.2509 141.132 13.2845 143.81 14.4152C144.541 14.7166 145.284 15.0319 145.998 15.3704C149.994 17.1544 153.888 19.1864 157.647 21.4244C158.317 21.823 158.985 22.2472 159.667 22.6598C158.917 22.7944 158.155 22.915 157.394 23.0356C153.977 23.5472 150.506 23.8476 147.055 23.828C146.661 23.8291 146.281 23.8186 145.876 23.8058C145.672 23.8121 145.446 23.7906 145.231 23.783C144.762 23.7769 144.295 23.7455 143.829 23.714C143.778 23.7092 143.739 23.7183 143.689 23.7135C143.298 23.6891 142.907 23.6648 142.516 23.6404C142.15 23.6184 141.772 23.5824 141.409 23.535C140.956 23.4918 140.529 23.4511 140.093 23.3709C139.615 23.3254 139.14 23.2544 138.664 23.1834C138.164 23.11 137.677 23.025 137.191 22.9401C136.704 22.8551 136.22 22.7446 135.737 22.6341C135.3 22.554 134.867 22.4483 134.458 22.3451C133.107 22.0232 131.789 21.6272 130.49 21.1687C128.283 20.392 126.121 19.4393 124.054 18.2896C118.397 15.1111 112.726 10.3345 106.315 11.4495C105.746 11.5498 105.161 11.6871 104.614 11.8154C104.096 11.9205 103.594 11.9886 103.074 11.9778C102.845 11.9817 102.619 11.9601 102.395 11.9131C100.874 11.6394 99.8713 10.5138 99.1651 9.09451C99.009 8.75772 98.8667 8.40942 98.7496 8.06347C98.347 6.90484 98.1194 5.64694 97.9709 4.48676L98.0099 4.47761Z" fill="#4F772D"/>
    <path d="M166.015 18.7961C166.015 18.7961 165.952 18.9189 165.921 18.9675C165.874 19.0532 165.828 19.1388 165.792 19.2384C164.149 22.6616 165.65 26.8736 165.258 30.7251C165.078 32.485 164.488 34.1673 163.898 35.8494C163.029 38.2776 162.143 40.7428 161.114 43.1172C160.898 43.6245 160.656 44.1293 160.439 44.6366C160.425 44.6482 160.42 44.6992 160.406 44.7107C159.459 46.7838 158.363 48.817 157.102 50.7314C156.395 51.8102 155.644 52.8332 154.889 53.8817C153.693 55.5318 152.544 57.2123 151.721 59.0653C151.424 59.7325 151.162 60.4414 150.986 61.1716C150.609 62.6294 150.481 64.1365 150.715 65.5753C150.886 66.6474 151.265 67.6622 151.883 68.571C154.478 72.2691 160.227 72.6621 162.589 76.5311C160.009 75.178 157.084 74.6032 154.488 73.2873C148.742 70.3707 145.249 63.8959 144.769 57.3861C144.292 50.8507 146.478 44.3372 149.808 38.6924C152.068 34.8257 154.875 31.3201 157.797 27.9286C158.575 27.024 159.364 26.1335 160.153 25.2429C160.51 24.8519 160.856 24.4471 161.227 24.0446C161.457 23.7832 161.698 23.5356 161.928 23.2742C163.171 21.9118 164.4 20.561 165.619 19.1962C165.702 19.1269 165.762 19.0296 165.848 18.9348C165.904 18.8885 165.948 18.8283 165.992 18.7682L166.015 18.7961Z" fill="#4F772D"/>
    <path d="M183.106 7.17388C183.728 10.2977 184.037 13.495 183.813 16.6929C183.613 19.6612 182.937 22.5584 182.088 25.4135C181.505 27.3925 180.836 29.3504 180.17 31.2828C179.449 33.3775 178.714 35.4837 177.774 37.4803C177.37 38.3303 176.955 39.1663 176.467 39.9697C176.269 40.2985 176.059 40.6132 175.835 40.9396C174.306 43.2405 172.468 45.3319 171.059 47.6958C169.463 50.4025 168.475 53.7464 169.509 56.6906C167.486 52.4932 167.93 47.5008 168.981 42.9137C170.018 38.3382 171.656 33.8458 171.905 29.1566C172.023 27.0045 171.838 24.8236 172.269 22.7142C172.653 20.8064 173.475 19.0947 174.527 17.4952C175.606 15.8725 176.915 14.3618 178.272 12.8814C178.574 12.5367 178.9 12.1944 179.202 11.8497C180.576 10.3323 181.963 8.80333 183.095 7.15992L183.106 7.17388Z" fill="#4F772D"/>
    <path d="M143.861 14.4199C144.483 14.0414 145.038 13.5793 145.478 13.0031C145.519 12.9684 145.536 12.9313 145.566 12.8827C145.627 12.7855 145.712 12.6906 145.787 12.5818C146.356 11.7346 146.781 10.7965 147.314 9.93297C147.407 9.76161 147.498 9.61579 147.603 9.45838C147.96 8.95149 148.361 8.50036 148.81 8.07956C149.639 7.29576 150.606 6.65385 151.567 6.06296C151.973 5.81832 152.39 5.58765 152.807 5.35696C153.035 5.23703 153.252 5.10311 153.491 4.99713C153.731 4.89116 153.947 4.75724 154.187 4.65127L154.201 4.63972L154.841 4.34024C155.639 3.97849 156.449 3.63059 157.268 3.32224C157.373 3.28081 157.479 3.23947 157.585 3.19804C157.902 3.07374 158.217 2.97488 158.532 2.87609C158.821 2.7749 159.083 2.69692 159.384 2.60968C159.738 2.50173 160.117 2.39618 160.457 2.29978C160.822 2.20578 161.187 2.11164 161.552 2.01764C161.722 1.96944 161.878 1.93279 162.034 1.89615C162.45 1.80694 162.879 1.7063 163.306 1.63104C163.604 1.56931 163.888 1.51913 164.198 1.47136C164.65 1.39849 165.113 1.33945 165.562 1.2921C165.679 1.26462 165.793 1.26279 165.922 1.24926C166.243 1.21543 166.552 1.16754 166.859 1.14527C167.141 1.1206 167.423 1.09598 167.73 1.07371C167.744 1.06215 167.769 1.06457 167.794 1.06696C168.076 1.0423 168.369 1.03147 168.662 1.02075C169.262 0.987764 169.859 0.980289 170.468 0.986759C170.798 0.992389 171.152 1.00042 171.482 1.00605C171.747 1.01844 172.001 1.01694 172.267 1.02933C173.555 1.10047 174.823 1.23421 176.059 1.44204C176.347 1.48234 176.621 1.53417 176.909 1.57446C177.27 1.64745 177.619 1.70645 177.98 1.77944C180.478 2.31347 182.896 3.12326 185.214 4.18094C185.444 4.29297 185.699 4.40743 185.928 4.51945C186.001 4.55214 186.085 4.59879 186.158 4.63148C186.231 4.66417 186.304 4.69686 186.363 4.74111C186.126 4.82157 185.873 4.93909 185.648 5.03351C185.648 5.03351 185.643 5.03737 185.634 5.04507C185.5 5.10962 185.383 5.13717 185.25 5.20172C185.13 5.2547 185.024 5.29604 184.893 5.33508C184.879 5.34663 184.865 5.35817 184.84 5.35578C184.339 5.53983 183.849 5.73795 183.348 5.922C182.741 6.14748 182.137 6.34745 181.53 6.57294C181.134 6.71555 180.728 6.84421 180.335 6.96132C179.744 7.14974 179.154 7.33812 178.552 7.51259C178.421 7.55163 178.304 7.57916 178.173 7.6182C177.755 7.73292 177.348 7.86152 176.933 7.95073C176.437 8.08376 175.941 8.21681 175.434 8.33589C175.069 8.42989 174.717 8.51229 174.341 8.59234C173.795 8.72059 173.237 8.83496 172.668 8.9353C169.253 9.56288 165.818 9.87965 162.352 9.75558C159.67 9.65473 156.873 9.32384 154.401 10.4019C153.845 10.6322 153.33 10.9437 152.825 11.2947C151.694 12.0498 150.632 13.0046 149.51 13.7991C149.374 13.8891 149.224 13.9909 149.088 14.0809C148.871 14.2148 148.654 14.3486 148.438 14.4825C147.684 14.9 146.879 15.1969 146.044 15.4263C144.514 15.8601 142.885 16.0268 141.294 16.1844C139.793 16.3376 137.77 16.132 137.493 14.6119C139.409 15.7473 141.949 15.6157 143.855 14.471L143.861 14.4199Z" fill="#4F772D"/>
    <path d="M198.212 5.70236C201.224 5.17794 204.175 3.6305 207.169 4.14747C209.23 4.48535 210.881 5.72416 212.42 7.19701C214.549 9.2283 216.492 11.7184 219.004 12.9877C219.534 13.27 220.085 13.4641 220.667 13.6097C225.278 14.7183 229.793 11.1437 234.534 11.093C235.367 8.27506 236.779 5.62823 238.672 3.37476C237.127 5.45531 237.649 8.42804 236.595 10.8C236.269 11.5157 235.813 12.129 235.298 12.698C234.342 13.7273 233.142 14.5402 231.984 15.3184C229.07 17.2557 226.086 19.2507 222.688 20.0731C216.791 21.5074 210.63 19.1694 205.641 15.6683C205.369 15.475 205.096 15.2815 204.813 15.0743C204.293 14.69 203.776 14.2803 203.273 13.859C202.888 13.5261 202.481 13.1654 202.123 12.8094C202.101 12.7815 202.078 12.7536 202.056 12.7257C202.033 12.6978 202.011 12.6699 201.988 12.642C200.041 10.6925 198.537 8.37302 198.215 5.67684L198.212 5.70236Z" fill="#4F772D"/>
    <path d="M75.3212 -5.49915C75.7603 -4.32418 75.8317 -3.02966 76.2959 -1.8523C77.252 0.479312 79.6554 1.81563 81.9363 2.85697C83.5139 3.57379 85.1218 4.24197 86.7106 4.97274C87.7305 5.43042 88.7617 5.90199 89.7512 6.40829C91.8258 7.48148 93.7954 8.71205 95.4972 10.3292C96.9318 11.702 98.2009 13.3294 99.9944 14.1698C101.387 14.8304 102.963 14.942 104.446 15.3407C106.016 15.7606 107.476 16.5048 108.937 17.2491C110.349 17.9631 111.774 18.6912 113.186 19.4052C114.212 19.9278 115.423 20.8802 115.044 21.99C114.719 22.9377 113.466 23.1403 112.48 23.0979C112.38 23.0883 112.265 23.0903 112.165 23.0807C109.385 22.9448 106.628 22.3474 104.021 21.3909C102.394 20.7852 100.821 20.0174 99.3234 19.1407C97.4943 18.0265 95.7891 16.6924 94.2417 15.1801C92.8122 13.7562 91.5267 12.1659 90.0279 10.7998C89.9828 10.744 89.9351 10.7138 89.8761 10.6695C86.7606 7.84895 82.8215 6.13473 78.9362 4.51566C78.1686 4.19791 77.3672 3.83822 76.904 3.15027C76.596 2.68313 76.5023 2.10763 76.4085 1.53212C76.036 -0.795418 75.6521 -3.13695 75.2796 -5.46449L75.3212 -5.49915Z" fill="#809D4B"/>
    <path d="M22.2958 54.8006C23.7309 54.4222 25.1964 53.9952 26.6367 53.5658C33.0301 51.6251 39.4452 49.5963 45.6642 51.4891C50.1479 52.8433 53.789 56.1131 57.9988 58.1622C56.4452 59.8299 54.5871 61.1209 52.5702 62.1006C50.1111 63.3086 47.422 64.031 44.7355 64.3546C43.3869 63.6338 42.0374 62.7972 41.3852 62.5934C38.9361 61.8322 36.4611 61.3261 33.934 60.9567C30.7166 60.5086 25.4788 60.9497 23.5252 57.8149C23.0334 57.0341 22.9101 56.2498 23.027 55.4755C22.7547 55.2822 22.5239 55.0541 22.3236 54.7775L22.2958 54.8006Z" fill="#9BB55E"/>
    <path d="M79.5748 55.9933C80.1175 59.0195 80.6774 62.1246 80.4301 65.1786C80.4024 65.5751 80.3523 65.9439 80.2882 66.3241C80.283 66.3751 80.2779 66.4261 80.2614 66.4632C79.3545 67.2653 78.3382 68.0183 77.3298 68.6949C75.7491 69.7547 73.8232 70.2152 72.7361 71.9144C71.5554 73.7849 70.5594 75.7118 69.5244 77.6478C67.8176 80.8203 66.004 83.5449 63.2183 85.842C60.3241 88.2061 56.7042 83.7279 59.5984 81.3637C60.292 80.786 60.9017 80.1617 61.4635 79.507C61.3368 79.0056 61.3713 78.4165 61.6487 77.812C62.6541 75.6672 62.1654 73.483 61.995 71.2906C62.4925 70.2692 63.0603 69.3061 63.7122 68.3895C67.479 62.9408 73.5555 58.9999 79.5524 55.9655L79.5748 55.9933Z" fill="#9BB55E"/>
    <path d="M43.6691 32.7948C43.7784 32.8439 43.8877 32.893 44.0109 32.9305C45.0463 33.2351 46.152 32.8511 47.2394 32.6457C47.914 32.5039 48.5922 32.4526 49.2512 32.4639C53.3643 32.4693 57.3027 34.8144 60.5786 37.4313C66.251 41.9504 71.1961 47.7523 73.5025 54.655C73.611 54.9615 73.7056 55.2796 73.8002 55.5976C73.9234 56.0086 73.9531 56.5909 73.5577 56.7335C72.6218 55.949 71.6304 55.2108 70.6087 54.5211C69.6475 52.614 68.7746 50.5864 67.3236 49.6241C65.4294 48.4007 63.5109 47.2909 61.8959 45.6949C57.0846 40.9487 51.5367 38.8236 45.211 36.8563C43.5988 36.3551 42.9097 34.2677 43.6691 32.7948V32.7948Z" fill="#9BB55E"/>
    <path d="M82.9865 68.2551C83.7764 67.8539 84.6627 67.6293 85.4978 67.6573C86.3329 67.6853 87.1446 67.9428 87.7855 68.5061C88.9998 69.5488 90.1016 71.5724 91.5766 70.9274C89.7225 74.9229 87.8684 78.9184 85.9892 82.9115C85.0418 84.9846 84.0692 87.0552 82.7966 88.9556C82.6752 89.1501 82.5287 89.3421 82.3961 89.5227C79.9894 92.8346 76.3731 96.0571 76.8397 100.08C75.9472 99.4932 75.2949 98.5427 75.1091 97.2502C74.5741 93.774 77.7352 90.5339 78.5592 87.3031C79.6024 83.166 79.5053 79.255 81.7661 75.5043C83.1583 73.1774 82.5186 70.6055 83.0089 68.2829L82.9865 68.2551Z" fill="#9BB55E"/>
    <path d="M72.0214 17.8154C72.3674 17.7839 72.7074 17.6876 73.0611 17.5796C73.6153 17.7483 74.1643 17.9679 74.7107 18.2131C74.9431 18.2996 75.1729 18.4117 75.3915 18.5097C79.4772 20.4054 83.1763 22.8567 86.3926 26.0602C87.1298 26.8 87.8532 27.5514 88.5237 28.3234C86.6703 27.3228 84.8333 26.2851 83.0216 25.2498C81.3303 24.2775 79.6417 23.2797 78.1603 21.9926C77.2157 21.1686 76.2616 20.1893 75.2641 19.386C74.2667 18.5828 73.2121 17.9674 72.0214 17.8154V17.8154Z" fill="#4F772D"/>
    <path d="M71.1585 17.8105C71.4403 17.7859 71.7196 17.7868 71.9962 17.8131C71.7144 17.8378 71.4325 17.8624 71.1585 17.8105Z" fill="#4F772D"/>
    <path d="M60.7863 19.4239C62.6169 19.2763 64.4433 19.2959 66.2566 19.4428C71.7191 19.9115 76.9963 21.7017 81.3252 25.0756C88.8424 30.9293 92.5621 40.4133 95.7007 49.4941C95.8977 50.0537 96.0868 50.6897 95.8285 51.2317C93.9472 49.8807 91.8701 48.8331 89.7713 47.8735C87.2857 46.7225 84.7481 45.7082 82.3257 44.4345C81.3183 41.6087 78.7772 40.1306 76.6626 38.2037C74.8264 36.5351 73.6984 34.0197 71.7018 32.5548C68.0287 29.8485 63.6673 28.4159 59.9335 25.8069C58.9257 25.1057 58.4058 23.601 58.919 22.4266C59.4321 21.2522 60.0528 20.2683 60.7976 19.4379L60.7863 19.4239Z" fill="#9BB55E"/>
    <path d="M95.1327 24.6393C97.6133 22.9698 100.164 21.9894 102.735 21.5518C103.039 21.555 103.341 21.5839 103.629 21.6242C103.917 21.6645 104.219 21.6932 104.493 21.7451C104.755 21.783 105.029 21.8348 105.29 21.8982C106.593 22.1897 107.87 22.6204 109.094 23.1877C109.447 23.3372 109.775 23.4843 110.112 23.6708C110.498 23.8622 110.885 24.0536 111.269 24.2705C111.654 24.4873 112.026 24.6902 112.397 24.9186C113.499 25.5644 114.582 26.2728 115.638 27.0043C120.598 30.4126 125.29 34.2074 129.67 38.333C128.546 38.5221 127.427 38.6602 126.314 38.7473C125.943 38.7764 125.572 38.8054 125.2 38.8345C124.664 38.8607 124.129 38.8868 123.606 38.9015C123.123 38.907 122.627 38.9241 122.157 38.918C122.107 38.9132 122.068 38.9225 122.032 38.9061C121.563 38.9001 121.107 38.8825 120.652 38.8649C120.412 38.8549 120.158 38.8564 119.895 38.8185C119.554 38.7989 119.213 38.7793 118.861 38.7457C118.305 38.7186 117.755 38.6405 117.215 38.5762C116.827 38.5264 116.438 38.4763 116.064 38.4149C115.812 38.3909 115.588 38.344 115.351 38.3085C115.013 38.2634 114.663 38.2043 114.313 38.1452C113.74 38.0391 113.156 37.9192 112.571 37.7992C110.192 36.3493 108.238 34.2187 105.373 33.4308C101.738 32.4665 98.178 31.7669 95.2603 29.2485C93.9757 28.1475 93.4325 25.7523 95.1215 24.6255L95.1327 24.6393Z" fill="#4F772D"/>
    <path d="M99.2155 9.09942C99.3473 9.17636 99.4792 9.25328 99.611 9.33022C100.525 9.82934 101.467 10.3053 102.411 10.7558C103.149 11.1222 103.888 11.4631 104.639 11.8179C104.121 11.923 103.619 11.9911 103.099 11.9803C102.87 11.9842 102.644 11.9626 102.42 11.9156C100.899 11.6419 99.8965 10.5163 99.1904 9.09702L99.2155 9.09942Z" fill="#4F772D"/>
    <path d="M86.6995 4.95871C87.7195 5.41639 88.7506 5.88796 89.7402 6.39426C91.8147 7.46745 93.7845 8.69819 95.4863 10.3153C96.9209 11.6881 98.1899 13.3156 99.9835 14.156C101.376 14.8166 102.952 14.9279 104.435 15.3267C106.005 15.7466 107.465 16.4908 108.926 17.2351C110.338 17.9491 111.763 18.6772 113.175 19.3912C114.201 19.9138 115.412 20.8661 115.033 21.976C114.708 22.9237 113.455 23.1263 112.469 23.0839C112.369 23.0743 112.254 23.0763 112.154 23.0667C109.374 22.9308 106.617 22.3333 104.01 21.3768C104.369 21.3338 104.729 21.2908 105.098 21.2873C104.41 20.8097 103.703 20.3948 102.978 20.1583C101.763 19.7464 100.538 19.4366 99.3262 19.1152C97.4971 18.001 95.7919 16.6668 94.2445 15.1545C92.815 13.7307 91.5297 12.1405 90.0309 10.7744C89.7055 10.2284 89.2241 9.71884 88.4027 9.30582C87.2449 8.70624 86.4053 7.72498 86.562 6.31058L86.697 4.98423L86.6995 4.95871Z" fill="#4F772D"/>
    <path d="M166.015 18.7962C166.015 18.7962 165.952 18.919 165.921 18.9676C165.874 19.0532 165.827 19.1389 165.792 19.2385C164.148 22.6617 165.65 26.8737 165.258 30.7251C165.078 32.4851 164.488 34.1673 163.898 35.8495C163.029 38.2777 162.143 40.7429 161.114 43.1173C160.861 43.6082 160.619 44.113 160.439 44.6367C160.425 44.6482 160.42 44.6993 160.406 44.7108C159.459 46.7839 158.363 48.8171 157.102 50.7315C156.395 51.8103 155.644 52.8333 154.889 53.8817C153.693 55.5319 152.544 57.2123 151.721 59.0654C151.424 59.7325 151.162 60.4415 150.986 61.1716C150.609 62.6294 150.481 64.1366 150.715 65.5753C150.35 65.2959 150.026 64.8658 149.831 64.2808C149.222 62.4071 148.432 60.9413 147.161 59.4554C146.333 58.488 146.321 56.9802 147.05 55.9294C148.268 54.1911 149.751 52.3492 150.489 50.3335C151.282 48.1556 150.924 46.1899 151.359 44.0295C152.053 40.5802 153.755 38.2056 155.626 35.2934C157.028 33.1219 157.435 30.4952 157.797 27.9286C158.575 27.0241 159.364 26.1336 160.153 25.2429C160.51 24.852 160.856 24.4471 161.227 24.0447C161.457 23.7833 161.698 23.5357 161.928 23.2743C163.171 21.9119 164.4 20.5611 165.619 19.1963C165.702 19.1269 165.762 19.0297 165.848 18.9348C165.904 18.8886 165.948 18.8284 165.992 18.7682L166.015 18.7962Z" fill="#608437"/>
    <path d="M149.819 28.8556C150.163 28.5922 150.521 28.3173 150.876 28.0679C151.071 27.9061 151.287 27.7721 151.493 27.6243C151.515 27.6522 151.527 27.6662 151.51 27.7032C151.341 27.8674 151.169 28.0571 150.998 28.2468C150.671 28.5891 150.358 28.9198 150.054 29.29C146.444 33.4403 143.974 38.6261 143.016 44.0461C142.901 44.6789 142.811 45.3142 142.746 45.9518C142.689 46.513 142.643 47.0881 142.586 47.6492C142.453 48.9501 142.285 50.2346 141.746 51.4066C141.189 52.6412 140.284 53.6752 139.345 54.6674C139.032 54.9982 138.708 55.315 138.372 55.6179C131.842 59.0264 125.504 62.672 119.197 66.501C117.844 67.325 115.974 66.3615 115.411 65.0331C115.084 64.2551 114.868 63.3847 114.785 62.4497C114.813 62.4266 114.829 62.3895 114.846 62.3524C115.848 60.864 116.6 59.2101 117.543 57.6775C117.742 57.3487 117.952 57.034 118.162 56.7192C119.492 54.747 121.093 52.9936 122.82 51.3683C124.369 49.8676 126.048 48.4694 127.701 47.0688C131.572 43.8448 135.433 40.5813 139.304 37.3573C142.761 34.4544 146.204 31.5631 149.805 28.8671L149.819 28.8556Z" fill="#9BB55E"/>
    <path d="M116.6 8.69503C116.849 8.74449 117.1 8.76834 117.341 8.77834C119.09 8.93204 120.823 8.49204 122.582 8.42775C122.875 8.41703 123.193 8.40865 123.498 8.41188C123.637 8.4123 123.788 8.42672 123.928 8.42714C123.967 8.41798 123.992 8.42026 124.028 8.4366C124.218 8.44181 124.394 8.45869 124.57 8.47546C124.897 8.50659 125.21 8.5493 125.524 8.59199C125.775 8.61594 125.999 8.66291 126.236 8.69842C126.474 8.73392 126.686 8.76708 126.896 8.8257C127.145 8.87516 127.394 8.92456 127.629 8.98557C128.362 9.1455 129.103 9.34491 129.82 9.5419C131.77 10.0882 133.715 10.6855 135.644 11.3198C138.407 12.2397 141.146 13.2733 143.824 14.404C144.447 14.0254 145.002 13.5632 145.441 12.987C145.483 12.9523 145.499 12.9152 145.53 12.8666C146.425 13.0548 147.306 13.2546 148.162 13.452C148.598 13.5321 149.032 13.6379 149.465 13.7436C149.329 13.8337 149.179 13.9352 149.043 14.0253C148.826 14.1592 148.609 14.2929 148.393 14.4268C147.639 14.8444 146.834 15.1412 145.998 15.3707C149.994 17.1548 153.888 19.1867 157.647 21.4247C158.317 21.8234 158.985 22.2475 159.667 22.6601C158.917 22.7947 158.155 22.9153 157.394 23.0359C153.977 23.5475 150.506 23.8479 147.055 23.8283C146.661 23.8294 146.281 23.8189 145.876 23.8061C145.672 23.8124 145.446 23.7909 145.231 23.7833C144.762 23.7773 144.295 23.7458 143.829 23.7143C143.779 23.7095 143.739 23.7186 143.689 23.7138C143.298 23.6894 142.907 23.6651 142.516 23.6407C142.15 23.6188 141.773 23.5827 141.409 23.5353C140.957 23.4922 140.529 23.4514 140.093 23.3712C139.615 23.3257 139.14 23.2547 138.665 23.1837C138.164 23.1103 137.678 23.0253 137.191 22.9404C136.705 22.8554 136.221 22.7449 135.737 22.6344C135.301 22.5543 134.867 22.4487 134.458 22.3454C133.107 22.0235 131.789 21.6275 130.49 21.169C128.432 20.0587 126.482 18.5083 126.648 16.129C126.673 15.758 121.161 13.9066 120.537 13.4222C119.082 12.2535 117.987 11.1578 116.981 9.56831C116.806 9.29409 116.672 8.98516 116.578 8.6671L116.6 8.69503Z" fill="#608437"/>
    <path d="M183.106 7.17392C183.728 10.2978 184.037 13.495 183.813 16.6929C183.613 19.6612 182.937 22.5585 182.088 25.4135C181.505 27.3926 180.836 29.3505 180.17 31.2829C179.449 33.3775 178.714 35.4838 177.774 37.4803C177.37 38.3303 176.955 39.1664 176.467 39.9698C176.268 40.2985 176.059 40.6133 175.835 40.9396C173.713 41.3299 171.317 38.7968 172.896 36.3846C173.528 35.4147 174.051 34.3957 174.503 33.3185C174.399 32.845 174.439 32.321 174.611 31.7578C175.062 30.4487 174.407 28.1459 174.494 26.6733C174.609 24.9201 175.705 23.6337 175.388 21.7494C175.164 20.466 174.77 18.9734 174.538 17.5092C175.617 15.8865 176.926 14.3758 178.283 12.8954C178.585 12.5507 178.912 12.2084 179.213 11.8638C180.587 10.3463 181.974 8.81733 183.106 7.17392V7.17392Z" fill="#608437"/>
    <path d="M151.579 6.07704C151.984 5.8324 152.401 5.60173 152.819 5.37103C153.047 5.25111 153.263 5.11719 153.503 5.01121C153.742 4.90524 153.959 4.77132 154.198 4.66534L154.212 4.65379L154.852 4.35415C155.65 3.99239 156.46 3.64466 157.279 3.33632C157.385 3.29489 157.491 3.25354 157.596 3.21211C157.914 3.08782 158.228 2.98895 158.543 2.89016C158.833 2.78898 159.095 2.71082 159.395 2.62359C159.749 2.51564 160.128 2.41008 160.468 2.31369C160.833 2.21969 161.198 2.12571 161.563 2.03171C161.733 1.98352 161.889 1.94687 162.045 1.91023C162.461 1.82102 162.89 1.72037 163.317 1.64511C163.615 1.58339 163.9 1.53321 164.209 1.48543C164.661 1.41257 165.124 1.35353 165.573 1.30617C165.69 1.27869 165.805 1.2767 165.933 1.26317C166.254 1.22934 166.563 1.18161 166.87 1.15934C167.152 1.13468 167.434 1.11006 167.741 1.08779C167.755 1.07623 167.78 1.07865 167.805 1.08104C168.087 1.05637 168.38 1.04554 168.673 1.03483C169.273 1.00184 169.871 0.994365 170.48 1.00083C170.809 1.00646 171.164 1.01449 171.493 1.02012C171.759 1.03252 172.013 1.03101 172.278 1.04341C173.566 1.11455 174.835 1.24829 176.071 1.45611C176.358 1.49641 176.632 1.54824 176.92 1.58854C177.281 1.66153 177.631 1.72053 177.991 1.79351C180.489 2.32754 182.908 3.13733 185.225 4.19501C185.001 4.40541 184.762 4.62739 184.526 4.82384C184.686 4.87767 184.845 4.93147 184.977 5.00841C185.073 5.06901 185.168 5.12969 185.275 5.20423C185.155 5.25722 185.049 5.29855 184.918 5.33759C184.905 5.34915 184.891 5.3607 184.865 5.3583C184.364 5.54235 183.874 5.74046 183.373 5.92451C182.766 6.14999 182.162 6.34998 181.555 6.57546C181.159 6.71808 180.753 6.84673 180.36 6.96384C179.769 7.15226 179.179 7.34065 178.577 7.51512C178.446 7.55416 178.329 7.58168 178.198 7.62072C177.78 7.73543 177.374 7.86403 176.958 7.95324C176.462 8.08628 175.966 8.21932 175.459 8.33841C175.094 8.43241 174.743 8.51481 174.366 8.59486C173.82 8.72311 173.262 8.83748 172.694 8.93782C171.88 8.82172 171.077 8.60356 170.259 8.28102C169.943 8.14786 169.62 7.94979 169.3 7.72616C168.644 8.06283 167.942 8.34363 167.148 8.5384C165.573 8.91637 163.746 8.40764 162.134 7.90643C161.83 8.01917 161.529 8.10628 161.206 8.16561C159.084 8.55586 157.421 8.42339 155.859 7.55354C154.304 7.86894 152.744 8.35131 151.178 8.76874C150.227 9.00015 149.421 8.69157 148.844 8.12157C149.673 7.33777 150.64 6.69586 151.601 6.10497L151.579 6.07704Z" fill="#608437"/>
    <path d="M198.212 5.70243C201.224 5.17801 204.175 3.63057 207.169 4.14754C209.23 4.48542 210.881 5.72423 212.42 7.19707C214.549 9.22837 216.492 11.7185 219.004 12.9878C219.534 13.2701 220.085 13.4642 220.667 13.6098C225.278 14.7184 229.793 11.1438 234.534 11.0931C235.367 8.27513 236.779 5.62829 238.672 3.37483C237.127 5.45538 237.649 8.42811 236.595 10.8001C236.269 11.5158 235.812 12.1291 235.297 12.6981C235.061 12.7786 234.815 12.8196 234.57 12.8607C232.272 13.2341 231.215 13.7643 229.163 14.8437C228.05 15.4202 226.762 15.98 225.486 16.0388C222.245 16.1938 218.469 14.9971 215.39 16.1847C214.001 16.7349 212.6 16.4082 211.31 15.7317C210.374 16.0675 209.274 16.0272 208.317 16.0777C207.323 16.1118 206.487 15.9678 205.639 15.6939C205.272 15.5559 204.893 15.4039 204.518 15.2265C204.325 15.1308 203.631 14.5884 203.054 14.0184C202.683 13.674 202.339 13.3065 202.175 13.0462C202.099 12.9231 202.07 12.8302 202.064 12.7652C202.069 12.7142 202.072 12.6886 202.114 12.654C202.075 12.6631 202.036 12.6723 201.996 12.6814C200.049 10.7319 198.546 8.41258 198.224 5.71639L198.212 5.70243Z" fill="#608437"/>
    <path d="M26.6394 53.5405C33.0328 51.5998 39.4479 49.571 45.6669 51.4638C50.1506 52.818 53.7918 56.0878 58.0015 58.1369C56.4479 59.8046 54.5898 61.0956 52.5729 62.0753C50.7481 60.7941 47.168 60.041 45.6634 59.7303C43.9576 59.4004 42.224 59.0937 40.5641 58.5622C39.2485 58.1408 37.436 57.7365 36.0336 56.9204C33.0167 57.1224 29.7403 56.6301 27.5303 54.6426C27.1478 54.2843 26.8546 53.9215 26.6646 53.5429L26.6394 53.5405Z" fill="#809D4B"/>
    <path d="M63.7211 68.4289C67.4879 62.9802 73.5643 59.0391 79.5611 56.0048C80.1038 59.031 80.6638 62.1361 80.4164 65.1901C78.7646 66.0758 76.7701 66.3366 75.2103 67.5658C73.0124 69.3266 71.438 71.1984 70.2739 73.7788C69.6342 75.1987 68.3283 75.6795 67.1402 75.502C65.242 75.9393 62.83 74.1901 63.6177 71.6898C63.9731 70.6935 64.2304 69.662 64.4261 68.6119C64.1911 68.5509 63.9423 68.5015 63.7098 68.415L63.7211 68.4289Z" fill="#809D4B"/>
    <path d="M49.2541 32.4385C53.3672 32.4439 57.3055 34.789 60.5814 37.4059C66.2538 41.9251 71.1989 47.727 73.5054 54.6297C73.3961 54.5806 73.2895 54.5061 73.1715 54.4176C71.1185 52.8829 70.2119 50.4402 68.3912 48.6186C66.1994 46.4526 63.8567 45.019 61.0632 43.7743C59.0234 42.859 58.9796 40.7945 57.2198 39.6225C54.9717 38.1336 52.6795 36.705 50.4011 35.2647C49.2788 34.5655 49.0106 33.4583 49.2567 32.413L49.2541 32.4385Z" fill="#809D4B"/>
    <path d="M85.4978 67.6571C86.3329 67.6851 87.1446 67.9426 87.7856 68.5059C88.9999 69.5486 90.1016 71.5722 91.5766 70.9272C89.7225 74.9227 87.8685 78.9182 85.9893 82.9113C85.0419 84.9844 84.0693 87.055 82.7966 88.9554C82.6586 88.4401 82.5822 87.9435 82.5587 87.4262C82.4684 86.9412 82.4285 86.461 82.4301 85.9461C82.3009 85.8437 82.058 85.859 81.4864 85.6114C79.3122 84.6446 78.8475 81.2267 81.3361 80.2275C81.9847 79.9674 82.8259 79.687 83.602 79.2973C83.92 78.1687 84.2579 77.0935 84.5075 76.1386C85.2829 73.1349 85.5634 70.7537 85.5064 67.6964L85.4978 67.6571Z" fill="#809D4B"/>
    <path d="M75.2528 19.3723C74.2553 18.5691 73.2008 17.9536 72.0101 17.8016C72.3561 17.7701 72.696 17.6738 73.0498 17.5658C73.6152 17.375 74.1857 17.1332 74.7485 16.9678C74.8101 17.36 74.7937 17.7705 74.7132 18.1878C74.708 18.2388 74.6916 18.2759 74.689 18.3014C74.8564 18.6522 75.0489 19.0052 75.2554 19.3467L75.2528 19.3723Z" fill="#3B622C"/>
    <path d="M72.0213 17.8156C71.7395 17.8402 71.4577 17.8648 71.1837 17.813C71.4655 17.7883 71.7447 17.7892 72.0213 17.8156Z" fill="#3B622C"/>
    <path d="M66.268 19.4565C71.7305 19.9252 77.0077 21.7154 81.3366 25.0893C88.8538 30.943 92.5735 40.427 95.7121 49.5078C95.9091 50.0674 96.0982 50.7034 95.8399 51.2454C93.9586 49.8944 91.8815 48.8468 89.7827 47.8872C88.6809 45.8636 87.7959 43.7061 86.3361 41.9575C84.1996 39.3719 81.243 37.6094 78.7381 35.4007C76.025 32.9919 73.9605 29.9497 70.703 28.2745C68.6874 27.2455 67.3178 25.9819 66.3469 23.9193C65.6572 22.4629 65.7289 20.886 66.2932 19.4589L66.268 19.4565Z" fill="#809D4B"/>
    <path d="M104.777 25.313C106.294 24.0024 107.757 23.6008 109.706 24.0312C110.414 24.1887 111.176 24.5574 112.009 24.9844C112.14 24.9454 112.257 24.9178 112.385 24.9043C113.488 25.5501 114.571 26.2586 115.627 26.99C120.587 30.3983 125.279 34.1931 129.658 38.3187C128.535 38.5078 127.416 38.6459 126.302 38.7331C125.931 38.7621 125.56 38.7911 125.189 38.8202C124.432 38.4004 123.663 37.9666 122.821 37.7576C121.534 37.429 120.181 37.1328 119.08 36.3455C117.92 35.514 117.735 34.9683 116.335 34.5002C114.91 34.0297 113.849 33.3493 112.65 32.411C110.371 30.5973 107.353 31.6875 104.89 29.9335C103.352 28.8341 103.331 26.5402 104.752 25.3106L104.777 25.313Z" fill="#3B622C"/>
    <path d="M149.819 28.856C150.163 28.5926 150.521 28.3177 150.877 28.0683C150.922 28.1241 150.967 28.1799 151.012 28.2357C150.685 28.578 150.372 28.9087 150.068 29.2789C146.459 33.4292 143.988 38.6149 143.03 44.0349C142.915 44.6678 142.825 45.303 142.76 45.9407C142.703 46.5018 142.657 47.077 142.6 47.6381C140.323 51.1684 137.524 54.2241 133.509 56.1209C132.388 56.658 130.837 57.5533 129.343 57.8874C127.813 59.3255 125.764 60.4953 124.438 61.2961C123.748 61.7069 122.841 61.6463 122.101 61.3054C121.165 61.2678 120.248 60.7941 119.74 59.6769C119.533 59.2194 119.325 58.7619 119.104 58.3159C118.989 58.2019 118.873 58.0879 118.8 57.9392C118.537 57.5279 118.349 57.1238 118.223 56.7384C119.554 54.7662 121.155 53.0129 122.882 51.3875C124.431 49.8868 126.11 48.4884 127.763 47.0878C131.633 43.8638 135.495 40.6005 139.366 37.3765C142.823 34.4736 146.266 31.5823 149.866 28.8863L149.819 28.856Z" fill="#809D4B"/>
    <path d="M99.2155 9.09941C99.0593 8.76262 98.9171 8.41432 98.7999 8.06837C100.11 8.91428 101.44 9.69756 102.003 10.2791C102.152 10.435 102.287 10.6023 102.398 10.7674C102.736 11.1859 102.935 11.604 103.099 11.9803C102.87 11.9842 102.644 11.9626 102.42 11.9156C100.899 11.6419 99.8965 10.5163 99.1903 9.09701L99.2155 9.09941Z" fill="#3B622C"/>
    <path d="M89.7401 6.39435C91.8146 7.46754 93.7844 8.69828 95.4862 10.3154C96.9208 11.6882 98.1898 13.3157 99.9834 14.1561C101.376 14.8167 102.952 14.928 104.435 15.3268C106.005 15.7467 107.465 16.4909 108.925 17.2352C110.338 17.9492 111.762 18.6773 113.175 19.3913C114.201 19.9139 115.412 20.8662 115.032 21.9761C114.708 22.9238 113.455 23.1264 112.469 23.084C112.369 23.0744 112.254 23.0764 112.154 23.0668C111.484 22.7841 110.725 22.5058 109.761 22.3753C108.584 22.2117 107.444 21.8071 106.606 20.9417C105.998 20.3043 103.726 20.1653 102.901 19.9193C98.4761 18.6094 97.7684 13.7133 94.0313 11.7607C91.7633 10.5918 90.2115 8.87295 89.7262 6.40591L89.7401 6.39435Z" fill="#3B622C"/>
    <path d="M165.63 19.2105C165.63 19.2105 165.73 19.22 165.792 19.2387C164.148 22.662 165.65 26.8739 165.258 30.7254C165.078 32.4853 164.488 34.1676 163.898 35.8497C163.029 38.2779 162.143 40.7432 161.114 43.1175C160.898 43.6248 160.656 44.1296 160.439 44.6369C160.425 44.6485 160.42 44.6995 160.406 44.7111C159.459 46.7841 158.363 48.8174 157.102 50.7318C156.395 51.8105 155.643 52.8335 154.889 53.882C153.693 55.5322 152.544 57.2126 151.721 59.0657C151.424 59.7328 151.162 60.4418 150.986 61.1719C148.995 58.6516 148.619 54.7399 151.098 51.4606C152.784 49.239 154.549 47.3725 155.337 44.6147C155.644 43.4721 156.007 42.3993 156.454 41.3731C156.414 41.1503 156.336 40.9112 156.245 40.6836C155.847 39.7315 155.946 38.3888 156.31 37.4319C157.065 35.3792 159.2 34.6038 159.31 32.1548C159.406 30.0908 159.633 28.1038 160.028 26.094C160.082 25.8158 160.136 25.5377 160.189 25.2595C160.547 24.8686 160.893 24.4638 161.264 24.0613C161.493 23.7999 161.734 23.5523 161.964 23.2909C163.207 21.9285 164.437 20.5777 165.655 19.2129L165.63 19.2105Z" fill="#3B622C"/>
    <path d="M123.939 8.44083C123.939 8.44083 124.003 8.43395 124.04 8.4503C124.23 8.45551 124.406 8.47239 124.582 8.48915C124.909 8.52029 125.222 8.563 125.535 8.60569C125.786 8.62964 126.01 8.6766 126.248 8.71211C126.485 8.74762 126.698 8.78078 126.908 8.83939C127.156 8.88885 127.405 8.93825 127.64 8.99927C128.373 9.15919 129.115 9.3586 129.831 9.55559C131.781 10.1019 133.727 10.6992 135.655 11.3335C138.418 12.2534 141.157 13.2868 143.835 14.4175C144.458 14.039 145.013 13.5769 145.453 13.0007C145.494 12.966 145.511 12.9289 145.541 12.8803C145.602 12.783 145.687 12.6881 145.762 12.5793C146.604 12.7883 147.416 13.0459 148.184 13.4796C148.498 13.6383 148.771 13.8317 149.065 14.0529C148.849 14.1868 148.632 14.3206 148.415 14.4545C147.662 14.872 146.857 15.1689 146.021 15.3983C150.017 17.1824 153.911 19.2144 157.67 21.4524C158.34 21.851 159.008 22.2752 159.69 22.6878C158.939 22.8223 158.178 22.943 157.417 23.0636C156.123 22.9275 154.939 22.583 153.768 22.111C153.269 22.527 152.629 22.8266 151.816 22.8264C150.685 22.8346 149.56 22.7918 148.451 22.7119C145.616 22.6222 142.77 22.5185 139.949 22.4173C137.608 22.336 134.667 22.1718 133.566 19.6333C132.734 17.7126 130.927 15.8794 129.474 13.9383C127.897 14.0843 126.342 13.7688 125.26 12.4295C124.177 11.0903 123.775 9.67429 123.911 8.46394L123.939 8.44083Z" fill="#3B622C"/>
    <path d="M183.106 7.17379C183.728 10.2976 184.037 13.4949 183.813 16.6928C183.613 19.6611 182.937 22.5584 182.088 25.4134C181.505 27.3924 180.836 29.3503 180.17 31.2827C179.449 33.3774 178.714 35.4836 177.774 37.4802C177.272 36.8014 177.042 35.9425 177.283 34.9481C178.118 31.3578 176.562 27.6814 177.452 24.3023C177.542 23.6671 177.742 23.0808 178.087 22.56C178.18 22.3886 178.232 22.252 178.307 22.1432C177.954 21.2468 177.823 20.539 177.982 19.4725C178.166 18.035 178.051 15.4228 178.294 12.9092C178.596 12.5646 178.923 12.2223 179.225 11.8776C180.598 10.3601 181.985 8.83116 183.117 7.18775L183.106 7.17379Z" fill="#3B622C"/>
    <path d="M157.281 3.31095C157.387 3.26951 157.493 3.22816 157.599 3.18673C157.916 3.06243 158.231 2.96357 158.546 2.86478C158.835 2.7636 159.097 2.68561 159.398 2.59838C159.752 2.49043 160.131 2.38487 160.471 2.28848C160.836 2.19448 161.201 2.10033 161.566 2.00633C161.736 1.95814 161.892 1.92149 162.048 1.88484C162.463 1.79563 162.893 1.69499 163.319 1.61973C163.618 1.55801 163.902 1.50783 164.212 1.46005C164.663 1.38719 165.126 1.32816 165.575 1.2808C165.693 1.25332 165.807 1.25149 165.935 1.23796C166.256 1.20413 166.566 1.15624 166.873 1.13397C167.155 1.1093 167.436 1.08468 167.743 1.06241C167.757 1.05085 167.782 1.05327 167.808 1.05567C168.089 1.031 168.382 1.02017 168.676 1.00946C169.276 0.976469 169.873 0.968994 170.482 0.975463C170.811 0.981093 171.166 0.989111 171.496 0.994741C171.761 1.00714 172.015 1.00563 172.281 1.01803C173.568 1.08917 174.837 1.22291 176.073 1.43074C176.361 1.47104 176.635 1.52287 176.923 1.56317C177.284 1.63616 177.633 1.69515 177.994 1.76814C180.491 2.30217 182.91 3.11195 185.228 4.16964C185.457 4.28166 185.712 4.39612 185.942 4.50815C186.015 4.54084 186.099 4.58748 186.172 4.62017C186.006 4.75884 185.839 4.89748 185.65 5.00825C185.65 5.00825 185.645 5.0121 185.636 5.0198C185.419 5.15368 185.166 5.27119 184.896 5.30981C184.882 5.32136 184.868 5.33308 184.843 5.33069C184.506 5.40158 184.137 5.40508 183.751 5.3297C183.625 5.31772 183.491 5.26622 183.368 5.22874C182.458 4.93607 181.643 4.96154 180.862 5.14475C179.187 5.51314 177.682 6.58019 175.817 6.68591C173.646 6.81391 171.737 6.60626 169.748 5.69569C168.327 5.0582 168.178 4.52893 166.555 4.87661C165.334 5.14663 164.131 5.49568 162.924 5.75415C161.003 6.16356 159.244 5.85437 157.959 4.264C157.699 3.94313 157.479 3.61307 157.309 3.28783L157.281 3.31095Z" fill="#3B622C"/>
    <path d="M198.212 5.70225C201.224 5.17783 204.175 3.63039 207.169 4.14736C209.23 4.48524 210.881 5.72405 212.42 7.19689C214.549 9.22819 216.492 11.7183 219.004 12.9876C216.39 13.9748 214.018 13.4527 212.253 11.7008C211.143 11.8784 210.091 11.8683 208.875 11.7139C208.85 11.7115 208.825 11.7091 208.799 11.7067C208.356 12.5658 207.524 13.2593 206.64 13.3424C205.719 13.4092 204.714 13.5453 203.718 13.6049C203.579 13.7205 203.441 13.8362 203.268 13.9099C203.199 13.9677 203.107 13.9975 203.026 14.0413C202.655 13.6969 202.312 13.3294 202.148 13.0692C202.071 12.946 202.043 12.8531 202.036 12.7881C202.014 12.7602 201.991 12.7323 201.969 12.7043C200.022 10.7548 198.518 8.43551 198.196 5.73933L198.212 5.70225Z" fill="#3B622C"/>
    <path d="M198.213 5.7022C201.224 5.17778 204.175 3.63035 207.169 4.14732C209.23 4.48519 210.881 5.724 212.42 7.19685C211.433 7.41191 210.492 7.30945 209.322 7.32681C206.613 7.36505 204.533 9.2143 202.541 10.8273C202.347 10.9891 202.144 11.1115 201.93 11.2199C201.984 11.6886 202.049 12.1711 202.114 12.6538C202.12 12.7187 202.14 12.7721 202.146 12.837C202.152 12.902 202.158 12.9671 202.176 13.046C202.099 12.9229 202.071 12.8299 202.064 12.765C202.042 12.7371 202.019 12.7091 201.997 12.6812C200.049 10.7316 198.546 8.41235 198.224 5.71617L198.213 5.7022Z" fill="#406A2F"/>
    <path d="M165.576 1.28099C165.693 1.25351 165.807 1.25168 165.936 1.23814C166.256 1.20432 166.566 1.15643 166.873 1.13416C167.155 1.10949 167.437 1.08486 167.744 1.06259C167.757 1.05104 167.783 1.05346 167.808 1.05586C168.09 1.03119 168.383 1.02036 168.676 1.00964C169.276 0.976656 169.873 0.969181 170.482 0.97565C170.812 0.98128 171.166 0.989298 171.496 0.994928C171.761 1.00732 172.015 1.00582 172.281 1.01822C173.568 1.08935 174.837 1.2231 176.073 1.43093C176.361 1.47123 176.635 1.52306 176.923 1.56336C177.284 1.63634 177.633 1.69534 177.994 1.76833C180.491 2.30236 182.91 3.11214 185.228 4.16982C185.457 4.28185 185.712 4.39631 185.942 4.50833C185.631 4.69759 185.297 4.85893 184.98 4.98323C184.607 5.15375 184.189 5.26859 183.776 5.3323C183.322 5.43067 182.85 5.44999 182.358 5.41604C181.855 5.36814 181.358 5.26936 180.862 5.14493C179.612 4.83269 178.425 4.39763 177.238 4.82548C175.528 5.40948 174.155 5.43321 172.697 4.28997C171.225 3.15829 170.698 2.85057 168.7 3.02084C167.419 3.13065 166.153 2.59793 165.632 1.35081C165.609 1.32291 165.612 1.29733 165.603 1.25787L165.576 1.28099Z" fill="#406A2F"/>
    <path d="M183.106 7.17403C183.728 10.2979 184.037 13.4951 183.813 16.693C183.613 19.6613 182.937 22.5586 182.088 25.4136C182.015 25.3809 181.942 25.3481 181.866 25.3409C180.27 24.6867 179.292 22.4431 180.537 20.9392C181.218 20.1155 180.514 17.1771 180.439 16.1655C180.406 15.4928 180.348 14.8176 180.314 14.1449C180.271 13.9476 180.25 13.7782 180.224 13.6599C179.621 13.2289 179.28 12.5785 179.2 11.8754C180.573 10.358 181.96 8.82899 183.092 7.18558L183.106 7.17403Z" fill="#406A2F"/>
    <path d="M163.748 19.6105C164.38 19.014 165.133 18.8539 165.871 18.9628C165.871 18.9628 165.907 18.9792 165.932 18.9816C165.886 19.0673 165.839 19.1529 165.803 19.2525C164.16 22.6757 165.661 26.8877 165.269 30.7392C165.09 32.4991 164.5 34.1814 163.909 35.8635C163.04 38.2917 162.154 40.7569 161.126 43.1313C160.909 43.6386 160.667 44.1434 160.45 44.6507C160.436 44.6622 160.431 44.7133 160.417 44.7248C159.47 46.7979 158.374 48.8311 157.113 50.7455C156.406 51.8243 155.655 52.8473 154.901 53.8958C154.798 51.0402 156.025 48.3371 158.252 46.4116C157.881 44.5735 158.131 43.3611 159.075 40.8241C159.477 39.7421 160.598 38.0848 160.111 36.8796C159.792 36.025 159.424 35.0242 159.518 34.106C159.715 32.1675 161.622 30.6494 161.349 28.5889C161.195 27.4797 160.931 26.2056 161.059 25.0717C161.096 24.7147 161.155 24.3855 161.225 24.0702C161.574 22.2621 162.259 21.014 163.723 19.6081L163.748 19.6105Z" fill="#406A2F"/>
    <path d="M145.773 12.5937C146.342 11.7465 146.767 10.8085 147.299 9.94492C148.084 9.96815 148.886 10.0703 149.664 10.286C150.677 10.5628 151.763 10.8721 152.825 11.2951C151.694 12.0502 150.632 13.0049 149.51 13.7995C149.374 13.8895 149.224 13.9912 149.088 14.0813C148.871 14.2152 148.654 14.349 148.437 14.4828C147.684 14.9004 146.879 15.1973 146.043 15.4267C150.039 17.2108 153.933 19.2427 157.692 21.4807C155.048 22.6325 153.299 21.4744 150.725 20.7012C149.518 20.3288 147.989 21.136 146.757 21.1346C145.347 21.142 144.031 20.9781 142.685 20.6053C140.438 19.9792 137.224 19.2481 136.314 16.7148C135.689 14.9942 135.479 13.1844 135.689 11.3759C138.452 12.2957 141.191 13.3291 143.869 14.4598C144.491 14.0813 145.046 13.619 145.486 13.0428C145.527 13.0081 145.544 12.9712 145.574 12.9226C145.635 12.8254 145.721 12.7305 145.795 12.6217L145.773 12.5937Z" fill="#406A2F"/>
    <path d="M149.819 28.8558C149.92 28.9813 149.983 29.1161 150.057 29.2647C146.447 33.415 143.977 38.6007 143.019 44.0208C140.863 45.8629 139.346 48.2938 136.79 49.5827C136.679 50.422 136.155 51.2091 135.1 51.5979C133.964 52.0305 132.814 52.4747 131.667 52.8933C130.823 53.1993 129.974 53.1828 129.234 52.8419C128.678 53.4457 127.98 53.933 127.13 54.4315C125.267 55.516 122.801 53.5555 123.123 51.5131C123.128 51.4621 123.131 51.4367 123.122 51.3972C123.035 51.3761 122.974 51.3573 122.873 51.3478C122.873 51.3478 122.862 51.3338 122.837 51.3314C124.386 49.8307 126.065 48.4325 127.718 47.0319C131.588 43.8079 135.45 40.5444 139.321 37.3204C142.778 34.4176 146.221 31.5262 149.821 28.8303L149.819 28.8558Z" fill="#4F772D"/>
  </g>
  <defs>
    <clipPath id="clip0_122_960">
      <rect width="113" height="264" fill="white" transform="translate(0.5 113.5) rotate(-90)"/>
    </clipPath>
  </defs>
</svg>
