<svg width="265" height="114" viewBox="0 0 265 114" fill="none"
  xmlns="http://www.w3.org/2000/svg">
  <g clip-path="url(#clip0_122_999)">
    <path d="M157.623 85.7065C157.321 86.4335 157.055 87.1542 156.752 87.8812C154.942 92.352 152.457 97.5242 148.551 101.125C162.711 95.5926 176.885 88.7828 191.008 80.7435C191.59 80.4225 192.169 80.084 192.747 79.7454C193.94 79.0621 195.129 78.361 196.319 77.6601C209.705 69.7138 224.751 59.6729 234.7 45.2835L235.229 45.6457C225.204 60.1213 210.098 70.2277 196.64 78.1865C195.779 78.6839 194.94 79.1958 194.079 79.6932C196.787 79.7267 199.607 80.6329 202.367 81.5132C203.053 81.7385 203.736 81.946 204.419 82.1537C209.646 83.7291 215.278 84.2498 220.701 83.6782L220.766 84.3042C215.272 84.8884 209.562 84.345 204.239 82.75C203.556 82.5424 202.873 82.3346 202.187 82.1094C199.073 81.1092 195.885 80.1039 192.922 80.3703C177.659 89.1748 162.34 96.5323 147.011 102.398C145.899 102.83 144.784 103.245 143.668 103.66C127.6 109.601 111.553 113.918 95.5756 116.583C98.8475 118.411 101.056 122.175 100.755 125.889L100.12 125.836C100.418 122.105 98.0002 118.305 94.5442 116.764C89.9642 117.516 85.4106 118.117 80.869 118.588C71.4622 119.569 60.6991 119.896 52.0782 114.893L52.3996 114.363C60.8368 119.271 71.4899 118.945 80.79 117.982C84.9515 117.542 89.1317 117.007 93.3061 116.345C93.7329 116.27 94.1596 116.195 94.6076 116.134C111.896 113.311 129.29 108.539 146.672 101.875C151.355 98.392 154.165 92.616 156.162 87.6755C156.446 86.9516 156.73 86.2278 157.032 85.5008C159.351 79.6476 161.742 73.5995 166.516 69.4448L166.938 69.9172C162.274 73.9794 159.905 79.9509 157.612 85.7449L157.623 85.7065Z" fill="#406A2F"/>
    <path d="M259.438 -0.391613C260.007 3.64235 258.946 7.70822 257.898 11.6444C257.436 13.3646 256.96 15.1054 255.997 16.6044C255.045 18.0649 253.645 19.2036 252.243 20.2334C251.939 20.469 251.613 20.6902 251.288 20.9114C250.072 21.7627 248.8 22.6058 247.542 23.4281C241.931 27.056 236.239 30.6435 233.668 36.614C231.806 40.9118 231.951 45.8035 230.796 50.341C233.073 50.2318 235.259 49.6469 237.309 48.7398C239.82 47.6425 242.108 46.056 244.09 44.2139C247.728 40.8421 250.469 36.6265 252.917 32.3168C254.598 29.3803 256.177 26.3889 257.349 23.1959C259.584 17.1024 260.245 10.5576 260.879 4.07179C261.056 2.4016 260.965 0.2868 259.417 -0.406121L259.438 -0.391613Z" fill="#C3D299"/>
    <path d="M215.227 65.4274C217.187 67.7961 219.196 70.229 221.688 72.0125C222.008 72.2475 222.322 72.4474 222.654 72.644C222.696 72.673 222.739 72.702 222.778 72.7134C225.727 74.4891 229.51 75.2439 232.578 73.7935C233.253 73.4746 233.91 73.0675 234.646 72.9745C235.31 72.894 235.99 73.084 236.666 73.2564C240.238 74.2488 244.025 75.0215 247.64 74.2216C251.344 73.406 254.474 71.0339 257.455 68.743C259.251 67.3707 261.073 65.9393 262.31 64.0461C263.547 62.153 264.059 59.6408 263.079 57.5914C263.665 58.927 263.184 60.5415 262.26 61.6693C261.336 62.7971 260.047 63.552 258.772 64.2863C256.801 65.4162 254.726 66.5825 252.445 66.7652C248.406 67.0753 244.852 64.3495 241.105 62.8234C240.171 62.4595 239.227 62.1339 238.285 61.9172C237.184 61.6374 236.082 61.4488 234.961 61.3547C228.368 60.7116 221.435 62.8055 215.245 65.4243L215.227 65.4274Z" fill="#C3D299"/>
    <path d="M215.12 7.66065C217.628 11.5537 219.462 15.8568 220.559 20.3443C220.763 21.219 220.945 22.1704 220.705 23.0321C220.672 23.1472 220.639 23.2624 220.588 23.3806C220.152 24.3679 219.144 24.9641 218.285 25.6616C217.741 26.0851 217.264 26.5697 216.847 27.0802C214.195 30.2239 213.442 34.7453 213.324 38.9365C213.111 46.1859 214.347 53.7084 218.127 59.9273C218.291 60.2081 218.473 60.4857 218.655 60.7634C218.889 61.1228 219.314 61.5215 219.679 61.3117C219.684 60.0906 219.761 58.8569 219.894 57.6315C220.548 51.7251 222.52 45.9875 223.908 40.1706C225.563 33.1592 226.317 25.4685 223.072 18.9733C221.889 16.6318 220.239 14.5366 219.363 12.0682C218.972 10.9895 218.729 9.81215 218.089 8.86845C217.449 7.92476 216.175 7.22 215.116 7.64301L215.12 7.66065Z" fill="#B5C780"/>
    <path d="M212.487 10.3278C214.65 11.5497 214.705 14.818 213.328 16.845C211.93 18.8575 209.593 19.9971 207.479 21.2433C204.55 22.9423 201.813 25.063 199.445 27.4829C198.15 28.7852 196.985 30.1923 195.926 31.6716C192.756 36.1448 190.715 41.33 190.495 46.814C190.11 56.3337 194.948 65.2987 199.854 73.5597C200.154 74.0714 200.518 74.6265 201.098 74.7794C201.282 72.4706 201.823 70.2082 202.446 67.986C203.173 65.345 204.037 62.7525 204.629 60.0805C204.927 58.7533 205.153 57.4386 205.278 56.0691C205.743 50.9062 204.483 45.6643 205.005 40.5097C205.656 33.8207 209.172 27.7931 212.692 22.0745C213.873 20.1732 215.089 18.1744 215.347 15.9619C215.6 13.7319 214.615 11.1735 212.487 10.3278V10.3278Z" fill="#B5C780"/>
    <path d="M222.386 75.9513C221.569 76.2952 220.825 76.8268 220.307 77.4825C219.789 78.1382 219.462 78.9242 219.478 79.7773C219.49 81.3778 220.323 83.5259 218.878 84.2354C223.126 85.4003 227.374 86.5652 231.636 87.7093C233.831 88.3249 236.04 88.9196 238.313 89.1753C238.539 89.2082 238.781 89.2204 239.004 89.2357C243.087 89.5372 247.883 88.8574 250.653 91.812C250.699 91.8586 250.748 91.9228 250.794 91.9694C252.864 94.337 252.381 98.4468 249.796 100.213C251.662 99.3017 253.453 98.0942 254.639 96.4106C255.824 94.7269 256.351 92.4851 255.629 90.536C254.914 88.6221 253.171 87.2898 251.504 86.0714C248.742 84.026 245.807 81.9381 242.425 81.4586C240.968 81.2414 239.465 81.3601 238.02 81.1045C235.6 80.6561 233.47 79.2278 231.368 77.9404C229.265 76.653 226.953 75.4208 224.503 75.4877C223.789 75.504 223.067 75.6676 222.407 75.9658L222.386 75.9513Z" fill="#B5C780"/>
    <path d="M190.958 35.0044C190.71 35.2482 190.417 35.4455 190.106 35.6459C189.595 35.9543 189.042 36.2337 188.552 36.5566C187.813 37.0146 187.179 37.5449 186.989 38.3796C186.734 39.4445 187.337 40.4857 187.699 41.5147C189.067 45.4991 186.56 49.7829 183.442 52.6078C180.324 55.4328 176.497 57.5266 173.957 60.8693C173.763 61.1038 173.59 61.3529 173.434 61.5988C173.279 61.8446 173.106 62.0936 172.969 62.3363C172.828 62.5614 172.691 62.804 172.571 63.0436C171.952 64.2271 171.456 65.4799 171.098 66.7812C170.985 67.1473 170.885 67.4925 170.81 67.8699C170.707 68.2888 170.603 68.7078 170.52 69.1412C170.438 69.5746 170.352 69.9902 170.287 70.4205C170.068 71.6792 169.909 72.9638 169.786 74.2421C169.185 80.2303 169.052 86.2636 169.373 92.2715C170.243 91.5357 171.071 90.7708 171.857 89.9769C172.119 89.7123 172.381 89.4477 172.643 89.1831C173.009 88.7909 173.375 88.3986 173.723 88.0095C174.039 87.6443 174.373 87.2759 174.672 86.9138C174.7 86.8723 174.733 86.8486 174.744 86.8102C175.042 86.4481 175.323 86.0891 175.603 85.7301C175.751 85.5403 175.916 85.3472 176.057 85.1221C176.262 84.8493 176.467 84.5764 176.669 84.2859C177.007 83.844 177.303 83.3732 177.602 82.9199C177.815 82.591 178.028 82.262 178.223 81.9363C178.367 81.7288 178.476 81.5278 178.602 81.3234C178.786 81.0361 178.967 80.731 179.147 80.426C179.437 79.9199 179.723 79.3963 180.008 78.8725C184.058 71.4035 186.51 62.886 188.316 54.3547C188.749 52.2935 189.143 50.2208 189.523 48.1689C189.873 46.2497 190.201 44.3161 190.175 42.3538C190.156 41.1005 190.025 39.7395 190.056 38.4592C190.087 37.179 190.298 35.9763 190.951 34.9691L190.958 35.0044Z" fill="#809D4B"/>
    <path d="M191.511 34.3423C191.31 34.5415 191.131 34.7553 190.972 34.9835C191.173 34.7843 191.374 34.585 191.511 34.3423Z" fill="#809D4B"/>
    <path d="M149.143 101.531C148.72 101.624 148.278 101.72 147.858 101.83C147.609 101.874 147.367 101.953 147.122 102.014C146.979 102.039 146.823 102.085 146.684 102.128C146.844 102.099 147.011 102.107 147.156 102.099C147.391 102.076 147.647 102.068 147.902 102.059C148.375 102.031 148.829 102.005 149.308 102.012C154.808 101.937 160.363 103.4 165.12 106.169C165.677 106.49 166.22 106.831 166.749 107.193C167.214 107.512 167.683 107.849 168.148 108.167C169.227 108.906 170.317 109.607 171.559 109.953C172.862 110.325 174.236 110.302 175.6 110.226C176.054 110.2 176.506 110.157 176.954 110.097C189.506 108.744 200.733 101.232 213.296 99.5504C214.426 99.4061 215.719 99.3426 216.563 100.105C218.695 102.024 215.33 105.476 216.161 108.189C217.005 105.873 218.298 103.697 219.95 101.858C218.311 99.342 215.725 97.4476 212.815 96.6483C207.845 95.2644 202.544 97.053 197.406 96.5183C197.37 96.5246 197.332 96.5132 197.293 96.5018C195.509 96.3057 193.76 95.812 191.981 95.5422C191.602 95.4815 191.226 95.4384 190.85 95.3953C188.485 95.1376 186.113 95.2271 183.757 95.496C181.61 95.7097 179.459 96.0881 177.321 96.4459C172.36 97.3187 167.375 98.1596 162.413 99.0325C157.965 99.797 153.534 100.558 149.15 101.566L149.143 101.531Z" fill="#B5C780"/>
    <path d="M163.99 46.232C165.714 48.4237 165.694 51.7784 163.954 53.924C162.318 55.9419 159.515 56.7626 157.798 58.7402C156.684 60.0289 156.103 61.6975 155.222 63.1455C155.099 63.3675 154.955 63.5749 154.807 63.7647C153.795 65.1994 152.339 66.2388 151.154 67.5399C150.957 67.7568 150.745 67.9943 150.551 68.2288C150.461 68.3357 150.375 68.4602 150.285 68.5671C150.253 68.591 150.238 68.6116 150.227 68.6499C150.108 68.7983 150.008 68.9437 149.907 69.0889C149.719 69.3586 149.55 69.6252 149.38 69.8918C149.236 70.0993 149.127 70.3004 149.001 70.5047C148.875 70.7091 148.763 70.8928 148.672 71.0909C148.549 71.3128 148.426 71.5347 148.321 71.7535C147.97 72.4163 147.643 73.1112 147.331 73.7854C146.488 75.6273 145.688 77.4982 144.926 79.3804C143.844 82.084 142.865 84.8427 141.998 87.6176C141.756 88.3705 141.517 89.1408 141.314 89.905C140.096 94.1077 139.132 98.3931 138.413 102.708C138.285 103.478 138.177 104.261 138.052 105.048C138.639 104.563 139.223 104.059 139.807 103.556C142.404 101.278 144.875 98.8215 147.089 96.1737C147.344 95.8738 147.582 95.577 147.834 95.2595C147.97 95.1081 148.1 94.9213 148.233 94.7522C148.531 94.3901 148.808 94.0137 149.086 93.6371C149.115 93.5956 149.147 93.5717 149.176 93.5302C149.409 93.2158 149.643 92.9016 149.877 92.5872C150.097 92.2936 150.313 91.9823 150.512 91.6742C150.771 91.3008 151.016 90.948 151.237 90.5632C151.51 90.169 151.763 89.7603 152.016 89.3516C152.283 88.9222 152.532 88.4959 152.782 88.0696C153.031 87.6432 153.259 87.2024 153.487 86.7616C153.708 86.3768 153.907 85.9775 154.092 85.599C154.719 84.3596 155.268 83.0973 155.757 81.8093C156.589 79.6232 157.258 77.3566 157.715 75.0362C158.942 68.6648 158.958 61.2498 163.95 57.0753C164.394 56.7058 164.877 56.3475 165.327 56.0132C165.742 55.6852 166.119 55.3459 166.446 54.9423C166.597 54.7701 166.726 54.5833 166.835 54.3821C167.608 53.044 167.397 51.5515 166.769 50.0957C166.613 49.759 166.439 49.4254 166.25 49.1126C165.626 48.0569 164.812 47.0708 164.023 46.2081L163.99 46.232Z" fill="#4F772D"/>
    <path d="M131.002 107.4C131.002 107.4 131.137 107.431 131.194 107.439C131.289 107.458 131.385 107.478 131.484 107.515C135.159 108.471 137.405 112.338 140.599 114.526C142.058 115.525 143.724 116.161 145.389 116.797C147.805 117.702 150.259 118.618 152.736 119.366C153.263 119.528 153.805 119.669 154.332 119.831C154.35 119.828 154.392 119.857 154.41 119.854C156.605 120.47 158.865 120.946 161.141 121.219C162.421 121.377 163.687 121.464 164.975 121.565C167.007 121.717 169.032 121.926 170.979 122.494C171.679 122.698 172.39 122.956 173.061 123.293C174.418 123.947 175.651 124.822 176.598 125.93C177.307 126.753 177.837 127.698 178.131 128.757C179.279 133.126 175.866 137.769 177.295 142.071C177.927 139.228 179.378 136.623 180.049 133.792C181.534 127.521 178.846 120.672 174.186 116.102C169.505 111.516 163.12 108.979 156.66 107.876C152.248 107.104 147.759 106.983 143.282 107.024C142.089 107.033 140.9 107.061 139.71 107.088C139.181 107.108 138.648 107.111 138.101 107.134C137.753 107.141 137.409 107.165 137.061 107.171C135.218 107.241 133.392 107.307 131.564 107.356C131.457 107.374 131.344 107.358 131.216 107.362C131.145 107.375 131.07 107.369 130.996 107.364L131.002 107.4Z" fill="#4F772D"/>
    <path d="M111.091 112.943C113.075 115.435 115.316 117.736 117.902 119.63C120.298 121.394 122.946 122.749 125.674 123.945C127.561 124.778 129.488 125.532 131.394 126.271C133.459 127.073 135.542 127.873 137.673 128.445C138.583 128.685 139.489 128.908 140.418 129.054C140.797 129.115 141.173 129.158 141.566 129.198C144.311 129.517 147.094 129.464 149.809 129.915C152.906 130.445 156.097 131.85 157.678 134.541C155.78 130.285 151.681 127.401 147.5 125.24C143.337 123.077 138.849 121.427 135.108 118.588C133.389 117.288 131.843 115.739 129.955 114.705C128.25 113.767 126.412 113.288 124.512 113.058C122.576 112.834 120.577 112.858 118.571 112.938C118.113 112.946 117.64 112.974 117.182 112.982C115.137 113.05 113.074 113.122 111.088 112.925L111.091 112.943Z" fill="#4F772D"/>
    <path d="M141.969 87.6591C141.278 87.8899 140.567 88.0152 139.843 87.9787C139.79 87.9881 139.751 87.9767 139.694 87.9684C139.581 87.952 139.453 87.9562 139.322 87.9428C138.308 87.8299 137.317 87.549 136.313 87.3977C136.122 87.3585 135.952 87.3338 135.764 87.3122C135.147 87.2569 134.543 87.272 133.932 87.3431C132.798 87.4697 131.684 87.7933 130.612 88.1458C130.163 88.2976 129.717 88.4671 129.272 88.6365C129.033 88.7332 128.791 88.8122 128.555 88.9264C128.32 89.0407 128.078 89.1197 127.842 89.234L127.824 89.2371L127.182 89.5324C126.39 89.9084 125.602 90.302 124.838 90.7278C124.738 90.7819 124.638 90.836 124.538 90.89C124.238 91.052 123.959 91.2284 123.681 91.405C123.416 91.5607 123.188 91.7104 122.927 91.8837C122.616 92.0841 122.29 92.3053 121.997 92.5025C121.69 92.7206 121.382 92.9384 121.075 93.1564C120.928 93.255 120.799 93.3505 120.671 93.446C120.334 93.7055 119.98 93.9683 119.647 94.2455C119.407 94.4333 119.185 94.6181 118.949 94.8236C118.601 95.1215 118.257 95.4368 117.931 95.7492C117.835 95.8208 117.759 95.9071 117.666 95.9964C117.433 96.2195 117.196 96.4248 116.981 96.6448C116.78 96.8441 116.579 97.0434 116.364 97.2633C116.346 97.2665 116.332 97.2873 116.318 97.308C116.117 97.5072 115.919 97.724 115.722 97.9408C115.309 98.3777 114.917 98.829 114.529 99.298C114.321 99.5532 114.098 99.8292 113.889 100.084C113.727 100.295 113.562 100.488 113.4 100.699C112.623 101.728 111.905 102.783 111.266 103.861C111.111 104.106 110.973 104.349 110.818 104.595C110.641 104.918 110.46 105.222 110.283 105.545C109.078 107.797 108.134 110.166 107.445 112.619C107.382 112.867 107.305 113.135 107.242 113.383C107.22 113.46 107.201 113.554 107.179 113.631C107.157 113.708 107.135 113.784 107.13 113.858C107.345 113.729 107.598 113.612 107.816 113.501C107.816 113.501 107.821 113.5 107.833 113.497C107.969 113.437 108.065 113.366 108.201 113.305C108.319 113.248 108.419 113.194 108.533 113.119C108.551 113.116 108.569 113.113 108.583 113.092C109.047 112.829 109.515 112.583 109.979 112.319C110.543 112.001 111.086 111.669 111.65 111.351C112.015 111.141 112.375 110.914 112.719 110.689C113.244 110.36 113.769 110.031 114.291 109.684C114.405 109.61 114.502 109.538 114.616 109.463C114.974 109.218 115.335 108.991 115.671 108.731C116.093 108.438 116.515 108.146 116.933 107.835C117.241 107.617 117.531 107.402 117.835 107.167C118.286 106.832 118.733 106.481 119.177 106.111C121.862 103.909 124.322 101.491 126.466 98.7643C128.121 96.652 129.675 94.3023 132.094 93.1118C132.629 92.8355 133.199 92.644 133.794 92.4848C135.101 92.1092 136.515 91.915 137.847 91.5715C138.003 91.5257 138.178 91.477 138.334 91.4312C138.577 91.3522 138.819 91.273 139.061 91.194C139.866 90.8884 140.613 90.4658 141.328 89.9757C142.647 89.088 143.826 87.9517 144.974 86.8392C146.06 85.7921 147.21 84.1147 146.228 82.9215C145.858 85.1175 144.117 86.9717 142.012 87.6881L141.969 87.6591Z" fill="#4F772D"/>
    <path d="M87.7778 92.331C89.8214 92.4449 92.2144 92.7523 93.265 94.4979C93.9386 95.6178 93.8178 97.005 93.6802 98.304C93.6169 98.9343 93.5247 99.6061 93.2634 100.162C93.1106 100.517 92.8767 100.831 92.5514 101.052C92.1616 101.321 91.7027 101.42 91.2259 101.522C89.9457 101.748 88.6307 101.888 87.3605 102.166C86.4426 102.364 85.5627 102.664 84.7343 103.138C84.4056 103.341 84.0836 103.58 83.8006 103.83C81.694 105.694 80.9195 108.854 80.975 111.74C81.0346 113.878 81.6383 116.267 83.2006 117.613C83.3554 117.749 83.5246 117.865 83.6904 117.964C83.9019 118.109 84.1457 118.23 84.386 118.333C85.4123 117.26 86.618 116.356 87.827 115.469C88.8106 114.75 89.7942 114.031 90.7077 113.233C95.1649 109.243 97.3531 102.903 96.2992 97.0056C96.0181 95.3431 95.3054 93.538 93.7399 92.8482C93.0579 92.5493 92.2951 92.5013 91.5535 92.4679C90.2727 92.4019 89.013 92.3504 87.7355 92.3019L87.7778 92.331Z" fill="#4F772D"/>
    <path d="M171.026 22.4664C171.64 23.5604 172.582 24.451 173.181 25.5658C174.344 27.8016 173.812 30.4995 173.134 32.9135C172.662 34.5809 172.134 36.24 171.666 37.925C171.356 38.9993 171.051 40.0911 170.798 41.1736C170.278 43.4506 169.945 45.7491 170.081 48.0928C170.202 50.0747 170.625 52.0946 170.108 54.0067C169.713 55.4967 168.781 56.7719 168.127 58.1617C167.434 59.6313 167.059 61.2269 166.684 62.8227C166.317 64.3624 165.953 65.9199 165.586 67.4597C165.322 68.5806 165.267 70.1201 166.36 70.5471C167.293 70.911 168.257 70.0857 168.861 69.3056C168.919 69.2226 168.994 69.1365 169.052 69.0535C170.743 66.8437 172.068 64.3523 173.021 61.7442C173.61 60.1109 174.039 58.4145 174.337 56.7048C174.668 54.5887 174.75 52.4251 174.595 50.267C174.431 48.2562 174.047 46.2476 173.972 44.221C173.959 44.1506 173.966 44.0946 173.971 44.021C173.829 39.8207 175.065 35.7063 176.338 31.6942C176.591 30.903 176.834 30.0588 176.608 29.2609C176.45 28.7241 176.071 28.2808 175.692 27.8375C174.156 26.0499 172.616 24.2446 171.08 22.457L171.026 22.4664Z" fill="#809D4B"/>
    <path d="M251.309 20.926C250.094 21.7773 248.821 22.6204 247.563 23.4427C241.952 27.0706 236.26 30.6581 233.689 36.6287C231.827 40.9264 231.972 45.8181 230.818 50.3556C233.094 50.2464 235.28 49.6616 237.331 48.7544C239.841 47.6571 242.129 46.0706 244.111 44.2286C244.432 42.7334 244.665 41.1628 244.931 40.5332C245.931 38.1718 247.143 35.9553 248.493 33.7873C250.229 31.0416 253.948 27.3275 252.817 23.8114C252.538 22.9316 252.019 22.331 251.352 21.9202C251.381 21.5874 251.356 21.2639 251.274 20.9322L251.309 20.926Z" fill="#9BB55E"/>
    <path d="M215.227 65.4275C217.187 67.7962 219.196 70.2292 221.688 72.0127C222.009 72.2476 222.322 72.4475 222.654 72.6441C222.696 72.6731 222.739 72.7022 222.778 72.7135C223.976 72.5392 225.207 72.2495 226.375 71.9166C228.205 71.3943 229.8 70.2212 231.8 70.4886C233.99 70.7953 236.105 71.2793 238.251 71.7394C241.776 72.4852 245.027 72.8602 248.58 72.2169C252.254 71.5341 251.173 65.8782 247.499 66.561C246.61 66.7174 245.739 66.7797 244.877 66.7858C244.576 66.3652 244.104 66.0111 243.463 65.8325C241.176 65.215 239.824 63.4312 238.26 61.8852C237.159 61.6054 236.057 61.4168 234.936 61.3226C228.344 60.6796 221.41 62.7737 215.221 65.3925L215.227 65.4275Z" fill="#9BB55E"/>
    <path d="M220.705 23.032C220.672 23.1471 220.639 23.2623 220.588 23.3805C220.152 24.3679 219.144 24.964 218.285 25.6615C217.741 26.085 217.264 26.5697 216.847 27.0801C214.195 30.2239 213.442 34.7452 213.324 38.9365C213.111 46.1858 214.347 53.7083 218.127 59.9273C218.291 60.208 218.473 60.4857 218.655 60.7633C218.889 61.1227 219.314 61.5214 219.679 61.3117C219.684 60.0905 219.761 58.8568 219.894 57.6314C219.059 55.6658 218.074 53.69 218.277 51.9607C218.566 49.7243 218.958 47.5429 218.782 45.2791C218.266 38.5405 220.227 32.9324 222.81 26.8322C223.468 25.2776 222.32 23.4035 220.705 23.032V23.032Z" fill="#9BB55E"/>
    <path d="M222.386 75.9514C221.569 76.2954 220.825 76.8269 220.307 77.4826C219.79 78.1383 219.462 78.9243 219.478 79.7774C219.49 81.378 220.323 83.526 218.878 84.2356C223.126 85.4004 227.374 86.5653 231.636 87.7095C233.831 88.325 236.04 88.9197 238.313 89.1754C238.54 89.2084 238.781 89.2205 239.004 89.2358C243.087 89.5374 247.883 88.8576 250.654 91.8122C250.782 90.7516 250.477 89.6397 249.61 88.663C247.302 86.0096 242.787 86.3305 239.788 84.873C235.955 82.9976 233.032 80.3976 228.708 79.7014C226.033 79.2615 224.482 77.1121 222.392 75.9864L222.386 75.9514Z" fill="#9BB55E"/>
    <path d="M190.958 35.0042C190.71 35.2481 190.417 35.4454 190.106 35.6458C189.877 36.1778 189.69 36.7388 189.524 37.3143C189.44 37.5476 189.377 37.7955 189.311 38.0257C188.12 42.3693 187.602 46.7766 187.971 51.3011C188.06 52.3418 188.166 53.3793 188.323 54.3899C188.756 52.3286 189.15 50.2559 189.529 48.204C189.879 46.2849 190.208 44.3512 190.182 42.3889C190.163 41.1356 190.032 39.7746 190.062 38.4944C190.093 37.2141 190.305 36.0115 190.958 35.0042V35.0042Z" fill="#4F772D"/>
    <path d="M191.511 34.3423C191.31 34.5415 191.131 34.7553 190.972 34.9835C191.173 34.7843 191.374 34.585 191.511 34.3423Z" fill="#4F772D"/>
    <path d="M199.442 27.4653C198.147 28.7676 196.982 30.1746 195.923 31.654C192.753 36.1272 190.712 41.3123 190.492 46.7963C190.106 56.3161 194.945 65.2811 199.851 73.542C200.151 74.0538 200.514 74.6089 201.095 74.7617C201.278 72.453 201.82 70.1905 202.443 67.9684C203.169 65.3273 204.034 62.7349 204.626 60.0629C203.119 57.4687 203.632 54.574 203.526 51.7151C203.438 49.2356 202.246 46.7499 202.417 44.2794C202.723 39.7273 204.446 35.4722 204.866 30.9365C204.981 29.7142 204.168 28.3456 202.94 27.9789C201.712 27.6122 200.56 27.4506 199.445 27.4829L199.442 27.4653Z" fill="#9BB55E"/>
    <path d="M181.242 57.0563C178.365 57.872 175.969 59.1859 173.975 60.8663C173.781 61.1008 173.608 61.3499 173.452 61.5958C173.297 61.8416 173.124 62.0906 172.987 62.3333C172.846 62.5584 172.709 62.801 172.589 63.0406C171.97 64.2241 171.474 65.4769 171.116 66.7782C171.003 67.1443 170.903 67.4895 170.828 67.8669C170.725 68.2858 170.621 68.7048 170.538 69.1382C170.456 69.5716 170.37 69.9872 170.305 70.4175C170.086 71.6762 169.927 72.9608 169.804 74.2391C169.203 80.2273 169.07 86.2606 169.391 92.2685C170.261 91.5327 171.089 90.7678 171.875 89.9739C172.137 89.7093 172.399 89.4447 172.661 89.1801C173.027 88.7879 173.393 88.3956 173.741 88.0065C174.057 87.6413 174.391 87.2729 174.69 86.9108C174.718 86.8693 174.751 86.8456 174.762 86.8072C175.06 86.4451 175.341 86.0861 175.621 85.7271C175.769 85.5373 175.934 85.3442 176.075 85.1191C176.28 84.8463 176.485 84.5734 176.687 84.2829C177.025 83.841 177.321 83.3702 177.62 82.9169C177.833 82.588 178.046 82.259 178.241 81.9333C178.385 81.7258 178.494 81.5248 178.62 81.3204C178.804 81.0331 178.985 80.728 179.165 80.423C179.455 79.9169 179.741 79.3932 180.026 78.8695C180.456 76.1168 180.091 73.2487 181.34 70.5521C182.952 67.1545 184.717 63.9846 184.678 60.1305C184.667 58.4387 183.189 56.4771 181.238 57.0389L181.242 57.0563Z" fill="#4F772D"/>
    <path d="M166.74 50.1374C166.714 50.2878 166.688 50.4381 166.661 50.5884C166.452 51.6087 166.207 52.6352 165.941 53.6472C165.745 54.4467 165.527 55.2316 165.313 56.0342C165.728 55.7062 166.104 55.3668 166.431 54.9632C166.582 54.791 166.712 54.6042 166.821 54.403C167.594 53.065 167.382 51.5725 166.755 50.1167L166.74 50.1374Z" fill="#4F772D"/>
    <path d="M171.662 37.9075C171.353 38.9817 171.047 40.0735 170.794 41.156C170.274 43.433 169.942 45.7317 170.077 48.0754C170.199 50.0573 170.622 52.0773 170.105 53.9893C169.71 55.4794 168.777 56.7543 168.124 58.1441C167.431 59.6137 167.056 61.2093 166.681 62.8051C166.313 64.3449 165.949 65.9024 165.582 67.4421C165.319 68.563 165.264 70.1025 166.356 70.5295C167.29 70.8934 168.253 70.0682 168.857 69.288C168.915 69.205 168.991 69.1189 169.048 69.0359C170.739 66.8261 172.064 64.3347 173.018 61.7266C172.753 61.9736 172.487 62.2206 172.247 62.4997C172.326 61.6661 172.466 60.8585 172.754 60.1522C173.224 58.9586 173.779 57.8229 174.316 56.6903C174.646 54.5742 174.729 52.4107 174.574 50.2526C174.41 48.2417 174.026 46.2333 173.951 44.2068C173.744 43.6058 173.666 42.9091 173.881 42.0153C174.171 40.7441 173.964 39.4694 172.783 38.6755L171.683 37.922L171.662 37.9075Z" fill="#4F772D"/>
    <path d="M131.003 107.4C131.003 107.4 131.137 107.431 131.194 107.439C131.289 107.458 131.385 107.478 131.484 107.515C135.159 108.471 137.405 112.338 140.599 114.526C142.058 115.526 143.724 116.161 145.389 116.797C147.805 117.702 150.259 118.618 152.736 119.366C153.274 119.489 153.816 119.631 154.332 119.831C154.35 119.828 154.392 119.857 154.41 119.854C156.605 120.47 158.865 120.946 161.141 121.22C162.421 121.377 163.687 121.464 164.975 121.565C167.007 121.717 169.032 121.926 170.979 122.494C171.68 122.698 172.39 122.956 173.061 123.293C174.418 123.947 175.651 124.822 176.598 125.93C176.621 125.471 176.502 124.946 176.181 124.419C175.144 122.744 174.535 121.194 174.221 119.264C174.018 118.007 172.874 117.024 171.601 116.902C169.487 116.71 167.123 116.652 165.108 115.914C162.933 115.113 161.663 113.57 159.733 112.507C156.651 110.809 153.739 110.575 150.307 110.122C147.744 109.79 145.476 108.404 143.282 107.024C142.089 107.033 140.9 107.061 139.71 107.088C139.181 107.108 138.648 107.111 138.102 107.134C137.754 107.141 137.409 107.165 137.061 107.171C135.218 107.241 133.393 107.307 131.564 107.356C131.457 107.374 131.344 107.358 131.216 107.362C131.145 107.375 131.07 107.369 130.996 107.364L131.003 107.4Z" fill="#608437"/>
    <path d="M149.143 101.531C148.719 101.624 148.278 101.72 147.858 101.83C147.609 101.874 147.367 101.953 147.121 102.014C147.128 102.049 147.131 102.067 147.17 102.078C147.405 102.055 147.661 102.047 147.916 102.038C148.389 102.01 148.843 101.984 149.323 101.991C154.822 101.916 160.377 103.379 165.134 106.148C165.691 106.469 166.234 106.81 166.763 107.172C167.228 107.491 167.697 107.828 168.162 108.146C169.241 108.885 170.331 109.586 171.573 109.932C172.876 110.304 174.25 110.281 175.614 110.205C176.068 110.179 176.52 110.136 176.968 110.076C183.787 107.292 190.664 104.807 197.66 102.465C199.164 101.964 199.636 99.9138 198.985 98.6259C198.602 97.8738 198.077 97.1467 197.417 96.4798C197.381 96.486 197.342 96.4746 197.303 96.4633C195.52 96.2671 193.771 95.7734 191.992 95.5037C191.613 95.4429 191.237 95.3999 190.861 95.3567C188.496 95.099 186.124 95.1885 183.767 95.4574C181.621 95.6711 179.469 96.0497 177.332 96.4075C172.371 97.2804 167.385 98.1211 162.424 98.9939C157.975 99.7584 153.544 100.52 149.16 101.528L149.143 101.531Z" fill="#9BB55E"/>
    <path d="M155.204 63.1489C155.081 63.3709 154.937 63.5782 154.789 63.7681C153.777 65.2028 152.322 66.2421 151.137 67.5433C150.939 67.7602 150.727 67.9977 150.533 68.2322C150.443 68.339 150.357 68.4636 150.267 68.5704C150.235 68.5943 150.22 68.6149 150.209 68.6533C150.091 68.8017 149.99 68.947 149.889 69.0923C149.702 69.362 149.532 69.6286 149.362 69.8952C149.218 70.1027 149.11 70.3038 148.983 70.5081C148.857 70.7125 148.745 70.8961 148.654 71.0942C148.531 71.3162 148.408 71.5381 148.303 71.7569C147.952 72.4197 147.625 73.1146 147.313 73.7887C146.47 75.6307 145.67 77.5015 144.909 79.3838C143.827 82.0874 142.847 84.8461 141.98 87.621C141.289 87.8518 140.578 87.9769 139.854 87.9404C139.801 87.9497 139.762 87.9383 139.705 87.9301C139.271 88.735 138.855 89.5366 138.452 90.3176C138.232 90.7025 138.033 91.1019 137.833 91.5012C137.99 91.4555 138.164 91.4065 138.321 91.3607C138.563 91.2817 138.805 91.2025 139.048 91.1235C139.853 90.8179 140.599 90.3953 141.314 89.9053C140.096 94.108 139.132 98.3934 138.414 102.709C138.285 103.478 138.177 104.262 138.052 105.049C138.639 104.563 139.223 104.059 139.807 103.556C142.404 101.278 144.875 98.8217 147.089 96.1739C147.345 95.8741 147.582 95.5773 147.834 95.2598C147.97 95.1083 148.1 94.9216 148.233 94.7525C148.531 94.3904 148.809 94.014 149.086 93.6374C149.115 93.5959 149.147 93.5719 149.176 93.5304C149.41 93.2161 149.644 92.9018 149.878 92.5875C150.097 92.2939 150.313 91.9826 150.512 91.6745C150.771 91.301 151.016 90.9482 151.237 90.5634C151.511 90.1692 151.763 89.7606 152.016 89.3519C152.283 88.9224 152.532 88.4961 152.782 88.0698C153.031 87.6435 153.259 87.2026 153.487 86.7618C153.708 86.377 153.907 85.9778 154.092 85.5992C154.719 84.3598 155.268 83.0976 155.757 81.8096C156.239 79.5212 156.314 77.0313 154.39 75.6215C154.091 75.401 156.237 69.9967 156.27 69.2078C156.318 67.3418 156.188 65.7986 155.625 64.0037C155.529 63.6928 155.379 63.3913 155.197 63.1136L155.204 63.1489Z" fill="#608437"/>
    <path d="M111.091 112.942C113.075 115.435 115.316 117.736 117.902 119.63C120.298 121.394 122.946 122.749 125.674 123.945C127.561 124.778 129.488 125.532 131.394 126.271C133.459 127.073 135.542 127.872 137.673 128.445C138.583 128.685 139.489 128.908 140.418 129.054C140.797 129.115 141.173 129.158 141.566 129.198C143.235 127.83 142.848 124.365 139.987 124.012C138.838 123.869 137.723 123.61 136.608 123.259C136.314 122.874 135.887 122.566 135.347 122.334C134.056 121.832 132.721 119.846 131.541 118.961C130.128 117.916 128.438 117.922 127.203 116.464C126.369 115.463 125.484 114.198 124.516 113.076C122.58 112.852 120.581 112.875 118.574 112.955C118.116 112.963 117.644 112.992 117.186 112.999C115.14 113.068 113.077 113.139 111.091 112.942Z" fill="#608437"/>
    <path d="M130.615 88.1635C130.166 88.3153 129.721 88.4847 129.275 88.6542C129.036 88.7508 128.794 88.8298 128.559 88.9441C128.323 89.0584 128.081 89.1373 127.846 89.2516L127.828 89.2548L127.186 89.5498C126.394 89.9259 125.605 90.3197 124.841 90.7455C124.741 90.7995 124.641 90.8536 124.541 90.9076C124.241 91.0696 123.963 91.2461 123.684 91.4226C123.42 91.5784 123.191 91.7278 122.93 91.9012C122.619 92.1016 122.294 92.3227 122.001 92.52C121.693 92.738 121.386 92.956 121.078 93.174C120.932 93.2727 120.803 93.3682 120.674 93.4637C120.338 93.7232 119.983 93.986 119.65 94.2631C119.411 94.451 119.189 94.6357 118.952 94.8412C118.605 95.1391 118.261 95.4545 117.935 95.7668C117.838 95.8384 117.763 95.9245 117.669 96.0138C117.436 96.2369 117.2 96.4425 116.985 96.6625C116.784 96.8617 116.583 97.061 116.368 97.281C116.35 97.2841 116.335 97.3049 116.321 97.3256C116.12 97.5249 115.923 97.7416 115.725 97.9585C115.312 98.3953 114.921 98.8467 114.533 99.3156C114.324 99.5709 114.101 99.8468 113.893 100.102C113.731 100.313 113.565 100.506 113.404 100.716C112.626 101.745 111.909 102.801 111.269 103.878C111.114 104.124 110.977 104.367 110.822 104.613C110.644 104.935 110.464 105.24 110.286 105.563C109.081 107.814 108.137 110.184 107.448 112.636C107.754 112.601 108.077 112.562 108.38 112.509C108.318 112.666 108.256 112.822 108.229 112.973C108.214 113.085 108.199 113.197 108.187 113.326C108.304 113.269 108.404 113.215 108.519 113.14C108.536 113.137 108.554 113.134 108.569 113.113C109.033 112.849 109.5 112.603 109.965 112.34C110.529 112.022 111.072 111.689 111.636 111.372C112 111.162 112.361 110.934 112.704 110.71C113.229 110.381 113.755 110.052 114.277 109.705C114.391 109.63 114.487 109.559 114.602 109.484C114.959 109.239 115.32 109.011 115.657 108.752C116.079 108.459 116.5 108.166 116.919 107.856C117.227 107.638 117.516 107.423 117.82 107.187C118.271 106.853 118.719 106.501 119.163 106.132C119.599 105.436 119.951 104.682 120.233 103.849C120.336 103.521 120.393 103.147 120.429 102.758C121.11 102.475 121.778 102.12 122.439 101.64C123.745 100.682 124.536 98.9581 125.195 97.4035C125.477 97.2446 125.738 97.071 125.992 96.8624C127.661 95.4944 128.633 94.1397 128.978 92.3853C130.223 91.4013 131.599 90.5218 132.929 89.5957C133.72 89.0196 134.005 88.2045 133.942 87.396C132.808 87.5226 131.694 87.8462 130.622 88.1987L130.615 88.1635Z" fill="#608437"/>
    <path d="M93.2637 100.162C93.1109 100.517 92.8769 100.831 92.5516 101.052C92.1619 101.321 91.7029 101.42 91.2262 101.522C89.9459 101.747 88.631 101.888 87.3608 102.166C86.4429 102.364 85.563 102.664 84.7345 103.138C84.4058 103.341 84.0838 103.58 83.8008 103.83C81.6943 105.694 80.9198 108.854 80.9753 111.74C81.0349 113.878 81.6386 116.267 83.2009 117.613C83.3557 117.749 83.5249 117.865 83.6907 117.964C83.9022 118.108 84.1459 118.23 84.3862 118.333C85.4126 117.26 86.6182 116.356 87.8272 115.469C89.3697 112.193 92.2609 109.626 93.366 106.081C94.0157 104 94.0095 101.852 93.2425 100.147L93.2637 100.162Z" fill="#608437"/>
    <path d="M247.542 23.4284C241.931 27.0563 236.239 30.6438 233.668 36.6144C231.806 40.9121 231.951 45.8038 230.797 50.3413C233.073 50.2321 235.259 49.6473 237.31 48.7402C237.51 46.5195 239.247 43.2998 239.982 41.9504C240.831 40.435 241.717 38.9134 242.383 37.3029C242.911 36.0262 243.773 34.3813 244.056 32.7836C246.158 30.6107 247.898 27.7913 247.808 24.8204C247.782 24.2969 247.694 23.8388 247.528 23.4492L247.542 23.4284Z" fill="#809D4B"/>
    <path d="M234.961 61.355C228.368 60.7119 221.435 62.8058 215.245 65.4246C217.205 67.7933 219.214 70.2262 221.705 72.0097C223.448 71.3206 224.936 69.9663 226.882 69.5693C229.645 69.0284 232.091 69.0353 234.813 69.813C236.31 70.2416 237.521 69.5551 238.153 68.5334C239.712 67.3666 239.935 64.3954 237.517 63.382C236.527 63.0099 235.573 62.5402 234.645 62.0114C234.75 61.7926 234.873 61.5707 234.957 61.3374L234.961 61.355Z" fill="#809D4B"/>
    <path d="M216.826 27.0659C214.174 30.2096 213.421 34.731 213.303 38.9222C213.09 46.1716 214.326 53.6941 218.106 59.913C218.139 59.7979 218.151 59.6684 218.16 59.5212C218.314 56.9626 217.035 54.6928 216.82 52.1264C216.582 49.054 217 46.3396 217.854 43.403C218.472 41.2545 216.925 39.8877 217.166 37.7872C217.481 35.1093 217.871 32.4366 218.243 29.7669C218.434 28.4585 217.762 27.5386 216.805 27.0514L216.826 27.0659Z" fill="#809D4B"/>
    <path d="M220.307 77.4826C219.789 78.1383 219.462 78.9243 219.478 79.7774C219.49 81.3779 220.323 83.526 218.878 84.2355C223.126 85.4004 227.374 86.5653 231.636 87.7094C233.831 88.325 236.04 88.9197 238.313 89.1754C238.008 88.7372 237.679 88.3582 237.299 88.0061C236.987 87.624 236.646 87.2834 236.252 86.9521C236.257 86.7872 236.426 86.6117 236.606 86.0154C237.272 83.7311 234.962 81.1689 232.592 82.4236C231.975 82.7508 231.217 83.2119 230.419 83.5528C229.352 83.0667 228.313 82.6302 227.422 82.2041C224.628 80.8563 222.629 79.5325 220.332 77.5145L220.307 77.4826Z" fill="#809D4B"/>
    <path d="M190.059 38.4769C190.09 37.1966 190.301 35.994 190.954 34.9867C190.707 35.2306 190.414 35.4279 190.103 35.6283C189.592 35.9367 189.039 36.2161 188.549 36.539C188.809 36.8393 189.133 37.0919 189.503 37.2999C189.546 37.3289 189.585 37.3403 189.606 37.3548C189.765 37.7092 189.911 38.0841 190.038 38.4624L190.059 38.4769Z" fill="#3B622C"/>
    <path d="M190.958 35.0043C191.159 34.8051 191.359 34.6058 191.497 34.3631C191.296 34.5623 191.116 34.7761 190.958 35.0043Z" fill="#3B622C"/>
    <path d="M195.926 31.6715C192.756 36.1448 190.715 41.3299 190.495 46.8139C190.109 56.3336 194.948 65.2987 199.854 73.5596C200.154 74.0714 200.517 74.6265 201.098 74.7793C201.282 72.4705 201.823 70.2081 202.446 67.9859C201.613 65.8379 200.537 63.7688 200.145 61.5249C199.55 58.2239 200.114 54.8283 200.046 51.4894C199.959 47.8624 198.97 44.3214 199.794 40.7524C200.311 38.5491 200.23 36.6873 199.283 34.614C198.616 33.1468 197.366 32.1832 195.912 31.6923L195.926 31.6715Z" fill="#809D4B"/>
    <path d="M175.527 64.8545C173.547 65.1665 172.296 66.024 171.365 67.7904C171.028 68.4324 170.817 69.2526 170.606 70.164C170.491 70.2387 170.395 70.3103 170.302 70.3996C170.083 71.6583 169.924 72.9429 169.801 74.2212C169.199 80.2094 169.066 86.2427 169.388 92.2506C170.258 91.5147 171.086 90.7498 171.871 89.956C172.133 89.6914 172.395 89.4268 172.657 89.1622C172.826 88.313 172.991 87.4461 173.375 86.6683C173.955 85.4735 174.603 84.2486 174.713 82.8999C174.827 81.4775 174.53 80.9833 175.077 79.6123C175.638 78.2206 175.804 76.9713 175.862 75.4495C175.949 72.5385 178.731 70.9381 178.982 67.9254C179.136 66.0406 177.398 64.5436 175.542 64.8338L175.527 64.8545Z" fill="#3B622C"/>
    <path d="M149.143 101.531C148.72 101.624 148.278 101.72 147.858 101.83C147.872 101.901 147.885 101.971 147.899 102.042C148.371 102.013 148.826 101.988 149.305 101.995C154.805 101.919 160.359 103.382 165.116 106.151C165.674 106.472 166.217 106.814 166.746 107.176C167.211 107.495 167.68 107.831 168.145 108.15C172.31 108.692 176.451 108.528 180.492 106.688C181.626 106.179 183.312 105.573 184.532 104.648C186.618 104.408 188.834 103.599 190.302 103.104C191.061 102.843 191.601 102.111 191.819 101.326C192.394 100.587 192.625 99.5815 192.1 98.4718C191.885 98.018 191.669 97.5643 191.472 97.1073C191.459 96.9456 191.446 96.7839 191.381 96.6316C191.236 96.1652 191.049 95.7612 190.836 95.4162C188.471 95.1585 186.098 95.248 183.742 95.5169C181.596 95.7306 179.444 96.109 177.307 96.4668C172.346 97.3397 167.36 98.1806 162.399 99.0534C157.95 99.8179 153.519 100.579 149.135 101.587L149.143 101.531Z" fill="#809D4B"/>
    <path d="M166.74 50.1374C166.584 49.8007 166.41 49.4671 166.222 49.1543C166.021 50.7011 165.76 52.2221 165.841 53.0274C165.863 53.242 165.904 53.4534 165.959 53.6441C166.06 54.1726 166.251 54.5944 166.431 54.9632C166.582 54.791 166.712 54.6042 166.821 54.403C167.594 53.065 167.382 51.5725 166.755 50.1167L166.74 50.1374Z" fill="#3B622C"/>
    <path d="M170.795 41.156C170.274 43.433 169.942 45.7317 170.077 48.0754C170.199 50.0573 170.622 52.0773 170.105 53.9893C169.71 55.4794 168.777 56.7543 168.124 58.1441C167.431 59.6137 167.056 61.2093 166.681 62.8051C166.314 64.3449 165.95 65.9024 165.582 67.4421C165.319 68.563 165.264 70.1025 166.356 70.5295C167.29 70.8934 168.253 70.0682 168.858 69.288C168.915 69.205 168.991 69.1189 169.048 69.0359C169.265 68.3422 169.543 67.583 170.066 66.7625C170.701 65.7584 171.128 64.627 171.009 63.4277C170.915 62.5519 172.276 60.7281 172.621 59.9388C174.478 55.7147 171.197 52.0123 172.12 47.898C172.693 45.4116 172.383 43.1167 170.812 41.1529L170.795 41.156Z" fill="#3B622C"/>
    <path d="M131.568 107.373C131.568 107.373 131.51 107.456 131.484 107.515C135.159 108.471 137.406 112.338 140.599 114.526C142.059 115.526 143.724 116.162 145.39 116.797C147.805 117.702 150.259 118.618 152.736 119.366C153.264 119.528 153.805 119.669 154.333 119.831C154.35 119.828 154.393 119.857 154.41 119.854C156.605 120.47 158.865 120.946 161.141 121.22C162.421 121.377 163.688 121.464 164.975 121.565C167.008 121.717 169.032 121.926 170.979 122.494C171.68 122.698 172.391 122.956 173.062 123.293C172.423 120.145 169.68 117.332 165.575 117.107C162.79 116.96 160.225 117.101 157.61 115.922C156.54 115.418 155.486 115.003 154.414 114.681C154.27 114.506 154.138 114.293 154.023 114.076C153.553 113.157 152.464 112.366 151.499 112.026C149.444 111.276 147.473 112.406 145.532 110.908C143.894 109.648 142.23 108.539 140.441 107.542C140.194 107.404 139.946 107.265 139.699 107.126C139.17 107.147 138.638 107.149 138.091 107.173C137.743 107.179 137.398 107.203 137.05 107.21C135.207 107.279 133.382 107.346 131.553 107.394L131.568 107.373Z" fill="#3B622C"/>
    <path d="M150.27 68.5879C150.27 68.5879 150.224 68.6324 150.213 68.6707C150.094 68.8191 149.993 68.9645 149.892 69.1097C149.705 69.3794 149.535 69.6461 149.366 69.9126C149.221 70.1201 149.113 70.3212 148.986 70.5256C148.86 70.7299 148.748 70.9136 148.657 71.1117C148.534 71.3336 148.411 71.5555 148.306 71.7744C147.955 72.4371 147.628 73.132 147.316 73.8062C146.474 75.6481 145.673 77.519 144.912 79.4012C143.83 82.1049 142.85 84.8633 141.984 87.6382C141.293 87.8691 140.581 87.9944 139.858 87.9578C139.804 87.9672 139.765 87.9558 139.709 87.9476C139.595 87.9311 139.467 87.9353 139.336 87.922C138.952 88.6998 138.624 89.4859 138.459 90.3527C138.377 90.6949 138.349 91.0278 138.328 91.3958C138.57 91.3168 138.812 91.2376 139.054 91.1586C139.86 90.853 140.606 90.4304 141.321 89.9404C140.103 94.1431 139.139 98.4285 138.42 102.744C138.291 103.513 138.184 104.297 138.059 105.084C138.646 104.598 139.23 104.095 139.814 103.591C140.545 102.515 141.047 101.389 141.443 100.19C142.083 100.078 142.725 99.7827 143.249 99.1622C143.986 98.3042 144.68 97.4171 145.336 96.5187C147.098 94.2964 148.857 92.0565 150.601 89.8373C152.051 87.9978 153.825 85.646 152.598 83.1666C151.669 81.2903 151.437 78.7269 150.893 76.3639C152.023 75.2546 152.786 73.8637 152.463 72.1722C152.139 70.4808 151.318 69.2596 150.306 68.5816L150.27 68.5879Z" fill="#3B622C"/>
    <path d="M111.091 112.942C113.075 115.434 115.316 117.736 117.902 119.63C120.298 121.394 122.946 122.749 125.674 123.945C127.561 124.778 129.488 125.532 131.394 126.271C133.459 127.073 135.542 127.872 137.673 128.444C137.479 127.623 136.972 126.892 136.057 126.434C132.776 124.753 130.974 121.191 127.82 119.688C127.276 119.346 126.7 119.12 126.08 119.047C125.888 119.008 125.75 118.959 125.619 118.946C125.163 118.097 124.707 117.54 123.79 116.973C122.573 116.186 120.653 114.411 118.577 112.973C118.119 112.981 117.647 113.009 117.189 113.017C115.143 113.085 113.08 113.157 111.094 112.96L111.091 112.942Z" fill="#3B622C"/>
    <path d="M124.82 90.731C124.72 90.785 124.62 90.8391 124.52 90.8931C124.221 91.0552 123.942 91.2316 123.663 91.4081C123.399 91.5639 123.17 91.7135 122.909 91.8869C122.598 92.0873 122.273 92.3084 121.98 92.5057C121.672 92.7237 121.365 92.9415 121.057 93.1596C120.911 93.2582 120.782 93.3537 120.653 93.4492C120.317 93.7087 119.963 93.9715 119.63 94.2486C119.39 94.4365 119.168 94.6213 118.931 94.8268C118.584 95.1246 118.24 95.44 117.914 95.7523C117.817 95.824 117.742 95.9103 117.648 95.9995C117.415 96.2226 117.179 96.428 116.964 96.648C116.763 96.8472 116.562 97.0465 116.347 97.2665C116.329 97.2696 116.315 97.2904 116.3 97.3112C116.099 97.5104 115.902 97.7271 115.704 97.944C115.292 98.3808 114.9 98.8322 114.512 99.3011C114.303 99.5564 114.08 99.8323 113.872 100.088C113.71 100.298 113.545 100.491 113.383 100.702C112.605 101.731 111.888 102.786 111.249 103.864C111.093 104.11 110.956 104.352 110.801 104.598C110.623 104.921 110.443 105.226 110.266 105.548C109.06 107.8 108.116 110.17 107.427 112.622C107.364 112.87 107.287 113.138 107.224 113.386C107.202 113.463 107.183 113.557 107.161 113.634C107.375 113.597 107.588 113.559 107.795 113.486C107.795 113.486 107.801 113.485 107.812 113.483C108.055 113.404 108.308 113.287 108.512 113.105C108.53 113.102 108.548 113.099 108.562 113.078C108.834 112.866 109.075 112.587 109.267 112.244C109.339 112.14 109.386 112.004 109.437 111.886C109.801 111.002 110.347 110.397 110.991 109.919C112.354 108.878 114.141 108.418 115.426 107.063C116.926 105.487 118 103.896 118.59 101.789C119.021 100.293 118.713 99.8369 120.026 98.8227C121.021 98.0649 122.065 97.3715 123.041 96.6169C124.595 95.4148 125.494 93.8724 125.11 91.8638C125.033 91.4585 124.923 91.0771 124.785 90.7373L124.82 90.731Z" fill="#3B622C"/>
    <path d="M87.3607 102.166C86.4428 102.364 85.5629 102.664 84.7344 103.138C84.4057 103.341 84.0837 103.58 83.8007 103.83C81.6942 105.694 80.9197 108.854 80.9752 111.74C81.0348 113.878 81.6385 116.267 83.2008 117.613C83.3556 117.75 83.5248 117.865 83.6906 117.964C84.5479 117.449 85.3225 116.693 85.8932 115.737C86.4961 114.757 86.8318 113.532 86.9219 112.369C86.9578 111.98 86.9938 111.591 86.9942 111.209C87.1873 111.065 87.356 110.89 87.4824 110.686C87.996 110.104 88.0736 108.779 88.2787 108.506C88.8288 107.826 89.4587 106.987 89.4859 106.072C89.536 104.315 88.6586 102.994 87.3218 102.155L87.3607 102.166Z" fill="#3B622C"/>
    <path d="M83.8186 103.827C81.712 105.691 80.9376 108.85 80.993 111.736C81.0526 113.875 81.6563 116.264 83.2186 117.61C83.2551 117.512 83.2739 117.418 83.2892 117.306C83.5738 115.525 83.8228 113.752 84.1286 111.986C84.2989 110.954 85.4056 110.013 85.8595 109.023C86.7962 107 85.475 104.992 83.8152 103.809L83.8186 103.827Z" fill="#406A2F"/>
    <path d="M117.914 95.7524C117.817 95.824 117.742 95.9103 117.649 95.9996C117.415 96.2227 117.179 96.4281 116.964 96.6481C116.763 96.8473 116.562 97.0466 116.347 97.2666C116.329 97.2697 116.315 97.2905 116.3 97.3112C116.099 97.5105 115.902 97.7272 115.704 97.9441C115.292 98.3809 114.9 98.8323 114.512 99.3012C114.303 99.5564 114.08 99.8324 113.872 100.088C113.71 100.298 113.545 100.491 113.383 100.702C112.605 101.731 111.888 102.786 111.249 103.864C111.093 104.11 110.956 104.352 110.801 104.598C110.624 104.921 110.443 105.226 110.266 105.548C109.06 107.8 108.117 110.17 107.427 112.622C107.364 112.87 107.287 113.138 107.224 113.386C107.57 113.271 107.909 113.12 108.208 112.958C108.579 112.784 108.937 112.539 109.252 112.265C109.621 111.981 109.94 111.634 110.232 111.236C110.52 110.821 110.766 110.378 110.991 109.919C111.56 108.763 111.995 107.575 113.088 106.946C114.638 106.017 115.543 104.984 115.612 103.133C115.698 101.278 115.804 100.677 117.224 99.2613C118.135 98.3543 118.547 97.0435 117.931 95.8406C117.924 95.8053 117.903 95.7908 117.878 95.7587L117.914 95.7524Z" fill="#406A2F"/>
    <path d="M111.091 112.943C113.075 115.435 115.316 117.736 117.902 119.63C120.298 121.394 122.946 122.749 125.674 123.945C125.696 123.868 125.718 123.791 125.762 123.729C126.293 122.087 125.212 119.892 123.26 119.871C122.191 119.859 120.402 117.424 119.678 116.713C119.186 116.254 118.708 115.773 118.216 115.313C118.094 115.153 117.978 115.027 117.904 114.931C117.965 114.192 117.688 113.512 117.203 112.996C115.158 113.065 113.095 113.137 111.109 112.94L111.091 112.943Z" fill="#406A2F"/>
    <path d="M133.088 106.195C132.225 106.292 131.616 106.764 131.223 107.397C131.223 107.397 131.212 107.436 131.197 107.457C131.293 107.476 131.389 107.496 131.488 107.533C135.162 108.489 137.409 112.355 140.602 114.543C142.062 115.543 143.727 116.179 145.393 116.815C147.808 117.719 150.262 118.635 152.739 119.383C153.267 119.545 153.808 119.687 154.336 119.849C154.353 119.846 154.396 119.875 154.414 119.872C156.608 120.487 158.868 120.964 161.144 121.237C162.424 121.394 163.691 121.481 164.978 121.583C162.865 119.66 160.008 118.851 157.1 119.308C155.936 117.837 154.849 117.245 152.302 116.328C151.217 115.936 149.227 115.721 148.621 114.571C148.175 113.776 147.649 112.848 146.887 112.327C145.28 111.225 142.89 111.701 141.492 110.162C140.745 109.328 139.943 108.304 138.994 107.669C138.698 107.466 138.409 107.299 138.123 107.149C136.517 106.247 135.121 105.965 133.103 106.174L133.088 106.195Z" fill="#406A2F"/>
    <path d="M139.34 87.9397C138.326 87.8268 137.335 87.5459 136.332 87.3946C135.843 88.0088 135.403 88.6872 135.065 89.4204C134.622 90.3725 134.157 91.4012 133.794 92.4849C135.101 92.1093 136.516 91.915 137.847 91.5715C138.004 91.5257 138.178 91.477 138.335 91.4312C138.577 91.3522 138.819 91.2731 139.061 91.194C139.867 90.8884 140.613 90.4658 141.328 89.9758C140.11 94.1785 139.146 98.4639 138.427 102.779C141.014 101.504 141.259 99.4215 142.332 96.9563C142.827 95.7947 144.431 95.1483 145.225 94.2073C146.141 93.1355 146.866 92.0246 147.451 90.7562C148.424 88.6363 149.942 85.7103 148.595 83.3793C147.685 81.7911 146.439 80.4624 144.923 79.4543C143.84 82.1579 142.861 84.9164 141.994 87.6913C141.303 87.9221 140.592 88.0472 139.868 88.0107C139.815 88.02 139.776 88.0089 139.719 88.0006C139.606 87.9842 139.478 87.9884 139.347 87.975L139.34 87.9397Z" fill="#406A2F"/>
    <path d="M149.143 101.531C149.173 101.69 149.236 101.825 149.301 101.977C154.801 101.902 160.356 103.365 165.112 106.134C167.911 105.678 170.747 106.09 173.382 104.97C174.094 105.428 175.034 105.536 176.012 104.981C177.076 104.393 178.158 103.802 179.218 103.197C179.997 102.75 180.532 102.091 180.75 101.306C181.57 101.271 182.393 101.054 183.322 100.726C185.353 100.005 185.45 96.8554 183.682 95.7822C183.64 95.7533 183.619 95.7389 183.594 95.7068C183.634 95.6269 183.66 95.5678 183.717 95.4849C183.717 95.4849 183.714 95.4672 183.728 95.4464C181.582 95.6602 179.43 96.0388 177.293 96.3966C172.332 97.2694 167.346 98.1101 162.385 98.9829C157.936 99.7474 153.505 100.509 149.122 101.517L149.143 101.531Z" fill="#4F772D"/>
  </g>
  <defs>
    <clipPath id="clip0_122_999">
      <rect width="113" height="264" fill="white" transform="translate(0.5 113.5) rotate(-90)"/>
    </clipPath>
  </defs>
</svg>
