<svg width="250" height="217" viewBox="0 0 250 217" fill="none"
  xmlns="http://www.w3.org/2000/svg">
  <path d="M123.63 202.593C125.116 200.952 126.954 198.641 129.374 199.178C129.952 199.31 130.49 199.602 130.934 200.023C131.204 200.049 131.465 200.147 131.692 200.307C131.803 200.39 131.905 200.485 131.996 200.591C132.17 200.816 132.3 201.076 132.379 201.354C136.9 217.259 133.43 233.492 126.911 248.018C124.423 253.656 121.625 259.127 118.532 264.405C117.138 266.729 115.671 269.002 114.123 271.171C108.73 278.725 101.916 284.919 95.2099 291.073C93.9281 292.26 91.9659 290.629 92.226 289.03C92.2741 288.741 92.3181 288.461 92.37 288.175C95.7118 267.72 99.2106 246.936 107.57 228.078C111.605 218.704 117.027 210.1 123.63 202.593Z" fill="#30421F"/>
  <path d="M131.688 200.272C131.798 200.355 131.9 200.451 131.99 200.559C132.165 200.782 132.296 201.04 132.377 201.317C136.899 217.227 133.43 233.467 126.907 247.999C124.416 253.639 121.615 259.113 118.52 264.394C117.127 266.72 115.658 268.992 114.109 271.162C108.714 278.719 101.9 284.916 95.1908 291.072C93.9051 292.26 91.9428 290.628 92.2043 289.027C92.2547 288.739 92.2979 288.459 92.3484 288.171C98.4276 283.381 103.596 275.667 105.312 268.004C107.072 260.192 106.017 251.965 107.514 244.103C110.787 226.916 120.97 212.961 131.69 200.274" fill="#768C4D"/>
  <path d="M132.022 200.557C132.196 200.781 132.327 201.04 132.405 201.319C136.923 217.211 133.455 233.434 126.941 247.95C124.455 253.581 121.66 259.048 118.569 264.32C115.759 259.647 113.906 254.398 113.133 248.925C112.36 243.451 112.686 237.877 114.088 232.576C115.941 225.782 119.729 219.963 123.323 214.142C126.155 209.564 129.055 205.034 132.023 200.554" fill="#AEBD7A"/>
  <path d="M84.3247 191.227C89.0523 190.627 93.8566 191.547 98.1251 193.871C98.5305 194.097 98.9436 194.33 99.3453 194.577C103.33 197.066 108.027 201.481 108.99 206.528C109 206.537 109.004 206.552 109.002 206.563C109.029 206.67 109.023 206.784 108.984 206.887C108.945 206.99 108.875 207.076 108.786 207.132C108.721 207.185 108.642 207.213 108.56 207.212C108.369 207.222 108.201 207.228 108.043 207.223C107.97 207.261 107.888 207.277 107.807 207.271C98.4319 206.527 91.3556 199.831 84.92 193.065C84.6133 192.745 84.3057 192.416 83.9985 192.098C83.9356 192.024 83.8934 191.934 83.8766 191.836C83.8598 191.739 83.8691 191.638 83.9036 191.547C83.938 191.456 83.9961 191.377 84.0711 191.32C84.1462 191.263 84.235 191.23 84.3273 191.225" fill="#758B4C"/>
  <path d="M84.3273 191.225C89.0546 190.625 93.8586 191.546 98.1268 193.869C98.5322 194.095 98.9453 194.328 99.3469 194.576C103.331 197.064 108.028 201.478 108.991 206.525C109.001 206.534 109.005 206.549 109.003 206.56C109.03 206.668 109.023 206.781 108.984 206.884C108.945 206.987 108.876 207.073 108.787 207.129C105.719 207.173 103.558 205.631 100.948 203.325C96.5435 199.425 90.8793 193.994 84.9189 193.068C84.6122 192.748 84.3047 192.419 83.9974 192.101C83.9346 192.028 83.8923 191.937 83.8755 191.84C83.8588 191.742 83.8681 191.642 83.9026 191.551C83.937 191.459 83.9951 191.381 84.0701 191.324C84.1451 191.267 84.234 191.234 84.3263 191.229" fill="#93A350"/>
  <path d="M98.128 193.84C98.5386 194.063 98.9463 194.299 99.3478 194.546C103.333 197.032 108.027 201.447 108.991 206.491C103.758 204.761 97.949 199.859 98.1272 193.839" fill="#C7D288"/>
  <path d="M99.7618 208.743C100.062 208.68 100.376 208.631 100.7 208.589C100.845 208.572 100.995 208.548 101.139 208.533C101.266 208.522 101.392 208.566 101.49 208.654C101.588 208.742 101.65 208.868 101.663 209.003C102.59 215.611 100.277 222.427 97.8904 228.393C97.7292 228.805 97.554 229.221 97.3808 229.635C96.3328 232.131 95.0617 234.51 93.5852 236.741L93.5576 236.776C92.8738 237.798 92.1359 238.777 91.3477 239.708C89.7401 241.628 87.8849 243.294 85.8368 244.656C85.4244 245.15 84.9984 245.644 84.5789 246.13C84.5111 246.213 84.4199 246.27 84.3187 246.293C84.2175 246.316 84.1118 246.303 84.0171 246.257C83.9225 246.21 83.844 246.133 83.7932 246.036C83.7424 245.938 83.7221 245.827 83.7352 245.717C85.0771 232.99 84.4483 211.557 99.7573 208.741" fill="#758B4C"/>
  <path d="M99.763 208.723C100.064 208.66 100.377 208.61 100.701 208.569C100.846 208.551 100.996 208.528 101.14 208.512C101.267 208.502 101.393 208.545 101.491 208.633C101.589 208.721 101.651 208.847 101.664 208.983C102.591 215.589 100.278 222.405 97.8918 228.37C97.7306 228.783 97.5554 229.198 97.3823 229.612C96.3344 232.108 95.0635 234.487 93.5871 236.718C93.5801 236.727 93.5664 236.726 93.5594 236.735L93.5628 236.749C92.879 237.77 92.1412 238.749 91.3531 239.68C91.6179 234.533 89.1919 229.359 90.7978 223.784C92.5259 218.011 95.612 212.825 99.7626 208.718" fill="#93A350"/>
  <path d="M100.712 208.561C100.857 208.544 101.007 208.52 101.151 208.505C101.278 208.494 101.404 208.537 101.502 208.626C101.6 208.714 101.662 208.839 101.674 208.975C102.608 215.583 100.296 222.394 97.9095 228.35C97.7484 228.762 97.5721 229.179 97.3991 229.593C93.349 223.199 96.3676 214.17 100.712 208.561Z" fill="#C7D288"/>
  <path d="M128.401 198.317C128.579 198.119 128.774 197.94 128.984 197.783C129.239 197.584 129.518 197.425 129.815 197.31C133.811 195.708 138.417 203.444 140.58 206.051C145.749 212.25 150.468 219.249 152.615 227.306C154.883 235.772 154.887 244.536 154.644 253.341C154.404 262.68 153.867 272.058 155.431 281.166C156.826 282.803 154.554 285.465 152.693 283.991C152.663 283.964 152.622 283.938 152.593 283.912C139.147 273.292 129.606 257.958 125.669 240.641C123.969 232.906 123.421 224.948 124.043 217.06C124.371 212.752 125.067 208.49 126.121 204.326C126.62 202.363 127.007 199.847 128.398 198.321" fill="#0A342E"/>
  <path d="M128.401 198.317C128.579 198.119 128.774 197.94 128.984 197.783C129.239 197.584 129.518 197.425 129.815 197.31C133.811 195.708 138.417 203.444 140.58 206.051C145.749 212.25 150.468 219.249 152.615 227.306C154.883 235.772 154.887 244.536 154.644 253.341C154.403 262.681 153.867 272.058 155.432 281.163C156.828 282.8 154.556 285.462 152.694 283.988C152.665 283.962 152.624 283.936 152.594 283.91C151.411 275.625 152.85 267.4 148.12 259.952C145.542 255.682 142.433 251.802 138.88 248.422C135.781 245.635 132.503 243.299 130.242 239.621C123.234 228.243 123.551 211.192 128.405 198.317" fill="#265337"/>
  <path d="M129.917 197.309C133.91 195.709 138.51 203.436 140.672 206.041C145.834 212.232 150.546 219.225 152.694 227.275C154.96 235.731 154.962 244.49 154.718 253.288C152.961 248.252 149.449 244.592 145.215 240.387C140.271 235.59 136.028 230.027 132.63 223.889C128.269 215.598 128.037 206.241 129.91 197.305" fill="#A5BA80"/>
  <path d="M118.181 150.941C122.198 152.543 126.383 153.992 130.435 155.705C133.422 156.918 136.319 158.375 139.101 160.062C144.272 163.268 148.59 167.734 152.581 172.447C154.002 174.12 156.791 176.907 157.109 179.61C157.176 180.132 157.134 180.663 156.987 181.164C156.84 181.665 156.591 182.124 156.258 182.509C155.817 183.092 155.184 183.472 154.486 183.574C153.766 183.601 153.045 183.538 152.337 183.384C145.091 180.676 137.421 177.761 131.931 171.712C126.387 165.604 123.674 158.021 117.178 152.629C117.008 152.5 116.886 152.311 116.833 152.096C116.809 151.911 116.829 151.723 116.892 151.55C116.956 151.376 117.061 151.224 117.196 151.108C117.331 150.991 117.493 150.915 117.665 150.885C117.837 150.855 118.014 150.874 118.179 150.939" fill="#758B4C"/>
  <path d="M118.208 150.936C122.222 152.536 126.405 153.984 130.454 155.696C133.439 156.908 136.334 158.364 139.115 160.049C144.282 163.253 148.598 167.716 152.586 172.425C154.006 174.097 156.794 176.881 157.111 179.582C157.158 179.95 157.152 180.323 157.092 180.687C149.975 178.604 143.45 174.625 138.13 169.126C134.926 165.952 132.198 162.392 129.286 158.927C127.744 156.957 125.849 155.336 123.714 154.161C121.579 152.987 119.249 152.284 116.864 152.095C116.839 151.909 116.86 151.721 116.923 151.548C116.987 151.375 117.091 151.223 117.226 151.107C117.362 150.99 117.523 150.914 117.695 150.884C117.867 150.855 118.044 150.873 118.209 150.938" fill="#93A350"/>
  <path d="M130.465 155.675C133.448 156.886 136.343 158.34 139.123 160.024C144.286 163.226 148.603 167.687 152.588 172.392C154.008 174.067 156.796 176.848 157.11 179.548C151.869 178.071 147.804 174.406 144.137 170.04C139.753 164.841 135.559 159.859 130.465 155.675" fill="#C7D288"/>
  <path d="M190.394 155.492C190.775 155.068 191.177 154.666 191.599 154.289C193.017 152.879 194.817 151.983 196.748 151.726C196.774 151.723 196.808 151.712 196.835 151.71C197.046 151.691 197.257 151.747 197.436 151.87C197.615 151.993 197.752 152.175 197.825 152.388C198.267 153.73 198.666 155.095 199.016 156.478C203.275 172.94 201.713 191.927 197.149 207.845C194.27 217.935 188.617 226.397 182.615 234.624C181.191 236.587 179.723 238.525 178.214 240.419C173.287 246.666 167.95 252.529 162.242 257.963C162.15 258.058 162.036 258.128 161.912 258.165C161.788 258.202 161.657 258.206 161.53 258.176C161.403 258.146 161.285 258.083 161.186 257.993C161.087 257.904 161.009 257.789 160.961 257.66C160.834 257.441 160.783 257.181 160.816 256.927C160.85 256.673 160.967 256.441 161.146 256.272C161.224 256.203 161.29 256.135 161.358 256.064C161.374 256.002 161.396 255.942 161.424 255.884C165.861 248.106 165.939 238.176 166.482 229.18C166.59 216.348 168.56 203.634 172.321 191.493C172.444 190.874 172.645 190.277 172.919 189.719C173.219 188.832 173.495 187.924 173.805 187.033C176.439 179.576 179.765 172.427 183.732 165.692C185.449 162.778 187.63 158.534 190.396 155.488" fill="#30421F"/>
  <path d="M190.394 155.492C190.775 155.068 191.177 154.666 191.599 154.289C193.017 152.879 194.817 151.983 196.748 151.726C196.774 151.723 196.808 151.712 196.835 151.71C197.046 151.691 197.257 151.747 197.436 151.87C197.615 151.993 197.752 152.175 197.825 152.388C198.267 153.73 198.666 155.095 199.016 156.478C203.275 172.94 201.713 191.927 197.149 207.845C194.27 217.935 188.617 226.397 182.615 234.624C181.191 236.587 179.723 238.525 178.214 240.419C173.287 246.666 167.95 252.529 162.242 257.963C162.15 258.058 162.036 258.128 161.912 258.165C161.788 258.202 161.657 258.206 161.53 258.176C161.403 258.146 161.285 258.083 161.186 257.993C161.087 257.904 161.009 257.789 160.961 257.66C162.06 256.737 163.144 255.77 164.222 254.783C169.486 248.905 171.166 240.39 172.322 232.293C173.588 223.4 174.805 214.805 178.801 206.802C182.92 198.564 188.974 191.467 192.42 182.851C196.168 173.482 193.612 164.574 190.376 155.494" fill="#768C4D"/>
  <path d="M191.624 154.286C199.622 169.93 204.186 189.134 192.177 203.708C187.138 209.834 181.204 215.004 178.845 223.095C177.348 228.699 177.147 234.623 178.259 240.361C179.765 238.471 181.232 236.535 182.661 234.574C188.651 226.351 194.295 217.898 197.179 207.808C201.732 191.904 203.298 172.923 199.042 156.47C198.325 154.854 197.569 153.272 196.776 151.722L191.624 154.286Z" fill="#AEBD7A"/>
  <path d="M195.487 150.832C197.282 151.602 199.05 152.423 200.807 153.275C201.271 153.428 201.713 153.652 202.119 153.94C207.655 156.707 212.933 160.039 217.879 163.889C224.334 168.965 227.98 175.297 231.383 182.895C235.308 191.663 241.34 198.265 246.122 206.385C246.736 207.449 247.285 208.553 247.768 209.69C248.73 212.266 249.85 214.774 251.12 217.196C251.423 217.716 251.758 218.215 252.122 218.69C252.402 219.05 252.696 219.394 252.993 219.714C255.955 222.932 260.127 224.594 264.188 225.694C264.479 225.762 264.743 225.927 264.943 226.163C265.143 226.4 265.269 226.697 265.303 227.013C265.444 227.196 265.549 227.408 265.612 227.636C265.674 227.864 265.693 228.102 265.666 228.336C265.627 228.582 265.517 228.807 265.351 228.981C265.186 229.155 264.973 229.269 264.743 229.307C247.658 233.506 231.487 223.897 220.196 210.516C212.856 201.586 206.547 191.75 201.407 181.224C197.562 173.519 195.685 165.262 194.222 156.817C194.088 156.06 193.962 155.297 193.835 154.537C193.709 153.802 193.593 153.073 193.475 152.347C193.455 152.082 193.499 151.815 193.604 151.575C193.709 151.335 193.871 151.128 194.074 150.975C194.276 150.823 194.513 150.73 194.761 150.704C195.009 150.679 195.26 150.723 195.488 150.832" fill="#0A342E"/>
  <path d="M195.513 150.831C197.307 151.6 199.075 152.421 200.831 153.273C201.295 153.426 201.737 153.65 202.142 153.938C207.675 156.703 212.951 160.034 217.894 163.881C224.347 168.956 227.991 175.286 231.393 182.881C235.317 191.645 241.347 198.245 246.128 206.362C246.741 207.426 247.291 208.529 247.774 209.666C248.736 212.239 249.857 214.744 251.127 217.163C251.431 217.683 251.765 218.182 252.129 218.657C251.773 218.857 251.382 218.976 250.98 219.009C251.65 219.253 252.324 219.476 253.002 219.678C255.964 222.894 260.134 224.555 264.194 225.654C264.484 225.723 264.748 225.887 264.948 226.124C265.148 226.361 265.274 226.658 265.308 226.973C265.449 227.158 265.554 227.371 265.616 227.599C265.678 227.828 265.695 228.067 265.667 228.302C265.506 228.315 265.343 228.314 265.181 228.299C248.577 226.775 227.533 218.132 221.519 199.749C220.009 195.127 219.634 190.201 218.215 185.559C216.663 180.462 213.671 176.199 210.444 172.171C205.876 166.492 200.738 159.981 194.247 156.804C194.114 156.048 193.987 155.286 193.86 154.526C193.735 153.791 193.619 153.062 193.5 152.337C193.48 152.071 193.525 151.805 193.63 151.565C193.735 151.324 193.896 151.118 194.099 150.965C194.302 150.813 194.538 150.719 194.786 150.694C195.034 150.669 195.285 150.713 195.513 150.822" fill="#265337"/>
  <path d="M195.562 150.831C197.356 151.6 199.124 152.42 200.88 153.272C201.344 153.425 201.785 153.649 202.19 153.937C207.723 156.702 212.998 160.032 217.94 163.879C224.393 168.953 228.036 175.282 231.438 182.876C235.362 191.639 241.392 198.238 246.172 206.354C246.785 207.418 247.335 208.522 247.817 209.659C241.467 209.091 235.078 207.345 230.408 202.374C225.065 196.669 224.531 188.695 222.607 181.348C220.696 174.44 216.976 168.24 211.889 163.485C206.802 158.731 200.561 155.622 193.91 154.528C193.784 153.793 193.668 153.064 193.55 152.339C193.53 152.073 193.574 151.807 193.679 151.567C193.784 151.327 193.946 151.12 194.148 150.968C194.351 150.815 194.588 150.722 194.836 150.697C195.083 150.672 195.334 150.716 195.562 150.825" fill="#A5BA80"/>
  <path d="M95.477 97.0831C100.297 98.7708 106.055 97.1032 110.929 96.4689C115.881 95.8356 120.829 95.1988 125.773 94.5586C128.755 94.1678 131.754 93.8052 134.759 93.5284C140.799 92.8653 146.897 92.9145 152.942 93.6751C170.357 96.2031 185.804 106.426 199.749 117.407C199.944 117.569 200.112 117.767 200.243 117.991C204.341 120.854 207.89 125.007 209.272 130.109C209.963 132.673 209.172 135.42 207.244 136.192C207.16 136.235 207.071 136.267 206.981 136.287C206.871 136.375 206.754 136.451 206.63 136.513C206.604 136.532 206.577 136.533 206.551 136.55C197.541 140.656 187.828 141.689 178.066 141.36C168.706 141.03 158.996 140.366 150.029 137.157C140.151 133.461 130.744 128.428 122.04 122.179C112.386 115.377 104.571 105.925 93.9109 100.774C93.8465 100.743 93.7906 100.719 93.7398 100.688C91.6891 99.4906 93.2578 96.3094 95.4758 97.0847" fill="#0A342E"/>
  <path d="M95.477 97.0831C100.297 98.7708 106.055 97.1032 110.929 96.4689C115.881 95.8356 120.829 95.1988 125.773 94.5586C128.755 94.1678 131.754 93.8052 134.759 93.5284C140.799 92.8653 146.897 92.9145 152.942 93.6751C170.357 96.2031 185.804 106.426 199.749 117.407C199.944 117.569 200.112 117.767 200.243 117.991C204.341 120.854 207.89 125.007 209.272 130.109C209.963 132.673 209.172 135.42 207.244 136.192C206.715 136.261 206.179 136.322 205.643 136.369C198.373 137.075 191.038 136.82 183.805 135.609C172.698 133.761 163.709 125.677 154.673 119.046C137.088 106.13 115.219 92.4889 93.7373 100.685C91.6867 99.487 93.2554 96.3058 95.4733 97.0811" fill="#265337"/>
  <path d="M134.85 93.4084C140.883 92.7445 146.974 92.7936 153.012 93.5548C170.408 96.0777 185.836 106.289 199.767 117.254C199.96 117.416 200.127 117.613 200.259 117.835C204.351 120.695 207.899 124.843 209.279 129.938C209.97 132.499 209.178 135.244 207.253 136.014C207.169 136.055 207.082 136.086 206.991 136.107C206.881 136.194 206.764 136.27 206.64 136.334C206.612 136.35 206.585 136.353 206.562 136.369C206.26 136.323 205.949 136.256 205.655 136.191C202.192 135.432 198.748 133.894 195.402 133.093C188.098 131.351 181.725 127.287 175.63 122.746C162.134 112.674 150.484 99.5924 134.847 93.4184" fill="#A5BA80"/>
  <path d="M178.072 90.8748C178.234 90.798 178.412 90.7663 178.589 90.7825C178.766 90.7987 178.937 90.8624 179.086 90.9676C184.846 95.0072 191.738 98.8625 197.629 103.658C201.342 106.53 204.534 110.106 207.044 114.204C209.042 117.654 213.775 128.566 210.217 132.584L210.162 132.654C210.117 132.912 210.009 133.153 209.851 133.352C209.599 133.644 209.28 133.86 208.924 133.977C208.568 134.095 208.189 134.111 207.823 134.024C207.724 134.11 207.609 134.171 207.484 134.203C207.36 134.235 207.23 134.237 207.105 134.209C199.257 132.706 191.312 125.51 187.324 118.286C182.833 110.146 182.785 100.18 177.693 92.3065C177.606 92.1918 177.547 92.057 177.519 91.9133C177.491 91.7696 177.496 91.6214 177.533 91.4808C177.569 91.3403 177.637 91.2116 177.73 91.1056C177.824 90.9996 177.94 90.9192 178.068 90.8713" fill="#758B4C"/>
  <path d="M178.092 90.8727C178.254 90.796 178.432 90.7643 178.609 90.7805C178.786 90.7967 178.957 90.8603 179.106 90.9655C184.862 95.0027 191.751 98.8557 197.639 103.649C201.351 106.519 204.541 110.092 207.05 114.188C209.047 117.636 213.778 128.542 210.221 132.557L210.166 132.627C210.121 132.885 210.014 133.125 209.855 133.325C203.131 130.247 197.567 124.815 194.087 117.931C191.593 112.918 191.091 107.104 188.277 102.261C185.654 97.7583 181.922 94.2053 178.095 90.8695" fill="#93A350"/>
  <path d="M197.615 103.597C201.332 106.472 204.528 110.052 207.04 114.155C209.037 117.607 213.771 128.531 210.21 132.55C200.163 126.81 197.337 115.173 197.612 103.603" fill="#C7D288"/>
  <path d="M233.041 93.7701C241.864 107.21 247.452 122.743 249.305 138.975C250.006 145.791 250.082 152.656 249.533 159.471C249.39 161.492 249.212 163.515 248.999 165.543C248.186 173.426 247.388 181.368 245.285 188.962C245.103 189.804 244.898 190.641 244.66 191.475C244.568 191.975 244.455 192.486 244.371 192.993C244.332 193.206 244.229 193.4 244.079 193.546C243.929 193.691 243.739 193.782 243.536 193.803C243.334 193.825 243.129 193.777 242.952 193.666C242.775 193.556 242.635 193.388 242.553 193.187C242.466 193.058 242.406 192.909 242.378 192.753C242.359 192.645 242.334 192.539 242.302 192.434C242.28 192.335 242.245 192.235 242.223 192.136C241.975 191.316 241.729 190.512 241.482 189.692C237.792 178.44 231.634 167.927 229.227 156.346C226.43 147.94 224.161 139.371 223.448 130.478C222.935 123.908 223.36 117.304 224.71 110.894C225.185 108.05 225.858 105.25 226.724 102.518C227.422 100.788 228.301 99.1501 229.346 97.6356C229.776 96.9593 230.198 96.2776 230.584 95.5763C230.88 95.0377 231.148 94.4821 231.388 93.9117C231.459 93.75 231.568 93.6115 231.705 93.5099C231.842 93.4083 232.003 93.3472 232.17 93.3326C232.337 93.3181 232.505 93.3506 232.658 93.427C232.81 93.5033 232.942 93.6208 233.04 93.7679" fill="#30421F"/>
  <path d="M233.041 93.7701C241.864 107.21 247.452 122.743 249.305 138.975C250.006 145.791 250.082 152.656 249.533 159.471C249.39 161.492 249.212 163.515 248.999 165.543C248.186 173.426 247.388 181.368 245.285 188.962C245.103 189.804 244.898 190.641 244.66 191.475C244.568 191.975 244.455 192.486 244.371 192.993C244.332 193.206 244.229 193.4 244.079 193.546C243.929 193.691 243.739 193.782 243.536 193.803C243.334 193.825 243.129 193.777 242.952 193.666C242.775 193.556 242.635 193.388 242.553 193.187C242.466 193.058 242.406 192.909 242.378 192.753C242.359 192.645 242.334 192.539 242.302 192.434C246.24 176.339 236.294 161.417 233.321 145.994C231.691 137.549 232.727 129.287 233.344 120.824C233.921 113.005 233.848 104.192 229.349 97.6346C229.779 96.9582 230.202 96.2765 230.587 95.5752C230.883 95.0367 231.152 94.481 231.391 93.9106C231.462 93.7489 231.572 93.6104 231.709 93.5088C231.846 93.4072 232.006 93.3461 232.173 93.3315C232.34 93.317 232.508 93.3495 232.661 93.4259C232.814 93.5022 232.946 93.6198 233.044 93.7668" fill="#768C4D"/>
  <path d="M233.142 93.7692C241.957 107.197 247.54 122.715 249.392 138.932C250.092 145.741 250.168 152.599 249.619 159.409C246.411 151.075 241.043 143.211 239.357 134.499C236.924 121.884 240.408 105.203 230.689 95.5728C230.985 95.0348 231.253 94.4797 231.492 93.9099C231.563 93.7483 231.672 93.6099 231.809 93.5084C231.947 93.4069 232.107 93.3458 232.273 93.3313C232.44 93.3167 232.609 93.3492 232.761 93.4255C232.914 93.5018 233.045 93.6192 233.143 93.7661" fill="#AEBD7A"/>
  <path d="M231.231 93.4913C231.684 93.2096 232.183 93.0215 232.703 92.9365C234.32 92.7647 235.956 92.8686 237.548 93.2445C244.324 94.3504 250.976 96.2304 257.392 98.852C264.151 101.712 267.963 105.862 271.754 112.096C271.939 112.401 272.133 112.714 272.326 113.026C273.645 115.273 275.145 117.394 276.81 119.364C281.006 124.346 286.225 128.219 292.048 130.672C292.116 130.706 292.179 130.749 292.236 130.8L292.28 130.839C292.321 130.859 292.357 130.888 292.387 130.924C293.054 131.445 293 132.759 292.005 132.736C277.788 132.404 261.195 134.422 248.166 126.897C239.144 121.696 228.667 110.513 229.215 98.6464C229.339 95.8218 230.032 94.2603 231.232 93.4874" fill="#0A342E"/>
  <path d="M231.26 93.5003C231.713 93.2184 232.212 93.0302 232.732 92.9452C234.35 92.7741 235.986 92.8789 237.58 93.2557C244.356 94.3606 251.011 96.2395 257.429 98.8602C264.191 101.722 268.004 105.874 271.797 112.111C271.982 112.416 272.176 112.729 272.369 113.041C273.688 115.29 275.189 117.412 276.855 119.383C272.971 122.217 268.479 123.971 263.782 124.488C259.084 125.005 254.326 124.269 249.932 122.346C239.061 117.563 232.214 105.66 231.259 93.4928" fill="#265337"/>
  <path d="M232.755 92.9437C234.373 92.7725 236.009 92.8765 237.603 93.2518C244.381 94.3587 251.036 96.2389 257.455 98.8601C264.216 101.723 268.03 105.874 271.821 112.111C267.174 109.072 262.804 108.555 257.598 111.224C253.552 113.289 249.672 114.394 245.332 112.356C239.122 109.444 233.825 100.804 232.755 92.9437Z" fill="#A5BA80"/>
  <path d="M126.631 27.6452C130.761 30.2989 134.9 32.923 139.04 35.5637C148.155 41.3395 157.279 47.123 166.234 53.1793C172.104 56.9753 177.277 61.8918 181.494 67.6802C185.215 72.9426 189.672 78.5113 191.945 84.6798C192.086 85.1116 192.089 85.5792 191.954 86.0097C191.82 86.4402 191.556 86.8096 191.203 87.0601C191.081 87.1538 190.946 87.2284 190.804 87.2819C190.673 87.3221 190.555 87.3626 190.444 87.4071C190.209 87.6794 189.898 87.8633 189.556 87.9319C188.995 88.0755 188.432 88.1888 187.859 88.2833C173.483 90.813 157.02 81.1656 146.868 71.0076C140.969 65.1239 136.185 58.0824 132.782 50.2761C131.23 46.2559 129.383 42.3708 127.256 38.6575C125.489 35.8126 124.123 33.091 123.953 29.6579C123.936 29.3443 123.992 29.0321 124.117 28.7493C124.196 28.4867 124.327 28.2461 124.502 28.044C124.677 27.8419 124.891 27.6831 125.129 27.5785C125.368 27.474 125.625 27.4261 125.884 27.4381C126.143 27.4502 126.397 27.5219 126.629 27.6484" fill="#30421F"/>
  <path d="M126.658 27.6418C130.786 30.2942 134.923 32.9171 139.062 35.5565C148.174 41.3297 157.294 47.1104 166.246 53.1639C172.113 56.9581 177.285 61.8723 181.5 67.658C185.22 72.918 189.675 78.4841 191.947 84.6497C192.087 85.0813 192.091 85.5487 191.956 85.979C191.822 86.4093 191.558 86.7785 191.205 87.0289C191.083 87.1226 190.949 87.1972 190.806 87.2506C190.675 87.2907 190.557 87.3313 190.447 87.3758C190.212 87.648 189.901 87.8318 189.559 87.9003C188.998 88.0438 188.435 88.1571 187.863 88.2516C182.238 82.5389 176.295 77.1958 170.068 72.2522C163.916 67.5808 156.771 67.5646 149.89 65.0496C142.699 62.4328 139.026 56.2999 135.063 49.7251C132.794 46.0286 130.792 42.1552 129.072 38.1389C127.658 34.7681 126.477 31.2362 124.147 28.7421C124.226 28.4796 124.357 28.2391 124.532 28.0371C124.707 27.8351 124.92 27.6764 125.159 27.5719C125.398 27.4674 125.655 27.4195 125.914 27.4315C126.172 27.4436 126.426 27.5153 126.658 27.6418Z" fill="#768C4D"/>
  <path d="M139.083 35.5261C148.192 41.2967 157.307 47.0765 166.258 53.1256C172.122 56.9181 177.292 61.8301 181.506 67.6133C185.225 72.8709 189.678 78.4345 191.95 84.5974C192.09 85.0289 192.093 85.4961 191.96 85.9264C191.826 86.3567 191.562 86.7261 191.209 86.977C187.305 83.3089 183.653 79.3451 180.281 75.117C177.682 71.8823 174.775 68.9444 171.608 66.3517C167.47 63.1741 162.803 62.1201 158.029 60.6162C147.086 57.1865 139.269 47.33 139.084 35.5253" fill="#AEBD7A"/>
  <path d="M180.244 60.2297C180.409 60.1005 180.576 59.9727 180.744 59.8456C185.795 55.8955 190.92 51.945 196.613 49.0774C201.7 46.6906 207.042 44.9644 212.526 43.9353C213.117 43.8033 213.702 43.6794 214.294 43.5496C219.947 42.3332 225.325 41.5966 231.062 42.782C235.21 43.6331 239.627 44.5557 242.461 47.979C243.713 49.1468 244.972 50.3056 246.227 51.4724C246.374 51.5896 246.496 51.7381 246.586 51.9084C246.676 52.0786 246.732 52.2667 246.75 52.4606C246.769 52.6545 246.748 52.8498 246.691 53.034C246.635 53.2181 246.542 53.387 246.42 53.5296C246.363 53.7645 246.236 53.972 246.057 54.1198C245.993 54.2784 245.893 54.4171 245.766 54.5236C245.677 54.6608 245.569 54.7824 245.446 54.8843C245.338 54.972 245.222 55.0566 245.109 55.1371C243.256 56.5671 241.31 57.8543 239.285 58.9889C232.132 63.101 224.032 65.0024 215.88 64.4823C204.43 63.8034 192.909 59.7578 181.552 62.9429C181.227 63.0529 180.875 63.0351 180.558 62.8927C180.242 62.7504 179.981 62.4927 179.824 62.166C179.667 61.8392 179.623 61.4646 179.7 61.1092C179.777 60.7539 179.97 60.441 180.245 60.2265" fill="#30421F"/>
  <path d="M180.754 59.8395C185.804 55.8899 190.929 51.9399 196.621 49.0727C201.707 46.6856 207.048 44.9596 212.532 43.9312C213.123 43.7993 213.708 43.6753 214.3 43.5456C219.953 42.3276 225.329 41.5928 231.066 42.7781C235.213 43.6291 239.63 44.5516 242.461 47.9724C243.714 49.1414 244.971 50.2987 246.228 51.4666C246.374 51.5838 246.497 51.7324 246.587 51.9026C246.677 52.0728 246.733 52.2609 246.751 52.4547C246.769 52.6486 246.749 52.8439 246.692 53.028C246.635 53.2121 246.543 53.381 246.42 53.5236C246.364 53.7585 246.237 53.966 246.058 54.1137C245.994 54.2717 245.894 54.4099 245.768 54.5159C245.679 54.6536 245.571 54.7757 245.447 54.8781C245.339 54.9658 245.224 55.0488 245.11 55.1309C243.257 56.5604 241.311 57.8474 239.287 58.9822C232.54 60.2959 225.561 59.5542 219.145 56.8414C212.708 54.1312 207.136 50.1268 199.961 50.7591C192.786 51.3914 186.491 55.5208 180.755 59.8356" fill="#768C4D"/>
  <path d="M212.598 43.8347C213.189 43.7044 213.773 43.5807 214.362 43.4498C220.005 42.2344 225.372 41.4995 231.098 42.6853C235.235 43.5331 239.645 44.4521 242.47 47.8689C243.723 49.033 244.977 50.1887 246.23 51.3559C246.377 51.4729 246.499 51.6211 246.589 51.791C246.679 51.9608 246.734 52.1486 246.753 52.342C246.771 52.5355 246.751 52.7304 246.694 52.9142C246.637 53.0979 246.544 53.2664 246.422 53.4087C246.366 53.6427 246.239 53.8494 246.061 53.9976C245.995 54.1541 245.896 54.2916 245.771 54.3989C245.681 54.5352 245.573 54.6565 245.45 54.7591C245.343 54.848 245.229 54.9308 245.118 55.0155C240.361 56.1972 235.381 56.0011 230.688 54.4471C226.316 53.0032 223.03 50.2854 219.363 47.4636C217.308 45.8651 215.023 44.6383 212.602 43.8328" fill="#AEBD7A"/>
  <path d="M247.207 54.9704C247.235 54.9646 247.265 54.9644 247.294 54.9697C252.935 55.659 257.341 59.6207 260.811 64.2218C261.918 65.695 262.97 67.3486 264.042 69.0111C265.352 71.1348 266.816 73.1459 268.421 75.0255C270.031 76.9552 272.064 78.4288 274.332 79.3119C274.371 79.2984 274.407 79.2802 274.442 79.2577C274.993 78.9848 275.357 79.926 274.814 80.2065C274.749 80.2364 274.695 80.2517 274.627 80.2788C274.573 80.3304 274.508 80.3672 274.438 80.3861C274.374 80.4046 274.307 80.4233 274.233 80.4426C274.13 80.4886 274.025 80.5401 273.92 80.5766C273.867 80.6213 273.806 80.6535 273.741 80.6709C267.247 82.5415 261.609 78.3962 256.917 73.9651C252.134 69.4365 247.549 64.0694 246.846 57.1535C246.817 56.901 246.805 56.6468 246.786 56.3956C246.774 56.1075 246.758 55.8242 246.754 55.5353C246.746 55.4526 246.757 55.3694 246.786 55.2927C246.815 55.2159 246.86 55.1478 246.919 55.0939C246.956 55.0548 247 55.0243 247.049 55.0041C247.098 54.9838 247.15 54.9743 247.202 54.9761" fill="#758B4C"/>
  <path d="M247.219 54.9706C247.247 54.9648 247.277 54.9646 247.306 54.9699C252.947 55.6593 257.354 59.6214 260.824 64.2229C261.931 65.6963 262.983 67.3501 264.056 69.0127C265.365 71.1366 266.829 73.1479 268.434 75.0277C258.273 76.8344 251.673 66.3052 247.691 57.2913C247.597 57.0685 247.508 56.8567 247.415 56.6414C247.303 56.644 247.193 56.6231 247.089 56.5799C246.985 56.5367 246.889 56.4721 246.808 56.3898C246.796 56.1016 246.78 55.8183 246.776 55.5294C246.768 55.4467 246.78 55.3635 246.808 55.2867C246.837 55.21 246.883 55.1418 246.941 55.0879C246.978 55.0489 247.023 55.0183 247.071 54.9981C247.12 54.9779 247.172 54.9683 247.224 54.9701" fill="#93A350"/>
  <path d="M247.241 54.9691C247.27 54.9633 247.299 54.9631 247.328 54.9683C252.966 55.6573 257.37 59.6167 260.839 64.2153C261.945 65.6876 262.997 67.3403 264.069 69.0018C263.092 68.8243 262.145 68.4822 261.265 67.9882C259.414 66.9491 258.335 65.3836 257.023 63.7203C254.372 60.3408 251.75 58.0439 247.711 57.2868C247.455 57.2274 247.183 57.1898 246.911 57.1506C246.901 57.153 246.901 57.153 246.89 57.1426C246.86 56.8902 246.849 56.6362 246.83 56.3851C246.817 56.0971 246.801 55.814 246.797 55.5253C246.79 55.4426 246.801 55.3595 246.83 55.2828C246.858 55.2061 246.904 55.138 246.962 55.0841C247.053 55.0422 247.158 55.0021 247.246 54.9664" fill="#C7D288"/>
  <path d="M108.325 176.598C110.795 179.181 113.57 181.409 116.576 183.224C113.079 182.461 109.6 181.603 106.156 180.725C104.352 180.264 103.885 183.287 105.687 183.752C118.53 187.032 131.765 189.962 144.815 188.64C143.122 189.535 141.418 190.409 139.702 191.26C122.726 199.655 104.831 205.708 86.6613 210.498C84.8641 210.975 85.8665 213.867 87.6469 213.401C109.929 207.526 131.994 199.573 152.191 188.011C152.829 187.646 157.979 184.566 158.523 184.229C166.741 179.132 174.556 173.334 181.89 166.888C195.192 155.029 206.552 140.888 215.514 125.032C221.966 113.812 228.435 102.432 234.128 90.669C234.362 90.1819 236.143 86.4155 236.341 85.985C237.987 82.4164 239.558 78.8101 241.021 75.1591C248.128 57.4314 252.401 38.2582 250.527 18.7982C250.339 16.8267 247.474 17.073 247.664 19.049C249.883 42.1407 243.348 63.5909 234.037 83.8125C233.544 84.8006 232.986 85.7487 232.365 86.6498C232.089 87.0017 231.794 87.3652 231.505 87.6999C230.977 88.2398 230.406 88.7298 229.798 89.1646C229.443 89.3862 229.088 89.5932 228.889 89.6914C222.673 92.7244 214.191 92.5888 208.035 91.8215C200.444 90.8443 193.116 88.155 186.537 83.9322C184.942 82.9172 183.763 85.7147 185.353 86.7209C193.305 91.7866 202.279 94.6933 211.483 95.1839C217.361 95.4843 224.209 95.1529 229.829 92.5308C225.584 100.975 220.998 109.213 216.522 117.271C207.249 133.964 196.741 149.166 182.937 161.903C174.901 169.275 166.252 175.85 157.094 181.548C154.528 182.922 151.851 184.052 149.095 184.925C144.033 185.842 138.881 186.126 133.743 185.77C133.039 185.729 131.254 185.406 130.998 185.376C123.796 184.531 115.276 179.703 110.16 174.243C108.842 172.836 107.016 175.183 108.324 176.586" fill="#0A342E"/>
  <path d="M169.492 0.948236C169.615 0.800155 169.776 0.693834 169.956 0.642014C170.136 0.590195 170.326 0.595085 170.505 0.656103C170.683 0.717117 170.842 0.831661 170.962 0.985993C171.082 1.14033 171.158 1.3279 171.181 1.52619C171.417 4.86747 170.654 7.90623 170.305 11.1845C170.03 14.4968 170.379 17.8422 171.331 21.0234L171.33 21.0379C171.717 22.512 172.183 23.9785 172.655 25.4353C174.966 32.2256 177.93 38.7483 181.499 44.8976C182.419 46.5341 183.375 48.1773 184.338 49.8131C190.893 60.8803 197.487 74.313 191.33 87.0952C191.282 87.2043 191.214 87.3016 191.13 87.3813C191.035 87.4791 190.92 87.5531 190.794 87.598C190.668 87.643 190.534 87.6578 190.402 87.6414C189.748 88.0863 188.957 88.2432 188.191 88.0798C183.283 87.2985 175.61 77.626 174.065 75.268C170.904 70.4481 164.906 63.0798 163.878 56.1208C163.037 52.8622 162.519 49.522 162.332 46.1555C161.847 41.1436 161.668 36.1069 161.798 31.0778C162.118 20.9577 163.714 9.23015 169.5 0.951332" fill="#0A342E"/>
  <path d="M171.277 21.059C171.662 22.5312 172.13 23.9986 172.602 25.4548C174.912 32.2431 177.874 38.7635 181.443 44.9101C182.363 46.5459 183.316 48.1865 184.281 49.8237C190.834 60.887 197.424 74.3164 191.269 87.0939C191.222 87.203 191.154 87.3003 191.07 87.3799C190.975 87.478 190.86 87.552 190.734 87.5967C190.609 87.6413 190.475 87.6555 190.343 87.6383C189.69 88.0841 188.899 88.2416 188.135 88.0779C177.72 80.6333 169.478 66.8543 166.869 54.1743C165.58 47.793 165.973 41.1754 168.002 35.0605C169.423 30.7853 171.603 27.619 171.386 22.7996C171.361 22.1947 171.317 21.6263 171.284 21.0631" fill="#265337"/>
  <path d="M181.383 44.8873C182.303 46.5236 183.259 48.1668 184.222 49.8025C190.777 60.8692 197.368 74.3015 191.209 87.0824C191.163 87.1915 191.096 87.2886 191.011 87.3669C185.106 84.2772 180.531 78.0343 177.612 71.6281C173.384 62.3394 176.368 52.8397 181.382 44.8896" fill="#A5BA80"/>
  <path d="M35.7447 135.296C36.8452 135.699 37.9052 136.222 38.9078 136.857C40.5872 137.598 42.2962 138.241 44.0232 138.797C47.632 139.963 51.3297 140.794 55.0364 141.598C58.0589 142.252 61.0941 142.88 64.0865 143.651C73.4039 146.051 81.2304 150.799 89.1566 156.474C96.8464 161.987 104.825 168.069 109.116 177.12C110.093 179.175 111.875 182.577 110.158 184.75C110.073 184.858 109.979 184.946 109.893 185.042C109.819 185.34 109.665 185.607 109.45 185.811C109.235 186.014 108.968 186.145 108.682 186.187C108.206 186.303 107.729 186.401 107.244 186.493L107.228 186.495C106.99 186.545 106.743 186.586 106.498 186.63C95.7125 188.824 84.519 187.436 74.4149 182.653C64.3109 177.87 55.7781 169.918 49.9584 159.864C46.0241 153.033 43.5793 144.511 36.9839 140.38C36.0446 139.951 35.1022 139.494 34.1798 138.982C33.7405 138.741 33.4034 138.329 33.2389 137.832C33.0745 137.335 33.0954 136.792 33.2974 136.316C33.4994 135.84 33.8668 135.468 34.3226 135.277C34.7785 135.087 35.2876 135.094 35.7433 135.296" fill="#0A342E"/>
  <path d="M44.0525 138.768C47.6597 139.933 51.3574 140.765 55.0634 141.569C58.0847 142.223 61.1184 142.848 64.1083 143.62C73.4219 146.019 81.2451 150.764 89.1681 156.437C96.8548 161.946 104.832 168.027 109.12 177.072C110.1 179.13 111.877 182.529 110.165 184.7C110.08 184.808 109.986 184.897 109.899 184.989C109.826 185.287 109.672 185.555 109.456 185.758C109.241 185.962 108.974 186.093 108.688 186.136C108.212 186.251 107.735 186.35 107.25 186.442L107.235 186.443C106.703 186.403 106.175 186.362 105.641 186.306C93.279 185.281 81.5011 180.063 72.0249 171.415C66.305 166.314 62.4422 160.419 57.7626 154.376C54.8782 150.63 51.5609 147.212 48.451 143.688C47.0047 142.057 45.6084 140.301 44.0528 138.764" fill="#265337"/>
  <path d="M55.0901 141.54C58.11 142.193 61.141 142.819 64.1324 143.591C73.4417 145.988 81.2613 150.731 89.1784 156.398C96.8615 161.905 104.835 167.982 109.121 177.022C110.097 179.075 111.878 182.475 110.164 184.646C110.079 184.754 109.985 184.842 109.899 184.937C109.825 185.235 109.671 185.502 109.456 185.705C109.241 185.908 108.975 186.039 108.689 186.082C108.209 186.193 107.737 186.296 107.251 186.386L107.238 186.39C106.999 186.44 106.753 186.481 106.507 186.525C106.215 186.436 105.931 186.353 105.645 186.254C96.2218 182.987 87.9831 176.608 82.1255 168.041C79.627 164.328 78.1213 160.197 75.0861 156.851C72.4074 153.927 69.5754 151.168 66.604 148.588C63.655 145.829 60.2861 143.632 56.6474 142.096C56.1229 141.889 55.6015 141.71 55.0872 141.538" fill="#A5BA80"/>
  <path d="M80.2295 113.322C80.4943 113.249 80.7739 113.257 81.0364 113.345C81.2988 113.434 81.5334 113.6 81.7132 113.824L96.3027 129.998C98.6011 132.557 101.168 135.076 103.488 137.798C105.353 139.915 106.968 142.266 108.297 144.8C112.513 153.184 114.984 165.661 112.311 174.818C112.249 175.099 112.116 175.357 111.925 175.561C111.734 175.765 111.494 175.909 111.23 175.975C111.009 176.53 110.693 177.036 110.299 177.468C109.84 177.929 109.293 178.279 108.695 178.495C108.096 178.71 107.46 178.787 106.829 178.718C106.18 178.687 105.534 178.598 104.898 178.451C98.7464 177.009 91.9146 170.243 87.6589 166.285C81.4767 160.526 79.8848 154.207 79.3833 145.745C78.7864 135.684 78.7 125.609 78.6062 115.539C78.6207 115.03 78.786 114.541 79.0785 114.142C79.371 113.743 79.7754 113.455 80.2336 113.32" fill="#30421F"/>
  <path d="M80.2348 113.322C80.4996 113.248 80.7792 113.256 81.0416 113.345C81.304 113.434 81.5386 113.6 81.7183 113.823L96.306 129.995C98.6041 132.553 101.17 135.072 103.49 137.794C105.355 139.91 106.97 142.262 108.299 144.795C112.514 153.178 114.985 165.653 112.313 174.808C112.251 175.09 112.117 175.347 111.926 175.552C111.736 175.756 111.495 175.899 111.232 175.966C111.01 176.521 110.695 177.027 110.301 177.458C109.842 177.919 109.295 178.269 108.696 178.485C108.098 178.701 107.462 178.777 106.831 178.709C106.182 178.677 105.536 178.588 104.9 178.442C96.5962 173.332 90.1325 165.331 88.1375 154.692C86.7227 147.143 89.3079 140.888 89.8805 133.549C90.4349 126.409 84.9898 119.023 80.2411 113.32" fill="#768C4D"/>
  <path d="M103.437 137.714C105.303 139.833 106.921 142.187 108.253 144.723C112.472 153.12 114.947 165.611 112.272 174.779C112.209 175.062 112.075 175.32 111.884 175.525C111.692 175.73 111.451 175.874 111.187 175.941C110.965 176.497 110.649 177.003 110.254 177.434C107.029 175.738 104.3 173.121 102.372 169.876C100.444 166.63 99.3935 162.886 99.3381 159.061C99.3415 155.119 100.355 151.265 102.268 147.919C103.189 146.441 103.774 144.75 103.977 142.979C104.18 141.209 103.995 139.407 103.437 137.717" fill="#A5BA80"/>
  <path d="M1.87468 214.927C19.432 211.325 36.8103 206.317 54.6967 204.79C63.1585 203.978 71.6924 204.246 80.119 205.586C82.7905 206.043 86.2765 206.538 88.0431 208.985C88.474 209.036 88.8762 209.247 89.1799 209.581C89.4836 209.915 89.6696 210.35 89.7054 210.812C89.781 211.536 89.7412 212.267 89.5876 212.973C89.4575 213.524 89.236 214.044 88.9336 214.51C88.7592 214.781 88.5581 215.032 88.3337 215.257C88.3434 215.749 88.1706 216.224 87.853 216.576C64.7473 243.293 27.7571 235.991 1.27279 218.815C1.09504 218.703 0.932363 218.566 0.78939 218.407C0.527248 218.138 0.341375 217.795 0.253532 217.419C0.165688 217.044 0.179508 216.65 0.293394 216.285C0.407279 215.92 0.616511 215.598 0.896565 215.358C1.17662 215.117 1.5159 214.968 1.87468 214.927Z" fill="#0A342E"/>
  <path d="M1.87556 214.929C19.4332 211.326 36.8118 206.319 54.6991 204.79C63.1611 203.979 71.6952 204.246 80.1219 205.587C82.7934 206.044 86.2795 206.539 88.0461 208.985C88.477 209.037 88.8793 209.248 89.183 209.581C89.4867 209.915 89.6726 210.351 89.7084 210.813C89.784 211.537 89.7442 212.267 89.5907 212.974C89.4606 213.525 89.2391 214.045 88.9367 214.511C78.8974 224.979 65.3872 227.617 51.7489 223.868C43.2264 221.521 34.9676 218.87 26.1937 217.769C20.305 217.035 12.6604 215.983 5.8789 216.833C4.17681 217.345 2.48781 217.869 0.786533 218.407C0.524386 218.137 0.338497 217.795 0.250656 217.419C0.16281 217.043 0.176644 216.65 0.290533 216.285C0.404416 215.92 0.613642 215.598 0.893699 215.357C1.17376 215.117 1.51306 214.968 1.87184 214.927" fill="#265337"/>
  <path d="M1.87724 214.927C19.4349 211.325 36.8134 206.317 54.7001 204.79C63.1621 203.978 71.6961 204.246 80.1228 205.586C82.7944 206.043 86.2804 206.538 88.0471 208.985C88.478 209.036 88.8802 209.247 89.1839 209.581C89.4876 209.915 89.6736 210.35 89.7094 210.812C89.785 211.536 89.7452 212.267 89.5916 212.973C79.2344 222.919 63.3146 216.003 50.2559 214.615C41.3672 213.679 32.1695 213.922 23.25 214.002C15.399 214.077 7.6509 214.722 0.23277 217.308C0.185025 217.033 0.190165 216.752 0.247873 216.481C0.305581 216.209 0.414641 215.954 0.568348 215.731C0.722061 215.508 0.917181 215.321 1.14173 215.183C1.36628 215.044 1.61552 214.956 1.87416 214.924" fill="#A5BA80"/>
</svg>
