<svg width="113" height="209" viewBox="0 0 113 209" fill="none"
  xmlns="http://www.w3.org/2000/svg">
  <g clip-path="url(#clip0_122_1272)">
    <path d="M48.9683 15C47.3979 31.0698 48.6177 47.1549 52.6122 62.7978C53.9692 68.1493 55.6767 73.4855 57.3386 78.6541C58.6803 82.8621 60.0829 87.2074 61.2721 91.5374C62.065 94.4343 62.7816 97.3159 63.3762 100.091C63.4524 100.441 63.5287 100.792 63.6049 101.158V101.249C63.7116 101.676 63.8032 102.103 63.8947 102.53C64.3826 104.909 64.8094 107.318 65.2059 109.909C65.3278 110.718 65.4345 111.51 65.5565 112.318L65.6631 113.172C66.0443 116.084 66.3494 118.996 66.5628 121.863C66.6086 122.366 66.639 122.854 66.6695 123.357V123.509V123.601C66.6847 123.799 66.7 124.012 66.7152 124.211C66.7305 124.485 66.7458 124.744 66.761 125.003L66.7914 125.4C66.8828 127.245 66.9438 128.785 66.9743 130.248C67.081 135.097 66.9743 140.006 66.6084 144.839C66.5474 145.784 66.4713 146.714 66.3799 147.66C64.5655 167.495 59.0157 185.822 49.8678 202.151L50.4015 202.456C59.5799 186.05 65.16 167.648 66.9896 147.736C67.0811 146.791 67.1573 145.845 67.2183 144.9C67.569 140.052 67.7062 135.127 67.5842 130.248C67.5537 128.785 67.4927 127.245 67.4013 125.385L67.3707 124.988C67.3707 124.729 67.3404 124.455 67.3251 124.195C67.3251 124.012 67.3099 123.814 67.2946 123.616L67.4013 123.509L67.2794 123.372C67.2489 122.854 67.2183 122.351 67.1725 121.847C66.9591 118.981 66.6694 116.054 66.273 113.126L66.1664 112.273C66.0597 111.465 65.9377 110.657 65.8158 109.864C65.4193 107.257 64.977 104.832 64.5044 102.454C64.4282 102.027 64.3368 101.585 64.2301 101.158C64.2301 101.143 64.23 101.082 64.1995 101.036C64.1385 100.716 64.0623 100.35 63.9708 99.9992C63.3762 97.2091 62.6596 94.3276 61.8515 91.4155C60.647 87.0855 59.2597 82.7249 57.918 78.5169C56.2714 73.3636 54.5637 68.0273 53.2068 62.7063C49.2274 47.1244 48.0078 31.1156 49.5782 15.122L48.9683 15.061V15Z" fill="#325D1C"/>
    <path d="M54.2893 193.384C52.4292 192.164 49.9898 193.353 48.3889 195C48.2364 195.168 48.084 195.336 47.9315 195.518C47.5046 196.037 47.1235 196.586 46.7118 197.135C45.736 198.476 44.745 199.818 43.327 200.58C45.5378 199.483 47.779 198.385 50.005 197.272C50.9198 196.83 51.8651 196.311 52.6579 195.671C52.8256 195.534 52.978 195.397 53.1153 195.259C53.6489 194.741 54.0758 194.116 54.274 193.384H54.2893Z" fill="#A3BC62"/>
    <path d="M56.5457 189.603C56.5457 189.603 56.4085 189.481 56.3475 189.42C56.4238 189.572 56.5 189.725 56.561 189.877C57.0032 190.838 57.4149 191.829 57.7655 192.82C57.918 193.247 58.0553 193.689 58.1925 194.131C59.8848 199.666 60.1134 205.642 58.8175 211.268C59.717 209.195 60.6471 207.075 61.1807 204.895C61.3942 204.072 61.5467 203.233 61.6229 202.395C61.6534 202.09 61.6686 201.785 61.6838 201.495C61.8363 197.028 59.9 192.53 56.5457 189.603Z" fill="#A3BC62"/>
    <path d="M46.9557 190.304C47.84 189.755 48.6633 189.1 49.3951 188.353C48.4955 188.886 47.657 189.511 46.9557 190.304Z" fill="#9EC11B"/>
    <path d="M59.7019 181.172C58.3144 182.422 55.9969 181.385 54.2893 182.147C53.8471 182.346 53.4965 182.635 53.1763 182.986C52.6427 183.581 52.2616 184.328 51.8652 185.029C51.8042 185.166 51.7279 185.288 51.6517 185.425C51.0418 186.508 50.2795 187.484 49.4104 188.353C50.7826 187.529 52.3225 186.919 53.8014 186.264C55.5395 185.486 57.3234 184.48 58.5584 183.062C58.8176 182.772 59.0462 182.483 59.2291 182.147C59.4121 181.842 59.5799 181.507 59.7171 181.172H59.7019Z" fill="#9EC11B"/>
    <path d="M78.836 191.783C77.1589 191.57 75.8173 190.64 74.5671 189.481C74.0335 188.978 73.5151 188.459 72.9967 187.911C72.1429 187.026 71.3044 186.127 70.3743 185.395C68.4533 183.885 66.1205 182.986 64.2147 181.446C62.7815 180.303 61.6532 178.808 60.9214 177.131C60.9519 177.695 60.9976 178.26 61.0891 178.808C61.1348 179.098 61.1807 179.373 61.2417 179.662C61.9735 183.062 63.9249 186.188 66.6388 188.368C70.0235 191.067 74.5213 192.286 78.836 191.768V191.783Z" fill="#9EC11B"/>
    <path d="M69.8711 175.957C69.9016 175.53 69.8712 175.104 69.7949 174.707C69.2766 171.536 66.2883 169.081 63.5134 167.16C63.4524 167.114 63.3762 167.069 63.3152 167.023C63.4067 167.114 63.4827 167.221 63.5437 167.328C63.62 167.465 63.6659 167.617 63.7116 167.77C63.7573 167.953 63.7878 168.121 63.8183 168.288C63.8487 168.395 63.8641 168.502 63.8946 168.624C64.4129 170.652 65.846 172.329 66.9742 174.112C68.1482 175.988 69.002 178.427 67.9653 180.394C68.9715 179.174 69.7491 177.695 69.8558 176.125C69.8558 176.079 69.8711 176.034 69.8711 175.973V175.957Z" fill="#A3BC62"/>
    <path d="M77.6012 173.686C77.2201 175.5 77.1134 177.284 77.8147 178.991C78.0281 177.223 77.9214 175.439 77.6012 173.686Z" fill="#9EC11B"/>
    <path d="M79.3393 163.867C79.2783 163.516 79.1867 163.165 79.08 162.815C78.7598 161.885 78.2415 161.061 77.6317 160.269C77.2048 159.72 76.7321 159.186 76.2747 158.668C73.4541 155.466 70.5114 152.173 66.6083 150.48C66.2881 150.343 66.8675 150.663 66.593 150.862C66.3186 151.06 67.1572 151.746 66.6083 151.288C66.9132 153.697 67.6757 154.948 69.0174 156.975C69.0936 157.097 69.1697 157.219 69.2612 157.341C69.4289 157.6 69.612 157.86 69.7797 158.119C71.7922 161.107 73.8504 164.05 75.4208 167.282C76.4118 169.31 77.1895 171.475 77.6011 173.686C78.2872 170.423 79.9034 167.053 79.3393 163.882V163.867Z" fill="#9EC11B"/>
    <path d="M66.1052 153.362C63.0254 154.277 60.3421 156.411 58.7717 159.201C58.5126 159.659 58.2837 160.131 58.0855 160.604C57.8111 161.214 57.5672 161.839 57.3537 162.479C56.4542 165.117 55.7986 167.892 54.335 170.057C55.8139 168.471 57.2928 166.886 58.7565 165.285C61.5161 162.312 64.3825 159.125 65.6327 155.329C65.6479 155.268 65.6783 155.222 65.6783 155.161C65.8765 154.582 66.0137 153.987 66.1205 153.362H66.1052Z" fill="#4C7D16"/>
    <path d="M66.9895 143.711C65.7698 143.619 64.5959 143.848 63.4982 144.29C62.8578 144.549 62.2479 144.885 61.6532 145.266C61.2568 145.525 60.8604 145.8 60.4945 146.105C60.3878 146.181 60.2811 146.272 60.1744 146.364C59.3358 147.05 58.5582 147.827 57.8264 148.59C57.1403 149.322 56.4543 150.084 55.753 150.816C53.9234 152.706 51.9565 154.444 49.4866 155.176C54.4874 153.835 59.1987 151.517 63.3152 148.376C63.422 148.3 63.5286 148.209 63.6354 148.132C63.925 147.919 64.1996 147.69 64.4893 147.462L64.5196 147.431C64.8398 147.172 65.16 146.897 65.4801 146.623C65.4954 146.608 65.5259 146.592 65.5412 146.562C65.5717 146.547 65.587 146.532 65.6022 146.501C66.0596 146.105 66.5018 145.647 66.761 145.114C66.7915 145.037 66.8219 144.961 66.8524 144.9C67.0048 144.519 67.0506 144.107 67.0506 143.696L66.9895 143.711Z" fill="#9EC11B"/>
    <path d="M99.8152 108.614C98.9462 109.178 97.9551 109.574 96.9336 109.788C96.1865 109.955 95.4242 110.031 94.6466 110.062C94.2045 110.092 93.7623 110.092 93.3202 110.062C93.183 110.062 93.061 110.062 92.939 110.047C92.2834 110.031 91.6127 109.986 90.9724 109.94C90.8961 109.94 90.8199 109.94 90.7436 109.925C82.2971 109.3 73.2863 108.476 65.8612 112.471C65.785 112.501 65.7089 112.547 65.6327 112.593L65.907 112.745C66.2882 112.959 66.6846 113.172 67.0963 113.355C67.1268 113.37 67.1572 113.386 67.1724 113.401C72.5849 116.054 78.8361 116.984 84.7822 115.993C87.6028 115.535 90.3318 114.636 92.8933 113.37C93.7471 112.959 94.5705 112.486 95.3634 111.998C96.949 111.022 98.4278 109.91 99.8 108.629L99.8152 108.614Z" fill="#A3BC62"/>
    <path d="M101.797 106.601C101.172 107.318 100.501 107.988 99.8153 108.614C100.623 108.095 101.31 107.424 101.797 106.601Z" fill="#9EC11B"/>
    <path d="M76.6102 105.93C76.5797 105.107 76.4882 104.268 76.2443 103.506C76.0003 102.728 75.6038 102.027 74.994 101.463C74.933 101.402 74.8569 101.356 74.7807 101.295C74.7197 101.234 74.6434 101.189 74.5672 101.143C74.5367 101.128 74.5214 101.112 74.4909 101.097C74.3689 101.021 74.2317 100.945 74.1097 100.884C74.0183 100.838 73.9116 100.792 73.8201 100.746C73.6677 100.685 73.5151 100.624 73.3627 100.579C73.3169 100.563 73.256 100.548 73.195 100.533C73.0883 100.502 72.9816 100.472 72.8749 100.441C72.8291 100.441 72.7833 100.426 72.7375 100.411C72.646 100.38 72.5546 100.365 72.4479 100.35C72.3107 100.319 72.1582 100.304 72.021 100.289C71.838 100.258 71.6551 100.243 71.4721 100.228C71.2892 100.213 71.1062 100.198 70.9233 100.198C70.6336 100.198 70.3285 100.182 70.0389 100.182C69.5205 100.182 69.0023 100.198 68.4839 100.243C67.7063 100.304 66.944 100.396 66.1816 100.533C65.9224 100.579 65.6633 100.624 65.4193 100.685C65.2364 100.731 65.0532 100.762 64.8855 100.823C64.7636 100.853 64.6416 100.884 64.5196 100.914C64.3214 100.975 64.1234 101.021 63.9099 101.082C63.8947 101.082 63.8641 101.082 63.8489 101.097C63.8794 101.128 63.8945 101.143 63.925 101.158C64.8398 102.088 65.9681 102.82 67.203 103.262C67.6604 103.445 68.1331 103.567 68.621 103.658C70.2372 103.963 71.9142 103.811 73.4998 104.223C74.5214 104.497 75.5428 105.122 76.1222 105.976C76.4271 106.418 76.6102 106.936 76.6102 107.485C76.6254 106.967 76.6407 106.449 76.6254 105.915L76.6102 105.93Z" fill="#9EC11B"/>
    <path d="M31.8921 104.329C32.9593 103.628 33.9809 102.866 34.9567 102.027C33.9351 102.789 32.9136 103.552 31.8921 104.329Z" fill="#9EC11B"/>
    <path d="M57.0488 76.7178C54.7619 78.1052 52.4749 79.4774 50.2032 80.8648C49.2426 81.4442 48.2669 82.0388 47.4741 82.8316C46.0714 84.2496 45.37 86.1706 44.6687 88.0612C44.5315 88.3966 44.4095 88.7473 44.2723 89.0827C43.6471 90.6531 42.9153 92.1777 42.0615 93.6261C40.1862 96.7974 37.7773 99.6485 34.9567 102.027C38.5091 99.3588 42.0615 96.706 45.614 94.0378C46.2543 93.5652 46.9252 93.0621 47.6723 92.8029C48.4499 92.5284 49.3036 92.5284 50.0812 92.2692C52.1699 91.5831 53.2372 89.4638 53.9538 87.3293C54.0911 86.9177 54.2283 86.506 54.335 86.0944C54.5789 85.2863 54.7923 84.4782 55.0363 83.6702C55.7071 81.3527 56.3932 79.0352 57.0641 76.7178H57.0488Z" fill="#8CAD28"/>
    <path d="M110 38.5405C107.012 38.6929 104.054 39.2266 101.218 40.1261C99.9831 40.5225 98.7786 40.9799 97.5894 41.4983C96.7203 41.8795 95.836 42.3064 94.8907 42.2454C93.9607 42.1844 93.1373 41.6355 92.3445 41.1324C91.9938 40.9037 91.6279 40.675 91.262 40.4463C86.7643 37.5952 81.6568 35.1862 76.4883 36.162C73.3475 36.7566 70.5573 38.571 67.447 39.2876C64.413 39.9737 61.196 39.6077 58.1619 40.3243C55.1431 41.0409 51.987 42.84 49.1207 41.6965C49.0902 41.6965 49.075 41.6965 49.0597 41.666C49.0445 41.666 49.0293 41.666 48.9988 41.6508C49.0293 41.6813 49.0445 41.6965 49.0597 41.7118L49.1207 41.7728C51.8803 44.6848 55.4937 46.7431 59.3815 47.7036C62.0954 48.3897 64.9314 48.5422 67.691 48.1C68.8345 47.9171 69.9627 47.6426 71.0757 47.3225C75.6954 46.0113 80.2387 44.014 84.8889 44.8983C88.3651 45.5539 91.5822 47.8104 95.1042 47.4445C100.944 46.8346 104.176 39.501 109.97 38.5253L110 38.5405Z" fill="#4C7D16"/>
    <path d="M49.8677 45.5541C48.1296 49.4724 42.8544 49.7621 38.6159 50.311C33.0204 51.0428 27.4097 53.4517 24.0402 57.9799C22.8663 59.5656 21.9819 61.3647 21.0214 63.0875C20.3963 64.2158 19.7254 65.344 19.0241 66.4265C18.8564 66.6705 18.7039 66.9144 18.5362 67.1584C18.216 67.631 17.8959 68.0884 17.5605 68.561C16.6609 69.796 15.7156 71.0005 14.7093 72.1744C13.2456 73.8973 11.6601 75.5287 9.99818 77.0533C7.81793 79.0506 5.48518 80.865 3 82.4811C5.89683 80.7582 9.66272 80.8345 12.6205 79.1726C14.7093 77.9986 16.2493 76.0623 17.8196 74.248C18.7802 73.135 19.7712 72.0525 20.8232 71.0005C21.2806 70.5126 21.7533 70.04 22.2259 69.5978C22.851 68.988 23.4761 68.3933 24.1165 67.8292C25.6259 66.457 27.2115 65.1611 28.8428 63.9261C30.154 62.9351 31.511 61.9898 33.0356 61.3647C34.8347 60.6328 36.7711 60.3889 38.6159 59.8095C38.7684 59.7638 38.9055 59.7181 39.0427 59.6571C41.7871 58.6965 44.2113 56.9432 46.0714 54.7172C48.2364 52.1406 49.6238 48.9235 49.8677 45.5693V45.5541Z" fill="#4C7D16"/>
    <path d="M48.6175 29.0572C46.5135 28.7371 44.3332 29.0572 42.3969 29.9263C40.4301 30.7801 38.692 32.1828 37.518 33.9666C37.1826 34.485 36.8625 35.0491 36.5728 35.6285C35.3073 38.0984 34.3467 40.858 32.1512 42.2302C34.9261 40.7666 37.4723 38.8912 39.6983 36.6957C40.3081 36.0859 40.9028 35.4608 41.6651 35.0644C42.8544 34.4392 44.2417 34.5002 45.5834 34.6375C45.7206 34.6375 45.8579 34.6527 45.9798 34.668C46.3305 33.9209 46.6812 33.189 47.0318 32.442C47.5655 31.329 48.0839 30.216 48.6175 29.0878V29.0572Z" fill="#4C7D16"/>
    <path d="M45.1414 209.378C45.5988 208.875 46.0257 208.341 46.3916 207.762C45.8884 208.234 45.4615 208.768 45.1414 209.378Z" fill="#9EC11B"/>
    <path d="M50.432 202.578C50.432 202.395 50.4319 202.197 50.4014 202.014C50.4014 201.937 50.3709 201.861 50.3557 201.77C49.4866 201.892 48.7853 202.562 48.3584 203.34C48.2821 203.492 48.1907 203.645 48.1297 203.797C47.9315 204.209 47.7943 204.651 47.6266 205.093C47.5503 205.337 47.4741 205.566 47.3827 205.795C47.1082 206.481 46.7728 207.152 46.3763 207.761C46.6508 207.487 46.9557 207.228 47.2454 206.984C48.0687 206.298 48.9378 205.627 49.5629 204.773C50.0508 204.133 50.3862 203.355 50.4167 202.578H50.432Z" fill="#9EC11B"/>
    <path d="M56.6829 205.871C56.1341 205.795 55.5394 205.688 55.143 205.292C55.143 205.292 55.1278 205.276 55.1125 205.261C54.8686 205.017 54.7314 204.697 54.6247 204.362C54.5332 204.072 54.4417 203.752 54.2892 203.493C53.9538 202.883 53.3287 202.486 52.7189 202.12C52.17 201.785 51.5906 201.434 50.9502 201.343C50.9197 201.343 50.8893 201.328 50.874 201.328H50.8588C50.9045 201.648 50.9502 201.983 51.0112 202.303C51.0874 202.883 51.1789 203.477 51.4381 204.011C51.865 204.895 52.7646 205.52 53.7251 205.81C54.6856 206.084 55.6919 206.054 56.6829 205.886V205.871Z" fill="#9EC11B"/>
    <path d="M55.143 205.292C55.143 205.292 55.1277 205.276 55.1125 205.261C54.8686 205.017 54.7314 204.697 54.6247 204.361C54.5332 204.072 54.4417 203.752 54.2892 203.492C53.9538 202.883 53.3287 202.486 52.7189 202.12C52.17 201.785 51.5906 201.434 50.9502 201.343C50.9197 201.343 50.8893 201.327 50.874 201.327C50.874 201.327 50.874 201.333 50.874 201.343C50.874 201.343 50.9807 201.495 51.057 201.556C51.2247 201.785 51.3771 202.014 51.5144 202.257C51.5601 202.318 51.5906 202.395 51.6363 202.456C51.6059 202.578 51.6059 202.715 51.6363 202.852C51.7278 203.294 51.9413 203.66 52.2005 203.965C52.5054 204.407 52.8865 204.758 53.4049 204.88C53.7708 205.063 54.1521 205.215 54.5332 205.353C54.7314 205.429 54.9448 205.383 55.1278 205.276L55.143 205.292Z" fill="#8BAC12"/>
    <path d="M50.4319 202.578C50.4319 202.395 50.4318 202.196 50.4013 202.013C50.4013 201.937 50.3708 201.861 50.3556 201.77C49.4865 201.892 48.7852 202.562 48.3583 203.34C48.282 203.492 48.1906 203.645 48.1296 203.797C47.9314 204.209 47.7942 204.651 47.6265 205.093C47.6722 205.063 47.718 205.032 47.7637 205.017C48.8462 204.453 49.6086 203.477 50.4319 202.593V202.578Z" fill="#8BAC12"/>
    <path d="M56.5457 189.603C56.5457 189.603 56.4085 189.481 56.3475 189.42C56.4238 189.573 56.5 189.725 56.561 189.877C57.0032 190.838 57.4149 191.829 57.7655 192.82C57.918 193.247 58.0553 193.689 58.1925 194.131C58.4822 194.619 58.7107 195.107 58.8327 195.61C59.5493 198.614 59.6104 202.212 61.196 204.895C61.4095 204.072 61.5618 203.233 61.638 202.395C61.6685 202.09 61.6838 201.785 61.6991 201.495C61.8515 197.028 59.9152 192.53 56.561 189.603H56.5457Z" fill="#82A551"/>
    <path d="M54.2893 193.384C52.4292 192.164 49.9898 193.353 48.3889 195C48.2364 195.168 48.084 195.336 47.9315 195.518C47.5046 196.037 47.1234 196.586 46.7118 197.135C47.6418 196.982 48.5566 196.281 49.4256 195.701C49.6238 195.884 49.9288 195.976 50.2032 195.915C50.9655 195.732 51.8803 195.839 52.6579 195.671C52.8256 195.534 52.978 195.397 53.1152 195.259C53.6489 194.741 54.0758 194.116 54.274 193.384H54.2893Z" fill="#82A551"/>
    <path d="M59.7018 181.172C58.3144 182.422 55.9969 181.385 54.2893 182.147C53.8471 182.346 53.4965 182.635 53.1763 182.986C52.6427 183.581 52.2615 184.328 51.8651 185.029C52.0938 185.242 52.4139 185.364 52.7493 185.364C53.2677 185.364 53.7098 184.831 54.0605 184.175C54.2282 184.328 54.4874 184.434 54.8381 184.434C55.4175 184.434 55.7529 184.114 55.9206 183.657C55.9359 183.626 55.9511 183.596 55.9663 183.565C56.1188 183.626 56.2561 183.657 56.4238 183.657C56.439 183.657 56.4542 183.657 56.4695 183.657C56.5305 183.657 56.5915 183.657 56.6524 183.626C56.6829 183.626 56.7134 183.626 56.7592 183.596C56.9879 183.52 57.2166 183.367 57.3843 183.215C57.4911 183.108 57.6435 182.788 57.7808 182.498C57.8417 182.605 57.9331 182.696 58.0246 182.788C58.0703 182.833 58.1162 182.864 58.1619 182.894C58.2686 182.971 58.4211 183.001 58.5736 183.001C58.8328 182.711 59.0614 182.422 59.2444 182.086C59.4273 181.781 59.595 181.446 59.7322 181.111L59.7018 181.172Z" fill="#8BAC12"/>
    <path d="M74.5671 189.481C74.0335 188.978 73.5151 188.459 72.9967 187.911C72.1429 187.026 71.3044 186.127 70.3743 185.395C68.4533 183.885 66.1205 182.986 64.2147 181.446C62.7815 180.303 61.6532 178.808 60.9214 177.131C60.9519 177.695 60.9976 178.26 61.0891 178.808C61.1348 179.098 61.1807 179.373 61.2417 179.662C63.5897 184.16 67.7519 188.78 72.6613 189.847C73.3321 189.999 74.064 189.847 74.5671 189.466V189.481Z" fill="#8BAC12"/>
    <path d="M69.8711 175.957C69.9016 175.53 69.8712 175.103 69.7949 174.707C69.2766 171.536 66.2883 169.081 63.5134 167.16C63.4524 167.114 63.3762 167.068 63.3152 167.023C63.4067 167.114 63.4827 167.221 63.5437 167.328C63.62 167.465 63.6659 167.617 63.7116 167.77C63.7573 167.953 63.7878 168.12 63.8183 168.288C63.8487 168.395 63.8641 168.502 63.8946 168.624C64.8856 169.752 65.9832 170.712 66.837 172.008C67.7061 173.304 68.3311 175.469 69.8405 176.11C69.8405 176.064 69.8558 176.018 69.8558 175.957H69.8711Z" fill="#82A551"/>
    <path d="M78.4091 163.806C78.2718 162.998 78.1042 162.312 78.0737 162.144C77.9365 161.595 77.7841 160.97 77.6164 160.299L77.6467 160.269C77.2198 159.72 76.7474 159.186 76.29 158.668C73.4694 155.466 70.5267 152.173 66.6235 150.48C66.3034 150.343 66.8827 150.663 66.6083 150.862C66.3338 151.06 67.1724 151.746 66.6235 151.289C66.9285 153.697 67.6909 154.948 69.0326 156.975C69.1088 157.097 69.1849 157.219 69.2764 157.341C69.5509 157.57 69.8254 157.784 70.1151 157.997C70.9536 158.607 71.8531 159.14 72.7527 159.613C73.637 160.772 74.4909 161.976 75.1617 163.227C75.6344 164.096 75.7868 166.55 76.8083 167.16C78.8361 168.334 78.714 165.712 78.4243 163.821L78.4091 163.806Z" fill="#8BAC12"/>
    <path d="M66.1052 153.362C63.0254 154.277 60.3422 156.411 58.7718 159.201C58.5126 159.659 58.2838 160.131 58.0856 160.604C57.8111 161.214 57.5672 161.839 57.3538 162.479C57.552 162.647 57.8112 162.754 58.1161 162.769C59.3206 162.83 59.412 161.549 60.1896 160.985C60.464 160.787 60.647 160.604 60.83 160.406C60.9825 160.391 61.1195 160.345 61.2568 160.223C61.6074 159.994 61.9429 159.781 62.2936 159.552C62.5223 159.461 62.6595 159.247 62.69 159.034C63.5896 158.271 64.4891 157.387 64.8093 156.396C65.099 156.061 65.3735 155.725 65.6174 155.344C65.6327 155.283 65.663 155.237 65.663 155.176C65.8612 154.597 65.9985 154.002 66.1052 153.377V153.362Z" fill="#406919"/>
    <path d="M66.9895 143.711C65.7698 143.619 64.5959 143.848 63.4982 144.29C62.8578 144.549 62.2478 144.885 61.6532 145.266C61.2568 145.525 60.8604 145.8 60.4945 146.105C60.3877 146.181 60.2811 146.272 60.1744 146.364C59.3358 147.05 58.5582 147.827 57.8263 148.59C57.1402 149.322 56.4543 150.084 55.7529 150.816C55.8444 150.907 55.9511 150.968 56.073 150.983C57.3385 151.243 58.4516 150.48 59.5036 149.611C59.6103 149.611 59.717 149.566 59.839 149.489C60.769 148.834 61.7295 148.605 62.5071 148.087C62.7053 148.27 62.9798 148.361 63.3152 148.376C63.422 148.3 63.5286 148.209 63.6353 148.132C63.925 147.919 64.1996 147.69 64.4892 147.461L64.5196 147.431C64.8397 147.172 65.1599 146.897 65.4801 146.623C65.4954 146.608 65.5259 146.592 65.5412 146.562C65.5716 146.547 65.587 146.531 65.6022 146.501C65.6784 146.364 65.7394 146.227 65.8004 146.089C66.1663 145.815 66.4865 145.479 66.7609 145.114C66.7914 145.037 66.8218 144.961 66.8523 144.9C67.0048 144.519 67.0505 144.107 67.0505 143.696L66.9895 143.711Z" fill="#8BAC12"/>
    <path d="M100.395 153.987C98.4583 154.49 96.4458 154.993 94.4485 154.734C93.9911 154.673 93.5186 154.567 93.0764 154.399C91.5975 153.865 90.3319 152.798 89.8898 151.319C89.7221 150.74 89.6916 150.16 89.6916 149.55C89.7068 148.712 89.7983 147.858 89.7374 147.02C89.6611 145.983 89.341 144.992 89.0056 144.016C88.0755 141.195 87.1455 138.375 86.2155 135.554C85.5904 133.648 84.8584 131.621 83.2118 130.508C81.2908 129.212 78.7752 129.547 76.4577 129.654C73.3627 129.791 70.2524 129.395 67.2946 128.48C68.6058 130.599 70.725 131.88 72.9509 133.099C73.0119 133.145 73.0882 133.176 73.1492 133.206C74.7043 134.029 76.2748 134.853 77.6317 135.905C82.0685 139.351 83.9284 145.068 85.8647 150.358C86.4136 151.837 87.0083 153.362 88.1213 154.506C89.6765 156.091 92.0395 156.671 94.235 156.427C96.4305 156.183 98.4735 155.192 100.349 154.002L100.395 153.987Z" fill="#80AA3A"/>
    <path d="M66.5322 147.507C66.1663 147.202 65.8003 146.897 65.4801 146.577C64.7483 145.876 64.0928 145.114 63.5135 144.29C63.3915 144.123 63.2846 143.955 63.1626 143.787C63.0254 143.589 62.9035 143.375 62.7815 143.177C62.0192 141.912 61.2875 140.418 59.8695 139.945C59.7933 139.914 59.7018 139.899 59.6255 139.884C59.5493 139.854 59.4578 139.838 59.3815 139.838C59.3053 139.838 59.2443 139.808 59.1681 139.808C59.1071 139.808 59.0461 139.793 58.9851 139.793C58.7259 139.777 58.4669 139.793 58.1925 139.793C57.9485 139.808 57.6892 139.823 57.4605 139.838C57.3537 139.838 57.2318 139.838 57.1251 139.854C56.8811 139.869 56.6372 139.869 56.4086 139.854C56.1646 139.838 55.9206 139.808 55.7072 139.732H55.6767C55.6463 139.732 55.6309 139.716 55.6157 139.701C55.5395 139.671 55.4633 139.64 55.3871 139.61H55.3565C55.3565 139.61 55.3413 139.61 55.326 139.61C55.2955 139.61 55.2803 139.594 55.2651 139.579C54.4418 139.122 53.9996 138.176 53.6184 137.292C52.9933 135.859 52.3835 134.441 51.7584 133.008C51.3162 131.971 50.8588 130.934 50.4014 129.898C49.883 131.285 49.944 132.825 50.2185 134.273C51.2095 139.64 55.204 144.336 60.1897 146.41C61.0435 146.775 61.9124 147.05 62.7967 147.233C63.3456 147.355 63.9099 147.446 64.474 147.507C64.5045 147.507 64.5349 147.507 64.5654 147.507C65.221 147.568 65.8919 147.583 66.5628 147.553L66.5322 147.507Z" fill="#A3BC62"/>
    <path d="M93.0915 154.399C91.6126 153.865 90.3472 152.798 89.905 151.319C89.7373 150.74 89.7068 150.16 89.7068 149.55C89.7221 148.712 89.8136 147.858 89.7526 147.019C89.6764 145.983 89.3562 144.992 89.0208 144.016C88.0908 141.195 87.1606 138.375 86.2306 135.554C85.6055 133.648 84.8737 131.62 83.2271 130.507C81.306 129.211 78.7904 129.547 76.473 129.654C73.3779 129.791 70.2676 129.394 67.3098 128.48C68.621 130.599 70.7402 131.88 72.9662 133.099C72.9967 133.069 73.0273 133.023 73.0578 132.977C73.3322 132.84 73.4845 132.55 73.4845 132.246C73.9267 132.444 74.3688 132.627 74.8262 132.825C76.8235 133.709 78.8057 134.639 80.681 135.767C80.8182 135.859 80.9706 135.874 81.1078 135.859C82.3427 137.353 83.3491 138.908 84.2181 140.524C85.2701 143.68 86.0325 147.05 87.2674 149.306C87.8315 150.328 88.4414 151.365 89.1732 152.188C89.7679 153.316 90.8198 153.987 91.948 154.048C92.2834 154.292 92.6343 154.429 93.0764 154.383L93.0915 154.399Z" fill="#739932"/>
    <path d="M64.5349 147.462C64.5349 147.462 64.4893 147.431 64.474 147.431C64.1081 147.218 63.742 147.004 63.3761 146.791C63.2389 146.791 63.1018 146.791 62.9646 146.791C62.8122 146.776 62.6596 146.76 62.5071 146.745C61.7753 146.638 61.1044 146.425 60.5098 146.12C59.4578 145.571 58.6346 144.717 58.0095 143.558C57.9333 143.421 57.8874 143.284 57.8264 143.162C56.8353 142.4 55.8749 141.607 55.0059 140.753C53.2525 139.015 51.0723 135.63 51.7431 132.993C52.3682 134.426 52.978 135.859 53.6032 137.277C53.9843 138.161 54.4265 139.107 55.2498 139.564C55.2803 139.579 55.2955 139.594 55.3108 139.594C55.3108 139.594 55.326 139.594 55.3413 139.594C55.3413 139.594 55.3566 139.594 55.3718 139.594C55.3718 139.594 55.5242 139.655 55.6004 139.686C55.6309 139.686 55.6462 139.701 55.6615 139.716H55.6919C55.9206 139.777 56.1493 139.808 56.3933 139.838C56.622 139.854 56.8659 139.854 57.1098 139.838C57.2166 139.838 57.3385 139.838 57.4452 139.823C57.6739 139.808 57.9333 139.793 58.1772 139.777C58.4516 139.762 58.7107 139.747 58.9699 139.777C59.0308 139.777 59.092 139.777 59.153 139.793C59.2292 139.793 59.29 139.808 59.3663 139.823C59.4425 139.823 59.534 139.854 59.6103 139.869C59.6865 139.884 59.778 139.915 59.8543 139.93C61.2569 140.402 62.0041 141.897 62.7664 143.162C62.8884 143.36 63.0256 143.574 63.1476 143.772C63.2543 143.94 63.3762 144.107 63.4982 144.275C64.0928 145.083 64.7483 145.861 65.4649 146.562C65.8003 146.882 66.1511 147.202 66.517 147.492C65.8461 147.538 65.1752 147.523 64.5196 147.446L64.5349 147.462Z" fill="#82A551"/>
    <path d="M93.3355 110.077C93.1983 110.077 93.0763 110.077 92.9544 110.062C92.2988 110.047 91.6279 110.001 90.9875 109.955C90.9113 109.955 90.8352 109.955 90.7589 109.94C82.3124 109.315 73.3016 108.491 65.8766 112.486C65.8003 112.517 65.7241 112.562 65.6478 112.608L65.9223 112.76C66.3035 112.974 66.7 113.187 67.1116 113.37C67.1878 113.37 67.2489 113.386 67.3251 113.401H67.3404C69.0327 113.584 70.8622 113.37 72.5393 113.706C74.3993 114.087 76.2595 114.468 78.1501 114.697C82.3276 115.185 86.2002 115.093 90.1338 113.477C90.7284 113.233 91.5212 112.791 92.1768 112.212C92.8324 111.617 93.3508 110.885 93.366 110.108L93.3355 110.077Z" fill="#82A551"/>
    <path d="M76.2443 103.506C76.0003 102.728 75.6038 102.027 74.994 101.463C74.933 101.402 74.8569 101.356 74.7807 101.295C74.7197 101.234 74.6434 101.188 74.5672 101.143C74.5367 101.127 74.5214 101.112 74.4909 101.097C74.3689 101.021 74.2317 100.944 74.1097 100.883C74.0183 100.838 73.9116 100.792 73.8201 100.746C73.6677 100.685 73.5151 100.624 73.3627 100.579C73.3169 100.563 73.256 100.548 73.195 100.533C73.0883 100.502 72.9816 100.472 72.8749 100.441C72.8291 100.441 72.7833 100.426 72.7375 100.411C72.646 100.38 72.5546 100.365 72.4479 100.35C72.3107 100.319 72.1582 100.304 72.021 100.289C71.838 100.258 71.6551 100.243 71.4721 100.228C71.2892 100.213 71.1062 100.197 70.9233 100.197C70.6336 100.197 70.3285 100.182 70.0389 100.182C69.5205 100.182 69.0023 100.197 68.4839 100.243C67.7063 100.304 66.944 100.396 66.1816 100.533C65.9224 100.579 65.6633 100.624 65.4193 100.685C65.2364 100.731 65.0532 100.761 64.8855 100.822C64.7636 100.853 64.6416 100.883 64.5196 100.914C64.3214 100.975 64.1234 101.021 63.9099 101.082C63.8947 101.082 63.8641 101.082 63.8489 101.097C63.8794 101.127 63.8945 101.143 63.925 101.158C64.8398 102.088 65.9681 102.82 67.203 103.262C67.3403 103.277 67.4775 103.277 67.6147 103.277C68.8344 103.277 70.1456 103.003 71.1976 102.957C72.0667 102.942 72.9358 103.018 73.8201 103.323C74.1556 103.445 74.5062 103.262 74.7044 102.988C75.1313 103.216 75.5734 103.399 76.0308 103.491C76.107 103.506 76.1986 103.521 76.2595 103.521L76.2443 103.506Z" fill="#8BAC12"/>
    <path d="M62.9494 96.0199C58.7566 99.862 54.5027 103.78 51.6364 108.705C51.2705 109.345 50.9351 109.986 50.6149 110.641C50.2947 111.297 49.9745 111.968 49.6848 112.639C48.3431 115.734 47.2301 118.935 45.7055 121.939C43.7082 125.842 40.6894 129.562 36.6338 131.011C41.7566 129.364 46.2391 126.101 50.3709 122.64C52.5359 120.826 54.6704 118.874 56.4848 116.709C58.3143 114.544 59.8237 112.166 60.7232 109.483C60.769 109.345 60.8148 109.208 60.8606 109.071C61.5467 106.891 61.8515 104.619 62.126 102.347C62.4004 100.243 62.6597 98.1392 62.9341 96.0352L62.9494 96.0199Z" fill="#537D26"/>
    <path d="M62.9493 96.02C58.7565 99.8621 54.5027 103.78 51.6364 108.705C51.2704 109.345 50.935 109.986 50.6149 110.641C50.2947 111.297 49.9744 111.968 49.6848 112.639C49.761 112.883 49.883 113.096 50.005 113.325C49.9745 113.477 49.9592 113.63 49.9288 113.782C49.075 116.222 48.0992 118.615 47.1386 121.024C46.9709 121.451 47.3216 121.909 47.7027 122.03C49.1359 122.503 50.2489 121.573 51.1332 120.125C52.7341 118.524 54.7314 117.624 56.4695 116.709C58.2991 114.544 59.8084 112.166 60.7079 109.483C60.7537 109.345 60.7996 109.208 60.8453 109.071C61.5314 106.891 61.8363 104.619 62.1107 102.347C62.3851 100.243 62.6444 98.1392 62.9188 96.0352L62.9493 96.02Z" fill="#416921"/>
    <path d="M57.0489 76.7179C54.7619 78.1053 52.4749 79.4775 50.2032 80.8649C49.2427 81.4443 48.2669 82.0389 47.4741 82.8317C46.0714 84.2496 45.37 86.1707 44.6687 88.0613C44.5315 88.3967 44.4095 88.7474 44.2723 89.0828C43.6472 90.6532 42.9153 92.1778 42.0615 93.6262C43.3422 93.306 44.6077 92.7877 45.553 91.8424C46.7118 90.6989 47.3216 91.0953 48.5718 90.5464C50.4776 89.7079 52.414 88.7321 53.9539 87.3142C54.0911 86.9025 54.2283 86.4909 54.335 86.0792C54.579 85.2712 54.7924 84.4631 55.0363 83.655C55.7072 81.3376 56.3933 79.0201 57.0641 76.7026L57.0489 76.7179Z" fill="#55852A"/>
    <path d="M104.923 75.0103C101.508 74.7206 98.1535 73.6991 95.1346 72.0677C93.1526 71.0005 91.3229 69.674 89.7068 68.1189C89.4629 67.8902 89.2342 67.6614 88.9903 67.4175C87.2827 65.6794 85.7276 63.7584 83.7303 62.3862C80.3913 60.1144 76.1221 59.5961 72.1275 60.1602C68.133 60.7091 64.352 62.249 60.6471 63.8193C58.3449 64.7951 55.9664 65.8166 53.4812 65.7862C55.7377 67.9664 58.8784 68.2408 62.1259 68.0883C63.8031 68.0121 65.4802 67.7987 67.0963 67.6767C69.3528 67.509 71.6244 67.57 73.8809 67.8292C77.845 68.2866 81.7329 69.4148 85.3311 71.1529C87.5266 72.2049 89.6307 73.5009 91.9177 74.3089C96.0495 75.7726 100.593 75.6354 104.938 75.0407L104.923 75.0103Z" fill="#90B03A"/>
    <path d="M95.1346 72.0677C93.1526 71.0005 91.3229 69.674 89.7068 68.1189C89.4629 67.8902 89.2342 67.6615 88.9903 67.4175C87.2827 65.6794 85.7276 63.7584 83.7303 62.3862C80.3913 60.1145 76.1221 59.5961 72.1275 60.1602C68.133 60.7091 64.352 62.249 60.6471 63.8194C58.3449 64.7952 55.9664 65.8167 53.4812 65.7862C55.7377 67.9664 58.8784 68.2408 62.1259 68.0884C63.8031 68.0121 65.4802 67.7987 67.0963 67.6767C69.3528 67.509 71.6244 67.57 73.8809 67.8292C76.2136 67.8292 78.5312 67.9817 80.8029 68.561C82.419 68.9727 89.1885 72.0677 92.6647 71.8695C93.1679 72.0982 93.6708 72.2964 94.235 72.4641C94.6009 72.5708 94.9669 72.3879 95.1346 72.083V72.0677Z" fill="#598A29"/>
    <path d="M101.218 40.1261C99.983 40.5225 98.7785 40.9799 97.5893 41.4983C96.7202 41.8795 95.8359 42.3064 94.8906 42.2454C93.9606 42.1844 93.1372 41.6355 92.3444 41.1324C91.9937 40.9037 91.6279 40.675 91.2619 40.4463C86.7642 37.5952 81.6567 35.1862 76.4882 36.162C73.3474 36.7566 70.5572 38.571 67.4469 39.2876C64.4129 39.9737 61.1959 39.6077 58.1619 40.3243C55.1431 41.0409 51.9869 42.84 49.1206 41.6965C49.1206 41.727 49.1206 41.7575 49.1206 41.7728C51.8802 44.6848 55.4936 46.7431 59.3815 47.7036C62.0953 48.3897 64.9313 48.5422 67.6909 48.1C68.8344 47.9171 69.9626 47.6426 71.0756 47.3225C72.6307 46.2552 73.6218 44.4104 75.8935 44.0902C79.1715 43.6481 82.8306 42.1082 86.0476 42.8857C88.4413 43.4803 91.2925 44.7458 93.8082 44.5628C96.4001 44.3799 100.425 43.0687 101.187 40.1109L101.218 40.1261Z" fill="#406919"/>
    <path d="M48.6176 29.0574C46.5136 28.7372 44.3334 29.0574 42.397 29.9264C40.4303 30.7802 38.6921 32.1829 37.5182 33.9668C37.1827 34.4851 36.8626 35.0493 36.5729 35.6287C36.6339 35.6287 36.6796 35.6287 36.7558 35.6287C38.3415 35.5372 38.6616 34.6528 39.9881 33.8753C41.9549 32.7165 43.1594 33.0825 45.1719 33.4179V33.4636C45.1262 33.982 45.3091 34.3632 45.5988 34.6224C45.736 34.6224 45.8732 34.6376 45.9952 34.6529C46.3459 33.9058 46.6965 33.174 47.0472 32.4269C47.5808 31.3139 48.0992 30.2009 48.6328 29.0726L48.6176 29.0574Z" fill="#406919"/>
    <path d="M49.8677 45.5539C48.1296 49.4723 42.8544 49.7619 38.6159 50.3108C33.0204 51.0427 27.4097 53.4516 24.0402 57.9798C22.8662 59.5654 21.9819 61.3645 21.0214 63.0874C20.3963 64.2156 19.7254 65.3439 19.0241 66.4264C18.8564 66.6703 18.7039 66.9143 18.5362 67.1582C18.216 67.6309 17.8959 68.0882 17.5605 68.5609C16.6609 69.7958 15.7156 71.0003 14.7093 72.1743C13.2456 73.8971 11.66 75.5285 9.99817 77.0532C10.6843 77.4344 11.4619 77.6325 12.4071 77.3734C14.4654 76.8092 15.6546 73.8667 16.9811 72.5097C17.7892 71.6712 18.6125 70.8174 19.451 69.9636C19.8779 69.5214 20.3201 69.0793 20.7775 68.6371C21.2196 68.2102 21.6618 67.7833 22.1192 67.3564C22.4088 67.082 22.6985 66.8228 23.0034 66.5636C25.0617 64.7493 27.7298 63.743 29.6814 61.8677C29.7881 61.761 29.9101 61.6695 30.0321 61.578C30.0931 61.6085 30.1388 61.639 30.1998 61.6695C30.8706 62.0811 31.6024 61.8829 32.1665 61.4103C32.5325 61.1206 32.8069 60.7547 33.0203 60.3735C34.5907 60.0686 36.3289 59.9619 37.8535 59.535C38.0518 59.6265 38.2804 59.6875 38.5091 59.6875C38.6464 59.6875 38.7988 59.6722 38.936 59.6265C38.9817 59.6265 39.0122 59.6265 39.0427 59.6265C41.7871 58.6659 44.2113 56.9126 46.0713 54.6866C48.2363 52.1099 49.6238 48.8929 49.8677 45.5387V45.5539Z" fill="#406919"/>
    <path d="M54.6399 204.362C54.5485 204.072 54.457 203.752 54.3046 203.493C53.9691 202.883 53.344 202.486 52.7341 202.12C52.1853 201.785 51.6059 201.434 50.9656 201.343C50.9961 201.419 51.0266 201.495 51.0723 201.556C51.1943 201.815 51.3467 202.044 51.5297 202.258C51.6822 202.44 51.8499 202.623 52.0481 202.791C52.1548 202.883 52.2768 202.989 52.3835 203.081C52.475 203.858 53.222 204.484 53.9996 204.484C54.2436 204.484 54.4417 204.438 54.6399 204.346V204.362Z" fill="#6E840F"/>
    <path d="M50.4014 202.014C50.4014 201.937 50.3708 201.861 50.3556 201.77C49.4865 201.892 48.7852 202.562 48.3583 203.34C48.282 203.492 48.1906 203.645 48.1296 203.797C49.0597 203.508 49.822 202.822 50.4014 202.014Z" fill="#6E840F"/>
    <path d="M56.5457 189.603C56.5457 189.694 56.5457 189.786 56.5457 189.877C56.9878 190.838 57.3995 191.829 57.7502 192.82C57.7807 192.82 57.7958 192.82 57.8263 192.835C57.8873 192.835 57.9485 192.866 58.0094 192.881C58.0857 193.079 58.2227 193.277 58.4209 193.475C59.351 194.344 59.2901 195.457 59.8237 196.54C59.8999 196.677 59.9915 196.814 60.0982 196.952C60.0982 198.522 60.0676 200.138 61.1349 201.099C61.3178 201.266 61.5008 201.388 61.6837 201.48C61.8362 197.013 59.8999 192.515 56.5457 189.588V189.603Z" fill="#5B812C"/>
    <path d="M54.2892 193.384C52.4291 192.164 49.9897 193.354 48.3888 195C48.5718 194.97 48.77 194.893 48.9682 194.756C49.9287 194.146 50.3403 193.994 51.3466 194.528C51.9412 194.848 52.5053 195.092 53.1152 195.259C53.6488 194.741 54.0757 194.116 54.2739 193.384H54.2892Z" fill="#5B812C"/>
    <path d="M59.7018 181.172C58.3144 182.422 55.9968 181.385 54.2892 182.147C53.8471 182.346 53.4964 182.635 53.1763 182.986C53.2677 182.986 53.3745 182.986 53.4812 182.971C54.1216 182.879 54.4112 183.108 54.9906 183.382C55.2955 183.535 55.6157 183.626 55.9206 183.672C56.0883 183.687 56.2561 183.703 56.4238 183.672C56.5 183.672 56.5762 183.672 56.6524 183.657C56.6829 183.657 56.7134 183.657 56.7592 183.626C56.8506 183.626 56.9574 183.596 57.0488 183.565C57.43 183.428 57.7808 183.184 58.0095 182.834C58.04 182.773 58.0704 182.727 58.1009 182.666C58.2076 182.62 58.3753 182.544 58.4668 182.513C58.6802 182.422 58.8937 182.33 59.1072 182.224C59.1529 182.193 59.1986 182.178 59.2443 182.147C59.4273 181.843 59.5949 181.507 59.7322 181.172H59.7018Z" fill="#6E840F"/>
    <path d="M72.9967 187.911C72.1429 187.026 71.3044 186.127 70.3743 185.395C68.4533 183.886 66.1205 182.986 64.2147 181.446C62.7815 180.303 61.6532 178.808 60.9214 177.131C60.9519 177.695 60.9976 178.26 61.0891 178.808C61.272 179.373 61.6076 179.891 62.1412 180.272C63.2389 181.065 64.1842 181.843 64.8246 183.062C65.0533 183.504 65.4039 184.145 65.8918 184.373C67.6299 185.166 68.6972 187.057 70.5573 187.59C71.3806 187.834 72.1886 187.911 72.9814 187.895L72.9967 187.911Z" fill="#6E840F"/>
    <path d="M69.795 174.707C69.2766 171.536 66.2883 169.081 63.5134 167.16C63.5134 167.221 63.5438 167.267 63.5438 167.328C63.62 167.465 63.6659 167.618 63.7116 167.77C63.8031 167.968 63.9098 168.151 64.0318 168.319C64.7941 169.325 66.2119 169.325 66.8218 170.408C67.4774 171.582 68.0568 173.122 68.9869 174.097C69.2308 174.356 69.5053 174.555 69.795 174.707Z" fill="#5B812C"/>
    <path d="M65.663 155.161C65.8612 154.582 65.9985 153.987 66.1052 153.362C63.0255 154.277 60.3422 156.411 58.7718 159.201C58.5126 159.659 58.2838 160.131 58.0856 160.604C58.5582 160.497 59.0766 160.436 59.4731 160.269C60.0067 160.04 60.0677 159.293 60.6013 159.095C62.0192 158.531 62.5223 157.86 63.2389 156.564C63.7878 155.588 64.8702 155.664 65.663 155.176V155.161Z" fill="#2A4E10"/>
    <path d="M79.3393 163.867C79.2783 163.516 79.1867 163.165 79.08 162.815C78.7598 161.885 78.2415 161.061 77.6317 160.269C77.2048 159.72 76.7321 159.186 76.2747 158.668C73.4541 155.466 70.5114 152.173 66.6083 150.48C66.2881 150.343 66.8675 150.663 66.593 150.862C66.3186 151.06 67.1572 151.746 66.6083 151.288C66.9132 153.697 67.6757 154.948 69.0174 156.975C69.0936 157.097 69.1697 157.219 69.2612 157.341C69.4289 157.601 69.612 157.86 69.7797 158.119C69.8864 158.088 69.9931 158.043 70.0998 157.982C70.237 157.905 70.3742 157.814 70.4962 157.707C70.9689 157.738 71.4567 157.54 71.8074 157.235C71.9294 157.128 72.0513 157.021 72.1733 156.93C72.9204 157.661 73.7437 158.271 74.445 159.11C75.3293 160.192 75.6039 162.159 76.6559 163.013C77.1133 163.379 77.7535 163.669 78.4091 163.806C78.714 163.867 79.0343 163.897 79.3393 163.867Z" fill="#6E840F"/>
    <path d="M89.7526 147.02C89.6764 145.983 89.3562 144.992 89.0208 144.016C88.0908 141.195 87.1606 138.375 86.2306 135.554C85.6055 133.648 84.8737 131.621 83.2271 130.508C81.306 129.212 78.7904 129.547 76.473 129.654C73.3779 129.791 70.2676 129.395 67.3098 128.48C68.621 130.599 70.7402 131.88 72.9662 133.099C73.0272 133.145 73.1034 133.176 73.1644 133.206C73.3626 133.221 73.5608 133.237 73.7591 133.252C74.1707 133.267 74.5365 133.099 74.811 132.84C74.9482 132.718 75.0551 132.566 75.1465 132.413C75.7869 132.413 76.412 132.352 77.0066 132.2C77.6622 132.291 78.3025 132.413 79.1258 132.886C81.1994 134.06 82.9984 134.334 84.2486 136.652C86.3527 140.54 86.8101 145.022 89.0055 148.91C89.1885 149.215 89.4171 149.444 89.6763 149.566C89.6916 148.727 89.7831 147.873 89.7221 147.035L89.7526 147.02Z" fill="#4F7C22"/>
    <path d="M66.5323 147.507C66.1664 147.202 65.8003 146.897 65.4802 146.577C64.7483 145.876 64.0929 145.114 63.5135 144.29C63.3915 144.122 63.2846 143.955 63.1627 143.787C63.0254 143.589 62.9035 143.375 62.7815 143.177C62.0192 141.912 61.2875 140.418 59.8696 139.945C59.7933 139.914 59.7018 139.899 59.6256 139.884C59.5493 139.853 59.4578 139.838 59.3816 139.838C59.3053 139.838 59.2443 139.808 59.1681 139.808C59.1071 139.808 59.0461 139.792 58.9851 139.792C58.726 139.777 58.4669 139.792 58.1925 139.792C57.9485 139.808 57.6892 139.823 57.4605 139.838C57.3538 139.838 57.2318 139.838 57.1251 139.853C56.8812 139.869 56.6373 139.869 56.4086 139.853C56.1646 139.823 55.9359 139.792 55.7072 139.731H55.6768C55.6463 139.731 55.631 139.716 55.6157 139.701C55.5395 139.67 55.4633 139.64 55.3871 139.61C55.5548 139.762 55.7529 139.884 55.9664 139.96C56.4085 140.113 56.805 140.296 57.1709 140.54C57.2471 140.753 57.3385 140.966 57.4605 141.21C57.8264 142.003 58.7717 142.262 59.5493 142.293H59.5645C59.6865 142.537 59.8085 142.781 59.9609 143.055C60.3573 143.787 60.8301 144.366 61.4095 144.961C61.5009 145.053 61.5923 145.159 61.6838 145.266C62.0345 145.723 62.2632 146.242 62.5224 146.73C62.6139 146.882 62.69 147.035 62.7968 147.187C63.3456 147.309 63.9099 147.4 64.474 147.461C64.5045 147.461 64.5349 147.461 64.5654 147.461C65.221 147.522 65.8919 147.538 66.5628 147.507H66.5323Z" fill="#5B812C"/>
    <path d="M74.4908 101.097C74.3688 101.021 74.2316 100.944 74.1096 100.883C74.0182 100.838 73.9115 100.792 73.82 100.746C73.6676 100.685 73.515 100.624 73.3626 100.578C73.3168 100.563 73.2559 100.548 73.1949 100.533C73.0882 100.502 72.9815 100.472 72.8748 100.441C72.829 100.441 72.7832 100.426 72.7374 100.411C72.6459 100.38 72.5545 100.365 72.4478 100.35C72.3106 100.319 72.1581 100.304 72.0209 100.289C71.8379 100.258 71.655 100.243 71.472 100.228C71.2891 100.213 71.1061 100.197 70.9232 100.197C70.6335 100.197 70.3284 100.182 70.0388 100.182C69.5204 100.182 69.0022 100.197 68.4838 100.243C67.7062 100.304 66.9439 100.396 66.1815 100.533C65.9223 100.578 65.6632 100.624 65.4192 100.685C65.2363 100.731 65.0531 100.761 64.8854 100.822C64.7635 100.853 64.6415 100.883 64.5195 100.914C65.2209 101.935 66.5474 102.561 68.0263 102.53C68.9258 102.5 69.7491 102.118 70.6029 101.89C71.4109 101.676 72.1581 101.798 72.9814 101.798C73.5913 101.798 74.1249 101.524 74.5061 101.112L74.4908 101.097Z" fill="#6E840F"/>
    <path d="M76.5949 107.5C76.6101 106.982 76.6254 106.464 76.6101 105.93C76.4424 105.945 76.2748 105.976 76.1071 105.991C76.412 106.433 76.5949 106.952 76.5949 107.5Z" fill="#6E840F"/>
    <path d="M92.9544 110.047C92.2988 110.031 91.6279 109.986 90.9875 109.94C90.9113 109.94 90.8352 109.94 90.7589 109.925C82.3124 109.3 73.3016 108.476 65.8766 112.471C65.8003 112.501 65.7241 112.547 65.6478 112.593L65.9223 112.745C66.3035 112.959 66.7 113.172 67.1116 113.355C67.1421 113.37 67.1725 113.386 67.1877 113.401C67.2335 113.401 67.2641 113.401 67.3251 113.386H67.3404C68.2399 113.248 69.1546 112.974 69.9322 112.761C74.003 111.648 77.1743 113.538 81.1688 113.614C86.1849 113.706 90.1338 113.492 92.9696 110.047H92.9544Z" fill="#5B812C"/>
    <path d="M62.9493 96.0201C58.7565 99.8622 54.5026 103.781 51.6363 108.705C51.2704 109.346 50.935 109.986 50.6148 110.641C50.63 110.672 50.6605 110.687 50.6758 110.702C50.5995 112.425 49.9287 114.438 49.822 115.139C49.6847 115.993 50.0202 116.938 50.9654 117.136C55.1277 118.097 55.0515 113.904 57.9178 112.349C59.0918 111.709 60.0829 110.489 60.8605 109.056C61.5466 106.876 61.8514 104.604 62.1259 102.332C62.4003 100.228 62.6596 98.1241 62.934 96.0201H62.9493Z" fill="#2C560D"/>
    <path d="M57.0489 76.7178C54.7619 78.1052 52.4749 79.4774 50.2032 80.8649C49.2427 81.4442 48.2669 82.0388 47.4741 82.8317C46.0714 84.2496 45.37 86.1706 44.6687 88.0612C44.6687 88.0612 44.684 88.0612 44.6992 88.0459C45.8427 87.2074 46.5746 88.4576 47.6723 88.3204C48.4194 88.2289 48.892 88.1679 49.5018 87.741C50.0202 87.3751 50.3556 86.8262 50.63 86.2621C51.0264 85.4693 51.4687 85.8505 52.2157 85.637C53.5422 85.2863 54.2587 84.5393 55.0363 83.6702C55.7071 81.3527 56.3933 79.0353 57.0641 76.7178H57.0489Z" fill="#4C7623"/>
    <path d="M88.9903 67.4022C87.2827 65.6641 85.7276 63.743 83.7303 62.3709C80.3913 60.0991 76.1221 59.5808 72.1275 60.1449C68.133 60.6938 64.352 62.2336 60.6471 63.804C58.3449 64.7798 55.9664 65.8013 53.4812 65.7708C55.7377 67.9511 58.8784 68.2256 62.1259 68.0731C62.4156 67.8596 62.6748 67.5852 62.9035 67.2802C63.056 67.0668 63.1474 66.8381 63.2084 66.5789C66.7456 65.4049 70.9536 65.222 74.6433 65.3744C76.6101 65.4507 78.6683 65.5422 80.5284 66.2587C82.1445 66.8839 83.5929 68.0578 85.2853 68.5152C86.5507 68.8659 87.9992 68.317 88.9903 67.4022Z" fill="#487220"/>
    <path d="M48.6176 29.0573C46.5136 28.7371 44.3333 29.0573 42.397 29.9263C42.5952 30.0331 42.7934 30.1703 42.9763 30.3532C43.7234 31.0698 44.501 31.9389 45.5225 32.259C46.0561 32.4268 46.5592 32.4725 47.0319 32.4268C47.5655 31.3138 48.0839 30.2008 48.6176 29.0725V29.0573Z" fill="#2A4E10"/>
    <path d="M91.262 40.4464C86.7643 37.5953 81.6568 35.1863 76.4882 36.1621C73.3474 36.7567 70.5572 38.5711 67.447 39.2877C64.4129 39.9738 61.196 39.6079 58.1619 40.3244C55.1431 41.041 51.987 42.8401 49.1206 41.6966C49.0902 41.6966 49.0749 41.6966 49.0597 41.6661C49.0597 41.6814 49.0597 41.6966 49.0597 41.7119L49.1206 41.7729C51.8803 44.685 55.4937 46.7432 59.3815 47.7037C59.412 47.7037 59.4426 47.7037 59.4731 47.6885C61.074 47.2921 63.2084 45.31 64.733 45.4015C66.1967 45.4777 68.072 45.6302 69.2917 44.624C70.7401 43.4195 70.8774 42.6419 72.9357 42.2455C78.6226 41.1935 84.3248 40.7666 90.1032 40.919C90.5301 40.9343 90.9418 40.7513 91.2467 40.4464H91.262Z" fill="#2A4E10"/>
    <path d="M49.8678 45.5541C48.1297 49.4724 42.8545 49.7621 38.6159 50.311C33.0205 51.0428 27.4098 53.4517 24.0403 57.98C22.8663 59.5656 21.982 61.3647 21.0214 63.0875C20.3963 64.2158 19.7255 65.344 19.0241 66.4265C18.8564 66.6705 18.7039 66.9144 18.5362 67.1584C18.2161 67.631 17.896 68.0884 17.5605 68.561C16.661 69.796 15.7156 71.0005 14.7094 72.1744C16.112 71.4426 17.1641 70.2839 18.1856 69.0337C18.5515 68.5915 18.9174 68.1341 19.2833 67.6767C19.5272 67.3718 19.7864 67.0669 20.0456 66.7772C20.2286 66.579 20.4116 66.3808 20.5946 66.1826C22.0735 64.6579 22.5919 63.118 24.5891 61.8831C26.5864 60.6481 28.6142 59.4589 30.7182 58.4069C31.1298 58.2086 31.5263 58.0105 31.938 57.8123C35.8563 57.0652 39.9118 56.3028 40.2472 56.1809C41.1468 55.8302 41.7414 55.4186 42.153 54.9459C43.4642 54.9307 44.7755 54.9459 46.0867 54.7172C48.2517 52.1406 49.6391 48.9236 49.883 45.5693L49.8678 45.5541Z" fill="#2A4E10"/>
    <path d="M82.6935 52.0949C77.4487 53.3603 74.4146 58.7728 72.5393 63.8194C71.8532 65.6795 71.2128 67.57 70.6029 69.4606C69.6882 72.3117 68.8192 75.1781 67.7976 77.9682C66.6999 81.0327 65.4344 84.021 63.7878 86.8264C63.1322 87.9546 62.1565 89.1744 60.8606 89.0829C61.0131 90.0129 61.0129 90.9582 61.6685 91.6443C61.76 91.5985 61.8516 91.5681 61.943 91.5071C62.4004 91.2936 62.8579 91.0649 63.3153 90.821C68.7278 87.9089 73.1645 83.213 75.7107 77.6328C76.473 75.9556 77.0829 74.1871 77.2353 72.3575C77.3573 70.8176 77.159 69.2929 76.9913 67.753C76.9151 67.0364 76.8389 66.3046 76.8236 65.588C76.7474 63.5298 77.0828 61.4715 77.7384 59.5199C78.7142 56.6536 80.4218 54.0464 82.6935 52.0796V52.0949Z" fill="#9EC11B"/>
    <path d="M77.7231 59.5504C77.4487 59.4437 77.1134 59.4589 76.8694 59.7334C76.3053 60.4042 75.7716 61.0903 75.2837 61.7764C73.9878 63.1486 72.9815 65.0544 72.2344 67.0822C71.838 67.9665 71.5025 68.8965 71.1976 69.8266C71.0299 69.6741 70.8469 69.5368 70.6029 69.4606C69.6882 72.3117 68.8192 75.1781 67.7976 77.9682C66.6999 81.0327 65.4344 84.021 63.7878 86.8264C63.1322 87.9546 62.1565 89.1744 60.8606 89.0829C61.0131 90.0129 61.0129 90.9582 61.6685 91.6443C61.76 91.5985 61.8516 91.5681 61.943 91.5071C62.0498 91.4308 62.1564 91.3546 62.2784 91.2784C62.4614 91.2174 62.6139 91.1412 62.7359 91.0802C62.9341 91.0039 63.117 90.9124 63.3 90.821C68.7125 87.9089 73.1492 83.213 75.6954 77.6328C76.4577 75.9556 77.0676 74.1871 77.2201 72.3575C77.342 70.8176 77.1438 69.2929 76.9761 67.753C76.8998 67.0364 76.8236 66.3046 76.8084 65.588C76.7321 63.5298 77.0675 61.4715 77.7231 59.5199V59.5504Z" fill="#8BAC12"/>
    <path d="M101.828 123.921C98.931 121.466 97.513 117.746 96.1865 114.194C96.156 114.117 96.1256 114.026 96.0951 113.934C95.8512 113.279 95.6073 112.638 95.3633 111.983C95.1347 111.343 94.8753 110.702 94.6466 110.062C94.4942 109.635 94.3265 109.208 94.1588 108.781C93.5337 107.074 92.8934 105.351 92.253 103.643C90.1642 98.0171 87.4198 91.7355 81.7176 89.8602C78.5006 88.8082 74.994 89.4485 71.6702 90.0889C68.3617 90.7292 65.0532 91.3544 61.7448 92.01C62.3699 92.7266 63.1168 93.2297 63.9249 93.5804C66.7455 94.8611 70.4809 94.4799 73.698 95.0288C74.0334 95.0898 74.3688 95.1507 74.689 95.2422C80.6351 96.6449 85.1634 101.554 88.6549 106.723C88.8683 107.043 89.0816 107.348 89.2798 107.668C89.7677 108.415 90.2557 109.178 90.7284 109.94C91.1858 110.687 91.6584 111.449 92.1158 112.196C92.375 112.593 92.619 112.989 92.8629 113.37C95.3633 117.334 98.0619 121.146 101.797 123.921H101.828Z" fill="#537D26"/>
    <path d="M77.2201 72.388C77.342 70.8481 77.1438 69.3234 76.9761 67.7835C76.4577 67.692 75.8936 67.8292 75.5277 68.2256C74.3995 69.3996 73.6828 70.6498 73.6828 72.3727C71.6397 73.9431 69.5968 76.474 68.2856 78.1054C68.1332 78.0444 67.9654 77.9987 67.7976 77.9834C66.6999 81.048 65.4344 84.0363 63.7878 86.8416C63.1322 87.9699 62.1565 89.1896 60.8606 89.0981C61.0131 90.0281 61.0129 90.9735 61.6685 91.6595C61.76 91.6138 61.8516 91.5833 61.943 91.5223C62.4004 91.3088 62.8579 91.0802 63.3153 90.8362C68.7278 87.9241 73.1645 83.2282 75.7107 77.648C76.473 75.9709 77.0829 74.2023 77.2353 72.3727L77.2201 72.388Z" fill="#6E840F"/>
    <path d="M96.0952 113.935C95.8512 113.279 95.6073 112.639 95.3634 111.983C95.1347 111.343 94.8753 110.702 94.6466 110.062C94.4942 109.635 94.3265 109.208 94.1588 108.781C93.5337 107.074 92.8934 105.351 92.253 103.643C90.1642 98.0172 87.4198 91.7357 81.7176 89.8604C78.5006 88.8083 74.994 89.4487 71.6702 90.089C68.3617 90.7294 65.0532 91.3545 61.7448 92.0101C62.3699 92.7267 63.1168 93.2298 63.9249 93.5805C66.7455 94.8612 70.4809 94.4801 73.698 95.0289C74.0334 95.0899 74.3688 95.1509 74.689 95.2424C74.7348 95.1051 74.7501 94.9679 74.7653 94.8307C79.1868 95.9437 83.8674 97.2244 86.4745 100.884C89.3866 104.954 92.2072 109.086 95.0278 113.233C95.3175 113.66 95.6835 113.889 96.0799 113.965L96.0952 113.935Z" fill="#416921"/>
    <path d="M94.1741 108.781C93.549 107.074 92.9086 105.351 92.2683 103.643C90.1795 98.0172 87.4351 91.7356 81.7329 89.8603C78.5159 88.8083 75.0092 89.4486 71.6855 90.089C68.377 90.7293 65.0685 91.3545 61.76 92.0101C62.3851 92.7266 63.1321 93.2298 63.9402 93.5804C65.8612 92.9706 67.9349 92.6809 69.4443 93.0773C70.908 93.4585 72.3411 93.3365 73.759 93.2908C74.0182 93.4585 74.3078 93.5805 74.628 93.5652C75.6647 93.5347 76.6559 93.611 77.6011 93.7939C77.8146 93.8854 78.0279 93.9768 78.2414 94.0988C80.8943 95.5625 84.0808 97.0262 86.2458 99.2064C86.5355 99.4961 86.81 99.8163 87.0844 100.121C87.4656 100.579 87.8315 101.066 88.1821 101.554C88.3498 102.774 88.9597 103.902 90.1185 104.451C90.8503 105.671 91.5517 106.906 92.2835 108.095C92.7562 108.857 93.5185 108.995 94.1588 108.766L94.1741 108.781Z" fill="#2C560D"/>
    <path d="M66.9895 123.448H66.9592C65.0838 123.326 63.6658 121.71 61.943 120.917C59.9 119.957 57.5368 120.17 55.2955 120.414C53.8319 120.567 52.3834 120.719 50.9197 120.872C50.1574 120.948 49.3951 121.039 48.6176 121.116C46.8185 121.314 44.9584 121.482 43.0983 121.436C40.0033 121.405 37.015 120.826 34.6975 118.981C41.162 124.47 50.0508 127.168 58.3906 126.086C59.1377 125.995 59.8694 125.873 60.586 125.705C62.7815 125.232 64.9314 124.485 66.9439 123.448C66.9439 123.448 66.9742 123.448 66.9742 123.433L66.9895 123.448Z" fill="#80AA3A"/>
    <path d="M66.9895 123.448H66.9592C65.0839 123.326 63.6659 121.71 61.943 120.917C59.9 119.957 57.5368 120.17 55.2956 120.414C53.8319 120.567 52.3834 120.719 50.9198 120.872C50.1574 120.948 49.3952 121.039 48.6176 121.116C46.8185 121.314 44.9585 121.482 43.0984 121.436C46.3764 123.372 49.5324 123.982 53.344 125.049C55.2193 125.583 56.7898 125.964 58.3754 126.086C59.1225 125.995 59.8542 125.873 60.5708 125.705C62.7663 125.232 64.9161 124.485 66.9287 123.448C66.9287 123.448 66.9592 123.448 66.9592 123.433L66.9895 123.448Z" fill="#739932"/>
    <path d="M66.9895 123.448H66.9592C65.0838 123.326 63.6659 121.71 61.943 120.917C59.9 119.957 57.5368 120.17 55.2956 120.414C53.8319 120.567 52.3834 120.719 50.9197 120.872C50.8892 121.268 51.0265 121.68 51.4382 122.015C52.4444 122.884 54.3197 122.869 56.1798 122.854C56.3627 123.143 56.6372 123.387 57.0183 123.509C58.4667 123.952 59.2901 125.232 60.6013 125.72C62.7968 125.247 64.9466 124.5 66.9592 123.464C66.9592 123.464 66.9895 123.464 66.9895 123.448Z" fill="#4F7C22"/>
    <path d="M93.6708 134.09C92.5426 135.097 91.3382 136.012 90.0727 136.835C88.9597 137.567 87.8162 138.222 86.627 138.802C85.8342 139.198 84.9957 139.564 84.1114 139.61C83.9285 139.61 83.7301 139.61 83.5624 139.61C81.9158 139.488 80.437 138.405 78.8971 137.689C75.0855 135.951 70.2829 136.667 67.1573 139.442C67.4928 139.579 67.8586 139.732 68.2093 139.869C68.316 139.915 68.4227 139.96 68.5446 140.006C72.9051 141.744 77.4639 143.299 82.0835 142.689C87.0691 142.019 91.6126 138.664 93.6861 134.09H93.6708Z" fill="#9EC11B"/>
    <path d="M90.0727 136.835C88.9597 137.567 87.8162 138.222 86.627 138.802C85.8342 139.198 84.9957 139.564 84.1114 139.61C83.9285 139.61 83.7301 139.61 83.5624 139.61C81.9158 139.488 80.437 138.405 78.8971 137.689C75.0855 135.951 70.2829 136.667 67.1573 139.442C67.4928 139.579 67.8586 139.732 68.2093 139.869C68.316 139.915 68.4227 139.96 68.5446 140.006C68.7429 139.93 68.9411 139.838 69.1545 139.793C72.585 140.342 76.2289 142.064 79.6289 141.988C80.3607 142.156 81.2298 142.141 81.8092 141.988C82.8155 141.729 83.8065 141.439 84.6908 140.997C84.7975 140.997 84.9195 140.967 85.0415 140.89C86.9778 139.701 88.731 138.527 90.088 136.85L90.0727 136.835Z" fill="#8BAC12"/>
    <path d="M83.5624 139.594C81.9158 139.472 80.437 138.39 78.8971 137.673C75.0855 135.935 70.2829 136.652 67.1573 139.427C67.4928 139.564 67.8586 139.716 68.2093 139.854C70.8164 139.503 73.4083 139.533 76.0155 140.021C78.0585 140.402 80.01 140.723 82.0988 140.585C82.7849 140.54 83.3337 140.159 83.5777 139.594H83.5624Z" fill="#6E840F"/>
    <path d="M50.9808 53.8633C51.4229 56.2113 50.2489 58.5745 48.7547 60.4345C43.9978 66.3502 35.9172 68.8963 28.3549 68.378C28.3092 68.378 28.2635 68.378 28.2177 68.378C26.8303 68.2712 25.4581 68.0883 24.1012 67.8138C23.4303 67.6766 22.7442 67.5242 22.0734 67.3565C21.3873 67.1888 20.7012 66.9905 20.0304 66.7618C19.695 66.6551 19.3442 66.5484 19.0088 66.4264C18.3227 66.1977 17.6214 65.9385 16.9506 65.6793C16.4627 65.4964 15.99 65.2982 15.5174 65.1C12.5291 63.8345 9.66269 62.2793 6.90308 60.6022C9.81516 62.7825 12.7425 64.978 15.6698 67.1583C16.2949 67.6157 16.9048 68.0883 17.5299 68.5609C17.7281 68.7134 17.9415 68.8659 18.155 69.0183C18.5667 69.3385 18.9936 69.6434 19.4052 69.9483C19.8626 70.2838 20.3201 70.6344 20.7927 70.9851C22.6985 72.4183 24.6043 73.8362 26.4949 75.2541C28.2482 76.5806 30.2455 77.9528 32.441 77.7088C33.2948 77.6173 34.0724 77.2819 34.8042 76.8398C36.1307 76.047 37.3504 74.934 38.7683 74.3089C40.8418 73.3788 43.3422 73.455 45.2175 72.1743C46.6202 71.2138 47.4588 69.6434 48.2364 68.134C48.8768 66.8685 49.517 65.5421 50.0659 64.1699C51.4381 60.7852 52.2005 57.2023 50.9655 53.848L50.9808 53.8633Z" fill="#9EC11B"/>
    <path d="M50.9808 53.8633C51.423 56.2113 50.249 58.5745 48.7548 60.4346C43.9979 66.3502 35.9172 68.8964 28.355 68.378C28.3092 68.378 28.2636 68.378 28.2178 68.378C26.8304 68.2712 25.4582 68.0883 24.1012 67.8139C23.4304 67.6766 22.7443 67.5242 22.0734 67.3565C21.3873 67.1888 20.7013 66.9905 20.0305 66.7618C19.695 66.6551 19.3443 66.5484 19.0089 66.4264C18.3228 66.1977 17.6215 65.9385 16.9506 65.6794C16.4627 65.4964 15.9901 65.2982 15.5175 65.1C15.9291 65.3897 16.3255 65.6641 16.7372 65.9538C17.3318 66.3654 17.9264 66.7771 18.521 67.1735C18.7802 67.3564 19.0242 67.5242 19.2681 67.6919C19.756 68.0121 20.2438 68.3475 20.7317 68.6524C21.2196 68.9726 21.7076 69.2928 22.2107 69.6129C22.8358 70.0093 23.4456 70.4057 24.0707 70.8022C25.2142 71.8694 26.1443 73.0892 27.4708 73.9735C28.8124 74.873 30.3066 74.8882 31.755 75.2999C32.6088 75.7725 33.4474 76.2604 34.3164 76.7331C34.4841 76.8245 34.6518 76.8703 34.8195 76.9008C36.1459 76.1079 37.3657 74.9949 38.7836 74.3698C40.8571 73.4398 43.3575 73.516 45.2329 72.2353C46.6355 71.2748 47.4741 69.7044 48.2516 68.195C48.892 66.9296 49.5324 65.6031 50.0812 64.2309C51.4534 60.8462 52.2158 57.2633 50.9808 53.9091V53.8633Z" fill="#8BAC12"/>
    <path d="M50.9808 53.8634C51.423 56.2113 50.249 58.5745 48.7548 60.4346C43.9979 66.3502 35.9172 68.8964 28.355 68.378C28.3702 68.3933 28.4008 68.4085 28.416 68.4238C29.3156 69.0794 29.6814 70.3601 30.7334 71.0614C31.9379 71.8695 33.7675 71.6255 35.0787 71.4883C38.4177 71.1224 42.9612 71.3816 45.2786 68.5762C46.0562 67.6309 46.4068 66.4722 47.5808 65.8319C48.3431 65.4202 49.4562 64.9476 50.0203 64.2615C50.0508 64.231 50.066 64.2005 50.0812 64.1852C51.4534 60.8005 52.2158 57.2176 50.9808 53.8634Z" fill="#6E840F"/>
  </g>
  <defs>
    <clipPath id="clip0_122_1272">
      <rect width="113" height="209" fill="white"/>
    </clipPath>
  </defs>
</svg>
