<svg width="191" height="224" viewBox="0 0 191 224" fill="none"
  xmlns="http://www.w3.org/2000/svg">
  <g clip-path="url(#clip0_307_331)">
    <path d="M77.5579 214.794C84.1157 200.04 93.1083 186.648 104.297 175.008C108.116 171.022 112.233 167.221 116.228 163.544C119.47 160.545 122.833 157.456 126.002 154.276C128.12 152.147 130.165 149.993 132.05 147.872C132.29 147.605 132.529 147.337 132.776 147.056L132.821 146.977C133.124 146.658 133.414 146.332 133.704 146.006C135.302 144.177 136.861 142.292 138.484 140.232C138.988 139.589 139.472 138.952 139.977 138.309L140.49 137.619C142.258 135.274 143.959 132.891 145.558 130.502C145.846 130.087 146.113 129.678 146.388 129.255L146.463 129.122L146.508 129.043C146.619 128.878 146.738 128.7 146.849 128.535C146.997 128.304 147.138 128.086 147.28 127.868L147.501 127.538C148.491 125.978 149.303 124.668 150.051 123.41C152.535 119.245 154.863 114.921 156.928 110.536C157.341 109.684 157.733 108.837 158.12 107.969C166.322 89.8182 170.531 71.1382 170.624 52.4216L171.239 52.4195C171.134 71.2174 166.915 89.9787 158.688 108.204C158.301 109.071 157.901 109.931 157.488 110.784C155.403 115.175 153.094 119.526 150.582 123.711C149.834 124.969 149.021 126.279 148.024 127.852L147.802 128.182C147.675 128.407 147.513 128.631 147.372 128.849C147.282 129.008 147.171 129.173 147.06 129.338L147.1 129.483L146.926 129.543C146.644 129.979 146.369 130.401 146.081 130.816C144.482 133.205 142.787 135.609 140.998 137.96L140.485 138.65C139.993 139.3 139.489 139.943 138.992 140.573C137.361 142.646 135.781 144.536 134.197 146.373C133.92 146.706 133.623 147.046 133.319 147.365C133.312 147.378 133.282 147.431 133.233 147.456C133.022 147.704 132.775 147.985 132.523 148.245C130.629 150.379 128.585 152.533 126.446 154.668C123.263 157.841 119.906 160.95 116.664 163.949C112.69 167.621 108.573 171.421 104.769 175.381C93.6238 186.975 84.6688 200.301 78.1486 214.989L77.588 214.741L77.5579 214.794Z" fill="#325D1C"/>
    <path d="M170.148 62.2286C167.928 62.3725 166.392 60.135 165.811 57.9131C165.762 57.692 165.712 57.471 165.669 57.2366C165.553 56.5751 165.492 55.9097 165.405 55.2292C165.218 53.5808 165.017 51.9249 164.159 50.5625C165.541 52.6076 166.95 54.6678 168.338 56.7337C168.915 57.5694 169.482 58.4865 169.856 59.4345C169.934 59.6366 169.999 59.8312 170.051 60.0182C170.26 60.7323 170.323 61.4867 170.134 62.2211L170.148 62.2286Z" fill="#A3BC62"/>
    <path d="M170.246 66.6308C170.246 66.6308 170.067 66.6692 169.984 66.6922C170.125 66.5972 170.267 66.5021 170.395 66.3995C171.253 65.7819 172.1 65.1228 172.894 64.4335C173.237 64.1373 173.574 63.8203 173.912 63.5033C178.113 59.523 181.259 54.4362 182.906 48.9027C182.666 51.1502 182.43 53.4525 181.819 55.6124C181.599 56.4339 181.318 57.2387 180.971 58.0058C180.847 58.2861 180.71 58.5588 180.58 58.8184C178.51 62.7799 174.608 65.738 170.246 66.6308V66.6308Z" fill="#A3BC62"/>
    <path d="M162.249 61.2917C162.748 62.2053 163.141 63.1816 163.409 64.1924C162.89 63.2846 162.468 62.3273 162.249 61.2917Z" fill="#9EC11B"/>
    <path d="M168.835 75.522C168.244 73.7502 165.717 73.5094 164.607 72.0042C164.32 71.6137 164.158 71.1888 164.052 70.7259C163.881 69.9454 163.918 69.1076 163.919 68.3019C163.934 68.1525 163.927 68.0088 163.929 67.8518C163.932 66.6094 163.75 65.3845 163.422 64.2C164.21 65.5928 165.249 66.8827 166.212 68.1823C167.341 69.7158 168.397 71.4709 168.772 73.3134C168.855 73.6933 168.911 74.058 168.905 74.44C168.913 74.7955 168.894 75.1701 168.848 75.5295L168.835 75.522Z" fill="#9EC11B"/>
    <path d="M190.713 75.7253C189.149 75.084 187.523 75.2315 185.864 75.6231C185.152 75.7977 184.445 75.9931 183.724 76.215C182.545 76.5633 181.372 76.9324 180.202 77.1105C177.786 77.4763 175.313 77.1086 172.896 77.5085C171.085 77.7967 169.367 78.5402 167.903 79.6384C168.208 79.1626 168.526 78.6944 168.876 78.262C169.059 78.0325 169.234 77.8164 169.43 77.5945C171.743 74.9974 174.982 73.2405 178.418 72.682C182.693 72.0033 187.208 73.1599 190.706 75.7385L190.713 75.7253Z" fill="#9EC11B"/>
    <path d="M175.11 85.0728C174.927 85.4592 174.69 85.8156 174.428 86.1229C172.413 88.6262 168.603 89.2882 165.242 89.5912C165.166 89.6009 165.077 89.6031 165.002 89.6128C165.126 89.5783 165.245 89.523 165.351 89.4602C165.485 89.3784 165.6 89.2684 165.715 89.1583C165.845 89.0217 165.954 88.8908 166.063 88.76C166.142 88.6821 166.208 88.5968 166.295 88.5058C167.746 86.9973 169.819 86.2448 171.681 85.2493C173.627 84.1967 175.572 82.4955 175.64 80.2732C175.914 81.8305 175.861 83.5005 175.18 84.9193C175.157 84.9591 175.148 85.0064 175.118 85.0595L175.11 85.0728Z" fill="#A3BC62"/>
    <path d="M180.715 90.8608C181.278 89.0945 182.065 87.49 183.517 86.3502C182.831 87.9941 181.858 89.4933 180.715 90.8608Z" fill="#9EC11B"/>
    <path d="M177.386 100.26C177.16 100.535 176.907 100.795 176.641 101.047C175.904 101.699 175.047 102.159 174.126 102.548C173.484 102.815 172.81 103.046 172.156 103.272C168.123 104.667 163.939 106.08 159.709 105.628C159.363 105.59 160.025 105.597 159.884 105.289C159.743 104.981 160.811 104.798 160.108 104.925C161.561 102.98 162.841 102.268 165.008 101.166C165.134 101.097 165.261 101.029 165.4 100.967C165.674 100.825 165.961 100.69 166.235 100.547C169.459 98.9393 172.701 97.3943 175.661 95.3566C177.523 94.0812 179.267 92.5811 180.715 90.8608C179.703 94.0377 179.448 97.766 177.393 100.247L177.386 100.26Z" fill="#9EC11B"/>
    <path d="M160.693 102.873C158.464 100.559 157.182 97.3786 157.192 94.1769C157.192 93.6512 157.226 93.1272 157.287 92.6183C157.349 91.9524 157.445 91.2883 157.575 90.626C158.093 87.8877 158.891 85.1504 158.685 82.5452C159.19 84.6539 159.695 86.7626 160.178 88.8771C161.113 92.8243 162.036 97.0099 161.251 100.929C161.235 100.99 161.238 101.044 161.208 101.098C161.095 101.699 160.921 102.284 160.706 102.881L160.693 102.873Z" fill="#4C7D16"/>
    <path d="M156.703 111.705C155.597 111.184 154.688 110.406 153.951 109.48C153.522 108.939 153.157 108.346 152.827 107.721C152.61 107.3 152.401 106.866 152.233 106.42C152.178 106.301 152.13 106.169 152.082 106.037C151.691 105.027 151.398 103.967 151.137 102.943C150.901 101.968 150.68 100.966 150.431 99.9837C149.771 97.4368 148.917 94.9548 147.129 93.1002C150.818 96.7334 153.774 101.073 155.807 105.835C155.862 105.954 155.91 106.086 155.965 106.205C156.112 106.534 156.238 106.868 156.377 107.21L156.389 107.251C156.539 107.634 156.683 108.031 156.826 108.428C156.832 108.449 156.851 108.477 156.849 108.511C156.868 108.539 156.874 108.56 156.872 108.594C157.074 109.164 157.233 109.78 157.196 110.372C157.185 110.454 157.174 110.535 157.17 110.603C157.115 111.01 156.952 111.391 156.749 111.749L156.703 111.705Z" fill="#9EC11B"/>
    <path d="M167.954 158.425C167.476 157.506 166.81 156.673 166.026 155.983C165.459 155.469 164.833 155.027 164.172 154.617C163.802 154.372 163.418 154.154 163.018 153.963C162.898 153.895 162.792 153.835 162.679 153.788C162.101 153.478 161.495 153.187 160.915 152.911C160.849 152.873 160.782 152.836 160.709 152.812C153.052 149.19 144.807 145.463 140.317 138.327C140.266 138.263 140.222 138.186 140.178 138.108L140.492 138.111C140.929 138.113 141.379 138.123 141.828 138.167C141.862 138.168 141.896 138.17 141.916 138.164C147.933 138.525 153.83 140.799 158.515 144.593C160.743 146.382 162.673 148.51 164.278 150.874C164.818 151.653 165.301 152.47 165.75 153.286C166.648 154.916 167.386 156.614 167.948 158.405L167.954 158.425Z" fill="#A3BC62"/>
    <path d="M168.686 161.154C168.496 160.222 168.243 159.308 167.954 158.425C168.401 159.275 168.668 160.197 168.686 161.154Z" fill="#9EC11B"/>
    <path d="M146.443 149.318C146.011 150.019 145.518 150.703 144.929 151.246C144.334 151.802 143.643 152.217 142.834 152.407C142.751 152.43 142.662 152.432 142.566 152.448C142.483 152.471 142.394 152.473 142.305 152.475C142.271 152.473 142.25 152.479 142.216 152.477C142.072 152.483 141.915 152.482 141.779 152.475C141.677 152.47 141.562 152.457 141.46 152.452C141.297 152.429 141.134 152.407 140.979 152.372C140.932 152.363 140.871 152.346 140.811 152.329C140.703 152.303 140.595 152.277 140.487 152.251C140.447 152.228 140.4 152.219 140.352 152.209C140.258 152.191 140.171 152.159 140.07 152.12C139.936 152.079 139.796 152.017 139.669 151.962C139.495 151.899 139.328 151.822 139.161 151.745C138.995 151.668 138.828 151.591 138.669 151.501C138.417 151.358 138.144 151.221 137.892 151.078C137.441 150.822 136.998 150.553 136.569 150.258C135.923 149.821 135.305 149.366 134.709 148.871C134.506 148.703 134.303 148.535 134.121 148.362C133.984 148.232 133.84 148.115 133.724 147.98C133.633 147.893 133.542 147.806 133.451 147.72C133.309 147.569 133.159 147.431 133.003 147.273C132.99 147.265 132.964 147.25 132.958 147.23C132.999 147.218 133.02 147.212 133.054 147.214C134.309 146.856 135.651 146.776 136.943 147C137.432 147.066 137.903 147.193 138.373 147.354C139.929 147.886 141.313 148.846 142.895 149.269C143.919 149.534 145.116 149.494 146.041 149.037C146.524 148.803 146.939 148.442 147.21 147.965C146.968 148.423 146.725 148.882 146.449 149.338L146.443 149.318Z" fill="#9EC11B"/>
    <path d="M106.75 128.66C107.333 129.796 107.846 130.963 108.281 132.174C107.768 131.007 107.255 129.84 106.75 128.66Z" fill="#9EC11B"/>
    <path d="M115.021 165.086C113.715 162.751 112.402 160.43 111.11 158.103C110.56 157.125 110.004 156.126 109.706 155.046C109.185 153.121 109.522 151.103 109.844 149.113C109.89 148.753 109.957 148.388 110.003 148.029C110.233 146.354 110.348 144.667 110.32 142.986C110.252 139.302 109.562 135.634 108.281 132.174C110.056 136.247 111.838 140.307 113.613 144.38C113.937 145.106 114.273 145.875 114.795 146.469C115.336 147.091 116.079 147.512 116.627 148.121C118.106 149.748 117.99 152.118 117.561 154.328C117.477 154.754 117.393 155.18 117.283 155.59C117.097 156.414 116.884 157.222 116.698 158.045C116.139 160.392 115.593 162.747 115.034 165.094L115.021 165.086Z" fill="#8CAD28"/>
    <path d="M142.262 224.409C139.737 222.803 137.427 220.88 135.404 218.699C134.525 217.746 133.702 216.754 132.923 215.716C132.355 214.956 131.796 214.149 130.944 213.736C130.105 213.33 129.118 213.402 128.18 213.448C127.762 213.474 127.331 213.493 126.9 213.512C121.581 213.774 115.95 213.351 111.935 209.954C109.495 207.888 107.963 204.934 105.61 202.776C103.309 200.684 100.33 199.416 98.0436 197.296C95.7706 195.184 93.912 192.063 90.8545 191.644C90.828 191.629 90.8148 191.622 90.7865 191.641C90.7732 191.633 90.76 191.626 90.7259 191.624C90.7675 191.612 90.7883 191.607 90.809 191.601L90.8921 191.578C94.7289 190.405 98.8874 190.396 102.743 191.478C105.443 192.219 107.985 193.485 110.168 195.23C111.072 195.953 111.919 196.748 112.729 197.576C116.101 200.994 119.069 204.972 123.551 206.496C126.898 207.64 130.81 207.263 133.693 209.318C138.473 212.728 137.669 220.702 142.228 224.407L142.262 224.409Z" fill="#4C7D16"/>
    <path d="M93.4066 188.657C93.8266 184.391 89.3802 181.538 85.9634 178.97C81.4563 175.574 77.763 170.712 77.0645 165.111C76.8251 163.153 76.9428 161.151 76.9567 159.179C76.9692 157.889 76.9419 156.577 76.8656 155.289C76.84 154.994 76.8276 154.707 76.802 154.412C76.7565 153.843 76.7035 153.287 76.6448 152.711C76.4712 151.193 76.2426 149.679 75.9461 148.161C75.5223 145.941 74.9473 143.739 74.2533 141.594C73.3414 138.781 72.2066 136.052 70.8415 133.421C72.5121 136.348 75.8259 138.139 77.5797 141.043C78.818 143.094 79.2029 145.538 79.6745 147.891C79.9613 149.333 80.2896 150.763 80.6861 152.197C80.8435 152.847 81.0217 153.491 81.2148 154.109C81.4579 154.948 81.7085 155.773 81.9875 156.58C82.624 158.518 83.3644 160.427 84.1747 162.306C84.8267 163.815 85.5411 165.306 86.5593 166.602C87.7636 168.126 89.3279 169.293 90.6471 170.707C90.7572 170.821 90.854 170.929 90.9433 171.05C92.8572 173.239 94.1016 175.959 94.6222 178.813C95.2351 182.122 94.8558 185.605 93.4141 188.643L93.4066 188.657Z" fill="#4C7D16"/>
    <path d="M84.1845 202.392C82.1962 201.633 80.4573 200.279 79.2012 198.568C77.9112 196.856 77.0907 194.779 76.949 192.648C76.9128 192.031 76.9125 191.383 76.9461 190.736C77.0631 187.963 77.5882 185.089 76.3548 182.812C78.0471 185.454 79.3375 188.341 80.1915 191.349C80.4213 192.18 80.6304 193.017 81.0982 193.738C81.8245 194.868 83.0616 195.499 84.2965 196.041C84.4158 196.109 84.5428 196.163 84.6564 196.21C84.5931 197.033 84.5373 197.843 84.474 198.665C84.3894 199.897 84.2916 201.121 84.1995 202.365L84.1845 202.392Z" fill="#4C7D16"/>
    <path d="M170.076 43.8038C170.226 44.4671 170.334 45.1419 170.366 45.8263C170.162 45.167 170.054 44.4923 170.076 43.8038Z" fill="#9EC11B"/>
    <path d="M171.325 52.3284C171.235 52.4876 171.137 52.66 171.021 52.8041C170.983 52.8705 170.919 52.9217 170.86 52.9938C170.165 52.4592 169.885 51.5297 169.897 50.6427C169.906 50.4725 169.902 50.2948 169.924 50.1321C169.954 49.6762 170.053 49.2239 170.125 48.7565C170.179 48.5067 170.226 48.2702 170.259 48.0261C170.358 47.2939 170.397 46.5449 170.353 45.8188C170.457 46.1929 170.594 46.5688 170.726 46.9238C171.104 47.9267 171.529 48.9388 171.652 49.9899C171.761 50.7875 171.669 51.6294 171.312 52.3209L171.325 52.3284Z" fill="#9EC11B"/>
    <path d="M178.387 52.5456C177.872 52.3412 177.302 52.1409 176.762 52.2903C176.762 52.2903 176.741 52.296 176.721 52.3018C176.388 52.3937 176.111 52.6046 175.853 52.8438C175.63 53.0507 175.393 53.2841 175.132 53.4344C174.54 53.7996 173.8 53.8363 173.089 53.8539C172.447 53.875 171.77 53.8944 171.167 53.6582C171.141 53.6432 171.107 53.6414 171.094 53.6339L171.08 53.6264C171.278 53.3704 171.483 53.1011 171.694 52.8526C172.046 52.3862 172.419 51.914 172.907 51.5776C173.715 51.0188 174.806 50.9185 175.784 51.1401C176.755 51.375 177.616 51.8977 178.395 52.5323L178.387 52.5456Z" fill="#9EC11B"/>
    <path d="M176.762 52.2905C176.762 52.2905 176.741 52.2963 176.72 52.302C176.388 52.3939 176.111 52.6049 175.853 52.844C175.63 53.051 175.393 53.2844 175.132 53.4347C174.54 53.7998 173.8 53.8365 173.089 53.8541C172.446 53.8753 171.769 53.8946 171.167 53.6585C171.141 53.6434 171.107 53.6416 171.093 53.6341C171.093 53.6341 171.096 53.6297 171.101 53.6209C171.101 53.6209 171.269 53.5409 171.365 53.5254C171.624 53.4091 171.869 53.2853 172.109 53.1408C172.179 53.1103 172.243 53.059 172.313 53.0285C172.347 52.9074 172.414 52.788 172.508 52.6836C172.806 52.3441 173.172 52.131 173.548 51.9935C174.031 51.7592 174.536 51.6421 175.047 51.7916C175.455 51.8129 175.862 51.8682 176.262 51.9368C176.472 51.9682 176.635 52.1132 176.741 52.2963L176.762 52.2905Z" fill="#8BAC12"/>
    <path d="M171.325 52.3284C171.235 52.4875 171.137 52.6599 171.021 52.8041C170.983 52.8704 170.919 52.9217 170.861 52.9937C170.165 52.4591 169.885 51.5296 169.897 50.6427C169.906 50.4724 169.902 50.2947 169.924 50.132C169.954 49.6761 170.053 49.2238 170.125 48.7565C170.15 48.8056 170.175 48.8546 170.207 48.8905C170.871 49.915 171.053 51.1398 171.333 52.3151L171.325 52.3284Z" fill="#8BAC12"/>
    <path d="M170.246 66.6306C170.246 66.6306 170.067 66.6691 169.984 66.692C170.125 66.597 170.267 66.5019 170.395 66.3994C171.253 65.7818 172.1 65.1226 172.894 64.4334C173.237 64.1371 173.574 63.8202 173.912 63.5032C174.404 63.2216 174.844 62.9098 175.198 62.5322C177.303 60.2726 179.13 57.1724 181.833 55.6198C181.612 56.4413 181.331 57.2459 180.984 58.013C180.86 58.2934 180.723 58.5662 180.594 58.8257C178.524 62.7873 174.621 65.7454 170.26 66.6381L170.246 66.6306Z" fill="#82A551"/>
    <path d="M170.148 62.2286C167.928 62.3726 166.392 60.1351 165.811 57.9132C165.762 57.6921 165.712 57.471 165.669 57.2367C165.553 56.5752 165.492 55.9097 165.405 55.2292C166.139 55.8205 166.589 56.8817 167.059 57.8143C167.322 57.7528 167.632 57.8236 167.841 58.012C168.414 58.5471 169.262 58.9053 169.856 59.4346C169.934 59.6367 169.999 59.8312 170.051 60.0183C170.26 60.7324 170.323 61.4867 170.134 62.2211L170.148 62.2286Z" fill="#82A551"/>
    <path d="M168.835 75.522C168.244 73.7502 165.717 73.5094 164.607 72.0042C164.32 71.6137 164.158 71.1888 164.052 70.7259C163.881 69.9455 163.918 69.1076 163.919 68.3019C164.223 68.229 164.562 68.2807 164.854 68.4461C165.305 68.7018 165.426 69.384 165.408 70.1273C165.629 70.0773 165.907 70.1123 166.212 70.2852C166.716 70.5709 166.85 71.0149 166.771 71.4955C166.769 71.5295 166.767 71.5636 166.765 71.5976C166.928 71.6197 167.062 71.6609 167.208 71.7436C167.222 71.7511 167.235 71.7586 167.248 71.7661C167.301 71.7962 167.354 71.8263 167.392 71.8829C167.419 71.8979 167.445 71.9129 167.47 71.962C167.631 72.1411 167.755 72.3865 167.826 72.6019C167.866 72.7474 167.841 73.1011 167.817 73.4208C167.923 73.358 168.048 73.3234 168.172 73.289C168.235 73.2717 168.29 73.2678 168.344 73.2639C168.475 73.2502 168.623 73.2988 168.755 73.374C168.838 73.7538 168.894 74.1186 168.888 74.5006C168.897 74.8561 168.877 75.2306 168.831 75.59L168.835 75.522Z" fill="#8BAC12"/>
    <path d="M185.864 75.6232C185.152 75.7978 184.445 75.9931 183.724 76.215C182.545 76.5633 181.372 76.9325 180.202 77.1105C177.786 77.4764 175.313 77.1087 172.896 77.5086C171.085 77.7967 169.367 78.5403 167.903 79.6384C168.208 79.1627 168.526 78.6945 168.876 78.2621C169.059 78.0326 169.234 77.8165 169.43 77.5945C173.691 74.8394 179.59 72.8728 184.387 74.3651C185.046 74.5633 185.607 75.0568 185.857 75.6365L185.864 75.6232Z" fill="#8BAC12"/>
    <path d="M175.11 85.0729C174.926 85.4593 174.69 85.8157 174.428 86.123C172.413 88.6263 168.603 89.2883 165.242 89.5913C165.166 89.601 165.077 89.6032 165.001 89.6129C165.126 89.5784 165.245 89.5231 165.351 89.4603C165.485 89.3785 165.6 89.2685 165.715 89.1584C165.845 89.0218 165.954 88.8909 166.063 88.76C166.142 88.6822 166.208 88.5969 166.295 88.5059C167.713 88.013 169.142 87.7186 170.524 87.0122C171.919 86.3132 173.53 84.738 175.159 84.9252C175.137 84.9649 175.127 85.0123 175.097 85.0653L175.11 85.0729Z" fill="#82A551"/>
    <path d="M176.546 99.8543C176.029 100.49 175.544 101.004 175.435 101.135C175.045 101.545 174.604 102.013 174.128 102.514L174.139 102.556C173.497 102.823 172.823 103.054 172.169 103.279C168.137 104.674 163.953 106.088 159.723 105.636C159.376 105.597 160.038 105.604 159.897 105.297C159.756 104.989 160.824 104.805 160.121 104.933C161.574 102.987 162.854 102.276 165.021 101.173C165.148 101.105 165.274 101.036 165.414 100.975C165.765 100.911 166.109 100.861 166.467 100.818C167.497 100.701 168.542 100.68 169.558 100.713C170.899 100.141 172.236 99.5139 173.436 98.7571C174.275 98.2341 175.618 96.1737 176.808 96.1468C179.151 96.1254 177.752 98.3466 176.567 99.8485L176.546 99.8543Z" fill="#8BAC12"/>
    <path d="M160.693 102.873C158.464 100.559 157.183 97.3786 157.192 94.1769C157.192 93.6512 157.226 93.1272 157.287 92.6182C157.349 91.9524 157.445 91.2883 157.575 90.6259C157.83 90.5778 158.108 90.6127 158.381 90.7498C159.459 91.2907 158.907 92.4499 159.305 93.3241C159.446 93.6319 159.515 93.8813 159.577 94.144C159.702 94.2324 159.798 94.3398 159.858 94.5136C160.05 94.8854 160.237 95.2366 160.429 95.6084C160.583 95.8008 160.597 96.0542 160.518 96.2549C160.925 97.3617 161.271 98.5745 161.061 99.5946C161.148 100.029 161.221 100.456 161.246 100.908C161.229 100.969 161.233 101.024 161.203 101.077C161.089 101.678 160.916 102.263 160.7 102.86L160.693 102.873Z" fill="#406919"/>
    <path d="M156.703 111.705C155.597 111.184 154.688 110.406 153.951 109.48C153.522 108.939 153.157 108.346 152.827 107.721C152.61 107.3 152.401 106.866 152.233 106.42C152.178 106.301 152.13 106.169 152.082 106.037C151.691 105.027 151.398 103.967 151.137 102.943C150.901 101.968 150.68 100.966 150.431 99.9837C150.556 99.9492 150.678 99.9488 150.792 99.9956C152.021 100.394 152.613 101.606 153.1 102.881C153.193 102.934 153.263 103.026 153.332 103.152C153.817 104.181 154.54 104.854 154.961 105.688C155.224 105.627 155.508 105.683 155.807 105.835C155.862 105.954 155.91 106.086 155.965 106.205C156.112 106.534 156.238 106.868 156.377 107.21L156.389 107.251C156.539 107.634 156.683 108.031 156.826 108.428C156.832 108.449 156.851 108.477 156.849 108.511C156.868 108.539 156.874 108.56 156.872 108.594C156.871 108.751 156.856 108.9 156.841 109.05C157.024 109.469 157.137 109.919 157.196 110.372C157.185 110.454 157.174 110.535 157.17 110.603C157.115 111.01 156.952 111.391 156.749 111.749L156.703 111.705Z" fill="#8BAC12"/>
    <path d="M190.832 119.237C189.395 117.845 187.892 116.415 186.027 115.655C185.599 115.483 185.135 115.343 184.668 115.271C183.118 115.006 181.491 115.31 180.377 116.379C179.946 116.8 179.633 117.289 179.333 117.82C178.932 118.557 178.591 119.345 178.124 120.044C177.547 120.908 176.78 121.613 176.007 122.296C173.807 124.291 171.607 126.287 169.407 128.282C167.923 129.632 166.287 131.035 164.305 131.191C161.995 131.371 159.972 129.839 158.008 128.604C155.384 126.958 152.482 125.769 149.458 125.107C151.644 123.909 154.119 123.84 156.657 123.877C156.732 123.867 156.814 123.878 156.882 123.882C158.641 123.932 160.413 123.99 162.112 123.744C167.671 122.934 172.108 118.877 176.402 115.23C177.609 114.214 178.878 113.18 180.41 112.734C182.545 112.122 184.886 112.783 186.676 114.078C188.466 115.373 189.754 117.242 190.799 119.202L190.832 119.237Z" fill="#80AA3A"/>
    <path d="M158.177 108.177C157.708 108.262 157.24 108.347 156.803 108.467C155.821 108.717 154.875 109.057 153.965 109.487C153.776 109.573 153.6 109.666 153.411 109.752C153.194 109.857 152.983 109.982 152.779 110.095C151.492 110.82 150.118 111.759 148.652 111.471C148.57 111.46 148.483 111.428 148.409 111.403C148.328 111.392 148.241 111.361 148.175 111.323C148.108 111.285 148.04 111.282 147.974 111.244C147.921 111.214 147.86 111.197 147.807 111.167C147.574 111.053 147.356 110.912 147.118 110.776C146.913 110.643 146.695 110.502 146.503 110.376C146.411 110.323 146.304 110.263 146.219 110.197C146.014 110.063 145.802 109.943 145.596 109.844C145.376 109.737 145.149 109.643 144.925 109.604L144.899 109.589C144.872 109.574 144.852 109.58 144.831 109.585C144.749 109.574 144.668 109.563 144.587 109.552L144.56 109.537C144.56 109.537 144.547 109.53 144.534 109.522C144.507 109.507 144.486 109.513 144.466 109.519C143.524 109.511 142.673 110.115 141.905 110.696C140.655 111.635 139.425 112.568 138.175 113.506C137.279 114.19 136.37 114.867 135.46 115.543C135.694 114.08 136.506 112.771 137.459 111.646C140.967 107.466 146.758 105.35 152.118 106.005C153.041 106.107 153.932 106.297 154.792 106.574C155.33 106.738 155.866 106.937 156.387 107.162C156.413 107.177 156.44 107.192 156.466 107.207C157.066 107.477 157.658 107.795 158.226 108.152L158.177 108.177Z" fill="#A3BC62"/>
    <path d="M184.681 115.278C183.131 115.013 181.504 115.318 180.39 116.386C179.959 116.808 179.647 117.297 179.346 117.827C178.946 118.564 178.604 119.352 178.138 120.052C177.56 120.916 176.793 121.62 176.02 122.304C173.82 124.299 171.62 126.294 169.42 128.289C167.936 129.639 166.3 131.043 164.319 131.199C162.008 131.379 159.985 129.847 158.022 128.611C155.397 126.966 152.495 125.777 149.471 125.114C151.657 123.917 154.132 123.848 156.67 123.884C156.681 123.926 156.686 123.981 156.689 124.036C156.861 124.29 156.85 124.617 156.7 124.883C157.182 124.928 157.657 124.987 158.153 125.04C160.326 125.256 162.51 125.424 164.697 125.367C164.862 125.355 165.002 125.417 165.114 125.498C166.925 124.807 168.567 123.95 170.12 122.973C172.592 120.746 174.916 118.191 177.103 116.837C178.098 116.226 179.14 115.625 180.182 115.269C181.256 114.581 182.502 114.516 183.513 115.019C183.925 114.973 184.298 115.026 184.66 115.284L184.681 115.278Z" fill="#739932"/>
    <path d="M156.417 107.232C156.417 107.232 156.362 107.236 156.349 107.229C155.925 107.234 155.502 107.239 155.078 107.244C154.959 107.177 154.839 107.109 154.72 107.041C154.58 106.979 154.44 106.917 154.3 106.856C153.61 106.588 152.921 106.442 152.254 106.414C151.068 106.373 149.931 106.71 148.815 107.41C148.681 107.492 148.574 107.588 148.461 107.665C147.223 107.839 145.996 108.055 144.819 108.369C142.437 109.017 138.871 110.887 138.154 113.512C139.404 112.573 140.642 111.627 141.885 110.702C142.652 110.121 143.503 109.516 144.445 109.524C144.479 109.526 144.5 109.52 144.513 109.528C144.513 109.528 144.526 109.535 144.539 109.543C144.539 109.543 144.553 109.55 144.566 109.558C144.566 109.558 144.729 109.58 144.81 109.591C144.837 109.606 144.857 109.6 144.878 109.595L144.905 109.61C145.134 109.669 145.348 109.756 145.575 109.849C145.781 109.949 145.994 110.069 146.198 110.203C146.291 110.255 146.397 110.316 146.483 110.381C146.674 110.507 146.892 110.649 147.097 110.782C147.328 110.931 147.546 111.072 147.786 111.173C147.84 111.203 147.893 111.233 147.953 111.25C148.02 111.288 148.08 111.304 148.154 111.329C148.22 111.366 148.315 111.385 148.389 111.409C148.463 111.434 148.557 111.452 148.631 111.476C150.084 111.757 151.471 110.825 152.758 110.1C152.962 109.988 153.187 109.87 153.391 109.758C153.566 109.665 153.755 109.579 153.944 109.493C154.86 109.083 155.813 108.73 156.782 108.473C157.232 108.36 157.695 108.254 158.156 108.183C157.595 107.812 157.004 107.495 156.396 107.238L156.417 107.232Z" fill="#82A551"/>
    <path d="M163.039 153.957C162.919 153.889 162.813 153.829 162.699 153.782C162.122 153.472 161.515 153.181 160.936 152.905C160.869 152.868 160.803 152.83 160.729 152.806C153.073 149.185 144.828 145.458 140.338 138.321C140.287 138.257 140.243 138.18 140.199 138.102L140.513 138.105C140.95 138.107 141.4 138.117 141.848 138.161C141.915 138.199 141.975 138.215 142.049 138.24L142.062 138.247C143.625 138.923 145.111 140.01 146.736 140.546C148.542 141.131 150.348 141.717 152.106 142.45C155.98 144.086 159.304 146.075 161.93 149.42C162.327 149.926 162.798 150.701 163.083 151.529C163.36 152.369 163.45 153.262 163.08 153.946L163.039 153.957Z" fill="#82A551"/>
    <path d="M144.929 151.246C144.334 151.802 143.643 152.217 142.834 152.407C142.751 152.43 142.662 152.432 142.566 152.448C142.483 152.471 142.394 152.473 142.305 152.475C142.271 152.473 142.25 152.479 142.216 152.477C142.072 152.484 141.915 152.482 141.779 152.475C141.677 152.47 141.562 152.457 141.46 152.452C141.297 152.43 141.134 152.407 140.979 152.372C140.932 152.363 140.871 152.346 140.811 152.329C140.703 152.303 140.595 152.277 140.487 152.251C140.447 152.228 140.4 152.219 140.352 152.21C140.258 152.191 140.171 152.159 140.07 152.12C139.936 152.079 139.796 152.017 139.669 151.962C139.495 151.899 139.328 151.822 139.161 151.745C138.995 151.668 138.828 151.591 138.669 151.501C138.417 151.358 138.144 151.221 137.892 151.078C137.441 150.822 136.998 150.554 136.569 150.258C135.923 149.822 135.305 149.366 134.709 148.871C134.506 148.703 134.303 148.536 134.121 148.362C133.984 148.232 133.84 148.116 133.724 147.98C133.633 147.893 133.542 147.806 133.451 147.72C133.309 147.569 133.159 147.431 133.003 147.273C132.99 147.266 132.964 147.251 132.958 147.23C132.999 147.218 133.02 147.213 133.054 147.214C134.309 146.856 135.651 146.776 136.943 147C137.07 147.055 137.19 147.122 137.309 147.19C138.37 147.791 139.376 148.677 140.268 149.235C141.017 149.677 141.811 150.039 142.73 150.21C143.082 150.269 143.297 150.601 143.334 150.938C143.818 150.949 144.293 151.008 144.736 151.154C144.81 151.179 144.897 151.21 144.95 151.241L144.929 151.246Z" fill="#8BAC12"/>
    <path d="M129.672 151.203C127.919 145.793 126.15 140.287 126.085 134.589C126.082 133.852 126.106 133.129 126.151 132.401C126.196 131.673 126.248 130.931 126.327 130.205C126.686 126.85 127.296 123.516 127.451 120.151C127.638 115.771 126.846 111.046 124.032 107.786C127.677 111.745 129.967 116.793 131.855 121.842C132.844 124.488 133.739 127.238 134.25 130.016C134.774 132.802 134.914 135.615 134.374 138.393C134.346 138.535 134.318 138.677 134.29 138.819C133.812 141.054 132.957 143.181 132.075 145.293C131.277 147.258 130.465 149.217 129.666 151.182L129.672 151.203Z" fill="#537D26"/>
    <path d="M129.672 151.203C127.919 145.793 126.15 140.287 126.085 134.589C126.082 133.852 126.106 133.129 126.151 132.401C126.196 131.673 126.248 130.931 126.327 130.205C126.513 130.03 126.725 129.904 126.944 129.766C126.992 129.618 127.054 129.478 127.103 129.33C127.563 126.787 127.894 124.223 128.246 121.654C128.311 121.2 128.842 120.975 129.233 121.057C130.713 121.352 131.223 122.71 131.278 124.406C131.881 126.588 133.175 128.356 134.236 130.009C134.761 132.794 134.901 135.608 134.36 138.386C134.332 138.528 134.305 138.67 134.277 138.812C133.799 141.047 132.944 143.173 132.062 145.285C131.263 147.251 130.452 149.209 129.653 151.175L129.672 151.203Z" fill="#416921"/>
    <path d="M115.021 165.086C113.715 162.751 112.402 160.43 111.11 158.103C110.56 157.125 110.004 156.126 109.706 155.046C109.185 153.121 109.522 151.104 109.844 149.113C109.89 148.753 109.957 148.388 110.003 148.029C110.233 146.354 110.348 144.667 110.32 142.986C111.276 143.896 112.121 144.971 112.478 146.259C112.922 147.826 113.648 147.782 114.465 148.875C115.709 150.545 116.913 152.348 117.553 154.341C117.47 154.767 117.386 155.193 117.276 155.604C117.09 156.427 116.877 157.235 116.691 158.058C116.131 160.405 115.586 162.76 115.026 165.107L115.021 165.086Z" fill="#55852A"/>
    <path d="M155.828 190.178C152.714 188.746 149.292 187.981 145.861 187.911C143.611 187.863 141.365 188.114 139.192 188.67C138.867 188.749 138.556 188.835 138.223 188.927C135.88 189.597 133.58 190.502 131.166 190.711C127.141 191.041 123.171 189.386 119.974 186.926C116.77 184.479 114.24 181.275 111.791 178.082C110.269 176.097 108.704 174.036 106.527 172.837C109.565 172.053 112.432 173.363 115.183 175.097C116.604 175.99 117.958 177.003 119.304 177.906C121.184 179.164 123.19 180.232 125.281 181.119C128.955 182.675 132.894 183.611 136.882 183.873C139.31 184.041 141.78 183.951 144.168 184.375C148.484 185.139 152.369 187.499 155.856 190.159L155.828 190.178Z" fill="#90B03A"/>
    <path d="M145.861 187.911C143.611 187.863 141.365 188.114 139.192 188.67C138.867 188.749 138.556 188.835 138.223 188.927C135.88 189.597 133.58 190.502 131.166 190.711C127.141 191.041 123.171 189.386 119.974 186.926C116.77 184.479 114.24 181.275 111.791 178.082C110.269 176.097 108.704 174.036 106.527 172.837C109.565 172.053 112.432 173.363 115.183 175.097C116.604 175.99 117.958 177.003 119.304 177.906C121.184 179.164 123.19 180.232 125.281 181.119C127.311 182.269 129.402 183.279 131.664 183.895C133.273 184.334 140.688 184.979 143.615 186.866C144.165 186.915 144.701 186.991 145.274 187.123C145.645 187.211 145.873 187.55 145.869 187.898L145.861 187.911Z" fill="#598A29"/>
    <path d="M135.403 218.699C134.525 217.746 133.702 216.754 132.923 215.716C132.355 214.956 131.796 214.149 130.944 213.736C130.105 213.33 129.118 213.402 128.18 213.449C127.762 213.475 127.331 213.493 126.9 213.512C121.581 213.774 115.95 213.351 111.935 209.954C109.495 207.888 107.963 204.934 105.61 202.777C103.309 200.684 100.33 199.416 98.0435 197.296C95.7706 195.184 93.912 192.063 90.8545 191.644C90.8695 191.618 90.8846 191.591 90.8921 191.578C94.7288 190.405 98.8873 190.396 102.743 191.478C105.443 192.219 107.985 193.485 110.168 195.23C111.072 195.953 111.919 196.748 112.729 197.576C113.556 199.271 113.508 201.365 115.327 202.763C117.96 204.764 120.384 207.908 123.566 208.818C125.942 209.481 129.047 209.786 131.145 211.186C133.31 212.623 136.165 215.749 135.369 218.698L135.403 218.699Z" fill="#406919"/>
    <path d="M84.1845 202.392C82.1962 201.633 80.4573 200.279 79.2013 198.569C77.9112 196.856 77.0908 194.779 76.949 192.648C76.9129 192.031 76.9125 191.383 76.9462 190.736C76.9992 190.766 77.039 190.788 77.1053 190.826C78.4397 191.688 78.2822 192.615 79.0527 193.945C80.1924 195.923 81.4207 196.199 83.337 196.899L83.3595 196.86C83.5754 196.386 83.9225 196.145 84.3023 196.062C84.4217 196.13 84.5486 196.184 84.6622 196.231C84.5989 197.054 84.5431 197.863 84.4798 198.686C84.3952 199.918 84.2973 201.141 84.2052 202.386L84.1845 202.392Z" fill="#406919"/>
    <path d="M93.4065 188.657C93.8265 184.391 89.3801 181.538 85.9633 178.97C81.4563 175.574 77.7629 170.712 77.0644 165.111C76.825 163.153 76.9427 161.151 76.9566 159.179C76.9691 157.889 76.9419 156.577 76.8655 155.289C76.8399 154.994 76.8275 154.707 76.8019 154.412C76.7564 153.843 76.7035 153.287 76.6447 152.711C76.4711 151.193 76.2426 149.679 75.946 148.161C75.5222 145.941 74.9472 143.739 74.2532 141.594C75.0381 141.6 75.8123 141.811 76.5069 142.503C78.0193 144.009 77.603 147.155 78.0878 148.989C78.3773 150.117 78.6726 151.266 78.9811 152.422C79.1345 153.018 79.3011 153.62 79.481 154.231C79.6552 154.82 79.8293 155.409 80.0167 156.006C80.1334 156.388 80.2576 156.756 80.3951 157.132C81.2911 159.725 83.1161 161.916 83.8892 164.51C83.9294 164.656 83.9905 164.795 84.0515 164.935C84.1196 164.939 84.1744 164.935 84.2425 164.938C85.0291 164.911 85.568 165.444 85.8257 166.134C86.0012 166.566 86.0595 167.02 86.0572 167.457C87.2731 168.496 88.7326 169.446 89.8485 170.569C90.0661 170.587 90.2951 170.647 90.4941 170.76C90.6134 170.828 90.7385 170.916 90.8353 171.024C90.8751 171.046 90.9017 171.061 90.9282 171.076C92.8421 173.265 94.0865 175.986 94.6071 178.839C95.22 182.149 94.8407 185.631 93.399 188.67L93.4065 188.657Z" fill="#406919"/>
    <path d="M175.866 52.8513C175.643 53.0582 175.406 53.2916 175.146 53.442C174.553 53.8071 173.814 53.8437 173.103 53.8614C172.46 53.8825 171.783 53.9019 171.181 53.6657C171.245 53.6145 171.309 53.5632 171.379 53.5327C171.613 53.3673 171.858 53.2436 172.122 53.1481C172.345 53.0641 172.582 52.9876 172.837 52.9395C172.975 52.9125 173.133 52.8798 173.271 52.8528C173.734 52.2215 174.692 52.046 175.369 52.4294C175.581 52.5497 175.731 52.6872 175.858 52.8645L175.866 52.8513Z" fill="#6E840F"/>
    <path d="M171.021 52.8041C170.983 52.8705 170.919 52.9217 170.86 52.9938C170.165 52.4592 169.885 51.5297 169.897 50.6427C169.906 50.4725 169.902 50.2948 169.924 50.1321C170.59 50.8427 170.915 51.8155 171.021 52.8041V52.8041Z" fill="#6E840F"/>
    <path d="M170.246 66.6308C170.291 66.5512 170.337 66.4716 170.382 66.392C171.24 65.7744 172.087 65.1153 172.881 64.426C172.907 64.4411 172.92 64.4485 172.954 64.4503C173.007 64.4804 173.076 64.484 173.136 64.5008C173.3 64.366 173.517 64.2611 173.787 64.1864C175.025 63.889 175.521 62.8907 176.519 62.212C176.653 62.1303 176.8 62.056 176.961 61.9893C177.735 60.6231 178.505 59.202 179.907 58.8926C180.149 58.8369 180.369 58.821 180.573 58.8317C178.503 62.7932 174.6 65.7513 170.239 66.6441L170.246 66.6308Z" fill="#5B812C"/>
    <path d="M170.148 62.2286C167.928 62.3725 166.392 60.135 165.811 57.9131C165.956 58.0299 166.09 58.1939 166.195 58.411C166.73 59.4152 167.013 59.7508 168.152 59.7828C168.827 59.7974 169.438 59.8634 170.051 60.0182C170.26 60.7323 170.323 61.4866 170.134 62.221L170.148 62.2286Z" fill="#5B812C"/>
    <path d="M168.835 75.522C168.244 73.7502 165.717 73.5094 164.607 72.0042C164.32 71.6137 164.158 71.1888 164.052 70.7259C164.132 70.771 164.225 70.8236 164.31 70.8895C164.822 71.2848 165.187 71.2287 165.826 71.2756C166.167 71.2933 166.49 71.3716 166.778 71.4822C166.932 71.5516 167.085 71.6211 167.216 71.7303C167.282 71.7679 167.348 71.8055 167.407 71.8563C167.434 71.8714 167.46 71.8864 167.485 71.9355C167.565 71.9806 167.642 72.0597 167.707 72.1314C167.971 72.4387 168.156 72.8239 168.182 73.2417C168.178 73.3098 168.182 73.3646 168.179 73.4327C168.249 73.5251 168.357 73.6741 168.422 73.7458C168.562 73.9306 168.703 74.1155 168.836 74.3136C168.861 74.3627 168.893 74.3984 168.918 74.4475C168.927 74.803 168.907 75.1775 168.861 75.537L168.835 75.522Z" fill="#6E840F"/>
    <path d="M183.724 76.2149C182.545 76.5632 181.372 76.9323 180.202 77.1104C177.786 77.4763 175.313 77.1086 172.896 77.5085C171.085 77.7966 169.367 78.5401 167.903 79.6383C168.208 79.1626 168.526 78.6943 168.876 78.262C169.314 77.8614 169.861 77.5759 170.513 77.5074C171.859 77.359 173.065 77.1486 174.224 76.4033C174.641 76.1314 175.261 75.7472 175.799 75.7888C177.702 75.9561 179.562 74.8377 181.444 75.2906C182.28 75.4844 183.021 75.8165 183.703 76.2207L183.724 76.2149Z" fill="#6E840F"/>
    <path d="M174.428 86.1229C172.413 88.6262 168.603 89.2882 165.242 89.5912C165.272 89.5382 165.321 89.5133 165.351 89.4603C165.485 89.3785 165.6 89.2685 165.715 89.1584C165.892 89.0311 166.075 88.9245 166.264 88.8387C167.423 88.3392 168.657 89.0384 169.721 88.3973C170.87 87.6993 172.134 86.6453 173.424 86.255C173.764 86.1498 174.101 86.1127 174.428 86.1229V86.1229Z" fill="#5B812C"/>
    <path d="M161.195 101.09C161.082 101.692 160.908 102.277 160.693 102.873C158.464 100.559 157.183 97.3786 157.192 94.1769C157.192 93.6512 157.226 93.1272 157.287 92.6183C157.645 92.9442 158.066 93.2529 158.328 93.5943C158.68 94.0564 158.365 94.7364 158.731 95.1719C159.687 96.3619 159.793 97.1936 159.778 98.6743C159.774 99.7939 160.753 100.261 161.203 101.077L161.195 101.09Z" fill="#2A4E10"/>
    <path d="M177.386 100.26C177.16 100.535 176.907 100.795 176.641 101.047C175.904 101.699 175.047 102.159 174.126 102.548C173.484 102.815 172.81 103.046 172.156 103.272C168.123 104.666 163.939 106.08 159.709 105.628C159.363 105.59 160.025 105.597 159.884 105.289C159.743 104.981 160.811 104.798 160.108 104.925C161.561 102.98 162.841 102.268 165.008 101.166C165.134 101.097 165.261 101.028 165.4 100.967C165.674 100.825 165.961 100.689 166.235 100.547C166.313 100.626 166.383 100.718 166.446 100.824C166.528 100.958 166.602 101.105 166.655 101.258C167.082 101.465 167.408 101.878 167.563 102.316C167.616 102.469 167.67 102.622 167.731 102.762C168.742 102.493 169.759 102.369 170.782 101.985C172.085 101.479 173.294 99.9036 174.63 99.6795C175.209 99.5867 175.908 99.6504 176.546 99.8543C176.842 99.9516 177.136 100.083 177.386 100.26V100.26Z" fill="#6E840F"/>
    <path d="M178.138 120.051C177.56 120.916 176.793 121.62 176.02 122.304C173.82 124.299 171.62 126.294 169.42 128.289C167.937 129.639 166.3 131.042 164.319 131.199C162.008 131.379 159.985 129.847 158.022 128.611C155.397 126.966 152.495 125.777 149.471 125.114C151.657 123.917 154.132 123.848 156.67 123.884C156.746 123.874 156.827 123.886 156.895 123.889C157.075 123.974 157.255 124.058 157.435 124.143C157.801 124.332 158.036 124.659 158.147 125.019C158.206 125.193 158.224 125.378 158.229 125.556C158.786 125.872 159.299 126.233 159.742 126.659C160.357 126.903 160.974 127.112 161.924 127.107C164.306 127.108 166.007 127.757 168.237 126.357C171.985 124.012 174.593 120.338 178.42 118.038C178.73 117.863 179.041 117.777 179.327 117.799C178.927 118.536 178.585 119.324 178.119 120.023L178.138 120.051Z" fill="#4F7C22"/>
    <path d="M158.177 108.177C157.708 108.262 157.24 108.347 156.803 108.468C155.821 108.717 154.875 109.057 153.965 109.487C153.776 109.573 153.6 109.666 153.411 109.752C153.194 109.857 152.983 109.982 152.779 110.095C151.492 110.82 150.118 111.759 148.652 111.471C148.57 111.46 148.483 111.428 148.409 111.404C148.328 111.393 148.241 111.361 148.175 111.323C148.108 111.285 148.04 111.282 147.974 111.244C147.921 111.214 147.86 111.197 147.807 111.167C147.574 111.053 147.356 110.912 147.118 110.777C146.913 110.643 146.695 110.502 146.503 110.376C146.41 110.323 146.304 110.263 146.219 110.197C146.014 110.064 145.802 109.943 145.596 109.844C145.368 109.75 145.154 109.664 144.925 109.604L144.899 109.589C144.872 109.574 144.852 109.58 144.831 109.586C144.749 109.574 144.668 109.563 144.587 109.552C144.808 109.502 145.04 109.494 145.264 109.533C145.723 109.618 146.159 109.655 146.597 109.623C146.769 109.475 146.954 109.334 147.18 109.182C147.889 108.673 148.839 108.913 149.531 109.27L149.544 109.278C149.771 109.126 149.997 108.974 150.265 108.81C150.971 108.369 151.668 108.098 152.465 107.866C152.59 107.832 152.722 107.784 152.854 107.736C153.385 107.511 153.839 107.173 154.305 106.877C154.46 106.789 154.601 106.694 154.769 106.614C155.307 106.778 155.843 106.977 156.364 107.202C156.39 107.217 156.417 107.232 156.443 107.247C157.044 107.517 157.635 107.835 158.204 108.192L158.177 108.177Z" fill="#5B812C"/>
    <path d="M142.216 152.477C142.072 152.484 141.915 152.482 141.779 152.475C141.677 152.47 141.562 152.457 141.46 152.452C141.297 152.429 141.134 152.407 140.979 152.372C140.932 152.363 140.871 152.346 140.811 152.329C140.703 152.303 140.595 152.277 140.487 152.251C140.447 152.228 140.4 152.219 140.352 152.21C140.258 152.191 140.171 152.159 140.07 152.12C139.936 152.079 139.796 152.017 139.669 151.962C139.495 151.899 139.328 151.822 139.161 151.745C138.995 151.668 138.828 151.591 138.669 151.501C138.417 151.358 138.144 151.221 137.892 151.078C137.441 150.822 136.998 150.553 136.569 150.258C135.923 149.822 135.305 149.366 134.709 148.871C134.506 148.703 134.303 148.536 134.121 148.362C133.984 148.232 133.84 148.115 133.724 147.98C133.633 147.893 133.542 147.806 133.451 147.72C134.565 147.177 136.027 147.287 137.299 148.043C138.066 148.513 138.595 149.25 139.225 149.87C139.822 150.455 140.533 150.717 141.249 151.123C141.779 151.424 142.108 151.925 142.237 152.472L142.216 152.477Z" fill="#6E840F"/>
    <path d="M147.204 147.944C146.962 148.403 146.719 148.861 146.443 149.318C146.305 149.222 146.174 149.113 146.035 149.017C146.519 148.782 146.933 148.422 147.204 147.944Z" fill="#6E840F"/>
    <path d="M162.692 153.796C162.114 153.486 161.508 153.195 160.928 152.919C160.862 152.881 160.796 152.843 160.722 152.819C153.065 149.198 144.82 145.471 140.33 138.335C140.279 138.27 140.235 138.193 140.191 138.116L140.505 138.118C140.942 138.121 141.392 138.13 141.841 138.174C141.875 138.176 141.909 138.178 141.93 138.172C141.969 138.195 141.996 138.21 142.042 138.253L142.055 138.261C142.77 138.823 143.43 139.513 144.001 140.082C146.994 143.058 150.685 142.977 154.198 144.88C158.607 147.274 161.937 149.407 162.705 153.803L162.692 153.796Z" fill="#5B812C"/>
    <path d="M129.672 151.203C127.919 145.793 126.15 140.287 126.085 134.589C126.082 133.851 126.106 133.129 126.151 132.401C126.179 132.382 126.213 132.384 126.234 132.378C127.017 130.841 127.426 128.76 127.679 128.097C127.981 127.286 128.739 126.629 129.659 126.923C133.753 128.14 131.62 131.75 133.346 134.516C134.052 135.652 134.313 137.202 134.283 138.832C133.804 141.067 132.949 143.194 132.068 145.306C131.269 147.272 130.457 149.23 129.659 151.196L129.672 151.203Z" fill="#2C560D"/>
    <path d="M115.021 165.086C113.715 162.751 112.402 160.43 111.11 158.103C110.56 157.125 110.004 156.127 109.706 155.046C109.185 153.121 109.522 151.104 109.844 149.113C109.844 149.113 109.857 149.12 109.863 149.141C110.444 150.435 111.697 149.708 112.585 150.369C113.189 150.816 113.57 151.103 113.89 151.775C114.161 152.349 114.182 152.992 114.143 153.618C114.097 154.503 114.669 154.389 115.214 154.943C116.195 155.902 116.45 156.906 116.698 158.045C116.139 160.392 115.593 162.747 115.034 165.094L115.021 165.086Z" fill="#4C7623"/>
    <path d="M138.215 188.941C135.873 189.611 133.573 190.515 131.158 190.724C127.133 191.054 123.164 189.4 119.967 186.939C116.762 184.492 114.232 181.288 111.783 178.095C110.262 176.111 108.696 174.049 106.519 172.85C109.557 172.066 112.425 173.376 115.175 175.11C115.322 175.439 115.412 175.805 115.461 176.183C115.488 176.444 115.455 176.688 115.38 176.944C117.878 179.709 121.449 181.943 124.734 183.63C126.483 184.534 128.318 185.469 130.29 185.763C132.004 186.016 133.843 185.709 135.541 186.145C136.815 186.464 137.804 187.656 138.215 188.941Z" fill="#487220"/>
    <path d="M84.1845 202.392C82.1962 201.633 80.4573 200.279 79.2012 198.569C79.4263 198.573 79.6664 198.552 79.9158 198.483C80.9191 198.228 82.024 197.855 83.0706 198.08C83.6176 198.198 84.0778 198.406 84.4665 198.679C84.3819 199.91 84.2841 201.134 84.192 202.379L84.1845 202.392Z" fill="#2A4E10"/>
    <path d="M126.9 213.512C121.581 213.774 115.95 213.351 111.935 209.954C109.495 207.888 107.963 204.934 105.61 202.777C103.309 200.684 100.33 199.416 98.0436 197.296C95.7706 195.184 93.912 192.063 90.8545 191.644C90.828 191.629 90.8148 191.622 90.7865 191.641C90.794 191.627 90.8015 191.614 90.809 191.601L90.8921 191.578C94.7289 190.405 98.8874 190.396 102.743 191.478C102.77 191.493 102.796 191.508 102.815 191.536C104.013 192.67 104.892 195.447 106.264 196.119C107.575 196.775 109.281 197.567 109.846 199.044C110.512 200.806 110.248 201.55 111.844 202.91C116.272 206.629 121.023 209.812 126.125 212.529C126.504 212.726 126.772 213.088 126.887 213.504L126.9 213.512Z" fill="#2A4E10"/>
    <path d="M93.4066 188.657C93.8266 184.391 89.3802 181.538 85.9634 178.97C81.4564 175.574 77.763 170.712 77.0645 165.111C76.8251 163.153 76.9428 161.151 76.9567 159.179C76.9692 157.889 76.9419 156.577 76.8656 155.289C76.84 154.994 76.8276 154.707 76.802 154.412C76.7565 153.843 76.7035 153.287 76.6448 152.711C76.4712 151.193 76.2426 149.679 75.9461 148.161C76.8055 149.489 77.1494 151.016 77.4216 152.608C77.522 153.173 77.6147 153.751 77.7075 154.329C77.7694 154.715 77.8445 155.108 77.9272 155.488C77.9886 155.751 78.0501 156.013 78.1115 156.276C78.6463 158.332 78.338 159.927 79.4666 161.986C80.5952 164.045 81.7729 166.08 83.0846 168.032C83.345 168.408 83.5922 168.776 83.8526 169.151C86.8931 171.733 90.0454 174.396 90.277 174.668C90.8867 175.416 91.201 176.068 91.3261 176.682C92.4593 177.342 93.6075 177.975 94.6355 178.821C95.2484 182.13 94.8691 185.613 93.4274 188.651L93.4066 188.657Z" fill="#2A4E10"/>
    <path d="M125.189 199.153C121.251 195.465 121.28 189.261 122.137 183.945C122.457 181.989 122.832 180.028 123.234 178.083C123.844 175.152 124.501 172.229 124.988 169.298C125.545 166.091 125.917 162.867 125.868 159.615C125.854 158.31 125.607 156.768 124.434 156.208C125.025 155.474 125.491 154.652 126.4 154.378C126.457 154.463 126.522 154.535 126.571 154.633C126.864 155.044 127.149 155.469 127.427 155.907C130.699 161.109 132.244 167.382 131.707 173.492C131.543 175.327 131.202 177.166 130.432 178.833C129.779 180.233 128.855 181.462 127.95 182.719C127.53 183.304 127.103 183.904 126.736 184.519C125.655 186.273 124.932 188.229 124.54 190.25C123.975 193.224 124.175 196.335 125.182 199.166L125.189 199.153Z" fill="#9EC11B"/>
    <path d="M124.542 190.216C124.25 190.173 123.966 189.994 123.889 189.635C123.729 188.774 123.603 187.914 123.517 187.076C123.066 185.243 123.13 183.089 123.48 180.957C123.572 179.992 123.738 179.017 123.932 178.058C123.711 178.108 123.484 178.137 123.234 178.083C123.844 175.152 124.501 172.229 124.988 169.298C125.545 166.091 125.917 162.867 125.868 159.615C125.854 158.31 125.607 156.768 124.434 156.208C125.025 155.474 125.491 154.652 126.4 154.378C126.457 154.463 126.522 154.535 126.571 154.633C126.626 154.752 126.682 154.871 126.75 154.997C126.879 155.141 126.974 155.282 127.05 155.395C127.185 155.559 127.299 155.729 127.413 155.899C130.686 161.101 132.23 167.374 131.694 173.485C131.53 175.319 131.189 177.159 130.419 178.826C129.766 180.226 128.842 181.454 127.936 182.711C127.517 183.297 127.09 183.896 126.723 184.512C125.642 186.265 124.918 188.221 124.527 190.242L124.542 190.216Z" fill="#8BAC12"/>
    <path d="M177.253 146.101C173.523 146.808 170.454 149.345 167.549 151.782C167.485 151.833 167.413 151.898 167.341 151.962C166.806 152.412 166.278 152.849 165.743 153.299C165.228 153.743 164.686 154.173 164.172 154.617C163.829 154.913 163.472 155.202 163.116 155.491C161.73 156.668 160.323 157.851 158.924 159.021C154.333 162.885 148.848 166.997 142.962 165.817C139.645 165.145 136.91 162.859 134.334 160.663C131.772 158.475 129.202 156.3 126.647 154.098C127.544 153.783 128.442 153.713 129.318 153.807C132.403 154.083 135.465 156.257 138.534 157.366C138.856 157.478 139.178 157.59 139.502 157.669C145.366 159.38 151.727 157.342 157.313 154.567C157.656 154.394 157.992 154.234 158.322 154.053C159.115 153.644 159.916 153.221 160.703 152.791C161.469 152.367 162.256 151.936 163.023 151.512C163.444 151.295 163.851 151.07 164.251 150.859C168.381 148.643 172.609 146.658 177.227 146.086L177.253 146.101Z" fill="#537D26"/>
    <path d="M130.434 178.799C129.781 180.199 128.857 181.428 127.951 182.685C127.455 182.509 127.032 182.111 126.909 181.586C126.507 180.008 126.5 178.567 127.349 177.068C126.346 174.695 125.817 171.486 125.481 169.42C125.318 169.398 125.149 169.355 124.996 169.285C125.552 166.078 125.925 162.854 125.875 159.602C125.861 158.297 125.614 156.755 124.441 156.195C125.033 155.461 125.499 154.639 126.407 154.365C126.464 154.45 126.529 154.522 126.579 154.62C126.871 155.031 127.156 155.456 127.434 155.893C130.707 161.096 132.251 167.369 131.715 173.479C131.551 175.314 131.209 177.153 130.44 178.82L130.434 178.799Z" fill="#6E840F"/>
    <path d="M167.342 151.962C166.806 152.412 166.278 152.849 165.743 153.299C165.228 153.743 164.687 154.172 164.172 154.617C163.829 154.913 163.472 155.202 163.116 155.49C161.73 156.668 160.323 157.851 158.924 159.021C154.333 162.885 148.848 166.997 142.963 165.816C139.645 165.145 136.91 162.859 134.334 160.663C131.772 158.475 129.202 156.299 126.647 154.098C127.544 153.782 128.442 153.713 129.318 153.806C132.403 154.083 135.465 156.257 138.534 157.365C138.856 157.478 139.178 157.59 139.502 157.668C139.474 157.81 139.42 157.937 139.365 158.064C143.761 159.276 148.464 160.47 152.536 158.572C157.077 156.467 161.568 154.263 166.067 152.046C166.53 151.817 166.961 151.799 167.343 151.928L167.342 151.962Z" fill="#416921"/>
    <path d="M163.129 155.498C161.743 156.675 160.337 157.858 158.938 159.028C154.346 162.893 148.861 167.004 142.976 165.824C139.658 165.153 136.923 162.867 134.348 160.671C131.785 158.482 129.215 156.307 126.66 154.105C127.557 153.79 128.455 153.721 129.331 153.814C130.702 155.292 132.363 156.566 133.871 156.966C135.333 157.356 136.519 158.169 137.73 158.908C138.038 158.89 138.351 158.926 138.622 159.097C139.509 159.635 140.408 160.058 141.321 160.365C141.552 160.39 141.782 160.416 142.028 160.415C145.058 160.45 148.552 160.748 151.51 159.918C151.905 159.809 152.302 159.666 152.691 159.536C153.248 159.326 153.807 159.082 154.353 158.831C155.1 157.852 156.187 157.171 157.466 157.265C158.704 156.565 159.923 155.836 161.146 155.163C161.933 154.733 162.664 154.989 163.108 155.504L163.129 155.498Z" fill="#2C560D"/>
    <path d="M146.712 129.333L146.685 129.318C144.994 128.5 142.963 129.207 141.073 129.047C138.822 128.875 136.872 127.524 135.042 126.207C133.844 125.352 132.659 124.505 131.461 123.651C130.835 123.209 130.217 122.753 129.578 122.304C128.111 121.244 126.575 120.181 124.935 119.304C122.227 117.804 119.341 116.834 116.416 117.297C124.746 115.709 133.81 117.744 140.531 122.799C141.136 123.247 141.713 123.713 142.253 124.213C143.93 125.707 145.432 127.417 146.672 129.311C146.672 129.311 146.698 129.326 146.691 129.339L146.712 129.333Z" fill="#80AA3A"/>
    <path d="M146.712 129.333L146.685 129.318C144.994 128.5 142.963 129.207 141.073 129.047C138.822 128.875 136.872 127.524 135.042 126.207C133.844 125.352 132.659 124.505 131.461 123.651C130.835 123.209 130.217 122.753 129.578 122.304C128.111 121.244 126.575 120.181 124.934 119.303C128.741 119.235 131.787 120.261 135.63 121.212C137.524 121.672 139.078 122.115 140.518 122.791C141.123 123.239 141.699 123.706 142.24 124.205C143.917 125.699 145.419 127.409 146.659 129.303C146.659 129.303 146.685 129.318 146.678 129.332L146.712 129.333Z" fill="#739932"/>
    <path d="M146.712 129.333L146.685 129.318C144.994 128.5 142.963 129.206 141.073 129.047C138.822 128.875 136.872 127.524 135.042 126.207C133.844 125.352 132.659 124.505 131.461 123.651C131.63 123.291 131.952 123.001 132.476 122.912C133.78 122.652 135.403 123.59 137.014 124.52C137.316 124.358 137.675 124.282 138.067 124.363C139.545 124.693 140.893 123.985 142.274 124.207C143.951 125.701 145.453 127.411 146.693 129.305C146.693 129.305 146.719 129.32 146.712 129.333V129.333Z" fill="#4F7C22"/>
    <path d="M175.171 133.232C174.686 131.8 174.089 130.41 173.394 129.07C172.787 127.884 172.115 126.75 171.366 125.66C170.872 124.924 170.323 124.192 169.576 123.716C169.417 123.626 169.245 123.528 169.099 123.446C167.606 122.74 165.786 122.952 164.093 122.816C159.92 122.449 156.095 119.457 154.744 115.502C155.103 115.548 155.497 115.596 155.87 115.649C155.985 115.662 156.1 115.675 156.229 115.695C160.88 116.333 165.612 117.228 169.331 120.037C173.337 123.079 175.636 128.237 175.184 133.239L175.171 133.232Z" fill="#9EC11B"/>
    <path d="M173.394 129.07C172.787 127.884 172.115 126.75 171.366 125.66C170.872 124.924 170.323 124.192 169.576 123.716C169.417 123.626 169.245 123.528 169.099 123.445C167.606 122.74 165.786 122.952 164.093 122.816C159.92 122.449 156.095 119.457 154.744 115.502C155.103 115.548 155.497 115.596 155.87 115.649C155.985 115.662 156.1 115.675 156.229 115.695C156.364 115.859 156.491 116.037 156.654 116.182C159.909 117.396 163.929 117.694 166.849 119.437C167.569 119.652 168.317 120.093 168.746 120.512C169.494 121.233 170.213 121.974 170.764 122.795C170.857 122.847 170.948 122.934 171.017 123.061C172.115 125.05 173.061 126.936 173.415 129.064L173.394 129.07Z" fill="#8BAC12"/>
    <path d="M169.091 123.459C167.599 122.753 165.778 122.965 164.085 122.83C159.912 122.462 156.087 119.471 154.737 115.515C155.096 115.561 155.489 115.609 155.862 115.663C157.957 117.253 160.227 118.505 162.736 119.366C164.701 120.042 166.557 120.726 168.307 121.875C168.881 122.253 169.17 122.855 169.104 123.466L169.091 123.459Z" fill="#6E840F"/>
    <path d="M98.4722 181.977C100.015 180.152 100.159 177.517 99.7759 175.162C98.5545 167.67 92.78 161.47 85.9454 158.193C85.9056 158.17 85.8659 158.147 85.8261 158.125C84.5664 157.534 83.2824 157.016 81.9666 156.586C81.3153 156.374 80.6433 156.169 79.9769 155.984C79.2974 155.791 78.6028 155.626 77.9064 155.494C77.562 155.421 77.2042 155.341 76.8522 155.282C76.1426 155.142 75.4047 155.022 74.6932 154.917C74.1786 154.835 73.6697 154.775 73.1607 154.714C69.937 154.342 66.6765 154.281 63.4487 154.379C67.0572 153.919 70.6865 153.452 74.3083 152.999C75.0776 152.909 75.8413 152.799 76.6182 152.696C76.8658 152.661 77.1266 152.633 77.3875 152.606C77.9035 152.53 78.4253 152.476 78.9338 152.413C79.4971 152.347 80.068 152.268 80.6521 152.195C83.0168 151.888 85.374 151.595 87.7179 151.293C89.8973 151.004 92.3115 150.795 94.1012 152.09C94.7989 152.59 95.31 153.266 95.7287 154.011C96.4917 155.355 97.004 156.925 97.9293 158.168C99.2746 159.999 101.487 161.166 102.487 163.205C103.234 164.732 103.189 166.512 103.122 168.208C103.055 169.625 102.958 171.095 102.758 172.559C102.283 176.18 101.18 179.673 98.4514 181.982L98.4722 181.977Z" fill="#9EC11B"/>
    <path d="M98.4722 181.977C100.015 180.152 100.159 177.517 99.7759 175.162C98.5545 167.67 92.78 161.47 85.9454 158.193C85.9056 158.17 85.8659 158.147 85.8261 158.125C84.5664 157.534 83.2824 157.016 81.9666 156.586C81.3153 156.374 80.6433 156.169 79.9769 155.984C79.2974 155.791 78.6028 155.626 77.9064 155.494C77.562 155.421 77.2042 155.341 76.8522 155.282C76.1426 155.142 75.4047 155.022 74.6933 154.917C74.1786 154.835 73.6697 154.775 73.1607 154.714C73.6617 154.665 74.1419 154.622 74.6429 154.573C75.3631 154.508 76.0834 154.443 76.7962 154.391C77.1119 154.36 77.4069 154.334 77.7018 154.309C78.2841 154.271 78.8739 154.219 79.4487 154.195C80.031 154.157 80.6134 154.119 81.209 154.088C81.9483 154.052 82.6743 154.008 83.4136 153.971C84.9347 153.606 86.3453 153.004 87.9353 152.889C89.5461 152.768 90.8535 153.491 92.3165 153.847C93.2924 153.857 94.2625 153.846 95.2516 153.863C95.4426 153.866 95.611 153.909 95.7719 153.966C96.535 155.309 97.0473 156.879 97.9726 158.122C99.318 159.954 101.531 161.12 102.531 163.159C103.277 164.686 103.233 166.466 103.165 168.163C103.098 169.579 103.001 171.049 102.802 172.513C102.327 176.135 101.223 179.628 98.4947 181.937L98.4722 181.977Z" fill="#8BAC12"/>
    <path d="M98.4722 181.977C100.015 180.152 100.159 177.517 99.7759 175.162C98.5545 167.67 92.78 161.47 85.9454 158.192C85.9662 158.187 86.0003 158.188 86.0211 158.183C87.1269 158.056 88.0767 157.122 89.3378 157.031C90.7841 156.922 92.2556 158.036 93.3286 158.802C96.053 160.767 100.133 162.782 100.766 166.365C100.977 167.571 100.71 168.752 101.416 169.888C101.876 170.622 102.611 171.582 102.764 172.457C102.775 172.498 102.774 172.532 102.779 172.553C102.304 176.174 101.201 179.667 98.4722 181.977V181.977Z" fill="#6E840F"/>
  </g>
  <defs>
    <clipPath id="clip0_307_331">
      <rect width="189.867" height="223.51" fill="white" transform="translate(0.566711 0.379272)"/>
    </clipPath>
  </defs>
</svg>
