<svg width="113" height="209" viewBox="0 0 113 209" fill="none"
	xmlns="http://www.w3.org/2000/svg">
	<g clip-path="url(#clip0_122_1413)">
		<path d="M-4.03176 209.268C-5.60215 193.198 -4.38241 177.113 -0.387826 161.47C0.969112 156.119 2.67668 150.783 4.33855 145.614C5.68024 141.406 7.08285 137.061 8.27208 132.731C9.0649 129.834 9.78149 126.952 10.3761 124.177C10.4523 123.827 10.5286 123.476 10.6048 123.11V123.019C10.7116 122.592 10.8031 122.165 10.8946 121.738C11.3825 119.36 11.8094 116.951 12.2058 114.359C12.3278 113.551 12.4345 112.758 12.5564 111.95L12.6631 111.096C13.0442 108.184 13.3493 105.272 13.5628 102.405C13.6085 101.902 13.6389 101.414 13.6694 100.911V100.759V100.667C13.6846 100.469 13.6999 100.256 13.7152 100.058C13.7304 99.7831 13.7457 99.5239 13.761 99.2647L13.7913 98.8683C13.8828 97.0235 13.9438 95.4836 13.9743 94.0199C14.081 89.1715 13.9743 84.2621 13.6084 79.429C13.5474 78.4837 13.4713 77.5537 13.3798 76.6084C11.5655 56.7727 6.01563 38.4464 -3.13227 22.1174L-2.59859 21.8125C6.5798 38.2177 12.1599 56.6203 13.9895 76.5322C14.081 77.4775 14.1573 78.4227 14.2183 79.368C14.5689 84.2164 14.7061 89.141 14.5842 94.0199C14.5537 95.4836 14.4927 97.0235 14.4012 98.8835L14.3707 99.2799C14.3707 99.5391 14.3403 99.8136 14.3251 100.073C14.3251 100.256 14.3098 100.454 14.2946 100.652L14.4012 100.759L14.2793 100.896C14.2488 101.414 14.2182 101.918 14.1725 102.421C13.959 105.287 13.6694 108.214 13.273 111.142L13.1663 111.996C13.0596 112.804 12.9377 113.612 12.8157 114.404C12.4193 117.012 11.977 119.436 11.5043 121.814C11.4281 122.241 11.3367 122.683 11.23 123.11C11.23 123.125 11.23 123.186 11.1995 123.232C11.1385 123.552 11.0622 123.918 10.9707 124.269C10.3761 127.059 9.65952 129.941 8.85146 132.853C7.64698 137.183 6.25962 141.543 4.91793 145.751C3.2713 150.905 1.56365 156.241 0.206717 161.562C-3.77262 177.144 -4.99225 193.153 -3.42186 209.146L-4.03176 209.207V209.268Z" fill="#325D1C"/>
		<path d="M1.28926 30.8842C-0.570811 32.1039 -3.01024 30.9147 -4.61113 29.2681C-4.76359 29.1004 -4.91604 28.9327 -5.0685 28.7497C-5.4954 28.2313 -5.87655 27.6824 -6.2882 27.1336C-7.26398 25.7919 -8.25505 24.4502 -9.67297 23.6879C-7.46223 24.7856 -5.22099 25.8834 -2.995 26.9964C-2.08021 27.4385 -1.13494 27.9569 -0.342125 28.5972C-0.174413 28.7345 -0.0219668 28.8717 0.115252 29.0089C0.648879 29.5273 1.0758 30.1524 1.274 30.8842H1.28926Z" fill="#A3BC62"/>
		<path d="M3.54569 34.6653C3.54569 34.6653 3.40846 34.7872 3.34747 34.8482C3.42371 34.6958 3.49996 34.5433 3.56095 34.3908C4.00309 33.4303 4.41481 32.4393 4.76548 31.4482C4.91794 31.0213 5.05521 30.5792 5.19243 30.137C6.88479 24.6026 7.11335 18.626 5.8174 13C6.71694 15.0735 7.64705 17.1928 8.18068 19.373C8.39413 20.1963 8.54666 21.0349 8.62289 21.8734C8.65338 22.1784 8.6685 22.4833 8.68375 22.773C8.83621 27.2402 6.89991 31.7379 3.54569 34.6653V34.6653Z" fill="#A3BC62"/>
		<path d="M6.70182 43.0966C5.31439 41.8464 2.99684 42.8832 1.28924 42.1208C0.847089 41.9226 0.496449 41.633 0.176273 41.2823C-0.357355 40.6877 -0.738495 39.9406 -1.1349 39.2393C-1.19589 39.102 -1.27214 38.9801 -1.34838 38.8429C-1.95824 37.7604 -2.72061 36.7846 -3.58966 35.9155C-2.21748 36.7388 -0.677572 37.3487 0.801338 38.0043C2.53944 38.7819 4.32336 39.7881 5.55833 41.2061C5.81752 41.4957 6.04613 41.7854 6.22909 42.1208C6.41205 42.4258 6.57986 42.7612 6.71708 43.0966H6.70182Z" fill="#9EC11B"/>
		<path d="M25.8361 32.485C24.159 32.6985 22.8174 33.6285 21.5672 34.7872C21.0335 35.2904 20.5151 35.8087 19.9967 36.3576C19.1429 37.2419 18.3044 38.1415 17.3744 38.8733C15.4533 40.3827 13.1206 41.2822 11.2147 42.8221C9.78157 43.9656 8.65328 45.4598 7.92145 47.1369C7.95194 46.5728 7.99766 46.0086 8.08914 45.4598C8.13488 45.1701 8.18076 44.8957 8.24175 44.606C8.97358 41.206 10.925 38.0805 13.6389 35.9002C17.0236 33.2016 21.5213 31.9819 25.8361 32.5003V32.485Z" fill="#9EC11B"/>
		<path d="M16.8711 48.3109C16.9016 48.7378 16.8712 49.1647 16.795 49.5611C16.2766 52.7324 13.2883 55.187 10.5135 57.1081C10.4525 57.1538 10.3762 57.1996 10.3152 57.2453C10.4067 57.1538 10.4828 57.0471 10.5438 56.9404C10.62 56.8032 10.6659 56.6507 10.7117 56.4982C10.7574 56.3153 10.7878 56.1476 10.8183 55.9799C10.8488 55.8731 10.8641 55.7664 10.8946 55.6444C11.413 53.6167 12.846 51.9395 13.9743 50.1557C15.1482 48.2804 16.0021 45.8409 14.9653 43.8741C15.9716 45.0939 16.7491 46.5728 16.8559 48.1432C16.8559 48.1889 16.8711 48.2346 16.8711 48.2956V48.3109Z" fill="#A3BC62"/>
		<path d="M24.6012 50.5826C24.22 48.7683 24.1133 46.9845 24.8146 45.2769C25.0281 47.0454 24.9213 48.8293 24.6012 50.5826Z" fill="#9EC11B"/>
		<path d="M26.3393 60.4014C26.2783 60.7521 26.1867 61.1027 26.08 61.4534C25.7598 62.3834 25.2415 63.2067 24.6317 63.9996C24.2048 64.5484 23.7321 65.0821 23.2747 65.6005C20.4541 68.8022 17.5114 72.0955 13.6083 73.7878C13.2881 73.925 13.8675 73.6049 13.593 73.4067C13.3186 73.2084 14.1572 72.5224 13.6083 72.9797C13.9132 70.5708 14.6757 69.3206 16.0174 67.2928C16.0936 67.1708 16.1697 67.0489 16.2612 66.9269C16.4289 66.6677 16.612 66.4085 16.7797 66.1493C18.7922 63.161 20.8504 60.2184 22.4208 56.9862C23.4118 54.9584 24.1895 52.7934 24.6011 50.5826C25.2872 53.8454 26.9034 57.2149 26.3393 60.3862V60.4014Z" fill="#9EC11B"/>
		<path d="M13.1053 70.9062C10.0255 69.9914 7.34219 67.8569 5.7718 65.0668C5.51261 64.6094 5.28381 64.1368 5.0856 63.6641C4.81116 63.0543 4.56725 62.4292 4.3538 61.7888C3.45426 59.1512 2.79869 56.3763 1.33502 54.2113C2.81393 55.7969 4.29288 57.3826 5.75654 58.9835C8.51616 61.9565 11.3825 65.143 12.6327 68.9394C12.648 69.0004 12.6783 69.0462 12.6783 69.1071C12.8765 69.6865 13.0138 70.2811 13.1205 70.9062H13.1053Z" fill="#4C7D16"/>
		<path d="M13.9895 80.5573C12.7698 80.6488 11.5959 80.4201 10.4982 79.9779C9.85785 79.7187 9.24786 79.3833 8.65325 79.0021C8.25684 78.743 7.86041 78.4685 7.4945 78.1636C7.38777 78.0873 7.28111 77.9959 7.17438 77.9044C6.33582 77.2183 5.55819 76.4407 4.82636 75.6784C4.14027 74.9466 3.45429 74.1842 2.75295 73.4524C0.923374 71.5619 -1.0435 69.8238 -3.51343 69.0919C1.48742 70.4336 6.1987 72.7511 10.3152 75.8919C10.422 75.9681 10.5286 76.0596 10.6354 76.1358C10.925 76.3493 11.1996 76.5779 11.4893 76.8066L11.5196 76.8371C11.8398 77.0963 12.16 77.3708 12.4801 77.6452C12.4954 77.6605 12.5259 77.6757 12.5412 77.7062C12.5717 77.7214 12.587 77.7367 12.6022 77.7672C13.0596 78.1636 13.5018 78.621 13.761 79.1546C13.7915 79.2308 13.8219 79.3071 13.8524 79.3681C14.0048 79.7492 14.0506 80.1609 14.0506 80.5725L13.9895 80.5573Z" fill="#9EC11B"/>
		<path d="M46.8153 115.655C45.9462 115.091 44.9552 114.694 43.9337 114.481C43.1866 114.313 42.4243 114.237 41.6467 114.206C41.2045 114.176 40.7624 114.176 40.3203 114.206C40.183 114.206 40.0611 114.206 39.9391 114.221C39.2835 114.237 38.6128 114.282 37.9724 114.328C37.8962 114.328 37.8199 114.328 37.7437 114.343C29.2971 114.969 20.2863 115.792 12.8613 111.797C12.7851 111.767 12.709 111.721 12.6328 111.675L12.9071 111.523C13.2882 111.309 13.6847 111.096 14.0964 110.913C14.1268 110.898 14.1572 110.882 14.1725 110.867C19.585 108.214 25.8361 107.284 31.7823 108.275C34.6029 108.733 37.3319 109.632 39.8933 110.898C40.7471 111.309 41.5706 111.782 42.3634 112.27C43.9491 113.246 45.4278 114.359 46.8 115.639L46.8153 115.655Z" fill="#A3BC62"/>
		<path d="M48.7974 117.667C48.1723 116.95 47.5013 116.28 46.8152 115.655C47.6233 116.173 48.3095 116.844 48.7974 117.667Z" fill="#9EC11B"/>
		<path d="M23.6101 118.338C23.5796 119.161 23.4882 120 23.2442 120.762C23.0003 121.54 22.6038 122.241 21.9939 122.805C21.9329 122.866 21.8569 122.912 21.7806 122.973C21.7196 123.034 21.6434 123.08 21.5671 123.125C21.5367 123.141 21.5213 123.156 21.4908 123.171C21.3689 123.247 21.2317 123.324 21.1097 123.385C21.0182 123.43 20.9116 123.476 20.8201 123.522C20.6676 123.583 20.5151 123.644 20.3626 123.69C20.3169 123.705 20.2559 123.72 20.1949 123.735C20.0882 123.766 19.9815 123.796 19.8748 123.827C19.8291 123.827 19.7832 123.842 19.7375 123.857C19.646 123.888 19.5546 123.903 19.4479 123.918C19.3106 123.949 19.1581 123.964 19.0209 123.979C18.838 124.01 18.655 124.025 18.4721 124.04C18.2891 124.055 18.1062 124.071 17.9232 124.071C17.6335 124.071 17.3285 124.086 17.0388 124.086C16.5204 124.086 16.0022 124.071 15.4838 124.025C14.7062 123.964 13.9439 123.872 13.1816 123.735C12.9224 123.69 12.6632 123.644 12.4192 123.583C12.2363 123.537 12.0532 123.507 11.8855 123.446C11.7635 123.415 11.6415 123.385 11.5196 123.354C11.3214 123.293 11.1233 123.247 10.9099 123.186C10.8946 123.186 10.8641 123.186 10.8488 123.171C10.8793 123.141 10.8944 123.125 10.9249 123.11C11.8397 122.18 12.968 121.448 14.203 121.006C14.6604 120.823 15.1331 120.701 15.621 120.61C17.2371 120.305 18.9141 120.457 20.4998 120.046C21.5213 119.771 22.5428 119.146 23.1221 118.292C23.4271 117.85 23.6101 117.332 23.6101 116.783C23.6254 117.301 23.6406 117.82 23.6254 118.353L23.6101 118.338Z" fill="#9EC11B"/>
		<path d="M4.04882 147.55C1.76185 146.163 -0.525109 144.791 -2.79684 143.403C-3.75737 142.824 -4.73311 142.229 -5.52593 141.437C-6.9286 140.019 -7.62998 138.098 -8.33132 136.207C-8.46854 135.872 -8.59053 135.521 -8.72775 135.185C-9.35285 133.615 -10.0847 132.09 -10.9385 130.642C-12.8138 127.471 -15.2227 124.62 -18.0433 122.241C-14.4909 124.909 -10.9385 127.562 -7.38605 130.23C-6.7457 130.703 -6.07479 131.206 -5.32772 131.465C-4.55014 131.74 -3.69641 131.74 -2.91884 131.999C-0.830065 132.685 0.237249 134.804 0.953834 136.939C1.09105 137.351 1.22827 137.762 1.335 138.174C1.57894 138.982 1.79233 139.79 2.03628 140.598C2.70712 142.915 3.39324 145.233 4.06409 147.55H4.04882Z" fill="#8CAD28"/>
		<path d="M57 185.728C54.0117 185.575 51.0539 185.041 48.218 184.142C46.9831 183.746 45.7786 183.288 44.5894 182.77C43.7203 182.389 42.836 181.962 41.8907 182.023C40.9607 182.084 40.1373 182.633 39.3445 183.136C38.9938 183.364 38.6279 183.593 38.262 183.822C33.7643 186.673 28.6568 189.082 23.4883 188.106C20.3475 187.511 17.5573 185.697 14.447 184.98C11.413 184.294 8.19599 184.66 5.16194 183.944C2.14313 183.227 -1.01297 181.428 -3.87932 182.572C-3.90981 182.572 -3.92502 182.572 -3.94027 182.602C-3.95551 182.602 -3.97073 182.602 -4.00122 182.617C-3.97073 182.587 -3.95551 182.572 -3.94027 182.556L-3.87932 182.495C-1.1197 179.583 2.49369 177.525 6.38155 176.564C9.09542 175.878 11.9314 175.726 14.691 176.168C15.8345 176.351 16.9627 176.625 18.0757 176.946C22.6954 178.257 27.2387 180.254 31.8889 179.37C35.3651 178.714 38.5822 176.458 42.1042 176.824C47.9436 177.433 51.1758 184.767 56.9695 185.743L57 185.728Z" fill="#4C7D16"/>
		<path d="M3.68294 18.3972C3.13406 18.4734 2.53944 18.5801 2.14303 18.9765C2.14303 18.9765 2.12775 18.9918 2.1125 19.007C1.86856 19.251 1.73142 19.5711 1.6247 19.9066C1.53322 20.1963 1.44169 20.5164 1.28923 20.7756C0.953804 21.3855 0.328746 21.7819 -0.281114 22.1478C-0.829988 22.4832 -1.40941 22.8339 -2.04976 22.9254C-2.08025 22.9254 -2.11073 22.9406 -2.12597 22.9406H-2.14124C-2.0955 22.6204 -2.04979 22.285 -1.98881 21.9648C-1.91258 21.3855 -1.82105 20.7909 -1.56186 20.2572C-1.13496 19.3729 -0.235416 18.7478 0.725114 18.4582C1.68564 18.1837 2.69192 18.2142 3.68294 18.3819V18.3972Z" fill="#9EC11B"/>
		<path d="M2.14302 18.9767C2.14302 18.9767 2.12775 18.9919 2.1125 19.0072C1.86856 19.2511 1.73142 19.5713 1.6247 19.9067C1.53322 20.1964 1.44169 20.5165 1.28922 20.7757C0.953801 21.3856 0.328743 21.782 -0.281117 22.1479C-0.829991 22.4834 -1.40941 22.834 -2.04976 22.9255C-2.08026 22.9255 -2.11073 22.9407 -2.12598 22.9407C-2.12598 22.9407 -2.12598 22.9357 -2.12598 22.9255C-2.12598 22.9255 -2.01926 22.773 -1.94303 22.712C-1.77531 22.4834 -1.62287 22.2547 -1.48565 22.0107C-1.43991 21.9497 -1.40939 21.8735 -1.36365 21.8125C-1.39414 21.6905 -1.39414 21.5533 -1.36365 21.4161C-1.27217 20.9739 -1.05873 20.608 -0.799539 20.3031C-0.494609 19.8609 -0.11348 19.5103 0.404901 19.3883C0.770817 19.2054 1.15206 19.0529 1.53322 18.9157C1.73142 18.8394 1.9448 18.8852 2.12776 18.9919L2.14302 18.9767Z" fill="#8BAC12"/>
		<path d="M3.54569 34.6652C3.54569 34.6652 3.40846 34.7871 3.34747 34.8481C3.42371 34.6957 3.49996 34.5432 3.56095 34.3907C4.00309 33.4302 4.41481 32.4392 4.76548 31.4481C4.91794 31.0212 5.05521 30.5791 5.19243 30.1369C5.48211 29.6491 5.71069 29.1612 5.83266 28.658C6.54925 25.6545 6.61031 22.0563 8.19594 19.3729C8.40939 20.1962 8.56173 21.0348 8.63796 21.8733C8.66846 22.1783 8.68376 22.4832 8.69901 22.7729C8.85147 27.2401 6.91518 31.7378 3.56095 34.6652H3.54569Z" fill="#82A551"/>
		<path d="M1.28926 30.8842C-0.570816 32.1039 -3.01025 30.9147 -4.61113 29.2681C-4.7636 29.1004 -4.91604 28.9327 -5.06851 28.7497C-5.49541 28.2313 -5.87655 27.6824 -6.28821 27.1335C-5.35817 27.286 -4.44343 27.9874 -3.57438 28.5667C-3.37618 28.3838 -3.07123 28.2923 -2.79679 28.3533C-2.03447 28.5362 -1.1197 28.4295 -0.34213 28.5972C-0.174418 28.7344 -0.021972 28.8717 0.115246 29.0089C0.648874 29.5273 1.07579 30.1524 1.274 30.8842H1.28926Z" fill="#82A551"/>
		<path d="M6.70183 43.0966C5.3144 41.8464 2.99686 42.8831 1.28925 42.1208C0.847105 41.9226 0.496465 41.633 0.176289 41.2823C-0.357339 40.6877 -0.738479 39.9406 -1.13489 39.2392C-0.90619 39.0258 -0.586081 38.9038 -0.250658 38.9038C0.267723 38.9038 0.709849 39.4374 1.06052 40.093C1.22823 39.9406 1.48744 39.8338 1.8381 39.8338C2.41747 39.8338 2.75293 40.154 2.92064 40.6114C2.93589 40.6419 2.95108 40.6724 2.96633 40.7029C3.1188 40.6419 3.25609 40.6114 3.4238 40.6114C3.43905 40.6114 3.45424 40.6114 3.46949 40.6114C3.53048 40.6114 3.59146 40.6114 3.65244 40.6419C3.68293 40.6419 3.71344 40.6419 3.75918 40.6724C3.98788 40.7486 4.21663 40.9011 4.38434 41.0536C4.49106 41.1603 4.64354 41.4805 4.78076 41.7702C4.84175 41.6634 4.93309 41.5719 5.02457 41.4805C5.07031 41.4347 5.11618 41.4042 5.16192 41.3738C5.26865 41.2975 5.42114 41.267 5.57361 41.267C5.8328 41.5567 6.06141 41.8464 6.24436 42.1818C6.42732 42.4867 6.59495 42.8222 6.73217 43.1576L6.70183 43.0966Z" fill="#8BAC12"/>
		<path d="M21.5672 34.7872C21.0335 35.2904 20.5151 35.8088 19.9967 36.3576C19.1429 37.2419 18.3044 38.1415 17.3744 38.8733C15.4533 40.3827 13.1206 41.2823 11.2147 42.8222C9.78157 43.9656 8.65328 45.4598 7.92145 47.1369C7.95194 46.5728 7.99766 46.0087 8.08914 45.4598C8.13488 45.1701 8.18076 44.8957 8.24175 44.606C10.5897 40.1083 14.752 35.4886 19.6614 34.4213C20.3322 34.2689 21.064 34.4213 21.5672 34.8025V34.7872Z" fill="#8BAC12"/>
		<path d="M16.8711 48.311C16.9016 48.7379 16.8712 49.1648 16.795 49.5612C16.2766 52.7325 13.2883 55.1872 10.5135 57.1083C10.4525 57.154 10.3762 57.1997 10.3152 57.2455C10.4067 57.154 10.4828 57.0473 10.5438 56.9405C10.62 56.8033 10.6659 56.6509 10.7117 56.4984C10.7574 56.3154 10.7878 56.1477 10.8183 55.98C10.8488 55.8733 10.8641 55.7666 10.8946 55.6446C11.8856 54.5164 12.9833 53.5558 13.8371 52.2599C14.7061 50.9639 15.3312 48.7989 16.8406 48.1586C16.8406 48.2043 16.8559 48.2501 16.8559 48.311H16.8711Z" fill="#82A551"/>
		<path d="M25.4091 60.4623C25.2718 61.2703 25.1042 61.9564 25.0737 62.1242C24.9365 62.673 24.7841 63.2981 24.6164 63.969L24.6467 63.9995C24.2198 64.5483 23.7474 65.082 23.29 65.6004C20.4694 68.8021 17.5267 72.0954 13.6235 73.7877C13.3034 73.9249 13.8827 73.6048 13.6083 73.4066C13.3338 73.2083 14.1724 72.5223 13.6235 72.9797C13.9285 70.5707 14.6909 69.3205 16.0326 67.2927C16.1088 67.1707 16.1849 67.0488 16.2764 66.9268C16.5509 66.6981 16.8254 66.4847 17.1151 66.2712C17.9536 65.6613 18.8531 65.1277 19.7527 64.6551C20.637 63.4963 21.4909 62.2919 22.1617 61.0416C22.6344 60.1726 22.7868 57.7179 23.8083 57.108C25.8361 55.9341 25.714 58.5565 25.4243 60.447L25.4091 60.4623Z" fill="#8BAC12"/>
		<path d="M13.1053 70.9061C10.0255 69.9913 7.34222 67.8568 5.77183 65.0667C5.51264 64.6093 5.28383 64.1367 5.08562 63.6641C4.81119 63.0542 4.56727 62.4291 4.35382 61.7887C4.55203 61.621 4.81122 61.5143 5.11615 61.4991C6.32062 61.4381 6.41208 62.7188 7.18965 63.2829C7.46408 63.4811 7.64711 63.6641 7.83007 63.8623C7.98253 63.8775 8.11961 63.9232 8.25683 64.0452C8.6075 64.2739 8.943 64.4874 9.29367 64.7161C9.52237 64.8075 9.6596 65.021 9.69009 65.2344C10.5896 65.9968 11.4892 66.8811 11.8094 67.8721C12.0991 68.2075 12.3735 68.5429 12.6175 68.9241C12.6327 68.9851 12.6631 69.0308 12.6631 69.0918C12.8613 69.6712 12.9986 70.2658 13.1053 70.8909V70.9061Z" fill="#406919"/>
		<path d="M13.9895 80.5574C12.7698 80.6488 11.5959 80.4201 10.4982 79.978C9.85782 79.7188 9.24784 79.3834 8.65322 79.0022C8.25681 78.743 7.86039 78.4686 7.49447 78.1636C7.38775 78.0874 7.28108 77.9959 7.17436 77.9045C6.3358 77.2184 5.55817 76.4408 4.82634 75.6785C4.14025 74.9466 3.45427 74.1843 2.75293 73.4525C2.84441 73.361 2.95107 73.3 3.07305 73.2848C4.33851 73.0256 5.45159 73.7879 6.5036 74.657C6.61033 74.657 6.71701 74.7027 6.83898 74.7789C7.76902 75.4345 8.72955 75.6632 9.50712 76.1816C9.70532 75.9987 9.9798 75.9072 10.3152 75.8919C10.422 75.9682 10.5286 76.0596 10.6353 76.1359C10.925 76.3493 11.1996 76.578 11.4892 76.8067L11.5196 76.8372C11.8397 77.0964 12.1599 77.3708 12.4801 77.6453C12.4954 77.6605 12.5259 77.6758 12.5412 77.7063C12.5716 77.7215 12.587 77.7368 12.6022 77.7672C12.6784 77.9045 12.7394 78.0417 12.8004 78.1789C13.1663 78.4533 13.4865 78.7888 13.7609 79.1547C13.7914 79.2309 13.8218 79.3071 13.8523 79.3681C14.0048 79.7493 14.0505 80.1609 14.0505 80.5726L13.9895 80.5574Z" fill="#8BAC12"/>
		<path d="M47.3946 70.281C45.4583 69.7779 43.4458 69.2748 41.4485 69.534C40.9911 69.5949 40.5186 69.7017 40.0764 69.8694C38.5975 70.403 37.3319 71.4702 36.8898 72.9492C36.7221 73.5285 36.6916 74.1079 36.6916 74.7178C36.7068 75.5563 36.7983 76.4101 36.7374 77.2487C36.6611 78.2854 36.341 79.2765 36.0056 80.2522C35.0755 83.0728 34.1455 85.8935 33.2155 88.7141C32.5904 90.6199 31.8584 92.6476 30.2118 93.7606C28.2908 95.0566 25.7752 94.7212 23.4577 94.6144C20.3627 94.4772 17.2524 94.8736 14.2946 95.7884C15.6058 93.6692 17.725 92.3884 19.9509 91.1687C20.0119 91.123 20.0882 91.0925 20.1492 91.062C21.7043 90.2387 23.2748 89.4154 24.6317 88.3634C29.0685 84.9177 30.9284 79.2002 32.8647 73.9097C33.4136 72.4308 34.0083 70.9061 35.1213 69.7626C36.6765 68.177 39.0395 67.5976 41.235 67.8416C43.4305 68.0855 45.4735 69.0766 47.3489 70.2658L47.3946 70.281Z" fill="#80AA3A"/>
		<path d="M13.5322 76.7609C13.1663 77.0659 12.8003 77.3708 12.4801 77.691C11.7483 78.3923 11.0928 79.1546 10.5135 79.9779C10.3915 80.1457 10.2846 80.3134 10.1626 80.4811C10.0254 80.6793 9.90346 80.8928 9.78148 81.091C9.01916 82.3564 8.28746 83.8506 6.86954 84.3232C6.7933 84.3537 6.70177 84.3689 6.62554 84.3842C6.54931 84.4147 6.45778 84.4299 6.38154 84.4299C6.30531 84.4299 6.2443 84.4604 6.16807 84.4604C6.10708 84.4604 6.04611 84.4757 5.98512 84.4757C5.72593 84.4909 5.46689 84.4757 5.19246 84.4757C4.94851 84.4604 4.68917 84.4452 4.46047 84.4299C4.35374 84.4299 4.23182 84.4299 4.12509 84.4147C3.88115 84.3994 3.63725 84.3994 3.40855 84.4147C3.16461 84.4299 2.92063 84.4604 2.70718 84.5367H2.67675C2.64626 84.5367 2.63095 84.5519 2.6157 84.5672C2.53947 84.5977 2.46329 84.6281 2.38706 84.6586H2.35654C2.35654 84.6586 2.34126 84.6586 2.32602 84.6586C2.29552 84.6586 2.28031 84.6739 2.26506 84.6891C1.44175 85.1465 0.999578 86.0918 0.618415 86.9761C-0.00669097 88.4093 -0.616506 89.8272 -1.24161 91.2604C-1.68376 92.2971 -2.14118 93.3339 -2.59857 94.3706C-3.11695 92.9832 -3.05596 91.4433 -2.78152 89.9949C-1.7905 84.6281 2.20405 79.9322 7.18965 77.8587C8.04346 77.4928 8.91245 77.2183 9.79674 77.0354C10.3456 76.9134 10.9099 76.8219 11.474 76.7609C11.5045 76.7609 11.5349 76.7609 11.5654 76.7609C12.221 76.6999 12.8919 76.6847 13.5628 76.7152L13.5322 76.7609Z" fill="#A3BC62"/>
		<path d="M40.0915 69.8695C38.6126 70.4031 37.3472 71.4704 36.905 72.9493C36.7373 73.5286 36.7068 74.108 36.7068 74.7179C36.7221 75.5564 36.8136 76.4102 36.7526 77.2488C36.6764 78.2856 36.3562 79.2766 36.0208 80.2524C35.0908 83.073 34.1606 85.8936 33.2306 88.7142C32.6055 90.62 31.8737 92.6478 30.2271 93.7608C28.306 95.0567 25.7904 94.7213 23.473 94.6146C20.3779 94.4773 17.2676 94.8738 14.3098 95.7886C15.621 93.6693 17.7402 92.3886 19.9662 91.1688C19.9967 91.1993 20.0273 91.2451 20.0578 91.2908C20.3322 91.428 20.4845 91.7177 20.4845 92.0227C20.9267 91.8245 21.3688 91.6415 21.8262 91.4433C23.8235 90.559 25.8057 89.6289 27.681 88.5007C27.8182 88.4092 27.9706 88.394 28.1078 88.4092C29.3427 86.9151 30.3491 85.3599 31.2181 83.7438C32.2701 80.5878 33.0325 77.2183 34.2674 74.9618C34.8315 73.9403 35.4414 72.9036 36.1732 72.0802C36.7679 70.952 37.8198 70.2812 38.948 70.2202C39.2834 69.9762 39.6343 69.839 40.0764 69.8847L40.0915 69.8695Z" fill="#739932"/>
		<path d="M11.5349 76.8066C11.5349 76.8066 11.4893 76.8371 11.474 76.8371C11.1081 77.0505 10.742 77.264 10.3761 77.4774C10.2389 77.4774 10.1018 77.4774 9.96462 77.4774C9.81215 77.4927 9.65961 77.5079 9.50715 77.5232C8.77532 77.6299 8.10438 77.8433 7.50977 78.1483C6.45776 78.6971 5.63461 79.551 5.00951 80.7097C4.93327 80.8469 4.88735 80.9841 4.82637 81.1061C3.83535 81.8684 2.87495 82.6612 2.0059 83.515C0.25255 85.2531 -1.92772 88.6379 -1.25688 91.2755C-0.631769 89.8423 -0.0219539 88.4092 0.603153 86.9912C0.984315 86.1069 1.42649 85.1617 2.2498 84.7043C2.28029 84.689 2.29551 84.6738 2.31075 84.6738C2.31075 84.6738 2.32603 84.6738 2.34128 84.6738C2.34128 84.6738 2.35655 84.6738 2.3718 84.6738C2.3718 84.6738 2.52421 84.6128 2.60044 84.5823C2.63093 84.5823 2.64624 84.567 2.66149 84.5518H2.69192C2.92061 84.4908 3.14934 84.4603 3.39329 84.4298C3.62198 84.4146 3.86588 84.4146 4.10983 84.4298C4.21655 84.4298 4.33848 84.4298 4.44521 84.4451C4.6739 84.4603 4.93325 84.4756 5.17719 84.4908C5.45163 84.5061 5.71067 84.5213 5.96986 84.4908C6.03084 84.4908 6.09201 84.4908 6.15299 84.4756C6.22923 84.4756 6.29005 84.4603 6.36628 84.4451C6.44251 84.4451 6.53404 84.4146 6.61028 84.3993C6.68651 84.3841 6.77804 84.3536 6.85427 84.3383C8.25695 83.8657 9.00408 82.3716 9.76641 81.1061C9.88838 80.9079 10.0256 80.6944 10.1476 80.4962C10.2543 80.3285 10.3762 80.1608 10.4982 79.9931C11.0928 79.185 11.7483 78.4075 12.4649 77.7061C12.8003 77.386 13.1511 77.0658 13.517 76.7761C12.8461 76.7304 12.1752 76.7456 11.5196 76.8218L11.5349 76.8066Z" fill="#82A551"/>
		<path d="M40.3355 114.191C40.1983 114.191 40.0763 114.191 39.9544 114.206C39.2988 114.222 38.6279 114.267 37.9875 114.313C37.9113 114.313 37.8352 114.313 37.7589 114.328C29.3124 114.953 20.3016 115.777 12.8766 111.782C12.8003 111.752 12.7241 111.706 12.6478 111.66L12.9223 111.508C13.3035 111.294 13.7 111.081 14.1116 110.898C14.1878 110.898 14.2489 110.883 14.3251 110.867H14.3404C16.0327 110.684 17.8622 110.898 19.5393 110.562C21.3993 110.181 23.2595 109.8 25.1501 109.571C29.3276 109.084 33.2002 109.175 37.1338 110.791C37.7284 111.035 38.5212 111.477 39.1768 112.057C39.8324 112.651 40.3508 113.383 40.366 114.161L40.3355 114.191Z" fill="#82A551"/>
		<path d="M23.2442 120.762C23.0003 121.54 22.6038 122.241 21.9939 122.805C21.9329 122.866 21.8569 122.912 21.7806 122.973C21.7196 123.034 21.6434 123.08 21.5671 123.126C21.5367 123.141 21.5213 123.156 21.4908 123.171C21.3689 123.248 21.2317 123.324 21.1097 123.385C21.0182 123.43 20.9116 123.476 20.8201 123.522C20.6676 123.583 20.5151 123.644 20.3626 123.69C20.3169 123.705 20.2559 123.72 20.1949 123.735C20.0882 123.766 19.9815 123.796 19.8748 123.827C19.8291 123.827 19.7832 123.842 19.7375 123.857C19.646 123.888 19.5546 123.903 19.4479 123.918C19.3106 123.949 19.1581 123.964 19.0209 123.979C18.838 124.01 18.655 124.025 18.4721 124.04C18.2891 124.056 18.1062 124.071 17.9232 124.071C17.6335 124.071 17.3285 124.086 17.0388 124.086C16.5204 124.086 16.0022 124.071 15.4838 124.025C14.7062 123.964 13.9439 123.873 13.1816 123.735C12.9224 123.69 12.6632 123.644 12.4192 123.583C12.2363 123.537 12.0532 123.507 11.8855 123.446C11.7635 123.415 11.6415 123.385 11.5196 123.354C11.3214 123.293 11.1233 123.247 10.9099 123.186C10.8946 123.186 10.8641 123.187 10.8488 123.171C10.8793 123.141 10.8944 123.126 10.9249 123.11C11.8397 122.18 12.968 121.448 14.203 121.006C14.3402 120.991 14.4774 120.991 14.6147 120.991C15.8344 120.991 17.1455 121.265 18.1975 121.311C19.0666 121.326 19.9358 121.25 20.8201 120.945C21.1555 120.823 21.5061 121.006 21.7043 121.281C22.1312 121.052 22.5734 120.869 23.0308 120.778C23.107 120.762 23.1985 120.747 23.2595 120.747L23.2442 120.762Z" fill="#8BAC12"/>
		<path d="M9.94935 128.248C5.75656 124.406 1.50272 120.488 -1.36362 115.563C-1.72953 114.923 -2.06493 114.282 -2.38511 113.627C-2.70528 112.971 -3.02553 112.3 -3.31521 111.63C-4.6569 108.535 -5.76988 105.333 -7.29453 102.329C-9.29182 98.4261 -12.3106 94.706 -16.3662 93.2576C-11.2434 94.9042 -6.7609 98.1669 -2.6291 101.628C-0.464099 103.442 1.67043 105.394 3.48476 107.559C5.31434 109.724 6.82369 112.102 7.72324 114.786C7.76898 114.923 7.81485 115.06 7.86059 115.197C8.54668 117.378 8.85154 119.649 9.12598 121.921C9.40042 124.025 9.65965 126.129 9.93409 128.233L9.94935 128.248Z" fill="#537D26"/>
		<path d="M9.94926 128.248C5.75648 124.406 1.50264 120.488 -1.3637 115.563C-1.72962 114.923 -2.06502 114.282 -2.38519 113.627C-2.70537 112.971 -3.02562 112.3 -3.3153 111.63C-3.23907 111.386 -3.11706 111.172 -2.99509 110.943C-3.02558 110.791 -3.04081 110.639 -3.0713 110.486C-3.92511 108.047 -4.90091 105.653 -5.86144 103.244C-6.02915 102.817 -5.67849 102.36 -5.29733 102.238C-3.86416 101.765 -2.75116 102.695 -1.86687 104.144C-0.265983 105.744 1.73131 106.644 3.46941 107.559C5.29899 109.724 6.80834 112.102 7.70789 114.786C7.75363 114.923 7.7995 115.06 7.84524 115.197C8.53133 117.377 8.8362 119.649 9.11063 121.921C9.38507 124.025 9.6443 126.129 9.91874 128.233L9.94926 128.248Z" fill="#416921"/>
		<path d="M4.04886 147.55C1.76188 146.163 -0.525078 144.791 -2.79681 143.403C-3.75734 142.824 -4.73308 142.229 -5.5259 141.437C-6.92857 140.019 -7.62995 138.098 -8.33129 136.207C-8.46851 135.872 -8.5905 135.521 -8.72772 135.186C-9.35282 133.615 -10.0847 132.091 -10.9385 130.642C-9.65777 130.962 -8.39225 131.481 -7.44697 132.426C-6.28824 133.569 -5.67841 133.173 -4.42819 133.722C-2.52238 134.56 -0.58603 135.536 0.953866 136.954C1.09108 137.366 1.2283 137.777 1.33503 138.189C1.57897 138.997 1.79236 139.805 2.03631 140.613C2.70715 142.931 3.39327 145.248 4.06412 147.566L4.04886 147.55Z" fill="#55852A"/>
		<path d="M51.9228 149.258C48.5076 149.548 45.1534 150.569 42.1346 152.2C40.1526 153.268 38.3229 154.594 36.7068 156.149C36.4629 156.378 36.2342 156.607 35.9903 156.851C34.2827 158.589 32.7276 160.51 30.7303 161.882C27.3913 164.154 23.1221 164.672 19.1275 164.108C15.133 163.559 11.352 162.019 7.64707 160.449C5.34485 159.473 2.96638 158.452 0.481201 158.482C2.73768 156.302 5.87844 156.027 9.12594 156.18C10.8031 156.256 12.4802 156.47 14.0963 156.591C16.3528 156.759 18.6244 156.698 20.8809 156.439C24.845 155.982 28.7329 154.853 32.3311 153.115C34.5266 152.063 36.6307 150.767 38.9177 149.959C43.0495 148.496 47.5928 148.633 51.938 149.227L51.9228 149.258Z" fill="#90B03A"/>
		<path d="M42.1346 152.2C40.1526 153.268 38.3229 154.594 36.7068 156.149C36.4629 156.378 36.2342 156.607 35.9903 156.851C34.2827 158.589 32.7276 160.51 30.7303 161.882C27.3913 164.154 23.1221 164.672 19.1275 164.108C15.133 163.559 11.352 162.019 7.64707 160.449C5.34485 159.473 2.96638 158.452 0.481201 158.482C2.73768 156.302 5.87844 156.027 9.12594 156.18C10.8031 156.256 12.4802 156.469 14.0963 156.591C16.3528 156.759 18.6244 156.698 20.8809 156.439C23.2136 156.439 25.5312 156.287 27.8029 155.707C29.419 155.296 36.1885 152.2 39.6647 152.399C40.1679 152.17 40.6708 151.972 41.235 151.804C41.6009 151.697 41.9669 151.88 42.1346 152.185V152.2Z" fill="#598A29"/>
		<path d="M48.218 184.142C46.983 183.746 45.7786 183.288 44.5893 182.77C43.7203 182.389 42.836 181.962 41.8907 182.023C40.9606 182.084 40.1373 182.633 39.3444 183.136C38.9938 183.364 38.6279 183.593 38.262 183.822C33.7643 186.673 28.6568 189.082 23.4882 188.106C20.3475 187.511 17.5573 185.697 14.447 184.98C11.4129 184.294 8.19597 184.66 5.16192 183.944C2.14311 183.227 -1.01299 181.428 -3.87933 182.572C-3.87933 182.541 -3.87933 182.511 -3.87933 182.495C-1.11972 179.583 2.49367 177.525 6.38153 176.564C9.09541 175.878 11.9314 175.726 14.691 176.168C15.8345 176.351 16.9627 176.625 18.0757 176.946C19.6308 178.013 20.6219 179.858 22.8936 180.178C26.1716 180.62 29.8306 182.16 33.0476 181.382C35.4413 180.788 38.2926 179.522 40.8082 179.705C43.4001 179.888 47.4252 181.199 48.1875 184.157L48.218 184.142Z" fill="#406919"/>
		<path d="M1.63988 19.9066C1.5484 20.1963 1.45697 20.5165 1.3045 20.7757C0.969079 21.3855 0.343928 21.782 -0.265932 22.1479C-0.814806 22.4833 -1.39413 22.834 -2.03448 22.9254C-2.00399 22.8492 -1.97349 22.773 -1.92775 22.712C-1.80578 22.4528 -1.65333 22.2241 -1.47037 22.0107C-1.31791 21.8277 -1.15015 21.6447 -0.95195 21.477C-0.845225 21.3856 -0.723297 21.2788 -0.616572 21.1873C-0.525093 20.4098 0.221982 19.7847 0.999553 19.7847C1.2435 19.7847 1.44168 19.8304 1.63988 19.9219V19.9066Z" fill="#6E840F"/>
		<path d="M3.54572 34.6653C3.54572 34.5739 3.54572 34.4824 3.54572 34.3909C3.98786 33.4304 4.39958 32.4394 4.75025 31.4483C4.78074 31.4483 4.79588 31.4483 4.82637 31.4331C4.88735 31.4331 4.94852 31.4026 5.00951 31.3874C5.08574 31.1891 5.2228 30.9909 5.421 30.7927C6.35104 29.9237 6.29012 28.8107 6.82375 27.7282C6.89998 27.591 6.99154 27.4538 7.09827 27.3165C7.09827 25.7462 7.06767 24.13 8.13493 23.1695C8.31788 23.0018 8.50082 22.8798 8.68378 22.7883C8.83624 27.2556 6.89994 31.7533 3.54572 34.6806V34.6653Z" fill="#5B812C"/>
		<path d="M1.28924 30.8841C-0.570831 32.1038 -3.01026 30.9146 -4.61115 29.268C-4.42819 29.2985 -4.22998 29.3747 -4.03177 29.5119C-3.07124 30.1218 -2.65959 30.2742 -1.65332 29.7406C-1.05871 29.4204 -0.494628 29.1765 0.115232 29.0088C0.648859 29.5272 1.07578 30.1523 1.27398 30.8841H1.28924Z" fill="#5B812C"/>
		<path d="M6.70182 43.0965C5.31438 41.8463 2.99684 42.8831 1.28923 42.1207C0.847086 41.9225 0.496446 41.6329 0.17627 41.2822C0.267749 41.2822 0.374493 41.2822 0.481218 41.2974C1.12157 41.3889 1.41124 41.1602 1.99061 40.8858C2.29554 40.7333 2.61569 40.6418 2.92062 40.5961C3.08833 40.5808 3.25607 40.5656 3.42378 40.5961C3.50001 40.5961 3.57619 40.5961 3.65242 40.6114C3.68292 40.6114 3.71342 40.6113 3.75916 40.6418C3.85064 40.6418 3.95737 40.6723 4.04885 40.7028C4.43001 40.8401 4.78078 41.084 5.00948 41.4347C5.03997 41.4956 5.07037 41.5414 5.10086 41.6024C5.20758 41.6481 5.37528 41.7244 5.46676 41.7548C5.68021 41.8463 5.89373 41.9378 6.10718 42.0445C6.15292 42.075 6.19861 42.0903 6.24435 42.1207C6.4273 42.4257 6.59493 42.7611 6.73215 43.0965H6.70182Z" fill="#6E840F"/>
		<path d="M19.9967 36.3575C19.1429 37.2418 18.3044 38.1414 17.3744 38.8732C15.4533 40.3826 13.1206 41.2822 11.2147 42.8221C9.78157 43.9656 8.65328 45.4597 7.92145 47.1368C7.95194 46.5727 7.99766 46.0086 8.08914 45.4597C8.27209 44.8956 8.60761 44.3772 9.14124 43.9961C10.239 43.2032 11.1843 42.4257 11.8246 41.2059C12.0533 40.7638 12.4039 40.1234 12.8918 39.8947C14.6299 39.1019 15.6973 37.2114 17.5573 36.6777C18.3806 36.4338 19.1887 36.3576 19.9815 36.3728L19.9967 36.3575Z" fill="#6E840F"/>
		<path d="M16.795 49.561C16.2766 52.7323 13.2883 55.187 10.5134 57.108C10.5134 57.0471 10.5438 57.0013 10.5438 56.9403C10.62 56.8031 10.6659 56.6507 10.7116 56.4982C10.8031 56.3 10.9098 56.117 11.0318 55.9493C11.7941 54.9431 13.2119 54.9431 13.8218 53.8606C14.4774 52.6866 15.0568 51.1467 15.9869 50.1709C16.2308 49.9117 16.5053 49.7135 16.795 49.561V49.561Z" fill="#5B812C"/>
		<path d="M12.663 69.1071C12.8612 69.6864 12.9985 70.281 13.1052 70.9061C10.0255 69.9914 7.34216 67.8568 5.77178 65.0667C5.51258 64.6093 5.28378 64.1367 5.08557 63.6641C5.55821 63.7708 6.07665 63.8318 6.47305 63.9995C7.00668 64.2282 7.06765 64.9753 7.60128 65.1735C9.0192 65.7376 9.52231 66.4084 10.2389 67.7044C10.7878 68.6802 11.8702 68.6039 12.663 69.0918V69.1071Z" fill="#2A4E10"/>
		<path d="M26.3393 60.4014C26.2783 60.752 26.1867 61.1027 26.08 61.4534C25.7598 62.3834 25.2415 63.2067 24.6317 63.9995C24.2048 64.5484 23.7321 65.082 23.2747 65.6004C20.4541 68.8022 17.5114 72.0954 13.6083 73.7878C13.2881 73.925 13.8675 73.6048 13.593 73.4066C13.3186 73.2084 14.1572 72.5223 13.6083 72.9797C13.9132 70.5708 14.6757 69.3206 16.0174 67.2928C16.0936 67.1708 16.1697 67.0488 16.2612 66.9269C16.4289 66.6677 16.612 66.4085 16.7797 66.1493C16.8864 66.1798 16.9931 66.2255 17.0998 66.2865C17.237 66.3628 17.3742 66.4542 17.4962 66.5609C17.9689 66.5305 18.4567 66.7287 18.8074 67.0336C18.9294 67.1403 19.0513 67.2471 19.1733 67.3385C19.9204 66.6067 20.7437 65.9968 21.445 65.1583C22.3293 64.0758 22.6039 62.109 23.6559 61.2552C24.1133 60.8893 24.7535 60.5996 25.4091 60.4623C25.714 60.4014 26.0343 60.3709 26.3393 60.4014V60.4014Z" fill="#6E840F"/>
		<path d="M36.7526 77.2487C36.6764 78.2854 36.3562 79.2765 36.0208 80.2522C35.0908 83.0728 34.1606 85.8934 33.2306 88.714C32.6055 90.6199 31.8737 92.6476 30.2271 93.7606C28.306 95.0566 25.7904 94.7212 23.473 94.6144C20.3779 94.4772 17.2676 94.8736 14.3098 95.7884C15.621 93.6692 17.7402 92.3884 19.9662 91.1687C20.0272 91.123 20.1034 91.0925 20.1644 91.062C20.3626 91.0468 20.5608 91.0315 20.7591 91.0163C21.1707 91.001 21.5365 91.1687 21.811 91.4279C21.9482 91.5499 22.0551 91.7024 22.1465 91.8548C22.7869 91.8548 23.412 91.9158 24.0066 92.0683C24.6622 91.9768 25.3025 91.8548 26.1258 91.3822C28.1994 90.2082 29.9984 89.9338 31.2486 87.6163C33.3527 83.7284 33.8101 79.246 36.0055 75.3581C36.1885 75.0532 36.4171 74.8245 36.6763 74.7025C36.6916 75.5411 36.7831 76.3949 36.7221 77.2334L36.7526 77.2487Z" fill="#4F7C22"/>
		<path d="M13.5322 76.761C13.1663 77.0659 12.8003 77.3708 12.4801 77.691C11.7483 78.3924 11.0928 79.1547 10.5134 79.978C10.3915 80.1457 10.2846 80.3134 10.1626 80.4811C10.0254 80.6793 9.90342 80.8928 9.78144 81.091C9.01912 82.3565 8.28742 83.8506 6.8695 84.3232C6.79327 84.3537 6.70173 84.369 6.6255 84.3842C6.54927 84.4147 6.45774 84.43 6.38151 84.43C6.30527 84.43 6.24426 84.4605 6.16803 84.4605C6.10705 84.4605 6.04607 84.4757 5.98508 84.4757C5.72589 84.4909 5.46686 84.4757 5.19242 84.4757C4.94848 84.4605 4.68913 84.4452 4.46043 84.43C4.35371 84.43 4.23178 84.43 4.12505 84.4147C3.88111 84.3995 3.63721 84.3995 3.40851 84.4147C3.16457 84.4452 2.93584 84.4757 2.70714 84.5367H2.67671C2.64622 84.5367 2.63091 84.552 2.61567 84.5672C2.53943 84.5977 2.46326 84.6282 2.38702 84.6587C2.55474 84.5062 2.75285 84.3842 2.96631 84.308C3.40845 84.1555 3.80492 83.9726 4.17084 83.7286C4.24707 83.5152 4.33846 83.3017 4.46043 83.0578C4.82635 82.265 5.77162 82.0058 6.54919 81.9753H6.56446C6.68643 81.7313 6.80842 81.4874 6.96088 81.2129C7.35729 80.4811 7.83004 79.9018 8.40941 79.3071C8.50089 79.2157 8.59226 79.1089 8.68374 79.0022C9.03441 78.5448 9.26318 78.0264 9.52237 77.5386C9.61385 77.3861 9.68998 77.2336 9.79671 77.0812C10.3456 76.9592 10.9098 76.8677 11.474 76.8067C11.5045 76.8067 11.5349 76.8067 11.5654 76.8067C12.221 76.7457 12.8919 76.7305 13.5627 76.761H13.5322Z" fill="#5B812C"/>
		<path d="M21.4909 123.171C21.3689 123.248 21.2317 123.324 21.1097 123.385C21.0182 123.43 20.9116 123.476 20.8201 123.522C20.6676 123.583 20.5151 123.644 20.3626 123.69C20.3169 123.705 20.2559 123.72 20.1949 123.735C20.0882 123.766 19.9816 123.796 19.8748 123.827C19.8291 123.827 19.7832 123.842 19.7375 123.857C19.646 123.888 19.5546 123.903 19.4479 123.918C19.3107 123.949 19.1582 123.964 19.0209 123.979C18.838 124.01 18.655 124.025 18.4721 124.04C18.2891 124.056 18.1062 124.071 17.9232 124.071C17.6335 124.071 17.3285 124.086 17.0388 124.086C16.5204 124.086 16.0022 124.071 15.4838 124.025C14.7063 123.964 13.9439 123.873 13.1816 123.735C12.9224 123.69 12.6632 123.644 12.4193 123.583C12.2363 123.537 12.0532 123.507 11.8855 123.446C11.7635 123.415 11.6416 123.385 11.5196 123.354C12.2209 122.333 13.5475 121.708 15.0264 121.738C15.9259 121.769 16.7491 122.15 17.6029 122.378C18.411 122.592 19.1582 122.47 19.9815 122.47C20.5913 122.47 21.125 122.744 21.5061 123.156L21.4909 123.171Z" fill="#6E840F"/>
		<path d="M23.5949 116.768C23.6101 117.286 23.6254 117.804 23.6101 118.338C23.4424 118.323 23.2748 118.292 23.1071 118.277C23.412 117.835 23.5949 117.317 23.5949 116.768Z" fill="#6E840F"/>
		<path d="M39.9544 114.221C39.2988 114.237 38.6279 114.282 37.9875 114.328C37.9113 114.328 37.8352 114.328 37.7589 114.343C29.3124 114.969 20.3016 115.792 12.8766 111.797C12.8003 111.767 12.7241 111.721 12.6478 111.675L12.9223 111.523C13.3035 111.309 13.7 111.096 14.1116 110.913C14.1421 110.898 14.1725 110.882 14.1877 110.867C14.2335 110.867 14.2641 110.867 14.3251 110.882H14.3404C15.2399 111.02 16.1546 111.294 16.9322 111.508C21.003 112.621 24.1743 110.73 28.1688 110.654C33.1849 110.562 37.1338 110.776 39.9696 114.221H39.9544Z" fill="#5B812C"/>
		<path d="M9.94932 128.248C5.75653 124.406 1.50269 120.488 -1.36365 115.563C-1.72957 114.923 -2.06496 114.282 -2.38514 113.627C-2.36989 113.596 -2.33943 113.581 -2.32419 113.566C-2.40042 111.843 -3.07126 109.83 -3.17799 109.129C-3.31521 108.275 -2.97978 107.33 -2.0345 107.132C2.12779 106.171 2.05156 110.364 4.9179 111.919C6.09188 112.559 7.08298 113.779 7.86056 115.212C8.54665 117.393 8.85151 119.664 9.12595 121.936C9.40038 124.04 9.65962 126.144 9.93406 128.248H9.94932Z" fill="#2C560D"/>
		<path d="M4.04885 147.55C1.76188 146.163 -0.525085 144.791 -2.79681 143.403C-3.75734 142.824 -4.73308 142.229 -5.5259 141.437C-6.92858 140.019 -7.62996 138.098 -8.3313 136.207C-8.3313 136.207 -8.31602 136.207 -8.30078 136.222C-7.15729 137.061 -6.42544 135.811 -5.32769 135.948C-4.58061 136.039 -4.10805 136.1 -3.49819 136.527C-2.9798 136.893 -2.6444 137.442 -2.36996 138.006C-1.97355 138.799 -1.53134 138.418 -0.784264 138.631C0.542181 138.982 1.25873 139.729 2.0363 140.598C2.70715 142.915 3.39327 145.233 4.06411 147.55H4.04885Z" fill="#4C7623"/>
		<path d="M35.9903 156.866C34.2827 158.604 32.7276 160.525 30.7303 161.897C27.3913 164.169 23.1221 164.687 19.1275 164.123C15.133 163.574 11.352 162.035 7.64707 160.464C5.34485 159.488 2.96638 158.467 0.481201 158.497C2.73768 156.317 5.87844 156.043 9.12594 156.195C9.41562 156.409 9.67483 156.683 9.90353 156.988C10.056 157.201 10.1474 157.43 10.2084 157.689C13.7456 158.863 17.9536 159.046 21.6433 158.894C23.6101 158.818 25.6683 158.726 27.5284 158.009C29.1445 157.384 30.5929 156.21 32.2853 155.753C33.5507 155.402 34.9992 155.951 35.9903 156.866Z" fill="#487220"/>
		<path d="M38.262 183.822C33.7643 186.673 28.6568 189.082 23.4882 188.106C20.3474 187.511 17.5572 185.697 14.447 184.981C11.4129 184.294 8.19595 184.66 5.1619 183.944C2.14309 183.227 -1.01301 181.428 -3.87936 182.572C-3.90985 182.572 -3.92506 182.572 -3.94031 182.602C-3.94031 182.587 -3.94031 182.572 -3.94031 182.556L-3.87936 182.495C-1.11974 179.583 2.49365 177.525 6.38151 176.564C6.412 176.564 6.44258 176.564 6.47308 176.58C8.07396 176.976 10.2084 178.958 11.733 178.867C13.1967 178.79 15.072 178.638 16.2917 179.644C17.7401 180.849 17.8774 181.626 19.9357 182.023C25.6226 183.075 31.3248 183.502 37.1032 183.349C37.5301 183.334 37.9418 183.517 38.2467 183.822H38.262Z" fill="#2A4E10"/>
		<path d="M29.6935 172.173C24.4487 170.908 21.4146 165.495 19.5393 160.449C18.8532 158.589 18.2128 156.698 17.6029 154.808C16.6882 151.956 15.8192 149.09 14.7976 146.3C13.6999 143.235 12.4344 140.247 10.7878 137.442C10.1322 136.314 9.15655 135.094 7.8606 135.185C8.01306 134.255 8.01292 133.31 8.66852 132.624C8.76 132.67 8.85156 132.7 8.94304 132.761C9.40043 132.975 9.85786 133.203 10.3153 133.447C15.7278 136.359 20.1645 141.055 22.7107 146.635C23.473 148.313 24.0829 150.081 24.2353 151.911C24.3573 153.451 24.159 154.975 23.9913 156.515C23.9151 157.232 23.8389 157.964 23.8236 158.68C23.7474 160.738 24.0828 162.797 24.7384 164.748C25.7142 167.615 27.4218 170.222 29.6935 172.189V172.173Z" fill="#9EC11B"/>
		<path d="M24.7231 164.718C24.4487 164.825 24.1134 164.809 23.8694 164.535C23.3053 163.864 22.7716 163.178 22.2837 162.492C20.9878 161.12 19.9815 159.214 19.2344 157.186C18.838 156.302 18.5025 155.372 18.1976 154.442C18.0299 154.594 17.8469 154.731 17.6029 154.808C16.6882 151.956 15.8192 149.09 14.7976 146.3C13.6999 143.235 12.4344 140.247 10.7878 137.442C10.1322 136.314 9.15655 135.094 7.8606 135.185C8.01306 134.255 8.01292 133.31 8.66852 132.624C8.76 132.67 8.85156 132.7 8.94304 132.761C9.04976 132.837 9.15644 132.914 9.27842 132.99C9.46137 133.051 9.61391 133.127 9.73589 133.188C9.93409 133.264 10.117 133.356 10.3 133.447C15.7125 136.359 20.1492 141.055 22.6954 146.635C23.4577 148.313 24.0676 150.081 24.2201 151.911C24.342 153.451 24.1438 154.975 23.9761 156.515C23.8998 157.232 23.8236 157.964 23.8084 158.68C23.7321 160.738 24.0675 162.797 24.7231 164.748V164.718Z" fill="#8BAC12"/>
		<path d="M48.8279 100.347C45.9311 102.802 44.513 106.522 43.1866 110.075C43.1561 110.151 43.1257 110.242 43.0952 110.334C42.8513 110.989 42.6074 111.63 42.3634 112.285C42.1347 112.926 41.8754 113.566 41.6467 114.206C41.4942 114.633 41.3266 115.06 41.1589 115.487C40.5338 117.195 39.8934 118.918 39.2531 120.625C37.1643 126.251 34.4199 132.533 28.7177 134.408C25.5007 135.46 21.994 134.82 18.6703 134.179C15.3618 133.539 12.0533 132.914 8.74481 132.258C9.36992 131.542 10.1169 131.039 10.925 130.688C13.7456 129.407 17.481 129.788 20.698 129.239C21.0334 129.178 21.3689 129.117 21.6891 129.026C27.6352 127.623 32.1635 122.714 35.6549 117.545C35.8684 117.225 36.0817 116.92 36.2799 116.6C36.7678 115.853 37.2558 115.091 37.7284 114.328C38.1858 113.581 38.6585 112.819 39.1159 112.072C39.3751 111.675 39.619 111.279 39.863 110.898C42.3634 106.934 45.062 103.122 48.7974 100.347H48.8279Z" fill="#537D26"/>
		<path d="M24.2201 151.88C24.342 153.42 24.1438 154.945 23.9761 156.485C23.4577 156.576 22.8936 156.439 22.5277 156.043C21.3995 154.869 20.6828 153.618 20.6828 151.895C18.6397 150.325 16.5968 147.794 15.2856 146.163C15.1332 146.224 14.9654 146.27 14.7976 146.285C13.6999 143.22 12.4344 140.232 10.7878 137.427C10.1322 136.298 9.15655 135.079 7.8606 135.17C8.01306 134.24 8.01292 133.295 8.66852 132.609C8.76 132.654 8.85156 132.685 8.94304 132.746C9.40043 132.959 9.85786 133.188 10.3153 133.432C15.7278 136.344 20.1645 141.04 22.7107 146.62C23.473 148.297 24.0829 150.066 24.2353 151.895L24.2201 151.88Z" fill="#6E840F"/>
		<path d="M43.0952 110.334C42.8513 110.989 42.6074 111.63 42.3634 112.285C42.1347 112.926 41.8754 113.566 41.6467 114.206C41.4942 114.633 41.3266 115.06 41.1589 115.487C40.5338 117.195 39.8934 118.917 39.2531 120.625C37.1643 126.251 34.4199 132.533 28.7177 134.408C25.5007 135.46 21.994 134.819 18.6703 134.179C15.3618 133.539 12.0533 132.914 8.74481 132.258C9.36992 131.541 10.1169 131.038 10.925 130.688C13.7456 129.407 17.481 129.788 20.698 129.239C21.0334 129.178 21.3689 129.117 21.6891 129.026C21.7348 129.163 21.7501 129.3 21.7654 129.437C26.1869 128.324 30.8674 127.044 33.4746 123.385C36.3867 119.314 39.2072 115.182 42.0278 111.035C42.3175 110.608 42.6835 110.379 43.08 110.303L43.0952 110.334Z" fill="#416921"/>
		<path d="M41.1741 115.487C40.549 117.195 39.9087 118.917 39.2683 120.625C37.1796 126.251 34.4351 132.533 28.7329 134.408C25.5159 135.46 22.0093 134.82 18.6856 134.179C15.3771 133.539 12.0686 132.914 8.76007 132.258C9.38518 131.542 10.1322 131.038 10.9402 130.688C12.8613 131.298 14.935 131.587 16.4444 131.191C17.908 130.81 19.3411 130.932 20.7591 130.977C21.0182 130.81 21.3078 130.688 21.628 130.703C22.6648 130.733 23.6559 130.657 24.6012 130.474C24.8147 130.383 25.028 130.291 25.2414 130.169C27.8943 128.706 31.0808 127.242 33.2458 125.062C33.5355 124.772 33.81 124.452 34.0845 124.147C34.4656 123.69 34.8315 123.202 35.1822 122.714C35.3499 121.494 35.9598 120.366 37.1185 119.817C37.8503 118.597 38.5518 117.362 39.2836 116.173C39.7562 115.411 40.5185 115.274 41.1589 115.502L41.1741 115.487Z" fill="#2C560D"/>
		<path d="M13.9895 100.82H13.9592C12.0838 100.942 10.6658 102.558 8.94299 103.351C6.89996 104.311 4.53678 104.098 2.29554 103.854C0.831879 103.701 -0.616624 103.549 -2.08029 103.397C-2.84261 103.32 -3.60486 103.229 -4.38243 103.153C-6.18152 102.954 -8.04158 102.787 -9.90166 102.832C-12.9967 102.863 -15.985 103.442 -18.3025 105.287C-11.838 99.7983 -2.94921 97.0997 5.39063 98.1822C6.1377 98.2737 6.86945 98.3957 7.58603 98.5634C9.78153 99.036 11.9314 99.7831 13.9439 100.82C13.9439 100.82 13.9742 100.82 13.9742 100.835L13.9895 100.82Z" fill="#80AA3A"/>
		<path d="M13.9895 100.82H13.9592C12.0839 100.942 10.6659 102.558 8.94304 103.351C6.90001 104.311 4.53682 104.098 2.29559 103.854C0.831923 103.701 -0.61658 103.549 -2.08024 103.396C-2.84257 103.32 -3.60482 103.229 -4.38239 103.152C-6.18147 102.954 -8.04154 102.787 -9.90161 102.832C-6.62361 100.896 -3.46763 100.286 0.34399 99.2189C2.21931 98.6853 3.78977 98.3041 5.37541 98.1821C6.12249 98.2736 6.85423 98.3956 7.57082 98.5633C9.76631 99.0359 11.9161 99.783 13.9287 100.82C13.9287 100.82 13.9592 100.82 13.9592 100.835L13.9895 100.82Z" fill="#739932"/>
		<path d="M13.9895 100.82H13.9592C12.0838 100.942 10.6659 102.558 8.94301 103.351C6.89998 104.311 4.5368 104.098 2.29556 103.854C0.831896 103.701 -0.616607 103.549 -2.08027 103.396C-2.11076 103 -1.9735 102.588 -1.56185 102.253C-0.55558 101.384 1.31972 101.399 3.17979 101.414C3.36275 101.125 3.63717 100.881 4.01833 100.759C5.46675 100.317 6.29011 99.036 7.60131 98.5481C9.79681 99.0207 11.9466 99.7678 13.9592 100.805C13.9592 100.805 13.9895 100.805 13.9895 100.82V100.82Z" fill="#4F7C22"/>
		<path d="M40.6708 90.1777C39.5426 89.1715 38.3382 88.2567 37.0727 87.4334C35.9597 86.7015 34.8162 86.046 33.627 85.4666C32.8342 85.0702 31.9957 84.7043 31.1114 84.6585C30.9285 84.6585 30.7301 84.6585 30.5624 84.6585C28.9158 84.7805 27.437 85.863 25.8971 86.5796C22.0855 88.3177 17.2829 87.6011 14.1573 84.8262C14.4928 84.689 14.8586 84.5366 15.2093 84.3993C15.316 84.3536 15.4227 84.3078 15.5446 84.2621C19.9051 82.524 24.4639 80.9689 29.0835 81.5787C34.0691 82.2496 38.6126 85.6038 40.6861 90.1777H40.6708Z" fill="#9EC11B"/>
		<path d="M37.0727 87.4333C35.9597 86.7015 34.8162 86.0459 33.627 85.4666C32.8342 85.0701 31.9957 84.7042 31.1114 84.6585C30.9285 84.6585 30.7301 84.6585 30.5624 84.6585C28.9158 84.7805 27.437 85.863 25.8971 86.5795C22.0855 88.3176 17.2829 87.6011 14.1573 84.8262C14.4928 84.689 14.8586 84.5365 15.2093 84.3993C15.316 84.3536 15.4227 84.3078 15.5446 84.2621C15.7429 84.3383 15.9411 84.4298 16.1545 84.4755C19.585 83.9266 23.2289 82.2038 26.6289 82.28C27.3607 82.1123 28.2298 82.1276 28.8092 82.28C29.8155 82.5392 30.8065 82.8289 31.6908 83.2711C31.7975 83.2711 31.9195 83.3016 32.0415 83.3778C33.9778 84.567 35.731 85.741 37.088 87.4181L37.0727 87.4333Z" fill="#8BAC12"/>
		<path d="M30.5624 84.6738C28.9158 84.7957 27.437 85.8782 25.8971 86.5948C22.0855 88.3329 17.2829 87.6163 14.1573 84.8415C14.4928 84.7043 14.8586 84.5518 15.2093 84.4146C17.8164 84.7652 20.4083 84.7348 23.0155 84.2469C25.0585 83.8657 27.01 83.5455 29.0988 83.6828C29.7849 83.7285 30.3337 84.1096 30.5777 84.6738H30.5624Z" fill="#6E840F"/>
	</g>
	<defs>
		<clipPath id="clip0_122_1413">
			<rect width="113" height="209" fill="white"/>
		</clipPath>
	</defs>
</svg>
