<svg width="113" height="209" viewBox="0 0 113 209" fill="none"
	xmlns="http://www.w3.org/2000/svg">
	<g clip-path="url(#clip0_122_1272)">
		<path d="M81.9683 209.268C80.3979 193.198 81.6177 177.113 85.6122 161.47C86.9692 156.119 88.6767 150.783 90.3386 145.614C91.6803 141.406 93.0829 137.061 94.2721 132.731C95.065 129.834 95.7816 126.952 96.3762 124.177C96.4524 123.827 96.5287 123.476 96.6049 123.11V123.019C96.7116 122.592 96.8032 122.165 96.8947 121.738C97.3826 119.36 97.8094 116.951 98.2059 114.359C98.3278 113.551 98.4345 112.758 98.5565 111.95L98.6631 111.096C99.0443 108.184 99.3494 105.272 99.5628 102.405C99.6086 101.902 99.639 101.414 99.6695 100.911V100.759V100.667C99.6847 100.469 99.7 100.256 99.7152 100.058C99.7305 99.7831 99.7458 99.5239 99.761 99.2647L99.7914 98.8683C99.8828 97.0235 99.9438 95.4836 99.9743 94.0199C100.081 89.1715 99.9743 84.2621 99.6084 79.429C99.5474 78.4837 99.4713 77.5537 99.3799 76.6084C97.5655 56.7727 92.0157 38.4464 82.8678 22.1174L83.4015 21.8125C92.5799 38.2177 98.16 56.6203 99.9896 76.5322C100.081 77.4775 100.157 78.4227 100.218 79.368C100.569 84.2164 100.706 89.141 100.584 94.0199C100.554 95.4836 100.493 97.0235 100.401 98.8835L100.371 99.2799C100.371 99.5391 100.34 99.8136 100.325 100.073C100.325 100.256 100.31 100.454 100.295 100.652L100.401 100.759L100.279 100.896C100.249 101.414 100.218 101.918 100.173 102.421C99.9591 105.287 99.6694 108.214 99.273 111.142L99.1664 111.996C99.0597 112.804 98.9377 113.612 98.8158 114.404C98.4193 117.012 97.977 119.436 97.5044 121.814C97.4282 122.241 97.3368 122.683 97.2301 123.11C97.2301 123.125 97.23 123.186 97.1995 123.232C97.1386 123.552 97.0623 123.918 96.9708 124.269C96.3762 127.059 95.6596 129.941 94.8515 132.853C93.647 137.183 92.2597 141.543 90.918 145.751C89.2714 150.905 87.5637 156.241 86.2068 161.562C82.2274 177.144 81.0078 193.153 82.5782 209.146L81.9683 209.207V209.268Z" fill="#325D1C"/>
		<path d="M87.2893 30.8842C85.4292 32.1039 82.9898 30.9147 81.3889 29.2681C81.2364 29.1004 81.084 28.9327 80.9315 28.7497C80.5046 28.2313 80.1235 27.6824 79.7118 27.1336C78.736 25.7919 77.745 24.4502 76.327 23.6879C78.5378 24.7856 80.779 25.8834 83.005 26.9964C83.9198 27.4385 84.8651 27.9569 85.6579 28.5972C85.8256 28.7345 85.978 28.8717 86.1153 29.0089C86.6489 29.5273 87.0758 30.1524 87.274 30.8842H87.2893Z" fill="#A3BC62"/>
		<path d="M89.5457 34.6653C89.5457 34.6653 89.4085 34.7872 89.3475 34.8482C89.4238 34.6958 89.5 34.5433 89.561 34.3908C90.0032 33.4303 90.4149 32.4393 90.7655 31.4482C90.918 31.0213 91.0553 30.5792 91.1925 30.137C92.8848 24.6026 93.1134 18.626 91.8175 13C92.717 15.0735 93.6471 17.1928 94.1807 19.373C94.3942 20.1963 94.5467 21.0349 94.6229 21.8734C94.6534 22.1784 94.6686 22.4833 94.6838 22.773C94.8363 27.2402 92.9 31.7379 89.5457 34.6653V34.6653Z" fill="#A3BC62"/>
		<path d="M79.9557 33.964C80.84 34.5129 81.6633 35.1685 82.3951 35.9155C81.4955 35.3819 80.657 34.7568 79.9557 33.964Z" fill="#9EC11B"/>
		<path d="M92.7019 43.0966C91.3144 41.8464 88.9969 42.8832 87.2893 42.1208C86.8471 41.9226 86.4965 41.633 86.1763 41.2823C85.6427 40.6877 85.2616 39.9406 84.8652 39.2393C84.8042 39.102 84.7279 38.9801 84.6517 38.8429C84.0418 37.7604 83.2795 36.7846 82.4104 35.9155C83.7826 36.7388 85.3225 37.3487 86.8014 38.0043C88.5395 38.7819 90.3234 39.7881 91.5584 41.2061C91.8176 41.4957 92.0462 41.7854 92.2291 42.1208C92.4121 42.4258 92.5799 42.7612 92.7171 43.0966H92.7019Z" fill="#9EC11B"/>
		<path d="M111.836 32.485C110.159 32.6985 108.817 33.6285 107.567 34.7872C107.033 35.2904 106.515 35.8087 105.997 36.3576C105.143 37.2419 104.304 38.1415 103.374 38.8733C101.453 40.3827 99.1205 41.2822 97.2147 42.8221C95.7815 43.9656 94.6532 45.4598 93.9214 47.1369C93.9519 46.5728 93.9976 46.0086 94.0891 45.4598C94.1348 45.1701 94.1807 44.8957 94.2417 44.606C94.9735 41.206 96.9249 38.0805 99.6388 35.9002C103.024 33.2016 107.521 31.9819 111.836 32.5003V32.485Z" fill="#9EC11B"/>
		<path d="M102.871 48.3109C102.902 48.7378 102.871 49.1647 102.795 49.5611C102.277 52.7324 99.2883 55.187 96.5134 57.1081C96.4524 57.1538 96.3762 57.1996 96.3152 57.2453C96.4067 57.1538 96.4827 57.0471 96.5437 56.9404C96.62 56.8032 96.6659 56.6507 96.7116 56.4982C96.7573 56.3153 96.7878 56.1476 96.8183 55.9799C96.8487 55.8731 96.8641 55.7664 96.8946 55.6444C97.4129 53.6167 98.846 51.9395 99.9742 50.1557C101.148 48.2804 102.002 45.8409 100.965 43.8741C101.972 45.0939 102.749 46.5728 102.856 48.1432C102.856 48.1889 102.871 48.2346 102.871 48.2956V48.3109Z" fill="#A3BC62"/>
		<path d="M110.601 50.5826C110.22 48.7683 110.113 46.9845 110.815 45.2769C111.028 47.0454 110.921 48.8293 110.601 50.5826Z" fill="#9EC11B"/>
		<path d="M112.339 60.4014C112.278 60.7521 112.187 61.1027 112.08 61.4534C111.76 62.3834 111.242 63.2067 110.632 63.9996C110.205 64.5484 109.732 65.0821 109.275 65.6005C106.454 68.8022 103.511 72.0955 99.6083 73.7878C99.2881 73.925 99.8675 73.6049 99.593 73.4067C99.3186 73.2084 100.157 72.5224 99.6083 72.9797C99.9132 70.5708 100.676 69.3206 102.017 67.2928C102.094 67.1708 102.17 67.0489 102.261 66.9269C102.429 66.6677 102.612 66.4085 102.78 66.1493C104.792 63.161 106.85 60.2184 108.421 56.9862C109.412 54.9584 110.189 52.7934 110.601 50.5826C111.287 53.8454 112.903 57.2149 112.339 60.3862V60.4014Z" fill="#9EC11B"/>
		<path d="M99.1052 70.9062C96.0254 69.9914 93.3421 67.8569 91.7717 65.0668C91.5126 64.6094 91.2837 64.1368 91.0855 63.6641C90.8111 63.0543 90.5672 62.4292 90.3537 61.7888C89.4542 59.1512 88.7986 56.3763 87.335 54.2113C88.8139 55.7969 90.2928 57.3826 91.7565 58.9835C94.5161 61.9565 97.3825 65.143 98.6327 68.9394C98.6479 69.0004 98.6783 69.0462 98.6783 69.1071C98.8765 69.6865 99.0137 70.2811 99.1205 70.9062H99.1052Z" fill="#4C7D16"/>
		<path d="M99.9895 80.5573C98.7698 80.6488 97.5959 80.4201 96.4982 79.9779C95.8578 79.7187 95.2479 79.3833 94.6532 79.0021C94.2568 78.743 93.8604 78.4685 93.4945 78.1636C93.3878 78.0873 93.2811 77.9959 93.1744 77.9044C92.3358 77.2183 91.5582 76.4407 90.8264 75.6784C90.1403 74.9466 89.4543 74.1842 88.753 73.4524C86.9234 71.5619 84.9565 69.8238 82.4866 69.0919C87.4874 70.4336 92.1987 72.7511 96.3152 75.8919C96.422 75.9681 96.5286 76.0596 96.6354 76.1358C96.925 76.3493 97.1996 76.5779 97.4893 76.8066L97.5196 76.8371C97.8398 77.0963 98.16 77.3708 98.4801 77.6452C98.4954 77.6605 98.5259 77.6757 98.5412 77.7062C98.5717 77.7214 98.587 77.7367 98.6022 77.7672C99.0596 78.1636 99.5018 78.621 99.761 79.1546C99.7915 79.2308 99.8219 79.3071 99.8524 79.3681C100.005 79.7492 100.051 80.1609 100.051 80.5725L99.9895 80.5573Z" fill="#9EC11B"/>
		<path d="M132.815 115.655C131.946 115.091 130.955 114.694 129.934 114.481C129.187 114.313 128.424 114.237 127.647 114.206C127.204 114.176 126.762 114.176 126.32 114.206C126.183 114.206 126.061 114.206 125.939 114.221C125.283 114.237 124.613 114.282 123.972 114.328C123.896 114.328 123.82 114.328 123.744 114.343C115.297 114.969 106.286 115.792 98.8612 111.797C98.785 111.767 98.7089 111.721 98.6327 111.675L98.907 111.523C99.2882 111.309 99.6846 111.096 100.096 110.913C100.127 110.898 100.157 110.882 100.172 110.867C105.585 108.214 111.836 107.284 117.782 108.275C120.603 108.733 123.332 109.632 125.893 110.898C126.747 111.309 127.571 111.782 128.363 112.27C129.949 113.246 131.428 114.359 132.8 115.639L132.815 115.655Z" fill="#A3BC62"/>
		<path d="M109.61 118.338C109.58 119.161 109.488 120 109.244 120.762C109 121.54 108.604 122.241 107.994 122.805C107.933 122.866 107.857 122.912 107.781 122.973C107.72 123.034 107.643 123.08 107.567 123.125C107.537 123.141 107.521 123.156 107.491 123.171C107.369 123.247 107.232 123.324 107.11 123.385C107.018 123.43 106.912 123.476 106.82 123.522C106.668 123.583 106.515 123.644 106.363 123.69C106.317 123.705 106.256 123.72 106.195 123.735C106.088 123.766 105.982 123.796 105.875 123.827C105.829 123.827 105.783 123.842 105.738 123.857C105.646 123.888 105.555 123.903 105.448 123.918C105.311 123.949 105.158 123.964 105.021 123.979C104.838 124.01 104.655 124.025 104.472 124.04C104.289 124.055 104.106 124.071 103.923 124.071C103.634 124.071 103.329 124.086 103.039 124.086C102.52 124.086 102.002 124.071 101.484 124.025C100.706 123.964 99.944 123.872 99.1816 123.735C98.9224 123.69 98.6633 123.644 98.4193 123.583C98.2364 123.537 98.0532 123.507 97.8855 123.446C97.7636 123.415 97.6416 123.385 97.5196 123.354C97.3214 123.293 97.1234 123.247 96.9099 123.186C96.8947 123.186 96.8641 123.186 96.8489 123.171C96.8794 123.141 96.8945 123.125 96.925 123.11C97.8398 122.18 98.9681 121.448 100.203 121.006C100.66 120.823 101.133 120.701 101.621 120.61C103.237 120.305 104.914 120.457 106.5 120.046C107.521 119.771 108.543 119.146 109.122 118.292C109.427 117.85 109.61 117.332 109.61 116.783C109.625 117.301 109.641 117.82 109.625 118.353L109.61 118.338Z" fill="#9EC11B"/>
		<path d="M64.8921 119.939C65.9593 120.64 66.9809 121.403 67.9567 122.241C66.9351 121.479 65.9136 120.717 64.8921 119.939Z" fill="#9EC11B"/>
		<path d="M90.0488 147.55C87.7619 146.163 85.4749 144.791 83.2032 143.403C82.2426 142.824 81.2669 142.229 80.4741 141.437C79.0714 140.019 78.37 138.098 77.6687 136.207C77.5315 135.872 77.4095 135.521 77.2723 135.185C76.6471 133.615 75.9153 132.09 75.0615 130.642C73.1862 127.471 70.7773 124.62 67.9567 122.241C71.5091 124.909 75.0615 127.562 78.614 130.23C79.2543 130.703 79.9252 131.206 80.6723 131.465C81.4499 131.74 82.3036 131.74 83.0812 131.999C85.1699 132.685 86.2372 134.804 86.9538 136.939C87.0911 137.351 87.2283 137.762 87.335 138.174C87.5789 138.982 87.7923 139.79 88.0363 140.598C88.7071 142.915 89.3932 145.233 90.0641 147.55H90.0488Z" fill="#8CAD28"/>
		<path d="M143 185.728C140.012 185.575 137.054 185.041 134.218 184.142C132.983 183.746 131.779 183.288 130.589 182.77C129.72 182.389 128.836 181.962 127.891 182.023C126.961 182.084 126.137 182.633 125.344 183.136C124.994 183.364 124.628 183.593 124.262 183.822C119.764 186.673 114.657 189.082 109.488 188.106C106.347 187.511 103.557 185.697 100.447 184.98C97.413 184.294 94.196 184.66 91.1619 183.944C88.1431 183.227 84.987 181.428 82.1207 182.572C82.0902 182.572 82.075 182.572 82.0597 182.602C82.0445 182.602 82.0293 182.602 81.9988 182.617C82.0293 182.587 82.0445 182.572 82.0597 182.556L82.1207 182.495C84.8803 179.583 88.4937 177.525 92.3815 176.564C95.0954 175.878 97.9314 175.726 100.691 176.168C101.834 176.351 102.963 176.625 104.076 176.946C108.695 178.257 113.239 180.254 117.889 179.37C121.365 178.714 124.582 176.458 128.104 176.824C133.944 177.433 137.176 184.767 142.97 185.743L143 185.728Z" fill="#4C7D16"/>
		<path d="M82.8677 178.714C81.1296 174.796 75.8544 174.506 71.6159 173.957C66.0204 173.225 60.4097 170.816 57.0402 166.288C55.8663 164.703 54.9819 162.904 54.0214 161.181C53.3963 160.052 52.7254 158.924 52.0241 157.842C51.8564 157.598 51.7039 157.354 51.5362 157.11C51.216 156.637 50.8959 156.18 50.5605 155.707C49.6609 154.472 48.7156 153.268 47.7093 152.094C46.2456 150.371 44.6601 148.74 42.9982 147.215C40.8179 145.218 38.4852 143.403 36 141.787C38.8968 143.51 42.6627 143.434 45.6205 145.096C47.7093 146.27 49.2493 148.206 50.8196 150.02C51.7802 151.133 52.7712 152.216 53.8232 153.268C54.2806 153.756 54.7533 154.228 55.2259 154.67C55.851 155.28 56.4761 155.875 57.1165 156.439C58.6259 157.811 60.2115 159.107 61.8428 160.342C63.154 161.333 64.511 162.278 66.0356 162.904C67.8347 163.635 69.7711 163.879 71.6159 164.459C71.7684 164.504 71.9055 164.55 72.0427 164.611C74.7871 165.572 77.2113 167.325 79.0714 169.551C81.2364 172.128 82.6238 175.345 82.8677 178.699V178.714Z" fill="#4C7D16"/>
		<path d="M81.6175 195.211C79.5135 195.531 77.3332 195.211 75.3969 194.342C73.4301 193.488 71.692 192.085 70.518 190.301C70.1826 189.783 69.8625 189.219 69.5728 188.64C68.3073 186.17 67.3467 183.41 65.1512 182.038C67.9261 183.502 70.4723 185.377 72.6983 187.572C73.3081 188.182 73.9028 188.807 74.6651 189.204C75.8544 189.829 77.2417 189.768 78.5834 189.631C78.7206 189.631 78.8579 189.615 78.9798 189.6C79.3305 190.347 79.6812 191.079 80.0318 191.826C80.5655 192.939 81.0839 194.052 81.6175 195.18V195.211Z" fill="#4C7D16"/>
		<path d="M78.1414 14.8905C78.5988 15.3936 79.0257 15.9273 79.3916 16.5067C78.8884 16.034 78.4615 15.5004 78.1414 14.8905Z" fill="#9EC11B"/>
		<path d="M83.432 21.6905C83.432 21.8735 83.4319 22.0717 83.4014 22.2546C83.4014 22.3309 83.3709 22.4071 83.3557 22.4986C82.4866 22.3766 81.7853 21.7058 81.3584 20.9282C81.2821 20.7757 81.1907 20.6233 81.1297 20.4708C80.9315 20.0591 80.7943 19.617 80.6266 19.1749C80.5503 18.9309 80.4741 18.7022 80.3827 18.4735C80.1082 17.7874 79.7728 17.1166 79.3763 16.5067C79.6508 16.7812 79.9557 17.0403 80.2454 17.2843C81.0687 17.9704 81.9378 18.6412 82.5629 19.495C83.0508 20.1354 83.3862 20.9129 83.4167 21.6905H83.432Z" fill="#9EC11B"/>
		<path d="M89.6829 18.3972C89.1341 18.4734 88.5394 18.5801 88.143 18.9765C88.143 18.9765 88.1278 18.9918 88.1125 19.007C87.8686 19.251 87.7314 19.5711 87.6247 19.9066C87.5332 20.1963 87.4417 20.5164 87.2892 20.7756C86.9538 21.3855 86.3287 21.7819 85.7189 22.1478C85.17 22.4832 84.5906 22.8339 83.9502 22.9254C83.9197 22.9254 83.8893 22.9406 83.874 22.9406H83.8588C83.9045 22.6204 83.9502 22.285 84.0112 21.9648C84.0874 21.3855 84.1789 20.7909 84.4381 20.2572C84.865 19.3729 85.7646 18.7478 86.7251 18.4582C87.6856 18.1837 88.6919 18.2142 89.6829 18.3819V18.3972Z" fill="#9EC11B"/>
		<path d="M88.143 18.9767C88.143 18.9767 88.1277 18.9919 88.1125 19.0072C87.8686 19.2511 87.7314 19.5713 87.6247 19.9067C87.5332 20.1964 87.4417 20.5165 87.2892 20.7757C86.9538 21.3856 86.3287 21.782 85.7189 22.1479C85.17 22.4834 84.5906 22.834 83.9502 22.9255C83.9197 22.9255 83.8893 22.9407 83.874 22.9407C83.874 22.9407 83.874 22.9357 83.874 22.9255C83.874 22.9255 83.9807 22.773 84.057 22.712C84.2247 22.4834 84.3771 22.2547 84.5144 22.0107C84.5601 21.9497 84.5906 21.8735 84.6363 21.8125C84.6059 21.6905 84.6059 21.5533 84.6363 21.4161C84.7278 20.9739 84.9413 20.608 85.2005 20.3031C85.5054 19.8609 85.8865 19.5103 86.4049 19.3883C86.7708 19.2054 87.1521 19.0529 87.5332 18.9157C87.7314 18.8394 87.9448 18.8852 88.1278 18.9919L88.143 18.9767Z" fill="#8BAC12"/>
		<path d="M83.4319 21.6906C83.4319 21.8735 83.4318 22.0717 83.4013 22.2547C83.4013 22.3309 83.3708 22.4072 83.3556 22.4987C82.4865 22.3767 81.7852 21.7058 81.3583 20.9283C81.282 20.7758 81.1906 20.6233 81.1296 20.4709C80.9314 20.0592 80.7942 19.6171 80.6265 19.1749C80.6722 19.2054 80.718 19.2359 80.7637 19.2511C81.8462 19.8153 82.6086 20.7911 83.4319 21.6754V21.6906Z" fill="#8BAC12"/>
		<path d="M89.5457 34.6652C89.5457 34.6652 89.4085 34.7871 89.3475 34.8481C89.4238 34.6957 89.5 34.5432 89.561 34.3907C90.0032 33.4302 90.4149 32.4392 90.7655 31.4481C90.918 31.0212 91.0553 30.5791 91.1925 30.1369C91.4822 29.6491 91.7107 29.1612 91.8327 28.658C92.5493 25.6545 92.6104 22.0563 94.196 19.3729C94.4095 20.1962 94.5618 21.0348 94.638 21.8733C94.6685 22.1783 94.6838 22.4832 94.6991 22.7729C94.8515 27.2401 92.9152 31.7378 89.561 34.6652H89.5457Z" fill="#82A551"/>
		<path d="M87.2893 30.8842C85.4292 32.1039 82.9898 30.9147 81.3889 29.2681C81.2364 29.1004 81.084 28.9327 80.9315 28.7497C80.5046 28.2313 80.1234 27.6824 79.7118 27.1335C80.6418 27.286 81.5566 27.9874 82.4256 28.5667C82.6238 28.3838 82.9288 28.2923 83.2032 28.3533C83.9655 28.5362 84.8803 28.4295 85.6579 28.5972C85.8256 28.7344 85.978 28.8717 86.1152 29.0089C86.6489 29.5273 87.0758 30.1524 87.274 30.8842H87.2893Z" fill="#82A551"/>
		<path d="M92.7018 43.0966C91.3144 41.8464 88.9969 42.8831 87.2893 42.1208C86.8471 41.9226 86.4965 41.633 86.1763 41.2823C85.6427 40.6877 85.2615 39.9406 84.8651 39.2392C85.0938 39.0258 85.4139 38.9038 85.7493 38.9038C86.2677 38.9038 86.7098 39.4374 87.0605 40.093C87.2282 39.9406 87.4874 39.8338 87.8381 39.8338C88.4175 39.8338 88.7529 40.154 88.9206 40.6114C88.9359 40.6419 88.9511 40.6724 88.9663 40.7029C89.1188 40.6419 89.2561 40.6114 89.4238 40.6114C89.439 40.6114 89.4542 40.6114 89.4695 40.6114C89.5305 40.6114 89.5915 40.6114 89.6524 40.6419C89.6829 40.6419 89.7134 40.6419 89.7592 40.6724C89.9879 40.7486 90.2166 40.9011 90.3843 41.0536C90.4911 41.1603 90.6435 41.4805 90.7808 41.7702C90.8417 41.6634 90.9331 41.5719 91.0246 41.4805C91.0703 41.4347 91.1162 41.4042 91.1619 41.3738C91.2686 41.2975 91.4211 41.267 91.5736 41.267C91.8328 41.5567 92.0614 41.8464 92.2444 42.1818C92.4273 42.4867 92.595 42.8222 92.7322 43.1576L92.7018 43.0966Z" fill="#8BAC12"/>
		<path d="M107.567 34.7872C107.033 35.2904 106.515 35.8088 105.997 36.3576C105.143 37.2419 104.304 38.1415 103.374 38.8733C101.453 40.3827 99.1205 41.2823 97.2147 42.8222C95.7815 43.9656 94.6532 45.4598 93.9214 47.1369C93.9519 46.5728 93.9976 46.0087 94.0891 45.4598C94.1348 45.1701 94.1807 44.8957 94.2417 44.606C96.5897 40.1083 100.752 35.4886 105.661 34.4213C106.332 34.2689 107.064 34.4213 107.567 34.8025V34.7872Z" fill="#8BAC12"/>
		<path d="M102.871 48.311C102.902 48.7379 102.871 49.1648 102.795 49.5612C102.277 52.7325 99.2883 55.1872 96.5134 57.1083C96.4524 57.154 96.3762 57.1997 96.3152 57.2455C96.4067 57.154 96.4827 57.0473 96.5437 56.9405C96.62 56.8033 96.6659 56.6509 96.7116 56.4984C96.7573 56.3154 96.7878 56.1477 96.8183 55.98C96.8487 55.8733 96.8641 55.7666 96.8946 55.6446C97.8856 54.5164 98.9832 53.5558 99.837 52.2599C100.706 50.9639 101.331 48.7989 102.841 48.1586C102.841 48.2043 102.856 48.2501 102.856 48.311H102.871Z" fill="#82A551"/>
		<path d="M111.409 60.4623C111.272 61.2703 111.104 61.9564 111.074 62.1242C110.936 62.673 110.784 63.2981 110.616 63.969L110.647 63.9995C110.22 64.5483 109.747 65.082 109.29 65.6004C106.469 68.8021 103.527 72.0954 99.6235 73.7877C99.3034 73.9249 99.8827 73.6048 99.6083 73.4066C99.3338 73.2083 100.172 72.5223 99.6235 72.9797C99.9285 70.5707 100.691 69.3205 102.033 67.2927C102.109 67.1707 102.185 67.0488 102.276 66.9268C102.551 66.6981 102.825 66.4847 103.115 66.2712C103.954 65.6613 104.853 65.1277 105.753 64.6551C106.637 63.4963 107.491 62.2919 108.162 61.0416C108.634 60.1726 108.787 57.7179 109.808 57.108C111.836 55.9341 111.714 58.5565 111.424 60.447L111.409 60.4623Z" fill="#8BAC12"/>
		<path d="M99.1052 70.9061C96.0254 69.9913 93.3422 67.8568 91.7718 65.0667C91.5126 64.6093 91.2838 64.1367 91.0856 63.6641C90.8111 63.0542 90.5672 62.4291 90.3538 61.7887C90.552 61.621 90.8112 61.5143 91.1161 61.4991C92.3206 61.4381 92.412 62.7188 93.1896 63.2829C93.464 63.4811 93.647 63.6641 93.83 63.8623C93.9825 63.8775 94.1195 63.9232 94.2568 64.0452C94.6074 64.2739 94.9429 64.4874 95.2936 64.7161C95.5223 64.8075 95.6595 65.021 95.69 65.2344C96.5896 65.9968 97.4891 66.8811 97.8093 67.8721C98.099 68.2075 98.3735 68.5429 98.6174 68.9241C98.6327 68.9851 98.663 69.0308 98.663 69.0918C98.8612 69.6712 98.9985 70.2658 99.1052 70.8909V70.9061Z" fill="#406919"/>
		<path d="M99.9895 80.5574C98.7698 80.6488 97.5959 80.4201 96.4982 79.978C95.8578 79.7188 95.2478 79.3834 94.6532 79.0022C94.2568 78.743 93.8604 78.4686 93.4945 78.1636C93.3877 78.0874 93.2811 77.9959 93.1744 77.9045C92.3358 77.2184 91.5582 76.4408 90.8263 75.6785C90.1402 74.9466 89.4543 74.1843 88.7529 73.4525C88.8444 73.361 88.9511 73.3 89.073 73.2848C90.3385 73.0256 91.4516 73.7879 92.5036 74.657C92.6103 74.657 92.717 74.7027 92.839 74.7789C93.769 75.4345 94.7295 75.6632 95.5071 76.1816C95.7053 75.9987 95.9798 75.9072 96.3152 75.8919C96.422 75.9682 96.5286 76.0596 96.6353 76.1359C96.925 76.3493 97.1996 76.578 97.4892 76.8067L97.5196 76.8372C97.8397 77.0964 98.1599 77.3708 98.4801 77.6453C98.4954 77.6605 98.5259 77.6758 98.5412 77.7063C98.5716 77.7215 98.587 77.7368 98.6022 77.7672C98.6784 77.9045 98.7394 78.0417 98.8004 78.1789C99.1663 78.4533 99.4865 78.7888 99.7609 79.1547C99.7914 79.2309 99.8218 79.3071 99.8523 79.3681C100.005 79.7493 100.051 80.1609 100.051 80.5726L99.9895 80.5574Z" fill="#8BAC12"/>
		<path d="M133.395 70.281C131.458 69.7779 129.446 69.2748 127.448 69.534C126.991 69.5949 126.519 69.7017 126.076 69.8694C124.598 70.403 123.332 71.4702 122.89 72.9492C122.722 73.5285 122.692 74.1079 122.692 74.7178C122.707 75.5563 122.798 76.4101 122.737 77.2487C122.661 78.2854 122.341 79.2765 122.006 80.2522C121.076 83.0728 120.146 85.8935 119.216 88.7141C118.59 90.6199 117.858 92.6476 116.212 93.7606C114.291 95.0566 111.775 94.7212 109.458 94.6144C106.363 94.4772 103.252 94.8736 100.295 95.7884C101.606 93.6692 103.725 92.3884 105.951 91.1687C106.012 91.123 106.088 91.0925 106.149 91.062C107.704 90.2387 109.275 89.4154 110.632 88.3634C115.068 84.9177 116.928 79.2002 118.865 73.9097C119.414 72.4308 120.008 70.9061 121.121 69.7626C122.676 68.177 125.04 67.5976 127.235 67.8416C129.43 68.0855 131.474 69.0766 133.349 70.2658L133.395 70.281Z" fill="#80AA3A"/>
		<path d="M99.5322 76.7609C99.1663 77.0659 98.8003 77.3708 98.4801 77.691C97.7483 78.3923 97.0928 79.1546 96.5135 79.9779C96.3915 80.1457 96.2846 80.3134 96.1626 80.4811C96.0254 80.6793 95.9035 80.8928 95.7815 81.091C95.0192 82.3564 94.2875 83.8506 92.8695 84.3232C92.7933 84.3537 92.7018 84.3689 92.6255 84.3842C92.5493 84.4147 92.4578 84.4299 92.3815 84.4299C92.3053 84.4299 92.2443 84.4604 92.1681 84.4604C92.1071 84.4604 92.0461 84.4757 91.9851 84.4757C91.7259 84.4909 91.4669 84.4757 91.1925 84.4757C90.9485 84.4604 90.6892 84.4452 90.4605 84.4299C90.3537 84.4299 90.2318 84.4299 90.1251 84.4147C89.8811 84.3994 89.6372 84.3994 89.4086 84.4147C89.1646 84.4299 88.9206 84.4604 88.7072 84.5367H88.6767C88.6463 84.5367 88.6309 84.5519 88.6157 84.5672C88.5395 84.5977 88.4633 84.6281 88.3871 84.6586H88.3565C88.3565 84.6586 88.3413 84.6586 88.326 84.6586C88.2955 84.6586 88.2803 84.6739 88.2651 84.6891C87.4418 85.1465 86.9996 86.0918 86.6184 86.9761C85.9933 88.4093 85.3835 89.8272 84.7584 91.2604C84.3162 92.2971 83.8588 93.3339 83.4014 94.3706C82.883 92.9832 82.944 91.4433 83.2185 89.9949C84.2095 84.6281 88.204 79.9322 93.1897 77.8587C94.0435 77.4928 94.9124 77.2183 95.7967 77.0354C96.3456 76.9134 96.9099 76.8219 97.474 76.7609C97.5045 76.7609 97.5349 76.7609 97.5654 76.7609C98.221 76.6999 98.8919 76.6847 99.5628 76.7152L99.5322 76.7609Z" fill="#A3BC62"/>
		<path d="M126.092 69.8695C124.613 70.4031 123.347 71.4704 122.905 72.9493C122.737 73.5286 122.707 74.108 122.707 74.7179C122.722 75.5564 122.814 76.4102 122.753 77.2488C122.676 78.2856 122.356 79.2766 122.021 80.2524C121.091 83.073 120.161 85.8936 119.231 88.7142C118.605 90.62 117.874 92.6478 116.227 93.7608C114.306 95.0567 111.79 94.7213 109.473 94.6146C106.378 94.4773 103.268 94.8738 100.31 95.7886C101.621 93.6693 103.74 92.3886 105.966 91.1688C105.997 91.1993 106.027 91.2451 106.058 91.2908C106.332 91.428 106.485 91.7177 106.485 92.0227C106.927 91.8245 107.369 91.6415 107.826 91.4433C109.824 90.559 111.806 89.6289 113.681 88.5007C113.818 88.4092 113.971 88.394 114.108 88.4092C115.343 86.9151 116.349 85.3599 117.218 83.7438C118.27 80.5878 119.032 77.2183 120.267 74.9618C120.832 73.9403 121.441 72.9036 122.173 72.0802C122.768 70.952 123.82 70.2812 124.948 70.2202C125.283 69.9762 125.634 69.839 126.076 69.8847L126.092 69.8695Z" fill="#739932"/>
		<path d="M97.5349 76.8066C97.5349 76.8066 97.4893 76.8371 97.474 76.8371C97.1081 77.0505 96.742 77.264 96.3761 77.4774C96.2389 77.4774 96.1018 77.4774 95.9646 77.4774C95.8122 77.4927 95.6596 77.5079 95.5071 77.5232C94.7753 77.6299 94.1044 77.8433 93.5098 78.1483C92.4578 78.6971 91.6346 79.551 91.0095 80.7097C90.9333 80.8469 90.8874 80.9841 90.8264 81.1061C89.8353 81.8684 88.8749 82.6612 88.0059 83.515C86.2525 85.2531 84.0723 88.6379 84.7431 91.2755C85.3682 89.8423 85.978 88.4092 86.6032 86.9912C86.9843 86.1069 87.4265 85.1617 88.2498 84.7043C88.2803 84.689 88.2955 84.6738 88.3108 84.6738C88.3108 84.6738 88.326 84.6738 88.3413 84.6738C88.3413 84.6738 88.3566 84.6738 88.3718 84.6738C88.3718 84.6738 88.5242 84.6128 88.6004 84.5823C88.6309 84.5823 88.6462 84.567 88.6615 84.5518H88.6919C88.9206 84.4908 89.1493 84.4603 89.3933 84.4298C89.622 84.4146 89.8659 84.4146 90.1098 84.4298C90.2166 84.4298 90.3385 84.4298 90.4452 84.4451C90.6739 84.4603 90.9333 84.4756 91.1772 84.4908C91.4516 84.5061 91.7107 84.5213 91.9699 84.4908C92.0308 84.4908 92.092 84.4908 92.153 84.4756C92.2292 84.4756 92.29 84.4603 92.3663 84.4451C92.4425 84.4451 92.534 84.4146 92.6103 84.3993C92.6865 84.3841 92.778 84.3536 92.8543 84.3383C94.2569 83.8657 95.0041 82.3716 95.7664 81.1061C95.8884 80.9079 96.0256 80.6944 96.1476 80.4962C96.2543 80.3285 96.3762 80.1608 96.4982 79.9931C97.0928 79.185 97.7483 78.4075 98.4649 77.7061C98.8003 77.386 99.1511 77.0658 99.517 76.7761C98.8461 76.7304 98.1752 76.7456 97.5196 76.8218L97.5349 76.8066Z" fill="#82A551"/>
		<path d="M126.336 114.191C126.198 114.191 126.076 114.191 125.954 114.206C125.299 114.222 124.628 114.267 123.987 114.313C123.911 114.313 123.835 114.313 123.759 114.328C115.312 114.953 106.302 115.777 98.8766 111.782C98.8003 111.752 98.7241 111.706 98.6478 111.66L98.9223 111.508C99.3035 111.294 99.7 111.081 100.112 110.898C100.188 110.898 100.249 110.883 100.325 110.867H100.34C102.033 110.684 103.862 110.898 105.539 110.562C107.399 110.181 109.26 109.8 111.15 109.571C115.328 109.084 119.2 109.175 123.134 110.791C123.728 111.035 124.521 111.477 125.177 112.057C125.832 112.651 126.351 113.383 126.366 114.161L126.336 114.191Z" fill="#82A551"/>
		<path d="M109.244 120.762C109 121.54 108.604 122.241 107.994 122.805C107.933 122.866 107.857 122.912 107.781 122.973C107.72 123.034 107.643 123.08 107.567 123.126C107.537 123.141 107.521 123.156 107.491 123.171C107.369 123.248 107.232 123.324 107.11 123.385C107.018 123.43 106.912 123.476 106.82 123.522C106.668 123.583 106.515 123.644 106.363 123.69C106.317 123.705 106.256 123.72 106.195 123.735C106.088 123.766 105.982 123.796 105.875 123.827C105.829 123.827 105.783 123.842 105.738 123.857C105.646 123.888 105.555 123.903 105.448 123.918C105.311 123.949 105.158 123.964 105.021 123.979C104.838 124.01 104.655 124.025 104.472 124.04C104.289 124.056 104.106 124.071 103.923 124.071C103.634 124.071 103.329 124.086 103.039 124.086C102.52 124.086 102.002 124.071 101.484 124.025C100.706 123.964 99.944 123.873 99.1816 123.735C98.9224 123.69 98.6633 123.644 98.4193 123.583C98.2364 123.537 98.0532 123.507 97.8855 123.446C97.7636 123.415 97.6416 123.385 97.5196 123.354C97.3214 123.293 97.1234 123.247 96.9099 123.186C96.8947 123.186 96.8641 123.187 96.8489 123.171C96.8794 123.141 96.8945 123.126 96.925 123.11C97.8398 122.18 98.9681 121.448 100.203 121.006C100.34 120.991 100.477 120.991 100.615 120.991C101.834 120.991 103.146 121.265 104.198 121.311C105.067 121.326 105.936 121.25 106.82 120.945C107.156 120.823 107.506 121.006 107.704 121.281C108.131 121.052 108.573 120.869 109.031 120.778C109.107 120.762 109.199 120.747 109.26 120.747L109.244 120.762Z" fill="#8BAC12"/>
		<path d="M95.9494 128.248C91.7566 124.406 87.5027 120.488 84.6364 115.563C84.2705 114.923 83.9351 114.282 83.6149 113.627C83.2947 112.971 82.9745 112.3 82.6848 111.63C81.3431 108.535 80.2301 105.333 78.7055 102.329C76.7082 98.4261 73.6894 94.706 69.6338 93.2576C74.7566 94.9042 79.2391 98.1669 83.3709 101.628C85.5359 103.442 87.6704 105.394 89.4848 107.559C91.3143 109.724 92.8237 112.102 93.7232 114.786C93.769 114.923 93.8148 115.06 93.8606 115.197C94.5467 117.378 94.8515 119.649 95.126 121.921C95.4004 124.025 95.6597 126.129 95.9341 128.233L95.9494 128.248Z" fill="#537D26"/>
		<path d="M95.9493 128.248C91.7565 124.406 87.5027 120.488 84.6364 115.563C84.2704 114.923 83.935 114.282 83.6149 113.627C83.2947 112.971 82.9744 112.3 82.6848 111.63C82.761 111.386 82.883 111.172 83.005 110.943C82.9745 110.791 82.9592 110.639 82.9288 110.486C82.075 108.047 81.0992 105.653 80.1386 103.244C79.9709 102.817 80.3216 102.36 80.7027 102.238C82.1359 101.765 83.2489 102.695 84.1332 104.144C85.7341 105.744 87.7314 106.644 89.4695 107.559C91.2991 109.724 92.8084 112.102 93.7079 114.786C93.7537 114.923 93.7996 115.06 93.8453 115.197C94.5314 117.377 94.8363 119.649 95.1107 121.921C95.3851 124.025 95.6444 126.129 95.9188 128.233L95.9493 128.248Z" fill="#416921"/>
		<path d="M90.0489 147.55C87.7619 146.163 85.4749 144.791 83.2032 143.403C82.2427 142.824 81.2669 142.229 80.4741 141.437C79.0714 140.019 78.37 138.098 77.6687 136.207C77.5315 135.872 77.4095 135.521 77.2723 135.186C76.6472 133.615 75.9153 132.091 75.0615 130.642C76.3422 130.962 77.6077 131.481 78.553 132.426C79.7118 133.569 80.3216 133.173 81.5718 133.722C83.4776 134.56 85.414 135.536 86.9539 136.954C87.0911 137.366 87.2283 137.777 87.335 138.189C87.579 138.997 87.7924 139.805 88.0363 140.613C88.7072 142.931 89.3933 145.248 90.0641 147.566L90.0489 147.55Z" fill="#55852A"/>
		<path d="M137.923 149.258C134.508 149.548 131.153 150.569 128.135 152.2C126.153 153.268 124.323 154.594 122.707 156.149C122.463 156.378 122.234 156.607 121.99 156.851C120.283 158.589 118.728 160.51 116.73 161.882C113.391 164.154 109.122 164.672 105.128 164.108C101.133 163.559 97.352 162.019 93.6471 160.449C91.3449 159.473 88.9664 158.452 86.4812 158.482C88.7377 156.302 91.8784 156.027 95.1259 156.18C96.8031 156.256 98.4802 156.47 100.096 156.591C102.353 156.759 104.624 156.698 106.881 156.439C110.845 155.982 114.733 154.853 118.331 153.115C120.527 152.063 122.631 150.767 124.918 149.959C129.049 148.496 133.593 148.633 137.938 149.227L137.923 149.258Z" fill="#90B03A"/>
		<path d="M128.135 152.2C126.153 153.268 124.323 154.594 122.707 156.149C122.463 156.378 122.234 156.607 121.99 156.851C120.283 158.589 118.728 160.51 116.73 161.882C113.391 164.154 109.122 164.672 105.128 164.108C101.133 163.559 97.352 162.019 93.6471 160.449C91.3449 159.473 88.9664 158.452 86.4812 158.482C88.7377 156.302 91.8784 156.027 95.1259 156.18C96.8031 156.256 98.4802 156.469 100.096 156.591C102.353 156.759 104.624 156.698 106.881 156.439C109.214 156.439 111.531 156.287 113.803 155.707C115.419 155.296 122.189 152.2 125.665 152.399C126.168 152.17 126.671 151.972 127.235 151.804C127.601 151.697 127.967 151.88 128.135 152.185V152.2Z" fill="#598A29"/>
		<path d="M134.218 184.142C132.983 183.746 131.779 183.288 130.589 182.77C129.72 182.389 128.836 181.962 127.891 182.023C126.961 182.084 126.137 182.633 125.344 183.136C124.994 183.364 124.628 183.593 124.262 183.822C119.764 186.673 114.657 189.082 109.488 188.106C106.347 187.511 103.557 185.697 100.447 184.98C97.4129 184.294 94.1959 184.66 91.1619 183.944C88.1431 183.227 84.9869 181.428 82.1206 182.572C82.1206 182.541 82.1206 182.511 82.1206 182.495C84.8802 179.583 88.4936 177.525 92.3815 176.564C95.0953 175.878 97.9313 175.726 100.691 176.168C101.834 176.351 102.963 176.625 104.076 176.946C105.631 178.013 106.622 179.858 108.894 180.178C112.172 180.62 115.831 182.16 119.048 181.382C121.441 180.788 124.293 179.522 126.808 179.705C129.4 179.888 133.425 181.199 134.187 184.157L134.218 184.142Z" fill="#406919"/>
		<path d="M81.6176 195.211C79.5136 195.531 77.3334 195.211 75.397 194.342C73.4303 193.488 71.6921 192.085 70.5182 190.301C70.1827 189.783 69.8626 189.219 69.5729 188.64C69.6339 188.64 69.6796 188.64 69.7558 188.64C71.3415 188.731 71.6616 189.615 72.9881 190.393C74.9549 191.552 76.1594 191.186 78.1719 190.85V190.805C78.1262 190.286 78.3091 189.905 78.5988 189.646C78.736 189.646 78.8732 189.631 78.9952 189.615C79.3459 190.362 79.6965 191.094 80.0472 191.841C80.5808 192.954 81.0992 194.067 81.6328 195.196L81.6176 195.211Z" fill="#406919"/>
		<path d="M82.8677 178.714C81.1296 174.796 75.8544 174.506 71.6159 173.957C66.0204 173.225 60.4097 170.816 57.0402 166.288C55.8662 164.703 54.9819 162.904 54.0214 161.181C53.3963 160.052 52.7254 158.924 52.0241 157.842C51.8564 157.598 51.7039 157.354 51.5362 157.11C51.216 156.637 50.8959 156.18 50.5605 155.707C49.6609 154.472 48.7156 153.268 47.7093 152.094C46.2456 150.371 44.66 148.74 42.9982 147.215C43.6843 146.834 44.4619 146.636 45.4071 146.895C47.4654 147.459 48.6546 150.401 49.9811 151.758C50.7892 152.597 51.6125 153.451 52.451 154.304C52.8779 154.747 53.3201 155.189 53.7775 155.631C54.2196 156.058 54.6618 156.485 55.1192 156.912C55.4088 157.186 55.6985 157.445 56.0034 157.704C58.0617 159.519 60.7298 160.525 62.6814 162.4C62.7881 162.507 62.9101 162.599 63.0321 162.69C63.0931 162.66 63.1388 162.629 63.1998 162.599C63.8706 162.187 64.6024 162.385 65.1665 162.858C65.5325 163.147 65.8069 163.513 66.0203 163.895C67.5907 164.199 69.3289 164.306 70.8535 164.733C71.0518 164.642 71.2804 164.581 71.5091 164.581C71.6464 164.581 71.7988 164.596 71.936 164.642C71.9817 164.642 72.0122 164.642 72.0427 164.642C74.7871 165.602 77.2113 167.355 79.0713 169.581C81.2363 172.158 82.6238 175.375 82.8677 178.729V178.714Z" fill="#406919"/>
		<path d="M87.6399 19.9066C87.5485 20.1963 87.457 20.5165 87.3046 20.7757C86.9691 21.3855 86.344 21.782 85.7341 22.1479C85.1853 22.4833 84.6059 22.834 83.9656 22.9254C83.9961 22.8492 84.0266 22.773 84.0723 22.712C84.1943 22.4528 84.3467 22.2241 84.5297 22.0107C84.6822 21.8277 84.8499 21.6447 85.0481 21.477C85.1548 21.3856 85.2768 21.2788 85.3835 21.1873C85.475 20.4098 86.222 19.7847 86.9996 19.7847C87.2436 19.7847 87.4417 19.8304 87.6399 19.9219V19.9066Z" fill="#6E840F"/>
		<path d="M83.4014 22.2547C83.4014 22.3309 83.3708 22.4071 83.3556 22.4986C82.4865 22.3766 81.7852 21.7058 81.3583 20.9282C81.282 20.7758 81.1906 20.6233 81.1296 20.4708C82.0597 20.7605 82.822 21.4466 83.4014 22.2547V22.2547Z" fill="#6E840F"/>
		<path d="M89.5457 34.6653C89.5457 34.5739 89.5457 34.4824 89.5457 34.3909C89.9878 33.4304 90.3995 32.4394 90.7502 31.4483C90.7807 31.4483 90.7958 31.4483 90.8263 31.4331C90.8873 31.4331 90.9485 31.4026 91.0094 31.3874C91.0857 31.1891 91.2227 30.9909 91.4209 30.7927C92.351 29.9237 92.2901 28.8107 92.8237 27.7282C92.8999 27.591 92.9915 27.4538 93.0982 27.3165C93.0982 25.7462 93.0676 24.13 94.1349 23.1695C94.3178 23.0018 94.5008 22.8798 94.6837 22.7883C94.8362 27.2556 92.8999 31.7533 89.5457 34.6806V34.6653Z" fill="#5B812C"/>
		<path d="M87.2892 30.8841C85.4291 32.1038 82.9897 30.9146 81.3888 29.268C81.5718 29.2985 81.77 29.3747 81.9682 29.5119C82.9287 30.1218 83.3403 30.2742 84.3466 29.7406C84.9412 29.4204 85.5053 29.1765 86.1152 29.0088C86.6488 29.5272 87.0757 30.1523 87.2739 30.8841H87.2892Z" fill="#5B812C"/>
		<path d="M92.7018 43.0965C91.3144 41.8463 88.9968 42.8831 87.2892 42.1207C86.8471 41.9225 86.4964 41.6329 86.1763 41.2822C86.2677 41.2822 86.3745 41.2822 86.4812 41.2974C87.1216 41.3889 87.4112 41.1602 87.9906 40.8858C88.2955 40.7333 88.6157 40.6418 88.9206 40.5961C89.0883 40.5808 89.2561 40.5656 89.4238 40.5961C89.5 40.5961 89.5762 40.5961 89.6524 40.6114C89.6829 40.6114 89.7134 40.6113 89.7592 40.6418C89.8506 40.6418 89.9574 40.6723 90.0488 40.7028C90.43 40.8401 90.7808 41.084 91.0095 41.4347C91.04 41.4956 91.0704 41.5414 91.1009 41.6024C91.2076 41.6481 91.3753 41.7244 91.4668 41.7548C91.6802 41.8463 91.8937 41.9378 92.1072 42.0445C92.1529 42.075 92.1986 42.0903 92.2443 42.1207C92.4273 42.4257 92.5949 42.7611 92.7322 43.0965H92.7018Z" fill="#6E840F"/>
		<path d="M105.997 36.3575C105.143 37.2418 104.304 38.1414 103.374 38.8732C101.453 40.3826 99.1205 41.2822 97.2147 42.8221C95.7815 43.9656 94.6532 45.4597 93.9214 47.1368C93.9519 46.5727 93.9976 46.0086 94.0891 45.4597C94.272 44.8956 94.6076 44.3772 95.1412 43.9961C96.2389 43.2032 97.1842 42.4257 97.8246 41.2059C98.0533 40.7638 98.4039 40.1234 98.8918 39.8947C100.63 39.1019 101.697 37.2114 103.557 36.6777C104.381 36.4338 105.189 36.3576 105.981 36.3728L105.997 36.3575Z" fill="#6E840F"/>
		<path d="M102.795 49.561C102.277 52.7323 99.2883 55.187 96.5134 57.108C96.5134 57.0471 96.5438 57.0013 96.5438 56.9403C96.62 56.8031 96.6659 56.6507 96.7116 56.4982C96.8031 56.3 96.9098 56.117 97.0318 55.9493C97.7941 54.9431 99.2119 54.9431 99.8218 53.8606C100.477 52.6866 101.057 51.1467 101.987 50.1709C102.231 49.9117 102.505 49.7135 102.795 49.561V49.561Z" fill="#5B812C"/>
		<path d="M98.663 69.1071C98.8612 69.6864 98.9985 70.281 99.1052 70.9061C96.0255 69.9914 93.3422 67.8568 91.7718 65.0667C91.5126 64.6093 91.2838 64.1367 91.0856 63.6641C91.5582 63.7708 92.0766 63.8318 92.4731 63.9995C93.0067 64.2282 93.0677 64.9753 93.6013 65.1735C95.0192 65.7376 95.5223 66.4084 96.2389 67.7044C96.7878 68.6802 97.8702 68.6039 98.663 69.0918V69.1071Z" fill="#2A4E10"/>
		<path d="M112.339 60.4014C112.278 60.752 112.187 61.1027 112.08 61.4534C111.76 62.3834 111.242 63.2067 110.632 63.9995C110.205 64.5484 109.732 65.082 109.275 65.6004C106.454 68.8022 103.511 72.0954 99.6083 73.7878C99.2881 73.925 99.8675 73.6048 99.593 73.4066C99.3186 73.2084 100.157 72.5223 99.6083 72.9797C99.9132 70.5708 100.676 69.3206 102.017 67.2928C102.094 67.1708 102.17 67.0488 102.261 66.9269C102.429 66.6677 102.612 66.4085 102.78 66.1493C102.886 66.1798 102.993 66.2255 103.1 66.2865C103.237 66.3628 103.374 66.4542 103.496 66.5609C103.969 66.5305 104.457 66.7287 104.807 67.0336C104.929 67.1403 105.051 67.2471 105.173 67.3385C105.92 66.6067 106.744 65.9968 107.445 65.1583C108.329 64.0758 108.604 62.109 109.656 61.2552C110.113 60.8893 110.753 60.5996 111.409 60.4623C111.714 60.4014 112.034 60.3709 112.339 60.4014V60.4014Z" fill="#6E840F"/>
		<path d="M122.753 77.2487C122.676 78.2854 122.356 79.2765 122.021 80.2522C121.091 83.0728 120.161 85.8934 119.231 88.714C118.605 90.6199 117.874 92.6476 116.227 93.7606C114.306 95.0566 111.79 94.7212 109.473 94.6144C106.378 94.4772 103.268 94.8736 100.31 95.7884C101.621 93.6692 103.74 92.3884 105.966 91.1687C106.027 91.123 106.103 91.0925 106.164 91.062C106.363 91.0468 106.561 91.0315 106.759 91.0163C107.171 91.001 107.537 91.1687 107.811 91.4279C107.948 91.5499 108.055 91.7024 108.147 91.8548C108.787 91.8548 109.412 91.9158 110.007 92.0683C110.662 91.9768 111.303 91.8548 112.126 91.3822C114.199 90.2082 115.998 89.9338 117.249 87.6163C119.353 83.7284 119.81 79.246 122.006 75.3581C122.189 75.0532 122.417 74.8245 122.676 74.7025C122.692 75.5411 122.783 76.3949 122.722 77.2334L122.753 77.2487Z" fill="#4F7C22"/>
		<path d="M99.5323 76.761C99.1664 77.0659 98.8003 77.3708 98.4802 77.691C97.7483 78.3924 97.0929 79.1547 96.5135 79.978C96.3915 80.1457 96.2846 80.3134 96.1627 80.4811C96.0254 80.6793 95.9035 80.8928 95.7815 81.091C95.0192 82.3565 94.2875 83.8506 92.8696 84.3232C92.7933 84.3537 92.7018 84.369 92.6256 84.3842C92.5493 84.4147 92.4578 84.43 92.3816 84.43C92.3053 84.43 92.2443 84.4605 92.1681 84.4605C92.1071 84.4605 92.0461 84.4757 91.9851 84.4757C91.726 84.4909 91.4669 84.4757 91.1925 84.4757C90.9485 84.4605 90.6892 84.4452 90.4605 84.43C90.3538 84.43 90.2318 84.43 90.1251 84.4147C89.8812 84.3995 89.6373 84.3995 89.4086 84.4147C89.1646 84.4452 88.9359 84.4757 88.7072 84.5367H88.6768C88.6463 84.5367 88.631 84.552 88.6157 84.5672C88.5395 84.5977 88.4633 84.6282 88.3871 84.6587C88.5548 84.5062 88.7529 84.3842 88.9664 84.308C89.4085 84.1555 89.805 83.9726 90.1709 83.7286C90.2471 83.5152 90.3385 83.3017 90.4605 83.0578C90.8264 82.265 91.7717 82.0058 92.5493 81.9753H92.5645C92.6865 81.7313 92.8085 81.4874 92.9609 81.2129C93.3574 80.4811 93.8301 79.9018 94.4095 79.3071C94.5009 79.2157 94.5923 79.1089 94.6838 79.0022C95.0345 78.5448 95.2632 78.0264 95.5224 77.5386C95.6139 77.3861 95.69 77.2336 95.7968 77.0812C96.3456 76.9592 96.9099 76.8677 97.474 76.8067C97.5045 76.8067 97.5349 76.8067 97.5654 76.8067C98.221 76.7457 98.8919 76.7305 99.5628 76.761H99.5323Z" fill="#5B812C"/>
		<path d="M107.491 123.171C107.369 123.248 107.232 123.324 107.11 123.385C107.018 123.43 106.912 123.476 106.82 123.522C106.668 123.583 106.515 123.644 106.363 123.69C106.317 123.705 106.256 123.72 106.195 123.735C106.088 123.766 105.981 123.796 105.875 123.827C105.829 123.827 105.783 123.842 105.737 123.857C105.646 123.888 105.555 123.903 105.448 123.918C105.311 123.949 105.158 123.964 105.021 123.979C104.838 124.01 104.655 124.025 104.472 124.04C104.289 124.056 104.106 124.071 103.923 124.071C103.633 124.071 103.328 124.086 103.039 124.086C102.52 124.086 102.002 124.071 101.484 124.025C100.706 123.964 99.9439 123.873 99.1815 123.735C98.9223 123.69 98.6632 123.644 98.4192 123.583C98.2363 123.537 98.0531 123.507 97.8854 123.446C97.7635 123.415 97.6415 123.385 97.5195 123.354C98.2209 122.333 99.5474 121.708 101.026 121.738C101.926 121.769 102.749 122.15 103.603 122.378C104.411 122.592 105.158 122.47 105.981 122.47C106.591 122.47 107.125 122.744 107.506 123.156L107.491 123.171Z" fill="#6E840F"/>
		<path d="M109.595 116.768C109.61 117.286 109.625 117.804 109.61 118.338C109.442 118.323 109.275 118.292 109.107 118.277C109.412 117.835 109.595 117.317 109.595 116.768Z" fill="#6E840F"/>
		<path d="M125.954 114.221C125.299 114.237 124.628 114.282 123.987 114.328C123.911 114.328 123.835 114.328 123.759 114.343C115.312 114.969 106.302 115.792 98.8766 111.797C98.8003 111.767 98.7241 111.721 98.6478 111.675L98.9223 111.523C99.3035 111.309 99.7 111.096 100.112 110.913C100.142 110.898 100.172 110.882 100.188 110.867C100.233 110.867 100.264 110.867 100.325 110.882H100.34C101.24 111.02 102.155 111.294 102.932 111.508C107.003 112.621 110.174 110.73 114.169 110.654C119.185 110.562 123.134 110.776 125.97 114.221H125.954Z" fill="#5B812C"/>
		<path d="M95.9493 128.248C91.7565 124.406 87.5026 120.488 84.6363 115.563C84.2704 114.923 83.935 114.282 83.6148 113.627C83.63 113.596 83.6605 113.581 83.6758 113.566C83.5995 111.843 82.9287 109.83 82.822 109.129C82.6847 108.275 83.0202 107.33 83.9654 107.132C88.1277 106.171 88.0515 110.364 90.9178 111.919C92.0918 112.559 93.0829 113.779 93.8605 115.212C94.5466 117.393 94.8514 119.664 95.1259 121.936C95.4003 124.04 95.6596 126.144 95.934 128.248H95.9493Z" fill="#2C560D"/>
		<path d="M90.0488 147.55C87.7619 146.163 85.4749 144.791 83.2032 143.403C82.2427 142.824 81.2669 142.229 80.4741 141.437C79.0714 140.019 78.37 138.098 77.6687 136.207C77.6687 136.207 77.684 136.207 77.6992 136.222C78.8427 137.061 79.5746 135.811 80.6723 135.948C81.4194 136.039 81.892 136.1 82.5018 136.527C83.0202 136.893 83.3556 137.442 83.63 138.006C84.0264 138.799 84.4687 138.418 85.2157 138.631C86.5422 138.982 87.2587 139.729 88.0363 140.598C88.7071 142.915 89.3933 145.233 90.0641 147.55H90.0488Z" fill="#4C7623"/>
		<path d="M121.99 156.866C120.283 158.604 118.728 160.525 116.73 161.897C113.391 164.169 109.122 164.687 105.128 164.123C101.133 163.574 97.352 162.035 93.6471 160.464C91.3449 159.488 88.9664 158.467 86.4812 158.497C88.7377 156.317 91.8784 156.043 95.1259 156.195C95.4156 156.409 95.6748 156.683 95.9035 156.988C96.056 157.201 96.1474 157.43 96.2084 157.689C99.7456 158.863 103.954 159.046 107.643 158.894C109.61 158.818 111.668 158.726 113.528 158.009C115.145 157.384 116.593 156.21 118.285 155.753C119.551 155.402 120.999 155.951 121.99 156.866Z" fill="#487220"/>
		<path d="M81.6176 195.211C79.5136 195.531 77.3333 195.211 75.397 194.342C75.5952 194.235 75.7934 194.098 75.9763 193.915C76.7234 193.198 77.501 192.329 78.5225 192.009C79.0561 191.841 79.5592 191.796 80.0319 191.841C80.5655 192.954 81.0839 194.067 81.6176 195.196V195.211Z" fill="#2A4E10"/>
		<path d="M124.262 183.822C119.764 186.673 114.657 189.082 109.488 188.106C106.347 187.511 103.557 185.697 100.447 184.981C97.4129 184.294 94.196 184.66 91.1619 183.944C88.1431 183.227 84.987 181.428 82.1206 182.572C82.0902 182.572 82.0749 182.572 82.0597 182.602C82.0597 182.587 82.0597 182.572 82.0597 182.556L82.1206 182.495C84.8803 179.583 88.4937 177.525 92.3815 176.564C92.412 176.564 92.4426 176.564 92.4731 176.58C94.074 176.976 96.2084 178.958 97.733 178.867C99.1967 178.79 101.072 178.638 102.292 179.644C103.74 180.849 103.877 181.626 105.936 182.023C111.623 183.075 117.325 183.502 123.103 183.349C123.53 183.334 123.942 183.517 124.247 183.822H124.262Z" fill="#2A4E10"/>
		<path d="M82.8678 178.714C81.1297 174.796 75.8545 174.506 71.6159 173.957C66.0205 173.225 60.4098 170.816 57.0403 166.288C55.8663 164.703 54.982 162.904 54.0214 161.181C53.3963 160.052 52.7255 158.924 52.0241 157.842C51.8564 157.598 51.7039 157.354 51.5362 157.11C51.2161 156.637 50.896 156.18 50.5605 155.707C49.661 154.472 48.7156 153.268 47.7094 152.094C49.112 152.826 50.1641 153.984 51.1856 155.235C51.5515 155.677 51.9174 156.134 52.2833 156.591C52.5272 156.896 52.7864 157.201 53.0456 157.491C53.2286 157.689 53.4116 157.887 53.5946 158.086C55.0735 159.61 55.5919 161.15 57.5891 162.385C59.5864 163.62 61.6142 164.809 63.7182 165.861C64.1298 166.06 64.5263 166.258 64.938 166.456C68.8563 167.203 72.9118 167.965 73.2472 168.087C74.1468 168.438 74.7414 168.85 75.153 169.322C76.4642 169.338 77.7755 169.322 79.0867 169.551C81.2517 172.128 82.6391 175.345 82.883 178.699L82.8678 178.714Z" fill="#2A4E10"/>
		<path d="M115.693 172.173C110.449 170.908 107.415 165.495 105.539 160.449C104.853 158.589 104.213 156.698 103.603 154.808C102.688 151.956 101.819 149.09 100.798 146.3C99.6999 143.235 98.4344 140.247 96.7878 137.442C96.1322 136.314 95.1565 135.094 93.8606 135.185C94.0131 134.255 94.0129 133.31 94.6685 132.624C94.76 132.67 94.8516 132.7 94.943 132.761C95.4004 132.975 95.8579 133.203 96.3153 133.447C101.728 136.359 106.165 141.055 108.711 146.635C109.473 148.313 110.083 150.081 110.235 151.911C110.357 153.451 110.159 154.975 109.991 156.515C109.915 157.232 109.839 157.964 109.824 158.68C109.747 160.738 110.083 162.797 110.738 164.748C111.714 167.615 113.422 170.222 115.693 172.189V172.173Z" fill="#9EC11B"/>
		<path d="M110.723 164.718C110.449 164.825 110.113 164.809 109.869 164.535C109.305 163.864 108.772 163.178 108.284 162.492C106.988 161.12 105.982 159.214 105.234 157.186C104.838 156.302 104.503 155.372 104.198 154.442C104.03 154.594 103.847 154.731 103.603 154.808C102.688 151.956 101.819 149.09 100.798 146.3C99.6999 143.235 98.4344 140.247 96.7878 137.442C96.1322 136.314 95.1565 135.094 93.8606 135.185C94.0131 134.255 94.0129 133.31 94.6685 132.624C94.76 132.67 94.8516 132.7 94.943 132.761C95.0498 132.837 95.1564 132.914 95.2784 132.99C95.4614 133.051 95.6139 133.127 95.7359 133.188C95.9341 133.264 96.117 133.356 96.3 133.447C101.713 136.359 106.149 141.055 108.695 146.635C109.458 148.313 110.068 150.081 110.22 151.911C110.342 153.451 110.144 154.975 109.976 156.515C109.9 157.232 109.824 157.964 109.808 158.68C109.732 160.738 110.068 162.797 110.723 164.748V164.718Z" fill="#8BAC12"/>
		<path d="M134.828 100.347C131.931 102.802 130.513 106.522 129.187 110.075C129.156 110.151 129.126 110.242 129.095 110.334C128.851 110.989 128.607 111.63 128.363 112.285C128.135 112.926 127.875 113.566 127.647 114.206C127.494 114.633 127.327 115.06 127.159 115.487C126.534 117.195 125.893 118.918 125.253 120.625C123.164 126.251 120.42 132.533 114.718 134.408C111.501 135.46 107.994 134.82 104.67 134.179C101.362 133.539 98.0532 132.914 94.7448 132.258C95.3699 131.542 96.1168 131.039 96.9249 130.688C99.7455 129.407 103.481 129.788 106.698 129.239C107.033 129.178 107.369 129.117 107.689 129.026C113.635 127.623 118.163 122.714 121.655 117.545C121.868 117.225 122.082 116.92 122.28 116.6C122.768 115.853 123.256 115.091 123.728 114.328C124.186 113.581 124.658 112.819 125.116 112.072C125.375 111.675 125.619 111.279 125.863 110.898C128.363 106.934 131.062 103.122 134.797 100.347H134.828Z" fill="#537D26"/>
		<path d="M110.22 151.88C110.342 153.42 110.144 154.945 109.976 156.485C109.458 156.576 108.894 156.439 108.528 156.043C107.399 154.869 106.683 153.618 106.683 151.895C104.64 150.325 102.597 147.794 101.286 146.163C101.133 146.224 100.965 146.27 100.798 146.285C99.6999 143.22 98.4344 140.232 96.7878 137.427C96.1322 136.298 95.1565 135.079 93.8606 135.17C94.0131 134.24 94.0129 133.295 94.6685 132.609C94.76 132.654 94.8516 132.685 94.943 132.746C95.4004 132.959 95.8579 133.188 96.3153 133.432C101.728 136.344 106.165 141.04 108.711 146.62C109.473 148.297 110.083 150.066 110.235 151.895L110.22 151.88Z" fill="#6E840F"/>
		<path d="M129.095 110.334C128.851 110.989 128.607 111.63 128.363 112.285C128.135 112.926 127.875 113.566 127.647 114.206C127.494 114.633 127.327 115.06 127.159 115.487C126.534 117.195 125.893 118.917 125.253 120.625C123.164 126.251 120.42 132.533 114.718 134.408C111.501 135.46 107.994 134.819 104.67 134.179C101.362 133.539 98.0532 132.914 94.7448 132.258C95.3699 131.541 96.1168 131.038 96.9249 130.688C99.7455 129.407 103.481 129.788 106.698 129.239C107.033 129.178 107.369 129.117 107.689 129.026C107.735 129.163 107.75 129.3 107.765 129.437C112.187 128.324 116.867 127.044 119.475 123.385C122.387 119.314 125.207 115.182 128.028 111.035C128.317 110.608 128.683 110.379 129.08 110.303L129.095 110.334Z" fill="#416921"/>
		<path d="M127.174 115.487C126.549 117.195 125.909 118.917 125.268 120.625C123.179 126.251 120.435 132.533 114.733 134.408C111.516 135.46 108.009 134.82 104.685 134.179C101.377 133.539 98.0685 132.914 94.76 132.258C95.3851 131.542 96.1321 131.038 96.9402 130.688C98.8612 131.298 100.935 131.587 102.444 131.191C103.908 130.81 105.341 130.932 106.759 130.977C107.018 130.81 107.308 130.688 107.628 130.703C108.665 130.733 109.656 130.657 110.601 130.474C110.815 130.383 111.028 130.291 111.241 130.169C113.894 128.706 117.081 127.242 119.246 125.062C119.535 124.772 119.81 124.452 120.084 124.147C120.466 123.69 120.831 123.202 121.182 122.714C121.35 121.494 121.96 120.366 123.118 119.817C123.85 118.597 124.552 117.362 125.284 116.173C125.756 115.411 126.518 115.274 127.159 115.502L127.174 115.487Z" fill="#2C560D"/>
		<path d="M99.9895 100.82H99.9592C98.0838 100.942 96.6658 102.558 94.943 103.351C92.9 104.311 90.5368 104.098 88.2955 103.854C86.8319 103.701 85.3834 103.549 83.9197 103.397C83.1574 103.32 82.3951 103.229 81.6176 103.153C79.8185 102.954 77.9584 102.787 76.0983 102.832C73.0033 102.863 70.015 103.442 67.6975 105.287C74.162 99.7983 83.0508 97.0997 91.3906 98.1822C92.1377 98.2737 92.8694 98.3957 93.586 98.5634C95.7815 99.036 97.9314 99.7831 99.9439 100.82C99.9439 100.82 99.9742 100.82 99.9742 100.835L99.9895 100.82Z" fill="#80AA3A"/>
		<path d="M99.9895 100.82H99.9592C98.0839 100.942 96.6659 102.558 94.943 103.351C92.9 104.311 90.5368 104.098 88.2956 103.854C86.8319 103.701 85.3834 103.549 83.9198 103.396C83.1574 103.32 82.3952 103.229 81.6176 103.152C79.8185 102.954 77.9585 102.787 76.0984 102.832C79.3764 100.896 82.5324 100.286 86.344 99.2189C88.2193 98.6853 89.7898 98.3041 91.3754 98.1821C92.1225 98.2736 92.8542 98.3956 93.5708 98.5633C95.7663 99.0359 97.9161 99.783 99.9287 100.82C99.9287 100.82 99.9592 100.82 99.9592 100.835L99.9895 100.82Z" fill="#739932"/>
		<path d="M99.9895 100.82H99.9592C98.0838 100.942 96.6659 102.558 94.943 103.351C92.9 104.311 90.5368 104.098 88.2956 103.854C86.8319 103.701 85.3834 103.549 83.9197 103.396C83.8892 103 84.0265 102.588 84.4382 102.253C85.4444 101.384 87.3197 101.399 89.1798 101.414C89.3627 101.125 89.6372 100.881 90.0183 100.759C91.4667 100.317 92.2901 99.036 93.6013 98.5481C95.7968 99.0207 97.9466 99.7678 99.9592 100.805C99.9592 100.805 99.9895 100.805 99.9895 100.82V100.82Z" fill="#4F7C22"/>
		<path d="M126.671 90.1777C125.543 89.1715 124.338 88.2567 123.073 87.4334C121.96 86.7015 120.816 86.046 119.627 85.4666C118.834 85.0702 117.996 84.7043 117.111 84.6585C116.928 84.6585 116.73 84.6585 116.562 84.6585C114.916 84.7805 113.437 85.863 111.897 86.5796C108.085 88.3177 103.283 87.6011 100.157 84.8262C100.493 84.689 100.859 84.5366 101.209 84.3993C101.316 84.3536 101.423 84.3078 101.545 84.2621C105.905 82.524 110.464 80.9689 115.084 81.5787C120.069 82.2496 124.613 85.6038 126.686 90.1777H126.671Z" fill="#9EC11B"/>
		<path d="M123.073 87.4333C121.96 86.7015 120.816 86.0459 119.627 85.4666C118.834 85.0701 117.996 84.7042 117.111 84.6585C116.928 84.6585 116.73 84.6585 116.562 84.6585C114.916 84.7805 113.437 85.863 111.897 86.5795C108.085 88.3176 103.283 87.6011 100.157 84.8262C100.493 84.689 100.859 84.5365 101.209 84.3993C101.316 84.3536 101.423 84.3078 101.545 84.2621C101.743 84.3383 101.941 84.4298 102.155 84.4755C105.585 83.9266 109.229 82.2038 112.629 82.28C113.361 82.1123 114.23 82.1276 114.809 82.28C115.815 82.5392 116.807 82.8289 117.691 83.2711C117.798 83.2711 117.919 83.3016 118.041 83.3778C119.978 84.567 121.731 85.741 123.088 87.4181L123.073 87.4333Z" fill="#8BAC12"/>
		<path d="M116.562 84.6738C114.916 84.7957 113.437 85.8782 111.897 86.5948C108.085 88.3329 103.283 87.6163 100.157 84.8415C100.493 84.7043 100.859 84.5518 101.209 84.4146C103.816 84.7652 106.408 84.7348 109.015 84.2469C111.058 83.8657 113.01 83.5455 115.099 83.6828C115.785 83.7285 116.334 84.1096 116.578 84.6738H116.562Z" fill="#6E840F"/>
		<path d="M83.9808 170.405C84.4229 168.057 83.2489 165.694 81.7547 163.834C76.9978 157.918 68.9172 155.372 61.3549 155.89C61.3092 155.89 61.2635 155.89 61.2177 155.89C59.8303 155.997 58.4581 156.18 57.1012 156.454C56.4303 156.592 55.7442 156.744 55.0734 156.912C54.3873 157.079 53.7012 157.278 53.0304 157.506C52.695 157.613 52.3442 157.72 52.0088 157.842C51.3227 158.07 50.6214 158.33 49.9506 158.589C49.4627 158.772 48.99 158.97 48.5174 159.168C45.5291 160.434 42.6627 161.989 39.9031 163.666C42.8152 161.486 45.7425 159.29 48.6698 157.11C49.2949 156.653 49.9048 156.18 50.5299 155.707C50.7281 155.555 50.9415 155.402 51.155 155.25C51.5667 154.93 51.9936 154.625 52.4052 154.32C52.8626 153.984 53.3201 153.634 53.7927 153.283C55.6985 151.85 57.6043 150.432 59.4949 149.014C61.2482 147.688 63.2455 146.315 65.441 146.559C66.2948 146.651 67.0724 146.986 67.8042 147.428C69.1307 148.221 70.3504 149.334 71.7683 149.959C73.8418 150.889 76.3422 150.813 78.2175 152.094C79.6202 153.054 80.4588 154.625 81.2364 156.134C81.8768 157.4 82.517 158.726 83.0659 160.098C84.4381 163.483 85.2005 167.066 83.9655 170.42L83.9808 170.405Z" fill="#9EC11B"/>
		<path d="M83.9808 170.405C84.423 168.057 83.249 165.694 81.7548 163.834C76.9979 157.918 68.9172 155.372 61.355 155.89C61.3092 155.89 61.2636 155.89 61.2178 155.89C59.8304 155.997 58.4582 156.18 57.1012 156.454C56.4304 156.592 55.7443 156.744 55.0734 156.912C54.3873 157.079 53.7013 157.278 53.0305 157.506C52.695 157.613 52.3443 157.72 52.0089 157.842C51.3228 158.07 50.6215 158.33 49.9506 158.589C49.4627 158.772 48.9901 158.97 48.5175 159.168C48.9291 158.879 49.3255 158.604 49.7372 158.314C50.3318 157.903 50.9264 157.491 51.521 157.095C51.7802 156.912 52.0242 156.744 52.2681 156.576C52.756 156.256 53.2438 155.921 53.7317 155.616C54.2196 155.296 54.7076 154.975 55.2107 154.655C55.8358 154.259 56.4456 153.862 57.0707 153.466C58.2142 152.399 59.1443 151.179 60.4708 150.295C61.8124 149.395 63.3066 149.38 64.755 148.968C65.6088 148.496 66.4474 148.008 67.3164 147.535C67.4841 147.444 67.6518 147.398 67.8195 147.367C69.1459 148.16 70.3657 149.273 71.7836 149.898C73.8571 150.828 76.3575 150.752 78.2329 152.033C79.6355 152.993 80.4741 154.564 81.2516 156.073C81.892 157.339 82.5324 158.665 83.0812 160.037C84.4534 163.422 85.2158 167.005 83.9808 170.359V170.405Z" fill="#8BAC12"/>
		<path d="M83.9808 170.405C84.423 168.057 83.249 165.694 81.7548 163.834C76.9979 157.918 68.9172 155.372 61.355 155.89C61.3702 155.875 61.4008 155.86 61.416 155.844C62.3156 155.189 62.6814 153.908 63.7334 153.207C64.9379 152.399 66.7675 152.643 68.0787 152.78C71.4177 153.146 75.9612 152.887 78.2786 155.692C79.0562 156.637 79.4068 157.796 80.5808 158.436C81.3431 158.848 82.4562 159.321 83.0203 160.007C83.0508 160.037 83.066 160.068 83.0812 160.083C84.4534 163.468 85.2158 167.051 83.9808 170.405V170.405Z" fill="#6E840F"/>
	</g>
	<defs>
		<clipPath id="clip0_122_1272">
			<rect width="113" height="209" fill="white"/>
		</clipPath>
	</defs>
</svg>
